<svg width="46" height="46" viewBox="0 0 46 46" fill="none" xmlns="http://www.w3.org/2000/svg">
	<path d="M0 14C0 6.26801 6.26801 0 14 0H32C39.732 0 46 6.26801 46 14V32C46 39.732 39.732 46 32 46H14C6.26801 46 0 39.732 0 32V14Z" fill="#F24C00"/>
	<path fill-rule="evenodd" clip-rule="evenodd" d="M34.9997 33.3256L11 33.3359L18.0311 29.4521L27.9575 29.4297L34.9997 33.3256Z" fill="white"/>
	<path fill-rule="evenodd" clip-rule="evenodd" d="M23.0154 12.998L10.998 33.3376L18.0362 29.4399L23.0075 20.9864L23.0154 12.998Z" fill="white"/>
	<path fill-rule="evenodd" clip-rule="evenodd" d="M23.0159 12.999L34.9997 33.3289L27.9616 29.4314L22.9902 20.9777L23.0159 12.999Z" fill="white"/>
</svg>
