<svg width="46" height="46" viewBox="0 0 46 46" fill="none" xmlns="http://www.w3.org/2000/svg">
	<path d="M0 14C0 6.26801 6.26801 0 14 0H32C39.732 0 46 6.26801 46 14V32C46 39.732 39.732 46 32 46H14C6.26801 46 0 39.732 0 32V14Z" fill="#0AC18E"/>
	<path d="M27.4698 26.3794C27.3781 25.702 27.0173 25.0648 26.3874 24.468C27.5921 24.5306 28.4663 23.9611 29.0103 22.7594C29.2108 22.3255 29.3031 21.9025 29.2874 21.4896C29.2715 21.0766 29.1548 20.6846 28.9361 20.3127C28.7179 19.9408 28.4458 19.5965 28.1209 19.2799C27.7959 18.9632 27.3992 18.6404 26.931 18.3119L28.294 15.9511L26.8514 15.1182L25.5263 17.4134C25.2765 17.2692 24.8919 17.0555 24.3726 16.7723L25.7086 14.4584L24.2658 13.6254L22.9028 15.9862C22.693 15.8734 22.3883 15.7018 21.9886 15.471L20.0081 14.3149L19.121 15.8513L20.1608 16.4517C20.6355 16.7257 20.7908 17.0986 20.6268 17.5701L19.0745 20.2588C19.137 20.2949 19.1851 20.3269 19.219 20.3548L19.069 20.2683L16.8948 24.0341C16.661 24.3238 16.3879 24.3786 16.0756 24.1983L15.0359 23.598L13.7556 25.1447L15.6292 26.2265C15.7479 26.295 15.9187 26.3957 16.142 26.5284C16.3649 26.6613 16.5326 26.7602 16.645 26.8251L15.2658 29.214L16.7088 30.0471L18.0718 27.6863C18.3304 27.8441 18.7096 28.0671 19.2092 28.3556L17.8517 30.7069L19.2943 31.5398L20.6735 29.1509C21.2001 29.4217 21.6814 29.6374 22.1176 29.7974C22.554 29.9574 22.9956 30.069 23.4425 30.1312C23.8893 30.1936 24.2977 30.1856 24.6675 30.1077C25.0372 30.0299 25.399 29.8681 25.7533 29.6229C26.1071 29.3773 26.434 29.0457 26.7337 28.6273C27.3163 27.8065 27.5616 27.057 27.4698 26.3794ZM23.4273 18.4746C23.471 18.4998 23.5952 18.5694 23.8 18.6835C24.005 18.7975 24.1753 18.8918 24.3114 18.9661C24.4475 19.0406 24.6241 19.153 24.8413 19.3034C25.0585 19.4537 25.236 19.5896 25.3741 19.7109C25.5122 19.8322 25.6544 19.983 25.8001 20.1629C25.9462 20.3429 26.0455 20.5169 26.0983 20.6847C26.1513 20.8527 26.1708 21.0389 26.1567 21.2432C26.143 21.4476 26.0765 21.6528 25.9576 21.8588C25.8566 22.0337 25.7366 22.1768 25.5975 22.2881C25.4585 22.3994 25.3045 22.4709 25.1364 22.5028C24.9681 22.5348 24.8036 22.5524 24.6435 22.5556C24.4835 22.5589 24.2986 22.5292 24.0892 22.4666C23.8798 22.404 23.6991 22.3455 23.5474 22.2911C23.3956 22.2368 23.2139 22.1549 23.0024 22.0452C22.7909 21.9355 22.631 21.8517 22.5231 21.7935C22.4151 21.7353 22.2699 21.6515 22.0874 21.542C21.9048 21.4324 21.7982 21.3687 21.7669 21.3506L23.4274 18.4746L23.4273 18.4745L23.4273 18.4746ZM23.6834 27.1287C23.541 27.2381 23.3924 27.319 23.2375 27.3712C23.0825 27.423 22.905 27.4455 22.7052 27.4383C22.5053 27.4313 22.3191 27.4111 22.1467 27.3782C21.974 27.3454 21.7755 27.2888 21.551 27.2093C21.3261 27.1294 21.133 27.0531 20.9708 26.9804C20.8088 26.9078 20.619 26.8148 20.4011 26.7016C20.1836 26.5882 20.0152 26.4974 19.8966 26.4289C19.7779 26.3604 19.629 26.2721 19.4496 26.1645C19.2701 26.0569 19.1556 25.9887 19.1056 25.9598L20.9338 22.7932C20.9837 22.822 21.1338 22.9046 21.3842 23.0407C21.6346 23.1769 21.8376 23.2902 21.9938 23.3804C22.1499 23.4705 22.3601 23.6042 22.6242 23.7818C22.8881 23.9589 23.103 24.1204 23.2689 24.2661C23.4345 24.4118 23.6056 24.5875 23.7823 24.7937C23.9589 24.9997 24.0836 25.1987 24.1562 25.3904C24.2286 25.5824 24.2612 25.7925 24.2539 26.0215C24.2468 26.2505 24.1782 26.4774 24.0484 26.7023C23.9473 26.8774 23.8259 27.0193 23.6834 27.1287Z" fill="white"/>
</svg>
