<svg width="46" height="46" viewBox="0 0 46 46" fill="none" xmlns="http://www.w3.org/2000/svg">
	<path d="M0 14C0 6.26801 6.26801 0 14 0H32C39.732 0 46 6.26801 46 14V32C46 39.732 39.732 46 32 46H14C6.26801 46 0 39.732 0 32V14Z" fill="#F7931A"/>
	<path d="M28.4943 23.4433C28.0761 22.9025 27.4451 22.5311 26.6012 22.3292C27.6758 21.7811 28.1481 20.8508 28.0184 19.5381C27.9751 19.0621 27.8435 18.6496 27.6235 18.2999C27.4032 17.9501 27.1061 17.669 26.7308 17.4563C26.3559 17.2433 25.9481 17.0812 25.5084 16.9694C25.0686 16.8576 24.5636 16.7765 23.9939 16.726V14H22.3282V16.6503C22.0397 16.6503 21.5998 16.6575 21.0085 16.6719V14H19.3426V16.726C19.1045 16.7333 18.7548 16.7369 18.2933 16.7369L16 16.726V18.5001H17.2007C17.7488 18.5001 18.0697 18.7454 18.1634 19.2357V22.3404C18.2356 22.3404 18.2933 22.3441 18.3366 22.3513H18.1634V26.6998C18.1058 27.0675 17.8967 27.2515 17.5361 27.2515H16.3355L16.0001 29.2312H18.1636C18.3006 29.2312 18.4988 29.233 18.7586 29.2362C19.0181 29.2399 19.2128 29.2417 19.3426 29.2417V32.0001H21.0089V29.2741C21.3117 29.2815 21.7516 29.285 22.3285 29.285V32.0001H23.9943V29.2417C24.5858 29.2129 25.1104 29.1591 25.5681 29.0795C26.0261 28.9999 26.4643 28.8757 26.8825 28.7061C27.3006 28.5367 27.6503 28.3257 27.9315 28.0732C28.2129 27.8211 28.4453 27.5 28.6295 27.1105C28.8131 26.721 28.9304 26.2703 28.9807 25.7581C29.0749 24.756 28.9126 23.9842 28.4943 23.4433ZM21.0409 18.6188C21.0914 18.6188 21.2338 18.617 21.4682 18.6133C21.7027 18.6096 21.8974 18.6061 22.0524 18.6024C22.2075 18.5989 22.4166 18.6079 22.68 18.6295C22.9432 18.6512 23.1649 18.6801 23.3451 18.7161C23.5254 18.7521 23.7239 18.8116 23.94 18.8945C24.1566 18.9774 24.3295 19.0784 24.4592 19.1974C24.5891 19.3163 24.699 19.4679 24.789 19.6518C24.8793 19.8356 24.9244 20.0466 24.9244 20.2845C24.9244 20.4865 24.892 20.6704 24.8272 20.8364C24.7624 21.0022 24.6648 21.1411 24.5352 21.2528C24.4055 21.3646 24.2718 21.4621 24.1348 21.545C23.9979 21.6278 23.8228 21.6946 23.6102 21.745C23.3975 21.7955 23.2118 21.8352 23.0533 21.864C22.8946 21.8929 22.6963 21.9127 22.4583 21.9235C22.2202 21.9343 22.0399 21.9416 21.9174 21.9452C21.7947 21.9487 21.6271 21.9487 21.4143 21.9452C21.2014 21.9416 21.0772 21.9397 21.041 21.9397V18.6188H21.0409V18.6188ZM25.5899 25.9854C25.5212 26.1514 25.433 26.2957 25.3249 26.4184C25.2166 26.5407 25.0741 26.649 24.8975 26.7427C24.7209 26.8365 24.5495 26.9121 24.3837 26.9698C24.2178 27.0278 24.0176 27.078 23.7834 27.1214C23.5487 27.1647 23.3433 27.1952 23.1665 27.2133C22.9899 27.2314 22.779 27.2457 22.5337 27.2567C22.2886 27.2673 22.0974 27.2728 21.9604 27.2728C21.8234 27.2728 21.6503 27.2708 21.4411 27.2673C21.2319 27.2639 21.0986 27.2621 21.0408 27.2621V23.6056C21.0985 23.6056 21.2698 23.6021 21.5547 23.5947C21.8397 23.5875 22.0721 23.5841 22.2524 23.5841C22.4327 23.5841 22.6816 23.5947 22.999 23.6165C23.3161 23.638 23.583 23.6703 23.7995 23.7136C24.0158 23.7569 24.2518 23.8236 24.508 23.9138C24.764 24.0039 24.9714 24.1139 25.1301 24.2437C25.2888 24.3737 25.4221 24.5393 25.5303 24.7413C25.6387 24.9432 25.6927 25.174 25.6927 25.4337C25.6927 25.6358 25.6585 25.8194 25.5899 25.9854Z" fill="#191B20"/>
</svg>
