<svg width="46" height="46" viewBox="0 0 46 46" fill="none" xmlns="http://www.w3.org/2000/svg">
	<path d="M0 14C0 6.26801 6.26801 0 14 0H32C39.732 0 46 6.26801 46 14V32C46 39.732 39.732 46 32 46H14C6.26801 46 0 39.732 0 32V14Z" fill="#0285FD"/>
	<mask id="mask0_3968_39305" style="mask-type:alpha" maskUnits="userSpaceOnUse" x="12" y="12" width="20" height="22">
		<path fill-rule="evenodd" clip-rule="evenodd" d="M30.8659 17.6859C31.2283 17.3812 31.2751 16.8405 30.9704 16.4782C28.9651 14.0929 26.072 12.7266 22.998 12.7266C17.4793 12.7266 12.7305 17.1673 12.7305 23.0172C12.7305 28.8397 17.528 33.3079 22.998 33.3079C25.9466 33.3079 28.6063 32.1381 30.9473 29.5744C31.2665 29.2248 31.2419 28.6826 30.8923 28.3634C30.5427 28.0442 30.0006 28.0689 29.6814 28.4184C27.6656 30.626 25.4656 31.5936 22.998 31.5936C18.4486 31.5936 14.4448 27.8646 14.4448 23.0172C14.4448 18.1407 18.4013 14.4408 22.998 14.4408C25.5625 14.4408 27.9765 15.581 29.6583 17.5814C29.9629 17.9437 30.5036 17.9905 30.8659 17.6859ZM25.268 21.5397C25.5639 21.1702 25.5043 20.6308 25.1348 20.3348C24.5099 19.8343 23.8806 19.5742 22.9987 19.5742C21.0297 19.5742 19.5644 21.1564 19.5644 23.0005C19.5644 24.8445 21.0297 26.4264 22.9987 26.4264C23.5889 26.4264 24.1127 26.2742 24.5839 26.0176C24.7838 25.9088 24.9497 25.7952 25.0824 25.6963C25.4733 25.4293 25.5738 24.896 25.3068 24.505C25.0399 24.1141 24.5065 24.0136 24.1156 24.2806C23.956 24.3962 23.8745 24.452 23.7642 24.512C23.5298 24.6396 23.2804 24.7121 22.9987 24.7121C22.007 24.7121 21.2787 23.9258 21.2787 23.0005C21.2787 22.075 22.0071 21.2885 22.9987 21.2885C23.4537 21.2885 23.7214 21.3991 24.0632 21.6728C24.4326 21.9688 24.9721 21.9092 25.268 21.5397ZM17.009 23.4537C16.5494 23.5668 16.2684 24.0311 16.3815 24.4908C17.0084 27.0393 18.8493 28.8418 21.0491 29.4831C22.7697 29.9847 24.435 29.831 25.9522 29.0837C26.3769 28.8746 26.5516 28.3608 26.3425 27.9361C26.1333 27.5114 25.6195 27.3367 25.1948 27.5458C24.0593 28.1051 22.8351 28.2181 21.5289 27.8373C19.8976 27.3618 18.5217 26.0146 18.0461 24.0813C17.933 23.6216 17.4687 23.3406 17.009 23.4537ZM26.8823 26.231C27.1936 25.8744 27.735 25.8376 28.0917 26.1489C28.4483 26.4602 28.4851 27.0017 28.1738 27.3583L28.0156 27.5395C27.7043 27.8962 27.1629 27.9329 26.8062 27.6216C26.4496 27.3103 26.4128 26.7689 26.7241 26.4122L26.8823 26.231ZM16.3815 21.5121C16.2684 21.9718 16.5494 22.4361 17.009 22.5492C17.4687 22.6623 17.933 22.3813 18.0461 21.9216C18.5217 19.9883 19.8976 18.6412 21.5289 18.1656C22.8351 17.7848 24.0593 17.8978 25.1948 18.4571C25.6195 18.6662 26.1333 18.4915 26.3425 18.0668C26.5516 17.6422 26.3769 17.1283 25.9522 16.9192C24.435 16.172 22.7697 16.0183 21.0491 16.5198C18.8493 17.1611 17.0084 18.9636 16.3815 21.5121ZM28.0917 20.0327C27.735 20.344 27.1936 20.3073 26.8823 19.9506L26.7241 19.7694C26.4128 19.4128 26.4496 18.8713 26.8062 18.56C27.1629 18.2487 27.7043 18.2855 28.0156 18.6421L28.1738 18.8233C28.4851 19.18 28.4483 19.7215 28.0917 20.0327Z" fill="white"/>
	</mask>
	<g mask="url(#mask0_3968_39305)">
		<rect x="11" y="11" width="24" height="24" fill="white"/>
	</g>
</svg>
