<svg width="46" height="46" viewBox="0 0 46 46" fill="none" xmlns="http://www.w3.org/2000/svg">
	<path d="M0 14C0 6.26801 6.26801 0 14 0H32C39.732 0 46 6.26801 46 14V32C46 39.732 39.732 46 32 46H14C6.26801 46 0 39.732 0 32V14Z" fill="#FABF41"/>
	<path fill-rule="evenodd" clip-rule="evenodd" d="M13.8088 32.9084V32.9755L13.8056 32.978V32.9893H21.6034C22.486 33.0014 23.3654 32.9311 24.2326 32.7757C25.146 32.5969 26.0359 32.3154 26.8845 31.9336C27.2525 31.7631 27.6055 31.5572 27.9617 31.3494C28.0518 31.2968 28.1422 31.244 28.2331 31.1917C28.6521 30.8932 29.0534 30.5696 29.4352 30.2258C30.4804 29.2809 31.2894 28.1022 31.7951 26.7876C31.829 26.6404 31.973 26.5457 32.1211 26.574H34.2447C34.4138 26.574 34.4696 26.5174 34.4696 26.3265V24.9666C34.4809 24.8363 34.4809 24.7044 34.4696 24.5742C34.4696 24.5402 34.4783 24.5062 34.4871 24.4723C34.5045 24.4047 34.5218 24.3374 34.4696 24.27H32.6955C32.4811 24.27 32.4811 24.2474 32.4811 24.0564C32.5426 23.372 32.5426 22.6852 32.4811 22.0008C32.4698 21.7986 32.5151 21.7986 32.672 21.7986H34.2228C34.4032 21.7986 34.4704 21.7533 34.4704 21.5737V19.7308C34.4648 19.6087 34.462 19.5468 34.4296 19.5155C34.3963 19.4832 34.3318 19.4832 34.201 19.4832H32.1898C32.0329 19.5099 31.8824 19.404 31.8541 19.247C31.6236 18.6443 31.3299 18.0675 30.9764 17.5279C30.6204 16.9956 30.2191 16.4956 29.7742 16.0337C29.1828 15.4431 28.5187 14.9302 27.797 14.5055C26.7089 13.8737 25.5189 13.4312 24.2804 13.2022C23.6793 13.0914 23.0717 13.0243 22.4601 13H14.0337C13.8088 13 13.8088 13.0453 13.8088 13.2249V19.281C13.8088 19.4946 13.7635 19.4946 13.5952 19.4946H11.1796C11 19.4946 11 19.5277 11 19.6515V21.6287C11 21.8083 11.0558 21.8083 11.1909 21.8083H13.6292C13.8088 21.8083 13.8088 21.8414 13.8088 21.9765V24.0888C13.8088 24.2797 13.7522 24.2797 13.6066 24.2797H11V26.4147C11 26.5942 11.0558 26.5942 11.1909 26.5942H13.6292C13.8088 26.5942 13.8088 26.6161 13.8088 26.7625V29.4031V30.2905V32.9084ZM29.326 19.302C29.3454 19.3522 29.3454 19.408 29.326 19.459H29.3802C29.3576 19.5261 29.2451 19.5488 29.2451 19.5488H16.2795C16.0659 19.5488 16.0659 19.5035 16.0659 19.3352V15.3469C16.0659 15.2004 16.0885 15.1333 16.2568 15.1333H22.2902C22.9326 15.1276 23.5733 15.1948 24.2003 15.3356C25.4429 15.63 26.5989 16.2157 27.5713 17.0433C27.7655 17.1881 27.9386 17.3588 28.0883 17.5489C28.4054 17.8636 28.6837 18.2139 28.9199 18.5942C29.0769 18.8166 29.212 19.0537 29.326 19.302ZM29.864 24.2676H23.0329H16.3361C16.1995 24.2676 16.1321 24.2676 16.0989 24.2339C16.0667 24.2012 16.0667 24.1367 16.0667 24.0095V22.0097C16.0667 21.852 16.112 21.7961 16.2803 21.7961H29.8753C30.0218 21.7961 30.0889 21.852 30.0889 21.9871C30.1447 22.6828 30.1447 23.3818 30.0889 24.0767C30.0784 24.2676 30.0096 24.2676 29.864 24.2676ZM29.326 26.6048C29.1351 26.5837 28.9426 26.5837 28.7516 26.6048H16.2916C16.1233 26.6048 16.0667 26.6048 16.0667 26.8297V30.729C16.0667 30.9086 16.0667 30.9539 16.2916 30.9539H22.0443C22.3194 30.9749 22.5944 30.9555 22.8638 30.8981C23.6987 30.8382 24.5198 30.657 25.3029 30.3585C25.5877 30.2598 25.8627 30.1311 26.1224 29.9766H26.2009C27.5495 29.2752 28.6449 28.1734 29.3357 26.8208C29.3357 26.8208 29.4142 26.6509 29.326 26.6064V26.6048Z" fill="#191B20"/>
</svg>
