<svg width="46" height="46" viewBox="0 0 46 46" fill="none" xmlns="http://www.w3.org/2000/svg">
	<path d="M0 14C0 6.26801 6.26801 0 14 0H32C39.732 0 46 6.26801 46 14V32C46 39.732 39.732 46 32 46H14C6.26801 46 0 39.732 0 32V14Z" fill="#008CE7"/>
	<path d="M34.9696 19.0593C34.9451 18.6861 34.8346 18.3131 34.6384 17.9881C34.4667 17.651 34.16 17.3863 33.8042 17.2539C33.4363 17.0733 33.0315 16.9891 32.6266 17.0011H17.367L16.2752 20.2147H30.0998L27.9162 26.7864H14.0917L13 30H28.3333C28.7901 29.9882 29.2419 29.9027 29.6704 29.7472C30.0998 29.5065 30.5903 29.2659 31.0074 28.9288C31.4123 28.6158 31.7803 28.2548 32.0992 27.8576C32.3691 27.4604 32.5898 27.0511 32.7738 26.6178L34.7978 20.3713C34.9819 19.962 35.0432 19.5046 34.9696 19.0593Z" fill="white"/>
	<path d="M28 22H20.0652L19 25H27.0186L28 22Z" fill="white"/>
</svg>
