<svg width="46" height="46" viewBox="0 0 46 46" fill="none" xmlns="http://www.w3.org/2000/svg">
	<path d="M0 14C0 6.26801 6.26801 0 14 0H32C39.732 0 46 6.26801 46 14V32C46 39.732 39.732 46 32 46H14C6.26801 46 0 39.732 0 32V14Z" fill="#2468E3"/>
	<path fill-rule="evenodd" clip-rule="evenodd" d="M30 25.9286H19.8182C17.5667 25.9286 16 24.2012 16 22.0714H26.8181C28.4326 22.0714 30 23.7988 30 25.9286ZM26.8181 15H19.8182C17.5674 15 16 16.5943 16 18.8571V20.7857H19.8182V18.8571H30C30 16.5943 28.4326 15 26.8181 15ZM26.1819 27.2143V29.1429H16C16 31.4057 17.5674 33 19.8182 33H26.8181C28.4326 33 30 31.4057 30 29.1429V27.2143H26.1819Z" fill="white"/>
</svg>
