<svg width="46" height="46" viewBox="0 0 46 46" fill="none" xmlns="http://www.w3.org/2000/svg">
	<path d="M0 14C0 6.26801 6.26801 0 14 0H32C39.732 0 46 6.26801 46 14V32C46 39.732 39.732 46 32 46H14C6.26801 46 0 39.732 0 32V14Z" fill="#2A5ADA"/>
	<path d="M22.5 14L20.9127 14.9162L16.5873 17.4259L15 18.3421V27.0263L16.5873 27.9425L20.9524 30.4522L22.5397 31.3684L24.127 30.4522L28.4127 27.9425L30 27.0263V18.3421L28.4127 17.4259L24.0873 14.9162L22.5 14ZM18.1746 25.1939V20.1746L22.5 17.6649L26.8254 20.1746V25.1939L22.5 27.7035L18.1746 25.1939Z" fill="white"/>
</svg>
