<svg width="46" height="46" viewBox="0 0 46 46" fill="none" xmlns="http://www.w3.org/2000/svg">
	<path d="M0 14C0 6.26801 6.26801 0 14 0H32C39.732 0 46 6.26801 46 14V32C46 39.732 39.732 46 32 46H14C6.26801 46 0 39.732 0 32V14Z" fill="#19A293"/>
	<path d="M14.5586 28.2574V20.2077L20.6632 24.8021V28.2574H22.2213V24.4777C22.221 24.3373 22.1881 24.1988 22.1253 24.0732C22.0625 23.9475 21.9714 23.8382 21.8592 23.7537L14.456 18.1799C14.3206 18.0793 14.16 18.0183 13.9919 18.0035C13.8239 17.9887 13.6551 18.0209 13.5042 18.0963C13.3533 18.1717 13.2264 18.2875 13.1373 18.4308C13.0483 18.5741 13.0008 18.7392 13 18.9079V28.2574H14.5586ZM31.4414 28.2574V20.2077L25.3368 24.8021V28.2574H23.7787V24.4777C23.779 24.3373 23.8119 24.1988 23.8747 24.0732C23.9375 23.9475 24.0286 23.8382 24.1408 23.7537L31.544 18.1822C31.6792 18.0817 31.8397 18.0207 32.0075 18.0058C32.1753 17.991 32.344 18.0229 32.4948 18.0981C32.6456 18.1732 32.7726 18.2887 32.8618 18.4316C32.9509 18.5746 32.9988 18.7394 33 18.9079V28.2574H31.4414Z" fill="white"/>
</svg>
