<svg width="46" height="46" viewBox="0 0 46 46" fill="none" xmlns="http://www.w3.org/2000/svg">
	<path d="M0 14C0 6.26801 6.26801 0 14 0H32C39.732 0 46 6.26801 46 14V32C46 39.732 39.732 46 32 46H14C6.26801 46 0 39.732 0 32V14Z" fill="#1A53ED"/>
	<path fill-rule="evenodd" clip-rule="evenodd" d="M22.6781 14.4613V13.0002H17.8397C15.5249 12.9812 13.5516 14.6131 13.0962 16.8711C12.6408 19.1291 13.8362 21.4062 15.9613 22.298C18.0864 23.1898 20.553 22.4688 21.8432 20.5713C23.1335 18.6737 22.9248 16.1121 21.312 14.4613H22.6781ZM23.3232 17.8388C23.3232 15.1633 25.4863 13.0002 28.1616 13.0002C30.837 13.0002 33 15.1633 33 17.8388C33 20.5143 30.837 22.6775 28.1616 22.6775C25.4863 22.6775 23.3232 20.5143 23.3232 17.8388ZM24.7842 17.8388C24.7842 19.6984 26.3022 21.2164 28.1616 21.2164C30.0211 21.2164 31.539 19.6984 31.539 17.8388C31.539 15.9793 30.0211 14.4613 28.1616 14.4613C26.3022 14.4613 24.7842 15.9793 24.7842 17.8388ZM17.8396 23.3227C15.1643 23.3227 13.0012 25.4858 13.0012 28.1613C13.0012 30.8368 15.1643 33 17.8396 33C20.515 33 22.678 30.8368 22.678 28.1613C22.678 25.4858 20.515 23.3227 17.8396 23.3227ZM14.4623 28.1613C14.4623 30.0209 15.9803 31.5389 17.8397 31.5389C19.6992 31.5389 21.2171 30.0209 21.2171 28.1613C21.2171 26.3018 19.6992 24.7837 17.8397 24.7837C15.9803 24.7837 14.4623 26.3018 14.4623 28.1613ZM14.4623 17.8388C14.4623 19.6984 15.9803 21.2164 17.8397 21.2164C19.6992 21.2164 21.2171 19.6984 21.2171 17.8388C21.2171 15.9793 19.6992 14.4613 17.8397 14.4613C15.9803 14.4613 14.4623 15.9793 14.4623 17.8388Z" fill="white"/>
</svg>
