<svg width="46" height="46" viewBox="0 0 46 46" fill="none" xmlns="http://www.w3.org/2000/svg">
	<path d="M0 14C0 6.26801 6.26801 0 14 0H32C39.732 0 46 6.26801 46 14V32C46 39.732 39.732 46 32 46H14C6.26801 46 0 39.732 0 32V14Z" fill="#1349E9"/>
	<path d="M23 12C16.9264 12 12 16.9264 12 23C12 29.0736 16.9264 34 23 34C29.0736 34 34 29.0736 34 23C34 16.9264 29.0736 12 23 12ZM33.4409 22.5498L32.5515 22.5571L32.5479 22.1832L33.4373 22.1759L33.4409 22.5498ZM33.2122 20.6257L32.33 20.7492L32.2792 20.3789L33.1614 20.2554L33.2122 20.6257ZM32.4535 18.2842L32.6059 18.6254L31.7964 18.9957L31.6439 18.6581L32.4535 18.2842ZM31.3389 16.5888L31.5858 16.8683L30.9178 17.4564L30.671 17.1769L31.3389 16.5888ZM30.0356 15.1984L30.3188 15.4416L29.738 16.1168L29.4548 15.8736L30.0356 15.1984ZM28.4818 13.9386L28.7941 14.1419L28.3076 14.8898L27.9954 14.6865L28.4818 13.9386ZM26.7102 13.0637L27.0696 13.1581L26.8446 14.0185L26.4851 13.9241L26.7102 13.0637ZM24.7644 12.5881L25.1347 12.6208L25.062 13.5102L24.6917 13.4776L24.7644 12.5881ZM22.7531 12.3521H23.1271V13.2416H22.7531V12.3521ZM21.0977 12.5881L21.1703 13.4776L20.8 13.5102L20.7274 12.6208L21.0977 12.5881ZM19.1518 13.0637L19.3769 13.9241L19.0175 14.0185L18.7924 13.1617L19.1518 13.0637ZM17.3838 13.9386L17.8667 14.6865L17.5545 14.8898L17.0716 14.1419L17.3838 13.9386ZM15.8264 15.1984L16.4073 15.8736L16.1241 16.1168L15.5432 15.4416L15.8264 15.1984ZM14.5231 16.5888L15.1911 17.1769L14.9442 17.4564L14.2762 16.8683L14.5231 16.5888ZM13.4122 18.2842L14.2218 18.6545L14.0693 18.9921L13.2597 18.6218L13.4122 18.2842ZM12.7043 20.2591L13.5865 20.3825L13.5356 20.7492L12.6535 20.6257L12.7043 20.2591ZM12.4284 22.1759L13.3178 22.1832L13.3142 22.5571L12.4248 22.5498L12.4284 22.1759ZM12.5083 24.2706L13.3941 24.1799L13.4304 24.5502L12.5446 24.6409L12.5083 24.2706ZM12.9112 26.1657L13.7789 25.9624L13.8624 26.3254L12.9947 26.5287L12.9112 26.1657ZM13.8842 28.4274L13.699 28.1043L14.4723 27.6614L14.6574 27.9845L13.8842 28.4274ZM15.1439 30.0139L14.8716 29.7561L15.4851 29.1099L15.7574 29.3677L15.1439 30.0139ZM16.5706 31.2809L16.2657 31.063L16.7812 30.337L17.0861 30.5548L16.5706 31.2809ZM18.2333 32.3918L17.903 32.2175L18.3168 31.4297L18.6472 31.604L18.2333 32.3918ZM20.0776 33.0997L19.7109 33.038L19.8561 32.1594L20.2228 32.2211L20.0776 33.0997ZM21.6858 33.401L21.6785 32.5116L22.0525 32.5079L22.0597 33.3974L21.6858 33.401ZM13.7389 23C13.7389 17.8957 17.8957 13.7389 23 13.7389C28.1043 13.7389 32.2611 17.8921 32.2611 23C32.2611 28.1043 28.1079 32.2611 23 32.2611C17.8957 32.2611 13.7389 28.1043 13.7389 23ZM23.7261 33.4809H23.7152L23.6353 32.5951L24.0056 32.5624H24.0165L24.0964 33.4482L23.7261 33.4809ZM25.7119 33.0634L25.5558 32.1848L25.9224 32.1195L26.0785 32.998L25.7119 33.0634ZM27.6033 32.4099L27.2984 31.5713L27.6505 31.4442L27.9554 32.2828L27.6033 32.4099ZM29.2878 31.3789L28.736 30.6782L29.03 30.4459L29.5818 31.1465L29.2878 31.3789ZM30.7182 29.9812L30.0792 29.364L30.337 29.0954L30.9759 29.7125L30.7182 29.9812ZM31.8908 28.4782L31.1719 27.9554L31.3898 27.6541L32.1086 28.1769L31.8908 28.4782ZM32.8419 26.6848L31.9997 26.3908L32.1231 26.0386L32.9653 26.3327L32.8419 26.6848ZM33.3683 24.6591L32.4789 24.6191L32.497 24.2452L33.3865 24.2851L33.3683 24.6591Z" fill="white"/>
	<path d="M26.911 28.026L26.6351 27.7464L26.0978 27.2019C26.7222 26.6065 27.1179 26.0075 27.0562 24.6279C27.0526 24.519 27.0634 23.1431 27.0634 23.0342C27.0634 22.9253 27.0598 22.1085 27.0598 22.0032C27.0634 19.4547 26.439 18.2966 24.7219 17.8864C24.5258 17.8392 23.5892 17.8174 23.3859 17.8174H23.2951C23.0918 17.8174 22.0281 17.8428 21.8357 17.8864C20.1186 18.2966 19.4941 19.451 19.4978 22.0032C19.4978 22.1085 19.4941 22.9289 19.4941 23.0342C19.4941 23.1431 19.505 24.519 19.5014 24.6279C19.3852 27.1837 20.8374 27.9679 22.413 27.9134H24.1519C24.6129 27.9316 25.0631 27.8408 25.4661 27.6448L26.0978 28.2837L26.3737 28.5633C26.5334 28.7157 26.7766 28.723 26.9219 28.5778C27.0634 28.4289 27.0598 28.1857 26.911 28.026ZM24.2535 27.0966H22.2968C21.9229 27.0966 21.3856 27.0022 20.9535 26.5484C20.4889 26.0619 20.2638 25.6517 20.311 24.6606C20.3146 24.5916 20.3146 24.588 20.3073 23.3464V23.0306V22.3336C20.3073 21.9088 20.311 22.0576 20.311 21.9996C20.311 20.8705 20.438 19.8867 20.7139 19.4438C20.8773 19.1824 21.1605 18.8847 22.0136 18.6778C22.1806 18.6524 23.041 18.627 23.2988 18.627H23.3895C23.6473 18.627 24.3842 18.6524 24.5512 18.6778C25.4044 18.8847 25.6875 19.1788 25.8509 19.4438C26.1268 19.8867 26.2539 20.8705 26.2539 21.9996C26.2539 22.0576 26.2539 21.9088 26.2575 22.3336V23.3464C26.2502 24.588 26.2502 24.5916 26.2539 24.6606C26.2974 25.6517 26.076 26.0583 25.6113 26.5484C25.5859 26.5738 25.5641 26.5992 25.5387 26.621L25.0413 26.1164L24.7654 25.8369C24.6057 25.6844 24.3625 25.6807 24.2172 25.826C24.0684 25.9712 24.0757 26.2144 24.2245 26.3741L24.5004 26.6537L24.8562 27.0131C24.6493 27.0675 24.4496 27.0966 24.2535 27.0966Z" fill="white"/>
</svg>
