<svg width="46" height="46" viewBox="0 0 46 46" fill="none" xmlns="http://www.w3.org/2000/svg">
	<path d="M0 14C0 6.26801 6.26801 0 14 0H32C39.732 0 46 6.26801 46 14V32C46 39.732 39.732 46 32 46H14C6.26801 46 0 39.732 0 32V14Z" fill="#5F2652"/>
	<path fill-rule="evenodd" clip-rule="evenodd" d="M26.8696 22.7991C26.6383 22.1417 26.2385 21.5553 25.7096 21.0969L25.5087 20.931L25.4976 20.9201C25.4333 20.8685 25.3663 20.8204 25.2967 20.7762L25.2855 20.7652C25.2187 20.7209 25.1517 20.6769 25.0735 20.6326C25.0623 20.6326 25.0623 20.6215 25.052 20.6215C24.9837 20.5803 24.9129 20.5434 24.84 20.5109C24.8288 20.5109 24.8288 20.5001 24.8185 20.5001C24.7515 20.4668 24.6733 20.4336 24.5953 20.4005C24.5842 20.4005 24.5842 20.3894 24.5738 20.3894C24.5068 20.3682 24.4398 20.3341 24.373 20.312C24.1919 20.2438 24.005 20.192 23.8145 20.1573C23.6695 20.4338 23.4686 20.6769 23.2454 20.8869C23.5825 20.9118 23.9134 20.9902 24.2254 21.1191C24.403 21.1938 24.5745 21.2823 24.7382 21.3835C24.7463 21.3848 24.7539 21.3887 24.7597 21.3946C24.8043 21.4158 24.8376 21.4499 24.8823 21.4831C24.9035 21.4944 24.9225 21.5093 24.9382 21.5273C24.978 21.5533 25.0153 21.5828 25.0497 21.6156C25.0711 21.6369 25.0943 21.6489 25.1167 21.671C25.1502 21.7041 25.1837 21.7263 25.2172 21.7595L25.284 21.8257L25.3734 21.9141L25.4404 21.9803C25.4635 22.0122 25.4896 22.0419 25.5184 22.0688C25.5399 22.0901 25.5631 22.1242 25.5854 22.1463L25.6524 22.2456C25.6739 22.2788 25.6969 22.301 25.7081 22.3342L25.7751 22.4335C25.7966 22.4667 25.8086 22.4999 25.831 22.5221C25.8524 22.5553 25.8645 22.5885 25.8866 22.6214C25.9087 22.6544 25.9201 22.6878 25.9424 22.721C25.9536 22.7542 25.976 22.7874 25.9871 22.8204C26.0086 22.8646 26.0206 22.9089 26.043 22.9421C26.1361 23.1691 26.1998 23.4068 26.2327 23.6496L26.333 24.0364C26.3777 24.2022 26.7794 25.6169 27.7169 26.0922C28.7882 26.6454 30.2053 27.3301 30.7632 27.5955L23.4102 31.9511V28.9666C23.4102 28.4913 24.3588 27.9387 24.794 27.7508L24.8155 27.7398C24.9047 27.6955 24.994 27.6512 25.0832 27.5962L25.1167 27.5749C25.3067 27.4622 25.486 27.3327 25.6524 27.188C25.6636 27.177 25.6857 27.1668 25.6969 27.1438C25.7184 27.1327 25.7304 27.1105 25.7528 27.0995C25.8086 27.0553 25.8533 27.0002 25.9089 26.9559L25.9304 26.9346C25.9883 26.8809 26.0407 26.8217 26.0868 26.7578C26.0978 26.7365 26.1201 26.7246 26.1313 26.7025C26.176 26.6582 26.2095 26.6029 26.2542 26.5477C26.2653 26.5367 26.2756 26.5146 26.2877 26.5036L26.4215 26.3046C26.4215 26.2935 26.4327 26.2935 26.4327 26.2833C26.4885 26.1948 26.5442 26.0954 26.6 26.0067C26.3768 25.7416 26.2095 25.4534 26.0756 25.1888C26.0185 25.3528 25.9476 25.5118 25.8636 25.6641C25.8301 25.7305 25.7854 25.7967 25.7519 25.8631C25.7407 25.8741 25.7407 25.8843 25.7304 25.8843C25.6959 25.9378 25.6587 25.9894 25.6189 26.039C25.6078 26.0501 25.5975 26.0722 25.5854 26.0833C25.5507 26.1361 25.5094 26.1843 25.4625 26.2269C25.4516 26.238 25.4516 26.2482 25.4411 26.2482C25.1725 26.5513 24.8464 26.7992 24.4813 26.9778L24.4142 27.011C24.2245 27.0883 22.5842 27.8289 22.5842 28.9451V31.9289L15.2193 27.5851C15.6993 27.2976 17.0829 26.4786 18.2212 26.1261C18.6676 25.9823 19.616 26.5792 20.1518 27.0104L20.1851 27.0434C20.2543 27.1118 20.329 27.1747 20.4083 27.2315L20.4298 27.2527C20.5971 27.3855 20.7758 27.518 20.9767 27.6177L21.1105 27.6838C21.1187 27.6851 21.1262 27.689 21.132 27.6948C21.2557 27.7611 21.3829 27.8206 21.5131 27.8732C21.5346 27.8842 21.5466 27.8842 21.569 27.8944C21.5801 27.8944 21.5904 27.9055 21.6136 27.9055C21.8002 27.971 21.9901 28.0263 22.1827 28.0715C22.3277 27.7949 22.5397 27.5519 22.7627 27.3419C22.4494 27.3215 22.1409 27.2545 21.8478 27.1429C21.8366 27.1318 21.8143 27.1318 21.8031 27.1216C21.7677 27.1116 21.7338 27.0967 21.7026 27.0774C21.6914 27.0664 21.6691 27.0664 21.6579 27.0561C21.6271 27.0436 21.5973 27.0289 21.5687 27.0121C21.3499 26.9067 21.144 26.7768 20.955 26.625L20.665 26.3582C20.3962 26.1239 20.1046 25.9166 19.7946 25.7392C19.0698 25.3303 18.4556 25.1975 17.9869 25.3411C17.0159 25.6508 15.9119 26.2365 15.2417 26.6233L22.5956 13.5376V19.2741C22.5956 19.473 22.2948 20.0037 21.2787 20.4568L21.2119 20.4898C21.1114 20.5339 21.022 20.5892 20.9217 20.6445L20.9002 20.6556C20.7084 20.7707 20.5257 20.9001 20.3535 21.0424C20.2453 21.1297 20.1447 21.2258 20.0528 21.3298L20.0416 21.3409C19.9429 21.4358 19.8527 21.539 19.7722 21.6495L19.761 21.6606C19.7166 21.7158 19.6831 21.771 19.6384 21.8263C19.6384 21.8374 19.6272 21.8374 19.6272 21.8476C19.5937 21.9029 19.5602 21.9471 19.5267 22.0023C19.5267 22.0133 19.5157 22.0133 19.5157 22.0236L19.4152 22.1921C19.404 22.2031 19.404 22.2134 19.3937 22.2363C19.3602 22.2916 19.3378 22.347 19.3155 22.3912C19.3142 22.3993 19.3104 22.4067 19.3045 22.4124C19.2831 22.4678 19.2599 22.5121 19.2375 22.5674C19.2264 22.5886 19.2264 22.6005 19.216 22.6225L19.149 22.7884C19.1379 22.8097 19.1379 22.8214 19.1275 22.8436C19.1176 22.8857 19.1027 22.9266 19.0831 22.9652C19.0719 22.9865 19.0719 23.0095 19.0616 23.0315C19.0504 23.0868 19.0281 23.1421 19.0169 23.1863C19.0057 23.2076 19.0057 23.2415 18.9954 23.2636C18.9843 23.2968 18.9843 23.341 18.9739 23.3742C18.9636 23.4074 18.9628 23.4406 18.9525 23.4736C18.9413 23.5178 18.9413 23.5621 18.931 23.6064C18.931 23.6396 18.9198 23.6615 18.9198 23.6946C18.9198 23.7389 18.9086 23.7721 18.9086 23.8164C18.9105 23.8572 18.9067 23.8981 18.8975 23.9379V24.1036C18.8953 24.3036 18.9102 24.5033 18.9422 24.7007C19.2324 24.7668 19.5335 24.8886 19.8573 25.0433C19.7693 24.7525 19.7205 24.4514 19.7123 24.1479V24.0926C19.7104 24.0187 19.7142 23.9448 19.7234 23.8715V23.8164C19.7252 23.7533 19.7324 23.6904 19.7449 23.6285V23.6073C19.7561 23.5408 19.7664 23.4744 19.7784 23.3972C19.7784 23.3759 19.7896 23.364 19.7896 23.3419C19.8008 23.2865 19.8231 23.2315 19.8343 23.1761C19.8343 23.1651 19.8455 23.1548 19.8455 23.1429L19.9125 22.944C19.9237 22.9329 19.9237 22.9108 19.934 22.8998C19.9555 22.8444 19.9784 22.7893 20.0008 22.745C20.0119 22.734 20.0119 22.7238 20.0223 22.7008C20.0558 22.6344 20.0781 22.5793 20.1228 22.524C20.134 22.5129 20.134 22.5027 20.1443 22.4908C20.1776 22.4354 20.1999 22.3914 20.2334 22.3361C20.2446 22.3251 20.2446 22.3148 20.2549 22.3029C20.2921 22.245 20.3331 22.1897 20.3776 22.1372C20.3775 22.1357 20.3778 22.1342 20.3784 22.1329C20.3789 22.1315 20.3797 22.1302 20.3808 22.1293C20.3818 22.1283 20.3831 22.1274 20.3844 22.1269C20.3858 22.1263 20.3873 22.1261 20.3887 22.1261C20.4334 22.0707 20.4669 22.0265 20.5116 21.9714C20.5228 21.9604 20.5228 21.9501 20.5331 21.9382C20.7336 21.7179 20.9625 21.5248 21.2139 21.3637L21.5597 21.198C21.7494 21.1207 23.3786 20.358 23.3786 19.2417V13.5393L30.7976 26.734C30.1391 26.4133 28.9675 25.8387 28.0636 25.3743C27.5392 25.1093 27.1931 24.1696 27.0928 23.8271L26.9923 23.4291C26.9923 23.2191 26.9366 23.0091 26.8696 22.7991ZM31.8912 26.955L23.7116 12.4201C23.6416 12.293 23.5383 12.1869 23.4126 12.1129C23.2869 12.039 23.1435 12 22.9973 12C22.8511 12 22.7076 12.039 22.5819 12.1129C22.4562 12.1869 22.353 12.293 22.283 12.4201L14.1034 26.955C13.8913 27.3308 14.014 27.8173 14.3936 28.0383L22.5844 32.8896C22.7138 32.962 22.8599 33 23.0085 33C23.1571 33 23.3031 32.962 23.4325 32.8896L31.6122 28.0493C31.9806 27.8173 32.1144 27.3308 31.8914 26.955H31.8912Z" fill="white"/>
</svg>
