<svg width="46" height="46" viewBox="0 0 46 46" fill="none" xmlns="http://www.w3.org/2000/svg">
	<path d="M0 14C0 6.26801 6.26801 0 14 0H32C39.732 0 46 6.26801 46 14V32C46 39.732 39.732 46 32 46H14C6.26801 46 0 39.732 0 32V14Z" fill="#33A9FB"/>
	<path fill-rule="evenodd" clip-rule="evenodd" d="M28.1096 14C28.2822 13.999 28.4493 14.0556 28.5857 14.1598L28.6637 14.2279L33.7759 19.3647C33.8785 19.4693 33.9488 19.5995 33.9812 19.7466L33.9988 19.8704L34 19.9419L33.9986 19.9691C33.9894 20.1096 33.9431 20.2446 33.8641 20.3608L33.7987 20.4442L23.5776 31.7416C23.4303 31.9056 23.2208 31.9995 22.9996 32C22.8163 31.9996 22.6403 31.9343 22.5018 31.818L22.4235 31.7423L12.2011 20.4434C12.0847 20.3139 12.0155 20.1501 12.0026 19.9796C11.9872 19.7905 12.0403 19.603 12.1519 19.4505L12.2259 19.3634L17.3375 14.2272C17.4601 14.105 17.6188 14.0279 17.7873 14.0063L17.8894 14L28.1096 14ZM25.4527 20.7016H20.5791L23.0074 28.5204L25.4527 20.7016ZM18.9504 20.7016H14.5401L21.2553 28.1223L18.9504 20.7016ZM31.4604 20.7016H27.0841L24.7729 28.0908L31.4604 20.7016ZM17.5578 16.2206L14.6581 19.1351H18.4638L17.5578 16.2206ZM28.4749 16.2538L27.5733 19.1351H31.3432L28.4749 16.2538ZM22.9681 16.1756L20.9145 19.1351H25.0663L22.9681 16.1756ZM27.0591 15.5654H24.4483L26.2604 18.1214L27.0591 15.5654ZM21.4932 15.5654H18.9835L19.7589 18.0638L21.4932 15.5654Z" fill="white"/>
</svg>
