<svg width="46" height="46" viewBox="0 0 46 46" fill="none" xmlns="http://www.w3.org/2000/svg">
	<path d="M0 14C0 6.26801 6.26801 0 14 0H32C39.732 0 46 6.26801 46 14V32C46 39.732 39.732 46 32 46H14C6.26801 46 0 39.732 0 32V14Z" fill="#2775CA"/>
	<path d="M20.0922 32.1085C19.8811 31.8781 19.5889 31.7476 19.3041 31.619C14.6187 29.5038 12.4513 24.0532 14.3605 19.3438C15.1467 17.21 16.7023 15.557 18.6979 14.4673C19.372 14.0992 20.2917 13.9043 20.4787 13.1593C20.509 13.0388 20.5241 12.9128 20.5241 12.7868V12.5246C20.5241 12.2623 20.2618 12 19.9995 12C19.9127 12 19.826 12.0139 19.7439 12.0423C15.0921 13.6523 12 18.0752 12 22.8846C12 27.824 15.0921 32.1192 19.7439 33.7269C19.826 33.7553 19.9127 33.7692 19.9995 33.7692C20.2618 33.7692 20.6552 33.5069 20.6552 33.2447C20.6552 33.0722 20.6167 32.9011 20.5338 32.7499C20.3978 32.5016 20.2565 32.2879 20.0922 32.1085Z" fill="white"/>
	<path d="M27.7373 25.2447C27.7373 23.5398 26.8193 22.6219 24.4588 22.0973L23.1474 21.835C21.836 21.5728 21.1803 21.0482 21.1803 20.3925C21.1803 19.9337 21.5654 19.3466 22.246 19.0353C22.8892 18.741 23.6665 18.6917 24.3158 18.9724C24.3793 18.9998 24.4418 19.0301 24.5029 19.063C25.2064 19.4415 25.496 20.5236 26.2947 20.5236H26.3528C26.7458 20.5236 27.2657 20.4767 27.3672 20.0971C27.4102 19.936 27.3243 19.786 27.2701 19.6283C26.9129 18.5906 26.1335 17.7863 25.0933 17.4308C24.6023 17.263 24.1965 16.846 24.1965 16.3272C24.1965 15.8026 23.8031 15.4092 23.2785 15.4092C22.7539 15.4092 22.3605 15.8026 22.3605 16.3272C22.3605 16.8452 21.9538 17.262 21.4636 17.4295C20.1749 17.8701 19.1893 19.0212 19.082 20.5236C19.082 22.0973 20 23.1464 22.0982 23.5398L23.5408 23.9333C24.9833 24.1955 25.5079 24.7201 25.5079 25.5069C25.5079 26.2938 24.4588 27.0806 23.1474 27.0806C22.3605 27.0806 21.4425 26.6872 21.0491 25.9004C20.918 25.6381 20.6557 25.3758 20.2623 25.3758H19.4755C19.3963 25.3758 19.3291 25.3997 19.2739 25.4402C18.9975 25.6431 19.1129 26.0733 19.243 26.3905C19.6488 27.3801 20.4795 28.1564 21.4609 28.4844C22.0105 28.6681 22.4917 29.124 22.4917 29.7034C22.4917 30.228 22.8851 30.6214 23.4096 30.6214C23.9342 30.6214 24.3276 30.228 24.3276 29.7034C24.3276 29.1123 24.7946 28.6377 25.3512 28.4387C26.712 27.9521 27.7373 26.7265 27.7373 25.2447Z" fill="white"/>
	<path d="M27.2057 12.0433C27.1239 12.0142 27.0374 12 26.9506 12C26.5572 12 26.2949 12.2623 26.2949 12.6557V12.7868C26.2949 13.3114 26.5572 13.7048 27.0818 13.9671C32.0651 15.9342 34.4256 21.5732 32.4585 26.5565C31.5405 28.917 29.5734 30.8841 27.0818 31.9333C26.5572 32.1955 26.2949 32.589 26.2949 33.1135V33.3758C26.2949 33.7692 26.5572 34.0315 26.9506 34.0315C27.0375 34.0315 27.1242 34.0176 27.2063 33.9892C31.858 32.3792 34.9501 27.9563 34.9501 23.1469C34.9501 18.0786 31.7306 13.6542 27.2057 12.0433Z" fill="white"/>
</svg>
