<svg width="46" height="46" viewBox="0 0 46 46" fill="none" xmlns="http://www.w3.org/2000/svg">
	<path d="M0 14C0 6.26801 6.26801 0 14 0H32C39.732 0 46 6.26801 46 14V32C46 39.732 39.732 46 32 46H14C6.26801 46 0 39.732 0 32V14Z" fill="#00A77C"/>
	<path fill-rule="evenodd" clip-rule="evenodd" d="M25.4329 23.676C25.325 23.6843 24.7672 23.7185 23.5229 23.7185C22.5333 23.7185 21.8306 23.6879 21.5842 23.676C17.7597 23.5029 14.9051 22.8182 14.9051 21.9984C14.9051 21.1785 17.7597 20.4947 21.5842 20.319V22.994C21.8342 23.0125 22.5504 23.056 23.54 23.056C24.7276 23.056 25.3223 23.0051 25.4293 22.9949V20.3208C29.2457 20.4957 32.094 21.1804 32.094 21.9984C32.094 22.8163 29.2466 23.501 25.4293 23.675L25.4329 23.676ZM25.4329 20.0441V17.6503H30.7589V14H16.2582V17.6503H21.5832V20.0431C17.255 20.2477 14 21.1295 14 22.1862C14 23.2429 17.255 24.1238 21.5832 24.3292V32H25.432V24.3264C29.7504 24.1219 33 23.2411 33 22.1852C33 21.1295 29.7531 20.2486 25.432 20.0431L25.4329 20.0441Z" fill="white"/>
</svg>
