<svg width="46" height="46" viewBox="0 0 46 46" fill="none" xmlns="http://www.w3.org/2000/svg">
	<path d="M0 14C0 6.26801 6.26801 0 14 0H32C39.732 0 46 6.26801 46 14V32C46 39.732 39.732 46 32 46H14C6.26801 46 0 39.732 0 32V14Z" fill="#23292F"/>
	<path d="M30 15.0801H32.8594L26.9062 21.1423C24.75 23.3395 21.25 23.3395 19.0938 21.1423L13.125 15.0801H15.9844L20.5156 19.6829C21.875 21.0782 24.0938 21.0782 25.4688 19.6829L30 15.0801Z" fill="white"/>
	<path d="M15.9531 31.92H13.0938L19.0938 25.8256C21.25 23.6284 24.75 23.6284 26.9062 25.8256L32.9062 31.92H30.0469L25.4688 27.285C24.1094 25.8898 21.8906 25.8898 20.5156 27.285L15.9531 31.92Z" fill="white"/>
</svg>
