<svg width="46" height="46" viewBox="0 0 46 46" fill="none" xmlns="http://www.w3.org/2000/svg">
	<path d="M0 14C0 6.26801 6.26801 0 14 0H32C39.732 0 46 6.26801 46 14V32C46 39.732 39.732 46 32 46H14C6.26801 46 0 39.732 0 32V14Z" fill="#272A32"/>
	<path fill-rule="evenodd" clip-rule="evenodd" d="M19.5776 28.3914C18.5848 29.1472 17.5924 29.9026 16.6 30.6581C14.4 28.8266 13 26.0692 13 22.9853C13 21.1696 13.4852 19.4672 14.3335 18L18.8879 23.9494L17.1983 25.7055C17.3945 26.1032 17.6897 26.6032 18.1293 27.1173C18.6417 27.7164 19.171 28.1252 19.5776 28.3914Z" fill="white"/>
	<path fill-rule="evenodd" clip-rule="evenodd" d="M28.414 26.4033C29.1709 27.3947 29.9274 28.3857 30.684 29.3767C28.8499 31.5735 26.0885 32.9715 23.0002 32.9715C21.1819 32.9715 19.4771 32.4871 18.0078 31.64L23.9657 27.092L25.7244 28.7793C26.1226 28.5833 26.6233 28.2886 27.1381 27.8495C27.7381 27.3379 28.1474 26.8093 28.414 26.4033Z" fill="white"/>
	<path fill-rule="evenodd" clip-rule="evenodd" d="M26.4219 17.5792C27.4146 16.8234 28.4071 16.068 29.3995 15.3125C31.5995 17.144 32.9995 19.9014 32.9995 22.9853C32.9995 24.801 32.5143 26.5034 31.666 27.9706L27.1116 22.0212L28.8012 20.2651C28.605 19.8674 28.3098 19.3674 27.8702 18.8533C27.3578 18.2542 26.8284 17.8454 26.4219 17.5792Z" fill="white"/>
	<path fill-rule="evenodd" clip-rule="evenodd" d="M17.5864 19.5682C16.8295 18.5769 16.0729 17.5859 15.3164 16.5949C17.1505 14.398 19.9119 13 23.0002 13C24.8185 13 26.5233 13.4845 27.9926 14.3316L22.0347 18.8795L20.2761 17.1923C19.8778 17.3882 19.3771 17.683 18.8623 18.122C18.2623 18.6337 17.853 19.1623 17.5864 19.5682Z" fill="white"/>
</svg>
