<svg width="13" height="15" viewBox="0 0 13 15" fill="none" xmlns="http://www.w3.org/2000/svg">
	<path fill-rule="evenodd" clip-rule="evenodd" d="M7.85717 0.0356445C8.03714 0.0356445 8.20973 0.107137 8.33699 0.234394L12.3866 4.28646C12.5138 4.41372 12.6072 4.60568 12.6072 4.78564V5.46422V12.9285C12.6072 14.0528 11.6957 14.9642 10.5715 14.9642H2.4286C1.3043 14.9642 0.392883 14.0528 0.392883 12.9285V2.07136C0.392883 0.947065 1.3043 0.0356445 2.4286 0.0356445H7.85717ZM10.969 4.78564L8.53574 2.35243V4.78564H10.969ZM7.1786 1.39279V5.46422C7.1786 5.83898 7.4824 6.14279 7.85717 6.14279H11.25V12.9285C11.25 13.3033 10.9462 13.6071 10.5715 13.6071H2.4286C2.05383 13.6071 1.75003 13.3033 1.75003 12.9285V2.07136C1.75003 1.69659 2.05383 1.39279 2.4286 1.39279H7.1786ZM9.89288 8.1785C9.89288 7.80374 9.58908 7.49993 9.21431 7.49993H3.78574C3.41098 7.49993 3.10717 7.80374 3.10717 8.1785C3.10717 8.55327 3.41098 8.85707 3.78574 8.85707H9.21431C9.58908 8.85707 9.89288 8.55327 9.89288 8.1785ZM5.48031 10.2142C5.85508 10.2142 6.15888 10.518 6.15888 10.8928C6.15888 11.2676 5.85508 11.5714 5.48031 11.5714H3.78574C3.41098 11.5714 3.10717 11.2676 3.10717 10.8928C3.10717 10.518 3.41098 10.2142 3.78574 10.2142H5.48031ZM9.89288 10.8928C9.89288 10.518 9.58908 10.2142 9.21431 10.2142H7.85717C7.4824 10.2142 7.1786 10.518 7.1786 10.8928C7.1786 11.2676 7.4824 11.5714 7.85717 11.5714H9.21431C9.58908 11.5714 9.89288 11.2676 9.89288 10.8928ZM5.14288 4.78564C5.51765 4.78564 5.82145 5.08945 5.82145 5.46422C5.82145 5.83898 5.51765 6.14279 5.14288 6.14279H3.78574C3.41098 6.14279 3.10717 5.83898 3.10717 5.46422C3.10717 5.08945 3.41098 4.78564 3.78574 4.78564H5.14288Z" fill="#191B20"/>
</svg>
