<svg width="20" height="19" viewBox="0 0 20 19" fill="none" xmlns="http://www.w3.org/2000/svg">
	<path d="M15.0041 4.00409C14.7389 4.00409 14.4845 4.10945 14.297 4.29699C14.1094 4.48452 14.0041 4.73888 14.0041 5.00409V12.5941L5.71409 4.29409C5.52579 4.10579 5.27039 4 5.00409 4C4.73779 4 4.4824 4.10579 4.29409 4.29409C4.10579 4.4824 4 4.73779 4 5.00409C4 5.27039 4.10579 5.52579 4.29409 5.71409L12.5941 14.0041H5.00409C4.73888 14.0041 4.48452 14.1094 4.29699 14.297C4.10945 14.4845 4.00409 14.7389 4.00409 15.0041C4.00409 15.2693 4.10945 15.5237 4.29699 15.7112C4.48452 15.8987 4.73888 16.0041 5.00409 16.0041H15.0041C15.1348 16.0025 15.2639 15.9753 15.3841 15.9241C15.6284 15.8226 15.8226 15.6284 15.9241 15.3841C15.9753 15.2639 16.0025 15.1348 16.0041 15.0041V5.00409C16.0041 4.73888 15.8987 4.48452 15.7112 4.29699C15.5237 4.10945 15.2693 4.00409 15.0041 4.00409Z" fill="#80889C"/>
</svg>
