<svg width="1008" height="112" viewBox="0 0 1008 112" fill="none" xmlns="http://www.w3.org/2000/svg">
	<path d="M426.157 105C407.678 101.511 387.614 98.7905 370.377 92.6765C364.465 90.5795 360.303 87.8356 359.288 83.1433C356.658 70.985 372.567 62.0701 385.635 56.4037C429.695 37.3004 483.798 36.8452 534.048 38.7324C555.909 39.5533 577.788 41.4828 598.75 45.9985C609.746 48.3673 621.991 51.2098 627.432 59.0777C643.762 82.6913 600.091 91.3368 576.238 95.8155C542.794 102.095 507.561 102.143 473.182 101.628C454.624 101.351 436.017 100.314 417.486 99.5358C409.498 99.2004 402.095 98.5784 394.64 96.6293" stroke="#FF7D53" stroke-width="6.36" stroke-linecap="round"/>
	<path d="M110.784 89.3796C110.63 85.684 109.937 81.9884 109.398 78.3697C108.551 72.2104 107.396 66.205 106.78 60.0456C106.626 58.8138 106.395 57.5049 106.01 56.35C105.163 53.6553 102.699 52.1155 100.005 52.5004C98.7728 52.7314 97.7719 53.3473 96.848 54.1172C94.6153 56.196 92.7674 58.5828 91.3046 61.2775C90.4577 62.9713 89.3798 64.5882 88.0709 66.205C87.84 65.897 87.686 65.743 87.609 65.5891C85.7612 63.2023 83.9134 60.7386 81.8346 58.5058C81.1417 57.7359 80.3717 56.966 79.4478 56.35C76.1372 54.2712 72.0566 55.7341 70.9017 59.5067C70.5168 60.8925 70.2088 62.3554 70.2088 63.8952C70.2088 65.743 70.2858 67.5908 70.2088 69.4387C70.2088 72.7493 70.1318 76.137 70.0548 79.5246C69.9778 82.3733 70.1318 85.222 70.2088 87.9937C70.2088 89.0716 70.5168 89.9955 71.0557 90.8424C71.9796 92.3823 73.2885 93.1522 75.0593 92.9982C77.0611 92.8442 78.293 91.6124 79.2169 89.9185C79.6788 88.9946 79.9868 87.9937 80.1408 86.9928C80.7567 83.6822 81.0647 80.2945 81.0647 76.9069C81.0647 76.3679 80.9877 75.752 81.2956 75.2131C82.2965 75.598 83.1434 76.214 84.1443 76.5219C84.8373 76.6759 85.4532 77.0609 86.0691 77.5228C87.84 78.9857 90.2267 79.1396 92.0745 77.9078C92.9214 77.3688 93.5374 76.6759 94.1533 75.829C94.7692 74.9051 95.3852 73.9812 96.0011 73.0573C96.1551 72.8263 96.2321 72.5183 96.5401 72.5183C96.771 72.7493 96.771 73.0573 96.771 73.2883C97.31 76.5219 97.9259 79.8326 98.3109 83.1432C98.3879 84.0671 98.3879 84.914 98.6188 85.761C99.0808 87.8397 99.4658 89.9185 99.6967 91.9973C100.005 94.923 102.391 97.0018 105.163 97.0788C108.012 97.0788 110.399 94.846 110.707 91.9203C110.784 91.0734 110.784 90.2265 110.784 89.3796ZM127.945 84.1441C127.56 80.7565 127.175 77.3688 126.328 73.9812C125.866 72.0564 125.404 70.1316 125.25 68.0528C125.173 66.7439 124.48 65.666 123.402 64.8961C121.94 63.8952 120.323 63.8182 118.706 64.7421C117.166 65.666 116.473 67.1289 116.704 68.9767C116.781 69.8236 116.935 70.7475 117.089 71.6714C117.32 74.2122 117.705 76.7529 118.013 79.2936C118.475 83.6052 119.091 87.9167 120.323 92.1513C120.631 93.0752 121.016 93.9991 121.786 94.692C123.556 96.2319 125.866 95.6159 127.098 93.8451C128.176 92.4593 128.407 90.8424 128.407 89.1486C128.407 87.4548 128.099 85.838 127.945 84.1441ZM121.709 56.966C122.325 55.1181 121.324 52.6544 119.476 51.3455C117.936 50.2676 116.242 50.1907 114.625 51.1146C112.932 52.0385 112.085 53.4243 112.085 55.0411C112.085 56.889 112.701 58.0438 113.932 58.8908C114.856 59.4297 115.934 59.7377 117.012 59.8916C119.014 60.1996 121.093 58.9677 121.709 56.966ZM157.011 80.6795C156.703 75.521 156.318 70.3626 155.394 65.2811C155.086 63.6643 154.855 62.0474 154.085 60.5846C153.238 59.0447 151.621 58.1208 150.004 58.2748C148.157 58.4288 147.079 59.5067 146.463 61.2005C146.001 62.3554 146.155 63.5103 146.463 64.6652C146.771 66.205 146.925 67.8218 147.002 69.4387C146.694 69.0537 146.309 68.5917 146.078 68.1298C144.307 65.1271 141.92 62.5864 139.456 60.1226C137.07 57.6589 132.835 58.8138 131.988 62.1244C131.603 63.6643 131.295 65.2041 131.141 66.7439C130.756 70.5165 130.14 74.2892 129.909 78.1388C129.832 79.6786 129.525 81.1414 129.678 82.6813C130.14 85.761 133.836 87.3778 136.377 85.53C137.378 84.8371 137.994 83.8362 138.379 82.6813C139.072 80.8335 139.456 78.8317 139.764 76.9069C139.764 76.6759 139.764 76.2909 139.995 76.214C140.149 76.214 140.226 76.5219 140.38 76.6759C142.305 78.9087 143.845 81.3724 145.693 83.6052C146.771 84.914 147.926 86.2229 149.388 86.9928C152.083 88.5327 155.163 87.8397 156.395 84.914C157.011 83.6052 157.088 82.1423 157.011 80.6795ZM194.355 78.9857C194.124 77.2148 193.277 75.829 191.815 74.8281C189.89 73.4422 187.041 73.8272 185.501 75.752C184.577 76.8299 184.115 78.1388 183.73 79.5246C183.653 80.0636 183.5 80.6025 183.192 81.1414C183.038 81.4494 182.807 81.5264 182.422 81.6034C181.19 81.6804 180.343 81.1414 179.727 80.1405C177.725 77.2918 177.032 73.9812 176.416 70.6705C176.339 70.2856 176.416 70.0546 176.801 70.0546C177.494 69.9776 178.11 69.8236 178.726 69.7466C180.266 69.4387 181.729 69.1307 182.961 68.2068C184.5 67.0519 185.193 64.7421 184.423 62.8943C183.576 60.7386 181.652 59.8147 179.65 59.8916C178.418 59.9686 177.186 60.2766 176.031 60.5076C175.569 60.5846 175.338 60.4306 175.338 59.9686C175.338 59.2757 175.261 58.6598 175.261 57.9668C175.184 57.1969 175.03 56.35 174.799 55.5801C174.183 54.1172 172.49 52.9624 171.104 53.0394C169.41 53.2703 168.178 54.1172 167.562 55.6571C166.792 57.3509 166.561 59.1217 166.407 60.9695C166.33 61.5085 166.176 61.8164 165.56 61.9704C163.867 62.5094 162.096 62.9713 160.479 63.9722C159.016 64.8191 158.169 66.513 158.4 68.0528C158.708 69.5156 160.017 70.6705 161.788 70.9785C162.943 71.2095 164.175 71.2095 165.406 71.1325C166.176 71.0555 166.176 71.0555 166.253 71.9024C166.484 74.2892 166.792 76.6759 167.408 79.0627C168.024 81.5264 168.871 83.9132 170.18 86.0689C171.181 87.9167 172.644 89.3026 174.26 90.5345C175.415 91.5354 176.724 92.2283 178.264 92.4593C179.804 92.7672 181.421 92.8442 183.038 92.9212C186.271 93.1522 188.812 91.8433 190.968 89.5336C192.662 87.6088 193.585 85.299 194.124 82.7583C194.278 81.9114 194.355 81.1414 194.432 80.2945C194.432 80.1405 194.432 79.9096 194.432 79.7556C194.355 79.5246 194.355 79.2166 194.355 78.9857ZM261.352 56.812C261.352 56.581 261.275 56.35 261.275 56.119C260.967 54.3482 260.12 52.9624 258.581 52.1924C256.81 51.1916 254.962 51.4225 253.422 52.7314C252.036 53.8863 251.574 55.5031 252.036 57.2739C252.19 58.0438 252.267 58.7368 252.267 59.4297C252.267 63.5103 252.036 67.5139 251.882 71.5174C251.805 73.0573 251.651 74.6741 251.497 76.214C251.497 76.3679 251.497 76.5219 251.343 76.5989C251.189 76.5989 251.112 76.4449 251.035 76.3679C250.804 75.983 250.496 75.598 250.265 75.2131C248.572 72.7493 247.186 70.0546 245.723 67.4369C245.184 66.359 244.645 65.2811 243.644 64.5112C241.103 62.5864 237.331 63.5103 236.253 66.436C235.56 68.2838 235.021 70.1316 234.482 72.0564C233.789 74.3661 233.173 76.7529 232.326 79.0627C232.249 79.2166 232.249 79.3706 232.095 79.4476C231.864 79.4476 231.864 79.2166 231.787 79.0627C230.863 76.5989 230.247 74.1352 229.632 71.5944C228.785 67.8988 228.015 64.1262 226.706 60.5076C226.244 59.1217 225.705 57.7359 224.858 56.504C223.934 55.2721 222.317 54.8102 221.008 55.5031C219.854 56.042 219.315 57.1199 219.084 58.3518C218.545 60.5846 218.776 62.8173 219.007 65.0501C219.315 68.6687 219.931 72.1334 220.546 75.675C221.393 80.4485 222.548 85.068 225.089 89.2256C226.013 90.9194 227.168 92.4593 228.939 93.4602C231.171 94.769 233.481 94.846 235.637 93.4602C237.562 92.2283 238.64 90.2265 239.564 88.2247C240.487 86.3769 241.103 84.3751 241.642 82.3733C241.642 82.1423 241.719 81.9114 241.95 81.6804C242.027 81.8344 242.104 81.9884 242.181 82.0653C243.721 84.1441 245.415 86.0689 247.34 87.8397C248.803 89.0716 250.265 90.2265 251.959 90.9964C254.962 92.3823 257.888 91.3814 259.35 88.5327C259.966 87.3008 260.274 85.9919 260.582 84.6831C261.429 81.1414 261.66 77.5228 261.737 73.8272C261.814 68.1298 261.352 62.5094 261.352 56.812ZM278.921 84.1441C278.537 80.7565 278.152 77.3688 277.305 73.9812C276.843 72.0564 276.381 70.1316 276.227 68.0528C276.15 66.7439 275.457 65.666 274.379 64.8961C272.916 63.8952 271.299 63.8182 269.682 64.7421C268.143 65.666 267.45 67.1289 267.681 68.9767C267.758 69.8236 267.912 70.7475 268.066 71.6714C268.297 74.2122 268.682 76.7529 268.989 79.2936C269.451 83.6052 270.067 87.9167 271.299 92.1513C271.607 93.0752 271.992 93.9991 272.762 94.692C274.533 96.2319 276.843 95.6159 278.075 93.8451C279.152 92.4593 279.383 90.8424 279.383 89.1486C279.383 87.4548 279.075 85.838 278.921 84.1441ZM272.685 56.966C273.301 55.1181 272.3 52.6544 270.452 51.3455C268.913 50.2676 267.219 50.1907 265.602 51.1146C263.908 52.0385 263.061 53.4243 263.061 55.0411C263.061 56.889 263.677 58.0438 264.909 58.8908C265.833 59.4297 266.911 59.7377 267.989 59.8916C269.99 60.1996 272.069 58.9677 272.685 56.966ZM316.61 78.9857C316.379 77.2148 315.532 75.829 314.07 74.8281C312.145 73.4422 309.296 73.8272 307.756 75.752C306.832 76.8299 306.37 78.1388 305.985 79.5246C305.908 80.0636 305.754 80.6025 305.446 81.1414C305.292 81.4494 305.061 81.5264 304.677 81.6034C303.445 81.6804 302.598 81.1414 301.982 80.1405C299.98 77.2918 299.287 73.9812 298.671 70.6705C298.594 70.2856 298.671 70.0546 299.056 70.0546C299.749 69.9776 300.365 69.8236 300.981 69.7466C302.521 69.4387 303.984 69.1307 305.215 68.2068C306.755 67.0519 307.448 64.7421 306.678 62.8943C305.831 60.7386 303.907 59.8147 301.905 59.8916C300.673 59.9686 299.441 60.2766 298.286 60.5076C297.824 60.5846 297.593 60.4306 297.593 59.9686C297.593 59.2757 297.516 58.6598 297.516 57.9668C297.439 57.1969 297.285 56.35 297.054 55.5801C296.438 54.1172 294.745 52.9624 293.359 53.0394C291.665 53.2703 290.433 54.1172 289.817 55.6571C289.047 57.3509 288.816 59.1217 288.662 60.9695C288.585 61.5085 288.431 61.8164 287.815 61.9704C286.121 62.5094 284.351 62.9713 282.734 63.9722C281.271 64.8191 280.424 66.513 280.655 68.0528C280.963 69.5156 282.272 70.6705 284.043 70.9785C285.198 71.2095 286.429 71.2095 287.661 71.1325C288.431 71.0555 288.431 71.0555 288.508 71.9024C288.739 74.2892 289.047 76.6759 289.663 79.0627C290.279 81.5264 291.126 83.9132 292.435 86.0689C293.436 87.9167 294.899 89.3026 296.515 90.5345C297.67 91.5354 298.979 92.2283 300.519 92.4593C302.059 92.7672 303.676 92.8442 305.292 92.9212C308.526 93.1522 311.067 91.8433 313.223 89.5336C314.916 87.6088 315.84 85.299 316.379 82.7583C316.533 81.9114 316.61 81.1414 316.687 80.2945C316.687 80.1405 316.687 79.9096 316.687 79.7556C316.61 79.5246 316.61 79.2166 316.61 78.9857ZM350.283 88.2247C349.898 84.991 349.436 81.7574 348.666 78.6007C348.05 75.829 346.818 73.5192 344.893 71.5174C343.585 70.2086 342.122 69.2077 340.505 68.2838C337.502 66.7439 334.499 66.205 331.266 67.5139C330.573 67.8218 330.034 68.2068 329.341 68.5148C329.11 68.6687 328.879 68.5917 328.879 68.2068C328.879 68.1298 328.802 67.9758 328.802 67.8218C328.494 65.5121 328.186 63.1253 327.878 60.8156C327.339 57.1969 326.723 53.6553 325.491 50.2676C325.106 49.1128 324.567 47.9579 323.644 47.034C321.873 45.3402 319.178 45.8791 318.331 48.2659C317.946 49.3437 317.946 50.4986 318.023 51.6535C318.254 56.196 318.87 60.6616 319.563 65.1271C320.102 68.6687 320.487 72.2104 320.872 75.752C321.18 78.9087 321.18 81.9884 321.334 85.145C321.411 88.0707 321.488 90.9194 322.027 93.8451C322.335 95.6929 323.413 97.2328 325.183 97.9257C328.263 99.0806 331.266 97.1558 331.574 93.9221C331.728 92.1513 331.728 90.3805 331.574 88.6867C331.42 86.9158 331.189 85.145 331.112 83.3742C331.112 82.8353 331.035 82.3733 331.189 81.8344C331.805 79.6786 333.114 77.9078 335.192 77.0609C336.655 76.4449 338.041 76.4449 338.58 77.9848C338.734 78.2927 338.811 78.6007 338.811 78.9087C338.888 79.4476 338.888 80.1405 339.042 80.6795C339.581 82.9892 339.658 85.299 339.812 87.6858C340.043 90.2265 340.043 92.8442 340.274 95.385C340.582 98.0027 342.584 99.9275 345.201 100.004C347.665 100.081 349.744 98.2337 350.206 95.6929C350.437 94.4611 350.437 93.1522 350.514 92.1513C350.591 90.6115 350.437 89.3796 350.283 88.2247ZM403.198 83.0662C402.197 78.0618 401.812 73.1343 401.504 68.0528C401.273 64.5882 400.965 61.0465 400.734 57.5819C400.58 55.5031 400.118 53.5013 399.964 51.4225C399.81 49.9597 399.271 48.6508 398.04 47.7269C396.115 46.2641 393.112 47.342 392.573 49.6517C392.265 51.1146 392.65 52.5774 392.573 54.0403C392.573 55.0411 392.881 55.9651 392.958 56.889C393.266 59.4297 393.574 61.9704 393.882 64.5112C393.959 65.2041 393.959 65.2041 393.266 65.0501C392.188 64.8191 391.187 64.7421 390.109 64.7421C387.8 64.7421 385.798 65.5891 383.796 66.6669C380.331 68.4378 377.945 71.2865 376.405 74.7511C375.25 77.4458 375.019 80.2945 374.865 82.6813C374.788 84.914 375.019 86.6079 375.481 88.3017C376.328 90.9964 377.791 93.3062 380.023 94.923C382.872 97.0018 385.952 98.3876 389.339 98.8496C392.804 99.3116 396.038 98.6186 398.963 96.7708C400.195 96.0009 401.119 94.923 402.043 93.9221C403.198 92.7672 403.814 91.3814 403.814 89.7645C403.66 87.5318 403.583 85.299 403.198 83.0662ZM393.882 88.6097C391.11 88.9176 388.646 87.9937 386.491 86.2229C385.798 85.684 385.413 84.8371 385.182 83.9132C384.797 82.2193 384.874 80.3715 385.259 78.6777C385.721 76.6759 387.184 75.521 388.8 74.5201C390.109 73.6732 391.418 73.0573 392.958 72.9803C393.497 72.9803 394.036 73.0573 394.575 73.0573C394.96 73.1343 394.883 73.4422 394.883 73.6732C394.96 74.8281 395.037 75.906 395.114 77.0609C395.268 79.1396 395.73 81.2184 396.038 83.3742C396.115 84.1441 396.192 84.991 396.192 85.684C396.192 85.9149 396.192 85.9919 396.192 86.0689C396.423 87.9937 395.268 88.3787 393.882 88.6097ZM420.951 84.1441C420.566 80.7565 420.181 77.3688 419.334 73.9812C418.872 72.0564 418.41 70.1316 418.256 68.0528C418.179 66.7439 417.486 65.666 416.408 64.8961C414.945 63.8952 413.328 63.8182 411.712 64.7421C410.172 65.666 409.479 67.1289 409.71 68.9767C409.787 69.8236 409.941 70.7475 410.095 71.6714C410.326 74.2122 410.711 76.7529 411.019 79.2936C411.481 83.6052 412.097 87.9167 413.328 92.1513C413.636 93.0752 414.021 93.9991 414.791 94.692C416.562 96.2319 418.872 95.6159 420.104 93.8451C421.182 92.4593 421.413 90.8424 421.413 89.1486C421.413 87.4548 421.105 85.838 420.951 84.1441ZM414.714 56.966C415.33 55.1181 414.329 52.6544 412.482 51.3455C410.942 50.2676 409.248 50.1907 407.631 51.1146C405.937 52.0385 405.09 53.4243 405.09 55.0411C405.09 56.889 405.706 58.0438 406.938 58.8908C407.862 59.4297 408.94 59.7377 410.018 59.8916C412.02 60.1996 414.098 58.9677 414.714 56.966ZM453.712 78.8317C453.173 75.444 451.633 72.5183 449.092 70.2086C447.553 68.7457 445.782 67.7448 443.626 67.4369C442.548 67.2829 441.393 67.1289 440.469 66.513C439.16 65.82 437.852 65.0501 436.543 64.3572C436.312 64.2032 436.081 63.9722 436.081 63.6643C436.004 62.3554 436.774 61.2775 438.006 61.1235C439.545 60.8925 441.008 61.0465 442.471 60.8925C443.318 60.8156 444.088 60.8925 444.935 61.1235C445.936 61.3545 446.937 61.3545 447.938 61.2775C448.4 61.2775 448.784 61.0465 449.169 60.7386C449.862 60.0456 450.093 58.8138 449.708 57.7359C448.938 56.042 447.707 54.7332 446.013 54.0403C443.318 52.7314 440.392 52.2694 437.39 52.6544C435.696 52.8854 434.156 53.3473 432.77 54.4252C430.999 55.6571 429.921 57.4279 429.075 59.2757C428.305 61.0465 427.997 62.8943 427.92 64.7421C427.92 67.2829 428.767 69.3617 430.845 70.9785C431.769 71.7484 432.77 72.2104 433.771 72.7493C435.388 73.5962 437.005 74.5201 438.776 74.9051C441.162 75.444 442.548 76.8299 443.241 79.0627C443.703 80.7565 443.549 81.5264 442.471 82.2963C442.24 82.4503 442.086 82.5273 441.855 82.6813C439.083 84.2981 436.235 84.2981 433.54 82.4503C432.154 81.5264 430.922 80.4485 429.998 78.9857C428.305 76.4449 424.532 76.7529 423.223 79.4476C422.376 81.0644 422.53 82.6813 423.3 84.3751C424.07 86.1459 425.379 87.4548 426.688 88.8406C428.767 90.8424 431.307 91.9973 433.925 92.9212C436.004 93.6911 438.16 93.4602 440.315 93.5372C443.087 93.5372 445.628 92.7672 447.938 91.3044C451.71 88.9176 453.866 85.684 453.943 80.8335C453.866 80.3715 453.866 79.6016 453.712 78.8317ZM482.65 77.4458C481.418 77.5998 480.494 78.3697 479.493 78.9857C477.414 80.4485 475.104 81.3724 472.487 80.7565C470.331 80.2945 468.329 79.6016 467.097 77.5228C466.019 75.598 465.095 73.6732 465.172 71.4404C465.249 69.3617 465.942 67.3599 466.789 65.5121C467.02 65.0501 467.405 64.7421 467.867 64.5112C469.176 63.9722 470.639 63.7412 472.102 63.5873C473.564 63.3563 475.027 63.3563 476.413 63.0483C479.185 62.5094 480.494 59.7377 479.108 57.4279C478.338 56.119 477.106 55.4261 475.72 55.0411C474.411 54.6562 473.026 54.7332 471.948 54.7332C469.253 54.7332 466.789 55.0411 464.402 55.9651C462.17 56.735 460.322 58.0438 458.936 59.9686C457.704 61.5855 456.857 63.5103 456.241 65.4351C455.317 68.4378 454.932 71.4404 455.394 74.5201C455.933 77.6768 456.934 80.6025 458.551 83.3742C459.552 85.068 460.707 86.6079 462.478 87.6858C464.633 89.0716 466.866 90.1495 469.33 90.7654C472.256 91.5354 475.258 91.5354 478.107 90.6115C481.033 89.6106 483.496 87.9167 485.498 85.607C486.422 84.5291 487.115 83.2972 487.269 81.8344C487.5 79.1396 485.267 77.0609 482.65 77.4458ZM519.576 69.4387C519.499 66.128 518.267 63.3563 516.035 60.8925C513.879 58.5058 511.184 57.0429 508.181 56.273C506.411 55.8111 504.64 55.9651 503.177 57.3509C502.946 57.5049 502.715 57.5819 502.407 57.5819C501.56 57.5819 500.636 57.5819 499.789 57.6589C498.018 57.7359 496.325 58.0438 494.785 59.0447C493.861 59.7377 493.014 60.4306 492.321 61.3545C491.397 62.3554 490.704 63.4333 490.088 64.6652C489.318 66.359 489.01 68.1298 488.779 69.9006C488.24 73.5192 488.394 77.0609 489.857 80.5255C491.012 83.1432 492.244 85.53 494.631 87.2238C496.325 88.3787 498.018 89.5336 500.174 89.8415C502.176 90.0725 504.178 89.9955 506.18 89.7645C511.261 89.3026 514.88 86.6079 517.266 82.2193C519.037 79.0627 519.653 75.598 519.653 71.8254C519.653 71.1325 519.576 70.2856 519.576 69.4387ZM511.184 69.5156C510.953 72.7493 510.106 75.675 508.489 78.5237C507.796 79.7556 507.027 80.1405 504.871 80.1405C502.792 80.2175 500.713 79.2936 498.942 77.4458C498.095 76.5219 497.556 75.367 497.48 74.0582C497.403 72.2874 497.48 70.4396 497.633 68.6687C497.71 67.5908 498.172 66.6669 498.711 65.82C499.019 65.4351 499.481 65.2811 499.866 65.1271C501.483 64.6652 503.1 64.4342 504.717 64.1262C504.794 64.1262 504.871 64.1262 505.025 64.1262C507.18 63.4333 508.643 64.5882 509.952 66.128C510.106 66.282 510.183 66.436 510.337 66.59C511.03 67.4369 511.261 68.3608 511.184 69.5156ZM547.901 74.9821C547.439 70.6705 546.67 66.359 546.593 61.9704C546.593 60.1996 546.054 58.5058 544.668 57.1199C543.359 55.8881 541.896 55.6571 540.202 56.196C538.585 56.658 537.661 57.8899 537.277 59.5837C537.123 60.5846 537.431 61.5085 537.431 62.5094C537.431 65.2041 537.431 67.9758 537.661 70.6705C537.815 73.1343 537.892 75.675 538.123 78.1388C538.2 78.7547 538.123 79.0627 537.431 79.1396C536.045 79.3706 534.736 78.9857 533.658 78.1388C531.964 76.9069 531.271 75.0591 531.04 73.1343C530.655 69.8236 530.501 66.436 530.424 63.1253C530.347 61.8164 530.424 60.5076 530.193 59.2757C529.885 57.5819 528.576 56.196 527.037 55.9651C525.266 55.7341 523.649 56.581 522.802 58.1208C522.186 59.3527 521.878 60.5846 521.647 61.8934C521.031 66.051 520.877 70.2086 520.954 74.4431C520.954 75.1361 521.031 75.752 521.185 76.4449C521.955 79.7556 523.187 82.7583 525.497 85.299C526.575 86.5309 527.807 87.6858 529.346 88.3787C530.886 89.1486 532.58 89.6106 534.274 89.9185C536.353 90.2265 538.431 90.2265 540.51 89.4566C542.281 88.7636 543.821 87.7628 545.284 86.4539C546.208 85.53 547.132 84.5291 547.67 83.3742C548.286 81.9114 548.286 80.4485 548.363 79.1396C548.286 77.5998 548.055 76.2909 547.901 74.9821ZM577.008 80.6795C576.7 75.521 576.315 70.3626 575.391 65.2811C575.083 63.6643 574.852 62.0474 574.082 60.5846C573.235 59.0447 571.619 58.1208 570.002 58.2748C568.154 58.4288 567.076 59.5067 566.46 61.2005C565.998 62.3554 566.152 63.5103 566.46 64.6652C566.768 66.205 566.922 67.8218 566.999 69.4387C566.691 69.0537 566.306 68.5917 566.075 68.1298C564.304 65.1271 561.918 62.5864 559.454 60.1226C557.067 57.6589 552.833 58.8138 551.986 62.1244C551.601 63.6643 551.293 65.2041 551.139 66.7439C550.754 70.5165 550.138 74.2892 549.907 78.1388C549.83 79.6786 549.522 81.1414 549.676 82.6813C550.138 85.761 553.833 87.3778 556.374 85.53C557.375 84.8371 557.991 83.8362 558.376 82.6813C559.069 80.8335 559.454 78.8317 559.762 76.9069C559.762 76.6759 559.762 76.2909 559.993 76.214C560.147 76.214 560.224 76.5219 560.378 76.6759C562.303 78.9087 563.842 81.3724 565.69 83.6052C566.768 84.914 567.923 86.2229 569.386 86.9928C572.081 88.5327 575.16 87.8397 576.392 84.914C577.008 83.6052 577.085 82.1423 577.008 80.6795ZM614.353 78.9857C614.122 77.2148 613.275 75.829 611.812 74.8281C609.887 73.4422 607.039 73.8272 605.499 75.752C604.575 76.8299 604.113 78.1388 603.728 79.5246C603.651 80.0636 603.497 80.6025 603.189 81.1414C603.035 81.4494 602.804 81.5264 602.419 81.6034C601.187 81.6804 600.34 81.1414 599.724 80.1405C597.722 77.2918 597.03 73.9812 596.414 70.6705C596.337 70.2856 596.414 70.0546 596.799 70.0546C597.492 69.9776 598.107 69.8236 598.723 69.7466C600.263 69.4387 601.726 69.1307 602.958 68.2068C604.498 67.0519 605.191 64.7421 604.421 62.8943C603.574 60.7386 601.649 59.8147 599.647 59.8916C598.415 59.9686 597.184 60.2766 596.029 60.5076C595.567 60.5846 595.336 60.4306 595.336 59.9686C595.336 59.2757 595.259 58.6598 595.259 57.9668C595.182 57.1969 595.028 56.35 594.797 55.5801C594.181 54.1172 592.487 52.9624 591.101 53.0394C589.407 53.2703 588.175 54.1172 587.56 55.6571C586.79 57.3509 586.559 59.1217 586.405 60.9695C586.328 61.5085 586.174 61.8164 585.558 61.9704C583.864 62.5094 582.093 62.9713 580.476 63.9722C579.013 64.8191 578.167 66.513 578.397 68.0528C578.705 69.5156 580.014 70.6705 581.785 70.9785C582.94 71.2095 584.172 71.2095 585.404 71.1325C586.174 71.0555 586.174 71.0555 586.251 71.9024C586.482 74.2892 586.79 76.6759 587.406 79.0627C588.021 81.5264 588.868 83.9132 590.177 86.0689C591.178 87.9167 592.641 89.3026 594.258 90.5345C595.413 91.5354 596.722 92.2283 598.261 92.4593C599.801 92.7672 601.418 92.8442 603.035 92.9212C606.269 93.1522 608.809 91.8433 610.965 89.5336C612.659 87.6088 613.583 85.299 614.122 82.7583C614.276 81.9114 614.353 81.1414 614.43 80.2945C614.43 80.1405 614.43 79.9096 614.43 79.7556C614.353 79.5246 614.353 79.2166 614.353 78.9857ZM665.951 82.5273C666.49 79.2936 666.644 76.06 666.49 72.8263C666.413 70.7475 666.182 68.5917 666.105 66.513C666.028 64.7421 665.72 63.0483 665.104 61.4315C664.334 59.4297 663.026 57.8899 661.486 56.658C660.177 55.5801 658.714 54.8872 657.251 54.2712C653.094 52.3464 648.936 52.0385 644.701 53.6553C642.315 54.6562 640.39 56.042 639.235 58.5058C639.004 59.0447 638.927 59.6607 638.773 60.1996C638.773 60.5846 638.773 60.8925 638.773 61.2775C638.773 61.5085 638.85 61.7395 638.927 61.9704C639.62 64.1262 641.699 65.2041 643.855 64.5112C644.393 64.3572 644.932 63.9722 645.548 63.7412C647.55 63.0483 649.552 62.0474 651.708 61.8934C652.247 61.8934 652.709 61.8934 653.248 62.0474C654.71 62.5864 655.865 63.5103 656.789 64.6652C657.097 65.0501 657.482 65.4351 657.482 65.974C657.482 67.2059 657.405 68.5148 657.251 69.7466C657.251 70.0546 657.174 70.1316 656.866 70.0546C655.634 69.7466 654.325 69.6696 653.094 69.7466C650.476 69.9776 648.243 70.9015 646.472 72.7493C644.47 74.7511 643.162 77.1379 642.623 79.9866C642.315 81.9884 642.315 83.9901 642.931 85.9149C644.316 89.9955 647.396 92.0743 651.323 93.0752C653.479 93.6911 655.634 93.3832 657.79 93.1522C659.407 92.9982 660.87 92.6132 662.256 91.7663C663.949 90.6115 665.181 89.1486 665.951 87.3008C666.336 86.3769 666.49 85.376 666.105 84.4521C665.797 83.7592 665.874 83.1432 665.951 82.5273ZM657.328 83.9132C657.328 84.1441 657.251 84.3751 657.02 84.2981C655.48 84.0671 653.94 84.0671 652.555 83.3742C652.17 83.2202 651.939 82.9123 651.939 82.5273C651.785 81.0644 651.862 79.6786 652.709 78.3697C653.325 77.2918 654.325 76.9069 655.48 77.0609C656.019 77.0609 656.558 77.2148 657.097 77.3688C657.559 77.4458 657.79 77.6768 657.713 78.1388C657.713 78.3697 657.713 78.6777 657.713 78.9087C657.79 80.6025 657.559 82.2963 657.328 83.9132ZM695.203 80.6795C694.895 75.521 694.51 70.3626 693.586 65.2811C693.278 63.6643 693.047 62.0474 692.277 60.5846C691.43 59.0447 689.813 58.1208 688.196 58.2748C686.349 58.4288 685.271 59.5067 684.655 61.2005C684.193 62.3554 684.347 63.5103 684.655 64.6652C684.963 66.205 685.117 67.8218 685.194 69.4387C684.886 69.0537 684.501 68.5917 684.27 68.1298C682.499 65.1271 680.112 62.5864 677.649 60.1226C675.262 57.6589 671.027 58.8138 670.18 62.1244C669.795 63.6643 669.487 65.2041 669.333 66.7439C668.948 70.5165 668.333 74.2892 668.102 78.1388C668.025 79.6786 667.717 81.1414 667.871 82.6813C668.333 85.761 672.028 87.3778 674.569 85.53C675.57 84.8371 676.186 83.8362 676.571 82.6813C677.264 80.8335 677.649 78.8317 677.957 76.9069C677.957 76.6759 677.957 76.2909 678.188 76.214C678.341 76.214 678.418 76.5219 678.572 76.6759C680.497 78.9087 682.037 81.3724 683.885 83.6052C684.963 84.914 686.118 86.2229 687.581 86.9928C690.275 88.5327 693.355 87.8397 694.587 84.914C695.203 83.6052 695.28 82.1423 695.203 80.6795ZM724.925 83.0662C723.924 78.0618 723.539 73.1343 723.231 68.0528C723.001 64.5882 722.693 61.0465 722.462 57.5819C722.308 55.5031 721.846 53.5013 721.692 51.4225C721.538 49.9597 720.999 48.6508 719.767 47.7269C717.842 46.2641 714.839 47.342 714.3 49.6517C713.992 51.1146 714.377 52.5774 714.3 54.0403C714.3 55.0411 714.608 55.9651 714.685 56.889C714.993 59.4297 715.301 61.9704 715.609 64.5112C715.686 65.2041 715.686 65.2041 714.993 65.0501C713.915 64.8191 712.915 64.7421 711.837 64.7421C709.527 64.7421 707.525 65.5891 705.523 66.6669C702.059 68.4378 699.672 71.2865 698.132 74.7511C696.977 77.4458 696.746 80.2945 696.592 82.6813C696.515 84.914 696.746 86.6079 697.208 88.3017C698.055 90.9964 699.518 93.3062 701.751 94.923C704.599 97.0018 707.679 98.3876 711.067 98.8496C714.531 99.3116 717.765 98.6186 720.691 96.7708C721.923 96.0009 722.847 94.923 723.77 93.9221C724.925 92.7672 725.541 91.3814 725.541 89.7645C725.387 87.5318 725.31 85.299 724.925 83.0662ZM715.609 88.6097C712.838 88.9176 710.374 87.9937 708.218 86.2229C707.525 85.684 707.14 84.8371 706.909 83.9132C706.524 82.2193 706.601 80.3715 706.986 78.6777C707.448 76.6759 708.911 75.521 710.528 74.5201C711.837 73.6732 713.146 73.0573 714.685 72.9803C715.224 72.9803 715.763 73.0573 716.302 73.0573C716.687 73.1343 716.61 73.4422 716.61 73.6732C716.687 74.8281 716.764 75.906 716.841 77.0609C716.995 79.1396 717.457 81.2184 717.765 83.3742C717.842 84.1441 717.919 84.991 717.919 85.684C717.919 85.9149 717.919 85.9919 717.919 86.0689C718.15 87.9937 716.995 88.3787 715.609 88.6097ZM792.401 56.812C792.401 56.581 792.325 56.35 792.325 56.119C792.017 54.3482 791.17 52.9624 789.63 52.1924C787.859 51.1916 786.011 51.4225 784.471 52.7314C783.085 53.8863 782.624 55.5031 783.085 57.2739C783.239 58.0438 783.316 58.7368 783.316 59.4297C783.316 63.5103 783.085 67.5139 782.931 71.5174C782.854 73.0573 782.701 74.6741 782.547 76.214C782.547 76.3679 782.547 76.5219 782.393 76.5989C782.239 76.5989 782.162 76.4449 782.085 76.3679C781.854 75.983 781.546 75.598 781.315 75.2131C779.621 72.7493 778.235 70.0546 776.772 67.4369C776.233 66.359 775.694 65.2811 774.693 64.5112C772.153 62.5864 768.38 63.5103 767.302 66.436C766.609 68.2838 766.07 70.1316 765.531 72.0564C764.838 74.3661 764.222 76.7529 763.376 79.0627C763.299 79.2166 763.299 79.3706 763.145 79.4476C762.914 79.4476 762.914 79.2166 762.837 79.0627C761.913 76.5989 761.297 74.1352 760.681 71.5944C759.834 67.8988 759.064 64.1262 757.755 60.5076C757.293 59.1217 756.754 57.7359 755.907 56.504C754.983 55.2721 753.367 54.8102 752.058 55.5031C750.903 56.042 750.364 57.1199 750.133 58.3518C749.594 60.5846 749.825 62.8173 750.056 65.0501C750.364 68.6687 750.98 72.1334 751.596 75.675C752.443 80.4485 753.598 85.068 756.138 89.2256C757.062 90.9194 758.217 92.4593 759.988 93.4602C762.221 94.769 764.53 94.846 766.686 93.4602C768.611 92.2283 769.689 90.2265 770.613 88.2247C771.537 86.3769 772.153 84.3751 772.692 82.3733C772.692 82.1423 772.769 81.9114 773 81.6804C773.077 81.8344 773.153 81.9884 773.23 82.0653C774.77 84.1441 776.464 86.0689 778.389 87.8397C779.852 89.0716 781.315 90.2265 783.008 90.9964C786.011 92.3823 788.937 91.3814 790.4 88.5327C791.016 87.3008 791.324 85.9919 791.632 84.6831C792.478 81.1414 792.709 77.5228 792.786 73.8272C792.863 68.1298 792.401 62.5094 792.401 56.812ZM809.971 84.1441C809.586 80.7565 809.201 77.3688 808.354 73.9812C807.892 72.0564 807.43 70.1316 807.276 68.0528C807.199 66.7439 806.506 65.666 805.428 64.8961C803.965 63.8952 802.349 63.8182 800.732 64.7421C799.192 65.666 798.499 67.1289 798.73 68.9767C798.807 69.8236 798.961 70.7475 799.115 71.6714C799.346 74.2122 799.731 76.7529 800.039 79.2936C800.501 83.6052 801.117 87.9167 802.349 92.1513C802.657 93.0752 803.042 93.9991 803.811 94.692C805.582 96.2319 807.892 95.6159 809.124 93.8451C810.202 92.4593 810.433 90.8424 810.433 89.1486C810.433 87.4548 810.125 85.838 809.971 84.1441ZM803.734 56.966C804.35 55.1181 803.349 52.6544 801.502 51.3455C799.962 50.2676 798.268 50.1907 796.651 51.1146C794.957 52.0385 794.11 53.4243 794.11 55.0411C794.11 56.889 794.726 58.0438 795.958 58.8908C796.882 59.4297 797.96 59.7377 799.038 59.8916C801.04 60.1996 803.119 58.9677 803.734 56.966ZM839.036 80.6795C838.729 75.521 838.344 70.3626 837.42 65.2811C837.112 63.6643 836.881 62.0474 836.111 60.5846C835.264 59.0447 833.647 58.1208 832.03 58.2748C830.182 58.4288 829.105 59.5067 828.489 61.2005C828.027 62.3554 828.181 63.5103 828.489 64.6652C828.797 66.205 828.951 67.8218 829.028 69.4387C828.72 69.0537 828.335 68.5917 828.104 68.1298C826.333 65.1271 823.946 62.5864 821.482 60.1226C819.096 57.6589 814.861 58.8138 814.014 62.1244C813.629 63.6643 813.321 65.2041 813.167 66.7439C812.782 70.5165 812.166 74.2892 811.935 78.1388C811.858 79.6786 811.55 81.1414 811.704 82.6813C812.166 85.761 815.862 87.3778 818.403 85.53C819.404 84.8371 820.019 83.8362 820.404 82.6813C821.097 80.8335 821.482 78.8317 821.79 76.9069C821.79 76.6759 821.79 76.2909 822.021 76.214C822.175 76.214 822.252 76.5219 822.406 76.6759C824.331 78.9087 825.871 81.3724 827.719 83.6052C828.797 84.914 829.951 86.2229 831.414 86.9928C834.109 88.5327 837.189 87.8397 838.421 84.914C839.036 83.6052 839.113 82.1423 839.036 80.6795ZM898.003 80.8335C897.31 76.3679 895.231 72.6723 891.766 69.8236C890.15 68.5148 888.302 67.5139 886.3 67.0519C882.45 66.128 878.678 66.282 875.213 68.5917C874.982 68.8227 874.828 68.7457 874.751 68.4378C874.674 67.8988 874.52 67.2829 874.366 66.7439C873.75 64.5112 873.134 62.2784 873.057 59.9686C872.98 57.2739 872.749 54.6562 871.902 52.1155C871.363 50.6526 870.979 49.1128 870.055 47.7269C869.208 46.495 868.053 45.7251 866.513 45.9561C864.742 46.1871 863.587 47.4959 863.433 49.3437C863.279 51.2685 863.51 53.2703 864.126 55.1181C864.434 56.119 864.896 57.0429 864.973 58.1208C865.281 60.6616 865.512 63.2023 865.82 65.743C866.051 68.5148 865.974 71.2865 866.128 74.0582C866.282 77.4458 866.821 80.8335 867.283 84.1441C867.514 86.6079 868.053 89.0716 868.361 91.5354C868.592 93.3062 869.208 94.769 870.748 95.7699C871.056 95.9239 871.287 96.2319 871.44 96.4628C871.979 97.3868 872.826 97.9257 873.673 98.4646C875.983 99.7735 878.524 100.235 881.141 100.081C883.143 100.235 885.068 100.004 886.916 99.2346C888.995 98.4646 890.765 97.3868 892.382 95.8469C893.306 94.923 894.076 93.9221 894.923 92.8442C897.618 89.3026 898.773 85.222 898.003 80.8335ZM887.763 85.53C887.455 86.2999 886.916 86.9158 886.377 87.5318C884.837 89.3796 882.989 90.4575 880.372 90.3805C879.448 90.5345 878.447 90.1495 877.523 89.8415C877.292 89.6876 877.138 89.6106 877.061 89.3796C876.907 86.7619 876.445 84.1441 876.753 81.5264C876.984 79.9096 877.831 78.5237 879.448 77.8308C879.756 77.5998 880.141 77.5228 880.526 77.5228C883.528 77.2148 885.684 78.4467 887.147 80.9875C887.994 82.4503 888.379 83.9132 887.763 85.53ZM915.384 84.1441C914.999 80.7565 914.614 77.3688 913.767 73.9812C913.305 72.0564 912.843 70.1316 912.689 68.0528C912.612 66.7439 911.919 65.666 910.841 64.8961C909.378 63.8952 907.761 63.8182 906.145 64.7421C904.605 65.666 903.912 67.1289 904.143 68.9767C904.22 69.8236 904.374 70.7475 904.528 71.6714C904.759 74.2122 905.144 76.7529 905.452 79.2936C905.914 83.6052 906.53 87.9167 907.761 92.1513C908.069 93.0752 908.454 93.9991 909.224 94.692C910.995 96.2319 913.305 95.6159 914.537 93.8451C915.615 92.4593 915.846 90.8424 915.846 89.1486C915.846 87.4548 915.538 85.838 915.384 84.1441ZM909.147 56.966C909.763 55.1181 908.762 52.6544 906.915 51.3455C905.375 50.2676 903.681 50.1907 902.064 51.1146C900.37 52.0385 899.523 53.4243 899.523 55.0411C899.523 56.889 900.139 58.0438 901.371 58.8908C902.295 59.4297 903.373 59.7377 904.451 59.8916C906.453 60.1996 908.531 58.9677 909.147 56.966ZM949.762 80.6025C949.608 78.6777 949.223 76.6759 948.992 74.7511C948.607 70.9015 948.607 66.9749 948.222 63.1253C947.914 59.5837 947.375 56.119 946.143 52.8084C945.758 51.5765 945.219 50.4216 944.064 49.8057C943.371 49.3437 942.602 48.8818 941.909 48.4198C941.601 48.2659 941.293 48.1119 940.985 47.9579C939.522 47.342 937.982 46.957 936.442 46.803C931.361 46.1871 926.972 47.5729 923.354 51.2685C921.044 53.6553 919.658 56.658 918.811 59.8147C918.118 62.2784 918.195 64.7421 918.272 67.2059C918.272 69.0537 918.58 70.8245 919.196 72.5953C919.812 74.2892 920.659 75.906 922.045 77.1379C923.661 78.6777 925.509 79.7556 927.588 80.5255C929.898 81.4494 932.285 81.9884 934.825 81.6804C936.134 81.6034 937.52 81.4494 938.829 81.1414C939.214 81.0644 939.368 81.1414 939.291 81.6034C939.06 82.2193 938.906 82.9123 938.752 83.5282C938.213 85.53 936.981 87.0698 935.98 88.8406C935.595 89.6106 934.902 90.0725 934.055 90.1495C932.131 90.3805 930.206 90.4575 928.358 90.0725C926.51 89.6876 925.047 88.8406 924.2 87.0698C923.892 86.5309 923.431 85.9919 922.969 85.607C921.506 84.2981 919.427 84.2211 918.041 85.684C916.963 86.7619 916.886 88.1477 917.271 89.5336C918.041 92.1513 919.427 94.4611 921.66 96.1549C922.43 96.8478 923.277 97.5407 924.277 97.9257C926.895 98.9266 929.667 99.4655 932.593 99.3885C933.131 99.3885 933.67 99.3885 934.209 99.3885C936.904 99.4655 939.214 98.4646 941.293 96.9248C942.755 95.9239 943.91 94.615 945.065 93.3832C945.681 92.7672 946.22 92.1513 946.682 91.5354C948.992 88.2247 950.07 84.6061 949.762 80.6025ZM939.06 70.6705C938.213 71.2095 937.289 71.5944 936.211 71.4404C934.286 71.2865 932.516 70.9785 930.822 70.0546C929.821 69.5156 929.282 68.8227 929.128 67.6678C929.051 66.8209 929.051 66.051 929.051 65.2041C928.897 62.9713 929.359 60.8156 930.437 58.8908C930.899 58.0438 931.438 57.4279 932.208 57.0429C933.978 56.196 935.749 55.7341 937.674 55.6571C938.059 55.6571 938.29 55.7341 938.213 56.196C937.982 59.2757 938.521 62.2784 938.983 65.2811C939.137 66.6669 939.368 68.1298 939.599 69.5926C939.676 70.0546 939.522 70.3626 939.06 70.6705Z" fill="#FDF4DE"/>
	<path d="M589.704 20.8631C588.918 15.7597 588.381 10.4496 587.141 5.47754" stroke="#FF7D53" stroke-width="4.812" stroke-linecap="round"/>
	<path d="M587.211 5.21582C590.858 7.80421 594.395 10.4741 597.916 13.2389" stroke="#FF7D53" stroke-width="4.812" stroke-linecap="round"/>
	<path d="M598.207 13.037C601.852 10.8596 605.018 8.24533 608.193 5.31334" stroke="#FF7D53" stroke-width="4.812" stroke-linecap="round"/>
	<path d="M608.281 5.05615C608.524 8.53387 608.719 12.0031 608.861 15.4871" stroke="#FF7D53" stroke-width="4.812" stroke-linecap="round"/>
	<path d="M609.709 15.9858C614.993 15.3016 620.176 14.5378 625.4 13.3367" stroke="#FF7D53" stroke-width="4.812" stroke-linecap="round"/>
	<path d="M624.471 13.0972C621.776 17.6287 618.794 21.8035 615.802 26.0987C615.25 26.8905 614.736 27.6544 614.493 28.604" stroke="#FF7D53" stroke-width="4.812" stroke-linecap="round"/>
	<path d="M589.774 22.5471C595.971 23.1349 601.907 23.9139 607.596 26.5577C609.826 27.5944 611.934 28.7797 614.227 29.6464" stroke="#FF7D53" stroke-width="4.812" stroke-linecap="round"/>
	<path d="M983.539 82.1409L992.094 83.9385" stroke="#FF7D53" stroke-width="4" stroke-linecap="round"/>
	<path d="M985.738 70.9853L1004.8 67.333" stroke="#FF7D53" stroke-width="4" stroke-linecap="round"/>
	<path d="M980.896 62.222L990.797 51.541" stroke="#FF7D53" stroke-width="4" stroke-linecap="round"/>
	<path d="M41.9207 81.2703L33.375 91.4985" stroke="#FF7D53" stroke-width="4" stroke-linecap="round"/>
	<path d="M35.1964 72.9075L26.8418 74.1543" stroke="#FF7D53" stroke-width="4" stroke-linecap="round"/>
	<path d="M29.1941 61.4934L4.49857 58.2285" stroke="#FF7D53" stroke-width="4" stroke-linecap="round"/>
</svg>
