<svg width="303" height="105" viewBox="0 0 303 105" fill="none" xmlns="http://www.w3.org/2000/svg">
	<path d="M194.813 62.9985C185.234 60.4988 174.833 58.55 165.898 54.1698C162.833 52.6674 160.675 50.7016 160.149 47.34C158.786 38.6296 167.033 32.2428 173.807 28.1833C196.647 14.4974 224.693 14.1712 250.742 15.5232C262.074 16.1114 273.416 17.4937 284.282 20.7288C289.982 22.4259 296.33 24.4623 299.15 30.099C307.616 47.0162 284.977 53.21 272.612 56.4186C255.275 60.9174 237.011 60.9514 219.19 60.5831C209.57 60.3843 199.924 59.6415 190.318 59.0839C186.177 58.8436 182.34 58.398 178.475 57.0016" stroke="#FF7D53" stroke-width="3" stroke-linecap="round"/>
	<path d="M30.2222 48.0785C30.1422 46.1585 29.7822 44.2385 29.5022 42.3585C29.0622 39.1585 28.4622 36.0385 28.1422 32.8385C28.0622 32.1985 27.9422 31.5185 27.7422 30.9185C27.3022 29.5185 26.0222 28.7185 24.6222 28.9185C23.9822 29.0385 23.4622 29.3585 22.9822 29.7585C21.8222 30.8385 20.8622 32.0785 20.1022 33.4785C19.6622 34.3585 19.1022 35.1985 18.4222 36.0385C18.3022 35.8785 18.2222 35.7985 18.1822 35.7185C17.2222 34.4785 16.2622 33.1985 15.1822 32.0385C14.8222 31.6385 14.4222 31.2385 13.9422 30.9185C12.2222 29.8385 10.1022 30.5985 9.50219 32.5585C9.30219 33.2785 9.14219 34.0385 9.14219 34.8385C9.14219 35.7985 9.18219 36.7585 9.14219 37.7185C9.14219 39.4385 9.10219 41.1985 9.06219 42.9585C9.02219 44.4385 9.10219 45.9185 9.14219 47.3585C9.14219 47.9185 9.30219 48.3985 9.58219 48.8385C10.0622 49.6385 10.7422 50.0385 11.6622 49.9585C12.7022 49.8785 13.3422 49.2385 13.8222 48.3585C14.0622 47.8785 14.2222 47.3585 14.3022 46.8385C14.6222 45.1185 14.7822 43.3585 14.7822 41.5985C14.7822 41.3185 14.7422 40.9985 14.9022 40.7185C15.4222 40.9185 15.8622 41.2385 16.3822 41.3985C16.7422 41.4785 17.0622 41.6785 17.3822 41.9185C18.3022 42.6785 19.5422 42.7585 20.5022 42.1185C20.9422 41.8385 21.2622 41.4785 21.5822 41.0385C21.9022 40.5585 22.2222 40.0785 22.5422 39.5985C22.6222 39.4785 22.6622 39.3185 22.8222 39.3185C22.9422 39.4385 22.9422 39.5985 22.9422 39.7185C23.2222 41.3985 23.5422 43.1185 23.7422 44.8385C23.7822 45.3185 23.7822 45.7585 23.9022 46.1985C24.1422 47.2785 24.3422 48.3585 24.4622 49.4385C24.6222 50.9585 25.8622 52.0385 27.3022 52.0785C28.7822 52.0785 30.0222 50.9185 30.1822 49.3985C30.2222 48.9585 30.2222 48.5185 30.2222 48.0785ZM39.1381 45.3585C38.9381 43.5985 38.7381 41.8385 38.2981 40.0785C38.0581 39.0785 37.8181 38.0785 37.7381 36.9985C37.6981 36.3185 37.3381 35.7585 36.7781 35.3585C36.0181 34.8385 35.1781 34.7985 34.3381 35.2785C33.5381 35.7585 33.1781 36.5185 33.2981 37.4785C33.3381 37.9185 33.4181 38.3985 33.4981 38.8785C33.6181 40.1985 33.8181 41.5185 33.9781 42.8385C34.2181 45.0785 34.5381 47.3185 35.1781 49.5185C35.3381 49.9985 35.5381 50.4785 35.9381 50.8385C36.8581 51.6385 38.0581 51.3185 38.6981 50.3985C39.2581 49.6785 39.3781 48.8385 39.3781 47.9585C39.3781 47.0785 39.2181 46.2385 39.1381 45.3585ZM35.8981 31.2385C36.2181 30.2785 35.6981 28.9985 34.7381 28.3185C33.9381 27.7585 33.0581 27.7185 32.2181 28.1985C31.3381 28.6785 30.8981 29.3985 30.8981 30.2385C30.8981 31.1985 31.2181 31.7985 31.8581 32.2385C32.3381 32.5185 32.8981 32.6785 33.4581 32.7585C34.4981 32.9185 35.5781 32.2785 35.8981 31.2385ZM54.2388 43.5585C54.0788 40.8785 53.8788 38.1985 53.3988 35.5585C53.2388 34.7185 53.1188 33.8785 52.7188 33.1185C52.2788 32.3185 51.4388 31.8385 50.5988 31.9185C49.6388 31.9985 49.0788 32.5585 48.7588 33.4385C48.5188 34.0385 48.5988 34.6385 48.7588 35.2385C48.9188 36.0385 48.9988 36.8785 49.0388 37.7185C48.8788 37.5185 48.6788 37.2785 48.5588 37.0385C47.6388 35.4785 46.3988 34.1585 45.1188 32.8785C43.8788 31.5985 41.6788 32.1985 41.2388 33.9185C41.0387 34.7185 40.8788 35.5185 40.7988 36.3185C40.5988 38.2785 40.2788 40.2385 40.1588 42.2385C40.1188 43.0385 39.9588 43.7985 40.0388 44.5985C40.2788 46.1985 42.1988 47.0385 43.5188 46.0785C44.0388 45.7185 44.3588 45.1985 44.5588 44.5985C44.9188 43.6385 45.1188 42.5985 45.2788 41.5985C45.2788 41.4785 45.2788 41.2785 45.3988 41.2385C45.4788 41.2385 45.5188 41.3985 45.5987 41.4785C46.5988 42.6385 47.3988 43.9185 48.3588 45.0785C48.9188 45.7585 49.5188 46.4385 50.2787 46.8385C51.6788 47.6385 53.2788 47.2785 53.9188 45.7585C54.2388 45.0785 54.2788 44.3185 54.2388 43.5585ZM73.6406 42.6785C73.5206 41.7585 73.0806 41.0385 72.3206 40.5185C71.3206 39.7985 69.8406 39.9985 69.0406 40.9985C68.5606 41.5585 68.3206 42.2385 68.1206 42.9585C68.0806 43.2385 68.0006 43.5185 67.8406 43.7985C67.7606 43.9585 67.6406 43.9985 67.4406 44.0385C66.8006 44.0785 66.3606 43.7985 66.0406 43.2785C65.0006 41.7985 64.6406 40.0785 64.3206 38.3585C64.2806 38.1585 64.3206 38.0385 64.5206 38.0385C64.8806 37.9985 65.2006 37.9185 65.5206 37.8785C66.3206 37.7185 67.0806 37.5585 67.7206 37.0785C68.5206 36.4785 68.8806 35.2785 68.4806 34.3185C68.0406 33.1985 67.0406 32.7185 66.0006 32.7585C65.3606 32.7985 64.7206 32.9585 64.1206 33.0785C63.8806 33.1185 63.7606 33.0385 63.7606 32.7985C63.7606 32.4385 63.7206 32.1185 63.7206 31.7585C63.6806 31.3585 63.6006 30.9185 63.4806 30.5185C63.1606 29.7585 62.2806 29.1585 61.5606 29.1985C60.6806 29.3185 60.0406 29.7585 59.7206 30.5585C59.3206 31.4385 59.2006 32.3585 59.1206 33.3185C59.0806 33.5985 59.0006 33.7585 58.6806 33.8385C57.8006 34.1185 56.8806 34.3585 56.0406 34.8785C55.2806 35.3185 54.8406 36.1985 54.9606 36.9985C55.1206 37.7585 55.8006 38.3585 56.7206 38.5185C57.3206 38.6385 57.9606 38.6385 58.6006 38.5985C59.0006 38.5585 59.0006 38.5585 59.0406 38.9985C59.1606 40.2385 59.3206 41.4785 59.6406 42.7185C59.9606 43.9985 60.4006 45.2385 61.0806 46.3585C61.6006 47.3185 62.3606 48.0385 63.2006 48.6785C63.8006 49.1985 64.4806 49.5585 65.2806 49.6785C66.0806 49.8385 66.9206 49.8785 67.7606 49.9185C69.4406 50.0385 70.7606 49.3585 71.8806 48.1585C72.7606 47.1585 73.2406 45.9585 73.5206 44.6385C73.6006 44.1985 73.6406 43.7985 73.6806 43.3585C73.6806 43.2785 73.6806 43.1585 73.6806 43.0785C73.6406 42.9585 73.6406 42.7985 73.6406 42.6785ZM108.448 31.1585C108.448 31.0385 108.408 30.9185 108.408 30.7985C108.248 29.8785 107.808 29.1585 107.008 28.7585C106.088 28.2385 105.128 28.3585 104.328 29.0385C103.608 29.6385 103.368 30.4785 103.608 31.3985C103.688 31.7985 103.728 32.1585 103.728 32.5185C103.728 34.6385 103.608 36.7185 103.528 38.7985C103.488 39.5985 103.408 40.4385 103.328 41.2385C103.328 41.3185 103.328 41.3985 103.248 41.4385C103.168 41.4385 103.128 41.3585 103.088 41.3185C102.968 41.1185 102.808 40.9185 102.688 40.7185C101.808 39.4385 101.088 38.0385 100.328 36.6785C100.048 36.1185 99.7678 35.5585 99.2478 35.1585C97.9278 34.1585 95.9678 34.6385 95.4078 36.1585C95.0478 37.1185 94.7678 38.0785 94.4878 39.0785C94.1278 40.2785 93.8078 41.5185 93.3678 42.7185C93.3278 42.7985 93.3278 42.8785 93.2478 42.9185C93.1278 42.9185 93.1278 42.7985 93.0878 42.7185C92.6078 41.4385 92.2878 40.1585 91.9678 38.8385C91.5278 36.9185 91.1278 34.9585 90.4478 33.0785C90.2078 32.3585 89.9278 31.6385 89.4878 30.9985C89.0078 30.3585 88.1678 30.1185 87.4878 30.4785C86.8878 30.7585 86.6078 31.3185 86.4878 31.9585C86.2078 33.1185 86.3278 34.2785 86.4478 35.4385C86.6078 37.3185 86.9278 39.1185 87.2478 40.9585C87.6878 43.4385 88.2878 45.8385 89.6078 47.9985C90.0878 48.8785 90.6878 49.6785 91.6078 50.1985C92.7678 50.8785 93.9678 50.9185 95.0878 50.1985C96.0878 49.5585 96.6478 48.5185 97.1278 47.4785C97.6078 46.5185 97.9278 45.4785 98.2078 44.4385C98.2078 44.3185 98.2478 44.1985 98.3678 44.0785C98.4078 44.1585 98.4478 44.2385 98.4878 44.2785C99.2878 45.3585 100.168 46.3585 101.168 47.2785C101.928 47.9185 102.688 48.5185 103.568 48.9185C105.128 49.6385 106.648 49.1185 107.408 47.6385C107.728 46.9985 107.888 46.3185 108.048 45.6385C108.488 43.7985 108.608 41.9185 108.648 39.9985C108.688 37.0385 108.448 34.1185 108.448 31.1585ZM117.576 45.3585C117.376 43.5985 117.176 41.8385 116.736 40.0785C116.496 39.0785 116.256 38.0785 116.176 36.9985C116.136 36.3185 115.776 35.7585 115.216 35.3585C114.456 34.8385 113.616 34.7985 112.776 35.2785C111.976 35.7585 111.616 36.5185 111.736 37.4785C111.776 37.9185 111.856 38.3985 111.936 38.8785C112.056 40.1985 112.256 41.5185 112.416 42.8385C112.656 45.0785 112.976 47.3185 113.616 49.5185C113.776 49.9985 113.976 50.4785 114.376 50.8385C115.296 51.6385 116.496 51.3185 117.136 50.3985C117.696 49.6785 117.816 48.8385 117.816 47.9585C117.816 47.0785 117.656 46.2385 117.576 45.3585ZM114.336 31.2385C114.656 30.2785 114.136 28.9985 113.176 28.3185C112.376 27.7585 111.496 27.7185 110.656 28.1985C109.776 28.6785 109.336 29.3985 109.336 30.2385C109.336 31.1985 109.656 31.7985 110.296 32.2385C110.776 32.5185 111.336 32.6785 111.896 32.7585C112.936 32.9185 114.016 32.2785 114.336 31.2385ZM137.156 42.6785C137.036 41.7585 136.596 41.0385 135.836 40.5185C134.836 39.7985 133.356 39.9985 132.556 40.9985C132.076 41.5585 131.836 42.2385 131.636 42.9585C131.596 43.2385 131.516 43.5185 131.356 43.7985C131.276 43.9585 131.156 43.9985 130.956 44.0385C130.316 44.0785 129.876 43.7985 129.556 43.2785C128.516 41.7985 128.156 40.0785 127.836 38.3585C127.796 38.1585 127.836 38.0385 128.036 38.0385C128.396 37.9985 128.716 37.9185 129.036 37.8785C129.836 37.7185 130.596 37.5585 131.236 37.0785C132.036 36.4785 132.396 35.2785 131.996 34.3185C131.556 33.1985 130.556 32.7185 129.516 32.7585C128.876 32.7985 128.236 32.9585 127.636 33.0785C127.396 33.1185 127.276 33.0385 127.276 32.7985C127.276 32.4385 127.236 32.1185 127.236 31.7585C127.196 31.3585 127.116 30.9185 126.996 30.5185C126.676 29.7585 125.796 29.1585 125.076 29.1985C124.196 29.3185 123.556 29.7585 123.236 30.5585C122.836 31.4385 122.716 32.3585 122.636 33.3185C122.596 33.5985 122.516 33.7585 122.196 33.8385C121.316 34.1185 120.396 34.3585 119.556 34.8785C118.796 35.3185 118.356 36.1985 118.476 36.9985C118.636 37.7585 119.316 38.3585 120.236 38.5185C120.836 38.6385 121.476 38.6385 122.116 38.5985C122.516 38.5585 122.516 38.5585 122.556 38.9985C122.676 40.2385 122.836 41.4785 123.156 42.7185C123.476 43.9985 123.916 45.2385 124.596 46.3585C125.116 47.3185 125.876 48.0385 126.716 48.6785C127.316 49.1985 127.996 49.5585 128.796 49.6785C129.596 49.8385 130.436 49.8785 131.276 49.9185C132.956 50.0385 134.276 49.3585 135.396 48.1585C136.276 47.1585 136.756 45.9585 137.036 44.6385C137.116 44.1985 137.156 43.7985 137.196 43.3585C137.196 43.2785 137.196 43.1585 137.196 43.0785C137.156 42.9585 137.156 42.7985 137.156 42.6785ZM154.65 47.4785C154.45 45.7985 154.21 44.1185 153.81 42.4785C153.49 41.0385 152.85 39.8385 151.85 38.7985C151.17 38.1185 150.41 37.5985 149.57 37.1185C148.01 36.3185 146.45 36.0385 144.77 36.7185C144.41 36.8785 144.13 37.0785 143.77 37.2385C143.65 37.3185 143.53 37.2785 143.53 37.0785C143.53 37.0385 143.49 36.9585 143.49 36.8785C143.33 35.6785 143.17 34.4385 143.01 33.2385C142.73 31.3585 142.41 29.5185 141.77 27.7585C141.57 27.1585 141.29 26.5585 140.81 26.0785C139.89 25.1985 138.49 25.4785 138.05 26.7185C137.85 27.2785 137.85 27.8785 137.89 28.4785C138.01 30.8385 138.33 33.1585 138.69 35.4785C138.97 37.3185 139.17 39.1585 139.37 40.9985C139.53 42.6385 139.53 44.2385 139.61 45.8785C139.65 47.3985 139.69 48.8785 139.97 50.3985C140.13 51.3585 140.69 52.1585 141.61 52.5185C143.21 53.1185 144.77 52.1185 144.93 50.4385C145.01 49.5185 145.01 48.5985 144.93 47.7185C144.85 46.7985 144.73 45.8785 144.69 44.9585C144.69 44.6785 144.65 44.4385 144.73 44.1585C145.05 43.0385 145.73 42.1185 146.81 41.6785C147.57 41.3585 148.29 41.3585 148.57 42.1585C148.65 42.3185 148.69 42.4785 148.69 42.6385C148.73 42.9185 148.73 43.2785 148.81 43.5585C149.09 44.7585 149.13 45.9585 149.21 47.1985C149.33 48.5185 149.33 49.8785 149.45 51.1985C149.61 52.5585 150.65 53.5585 152.01 53.5985C153.29 53.6385 154.37 52.6785 154.61 51.3585C154.73 50.7185 154.73 50.0385 154.77 49.5185C154.81 48.7185 154.73 48.0785 154.65 47.4785ZM182.142 44.7985C181.622 42.1985 181.422 39.6385 181.262 36.9985C181.142 35.1985 180.982 33.3585 180.862 31.5585C180.782 30.4785 180.542 29.4385 180.462 28.3585C180.382 27.5985 180.102 26.9185 179.462 26.4385C178.462 25.6785 176.902 26.2385 176.622 27.4385C176.462 28.1985 176.662 28.9585 176.622 29.7185C176.622 30.2385 176.782 30.7185 176.822 31.1985C176.982 32.5185 177.142 33.8385 177.302 35.1585C177.342 35.5185 177.342 35.5185 176.982 35.4385C176.422 35.3185 175.902 35.2785 175.342 35.2785C174.142 35.2785 173.102 35.7185 172.062 36.2785C170.262 37.1985 169.022 38.6785 168.222 40.4785C167.622 41.8785 167.502 43.3585 167.422 44.5985C167.382 45.7585 167.502 46.6385 167.742 47.5185C168.182 48.9185 168.942 50.1185 170.102 50.9585C171.582 52.0385 173.182 52.7585 174.942 52.9985C176.742 53.2385 178.422 52.8785 179.942 51.9185C180.582 51.5185 181.062 50.9585 181.542 50.4385C182.142 49.8385 182.462 49.1185 182.462 48.2785C182.382 47.1185 182.342 45.9585 182.142 44.7985ZM177.302 47.6785C175.862 47.8385 174.582 47.3585 173.462 46.4385C173.102 46.1585 172.902 45.7185 172.782 45.2385C172.582 44.3585 172.622 43.3985 172.822 42.5185C173.062 41.4785 173.822 40.8785 174.662 40.3585C175.342 39.9185 176.022 39.5985 176.822 39.5585C177.102 39.5585 177.382 39.5985 177.662 39.5985C177.862 39.6385 177.822 39.7985 177.822 39.9185C177.862 40.5185 177.902 41.0785 177.942 41.6785C178.022 42.7585 178.262 43.8385 178.422 44.9585C178.462 45.3585 178.502 45.7985 178.502 46.1585C178.502 46.2785 178.502 46.3185 178.502 46.3585C178.622 47.3585 178.022 47.5585 177.302 47.6785ZM191.365 45.3585C191.165 43.5985 190.965 41.8385 190.525 40.0785C190.285 39.0785 190.045 38.0785 189.965 36.9985C189.925 36.3185 189.565 35.7585 189.005 35.3585C188.245 34.8385 187.405 34.7985 186.565 35.2785C185.765 35.7585 185.405 36.5185 185.525 37.4785C185.565 37.9185 185.645 38.3985 185.725 38.8785C185.845 40.1985 186.045 41.5185 186.205 42.8385C186.445 45.0785 186.765 47.3185 187.405 49.5185C187.565 49.9985 187.765 50.4785 188.165 50.8385C189.085 51.6385 190.285 51.3185 190.925 50.3985C191.485 49.6785 191.605 48.8385 191.605 47.9585C191.605 47.0785 191.445 46.2385 191.365 45.3585ZM188.125 31.2385C188.445 30.2785 187.925 28.9985 186.965 28.3185C186.165 27.7585 185.285 27.7185 184.445 28.1985C183.565 28.6785 183.125 29.3985 183.125 30.2385C183.125 31.1985 183.445 31.7985 184.085 32.2385C184.565 32.5185 185.125 32.6785 185.685 32.7585C186.725 32.9185 187.805 32.2785 188.125 31.2385ZM208.385 42.5985C208.105 40.8385 207.305 39.3185 205.985 38.1185C205.185 37.3585 204.265 36.8385 203.145 36.6785C202.585 36.5985 201.985 36.5185 201.505 36.1985C200.825 35.8385 200.145 35.4385 199.465 35.0785C199.345 34.9985 199.225 34.8785 199.225 34.7185C199.185 34.0385 199.585 33.4785 200.225 33.3985C201.025 33.2785 201.785 33.3585 202.545 33.2785C202.985 33.2385 203.385 33.2785 203.825 33.3985C204.345 33.5185 204.865 33.5185 205.385 33.4785C205.625 33.4785 205.825 33.3585 206.025 33.1985C206.385 32.8385 206.505 32.1985 206.305 31.6385C205.905 30.7585 205.265 30.0785 204.385 29.7185C202.985 29.0385 201.465 28.7985 199.905 28.9985C199.025 29.1185 198.225 29.3585 197.505 29.9185C196.585 30.5585 196.025 31.4785 195.585 32.4385C195.185 33.3585 195.025 34.3185 194.985 35.2785C194.985 36.5985 195.425 37.6785 196.505 38.5185C196.985 38.9185 197.505 39.1585 198.025 39.4385C198.865 39.8785 199.705 40.3585 200.625 40.5585C201.865 40.8385 202.585 41.5585 202.945 42.7185C203.185 43.5985 203.105 43.9985 202.545 44.3985C202.425 44.4785 202.345 44.5185 202.225 44.5985C200.785 45.4385 199.305 45.4385 197.905 44.4785C197.185 43.9985 196.545 43.4385 196.065 42.6785C195.185 41.3585 193.225 41.5185 192.545 42.9185C192.105 43.7585 192.185 44.5985 192.585 45.4785C192.985 46.3985 193.665 47.0785 194.345 47.7985C195.425 48.8385 196.745 49.4385 198.105 49.9185C199.185 50.3185 200.305 50.1985 201.425 50.2385C202.865 50.2385 204.185 49.8385 205.385 49.0785C207.345 47.8385 208.465 46.1585 208.505 43.6385C208.465 43.3985 208.465 42.9985 208.385 42.5985ZM223.419 41.8785C222.779 41.9585 222.299 42.3585 221.779 42.6785C220.699 43.4385 219.499 43.9185 218.139 43.5985C217.019 43.3585 215.979 42.9985 215.339 41.9185C214.779 40.9185 214.299 39.9185 214.339 38.7585C214.379 37.6785 214.739 36.6385 215.179 35.6785C215.299 35.4385 215.499 35.2785 215.739 35.1585C216.419 34.8785 217.179 34.7585 217.939 34.6785C218.699 34.5585 219.459 34.5585 220.179 34.3985C221.619 34.1185 222.299 32.6785 221.579 31.4785C221.179 30.7985 220.539 30.4385 219.819 30.2385C219.139 30.0385 218.419 30.0785 217.859 30.0785C216.459 30.0785 215.179 30.2385 213.939 30.7185C212.779 31.1185 211.819 31.7985 211.099 32.7985C210.459 33.6385 210.019 34.6385 209.699 35.6385C209.219 37.1985 209.019 38.7585 209.259 40.3585C209.539 41.9985 210.059 43.5185 210.899 44.9585C211.419 45.8385 212.019 46.6385 212.939 47.1985C214.059 47.9185 215.219 48.4785 216.499 48.7985C218.019 49.1985 219.579 49.1985 221.059 48.7185C222.579 48.1985 223.859 47.3185 224.899 46.1185C225.379 45.5585 225.739 44.9185 225.819 44.1585C225.939 42.7585 224.779 41.6785 223.419 41.8785ZM242.604 37.7185C242.564 35.9985 241.924 34.5585 240.764 33.2785C239.644 32.0385 238.244 31.2785 236.684 30.8785C235.764 30.6385 234.844 30.7185 234.084 31.4385C233.964 31.5185 233.844 31.5585 233.684 31.5585C233.244 31.5585 232.764 31.5585 232.324 31.5985C231.404 31.6385 230.524 31.7985 229.724 32.3185C229.244 32.6785 228.804 33.0385 228.444 33.5185C227.964 34.0385 227.604 34.5985 227.284 35.2385C226.884 36.1185 226.724 37.0385 226.604 37.9585C226.324 39.8385 226.404 41.6785 227.164 43.4785C227.764 44.8385 228.404 46.0785 229.644 46.9585C230.524 47.5585 231.404 48.1585 232.524 48.3185C233.564 48.4385 234.604 48.3985 235.644 48.2785C238.284 48.0385 240.164 46.6385 241.404 44.3585C242.324 42.7185 242.644 40.9185 242.644 38.9585C242.644 38.5985 242.604 38.1585 242.604 37.7185ZM238.244 37.7585C238.124 39.4385 237.684 40.9585 236.844 42.4385C236.484 43.0785 236.084 43.2785 234.964 43.2785C233.884 43.3185 232.804 42.8385 231.884 41.8785C231.444 41.3985 231.164 40.7985 231.124 40.1185C231.084 39.1985 231.124 38.2385 231.204 37.3185C231.244 36.7585 231.484 36.2785 231.764 35.8385C231.924 35.6385 232.164 35.5585 232.364 35.4785C233.204 35.2385 234.044 35.1185 234.884 34.9585C234.924 34.9585 234.964 34.9585 235.044 34.9585C236.164 34.5985 236.924 35.1985 237.604 35.9985C237.684 36.0785 237.724 36.1585 237.804 36.2385C238.164 36.6785 238.284 37.1585 238.244 37.7585ZM257.32 40.5985C257.08 38.3585 256.68 36.1185 256.64 33.8385C256.64 32.9185 256.36 32.0385 255.64 31.3185C254.96 30.6785 254.2 30.5585 253.32 30.8385C252.48 31.0785 252 31.7185 251.8 32.5985C251.72 33.1185 251.88 33.5985 251.88 34.1185C251.88 35.5185 251.88 36.9585 252 38.3585C252.08 39.6385 252.12 40.9585 252.24 42.2385C252.28 42.5585 252.24 42.7185 251.88 42.7585C251.16 42.8785 250.48 42.6785 249.92 42.2385C249.04 41.5985 248.68 40.6385 248.56 39.6385C248.36 37.9185 248.28 36.1585 248.24 34.4385C248.2 33.7585 248.24 33.0785 248.12 32.4385C247.96 31.5585 247.28 30.8385 246.48 30.7185C245.56 30.5985 244.72 31.0385 244.28 31.8385C243.96 32.4785 243.8 33.1185 243.68 33.7985C243.36 35.9585 243.28 38.1185 243.32 40.3185C243.32 40.6785 243.36 40.9985 243.44 41.3585C243.84 43.0785 244.48 44.6385 245.68 45.9585C246.24 46.5985 246.88 47.1985 247.68 47.5585C248.48 47.9585 249.36 48.1985 250.24 48.3585C251.32 48.5185 252.4 48.5185 253.48 48.1185C254.4 47.7585 255.2 47.2385 255.96 46.5585C256.44 46.0785 256.92 45.5585 257.2 44.9585C257.52 44.1985 257.52 43.4385 257.56 42.7585C257.52 41.9585 257.4 41.2785 257.32 40.5985ZM272.442 43.5585C272.282 40.8785 272.082 38.1985 271.602 35.5585C271.442 34.7185 271.322 33.8785 270.922 33.1185C270.482 32.3185 269.642 31.8385 268.802 31.9185C267.842 31.9985 267.282 32.5585 266.962 33.4385C266.722 34.0385 266.802 34.6385 266.962 35.2385C267.122 36.0385 267.202 36.8785 267.242 37.7185C267.082 37.5185 266.882 37.2785 266.762 37.0385C265.842 35.4785 264.602 34.1585 263.322 32.8785C262.082 31.5985 259.882 32.1985 259.442 33.9185C259.242 34.7185 259.082 35.5185 259.002 36.3185C258.802 38.2785 258.482 40.2385 258.362 42.2385C258.322 43.0385 258.162 43.7985 258.242 44.5985C258.482 46.1985 260.402 47.0385 261.722 46.0785C262.242 45.7185 262.562 45.1985 262.762 44.5985C263.122 43.6385 263.322 42.5985 263.482 41.5985C263.482 41.4785 263.482 41.2785 263.602 41.2385C263.682 41.2385 263.722 41.3985 263.802 41.4785C264.802 42.6385 265.602 43.9185 266.562 45.0785C267.122 45.7585 267.722 46.4385 268.482 46.8385C269.882 47.6385 271.482 47.2785 272.122 45.7585C272.442 45.0785 272.482 44.3185 272.442 43.5585ZM291.844 42.6785C291.724 41.7585 291.284 41.0385 290.524 40.5185C289.524 39.7985 288.044 39.9985 287.244 40.9985C286.764 41.5585 286.524 42.2385 286.324 42.9585C286.284 43.2385 286.204 43.5185 286.044 43.7985C285.964 43.9585 285.844 43.9985 285.644 44.0385C285.004 44.0785 284.564 43.7985 284.244 43.2785C283.204 41.7985 282.844 40.0785 282.524 38.3585C282.484 38.1585 282.524 38.0385 282.724 38.0385C283.084 37.9985 283.404 37.9185 283.724 37.8785C284.524 37.7185 285.284 37.5585 285.924 37.0785C286.724 36.4785 287.084 35.2785 286.684 34.3185C286.244 33.1985 285.244 32.7185 284.204 32.7585C283.564 32.7985 282.924 32.9585 282.324 33.0785C282.084 33.1185 281.964 33.0385 281.964 32.7985C281.964 32.4385 281.924 32.1185 281.924 31.7585C281.884 31.3585 281.804 30.9185 281.684 30.5185C281.364 29.7585 280.484 29.1585 279.764 29.1985C278.884 29.3185 278.244 29.7585 277.924 30.5585C277.524 31.4385 277.404 32.3585 277.324 33.3185C277.284 33.5985 277.204 33.7585 276.884 33.8385C276.004 34.1185 275.084 34.3585 274.244 34.8785C273.484 35.3185 273.044 36.1985 273.164 36.9985C273.324 37.7585 274.004 38.3585 274.924 38.5185C275.524 38.6385 276.164 38.6385 276.804 38.5985C277.204 38.5585 277.204 38.5585 277.244 38.9985C277.364 40.2385 277.524 41.4785 277.844 42.7185C278.164 43.9985 278.604 45.2385 279.284 46.3585C279.804 47.3185 280.564 48.0385 281.404 48.6785C282.004 49.1985 282.684 49.5585 283.484 49.6785C284.284 49.8385 285.124 49.8785 285.964 49.9185C287.644 50.0385 288.964 49.3585 290.084 48.1585C290.964 47.1585 291.444 45.9585 291.724 44.6385C291.804 44.1985 291.844 43.7985 291.884 43.3585C291.884 43.2785 291.884 43.1585 291.884 43.0785C291.844 42.9585 291.844 42.7985 291.844 42.6785ZM83.7877 88.5185C84.0677 86.8385 84.1477 85.1585 84.0677 83.4785C84.0277 82.3985 83.9077 81.2785 83.8677 80.1985C83.8277 79.2785 83.6677 78.3985 83.3477 77.5585C82.9477 76.5185 82.2677 75.7185 81.4677 75.0785C80.7877 74.5185 80.0277 74.1585 79.2677 73.8385C77.1077 72.8385 74.9477 72.6785 72.7477 73.5185C71.5077 74.0385 70.5077 74.7585 69.9077 76.0385C69.7877 76.3185 69.7477 76.6385 69.6677 76.9185C69.6677 77.1185 69.6677 77.2785 69.6677 77.4785C69.6677 77.5985 69.7077 77.7185 69.7477 77.8385C70.1077 78.9585 71.1877 79.5185 72.3077 79.1585C72.5877 79.0785 72.8677 78.8785 73.1877 78.7585C74.2277 78.3985 75.2677 77.8785 76.3877 77.7985C76.6677 77.7985 76.9077 77.7985 77.1877 77.8785C77.9477 78.1585 78.5477 78.6385 79.0277 79.2385C79.1877 79.4385 79.3877 79.6385 79.3877 79.9185C79.3877 80.5585 79.3477 81.2385 79.2677 81.8785C79.2677 82.0385 79.2277 82.0785 79.0677 82.0385C78.4277 81.8785 77.7477 81.8385 77.1077 81.8785C75.7477 81.9985 74.5877 82.4785 73.6677 83.4385C72.6277 84.4785 71.9477 85.7185 71.6677 87.1985C71.5077 88.2385 71.5077 89.2785 71.8277 90.2785C72.5477 92.3985 74.1477 93.4785 76.1877 93.9985C77.3077 94.3185 78.4277 94.1585 79.5477 94.0385C80.3877 93.9585 81.1477 93.7585 81.8677 93.3185C82.7477 92.7185 83.3877 91.9585 83.7877 90.9985C83.9877 90.5185 84.0677 89.9985 83.8677 89.5185C83.7077 89.1585 83.7477 88.8385 83.7877 88.5185ZM79.3077 89.2385C79.3077 89.3585 79.2677 89.4785 79.1477 89.4385C78.3477 89.3185 77.5477 89.3185 76.8277 88.9585C76.6277 88.8785 76.5077 88.7185 76.5077 88.5185C76.4277 87.7585 76.4677 87.0385 76.9077 86.3585C77.2277 85.7985 77.7477 85.5985 78.3477 85.6785C78.6277 85.6785 78.9077 85.7585 79.1877 85.8385C79.4277 85.8785 79.5477 85.9985 79.5077 86.2385C79.5077 86.3585 79.5077 86.5185 79.5077 86.6385C79.5477 87.5185 79.4277 88.3985 79.3077 89.2385ZM98.9848 87.5585C98.8248 84.8785 98.6248 82.1985 98.1448 79.5585C97.9848 78.7185 97.8648 77.8785 97.4648 77.1185C97.0248 76.3185 96.1848 75.8385 95.3448 75.9185C94.3848 75.9985 93.8248 76.5585 93.5048 77.4385C93.2648 78.0385 93.3448 78.6385 93.5048 79.2385C93.6648 80.0385 93.7448 80.8785 93.7848 81.7185C93.6248 81.5185 93.4248 81.2785 93.3048 81.0385C92.3848 79.4785 91.1448 78.1585 89.8648 76.8785C88.6248 75.5985 86.4248 76.1985 85.9848 77.9185C85.7848 78.7185 85.6248 79.5185 85.5448 80.3185C85.3448 82.2785 85.0248 84.2385 84.9048 86.2385C84.8648 87.0385 84.7048 87.7985 84.7848 88.5985C85.0248 90.1985 86.9448 91.0385 88.2648 90.0785C88.7848 89.7185 89.1048 89.1985 89.3048 88.5985C89.6648 87.6385 89.8648 86.5985 90.0248 85.5985C90.0248 85.4785 90.0248 85.2785 90.1448 85.2385C90.2248 85.2385 90.2648 85.3985 90.3448 85.4785C91.3448 86.6385 92.1448 87.9185 93.1048 89.0785C93.6648 89.7585 94.2648 90.4385 95.0248 90.8385C96.4248 91.6385 98.0248 91.2785 98.6648 89.7585C98.9848 89.0785 99.0248 88.3185 98.9848 87.5585ZM114.427 88.7985C113.907 86.1985 113.707 83.6385 113.547 80.9985C113.427 79.1985 113.267 77.3585 113.147 75.5585C113.067 74.4785 112.827 73.4385 112.747 72.3585C112.667 71.5985 112.387 70.9185 111.747 70.4385C110.747 69.6785 109.187 70.2385 108.907 71.4385C108.747 72.1985 108.947 72.9585 108.907 73.7185C108.907 74.2385 109.067 74.7185 109.107 75.1985C109.267 76.5185 109.427 77.8385 109.587 79.1585C109.627 79.5185 109.627 79.5185 109.267 79.4385C108.707 79.3185 108.187 79.2785 107.627 79.2785C106.427 79.2785 105.387 79.7185 104.347 80.2785C102.547 81.1985 101.307 82.6785 100.507 84.4785C99.9067 85.8785 99.7867 87.3585 99.7067 88.5985C99.6667 89.7585 99.7867 90.6385 100.027 91.5185C100.467 92.9185 101.227 94.1185 102.387 94.9585C103.867 96.0385 105.467 96.7585 107.227 96.9985C109.027 97.2385 110.707 96.8785 112.227 95.9185C112.867 95.5185 113.347 94.9585 113.827 94.4385C114.427 93.8385 114.747 93.1185 114.747 92.2785C114.667 91.1185 114.627 89.9585 114.427 88.7985ZM109.587 91.6785C108.147 91.8385 106.867 91.3585 105.747 90.4385C105.387 90.1585 105.187 89.7185 105.067 89.2385C104.867 88.3585 104.907 87.3985 105.107 86.5185C105.347 85.4785 106.107 84.8785 106.947 84.3585C107.627 83.9185 108.307 83.5985 109.107 83.5585C109.387 83.5585 109.667 83.5985 109.947 83.5985C110.147 83.6385 110.107 83.7985 110.107 83.9185C110.147 84.5185 110.187 85.0785 110.227 85.6785C110.307 86.7585 110.547 87.8385 110.707 88.9585C110.747 89.3585 110.787 89.7985 110.787 90.1585C110.787 90.2785 110.787 90.3185 110.787 90.3585C110.907 91.3585 110.307 91.5585 109.587 91.6785ZM149.483 75.1585C149.483 75.0385 149.443 74.9185 149.443 74.7985C149.283 73.8785 148.843 73.1585 148.043 72.7585C147.123 72.2385 146.163 72.3585 145.363 73.0385C144.643 73.6385 144.403 74.4785 144.643 75.3985C144.723 75.7985 144.763 76.1585 144.763 76.5185C144.763 78.6385 144.643 80.7185 144.563 82.7985C144.523 83.5985 144.443 84.4385 144.363 85.2385C144.363 85.3185 144.363 85.3985 144.283 85.4385C144.203 85.4385 144.163 85.3585 144.123 85.3185C144.003 85.1185 143.843 84.9185 143.723 84.7185C142.843 83.4385 142.123 82.0385 141.363 80.6785C141.083 80.1185 140.803 79.5585 140.283 79.1585C138.963 78.1585 137.003 78.6385 136.443 80.1585C136.083 81.1185 135.803 82.0785 135.523 83.0785C135.163 84.2785 134.843 85.5185 134.403 86.7185C134.363 86.7985 134.363 86.8785 134.283 86.9185C134.163 86.9185 134.163 86.7985 134.123 86.7185C133.643 85.4385 133.323 84.1585 133.003 82.8385C132.563 80.9185 132.163 78.9585 131.483 77.0785C131.243 76.3585 130.963 75.6385 130.523 74.9985C130.043 74.3585 129.203 74.1185 128.523 74.4785C127.923 74.7585 127.643 75.3185 127.523 75.9585C127.243 77.1185 127.363 78.2785 127.483 79.4385C127.643 81.3185 127.963 83.1185 128.283 84.9585C128.723 87.4385 129.323 89.8385 130.643 91.9985C131.123 92.8785 131.723 93.6785 132.643 94.1985C133.803 94.8785 135.003 94.9185 136.123 94.1985C137.123 93.5585 137.683 92.5185 138.163 91.4785C138.643 90.5185 138.963 89.4785 139.243 88.4385C139.243 88.3185 139.283 88.1985 139.403 88.0785C139.443 88.1585 139.483 88.2385 139.523 88.2785C140.323 89.3585 141.203 90.3585 142.203 91.2785C142.963 91.9185 143.723 92.5185 144.603 92.9185C146.163 93.6385 147.683 93.1185 148.443 91.6385C148.763 90.9985 148.923 90.3185 149.083 89.6385C149.523 87.7985 149.643 85.9185 149.683 83.9985C149.723 81.0385 149.483 78.1185 149.483 75.1585ZM158.611 89.3585C158.411 87.5985 158.211 85.8385 157.771 84.0785C157.531 83.0785 157.291 82.0785 157.211 80.9985C157.171 80.3185 156.811 79.7585 156.251 79.3585C155.491 78.8385 154.651 78.7985 153.811 79.2785C153.011 79.7585 152.651 80.5185 152.771 81.4785C152.811 81.9185 152.891 82.3985 152.971 82.8785C153.091 84.1985 153.291 85.5185 153.451 86.8385C153.691 89.0785 154.011 91.3185 154.651 93.5185C154.811 93.9985 155.011 94.4785 155.411 94.8385C156.331 95.6385 157.531 95.3185 158.171 94.3985C158.731 93.6785 158.851 92.8385 158.851 91.9585C158.851 91.0785 158.691 90.2385 158.611 89.3585ZM155.371 75.2385C155.691 74.2785 155.171 72.9985 154.211 72.3185C153.411 71.7585 152.531 71.7185 151.691 72.1985C150.811 72.6785 150.371 73.3985 150.371 74.2385C150.371 75.1985 150.691 75.7985 151.331 76.2385C151.811 76.5185 152.371 76.6785 152.931 76.7585C153.971 76.9185 155.051 76.2785 155.371 75.2385ZM173.711 87.5585C173.551 84.8785 173.351 82.1985 172.871 79.5585C172.711 78.7185 172.591 77.8785 172.191 77.1185C171.751 76.3185 170.911 75.8385 170.071 75.9185C169.111 75.9985 168.551 76.5585 168.231 77.4385C167.991 78.0385 168.071 78.6385 168.231 79.2385C168.391 80.0385 168.471 80.8785 168.511 81.7185C168.351 81.5185 168.151 81.2785 168.031 81.0385C167.111 79.4785 165.871 78.1585 164.591 76.8785C163.351 75.5985 161.151 76.1985 160.711 77.9185C160.511 78.7185 160.351 79.5185 160.271 80.3185C160.071 82.2785 159.751 84.2385 159.631 86.2385C159.591 87.0385 159.431 87.7985 159.511 88.5985C159.751 90.1985 161.671 91.0385 162.991 90.0785C163.511 89.7185 163.831 89.1985 164.031 88.5985C164.391 87.6385 164.591 86.5985 164.751 85.5985C164.751 85.4785 164.751 85.2785 164.871 85.2385C164.951 85.2385 164.991 85.3985 165.071 85.4785C166.071 86.6385 166.871 87.9185 167.831 89.0785C168.391 89.7585 168.991 90.4385 169.751 90.8385C171.151 91.6385 172.751 91.2785 173.391 89.7585C173.711 89.0785 173.751 88.3185 173.711 87.5585ZM204.346 87.6385C203.986 85.3185 202.906 83.3985 201.106 81.9185C200.266 81.2385 199.306 80.7185 198.266 80.4785C196.266 79.9985 194.306 80.0785 192.506 81.2785C192.386 81.3985 192.306 81.3585 192.266 81.1985C192.226 80.9185 192.146 80.5985 192.066 80.3185C191.746 79.1585 191.426 77.9985 191.386 76.7985C191.346 75.3985 191.226 74.0385 190.786 72.7185C190.506 71.9585 190.306 71.1585 189.826 70.4385C189.386 69.7985 188.786 69.3985 187.986 69.5185C187.066 69.6385 186.466 70.3185 186.386 71.2785C186.306 72.2785 186.426 73.3185 186.746 74.2785C186.906 74.7985 187.146 75.2785 187.186 75.8385C187.346 77.1585 187.466 78.4785 187.626 79.7985C187.746 81.2385 187.706 82.6785 187.786 84.1185C187.866 85.8785 188.146 87.6385 188.386 89.3585C188.506 90.6385 188.786 91.9185 188.946 93.1985C189.066 94.1185 189.386 94.8785 190.186 95.3985C190.346 95.4785 190.466 95.6385 190.546 95.7585C190.826 96.2385 191.266 96.5185 191.706 96.7985C192.906 97.4785 194.226 97.7185 195.586 97.6385C196.626 97.7185 197.626 97.5985 198.586 97.1985C199.666 96.7985 200.586 96.2385 201.426 95.4385C201.906 94.9585 202.306 94.4385 202.746 93.8785C204.146 92.0385 204.746 89.9185 204.346 87.6385ZM199.026 90.0785C198.866 90.4785 198.586 90.7985 198.306 91.1185C197.506 92.0785 196.546 92.6385 195.186 92.5985C194.706 92.6785 194.186 92.4785 193.706 92.3185C193.586 92.2385 193.506 92.1985 193.466 92.0785C193.386 90.7185 193.146 89.3585 193.306 87.9985C193.426 87.1585 193.866 86.4385 194.706 86.0785C194.866 85.9585 195.066 85.9185 195.266 85.9185C196.826 85.7585 197.946 86.3985 198.706 87.7185C199.146 88.4785 199.346 89.2385 199.026 90.0785ZM213.376 89.3585C213.176 87.5985 212.976 85.8385 212.536 84.0785C212.296 83.0785 212.056 82.0785 211.976 80.9985C211.936 80.3185 211.576 79.7585 211.016 79.3585C210.256 78.8385 209.416 78.7985 208.576 79.2785C207.776 79.7585 207.416 80.5185 207.536 81.4785C207.576 81.9185 207.656 82.3985 207.736 82.8785C207.856 84.1985 208.056 85.5185 208.216 86.8385C208.456 89.0785 208.776 91.3185 209.416 93.5185C209.576 93.9985 209.776 94.4785 210.176 94.8385C211.096 95.6385 212.296 95.3185 212.936 94.3985C213.496 93.6785 213.616 92.8385 213.616 91.9585C213.616 91.0785 213.456 90.2385 213.376 89.3585ZM210.136 75.2385C210.456 74.2785 209.936 72.9985 208.976 72.3185C208.176 71.7585 207.296 71.7185 206.456 72.1985C205.576 72.6785 205.136 73.3985 205.136 74.2385C205.136 75.1985 205.456 75.7985 206.096 76.2385C206.576 76.5185 207.136 76.6785 207.696 76.7585C208.736 76.9185 209.816 76.2785 210.136 75.2385ZM231.237 87.5185C231.157 86.5185 230.957 85.4785 230.837 84.4785C230.637 82.4785 230.637 80.4385 230.437 78.4385C230.277 76.5985 229.997 74.7985 229.357 73.0785C229.157 72.4385 228.877 71.8385 228.277 71.5185C227.917 71.2785 227.517 71.0385 227.157 70.7985C226.997 70.7185 226.837 70.6385 226.677 70.5585C225.917 70.2385 225.117 70.0385 224.317 69.9585C221.677 69.6385 219.397 70.3585 217.517 72.2785C216.317 73.5185 215.597 75.0785 215.157 76.7185C214.797 77.9985 214.837 79.2785 214.877 80.5585C214.877 81.5185 215.037 82.4385 215.357 83.3585C215.677 84.2385 216.117 85.0785 216.837 85.7185C217.677 86.5185 218.637 87.0785 219.717 87.4785C220.917 87.9585 222.157 88.2385 223.477 88.0785C224.157 88.0385 224.877 87.9585 225.557 87.7985C225.757 87.7585 225.837 87.7985 225.797 88.0385C225.677 88.3585 225.597 88.7185 225.517 89.0385C225.237 90.0785 224.597 90.8785 224.077 91.7985C223.877 92.1985 223.517 92.4385 223.077 92.4785C222.077 92.5985 221.077 92.6385 220.117 92.4385C219.157 92.2385 218.397 91.7985 217.957 90.8785C217.797 90.5985 217.557 90.3185 217.317 90.1185C216.557 89.4385 215.477 89.3985 214.757 90.1585C214.197 90.7185 214.157 91.4385 214.357 92.1585C214.757 93.5185 215.477 94.7185 216.637 95.5985C217.037 95.9585 217.477 96.3185 217.997 96.5185C219.357 97.0385 220.797 97.3185 222.317 97.2785C222.597 97.2785 222.877 97.2785 223.157 97.2785C224.557 97.3185 225.757 96.7985 226.837 95.9985C227.597 95.4785 228.197 94.7985 228.797 94.1585C229.117 93.8385 229.397 93.5185 229.637 93.1985C230.837 91.4785 231.397 89.5985 231.237 87.5185ZM225.677 82.3585C225.237 82.6385 224.757 82.8385 224.197 82.7585C223.197 82.6785 222.277 82.5185 221.397 82.0385C220.877 81.7585 220.597 81.3985 220.517 80.7985C220.477 80.3585 220.477 79.9585 220.477 79.5185C220.397 78.3585 220.637 77.2385 221.197 76.2385C221.437 75.7985 221.717 75.4785 222.117 75.2785C223.037 74.8385 223.957 74.5985 224.957 74.5585C225.157 74.5585 225.277 74.5985 225.237 74.8385C225.117 76.4385 225.397 77.9985 225.637 79.5585C225.717 80.2785 225.837 81.0385 225.957 81.7985C225.997 82.0385 225.917 82.1985 225.677 82.3585Z" fill="#FDF4DE"/>
	<path d="M160.943 22.3183C158.258 19.7721 155.605 17.0005 152.75 14.7271" stroke="#FF7D53" stroke-width="3" stroke-linecap="round"/>
	<path d="M152.672 14.5498C155.666 14.4229 158.642 14.3905 161.651 14.4189" stroke="#FF7D53" stroke-width="3" stroke-linecap="round"/>
	<path d="M161.705 14.176C162.559 11.3524 162.977 8.49024 163.256 5.44435" stroke="#FF7D53" stroke-width="3" stroke-linecap="round"/>
	<path d="M163.188 5.26221C164.87 7.12496 166.525 9.00386 168.16 10.9142" stroke="#FF7D53" stroke-width="3" stroke-linecap="round"/>
	<path d="M168.808 10.8248C171.156 8.13081 173.418 5.43557 175.503 2.47543" stroke="#FF7D53" stroke-width="3" stroke-linecap="round"/>
	<path d="M174.933 2.74623C175.612 6.48795 175.987 10.1532 176.411 13.891C176.49 14.5801 176.574 15.237 176.878 15.8808" stroke="#FF7D53" stroke-width="3" stroke-linecap="round"/>
	<path d="M161.733 23.2428C165.11 20.8707 168.443 18.7202 172.487 17.7338C174.073 17.347 175.665 17.0976 177.206 16.5875" stroke="#FF7D53" stroke-width="3" stroke-linecap="round"/>
	<path d="M45.6975 94.1746L37.8984 99.3545" stroke="#FF7D53" stroke-width="3" stroke-linecap="round"/>
	<path d="M42.8349 87.1987L36.9596 86.3685" stroke="#FF7D53" stroke-width="3" stroke-linecap="round"/>
	<path d="M41.0803 78.3128L25.1025 71.1783" stroke="#FF7D53" stroke-width="3" stroke-linecap="round"/>
	<path d="M249.826 96.7033L256.148 100.588" stroke="#FF7D53" stroke-width="3" stroke-linecap="round"/>
	<path d="M254.78 88.4189L271.055 90.9541" stroke="#FF7D53" stroke-width="3" stroke-linecap="round"/>
	<path d="M253.414 80.0301L264.383 74.3281" stroke="#FF7D53" stroke-width="3" stroke-linecap="round"/>
</svg>
