<svg width="12" height="14" viewBox="0 0 12 14" fill="none" xmlns="http://www.w3.org/2000/svg">
	<path d="M5.29087 1.28982L0.290873 6.28981C0.199832 6.38492 0.128467 6.49706 0.0808726 6.61981C-0.0191454 6.86328 -0.0191454 7.13635 0.0808726 7.37981C0.128467 7.50257 0.199832 7.61471 0.290873 7.70981L5.29087 12.7098C5.38411 12.8031 5.4948 12.877 5.61662 12.9275C5.73845 12.9779 5.86901 13.0039 6.00087 13.0039C6.26717 13.0039 6.52257 12.8981 6.71087 12.7098C6.89918 12.5215 7.00496 12.2661 7.00496 11.9998C7.00496 11.7335 6.89918 11.4781 6.71087 11.2898L3.41087 7.99981L11.0009 7.99981C11.2661 7.99981 11.5204 7.89446 11.708 7.70692C11.8955 7.51938 12.0009 7.26503 12.0009 6.99981C12.0009 6.7346 11.8955 6.48024 11.708 6.29271C11.5204 6.10517 11.2661 5.99981 11.0009 5.99981L3.41087 5.99981L6.71087 2.70981C6.8046 2.61685 6.87899 2.50625 6.92976 2.38439C6.98053 2.26253 7.00667 2.13183 7.00667 1.99981C7.00667 1.8678 6.98053 1.7371 6.92976 1.61524C6.87899 1.49338 6.8046 1.38278 6.71087 1.28982C6.61791 1.19609 6.50731 1.12169 6.38545 1.07092C6.26359 1.02015 6.13288 0.994016 6.00087 0.994016C5.86886 0.994016 5.73815 1.02015 5.6163 1.07092C5.49444 1.12169 5.38384 1.19609 5.29087 1.28982Z" fill="black"/>
</svg>
