<svg width="29" height="29" viewBox="0 0 29 29" fill="none" xmlns="http://www.w3.org/2000/svg">
    <path d="M29 14.5C29 22.5081 22.5081 29 14.5 29C6.49187 29 0 22.5081 0 14.5C0 6.49187 6.49187 0 14.5 0C22.5081 0 29 6.49187 29 14.5Z" fill="url(#paint0_linear_13814_83882)"/>
    <mask id="mask0_13814_83882" style="mask-type:alpha" maskUnits="userSpaceOnUse" x="0" y="0" width="29" height="29">
        <path d="M29 14.5C29 22.5081 22.5081 29 14.5 29C6.49187 29 0 22.5081 0 14.5C0 6.49187 6.49187 0 14.5 0C22.5081 0 29 6.49187 29 14.5Z" fill="black"/>
    </mask>
    <g mask="url(#mask0_13814_83882)">
        <path d="M22.194 6.64014C22.1123 6.62587 22.0321 6.58252 21.9573 6.51009C21.8882 6.44347 21.8386 6.3684 21.808 6.2891C21.7774 6.20979 21.7648 6.12837 21.7711 6.04696C21.7753 5.96343 21.7975 5.88148 21.8349 5.799C21.8724 5.71653 21.9256 5.64198 21.9942 5.57061C22.059 5.50347 22.1318 5.45166 22.2125 5.41148C22.2916 5.37341 22.3722 5.34856 22.4556 5.34116C22.5389 5.33376 22.6206 5.34433 22.7023 5.37024C22.7825 5.39826 22.8568 5.44373 22.9238 5.50823C22.9655 5.54841 22.9987 5.58859 23.0229 5.63088C23.0451 5.67159 23.0609 5.71018 23.0715 5.74666C23.0799 5.78526 23.0825 5.82227 23.0809 5.85557C23.0778 5.89047 23.0704 5.92166 23.0593 5.94915L23.652 5.33429L23.8355 5.51193L22.6254 6.76703C22.5816 6.81249 22.5452 6.85373 22.5167 6.88757C22.4883 6.9214 22.4709 6.94255 22.4656 6.9526L22.2863 6.77866C22.2937 6.76703 22.309 6.74694 22.3301 6.72156C22.349 6.69777 22.3717 6.67028 22.4002 6.64067L22.4155 6.62481C22.3501 6.64913 22.2763 6.65442 22.1945 6.64014H22.194ZM22.0733 5.90738C22.0453 5.96025 22.0269 6.01524 22.0216 6.06758C22.0168 6.11992 22.0232 6.17278 22.0395 6.22301C22.0559 6.27323 22.0875 6.31923 22.1329 6.36311C22.1745 6.40329 22.223 6.43131 22.2736 6.44612C22.3243 6.46092 22.377 6.46568 22.4292 6.45933C22.4814 6.45299 22.5352 6.43237 22.5874 6.40223C22.6412 6.37421 22.6907 6.33456 22.7387 6.28487C22.8342 6.186 22.8864 6.08397 22.8964 5.97506C22.908 5.86773 22.8695 5.7731 22.7851 5.69115C22.7435 5.65097 22.6965 5.62084 22.648 5.60392C22.5953 5.58753 22.5447 5.58013 22.4925 5.587C22.4382 5.59176 22.386 5.61026 22.3322 5.63828C22.2784 5.6663 22.2304 5.70437 22.1829 5.75354C22.1355 5.80323 22.0991 5.8524 22.0733 5.90686V5.90738Z" fill="url(#paint1_linear_13814_83882)"/>
        <path d="M23.881 6.98865C23.8125 6.90617 23.7334 6.85806 23.6411 6.84537C23.5504 6.83533 23.4491 6.87657 23.3379 6.96961L22.8301 7.39362L22.665 7.19483L23.6785 6.34894L23.8399 6.54349L23.6627 6.691C23.7186 6.67672 23.7676 6.67144 23.8125 6.67355C23.8567 6.67937 23.8989 6.6873 23.9364 6.70263C23.9738 6.71796 24.0049 6.73805 24.0345 6.76026C24.0635 6.78246 24.0882 6.80837 24.1093 6.83321C24.1215 6.84802 24.132 6.86071 24.1389 6.87287C24.1473 6.88714 24.1541 6.8956 24.1573 6.90406L23.9464 7.08011C23.9258 7.0468 23.9037 7.01561 23.881 6.98812V6.98865Z" fill="url(#paint2_linear_13814_83882)"/>
        <path d="M24.3125 7.14289L24.4617 7.35013L23.3934 8.12519L23.2441 7.91794L24.3125 7.14289ZM24.8239 6.76858C24.8735 6.77651 24.911 6.8003 24.9415 6.8426C24.9721 6.88489 24.9858 6.93247 24.9779 6.98217C24.97 7.03186 24.9415 7.07257 24.8994 7.10324C24.8572 7.1339 24.8139 7.14447 24.7644 7.13654C24.7148 7.12861 24.6716 7.10218 24.641 7.05936C24.6104 7.01706 24.602 6.97212 24.6099 6.92243C24.6178 6.87273 24.6399 6.83255 24.6821 6.80241C24.7243 6.77228 24.7733 6.76012 24.8229 6.76805L24.8239 6.76858Z" fill="url(#paint3_linear_13814_83882)"/>
        <path d="M23.79 8.7289L24.648 7.59064L24.7972 7.84071L24.117 8.68713L25.1842 8.4894L25.3261 8.72784L23.924 8.95306L23.7906 8.7289H23.79Z" fill="url(#paint4_linear_13814_83882)"/>
        <path d="M24.8877 10.4361C24.8255 10.4245 24.7675 10.4023 24.7147 10.3716C24.6583 10.3394 24.6077 10.2992 24.5618 10.2505C24.5159 10.2019 24.4769 10.1411 24.4458 10.0708C24.4099 9.99044 24.3904 9.90585 24.3857 9.82073C24.3809 9.73561 24.3946 9.65102 24.4252 9.57119C24.4548 9.48871 24.5033 9.41576 24.5687 9.34755C24.6346 9.27935 24.7168 9.2212 24.8191 9.1752C24.9146 9.13291 25.0084 9.10859 25.1007 9.10647C25.193 9.10436 25.2768 9.11811 25.358 9.14507C25.4366 9.17309 25.5057 9.21433 25.5674 9.27142C25.6312 9.32694 25.6786 9.39355 25.7119 9.46862C25.753 9.56167 25.7751 9.65102 25.7746 9.73825C25.7767 9.82443 25.7609 9.90373 25.7271 9.97616C25.6934 10.0486 25.6423 10.1163 25.5769 10.1786C25.5104 10.2384 25.4308 10.2891 25.338 10.3304C25.3232 10.3373 25.3079 10.3436 25.2953 10.3494C25.2816 10.3526 25.2689 10.3579 25.2605 10.3589L24.8566 9.44959C24.8049 9.4755 24.7595 9.50828 24.7221 9.54581C24.6847 9.58335 24.6594 9.62776 24.6414 9.67534C24.6235 9.72292 24.6151 9.77156 24.6177 9.82443C24.6193 9.87518 24.6304 9.92699 24.6525 9.97722C24.6963 10.075 24.7522 10.1406 24.8228 10.1718C24.894 10.203 24.9684 10.2151 25.0459 10.2077L25.0659 10.4425C25.0053 10.4483 24.9452 10.4483 24.8856 10.4356L24.8877 10.4361ZM25.5262 9.84663C25.5595 9.76575 25.5537 9.67164 25.5057 9.56379C25.4835 9.51356 25.4556 9.4718 25.4213 9.44166C25.386 9.40941 25.3464 9.38774 25.3064 9.3724C25.2642 9.35813 25.2215 9.3502 25.1761 9.34914C25.1308 9.34808 25.0896 9.3576 25.0511 9.37187L25.3449 10.0322C25.4313 9.99044 25.4909 9.92805 25.5262 9.8461V9.84663Z" fill="url(#paint5_linear_13814_83882)"/>
        <path d="M24.8009 10.8176L26.0643 10.438L26.1365 10.6802L25.9551 10.7346C26.0474 10.7558 26.1197 10.797 26.175 10.8578C26.2304 10.9186 26.2673 10.9852 26.2894 11.0587C26.3121 11.1349 26.319 11.2046 26.31 11.2707C26.3032 11.3331 26.2805 11.3918 26.2473 11.4447C26.2135 11.4949 26.1697 11.5398 26.1149 11.5763C26.0601 11.6128 25.9968 11.6403 25.9256 11.662L25.1241 11.9025L25.0503 11.6551L25.8096 11.4272C25.8544 11.414 25.8919 11.3966 25.9293 11.377C25.9657 11.3548 25.9952 11.3284 26.0168 11.2961C26.0384 11.2639 26.05 11.2258 26.0574 11.1835C26.0616 11.1391 26.0558 11.092 26.0395 11.0365C26.0247 10.9863 26.0042 10.9466 25.9746 10.9155C25.9451 10.8843 25.9093 10.8605 25.8708 10.8462C25.8323 10.8319 25.7901 10.8245 25.7437 10.824C25.6978 10.8235 25.6514 10.8314 25.6039 10.8457L24.8736 11.0651L24.7998 10.8176H24.8009Z" fill="url(#paint6_linear_13814_83882)"/>
        <path d="M15.2521 3.39063C15.1804 3.4324 15.0913 3.45143 14.9874 3.44403C14.892 3.43769 14.8055 3.41231 14.7312 3.37107C14.6568 3.33036 14.5946 3.27644 14.5471 3.20982C14.4965 3.14321 14.4607 3.06602 14.4364 2.97879C14.4121 2.89155 14.4048 2.80009 14.4116 2.70123C14.4179 2.60818 14.4406 2.52147 14.4765 2.43847C14.5123 2.35811 14.5582 2.28674 14.6173 2.22753C14.6763 2.16831 14.7454 2.12337 14.8245 2.09007C14.9036 2.0594 14.9895 2.04619 15.0829 2.05253C15.1404 2.05623 15.192 2.06575 15.2374 2.08267C15.2801 2.09958 15.3175 2.11862 15.3492 2.13976C15.3803 2.16408 15.4061 2.19052 15.4262 2.21695C15.4462 2.24603 15.461 2.27458 15.4699 2.3026L15.5285 1.44983L15.7831 1.46728L15.664 3.20877C15.6598 3.27168 15.6587 3.32666 15.6582 3.37107C15.6582 3.41495 15.6587 3.44297 15.6608 3.45408L15.4119 3.43716C15.4103 3.42341 15.4093 3.39856 15.4088 3.36526C15.4082 3.33512 15.4077 3.29917 15.4109 3.25793L15.4124 3.23626C15.3782 3.29706 15.3249 3.34887 15.2532 3.39063H15.2521ZM14.6885 2.90847C14.7011 2.96716 14.7222 3.02108 14.7523 3.06443C14.7823 3.10779 14.8208 3.14374 14.8662 3.17123C14.911 3.19925 14.9648 3.21405 15.028 3.21828C15.0855 3.22198 15.1414 3.21247 15.1894 3.19079C15.2374 3.16911 15.2811 3.13951 15.3165 3.10038C15.3523 3.06126 15.3803 3.01104 15.4008 2.95447C15.424 2.8979 15.4367 2.83551 15.4409 2.76731C15.4504 2.63038 15.4251 2.5183 15.3624 2.42843C15.3028 2.33908 15.2121 2.2915 15.0945 2.28357C15.037 2.27934 14.9816 2.28674 14.9337 2.30577C14.883 2.32692 14.8398 2.35441 14.8039 2.39353C14.7654 2.43213 14.7375 2.47971 14.7143 2.53628C14.6911 2.59232 14.679 2.65259 14.6742 2.72079C14.6695 2.78952 14.6737 2.85032 14.689 2.909L14.6885 2.90847Z" fill="#A2A8B7"/>
        <path d="M16.7671 2.56751C16.6616 2.54848 16.5699 2.56276 16.4913 2.61298C16.4154 2.66374 16.3648 2.76048 16.3389 2.90429L16.2224 3.55668L15.9688 3.51122L16.2013 2.20959L16.4497 2.254L16.4091 2.48134C16.4423 2.43429 16.4771 2.39834 16.5124 2.37137C16.5504 2.34758 16.5873 2.32643 16.6258 2.31375C16.6643 2.30106 16.7012 2.29683 16.7376 2.29471C16.7739 2.29313 16.8098 2.2963 16.842 2.30211C16.861 2.30529 16.8773 2.30846 16.89 2.31375C16.9058 2.31956 16.9163 2.32115 16.9242 2.32538L16.8757 2.59606C16.8388 2.5839 16.8014 2.57439 16.7666 2.56804L16.7671 2.56751Z" fill="#A2A8B7"/>
        <path d="M17.1956 2.40818L17.4429 2.47056L17.1223 3.75315L16.875 3.69077L17.1956 2.40818ZM17.3469 1.79173C17.3902 1.76583 17.4339 1.76001 17.4846 1.7727C17.5352 1.78539 17.5763 1.81288 17.6022 1.85623C17.628 1.89958 17.6327 1.94875 17.6201 1.9995C17.6074 2.05026 17.5816 2.08621 17.5383 2.11211C17.4951 2.13802 17.445 2.14542 17.3949 2.13273C17.3448 2.12004 17.309 2.0915 17.2831 2.04814C17.2573 2.00479 17.2489 1.96038 17.2615 1.90963C17.2742 1.85887 17.3042 1.81817 17.3475 1.79226L17.3469 1.79173Z" fill="#A2A8B7"/>
        <path d="M17.8125 3.95935L17.7402 2.53455L18.015 2.63024L18.0361 3.71721L18.7273 2.87819L18.9889 2.96913L18.0587 4.045L17.8125 3.95935Z" fill="#A2A8B7"/>
        <path d="M19.7464 4.56143C19.6915 4.59262 19.633 4.61271 19.5729 4.62329C19.5091 4.63492 19.4442 4.6365 19.3778 4.62857C19.3113 4.62064 19.2428 4.59897 19.1737 4.56513C19.0946 4.52654 19.0255 4.4742 18.9675 4.41234C18.9095 4.35048 18.8658 4.277 18.8378 4.19611C18.8078 4.11416 18.7983 4.02693 18.8046 3.93229C18.8109 3.83766 18.8373 3.74038 18.8863 3.63887C18.9322 3.54477 18.9892 3.46599 19.0582 3.40467C19.1273 3.34387 19.2006 3.29999 19.2802 3.26879C19.3583 3.23972 19.4379 3.22703 19.5212 3.23073C19.6061 3.23232 19.6847 3.25241 19.7585 3.28888C19.8497 3.33329 19.9235 3.38828 19.9794 3.45542C20.0364 3.51992 20.0754 3.59076 20.0954 3.66848C20.116 3.74567 20.1202 3.83079 20.1102 3.92014C20.0975 4.00895 20.0691 4.09883 20.0243 4.19029C20.0169 4.2051 20.01 4.2199 20.0037 4.23206C19.9953 4.24316 19.9895 4.25532 19.9831 4.26167L19.0915 3.82497C19.0688 3.87784 19.0545 3.93229 19.0498 3.98516C19.045 4.03803 19.0545 4.08826 19.0709 4.13637C19.0872 4.18448 19.112 4.22677 19.1479 4.2659C19.1811 4.30343 19.2233 4.33621 19.2728 4.36053C19.3688 4.40758 19.4537 4.42133 19.5281 4.40018C19.6024 4.37903 19.6673 4.33991 19.7221 4.28387L19.8882 4.45094C19.8455 4.49429 19.7996 4.53288 19.7458 4.56143H19.7464ZM19.8582 3.69862C19.8318 3.61508 19.7675 3.54688 19.6615 3.49507C19.6119 3.47075 19.5644 3.45648 19.5186 3.45595C19.4706 3.45383 19.4268 3.46282 19.3862 3.4771C19.3446 3.49349 19.3071 3.51463 19.2718 3.54318C19.2365 3.57173 19.2111 3.60504 19.1906 3.64099L19.8386 3.9582C19.8782 3.87044 19.8835 3.78426 19.8582 3.69862Z" fill="#A2A8B7"/>
        <path d="M19.9258 4.90952L20.6503 3.80457L20.8612 3.94361L20.7573 4.10222C20.8417 4.05886 20.9234 4.04406 21.0052 4.05463C21.0864 4.06574 21.1576 4.0927 21.2219 4.13499C21.2883 4.17887 21.3379 4.22804 21.3732 4.28408C21.408 4.33642 21.4281 4.39564 21.437 4.45749C21.4434 4.51776 21.4386 4.58015 21.4202 4.64359C21.4017 4.70703 21.3706 4.76889 21.33 4.83074L20.8707 5.53125L20.6556 5.38956L21.0906 4.72554C21.1164 4.68641 21.1344 4.64888 21.1497 4.61028C21.1628 4.56957 21.1692 4.53098 21.1649 4.49186C21.1607 4.45273 21.1454 4.41625 21.1238 4.37925C21.0985 4.34277 21.0642 4.30999 21.0157 4.27827C20.972 4.24972 20.9308 4.23227 20.8881 4.22751C20.8454 4.22276 20.8027 4.22751 20.7642 4.24126C20.7257 4.25501 20.6883 4.27668 20.6529 4.30629C20.6176 4.33537 20.587 4.37132 20.5601 4.41308L20.1414 5.05173L19.9258 4.91005V4.90952Z" fill="#A2A8B7"/>
        <path d="M25.4256 13.6047C25.3723 13.5413 25.3386 13.4562 25.328 13.352C25.318 13.2563 25.328 13.167 25.356 13.0866C25.3839 13.0063 25.4261 12.9354 25.483 12.8773C25.54 12.8159 25.6096 12.7673 25.6913 12.7287C25.7731 12.6901 25.8616 12.6668 25.9597 12.6568C26.0525 12.6473 26.1416 12.6547 26.2292 12.6758C26.3141 12.6975 26.3921 12.7308 26.4601 12.7789C26.5282 12.827 26.584 12.8878 26.6305 12.9603C26.6737 13.0332 26.7016 13.1162 26.7111 13.2093C26.7169 13.2669 26.7169 13.3192 26.708 13.3674C26.699 13.4123 26.6863 13.4525 26.6705 13.4874C26.6521 13.5223 26.6305 13.5524 26.6083 13.5767C26.5835 13.6016 26.5577 13.6206 26.5313 13.6343L27.3798 13.5466L27.4061 13.8009L25.6739 13.9796C25.6112 13.9859 25.5569 13.9944 25.5136 14.0018C25.4704 14.0092 25.4435 14.0145 25.4324 14.0187L25.4066 13.7697C25.4198 13.7655 25.444 13.7602 25.4767 13.7543C25.5062 13.7485 25.5416 13.7422 25.5827 13.738L25.6043 13.7358C25.5384 13.7121 25.4788 13.6687 25.4256 13.6053V13.6047ZM25.8036 12.9661C25.7483 12.9883 25.6987 13.0184 25.6613 13.0554C25.6238 13.0924 25.5954 13.1368 25.5753 13.186C25.5553 13.2352 25.55 13.2907 25.5569 13.3536C25.5627 13.4112 25.5822 13.4641 25.6112 13.5085C25.6407 13.5524 25.6776 13.5899 25.7219 13.6185C25.7662 13.647 25.8205 13.6666 25.8796 13.6766C25.9386 13.6898 26.0024 13.6914 26.0705 13.6846C26.207 13.6703 26.3125 13.6264 26.39 13.5492C26.468 13.4747 26.4992 13.3779 26.487 13.26C26.4812 13.2024 26.4644 13.149 26.438 13.1046C26.4085 13.0581 26.3742 13.02 26.3299 12.9915C26.2856 12.9603 26.2339 12.9407 26.1743 12.9275C26.1153 12.9143 26.0541 12.9122 25.9861 12.919C25.9181 12.9259 25.8585 12.9407 25.8036 12.9656V12.9661Z" fill="#A2A8B7"/>
        <path d="M26.4887 14.9681C26.4903 14.8608 26.4618 14.7725 26.3996 14.7027C26.3373 14.6356 26.234 14.6012 26.0884 14.5986L25.4277 14.588L25.432 14.3295L26.7507 14.3506L26.7465 14.6033L26.5161 14.5996C26.5678 14.625 26.6084 14.6536 26.6411 14.6842C26.6706 14.7175 26.6975 14.7514 26.7159 14.7873C26.7344 14.8233 26.7449 14.8592 26.7529 14.8952C26.7602 14.9311 26.7629 14.9665 26.7623 14.9998C26.7623 15.0189 26.7618 15.0358 26.7587 15.049C26.7555 15.0654 26.7555 15.0765 26.7523 15.0844L26.4781 15.0802C26.4845 15.0416 26.4876 15.0035 26.4881 14.9676L26.4887 14.9681Z" fill="#A2A8B7"/>
        <path d="M26.7237 15.3561L26.7053 15.6109L25.3896 15.5152L25.4081 15.2604L26.7237 15.3561ZM27.3554 15.3989C27.3881 15.437 27.4018 15.4793 27.3982 15.5316C27.3945 15.5834 27.3744 15.6289 27.3365 15.6622C27.2985 15.6955 27.2505 15.7082 27.1988 15.7045C27.1466 15.7008 27.1071 15.6812 27.0739 15.6431C27.0406 15.6051 27.0253 15.557 27.029 15.5046C27.0327 15.4528 27.0549 15.4126 27.0928 15.3799C27.1308 15.3466 27.1735 15.3307 27.2252 15.3344C27.2769 15.3381 27.3222 15.3608 27.3554 15.3989Z" fill="#A2A8B7"/>
        <path d="M25.3044 16.2337L26.6917 15.9154L26.6453 16.203L25.5812 16.4124L26.5251 16.9495L26.4808 17.2234L25.2627 16.4917L25.3044 16.2337Z" fill="#A2A8B7"/>
        <path d="M25.0485 18.248C25.0084 18.1993 24.9784 18.1449 24.9578 18.0873C24.9351 18.0265 24.9225 17.9625 24.9188 17.8959C24.9151 17.8293 24.924 17.7574 24.9457 17.6834C24.9699 17.5988 25.0095 17.5216 25.0601 17.4534C25.1107 17.3852 25.1756 17.3291 25.2499 17.2879C25.3253 17.244 25.4092 17.2197 25.5036 17.2091C25.5979 17.1991 25.6981 17.2081 25.8057 17.2393C25.9059 17.2683 25.9934 17.3106 26.0651 17.3683C26.1369 17.4264 26.1927 17.4909 26.2376 17.5639C26.2797 17.6363 26.3061 17.7124 26.3167 17.7954C26.3298 17.8795 26.3235 17.9604 26.3008 18.0397C26.2729 18.1375 26.2323 18.22 26.1759 18.2866C26.1221 18.3543 26.0593 18.4045 25.9871 18.4383C25.9149 18.4716 25.8321 18.4912 25.7424 18.4965C25.6533 18.4991 25.56 18.487 25.4624 18.4589C25.4466 18.4542 25.4308 18.4499 25.4176 18.4462C25.405 18.4399 25.3918 18.4362 25.3849 18.4309L25.6591 17.4745C25.6032 17.4613 25.5473 17.4565 25.4946 17.4613C25.4419 17.4661 25.3939 17.484 25.3501 17.5084C25.3058 17.5327 25.2684 17.5649 25.2362 17.6072C25.2051 17.6469 25.1798 17.6939 25.165 17.7468C25.1355 17.8499 25.1366 17.9361 25.1708 18.0058C25.2051 18.0756 25.2541 18.1327 25.3185 18.1771L25.1835 18.3701C25.1334 18.3357 25.0875 18.2966 25.0501 18.2485L25.0485 18.248ZM25.9154 18.2089C25.9929 18.1682 26.0488 18.0926 26.081 17.9794C26.0962 17.9265 26.102 17.8768 26.0947 17.8319C26.0883 17.7843 26.072 17.7426 26.0509 17.705C26.0277 17.667 26.0003 17.6331 25.966 17.6035C25.9317 17.5739 25.8943 17.5544 25.8558 17.5401L25.6565 18.2348C25.7493 18.2586 25.8352 18.249 25.9149 18.2089H25.9154Z" fill="#A2A8B7"/>
        <path d="M24.7412 18.485L25.9519 19.0094L25.8517 19.2415L25.6782 19.1665C25.7351 19.2421 25.7641 19.3203 25.7673 19.4028C25.7705 19.4853 25.7562 19.5598 25.7257 19.6306C25.694 19.7036 25.6545 19.7612 25.6054 19.8062C25.5601 19.8495 25.5052 19.8797 25.4462 19.8987C25.3882 19.9156 25.326 19.9214 25.2606 19.914C25.1952 19.9066 25.1287 19.8871 25.0607 19.8575L24.293 19.5249L24.3953 19.2875L25.1224 19.6026C25.1651 19.6211 25.2052 19.6322 25.2463 19.6412C25.2885 19.6476 25.3275 19.6465 25.365 19.6359C25.4024 19.6254 25.4356 19.6037 25.4683 19.5762C25.5 19.545 25.5258 19.5053 25.5485 19.4525C25.569 19.4044 25.5791 19.361 25.5764 19.3182C25.5743 19.2754 25.5622 19.2341 25.5416 19.1982C25.5211 19.1622 25.4936 19.1295 25.4588 19.0993C25.424 19.0692 25.3834 19.0459 25.3381 19.0258L24.6384 18.7224L24.7407 18.485H24.7412Z" fill="#A2A8B7"/>
        <path d="M23.4294 21.0223C23.4294 20.9393 23.4578 20.8525 23.5164 20.7658C23.5701 20.686 23.6355 20.6242 23.7078 20.5808C23.78 20.5375 23.8581 20.5105 23.9398 20.5026C24.0226 20.4925 24.1069 20.4999 24.1945 20.5226C24.2815 20.5454 24.3643 20.585 24.446 20.6405C24.523 20.6929 24.5868 20.7558 24.64 20.8288C24.6912 20.9001 24.7292 20.9757 24.7508 21.0566C24.7724 21.1375 24.7761 21.22 24.765 21.3051C24.7513 21.3886 24.7197 21.4701 24.6675 21.5478C24.6353 21.5954 24.6016 21.6355 24.5641 21.6667C24.5283 21.6953 24.4929 21.718 24.4587 21.7344C24.4223 21.7492 24.3864 21.7582 24.3537 21.7624C24.3189 21.7651 24.2868 21.7635 24.2578 21.7571L24.9633 22.2372L24.8204 22.4486L23.3798 21.4685C23.3276 21.433 23.2807 21.4045 23.2427 21.3818C23.2047 21.3596 23.1805 21.3463 23.1699 21.3421L23.3102 21.1349C23.3234 21.1402 23.345 21.1518 23.374 21.1682C23.4004 21.183 23.4315 21.2004 23.4657 21.2237L23.4837 21.2358C23.4483 21.1756 23.4309 21.1037 23.4309 21.0207L23.4294 21.0223ZM24.1286 20.7769C24.0716 20.7584 24.0147 20.7495 23.9625 20.7537C23.9097 20.7579 23.8596 20.7732 23.8132 20.7981C23.7668 20.8229 23.7268 20.8621 23.6914 20.9144C23.6593 20.962 23.6398 21.0154 23.6339 21.0677C23.6281 21.1201 23.6324 21.1729 23.6477 21.2232C23.663 21.2734 23.6925 21.3236 23.731 21.3696C23.7679 21.4182 23.8153 21.46 23.8723 21.4991C23.9857 21.5763 24.0948 21.6107 24.204 21.6017C24.311 21.5948 24.3975 21.5409 24.4639 21.4431C24.4961 21.3955 24.5177 21.3437 24.5262 21.2924C24.5335 21.2374 24.5314 21.1867 24.5161 21.1359C24.5019 21.0831 24.475 21.0349 24.4381 20.9868C24.4012 20.9387 24.3558 20.898 24.2994 20.8589C24.2425 20.8203 24.1881 20.7933 24.1296 20.7769H24.1286Z" fill="#A2A8B7"/>
        <path d="M23.3763 22.7499C23.4454 22.668 23.4797 22.5818 23.476 22.4882C23.4707 22.3967 23.4122 22.3042 23.3014 22.2096L22.7979 21.7803L22.965 21.5836L23.9701 22.4401L23.8066 22.6331L23.631 22.4834C23.6547 22.5363 23.6684 22.5839 23.6737 22.6283C23.6753 22.6732 23.6748 22.7161 23.6663 22.7557C23.6579 22.7954 23.6431 22.8297 23.6262 22.8625C23.6094 22.8953 23.5883 22.9244 23.5672 22.9492C23.5545 22.964 23.544 22.9767 23.5329 22.9852C23.5203 22.9957 23.5129 23.0042 23.5055 23.009L23.2967 22.8308C23.3257 22.8049 23.3526 22.7774 23.3758 22.7504L23.3763 22.7499Z" fill="#A2A8B7"/>
        <path d="M23.2989 23.1998L23.1207 23.3827L22.1758 22.4601L22.354 22.2772L23.2989 23.1998ZM23.7545 23.6407C23.7551 23.6915 23.7382 23.7322 23.7018 23.7697C23.6654 23.8072 23.6211 23.8289 23.5705 23.83C23.5199 23.8305 23.4751 23.8099 23.4381 23.7734C23.4007 23.7369 23.3828 23.6962 23.3823 23.646C23.3817 23.5958 23.4002 23.5487 23.4366 23.5112C23.473 23.4736 23.5151 23.4578 23.5658 23.4572C23.6164 23.4567 23.6591 23.4715 23.6965 23.508C23.734 23.5445 23.754 23.591 23.7545 23.6412V23.6407Z" fill="#A2A8B7"/>
        <path d="M21.6523 22.9562L22.9183 23.6075L22.6985 23.7978L21.7498 23.2713L22.1274 24.2916L21.9175 24.473L21.4551 23.1269L21.6523 22.9562Z" fill="#A2A8B7"/>
        <path d="M20.1604 24.3342C20.1604 24.2708 20.1731 24.21 20.1937 24.1524C20.2153 24.091 20.2464 24.0339 20.2865 23.9805C20.3265 23.9271 20.3793 23.878 20.4431 23.8352C20.5158 23.786 20.5955 23.7521 20.6782 23.7326C20.761 23.713 20.8465 23.712 20.9298 23.7284C21.0157 23.7432 21.0959 23.7786 21.1744 23.832C21.253 23.8854 21.3242 23.9562 21.3869 24.0498C21.445 24.1365 21.485 24.2253 21.503 24.3163C21.5209 24.4072 21.5219 24.4923 21.5093 24.5769C21.495 24.6594 21.4666 24.735 21.4212 24.8053C21.3775 24.8777 21.3205 24.9359 21.2525 24.9824C21.1681 25.0395 21.0843 25.076 20.9983 25.0913C20.914 25.1082 20.8333 25.1066 20.7563 25.0855C20.6793 25.0643 20.6039 25.0258 20.5317 24.9724C20.4615 24.9168 20.3982 24.8471 20.3413 24.763C20.3323 24.7492 20.3228 24.7355 20.3155 24.7244C20.3102 24.7112 20.3023 24.7001 20.3002 24.6916L21.1238 24.136C21.0895 24.0895 21.0495 24.0503 21.0062 24.0197C20.963 23.989 20.9145 23.9721 20.8654 23.9626C20.8159 23.953 20.7663 23.953 20.7146 23.9647C20.6651 23.9747 20.616 23.9948 20.5707 24.0255C20.4821 24.0852 20.4273 24.1518 20.4088 24.2274C20.3903 24.303 20.3914 24.3786 20.412 24.4537L20.1847 24.514C20.1683 24.4553 20.1583 24.3961 20.1604 24.3348V24.3342ZM20.8496 24.8634C20.935 24.8819 21.0263 24.8603 21.1238 24.7942C21.1692 24.7635 21.2056 24.7292 21.2293 24.69C21.2551 24.6493 21.2694 24.6065 21.2773 24.5647C21.2836 24.5203 21.2846 24.477 21.2773 24.432C21.2704 24.3871 21.2541 24.3485 21.2335 24.3126L20.6355 24.7165C20.6914 24.7947 20.7631 24.8423 20.8496 24.8634Z" fill="#A2A8B7"/>
        <path d="M19.772 24.3153L20.3636 25.4969L20.1384 25.6106L20.0535 25.4409C20.0488 25.5355 20.0208 25.6143 19.9708 25.6793C19.9207 25.7443 19.8616 25.7925 19.793 25.8273C19.7219 25.8633 19.6544 25.8818 19.5885 25.8844C19.5257 25.8881 19.4645 25.876 19.4071 25.8527C19.3517 25.8284 19.3005 25.7925 19.2547 25.7449C19.2093 25.6968 19.1714 25.6391 19.1381 25.5731L18.7627 24.8239L18.9931 24.7081L19.3485 25.4181C19.3696 25.4599 19.3928 25.4943 19.4187 25.5276C19.4471 25.5593 19.4777 25.5842 19.5131 25.6C19.5484 25.6159 19.5879 25.6206 19.6306 25.6206C19.6749 25.6169 19.7203 25.6032 19.7714 25.5773C19.8178 25.554 19.8537 25.5265 19.879 25.4922C19.9048 25.4578 19.9217 25.4181 19.9291 25.378C19.9365 25.3373 19.9365 25.2944 19.9291 25.249C19.9217 25.2035 19.9059 25.1591 19.8837 25.1152L19.5415 24.4321L19.772 24.3164V24.3153Z" fill="#A2A8B7"/>
        <path d="M17.1414 25.4154C17.1946 25.3515 17.2721 25.3039 17.3723 25.2753C17.4646 25.2489 17.5543 25.2436 17.6381 25.2568C17.7214 25.2701 17.7984 25.2997 17.8659 25.3462C17.936 25.3922 17.9956 25.4519 18.0478 25.5259C18.1 25.6 18.138 25.6835 18.1649 25.7787C18.1902 25.8685 18.1986 25.9579 18.1928 26.0478C18.1865 26.1355 18.167 26.218 18.1311 26.2941C18.0953 26.3703 18.0457 26.4358 17.9824 26.4934C17.9181 26.549 17.8416 26.5907 17.752 26.6161C17.6966 26.632 17.645 26.6409 17.5964 26.6404C17.5506 26.6394 17.5089 26.6341 17.472 26.6246C17.4346 26.6124 17.4013 26.596 17.3734 26.578C17.3449 26.5574 17.3217 26.5357 17.3033 26.5119L17.5358 27.3346L17.2906 27.4044L16.8155 25.7247C16.7981 25.6639 16.7807 25.6116 16.7659 25.5704C16.7512 25.5291 16.7412 25.5032 16.7354 25.4932L16.9753 25.425C16.9816 25.4377 16.9911 25.4604 17.0027 25.4916C17.0138 25.5201 17.0259 25.5534 17.037 25.5931L17.0428 25.6142C17.0544 25.545 17.0871 25.4789 17.1403 25.4149L17.1414 25.4154ZM17.8343 25.6787C17.8026 25.628 17.7647 25.5841 17.7219 25.5534C17.6792 25.5228 17.6307 25.5022 17.579 25.4911C17.5274 25.4799 17.4715 25.4842 17.4108 25.5016C17.3555 25.5175 17.3064 25.5455 17.2685 25.582C17.2305 25.6185 17.1999 25.6613 17.1793 25.7105C17.1588 25.7591 17.1493 25.8162 17.1493 25.8759C17.1466 25.9367 17.1556 25.9996 17.1746 26.0657C17.212 26.1979 17.2737 26.2947 17.3628 26.3581C17.4493 26.4221 17.55 26.4363 17.6639 26.4041C17.7193 26.3882 17.7689 26.3629 17.8079 26.329C17.8485 26.2915 17.8801 26.2513 17.9002 26.2027C17.9234 26.1535 17.9334 26.099 17.936 26.0382C17.9387 25.9774 17.9302 25.9172 17.9118 25.8511C17.8933 25.785 17.8685 25.729 17.8348 25.6787H17.8343Z" fill="#A2A8B7"/>
        <path d="M15.9942 26.7029C16.0996 26.6849 16.1808 26.6405 16.2383 26.567C16.2926 26.4935 16.3079 26.3851 16.2836 26.2413L16.174 25.5879L16.4281 25.545L16.647 26.8488L16.3981 26.8905L16.3596 26.6627C16.3438 26.7182 16.3237 26.7637 16.2995 26.8012C16.272 26.8366 16.2441 26.8689 16.2119 26.8937C16.1798 26.9186 16.1465 26.9355 16.1128 26.9492C16.079 26.9635 16.0442 26.972 16.0121 26.9773C15.9931 26.9804 15.9768 26.9831 15.963 26.9825C15.9462 26.9825 15.9356 26.9847 15.9272 26.9825L15.8818 26.7113C15.9209 26.7103 15.9588 26.7066 15.9942 26.7007V26.7029Z" fill="#A2A8B7"/>
        <path d="M15.6427 26.9979L15.389 27.0233L15.2588 25.7074L15.5124 25.682L15.6427 26.9979ZM15.7081 27.6297C15.6759 27.6688 15.6369 27.6894 15.5852 27.6942C15.5335 27.6995 15.4855 27.6873 15.4465 27.6556C15.4075 27.6233 15.3864 27.5784 15.3817 27.5266C15.3769 27.4748 15.389 27.432 15.4207 27.3928C15.4528 27.3537 15.4971 27.3299 15.5488 27.3246C15.6005 27.3193 15.6432 27.3347 15.6822 27.3664C15.7212 27.3986 15.7444 27.4378 15.7497 27.4896C15.755 27.5414 15.7402 27.59 15.7086 27.6292L15.7081 27.6297Z" fill="#A2A8B7"/>
        <path d="M14.5376 25.7465L15.0934 27.0598L14.8028 27.0645L14.411 26.051L14.0493 27.0767L13.7725 27.0809L14.2776 25.7502L14.5381 25.746L14.5376 25.7465Z" fill="#A2A8B7"/>
        <path d="M12.5148 25.8416C12.556 25.7935 12.604 25.7544 12.6567 25.7243C12.7126 25.6915 12.7732 25.6677 12.8381 25.6523C12.9029 25.637 12.9752 25.6338 13.0516 25.6418C13.1392 25.6513 13.2214 25.6767 13.2974 25.7147C13.3733 25.7533 13.4392 25.8073 13.493 25.8739C13.5494 25.9405 13.5879 26.0193 13.6143 26.1107C13.6406 26.2022 13.6491 26.3026 13.6375 26.4147C13.6264 26.5183 13.6 26.6124 13.5557 26.6933C13.5115 26.7742 13.4577 26.8403 13.3933 26.8974C13.3295 26.9513 13.2594 26.991 13.1798 27.0158C13.0996 27.0433 13.0189 27.0513 12.9372 27.0423C12.8365 27.0317 12.7479 27.0053 12.6725 26.9614C12.5971 26.9201 12.5365 26.8667 12.4911 26.8012C12.4458 26.7356 12.4125 26.6574 12.3915 26.5696C12.373 26.4819 12.3693 26.3877 12.3799 26.2862C12.3814 26.2699 12.3835 26.2535 12.3846 26.2397C12.3888 26.2265 12.3904 26.2128 12.3936 26.2048L13.3807 26.31C13.3838 26.2524 13.3791 26.1964 13.3649 26.1451C13.3512 26.0938 13.3253 26.0494 13.2937 26.0103C13.262 25.9711 13.2241 25.9394 13.1771 25.9151C13.1328 25.8908 13.0822 25.8744 13.0274 25.8686C12.9209 25.8575 12.8365 25.8733 12.7738 25.9188C12.711 25.9648 12.6635 26.023 12.6309 26.0943L12.4178 25.9944C12.4431 25.9389 12.4732 25.8871 12.5138 25.8416H12.5148ZM12.7031 26.6912C12.7564 26.7605 12.8402 26.8028 12.9573 26.8149C13.0116 26.8207 13.0617 26.8176 13.1044 26.8028C13.1502 26.7885 13.1882 26.7647 13.2214 26.7377C13.2547 26.7081 13.2831 26.6754 13.3069 26.6362C13.3306 26.5971 13.3427 26.5569 13.3501 26.5162L12.633 26.4401C12.6256 26.5363 12.6498 26.6188 12.7031 26.6907V26.6912Z" fill="#A2A8B7"/>
        <path d="M12.2302 25.5763L11.9254 26.8631L11.6797 26.8044L11.7235 26.6199C11.6591 26.6892 11.5869 26.7315 11.5067 26.7494C11.4266 26.7669 11.3507 26.7658 11.2758 26.7478C11.1983 26.7293 11.135 26.7003 11.0823 26.6595C11.0322 26.622 10.9926 26.5734 10.9636 26.5184C10.9372 26.4639 10.9204 26.4037 10.9162 26.3376C10.9119 26.2715 10.9198 26.2028 10.9372 26.1303L11.1308 25.3146L11.3818 25.3743L11.1983 26.1473C11.1877 26.1927 11.1835 26.234 11.1819 26.2763C11.183 26.3191 11.1909 26.3577 11.2078 26.3926C11.2246 26.428 11.2515 26.4565 11.2847 26.4846C11.3211 26.5099 11.3644 26.529 11.4203 26.5422C11.4709 26.5543 11.5157 26.5565 11.5574 26.5464C11.599 26.5364 11.6375 26.5173 11.6691 26.4909C11.7008 26.4645 11.7282 26.4317 11.7519 26.392C11.7757 26.3524 11.7915 26.308 11.8031 26.2599L11.9792 25.516L12.2302 25.5757V25.5763Z" fill="#A2A8B7"/>
        <path d="M9.51029 24.7226C9.59202 24.7083 9.68219 24.7215 9.7771 24.7644C9.86463 24.804 9.93688 24.8574 9.99224 24.9214C10.0476 24.9853 10.0872 25.0578 10.1093 25.1371C10.1336 25.2174 10.1404 25.302 10.133 25.3919C10.1257 25.4823 10.1009 25.5706 10.0608 25.6605C10.0223 25.7456 9.97168 25.8191 9.90946 25.8846C9.84829 25.9476 9.78027 25.9983 9.70433 26.0332C9.6284 26.0681 9.54825 26.0866 9.4623 26.0898C9.37793 26.0908 9.29251 26.0734 9.20709 26.0353C9.15436 26.0115 9.10953 25.9851 9.07262 25.9534C9.03835 25.9227 9.00987 25.892 8.98773 25.8608C8.96663 25.827 8.95187 25.7932 8.94185 25.762C8.93289 25.7281 8.9292 25.6959 8.93078 25.6663L8.58117 26.4461L8.34863 26.3414L9.0626 24.7496C9.08844 24.6919 9.10848 24.6406 9.12377 24.5994C9.13906 24.5582 9.14803 24.5317 9.15014 24.5206L9.37793 24.6232C9.37477 24.6369 9.36739 24.6607 9.35631 24.6919C9.34629 24.7205 9.33417 24.7543 9.31729 24.7918L9.30833 24.8119C9.36159 24.7665 9.42908 24.7369 9.51081 24.7226H9.51029ZM9.87202 25.3708C9.88045 25.3115 9.8794 25.2534 9.86622 25.2026C9.85303 25.1514 9.82878 25.1043 9.79661 25.0631C9.76445 25.0218 9.71857 24.9885 9.6611 24.9626C9.60836 24.9388 9.553 24.9288 9.50027 24.9325C9.44754 24.9356 9.39691 24.9489 9.34998 24.9732C9.30305 24.9975 9.25929 25.035 9.2208 25.0805C9.17967 25.1254 9.14645 25.1794 9.11797 25.2423C9.06155 25.3676 9.04678 25.4813 9.07473 25.5875C9.10004 25.6922 9.16806 25.7683 9.27563 25.8164C9.32837 25.8402 9.38268 25.8524 9.43435 25.8519C9.48972 25.8497 9.53929 25.8386 9.58622 25.8149C9.63578 25.7921 9.6785 25.7567 9.71963 25.7123C9.76076 25.6673 9.79292 25.6155 9.82087 25.5532C9.84882 25.4902 9.86622 25.4321 9.87254 25.3713L9.87202 25.3708Z" fill="#A2A8B7"/>
        <path d="M7.80285 24.9666C7.89513 25.0211 7.98583 25.0396 8.07705 25.02C8.16564 24.9989 8.24685 24.9259 8.32067 24.8001L8.65551 24.2291L8.8775 24.3602L8.20888 25.5001L7.99163 25.3716L8.10816 25.1728C8.06071 25.2051 8.01589 25.2268 7.97317 25.24C7.92941 25.2495 7.88722 25.2564 7.84662 25.2548C7.80602 25.2532 7.76963 25.2447 7.73483 25.2336C7.70003 25.2225 7.66786 25.2067 7.63939 25.1903C7.62304 25.1808 7.60881 25.1723 7.59826 25.1628C7.5856 25.1522 7.57611 25.1464 7.57031 25.1401L7.70952 24.9032C7.74011 24.9275 7.77174 24.9492 7.80233 24.9672L7.80285 24.9666Z" fill="#A2A8B7"/>
        <path d="M6.99276 25.4936C6.94319 25.5032 6.89995 25.4936 6.85724 25.464C6.814 25.4344 6.785 25.3948 6.77551 25.3451C6.76602 25.2954 6.7792 25.2473 6.8082 25.2044C6.8372 25.1616 6.87464 25.1368 6.92421 25.1273C6.97377 25.1177 7.02334 25.1283 7.06605 25.1579C7.10929 25.1875 7.13197 25.2267 7.14146 25.2763C7.15095 25.326 7.14357 25.371 7.11404 25.4138C7.08451 25.4572 7.04232 25.4846 6.99276 25.4942V25.4936ZM7.34816 24.9681L7.13777 24.8238L7.88232 23.7321L8.09271 23.8764L7.34816 24.9681Z" fill="#A2A8B7"/>
        <path d="M7.30374 23.2982L6.88032 24.6606L6.65568 24.4756L7.01056 23.4483L6.07248 23.996L5.8584 23.82L7.10178 23.1327L7.30321 23.2982H7.30374Z" fill="#A2A8B7"/>
        <path d="M5.69565 22.0624C5.75787 22.0519 5.82009 22.0534 5.87968 22.0645C5.94348 22.0756 6.00517 22.0963 6.06476 22.1264C6.12434 22.1571 6.18129 22.2009 6.23455 22.2565C6.29519 22.3199 6.34212 22.3929 6.37534 22.4711C6.40856 22.5493 6.42438 22.6334 6.4228 22.7191C6.4228 22.8068 6.40171 22.8919 6.36321 22.9786C6.32472 23.0653 6.26672 23.1478 6.18551 23.2261C6.11011 23.2985 6.02943 23.3529 5.94348 23.3863C5.85753 23.4196 5.77369 23.4354 5.68826 23.4375C5.60495 23.4375 5.52585 23.4227 5.44887 23.39C5.36977 23.3593 5.3028 23.3133 5.24585 23.2536C5.17572 23.1801 5.1251 23.1034 5.09557 23.0209C5.06446 22.9406 5.05233 22.8607 5.05972 22.7809C5.0671 22.7016 5.09188 22.6202 5.13248 22.5393C5.17467 22.4605 5.23267 22.386 5.30597 22.3151C5.31757 22.3035 5.3297 22.2924 5.33971 22.2829C5.35132 22.2755 5.36133 22.266 5.36924 22.2623L6.05685 22.9802C6.0964 22.9385 6.12856 22.8925 6.15071 22.8438C6.17286 22.7957 6.18182 22.7455 6.18288 22.6947C6.18393 22.644 6.17497 22.5953 6.15493 22.5462C6.13647 22.4991 6.10853 22.4537 6.07056 22.414C5.99674 22.3368 5.92186 22.2945 5.84435 22.2887C5.76683 22.2834 5.69301 22.2972 5.62235 22.331L5.52374 22.1169C5.57858 22.091 5.63501 22.0704 5.69565 22.0619V22.0624ZM5.29384 22.8338C5.29015 22.921 5.32706 23.0077 5.40879 23.0928C5.44676 23.1325 5.48683 23.1626 5.52902 23.179C5.57331 23.1975 5.6176 23.2044 5.66032 23.2049C5.70514 23.2039 5.74785 23.197 5.79056 23.1822C5.83327 23.1674 5.86913 23.1446 5.90024 23.1182L5.40088 22.5964C5.33339 22.6651 5.29911 22.7439 5.29331 22.8333L5.29384 22.8338Z" fill="#A2A8B7"/>
        <path d="M5.64769 21.675L4.58886 22.4633L4.43858 22.2603L4.59044 22.1472C4.49658 22.1588 4.41432 22.1445 4.34156 22.1065C4.26879 22.0684 4.21131 22.0182 4.16596 21.9568C4.11851 21.8929 4.08898 21.8294 4.07474 21.7644C4.0605 21.7031 4.06156 21.6407 4.07474 21.5799C4.0895 21.5212 4.11534 21.4641 4.15436 21.4107C4.19338 21.3573 4.24348 21.3097 4.30306 21.2658L4.97432 20.7662L5.12777 20.9735L4.49131 21.4472C4.45387 21.4752 4.42434 21.5043 4.39587 21.5355C4.3695 21.5688 4.35052 21.6037 4.34103 21.6412C4.33154 21.6787 4.33365 21.7189 4.34103 21.7612C4.3521 21.804 4.37372 21.8469 4.408 21.8929C4.43911 21.9346 4.4718 21.9653 4.51029 21.9849C4.54879 22.0044 4.58992 22.0145 4.63157 22.0145C4.6727 22.0145 4.71489 22.0071 4.75813 21.9923C4.80137 21.9769 4.84197 21.9537 4.88204 21.9241L5.49424 21.4683L5.64769 21.6756V21.675Z" fill="#A2A8B7"/>
        <path d="M4.11292 19.2691C4.18464 19.3109 4.24528 19.3791 4.29063 19.4732C4.33228 19.5599 4.35338 19.6471 4.35496 19.7322C4.35654 19.8174 4.34072 19.8983 4.30645 19.9728C4.27375 20.05 4.22471 20.1192 4.16144 20.1837C4.09816 20.2482 4.02276 20.3001 3.93364 20.3429C3.8498 20.3836 3.76385 20.4069 3.67368 20.4169C3.58667 20.4254 3.50178 20.4206 3.4211 20.3989C3.34042 20.3772 3.26713 20.3392 3.19911 20.2868C3.13372 20.2329 3.07941 20.1647 3.0388 20.0807C3.01349 20.0288 2.99609 19.9791 2.98818 19.931C2.98133 19.8856 2.97922 19.8438 2.98238 19.8057C2.98766 19.7666 2.9982 19.7312 3.01086 19.7005C3.02615 19.6688 3.04355 19.6418 3.06359 19.6202L2.29583 19.9929L2.18457 19.7629L3.75225 19.0021C3.8092 18.9746 3.85718 18.9482 3.89567 18.9265C3.93417 18.9049 3.95737 18.8906 3.96633 18.8832L4.07496 19.1084C4.06389 19.1169 4.04279 19.1301 4.01432 19.147C3.98848 19.1629 3.95737 19.1808 3.92046 19.1988L3.90042 19.2083C3.97055 19.2083 4.04121 19.2284 4.11292 19.2702V19.2691ZM3.97477 19.9992C4.01959 19.9591 4.05545 19.9141 4.07812 19.8665C4.1008 19.819 4.1124 19.7671 4.11451 19.7143C4.11662 19.6614 4.10238 19.6069 4.07496 19.5504C4.04965 19.4986 4.01379 19.4547 3.97108 19.4235C3.92837 19.3923 3.88091 19.3696 3.82976 19.3579C3.77861 19.3463 3.72061 19.3468 3.66155 19.3569C3.60144 19.3648 3.5408 19.3849 3.4791 19.415C3.35571 19.4748 3.27135 19.5525 3.22442 19.6514C3.17643 19.7481 3.18012 19.8501 3.2318 19.9564C3.25711 20.0082 3.29086 20.0532 3.33093 20.0854C3.3747 20.1192 3.41952 20.143 3.47119 20.1547C3.52393 20.1689 3.57876 20.1695 3.6394 20.1615C3.69952 20.1536 3.75752 20.1346 3.81922 20.105C3.88091 20.0748 3.93153 20.041 3.9753 19.9987L3.97477 19.9992Z" fill="#A2A8B7"/>
        <path d="M2.64781 18.3554C2.68367 18.4563 2.74114 18.5293 2.82393 18.5727C2.90514 18.6139 3.01482 18.6097 3.15139 18.561L3.77413 18.3395L3.86061 18.5832L2.61775 19.0257L2.53339 18.7873L2.75064 18.7101C2.69316 18.7043 2.64517 18.6921 2.60404 18.6747C2.5645 18.6535 2.52759 18.6319 2.49753 18.6044C2.46747 18.5769 2.44533 18.5473 2.42529 18.5161C2.40578 18.4854 2.39101 18.4526 2.37994 18.4215C2.37361 18.4035 2.36781 18.3876 2.36623 18.3739C2.36359 18.3575 2.3599 18.3469 2.35938 18.3385L2.61775 18.2465C2.62566 18.2845 2.63568 18.3215 2.64781 18.3554Z" fill="#A2A8B7"/>
        <path d="M1.68791 18.2359C1.64415 18.2111 1.61726 18.1756 1.60302 18.1254C1.58878 18.0752 1.59247 18.0255 1.61726 17.9816C1.64204 17.9377 1.68264 17.9092 1.73273 17.8949C1.78283 17.8806 1.82712 17.8859 1.87089 17.9102C1.91466 17.9351 1.94577 17.9747 1.96 18.025C1.97424 18.0752 1.96633 18.1201 1.94207 18.164C1.91729 18.2079 1.88302 18.2375 1.83292 18.2518C1.78283 18.266 1.73273 18.2597 1.68897 18.2349L1.68791 18.2359ZM2.29695 18.0625L2.2284 17.8161L3.49868 17.4603L3.56723 17.7067L2.29695 18.0625Z" fill="#A2A8B7"/>
        <path d="M3.33415 16.7555L2.13559 17.5247L2.08233 17.2382L3.01355 16.6809L1.94418 16.4948L1.89355 16.222L3.28669 16.4985L3.33468 16.7555H3.33415Z" fill="#A2A8B7"/>
        <path d="M2.89743 14.7724C2.95174 14.8046 2.99815 14.8459 3.03717 14.8929C3.07883 14.9426 3.11257 14.9981 3.13894 15.06C3.16478 15.1218 3.1806 15.1922 3.18534 15.2693C3.19114 15.3571 3.18007 15.4433 3.15528 15.5247C3.1305 15.6061 3.08832 15.6807 3.03242 15.7452C2.97653 15.8123 2.90534 15.8636 2.82045 15.9054C2.73502 15.9466 2.638 15.9725 2.52568 15.9799C2.4218 15.9868 2.32478 15.9767 2.23777 15.9466C2.15077 15.9165 2.07642 15.8747 2.00998 15.8208C1.94617 15.7674 1.89503 15.7045 1.85759 15.6294C1.81698 15.5548 1.79536 15.4766 1.79009 15.3941C1.78324 15.2926 1.79378 15.2011 1.82437 15.1192C1.85179 15.0378 1.8945 14.9685 1.95092 14.9125C2.00734 14.8564 2.07905 14.8104 2.16184 14.7745C2.24516 14.7417 2.33691 14.7216 2.43815 14.7153C2.4545 14.7142 2.47084 14.7132 2.48455 14.7121C2.49826 14.7137 2.51197 14.7132 2.52041 14.7153L2.58527 15.7087C2.64274 15.7023 2.69653 15.6875 2.74451 15.6653C2.7925 15.6431 2.83152 15.6103 2.86474 15.5723C2.89796 15.5342 2.92274 15.4914 2.93856 15.4406C2.95438 15.3925 2.96229 15.3397 2.9586 15.2852C2.95174 15.1784 2.92169 15.0975 2.86579 15.0431C2.8099 14.9886 2.74451 14.9516 2.66911 14.932L2.73133 14.7047C2.78986 14.72 2.84628 14.7412 2.89796 14.7734L2.89743 14.7724ZM2.09435 15.1033C2.03529 15.1678 2.0084 15.2577 2.01578 15.3756C2.01947 15.4306 2.03107 15.4792 2.05269 15.5194C2.07484 15.5622 2.10437 15.5961 2.13653 15.6241C2.17133 15.6521 2.20877 15.6743 2.25096 15.6912C2.29314 15.7076 2.3348 15.7134 2.37593 15.7134L2.329 14.9918C2.23356 15.0008 2.15604 15.0388 2.09435 15.1033Z" fill="#A2A8B7"/>
        <path d="M3.10965 14.4438L1.79297 14.3645L1.80826 14.1118L1.99704 14.1234C1.91794 14.0716 1.86363 14.0081 1.83252 13.9315C1.80141 13.8554 1.78928 13.7803 1.79402 13.7031C1.79877 13.6238 1.8167 13.5556 1.84781 13.4969C1.87576 13.4409 1.91741 13.3938 1.96645 13.3552C2.01549 13.3198 2.07191 13.2928 2.13572 13.2775C2.20005 13.2622 2.2686 13.2579 2.34242 13.2622L3.17714 13.3124L3.16185 13.5704L2.3709 13.5228C2.32449 13.5202 2.28284 13.5228 2.24118 13.5286C2.19952 13.5371 2.16314 13.5514 2.1315 13.5741C2.09986 13.5968 2.07613 13.6285 2.05451 13.6661C2.03553 13.7063 2.02446 13.7523 2.02129 13.8099C2.01813 13.8622 2.02393 13.9066 2.0408 13.9463C2.05768 13.9859 2.08299 14.0203 2.11462 14.0473C2.14574 14.0737 2.18317 14.0954 2.22589 14.1118C2.2686 14.1282 2.315 14.1366 2.36457 14.1393L3.12547 14.1853L3.11018 14.4433L3.10965 14.4438Z" fill="#A2A8B7"/>
        <path d="M3.47668 11.611C3.50515 11.6893 3.50726 11.7807 3.48195 11.8817C3.45822 11.9748 3.41815 12.0556 3.36489 12.1212C3.31163 12.1873 3.2473 12.2391 3.17348 12.274C3.0986 12.3115 3.01687 12.3337 2.92723 12.3422C2.83759 12.3507 2.74636 12.3417 2.65039 12.3173C2.56022 12.2946 2.47902 12.2565 2.40414 12.2063C2.3319 12.1566 2.27021 12.0985 2.22222 12.0297C2.17476 11.961 2.14313 11.8849 2.12467 11.8008C2.10885 11.7173 2.11149 11.6301 2.13416 11.5396C2.1484 11.4836 2.16633 11.4344 2.19111 11.3921C2.21537 11.353 2.24068 11.3197 2.26704 11.2922C2.29657 11.2658 2.32716 11.2452 2.35616 11.2298C2.38832 11.215 2.41891 11.206 2.44791 11.2023L1.62109 10.9925L1.68384 10.7445L3.37175 11.1733C3.43291 11.1886 3.4867 11.1997 3.52994 11.2076C3.57318 11.2156 3.6006 11.2198 3.61167 11.2198L3.5505 11.4625C3.53627 11.4619 3.51201 11.4582 3.47932 11.4529C3.44926 11.4482 3.41393 11.4418 3.37438 11.4318L3.35329 11.4265C3.40708 11.4714 3.44821 11.5328 3.47615 11.611H3.47668ZM2.90244 12.0805C2.96256 12.0789 3.01898 12.0678 3.06696 12.0456C3.11495 12.0239 3.15713 11.9917 3.19246 11.9526C3.22779 11.9134 3.25205 11.8627 3.26734 11.8013C3.28158 11.7453 3.28158 11.6887 3.26945 11.6375C3.25679 11.5862 3.23517 11.5381 3.20354 11.4958C3.1719 11.4535 3.12708 11.417 3.0754 11.3869C3.02425 11.3541 2.96519 11.3303 2.89875 11.3134C2.76587 11.2795 2.65145 11.2848 2.55231 11.3303C2.45371 11.3731 2.39096 11.454 2.36196 11.5682C2.34772 11.6242 2.34508 11.6803 2.35457 11.731C2.36618 11.785 2.38569 11.8325 2.41732 11.8743C2.44844 11.9192 2.49009 11.9552 2.54124 11.988C2.59239 12.0208 2.64881 12.0435 2.71525 12.0604C2.78169 12.0773 2.84233 12.0842 2.90297 12.0794L2.90244 12.0805Z" fill="#A2A8B7"/>
        <path d="M2.94124 9.96819C2.9038 10.0686 2.90116 10.1617 2.93649 10.2479C2.97235 10.3319 3.05883 10.3991 3.19487 10.4504L3.81393 10.6824L3.72376 10.9246L2.48828 10.4615L2.57634 10.2246L2.79201 10.3055C2.75193 10.2643 2.72293 10.2241 2.70237 10.1839C2.68549 10.1427 2.67126 10.102 2.66598 10.0618C2.66071 10.0216 2.66282 9.98406 2.66757 9.94811C2.67231 9.91163 2.68233 9.87726 2.69393 9.8466C2.70079 9.82862 2.70659 9.81329 2.71397 9.80113C2.7224 9.78686 2.7261 9.77628 2.73137 9.76941L2.98817 9.86563C2.96971 9.89947 2.95336 9.93489 2.94124 9.96819Z" fill="#A2A8B7"/>
        <path d="M2.28454 9.25831C2.26661 9.21073 2.26872 9.16685 2.29034 9.11927C2.31196 9.07169 2.34623 9.03574 2.39316 9.01829C2.44062 9.00032 2.48966 9.00507 2.53712 9.02622C2.58458 9.0479 2.61516 9.08015 2.63309 9.1272C2.65102 9.17478 2.64891 9.22501 2.62729 9.27259C2.60567 9.32017 2.57139 9.34978 2.52394 9.36775C2.47648 9.38573 2.43113 9.38573 2.38367 9.36458C2.33622 9.3429 2.30194 9.3059 2.28401 9.25884L2.28454 9.25831ZM2.86247 9.51843L2.96793 9.28581L4.1686 9.83247L4.06314 10.0651L2.86194 9.51843H2.86247Z" fill="#A2A8B7"/>
        <path d="M4.4946 9.18682L3.08301 9.00283L3.22591 8.74907L4.29634 8.923L3.59713 8.09085L3.73317 7.84924L4.62221 8.95948L4.49408 9.18682H4.4946Z" fill="#A2A8B7"/>
        <path d="M5.43418 7.38641C5.45527 7.44615 5.46424 7.50748 5.46424 7.5688C5.46424 7.63383 5.45475 7.69833 5.43471 7.7623C5.4152 7.82627 5.38145 7.89024 5.3361 7.95263C5.28443 8.02347 5.22062 8.08268 5.14944 8.12868C5.07825 8.1752 4.9981 8.20481 4.91373 8.21803C4.82778 8.23336 4.74025 8.22702 4.6485 8.20375C4.55675 8.18049 4.46552 8.13767 4.37483 8.07053C4.29099 8.00867 4.22296 7.93835 4.17603 7.85905C4.12858 7.77975 4.09852 7.69992 4.08217 7.61586C4.06741 7.53338 4.06899 7.45249 4.08797 7.37107C4.10485 7.28807 4.13859 7.21406 4.18711 7.14744C4.24722 7.06549 4.31419 7.00205 4.38959 6.9587C4.46341 6.91376 4.53987 6.88838 4.61897 6.88204C4.69859 6.8757 4.78243 6.88627 4.86891 6.9127C4.95381 6.94125 5.03712 6.98513 5.11885 7.0454C5.13204 7.05545 5.14522 7.06497 5.15629 7.0729C5.16578 7.08347 5.17686 7.0914 5.1816 7.09827L4.59419 7.90029C4.64217 7.93201 4.69279 7.9558 4.74394 7.96955C4.79509 7.98329 4.84624 7.98329 4.8958 7.97589C4.94537 7.96849 4.9923 7.95104 5.03659 7.92302C5.07983 7.89659 5.11938 7.86117 5.15155 7.81676C5.21482 7.73058 5.24383 7.64916 5.23592 7.57197C5.22801 7.49479 5.20164 7.42394 5.15629 7.35997L5.34981 7.22621C5.38462 7.27591 5.41467 7.32825 5.43313 7.38641H5.43418ZM4.60737 7.12206C4.52089 7.13317 4.44232 7.18498 4.37272 7.28014C4.34002 7.32455 4.31788 7.36949 4.30891 7.4139C4.29837 7.46095 4.29942 7.50589 4.30575 7.54818C4.31471 7.59206 4.32842 7.6333 4.35057 7.67295C4.37219 7.71261 4.40066 7.7438 4.4323 7.77076L4.85889 7.18815C4.7798 7.13317 4.69648 7.11255 4.60737 7.12259V7.12206Z" fill="#A2A8B7"/>
        <path d="M5.80464 7.27196L4.84863 6.36103L5.02212 6.17758L5.15922 6.30816C5.1318 6.21776 5.13127 6.1337 5.15658 6.05545C5.18189 5.97721 5.22091 5.91165 5.27364 5.85614C5.32848 5.79851 5.38543 5.7578 5.44712 5.73295C5.5046 5.70811 5.56629 5.69859 5.62852 5.70123C5.68863 5.70546 5.74927 5.72132 5.80833 5.75093C5.86739 5.78054 5.92275 5.82177 5.97601 5.87306L6.58241 6.45038L6.40471 6.63753L5.83047 6.09034C5.79673 6.05809 5.76298 6.03378 5.72765 6.01157C5.69021 5.99095 5.6533 5.97826 5.61428 5.97562C5.57526 5.97298 5.53677 5.98144 5.49669 5.99624C5.45662 6.01474 5.41812 6.04276 5.37857 6.08506C5.34272 6.12312 5.31846 6.16066 5.30581 6.2019C5.29315 6.24313 5.29051 6.28596 5.29737 6.32667C5.30422 6.36738 5.31899 6.40756 5.34114 6.44774C5.36328 6.48792 5.39334 6.5244 5.4292 6.55823L5.98181 7.0848L5.80411 7.27196H5.80464Z" fill="#A2A8B7"/>
        <path d="M7.90738 5.34138C7.87891 5.41963 7.82196 5.491 7.73759 5.5518C7.65955 5.60784 7.57729 5.64379 7.49397 5.65965C7.41066 5.67551 7.3284 5.67393 7.2493 5.65331C7.1681 5.63427 7.09111 5.59779 7.01729 5.54651C6.94294 5.49523 6.87914 5.42914 6.82166 5.34878C6.76735 5.27318 6.72938 5.19176 6.70407 5.10506C6.68034 5.02047 6.67085 4.93588 6.67823 4.85288C6.68614 4.76934 6.7104 4.69057 6.75047 4.61444C6.79213 4.54042 6.84961 4.47487 6.92554 4.42041C6.97247 4.38658 7.01782 4.36067 7.06369 4.34428C7.10746 4.33001 7.14806 4.32049 7.18603 4.31679C7.22557 4.3152 7.26196 4.31943 7.29465 4.32683C7.3284 4.33635 7.35793 4.34904 7.38271 4.3649L6.88441 3.67074L7.09164 3.52112L8.10881 4.938C8.14572 4.98928 8.18 5.03263 8.20794 5.06647C8.23589 5.1003 8.25435 5.12145 8.26278 5.12885L8.0603 5.27477C8.05028 5.26525 8.03341 5.24675 8.01179 5.22137C7.99175 5.19864 7.96907 5.17115 7.94482 5.13731L7.93216 5.11933C7.94429 5.18806 7.93638 5.26208 7.90791 5.3398L7.90738 5.34138ZM7.16652 5.33081C7.21345 5.36835 7.26407 5.39584 7.31469 5.41011C7.36531 5.42439 7.41804 5.42703 7.47024 5.41963C7.52245 5.41223 7.5736 5.38949 7.62474 5.35248C7.67167 5.31865 7.70806 5.2753 7.73126 5.22824C7.75446 5.18119 7.7687 5.12991 7.77134 5.07704C7.77397 5.02417 7.76343 4.9676 7.74339 4.91103C7.72546 4.85288 7.6954 4.79684 7.65533 4.7408C7.57518 4.62924 7.48448 4.55946 7.37902 4.53038C7.27567 4.49971 7.17601 4.52086 7.08057 4.59012C7.03364 4.62396 6.99567 4.66519 6.97089 4.71013C6.94505 4.7593 6.92923 4.80794 6.92659 4.86028C6.92185 4.91473 6.93028 4.96919 6.94874 5.02734C6.96667 5.0855 6.99514 5.13942 7.03522 5.19494C7.07529 5.25045 7.11695 5.29486 7.16652 5.33081Z" fill="#A2A8B7"/>
        <path d="M8.55104 3.73739C8.45824 3.79026 8.39654 3.86005 8.36807 3.94887C8.3417 4.03663 8.36438 4.14342 8.43609 4.27031L8.76144 4.84658L8.53734 4.97399L7.8877 3.82357L8.10705 3.6988L8.22042 3.8997C8.21621 3.84207 8.2199 3.79238 8.22992 3.74902C8.24363 3.70673 8.25892 3.66655 8.28054 3.63219C8.30216 3.59782 8.32747 3.57086 8.35489 3.54601C8.38178 3.52116 8.41131 3.50107 8.44031 3.48521C8.45718 3.47569 8.47142 3.46776 8.4846 3.46301C8.50042 3.45719 8.50992 3.4519 8.51835 3.45032L8.65334 3.68981C8.61749 3.70409 8.58268 3.72048 8.55157 3.73792L8.55104 3.73739Z" fill="#A2A8B7"/>
        <path d="M8.50256 2.76929C8.51944 2.7217 8.54949 2.68893 8.59642 2.66619C8.64335 2.64346 8.69239 2.63817 8.73985 2.65509C8.78731 2.67201 8.82264 2.7069 8.84478 2.75395C8.86746 2.80101 8.8701 2.84542 8.85375 2.893C8.8374 2.94058 8.80313 2.97812 8.7562 3.00085C8.70927 3.02358 8.66392 3.02411 8.61646 3.00719C8.569 2.99028 8.53367 2.96173 8.51153 2.91467C8.48885 2.86762 8.48622 2.81687 8.50309 2.76929H8.50256ZM8.77834 3.34079L9.00825 3.2303L9.57774 4.42248L9.34783 4.53298L8.77834 3.34079Z" fill="#A2A8B7"/>
        <path d="M10.2407 4.13911L9.27734 3.08914L9.54943 2.98658L10.2581 3.80921L10.2555 2.72118L10.5149 2.6239L10.4849 4.04712L10.2407 4.13858V4.13911Z" fill="#A2A8B7"/>
        <path d="M12.1149 3.364C12.0927 3.42322 12.06 3.47609 12.0205 3.52261C11.9788 3.57231 11.9303 3.61513 11.8739 3.65161C11.818 3.68809 11.751 3.71558 11.6767 3.73356C11.5913 3.75417 11.5048 3.7584 11.4204 3.74783C11.3361 3.73726 11.2559 3.70871 11.1826 3.6643C11.1072 3.62042 11.0445 3.55909 10.9891 3.48243C10.9337 3.40524 10.8915 3.31378 10.8652 3.20434C10.8404 3.10283 10.8341 3.00556 10.8483 2.91409C10.8631 2.82263 10.8915 2.74227 10.9321 2.6672C10.9738 2.59477 11.0271 2.53397 11.0935 2.48374C11.1594 2.43087 11.2332 2.39598 11.3129 2.37642C11.4115 2.3521 11.5032 2.34681 11.5892 2.36267C11.6741 2.37589 11.7495 2.4055 11.8143 2.45202C11.8792 2.49855 11.9367 2.56093 11.9862 2.63653C12.0332 2.71266 12.0685 2.80043 12.0922 2.89929C12.0959 2.91515 12.1001 2.93154 12.1033 2.94476C12.1038 2.9585 12.107 2.97225 12.1065 2.98071L11.142 3.21597C11.1584 3.27148 11.1821 3.32224 11.2121 3.36559C11.2422 3.40894 11.2812 3.44225 11.3245 3.46816C11.3677 3.49459 11.4141 3.51151 11.4663 3.51838C11.5164 3.52578 11.5697 3.5242 11.6224 3.51151C11.7263 3.48613 11.8006 3.44278 11.8444 3.37828C11.8881 3.31378 11.9129 3.24294 11.9198 3.16469L12.1539 3.18689C12.1486 3.24769 12.1376 3.30691 12.1149 3.36348V3.364ZM11.6514 2.62807C11.5781 2.58102 11.4848 2.56939 11.3703 2.59741C11.3171 2.61063 11.2712 2.63019 11.2353 2.65874C11.1974 2.68782 11.1689 2.72324 11.1468 2.75972C11.1251 2.79884 11.1098 2.83955 11.1009 2.88396C11.0919 2.92837 11.0935 2.97066 11.1009 3.01137L11.8017 2.84061C11.7764 2.74756 11.7257 2.67777 11.6514 2.62807Z" fill="#A2A8B7"/>
        <path d="M12.4718 3.51737L12.3252 2.20306L12.5762 2.17504L12.5973 2.36378C12.6347 2.27654 12.688 2.21257 12.7576 2.16869C12.8272 2.12481 12.8989 2.10049 12.9754 2.0915C13.0545 2.08252 13.1241 2.08886 13.1868 2.10948C13.2469 2.12745 13.3002 2.16023 13.3461 2.20253C13.3893 2.24482 13.4257 2.2961 13.4515 2.3569C13.4774 2.4177 13.4932 2.48484 13.5016 2.55886L13.5944 3.39207L13.3381 3.42062L13.2501 2.63076C13.2448 2.58424 13.2348 2.54406 13.2221 2.50388C13.2068 2.46423 13.1863 2.43039 13.1583 2.4029C13.1304 2.37541 13.0951 2.35743 13.055 2.34263C13.0123 2.331 12.9648 2.32783 12.9079 2.33417C12.8562 2.33999 12.8135 2.3532 12.7776 2.37646C12.7418 2.39973 12.7117 2.43092 12.6911 2.46634C12.6706 2.50176 12.6553 2.54247 12.6469 2.58741C12.6384 2.63235 12.6379 2.67993 12.6432 2.7291L12.7275 3.48882L12.4713 3.51737H12.4718Z" fill="#A2A8B7"/>
    </g>
    <path d="M7.68046 12.9404C7.39051 11.0271 8.86647 9.99854 10.8847 9.31242L10.23 6.72059L11.8286 6.32746L12.4659 8.85105C12.8862 8.7476 13.3178 8.65013 13.7467 8.5535L13.1047 6.01325L14.7023 5.62012L15.3574 8.21111C15.7052 8.13296 16.0468 8.05572 16.3781 7.97434L16.3763 7.96619L18.5808 7.42287L19.006 9.10799C19.006 9.10799 17.82 9.3763 17.845 9.39282C17.1977 9.55228 17.0806 9.97521 17.1 10.3104L17.8458 13.2631C17.8013 13.2743 17.7435 13.2905 17.6797 13.3158C17.733 13.3027 17.7897 13.2884 17.8486 13.2745L18.894 17.4108C18.9731 17.6049 19.1739 17.8962 19.6265 17.7856C19.6105 17.8085 20.7884 17.4995 20.7884 17.4995L21.582 19.3055L19.5017 19.8173C19.1147 19.9131 18.7355 20.0133 18.362 20.1075L19.0235 22.7291L17.4268 23.1222L16.7717 20.5285C16.3355 20.6454 15.9122 20.7532 15.4978 20.8548L16.1506 23.4363L14.552 23.8294L13.8906 21.2128C11.1646 21.7219 9.11498 21.5167 8.25225 19.0832C7.55706 17.124 8.28685 15.994 9.72094 15.257C8.67642 15.0193 7.88966 14.3413 7.67989 12.9406L7.68039 12.9403L7.68046 12.9404ZM11.3328 17.9952C11.8269 19.9544 15.1691 18.8953 16.2528 18.6297L15.3749 15.1566C14.2914 15.4236 10.8165 15.952 11.3328 17.9952H11.3328ZM10.8385 12.912C11.2891 14.6941 14.0709 13.7887 14.9733 13.5667L14.1774 10.4168C13.2751 10.6388 10.369 11.0532 10.8383 12.912H10.8385Z" fill="url(#paint7_linear_13814_83882)"/>
    <defs>
        <linearGradient id="paint0_linear_13814_83882" x1="14.5" y1="0" x2="14.5" y2="29" gradientUnits="userSpaceOnUse">
            <stop stop-color="#3C3C3C"/>
            <stop offset="1"/>
        </linearGradient>
        <linearGradient id="paint1_linear_13814_83882" x1="22.6579" y1="4.70587" x2="24.6289" y2="4.96761" gradientUnits="userSpaceOnUse">
            <stop stop-color="#FFFB1F"/>
            <stop offset="1" stop-color="#3AFA65"/>
        </linearGradient>
        <linearGradient id="paint2_linear_13814_83882" x1="23.3067" y1="5.94327" x2="24.7242" y2="6.15388" gradientUnits="userSpaceOnUse">
            <stop stop-color="#FFFB1F"/>
            <stop offset="1" stop-color="#3AFA65"/>
        </linearGradient>
        <linearGradient id="paint3_linear_13814_83882" x1="23.9906" y1="6.23776" x2="25.6468" y2="6.45774" gradientUnits="userSpaceOnUse">
            <stop stop-color="#FFFB1F"/>
            <stop offset="1" stop-color="#3AFA65"/>
        </linearGradient>
        <linearGradient id="paint4_linear_13814_83882" x1="24.4506" y1="7.06158" x2="25.9216" y2="7.2341" gradientUnits="userSpaceOnUse">
            <stop stop-color="#FFFB1F"/>
            <stop offset="1" stop-color="#3AFA65"/>
        </linearGradient>
        <linearGradient id="paint5_linear_13814_83882" x1="24.9825" y1="8.58593" x2="26.3165" y2="8.72988" gradientUnits="userSpaceOnUse">
            <stop stop-color="#FFFB1F"/>
            <stop offset="1" stop-color="#3AFA65"/>
        </linearGradient>
        <linearGradient id="paint6_linear_13814_83882" x1="25.4509" y1="9.86937" x2="26.9039" y2="10.0256" gradientUnits="userSpaceOnUse">
            <stop stop-color="#FFFB1F"/>
            <stop offset="1" stop-color="#3AFA65"/>
        </linearGradient>
        <linearGradient id="paint7_linear_13814_83882" x1="15.5884" y1="-1.45092" x2="2.14217" y2="-0.380321" gradientUnits="userSpaceOnUse">
            <stop stop-color="#FFFB1F"/>
            <stop offset="1" stop-color="#3AFA65"/>
        </linearGradient>
    </defs>
</svg>
