<?xml version="1.0"?>
<svg xmlns="http://www.w3.org/2000/svg" xmlns:xlink="http://www.w3.org/1999/xlink" version="1.1" width="500px" height="500px" viewBox="0 0 500 500"><defs><rect id="block" width="13" height="13" fill="#000000" fill-opacity="1"/></defs><rect x="0" y="0" width="500" height="500" fill="#ffffff" fill-opacity="1"/><use x="9" y="9" xlink:href="#block"/><use x="22" y="9" xlink:href="#block"/><use x="35" y="9" xlink:href="#block"/><use x="48" y="9" xlink:href="#block"/><use x="61" y="9" xlink:href="#block"/><use x="74" y="9" xlink:href="#block"/><use x="87" y="9" xlink:href="#block"/><use x="152" y="9" xlink:href="#block"/><use x="204" y="9" xlink:href="#block"/><use x="256" y="9" xlink:href="#block"/><use x="269" y="9" xlink:href="#block"/><use x="295" y="9" xlink:href="#block"/><use x="334" y="9" xlink:href="#block"/><use x="347" y="9" xlink:href="#block"/><use x="360" y="9" xlink:href="#block"/><use x="399" y="9" xlink:href="#block"/><use x="412" y="9" xlink:href="#block"/><use x="425" y="9" xlink:href="#block"/><use x="438" y="9" xlink:href="#block"/><use x="451" y="9" xlink:href="#block"/><use x="464" y="9" xlink:href="#block"/><use x="477" y="9" xlink:href="#block"/><use x="9" y="22" xlink:href="#block"/><use x="87" y="22" xlink:href="#block"/><use x="113" y="22" xlink:href="#block"/><use x="126" y="22" xlink:href="#block"/><use x="165" y="22" xlink:href="#block"/><use x="204" y="22" xlink:href="#block"/><use x="217" y="22" xlink:href="#block"/><use x="243" y="22" xlink:href="#block"/><use x="269" y="22" xlink:href="#block"/><use x="282" y="22" xlink:href="#block"/><use x="295" y="22" xlink:href="#block"/><use x="334" y="22" xlink:href="#block"/><use x="360" y="22" xlink:href="#block"/><use x="399" y="22" xlink:href="#block"/><use x="477" y="22" xlink:href="#block"/><use x="9" y="35" xlink:href="#block"/><use x="35" y="35" xlink:href="#block"/><use x="48" y="35" xlink:href="#block"/><use x="61" y="35" xlink:href="#block"/><use x="87" y="35" xlink:href="#block"/><use x="113" y="35" xlink:href="#block"/><use x="126" y="35" xlink:href="#block"/><use x="165" y="35" xlink:href="#block"/><use x="178" y="35" xlink:href="#block"/><use x="191" y="35" xlink:href="#block"/><use x="204" y="35" xlink:href="#block"/><use x="243" y="35" xlink:href="#block"/><use x="269" y="35" xlink:href="#block"/><use x="295" y="35" xlink:href="#block"/><use x="308" y="35" xlink:href="#block"/><use x="321" y="35" xlink:href="#block"/><use x="334" y="35" xlink:href="#block"/><use x="399" y="35" xlink:href="#block"/><use x="425" y="35" xlink:href="#block"/><use x="438" y="35" xlink:href="#block"/><use x="451" y="35" xlink:href="#block"/><use x="477" y="35" xlink:href="#block"/><use x="9" y="48" xlink:href="#block"/><use x="35" y="48" xlink:href="#block"/><use x="48" y="48" xlink:href="#block"/><use x="61" y="48" xlink:href="#block"/><use x="87" y="48" xlink:href="#block"/><use x="113" y="48" xlink:href="#block"/><use x="126" y="48" xlink:href="#block"/><use x="152" y="48" xlink:href="#block"/><use x="178" y="48" xlink:href="#block"/><use x="204" y="48" xlink:href="#block"/><use x="217" y="48" xlink:href="#block"/><use x="230" y="48" xlink:href="#block"/><use x="243" y="48" xlink:href="#block"/><use x="269" y="48" xlink:href="#block"/><use x="321" y="48" xlink:href="#block"/><use x="399" y="48" xlink:href="#block"/><use x="425" y="48" xlink:href="#block"/><use x="438" y="48" xlink:href="#block"/><use x="451" y="48" xlink:href="#block"/><use x="477" y="48" xlink:href="#block"/><use x="9" y="61" xlink:href="#block"/><use x="35" y="61" xlink:href="#block"/><use x="48" y="61" xlink:href="#block"/><use x="61" y="61" xlink:href="#block"/><use x="87" y="61" xlink:href="#block"/><use x="113" y="61" xlink:href="#block"/><use x="139" y="61" xlink:href="#block"/><use x="152" y="61" xlink:href="#block"/><use x="165" y="61" xlink:href="#block"/><use x="230" y="61" xlink:href="#block"/><use x="243" y="61" xlink:href="#block"/><use x="269" y="61" xlink:href="#block"/><use x="295" y="61" xlink:href="#block"/><use x="321" y="61" xlink:href="#block"/><use x="334" y="61" xlink:href="#block"/><use x="347" y="61" xlink:href="#block"/><use x="373" y="61" xlink:href="#block"/><use x="399" y="61" xlink:href="#block"/><use x="425" y="61" xlink:href="#block"/><use x="438" y="61" xlink:href="#block"/><use x="451" y="61" xlink:href="#block"/><use x="477" y="61" xlink:href="#block"/><use x="9" y="74" xlink:href="#block"/><use x="87" y="74" xlink:href="#block"/><use x="113" y="74" xlink:href="#block"/><use x="139" y="74" xlink:href="#block"/><use x="165" y="74" xlink:href="#block"/><use x="204" y="74" xlink:href="#block"/><use x="230" y="74" xlink:href="#block"/><use x="269" y="74" xlink:href="#block"/><use x="282" y="74" xlink:href="#block"/><use x="295" y="74" xlink:href="#block"/><use x="321" y="74" xlink:href="#block"/><use x="360" y="74" xlink:href="#block"/><use x="373" y="74" xlink:href="#block"/><use x="399" y="74" xlink:href="#block"/><use x="477" y="74" xlink:href="#block"/><use x="9" y="87" xlink:href="#block"/><use x="22" y="87" xlink:href="#block"/><use x="35" y="87" xlink:href="#block"/><use x="48" y="87" xlink:href="#block"/><use x="61" y="87" xlink:href="#block"/><use x="74" y="87" xlink:href="#block"/><use x="87" y="87" xlink:href="#block"/><use x="113" y="87" xlink:href="#block"/><use x="139" y="87" xlink:href="#block"/><use x="165" y="87" xlink:href="#block"/><use x="191" y="87" xlink:href="#block"/><use x="217" y="87" xlink:href="#block"/><use x="243" y="87" xlink:href="#block"/><use x="269" y="87" xlink:href="#block"/><use x="295" y="87" xlink:href="#block"/><use x="321" y="87" xlink:href="#block"/><use x="347" y="87" xlink:href="#block"/><use x="373" y="87" xlink:href="#block"/><use x="399" y="87" xlink:href="#block"/><use x="412" y="87" xlink:href="#block"/><use x="425" y="87" xlink:href="#block"/><use x="438" y="87" xlink:href="#block"/><use x="451" y="87" xlink:href="#block"/><use x="464" y="87" xlink:href="#block"/><use x="477" y="87" xlink:href="#block"/><use x="139" y="100" xlink:href="#block"/><use x="165" y="100" xlink:href="#block"/><use x="191" y="100" xlink:href="#block"/><use x="204" y="100" xlink:href="#block"/><use x="217" y="100" xlink:href="#block"/><use x="230" y="100" xlink:href="#block"/><use x="243" y="100" xlink:href="#block"/><use x="256" y="100" xlink:href="#block"/><use x="269" y="100" xlink:href="#block"/><use x="295" y="100" xlink:href="#block"/><use x="321" y="100" xlink:href="#block"/><use x="347" y="100" xlink:href="#block"/><use x="360" y="100" xlink:href="#block"/><use x="35" y="113" xlink:href="#block"/><use x="74" y="113" xlink:href="#block"/><use x="87" y="113" xlink:href="#block"/><use x="100" y="113" xlink:href="#block"/><use x="113" y="113" xlink:href="#block"/><use x="139" y="113" xlink:href="#block"/><use x="165" y="113" xlink:href="#block"/><use x="178" y="113" xlink:href="#block"/><use x="191" y="113" xlink:href="#block"/><use x="204" y="113" xlink:href="#block"/><use x="230" y="113" xlink:href="#block"/><use x="243" y="113" xlink:href="#block"/><use x="308" y="113" xlink:href="#block"/><use x="334" y="113" xlink:href="#block"/><use x="347" y="113" xlink:href="#block"/><use x="360" y="113" xlink:href="#block"/><use x="373" y="113" xlink:href="#block"/><use x="386" y="113" xlink:href="#block"/><use x="412" y="113" xlink:href="#block"/><use x="425" y="113" xlink:href="#block"/><use x="438" y="113" xlink:href="#block"/><use x="451" y="113" xlink:href="#block"/><use x="464" y="113" xlink:href="#block"/><use x="9" y="126" xlink:href="#block"/><use x="22" y="126" xlink:href="#block"/><use x="35" y="126" xlink:href="#block"/><use x="74" y="126" xlink:href="#block"/><use x="100" y="126" xlink:href="#block"/><use x="126" y="126" xlink:href="#block"/><use x="152" y="126" xlink:href="#block"/><use x="204" y="126" xlink:href="#block"/><use x="230" y="126" xlink:href="#block"/><use x="243" y="126" xlink:href="#block"/><use x="256" y="126" xlink:href="#block"/><use x="269" y="126" xlink:href="#block"/><use x="282" y="126" xlink:href="#block"/><use x="321" y="126" xlink:href="#block"/><use x="347" y="126" xlink:href="#block"/><use x="373" y="126" xlink:href="#block"/><use x="386" y="126" xlink:href="#block"/><use x="412" y="126" xlink:href="#block"/><use x="477" y="126" xlink:href="#block"/><use x="9" y="139" xlink:href="#block"/><use x="35" y="139" xlink:href="#block"/><use x="61" y="139" xlink:href="#block"/><use x="74" y="139" xlink:href="#block"/><use x="87" y="139" xlink:href="#block"/><use x="113" y="139" xlink:href="#block"/><use x="126" y="139" xlink:href="#block"/><use x="139" y="139" xlink:href="#block"/><use x="152" y="139" xlink:href="#block"/><use x="165" y="139" xlink:href="#block"/><use x="178" y="139" xlink:href="#block"/><use x="191" y="139" xlink:href="#block"/><use x="230" y="139" xlink:href="#block"/><use x="243" y="139" xlink:href="#block"/><use x="308" y="139" xlink:href="#block"/><use x="347" y="139" xlink:href="#block"/><use x="373" y="139" xlink:href="#block"/><use x="399" y="139" xlink:href="#block"/><use x="412" y="139" xlink:href="#block"/><use x="35" y="152" xlink:href="#block"/><use x="48" y="152" xlink:href="#block"/><use x="74" y="152" xlink:href="#block"/><use x="152" y="152" xlink:href="#block"/><use x="191" y="152" xlink:href="#block"/><use x="230" y="152" xlink:href="#block"/><use x="295" y="152" xlink:href="#block"/><use x="321" y="152" xlink:href="#block"/><use x="334" y="152" xlink:href="#block"/><use x="360" y="152" xlink:href="#block"/><use x="373" y="152" xlink:href="#block"/><use x="386" y="152" xlink:href="#block"/><use x="399" y="152" xlink:href="#block"/><use x="412" y="152" xlink:href="#block"/><use x="438" y="152" xlink:href="#block"/><use x="477" y="152" xlink:href="#block"/><use x="9" y="165" xlink:href="#block"/><use x="35" y="165" xlink:href="#block"/><use x="61" y="165" xlink:href="#block"/><use x="74" y="165" xlink:href="#block"/><use x="87" y="165" xlink:href="#block"/><use x="100" y="165" xlink:href="#block"/><use x="139" y="165" xlink:href="#block"/><use x="152" y="165" xlink:href="#block"/><use x="165" y="165" xlink:href="#block"/><use x="191" y="165" xlink:href="#block"/><use x="230" y="165" xlink:href="#block"/><use x="256" y="165" xlink:href="#block"/><use x="282" y="165" xlink:href="#block"/><use x="321" y="165" xlink:href="#block"/><use x="399" y="165" xlink:href="#block"/><use x="438" y="165" xlink:href="#block"/><use x="451" y="165" xlink:href="#block"/><use x="464" y="165" xlink:href="#block"/><use x="477" y="165" xlink:href="#block"/><use x="9" y="178" xlink:href="#block"/><use x="22" y="178" xlink:href="#block"/><use x="74" y="178" xlink:href="#block"/><use x="113" y="178" xlink:href="#block"/><use x="126" y="178" xlink:href="#block"/><use x="139" y="178" xlink:href="#block"/><use x="204" y="178" xlink:href="#block"/><use x="217" y="178" xlink:href="#block"/><use x="243" y="178" xlink:href="#block"/><use x="295" y="178" xlink:href="#block"/><use x="347" y="178" xlink:href="#block"/><use x="412" y="178" xlink:href="#block"/><use x="425" y="178" xlink:href="#block"/><use x="477" y="178" xlink:href="#block"/><use x="35" y="191" xlink:href="#block"/><use x="87" y="191" xlink:href="#block"/><use x="126" y="191" xlink:href="#block"/><use x="152" y="191" xlink:href="#block"/><use x="165" y="191" xlink:href="#block"/><use x="191" y="191" xlink:href="#block"/><use x="230" y="191" xlink:href="#block"/><use x="256" y="191" xlink:href="#block"/><use x="269" y="191" xlink:href="#block"/><use x="282" y="191" xlink:href="#block"/><use x="308" y="191" xlink:href="#block"/><use x="360" y="191" xlink:href="#block"/><use x="399" y="191" xlink:href="#block"/><use x="412" y="191" xlink:href="#block"/><use x="438" y="191" xlink:href="#block"/><use x="464" y="191" xlink:href="#block"/><use x="477" y="191" xlink:href="#block"/><use x="9" y="204" xlink:href="#block"/><use x="35" y="204" xlink:href="#block"/><use x="61" y="204" xlink:href="#block"/><use x="100" y="204" xlink:href="#block"/><use x="113" y="204" xlink:href="#block"/><use x="126" y="204" xlink:href="#block"/><use x="139" y="204" xlink:href="#block"/><use x="178" y="204" xlink:href="#block"/><use x="191" y="204" xlink:href="#block"/><use x="204" y="204" xlink:href="#block"/><use x="217" y="204" xlink:href="#block"/><use x="256" y="204" xlink:href="#block"/><use x="269" y="204" xlink:href="#block"/><use x="308" y="204" xlink:href="#block"/><use x="321" y="204" xlink:href="#block"/><use x="334" y="204" xlink:href="#block"/><use x="373" y="204" xlink:href="#block"/><use x="399" y="204" xlink:href="#block"/><use x="438" y="204" xlink:href="#block"/><use x="464" y="204" xlink:href="#block"/><use x="477" y="204" xlink:href="#block"/><use x="35" y="217" xlink:href="#block"/><use x="48" y="217" xlink:href="#block"/><use x="61" y="217" xlink:href="#block"/><use x="74" y="217" xlink:href="#block"/><use x="87" y="217" xlink:href="#block"/><use x="126" y="217" xlink:href="#block"/><use x="165" y="217" xlink:href="#block"/><use x="204" y="217" xlink:href="#block"/><use x="217" y="217" xlink:href="#block"/><use x="282" y="217" xlink:href="#block"/><use x="308" y="217" xlink:href="#block"/><use x="334" y="217" xlink:href="#block"/><use x="347" y="217" xlink:href="#block"/><use x="360" y="217" xlink:href="#block"/><use x="412" y="217" xlink:href="#block"/><use x="451" y="217" xlink:href="#block"/><use x="477" y="217" xlink:href="#block"/><use x="9" y="230" xlink:href="#block"/><use x="35" y="230" xlink:href="#block"/><use x="48" y="230" xlink:href="#block"/><use x="61" y="230" xlink:href="#block"/><use x="74" y="230" xlink:href="#block"/><use x="113" y="230" xlink:href="#block"/><use x="165" y="230" xlink:href="#block"/><use x="178" y="230" xlink:href="#block"/><use x="191" y="230" xlink:href="#block"/><use x="230" y="230" xlink:href="#block"/><use x="256" y="230" xlink:href="#block"/><use x="269" y="230" xlink:href="#block"/><use x="295" y="230" xlink:href="#block"/><use x="308" y="230" xlink:href="#block"/><use x="347" y="230" xlink:href="#block"/><use x="373" y="230" xlink:href="#block"/><use x="386" y="230" xlink:href="#block"/><use x="399" y="230" xlink:href="#block"/><use x="412" y="230" xlink:href="#block"/><use x="425" y="230" xlink:href="#block"/><use x="438" y="230" xlink:href="#block"/><use x="22" y="243" xlink:href="#block"/><use x="35" y="243" xlink:href="#block"/><use x="48" y="243" xlink:href="#block"/><use x="61" y="243" xlink:href="#block"/><use x="87" y="243" xlink:href="#block"/><use x="100" y="243" xlink:href="#block"/><use x="139" y="243" xlink:href="#block"/><use x="152" y="243" xlink:href="#block"/><use x="191" y="243" xlink:href="#block"/><use x="204" y="243" xlink:href="#block"/><use x="243" y="243" xlink:href="#block"/><use x="321" y="243" xlink:href="#block"/><use x="347" y="243" xlink:href="#block"/><use x="360" y="243" xlink:href="#block"/><use x="373" y="243" xlink:href="#block"/><use x="399" y="243" xlink:href="#block"/><use x="412" y="243" xlink:href="#block"/><use x="477" y="243" xlink:href="#block"/><use x="9" y="256" xlink:href="#block"/><use x="35" y="256" xlink:href="#block"/><use x="126" y="256" xlink:href="#block"/><use x="139" y="256" xlink:href="#block"/><use x="191" y="256" xlink:href="#block"/><use x="204" y="256" xlink:href="#block"/><use x="217" y="256" xlink:href="#block"/><use x="230" y="256" xlink:href="#block"/><use x="243" y="256" xlink:href="#block"/><use x="256" y="256" xlink:href="#block"/><use x="295" y="256" xlink:href="#block"/><use x="334" y="256" xlink:href="#block"/><use x="360" y="256" xlink:href="#block"/><use x="373" y="256" xlink:href="#block"/><use x="386" y="256" xlink:href="#block"/><use x="477" y="256" xlink:href="#block"/><use x="35" y="269" xlink:href="#block"/><use x="74" y="269" xlink:href="#block"/><use x="87" y="269" xlink:href="#block"/><use x="113" y="269" xlink:href="#block"/><use x="139" y="269" xlink:href="#block"/><use x="152" y="269" xlink:href="#block"/><use x="165" y="269" xlink:href="#block"/><use x="204" y="269" xlink:href="#block"/><use x="217" y="269" xlink:href="#block"/><use x="230" y="269" xlink:href="#block"/><use x="256" y="269" xlink:href="#block"/><use x="269" y="269" xlink:href="#block"/><use x="295" y="269" xlink:href="#block"/><use x="308" y="269" xlink:href="#block"/><use x="360" y="269" xlink:href="#block"/><use x="399" y="269" xlink:href="#block"/><use x="412" y="269" xlink:href="#block"/><use x="425" y="269" xlink:href="#block"/><use x="438" y="269" xlink:href="#block"/><use x="451" y="269" xlink:href="#block"/><use x="464" y="269" xlink:href="#block"/><use x="35" y="282" xlink:href="#block"/><use x="113" y="282" xlink:href="#block"/><use x="165" y="282" xlink:href="#block"/><use x="178" y="282" xlink:href="#block"/><use x="217" y="282" xlink:href="#block"/><use x="230" y="282" xlink:href="#block"/><use x="282" y="282" xlink:href="#block"/><use x="295" y="282" xlink:href="#block"/><use x="308" y="282" xlink:href="#block"/><use x="334" y="282" xlink:href="#block"/><use x="347" y="282" xlink:href="#block"/><use x="360" y="282" xlink:href="#block"/><use x="386" y="282" xlink:href="#block"/><use x="399" y="282" xlink:href="#block"/><use x="412" y="282" xlink:href="#block"/><use x="438" y="282" xlink:href="#block"/><use x="22" y="295" xlink:href="#block"/><use x="48" y="295" xlink:href="#block"/><use x="61" y="295" xlink:href="#block"/><use x="87" y="295" xlink:href="#block"/><use x="113" y="295" xlink:href="#block"/><use x="139" y="295" xlink:href="#block"/><use x="152" y="295" xlink:href="#block"/><use x="165" y="295" xlink:href="#block"/><use x="191" y="295" xlink:href="#block"/><use x="217" y="295" xlink:href="#block"/><use x="230" y="295" xlink:href="#block"/><use x="256" y="295" xlink:href="#block"/><use x="282" y="295" xlink:href="#block"/><use x="295" y="295" xlink:href="#block"/><use x="360" y="295" xlink:href="#block"/><use x="399" y="295" xlink:href="#block"/><use x="438" y="295" xlink:href="#block"/><use x="464" y="295" xlink:href="#block"/><use x="9" y="308" xlink:href="#block"/><use x="48" y="308" xlink:href="#block"/><use x="113" y="308" xlink:href="#block"/><use x="152" y="308" xlink:href="#block"/><use x="191" y="308" xlink:href="#block"/><use x="204" y="308" xlink:href="#block"/><use x="230" y="308" xlink:href="#block"/><use x="256" y="308" xlink:href="#block"/><use x="282" y="308" xlink:href="#block"/><use x="295" y="308" xlink:href="#block"/><use x="308" y="308" xlink:href="#block"/><use x="334" y="308" xlink:href="#block"/><use x="360" y="308" xlink:href="#block"/><use x="373" y="308" xlink:href="#block"/><use x="399" y="308" xlink:href="#block"/><use x="412" y="308" xlink:href="#block"/><use x="438" y="308" xlink:href="#block"/><use x="451" y="308" xlink:href="#block"/><use x="464" y="308" xlink:href="#block"/><use x="477" y="308" xlink:href="#block"/><use x="9" y="321" xlink:href="#block"/><use x="48" y="321" xlink:href="#block"/><use x="87" y="321" xlink:href="#block"/><use x="126" y="321" xlink:href="#block"/><use x="139" y="321" xlink:href="#block"/><use x="204" y="321" xlink:href="#block"/><use x="217" y="321" xlink:href="#block"/><use x="230" y="321" xlink:href="#block"/><use x="243" y="321" xlink:href="#block"/><use x="321" y="321" xlink:href="#block"/><use x="334" y="321" xlink:href="#block"/><use x="360" y="321" xlink:href="#block"/><use x="373" y="321" xlink:href="#block"/><use x="399" y="321" xlink:href="#block"/><use x="412" y="321" xlink:href="#block"/><use x="451" y="321" xlink:href="#block"/><use x="477" y="321" xlink:href="#block"/><use x="74" y="334" xlink:href="#block"/><use x="126" y="334" xlink:href="#block"/><use x="152" y="334" xlink:href="#block"/><use x="191" y="334" xlink:href="#block"/><use x="204" y="334" xlink:href="#block"/><use x="230" y="334" xlink:href="#block"/><use x="243" y="334" xlink:href="#block"/><use x="256" y="334" xlink:href="#block"/><use x="321" y="334" xlink:href="#block"/><use x="399" y="334" xlink:href="#block"/><use x="425" y="334" xlink:href="#block"/><use x="438" y="334" xlink:href="#block"/><use x="464" y="334" xlink:href="#block"/><use x="477" y="334" xlink:href="#block"/><use x="9" y="347" xlink:href="#block"/><use x="22" y="347" xlink:href="#block"/><use x="35" y="347" xlink:href="#block"/><use x="48" y="347" xlink:href="#block"/><use x="87" y="347" xlink:href="#block"/><use x="100" y="347" xlink:href="#block"/><use x="113" y="347" xlink:href="#block"/><use x="126" y="347" xlink:href="#block"/><use x="139" y="347" xlink:href="#block"/><use x="165" y="347" xlink:href="#block"/><use x="191" y="347" xlink:href="#block"/><use x="217" y="347" xlink:href="#block"/><use x="230" y="347" xlink:href="#block"/><use x="256" y="347" xlink:href="#block"/><use x="282" y="347" xlink:href="#block"/><use x="295" y="347" xlink:href="#block"/><use x="321" y="347" xlink:href="#block"/><use x="347" y="347" xlink:href="#block"/><use x="360" y="347" xlink:href="#block"/><use x="373" y="347" xlink:href="#block"/><use x="399" y="347" xlink:href="#block"/><use x="438" y="347" xlink:href="#block"/><use x="464" y="347" xlink:href="#block"/><use x="126" y="360" xlink:href="#block"/><use x="139" y="360" xlink:href="#block"/><use x="165" y="360" xlink:href="#block"/><use x="178" y="360" xlink:href="#block"/><use x="204" y="360" xlink:href="#block"/><use x="217" y="360" xlink:href="#block"/><use x="243" y="360" xlink:href="#block"/><use x="256" y="360" xlink:href="#block"/><use x="269" y="360" xlink:href="#block"/><use x="308" y="360" xlink:href="#block"/><use x="321" y="360" xlink:href="#block"/><use x="334" y="360" xlink:href="#block"/><use x="386" y="360" xlink:href="#block"/><use x="399" y="360" xlink:href="#block"/><use x="412" y="360" xlink:href="#block"/><use x="477" y="360" xlink:href="#block"/><use x="9" y="373" xlink:href="#block"/><use x="22" y="373" xlink:href="#block"/><use x="35" y="373" xlink:href="#block"/><use x="48" y="373" xlink:href="#block"/><use x="74" y="373" xlink:href="#block"/><use x="87" y="373" xlink:href="#block"/><use x="100" y="373" xlink:href="#block"/><use x="113" y="373" xlink:href="#block"/><use x="126" y="373" xlink:href="#block"/><use x="139" y="373" xlink:href="#block"/><use x="152" y="373" xlink:href="#block"/><use x="165" y="373" xlink:href="#block"/><use x="191" y="373" xlink:href="#block"/><use x="204" y="373" xlink:href="#block"/><use x="217" y="373" xlink:href="#block"/><use x="256" y="373" xlink:href="#block"/><use x="295" y="373" xlink:href="#block"/><use x="321" y="373" xlink:href="#block"/><use x="360" y="373" xlink:href="#block"/><use x="373" y="373" xlink:href="#block"/><use x="386" y="373" xlink:href="#block"/><use x="399" y="373" xlink:href="#block"/><use x="412" y="373" xlink:href="#block"/><use x="425" y="373" xlink:href="#block"/><use x="451" y="373" xlink:href="#block"/><use x="477" y="373" xlink:href="#block"/><use x="113" y="386" xlink:href="#block"/><use x="191" y="386" xlink:href="#block"/><use x="243" y="386" xlink:href="#block"/><use x="308" y="386" xlink:href="#block"/><use x="321" y="386" xlink:href="#block"/><use x="347" y="386" xlink:href="#block"/><use x="373" y="386" xlink:href="#block"/><use x="425" y="386" xlink:href="#block"/><use x="438" y="386" xlink:href="#block"/><use x="464" y="386" xlink:href="#block"/><use x="477" y="386" xlink:href="#block"/><use x="9" y="399" xlink:href="#block"/><use x="22" y="399" xlink:href="#block"/><use x="35" y="399" xlink:href="#block"/><use x="48" y="399" xlink:href="#block"/><use x="61" y="399" xlink:href="#block"/><use x="74" y="399" xlink:href="#block"/><use x="87" y="399" xlink:href="#block"/><use x="113" y="399" xlink:href="#block"/><use x="126" y="399" xlink:href="#block"/><use x="152" y="399" xlink:href="#block"/><use x="165" y="399" xlink:href="#block"/><use x="178" y="399" xlink:href="#block"/><use x="191" y="399" xlink:href="#block"/><use x="204" y="399" xlink:href="#block"/><use x="230" y="399" xlink:href="#block"/><use x="321" y="399" xlink:href="#block"/><use x="360" y="399" xlink:href="#block"/><use x="373" y="399" xlink:href="#block"/><use x="399" y="399" xlink:href="#block"/><use x="425" y="399" xlink:href="#block"/><use x="438" y="399" xlink:href="#block"/><use x="464" y="399" xlink:href="#block"/><use x="477" y="399" xlink:href="#block"/><use x="9" y="412" xlink:href="#block"/><use x="87" y="412" xlink:href="#block"/><use x="113" y="412" xlink:href="#block"/><use x="152" y="412" xlink:href="#block"/><use x="191" y="412" xlink:href="#block"/><use x="204" y="412" xlink:href="#block"/><use x="256" y="412" xlink:href="#block"/><use x="269" y="412" xlink:href="#block"/><use x="282" y="412" xlink:href="#block"/><use x="295" y="412" xlink:href="#block"/><use x="308" y="412" xlink:href="#block"/><use x="321" y="412" xlink:href="#block"/><use x="334" y="412" xlink:href="#block"/><use x="373" y="412" xlink:href="#block"/><use x="425" y="412" xlink:href="#block"/><use x="451" y="412" xlink:href="#block"/><use x="477" y="412" xlink:href="#block"/><use x="9" y="425" xlink:href="#block"/><use x="35" y="425" xlink:href="#block"/><use x="48" y="425" xlink:href="#block"/><use x="61" y="425" xlink:href="#block"/><use x="87" y="425" xlink:href="#block"/><use x="139" y="425" xlink:href="#block"/><use x="152" y="425" xlink:href="#block"/><use x="165" y="425" xlink:href="#block"/><use x="178" y="425" xlink:href="#block"/><use x="191" y="425" xlink:href="#block"/><use x="256" y="425" xlink:href="#block"/><use x="269" y="425" xlink:href="#block"/><use x="295" y="425" xlink:href="#block"/><use x="308" y="425" xlink:href="#block"/><use x="360" y="425" xlink:href="#block"/><use x="373" y="425" xlink:href="#block"/><use x="386" y="425" xlink:href="#block"/><use x="399" y="425" xlink:href="#block"/><use x="412" y="425" xlink:href="#block"/><use x="425" y="425" xlink:href="#block"/><use x="438" y="425" xlink:href="#block"/><use x="451" y="425" xlink:href="#block"/><use x="477" y="425" xlink:href="#block"/><use x="9" y="438" xlink:href="#block"/><use x="35" y="438" xlink:href="#block"/><use x="48" y="438" xlink:href="#block"/><use x="61" y="438" xlink:href="#block"/><use x="87" y="438" xlink:href="#block"/><use x="139" y="438" xlink:href="#block"/><use x="204" y="438" xlink:href="#block"/><use x="217" y="438" xlink:href="#block"/><use x="295" y="438" xlink:href="#block"/><use x="360" y="438" xlink:href="#block"/><use x="373" y="438" xlink:href="#block"/><use x="412" y="438" xlink:href="#block"/><use x="438" y="438" xlink:href="#block"/><use x="464" y="438" xlink:href="#block"/><use x="9" y="451" xlink:href="#block"/><use x="35" y="451" xlink:href="#block"/><use x="48" y="451" xlink:href="#block"/><use x="61" y="451" xlink:href="#block"/><use x="87" y="451" xlink:href="#block"/><use x="113" y="451" xlink:href="#block"/><use x="126" y="451" xlink:href="#block"/><use x="139" y="451" xlink:href="#block"/><use x="178" y="451" xlink:href="#block"/><use x="204" y="451" xlink:href="#block"/><use x="217" y="451" xlink:href="#block"/><use x="243" y="451" xlink:href="#block"/><use x="282" y="451" xlink:href="#block"/><use x="295" y="451" xlink:href="#block"/><use x="308" y="451" xlink:href="#block"/><use x="373" y="451" xlink:href="#block"/><use x="386" y="451" xlink:href="#block"/><use x="399" y="451" xlink:href="#block"/><use x="425" y="451" xlink:href="#block"/><use x="464" y="451" xlink:href="#block"/><use x="477" y="451" xlink:href="#block"/><use x="9" y="464" xlink:href="#block"/><use x="87" y="464" xlink:href="#block"/><use x="139" y="464" xlink:href="#block"/><use x="165" y="464" xlink:href="#block"/><use x="191" y="464" xlink:href="#block"/><use x="295" y="464" xlink:href="#block"/><use x="373" y="464" xlink:href="#block"/><use x="386" y="464" xlink:href="#block"/><use x="425" y="464" xlink:href="#block"/><use x="438" y="464" xlink:href="#block"/><use x="464" y="464" xlink:href="#block"/><use x="477" y="464" xlink:href="#block"/><use x="9" y="477" xlink:href="#block"/><use x="22" y="477" xlink:href="#block"/><use x="35" y="477" xlink:href="#block"/><use x="48" y="477" xlink:href="#block"/><use x="61" y="477" xlink:href="#block"/><use x="74" y="477" xlink:href="#block"/><use x="87" y="477" xlink:href="#block"/><use x="139" y="477" xlink:href="#block"/><use x="165" y="477" xlink:href="#block"/><use x="204" y="477" xlink:href="#block"/><use x="230" y="477" xlink:href="#block"/><use x="282" y="477" xlink:href="#block"/><use x="295" y="477" xlink:href="#block"/><use x="308" y="477" xlink:href="#block"/><use x="334" y="477" xlink:href="#block"/><use x="386" y="477" xlink:href="#block"/><use x="425" y="477" xlink:href="#block"/><use x="438" y="477" xlink:href="#block"/><use x="451" y="477" xlink:href="#block"/><use x="477" y="477" xlink:href="#block"/></svg>
