<svg width="32" height="32" viewBox="0 0 32 32" fill="none" xmlns="http://www.w3.org/2000/svg">
	<rect width="32" height="32" rx="10" fill="#FF6464"/>
	<path d="M15.9994 15.1667C15.7783 15.1667 15.5664 15.2545 15.4101 15.4108C15.2538 15.567 15.166 15.779 15.166 16V19.3334C15.166 19.5544 15.2538 19.7663 15.4101 19.9226C15.5664 20.0789 15.7783 20.1667 15.9994 20.1667C16.2204 20.1667 16.4323 20.0789 16.5886 19.9226C16.7449 19.7663 16.8327 19.5544 16.8327 19.3334V16C16.8327 15.779 16.7449 15.567 16.5886 15.4108C16.4323 15.2545 16.2204 15.1667 15.9994 15.1667ZM16.316 11.9C16.1131 11.8167 15.8856 11.8167 15.6827 11.9C15.5804 11.9397 15.4869 11.9992 15.4077 12.075C15.3341 12.156 15.2749 12.249 15.2327 12.35C15.186 12.4489 15.1632 12.5574 15.166 12.6667C15.1654 12.7764 15.1864 12.8851 15.2279 12.9866C15.2693 13.0881 15.3305 13.1805 15.4077 13.2584C15.4887 13.332 15.5817 13.3912 15.6827 13.4334C15.8089 13.4852 15.946 13.5053 16.0818 13.4918C16.2176 13.4783 16.348 13.4316 16.4616 13.3559C16.5752 13.2802 16.6684 13.1778 16.7331 13.0576C16.7978 12.9374 16.832 12.8032 16.8327 12.6667C16.8296 12.446 16.7433 12.2347 16.591 12.075C16.5118 11.9992 16.4183 11.9397 16.316 11.9ZM15.9994 7.66669C14.3512 7.66669 12.74 8.15543 11.3696 9.07111C9.99919 9.98679 8.93109 11.2883 8.30036 12.811C7.66963 14.3337 7.5046 16.0093 7.82614 17.6258C8.14769 19.2423 8.94136 20.7271 10.1068 21.8926C11.2722 23.058 12.7571 23.8517 14.3736 24.1732C15.9901 24.4948 17.6657 24.3297 19.1884 23.699C20.7111 23.0683 22.0126 22.0002 22.9283 20.6298C23.8439 19.2594 24.3327 17.6482 24.3327 16C24.3327 14.9057 24.1171 13.822 23.6983 12.811C23.2796 11.7999 22.6657 10.8813 21.8919 10.1075C21.1181 9.33364 20.1994 8.71981 19.1884 8.30102C18.1773 7.88224 17.0937 7.66669 15.9994 7.66669V7.66669ZM15.9994 22.6667C14.6808 22.6667 13.3919 22.2757 12.2956 21.5432C11.1992 20.8106 10.3447 19.7694 9.84016 18.5512C9.33557 17.3331 9.20355 15.9926 9.46078 14.6994C9.71802 13.4062 10.353 12.2183 11.2853 11.286C12.2177 10.3536 13.4055 9.71869 14.6988 9.46145C15.992 9.20422 17.3324 9.33624 18.5506 9.84082C19.7687 10.3454 20.8099 11.1999 21.5425 12.2962C22.275 13.3925 22.666 14.6815 22.666 16C22.666 17.7681 21.9636 19.4638 20.7134 20.7141C19.4632 21.9643 17.7675 22.6667 15.9994 22.6667V22.6667Z" fill="white"/>
</svg>
