<svg width="32" height="32" viewBox="0 0 32 32" fill="none" xmlns="http://www.w3.org/2000/svg">
	<path d="M16 32C24.8366 32 32 24.8366 32 16C32 7.16344 24.8366 0 16 0C7.16344 0 0 7.16344 0 16C0 24.8366 7.16344 32 16 32Z" fill="#FFFB1F"/>
	<path d="M16 6.26062L16.518 7.85493H18.1943L16.8381 8.84025L17.3562 10.4346L16 9.44918L14.6437 10.4346L15.1618 8.84025L13.8056 7.85493H15.4819L16 6.26062Z" fill="#191B20"/>
	<path d="M9.11358 9.1126L10.6073 9.8736L11.7926 8.68835L11.5303 10.344L13.024 11.105L11.3683 11.3673L11.1061 13.023L10.345 11.5294L8.68939 11.7917L9.87471 10.6064L9.11358 9.1126Z" fill="#191B20"/>
	<path d="M6.26068 15.9989L7.85499 15.4809V13.8046L8.84024 15.1608L10.4346 14.6428L9.44918 15.9989L10.4346 17.3551L8.84024 16.8371L7.85499 18.1933V16.517L6.26068 15.9989Z" fill="#191B20"/>
	<path d="M9.11358 22.8868L9.87464 21.3931L8.68939 20.2078L10.3451 20.4701L11.106 18.9764L11.3683 20.6321L13.024 20.8944L11.5305 21.6554L11.7926 23.3111L10.6073 22.1258L9.11358 22.8868Z" fill="#191B20"/>
	<path d="M16 25.7381L15.4819 24.1438H13.8056L15.1619 23.1585L14.6437 21.5643L16 22.5496L17.3562 21.5643L16.8381 23.1585L18.1943 24.1438H16.518L16 25.7381Z" fill="#191B20"/>
	<path d="M22.8868 22.8868L21.3931 22.1258L20.2078 23.3111L20.4701 21.6554L18.9765 20.8944L20.6321 20.6321L20.8944 18.9764L21.6554 20.4701L23.311 20.2078L22.1257 21.3932L22.8868 22.8868Z" fill="#191B20"/>
	<path d="M25.7382 15.9989L24.1439 16.517V18.1933L23.1586 16.8371L21.5644 17.3551L22.5497 15.9989L21.5644 14.6428L23.1586 15.1608L24.1439 13.8046V15.4809L25.7382 15.9989Z" fill="#191B20"/>
	<path d="M22.8868 9.11254L22.1258 10.6063L23.3111 11.7916L21.6553 11.5292L20.8944 13.0229L20.6321 11.3672L18.9765 11.1049L20.4701 10.3439L20.2078 8.68835L21.3932 9.8736L22.8868 9.11254Z" fill="#191B20"/>
</svg>
