<svg width="19" height="19" viewBox="0 0 19 19" fill="none" xmlns="http://www.w3.org/2000/svg">
	<path fill-rule="evenodd" clip-rule="evenodd" d="M9.02656 4.54129L5.52059 8.04719L3.48064 6.00714L9.02656 0.460938L14.5744 6.00895L12.5343 8.04899L9.02656 4.54129ZM2.0401 7.44729L0 9.48739L2.03998 11.5274L4.08006 9.48727L2.0401 7.44729ZM9.02656 14.4341L5.52059 10.9282L3.47758 12.9655L3.48046 12.9684L9.02656 18.5144L14.5744 12.9665L14.5754 12.9654L12.5343 10.9264L9.02656 14.4341ZM16.0135 7.44842L13.9734 9.48851L16.0134 11.5285L18.0535 9.48839L16.0135 7.44842ZM11.4033 9.48633H11.4023L11.4045 9.48747L11.4033 9.48882L9.02653 11.8656L6.65192 9.49089L6.6486 9.48747L6.65192 9.48425L7.06814 9.06793L7.26993 8.86604H7.27003L9.02653 7.10954L11.4033 9.48633Z" fill="#7B8199"/>
</svg>
