<svg width="22" height="21" viewBox="0 0 22 21" fill="none" xmlns="http://www.w3.org/2000/svg">
    <path d="M19.9401 2.05651C17.1981 -0.685505 12.7363 -0.685505 9.99424 2.05651L1.46874 10.5819C-0.489701 12.5406 -0.489572 15.7276 1.46908 17.6862C2.44847 18.6655 3.73453 19.1552 5.02111 19.1551C6.30734 19.155 7.594 18.6654 8.57326 17.6862L16.388 9.87131C17.5633 8.69629 17.5634 6.78408 16.3881 5.60863C15.2129 4.43347 13.3006 4.43351 12.1255 5.60884L7.01504 10.7192C6.62269 11.1115 6.62269 11.7476 7.01495 12.14C7.40739 12.5324 8.04341 12.5324 8.43585 12.14L13.5464 7.02956C13.9381 6.63782 14.5756 6.63782 14.9673 7.02944C15.359 7.42127 15.359 8.05858 14.9672 8.45033L7.15249 16.2653C5.97721 17.4404 4.06509 17.4406 2.88989 16.2654C1.71473 15.0901 1.71461 13.1779 2.88963 12.0027L11.4151 3.47737C13.3737 1.51889 16.5607 1.5188 18.5194 3.47745C19.4682 4.42621 19.9908 5.68773 19.9907 7.02952C19.9907 8.37136 19.4682 9.63284 18.5192 10.5817L9.99403 19.1072C9.60168 19.4995 9.60168 20.1356 9.99412 20.528C10.1903 20.7242 10.4474 20.8223 10.7045 20.8223C10.9616 20.8223 11.2188 20.7241 11.415 20.528L19.94 12.0026C21.2685 10.6743 22 8.90821 22 7.02961C22.0001 5.15092 21.2686 3.38481 19.9401 2.05651Z" fill="#ABB1CC"/>
</svg>
