<svg width="8" height="12" viewBox="0 0 8 12" fill="none" xmlns="http://www.w3.org/2000/svg">
	<path d="M3.19221 8.63873H4.60021C4.58421 8.55873 4.58421 8.49474 4.58421 8.46274V8.33473C4.58421 8.03074 4.64821 7.74273 4.76021 7.47073C4.87221 7.19873 5.04821 6.97473 5.28821 6.79873L6.02421 6.30274C6.48821 5.99873 6.88821 5.61473 7.19221 5.16673C7.49621 4.70273 7.65621 4.15873 7.65621 3.51873C7.65621 3.11873 7.57621 2.71873 7.41621 2.33473C7.27221 1.93473 7.04821 1.59873 6.74421 1.29473C6.44021 0.990734 6.07221 0.750734 5.64021 0.574735C5.20821 0.398734 4.71221 0.302734 4.15221 0.302734C3.52821 0.302734 3.00021 0.398734 2.55221 0.606734C2.12021 0.814734 1.75221 1.07073 1.46421 1.39073C1.17621 1.71073 0.968211 2.06273 0.824211 2.46273C0.680211 2.84674 0.616211 3.21473 0.616211 3.58273C0.616211 3.87073 0.648211 4.12673 0.712211 4.35073L2.26421 4.54273C2.23221 4.46273 2.20021 4.33473 2.18421 4.19073C2.16821 4.04673 2.15221 3.90273 2.15221 3.75873C2.15221 3.50273 2.18421 3.24673 2.26421 3.00673C2.34421 2.76673 2.47221 2.54273 2.63221 2.35073C2.79221 2.15873 3.00021 1.99873 3.24021 1.88673C3.49621 1.77473 3.80021 1.71073 4.15221 1.71073C4.47221 1.71073 4.74421 1.75873 4.98421 1.87073C5.22421 1.96673 5.43221 2.09473 5.57621 2.27073C5.73621 2.44673 5.84821 2.63873 5.92821 2.86273C6.00821 3.07073 6.05621 3.29473 6.05621 3.53473C6.05621 3.83873 5.97621 4.14273 5.83221 4.41473C5.68821 4.68673 5.48021 4.92673 5.20821 5.10273L4.50421 5.58273C4.02421 5.90273 3.68821 6.27074 3.48021 6.67074C3.27221 7.07073 3.17621 7.55073 3.17621 8.07873V8.36673C3.17621 8.44673 3.17621 8.54273 3.19221 8.63873ZM2.84021 10.9267C2.84021 11.2147 2.93621 11.4547 3.14421 11.6627C3.35221 11.8707 3.59221 11.9667 3.88021 11.9667C4.16821 11.9667 4.40821 11.8707 4.61621 11.6627C4.82421 11.4547 4.93621 11.2147 4.93621 10.9267C4.93621 10.6387 4.82421 10.3987 4.61621 10.1907C4.40821 9.98273 4.16821 9.87074 3.88021 9.87074C3.59221 9.87074 3.35221 9.98273 3.14421 10.1907C2.93621 10.3987 2.84021 10.6387 2.84021 10.9267Z" fill="#7B8199"/>
</svg>