<svg width="32" height="32" viewBox="0 0 32 32" fill="none" xmlns="http://www.w3.org/2000/svg">
	<path d="M16 32C24.8366 32 32 24.8366 32 16C32 7.16344 24.8366 0 16 0C7.16344 0 0 7.16344 0 16C0 24.8366 7.16344 32 16 32Z" fill="#FFFB1F"/>
	<path d="M22.3583 10.0417C22.2615 9.9634 22.1484 9.90778 22.0273 9.87894C21.9061 9.8501 21.7801 9.84877 21.6583 9.87505C20.7679 10.0617 19.8486 10.0641 18.9572 9.88204C18.0658 9.70003 17.2211 9.33748 16.475 8.81672C16.3355 8.71995 16.1698 8.66809 16 8.66809C15.8302 8.66809 15.6645 8.71995 15.525 8.81672C14.779 9.33748 13.9342 9.70003 13.0428 9.88204C12.1514 10.0641 11.2322 10.0617 10.3417 9.87505C10.22 9.84877 10.0939 9.8501 9.97277 9.87894C9.85163 9.90778 9.73849 9.9634 9.64168 10.0417C9.545 10.1202 9.46712 10.2193 9.41376 10.3317C9.3604 10.4442 9.33293 10.5672 9.33335 10.6917V16.9001C9.33261 18.0948 9.61733 19.2725 10.1638 20.335C10.7103 21.3975 11.5027 22.3141 12.475 23.0084L15.5167 25.1751C15.6578 25.2755 15.8268 25.3295 16 25.3295C16.1733 25.3295 16.3422 25.2755 16.4833 25.1751L19.525 23.0084C20.4974 22.3141 21.2898 21.3975 21.8362 20.335C22.3827 19.2725 22.6674 18.0948 22.6667 16.9001V10.6917C22.6671 10.5672 22.6396 10.4442 22.5863 10.3317C22.5329 10.2193 22.455 10.1202 22.3583 10.0417ZM21 16.9001C21.0007 17.829 20.7794 18.7447 20.3547 19.5709C19.93 20.3971 19.3142 21.1099 18.5583 21.6501L16 23.4751L13.4417 21.6501C12.6859 21.1099 12.07 20.3971 11.6453 19.5709C11.2206 18.7447 10.9994 17.829 11 16.9001V11.6501C12.747 11.7996 14.4967 11.3942 16 10.4917C17.5033 11.3942 19.253 11.7996 21 11.6501V16.9001Z" fill="#191B20"/>
</svg>
