<svg width="40" height="40" viewBox="0 0 40 40" fill="none" xmlns="http://www.w3.org/2000/svg">
	<path d="M11.8297 6.31083C15.4782 4.21421 19.838 3.6457 23.9501 4.73037C28.0622 5.81505 31.5897 8.46405 33.7567 12.0946C35.9236 15.7252 36.5524 20.04 35.5047 24.0897C34.4571 28.1395 31.8188 31.5925 28.1703 33.6891C24.5218 35.7857 20.162 36.3542 16.0499 35.2696C11.9378 34.1849 8.41026 31.5359 6.24335 27.9053C4.07644 24.2747 3.44764 19.96 4.49528 15.9102C5.54291 11.8605 8.18117 8.40746 11.8297 6.31083L11.8297 6.31083Z" stroke="#191B20" stroke-opacity="0.25" stroke-width="7"/>
	<path d="M11.8297 6.31083C14.3138 4.8833 17.1511 4.15176 20.0404 4.19388C22.9296 4.23601 25.763 5.05022 28.2397 6.55008C30.7164 8.04995 32.7439 10.1795 34.1071 12.7126C35.4703 15.2458 36.1183 18.088 35.9822 20.9375" stroke="url(#paint0_linear_1682_13653)" stroke-width="7" stroke-linecap="round"/>
	<defs>
		<linearGradient id="paint0_linear_1682_13653" x1="36" y1="20.1933" x2="4" y2="20.1933" gradientUnits="userSpaceOnUse">
			<stop stop-color="#191B20"/>
			<stop offset="0.755208" stop-color="#191B20" stop-opacity="0.01"/>
			<stop offset="1" stop-color="#191B20" stop-opacity="0"/>
		</linearGradient>
	</defs>
</svg>
