<svg width="12" height="8" viewBox="0 0 12 8" fill="none" xmlns="http://www.w3.org/2000/svg">
	<path d="M6.7103 6.83019L10.9503 2.59019C11.044 2.49722 11.1184 2.38662 11.1692 2.26476C11.22 2.1429 11.2461 2.0122 11.2461 1.88019C11.2461 1.74818 11.22 1.61747 11.1692 1.49561C11.1184 1.37375 11.044 1.26315 10.9503 1.17019C10.7629 0.983936 10.5095 0.879394 10.2453 0.879394C9.98111 0.879394 9.72766 0.983936 9.5403 1.17019L6.0003 4.71019L2.4603 1.17019C2.27293 0.983936 2.01948 0.879394 1.75529 0.879394C1.49111 0.879394 1.23766 0.983936 1.05029 1.17019C0.957614 1.26363 0.884289 1.37444 0.834524 1.49628C0.784759 1.61812 0.759535 1.74858 0.760296 1.88019C0.759535 2.01179 0.784759 2.14226 0.834524 2.26409C0.884289 2.38593 0.957614 2.49675 1.05029 2.59019L5.2903 6.83019C5.38326 6.92392 5.49386 6.99831 5.61572 7.04908C5.73758 7.09985 5.86828 7.12598 6.0003 7.12598C6.13231 7.12598 6.26301 7.09985 6.38487 7.04908C6.50673 6.99831 6.61733 6.92392 6.7103 6.83019Z" fill="black"/>
</svg>
