<svg width="40" height="40" viewBox="0 0 40 40" fill="none" xmlns="http://www.w3.org/2000/svg">
	<circle cx="20" cy="20" r="20" fill="#FFEF21"/>
	<path fill-rule="evenodd" clip-rule="evenodd" d="M21.95 12.9291L28.3139 19.2931C28.7045 19.6836 28.7044 20.3168 28.3139 20.7073L21.95 27.0713C21.5594 27.4618 20.9263 27.4618 20.5358 27.0713C20.1452 26.6807 20.1452 26.0476 20.5358 25.657L25.1926 21.0002L12.3931 21.0002C11.8408 21.0002 11.3931 20.5525 11.3931 20.0002C11.3931 19.4479 11.8408 19.0002 12.3931 19.0002L25.1926 19.0002L20.5358 14.3433C20.1452 13.9528 20.1452 13.3196 20.5358 12.9291C20.9263 12.5386 21.5594 12.5386 21.95 12.9291Z" fill="#191B20"/>
</svg>
