<svg width="20" height="22" viewBox="0 0 20 22" fill="none" xmlns="http://www.w3.org/2000/svg">
	<path d="M17.9025 7.37501L6.23002 0.680844C5.5984 0.316121 4.88151 0.125057 4.15216 0.12706C3.4228 0.129064 2.70697 0.324062 2.07737 0.69225C1.44777 1.06044 0.926826 1.5887 0.567457 2.22338C0.208088 2.85805 0.0230937 3.57653 0.0312653 4.30584V17.7425C0.0312653 18.8385 0.466652 19.8896 1.24165 20.6646C2.01664 21.4396 3.06776 21.875 4.16377 21.875C4.88929 21.8738 5.60179 21.6821 6.23002 21.3192L17.9025 14.625C18.5297 14.262 19.0504 13.7405 19.4124 13.1127C19.7744 12.4849 19.965 11.773 19.965 11.0483C19.965 10.3237 19.7744 9.61175 19.4124 8.98398C19.0504 8.35621 18.5297 7.83467 17.9025 7.47168V7.37501ZM16.6942 12.4379L5.02168 19.2288C4.76006 19.377 4.46448 19.455 4.16377 19.455C3.86305 19.455 3.56747 19.377 3.30585 19.2288C3.04497 19.0781 2.82834 18.8615 2.67774 18.6006C2.52714 18.3397 2.44788 18.0438 2.44793 17.7425V4.25751C2.44788 3.95627 2.52714 3.66032 2.67774 3.39943C2.82834 3.13853 3.04497 2.92188 3.30585 2.77126C3.56855 2.62524 3.86325 2.54638 4.16377 2.54168C4.46408 2.54784 4.75843 2.62661 5.02168 2.77126L16.6942 9.51376C16.9552 9.66432 17.1719 9.88094 17.3226 10.1418C17.4733 10.4027 17.5526 10.6987 17.5526 11C17.5526 11.3013 17.4733 11.5973 17.3226 11.8582C17.1719 12.1191 16.9552 12.3357 16.6942 12.4863V12.4379Z" fill="#191B20"/>
</svg>
