<svg width="373" height="219" viewBox="0 0 373 219" fill="none" xmlns="http://www.w3.org/2000/svg">
	<rect x="8.73337" y="0.577123" width="265.484" height="42.5425" rx="21.2712" fill="#5CEE9C"/>
	<path d="M50.0173 15.2752V30.7712H46.8973V15.2752H40.9173V12.3372H56.0233V15.2752H50.0173ZM59.352 28.1972C59.7506 28.3706 60.1926 28.4572 60.678 28.4572C61.1633 28.4572 61.614 28.3706 62.03 28.1972C62.4286 28.0239 62.8013 27.7639 63.148 27.4172C63.4946 27.0879 63.7546 26.6719 63.928 26.1692C64.1186 25.6492 64.214 25.0686 64.214 24.4272C64.214 23.8032 64.1186 23.2312 63.928 22.7112C63.7546 22.2259 63.4946 21.8099 63.148 21.4632C62.784 21.0992 62.4113 20.8479 62.03 20.7092C61.614 20.5359 61.1633 20.4492 60.678 20.4492C60.1926 20.4492 59.7506 20.5359 59.352 20.7092C58.936 20.8479 58.5633 21.0992 58.234 21.4632C57.9046 21.8099 57.6446 22.2259 57.454 22.7112C57.246 23.1966 57.142 23.7686 57.142 24.4272C57.142 25.0859 57.246 25.6666 57.454 26.1692C57.6446 26.6719 57.9046 27.0879 58.234 27.4172C58.546 27.7639 58.9186 28.0239 59.352 28.1972ZM60.678 17.7192C61.6486 17.7192 62.524 17.8839 63.304 18.2132C64.084 18.5426 64.7773 19.0106 65.384 19.6172C65.9386 20.1719 66.398 20.8826 66.762 21.7492C67.0913 22.5292 67.256 23.4219 67.256 24.4272C67.256 25.4326 67.0913 26.3252 66.762 27.1052C66.4153 27.9546 65.956 28.6652 65.384 29.2372C64.7773 29.8439 64.084 30.3119 63.304 30.6412C62.472 30.9879 61.5966 31.1612 60.678 31.1612C59.7766 31.1612 58.91 30.9879 58.078 30.6412C57.2633 30.2946 56.57 29.8266 55.998 29.2372C55.426 28.6652 54.9666 27.9546 54.62 27.1052C54.2906 26.3252 54.126 25.4326 54.126 24.4272C54.126 23.4219 54.2906 22.5292 54.62 21.7492C54.984 20.8826 55.4433 20.1719 55.998 19.6172C56.57 19.0279 57.2633 18.5599 58.078 18.2132C58.858 17.8839 59.7246 17.7192 60.678 17.7192ZM78.0437 29.3672C77.7317 29.9392 77.2464 30.3726 76.5877 30.6672C75.9117 30.9792 75.201 31.1352 74.4557 31.1352C73.7104 31.1352 73.0344 31.0052 72.4277 30.7452C71.821 30.4852 71.327 30.1212 70.9457 29.6532C70.547 29.2199 70.235 28.6912 70.0097 28.0672C69.7844 27.4952 69.6717 26.8366 69.6717 26.0912V18.1092H72.6877V25.5452C72.6877 25.9439 72.7397 26.3166 72.8437 26.6632C72.913 26.9926 73.0604 27.2959 73.2857 27.5732C73.4937 27.8332 73.7624 28.0412 74.0917 28.1972C74.4037 28.3532 74.7851 28.4312 75.2357 28.4312C76.137 28.4312 76.8044 28.1626 77.2377 27.6252C77.671 27.1226 77.8877 26.4466 77.8877 25.5972V18.1092H80.9037V28.4572C80.9037 28.8386 80.9211 29.2892 80.9557 29.8092C80.9904 30.2426 81.0164 30.5632 81.0337 30.7712H78.1477C78.1304 30.6326 78.1044 30.4246 78.0697 30.1472C78.0524 29.9739 78.0437 29.7139 78.0437 29.3672ZM89.9592 20.5012C89.4739 20.5012 89.0319 20.5879 88.6332 20.7612C88.1826 20.9519 87.8186 21.2032 87.5412 21.5152C87.1946 21.8619 86.9346 22.2692 86.7612 22.7372C86.5706 23.2572 86.4752 23.8206 86.4752 24.4272C86.4752 25.0339 86.5706 25.5972 86.7612 26.1172C86.9346 26.6199 87.1946 27.0359 87.5412 27.3652C87.8532 27.7119 88.2259 27.9719 88.6592 28.1452C89.0752 28.3186 89.5259 28.4052 90.0112 28.4052C90.4792 28.4052 90.9126 28.3272 91.3112 28.1712C91.6579 28.0152 91.9699 27.8159 92.2472 27.5732C92.5246 27.2959 92.7239 27.0446 92.8452 26.8192C92.9839 26.6112 93.0966 26.3599 93.1832 26.0652L95.8352 27.0272C95.6792 27.5126 95.4452 28.0066 95.1332 28.5092C94.8212 29.0119 94.4312 29.4539 93.9632 29.8352C93.4259 30.2512 92.8539 30.5719 92.2472 30.7972C91.5712 31.0399 90.8259 31.1612 90.0112 31.1612C89.1099 31.1612 88.2432 30.9879 87.4112 30.6412C86.6139 30.3119 85.9292 29.8439 85.3572 29.2372C84.8026 28.6826 84.3432 27.9719 83.9792 27.1052C83.6326 26.2732 83.4592 25.3806 83.4592 24.4272C83.4592 23.4219 83.6239 22.5292 83.9532 21.7492C84.2999 20.8999 84.7592 20.1892 85.3312 19.6172C85.9379 19.0106 86.6226 18.5426 87.3852 18.2132C88.1479 17.8839 88.9972 17.7192 89.9332 17.7192C90.7652 17.7192 91.5192 17.8406 92.1952 18.0832C92.8019 18.3086 93.3739 18.6292 93.9112 19.0452C94.4139 19.4439 94.8039 19.8859 95.0812 20.3712C95.3932 20.9086 95.6099 21.4112 95.7312 21.8792L93.0272 22.8672C92.9406 22.5899 92.8366 22.3039 92.7152 22.0092C92.5939 21.7839 92.3946 21.5326 92.1172 21.2552C91.8572 21.0299 91.5539 20.8479 91.2072 20.7092C90.8432 20.5706 90.4272 20.5012 89.9592 20.5012ZM101.161 30.7712H98.1448V11.9472H101.161V19.3312C101.611 18.7766 102.157 18.3692 102.799 18.1092C103.475 17.8666 104.133 17.7452 104.775 17.7452C105.555 17.7452 106.239 17.8752 106.829 18.1352C107.366 18.3779 107.843 18.7332 108.259 19.2012C108.64 19.6692 108.926 20.2066 109.117 20.8132C109.307 21.4372 109.403 22.0872 109.403 22.7632V30.7712H106.387V23.2832C106.387 22.4859 106.196 21.8186 105.815 21.2812C105.433 20.7439 104.757 20.4752 103.787 20.4752C102.955 20.4752 102.322 20.7439 101.889 21.2812C101.421 21.8532 101.178 22.5379 101.161 23.3352V30.7712ZM118.983 30.7712V12.3372L122.155 12.3372V30.7712H118.983ZM132.783 27.9112C133.598 27.9112 134.352 27.7812 135.045 27.5212C135.756 27.2612 136.371 26.8712 136.891 26.3512C137.429 25.8312 137.853 25.1726 138.165 24.3752C138.477 23.5952 138.633 22.6679 138.633 21.5932C138.633 20.5012 138.477 19.5566 138.165 18.7592C137.888 17.9792 137.472 17.3119 136.917 16.7572C136.397 16.2372 135.782 15.8472 135.071 15.5872C134.361 15.3272 133.607 15.1972 132.809 15.1972H129.507V27.9112H132.783ZM126.387 30.7712V12.3372H132.913C134.144 12.3372 135.314 12.5366 136.423 12.9352C137.533 13.3512 138.486 13.9492 139.283 14.7292C140.081 15.5266 140.713 16.4972 141.181 17.6412C141.649 18.8026 141.883 20.1199 141.883 21.5932C141.883 23.0666 141.649 24.3752 141.181 25.5192C140.713 26.6459 140.072 27.6079 139.257 28.4052C138.443 29.2026 137.489 29.7919 136.397 30.1732C135.288 30.5719 134.118 30.7712 132.887 30.7712H126.387ZM145.804 30.7712H143.022L151.992 12.3372H154.774L145.804 30.7712ZM157.346 30.7712V12.3372H168.812V15.2752H160.466V20.4492H167.954V23.3352H160.466V30.7712H157.346ZM169.774 27.3392C169.774 26.7846 169.878 26.2819 170.086 25.8312C170.242 25.4499 170.511 25.0686 170.892 24.6872C171.256 24.3579 171.655 24.1066 172.088 23.9332C172.625 23.7252 173.128 23.5866 173.596 23.5172L176.846 23.0232C177.227 22.9712 177.479 22.8586 177.6 22.6852C177.721 22.5466 177.782 22.3559 177.782 22.1132C177.782 21.5759 177.591 21.1166 177.21 20.7352C176.829 20.3712 176.222 20.1892 175.39 20.1892C174.593 20.1892 173.977 20.4059 173.544 20.8392C173.128 21.2552 172.877 21.8012 172.79 22.4772L170.034 21.8532C170.086 21.2812 170.251 20.7612 170.528 20.2932C170.805 19.7906 171.169 19.3486 171.62 18.9672C172.019 18.6206 172.556 18.3172 173.232 18.0572C173.856 17.8319 174.567 17.7192 175.364 17.7192C176.335 17.7192 177.158 17.8492 177.834 18.1092C178.527 18.3692 179.082 18.7159 179.498 19.1492C179.949 19.5999 180.261 20.1026 180.434 20.6572C180.642 21.2292 180.746 21.8272 180.746 22.4512V28.7432C180.746 29.2112 180.763 29.6706 180.798 30.1212C180.85 30.5199 180.885 30.7366 180.902 30.7712H178.094C178.077 30.7366 178.051 30.5806 178.016 30.3032C177.981 29.9566 177.964 29.5752 177.964 29.1592C177.687 29.6272 177.219 30.0866 176.56 30.5372C175.901 30.9532 175.069 31.1612 174.064 31.1612C173.405 31.1612 172.807 31.0572 172.27 30.8492C171.767 30.6412 171.325 30.3639 170.944 30.0172C170.563 29.6532 170.277 29.2372 170.086 28.7692C169.878 28.3359 169.774 27.8592 169.774 27.3392ZM174.636 28.7952C175.069 28.7952 175.468 28.7346 175.832 28.6132C176.213 28.5092 176.551 28.3272 176.846 28.0672C177.106 27.8592 177.331 27.5299 177.522 27.0792C177.695 26.6806 177.782 26.1606 177.782 25.5192V24.9472L174.48 25.4412C174.029 25.5106 173.631 25.6839 173.284 25.9612C172.955 26.2386 172.79 26.6372 172.79 27.1572C172.79 27.5906 172.946 27.9719 173.258 28.3012C173.57 28.6306 174.029 28.7952 174.636 28.7952ZM189.697 20.5012C189.211 20.5012 188.769 20.5879 188.371 20.7612C187.92 20.9519 187.556 21.2032 187.279 21.5152C186.932 21.8619 186.672 22.2692 186.499 22.7372C186.308 23.2572 186.213 23.8206 186.213 24.4272C186.213 25.0339 186.308 25.5972 186.499 26.1172C186.672 26.6199 186.932 27.0359 187.279 27.3652C187.591 27.7119 187.963 27.9719 188.397 28.1452C188.813 28.3186 189.263 28.4052 189.749 28.4052C190.217 28.4052 190.65 28.3272 191.049 28.1712C191.395 28.0152 191.707 27.8159 191.985 27.5732C192.262 27.2959 192.461 27.0446 192.583 26.8192C192.721 26.6112 192.834 26.3599 192.921 26.0652L195.573 27.0272C195.417 27.5126 195.183 28.0066 194.871 28.5092C194.559 29.0119 194.169 29.4539 193.701 29.8352C193.163 30.2512 192.591 30.5719 191.985 30.7972C191.309 31.0399 190.563 31.1612 189.749 31.1612C188.847 31.1612 187.981 30.9879 187.149 30.6412C186.351 30.3119 185.667 29.8439 185.095 29.2372C184.54 28.6826 184.081 27.9719 183.717 27.1052C183.37 26.2732 183.197 25.3806 183.197 24.4272C183.197 23.4219 183.361 22.5292 183.691 21.7492C184.037 20.8999 184.497 20.1892 185.069 19.6172C185.675 19.0106 186.36 18.5426 187.123 18.2132C187.885 17.8839 188.735 17.7192 189.671 17.7192C190.503 17.7192 191.257 17.8406 191.933 18.0832C192.539 18.3086 193.111 18.6292 193.649 19.0452C194.151 19.4439 194.541 19.8859 194.819 20.3712C195.131 20.9086 195.347 21.4112 195.469 21.8792L192.765 22.8672C192.678 22.5899 192.574 22.3039 192.453 22.0092C192.331 21.7839 192.132 21.5326 191.855 21.2552C191.595 21.0299 191.291 20.8479 190.945 20.7092C190.581 20.5706 190.165 20.5012 189.697 20.5012ZM206.384 23.0492C206.35 22.6332 206.28 22.2866 206.176 22.0092C206.038 21.6799 205.838 21.3766 205.578 21.0992C205.318 20.8392 204.998 20.6312 204.616 20.4752C204.218 20.3192 203.767 20.2412 203.264 20.2412C202.779 20.2412 202.363 20.3279 202.016 20.5012C201.635 20.6572 201.314 20.8652 201.054 21.1252C200.777 21.4372 200.569 21.7406 200.43 22.0352C200.292 22.3472 200.205 22.6852 200.17 23.0492H206.384ZM209.27 27.1572C209.08 27.7466 208.828 28.2666 208.516 28.7172C208.17 29.2199 207.762 29.6446 207.294 29.9912C206.792 30.3552 206.237 30.6412 205.63 30.8492C205.006 31.0572 204.313 31.1612 203.55 31.1612C202.684 31.1612 201.86 31.0052 201.08 30.6932C200.318 30.4159 199.633 29.9739 199.026 29.3672C198.42 28.7952 197.952 28.0846 197.622 27.2352C197.258 26.4032 197.076 25.4499 197.076 24.3752C197.076 23.3872 197.25 22.4772 197.596 21.6452C197.943 20.8132 198.394 20.1199 198.948 19.5652C199.52 18.9759 200.179 18.5252 200.924 18.2132C201.652 17.8839 202.424 17.7192 203.238 17.7192C204.209 17.7192 205.084 17.8752 205.864 18.1872C206.61 18.4992 207.26 18.9412 207.814 19.5132C208.317 20.0679 208.716 20.7612 209.01 21.5932C209.288 22.3732 209.426 23.2746 209.426 24.2972C209.426 24.6092 209.418 24.8259 209.4 24.9472L209.348 25.2592H200.092C200.11 25.7446 200.214 26.1866 200.404 26.5852C200.595 26.9839 200.846 27.3306 201.158 27.6252C201.47 27.9199 201.834 28.1539 202.25 28.3272C202.632 28.4832 203.065 28.5612 203.55 28.5612C204.486 28.5612 205.197 28.3532 205.682 27.9372C206.168 27.5039 206.514 26.9752 206.722 26.3512L209.27 27.1572ZM218.314 30.7712V12.3372H221.486V30.7712H218.314ZM232.115 27.9112C232.929 27.9112 233.683 27.7812 234.377 27.5212C235.087 27.2612 235.703 26.8712 236.223 26.3512C236.76 25.8312 237.185 25.1726 237.497 24.3752C237.809 23.5952 237.965 22.6679 237.965 21.5932C237.965 20.5012 237.809 19.5566 237.497 18.7592C237.219 17.9792 236.803 17.3119 236.249 16.7572C235.729 16.2372 235.113 15.8472 234.403 15.5872C233.692 15.3272 232.938 15.1972 232.141 15.1972H228.839V27.9112H232.115ZM225.719 30.7712V12.3372H232.245C233.475 12.3372 234.645 12.5366 235.755 12.9352C236.864 13.3512 237.817 13.9492 238.615 14.7292C239.412 15.5266 240.045 16.4972 240.513 17.6412C240.981 18.8026 241.215 20.1199 241.215 21.5932C241.215 23.0666 240.981 24.3752 240.513 25.5192C240.045 26.6459 239.403 27.6079 238.589 28.4052C237.774 29.2026 236.821 29.7919 235.729 30.1732C234.619 30.5719 233.449 30.7712 232.219 30.7712H225.719Z" fill="#191B20"/>
	<rect x="8.73337" y="0.577123" width="265.484" height="42.5425" rx="21.2712" stroke="#C6CAD3" stroke-width="1.15425"/>
	<rect x="13.7583" y="175.407" width="323.484" height="42.5425" rx="21.2712" transform="rotate(-2.53462 13.7583 175.407)" fill="#0285FD"/>
	<path d="M54.6386 185.37C55.4871 185.332 56.2804 185.418 57.0184 185.629C57.6683 185.808 58.2724 186.128 58.8307 186.589C59.3347 187.001 59.73 187.504 60.0166 188.098C60.2866 188.711 60.4373 189.372 60.4687 190.082C60.5117 191.052 60.2978 191.903 59.827 192.635C59.3209 193.352 58.6843 193.866 57.9173 194.177C58.9332 194.392 59.7527 194.877 60.376 195.63C61.0181 196.417 61.3629 197.347 61.4104 198.421C61.4441 199.183 61.3359 199.873 61.0857 200.491C60.8031 201.163 60.4459 201.717 60.0141 202.152C59.5153 202.643 58.9245 203.016 58.2418 203.272C57.5434 203.563 56.7699 203.727 55.9214 203.765L49.116 204.066L48.3008 185.65L54.6386 185.37ZM54.568 193.18C55.4857 193.14 56.1854 192.875 56.6668 192.385C57.1656 191.894 57.3978 191.259 57.3633 190.48C57.3288 189.701 57.0415 189.089 56.5013 188.644C55.9611 188.2 55.2148 187.999 54.2624 188.041L51.5091 188.163L51.7367 193.306L54.568 193.18ZM55.2586 201.14C56.1937 201.098 56.928 200.831 57.4614 200.339C58.0121 199.847 58.2691 199.185 58.2323 198.353C58.1971 197.557 57.9086 196.919 57.3669 196.44C56.8425 195.96 56.0954 195.741 55.1257 195.784L51.8529 195.929L52.0897 201.28L55.2586 201.14ZM64.3668 203.391L63.5343 184.585L66.5474 184.452L67.3798 203.258L64.3668 203.391ZM75.0263 200.343C75.4322 200.498 75.8776 200.565 76.3625 200.544C76.8473 200.522 77.2937 200.416 77.7017 200.224C78.0923 200.033 78.4531 199.757 78.7841 199.396C79.1158 199.051 79.3572 198.624 79.5081 198.114C79.6756 197.586 79.7452 197.002 79.7168 196.361C79.6892 195.738 79.5687 195.171 79.3552 194.66C79.1606 194.182 78.8824 193.778 78.5208 193.447C78.141 193.1 77.7576 192.865 77.3705 192.744C76.9473 192.589 76.4932 192.522 76.0084 192.544C75.5235 192.565 75.0858 192.671 74.6951 192.862C74.2857 193.019 73.9245 193.286 73.6116 193.665C73.2979 194.026 73.0566 194.453 72.8875 194.946C72.7012 195.44 72.6226 196.016 72.6517 196.674C72.6809 197.332 72.8104 197.908 73.0405 198.401C73.2532 198.894 73.5313 199.298 73.8749 199.613C74.2019 199.945 74.5857 200.189 75.0263 200.343ZM75.8876 189.816C76.8573 189.773 77.7391 189.899 78.5329 190.194C79.3267 190.488 80.0401 190.925 80.673 191.504C81.2516 192.034 81.7419 192.724 82.1439 193.573C82.5074 194.338 82.7114 195.222 82.7558 196.227C82.8003 197.231 82.6753 198.13 82.3807 198.924C82.072 199.788 81.6445 200.518 81.0984 201.115C80.5191 201.748 79.8472 202.246 79.0825 202.609C78.2666 202.993 77.3998 203.204 76.4821 203.245C75.5816 203.285 74.7081 203.15 73.8616 202.841C73.0324 202.53 72.3191 202.093 71.7216 201.53C71.1248 200.984 70.6345 200.294 70.2506 199.461C69.8871 198.696 69.6831 197.812 69.6387 196.807C69.5942 195.803 69.7193 194.904 70.0138 194.11C70.3391 193.228 70.7665 192.498 71.2961 191.919C71.8415 191.305 72.5135 190.807 73.312 190.425C74.0767 190.061 74.9352 189.858 75.8876 189.816ZM90.8139 191.94C90.3291 191.962 89.8913 192.068 89.5007 192.259C89.0589 192.469 88.7064 192.736 88.4431 193.06C88.1121 193.422 87.8704 193.84 87.7179 194.315C87.5505 194.843 87.4801 195.41 87.507 196.016C87.5338 196.623 87.6539 197.181 87.8674 197.692C88.0628 198.187 88.3409 198.591 88.7018 198.904C89.0289 199.237 89.4127 199.48 89.8532 199.634C90.2765 199.789 90.7306 199.856 91.2154 199.834C91.683 199.813 92.1124 199.716 92.5038 199.543C92.8432 199.372 93.1461 199.159 93.4124 198.904C93.6772 198.615 93.8653 198.355 93.9765 198.124C94.1058 197.91 94.2073 197.654 94.2808 197.356L96.9728 198.2C96.8384 198.692 96.6265 199.196 96.337 199.712C96.0475 200.228 95.6775 200.686 95.2268 201.088C94.7084 201.527 94.1511 201.873 93.555 202.125C92.8904 202.397 92.1512 202.551 91.3373 202.587C90.4368 202.627 89.5634 202.493 88.7168 202.183C87.9057 201.889 87.201 201.452 86.6028 200.871C86.0241 200.342 85.5338 199.652 85.1318 198.802C84.7487 197.986 84.5361 197.102 84.4939 196.15C84.4494 195.145 84.5745 194.246 84.869 193.453C85.1778 192.589 85.6052 191.858 86.1514 191.262C86.7306 190.629 87.3939 190.131 88.1413 189.768C88.8886 189.406 89.7298 189.203 90.6649 189.162C91.4961 189.125 92.2547 189.213 92.9408 189.426C93.5568 189.624 94.1425 189.919 94.6977 190.311C95.2175 190.687 95.6266 191.111 95.9252 191.584C96.2606 192.107 96.4993 192.599 96.6412 193.062L93.9836 194.168C93.8847 193.895 93.7682 193.614 93.6339 193.325C93.5027 193.105 93.2925 192.863 93.0032 192.598C92.7334 192.384 92.4224 192.216 92.0699 192.093C91.7001 191.97 91.2815 191.92 90.8139 191.94ZM105.772 194.245L111.394 201.309L107.706 201.473L103.762 196.468L102.276 198.173L102.433 201.706L99.4456 201.838L98.6132 183.033L101.6 182.9L102.099 194.173L106.73 188.841L110.73 188.664L105.772 194.245ZM114.769 201.16L111.99 201.283L120.136 182.47L122.915 182.347L114.769 201.16ZM133.219 198.938C132.932 199.523 132.467 199.977 131.822 200.301C131.16 200.643 130.457 200.83 129.712 200.863C128.968 200.896 128.287 200.796 127.669 200.563C127.052 200.33 126.542 199.988 126.14 199.537C125.723 199.122 125.388 198.608 125.135 197.994C124.885 197.433 124.743 196.78 124.71 196.035L124.357 188.061L127.37 187.928L127.699 195.356C127.716 195.755 127.785 196.125 127.904 196.466C127.988 196.792 128.149 197.089 128.386 197.356C128.605 197.607 128.883 197.802 129.219 197.944C129.537 198.086 129.922 198.147 130.372 198.127C131.272 198.087 131.927 197.789 132.336 197.233C132.747 196.712 132.934 196.027 132.896 195.178L132.565 187.698L135.578 187.564L136.036 197.902C136.052 198.283 136.09 198.733 136.147 199.251C136.201 199.682 136.241 200.001 136.268 200.208L133.385 200.336C133.361 200.198 133.326 199.991 133.279 199.716C133.254 199.543 133.234 199.284 133.219 198.938ZM142.509 199.932L139.496 200.065L138.936 187.416L141.871 187.286L141.946 188.974C142.329 188.228 142.86 187.676 143.538 187.316C144.2 186.974 144.886 186.788 145.596 186.757C146.375 186.722 147.056 186.822 147.639 187.056C148.186 187.275 148.678 187.609 149.115 188.058C149.517 188.526 149.818 189.051 150.017 189.632C150.235 190.247 150.359 190.892 150.389 191.567L150.743 199.567L147.73 199.701L147.399 192.22C147.364 191.424 147.144 190.765 146.739 190.245C146.334 189.725 145.647 189.487 144.677 189.53C143.829 189.567 143.192 189.882 142.767 190.473C142.344 191.099 142.15 191.819 142.186 192.633L142.509 199.932ZM153.971 199.425L153.138 180.619L156.151 180.486L156.984 199.291L153.971 199.425ZM164.63 196.376C165.036 196.532 165.482 196.599 165.967 196.577C166.451 196.556 166.898 196.449 167.306 196.258C167.696 196.067 168.057 195.791 168.388 195.429C168.72 195.085 168.961 194.658 169.112 194.148C169.28 193.62 169.349 193.036 169.321 192.395C169.293 191.771 169.173 191.204 168.959 190.693C168.765 190.216 168.487 189.812 168.125 189.481C167.745 189.133 167.362 188.899 166.975 188.777C166.551 188.622 166.097 188.556 165.612 188.577C165.128 188.599 164.69 188.705 164.299 188.895C163.89 189.052 163.529 189.32 163.216 189.698C162.902 190.059 162.661 190.486 162.492 190.979C162.305 191.474 162.227 192.05 162.256 192.708C162.285 193.366 162.415 193.941 162.645 194.434C162.857 194.928 163.135 195.332 163.479 195.646C163.806 195.979 164.19 196.222 164.63 196.376ZM165.492 185.85C166.461 185.807 167.343 185.933 168.137 186.227C168.931 186.522 169.644 186.959 170.277 187.538C170.856 188.067 171.346 188.757 171.748 189.607C172.112 190.371 172.316 191.256 172.36 192.26C172.404 193.265 172.279 194.164 171.985 194.958C171.676 195.821 171.249 196.552 170.703 197.148C170.123 197.781 169.451 198.28 168.687 198.643C167.871 199.026 167.004 199.238 166.086 199.279C165.186 199.318 164.312 199.184 163.466 198.874C162.637 198.564 161.923 198.127 161.326 197.563C160.729 197.017 160.239 196.328 159.855 195.494C159.491 194.73 159.287 193.845 159.243 192.841C159.198 191.837 159.323 190.938 159.618 190.144C159.943 189.262 160.371 188.532 160.9 187.953C161.446 187.339 162.118 186.841 162.916 186.458C163.681 186.095 164.539 185.892 165.492 185.85ZM180.418 187.974C179.933 187.995 179.495 188.101 179.105 188.292C178.663 188.503 178.311 188.77 178.047 189.094C177.716 189.455 177.475 189.874 177.322 190.349C177.155 190.877 177.084 191.444 177.111 192.05C177.138 192.656 177.258 193.215 177.472 193.726C177.667 194.22 177.945 194.624 178.306 194.938C178.633 195.271 179.017 195.514 179.457 195.668C179.881 195.823 180.335 195.889 180.82 195.868C181.287 195.847 181.717 195.75 182.108 195.576C182.447 195.405 182.75 195.192 183.017 194.938C183.281 194.648 183.469 194.388 183.581 194.158C183.71 193.944 183.811 193.688 183.885 193.39L186.577 194.234C186.443 194.725 186.231 195.229 185.941 195.745C185.652 196.261 185.282 196.72 184.831 197.122C184.313 197.561 183.755 197.907 183.159 198.159C182.495 198.431 181.755 198.585 180.941 198.621C180.041 198.661 179.167 198.526 178.321 198.217C177.51 197.923 176.805 197.486 176.207 196.905C175.628 196.375 175.138 195.685 174.736 194.836C174.353 194.02 174.14 193.136 174.098 192.183C174.054 191.179 174.179 190.28 174.473 189.486C174.782 188.622 175.209 187.892 175.755 187.295C176.335 186.662 176.998 186.165 177.745 185.802C178.493 185.439 179.334 185.237 180.269 185.196C181.1 185.159 181.859 185.247 182.545 185.459C183.161 185.658 183.747 185.953 184.302 186.344C184.822 186.72 185.231 187.145 185.529 187.617C185.865 188.14 186.103 188.633 186.245 189.095L183.588 190.202C183.489 189.929 183.372 189.647 183.238 189.358C183.107 189.139 182.897 188.896 182.607 188.632C182.338 188.418 182.026 188.25 181.674 188.126C181.304 188.004 180.886 187.953 180.418 187.974ZM195.376 190.279L200.998 197.343L197.31 197.506L193.366 192.502L191.88 194.207L192.037 197.74L189.05 197.872L188.217 179.066L191.204 178.934L191.703 190.207L196.334 184.875L200.334 184.698L195.376 190.279ZM208.69 197.002L208.13 184.353L211.117 184.22L211.677 196.87L208.69 197.002ZM208.098 181.283C207.701 180.936 207.49 180.486 207.466 179.932C207.441 179.378 207.611 178.902 207.975 178.504C208.339 178.106 208.79 177.895 209.327 177.871C209.881 177.847 210.357 178.017 210.754 178.381C211.152 178.745 211.363 179.204 211.388 179.758C211.413 180.312 211.242 180.78 210.878 181.16C210.513 181.558 210.054 181.769 209.5 181.794C208.963 181.817 208.496 181.647 208.098 181.283ZM218.035 196.589L215.022 196.722L214.462 184.072L217.397 183.942L217.472 185.631C217.856 184.885 218.386 184.332 219.064 183.973C219.726 183.631 220.412 183.445 221.122 183.413C221.901 183.379 222.582 183.479 223.165 183.713C223.712 183.932 224.204 184.266 224.641 184.715C225.043 185.183 225.344 185.707 225.543 186.289C225.761 186.904 225.885 187.549 225.915 188.224L226.269 196.224L223.256 196.358L222.925 188.877C222.89 188.08 222.67 187.422 222.265 186.902C221.86 186.382 221.173 186.144 220.203 186.187C219.355 186.224 218.718 186.539 218.293 187.13C217.87 187.756 217.676 188.476 217.712 189.29L218.035 196.589ZM231.053 191.848C231.13 192.4 231.386 192.892 231.821 193.324C232.273 193.738 232.906 193.926 233.72 193.89C234.326 193.864 234.787 193.696 235.103 193.387C235.42 193.095 235.57 192.75 235.552 192.352C235.537 192.006 235.402 191.717 235.149 191.485C234.896 191.253 234.516 191.096 234.009 191.015L232.121 190.682C230.985 190.489 230.116 190.068 229.514 189.418C228.915 188.803 228.595 188.045 228.555 187.144C228.531 186.607 228.629 186.074 228.848 185.544C229.036 185.084 229.346 184.637 229.778 184.201C230.177 183.819 230.65 183.512 231.195 183.28C231.739 183.03 232.348 182.89 233.024 182.86C233.89 182.822 234.631 182.919 235.249 183.152C235.848 183.351 236.355 183.633 236.77 183.996C237.148 184.309 237.442 184.686 237.653 185.128C237.861 185.535 237.998 185.885 238.063 186.177L235.55 187.017C235.547 186.947 235.478 186.751 235.342 186.427C235.245 186.206 235.106 186.004 234.925 185.821C234.708 185.623 234.467 185.468 234.201 185.359C233.936 185.249 233.579 185.204 233.128 185.224C232.592 185.248 232.165 185.406 231.848 185.697C231.515 186.007 231.357 186.361 231.375 186.759C231.39 187.105 231.515 187.386 231.75 187.601C231.986 187.834 232.305 187.976 232.706 188.027L234.645 188.332C235.852 188.539 236.781 188.966 237.435 189.614C238.072 190.297 238.411 191.098 238.452 192.015C238.473 192.483 238.398 192.963 238.229 193.457C238.043 193.951 237.768 194.397 237.404 194.794C237.007 195.228 236.519 195.571 235.94 195.822C235.327 196.092 234.631 196.244 233.852 196.279C232.934 196.32 232.149 196.224 231.497 195.993C230.863 195.778 230.32 195.472 229.869 195.076C229.436 194.713 229.106 194.311 228.879 193.87C228.633 193.413 228.494 193.02 228.462 192.692L231.053 191.848ZM244.596 182.739L247.219 182.622L247.338 185.298L244.714 185.414L244.974 191.284C244.998 191.838 245.146 192.231 245.416 192.462C245.688 192.71 246.1 192.822 246.655 192.797C246.793 192.791 247 192.765 247.276 192.718C247.328 192.715 247.371 192.714 247.405 192.712C247.457 192.692 247.5 192.682 247.534 192.68C247.569 192.679 247.595 192.678 247.612 192.677C247.646 192.658 247.672 192.648 247.689 192.647L247.799 195.141C247.782 195.142 247.739 195.152 247.671 195.173C247.619 195.192 247.551 195.221 247.466 195.26C247.398 195.28 247.321 195.31 247.236 195.348C246.979 195.429 246.556 195.482 245.968 195.508C244.808 195.56 243.867 195.272 243.145 194.644C242.44 194.016 242.062 193.105 242.009 191.91L241.727 185.546L239.389 185.65L239.271 182.974L239.92 182.945C240.596 182.916 241.081 182.703 241.375 182.309C241.67 181.896 241.805 181.422 241.781 180.885L241.697 178.989L244.424 178.868L244.596 182.739ZM249.322 191.768C249.297 191.214 249.379 190.707 249.567 190.248C249.706 189.86 249.957 189.467 250.321 189.07C250.67 188.724 251.058 188.456 251.483 188.263C252.01 188.032 252.506 187.871 252.971 187.781L256.196 187.144C256.575 187.075 256.821 186.951 256.934 186.773C257.049 186.629 257.101 186.436 257.091 186.193C257.067 185.657 256.856 185.206 256.458 184.842C256.061 184.495 255.447 184.34 254.616 184.377C253.819 184.412 253.214 184.656 252.801 185.108C252.403 185.542 252.176 186.099 252.12 186.778L249.339 186.276C249.365 185.702 249.507 185.176 249.763 184.696C250.018 184.181 250.362 183.724 250.796 183.323C251.179 182.959 251.702 182.632 252.366 182.343C252.979 182.09 253.684 181.946 254.481 181.911C255.451 181.868 256.279 181.961 256.966 182.191C257.67 182.42 258.239 182.742 258.674 183.156C259.144 183.587 259.478 184.075 259.676 184.621C259.909 185.184 260.039 185.777 260.067 186.4L260.345 192.686C260.366 193.153 260.403 193.611 260.458 194.06C260.528 194.456 260.572 194.671 260.591 194.705L257.785 194.829C257.766 194.795 257.734 194.641 257.687 194.365C257.637 194.02 257.603 193.64 257.584 193.224C257.328 193.704 256.881 194.184 256.242 194.663C255.603 195.108 254.781 195.352 253.777 195.397C253.119 195.426 252.516 195.349 251.97 195.165C251.459 194.979 251.005 194.721 250.609 194.392C250.212 194.045 249.908 193.642 249.697 193.183C249.47 192.759 249.345 192.288 249.322 191.768ZM254.243 193.008C254.676 192.989 255.072 192.911 255.43 192.773C255.806 192.652 256.136 192.456 256.419 192.183C256.67 191.964 256.88 191.625 257.051 191.166C257.206 190.76 257.27 190.237 257.241 189.596L257.216 189.025L253.939 189.664C253.492 189.753 253.101 189.944 252.767 190.236C252.451 190.528 252.304 190.934 252.327 191.453C252.346 191.886 252.519 192.26 252.845 192.575C253.171 192.891 253.637 193.035 254.243 193.008ZM266.701 194.434L263.688 194.568L263.128 181.918L266.063 181.788L266.138 183.477C266.521 182.731 267.052 182.178 267.73 181.819C268.392 181.477 269.078 181.29 269.787 181.259C270.567 181.225 271.248 181.325 271.831 181.559C272.378 181.778 272.87 182.112 273.306 182.561C273.709 183.029 274.01 183.553 274.209 184.134C274.427 184.749 274.551 185.394 274.581 186.07L274.935 194.07L271.922 194.203L271.591 186.723C271.556 185.926 271.336 185.268 270.931 184.748C270.526 184.228 269.839 183.989 268.869 184.032C268.021 184.07 267.384 184.384 266.959 184.976C266.536 185.602 266.342 186.322 266.378 187.136L266.701 194.434ZM281.45 181.107L284.074 180.991L284.192 183.666L281.569 183.782L281.828 189.653C281.853 190.207 282 190.599 282.271 190.83C282.542 191.079 282.955 191.19 283.509 191.166C283.647 191.16 283.855 191.133 284.13 191.086C284.182 191.084 284.225 191.082 284.26 191.081C284.311 191.061 284.354 191.05 284.389 191.049C284.423 191.047 284.449 191.046 284.467 191.045C284.5 191.027 284.526 191.017 284.543 191.016L284.654 193.51C284.636 193.51 284.594 193.521 284.525 193.541C284.474 193.561 284.406 193.59 284.321 193.628C284.252 193.649 284.175 193.678 284.09 193.717C283.834 193.797 283.411 193.851 282.822 193.877C281.662 193.928 280.721 193.64 279.999 193.013C279.295 192.385 278.916 191.473 278.863 190.278L278.581 183.915L276.244 184.018L276.125 181.343L276.775 181.314C277.45 181.284 277.935 181.072 278.23 180.677C278.524 180.265 278.659 179.791 278.635 179.254L278.551 177.358L281.279 177.237L281.45 181.107ZM287.133 193.53L286.301 174.724L289.314 174.591L290.146 193.397L287.133 193.53ZM294.6 198.326L297.346 191.568L291.45 180.664L294.853 180.514L298.844 188.353L301.892 180.202L305.087 180.061L297.821 198.184L294.6 198.326Z" fill="white"/>
	<rect x="13.7583" y="175.407" width="323.484" height="42.5425" rx="21.2712" transform="rotate(-2.53462 13.7583 175.407)" stroke="#C6CAD3" stroke-width="1.15425"/>
	<rect x="80.7863" y="54.9402" width="267.484" height="42.5425" rx="21.2712" transform="rotate(-5.53054 80.7863 54.9402)" fill="#191B20"/>
	<path d="M125.731 81.3155C124.472 81.4375 123.278 81.3354 122.149 81.0093C121.001 80.6677 119.958 80.1418 119.018 79.4317C118.057 78.6715 117.278 77.7368 116.683 76.6277C116.066 75.4685 115.686 74.147 115.542 72.6632C115.395 71.145 115.524 69.7829 115.93 68.5768C116.332 67.3363 116.925 66.2688 117.71 65.3744C118.476 64.4817 119.399 63.7567 120.477 63.1996C121.572 62.6408 122.698 62.3054 123.854 62.1935C125.027 62.0799 126.086 62.1427 127.033 62.382C127.958 62.5884 128.811 62.9412 129.59 63.4404C130.351 63.924 130.982 64.4985 131.481 65.1641C132.021 65.8782 132.422 66.6055 132.685 67.3463L129.856 68.6128C129.682 68.0724 129.425 67.5749 129.085 67.1202C128.743 66.6483 128.339 66.2521 127.873 65.9315C127.406 65.611 126.861 65.3764 126.237 65.2279C125.63 65.0776 124.93 65.0409 124.137 65.1178C123.36 65.193 122.632 65.4028 121.951 65.7473C121.255 66.1108 120.648 66.5875 120.131 67.1775C119.597 67.7863 119.208 68.5293 118.962 69.4065C118.699 70.2853 118.62 71.2681 118.725 72.355C118.827 73.4074 119.091 74.3396 119.518 75.1516C119.962 75.9619 120.477 76.5999 121.062 77.0657C121.721 77.5766 122.417 77.9358 123.151 78.1434C123.886 78.3509 124.649 78.4163 125.443 78.3394C126.254 78.2609 126.933 78.082 127.481 77.8025C128.111 77.4803 128.608 77.1274 128.972 76.7439C129.413 76.2658 129.751 75.7978 129.985 75.3397C130.244 74.7748 130.42 74.2528 130.513 73.7736L133.449 74.4296C133.316 75.2088 133.061 75.991 132.684 76.7763C132.325 77.5599 131.818 78.262 131.164 78.8826C130.513 79.5377 129.738 80.0742 128.838 80.4922C127.923 80.9292 126.887 81.2036 125.731 81.3155ZM144.268 77.7182C144.013 78.3176 143.571 78.7957 142.944 79.1525C142.301 79.5282 141.609 79.752 140.867 79.8238C140.125 79.8956 139.44 79.8314 138.811 79.6311C138.182 79.4308 137.655 79.1161 137.231 78.687C136.792 78.2941 136.431 77.798 136.146 77.1986C135.867 76.651 135.691 76.0062 135.619 75.2644L134.85 67.3195L137.852 67.0288L138.569 74.4302C138.607 74.827 138.695 75.193 138.832 75.528C138.933 75.8491 139.108 76.1368 139.359 76.3911C139.592 76.6299 139.879 76.811 140.222 76.9346C140.547 77.0598 140.934 77.1007 141.383 77.0572C142.28 76.9704 142.919 76.6386 143.298 76.062C143.681 75.5199 143.831 74.8262 143.75 73.9808L143.028 66.5277L146.03 66.237L147.027 76.5368C147.064 76.9164 147.125 77.3633 147.209 77.8775C147.286 78.3055 147.342 78.6222 147.38 78.8275L144.507 79.1057C144.476 78.9693 144.43 78.7648 144.369 78.4921C144.335 78.3212 144.302 78.0633 144.268 77.7182ZM151.929 74.2076C152.034 74.7546 152.316 75.2324 152.773 75.6409C153.246 76.0305 153.888 76.186 154.699 76.1075C155.303 76.049 155.754 75.8572 156.054 75.5322C156.355 75.2244 156.486 74.8721 156.448 74.4753C156.414 74.1303 156.265 73.8487 156 73.6305C155.735 73.4124 155.348 73.2757 154.837 73.2207L152.934 72.987C151.789 72.8541 150.9 72.4787 150.265 71.861C149.634 71.2778 149.275 70.5376 149.188 69.6405C149.136 69.1056 149.206 68.5677 149.398 68.0268C149.561 67.5582 149.847 67.0951 150.256 66.6376C150.635 66.2352 151.09 65.9038 151.622 65.6433C152.153 65.3655 152.754 65.1941 153.427 65.1289C154.29 65.0454 155.035 65.1038 155.664 65.3041C156.273 65.4716 156.794 65.7259 157.227 66.0671C157.621 66.3598 157.935 66.7212 158.168 67.1514C158.398 67.5471 158.553 67.8891 158.633 68.1774L156.167 69.1476C156.16 69.0786 156.081 68.886 155.928 68.5699C155.82 68.354 155.671 68.1595 155.48 67.9864C155.253 67.7994 155.004 67.6581 154.734 67.5623C154.463 67.4666 154.104 67.4405 153.655 67.4839C153.12 67.5357 152.702 67.7155 152.401 68.0233C152.085 68.35 151.945 68.7117 151.984 69.1086C152.017 69.4536 152.157 69.7274 152.403 69.93C152.651 70.1498 152.976 70.275 153.38 70.3056L155.332 70.5084C156.548 70.6519 157.499 71.03 158.185 71.6427C158.857 72.2916 159.238 73.0732 159.326 73.9876C159.371 74.4535 159.322 74.9371 159.179 75.4385C159.019 75.9417 158.768 76.4014 158.425 76.8177C158.051 77.2718 157.581 77.6395 157.017 77.9205C156.419 78.2222 155.732 78.4106 154.955 78.4858C154.041 78.5744 153.252 78.5201 152.589 78.3232C151.944 78.1418 151.386 77.8649 150.915 77.4926C150.464 77.1531 150.113 76.7691 149.863 76.3406C149.594 75.8965 149.434 75.5114 149.385 75.1853L151.929 74.2076ZM164.977 64.4024L167.59 64.1494L167.849 66.8149L165.235 67.068L165.801 72.9166C165.855 73.4687 166.022 73.853 166.305 74.0695C166.588 74.3032 167.006 74.3933 167.558 74.3399C167.696 74.3265 167.902 74.2892 168.175 74.228C168.226 74.223 168.269 74.2188 168.304 74.2155C168.354 74.1932 168.396 74.1804 168.431 74.177C168.465 74.1737 168.491 74.1712 168.508 74.1695C168.541 74.1489 168.566 74.1378 168.584 74.1361L168.824 76.6205C168.807 76.6222 168.765 76.635 168.697 76.6589C168.647 76.6812 168.581 76.7137 168.498 76.7566C168.43 76.7805 168.355 76.8139 168.272 76.8568C168.02 76.9509 167.601 77.0263 167.014 77.0831C165.858 77.195 164.904 76.9566 164.15 76.3678C163.414 75.7774 162.988 74.8869 162.873 73.6965L162.259 67.3561L159.93 67.5817L159.672 64.9161L160.319 64.8535C160.991 64.7883 161.465 64.5509 161.738 64.1413C162.011 63.7144 162.121 63.2336 162.069 62.6987L161.886 60.8096L164.603 60.5465L164.977 64.4024ZM175.352 73.5331C175.765 73.6672 176.213 73.7108 176.696 73.6641C177.179 73.6173 177.62 73.4876 178.017 73.275C178.397 73.064 178.743 72.7693 179.055 72.3908C179.368 72.0296 179.587 71.5905 179.711 71.0735C179.85 70.5375 179.889 69.9504 179.828 69.312C179.767 68.6909 179.617 68.1308 179.377 67.6316C179.158 67.1652 178.859 66.7762 178.481 66.4646C178.083 66.1373 177.688 65.9231 177.295 65.8218C176.865 65.6894 176.408 65.6466 175.925 65.6933C175.442 65.7401 175.01 65.869 174.63 66.0799C174.229 66.258 173.882 66.5441 173.59 66.9382C173.295 67.3149 173.077 67.7541 172.934 68.2555C172.773 68.7586 172.725 69.338 172.788 69.9936C172.852 70.6492 173.011 71.2171 173.267 71.6974C173.505 72.1794 173.804 72.5684 174.164 72.8644C174.508 73.1794 174.903 73.4023 175.352 73.5331ZM175.662 62.976C176.628 62.8825 177.515 62.962 178.323 63.2147C179.131 63.4673 179.866 63.8663 180.529 64.4117C181.134 64.9103 181.66 65.5734 182.106 66.4009C182.509 67.1456 182.758 68.0182 182.855 69.0189C182.952 70.0195 182.874 70.9239 182.622 71.732C182.359 72.6108 181.97 73.3624 181.456 73.9869C180.91 74.6492 180.265 75.1818 179.521 75.5848C178.726 76.01 177.871 76.2669 176.957 76.3555C176.06 76.4423 175.181 76.3533 174.319 76.0885C173.475 75.8219 172.739 75.4229 172.113 74.8915C171.489 74.3773 170.963 73.7142 170.536 72.9022C170.133 72.1576 169.883 71.2849 169.787 70.2843C169.69 69.2836 169.767 68.3792 170.02 67.5711C170.299 66.6734 170.688 65.9218 171.186 65.3162C171.699 64.6745 172.344 64.1419 173.121 63.7183C173.866 63.3153 174.713 63.0679 175.662 62.976ZM187.587 68.5346C187.702 69.7251 188.107 70.6698 188.801 71.3687C189.475 72.0349 190.33 72.3178 191.365 72.2176C191.831 72.1725 192.27 72.0342 192.683 71.8026C193.094 71.5538 193.421 71.2349 193.662 70.8459C193.906 70.4914 194.098 70.0461 194.237 69.5102C194.344 68.9948 194.369 68.4438 194.313 67.8572C194.196 66.6496 193.801 65.7213 193.129 65.0724C192.441 64.4424 191.605 64.175 190.622 64.2703C189.656 64.3638 188.879 64.796 188.292 65.5668C187.705 66.3377 187.47 67.3269 187.587 68.5346ZM197.604 71.6396C197.644 72.0537 197.71 72.5523 197.801 73.1356C197.86 73.5652 197.912 73.8301 197.957 73.9303L195.084 74.2084C195.055 74.0893 195.006 73.8503 194.936 73.4913C194.858 73.0461 194.812 72.7459 194.797 72.5906C194.571 73.1349 194.149 73.6372 193.532 74.0975C192.931 74.5389 192.181 74.803 191.284 74.8898C190.335 74.9817 189.49 74.8894 188.75 74.6128C187.976 74.3569 187.301 73.952 186.725 73.3983C186.116 72.8651 185.635 72.2065 185.28 71.4224C184.907 70.6226 184.675 69.7569 184.585 68.8253C184.499 67.9454 184.563 67.0772 184.776 66.2207C184.976 65.4003 185.322 64.6615 185.816 64.0042C186.306 63.3124 186.89 62.777 187.567 62.3979C188.31 61.9777 189.104 61.7267 189.949 61.6448C190.536 61.588 191.025 61.6016 191.416 61.6856C191.823 61.7507 192.2 61.8623 192.546 62.0203C192.913 62.2112 193.172 62.3776 193.326 62.5195C193.554 62.7238 193.721 62.9166 193.826 63.098L193.089 55.4896L196.013 55.2065L197.604 71.6396ZM202.529 78.6336L204.917 71.7413L198.46 61.1604L201.85 60.8321L206.245 68.452L208.863 60.1531L212.046 59.8449L205.738 78.3229L202.529 78.6336ZM220.243 71.7724L218.429 53.036L221.379 52.7504L222.123 60.4364C222.351 59.9094 222.8 59.4218 223.47 58.9738C224.089 58.5307 224.899 58.2608 225.9 58.1639C226.866 58.0703 227.718 58.1532 228.457 58.4125C229.233 58.6857 229.89 59.0923 230.43 59.6321C230.97 60.1719 231.409 60.8347 231.746 61.6205C232.068 62.4253 232.272 63.2762 232.359 64.1733C232.454 65.1567 232.401 66.05 232.2 66.8531C232.003 67.6907 231.683 68.4356 231.241 69.0879C230.781 69.7246 230.205 70.2506 229.513 70.6658C228.839 71.0793 228.028 71.3321 227.079 71.4239C226.165 71.5125 225.371 71.4065 224.697 71.106C223.989 70.8088 223.425 70.3759 223.004 69.8071L223.167 71.4893L220.243 71.7724ZM228.659 67.5094C229.231 66.7575 229.455 65.7518 229.334 64.4924C229.212 63.2329 228.807 62.2882 228.119 61.6583C227.415 61.0472 226.563 60.7902 225.563 60.887C224.596 60.9806 223.827 61.3947 223.253 62.1294C222.666 62.9002 222.433 63.9067 222.553 65.1489C222.615 65.7873 222.755 66.331 222.972 66.7801C223.214 67.2966 223.496 67.6959 223.82 67.978C224.128 68.2791 224.506 68.5036 224.956 68.6516C225.406 68.7997 225.863 68.8511 226.329 68.806C227.295 68.7125 228.072 68.2803 228.659 67.5094ZM236.442 75.3498L238.831 68.4575L232.373 57.8766L235.763 57.5484L240.158 65.1683L242.777 56.8693L245.96 56.5611L239.651 75.0391L236.442 75.3498ZM259.134 49.4865C259.98 49.4046 260.776 49.4494 261.524 49.6207C262.183 49.766 262.803 50.0542 263.384 50.4855C263.909 50.87 264.33 51.3517 264.647 51.9305C264.949 52.5282 265.134 53.1807 265.203 53.8881C265.296 54.8542 265.127 55.7152 264.695 56.471C264.227 57.2129 263.618 57.7595 262.869 58.1107C263.894 58.2726 264.738 58.7133 265.4 59.4329C266.082 60.1853 266.475 61.0963 266.579 62.166C266.652 62.9251 266.58 63.62 266.363 64.2505C266.116 64.9362 265.788 65.5078 265.379 65.9653C264.907 66.4812 264.337 66.8847 263.668 67.1758C262.986 67.5031 262.222 67.7077 261.377 67.7895L254.596 68.4461L252.82 50.0979L259.134 49.4865ZM259.472 57.2902C260.386 57.2017 261.071 56.9003 261.526 56.386C261.999 55.8701 262.197 55.2239 262.122 54.4476C262.047 53.6712 261.728 53.0752 261.165 52.6595C260.603 52.2438 259.847 52.0818 258.898 52.1737L256.155 52.4393L256.651 57.5634L259.472 57.2902ZM260.578 65.2025C261.509 65.1123 262.229 64.8076 262.736 64.2883C263.26 63.7673 263.482 63.0928 263.402 62.2647C263.325 61.471 263.003 60.8491 262.437 60.3989C261.889 59.947 261.131 59.7679 260.165 59.8614L256.904 60.1771L257.42 65.5082L260.578 65.2025ZM269.665 66.987L268.444 54.384L271.42 54.0958L272.641 66.6989L269.665 66.987ZM268.252 51.3202C267.837 50.9947 267.603 50.5559 267.55 50.0038C267.497 49.4517 267.641 48.9675 267.984 48.5512C268.327 48.1349 268.766 47.9008 269.3 47.8491C269.853 47.7956 270.337 47.9403 270.753 48.2831C271.169 48.6259 271.404 49.0733 271.458 49.6254C271.511 50.1775 271.366 50.6531 271.021 51.0521C270.678 51.4684 270.231 51.7033 269.679 51.7568C269.144 51.8086 268.668 51.6631 268.252 51.3202ZM278.713 53.3897L281.327 53.1366L281.585 55.8022L278.971 56.0553L279.537 61.9039C279.591 62.456 279.758 62.8403 280.041 63.0567C280.324 63.2905 280.742 63.3806 281.295 63.3272C281.433 63.3138 281.638 63.2765 281.911 63.2153C281.962 63.2103 282.005 63.2061 282.04 63.2027C282.09 63.1805 282.132 63.1677 282.167 63.1643C282.201 63.161 282.227 63.1585 282.245 63.1568C282.277 63.1362 282.302 63.1251 282.32 63.1234L282.56 65.6078C282.543 65.6095 282.501 65.6223 282.433 65.6462C282.383 65.6685 282.317 65.701 282.234 65.7439C282.166 65.7678 282.091 65.8012 282.008 65.8441C281.756 65.9381 281.337 66.0136 280.75 66.0704C279.594 66.1823 278.64 65.9439 277.886 65.3551C277.15 64.7646 276.724 63.8742 276.609 62.6838L275.995 56.3434L273.666 56.5689L273.408 53.9034L274.055 53.8408C274.727 53.7756 275.201 53.5382 275.475 53.1286C275.747 52.7017 275.857 52.2209 275.805 51.686L275.622 49.7969L278.339 49.5338L278.713 53.3897ZM299.193 64.1279L298.735 61.8213C298.545 62.2054 298.311 62.5677 298.03 62.9083C297.731 63.2333 297.353 63.5573 296.897 63.8801C296.456 64.184 295.941 64.4428 295.352 64.6565C294.781 64.8686 294.124 65.0105 293.382 65.0824C292.174 65.1993 291.015 65.0939 289.903 64.7662C288.757 64.4418 287.731 63.9142 286.825 63.1835C285.935 62.4512 285.183 61.514 284.567 60.372C283.95 59.2128 283.568 57.8827 283.423 56.3817C283.278 54.8807 283.406 53.5099 283.809 52.2694C284.211 51.0288 284.804 49.9614 285.588 49.067C286.372 48.1726 287.296 47.4562 288.358 46.918C289.403 46.3815 290.53 46.0547 291.737 45.9378C292.859 45.8292 293.883 45.8867 294.81 46.1104C295.753 46.3152 296.603 46.6421 297.361 47.0912C298.061 47.4935 298.705 48.0233 299.291 48.6806C299.841 49.3239 300.264 50.0056 300.56 50.7258L297.743 52.1217C297.541 51.6537 297.269 51.1837 296.928 50.7118C296.572 50.276 296.153 49.9073 295.671 49.6057C295.172 49.3058 294.628 49.0798 294.038 48.9279C293.414 48.7794 292.74 48.7402 292.015 48.8103C291.256 48.8838 290.536 49.0929 289.856 49.4374C289.174 49.7647 288.566 50.2328 288.033 50.8416C287.498 51.4333 287.099 52.1685 286.836 53.0473C286.557 53.945 286.472 54.9546 286.58 56.076C286.687 57.1801 286.954 58.1382 287.381 58.9502C287.81 59.7794 288.326 60.4347 288.93 60.9161C289.501 61.418 290.18 61.7789 290.968 61.9987C291.738 62.2202 292.511 62.2933 293.288 62.2182C294.202 62.1296 294.981 61.9061 295.626 61.5477C296.237 61.2098 296.73 60.8138 297.104 60.3597C297.478 59.9055 297.745 59.4269 297.906 58.9238C298.083 58.419 298.162 57.976 298.143 57.5947L292.087 58.1811L291.824 55.4638L300.804 54.5943L301.703 63.8848L299.193 64.1279ZM308.892 60.6027C309.306 60.7368 309.754 60.7805 310.237 60.7337C310.72 60.6869 311.16 60.5573 311.558 60.3446C311.938 60.1337 312.284 59.839 312.595 59.4605C312.909 59.0993 313.127 58.6602 313.251 58.1432C313.391 57.6072 313.43 57.02 313.368 56.3817C313.308 55.7606 313.158 55.2005 312.918 54.7012C312.699 54.2349 312.4 53.8459 312.021 53.5342C311.624 53.207 311.229 52.9928 310.836 52.8915C310.405 52.7591 309.948 52.7162 309.465 52.763C308.982 52.8098 308.55 52.9386 308.17 53.1496C307.77 53.3277 307.423 53.6138 307.13 54.0078C306.836 54.3846 306.617 54.8237 306.474 55.3252C306.314 55.8283 306.266 56.4077 306.329 57.0633C306.392 57.7189 306.552 58.2868 306.807 58.7671C307.046 59.249 307.345 59.638 307.704 59.9341C308.048 60.2491 308.444 60.472 308.892 60.6027ZM309.202 50.0457C310.168 49.9522 311.055 50.0317 311.863 50.2843C312.672 50.537 313.407 50.936 314.069 51.4813C314.675 51.98 315.2 52.643 315.646 53.4706C316.049 54.2152 316.299 55.0879 316.396 56.0885C316.493 57.0892 316.415 57.9936 316.162 58.8017C315.899 59.6805 315.51 60.4321 314.996 61.0565C314.451 61.7189 313.806 62.2515 313.061 62.6545C312.266 63.0797 311.412 63.3366 310.498 63.4251C309.6 63.512 308.721 63.423 307.86 63.1581C307.015 62.8916 306.28 62.4926 305.654 61.9611C305.029 61.4469 304.504 60.7838 304.077 59.9719C303.674 59.2272 303.424 58.3546 303.327 57.3539C303.23 56.3533 303.308 55.4489 303.561 54.6408C303.839 53.7431 304.228 52.9915 304.727 52.3859C305.239 51.7442 305.884 51.2116 306.662 50.788C307.406 50.385 308.253 50.1376 309.202 50.0457Z" fill="white"/>
	<rect x="80.7863" y="54.9402" width="267.484" height="42.5425" rx="21.2712" transform="rotate(-5.53054 80.7863 54.9402)" stroke="#C6CAD3" stroke-width="1.15425"/>
	<rect x="9.17107" y="94.7028" width="222.484" height="42.5425" rx="21.2712" transform="rotate(10.3716 9.17107 94.7028)" fill="url(#paint0_linear_10384_76274)"/>
	<path d="M48.6705 119.174C48.6662 118.909 48.6185 118.592 48.5275 118.223C48.4643 117.894 48.3073 117.548 48.0566 117.185C47.8198 116.842 47.5124 116.548 47.1344 116.302C46.7084 116.031 46.2055 115.842 45.6258 115.736C45.1484 115.648 44.7081 115.647 44.3049 115.732C43.9622 115.775 43.604 115.903 43.2301 116.117C42.9369 116.274 42.6738 116.508 42.4409 116.818C42.2282 117.114 42.0906 117.432 42.0282 117.773C41.9252 118.336 42.0052 118.862 42.2682 119.35C42.5514 119.825 43.0369 120.205 43.725 120.489L46.2353 121.504C47.7788 122.121 48.8824 122.975 49.5462 124.066C50.21 125.156 50.4249 126.341 50.1909 127.62C50.0661 128.302 49.7963 128.957 49.3816 129.586C48.9871 130.201 48.4703 130.714 47.8311 131.126C47.212 131.524 46.4636 131.81 45.5859 131.984C44.7284 132.144 43.7881 132.131 42.7651 131.943C41.5546 131.722 40.5798 131.367 39.8409 130.88C39.0818 130.406 38.4538 129.842 37.9569 129.187C37.4941 128.538 37.1685 127.862 36.9802 127.158C36.8058 126.474 36.7384 125.783 36.778 125.086L39.7922 124.791C39.7622 125.244 39.7988 125.718 39.9021 126.212C39.9977 126.653 40.1918 127.085 40.4843 127.508C40.797 127.918 41.1733 128.269 41.6133 128.561C42.0703 128.856 42.6228 129.063 43.2707 129.181C44.3789 129.384 45.241 129.295 45.857 128.915C46.5101 128.523 46.9006 127.978 47.0286 127.279C47.1409 126.665 47.023 126.106 46.6747 125.602C46.3575 125.121 45.8153 124.713 45.0483 124.379L42.5891 123.374C41.2611 122.831 40.2504 122.047 39.557 121.021C38.8776 120.016 38.6643 118.823 38.917 117.442C39.0606 116.657 39.3552 115.962 39.8008 115.357C40.2667 114.737 40.8176 114.23 41.4537 113.835C42.1472 113.416 42.8669 113.143 43.6127 113.015C44.4331 112.865 45.2609 112.867 46.0964 113.02C47.1535 113.213 48.0392 113.525 48.7534 113.956C49.4366 114.363 49.9918 114.843 50.4191 115.397C50.8324 115.931 51.1325 116.506 51.3194 117.121C51.4986 117.683 51.5894 118.246 51.5918 118.81L48.6705 119.174ZM60.0363 133.281C59.6264 133.787 59.071 134.126 58.37 134.297C57.6489 134.482 56.9218 134.508 56.1886 134.374C55.4554 134.24 54.8139 133.99 54.2639 133.625C53.714 133.26 53.2936 132.813 53.0028 132.284C52.6886 131.786 52.4769 131.21 52.3676 130.556C52.2489 129.952 52.2567 129.284 52.3908 128.551L53.8279 120.699L56.7946 121.242L55.4559 128.557C55.3841 128.949 55.3682 129.325 55.408 129.685C55.417 130.021 55.5073 130.346 55.679 130.659C55.8368 130.953 56.0636 131.206 56.3595 131.418C56.6383 131.628 56.9994 131.773 57.4427 131.854C58.3293 132.017 59.0341 131.873 59.5571 131.422C60.0738 131.006 60.4086 130.38 60.5615 129.544L61.9096 122.179L64.8763 122.721L63.0134 132.9C62.9447 133.276 62.8806 133.722 62.8211 134.24C62.7772 134.672 62.7451 134.992 62.7247 135.2L59.8858 134.68C59.8937 134.541 59.9056 134.332 59.9214 134.053C59.9356 133.879 59.9739 133.622 60.0363 133.281ZM65.014 140.641L68.1829 123.327L71.0473 123.851L70.7384 125.539C71.1653 125.036 71.7456 124.657 72.4792 124.404C73.2299 124.153 74.0911 124.117 75.063 124.295C76.0007 124.467 76.7895 124.779 77.4293 125.23C78.069 125.682 78.5815 126.252 78.9668 126.939C79.3659 127.647 79.6162 128.397 79.7176 129.191C79.8267 130.039 79.797 130.924 79.6285 131.844C79.4537 132.799 79.1597 133.635 78.7465 134.353C78.31 135.101 77.7915 135.72 77.1909 136.209C76.5702 136.712 75.8636 137.058 75.0712 137.248C74.3267 137.464 73.4942 137.488 72.5735 137.32C71.6357 137.148 70.8911 136.836 70.3397 136.382C69.7372 135.92 69.3246 135.43 69.102 134.913L67.9552 141.179L65.014 140.641ZM76.6618 131.301C76.8802 130.108 76.7449 129.114 76.2559 128.32C75.7701 127.508 75.0242 127.01 74.0182 126.826C73.5408 126.739 73.0718 126.75 72.6112 126.86C72.1507 126.969 71.7543 127.161 71.4222 127.435C71.07 127.723 70.7649 128.09 70.507 128.536C70.2523 128.965 70.0703 129.478 69.9611 130.075C69.7395 131.286 69.8802 132.298 70.3831 133.113C70.9031 133.93 71.6404 134.426 72.5952 134.601C73.5842 134.782 74.4495 134.579 75.1912 133.993C75.95 133.409 76.4402 132.512 76.6618 131.301ZM80.1403 143.41L83.3093 126.095L86.1737 126.619L85.8647 128.307C86.2917 127.804 86.8719 127.426 87.6055 127.172C88.3562 126.922 89.2175 126.886 90.1893 127.064C91.1271 127.235 91.9158 127.547 92.5556 127.999C93.1954 128.451 93.7079 129.02 94.0931 129.708C94.4923 130.415 94.7425 131.166 94.8439 131.96C94.953 132.808 94.9233 133.692 94.7548 134.613C94.5801 135.568 94.2861 136.404 93.8728 137.121C93.4363 137.869 92.9178 138.488 92.3172 138.977C91.6965 139.48 90.9899 139.827 90.1975 140.017C89.4531 140.233 88.6205 140.257 87.6998 140.088C86.762 139.917 86.0175 139.604 85.4661 139.151C84.8635 138.688 84.4509 138.198 84.2283 137.682L83.0815 143.948L80.1403 143.41ZM91.7881 134.07C92.0065 132.876 91.8712 131.882 91.3823 131.088C90.8964 130.277 90.1505 129.779 89.1445 129.595C88.6671 129.507 88.1981 129.519 87.7376 129.628C87.277 129.738 86.8806 129.929 86.5486 130.203C86.1963 130.491 85.8912 130.858 85.6333 131.305C85.3786 131.734 85.1966 132.247 85.0874 132.843C84.8658 134.054 85.0065 135.067 85.5094 135.881C86.0294 136.699 86.7668 137.195 87.7216 137.37C88.7105 137.551 89.5758 137.348 90.3175 136.761C91.0763 136.178 91.5665 135.28 91.7881 134.07ZM100.967 139.582C101.328 139.825 101.747 139.99 102.225 140.077C102.702 140.164 103.161 140.16 103.601 140.065C104.025 139.966 104.438 139.777 104.842 139.499C105.242 139.237 105.573 138.875 105.834 138.411C106.115 137.934 106.313 137.38 106.428 136.749C106.541 136.136 106.55 135.556 106.456 135.01C106.373 134.501 106.192 134.045 105.914 133.642C105.621 133.218 105.3 132.904 104.95 132.699C104.572 132.454 104.144 132.287 103.666 132.2C103.189 132.112 102.739 132.118 102.315 132.217C101.881 132.278 101.469 132.458 101.08 132.757C100.693 133.039 100.363 133.401 100.088 133.844C99.7959 134.284 99.5906 134.828 99.472 135.476C99.3534 136.124 99.3512 136.714 99.4653 137.246C99.5624 137.775 99.7432 138.231 100.008 138.614C100.252 139.011 100.572 139.334 100.967 139.582ZM104.158 129.514C105.113 129.689 105.944 130.009 106.652 130.473C107.36 130.937 107.958 131.523 108.445 132.229C108.891 132.874 109.215 133.656 109.417 134.574C109.6 135.4 109.602 136.308 109.421 137.297C109.24 138.286 108.917 139.134 108.453 139.842C107.959 140.615 107.379 141.232 106.713 141.691C106.007 142.179 105.241 142.514 104.415 142.698C103.534 142.889 102.642 142.902 101.738 142.737C100.851 142.574 100.03 142.248 99.274 141.757C98.5351 141.27 97.9373 140.684 97.4808 140.002C97.0211 139.336 96.6972 138.554 96.5091 137.656C96.3256 136.83 96.3243 135.922 96.5053 134.933C96.6863 133.944 97.009 133.096 97.4734 132.388C97.9874 131.601 98.5672 130.985 99.2127 130.539C99.8814 130.062 100.648 129.727 101.511 129.532C102.338 129.349 103.22 129.343 104.158 129.514ZM119.813 135.816C119.481 135.702 119.162 135.617 118.855 135.561C117.696 135.349 116.794 135.51 116.15 136.044C115.486 136.592 115.048 137.446 114.835 138.605L113.75 144.539L110.783 143.996L113.062 131.541L115.952 132.07L115.587 134.064C115.979 133.466 116.544 133.024 117.284 132.736C117.984 132.477 118.751 132.423 119.587 132.576C119.825 132.62 119.986 132.658 120.068 132.691C120.102 132.697 120.152 132.715 120.217 132.744C120.285 132.757 120.334 132.775 120.365 132.798L119.813 135.816ZM126.232 133.951L128.815 134.424L128.333 137.058L125.75 136.585L124.692 142.365C124.593 142.911 124.649 143.326 124.861 143.612C125.07 143.914 125.447 144.116 125.993 144.216C126.129 144.24 126.337 144.261 126.616 144.277C126.667 144.286 126.709 144.294 126.744 144.3C126.798 144.292 126.842 144.292 126.876 144.298C126.91 144.304 126.936 144.309 126.953 144.312C126.99 144.301 127.017 144.297 127.034 144.3L126.585 146.756C126.568 146.753 126.524 146.753 126.452 146.758C126.398 146.766 126.325 146.779 126.234 146.797C126.162 146.802 126.081 146.813 125.989 146.832C125.721 146.853 125.297 146.811 124.718 146.705C123.575 146.496 122.722 146.005 122.159 145.232C121.613 144.462 121.447 143.489 121.662 142.313L122.809 136.047L120.507 135.626L120.989 132.991L121.629 133.108C122.294 133.23 122.814 133.132 123.19 132.813C123.568 132.477 123.806 132.044 123.903 131.516L124.244 129.649L126.93 130.14L126.232 133.951ZM136.491 136.595C136.487 136.33 136.516 136.027 136.578 135.686C136.718 134.919 137.001 134.195 137.425 133.515C137.846 132.852 138.369 132.304 138.994 131.873C139.619 131.441 140.372 131.129 141.253 130.938C142.08 130.754 143.005 130.756 144.028 130.944C144.965 131.115 145.817 131.421 146.582 131.86C147.276 132.305 147.849 132.832 148.301 133.444C148.753 134.055 149.053 134.727 149.201 135.459C149.352 136.174 149.356 136.923 149.213 137.708C148.994 138.901 148.492 139.91 147.707 140.736C146.898 141.592 145.916 142.241 144.76 142.681L140.794 144.281C140.303 144.456 139.826 144.703 139.362 145.024C138.916 145.347 138.589 145.737 138.382 146.192L147.461 147.854L146.956 150.616L134.091 148.262C134.272 147.467 134.49 146.758 134.745 146.135C135.014 145.532 135.378 144.938 135.838 144.352C136.271 143.815 136.819 143.325 137.481 142.882C138.147 142.422 138.897 142.031 139.731 141.708L143.075 140.337C143.987 139.976 144.694 139.532 145.195 139.007C145.676 138.496 145.981 137.891 146.109 137.192C146.183 136.783 146.192 136.397 146.136 136.034C146.068 135.634 145.922 135.273 145.7 134.95C145.491 134.647 145.19 134.363 144.798 134.098C144.434 133.873 143.988 133.712 143.459 133.615C142.88 133.509 142.37 133.504 141.929 133.599C141.506 133.698 141.118 133.891 140.766 134.179C140.427 134.487 140.163 134.827 139.972 135.197C139.751 135.632 139.6 136.072 139.519 136.515C139.485 136.702 139.467 136.849 139.465 136.954L139.432 137.424L136.491 136.595ZM149.967 143.502L159.626 134.195L163.693 134.939L161.61 146.32L164.653 146.877L164.152 149.614L161.109 149.057L160.374 153.072L157.382 152.524L158.116 148.509L149.344 146.903L149.967 143.502ZM160.148 137.409L152.607 144.672L158.617 145.772L160.148 137.409ZM167.17 154.316L164.433 153.815L176.575 137.297L179.312 137.798L167.17 154.316ZM193.02 143.188C192.962 143.212 192.557 143.455 191.803 143.917C191.244 144.272 190.673 144.697 190.089 145.189C189.509 145.664 188.858 146.285 188.136 147.052C187.411 147.835 186.735 148.69 186.108 149.614C185.463 150.536 184.827 151.653 184.199 152.966C183.578 154.244 183.067 155.639 182.666 157.152L179.495 156.572C179.841 155.26 180.248 154.093 180.718 153.068C181.18 151.99 181.678 150.998 182.214 150.091C182.8 149.106 183.353 148.3 183.873 147.672C184.62 146.769 185.178 146.123 185.549 145.732C186.79 144.444 188.132 143.368 189.576 142.505L179.653 140.688L180.154 137.952L193.53 140.4L193.02 143.188Z" fill="#191B20"/>
	<rect x="9.17107" y="94.7028" width="222.484" height="42.5425" rx="21.2712" transform="rotate(10.3716 9.17107 94.7028)" stroke="#C6CAD3" stroke-width="1.15425"/>
	<rect x="89.9346" y="75.3509" width="283.484" height="42.5425" rx="21.2712" transform="rotate(5.59463 89.9346 75.3509)" fill="#FFFB1F"/>
	<path d="M121.14 96.7813C121.114 96.5174 121.117 96.213 121.151 95.868C121.227 95.0917 121.448 94.347 121.814 93.634C122.178 92.9382 122.654 92.3491 123.241 91.8667C123.828 91.3843 124.553 91.0111 125.415 90.7472C126.223 90.4955 127.145 90.4204 128.18 90.5217C129.129 90.6147 130.003 90.8483 130.802 91.2227C131.531 91.6076 132.146 92.0858 132.647 92.6574C133.148 93.229 133.503 93.8733 133.711 94.5904C133.922 95.2902 133.988 96.0369 133.91 96.8304C133.792 98.038 133.376 99.0857 132.662 99.9737C131.927 100.894 131.002 101.622 129.888 102.158L126.068 104.082C125.594 104.297 125.139 104.584 124.703 104.942C124.285 105.301 123.992 105.717 123.824 106.188L133.01 107.088L132.736 109.882L119.72 108.607C119.834 107.8 119.992 107.075 120.195 106.433C120.412 105.81 120.726 105.188 121.135 104.566C121.522 103.994 122.027 103.46 122.65 102.964C123.276 102.45 123.99 101.998 124.795 101.607L128.013 99.9624C128.891 99.526 129.559 99.0253 130.015 98.4604C130.452 97.9111 130.705 97.2828 130.774 96.5755C130.815 96.1615 130.791 95.776 130.704 95.4192C130.604 95.0262 130.429 94.6781 130.18 94.3751C129.946 94.091 129.623 93.8329 129.211 93.6009C128.829 93.4068 128.371 93.2835 127.836 93.2311C127.249 93.1737 126.741 93.2109 126.31 93.3429C125.896 93.4765 125.526 93.7015 125.199 94.0178C124.887 94.353 124.652 94.7131 124.492 95.098C124.308 95.5503 124.195 96.0007 124.151 96.4492C124.132 96.6389 124.126 96.7864 124.134 96.8916L124.14 97.3625L121.14 96.7813ZM135.962 110.198L137.759 91.8519L149.17 92.9697L148.884 95.8938L140.578 95.0801L140.073 100.229L147.525 100.959L147.244 103.832L139.792 103.102L139.067 110.502L135.962 110.198ZM160.259 107.928L152.496 107.168L150.337 111.606L147.05 111.284L155.989 93.6377L159.586 93.9901L164.931 113.036L161.541 112.704L160.259 107.928ZM153.864 104.402L159.453 104.949L157.394 97.1715L153.864 104.402ZM171.39 110.22C171.444 109.668 171.597 109.178 171.848 108.75C172.04 108.385 172.345 108.032 172.761 107.69C173.156 107.397 173.577 107.186 174.025 107.056C174.58 106.901 175.094 106.812 175.566 106.789L178.849 106.614C179.234 106.6 179.495 106.512 179.632 106.351C179.767 106.225 179.846 106.041 179.869 105.8C179.922 105.265 179.777 104.789 179.434 104.373C179.09 103.973 178.504 103.733 177.676 103.652C176.883 103.574 176.249 103.73 175.776 104.119C175.321 104.492 175.018 105.011 174.866 105.675L172.184 104.786C172.291 104.221 172.506 103.72 172.827 103.281C173.152 102.808 173.558 102.404 174.043 102.068C174.474 101.762 175.038 101.512 175.736 101.319C176.379 101.156 177.098 101.113 177.891 101.191C178.857 101.286 179.664 101.495 180.311 101.82C180.976 102.146 181.494 102.545 181.866 103.017C182.271 103.51 182.532 104.04 182.651 104.609C182.802 105.199 182.847 105.804 182.786 106.425L182.173 112.687C182.127 113.153 182.1 113.612 182.09 114.064C182.103 114.465 182.117 114.684 182.13 114.721L179.336 114.447C179.322 114.411 179.311 114.253 179.304 113.974C179.303 113.625 179.323 113.244 179.364 112.83C179.042 113.269 178.531 113.68 177.832 114.064C177.136 114.414 176.287 114.54 175.287 114.442C174.631 114.378 174.046 114.216 173.532 113.957C173.052 113.701 172.639 113.382 172.293 112.999C171.949 112.6 171.705 112.158 171.561 111.674C171.396 111.222 171.339 110.738 171.39 110.22ZM176.087 112.143C176.518 112.185 176.921 112.164 177.295 112.079C177.685 112.012 178.039 111.864 178.357 111.634C178.636 111.452 178.893 111.147 179.126 110.717C179.338 110.337 179.475 109.828 179.537 109.189L179.593 108.62L176.259 108.79C175.803 108.815 175.39 108.949 175.018 109.191C174.663 109.435 174.46 109.815 174.409 110.333C174.367 110.764 174.485 111.159 174.764 111.517C175.042 111.875 175.483 112.084 176.087 112.143ZM193.556 114.429C193.189 114.968 192.664 115.352 191.98 115.581C191.277 115.826 190.554 115.912 189.812 115.839C189.071 115.766 188.411 115.571 187.832 115.253C187.254 114.935 186.798 114.525 186.464 114.022C186.109 113.552 185.85 112.995 185.687 112.352C185.518 111.761 185.47 111.094 185.543 110.353L186.321 102.409L189.323 102.703L188.598 110.103C188.559 110.5 188.574 110.876 188.644 111.231C188.681 111.566 188.798 111.882 188.995 112.18C189.177 112.459 189.424 112.692 189.737 112.879C190.032 113.065 190.404 113.18 190.852 113.224C191.749 113.312 192.44 113.109 192.923 112.617C193.404 112.159 193.685 111.507 193.768 110.662L194.498 103.21L197.5 103.504L196.491 113.802C196.454 114.182 196.427 114.632 196.411 115.153C196.403 115.588 196.398 115.909 196.395 116.118L193.522 115.837C193.519 115.697 193.513 115.487 193.506 115.208C193.505 115.034 193.522 114.774 193.556 114.429ZM204.804 104.219L207.418 104.475L207.157 107.14L204.543 106.884L203.97 112.732C203.916 113.284 204.007 113.694 204.242 113.961C204.475 114.245 204.868 114.414 205.42 114.468C205.558 114.481 205.767 114.484 206.046 114.477C206.098 114.482 206.141 114.486 206.175 114.49C206.229 114.477 206.273 114.473 206.307 114.476C206.342 114.48 206.368 114.482 206.385 114.484C206.421 114.47 206.448 114.464 206.465 114.466L206.222 116.95C206.205 116.948 206.161 116.953 206.09 116.963C206.036 116.975 205.965 116.994 205.875 117.02C205.805 117.031 205.724 117.049 205.635 117.075C205.369 117.119 204.943 117.112 204.357 117.055C203.201 116.941 202.31 116.523 201.684 115.8C201.076 115.079 200.83 114.123 200.946 112.932L201.567 106.593L199.239 106.365L199.5 103.699L200.147 103.763C200.819 103.829 201.33 103.687 201.677 103.338C202.027 102.972 202.227 102.521 202.28 101.986L202.465 100.097L205.182 100.364L204.804 104.219ZM211.675 117.615L208.673 117.321L210.509 98.5864L213.51 98.8804L212.79 106.229C213.293 105.721 213.876 105.369 214.54 105.173C215.236 104.997 215.904 104.941 216.542 105.003C217.318 105.079 217.987 105.275 218.548 105.591C219.059 105.885 219.499 106.285 219.867 106.792C220.201 107.295 220.433 107.857 220.564 108.48C220.693 109.119 220.724 109.776 220.659 110.448L219.878 118.418L216.876 118.124L217.606 110.672C217.684 109.878 217.559 109.196 217.232 108.624C216.905 108.052 216.258 107.718 215.292 107.624C214.464 107.543 213.808 107.748 213.325 108.241C212.803 108.765 212.495 109.422 212.4 110.214L211.675 117.615ZM232.308 111.877C232.314 111.459 232.279 111.108 232.202 110.822C232.096 110.48 231.927 110.159 231.696 109.858C231.462 109.573 231.163 109.335 230.799 109.143C230.417 108.949 229.977 108.827 229.476 108.778C228.993 108.731 228.571 108.776 228.209 108.915C227.814 109.033 227.475 109.209 227.191 109.442C226.884 109.726 226.648 110.007 226.481 110.287C226.312 110.584 226.193 110.912 226.123 111.271L232.308 111.877ZM234.779 116.247C234.532 116.815 234.231 117.308 233.877 117.726C233.483 118.192 233.036 118.575 232.537 118.874C232.001 119.188 231.421 119.418 230.797 119.566C230.156 119.712 229.455 119.748 228.696 119.674C227.834 119.589 227.03 119.354 226.284 118.967C225.552 118.617 224.913 118.11 224.369 117.447C223.821 116.819 223.424 116.066 223.179 115.189C222.898 114.325 222.81 113.359 222.915 112.289C223.011 111.306 223.272 110.417 223.698 109.623C224.125 108.829 224.641 108.182 225.247 107.685C225.873 107.154 226.573 106.769 227.345 106.532C228.102 106.275 228.885 106.186 229.696 106.266C230.662 106.36 231.518 106.601 232.264 106.987C232.976 107.37 233.579 107.874 234.076 108.497C234.522 109.098 234.851 109.827 235.063 110.684C235.263 111.487 235.313 112.398 235.214 113.415C235.183 113.726 235.153 113.941 235.124 114.06L235.042 114.365L225.83 113.463C225.8 113.948 225.861 114.398 226.011 114.813C226.162 115.228 226.379 115.598 226.66 115.922C226.942 116.245 227.282 116.514 227.679 116.727C228.043 116.919 228.467 117.039 228.95 117.086C229.881 117.178 230.609 117.04 231.132 116.673C231.658 116.289 232.054 115.797 232.322 115.196L234.779 116.247ZM240.111 120.4L237.109 120.106L238.343 107.504L241.267 107.791L241.103 109.473C241.588 108.789 242.191 108.317 242.913 108.057C243.616 107.812 244.322 107.724 245.029 107.794C245.805 107.87 246.465 108.065 247.009 108.379C247.52 108.673 247.96 109.073 248.329 109.58C248.661 110.1 248.884 110.662 248.999 111.265C249.128 111.905 249.16 112.561 249.094 113.234L248.313 121.204L245.312 120.91L246.042 113.457C246.119 112.664 245.995 111.981 245.668 111.409C245.34 110.837 244.694 110.504 243.728 110.409C242.883 110.326 242.208 110.548 241.703 111.073C241.196 111.633 240.902 112.318 240.823 113.129L240.111 120.4ZM256.596 109.292L259.209 109.548L258.948 112.214L256.335 111.958L255.762 117.806C255.708 118.358 255.798 118.767 256.034 119.034C256.267 119.318 256.66 119.487 257.212 119.541C257.35 119.555 257.558 119.558 257.838 119.55C257.89 119.555 257.933 119.56 257.967 119.563C258.021 119.551 258.065 119.546 258.099 119.55C258.134 119.553 258.159 119.556 258.177 119.557C258.213 119.544 258.24 119.537 258.257 119.539L258.014 122.023C257.996 122.022 257.952 122.026 257.882 122.036C257.828 122.049 257.757 122.068 257.667 122.094C257.596 122.104 257.516 122.123 257.427 122.149C257.161 122.192 256.735 122.185 256.148 122.128C254.993 122.015 254.102 121.597 253.476 120.873C252.867 120.152 252.621 119.196 252.738 118.006L253.359 111.666L251.03 111.438L251.291 108.773L251.938 108.836C252.611 108.902 253.121 108.76 253.469 108.411C253.818 108.045 254.019 107.594 254.072 107.06L254.257 105.171L256.974 105.437L256.596 109.292ZM260.465 122.394L261.7 109.792L264.675 110.084L263.441 122.686L260.465 122.394ZM262.102 106.749C261.758 106.35 261.613 105.874 261.667 105.322C261.721 104.77 261.957 104.323 262.373 103.98C262.79 103.638 263.266 103.493 263.801 103.545C264.353 103.599 264.8 103.835 265.142 104.252C265.485 104.668 265.629 105.153 265.575 105.705C265.52 106.257 265.286 106.695 264.871 107.02C264.454 107.363 263.97 107.507 263.418 107.453C262.883 107.4 262.445 107.166 262.102 106.749ZM273.442 113.346C272.959 113.299 272.51 113.342 272.097 113.475C271.629 113.621 271.243 113.836 270.936 114.119C270.557 114.431 270.259 114.811 270.041 115.26C269.8 115.758 269.651 116.31 269.591 116.914C269.532 117.517 269.572 118.087 269.711 118.623C269.835 119.141 270.053 119.58 270.366 119.942C270.643 120.317 270.988 120.612 271.403 120.827C271.8 121.04 272.24 121.17 272.723 121.217C273.189 121.263 273.627 121.228 274.039 121.111C274.4 120.99 274.73 120.822 275.029 120.607C275.332 120.358 275.555 120.128 275.698 119.915C275.856 119.722 275.993 119.483 276.108 119.198L278.653 120.414C278.451 120.882 278.17 121.35 277.81 121.82C277.451 122.29 277.02 122.692 276.517 123.026C275.941 123.387 275.341 123.651 274.715 123.816C274.019 123.992 273.265 124.04 272.454 123.96C271.557 123.872 270.711 123.615 269.917 123.189C269.156 122.784 268.52 122.251 268.01 121.592C267.512 120.986 267.124 120.234 266.846 119.336C266.582 118.474 266.497 117.568 266.59 116.62C266.688 115.619 266.939 114.747 267.343 114.003C267.77 113.191 268.297 112.529 268.922 112.015C269.585 111.47 270.312 111.071 271.103 110.818C271.894 110.565 272.755 110.483 273.687 110.575C274.515 110.656 275.254 110.85 275.903 111.157C276.485 111.441 277.023 111.816 277.517 112.282C277.978 112.728 278.323 113.206 278.552 113.716C278.81 114.281 278.977 114.803 279.052 115.28L276.264 116C276.205 115.715 276.129 115.421 276.037 115.115C275.939 114.879 275.765 114.61 275.516 114.307C275.279 114.057 274.995 113.846 274.663 113.675C274.315 113.501 273.907 113.392 273.442 113.346ZM280.119 120.871C280.173 120.319 280.326 119.829 280.577 119.4C280.769 119.036 281.074 118.683 281.491 118.34C281.885 118.048 282.306 117.837 282.754 117.707C283.309 117.552 283.823 117.463 284.296 117.44L287.578 117.265C287.963 117.25 288.224 117.163 288.362 117.002C288.496 116.876 288.575 116.692 288.599 116.45C288.651 115.916 288.506 115.44 288.164 115.023C287.82 114.624 287.234 114.384 286.406 114.302C285.612 114.225 284.979 114.38 284.505 114.769C284.05 115.143 283.747 115.662 283.595 116.326L280.913 115.436C281.02 114.872 281.235 114.371 281.557 113.932C281.882 113.459 282.287 113.054 282.773 112.719C283.203 112.413 283.768 112.163 284.466 111.97C285.109 111.807 285.827 111.764 286.621 111.842C287.587 111.936 288.393 112.146 289.041 112.471C289.705 112.797 290.224 113.196 290.595 113.668C291 114.16 291.262 114.691 291.38 115.26C291.531 115.849 291.576 116.455 291.516 117.076L290.902 123.338C290.857 123.804 290.829 124.262 290.82 124.714C290.833 125.116 290.846 125.335 290.86 125.371L288.065 125.098C288.051 125.061 288.041 124.904 288.033 124.624C288.032 124.276 288.052 123.895 288.093 123.481C287.771 123.919 287.261 124.331 286.561 124.715C285.865 125.065 285.017 125.191 284.016 125.093C283.361 125.029 282.776 124.867 282.261 124.607C281.781 124.351 281.368 124.032 281.023 123.65C280.679 123.251 280.435 122.809 280.29 122.324C280.126 121.873 280.069 121.388 280.119 120.871ZM284.816 122.794C285.248 122.836 285.65 122.815 286.024 122.729C286.414 122.663 286.768 122.515 287.087 122.285C287.366 122.103 287.622 121.797 287.856 121.367C288.067 120.988 288.204 120.478 288.267 119.84L288.322 119.271L284.988 119.441C284.533 119.466 284.119 119.599 283.747 119.842C283.392 120.085 283.189 120.466 283.139 120.984C283.096 121.415 283.215 121.81 283.493 122.168C283.771 122.526 284.212 122.735 284.816 122.794ZM299.013 113.447L301.626 113.703L301.365 116.369L298.752 116.113L298.179 121.961C298.125 122.513 298.215 122.922 298.45 123.189C298.684 123.473 299.076 123.642 299.628 123.696C299.766 123.71 299.975 123.713 300.254 123.705C300.306 123.71 300.349 123.715 300.384 123.718C300.437 123.706 300.481 123.701 300.516 123.705C300.55 123.708 300.576 123.711 300.593 123.712C300.63 123.699 300.656 123.692 300.674 123.694L300.43 126.178C300.413 126.177 300.369 126.181 300.298 126.191C300.245 126.204 300.173 126.223 300.084 126.249C300.013 126.259 299.933 126.278 299.843 126.304C299.578 126.347 299.152 126.34 298.565 126.283C297.409 126.17 296.519 125.751 295.893 125.028C295.284 124.307 295.038 123.351 295.155 122.161L295.776 115.821L293.447 115.593L293.708 112.928L294.355 112.991C295.028 113.057 295.538 112.915 295.886 112.566C296.235 112.2 296.436 111.749 296.488 111.215L296.673 109.326L299.39 109.592L299.013 113.447ZM302.882 126.549L304.116 113.947L307.092 114.239L305.858 126.84L302.882 126.549ZM304.519 110.904C304.175 110.505 304.03 110.029 304.084 109.477C304.138 108.925 304.373 108.478 304.79 108.135C305.207 107.793 305.683 107.648 306.217 107.7C306.769 107.754 307.216 107.99 307.559 108.407C307.901 108.823 308.045 109.308 307.991 109.86C307.937 110.412 307.703 110.85 307.288 111.175C306.871 111.518 306.387 111.662 305.835 111.608C305.3 111.555 304.861 111.321 304.519 110.904ZM313.84 125.036C314.22 125.247 314.651 125.377 315.134 125.424C315.617 125.471 316.074 125.429 316.505 125.297C316.919 125.164 317.315 124.941 317.694 124.63C318.071 124.336 318.37 123.947 318.592 123.464C318.832 122.965 318.984 122.396 319.046 121.758C319.107 121.137 319.068 120.558 318.929 120.022C318.804 119.522 318.586 119.083 318.274 118.704C317.948 118.306 317.601 118.02 317.235 117.845C316.838 117.632 316.398 117.502 315.915 117.454C315.432 117.407 314.984 117.45 314.57 117.584C314.143 117.681 313.747 117.895 313.384 118.225C313.022 118.538 312.723 118.927 312.486 119.391C312.232 119.854 312.072 120.413 312.008 121.069C311.944 121.724 311.991 122.312 312.149 122.833C312.29 123.352 312.508 123.791 312.803 124.151C313.08 124.526 313.426 124.821 313.84 125.036ZM316.181 114.737C317.147 114.832 318.002 115.081 318.747 115.485C319.491 115.889 320.135 116.422 320.68 117.085C321.178 117.691 321.566 118.443 321.843 119.341C322.095 120.15 322.172 121.054 322.074 122.055C321.976 123.055 321.725 123.928 321.321 124.672C320.893 125.483 320.367 126.146 319.742 126.659C319.079 127.204 318.343 127.602 317.535 127.854C316.673 128.118 315.785 128.205 314.871 128.115C313.974 128.027 313.128 127.77 312.334 127.344C311.557 126.92 310.912 126.386 310.401 125.744C309.887 125.119 309.499 124.367 309.237 123.488C308.985 122.68 308.908 121.775 309.006 120.775C309.104 119.774 309.355 118.902 309.759 118.157C310.206 117.33 310.732 116.668 311.338 116.17C311.965 115.639 312.701 115.241 313.545 114.975C314.354 114.724 315.232 114.644 316.181 114.737ZM326.991 128.911L323.989 128.617L325.224 116.015L328.148 116.301L327.983 117.983C328.468 117.299 329.071 116.827 329.793 116.567C330.497 116.322 331.202 116.235 331.909 116.304C332.685 116.38 333.346 116.575 333.89 116.89C334.401 117.184 334.84 117.584 335.209 118.09C335.541 118.61 335.765 119.172 335.88 119.776C336.009 120.415 336.04 121.071 335.974 121.744L335.193 129.714L332.192 129.42L332.922 121.968C333 121.174 332.875 120.491 332.548 119.92C332.221 119.348 331.574 119.014 330.608 118.92C329.763 118.837 329.088 119.058 328.584 119.583C328.076 120.143 327.782 120.829 327.703 121.639L326.991 128.911Z" fill="#191B20"/>
	<rect x="89.9346" y="75.3509" width="283.484" height="42.5425" rx="21.2712" transform="rotate(5.59463 89.9346 75.3509)" stroke="#C6CAD3" stroke-width="1.15425"/>
	<defs>
		<linearGradient id="paint0_linear_10384_76274" x1="232.345" y1="115.88" x2="119.032" y2="227.689" gradientUnits="userSpaceOnUse">
			<stop stop-color="#5CEE9C"/>
			<stop offset="1" stop-color="#FFFB1F"/>
		</linearGradient>
	</defs>
</svg>
