<svg width="450" height="550" viewBox="0 0 450 550" fill="none" xmlns="http://www.w3.org/2000/svg">
	<mask id="mask0_2130_14417" style="mask-type:alpha" maskUnits="userSpaceOnUse" x="0" y="0" width="450" height="550">
		<path d="M450 24C450 10.7452 439.255 0 426 0H24C10.7452 0 2.26498e-05 10.7452 2.26498e-05 24V526C2.26498e-05 539.255 10.7452 550 24 550H426C439.255 550 450 539.255 450 526V24Z" fill="#F7F7F7"/>
	</mask>
	<g mask="url(#mask0_2130_14417)">
		<path d="M376.934 322.786L376.934 543.312C376.934 666.932 276.72 767.145 153.101 767.145C29.481 767.145 -70.7326 666.931 -70.7326 543.312L-70.7326 322.786C-70.7326 199.166 29.481 98.9524 153.101 98.9524C276.721 98.9524 376.934 199.166 376.934 322.786Z" stroke="#5CEE9C"/>
		<path d="M-26.6672 343.695C-26.6672 342.215 -26.6493 340.74 -26.6138 339.269L-27.1137 339.257C-27.042 336.293 -26.8989 333.347 -26.6859 330.42L-26.1872 330.456C-25.9726 327.509 -25.687 324.581 -25.332 321.674L-25.8283 321.614C-25.4692 318.673 -25.0393 315.755 -24.5404 312.86L-24.0476 312.945C-23.5461 310.035 -22.9747 307.15 -22.3351 304.289L-22.823 304.18C-22.1771 301.292 -21.4619 298.43 -20.6791 295.596L-20.1972 295.729C-19.4118 292.885 -18.5584 290.07 -17.6386 287.284L-18.1134 287.128C-17.1861 284.319 -16.1917 281.542 -15.132 278.797L-14.6655 278.977C-13.6039 276.226 -12.4765 273.509 -11.2855 270.826L-11.7424 270.623C-10.5433 267.922 -9.27976 265.256 -7.95371 262.627L-7.50727 262.852C-6.18058 260.221 -4.79114 257.628 -3.34092 255.073L-3.77573 254.826C-2.31757 252.258 -0.798191 249.729 0.780483 247.241L1.20266 247.509C2.78033 245.023 4.41735 242.578 6.11175 240.176L5.70321 239.888C7.40506 237.476 9.16461 235.107 10.9799 232.785L11.3738 233.093C13.1862 230.774 15.0541 228.5 16.9758 226.274L16.5973 225.948C18.5256 223.714 20.5077 221.529 22.5417 219.393L22.9038 219.738C24.9326 217.607 27.0132 215.527 29.1435 213.498L28.7987 213.136C30.9344 211.102 33.12 209.12 35.3534 207.192L35.6801 207.57C37.9059 205.648 40.1793 203.78 42.4983 201.968L42.1904 201.574C44.5132 199.759 46.8816 197.999 49.2937 196.297L49.5819 196.706C51.9834 195.012 54.4283 193.375 56.9145 191.797L56.6467 191.375C59.1345 189.796 61.6637 188.277 64.2321 186.819L64.479 187.253C67.0335 185.803 69.627 184.414 72.2575 183.087L72.0323 182.641C74.6616 181.315 77.3277 180.051 80.0288 178.852L80.2317 179.309C82.9146 178.118 85.6322 176.99 88.3824 175.929L88.2024 175.462C90.9476 174.403 93.7252 173.408 96.5334 172.481L96.6902 172.956C99.4755 172.036 102.291 171.182 105.135 170.397L105.002 169.915C107.836 169.132 110.698 168.417 113.586 167.771L113.695 168.259C116.555 167.62 119.441 167.048 122.351 166.547L122.266 166.054C125.161 165.555 128.079 165.125 131.02 164.766L131.08 165.262C133.987 164.907 136.914 164.622 139.862 164.407L139.826 163.908C142.753 163.695 145.699 163.552 148.663 163.481L148.675 163.98C150.146 163.945 151.621 163.927 153.101 163.927C154.58 163.927 156.055 163.945 157.526 163.98L157.538 163.481C160.502 163.552 163.449 163.695 166.376 163.908L166.339 164.407C169.287 164.622 172.215 164.907 175.121 165.262L175.182 164.766C178.122 165.125 181.041 165.555 183.935 166.054L183.851 166.547C186.76 167.048 189.646 167.62 192.506 168.259L192.615 167.771C195.504 168.417 198.366 169.132 201.2 169.915L201.067 170.397C203.91 171.182 206.726 172.036 209.511 172.956L209.668 172.481C212.476 173.408 215.254 174.403 217.999 175.462L217.819 175.929C220.569 176.99 223.287 178.118 225.97 179.309L226.173 178.852C228.874 180.051 231.54 181.315 234.169 182.641L233.944 183.087C236.574 184.414 239.168 185.803 241.722 187.253L241.969 186.819C244.538 188.277 247.067 189.796 249.555 191.375L249.287 191.797C251.773 193.375 254.218 195.012 256.62 196.706L256.908 196.298C259.32 197.999 261.688 199.759 264.011 201.574L263.703 201.968C266.022 203.78 268.296 205.648 270.521 207.57L270.848 207.192C273.081 209.12 275.267 211.102 277.403 213.136L277.058 213.498C279.188 215.527 281.269 217.607 283.298 219.738L283.66 219.393C285.694 221.529 287.676 223.714 289.604 225.948L289.226 226.274C291.147 228.5 293.015 230.774 294.828 233.093L295.222 232.785C297.037 235.107 298.796 237.476 300.498 239.888L300.09 240.176C301.784 242.578 303.421 245.023 304.999 247.509L305.421 247.241C307 249.729 308.519 252.258 309.977 254.826L309.542 255.073C310.993 257.628 312.382 260.221 313.709 262.852L314.155 262.627C315.481 265.256 316.745 267.922 317.944 270.623L317.487 270.826C318.678 273.509 319.805 276.226 320.867 278.977L321.333 278.797C322.393 281.542 323.388 284.319 324.315 287.128L323.84 287.284C324.76 290.07 325.613 292.885 326.399 295.729L326.881 295.596C327.663 298.43 328.379 301.292 329.024 304.18L328.536 304.29C329.176 307.15 329.748 310.035 330.249 312.945L330.742 312.86C331.241 315.755 331.671 318.674 332.03 321.614L331.533 321.674C331.888 324.581 332.174 327.509 332.389 330.456L332.887 330.42C333.1 333.347 333.243 336.293 333.315 339.257L332.815 339.269C332.851 340.74 332.869 342.216 332.869 343.695L332.869 348.164L333.369 348.164L333.369 357.102L332.869 357.102L332.869 366.039L333.369 366.039L333.369 374.977L332.869 374.977L332.869 383.915L333.369 383.915L333.369 392.853L332.869 392.853L332.869 401.79L333.369 401.79L333.369 410.728L332.869 410.728L332.869 419.666L333.369 419.666L333.369 428.604L332.869 428.604L332.869 437.541L333.369 437.541L333.369 446.479L332.869 446.479L332.869 455.417L333.369 455.417L333.369 464.355L332.869 464.355L332.869 473.292L333.369 473.292L333.369 482.23L332.869 482.23L332.869 491.168L333.369 491.168L333.369 500.106L332.869 500.106L332.869 509.043L333.369 509.043L333.369 517.981L332.869 517.981L332.869 522.45C332.869 523.929 332.851 525.405 332.815 526.875L333.315 526.888C333.243 529.852 333.1 532.798 332.887 535.725L332.389 535.689C332.174 538.636 331.888 541.564 331.533 544.47L332.03 544.531C331.671 547.471 331.241 550.39 330.742 553.285L330.249 553.2C329.748 556.109 329.176 558.995 328.536 561.855L329.024 561.964C328.379 564.853 327.663 567.715 326.881 570.549L326.399 570.416C325.613 573.26 324.76 576.075 323.84 578.86L324.315 579.017C323.388 581.825 322.393 584.603 321.333 587.348L320.867 587.168C319.805 589.918 318.678 592.636 317.487 595.319L317.944 595.522C316.745 598.223 315.481 600.889 314.155 603.518L313.709 603.293C312.382 605.924 310.993 608.517 309.542 611.072L309.977 611.318C308.519 613.887 307 616.416 305.421 618.904L304.999 618.636C303.421 621.122 301.784 623.567 300.09 625.969L300.498 626.257C298.796 628.669 297.037 631.037 295.222 633.36L294.828 633.052C293.015 635.371 291.147 637.645 289.226 639.87L289.604 640.197C287.676 642.431 285.694 644.616 283.66 646.752L283.298 646.407C281.269 648.537 279.188 650.618 277.058 652.647L277.403 653.009C275.267 655.043 273.081 657.025 270.848 658.953L270.521 658.575C268.296 660.496 266.022 662.364 263.703 664.177L264.011 664.571C261.688 666.386 259.32 668.145 256.908 669.847L256.619 669.439C254.218 671.133 251.773 672.77 249.287 674.348L249.555 674.77C247.067 676.349 244.538 677.868 241.969 679.326L241.722 678.891C239.168 680.342 236.574 681.731 233.944 683.058L234.169 683.504C231.54 684.83 228.874 686.094 226.173 687.293L225.97 686.836C223.287 688.027 220.569 689.154 217.819 690.216L217.999 690.682C215.254 691.742 212.476 692.737 209.668 693.664L209.511 693.189C206.726 694.109 203.91 694.962 201.067 695.748L201.2 696.23C198.366 697.012 195.504 697.728 192.615 698.374L192.506 697.886C189.646 698.525 186.76 699.097 183.851 699.598L183.936 700.091C181.041 700.59 178.122 701.02 175.182 701.379L175.121 700.883C172.215 701.237 169.287 701.523 166.339 701.738L166.376 702.236C163.449 702.449 160.503 702.593 157.538 702.664L157.526 702.164C156.055 702.2 154.58 702.218 153.101 702.218C151.621 702.218 150.146 702.2 148.675 702.164L148.663 702.664C145.699 702.593 142.753 702.449 139.826 702.236L139.862 701.738C136.914 701.523 133.987 701.237 131.08 700.883L131.02 701.379C128.079 701.02 125.161 700.59 122.266 700.091L122.351 699.598C119.441 699.097 116.555 698.525 113.695 697.886L113.586 698.374C110.698 697.728 107.836 697.012 105.002 696.23L105.135 695.748C102.291 694.962 99.4755 694.109 96.6902 693.189L96.5334 693.664C93.7252 692.737 90.9476 691.742 88.2024 690.683L88.3824 690.216C85.6322 689.154 82.9146 688.027 80.2317 686.836L80.0288 687.293C77.3277 686.094 74.6616 684.83 72.0323 683.504L72.2575 683.058C69.627 681.731 67.0335 680.342 64.479 678.891L64.2321 679.326C61.6636 677.868 59.1345 676.349 56.6466 674.77L56.9145 674.348C54.4283 672.77 51.9834 671.133 49.5819 669.439L49.2936 669.847C46.8816 668.145 44.5132 666.386 42.1904 664.571L42.4983 664.177C40.1793 662.364 37.9059 660.496 35.6802 658.575L35.3534 658.953C33.12 657.025 30.9344 655.043 28.7987 653.009L29.1435 652.647C27.0132 650.618 24.9326 648.537 22.9038 646.407L22.5417 646.752C20.5077 644.616 18.5256 642.43 16.5973 640.197L16.9758 639.87C15.0541 637.645 13.1861 635.371 11.3739 633.052L10.9799 633.36C9.16462 631.037 7.40504 628.669 5.7032 626.257L6.11177 625.969C4.41737 623.567 2.78034 621.122 1.20268 618.636L0.780498 618.904C-0.798177 616.416 -2.31759 613.887 -3.77575 611.318L-3.34093 611.072C-4.79113 608.517 -6.18056 605.924 -7.50728 603.293L-7.95372 603.518C-9.27977 600.889 -10.5433 598.223 -11.7425 595.522L-11.2854 595.319C-12.4766 592.636 -13.6039 589.918 -14.6655 587.168L-15.132 587.348C-16.1917 584.603 -17.1861 581.825 -18.1134 579.017L-17.6386 578.86C-18.5584 576.075 -19.4118 573.26 -20.1972 570.416L-20.6792 570.549C-21.4619 567.715 -22.1771 564.853 -22.823 561.964L-22.3351 561.855C-22.9747 558.995 -23.5461 556.109 -24.0477 553.2L-24.5404 553.285C-25.0394 550.39 -25.4692 547.471 -25.8284 544.531L-25.332 544.47C-25.687 541.564 -25.9726 538.636 -26.1872 535.689L-26.6859 535.725C-26.8989 532.798 -27.042 529.852 -27.1137 526.887L-26.6138 526.875C-26.6493 525.405 -26.6672 523.929 -26.6672 522.45L-26.6672 517.981L-27.1672 517.981L-27.1672 509.043L-26.6672 509.043L-26.6672 500.105L-27.1672 500.105L-27.1672 491.168L-26.6672 491.168L-26.6672 482.23L-27.1672 482.23L-27.1672 473.292L-26.6672 473.292L-26.6672 464.354L-27.1672 464.354L-27.1672 455.417L-26.6672 455.417L-26.6672 446.479L-27.1672 446.479L-27.1672 437.541L-26.6672 437.541L-26.6672 428.603L-27.1672 428.603L-27.1672 419.666L-26.6672 419.666L-26.6672 410.728L-27.1672 410.728L-27.1672 401.79L-26.6672 401.79L-26.6672 392.853L-27.1672 392.853L-27.1672 383.915L-26.6672 383.915L-26.6672 374.977L-27.1672 374.977L-27.1672 366.039L-26.6672 366.039L-26.6672 357.102L-27.1672 357.102L-27.1672 348.164L-26.6672 348.164L-26.6672 343.695Z" stroke="#5CEE9C" stroke-dasharray="9 9"/>
		<path d="M499.207 -41.8542L499.207 125.778C499.207 219.681 423.083 295.804 329.18 295.804C235.278 295.804 159.154 219.681 159.154 125.778L159.154 -41.8543C159.154 -135.757 235.278 -211.88 329.18 -211.88C423.083 -211.88 499.207 -135.757 499.207 -41.8542Z" stroke="#5CEE9C"/>
		<path d="M192.651 -25.96C192.651 -27.4582 192.675 -28.9507 192.723 -30.4372L192.223 -30.4533C192.32 -33.4599 192.513 -36.4419 192.801 -39.3965L193.299 -39.3481C193.589 -42.3315 193.975 -45.2867 194.455 -48.2106L193.961 -48.2915C194.447 -51.2576 195.029 -54.1916 195.702 -57.0904L196.189 -56.9773C196.866 -59.8905 197.636 -62.7679 198.496 -65.6062L198.017 -65.7512C198.887 -68.623 199.849 -71.4549 200.899 -74.2435L201.367 -74.0673C202.42 -76.8636 203.562 -79.6163 204.79 -82.3218L204.335 -82.5285C205.573 -85.2569 206.898 -87.9376 208.307 -90.567L208.747 -90.3309C210.156 -92.9617 211.649 -95.5411 213.222 -98.0653L212.798 -98.3297C214.381 -100.871 216.045 -103.356 217.787 -105.782L218.193 -105.49C219.932 -107.912 221.748 -110.275 223.637 -112.575L223.251 -112.892C225.15 -115.204 227.123 -117.452 229.167 -119.633L229.532 -119.291C231.568 -121.465 233.676 -123.572 235.85 -125.609L235.508 -125.974C237.689 -128.018 239.937 -129.991 242.248 -131.89L242.566 -131.503C244.866 -133.393 247.228 -135.209 249.65 -136.947L249.359 -137.354C251.785 -139.095 254.27 -140.759 256.811 -142.343L257.075 -141.918C259.6 -143.491 262.179 -144.984 264.81 -146.393L264.574 -146.834C267.203 -148.242 269.884 -149.567 272.612 -150.806L272.819 -150.35C275.524 -151.578 278.277 -152.72 281.073 -153.773L280.897 -154.241C283.686 -155.291 286.518 -156.253 289.389 -157.123L289.534 -156.645C292.373 -157.505 295.25 -158.275 298.163 -158.951L298.05 -159.439C300.949 -160.112 303.883 -160.693 306.849 -161.179L306.93 -160.686C309.854 -161.165 312.809 -161.552 315.792 -161.842L315.744 -162.34C318.699 -162.627 321.681 -162.821 324.687 -162.918L324.703 -162.418C326.19 -162.466 327.682 -162.49 329.181 -162.49C330.679 -162.49 332.171 -162.466 333.658 -162.418L333.674 -162.918C336.68 -162.821 339.662 -162.627 342.617 -162.34L342.569 -161.842C345.552 -161.552 348.507 -161.165 351.431 -160.686L351.512 -161.179C354.478 -160.693 357.412 -160.112 360.311 -159.439L360.198 -158.952C363.111 -158.275 365.988 -157.505 368.827 -156.645L368.972 -157.123C371.843 -156.253 374.675 -155.291 377.464 -154.241L377.288 -153.773C380.084 -152.72 382.837 -151.578 385.542 -150.35L385.749 -150.806C388.477 -149.567 391.158 -148.242 393.787 -146.834L393.551 -146.393C396.182 -144.984 398.762 -143.491 401.286 -141.918L401.55 -142.343C404.091 -140.759 406.576 -139.095 409.002 -137.354L408.711 -136.947C411.133 -135.209 413.495 -133.393 415.795 -131.503L416.113 -131.89C418.424 -129.991 420.672 -128.018 422.853 -125.974L422.511 -125.609C424.685 -123.572 426.793 -121.465 428.83 -119.291L429.194 -119.633C431.238 -117.452 433.211 -115.204 435.11 -112.892L434.724 -112.575C436.613 -110.275 438.429 -107.912 440.168 -105.49L440.574 -105.782C442.316 -103.356 443.98 -100.871 445.563 -98.3297L445.139 -98.0653C446.712 -95.5411 448.205 -92.9618 449.614 -90.331L450.054 -90.567C451.463 -87.9376 452.788 -85.257 454.026 -82.5285L453.571 -82.3219C454.799 -79.6163 455.941 -76.8637 456.994 -74.0673L457.462 -74.2435C458.512 -71.4549 459.474 -68.623 460.344 -65.7512L459.865 -65.6063C460.725 -62.7679 461.495 -59.8905 462.172 -56.9773L462.659 -57.0905C463.332 -54.1917 463.914 -51.2576 464.4 -48.2915L463.906 -48.2106C464.386 -45.2867 464.772 -42.3315 465.062 -39.3481L465.56 -39.3965C465.848 -36.442 466.041 -33.4599 466.138 -30.4534L465.638 -30.4373C465.686 -28.9508 465.71 -27.4583 465.71 -25.9601L465.71 -21.7139L466.21 -21.7139L466.21 -13.2214L465.71 -13.2214L465.71 -4.72891L466.21 -4.72891L466.21 3.76357L465.71 3.76357L465.71 12.256L466.21 12.256L466.21 20.7485L465.71 20.7485L465.71 29.241L466.21 29.241L466.21 37.7335L465.71 37.7335L465.71 46.226L466.21 46.226L466.21 54.7184L465.71 54.7184L465.71 63.2109L466.21 63.2109L466.21 71.7034L465.71 71.7034L465.71 80.1959L466.21 80.1959L466.21 88.6883L465.71 88.6883L465.71 97.1808L466.21 97.1808L466.21 105.673L465.71 105.673L465.71 109.92C465.71 111.418 465.686 112.91 465.638 114.397L466.138 114.413C466.041 117.419 465.848 120.401 465.56 123.356L465.062 123.308C464.772 126.291 464.386 129.246 463.906 132.17L464.4 132.251C463.914 135.217 463.332 138.151 462.659 141.05L462.172 140.937C461.495 143.85 460.725 146.727 459.865 149.566L460.344 149.711C459.474 152.582 458.512 155.414 457.462 158.203L456.994 158.027C455.941 160.823 454.799 163.576 453.571 166.281L454.026 166.488C452.788 169.216 451.463 171.897 450.054 174.526L449.614 174.29C448.205 176.921 446.712 179.501 445.139 182.025L445.563 182.289C443.98 184.83 442.316 187.315 440.574 189.742L440.168 189.45C438.429 191.872 436.613 194.235 434.724 196.534L435.11 196.852C433.211 199.163 431.238 201.411 429.194 203.592L428.829 203.25C426.793 205.424 424.685 207.532 422.511 209.569L422.853 209.933C420.672 211.977 418.424 213.95 416.113 215.849L415.795 215.463C413.495 217.352 411.133 219.168 408.711 220.907L409.002 221.313C406.576 223.055 404.091 224.719 401.55 226.302L401.286 225.878C398.762 227.451 396.182 228.944 393.551 230.353L393.787 230.794C391.158 232.202 388.477 233.527 385.749 234.765L385.542 234.31C382.837 235.538 380.084 236.68 377.288 237.733L377.464 238.201C374.675 239.251 371.843 240.213 368.972 241.083L368.827 240.604C365.988 241.464 363.111 242.234 360.198 242.911L360.311 243.398C357.412 244.071 354.478 244.653 351.512 245.139L351.431 244.646C348.507 245.125 345.552 245.511 342.569 245.802L342.617 246.299C339.662 246.587 336.68 246.78 333.674 246.877L333.658 246.378C332.171 246.425 330.679 246.45 329.18 246.45C327.682 246.45 326.19 246.425 324.703 246.378L324.687 246.877C321.681 246.78 318.699 246.587 315.744 246.299L315.792 245.802C312.809 245.511 309.854 245.125 306.93 244.646L306.849 245.139C303.883 244.653 300.949 244.071 298.05 243.398L298.163 242.911C295.25 242.234 292.373 241.464 289.534 240.604L289.389 241.083C286.518 240.213 283.686 239.251 280.897 238.201L281.073 237.733C278.277 236.68 275.524 235.538 272.819 234.31L272.612 234.765C269.884 233.527 267.203 232.202 264.574 230.794L264.81 230.353C262.179 228.944 259.599 227.451 257.075 225.878L256.811 226.302C254.27 224.719 251.785 223.055 249.359 221.313L249.65 220.907C247.228 219.168 244.866 217.353 242.566 215.463L242.248 215.849C239.937 213.95 237.689 211.977 235.508 209.933L235.85 209.569C233.676 207.532 231.568 205.424 229.531 203.25L229.167 203.592C227.123 201.411 225.15 199.163 223.251 196.852L223.637 196.534C221.748 194.235 219.932 191.872 218.193 189.45L217.787 189.742C216.045 187.315 214.381 184.83 212.798 182.289L213.222 182.025C211.649 179.501 210.156 176.921 208.747 174.29L208.307 174.527C206.898 171.897 205.573 169.216 204.335 166.488L204.79 166.281C203.562 163.576 202.42 160.823 201.367 158.027L200.899 158.203C199.849 155.414 198.887 152.583 198.017 149.711L198.496 149.566C197.636 146.727 196.866 143.85 196.189 140.937L195.702 141.05C195.029 138.151 194.447 135.217 193.961 132.251L194.455 132.17C193.975 129.246 193.589 126.291 193.299 123.308L192.801 123.356C192.513 120.401 192.32 117.419 192.223 114.413L192.723 114.397C192.675 112.91 192.651 111.418 192.651 109.92L192.651 105.673L192.151 105.673L192.151 97.1809L192.651 97.1809L192.651 88.6884L192.151 88.6884L192.151 80.1959L192.651 80.1959L192.651 71.7035L192.151 71.7035L192.151 63.211L192.651 63.211L192.651 54.7185L192.151 54.7185L192.151 46.226L192.651 46.226L192.651 37.7336L192.151 37.7336L192.151 29.2411L192.651 29.2411L192.651 20.7486L192.151 20.7486L192.151 12.2561L192.651 12.2561L192.651 3.76365L192.151 3.76365L192.151 -4.72883L192.651 -4.72883L192.651 -13.2213L192.151 -13.2213L192.151 -21.7138L192.651 -21.7138L192.651 -25.96Z" stroke="#5CEE9C" stroke-dasharray="9 9"/>
	</g>
</svg>
