<svg width="16" height="14" viewBox="0 0 16 14" fill="none" xmlns="http://www.w3.org/2000/svg">
	<path fill-rule="evenodd" clip-rule="evenodd" d="M14.3427 0.0957783C14.5394 0.0109717 14.7547 -0.0182775 14.9662 0.0110747C15.1777 0.0404268 15.3777 0.127308 15.5453 0.262674C15.7129 0.39804 15.842 0.576943 15.9192 0.780762C15.9964 0.984581 16.0188 1.20587 15.9842 1.42158L14.1787 12.6387C14.0035 13.7207 12.8445 14.3412 11.8757 13.8023C11.0653 13.3514 9.8616 12.6567 8.77895 11.9318C8.23763 11.5689 6.57942 10.407 6.78321 9.58024C6.95834 8.87331 9.74458 6.21681 11.3367 4.63743C11.9616 4.01693 11.6766 3.65898 10.9387 4.22974C9.10534 5.64686 6.16387 7.80191 5.19107 8.40855C4.33291 8.94343 3.88552 9.03476 3.35056 8.94343C2.37458 8.7771 1.46945 8.51944 0.730701 8.20552C-0.267568 7.78152 -0.219008 6.37581 0.729905 5.96649L14.3427 0.0957783Z" fill="white"/>
</svg>
