<svg width="421" height="92" viewBox="0 0 421 92" fill="none" xmlns="http://www.w3.org/2000/svg">
	<path fill-rule="evenodd" clip-rule="evenodd" d="M1.64708 2.02016C12.1523 14.6367 23.6867 30.4869 25.5523 33.0505C25.6518 33.1872 25.7238 33.2862 25.7667 33.3448C26.7612 34.705 27.5822 35.7161 28.2057 36.484L28.2058 36.4841C29.5899 38.1886 30.0006 38.6944 29.1747 39.159C28.5085 39.5337 27.8213 39.6573 27.1355 39.6573C26.3599 39.6573 25.486 39.2877 24.8498 38.6904C24.4 38.2684 21.3227 33.8458 17.1322 27.412C13.9259 22.489 11.2427 18.4052 11.1695 18.3368C11.0002 18.1787 11.0031 18.184 16.8053 28.4567C20.4485 34.9073 22.9407 39.6742 22.9407 39.9791C22.9407 40.5995 22.7696 40.9255 21.9963 41.7791C20.7071 43.2025 20.1307 44.8016 19.7147 48.1109C19.2483 51.8206 17.9369 54.4415 14.3024 58.9263C12.175 61.5519 11.8268 62.033 11.29 63.0914C10.6139 64.4239 10.4279 65.1702 10.3526 66.853C10.2729 68.6323 10.428 69.7816 10.9774 71.4824C11.4583 72.9716 11.9602 73.9553 13.2435 75.9221C14.351 77.6191 14.9887 78.8804 14.9887 79.3739C14.9887 79.7666 15.0644 79.767 16.7805 79.3838C20.8874 78.4658 24.2222 76.8521 26.0977 74.8741C27.2584 73.6497 27.531 72.9738 27.5398 71.2962C27.5456 70.1988 27.5066 69.9692 27.2068 69.3379C26.7189 68.31 25.8305 67.456 23.8726 66.1316C21.3071 64.396 20.2114 62.9991 19.9087 61.0777C19.6604 59.5014 19.9485 58.389 21.3677 55.4457C22.8366 52.3991 23.2007 51.1009 23.4469 48.0297C23.606 46.0457 23.8262 45.2633 24.4023 44.6355C25.0031 43.9806 25.544 43.7587 27.0309 43.5574C29.455 43.2299 30.9985 42.6093 32.2673 41.4524C33.3679 40.4488 33.8285 39.4817 33.8992 38.026L33.9529 36.9225L33.3378 36.2129C31.1104 33.6431 0.15538 0 0.0183039 0C-0.0109796 0 0.721997 0.909134 1.64708 2.02016ZM16.2391 68.8662C16.7427 67.9834 16.4751 66.8491 15.6327 66.2947C14.8367 65.7711 13.6003 66.0178 13.6003 66.7002C13.6003 66.9084 13.7166 67.0599 13.9789 67.1938C14.4206 67.4186 14.4526 67.6714 14.1052 68.1881C13.7532 68.7117 13.7816 69.1718 14.1853 69.4842C14.8358 69.9885 15.7567 69.7112 16.2391 68.8662ZM31.3975 20.7393C30.4038 20.5867 30.3619 20.5688 30.8295 20.4977C31.7257 20.3613 33.8418 20.5472 35.3 20.8903C38.7043 21.691 41.8021 23.7423 45.1087 27.3853L45.987 28.3531L47.2439 28.1532C52.5382 27.3113 57.924 27.9804 62.4288 30.0396C63.6681 30.6061 65.622 31.7338 65.866 32.0236C65.9436 32.1159 66.0868 32.7104 66.1832 33.3448C66.5179 35.5395 66.3505 37.2218 65.672 38.4783C65.3031 39.162 65.2825 39.3787 65.5304 39.9639C65.7285 40.4308 66.2809 40.7764 66.8281 40.7756C67.9474 40.7741 69.1521 38.9835 69.7107 36.4919L69.9323 35.5022L70.3717 35.9946C72.7812 38.6962 74.6742 42.3805 74.9992 45.0028L75.0838 45.6865L74.679 45.0651C73.9815 43.9956 73.2815 43.2673 72.3843 42.6801C70.7678 41.6215 69.0579 41.2612 64.5307 41.0251C60.4416 40.8119 58.1277 40.4663 55.833 39.7259C51.9283 38.4663 49.9605 36.7888 45.3225 30.7678C43.2626 28.0935 41.9894 26.6139 40.7229 25.4223C37.845 22.7148 35.0173 21.2949 31.3975 20.7393ZM66.7882 26.7103C66.8911 24.9183 67.1369 23.7363 67.6306 22.6569C67.826 22.2296 68.0091 21.8799 68.0372 21.8799C68.0656 21.8799 67.9807 22.1953 67.8484 22.5806C67.4896 23.6283 67.4304 25.0611 67.6779 26.7282C67.9916 28.8435 68.1704 29.1487 70.4296 31.4337C71.4893 32.5054 72.7221 33.8571 73.1689 34.4374L73.9815 35.4926L73.1689 34.7385C72.1753 33.8164 69.8903 32.0178 69.3856 31.7607C69.047 31.5883 68.9966 31.5913 68.788 31.7969C68.5957 31.9864 68.555 32.2711 68.5283 33.6169C68.4866 35.7146 68.1979 37.0609 67.5005 38.4071C67.1233 39.1353 67.0637 38.9799 67.405 38.158C67.66 37.5444 67.6858 37.2746 67.6841 35.244C67.6801 31.164 67.1904 30.1832 64.3196 28.5029C63.5928 28.0772 62.3942 27.4634 61.6569 27.1386C60.92 26.8139 60.3343 26.5311 60.3553 26.51C60.4368 26.4299 63.2366 27.2385 64.3634 27.6673C66.0395 28.3053 66.3159 28.388 66.5196 28.311C66.6559 28.2595 66.722 27.8663 66.7882 26.7103ZM30.3324 23.5781C30.0622 26.728 31.3104 30.9418 33.3278 33.69C34.8917 35.8205 37.3159 37.476 39.1056 37.6359C40.2775 37.7406 40.6296 37.3775 40.0995 36.6115C39.3635 35.5478 38.4582 33.9101 38.2186 33.2089C38.0699 32.7733 37.7465 31.4866 37.5 30.3496C36.6584 26.4678 35.8313 24.9561 33.9207 23.8079C33.2244 23.3895 31.7376 22.8418 30.8752 22.6862L30.416 22.6033L30.3324 23.5781ZM64.3415 54.1441C54.9135 50.388 51.5928 47.1276 51.5928 41.6265C51.5928 40.8169 51.6212 40.1545 51.6554 40.1545C51.69 40.1545 52.0545 40.4217 52.4659 40.7483C54.3777 42.2656 56.5186 42.9137 62.4455 43.769C65.9326 44.2728 67.8952 44.6792 69.7058 45.2736C75.4601 47.162 79.0204 50.994 79.8694 56.214C80.1161 57.7306 79.9715 60.5747 79.5715 62.0738C79.2557 63.2579 78.2919 65.3917 78.0365 65.4737C77.9655 65.4964 77.8958 65.2277 77.8779 64.8621C77.7811 62.9021 76.78 60.994 75.0991 59.5645C73.1877 57.9392 70.6197 56.6457 64.3415 54.1441ZM57.2673 53.7308C57.3996 54.1209 57.6046 55.0089 57.7225 55.7045C58.4777 60.1516 56.1186 63.7445 51.5297 65.1368C51.0438 65.284 49.1303 65.6548 47.2772 65.9599C43.526 66.5779 41.8518 67.0156 40.1699 67.8173C38.9771 68.386 37.533 69.2374 37.6189 69.322C37.6465 69.3495 37.9188 69.2851 38.2237 69.1791C40.3448 68.4422 42.7052 68.0607 46.2915 67.8761C47.7148 67.8032 49.3336 67.6864 49.8891 67.6173C53.084 67.2191 55.2985 66.2586 57.0206 64.5243C57.9787 63.5591 58.55 62.66 59.0104 61.3923C59.3022 60.588 59.3416 60.2893 59.3438 58.8645C59.3464 57.4126 59.311 57.147 58.9947 56.2539C58.5807 55.0831 58.0922 54.2046 57.4736 53.5175L57.0268 53.0214L57.2673 53.7308ZM62.0446 63.2995C60.7917 60.6348 60.5043 58.0624 61.1903 55.6633C61.2639 55.4067 61.3818 55.1968 61.4532 55.1968C61.5242 55.1968 61.8194 55.3552 62.1099 55.5483C62.6868 55.9329 63.8447 56.5805 66.9288 58.2443C70.7778 60.3206 72.9722 61.9283 74.4643 63.7656C75.7711 65.3741 76.5798 67.2062 76.9688 69.4404C77.1896 70.7061 77.0604 73.7514 76.7323 75.0256C75.6975 79.0439 73.2924 82.2 69.8622 84.042C69.3597 84.3115 68.9085 84.5329 68.8595 84.5342C68.8108 84.5351 68.9939 84.0746 69.2664 83.5102C70.4204 81.1232 70.5518 78.8014 69.6796 76.2174C69.1451 74.6351 68.056 72.7043 65.8568 69.4409C63.3002 65.647 62.6733 64.6372 62.0446 63.2995ZM38.4495 72.039C34.4843 72.6764 30.1311 74.7527 26.6325 77.6757L25.5909 78.5461L26.5063 78.6877C31.2832 79.4254 32.5695 80.0799 35.8829 83.4575C37.7897 85.4007 38.4337 85.8333 40.0153 86.2329C42.3383 86.8195 44.6281 85.7415 45.4136 83.6909C45.7645 82.7746 45.7176 81.2575 45.315 80.4958C44.3574 78.6817 41.5673 78.0954 40.2181 79.4241C39.0944 80.531 39.4218 82.1983 40.8195 82.485C41.1394 82.5511 41.1303 82.5369 40.7379 82.3614C40.1262 82.0876 39.8605 81.7082 39.8571 81.1043C39.8493 79.6885 41.4867 78.8937 43.0099 79.5735C44.1252 80.0718 44.5681 80.7224 44.5681 81.8631C44.5681 83.6197 43.0572 84.9432 41.2989 84.7269C40.3591 84.611 39.2098 84.0162 38.5934 83.327C37.0426 81.5919 37.6468 78.8538 39.812 77.8032C41.4603 77.0036 43.6514 77.2006 45.3505 78.3014C47.3026 79.5666 48.1328 80.7228 49.8141 84.5175C50.3617 85.7531 51.0662 87.144 51.3794 87.6084C52.9723 89.9675 54.8806 91.1245 57.1792 91.1245C58.447 91.1245 59.4008 90.8953 60.6007 90.3027C61.4922 89.8619 62.7561 89.0246 62.6649 88.9349C62.6391 88.9096 62.2693 89.0233 61.8431 89.1877C59.3333 90.1563 56.7819 90.0898 55.3003 89.0164C54.3672 88.3409 53.6145 86.9951 53.2277 85.3119C53.1607 85.0205 52.9399 83.7338 52.7366 82.4523C52.2214 79.2044 51.7268 77.7444 50.5733 76.0689C49.3931 74.3548 47.1243 72.9163 44.5878 72.2738C43.0052 71.873 40.1584 71.7639 38.4495 72.039ZM32.896 46.9272C33.2384 45.6758 34.3446 44.4823 35.4827 44.1364C36.2063 43.9166 37.702 44.057 38.4053 44.4106C39.7683 45.0964 40.7577 46.6581 40.543 47.7856C40.2811 49.1602 38.0282 50.2601 35.4366 50.2782C34.1129 50.2872 33.624 50.1112 33.1185 49.4434C32.8057 49.0297 32.6871 47.6907 32.896 46.9272ZM38.0573 44.9007C38.737 45.3114 38.9119 45.9187 38.5122 46.4805C38.2369 46.8676 37.3847 47.2354 36.7619 47.2354C35.8263 47.2354 34.8055 46.5779 34.8055 45.9758C34.8055 44.7659 36.7629 44.1183 38.0573 44.9007ZM241.197 48.3649C239.083 41.4757 242.57 35.7613 250.009 33.9251C252.143 33.3981 261.804 33.6359 263.459 34.2562C264.067 34.4835 264.332 35.3561 264.337 37.1492C264.341 38.5613 264.499 40.2765 264.686 40.9604C264.971 41.9972 264.804 42.2012 263.688 42.1845C262.678 42.1691 262.067 41.5892 261.214 39.8347C259.852 37.0325 258.203 36.1412 254.359 36.1307C249.453 36.1169 245.863 39.3532 246.447 43.2634C246.828 45.808 249.423 48.3117 255.247 51.7536C260.788 55.0277 264.022 57.7203 265.311 60.1327C268.757 66.5822 265.814 73.484 258.137 76.9616C254.196 78.7465 247.591 78.931 242.947 77.386L239.973 76.3964V71.7416C239.973 67.5259 240.076 67.086 241.057 67.086C241.877 67.086 242.232 67.6173 242.52 69.2816C243.236 73.4201 246.446 75.9324 251.019 75.9324C255.498 75.9324 258.629 73.5351 259.828 69.1881C260.339 67.3362 260.251 66.6534 259.238 64.6106C258.023 62.1613 255.932 60.5361 248.831 56.5225C244.89 54.2952 242.103 51.3172 241.197 48.3649ZM101.983 36.6753C101.014 36.6753 100.636 36.3651 100.636 35.5695C100.636 34.5162 101.014 34.4636 108.607 34.4636C115.655 34.4636 116.557 34.5676 116.395 35.3599C116.294 35.8531 115.32 36.5371 114.23 36.8805L112.247 37.5047L112.078 51.6043C111.964 61.0125 112.124 66.4397 112.556 67.9152C113.842 72.3034 117.764 74.8269 123.298 74.8269C127.151 74.8269 129.401 73.9445 132.228 71.3241C135.27 68.507 135.755 65.8303 135.745 51.9184C135.736 38.196 135.492 37.0634 132.483 36.7787C131.114 36.6488 130.656 36.3363 130.656 35.5346C130.656 34.5349 131.107 34.4636 137.453 34.4636C143.872 34.4636 144.25 34.525 144.25 35.5695C144.25 36.2507 143.869 36.6786 143.258 36.6836C140.635 36.7062 140.587 36.9507 140.234 51.9978C139.867 67.6238 139.525 69.4739 136.293 73.3017C135.36 74.4059 133.137 76.0093 131.352 76.865C128.444 78.2594 127.519 78.4195 122.443 78.4104C117.763 78.401 116.286 78.1796 113.946 77.1363C110.531 75.6131 108.31 73.642 106.672 70.6799C105.529 68.6121 105.432 67.4933 105.167 53.484C104.864 37.4483 104.717 36.6753 101.983 36.6753ZM154.985 36.6753C153.69 36.6753 153.312 36.4254 153.312 35.5695C153.312 34.5328 153.674 34.4664 159.118 34.509L164.924 34.5543L167.702 37.6883C169.228 39.4117 174.207 44.8033 178.763 49.6687C183.32 54.5346 188.552 60.1949 190.389 62.2476C192.226 64.3007 193.955 65.9801 194.232 65.9801C194.515 65.9801 194.657 60.1812 194.556 52.6613L194.377 39.3426L192.788 38.009C191.914 37.2752 190.576 36.6753 189.814 36.6753C188.801 36.6753 188.43 36.3745 188.43 35.554C188.43 34.4741 188.719 34.4382 196.218 34.5864C202.594 34.7124 204.006 34.8866 204.006 35.5468C204.006 36.0173 203.218 36.5111 202.113 36.7317C201.072 36.9397 199.924 37.3974 199.564 37.7491C199.099 38.203 198.862 44.0724 198.746 57.9898L198.584 77.5912H196.942C195.529 77.5912 193.847 76.0333 184.853 66.3946C179.107 60.2361 172.399 52.9171 169.948 50.1301C167.496 47.3427 165.299 45.041 165.065 45.0157C164.408 44.9436 164.567 69.8464 165.239 72.2103C165.763 74.0523 166.124 74.3694 168.352 74.9514C170.146 75.4196 170.871 75.8947 170.871 76.6002C170.871 77.5062 170.187 77.5912 162.941 77.5912C155.565 77.5912 155.012 77.5191 155.012 76.5547C155.012 75.8488 155.545 75.414 156.685 75.1913C160.144 74.5162 160.373 73.4446 160.567 57.0633C160.676 47.8886 160.517 41.4692 160.145 40.125C159.494 37.7613 157.869 36.6753 154.985 36.6753ZM214.377 36.6753C213.163 36.6753 212.786 36.4127 212.786 35.5695C212.786 34.5128 213.163 34.4636 221.282 34.4636C229.4 34.4636 229.778 34.5128 229.778 35.5695C229.778 36.3806 229.4 36.6753 228.362 36.6753C227.583 36.6753 226.426 37.183 225.79 37.8033C224.668 38.8986 224.64 39.4433 224.799 56.3715C224.955 72.8965 225.022 73.8527 226.063 74.5956C226.668 75.0269 227.751 75.3797 228.47 75.3797C229.4 75.3797 229.778 75.6985 229.778 76.4856C229.778 77.5422 229.4 77.5912 221.282 77.5912C213.357 77.5912 212.786 77.5216 212.786 76.5565C212.786 75.7779 213.342 75.4342 215.03 75.1707C218.381 74.6475 218.553 73.5763 218.344 54.4617C218.177 39.1541 218.105 38.1997 217.067 37.4593C216.462 37.0281 215.252 36.6753 214.377 36.6753ZM273.642 36.6753C272.867 36.6753 272.278 36.2545 272.095 35.5695C271.809 34.5001 272.078 34.4636 280.242 34.4636C288.307 34.4636 288.685 34.5128 288.685 35.5695C288.685 36.4193 288.307 36.6753 287.055 36.6753C283.489 36.6753 283.569 37.3078 288.966 51.7678C291.713 59.1284 294.38 66.1204 294.893 67.3053L295.824 69.4602L300.15 58.1821C305.243 44.9067 305.905 42.4517 305.04 40.0304C304.437 38.3429 302.093 36.6753 300.325 36.6753C299.825 36.6753 299.447 36.1998 299.447 35.5695C299.447 34.5112 299.825 34.4636 308.227 34.4636C316.628 34.4636 317.006 34.5112 317.006 35.5695C317.006 36.3563 316.628 36.6753 315.698 36.6753C313.317 36.6753 312.267 37.915 312.609 40.3235C312.961 42.8028 322.703 69.4495 323.111 69.0508C323.776 68.4023 334.565 39.7169 334.565 38.5989C334.565 37.2592 333.604 36.6753 331.403 36.6753C330.411 36.6753 330.033 36.3707 330.033 35.5695C330.033 34.525 330.411 34.4636 336.831 34.4636C342.596 34.4636 343.627 34.5942 343.627 35.3218C343.627 35.794 342.921 36.4204 342.058 36.714C340.116 37.3747 339.629 38.1289 337.193 44.2381C336.123 46.9208 332.776 55.317 329.754 62.8952C326.732 70.4743 324.129 77.0058 323.97 77.4096C323.811 77.8139 322.875 78.1444 321.888 78.1444H320.096L316.027 67.777C313.789 62.0755 311.145 55.3204 310.152 52.766C308.45 48.389 308.307 48.1988 307.667 49.4481C307.293 50.1782 304.605 56.9453 301.692 64.4866L296.397 78.1984L294.421 78.0332L292.445 77.868L284.908 58.5589C280.697 47.771 276.825 38.6813 276.132 37.9625C275.451 37.2542 274.331 36.6753 273.642 36.6753ZM386.898 36.9098C386.803 36.6998 386.804 35.9449 386.804 35.9449C386.804 35.9449 386.782 35.6727 386.899 35.5274C387.015 35.3827 387.056 35.3788 387.473 35.34L387.477 35.3396C389.006 35.1972 392.074 34.9573 394.635 34.8479C394.869 34.8379 395.13 34.8263 395.413 34.8137L395.419 34.8134L395.423 34.8133L395.425 34.8132C398.243 34.6879 403.286 34.5204 406.752 34.69C413.402 35.0156 418.132 38.1647 419.744 43.3686C421.356 48.5722 420.503 53.457 418.306 56.5663C416.109 59.6756 412.415 62.3528 406.274 62.1785C401.204 62.0347 399.847 61.1047 398.763 60.3619C398.534 60.2048 398.318 60.0559 398.081 59.925V66.5612C398.134 71.0872 398.172 73.2609 398.53 74.0656C399.012 75.1488 400.102 75.8161 402.225 76.3277C402.225 76.3277 403.185 76.5483 403.433 76.7835C403.681 77.0187 403.681 77.541 403.681 77.541C403.681 77.541 403.731 78.0294 403.532 78.2783C403.333 78.5272 402.949 78.4774 402.949 78.4774L393.548 78.4032L387.879 78.3886C387.879 78.3886 387.284 78.5001 387.061 78.2658C386.838 78.0311 386.859 77.5422 386.859 77.5422C386.859 77.5422 386.908 77.0157 387.168 76.78C387.428 76.544 388.396 76.2805 388.396 76.2805C390.582 75.6792 391.53 75.0432 392.026 73.845C392.425 72.8789 392.427 71.0876 392.424 56.4689C392.42 42.6055 392.399 40.0194 392.074 39.2757C391.594 38.1748 390.392 37.883 388.68 37.4677L388.679 37.4676C388.34 37.3852 387.98 37.298 387.602 37.1987C387.602 37.1987 386.993 37.1198 386.898 36.9098ZM414.272 48.222C414.272 50.4953 414.231 54.0544 411.761 56.3294C409.291 58.6044 404.427 59.2271 401.125 58.5937C400.084 58.3941 399.489 58.0864 399.03 57.8491L398.984 57.8255L398.139 57.3894L398.09 49.4022C398.059 44.3977 398.113 41.1372 398.233 40.671C398.343 38.0322 402.316 37.704 404.258 37.8017C412.564 37.8017 414.03 44.6574 414.272 48.222ZM360.817 34.7733C360.817 34.7733 360.411 34.9258 359.796 35.1542L357.578 36.2764L355.981 40.1821C355.103 42.3302 353.496 46.2736 352.411 48.9452C350.434 53.8111 349.129 57.0079 347.755 60.3447C347.351 61.3262 346.131 64.3149 345.044 66.9865C343.957 69.6576 342.87 72.2 342.629 72.636C342.589 72.7085 342.547 72.7867 342.502 72.8691C341.894 73.9883 340.838 75.9324 338.973 76.2264C338.973 76.2264 337.948 76.3251 337.568 76.6925C337.188 77.0603 337.225 77.3607 337.225 77.3607V77.8238C337.225 77.8238 337.26 78.0482 337.475 78.1598C337.69 78.2718 337.981 78.2783 337.981 78.2783L344.803 78.2023H351.853C351.853 78.2023 352.352 78.2594 352.544 78.1032C352.736 77.947 352.789 77.7152 352.789 77.7152V77.2277C352.789 77.2277 352.691 76.6989 352.412 76.4925C352.133 76.2865 351.087 76.1453 351.087 76.1453C348.264 75.7818 347.778 73.6905 348.127 71.8099C348.298 70.8859 349.432 67.468 350.709 64.0269L351.152 62.8377L358.539 62.7824C362.602 62.7519 366.11 62.7725 366.335 62.8283C366.655 62.9077 367.104 63.8008 368.423 66.9817C370.42 71.8013 370.579 72.3884 370.137 73.2901C370.11 73.345 370.082 73.4055 370.05 73.4707C369.636 74.3428 368.83 76.0372 366.8 76.2097C366.8 76.2097 365.723 76.2462 365.455 76.5616C365.187 76.8775 365.245 77.2405 365.245 77.2405V77.7229C365.245 77.7229 365.317 78.0057 365.455 78.1178C365.593 78.2298 365.827 78.2014 365.827 78.2014L372.533 78.1542L381.959 78.1538C381.959 78.1538 382.329 78.1924 382.43 78.0534C382.53 77.9139 382.551 77.75 382.551 77.75V77.1092C382.551 77.1092 382.51 76.7685 382.329 76.5805C382.148 76.3929 380.925 76.1947 380.925 76.1947C379.364 75.9479 378.586 74.6853 378.007 73.745C377.859 73.5051 377.724 73.2862 377.593 73.1107C377.324 72.7523 376.366 70.7885 375.615 68.8997C374.865 67.0109 373.171 62.7442 371.852 59.4185C370.532 56.0929 368.691 51.4536 367.76 49.1095C366.829 46.765 365.06 42.3042 363.829 39.1966C363.627 38.6865 363.445 38.2284 363.283 37.8183L363.283 37.8164C362.457 35.7294 362.124 34.8873 362.033 34.7733C361.736 34.4032 360.817 34.7733 360.817 34.7733ZM360.378 47.4727C360.08 46.7641 359.556 45.4929 359.214 44.6479C358.592 43.1119 358.356 42.7581 358.163 43.0755C358.107 43.1682 357.715 44.2179 357.293 45.4084C354.559 53.1162 353.321 56.5869 353.073 57.241C352.917 57.6521 352.789 58.0757 352.789 58.1825C352.789 58.3053 355.013 58.377 358.823 58.377C362.141 58.377 364.856 58.3366 364.856 58.2873C364.856 58.2379 364.56 57.5023 364.198 56.6517C363.836 55.8011 362.95 53.678 362.23 51.9334C361.509 50.1889 360.675 48.1817 360.378 47.4727Z" fill="#191B20"/>
</svg>
