<svg width="137" height="37" viewBox="0 0 137 37" fill="none" xmlns="http://www.w3.org/2000/svg">
	<g clip-path="url(#clip0_6767_69559)">
		<path d="M38.2266 4.46484H44.5274C46.1289 4.46484 47.3033 4.89007 48.0507 5.63422C48.798 6.27206 49.1183 7.12252 49.1183 7.97298C49.1183 8.2919 49.1183 8.71713 49.0115 9.03605C48.798 9.56758 48.4777 10.0991 48.0507 10.5243C47.8371 10.737 47.6236 10.8433 47.4101 10.9496C48.1574 11.1622 48.798 11.5874 49.3318 12.119C49.7589 12.6505 49.9724 13.2883 49.9724 14.2451C49.9724 14.7766 49.8657 15.4145 49.6521 15.8397C49.4386 16.2649 49.0115 16.6902 48.5845 17.0091C48.0507 17.328 47.5168 17.5406 46.983 17.7532C46.3424 17.9658 45.5951 17.9658 44.8477 17.9658H38.3333V4.46484H38.2266ZM43.9936 9.99281C44.5274 9.99281 45.0612 9.8865 45.5951 9.67389C46.0221 9.46128 46.2356 9.03605 46.2356 8.61082C46.2356 8.18559 46.0221 7.76036 45.7018 7.54775C45.2748 7.22883 44.7409 7.12252 44.2071 7.22883H41.2177V10.0991H43.9936V9.99281ZM44.7409 15.4145C45.2748 15.4145 45.8086 15.3082 46.3424 15.0955C46.7695 14.8829 46.983 14.4577 46.8762 13.9262C46.8762 13.5009 46.6627 13.0757 46.3424 12.8631C46.0221 12.6505 45.3815 12.4379 44.6342 12.4379H41.1109V15.4145H44.7409Z" fill="#D8B743"/>
		<path d="M53.7109 4.46484H56.7004V18.0756H53.7109V4.46484Z" fill="#D8B743"/>
		<path d="M61.291 4.46484H64.0686L70.4745 12.8648V4.46484H73.4639V18.0756H70.9016L64.1754 9.46299V18.0756H61.291V4.46484Z" fill="#D8B743"/>
		<path d="M82.542 4.3584H85.3179L91.1917 18.0737H88.0955L86.8143 14.9908H81.0473L79.7661 18.0737H76.6699L82.5437 4.3584H82.542ZM85.7449 12.4394L83.9299 7.97455L82.1149 12.4394H85.7449Z" fill="#D8B743"/>
		<path d="M94.3945 4.46484H97.1721L103.578 12.8648V4.46484H106.567V18.0756H104.005L97.3857 9.46299V18.0756H94.3945V4.46484Z" fill="#D8B743"/>
		<path d="M117.459 18.2884C116.498 18.2884 115.537 18.0758 114.683 17.7569C112.974 17.0127 111.693 15.737 110.946 14.0361C110.626 13.1857 110.412 12.2289 110.412 11.2721C110.412 9.46491 111.159 7.65769 112.441 6.27569C113.081 5.63785 113.829 5.10632 114.683 4.78739C115.644 4.36217 116.604 4.25586 117.565 4.25586C118.099 4.25586 118.74 4.25586 119.274 4.36217C119.807 4.46847 120.234 4.57478 120.662 4.78739C121.089 5.00001 121.516 5.21262 121.836 5.42524C122.156 5.63785 122.583 5.95677 122.904 6.27569L121.089 8.50814C120.555 8.08291 120.021 7.65769 119.487 7.33876C118.953 7.01984 118.313 6.91354 117.672 6.91354C117.138 6.91354 116.604 7.01984 116.071 7.23246C115.537 7.44507 115.11 7.76399 114.789 8.18922C114.469 8.61445 114.149 9.03968 113.935 9.57121C113.722 10.1027 113.615 10.6343 113.615 11.1658C113.615 11.6974 113.722 12.3352 113.935 12.8667C114.149 13.3983 114.362 13.8235 114.789 14.2487C115.537 15.0992 116.604 15.5244 117.672 15.5244C118.313 15.5244 119.06 15.4181 119.701 15.0992C120.234 14.7803 120.875 14.355 121.302 13.9298L123.224 15.8433C122.904 16.1623 122.477 16.5875 122.156 16.9064C121.729 17.2253 121.302 17.4379 120.875 17.6506C120.448 17.8632 119.914 18.0758 119.38 18.1821C118.633 18.2884 117.992 18.2884 117.459 18.2884Z" fill="#D8B743"/>
		<path d="M126.643 4.46484H136.894V7.12423H129.525V9.88822H136.04V12.5459H129.525V15.4162H137V18.0756H126.643V4.46484Z" fill="#D8B743"/>
		<path d="M42.0727 31.4721C41.3253 31.4721 40.578 31.3658 39.9374 31.0469C39.2968 30.8343 38.6562 30.4091 38.0156 29.8775L39.0833 28.7082C39.5103 29.1334 39.9374 29.346 40.4712 29.6649C41.005 29.8775 41.5389 29.9838 42.0727 29.9838C42.4998 29.9838 42.9268 29.8775 43.3539 29.6649C43.6742 29.4523 43.7809 29.1334 43.7809 28.8145C43.7809 28.7082 43.7809 28.4955 43.6742 28.3892C43.5674 28.2829 43.4606 28.0703 43.3539 27.964L42.7133 27.6451C42.393 27.5388 41.9659 27.4325 41.6456 27.3262C41.2186 27.2199 40.6847 27.1136 40.2577 26.9009C39.9374 26.7946 39.5103 26.582 39.2968 26.3694C39.0833 26.1568 38.8697 25.9442 38.6562 25.6253C38.4427 25.2 38.4427 24.7748 38.4427 24.4559C38.4427 24.0307 38.5494 23.7117 38.6562 23.2865C38.763 22.9676 39.0833 22.6487 39.2968 22.436C39.6171 22.2234 39.9374 22.0108 40.3645 21.9045C40.7915 21.7982 41.2186 21.6919 41.6456 21.6919C42.2862 21.6919 42.9268 21.7982 43.5674 22.0108C44.1012 22.2234 44.635 22.5424 45.1689 22.8613L44.3148 24.137C43.8877 23.818 43.4606 23.6054 43.0336 23.3928C42.6065 23.1802 42.1795 23.1802 41.7524 23.1802C41.3253 23.1802 40.8983 23.2865 40.578 23.4991C40.3645 23.7117 40.1509 24.0306 40.1509 24.3496C40.1509 24.5622 40.1509 24.6685 40.2577 24.8811C40.3645 24.9874 40.4712 25.2 40.578 25.3063C40.7915 25.4126 41.005 25.5189 41.3253 25.6253C41.6456 25.7316 41.9659 25.8379 42.4998 25.9442C42.9268 26.0505 43.3539 26.1568 43.8877 26.3694C44.208 26.4757 44.5283 26.6883 44.8486 26.9009C45.0621 27.1136 45.2756 27.4325 45.3824 27.6451C45.4892 27.964 45.5959 28.2829 45.5959 28.7082C45.5959 29.1334 45.4892 29.5586 45.3824 29.8775C45.1689 30.1965 44.9553 30.5154 44.6351 30.8343C44.3148 31.0469 43.9945 31.2595 43.5674 31.3658C43.0336 31.3658 42.4998 31.4721 42.0727 31.4721Z" fill="#D8B743"/>
		<path d="M47.4102 21.7964H49.2252L52.1095 26.2613L55.0989 21.7964H56.914V31.3657H55.2057V24.4541L52.2163 28.9207H52.1095L49.1184 24.4541V31.3657H47.4102V21.7964Z" fill="#D8B743"/>
		<path d="M62.6814 21.6899H64.2829L68.4467 31.2593H66.6317L65.6708 28.9205H61.1867L60.2258 31.2593H58.5176L62.6814 21.6899ZM65.137 27.5385L63.4288 23.7115L61.8273 27.5385H65.137Z" fill="#D8B743"/>
		<path d="M70.1556 21.7961H74.4262C74.96 21.7961 75.4938 21.9025 76.0277 22.0088C76.4547 22.1151 76.8818 22.434 77.2021 22.7529C77.4156 22.9655 77.6291 23.2844 77.8427 23.7097C77.9494 24.0286 78.0562 24.4538 78.0562 24.8791C78.0562 25.198 77.9494 25.6232 77.8427 25.9421C77.7359 26.261 77.5224 26.4737 77.4156 26.7926C77.2021 27.0052 76.9885 27.2178 76.6683 27.4304C76.348 27.643 76.0277 27.7493 75.7074 27.8557L78.2697 31.4701H76.2412L73.8924 28.1746H71.7571V31.4701H70.0488L70.1556 21.7944V21.7961ZM74.3194 26.4737C74.8532 26.4737 75.3871 26.3674 75.7074 26.0484C76.0277 25.7295 76.2412 25.3043 76.2412 24.8791C76.2412 24.4538 76.0277 24.0286 75.7074 23.7097C75.2803 23.3908 74.7465 23.2844 74.2127 23.2844H71.7571V26.4737H74.3194Z" fill="#D8B743"/>
		<path d="M82.4341 23.2847H79.3379V21.7964H87.1334V23.2847H84.0355V31.3657H82.3273L82.4341 23.2847Z" fill="#D8B743"/>
		<path d="M97.491 31.472C96.8504 31.472 96.2098 31.3657 95.5693 31.0468C94.3948 30.5152 93.434 29.6648 93.0069 28.4954C92.7934 27.8576 92.5798 27.2197 92.6866 26.5819C92.6866 25.944 92.7934 25.3062 93.0069 24.6684C93.434 23.499 94.3948 22.5422 95.5693 22.0107C96.2098 21.7981 96.8504 21.5854 97.5978 21.5854C98.0248 21.5854 98.4519 21.5854 98.7722 21.6918C99.0925 21.7981 99.4128 21.9044 99.7331 22.0107C100.053 22.117 100.267 22.3296 100.587 22.4359C100.801 22.6485 101.121 22.8611 101.335 23.0737L100.267 24.3494C99.9466 24.0305 99.5196 23.7116 99.0925 23.499C98.6654 23.2864 98.1316 23.1801 97.5978 23.1801C97.1707 23.1801 96.7437 23.2864 96.3166 23.3927C95.8896 23.6053 95.5693 23.8179 95.249 24.1368C94.9287 24.4557 94.7151 24.7747 94.6084 25.1999C94.5016 25.6251 94.3948 26.0503 94.3948 26.4756C94.3948 26.9008 94.5016 27.326 94.6084 27.7513C94.7151 28.1765 94.9287 28.4954 95.249 28.8143C95.5693 29.1333 95.8896 29.3459 96.3166 29.5585C96.7437 29.7711 97.1707 29.8774 97.5978 29.7711C98.1316 29.7711 98.6654 29.6648 99.0925 29.4522C99.5196 29.2396 99.9466 28.9206 100.374 28.4954L101.441 29.5585C101.228 29.7711 100.907 30.09 100.694 30.3026C100.374 30.5152 100.16 30.7279 99.8398 30.8342C99.5196 30.9405 99.1993 31.1531 98.7722 31.1531C98.3451 31.472 97.9181 31.472 97.491 31.472Z" fill="#D8B743"/>
		<path d="M103.15 21.7964H104.752V25.7297H109.344V21.7964H111.053V31.3657H109.344V27.3244H104.752V31.3657H103.15V21.7964Z" fill="#D8B743"/>
		<path d="M116.926 21.6899H118.527L122.691 31.2593H120.876L119.915 28.9205H115.431L114.47 31.2593H112.762L116.926 21.6899ZM119.274 27.5385L117.673 23.7115L116.071 27.5385H119.274Z" fill="#D8B743"/>
		<path d="M124.4 21.7964H126.109V31.3657H124.4V21.7964Z" fill="#D8B743"/>
		<path d="M128.67 21.7964H130.165L135.291 28.3891V21.7964H136.999V31.3657H135.611L130.378 24.5604V31.3657H128.67V21.7964Z" fill="#D8B743"/>
		<path d="M19.4347 30.7279V34.8739L15.8046 37L12.2814 34.8739V30.7279L15.8046 32.854L19.4347 30.7279ZM0 16.373L3.52324 18.4991V25.6234L9.61056 29.2379V33.3838L0 27.7496V16.373ZM31.6076 16.373V27.7496L21.8902 33.3838V29.2379L27.9776 25.6234V18.4991L31.6076 16.373ZM21.8902 10.7387L25.5202 12.8649V17.0108L19.4329 20.6253V27.8559L15.9097 29.982L12.3864 27.8559V20.6253L6.0856 17.0108V12.8649L9.7156 10.7387L15.8029 14.3532L21.8902 10.7387ZM6.08732 19.9892L9.61056 22.1153V26.2613L6.08732 24.1351V19.9892ZM25.522 19.9892V24.1351L21.9987 26.2613V22.1153L25.522 19.9892ZM3.52324 7.12429L7.15325 9.25043L3.52324 11.3766V15.5225L0 13.3964V9.25043L3.52324 7.12429ZM28.0826 7.12429L31.7126 9.25043V13.3964L28.0826 15.5225V11.3766L24.5594 9.25043L28.0826 7.12429ZM15.8029 7.12429L19.4329 9.25043L15.8029 11.3766L12.2797 9.25043L15.8029 7.12429ZM15.8029 0L25.5202 5.63427L21.997 7.76042L15.9097 4.14598L9.7156 7.76042L6.19236 5.63427L15.8029 0Z" fill="#D8B743"/>
	</g>
	<defs>
		<clipPath id="clip0_6767_69559">
			<rect width="137" height="37" fill="white"/>
		</clipPath>
	</defs>
</svg>
