<svg width="13" height="15" viewBox="0 0 13 15" fill="none" xmlns="http://www.w3.org/2000/svg">
	<path fill-rule="evenodd" clip-rule="evenodd" d="M7.85686 0.0361328C8.03683 0.0361328 8.20943 0.107625 8.33669 0.234882L12.3862 4.28695C12.5135 4.4142 12.6069 4.60616 12.6069 4.78613V5.4647V12.929C12.6069 14.0533 11.6954 14.9647 10.5711 14.9647H2.42829C1.304 14.9647 0.392578 14.0533 0.392578 12.929V2.07185C0.392578 0.947553 1.304 0.0361328 2.42829 0.0361328H7.85686ZM10.9686 4.78613L8.53544 2.35292V4.78613H10.9686ZM7.17829 1.39328V5.4647C7.17829 5.83947 7.4821 6.14328 7.85686 6.14328H11.2497V12.929C11.2497 13.3038 10.9459 13.6076 10.5711 13.6076H2.42829C2.05353 13.6076 1.74972 13.3038 1.74972 12.929V2.07185C1.74972 1.69708 2.05353 1.39328 2.42829 1.39328H7.17829ZM9.89258 8.17899C9.89258 7.80423 9.58877 7.50042 9.21401 7.50042H3.78544C3.41067 7.50042 3.10686 7.80423 3.10686 8.17899C3.10686 8.55375 3.41067 8.85756 3.78544 8.85756H9.21401C9.58877 8.85756 9.89258 8.55375 9.89258 8.17899ZM5.48001 10.2147C5.85477 10.2147 6.15858 10.5185 6.15858 10.8933C6.15858 11.268 5.85477 11.5718 5.48001 11.5718H3.78544C3.41067 11.5718 3.10686 11.268 3.10686 10.8933C3.10686 10.5185 3.41067 10.2147 3.78544 10.2147H5.48001ZM9.89258 10.8933C9.89258 10.5185 9.58877 10.2147 9.21401 10.2147H7.85686C7.4821 10.2147 7.17829 10.5185 7.17829 10.8933C7.17829 11.268 7.4821 11.5718 7.85686 11.5718H9.21401C9.58877 11.5718 9.89258 11.268 9.89258 10.8933ZM5.14258 4.78613C5.51734 4.78613 5.82115 5.08994 5.82115 5.4647C5.82115 5.83947 5.51734 6.14328 5.14258 6.14328H3.78544C3.41067 6.14328 3.10686 5.83947 3.10686 5.4647C3.10686 5.08994 3.41067 4.78613 3.78544 4.78613H5.14258Z" fill="#191B20"/>
</svg>
