<svg width="12" height="14" viewBox="0 0 12 14" fill="none" xmlns="http://www.w3.org/2000/svg">
	<path d="M0.999128 7.99981L8.58913 7.99981L5.28913 11.2898C5.10082 11.4781 4.99504 11.7335 4.99504 11.9998C4.99504 12.2661 5.10082 12.5215 5.28913 12.7098C5.47743 12.8981 5.73283 13.0039 5.99913 13.0039C6.26543 13.0039 6.52082 12.8981 6.70913 12.7098L11.7091 7.70981C11.8002 7.61471 11.8715 7.50257 11.9191 7.37981C12.0191 7.13635 12.0191 6.86328 11.9191 6.61981C11.8715 6.49706 11.8002 6.38492 11.7091 6.28981L6.70913 1.28982C6.61616 1.19609 6.50556 1.12169 6.3837 1.07092C6.26185 1.02015 6.13114 0.994016 5.99913 0.994016C5.86712 0.994016 5.73641 1.02015 5.61455 1.07092C5.49269 1.12169 5.38209 1.19609 5.28913 1.28982C5.1954 1.38278 5.12101 1.49338 5.07024 1.61524C5.01947 1.7371 4.99333 1.8678 4.99333 1.99981C4.99333 2.13183 5.01947 2.26253 5.07024 2.38439C5.12101 2.50625 5.1954 2.61685 5.28913 2.70981L8.58913 5.99981L0.999128 5.99981C0.733911 5.99981 0.479557 6.10517 0.29202 6.29271C0.104484 6.48024 -0.000872064 6.7346 -0.000872087 6.99981C-0.00087211 7.26503 0.104484 7.51938 0.29202 7.70692C0.479557 7.89446 0.733911 7.99981 0.999128 7.99981Z" fill="#0285FD"/>
</svg>
