<svg width="20" height="22" viewBox="0 0 20 22" fill="none" xmlns="http://www.w3.org/2000/svg">
    <path fill-rule="evenodd" clip-rule="evenodd" d="M0.416931 0.394094L0.693726 0.18688C1.12329 -0.0586034 1.65369 -0.0626928 2.08594 0.177297L13.5892 6.5548L10.093 10.0402L0.416931 0.394094ZM9.12793 11.0025L0 20.1031V1.90185L9.12793 11.0025ZM0.518311 21.5127L10.0934 11.9662L13.467 15.3315L2.08649 21.6409C1.65424 21.8809 1.12378 21.8768 0.694214 21.6313L0.518311 21.5127ZM19.2896 9.71422L14.8306 7.24206L11.0589 11.0028L14.7078 14.6423L19.2896 12.1033C19.7286 11.8591 19.9999 11.4037 19.9999 10.9087C19.9999 10.4137 19.7286 9.9583 19.2896 9.71422Z" fill="#29304A"/>
</svg>
