<svg width="20" height="25" viewBox="0 0 20 25" fill="none" xmlns="http://www.w3.org/2000/svg">
    <path fill-rule="evenodd" clip-rule="evenodd" d="M14.8796 0C14.989 1.42712 14.5376 2.8407 13.6214 3.94049C13.1829 4.48608 12.626 4.92511 11.9931 5.22437C11.3601 5.52362 10.6675 5.67535 9.96753 5.66815C9.92285 4.98175 10.0139 4.29352 10.2354 3.64233C10.4569 2.99121 10.8046 2.3902 11.2587 1.87347C12.1871 0.815979 13.48 0.146973 14.8796 0ZM17.432 10.3874C16.9669 11.207 16.7166 12.1307 16.7045 13.073C16.7056 14.1329 17.0187 15.169 17.6047 16.0521C18.1907 16.9352 19.0237 17.6262 20 18.0392C19.6161 19.2859 19.0377 20.4641 18.2858 21.5303C17.2762 23.0406 16.2176 24.5162 14.5374 24.5434C13.7383 24.5618 13.1989 24.332 12.6368 24.0926C12.0505 23.8428 11.4396 23.5826 10.4835 23.5826C9.4696 23.5826 8.83136 23.8512 8.21576 24.1103C7.68378 24.3342 7.1687 24.551 6.44275 24.5811C4.84265 24.6403 3.61975 22.9691 2.57342 21.4729C0.481994 18.4175 -1.14648 12.8621 1.03674 9.08215C1.54083 8.17645 2.27075 7.41681 3.1557 6.87708C4.04059 6.33752 5.05017 6.03619 6.08612 6.00281C6.99365 5.98407 7.8645 6.33386 8.62799 6.64056C9.21185 6.87506 9.73297 7.08435 10.1597 7.08435C10.5349 7.08435 11.0414 6.8833 11.6317 6.64899C12.5617 6.27991 13.6996 5.82831 14.8592 5.95007C15.7478 5.97784 16.6177 6.2124 17.4 6.63531C18.1821 7.05804 18.8547 7.65747 19.3648 8.38574C18.562 8.87927 17.8971 9.56793 17.432 10.3874Z" fill="#29304A"/>
</svg>
