<svg width="21" height="17" viewBox="0 0 21 17" fill="none" xmlns="http://www.w3.org/2000/svg">
    <path fill-rule="evenodd" clip-rule="evenodd" d="M4.81714 6.89453C3.54492 5.96875 2.78223 5.41211 2.5293 5.22461C2.06787 4.89648 1.63257 4.44531 1.22339 3.87109C0.814209 3.29688 0.609619 2.76367 0.609619 2.27148C0.609619 1.66211 0.763916 1.1543 1.07275 0.748047C1.38159 0.341797 1.82227 0.138672 2.39526 0.138672H18.824C19.3074 0.138672 19.7258 0.322266 20.0793 0.689453C20.4329 1.05664 20.6096 1.49805 20.6096 2.01367C20.6096 2.41797 20.5315 2.81055 20.375 3.19141C20.2925 3.39209 20.1885 3.58936 20.0625 3.7832C19.8188 4.15918 19.5354 4.49854 19.2119 4.80127C19.0515 4.95117 18.8813 5.09229 18.7012 5.22412C15.9036 7.26367 14.1624 8.5332 13.478 9.0332C13.4036 9.08789 13.2454 9.20654 13.0037 9.39062C12.7617 9.57422 12.561 9.72266 12.4011 9.83594C12.241 9.94922 12.0476 10.0762 11.8208 10.2168C11.594 10.3569 11.3799 10.4629 11.179 10.5327C10.978 10.603 10.792 10.6382 10.6208 10.6382H10.6096H10.5984C10.4272 10.6382 10.2412 10.603 10.0403 10.5327C9.8396 10.4629 9.62549 10.3569 9.39868 10.2168C9.17163 10.0762 8.97803 9.94922 8.81812 9.83594C8.6582 9.72266 8.45728 9.57422 8.21558 9.39062C7.97363 9.20703 7.81567 9.08789 7.74121 9.0332C7.06421 8.5332 6.0896 7.82031 4.81714 6.89453ZM13.9355 10.5215C15.2002 9.56055 17.0532 8.21289 19.4934 6.47852C19.9177 6.17383 20.2896 5.83398 20.6096 5.45898V14.7632C20.6096 15.2793 20.4348 15.7202 20.085 16.0879C19.9199 16.2612 19.739 16.3936 19.5425 16.4849C19.3228 16.5874 19.0833 16.6387 18.824 16.6387H2.39526C1.9043 16.6387 1.48389 16.4551 1.13403 16.0879C0.784424 15.7207 0.609619 15.2793 0.609619 14.7632V5.45898C0.937012 5.8418 1.31274 6.18164 1.73706 6.47852C4.43042 8.40039 6.2793 9.74805 7.28369 10.5215C7.70776 10.8496 8.052 11.1055 8.31616 11.2891C8.58032 11.4727 8.93188 11.6602 9.37085 11.8516C9.64258 11.9702 9.90308 12.0518 10.1521 12.0967C10.3052 12.1245 10.4539 12.1387 10.5984 12.1387H10.6096H10.6211C11.0005 12.1387 11.4097 12.043 11.8484 11.8516C12.2876 11.6602 12.6389 11.4727 12.9031 11.2891C13.1675 11.1055 13.5115 10.8496 13.9355 10.5215Z" fill="white"/>
</svg>
