<svg width="34" height="23" viewBox="0 0 34 23" fill="none" xmlns="http://www.w3.org/2000/svg">
    <path fill-rule="evenodd" clip-rule="evenodd" d="M18.5269 3.37646C18.7507 3.30078 18.9749 3.23145 19.199 3.16797C17.2644 1.43896 14.3547 0.338867 11.1008 0.338867C5.27612 0.338867 0.554443 3.86377 0.554443 8.21143C0.554443 11.3818 3.06494 14.1147 6.68311 15.3623L7.05005 18.6245L9.7854 16.0234C10.2163 16.0635 10.6553 16.084 11.1008 16.084C11.425 16.084 11.7458 16.0732 12.0627 16.0518C11.822 15.7505 11.6099 15.4292 11.4294 15.0879C11.2815 14.8076 11.155 14.5142 11.0518 14.208C9.66138 10.0889 13.0081 5.23926 18.5269 3.37646ZM27.2991 19.7046C30.9851 18.4775 33.5544 15.7183 33.5544 12.5107C33.5544 8.16309 28.8328 4.63818 23.0081 4.63818C17.1833 4.63818 12.4617 8.16309 12.4617 12.5107C12.4617 16.8589 17.1833 20.3833 23.0081 20.3833C23.5657 20.3833 24.1133 20.3506 24.6475 20.2886L27.1089 22.438L27.2991 19.7046Z" fill="white"/>
</svg>
