<svg width="22" height="22" viewBox="0 0 22 22" fill="none" xmlns="http://www.w3.org/2000/svg">
    <path fill-rule="evenodd" clip-rule="evenodd" d="M14.9581 5.4364C14.5731 3.30621 13.983 1.55927 13.302 0.324646C13.2717 0.269653 13.2185 0.230896 13.1569 0.218445C12.4421 0.0744019 11.7079 0 10.9621 0C10.2164 0 9.48213 0.0744019 8.76734 0.218506C8.73951 0.224121 8.71339 0.235107 8.69032 0.25061C8.67805 0.25885 8.66663 0.268311 8.65632 0.278931C8.65199 0.283386 8.64784 0.288025 8.64387 0.292847C8.63966 0.297913 8.63575 0.303162 8.63203 0.308655C8.62855 0.313843 8.62531 0.319214 8.62226 0.324707C7.94123 1.55927 7.35114 3.30621 6.96613 5.43646C6.94642 5.54553 7.0135 5.65234 7.12043 5.68115C8.34596 6.01123 9.63386 6.1875 10.9621 6.1875C12.2904 6.1875 13.5783 6.01123 14.8038 5.68109C14.9108 5.65234 14.9779 5.54547 14.9581 5.4364ZM14.9582 7.06506C15.0843 7.03296 15.2091 7.1203 15.2238 7.24951C15.3263 8.14789 15.3937 9.09802 15.4193 10.0925C15.4224 10.2131 15.325 10.3124 15.2044 10.3124H6.72004C6.59937 10.3124 6.50202 10.2131 6.50514 10.0925C6.53077 9.09802 6.59815 8.14795 6.70063 7.24957C6.7154 7.1203 6.84022 7.03302 6.96626 7.06512C8.26344 7.39557 9.60017 7.56244 10.9622 7.56244C12.3243 7.56244 13.6611 7.39557 14.9582 7.06506ZM6.50514 11.9073C6.50202 11.7869 6.59943 11.6875 6.72004 11.6875H15.2044C15.325 11.6875 15.4224 11.7869 15.4193 11.9073C15.3937 12.9019 15.3263 13.8519 15.2238 14.7504C15.2091 14.8796 15.0842 14.9669 14.9582 14.9348C13.661 14.6044 12.3243 14.4375 10.9622 14.4375C9.60017 14.4375 8.26338 14.6044 6.96626 14.9348C6.84022 14.9669 6.7154 14.8796 6.70063 14.7504C6.59815 13.852 6.53077 12.9019 6.50514 11.9073ZM15.2462 1.26416C15.177 1.08459 15.3594 0.90979 15.5344 0.989807C16.7124 1.52838 17.7971 2.27869 18.7403 3.22198C18.7799 3.26154 18.819 3.30133 18.8578 3.34137C18.9084 3.39362 18.9584 3.44635 19.0078 3.49939C19.0989 3.59741 19.0787 3.75409 18.9663 3.82678C18.2073 4.31763 17.4008 4.74109 16.555 5.08813C16.4294 5.13971 16.2874 5.06372 16.2619 4.9303C16.0078 3.59534 15.668 2.36102 15.2499 1.27374L15.2462 1.26416ZM17.0092 10.3123H21.7092C21.8352 10.3123 21.9339 10.2044 21.9236 10.0789C21.7717 8.23468 21.1648 6.4837 20.1571 4.95709C20.0911 4.85718 19.9572 4.83014 19.8574 4.89612C19.0364 5.43854 18.1661 5.9054 17.2511 6.29236C17.0634 6.37177 16.8746 6.44733 16.6848 6.51929C16.5916 6.55463 16.5347 6.64832 16.5471 6.74719C16.6824 7.82568 16.7662 8.95068 16.7948 10.1023C16.7977 10.219 16.8925 10.3123 17.0092 10.3123ZM8.62226 21.6754C7.94123 20.4407 7.35114 18.6938 6.96613 16.5636C6.94642 16.4545 7.0135 16.3477 7.12043 16.3189C8.34596 15.9888 9.63386 15.8125 10.9621 15.8125C12.2904 15.8125 13.5783 15.9888 14.8038 16.3188C14.9108 16.3477 14.9779 16.4545 14.9581 16.5635C14.5731 18.6938 13.983 20.4407 13.302 21.6753C13.2717 21.7303 13.2185 21.7691 13.1569 21.7815C12.4421 21.9256 11.7079 22 10.9621 22C10.2164 22 9.48213 21.9256 8.76734 21.7816C8.70582 21.7691 8.6526 21.7303 8.62226 21.6754ZM4.67323 15.7074C4.74806 15.6757 4.82313 15.6447 4.89832 15.6142C5.01167 15.5682 5.12544 15.5237 5.23957 15.4804C5.33271 15.4451 5.38966 15.3514 5.37721 15.2525C5.24195 14.1741 5.15815 13.0491 5.12959 11.8975C5.12666 11.7808 5.03181 11.6875 4.91511 11.6875H0.215096C0.0891198 11.6875 -0.00957401 11.7954 0.000740932 11.921C0.152657 13.7651 0.759591 15.5161 1.76728 17.0427C1.8332 17.1426 1.96711 17.1696 2.06696 17.1036C2.88795 16.5612 3.75825 16.0944 4.67323 15.7074ZM16.5551 16.9122C17.4008 17.2592 18.2073 17.6827 18.9664 18.1736C19.0787 18.2462 19.0989 18.403 19.0078 18.5009C18.9205 18.5947 18.8314 18.6873 18.7404 18.7784C17.7971 19.7217 16.7124 20.4719 15.5344 21.0105C15.3594 21.0906 15.177 20.9158 15.2462 20.7361L15.2498 20.7266C15.6681 19.6393 16.0078 18.405 16.262 17.0701C16.2874 16.9366 16.4294 16.8607 16.5551 16.9122ZM16.7948 11.8975C16.7662 13.0491 16.6823 14.1741 16.5471 15.2526C16.5347 15.3514 16.5916 15.4452 16.6848 15.4805C16.8746 15.5524 17.0634 15.6281 17.2511 15.7075C18.1661 16.0945 19.0364 16.5613 19.8574 17.1037C19.9572 17.1696 20.0911 17.1426 20.1571 17.0427C21.1647 15.5161 21.7717 13.7652 21.9236 11.921C21.9339 11.7954 21.8352 11.6875 21.7092 11.6875H17.0092C16.8925 11.6876 16.7977 11.7808 16.7948 11.8975ZM5.36927 5.08813C4.52357 4.74115 3.71699 4.31763 2.95796 3.82678C2.84559 3.75409 2.82539 3.59741 2.91651 3.49939C2.95112 3.46216 2.98603 3.42517 3.02125 3.38837C3.04353 3.36511 3.06587 3.34192 3.08839 3.31885C3.10639 3.30035 3.12446 3.28192 3.14265 3.26355L3.18397 3.22198C4.12727 2.27875 5.21192 1.52844 6.3899 0.989807C6.56495 0.90979 6.74732 1.08459 6.67811 1.26416L6.67445 1.27374C6.25623 2.36102 5.91657 3.59534 5.66236 4.9303C5.63697 5.06372 5.49494 5.13971 5.36927 5.08813ZM5.12495 10.3123C5.1482 9.08746 5.23377 7.89111 5.37721 6.74719C5.38966 6.64832 5.33271 6.55463 5.23957 6.51929C5.04975 6.44733 4.86091 6.37177 4.67323 6.29236C3.75825 5.90533 2.88795 5.43848 2.06696 4.89612C1.96711 4.83014 1.83326 4.85724 1.76728 4.95709C0.759591 6.4837 0.152657 8.23462 0.000740932 10.0788C-0.00957401 10.2044 0.0891198 10.3123 0.215096 10.3123H5.12495ZM6.67811 20.7359C6.74732 20.9155 6.56495 21.0903 6.3899 21.0103C5.21192 20.4717 4.12721 19.7214 3.18403 18.7781C3.0929 18.687 3.00385 18.5945 2.91651 18.5007C2.82539 18.4027 2.84553 18.246 2.95796 18.1733C3.71699 17.6824 4.52357 17.259 5.36927 16.9119C5.49494 16.8604 5.63697 16.9364 5.66236 17.0698C5.91657 18.4047 6.2563 19.6391 6.67445 20.7264L6.67811 20.7359Z" fill="#29304A"/>
</svg>
