<svg width="56" height="56" viewBox="0 0 56 56" fill="none" xmlns="http://www.w3.org/2000/svg">
	<circle cx="28" cy="28" r="28" fill="#5CEE9C"/>
	<path d="M19.2 27C18.6477 27 18.2 27.4477 18.2 28C18.2 28.5523 18.6477 29 19.2 29L19.2 27ZM37.5071 28.7071C37.8976 28.3166 37.8976 27.6834 37.5071 27.2929L31.1431 20.9289C30.7526 20.5384 30.1194 20.5384 29.7289 20.9289C29.3384 21.3195 29.3384 21.9526 29.7289 22.3431L35.3857 28L29.7289 33.6569C29.3384 34.0474 29.3384 34.6805 29.7289 35.0711C30.1194 35.4616 30.7526 35.4616 31.1431 35.0711L37.5071 28.7071ZM19.2 29L36.7999 29L36.7999 27L19.2 27L19.2 29Z" fill="#191B20"/>
</svg>
