<svg width="114" height="114" viewBox="0 0 114 114" fill="none" xmlns="http://www.w3.org/2000/svg">
	<circle cx="56.5685" cy="56.5684" r="40" transform="rotate(135 56.5685 56.5684)" fill="#FFFB1F"/>
	<path d="M66.5185 48.7399C67.1043 48.1541 67.1043 47.2043 66.5185 46.6185C65.9328 46.0328 64.983 46.0328 64.3972 46.6185L66.5185 48.7399ZM46.1792 65.4579C46.1792 66.2863 46.8508 66.9579 47.6792 66.9579L61.1792 66.9579C62.0076 66.9579 62.6792 66.2863 62.6792 65.4579C62.6792 64.6295 62.0076 63.9579 61.1792 63.9579L49.1792 63.9579L49.1792 51.9579C49.1792 51.1295 48.5076 50.4579 47.6792 50.4579C46.8508 50.4579 46.1792 51.1295 46.1792 51.9579L46.1792 65.4579ZM64.3972 46.6185L46.6185 64.3972L48.7399 66.5185L66.5185 48.7399L64.3972 46.6185Z" fill="#191B20"/>
</svg>
