<svg width="52" height="52" viewBox="0 0 52 52" fill="none" xmlns="http://www.w3.org/2000/svg">
	<circle cx="26" cy="26" r="26" transform="rotate(90 26 26)" fill="#FFFB1F"/>
	<path d="M22.0607 18.9393C21.4749 18.3536 20.5251 18.3536 19.9393 18.9393C19.3536 19.5251 19.3536 20.4749 19.9393 21.0607L22.0607 18.9393ZM32 32.5C32.8284 32.5 33.5 31.8284 33.5 31L33.5 17.5C33.5 16.6716 32.8284 16 32 16C31.1716 16 30.5 16.6716 30.5 17.5L30.5 29.5L18.5 29.5C17.6716 29.5 17 30.1716 17 31C17 31.8284 17.6716 32.5 18.5 32.5L32 32.5ZM19.9393 21.0607L30.9393 32.0607L33.0607 29.9393L22.0607 18.9393L19.9393 21.0607Z" fill="#191B20"/>
</svg>
