<svg width="41" height="41" viewBox="0 0 41 41" fill="none" xmlns="http://www.w3.org/2000/svg">
	<circle cx="20.5" cy="20.5" r="20.5" transform="rotate(90 20.5 20.5)" fill="white"/>
	<path d="M21.5 14.0571C21.5 13.5048 21.0523 13.0571 20.5 13.0571C19.9477 13.0571 19.5 13.5048 19.5 14.0571L21.5 14.0571ZM19.7929 27.65C20.1834 28.0405 20.8166 28.0405 21.2071 27.65L27.5711 21.286C27.9616 20.8955 27.9616 20.2623 27.5711 19.8718C27.1805 19.4813 26.5474 19.4813 26.1569 19.8718L20.5 25.5286L14.8431 19.8718C14.4526 19.4813 13.8195 19.4813 13.4289 19.8718C13.0384 20.2623 13.0384 20.8955 13.4289 21.286L19.7929 27.65ZM19.5 14.0571L19.5 26.9428L21.5 26.9428L21.5 14.0571L19.5 14.0571Z" fill="#191B20"/>
</svg>
