<svg width="70" height="70" viewBox="0 0 70 70" fill="none" xmlns="http://www.w3.org/2000/svg">
	<circle cx="35" cy="35" r="35" transform="rotate(90 35 35)" fill="#FFFB1F"/>
	<path d="M36.5 24C36.5 23.1716 35.8284 22.5 35 22.5C34.1716 22.5 33.5 23.1716 33.5 24L36.5 24ZM33.9393 47.0607C34.5251 47.6464 35.4749 47.6464 36.0607 47.0607L45.6066 37.5147C46.1924 36.9289 46.1924 35.9792 45.6066 35.3934C45.0208 34.8076 44.0711 34.8076 43.4853 35.3934L35 43.8787L26.5147 35.3934C25.9289 34.8076 24.9792 34.8076 24.3934 35.3934C23.8076 35.9792 23.8076 36.9289 24.3934 37.5147L33.9393 47.0607ZM33.5 24L33.5 46L36.5 46L36.5 24L33.5 24Z" fill="#191B20"/>
</svg>
