<svg width="52" height="52" viewBox="0 0 52 52" fill="none" xmlns="http://www.w3.org/2000/svg">
	<circle cx="26" cy="26" r="26" fill="#FFFB1F"/>
	<path d="M17.8286 24.5C17.0002 24.5 16.3286 25.1716 16.3286 26C16.3286 26.8284 17.0002 27.5 17.8286 27.5L17.8286 24.5ZM35.2321 27.0607C35.8179 26.4749 35.8179 25.5251 35.2321 24.9393L25.6862 15.3934C25.1004 14.8076 24.1507 14.8076 23.5649 15.3934C22.9791 15.9792 22.9791 16.9289 23.5649 17.5147L32.0501 26L23.5649 34.4853C22.9791 35.0711 22.9791 36.0208 23.5649 36.6066C24.1507 37.1924 25.1004 37.1924 25.6862 36.6066L35.2321 27.0607ZM17.8286 27.5L34.1715 27.5L34.1715 24.5L17.8286 24.5L17.8286 27.5Z" fill="#191B20"/>
</svg>
