<svg width="123" height="26" viewBox="0 0 123 26" fill="none" xmlns="http://www.w3.org/2000/svg">
	<g clip-path="url(#clip0_13332_83152)">
		<path d="M37.6312 7.76708C38.6726 7.76708 39.5723 7.9534 40.3287 8.31963C41.0883 8.68942 41.7148 9.18771 42.218 9.81415C42.7137 10.4434 43.083 11.1795 43.3216 12.0233C43.5583 12.8689 43.6769 13.7787 43.6769 14.7517C43.6769 16.2473 43.4026 17.6598 42.8491 18.9912C42.2958 20.3247 41.5448 21.4815 40.5898 22.4681C39.6355 23.4537 38.5087 24.2304 37.2091 24.8047C35.9116 25.379 34.5012 25.666 32.9862 25.666C32.7905 25.666 32.4462 25.6606 31.9598 25.6503C31.4733 25.6403 30.9141 25.5903 30.2883 25.5057C29.6583 25.4176 28.9923 25.288 28.2883 25.1138C27.5851 24.9432 26.9176 24.7037 26.2891 24.3992L31.9126 0.785271L36.9487 0.00570679L34.9355 8.3853C35.3666 8.19113 35.8008 8.0405 36.2344 7.93127C36.6683 7.82312 37.1333 7.76708 37.6312 7.76708ZM33.4069 21.6732C34.1651 21.6732 34.8801 21.4869 35.5516 21.1207C36.2248 20.7541 36.8062 20.2594 37.2926 19.6429C37.7794 19.0236 38.1644 18.3262 38.4455 17.5466C38.7266 16.7674 38.8683 15.9543 38.8683 15.1083C38.8683 14.0693 38.6948 13.2586 38.3483 12.6725C38.0019 12.0889 37.3612 11.7952 36.4305 11.7952C36.1255 11.7952 35.733 11.8534 35.2455 11.9572C34.7569 12.0672 34.3194 12.2963 33.9276 12.6411L31.7837 21.5404C31.913 21.5636 32.0276 21.5851 32.1251 21.6054C32.2208 21.6272 32.3262 21.6429 32.4312 21.654C32.5426 21.6664 32.6694 21.6729 32.8237 21.6729C32.978 21.6729 33.1694 21.6732 33.4073 21.6732H33.4076H33.4069Z" fill="white"/>
		<path d="M48.9008 25.2127H44.0908L48.153 8.1276H52.9965L48.9012 25.2127H48.9008ZM51.2415 6.0459C50.5701 6.0459 49.9615 5.84602 49.4212 5.44588C48.8769 5.04789 48.6072 4.43573 48.6072 3.61012C48.6072 3.15609 48.6994 2.73026 48.8822 2.3287C49.068 1.92749 49.3112 1.58233 49.6151 1.28857C49.9187 0.997657 50.2708 0.76493 50.6705 0.589671C51.0726 0.41691 51.5005 0.330887 51.9562 0.330887C52.6272 0.330887 53.2326 0.530775 53.7751 0.930908C54.3151 1.33318 54.5869 1.9457 54.5869 2.76667C54.5869 3.22213 54.4951 3.6501 54.3105 4.05095C54.1269 4.45215 53.884 4.79696 53.5801 5.09072C53.2787 5.38199 52.9237 5.614 52.5247 5.78783C52.1222 5.96274 51.6958 6.0459 51.2415 6.0459Z" fill="white"/>
		<path d="M57.2113 3.8714L62.2499 3.09113L61.0127 8.12724H66.4081L65.4338 12.0889H60.0706L58.642 18.0649C58.5102 18.5632 58.4356 19.0283 58.4145 19.4609C58.3909 19.8953 58.4459 20.2683 58.5759 20.5824C58.7052 20.8972 58.9374 21.14 59.2749 21.3116C59.6102 21.4858 60.0902 21.5736 60.7206 21.5736C61.2395 21.5736 61.7449 21.5244 62.2338 21.4262C62.7199 21.3302 63.212 21.1964 63.7106 21.0207L64.0692 24.7251C63.4192 24.9632 62.7152 25.1681 61.9567 25.3408C61.1974 25.5154 60.2981 25.5996 59.2588 25.5996C57.7642 25.5996 56.6056 25.3779 55.7802 24.9364C54.9556 24.4917 54.3731 23.8841 54.0245 23.1146C53.6806 22.3482 53.5267 21.4644 53.5695 20.4689C53.6142 19.4712 53.7645 18.4222 54.0245 17.3178L57.2109 3.87033L57.2113 3.8714Z" fill="white"/>
		<path d="M66.1963 18.3922C66.1963 16.9205 66.4345 15.5331 66.9106 14.2338C67.3863 12.9331 68.0713 11.7963 68.9602 10.8204C69.8459 9.84949 70.9249 9.08027 72.1949 8.51523C73.4591 7.9534 74.8749 7.67035 76.4345 7.67035C77.4106 7.67035 78.2827 7.7628 79.0502 7.94769C79.8206 8.13402 80.5177 8.37495 81.1484 8.67764L79.4895 12.4477C79.0559 12.2721 78.6063 12.1171 78.1409 11.9769C77.6752 11.8334 77.107 11.7645 76.4349 11.7645C74.8291 11.7645 73.5599 12.3174 72.6149 13.4203C71.6738 14.5237 71.2002 16.0089 71.2002 17.8721C71.2002 18.9762 71.4384 19.8689 71.917 20.5521C72.3927 21.2353 73.2724 21.5747 74.5488 21.5747C75.1788 21.5747 75.7866 21.509 76.3691 21.3809C76.9559 21.251 77.4738 21.0871 77.9302 20.894L78.2895 24.7586C77.6809 24.9946 77.0099 25.2077 76.2738 25.394C75.5363 25.5743 74.6584 25.6674 73.6402 25.6674C72.2959 25.6674 71.1584 25.4707 70.2281 25.0838C69.297 24.6908 68.5277 24.1693 67.9216 23.5083C67.3124 22.8454 66.8749 22.0719 66.6045 21.1839C66.3341 20.2969 66.1963 19.3645 66.1963 18.3918V18.3922Z" fill="white"/>
		<path d="M87.5641 25.6667C86.4163 25.6667 85.4188 25.4922 84.5731 25.1459C83.7295 24.7997 83.0306 24.3139 82.4781 23.6846C81.9248 23.0578 81.5106 22.3157 81.2266 21.4598C80.9427 20.6049 80.8066 19.6579 80.8066 18.6203C80.8066 17.3189 81.0159 16.0175 81.4384 14.72C81.8588 13.4196 82.4831 12.251 83.3088 11.2126C84.1284 10.1729 85.1391 9.32228 86.3295 8.65979C87.5184 8.00088 88.8863 7.66963 90.422 7.66963C91.5495 7.66963 92.5413 7.84525 93.3988 8.19113C94.2527 8.53665 94.9559 9.02602 95.5116 9.65281C96.0616 10.2828 96.4791 11.0217 96.7599 11.8783C97.0427 12.7318 97.1827 13.6816 97.1827 14.7196C97.1827 16.0171 96.9763 17.3185 96.567 18.6196C96.157 19.9149 95.5491 21.0861 94.7466 22.1265C93.9456 23.1649 92.9438 24.0148 91.7409 24.6751C90.5395 25.3351 89.1463 25.6663 87.5645 25.6663H87.5641V25.6667ZM89.9684 11.7641C89.2556 11.7641 88.6248 11.9712 88.0852 12.3799C87.5431 12.7936 87.0881 13.3133 86.7213 13.9404C86.3506 14.5697 86.0756 15.2565 85.8898 16.0028C85.7056 16.751 85.6156 17.4581 85.6156 18.1299C85.6156 19.2139 85.7902 20.0584 86.1345 20.6659C86.4834 21.2702 87.1095 21.5744 88.0202 21.5744C88.7359 21.5744 89.3627 21.3691 89.9059 20.9558C90.4445 20.5456 90.8999 20.0256 91.2695 19.3974C91.6377 18.7709 91.9152 18.082 92.1009 17.3349C92.2827 16.5893 92.3752 15.8779 92.3752 15.2072C92.3752 14.126 92.2013 13.2794 91.8541 12.6729C91.5073 12.0682 90.8784 11.7641 89.9684 11.7641Z" fill="white"/>
		<path d="M102.427 25.2127H97.6123L101.675 8.1276H106.521L102.427 25.2127H102.427ZM104.764 6.0459C104.093 6.0459 103.485 5.84602 102.945 5.44588C102.404 5.04789 102.132 4.43573 102.132 3.61012C102.132 3.15609 102.225 2.73026 102.408 2.3287C102.592 1.92749 102.836 1.58233 103.141 1.28857C103.443 0.997657 103.798 0.76493 104.197 0.589671C104.596 0.41691 105.024 0.330887 105.478 0.330887C106.151 0.330887 106.758 0.530775 107.299 0.930908C107.841 1.33318 108.114 1.9457 108.114 2.76667C108.114 3.22213 108.017 3.6501 107.835 4.05095C107.653 4.45215 107.409 4.79696 107.106 5.09072C106.801 5.38199 106.45 5.614 106.051 5.78783C105.648 5.96274 105.221 6.0459 104.764 6.0459Z" fill="white"/>
		<path d="M109.985 8.90573C110.35 8.79936 110.758 8.67086 111.201 8.53129C111.646 8.39137 112.143 8.2618 112.699 8.14473C113.248 8.02372 113.868 7.92628 114.55 7.85025C115.232 7.77279 116.009 7.73495 116.872 7.73495C119.409 7.73495 121.158 8.47311 122.124 9.9455C123.089 11.4183 123.255 13.4332 122.63 15.9875L120.416 25.2123H115.575L117.719 16.1817C117.85 15.6177 117.953 15.0723 118.029 14.5397C118.105 14.0122 118.101 13.5467 118.012 13.1441C117.926 12.7461 117.725 12.4205 117.412 12.1678C117.095 11.9198 116.615 11.7948 115.965 11.7948C115.314 11.7948 114.699 11.8623 114.048 11.9922L110.895 25.2116H106.051L109.985 8.90537L109.985 8.90573Z" fill="white"/>
		<path d="M25.2968 15.94C23.5815 22.8162 16.6136 27.0003 9.73324 25.2855C2.85539 23.5718 -1.3314 16.6072 0.384671 9.73174C2.09896 2.85523 9.06681 -1.32957 15.945 0.384466C22.8254 2.09886 27.0115 9.06425 25.2965 15.9404L25.2968 15.94Z" fill="#F7931A"/>
		<path d="M18.5006 11.0063C18.756 9.29873 17.4553 8.38067 15.6764 7.7678L16.2535 5.45445L14.8442 5.10358L14.2828 7.35625C13.9124 7.2638 13.5321 7.1767 13.1539 7.09068L13.7196 4.82338L12.3114 4.4725L11.7339 6.78514C11.4274 6.71553 11.1264 6.64629 10.8346 6.57418L10.836 6.56669L8.89278 6.0816L8.51778 7.58576C8.51778 7.58576 9.5635 7.82563 9.541 7.8399C10.1117 7.98232 10.2149 8.35997 10.1978 8.65909L9.54028 11.2948C9.57993 11.3051 9.631 11.3194 9.68671 11.3419C9.63957 11.3301 9.58957 11.3176 9.53778 11.3051L8.61636 14.9973C8.54671 15.1704 8.36957 15.4307 7.97064 15.3318C7.98457 15.3521 6.94671 15.0759 6.94671 15.0759L6.24707 16.6882L8.08064 17.1447C8.42171 17.23 8.756 17.3196 9.08493 17.4038L8.50171 19.7436L9.90886 20.0945L10.4867 17.7793C10.871 17.8836 11.2442 17.9799 11.6096 18.0706L11.0342 20.3747L12.4431 20.7256L13.0264 18.3904C15.4289 18.8448 17.2353 18.6613 17.996 16.4897C18.6089 14.7407 17.9653 13.7323 16.7017 13.0745C17.6221 12.8621 18.3156 12.2571 18.5006 11.0067V11.0063ZM15.2817 15.5185C14.8464 17.2671 11.8999 16.3219 10.9449 16.0849L11.7189 12.9845C12.6739 13.223 15.7367 13.6948 15.2817 15.5185ZM15.7174 10.981C15.3199 12.5719 12.8678 11.7634 12.0728 11.5653L12.7742 8.75368C13.5692 8.95178 16.1306 9.32158 15.7174 10.9806V10.981Z" fill="white"/>
	</g>
	<defs>
		<clipPath id="clip0_13332_83152">
			<rect width="123" height="25.6696" fill="white"/>
		</clipPath>
	</defs>
</svg>
