<svg width="168" height="46" viewBox="0 0 168 46" fill="none" xmlns="http://www.w3.org/2000/svg">
	<g clip-path="url(#clip0_2980_22009)">
		<path fill-rule="evenodd" clip-rule="evenodd" d="M57.7436 28.488L55.6726 24.8832H52.6402V28.488H50.8564V17.6639H56.2274C56.8822 17.6587 57.5258 17.8346 58.0881 18.1725C58.6505 18.5105 59.11 18.9974 59.4167 19.5803C59.7233 20.1632 59.8653 20.8197 59.8272 21.4784C59.789 22.137 59.5723 22.7725 59.2004 23.3155C58.8121 23.8915 58.2641 24.3395 57.6247 24.6037L59.8346 28.488H57.7436ZM56.2274 19.5012H52.6402V23.0958H56.2274C56.4619 23.0957 56.6937 23.0469 56.9086 22.9524C57.1234 22.858 57.3166 22.7198 57.4761 22.5467C57.723 22.294 57.8907 21.9738 57.9584 21.6258C58.026 21.2778 57.9906 20.9174 57.8564 20.5895C57.7222 20.2617 57.4954 19.9808 57.2039 19.7819C56.9126 19.5831 56.5694 19.4751 56.2176 19.4713L56.2274 19.5012ZM75.3237 17.6639L69.9426 28.488H71.9445L75.3237 21.7079L78.6931 28.488H80.6948L75.3237 17.6639ZM97.9971 17.6639H95.7179L92.6557 21.658L89.6035 17.6639H87.3144L91.8035 23.4354V28.488H93.5872V23.3455L97.9971 17.6639ZM107.134 17.6639H110.711C112.132 17.6744 113.493 18.2479 114.498 19.2607C115.503 20.2732 116.072 21.6438 116.082 23.076C116.074 24.5089 115.506 25.8808 114.5 26.8941C113.495 27.9073 112.133 28.4801 110.711 28.488H107.134V17.6639ZM110.711 26.6506C111.659 26.648 112.568 26.2673 113.238 25.5919C113.908 24.9165 114.286 24.0012 114.289 23.0459C114.278 22.0931 113.898 21.1823 113.229 20.5085C112.561 19.8348 111.657 19.4517 110.711 19.4412H108.908V26.6506H110.711ZM128.004 17.6639H126.22V28.488H128.004V17.6639ZM147.09 23.9645C147.1 24.56 146.988 25.151 146.761 25.7009C146.535 26.2507 146.199 26.7475 145.772 27.1598C145.146 27.7907 144.349 28.2201 143.481 28.3937C142.612 28.5673 141.713 28.4773 140.895 28.135C140.078 27.7928 139.38 27.2137 138.89 26.4713C138.4 25.7289 138.139 24.8564 138.141 23.9645V17.6639H139.925V23.9645C139.925 24.6823 140.208 25.3705 140.712 25.8781C141.215 26.3855 141.898 26.6706 142.61 26.6706C143.323 26.6706 144.006 26.3855 144.51 25.8781C145.013 25.3705 145.296 24.6823 145.296 23.9645V17.6639H147.09V23.9645ZM159.011 28.488V22.0175L162.608 25.6321L166.186 22.0175V28.488H167.999V17.6639L162.608 23.076L157.238 17.6639V28.488H159.011Z" fill="#585F71"/>
		<path d="M37.6075 17.3244V33.4207L19.8393 43.7554L2.06123 33.4207V12.7412L19.8393 2.39645L33.495 10.3447L35.5562 9.14649L19.8393 0L0 11.5429V34.6189L19.8393 46.1618L39.6787 34.6189V16.1262L37.6075 17.3244Z" fill="#585F71"/>
		<path d="M14.8645 33.4307H11.8916V23.3855H21.8014C22.739 23.375 23.6347 22.993 24.2949 22.3221C24.9552 21.6513 25.3267 20.7455 25.3293 19.8007C25.3346 19.3336 25.2451 18.8702 25.0662 18.4392C24.8871 18.0081 24.6227 17.6186 24.2886 17.2945C23.9655 16.9599 23.5787 16.6945 23.1513 16.5144C22.7239 16.3341 22.2647 16.2428 21.8014 16.2459H11.8916V13.1905H21.8112C23.5479 13.201 25.2105 13.9008 26.4386 15.1381C27.6666 16.3756 28.3611 18.0509 28.3715 19.8007C28.3821 21.1402 27.9768 22.4495 27.2121 23.5451C26.5083 24.5935 25.5166 25.4124 24.3581 25.9017C23.2109 26.2683 22.0138 26.4503 20.8103 26.441H14.8645V33.4307Z" fill="#585F71"/>
		<path d="M28.3022 33.181H24.8337L22.1582 28.478C23.2167 28.4127 24.2609 28.1976 25.2599 27.839L28.3022 33.181Z" fill="#585F71"/>
		<path d="M35.5361 13.9793L37.5874 15.1277L39.6388 13.9793V11.5529L37.5874 10.3547L35.5361 11.5529V13.9793Z" fill="#585F71"/>
	</g>
	<defs>
		<clipPath id="clip0_2980_22009">
			<rect width="168" height="46" fill="white"/>
		</clipPath>
	</defs>
</svg>
