<svg width="168" height="46" viewBox="0 0 168 46" fill="none" xmlns="http://www.w3.org/2000/svg">
	<g clip-path="url(#clip0_2848_17958)">
		<path fill-rule="evenodd" clip-rule="evenodd" d="M57.7438 28.488L55.6728 24.8832H52.6404V28.488H50.8567V17.6639H56.2276C56.8824 17.6587 57.526 17.8346 58.0884 18.1725C58.6508 18.5105 59.1102 18.9974 59.417 19.5803C59.7236 20.1632 59.8655 20.8197 59.8275 21.4784C59.7892 22.137 59.5725 22.7725 59.2007 23.3155C58.8123 23.8915 58.2644 24.3395 57.625 24.6037L59.8349 28.488H57.7438ZM56.2276 19.5012H52.6404V23.0958H56.2276C56.4621 23.0957 56.694 23.0469 56.9089 22.9524C57.1236 22.858 57.3168 22.7198 57.4763 22.5467C57.7233 22.294 57.891 21.9738 57.9586 21.6258C58.0262 21.2778 57.9908 20.9174 57.8567 20.5895C57.7224 20.2617 57.4956 19.9808 57.2041 19.7819C56.9128 19.5831 56.5697 19.4751 56.2178 19.4713L56.2276 19.5012ZM75.3239 17.6639L69.9429 28.488H71.9448L75.3239 21.7079L78.6933 28.488H80.695L75.3239 17.6639ZM97.9973 17.6639H95.7182L92.6559 21.658L89.6038 17.6639H87.3147L91.8038 23.4354V28.488H93.5875V23.3455L97.9973 17.6639ZM107.134 17.6639H110.711C112.133 17.6744 113.493 18.2479 114.498 19.2607C115.503 20.2732 116.072 21.6438 116.083 23.076C116.075 24.5089 115.506 25.8808 114.501 26.8941C113.495 27.9073 112.134 28.4801 110.711 28.488H107.134V17.6639ZM110.711 26.6506C111.659 26.648 112.568 26.2673 113.238 25.5919C113.908 24.9165 114.286 24.0012 114.289 23.0459C114.279 22.0931 113.898 21.1823 113.23 20.5085C112.561 19.8348 111.657 19.4517 110.711 19.4412H108.908V26.6506H110.711ZM128.004 17.6639H126.22V28.488H128.004V17.6639ZM147.091 23.9645C147.101 24.56 146.989 25.151 146.762 25.7009C146.535 26.2507 146.199 26.7475 145.772 27.1598C145.146 27.7907 144.35 28.2201 143.482 28.3937C142.612 28.5673 141.713 28.4773 140.896 28.135C140.078 27.7928 139.38 27.2137 138.89 26.4713C138.4 25.7289 138.139 24.8564 138.142 23.9645V17.6639H139.925V23.9645C139.925 24.6823 140.208 25.3705 140.712 25.8781C141.215 26.3855 141.898 26.6706 142.611 26.6706C143.323 26.6706 144.007 26.3855 144.511 25.8781C145.013 25.3705 145.296 24.6823 145.296 23.9645V17.6639H147.091V23.9645ZM159.012 28.488V22.0175L162.608 25.6321L166.187 22.0175V28.488H168V17.6639L162.608 23.076L157.238 17.6639V28.488H159.012Z" fill="white"/>
		<path d="M37.6075 17.3244V33.4207L19.8393 43.7554L2.06123 33.4207V12.7412L19.8393 2.39645L33.495 10.3447L35.5562 9.14649L19.8393 0L0 11.5429V34.6189L19.8393 46.1618L39.6787 34.6189V16.1262L37.6075 17.3244Z" fill="white"/>
		<path d="M14.8648 33.4306H11.8918V23.3854H21.8016C22.7392 23.375 23.6349 22.9929 24.2952 22.322C24.9554 21.6513 25.327 20.7455 25.3295 19.8006C25.3348 19.3335 25.2454 18.8701 25.0664 18.4392C24.8874 18.0081 24.6229 17.6186 24.2889 17.2944C23.9658 16.9598 23.5789 16.6945 23.1515 16.5143C22.7241 16.334 22.2649 16.2428 21.8016 16.2459H11.8918V13.1904H21.8114C23.5481 13.2009 25.2108 13.9007 26.4389 15.1381C27.6668 16.3755 28.3613 18.0508 28.3717 19.8006C28.3823 21.1402 27.977 22.4494 27.2124 23.5451C26.5086 24.5935 25.5168 25.4124 24.3583 25.9016C23.2112 26.2682 22.014 26.4502 20.8106 26.4409H14.8648V33.4306Z" fill="white"/>
		<path d="M28.3019 33.1809H24.8334L22.1578 28.4779C23.2164 28.4126 24.2605 28.1975 25.2595 27.8389L28.3019 33.1809Z" fill="white"/>
		<path d="M35.5365 13.9794L37.5878 15.1277L39.6392 13.9794V11.553L37.5878 10.3547L35.5365 11.553V13.9794Z" fill="white"/>
	</g>
	<defs>
		<clipPath id="clip0_2848_17958">
			<rect width="168" height="46" fill="white"/>
		</clipPath>
	</defs>
</svg>
