<?xml version="1.0" standalone="no"?>
<!DOCTYPE svg PUBLIC "-//W3C//DTD SVG 1.1//EN" "http://www.w3.org/Graphics/SVG/1.1/DTD/svg11.dtd" >
<svg xmlns="http://www.w3.org/2000/svg" xmlns:xlink="http://www.w3.org/1999/xlink" version="1.1">
<metadata>
Created by FontForge 20201107 at Mon Nov 13 16:43:29 2017
 By Jimmy Wärting
Copyright (c) 2017 by Lewis McGuffie. All rights reserved.
</metadata>
<defs>
<font id="TuskerGrotesk-5500Medium" horiz-adv-x="544" >
  <font-face 
    font-family="Tusker Grotesk 5500 Medium"
    font-weight="400"
    font-stretch="normal"
    units-per-em="1000"
    panose-1="0 0 6 0 0 0 0 0 0 0"
    ascent="895"
    descent="-105"
    x-height="821"
    cap-height="945"
    bbox="-28 -248.021 950 1063"
    underline-thickness="50"
    underline-position="-150"
    unicode-range="U+0020-25CA"
  />
<missing-glyph horiz-adv-x="525" 
d="M431 950v-1050h-333v1050h333zM350 880h-174v-35h69v-39h-70v-34h175v34h-70v39h70v35zM280 744h-105v-109h175v36h-70v73zM245 709v-38h-35v38h35zM350 607h-175v-35h70v-39h-70v-34h105v73h70v35zM350 544h-35v-70h-140v-35h175v105zM350 416h-105v-59h35v24h35v-49
h-105v84h-35v-119h175v119zM350 234h-175v-119h175v119zM315 199v-49h-105v49h105zM350 91h-175v-35h74l-74 -49v-35h175v35h-107l73 49h34v35z" />
    <glyph glyph-name=".notdef" horiz-adv-x="525" 
d="M431 950v-1050h-333v1050h333zM350 880h-174v-35h69v-39h-70v-34h175v34h-70v39h70v35zM280 744h-105v-109h175v36h-70v73zM245 709v-38h-35v38h35zM350 607h-175v-35h70v-39h-70v-34h105v73h70v35zM350 544h-35v-70h-140v-35h175v105zM350 416h-105v-59h35v24h35v-49
h-105v84h-35v-119h175v119zM350 234h-175v-119h175v119zM315 199v-49h-105v49h105zM350 91h-175v-35h74l-74 -49v-35h175v35h-107l73 49h34v35z" />
    <glyph glyph-name=".null" horiz-adv-x="0" 
 />
    <glyph glyph-name="nonmarkingreturn" horiz-adv-x="333" 
 />
    <glyph glyph-name="space" unicode=" " horiz-adv-x="176" 
 />
    <glyph glyph-name="exclam" unicode="!" horiz-adv-x="273" 
d="M193 242h-114l-18 271v432h150v-432zM62 169h150v-169h-150v169z" />
    <glyph glyph-name="quotedbl" unicode="&#x22;" horiz-adv-x="515" 
d="M206 945l-19 -369h-100l-19 369h138zM448 945l-19 -369h-100l-19 369h138z" />
    <glyph glyph-name="numbersign" unicode="#" horiz-adv-x="736" 
d="M699 526h-137l-23 -166h135l-19 -114h-131l-47 -346h-128l47 346h-121l-47 -346h-128l47 346h-137l19 114h134l22 166h-129l20 115h125l42 309h128l-42 -309h120l42 309h128l-42 -309h142zM411 360l23 166h-121l-22 -166h120z" />
    <glyph glyph-name="dollar" unicode="$" horiz-adv-x="538" 
d="M340 549q78 -30 116 -72.5t38 -124.5v-155q0 -90 -55.5 -146t-148.5 -61v-90h-51v92q-85 9 -133.5 58.5t-48.5 127.5v163h150v-150q0 -31 17.5 -50.5t50.5 -19.5q30 0 48.5 19t18.5 47v146q0 56 -67 80l-84 29q-71 24 -104.5 68.5t-33.5 120.5v131q0 75 47.5 128.5
t138.5 62.5v101h51v-101q93 -4 143 -53t50 -126v-138h-148v122q0 31 -17 48.5t-50 17.5q-30 0 -47.5 -16t-17.5 -40v-118q0 -28 13 -43t44 -28z" />
    <glyph glyph-name="percent" unicode="%" horiz-adv-x="691" 
d="M188 957q55 0 89 -34t34 -91v-99q0 -57 -34 -90.5t-89 -33.5q-54 0 -88 33.5t-34 90.5v99q0 57 34 91t88 34zM476 950h147l-408 -950h-152zM207 732v101q0 21 -19 21q-18 0 -18 -21v-101q0 -21 18 -21q19 0 19 21zM506 338q55 0 89 -33.5t34 -91.5v-99q0 -57 -34 -90.5
t-89 -33.5q-54 0 -88 33.5t-34 90.5v99q0 58 34 91.5t88 33.5zM525 113v101q0 21 -19 21q-18 0 -18 -21v-101q0 -21 18 -21q19 0 19 21z" />
    <glyph glyph-name="ampersand" unicode="&#x26;" horiz-adv-x="566" 
d="M549 426h-88v-259q0 -44 39 -44h49v-123h-83q-124 0 -146 86q-51 -96 -142 -96q-74 0 -117 47t-43 126v151q0 68 30 112.5t73 61.5q-87 42 -87 151v143q0 76 55 124.5t153 48.5q107 -1 163 -47.5t56 -128.5v-176h-145v162q0 62 -66 62q-33 0 -51.5 -17.5t-18.5 -46.5
v-148q0 -67 71 -67h298v-122zM243 118q34 0 53 21t19 61v226h-51q-96 0 -96 -79v-150q0 -39 20 -59t55 -20z" />
    <glyph glyph-name="quotesingle" unicode="'" horiz-adv-x="273" 
d="M206 945l-19 -369h-100l-19 369h138z" />
    <glyph glyph-name="parenleft" unicode="(" horiz-adv-x="334" 
d="M320 950q-55 -113 -85.5 -234.5t-30.5 -290.5t30.5 -290.5t85.5 -234.5h-117q-61 71 -106 209t-45 316t45 316t106 209h117z" />
    <glyph glyph-name="parenright" unicode=")" horiz-adv-x="334" 
d="M131 950q61 -71 106 -209t45 -316t-45 -316t-106 -209h-117q55 113 85.5 234.5t30.5 290.5t-30.5 290.5t-85.5 234.5h117z" />
    <glyph glyph-name="asterisk" unicode="*" horiz-adv-x="371" 
d="M192 954l11 -91l62 67l66 -90l-81 -41l82 -38l-66 -91l-61 66l-12 -89l-107 35l43 77l-89 -14l1 113l88 -19l-44 80z" />
    <glyph glyph-name="plus" unicode="+" horiz-adv-x="427" 
d="M394 532v-108h-124v-129h-113v129h-124v108h124v128h113v-128h124z" />
    <glyph glyph-name="comma" unicode="," horiz-adv-x="285" 
d="M68 169h150v-185q0 -42 -25.5 -66.5t-75.5 -24.5h-50v52h30q41 0 41 43v12h-70v169z" />
    <glyph glyph-name="hyphen" unicode="-" horiz-adv-x="329" 
d="M320 535v-124h-311v124h311z" />
    <glyph glyph-name="period" unicode="." horiz-adv-x="285" 
d="M218 169v-169h-150v169h150z" />
    <glyph glyph-name="slash" unicode="/" horiz-adv-x="424" 
d="M273 950h142l-272 -1050h-143z" />
    <glyph glyph-name="zero" unicode="0" horiz-adv-x="515" 
d="M257 954q98 0 152 -54t54 -155v-546q0 -101 -54 -155t-152 -54t-152 54t-54 155v546q0 101 54 155t152 54zM314 189v566q0 74 -56 74q-26 0 -42 -18.5t-16 -55.5v-566q0 -37 16 -56t41 -19t41 19t16 56z" />
    <glyph glyph-name="one" unicode="1" horiz-adv-x="309" 
d="M159 948h95v-948h-148v725h-99v90q78 7 109 41t43 92z" />
    <glyph glyph-name="two" unicode="2" horiz-adv-x="493" 
d="M467 115v-115h-432v46q0 81 28 156.5t68.5 132t80.5 108t68 103.5t28 98v116q0 69 -57 69q-27 0 -44.5 -18.5t-17.5 -52.5v-162h-143v167q0 86 56 138.5t159 52.5q88 0 142 -47t54 -124v-107q0 -64 -26 -132t-63.5 -124.5t-75 -109t-63.5 -104t-26 -91.5h264z" />
    <glyph glyph-name="three" unicode="3" horiz-adv-x="494" 
d="M352 500q54 -8 78.5 -45.5t24.5 -107.5v-164q0 -92 -54 -142t-152 -50q-96 0 -150 49.5t-54 139.5v207h143v-204q0 -33 17 -50.5t43 -17.5q58 0 58 78v166q0 42 -16.5 60t-49.5 18h-85l-20 115h100q39 0 51.5 18.5t12.5 58.5v135q0 30 -15 47.5t-40 17.5q-26 0 -42 -18
t-16 -50v-163h-141v165q0 92 53.5 141.5t155.5 49.5q87 0 140 -45.5t53 -125.5v-128q0 -62 -21.5 -97t-73.5 -50v-8z" />
    <glyph glyph-name="four" unicode="4" horiz-adv-x="553" 
d="M404 945q2 -183 -52.5 -324t-154.5 -270l5 -9h100v65q41 44 69.5 110.5t36.5 136.5h42v-312h83v-115h-83v-227h-148v227h-281v107q37 56 46.5 69.5t44 69.5t47 83t37 82t34.5 97t19 98t9 112h146z" />
    <glyph glyph-name="five" unicode="5" horiz-adv-x="504" 
d="M213 512q41 68 123 68q57 0 92 -40t35 -118v-228q0 -99 -54 -151t-153 -52q-98 0 -150.5 52t-52.5 155v179h142v-194q0 -34 17 -51t44 -17q26 0 42 15t16 43v231q0 58 -55 58q-45 0 -58 -43l-140 31l29 495h362l-13 -115h-214l-20 -318h8z" />
    <glyph glyph-name="six" unicode="6" horiz-adv-x="511" 
d="M206 484q45 75 122 75q58 0 96 -43.5t38 -121.5v-200q0 -97 -54 -150t-151 -53q-99 0 -152.5 52.5t-53.5 155.5v546q0 100 54 154.5t147 54.5q97 0 149.5 -49.5t52.5 -141.5v-156h-142v154q0 68 -57 68q-26 0 -41 -16t-15 -42v-287h7zM314 173v202q0 30 -16.5 47.5
t-42.5 17.5q-25 0 -40.5 -17.5t-15.5 -47.5v-192q0 -68 58 -68q23 0 40 16.5t17 41.5z" />
    <glyph glyph-name="seven" unicode="7" horiz-adv-x="448" 
d="M36 945h399v-98q-185 -368 -192 -847h-148q0 497 188 830h-247v115z" />
    <glyph glyph-name="eight" unicode="8" horiz-adv-x="499" 
d="M140 503q-93 31 -93 147v133q0 77 53.5 124t149.5 47q95 0 148.5 -47t53.5 -124v-133q0 -118 -95 -147v-6q103 -26 103 -153v-169q0 -90 -56 -137t-154 -47q-99 0 -155 47t-56 137v169q0 61 26 100.5t75 52.5v6zM306 623v139q0 68 -56 68q-28 0 -42.5 -18.5t-14.5 -49.5
v-139q0 -32 14.5 -51t42.5 -19q56 0 56 70zM312 187v185q0 34 -15.5 54.5t-46.5 20.5q-29 0 -45.5 -20.5t-16.5 -54.5v-185q0 -32 16.5 -52t45.5 -20q30 0 46 19.5t16 52.5z" />
    <glyph glyph-name="nine" unicode="9" horiz-adv-x="511" 
d="M305 462q-45 -75 -122 -75q-58 0 -96 43.5t-38 121.5v200q0 97 54 150t151 53q99 0 152.5 -52.5t53.5 -155.5v-546q0 -100 -54 -154.5t-147 -54.5q-97 0 -149.5 49.5t-52.5 141.5v156h142v-154q0 -68 57 -68q26 0 41 16t15 42v287h-7zM197 773v-202q0 -30 16.5 -47.5
t42.5 -17.5q25 0 40.5 17.5t15.5 47.5v192q0 68 -58 68q-24 0 -40.5 -16.5t-16.5 -41.5z" />
    <glyph glyph-name="colon" unicode=":" horiz-adv-x="285" 
d="M218 590v-169h-150v169h150zM218 169v-169h-150v169h150z" />
    <glyph glyph-name="semicolon" unicode=";" horiz-adv-x="286" 
d="M69 590h150v-169h-150v169zM69 0v169h150v-185q0 -42 -25.5 -66.5t-75.5 -24.5h-50v52h30q41 0 41 43v12h-70z" />
    <glyph glyph-name="question" unicode="?" horiz-adv-x="490" 
d="M166 238q4 72 27 138t47.5 104.5t44.5 82t20 76.5v142q0 28 -18 43t-44 15q-30 0 -50 -16.5t-20 -48.5v-154h-142v157q0 82 55.5 129.5t156.5 47.5q100 0 155.5 -42t55.5 -121v-138q0 -57 -22.5 -111.5t-50 -92t-52.5 -94.5t-29 -117h-134zM309 169v-169h-150v169h150z
" />
    <glyph glyph-name="at" unicode="@" horiz-adv-x="772" 
d="M707 80h-115l-28 89q-28 -49 -60 -74.5t-76 -24.5q-60 1 -97.5 42.5t-37.5 126.5v339q0 169 135 169q79 0 135 -93v37q0 63 -38.5 101t-115.5 38q-43 0 -76.5 -10t-63 -34.5t-45.5 -71.5t-16 -114v-367q0 -222 201 -222h302v-120h-302q-160 0 -253.5 88.5t-93.5 265.5
v348q0 175 94.5 267t252.5 90q153 -2 225.5 -76t72.5 -195v-599zM562 244v330q-7 19 -26 33.5t-44 14.5q-50 0 -50 -70v-287q0 -70 50 -70q41 0 70 49z" />
    <glyph glyph-name="A" unicode="A" horiz-adv-x="526" 
d="M370 0l-25 206l-165 1l-25 -207h-155l154 945h222l151 -945h-157zM196 335h133l-37 306l-24 164h-11l-23 -164z" />
    <glyph glyph-name="B" unicode="B" horiz-adv-x="536" 
d="M395 483q48 -11 78.5 -50t30.5 -101v-148q0 -84 -54 -134t-149 -50h-239v945h241q87 0 136 -44.5t49 -119.5v-143q0 -120 -93 -146v-9zM280 815h-68v-267h69q28 0 44.5 16t16.5 46v143q0 31 -17 46.5t-45 15.5zM275 423h-63v-293h62q79 0 79 75v146q0 72 -78 72z" />
    <glyph glyph-name="C" unicode="C" horiz-adv-x="533" 
d="M485 425v-229q0 -98 -55.5 -152t-158.5 -54q-106 0 -163 61.5t-57 173.5v494q0 112 57 173.5t163 61.5q103 0 158.5 -53.5t55.5 -151.5v-206h-148v200q0 37 -17.5 59t-47.5 22t-49 -22.5t-19 -58.5v-542q0 -36 19 -58t49 -22t47.5 22t17.5 58v224h148z" />
    <glyph glyph-name="D" unicode="D" 
d="M287 945q97 0 151 -58t54 -167v-496q0 -109 -54.5 -166.5t-150.5 -57.5h-225v945h225zM341 208v529q0 37 -18.5 57.5t-48.5 20.5h-62v-685h61q30 0 49 20.5t19 57.5z" />
    <glyph glyph-name="E" unicode="E" horiz-adv-x="447" 
d="M212 130h197v-130h-347v945h345v-130h-195v-266h179v-128h-179v-291z" />
    <glyph glyph-name="F" unicode="F" horiz-adv-x="413" 
d="M401 815h-189v-266h175v-130h-175v-419h-150v945h339v-130z" />
    <glyph glyph-name="G" unicode="G" horiz-adv-x="537" 
d="M343 70q-32 -80 -131 -80q-70 1 -115.5 53t-45.5 146v530q0 113 57.5 174t166.5 61q104 0 159 -53t55 -148v-171h-150v161q0 81 -67 81q-30 0 -49 -22.5t-19 -58.5v-542q0 -41 18.5 -60.5t48.5 -19.5t50 21t20 53v187h-70v127h218v-509h-123l-13 70h-10z" />
    <glyph glyph-name="H" unicode="H" horiz-adv-x="547" 
d="M335 945h150v-945h-150v419h-123v-419h-150v945h150v-396h123v396z" />
    <glyph glyph-name="I" unicode="I" horiz-adv-x="274" 
d="M62 945h150v-945h-150v945z" />
    <glyph glyph-name="J" unicode="J" horiz-adv-x="521" 
d="M462 945v-760q0 -95 -55.5 -145t-157.5 -50q-104 0 -158 49t-54 143v249h152v-237q0 -74 60 -74q61 0 61 74v621h-196v130h348z" />
    <glyph glyph-name="K" unicode="K" horiz-adv-x="543" 
d="M545 0h-174l-149 431h-11v-431h-149v945h150l-1 -419h11l143 419h162l-170 -459z" />
    <glyph glyph-name="L" unicode="L" horiz-adv-x="396" 
d="M212 130h187v-130h-337v945h150v-815z" />
    <glyph glyph-name="M" unicode="M" horiz-adv-x="759" 
d="M385 268l22 198l73 479h217v-945h-141l2 377l6 298h-11l-97 -675h-160l-90 675h-10l6 -297v-378h-140v945h219l70 -479l25 -198h9z" />
    <glyph glyph-name="N" unicode="N" horiz-adv-x="560" 
d="M366 424l-9 256v265h141v-945h-146l-148 573h-9l7 -241v-332h-140v945h162l132 -521h10z" />
    <glyph glyph-name="O" unicode="O" 
d="M271 954q107 0 164.5 -61.5t57.5 -173.5v-494q0 -111 -58 -173t-164 -62t-163 61.5t-57 173.5v494q0 112 57 173.5t163 61.5zM341 201v542q0 37 -18.5 58.5t-49.5 21.5t-50 -22t-19 -58v-542q0 -36 19 -58t49 -22q31 0 50 22t19 58z" />
    <glyph glyph-name="P" unicode="P" horiz-adv-x="530" 
d="M279 290h-67v-290h-150v945h216q104 0 162.5 -55.5t58.5 -160.5v-217q0 -102 -62 -162t-158 -60zM266 419q37 0 58.5 24.5t21.5 69.5v211q0 44 -21.5 67.5t-58.5 23.5h-54v-396h54z" />
    <glyph glyph-name="Q" unicode="Q" 
d="M493 225q0 -124 -70 -185l62 -140l-158 1l-34 90q-7 -1 -22 -1q-106 0 -163 61.5t-57 173.5v494q0 112 57 173.5t163 61.5q107 0 164.5 -61.5t57.5 -173.5v-494zM204 201q0 -36 19 -58t49 -22q31 0 50 22t19 58v542q0 37 -18.5 58.5t-49.5 21.5t-50 -22t-19 -58v-542z
" />
    <glyph glyph-name="R" unicode="R" 
d="M512 0h-150l-58 338h-92v-338h-150v945h217q102 0 159 -54t57 -158v-168q0 -101 -63 -162zM214 466h43q85 0 85 93v163q0 93 -85 93h-43v-349z" />
    <glyph glyph-name="S" unicode="S" horiz-adv-x="538" 
d="M483 636h-148v122q0 31 -17 48.5t-50 17.5q-30 0 -47.5 -16t-17.5 -40v-118q0 -28 13 -43t44 -28l80 -30q78 -30 116 -72.5t38 -124.5v-155q0 -94 -60 -150.5t-159 -56.5q-101 0 -159.5 51t-58.5 137v163h150v-150q0 -31 17.5 -50.5t50.5 -19.5q30 0 48.5 19t18.5 47v146
q0 56 -67 80l-84 29q-71 24 -104.5 68.5t-33.5 120.5v131q0 82 55.5 137t161.5 55q103 0 158 -49.5t55 -130.5v-138z" />
    <glyph glyph-name="T" unicode="T" horiz-adv-x="448" 
d="M447 945v-130h-148v-815h-150v815h-148v130h446z" />
    <glyph glyph-name="U" unicode="U" 
d="M484 945v-760q0 -95 -55.5 -145t-157.5 -50q-101 0 -156.5 49.5t-55.5 142.5v763h150v-750q0 -38 17.5 -56t45.5 -18q62 0 62 74v750h150z" />
    <glyph glyph-name="V" unicode="V" horiz-adv-x="506" 
d="M349 946h158l-141 -946h-225l-141 945h159l61 -534l30 -220h11l29 220z" />
    <glyph glyph-name="W" unicode="W" horiz-adv-x="819" 
d="M582 289h11l15 168l54 488h158l-132 -944h-188l-66 464l-21 201h-9l-19 -201l-67 -465h-188l-130 945h160l51 -488l16 -166h11l20 166l72 488h162l71 -488z" />
    <glyph glyph-name="X" unicode="X" horiz-adv-x="523" 
d="M254 348l-19 -69l-66 -279h-162l157 496l-138 449h163l55 -240l18 -65h11l17 65l57 240h155l-142 -452l152 -493h-164l-62 279l-20 69h-12z" />
    <glyph glyph-name="Y" unicode="Y" horiz-adv-x="537" 
d="M277 538l27 122l60 285l165 1l-186 -674v-272h-150v276l-186 670l170 -1l61 -285l27 -122h12z" />
    <glyph glyph-name="Z" unicode="Z" horiz-adv-x="468" 
d="M202 130h238v-130h-409v118l227 697h-224v130h391l-1 -121z" />
    <glyph glyph-name="bracketleft" unicode="[" horiz-adv-x="332" 
d="M212 840v-830h72v-110h-222v1050h222v-110h-72z" />
    <glyph glyph-name="backslash" unicode="\" horiz-adv-x="424" 
d="M281 -100l-273 1050h143l272 -1050h-142z" />
    <glyph glyph-name="bracketright" unicode="]" horiz-adv-x="332" 
d="M48 950h222v-1050h-222v110h72v830h-72v110z" />
    <glyph glyph-name="asciicircum" unicode="^" horiz-adv-x="313" 
d="M283 848h-59l-68 52l-65 -52h-62l84 84h90z" />
    <glyph glyph-name="underscore" unicode="_" horiz-adv-x="405" 
d="M383 30v-114h-360v114h360z" />
    <glyph glyph-name="a" unicode="a" horiz-adv-x="503" 
d="M326 0l-14 91q-42 -101 -142 -101q-58 0 -98.5 41t-40.5 113v135q0 147 145 195l132 42v140q0 24 -14 38.5t-42 14.5t-42.5 -15.5t-14.5 -38.5v-119h-143v129q0 74 49.5 119.5t150.5 45.5q203 0 203 -191v-639h-129zM308 391l-75 -24q-55 -19 -55 -80v-120q0 -24 13 -38
t37 -14q31 0 55.5 25t24.5 69v182z" />
    <glyph glyph-name="b" unicode="b" horiz-adv-x="513" 
d="M335 830q60 0 98 -43t38 -132v-489q0 -89 -38 -132t-98 -44q-88 0 -134 94l-2 -84h-144v950h147v-209q26 43 56 66t77 23zM264 706q-61 0 -61 -85v-421q0 -85 61 -85q58 0 58 82v427q0 82 -58 82z" />
    <glyph glyph-name="c" unicode="c" horiz-adv-x="504" 
d="M463 379v-191q0 -94 -51.5 -146t-152.5 -52q-103 0 -160 57.5t-57 160.5v392q0 112 56.5 171t160.5 59q102 0 153 -51t51 -144v-164h-144v146q0 89 -61 89q-66 0 -66 -89v-414q0 -88 66 -88q61 0 61 88v176h144z" />
    <glyph glyph-name="d" unicode="d" horiz-adv-x="513" 
d="M178 830q47 0 77 -23t56 -66v209h147v-950h-147v84q-46 -94 -133 -94q-60 1 -98 44t-38 132v489q0 89 38 132t98 43zM249 706q-58 0 -58 -82v-427q0 -82 58 -82q61 0 61 85v421q0 85 -61 85z" />
    <glyph glyph-name="e" unicode="e" horiz-adv-x="505" 
d="M256 830q207 0 207 -217v-221h-271v-189q0 -88 67 -88q61 0 61 68v155h143v-166q0 -80 -55.5 -131t-147.5 -51q-107 0 -162.5 57t-55.5 161v392q0 112 56 171t158 59zM257 708q-32 0 -48.5 -22.5t-16.5 -60.5v-116h125v116q0 83 -60 83z" />
    <glyph glyph-name="f" unicode="f" horiz-adv-x="364" 
d="M268 879q-28 0 -28 -25v-33h121v-120h-121v-700l-148 -1v701h-85v120h85v38q0 91 120 91h149v-71h-93z" />
    <glyph glyph-name="g" unicode="g" horiz-adv-x="513" 
d="M327 822h131v-752q0 -94 -50 -137.5t-129 -43.5h-193v123h152q74 0 74 69v73q-27 -51 -56 -75.5t-78 -23.5q-60 0 -98 42t-38 127v437q0 85 38 127t98 42q47 0 77.5 -25t56.5 -70zM248 706q-58 0 -58 -78v-366q0 -82 58 -82q62 0 62 85v356q0 85 -62 85z" />
    <glyph glyph-name="h" unicode="h" horiz-adv-x="513" 
d="M347 830q54 0 86 -35.5t32 -110.5v-684h-147v645q0 56 -51 56q-27 0 -46 -20t-19 -56v-625h-147v950h147v-216q21 38 59 67.5t86 28.5z" />
    <glyph glyph-name="i" unicode="i" horiz-adv-x="258" 
d="M56 950h146v-95h-146v95zM55 821h148v-821h-148v821z" />
    <glyph glyph-name="j" unicode="j" horiz-adv-x="271" 
d="M69 950h147v-95h-147v95zM69 821h147v-805q0 -59 -35.5 -93t-93.5 -34h-89v123h37q18 0 26 10t8 36v763z" />
    <glyph glyph-name="k" unicode="k" horiz-adv-x="518" 
d="M203 390v-390h-148v950h148v-481h10l130 352h159l-147 -383l158 -438h-166l-133 390h-11z" />
    <glyph glyph-name="l" unicode="l" horiz-adv-x="258" 
d="M55 950h148v-950h-148v950z" />
    <glyph glyph-name="m" unicode="m" horiz-adv-x="770" 
d="M604 830q54 0 86 -35.5t32 -110.5v-684h-147v645q0 56 -47 56q-28 0 -47 -19.5t-19 -55.5v-626h-147l-1 645q0 56 -47 56q-27 0 -46 -20t-19 -56v-625h-147v821h130l14 -87q24 40 61.5 68t81.5 28q47 0 73.5 -21.5t39.5 -73.5q63 96 149 95z" />
    <glyph glyph-name="n" unicode="n" horiz-adv-x="513" 
d="M347 830q54 0 86 -35.5t32 -110.5v-684h-147v645q0 56 -51 56q-27 0 -46 -20t-19 -56v-625h-147v821h130l14 -87q20 38 60 67.5t88 28.5z" />
    <glyph glyph-name="o" unicode="o" horiz-adv-x="510" 
d="M256 830q101 0 156.5 -58t55.5 -166v-392q0 -107 -55.5 -165.5t-157.5 -58.5q-101 0 -157 58.5t-56 165.5v392q0 108 56 166t158 58zM318 203v414q0 89 -62 89q-65 0 -65 -89l-1 -414q0 -43 17 -65.5t48 -22.5q63 0 63 88z" />
    <glyph glyph-name="p" unicode="p" horiz-adv-x="513" 
d="M335 -9q-47 0 -77 23t-56 66v-180h-147v921h130l13 -84q47 95 137 94q60 -1 98 -44t38 -132v-488q0 -89 -38 -132.5t-98 -43.5zM264 115q58 0 58 82v428q0 82 -58 82q-61 0 -61 -86v-420q0 -86 61 -86z" />
    <glyph glyph-name="q" unicode="q" horiz-adv-x="513" 
d="M178 -9q-60 0 -98 43.5t-38 132.5v488q0 89 38 132t98 44q91 1 136 -94l14 84h130v-921h-147v180q-26 -43 -56 -66t-77 -23zM249 115q61 0 61 86v420q0 86 -61 86q-58 0 -58 -82v-428q0 -82 58 -82z" />
    <glyph glyph-name="r" unicode="r" horiz-adv-x="486" 
d="M341 830q53 0 85 -37.5t32 -120.5v-311h-147l-1 274q0 35 -9.5 50.5t-34.5 15.5q-27 0 -45.5 -24.5t-18.5 -66.5v-610h-147v821h130l11 -87q31 48 61.5 72t83.5 24z" />
    <glyph glyph-name="s" unicode="s" horiz-adv-x="490" 
d="M327 480q68 -19 100.5 -61t32.5 -113v-131q0 -85 -58 -135t-153 -50q-100 0 -156 46t-56 141v132h146v-141q0 -24 17 -38.5t45 -14.5q29 0 47.5 14t18.5 37v122q0 45 -58 63l-99 25q-121 33 -121 167v108q0 79 56.5 129t153.5 50q100 0 152 -46t52 -117v-120h-144v104
q0 26 -17 41.5t-44 15.5q-28 0 -44.5 -13.5t-16.5 -33.5v-102q0 -21 11 -33t39 -20z" />
    <glyph glyph-name="t" unicode="t" horiz-adv-x="373" 
d="M356 701h-117v-508q0 -63 55 -63h65v-130h-98q-83 0 -126 42t-43 117v542h-85v120q71 0 92.5 23.5t33.5 97.5h109v-121h114v-120z" />
    <glyph glyph-name="u" unicode="u" horiz-adv-x="513" 
d="M311 821h147v-821h-130l-14 88q-20 -38 -59.5 -68t-87.5 -29q-119 2 -119 153v677h147v-645q0 -56 51 -56q28 0 46.5 19.5t18.5 56.5v625z" />
    <glyph glyph-name="v" unicode="v" horiz-adv-x="497" 
d="M254 215l18 170l54 438h152l-143 -823h-173l-143 823h152l55 -434l19 -174h9z" />
    <glyph glyph-name="w" unicode="w" horiz-adv-x="740" 
d="M527 283l9 123l34 417h151l-110 -823h-160l-56 394l-16 131h-14l-17 -131l-57 -394h-164l-108 823h151l38 -417l10 -123h11l13 123l67 417h126l65 -417l14 -123h13z" />
    <glyph glyph-name="x" unicode="x" horiz-adv-x="502" 
d="M244 281l-14 -49l-61 -233h-153l146 425l-133 397h157l50 -213l15 -46h9l14 46l50 213h149l-133 -385l145 -436h-157l-60 232l-14 49h-10z" />
    <glyph glyph-name="y" unicode="y" horiz-adv-x="491" 
d="M254 255l24 173l39 393h155l-127 -753q-41 -179 -195 -179h-123v123h77q40 0 58 29l-143 780h152l48 -393l24 -173h11z" />
    <glyph glyph-name="z" unicode="z" horiz-adv-x="426" 
d="M184 122h217v-122h-374v109l205 590h-197v122h360v-110z" />
    <glyph glyph-name="bar" unicode="|" horiz-adv-x="267" 
d="M62 945h144v-1045h-144v1045z" />
    <glyph glyph-name="exclamdown" unicode="&#xa1;" horiz-adv-x="273" 
d="M62 821h150v-169h-150v169zM79 579h114l18 -271v-432h-150v432z" />
    <glyph glyph-name="cent" unicode="&#xa2;" horiz-adv-x="512" 
d="M463 471h-144v146q0 89 -61 89q-66 0 -66 -89v-414q0 -88 66 -88q61 0 61 88v176h144v-191q0 -88 -45.5 -139.5t-135.5 -57.5v-91h-51v91q-91 8 -140 65t-49 152v392q0 104 49 162.5t140 66.5v121h51v-121q90 -6 135.5 -56t45.5 -138v-164z" />
    <glyph glyph-name="sterling" unicode="&#xa3;" horiz-adv-x="504" 
d="M195 121h292v-121l-440 2v105q24 64 40 149.5t16 153.5v15h-70v49h61q-1 5 -14.5 46t-19 73.5t-5.5 76.5v86q0 93 58.5 145.5t160.5 52.5q99 0 154 -53.5t55 -140.5v-158h-143v144q0 81 -65 81q-29 0 -49 -19t-20 -57v-80q0 -48 18 -114t21 -83h189v-49h-185
q-2 -175 -54 -304z" />
    <glyph glyph-name="yen" unicode="&#xa5;" horiz-adv-x="537" 
d="M529 946l-160 -578h126v-48h-139l-13 -48v-10h152v-49h-152v-213h-150v213h-148v49h148v14l-12 44h-136v48h122l-160 578l170 -1l61 -285l27 -122h12l27 122l60 285z" />
    <glyph glyph-name="brokenbar" unicode="&#xa6;" horiz-adv-x="267" 
d="M62 945h144v-443h-144v443zM62 343h144v-443h-144v443z" />
    <glyph glyph-name="section" unicode="&#xa7;" horiz-adv-x="498" 
d="M446 680h-138v114q0 54 -64 54q-31 0 -48 -15.5t-17 -40.5v-104q0 -29 13.5 -45.5t45.5 -22.5l91 -19q132 -21 132 -149v-121q0 -49 -17.5 -79.5t-56.5 -52.5q42 -21 58 -50.5t16 -74.5v-140q0 -89 -59.5 -136t-157.5 -46q-98 0 -153 45t-55 126v140h145v-136
q0 -26 17 -41.5t46 -15.5q67 0 67 56v127q0 56 -61 67l-72 15q-65 10 -103.5 53t-38.5 107v118q0 43 19.5 77.5t58.5 49.5q-78 38 -78 127v118q0 77 54.5 124.5t153.5 47.5q93 0 147.5 -45t54.5 -119v-113zM179 426v-114q0 -57 65 -57q67 0 67 57v116q0 26 -18 40t-49 14
t-48 -15.5t-17 -40.5z" />
    <glyph glyph-name="copyright" unicode="&#xa9;" horiz-adv-x="742" 
d="M371 905q167 0 258 -92t91 -236v-259q0 -144 -91 -236t-258 -92t-258 92t-91 236v259q0 144 91 236t258 92zM604 320v260q0 102 -59 163.5t-174 61.5t-174 -61.5t-59 -163.5v-260q0 -105 58.5 -167.5t174.5 -62.5t174.5 62.5t58.5 167.5zM536 419v-113
q0 -74 -43.5 -114.5t-122.5 -40.5q-80 0 -126 44.5t-46 126.5v255q0 82 46 126t126 44q79 0 122.5 -39.5t43.5 -114.5v-112h-117v115q0 54 -49 54q-21 0 -35.5 -15.5t-14.5 -42.5v-286q0 -27 14.5 -42.5t35.5 -15.5q49 0 49 55v116h117z" />
    <glyph glyph-name="guillemotleft" unicode="&#xab;" horiz-adv-x="665" 
d="M194 411h-150l157 410h154zM468 411h-150l157 410h154zM194 410l161 -410h-154l-157 410h150zM468 410l161 -410h-154l-157 410h150z" />
    <glyph glyph-name="registered" unicode="&#xae;" horiz-adv-x="456" 
d="M228 956q104 0 161 -57.5t57 -149.5v-122q0 -92 -57 -149.5t-161 -57.5t-160.5 57.5t-56.5 149.5v122q0 91 56.5 149t160.5 58zM373 624v131q0 62 -36.5 100.5t-108.5 38.5t-108.5 -38.5t-36.5 -100.5v-131q0 -65 36.5 -104t108.5 -39t108.5 39t36.5 104zM322 539h-62
q-7 9 -7 33v53q0 29 -28 29h-18v-115h-61v300h95q34 0 54 -19t20 -48v-34q0 -46 -46 -56q45 -4 45 -55v-54q0 -22 8 -34zM207 788v-88h17q29 0 29 31v27q0 30 -29 30h-17z" />
    <glyph glyph-name="degree" unicode="&#xb0;" horiz-adv-x="385" 
d="M194 617q-73 0 -122 47.5t-49 119.5t49 119t122 47q71 0 120 -47.5t49 -118.5t-49 -119t-120 -48zM192 723q25 0 43.5 18t17.5 43q-1 26 -19 44t-42 18q-26 0 -44 -18t-18 -44t18 -43.5t44 -17.5z" />
    <glyph glyph-name="periodcentered" unicode="&#xb7;" horiz-adv-x="285" 
d="M218 590v-169h-150v169h150z" />
    <glyph glyph-name="guillemotright" unicode="&#xbb;" horiz-adv-x="665" 
d="M197 411l-161 410h154l157 -410h-150zM471 411l-161 410h154l157 -410h-150zM197 410h150l-157 -410h-154zM471 410h150l-157 -410h-154z" />
    <glyph glyph-name="questiondown" unicode="&#xbf;" horiz-adv-x="490" 
d="M181 652v169h150v-169h-150zM324 583q-4 -72 -27 -138t-47.5 -104.5t-44.5 -82t-20 -76.5v-142q0 -28 18 -43t44 -15q30 0 50 16.5t20 48.5v154h142v-157q0 -82 -55.5 -129.5t-156.5 -47.5q-100 0 -155.5 42t-55.5 121v138q0 57 22.5 111.5t50 92t52.5 94.5t29 117h134z
" />
    <glyph glyph-name="Agrave" unicode="&#xc0;" horiz-adv-x="526" 
d="M304 973h-52l-101 83h94zM370 0l-25 206l-165 1l-25 -207h-155l154 945h222l151 -945h-157zM196 335h133l-37 306l-24 164h-11l-23 -164z" />
    <glyph glyph-name="Aacute" unicode="&#xc1;" horiz-adv-x="526" 
d="M377 1056l-101 -83h-52l59 83h94zM370 0l-25 206l-165 1l-25 -207h-155l154 945h222l151 -945h-157zM196 335h133l-37 306l-24 164h-11l-23 -164z" />
    <glyph glyph-name="Acircumflex" unicode="&#xc2;" horiz-adv-x="526" 
d="M262 1024l-65 -52h-62l84 84h90l80 -84h-59zM370 0l-25 206l-165 1l-25 -207h-155l154 945h222l151 -945h-157zM196 335h133l-37 306l-24 164h-11l-23 -164z" />
    <glyph glyph-name="Atilde" unicode="&#xc3;" horiz-adv-x="526" 
d="M223 1012q-19 0 -18 -35h-51q0 79 65 79q17 0 30.5 -5t31.5 -18.5t19 -13.5q10 -8 18 -8q19 0 19 35h50q0 -79 -65 -79q-13 0 -26 4.5t-19.5 8.5t-19 13t-15.5 11q-10 8 -19 8zM370 0l-25 206l-165 1l-25 -207h-155l154 945h222l151 -945h-157zM196 335h133l-37 306
l-24 164h-11l-23 -164z" />
    <glyph glyph-name="Adieresis" unicode="&#xc4;" horiz-adv-x="526" 
d="M240 1056v-79h-70v79h70zM354 1056v-79h-70v79h70zM370 0l-25 206l-165 1l-25 -207h-155l154 945h222l151 -945h-157zM196 335h133l-37 306l-24 164h-11l-23 -164z" />
    <glyph glyph-name="Aring" unicode="&#xc5;" horiz-adv-x="526" 
d="M263 949q-23 0 -39.5 15.5t-16.5 38.5t16 38t40 15q23 0 38.5 -15t15.5 -38t-15.5 -38.5t-38.5 -15.5zM262 1029q-11 0 -18.5 -7.5t-7.5 -18.5t7.5 -19t18.5 -8t19 8t7 19q0 11 -7.5 18.5t-18.5 7.5zM370 0l-25 206l-165 1l-25 -207h-155l154 945h222l151 -945h-157z
M196 335h133l-37 306l-24 164h-11l-23 -164z" />
    <glyph glyph-name="AE" unicode="&#xc6;" horiz-adv-x="748" 
d="M512 130h197v-130h-347v184h-168l-38 -184h-156l288 945h419v-130h-195v-266h179v-128h-179v-291zM241 307h121v490h-9l-48 -184z" />
    <glyph glyph-name="Ccedilla" unicode="&#xc7;" horiz-adv-x="533" 
d="M485 543h-148v200q0 37 -17.5 59t-47.5 22t-49 -22.5t-19 -58.5v-542q0 -36 19 -58t49 -22t47.5 22t17.5 58v224h148v-229q0 -98 -55.5 -152t-158.5 -54h-4l-29 -45q27 21 48 21q39 0 39 -38v-9q0 -27 -19 -41.5t-50 -14.5q-33 0 -52.5 13.5t-19.5 39.5v6h59v-14
q0 -15 12 -15q11 0 11 15v15q0 15 -13 15h-64l34 56q-83 13 -127.5 73t-44.5 158v494q0 112 57 173.5t163 61.5q103 0 158.5 -53.5t55.5 -151.5v-206z" />
    <glyph glyph-name="Egrave" unicode="&#xc8;" horiz-adv-x="447" 
d="M237 1056l59 -83h-52l-101 83h94zM212 130h197v-130h-347v945h345v-130h-195v-266h179v-128h-179v-291z" />
    <glyph glyph-name="Eacute" unicode="&#xc9;" horiz-adv-x="447" 
d="M275 1056h94l-101 -83h-52zM212 130h197v-130h-347v945h345v-130h-195v-266h179v-128h-179v-291z" />
    <glyph glyph-name="Ecircumflex" unicode="&#xca;" horiz-adv-x="447" 
d="M381 972h-59l-68 52l-65 -52h-62l84 84h90zM212 130h197v-130h-347v945h345v-130h-195v-266h179v-128h-179v-291z" />
    <glyph glyph-name="Edieresis" unicode="&#xcb;" horiz-adv-x="447" 
d="M162 1056h70v-79h-70v79zM276 1056h70v-79h-70v79zM212 130h197v-130h-347v945h345v-130h-195v-266h179v-128h-179v-291z" />
    <glyph glyph-name="Igrave" unicode="&#xcc;" horiz-adv-x="274" 
d="M120 1056l59 -83h-52l-101 83h94zM62 945h150v-945h-150v945z" />
    <glyph glyph-name="Iacute" unicode="&#xcd;" horiz-adv-x="274" 
d="M158 1056h94l-101 -83h-52zM62 945h150v-945h-150v945z" />
    <glyph glyph-name="Icircumflex" unicode="&#xce;" horiz-adv-x="274" 
d="M264 972h-59l-68 52l-65 -52h-62l84 84h90zM62 945h150v-945h-150v945z" />
    <glyph glyph-name="Idieresis" unicode="&#xcf;" horiz-adv-x="274" 
d="M45 1056h70v-79h-70v79zM159 1056h70v-79h-70v79zM62 945h150v-945h-150v945z" />
    <glyph glyph-name="Eth" unicode="&#xd0;" 
d="M287 945q97 0 151 -58t54 -167v-496q0 -109 -54.5 -166.5t-150.5 -57.5h-225v450h-53v46h53v449h225zM341 208v529q0 37 -18.5 57.5t-48.5 20.5h-62v-319h74v-46h-74v-320h61q30 0 49 20.5t19 57.5z" />
    <glyph glyph-name="Ntilde" unicode="&#xd1;" horiz-adv-x="560" 
d="M248 1012q-19 0 -18 -35h-51q0 79 65 79q17 0 30.5 -5t31.5 -18.5t19 -13.5q10 -8 18 -8q19 0 19 35h50q0 -79 -65 -79q-13 0 -26 4.5t-19.5 8.5t-19 13t-15.5 11q-10 8 -19 8zM357 945h141v-945h-146l-148 573h-9l7 -241v-332h-140v945h162l132 -521h10l-9 256v265z" />
    <glyph glyph-name="Ograve" unicode="&#xd2;" 
d="M255 1059l59 -83h-52l-101 83h94zM271 954q107 0 164.5 -61.5t57.5 -173.5v-494q0 -111 -58 -173t-164 -62t-163 61.5t-57 173.5v494q0 112 57 173.5t163 61.5zM341 201v542q0 37 -18.5 58.5t-49.5 21.5t-50 -22t-19 -58v-542q0 -36 19 -58t49 -22q31 0 50 22t19 58z" />
    <glyph glyph-name="Oacute" unicode="&#xd3;" 
d="M293 1059h94l-101 -83h-52zM271 954q107 0 164.5 -61.5t57.5 -173.5v-494q0 -111 -58 -173t-164 -62t-163 61.5t-57 173.5v494q0 112 57 173.5t163 61.5zM341 201v542q0 37 -18.5 58.5t-49.5 21.5t-50 -22t-19 -58v-542q0 -36 19 -58t49 -22q31 0 50 22t19 58z" />
    <glyph glyph-name="Ocircumflex" unicode="&#xd4;" 
d="M399 975h-59l-68 52l-65 -52h-62l84 84h90zM271 954q107 0 164.5 -61.5t57.5 -173.5v-494q0 -111 -58 -173t-164 -62t-163 61.5t-57 173.5v494q0 112 57 173.5t163 61.5zM341 201v542q0 37 -18.5 58.5t-49.5 21.5t-50 -22t-19 -58v-542q0 -36 19 -58t49 -22q31 0 50 22
t19 58z" />
    <glyph glyph-name="Otilde" unicode="&#xd5;" 
d="M233 1015q-19 0 -18 -35h-51q0 79 65 79q17 0 30.5 -5t31.5 -18.5t19 -13.5q10 -8 18 -8q19 0 19 35h50q0 -79 -65 -79q-13 0 -26 4.5t-19.5 8.5t-19 13t-15.5 11q-10 8 -19 8zM271 954q107 0 164.5 -61.5t57.5 -173.5v-494q0 -111 -58 -173t-164 -62t-163 61.5
t-57 173.5v494q0 112 57 173.5t163 61.5zM341 201v542q0 37 -18.5 58.5t-49.5 21.5t-50 -22t-19 -58v-542q0 -36 19 -58t49 -22q31 0 50 22t19 58z" />
    <glyph glyph-name="Odieresis" unicode="&#xd6;" 
d="M180 1059h70v-79h-70v79zM294 1059h70v-79h-70v79zM271 954q107 0 164.5 -61.5t57.5 -173.5v-494q0 -111 -58 -173t-164 -62t-163 61.5t-57 173.5v494q0 112 57 173.5t163 61.5zM341 201v542q0 37 -18.5 58.5t-49.5 21.5t-50 -22t-19 -58v-542q0 -36 19 -58t49 -22
q31 0 50 22t19 58z" />
    <glyph glyph-name="Oslash" unicode="&#xd8;" 
d="M395 924q98 -57 98 -205v-494q0 -111 -58 -173t-164 -62q-38 0 -66 7l-18 -84h-56l24 103q-104 55 -104 209v494q0 112 57 173.5t163 61.5q41 0 75 -9l20 93h54zM341 201v542q0 37 -18.5 58.5t-49.5 21.5t-50 -22t-19 -58v-542q0 -36 19 -58t49 -22q31 0 50 22t19 58z
" />
    <glyph glyph-name="Ugrave" unicode="&#xd9;" 
d="M255 1056l59 -83h-52l-101 83h94zM484 945v-760q0 -95 -55.5 -145t-157.5 -50q-101 0 -156.5 49.5t-55.5 142.5v763h150v-750q0 -38 17.5 -56t45.5 -18q62 0 62 74v750h150z" />
    <glyph glyph-name="Uacute" unicode="&#xda;" 
d="M293 1056h94l-101 -83h-52zM484 945v-760q0 -95 -55.5 -145t-157.5 -50q-101 0 -156.5 49.5t-55.5 142.5v763h150v-750q0 -38 17.5 -56t45.5 -18q62 0 62 74v750h150z" />
    <glyph glyph-name="Ucircumflex" unicode="&#xdb;" 
d="M399 972h-59l-68 52l-65 -52h-62l84 84h90zM484 945v-760q0 -95 -55.5 -145t-157.5 -50q-101 0 -156.5 49.5t-55.5 142.5v763h150v-750q0 -38 17.5 -56t45.5 -18q62 0 62 74v750h150z" />
    <glyph glyph-name="Udieresis" unicode="&#xdc;" 
d="M180 1056h70v-79h-70v79zM294 1056h70v-79h-70v79zM484 945v-760q0 -95 -55.5 -145t-157.5 -50q-101 0 -156.5 49.5t-55.5 142.5v763h150v-750q0 -38 17.5 -56t45.5 -18q62 0 62 74v750h150z" />
    <glyph glyph-name="Yacute" unicode="&#xdd;" horiz-adv-x="537" 
d="M290 1056h94l-101 -83h-52zM277 538l27 122l60 285l165 1l-186 -674v-272h-150v276l-186 670l170 -1l61 -285l27 -122h12z" />
    <glyph glyph-name="Thorn" unicode="&#xde;" horiz-adv-x="530" 
d="M278 822q104 0 162.5 -55.5t58.5 -160.5v-176q0 -109 -61 -165.5t-159 -56.5h-67v-208h-150v945h150v-123h66zM346 432v169q0 44 -21.5 67.5t-58.5 23.5h-54v-354h54q37 0 58.5 24.5t21.5 69.5z" />
    <glyph glyph-name="germandbls" unicode="&#xdf;" horiz-adv-x="980" 
d="M327 480q68 -19 100.5 -61t32.5 -113v-131q0 -85 -58 -135t-153 -50q-100 0 -156 46t-56 141v132h146v-141q0 -24 17 -38.5t45 -14.5q29 0 47.5 14t18.5 37v122q0 45 -58 63l-99 25q-121 33 -121 167v108q0 79 56.5 129t153.5 50q100 0 152 -46t52 -117v-120h-144v104
q0 26 -17 41.5t-44 15.5q-28 0 -44.5 -13.5t-16.5 -33.5v-102q0 -21 11 -33t39 -20zM817 480q68 -19 100.5 -61t32.5 -113v-131q0 -85 -58 -135t-153 -50q-100 0 -156 46t-56 141v132h146v-141q0 -24 17 -38.5t45 -14.5q29 0 47.5 14t18.5 37v122q0 45 -58 63l-99 25
q-121 33 -121 167v108q0 79 56.5 129t153.5 50q100 0 152 -46t52 -117v-120h-144v104q0 26 -17 41.5t-44 15.5q-28 0 -44.5 -13.5t-16.5 -33.5v-102q0 -21 11 -33t39 -20z" />
    <glyph glyph-name="agrave" unicode="&#xe0;" horiz-adv-x="503" 
d="M245 932l59 -83h-52l-101 83h94zM326 0l-14 91q-42 -101 -142 -101q-58 0 -98.5 41t-40.5 113v135q0 147 145 195l132 42v140q0 24 -14 38.5t-42 14.5t-42.5 -15.5t-14.5 -38.5v-119h-143v129q0 74 49.5 119.5t150.5 45.5q203 0 203 -191v-639h-129zM308 391l-75 -24
q-55 -19 -55 -80v-120q0 -24 13 -38t37 -14q31 0 55.5 25t24.5 69v182z" />
    <glyph glyph-name="aacute" unicode="&#xe1;" horiz-adv-x="503" 
d="M283 932h94l-101 -83h-52zM326 0l-14 91q-42 -101 -142 -101q-58 0 -98.5 41t-40.5 113v135q0 147 145 195l132 42v140q0 24 -14 38.5t-42 14.5t-42.5 -15.5t-14.5 -38.5v-119h-143v129q0 74 49.5 119.5t150.5 45.5q203 0 203 -191v-639h-129zM308 391l-75 -24
q-55 -19 -55 -80v-120q0 -24 13 -38t37 -14q31 0 55.5 25t24.5 69v182z" />
    <glyph glyph-name="acircumflex" unicode="&#xe2;" horiz-adv-x="503" 
d="M389 848h-59l-68 52l-65 -52h-62l84 84h90zM326 0l-14 91q-42 -101 -142 -101q-58 0 -98.5 41t-40.5 113v135q0 147 145 195l132 42v140q0 24 -14 38.5t-42 14.5t-42.5 -15.5t-14.5 -38.5v-119h-143v129q0 74 49.5 119.5t150.5 45.5q203 0 203 -191v-639h-129zM308 391
l-75 -24q-55 -19 -55 -80v-120q0 -24 13 -38t37 -14q31 0 55.5 25t24.5 69v182z" />
    <glyph glyph-name="atilde" unicode="&#xe3;" horiz-adv-x="503" 
d="M223 888q-19 0 -18 -35h-51q0 79 65 79q17 0 30.5 -5t31.5 -18.5t19 -13.5q10 -8 18 -8q19 0 19 35h50q0 -79 -65 -79q-13 0 -26 4.5t-19.5 8.5t-19 13t-15.5 11q-10 8 -19 8zM252 830q203 0 203 -191v-639h-129l-14 91q-42 -101 -142 -101q-58 0 -98.5 41t-40.5 113v135
q0 147 145 195l132 42v140q0 24 -14 38.5t-42 14.5t-42.5 -15.5t-14.5 -38.5v-119h-143v129q0 74 49.5 119.5t150.5 45.5zM308 209v182l-75 -24q-55 -19 -55 -80v-120q0 -24 13 -38t37 -14q31 0 55.5 25t24.5 69z" />
    <glyph glyph-name="adieresis" unicode="&#xe4;" horiz-adv-x="503" 
d="M170 932h70v-79h-70v79zM284 932h70v-79h-70v79zM326 0l-14 91q-42 -101 -142 -101q-58 0 -98.5 41t-40.5 113v135q0 147 145 195l132 42v140q0 24 -14 38.5t-42 14.5t-42.5 -15.5t-14.5 -38.5v-119h-143v129q0 74 49.5 119.5t150.5 45.5q203 0 203 -191v-639h-129z
M308 391l-75 -24q-55 -19 -55 -80v-120q0 -24 13 -38t37 -14q31 0 55.5 25t24.5 69v182z" />
    <glyph glyph-name="aring" unicode="&#xe5;" horiz-adv-x="503" 
d="M283 829q172 -15 172 -190v-639h-129l-14 91q-42 -101 -142 -101q-58 0 -98.5 41t-40.5 113v135q0 147 145 195l132 42v140q0 24 -14 38.5t-42 14.5t-42.5 -15.5t-14.5 -38.5v-119h-143v129q0 72 46.5 117t140.5 48q-32 13 -32 49q0 23 16 38t40 15q23 0 38.5 -15
t15.5 -38q0 -36 -34 -50zM262 905q-11 0 -18.5 -7.5t-7.5 -18.5t7.5 -19t18.5 -8t19 8t7 19q0 11 -7.5 18.5t-18.5 7.5zM308 209v182l-75 -24q-55 -19 -55 -80v-120q0 -24 13 -38t37 -14q31 0 55.5 25t24.5 69z" />
    <glyph glyph-name="ae" unicode="&#xe6;" horiz-adv-x="761" 
d="M718 392h-271v-189q0 -88 67 -88q61 0 61 68v155h143v-166q0 -80 -55.5 -131t-147.5 -51q-148 0 -197 108q-59 -108 -151 -108q-58 0 -97 40.5t-39 113.5v133q0 131 141 186l125 47v146q0 53 -54 53q-25 0 -39 -15t-14 -38v-120h-140v129q0 72 51.5 118.5t141.5 46.5
q79 0 139 -34q53 34 129 34q207 0 207 -217v-221zM512 708q-32 0 -48.5 -22.5t-16.5 -60.5v-116h125v116q0 83 -60 83zM230 115q29 0 48 25t19 74v184l-69 -30q-50 -21 -50 -71v-128q0 -25 13.5 -39.5t38.5 -14.5z" />
    <glyph glyph-name="ccedilla" unicode="&#xe7;" horiz-adv-x="504" 
d="M463 471h-144v146q0 89 -61 89q-66 0 -66 -89v-414q0 -88 66 -88q61 0 61 88v176h144v-191q0 -93 -50.5 -145t-150.5 -53l-29 -45q27 21 48 21q39 0 39 -38v-9q0 -27 -19 -41.5t-50 -14.5q-33 0 -52.5 13.5t-19.5 39.5v6h59v-14q0 -15 12 -15q11 0 11 15v15q0 15 -13 15
h-64l34 55q-85 11 -130.5 67t-45.5 148v392q0 112 56.5 171t160.5 59q102 0 153 -51t51 -144v-164z" />
    <glyph glyph-name="egrave" unicode="&#xe8;" horiz-adv-x="505" 
d="M236 932l59 -83h-52l-101 83h94zM256 830q207 0 207 -217v-221h-271v-189q0 -88 67 -88q61 0 61 68v155h143v-166q0 -80 -55.5 -131t-147.5 -51q-107 0 -162.5 57t-55.5 161v392q0 112 56 171t158 59zM257 708q-32 0 -48.5 -22.5t-16.5 -60.5v-116h125v116q0 83 -60 83z
" />
    <glyph glyph-name="eacute" unicode="&#xe9;" horiz-adv-x="505" 
d="M274 932h94l-101 -83h-52zM256 830q207 0 207 -217v-221h-271v-189q0 -88 67 -88q61 0 61 68v155h143v-166q0 -80 -55.5 -131t-147.5 -51q-107 0 -162.5 57t-55.5 161v392q0 112 56 171t158 59zM257 708q-32 0 -48.5 -22.5t-16.5 -60.5v-116h125v116q0 83 -60 83z" />
    <glyph glyph-name="ecircumflex" unicode="&#xea;" horiz-adv-x="505" 
d="M380 848h-59l-68 52l-65 -52h-62l84 84h90zM256 830q207 0 207 -217v-221h-271v-189q0 -88 67 -88q61 0 61 68v155h143v-166q0 -80 -55.5 -131t-147.5 -51q-107 0 -162.5 57t-55.5 161v392q0 112 56 171t158 59zM257 708q-32 0 -48.5 -22.5t-16.5 -60.5v-116h125v116
q0 83 -60 83z" />
    <glyph glyph-name="edieresis" unicode="&#xeb;" horiz-adv-x="505" 
d="M161 932h70v-79h-70v79zM275 932h70v-79h-70v79zM256 830q207 0 207 -217v-221h-271v-189q0 -88 67 -88q61 0 61 68v155h143v-166q0 -80 -55.5 -131t-147.5 -51q-107 0 -162.5 57t-55.5 161v392q0 112 56 171t158 59zM257 708q-32 0 -48.5 -22.5t-16.5 -60.5v-116h125
v116q0 83 -60 83z" />
    <glyph glyph-name="igrave" unicode="&#xec;" horiz-adv-x="258" 
d="M112 932l59 -83h-52l-101 83h94zM55 821h148v-821h-148v821z" />
    <glyph glyph-name="iacute" unicode="&#xed;" horiz-adv-x="258" 
d="M150 932h94l-101 -83h-52zM55 821h148v-821h-148v821z" />
    <glyph glyph-name="icircumflex" unicode="&#xee;" horiz-adv-x="258" 
d="M256 848h-59l-68 52l-65 -52h-62l84 84h90zM55 821h148v-821h-148v821z" />
    <glyph glyph-name="idieresis" unicode="&#xef;" horiz-adv-x="258" 
d="M37 932h70v-79h-70v79zM151 932h70v-79h-70v79zM55 821h148v-821h-148v821z" />
    <glyph glyph-name="eth" unicode="&#xf0;" horiz-adv-x="506" 
d="M413 881q51 -77 50 -213l-1 -468q0 -99 -56 -154t-154 -55q-210 0 -210 201v464q0 88 38 131t93 43q47 0 80 -24.5t62 -67.5q0 50 -39 108l-53 -14l-14 48l33 8q-38 39 -76 62h177q24 -18 34 -27l49 12l14 -47zM315 181v458q0 36 -17 54.5t-44 18.5q-29 0 -46 -18
t-17 -53v-461q0 -35 17 -53t46 -18q27 0 44 18t17 54z" />
    <glyph glyph-name="ntilde" unicode="&#xf1;" horiz-adv-x="513" 
d="M216 888q-19 0 -18 -35h-51q0 79 65 79q17 0 30.5 -5t31.5 -18.5t19 -13.5q10 -8 18 -8q19 0 19 35h50q0 -79 -65 -79q-13 0 -26 4.5t-19.5 8.5t-19 13t-15.5 11q-10 8 -19 8zM347 830q54 0 86 -35.5t32 -110.5v-684h-147v645q0 56 -51 56q-27 0 -46 -20t-19 -56v-625
h-147v821h130l14 -87q20 38 60 67.5t88 28.5z" />
    <glyph glyph-name="ograve" unicode="&#xf2;" horiz-adv-x="510" 
d="M238 932l59 -83h-52l-101 83h94zM256 830q101 0 156.5 -58t55.5 -166v-392q0 -107 -55.5 -165.5t-157.5 -58.5q-101 0 -157 58.5t-56 165.5v392q0 108 56 166t158 58zM318 203v414q0 89 -62 89q-65 0 -65 -89l-1 -414q0 -43 17 -65.5t48 -22.5q63 0 63 88z" />
    <glyph glyph-name="oacute" unicode="&#xf3;" horiz-adv-x="510" 
d="M276 932h94l-101 -83h-52zM256 830q101 0 156.5 -58t55.5 -166v-392q0 -107 -55.5 -165.5t-157.5 -58.5q-101 0 -157 58.5t-56 165.5v392q0 108 56 166t158 58zM318 203v414q0 89 -62 89q-65 0 -65 -89l-1 -414q0 -43 17 -65.5t48 -22.5q63 0 63 88z" />
    <glyph glyph-name="ocircumflex" unicode="&#xf4;" horiz-adv-x="510" 
d="M382 848h-59l-68 52l-65 -52h-62l84 84h90zM256 830q101 0 156.5 -58t55.5 -166v-392q0 -107 -55.5 -165.5t-157.5 -58.5q-101 0 -157 58.5t-56 165.5v392q0 108 56 166t158 58zM318 203v414q0 89 -62 89q-65 0 -65 -89l-1 -414q0 -43 17 -65.5t48 -22.5q63 0 63 88z" />
    <glyph glyph-name="otilde" unicode="&#xf5;" horiz-adv-x="510" 
d="M216 888q-19 0 -18 -35h-51q0 79 65 79q17 0 30.5 -5t31.5 -18.5t19 -13.5q10 -8 18 -8q19 0 19 35h50q0 -79 -65 -79q-13 0 -26 4.5t-19.5 8.5t-19 13t-15.5 11q-10 8 -19 8zM256 830q101 0 156.5 -58t55.5 -166v-392q0 -107 -55.5 -165.5t-157.5 -58.5
q-101 0 -157 58.5t-56 165.5v392q0 108 56 166t158 58zM318 203v414q0 89 -62 89q-65 0 -65 -89l-1 -414q0 -43 17 -65.5t48 -22.5q63 0 63 88z" />
    <glyph glyph-name="odieresis" unicode="&#xf6;" horiz-adv-x="510" 
d="M163 932h70v-79h-70v79zM277 932h70v-79h-70v79zM256 830q101 0 156.5 -58t55.5 -166v-392q0 -107 -55.5 -165.5t-157.5 -58.5q-101 0 -157 58.5t-56 165.5v392q0 108 56 166t158 58zM318 203v414q0 89 -62 89q-65 0 -65 -89l-1 -414q0 -43 17 -65.5t48 -22.5q63 0 63 88
z" />
    <glyph glyph-name="oslash" unicode="&#xf8;" horiz-adv-x="517" 
d="M364 808q104 -51 104 -202v-392q0 -107 -55.5 -165.5t-157.5 -58.5q-27 0 -47 4l-19 -88h-55l23 102q-115 48 -115 206v392q0 108 56 166t158 58q28 0 56 -5l23 104h55zM318 203v414q0 89 -62 89q-65 0 -65 -89l-1 -414q0 -43 17 -65.5t48 -22.5q63 0 63 88z" />
    <glyph glyph-name="ugrave" unicode="&#xf9;" horiz-adv-x="513" 
d="M233 932l59 -83h-52l-101 83h94zM311 821h147v-821h-130l-14 88q-20 -38 -59.5 -68t-87.5 -29q-119 2 -119 153v677h147v-645q0 -56 51 -56q28 0 46.5 19.5t18.5 56.5v625z" />
    <glyph glyph-name="uacute" unicode="&#xfa;" horiz-adv-x="513" 
d="M271 932h94l-101 -83h-52zM311 821h147v-821h-130l-14 88q-20 -38 -59.5 -68t-87.5 -29q-119 2 -119 153v677h147v-645q0 -56 51 -56q28 0 46.5 19.5t18.5 56.5v625z" />
    <glyph glyph-name="ucircumflex" unicode="&#xfb;" horiz-adv-x="513" 
d="M377 848h-59l-68 52l-65 -52h-62l84 84h90zM311 821h147v-821h-130l-14 88q-20 -38 -59.5 -68t-87.5 -29q-119 2 -119 153v677h147v-645q0 -56 51 -56q28 0 46.5 19.5t18.5 56.5v625z" />
    <glyph glyph-name="udieresis" unicode="&#xfc;" horiz-adv-x="513" 
d="M158 932h70v-79h-70v79zM272 932h70v-79h-70v79zM311 821h147v-821h-130l-14 88q-20 -38 -59.5 -68t-87.5 -29q-119 2 -119 153v677h147v-645q0 -56 51 -56q28 0 46.5 19.5t18.5 56.5v625z" />
    <glyph glyph-name="yacute" unicode="&#xfd;" horiz-adv-x="491" 
d="M264 932h94l-101 -83h-52zM254 255l24 173l39 393h155l-127 -753q-41 -179 -195 -179h-123v123h77q40 0 58 29l-143 780h152l48 -393l24 -173h11z" />
    <glyph glyph-name="thorn" unicode="&#xfe;" horiz-adv-x="515" 
d="M335 -9q-47 0 -77 23t-56 66v-180h-147v1050h148v-213q38 95 132 94q60 -1 98 -44t38 -132v-488q0 -89 -38 -132.5t-98 -43.5zM264 115q58 0 58 82v428q0 82 -58 82q-61 0 -61 -86v-420q0 -86 61 -86z" />
    <glyph glyph-name="ydieresis" unicode="&#xff;" horiz-adv-x="491" 
d="M151 932h70v-79h-70v79zM265 932h70v-79h-70v79zM254 255l24 173l39 393h155l-127 -753q-41 -179 -195 -179h-123v123h77q40 0 58 29l-143 780h152l48 -393l24 -173h11z" />
    <glyph glyph-name="Amacron" unicode="&#x100;" horiz-adv-x="526" 
d="M382 1044v-47h-245v47h245zM370 0l-25 206l-165 1l-25 -207h-155l154 945h222l151 -945h-157zM196 335h133l-37 306l-24 164h-11l-23 -164z" />
    <glyph glyph-name="amacron" unicode="&#x101;" horiz-adv-x="503" 
d="M137 920h245v-47h-245v47zM326 0l-14 91q-42 -101 -142 -101q-58 0 -98.5 41t-40.5 113v135q0 147 145 195l132 42v140q0 24 -14 38.5t-42 14.5t-42.5 -15.5t-14.5 -38.5v-119h-143v129q0 74 49.5 119.5t150.5 45.5q203 0 203 -191v-639h-129zM308 391l-75 -24
q-55 -19 -55 -80v-120q0 -24 13 -38t37 -14q31 0 55.5 25t24.5 69v182z" />
    <glyph glyph-name="Abreve" unicode="&#x102;" horiz-adv-x="526" 
d="M262 972q-56 0 -90.5 24t-44.5 61h64q14 -41 71 -41q56 0 73 41h61q-10 -37 -44 -61t-90 -24zM370 0l-25 206l-165 1l-25 -207h-155l154 945h222l151 -945h-157zM196 335h133l-37 306l-24 164h-11l-23 -164z" />
    <glyph glyph-name="abreve" unicode="&#x103;" horiz-adv-x="503" 
d="M396 933q-10 -37 -44 -61t-90 -24t-90.5 24t-44.5 61h64q14 -41 71 -41q56 0 73 41h61zM326 0l-14 91q-42 -101 -142 -101q-58 0 -98.5 41t-40.5 113v135q0 147 145 195l132 42v140q0 24 -14 38.5t-42 14.5t-42.5 -15.5t-14.5 -38.5v-119h-143v129q0 74 49.5 119.5
t150.5 45.5q203 0 203 -191v-639h-129zM308 391l-75 -24q-55 -19 -55 -80v-120q0 -24 13 -38t37 -14q31 0 55.5 25t24.5 69v182z" />
    <glyph glyph-name="Aogonek" unicode="&#x104;" horiz-adv-x="526" 
d="M419 -29q0 -21 25 -21q39 0 70 12v-49q-52 -29 -116 -29q-34 0 -58.5 16t-24.5 46q0 50 53 73l-23 187l-165 1l-25 -207h-155l154 945h222l151 -945h-77q-31 -2 -31 -29zM196 335h133l-37 306l-24 164h-11l-23 -164z" />
    <glyph glyph-name="aogonek" unicode="&#x105;" horiz-adv-x="503" 
d="M373 0q-31 -2 -31 -29q0 -21 25 -21q39 0 70 12v-49q-52 -29 -116 -29q-34 0 -58.5 16t-24.5 46q0 26 20.5 50.5t63.5 32.5l-10 62q-42 -101 -142 -101q-58 0 -98.5 41t-40.5 113v135q0 147 145 195l132 42v140q0 24 -14 38.5t-42 14.5t-42.5 -15.5t-14.5 -38.5v-119
h-143v129q0 74 49.5 119.5t150.5 45.5q203 0 203 -191v-639h-82zM308 209v182l-75 -24q-55 -19 -55 -80v-120q0 -24 13 -38t37 -14q31 0 55.5 25t24.5 69z" />
    <glyph glyph-name="Cacute" unicode="&#x106;" horiz-adv-x="533" 
d="M288 1059h94l-101 -83h-52zM485 425v-229q0 -98 -55.5 -152t-158.5 -54q-106 0 -163 61.5t-57 173.5v494q0 112 57 173.5t163 61.5q103 0 158.5 -53.5t55.5 -151.5v-206h-148v200q0 37 -17.5 59t-47.5 22t-49 -22.5t-19 -58.5v-542q0 -36 19 -58t49 -22t47.5 22t17.5 58
v224h148z" />
    <glyph glyph-name="cacute" unicode="&#x107;" horiz-adv-x="504" 
d="M285 932h94l-101 -83h-52zM463 379v-191q0 -94 -51.5 -146t-152.5 -52q-103 0 -160 57.5t-57 160.5v392q0 112 56.5 171t160.5 59q102 0 153 -51t51 -144v-164h-144v146q0 89 -61 89q-66 0 -66 -89v-414q0 -88 66 -88q61 0 61 88v176h144z" />
    <glyph glyph-name="Cdotaccent" unicode="&#x10a;" horiz-adv-x="533" 
d="M232 1059h70v-79h-70v79zM485 425v-229q0 -98 -55.5 -152t-158.5 -54q-106 0 -163 61.5t-57 173.5v494q0 112 57 173.5t163 61.5q103 0 158.5 -53.5t55.5 -151.5v-206h-148v200q0 37 -17.5 59t-47.5 22t-49 -22.5t-19 -58.5v-542q0 -36 19 -58t49 -22t47.5 22t17.5 58
v224h148z" />
    <glyph glyph-name="cdotaccent" unicode="&#x10b;" horiz-adv-x="504" 
d="M229 932h70v-79h-70v79zM463 379v-191q0 -94 -51.5 -146t-152.5 -52q-103 0 -160 57.5t-57 160.5v392q0 112 56.5 171t160.5 59q102 0 153 -51t51 -144v-164h-144v146q0 89 -61 89q-66 0 -66 -89v-414q0 -88 66 -88q61 0 61 88v176h144z" />
    <glyph glyph-name="Ccaron" unicode="&#x10c;" horiz-adv-x="533" 
d="M394 1063l-80 -84h-90l-84 84h62l65 -52l68 52h59zM485 425v-229q0 -98 -55.5 -152t-158.5 -54q-106 0 -163 61.5t-57 173.5v494q0 112 57 173.5t163 61.5q103 0 158.5 -53.5t55.5 -151.5v-206h-148v200q0 37 -17.5 59t-47.5 22t-49 -22.5t-19 -58.5v-542q0 -36 19 -58
t49 -22t47.5 22t17.5 58v224h148z" />
    <glyph glyph-name="ccaron" unicode="&#x10d;" horiz-adv-x="504" 
d="M391 936l-80 -84h-90l-84 84h62l65 -52l68 52h59zM463 379v-191q0 -94 -51.5 -146t-152.5 -52q-103 0 -160 57.5t-57 160.5v392q0 112 56.5 171t160.5 59q102 0 153 -51t51 -144v-164h-144v146q0 89 -61 89q-66 0 -66 -89v-414q0 -88 66 -88q61 0 61 88v176h144z" />
    <glyph glyph-name="Dcaron" unicode="&#x10e;" 
d="M405 1060l-80 -84h-90l-84 84h62l65 -52l68 52h59zM287 945q97 0 151 -58t54 -167v-496q0 -109 -54.5 -166.5t-150.5 -57.5h-225v945h225zM341 208v529q0 37 -18.5 57.5t-48.5 20.5h-62v-685h61q30 0 49 20.5t19 57.5z" />
    <glyph glyph-name="dcaron" unicode="&#x10f;" horiz-adv-x="629" 
d="M311 741v209h147v-950h-147v84q-46 -94 -133 -94q-60 1 -98 44t-38 132v489q0 89 38 132t98 43q47 0 77 -23t56 -66zM526 950h88v-157q0 -85 -77 -85h-11v48h10q27 0 27 40v52h-37v102zM310 200v421q0 85 -61 85q-58 0 -58 -82v-427q0 -82 58 -82q61 0 61 85z" />
    <glyph glyph-name="Dcroat" unicode="&#x110;" 
d="M287 945q97 0 151 -58t54 -167v-496q0 -109 -54.5 -166.5t-150.5 -57.5h-225v450h-53v46h53v449h225zM341 208v529q0 37 -18.5 57.5t-48.5 20.5h-62v-319h74v-46h-74v-320h61q30 0 49 20.5t19 57.5z" />
    <glyph glyph-name="dcroat" unicode="&#x111;" horiz-adv-x="515" 
d="M491 891v-46h-33v-845h-147v84q-46 -94 -133 -94q-60 1 -98 44t-38 132v489q0 89 38 132t98 43q47 0 77 -23t56 -66v104h-49v46h49v59h147v-59h33zM310 200v421q0 85 -61 85q-58 0 -58 -82v-427q0 -82 58 -82q61 0 61 85z" />
    <glyph glyph-name="Emacron" unicode="&#x112;" horiz-adv-x="447" 
d="M129 1044h245v-47h-245v47zM212 130h197v-130h-347v945h345v-130h-195v-266h179v-128h-179v-291z" />
    <glyph glyph-name="emacron" unicode="&#x113;" horiz-adv-x="505" 
d="M128 920h245v-47h-245v47zM256 830q207 0 207 -217v-221h-271v-189q0 -88 67 -88q61 0 61 68v155h143v-166q0 -80 -55.5 -131t-147.5 -51q-107 0 -162.5 57t-55.5 161v392q0 112 56 171t158 59zM257 708q-32 0 -48.5 -22.5t-16.5 -60.5v-116h125v116q0 83 -60 83z" />
    <glyph glyph-name="Edotaccent" unicode="&#x116;" horiz-adv-x="447" 
d="M219 1056h70v-79h-70v79zM212 130h197v-130h-347v945h345v-130h-195v-266h179v-128h-179v-291z" />
    <glyph glyph-name="edotaccent" unicode="&#x117;" horiz-adv-x="505" 
d="M218 932h70v-79h-70v79zM256 830q207 0 207 -217v-221h-271v-189q0 -88 67 -88q61 0 61 68v155h143v-166q0 -80 -55.5 -131t-147.5 -51q-107 0 -162.5 57t-55.5 161v392q0 112 56 171t158 59zM257 708q-32 0 -48.5 -22.5t-16.5 -60.5v-116h125v116q0 83 -60 83z" />
    <glyph glyph-name="Eogonek" unicode="&#x118;" horiz-adv-x="447" 
d="M344 0q-31 -2 -31 -29q0 -21 25 -21q39 0 70 12v-49q-52 -29 -116 -29q-34 0 -58.5 16t-24.5 46t24 54h-171v945h345v-130h-195v-266h179v-128h-179v-291h197v-130h-65z" />
    <glyph glyph-name="eogonek" unicode="&#x119;" horiz-adv-x="505" 
d="M463 392h-271v-189q0 -88 67 -88q61 0 61 68v155h143v-166q0 -75 -48.5 -124.5t-131.5 -56.5q-6 -7 -6 -19q0 -21 25 -21q39 0 70 12v-49q-52 -29 -116 -29q-34 0 -58.5 16t-24.5 46q0 27 20 50q-74 16 -112.5 70.5t-38.5 140.5v392q0 112 56 171t158 59q207 0 207 -217
v-221zM192 625v-116h125v116q0 83 -60 83q-32 0 -48.5 -22.5t-16.5 -60.5z" />
    <glyph glyph-name="Ecaron" unicode="&#x11a;" horiz-adv-x="447" 
d="M381 1060l-80 -84h-90l-84 84h62l65 -52l68 52h59zM212 130h197v-130h-347v945h345v-130h-195v-266h179v-128h-179v-291z" />
    <glyph glyph-name="ecaron" unicode="&#x11b;" horiz-adv-x="505" 
d="M380 936l-80 -84h-90l-84 84h62l65 -52l68 52h59zM256 830q207 0 207 -217v-221h-271v-189q0 -88 67 -88q61 0 61 68v155h143v-166q0 -80 -55.5 -131t-147.5 -51q-107 0 -162.5 57t-55.5 161v392q0 112 56 171t158 59zM257 708q-32 0 -48.5 -22.5t-16.5 -60.5v-116h125
v116q0 83 -60 83z" />
    <glyph glyph-name="Gbreve" unicode="&#x11e;" horiz-adv-x="537" 
d="M401 1060q-10 -37 -44 -61t-90 -24t-90.5 24t-44.5 61h64q14 -41 71 -41q56 0 73 41h61zM343 70q-32 -80 -131 -80q-70 1 -115.5 53t-45.5 146v530q0 113 57.5 174t166.5 61q104 0 159 -53t55 -148v-171h-150v161q0 81 -67 81q-30 0 -49 -22.5t-19 -58.5v-542
q0 -41 18.5 -60.5t48.5 -19.5t50 21t20 53v187h-70v127h218v-509h-123l-13 70h-10z" />
    <glyph glyph-name="gbreve" unicode="&#x11f;" horiz-adv-x="513" 
d="M388 933q-10 -37 -44 -61t-90 -24t-90.5 24t-44.5 61h64q14 -41 71 -41q56 0 73 41h61zM327 822h131v-752q0 -94 -50 -137.5t-129 -43.5h-193v123h152q74 0 74 69v73q-27 -51 -56 -75.5t-78 -23.5q-60 0 -98 42t-38 127v437q0 85 38 127t98 42q47 0 77.5 -25t56.5 -70z
M248 706q-58 0 -58 -78v-366q0 -82 58 -82q62 0 62 85v356q0 85 -62 85z" />
    <glyph glyph-name="Gdotaccent" unicode="&#x120;" horiz-adv-x="537" 
d="M232 1059h70v-79h-70v79zM343 70q-32 -80 -131 -80q-70 1 -115.5 53t-45.5 146v530q0 113 57.5 174t166.5 61q104 0 159 -53t55 -148v-171h-150v161q0 81 -67 81q-30 0 -49 -22.5t-19 -58.5v-542q0 -41 18.5 -60.5t48.5 -19.5t50 21t20 53v187h-70v127h218v-509h-123
l-13 70h-10z" />
    <glyph glyph-name="gdotaccent" unicode="&#x121;" horiz-adv-x="513" 
d="M219 932h70v-79h-70v79zM327 822h131v-752q0 -94 -50 -137.5t-129 -43.5h-193v123h152q74 0 74 69v73q-27 -51 -56 -75.5t-78 -23.5q-60 0 -98 42t-38 127v437q0 85 38 127t98 42q47 0 77.5 -25t56.5 -70zM248 706q-58 0 -58 -78v-366q0 -82 58 -82q62 0 62 85v356
q0 85 -62 85z" />
    <glyph glyph-name="Gcommaaccent" unicode="&#x122;" horiz-adv-x="537" 
d="M489 582h-150v161q0 81 -67 81q-30 0 -49 -22.5t-19 -58.5v-542q0 -41 18.5 -60.5t48.5 -19.5t50 21t20 53v187h-70v127h218v-509h-123l-13 70h-10q-32 -80 -131 -80q-70 1 -115.5 53t-45.5 146v530q0 113 57.5 174t166.5 61q104 0 159 -53t55 -148v-171zM226 -67v44h120
v-46q0 -51 -70 -51h-50v29h45q25 0 25 18v7z" />
    <glyph glyph-name="gcommaaccent" unicode="&#x123;" horiz-adv-x="513" 
d="M327 822h131v-752q0 -94 -50 -137.5t-129 -43.5h-193v123h152q74 0 74 69v73q-27 -51 -56 -75.5t-78 -23.5q-60 0 -98 42t-38 127v437q0 85 38 127t98 42q47 0 77.5 -25t56.5 -70zM310 265v356q0 85 -62 85q-58 0 -58 -78v-366q0 -82 58 -82q62 0 62 85zM209 -171v44h120
v-46q0 -51 -70 -51h-50v29h45q25 0 25 18v7z" />
    <glyph glyph-name="Hbar" unicode="&#x126;" horiz-adv-x="543" 
d="M529 782v-46h-44v-736h-150v419h-123v-419h-150v736h-48v46h48v163h150v-163h123v163h150v-163h44zM335 549v187h-123v-187h123z" />
    <glyph glyph-name="hbar" unicode="&#x127;" horiz-adv-x="514" 
d="M347 830q54 0 86 -35.5t32 -110.5v-684h-147v645q0 56 -51 56q-27 0 -46 -20t-19 -56v-625h-147v845h-31v46h31v59h147v-59h51v-46h-51v-111q21 38 59 67.5t86 28.5z" />
    <glyph glyph-name="Imacron" unicode="&#x12a;" horiz-adv-x="274" 
d="M12 1044h245v-47h-245v47zM62 945h150v-945h-150v945z" />
    <glyph glyph-name="imacron" unicode="&#x12b;" horiz-adv-x="258" 
d="M4 920h245v-47h-245v47zM55 821h148v-821h-148v821z" />
    <glyph glyph-name="Iogonek" unicode="&#x12e;" horiz-adv-x="274" 
d="M161 -50q39 0 70 12v-49q-52 -29 -116 -29q-34 0 -58.5 16t-24.5 46q0 35 30 59v940h150v-945h-45q-31 -2 -31 -29q0 -21 25 -21z" />
    <glyph glyph-name="iogonek" unicode="&#x12f;" horiz-adv-x="258" 
d="M202 950v-95h-146v95h146zM154 -48q39 0 70 12v-49q-52 -29 -116 -29q-34 0 -58.5 16t-24.5 46q0 35 30 59v814h148v-821h-55q-19 -6 -19 -27t25 -21z" />
    <glyph glyph-name="Idotaccent" unicode="&#x130;" horiz-adv-x="274" 
d="M102 1056h70v-79h-70v79zM62 945h150v-945h-150v945z" />
    <glyph glyph-name="dotlessi" unicode="&#x131;" horiz-adv-x="258" 
d="M55 821h148v-821h-148v821z" />
    <glyph glyph-name="Kcommaaccent" unicode="&#x136;" horiz-adv-x="543" 
d="M357 486l188 -486h-174l-149 431h-11v-431h-149v945h150l-1 -419h11l143 419h162zM236 -61v44h120v-46q0 -51 -70 -51h-50v29h45q25 0 25 18v7z" />
    <glyph glyph-name="kcommaaccent" unicode="&#x137;" horiz-adv-x="518" 
d="M355 438l158 -438h-166l-133 390h-11v-390h-148v950h148v-481h10l130 352h159zM210 -61v44h120v-46q0 -51 -70 -51h-50v29h45q25 0 25 18v7z" />
    <glyph glyph-name="Lacute" unicode="&#x139;" horiz-adv-x="396" 
d="M232 1056h94l-101 -83h-52zM212 130h187v-130h-337v945h150v-815z" />
    <glyph glyph-name="lacute" unicode="&#x13a;" horiz-adv-x="258" 
d="M150 1056h94l-101 -83h-52zM55 950h148v-950h-148v950z" />
    <glyph glyph-name="Lcommaaccent" unicode="&#x13b;" horiz-adv-x="396" 
d="M212 130h187v-130h-337v945h150v-815zM163 -61v44h120v-46q0 -51 -70 -51h-50v29h45q25 0 25 18v7z" />
    <glyph glyph-name="lcommaaccent" unicode="&#x13c;" horiz-adv-x="258" 
d="M55 950h148v-950h-148v950zM81 -61v44h120v-46q0 -51 -70 -51h-50v29h45q25 0 25 18v7z" />
    <glyph glyph-name="Lcaron" unicode="&#x13d;" horiz-adv-x="425" 
d="M212 945v-815h187v-130h-337v945h150zM315 945h94v-312q0 -84 -76 -84h-18v50h17q26 0 26 40v99h-43v207z" />
    <glyph glyph-name="lcaron" unicode="&#x13e;" horiz-adv-x="258" 
d="M256 1060l-80 -84h-90l-84 84h62l65 -52l68 52h59zM55 950h148v-950h-148v950z" />
    <glyph glyph-name="Lslash" unicode="&#x141;" horiz-adv-x="396" 
d="M212 130h187v-130h-337v390l-68 -37v81l68 38v473h150v-390l96 53v-82l-96 -53v-343z" />
    <glyph glyph-name="lslash" unicode="&#x142;" horiz-adv-x="258" 
d="M286 623v-82l-83 -46v-495h-148v414l-83 -46v81l83 46v455h148v-373z" />
    <glyph glyph-name="Nacute" unicode="&#x143;" horiz-adv-x="560" 
d="M308 1056h94l-101 -83h-52zM366 424l-9 256v265h141v-945h-146l-148 573h-9l7 -241v-332h-140v945h162l132 -521h10z" />
    <glyph glyph-name="nacute" unicode="&#x144;" horiz-adv-x="513" 
d="M276 932h94l-101 -83h-52zM347 830q54 0 86 -35.5t32 -110.5v-684h-147v645q0 56 -51 56q-27 0 -46 -20t-19 -56v-625h-147v821h130l14 -87q20 38 60 67.5t88 28.5z" />
    <glyph glyph-name="Ncommaaccent" unicode="&#x145;" horiz-adv-x="560" 
d="M357 945h141v-945h-146l-148 573h-9l7 -241v-332h-140v945h162l132 -521h10l-9 256v265zM239 -61v44h120v-46q0 -51 -70 -51h-50v29h45q25 0 25 18v7z" />
    <glyph glyph-name="ncommaaccent" unicode="&#x146;" horiz-adv-x="513" 
d="M347 830q54 0 86 -35.5t32 -110.5v-684h-147v645q0 56 -51 56q-27 0 -46 -20t-19 -56v-625h-147v821h130l14 -87q20 38 60 67.5t88 28.5zM207 -61v44h120v-46q0 -51 -70 -51h-50v29h45q25 0 25 18v7z" />
    <glyph glyph-name="Ncaron" unicode="&#x147;" horiz-adv-x="560" 
d="M414 1060l-80 -84h-90l-84 84h62l65 -52l68 52h59zM366 424l-9 256v265h141v-945h-146l-148 573h-9l7 -241v-332h-140v945h162l132 -521h10z" />
    <glyph glyph-name="ncaron" unicode="&#x148;" horiz-adv-x="513" 
d="M382 936l-80 -84h-90l-84 84h62l65 -52l68 52h59zM347 830q54 0 86 -35.5t32 -110.5v-684h-147v645q0 56 -51 56q-27 0 -46 -20t-19 -56v-625h-147v821h130l14 -87q20 38 60 67.5t88 28.5z" />
    <glyph glyph-name="Eng" unicode="&#x14a;" horiz-adv-x="560" 
d="M357 945h141v-922q0 -59 -35.5 -93t-94.5 -34h-95v123h44q18 0 25.5 9.5t7.5 35.5v9l-146 500h-9l7 -229v-344h-140v945h162l132 -521h10l-9 256v265z" />
    <glyph glyph-name="eng" unicode="&#x14b;" horiz-adv-x="513" 
d="M347 830q54 0 86 -35.5t32 -110.5v-652q0 -59 -35.5 -93t-94.5 -34q-42 0 -88 10v94h37q18 0 26 10t8 36v590q0 56 -51 56q-27 0 -46 -20t-19 -56v-625h-147v821h130l14 -87q20 38 60 67.5t88 28.5z" />
    <glyph glyph-name="Omacron" unicode="&#x14c;" 
d="M147 1047h245v-47h-245v47zM271 954q107 0 164.5 -61.5t57.5 -173.5v-494q0 -111 -58 -173t-164 -62t-163 61.5t-57 173.5v494q0 112 57 173.5t163 61.5zM341 201v542q0 37 -18.5 58.5t-49.5 21.5t-50 -22t-19 -58v-542q0 -36 19 -58t49 -22q31 0 50 22t19 58z" />
    <glyph glyph-name="omacron" unicode="&#x14d;" horiz-adv-x="510" 
d="M130 920h245v-47h-245v47zM256 830q101 0 156.5 -58t55.5 -166v-392q0 -107 -55.5 -165.5t-157.5 -58.5q-101 0 -157 58.5t-56 165.5v392q0 108 56 166t158 58zM318 203v414q0 89 -62 89q-65 0 -65 -89l-1 -414q0 -43 17 -65.5t48 -22.5q63 0 63 88z" />
    <glyph glyph-name="Ohungarumlaut" unicode="&#x150;" 
d="M224 1059h94l-101 -83h-52zM340 1058h94l-101 -83h-52zM271 954q107 0 164.5 -61.5t57.5 -173.5v-494q0 -111 -58 -173t-164 -62t-163 61.5t-57 173.5v494q0 112 57 173.5t163 61.5zM341 201v542q0 37 -18.5 58.5t-49.5 21.5t-50 -22t-19 -58v-542q0 -36 19 -58t49 -22
q31 0 50 22t19 58z" />
    <glyph glyph-name="ohungarumlaut" unicode="&#x151;" horiz-adv-x="510" 
d="M207 932h94l-101 -83h-52zM323 931h94l-101 -83h-52zM256 830q101 0 156.5 -58t55.5 -166v-392q0 -107 -55.5 -165.5t-157.5 -58.5q-101 0 -157 58.5t-56 165.5v392q0 108 56 166t158 58zM318 203v414q0 89 -62 89q-65 0 -65 -89l-1 -414q0 -43 17 -65.5t48 -22.5
q63 0 63 88z" />
    <glyph glyph-name="OE" unicode="&#x152;" horiz-adv-x="729" 
d="M690 130v-130h-342q-33 -10 -77 -10q-106 0 -163 61.5t-57 173.5v494q0 112 57 173.5t163 61.5q41 0 74 -9h343v-130h-195v-266h179v-128h-179v-291h197zM341 201v542q0 37 -18.5 58.5t-49.5 21.5t-50 -22t-19 -58v-542q0 -36 19 -58t49 -22q31 0 50 22t19 58z" />
    <glyph glyph-name="oe" unicode="&#x153;" horiz-adv-x="780" 
d="M468 392v-178q0 -20 -1 -29q6 -70 66 -70q61 0 61 68v155h143v-166q0 -80 -55.5 -131t-147.5 -51q-88 0 -142 40q-54 -40 -137 -40q-101 0 -157 58.5t-56 165.5v392q0 108 56 166t158 58q83 0 137 -40q54 40 137 40q207 0 207 -217v-221h-269zM531 708q-59 0 -64 -69
q1 -11 1 -33v-97h123v116q0 83 -60 83zM255 115q54 0 62 67q-1 9 -1 26v392q0 23 1 33q-5 73 -61 73q-65 0 -65 -89l-1 -414q0 -43 17 -65.5t48 -22.5z" />
    <glyph glyph-name="Racute" unicode="&#x154;" 
d="M388 1056l-101 -83h-52l59 83h94zM512 0h-150l-58 338h-92v-338h-150v945h217q102 0 159 -54t57 -158v-168q0 -101 -63 -162zM214 466h43q85 0 85 93v163q0 93 -85 93h-43v-349z" />
    <glyph glyph-name="racute" unicode="&#x155;" horiz-adv-x="486" 
d="M278 932h94l-101 -83h-52zM341 830q53 0 85 -37.5t32 -120.5v-311h-147l-1 274q0 35 -9.5 50.5t-34.5 15.5q-27 0 -45.5 -24.5t-18.5 -66.5v-610h-147v821h130l11 -87q31 48 61.5 72t83.5 24z" />
    <glyph glyph-name="Rcommaaccent" unicode="&#x156;" 
d="M432 403l80 -403h-150l-58 338h-92v-338h-150v945h217q102 0 159 -54t57 -158v-168q0 -101 -63 -162zM214 466h43q85 0 85 93v163q0 93 -85 93h-43v-349zM225 -61v44h120v-46q0 -51 -70 -51h-50v29h45q25 0 25 18v7z" />
    <glyph glyph-name="rcommaaccent" unicode="&#x157;" horiz-adv-x="486" 
d="M341 830q53 0 85 -37.5t32 -120.5v-311h-147l-1 274q0 35 -9.5 50.5t-34.5 15.5q-27 0 -45.5 -24.5t-18.5 -66.5v-610h-147v821h130l11 -87q31 48 61.5 72t83.5 24zM209 -61v44h120v-46q0 -51 -70 -51h-50v29h45q25 0 25 18v7z" />
    <glyph glyph-name="Rcaron" unicode="&#x158;" 
d="M320 976h-90l-84 84h62l65 -52l68 52h59zM512 0h-150l-58 338h-92v-338h-150v945h217q102 0 159 -54t57 -158v-168q0 -101 -63 -162zM214 466h43q85 0 85 93v163q0 93 -85 93h-43v-349z" />
    <glyph glyph-name="rcaron" unicode="&#x159;" horiz-adv-x="486" 
d="M384 936l-80 -84h-90l-84 84h62l65 -52l68 52h59zM341 830q53 0 85 -37.5t32 -120.5v-311h-147l-1 274q0 35 -9.5 50.5t-34.5 15.5q-27 0 -45.5 -24.5t-18.5 -66.5v-610h-147v821h130l11 -87q31 48 61.5 72t83.5 24z" />
    <glyph glyph-name="Sacute" unicode="&#x15a;" horiz-adv-x="538" 
d="M285 1059h94l-101 -83h-52zM483 636h-148v122q0 31 -17 48.5t-50 17.5q-30 0 -47.5 -16t-17.5 -40v-118q0 -28 13 -43t44 -28l80 -30q78 -30 116 -72.5t38 -124.5v-155q0 -94 -60 -150.5t-159 -56.5q-101 0 -159.5 51t-58.5 137v163h150v-150q0 -31 17.5 -50.5
t50.5 -19.5q30 0 48.5 19t18.5 47v146q0 56 -67 80l-84 29q-71 24 -104.5 68.5t-33.5 120.5v131q0 82 55.5 137t161.5 55q103 0 158 -49.5t55 -130.5v-138z" />
    <glyph glyph-name="sacute" unicode="&#x15b;" horiz-adv-x="490" 
d="M268 932h94l-101 -83h-52zM327 480q68 -19 100.5 -61t32.5 -113v-131q0 -85 -58 -135t-153 -50q-100 0 -156 46t-56 141v132h146v-141q0 -24 17 -38.5t45 -14.5q29 0 47.5 14t18.5 37v122q0 45 -58 63l-99 25q-121 33 -121 167v108q0 79 56.5 129t153.5 50q100 0 152 -46
t52 -117v-120h-144v104q0 26 -17 41.5t-44 15.5q-28 0 -44.5 -13.5t-16.5 -33.5v-102q0 -21 11 -33t39 -20z" />
    <glyph glyph-name="Scedilla" unicode="&#x15e;" horiz-adv-x="538" 
d="M340 549q78 -30 116 -72.5t38 -124.5v-155q0 -93 -59 -149t-155 -58l-32 -50q27 21 48 21q39 0 39 -38v-9q0 -27 -19 -41.5t-50 -14.5q-33 0 -52.5 13.5t-19.5 39.5v6h59v-14q0 -15 12 -15q11 0 11 15v15q0 15 -13 15h-64l37 59q-84 10 -131.5 59.5t-47.5 126.5v163h150
v-150q0 -31 17.5 -50.5t50.5 -19.5q30 0 48.5 19t18.5 47v146q0 56 -67 80l-84 29q-71 24 -104.5 68.5t-33.5 120.5v131q0 82 55.5 137t161.5 55q103 0 158 -49.5t55 -130.5v-138h-148v122q0 31 -17 48.5t-50 17.5q-30 0 -47.5 -16t-17.5 -40v-118q0 -28 13 -43t44 -28z" />
    <glyph glyph-name="scedilla" unicode="&#x15f;" horiz-adv-x="490" 
d="M327 480q68 -19 100.5 -61t32.5 -113v-131q0 -82 -54.5 -132t-144.5 -53l-33 -51q27 21 48 21q39 0 39 -38v-9q0 -27 -19 -41.5t-50 -14.5q-33 0 -52.5 13.5t-19.5 39.5v6h59v-14q0 -15 12 -15q11 0 11 15v15q0 15 -13 15h-64l37 59q-179 16 -179 186v132h146v-141
q0 -24 17 -38.5t45 -14.5q29 0 47.5 14t18.5 37v122q0 45 -58 63l-99 25q-121 33 -121 167v108q0 79 56.5 129t153.5 50q100 0 152 -46t52 -117v-120h-144v104q0 26 -17 41.5t-44 15.5q-28 0 -44.5 -13.5t-16.5 -33.5v-102q0 -21 11 -33t39 -20z" />
    <glyph glyph-name="Scaron" unicode="&#x160;" horiz-adv-x="538" 
d="M391 1063l-80 -84h-90l-84 84h62l65 -52l68 52h59zM483 636h-148v122q0 31 -17 48.5t-50 17.5q-30 0 -47.5 -16t-17.5 -40v-118q0 -28 13 -43t44 -28l80 -30q78 -30 116 -72.5t38 -124.5v-155q0 -94 -60 -150.5t-159 -56.5q-101 0 -159.5 51t-58.5 137v163h150v-150
q0 -31 17.5 -50.5t50.5 -19.5q30 0 48.5 19t18.5 47v146q0 56 -67 80l-84 29q-71 24 -104.5 68.5t-33.5 120.5v131q0 82 55.5 137t161.5 55q103 0 158 -49.5t55 -130.5v-138z" />
    <glyph glyph-name="scaron" unicode="&#x161;" horiz-adv-x="490" 
d="M374 936l-80 -84h-90l-84 84h62l65 -52l68 52h59zM327 480q68 -19 100.5 -61t32.5 -113v-131q0 -85 -58 -135t-153 -50q-100 0 -156 46t-56 141v132h146v-141q0 -24 17 -38.5t45 -14.5q29 0 47.5 14t18.5 37v122q0 45 -58 63l-99 25q-121 33 -121 167v108q0 79 56.5 129
t153.5 50q100 0 152 -46t52 -117v-120h-144v104q0 26 -17 41.5t-44 15.5q-28 0 -44.5 -13.5t-16.5 -33.5v-102q0 -21 11 -33t39 -20z" />
    <glyph glyph-name="uni0162" unicode="&#x162;" horiz-adv-x="448" 
d="M1 945h446v-130h-148v-815h-59l-35 -55q27 21 48 21q39 0 39 -38v-9q0 -27 -19 -41.5t-50 -14.5q-33 0 -52.5 13.5t-19.5 39.5v6h59v-14q0 -15 12 -15q11 0 11 15v15q0 15 -13 15h-64l38 62h-45v815h-148v130z" />
    <glyph glyph-name="uni0163" unicode="&#x163;" horiz-adv-x="373" 
d="M261 0q-17 0 -25 1l-36 -56q27 21 48 21q39 0 39 -38v-9q0 -27 -19 -41.5t-50 -14.5q-33 0 -52.5 13.5t-19.5 39.5v6h59v-14q0 -15 12 -15q11 0 11 15v15q0 15 -13 15h-64l44 71q-103 30 -103 150v542h-85v120q71 0 92.5 23.5t33.5 97.5h109v-121h114v-120h-117v-508
q0 -63 55 -63h65v-130h-98z" />
    <glyph glyph-name="Tcaron" unicode="&#x164;" horiz-adv-x="448" 
d="M351 1060l-80 -84h-90l-84 84h62l65 -52l68 52h59zM447 945v-130h-148v-815h-150v815h-148v130h446z" />
    <glyph glyph-name="tcaron" unicode="&#x165;" horiz-adv-x="491" 
d="M239 193q0 -63 55 -63h65v-130h-98q-83 0 -126 42t-43 117v542h-85v120q71 0 92.5 23.5t33.5 97.5h109v-121h114v-120h-117v-508zM385 942h88v-157q0 -85 -77 -85h-11v48h11q26 0 26 40v52h-37v102z" />
    <glyph glyph-name="Tbar" unicode="&#x166;" horiz-adv-x="448" 
d="M447 815h-148v-319h62v-46h-62v-450h-150v450h-65v46h65v319h-148v130h446v-130z" />
    <glyph glyph-name="tbar" unicode="&#x167;" horiz-adv-x="361" 
d="M294 130h65v-130h-98q-83 0 -126 42t-43 117v248h-86v46h86v248h-85v120q71 0 92.5 23.5t33.5 97.5h109v-121h114v-120h-117v-248h116v-46h-116v-214q0 -63 55 -63z" />
    <glyph glyph-name="Umacron" unicode="&#x16a;" 
d="M147 1044h245v-47h-245v47zM484 945v-760q0 -95 -55.5 -145t-157.5 -50q-101 0 -156.5 49.5t-55.5 142.5v763h150v-750q0 -38 17.5 -56t45.5 -18q62 0 62 74v750h150z" />
    <glyph glyph-name="umacron" unicode="&#x16b;" horiz-adv-x="513" 
d="M125 920h245v-47h-245v47zM311 821h147v-821h-130l-14 88q-20 -38 -59.5 -68t-87.5 -29q-119 2 -119 153v677h147v-645q0 -56 51 -56q28 0 46.5 19.5t18.5 56.5v625z" />
    <glyph glyph-name="Uring" unicode="&#x16e;" 
d="M273 949q-23 0 -39.5 15.5t-16.5 38.5t16 38t40 15q23 0 38.5 -15t15.5 -38t-15.5 -38.5t-38.5 -15.5zM272 976q11 0 19 8t7 19q0 11 -7.5 18.5t-18.5 7.5t-18.5 -7.5t-7.5 -18.5t7.5 -19t18.5 -8zM484 945v-760q0 -95 -55.5 -145t-157.5 -50q-101 0 -156.5 49.5
t-55.5 142.5v763h150v-750q0 -38 17.5 -56t45.5 -18q62 0 62 74v750h150z" />
    <glyph glyph-name="uring" unicode="&#x16f;" horiz-adv-x="513" 
d="M251 825q-23 0 -39.5 15.5t-16.5 38.5t16 38t40 15q23 0 38.5 -15t15.5 -38t-15.5 -38.5t-38.5 -15.5zM250 852q11 0 19 8t7 19q0 11 -7.5 18.5t-18.5 7.5t-18.5 -7.5t-7.5 -18.5t7.5 -19t18.5 -8zM311 821h147v-821h-130l-14 88q-20 -38 -59.5 -68t-87.5 -29
q-119 2 -119 153v677h147v-645q0 -56 51 -56q28 0 46.5 19.5t18.5 56.5v625z" />
    <glyph glyph-name="Uhungarumlaut" unicode="&#x170;" 
d="M224 1056h94l-101 -83h-52zM340 1055h94l-101 -83h-52zM484 945v-760q0 -95 -55.5 -145t-157.5 -50q-101 0 -156.5 49.5t-55.5 142.5v763h150v-750q0 -38 17.5 -56t45.5 -18q62 0 62 74v750h150z" />
    <glyph glyph-name="uhungarumlaut" unicode="&#x171;" horiz-adv-x="513" 
d="M202 932h94l-101 -83h-52zM318 931h94l-101 -83h-52zM311 821h147v-821h-130l-14 88q-20 -38 -59.5 -68t-87.5 -29q-119 2 -119 153v677h147v-645q0 -56 51 -56q28 0 46.5 19.5t18.5 56.5v625z" />
    <glyph glyph-name="Uogonek" unicode="&#x172;" 
d="M334 945h150v-760q0 -88 -48 -137.5t-137 -56.5q-6 -7 -6 -19q0 -21 25 -21q39 0 70 12v-49q-52 -29 -116 -29q-34 0 -58.5 16t-24.5 46q0 26 19 49q-72 14 -110.5 61.5t-38.5 124.5v763h150v-750q0 -38 17.5 -56t45.5 -18q62 0 62 74v750z" />
    <glyph glyph-name="uogonek" unicode="&#x173;" horiz-adv-x="513" 
d="M382 0q-31 -2 -31 -29q0 -21 25 -21q39 0 70 12v-49q-52 -29 -116 -29q-34 0 -58.5 16t-24.5 46q0 25 19 48.5t58 32.5l-10 61q-20 -38 -59.5 -68t-87.5 -29q-119 2 -119 153v677h147v-645q0 -56 51 -56q28 0 46.5 19.5t18.5 56.5v625h147v-821h-76z" />
    <glyph glyph-name="Wcircumflex" unicode="&#x174;" horiz-adv-x="819" 
d="M538 972h-59l-68 52l-65 -52h-62l84 84h90zM582 289h11l15 168l54 488h158l-132 -944h-188l-66 464l-21 201h-9l-19 -201l-67 -465h-188l-130 945h160l51 -488l16 -166h11l20 166l72 488h162l71 -488z" />
    <glyph glyph-name="wcircumflex" unicode="&#x175;" horiz-adv-x="740" 
d="M497 848h-59l-68 52l-65 -52h-62l84 84h90zM527 283l9 123l34 417h151l-110 -823h-160l-56 394l-16 131h-14l-17 -131l-57 -394h-164l-108 823h151l38 -417l10 -123h11l13 123l67 417h126l65 -417l14 -123h13z" />
    <glyph glyph-name="Ycircumflex" unicode="&#x176;" horiz-adv-x="537" 
d="M396 972h-59l-68 52l-65 -52h-62l84 84h90zM277 538l27 122l60 285l165 1l-186 -674v-272h-150v276l-186 670l170 -1l61 -285l27 -122h12z" />
    <glyph glyph-name="ycircumflex" unicode="&#x177;" horiz-adv-x="491" 
d="M370 848h-59l-68 52l-65 -52h-62l84 84h90zM254 255l24 173l39 393h155l-127 -753q-41 -179 -195 -179h-123v123h77q40 0 58 29l-143 780h152l48 -393l24 -173h11z" />
    <glyph glyph-name="Ydieresis" unicode="&#x178;" horiz-adv-x="537" 
d="M177 1056h70v-79h-70v79zM291 1056h70v-79h-70v79zM277 538l27 122l60 285l165 1l-186 -674v-272h-150v276l-186 670l170 -1l61 -285l27 -122h12z" />
    <glyph glyph-name="Zacute" unicode="&#x179;" horiz-adv-x="468" 
d="M260 1056h94l-101 -83h-52zM202 130h238v-130h-409v118l227 697h-224v130h391l-1 -121z" />
    <glyph glyph-name="zacute" unicode="&#x17a;" horiz-adv-x="426" 
d="M225 932h94l-101 -83h-52zM184 122h217v-122h-374v109l205 590h-197v122h360v-110z" />
    <glyph glyph-name="Zdotaccent" unicode="&#x17b;" horiz-adv-x="468" 
d="M204 1056h70v-79h-70v79zM202 130h238v-130h-409v118l227 697h-224v130h391l-1 -121z" />
    <glyph glyph-name="zdotaccent" unicode="&#x17c;" horiz-adv-x="426" 
d="M169 932h70v-79h-70v79zM184 122h217v-122h-374v109l205 590h-197v122h360v-110z" />
    <glyph glyph-name="Zcaron" unicode="&#x17d;" horiz-adv-x="468" 
d="M366 1060l-80 -84h-90l-84 84h62l65 -52l68 52h59zM202 130h238v-130h-409v118l227 697h-224v130h391l-1 -121z" />
    <glyph glyph-name="zcaron" unicode="&#x17e;" horiz-adv-x="426" 
d="M331 936l-80 -84h-90l-84 84h62l65 -52l68 52h59zM184 122h217v-122h-374v109l205 590h-197v122h360v-110z" />
    <glyph glyph-name="Scommaaccent" unicode="&#x218;" horiz-adv-x="538" 
d="M340 549q78 -30 116 -72.5t38 -124.5v-155q0 -94 -60 -150.5t-159 -56.5q-101 0 -159.5 51t-58.5 137v163h150v-150q0 -31 17.5 -50.5t50.5 -19.5q30 0 48.5 19t18.5 47v146q0 56 -67 80l-84 29q-71 24 -104.5 68.5t-33.5 120.5v131q0 82 55.5 137t161.5 55
q103 0 158 -49.5t55 -130.5v-138h-148v122q0 31 -17 48.5t-50 17.5q-30 0 -47.5 -16t-17.5 -40v-118q0 -28 13 -43t44 -28zM219 -66v44h120v-46q0 -51 -70 -51h-50v29h45q25 0 25 18v7z" />
    <glyph glyph-name="scommaaccent" unicode="&#x219;" horiz-adv-x="490" 
d="M327 480q68 -19 100.5 -61t32.5 -113v-131q0 -85 -58 -135t-153 -50q-100 0 -156 46t-56 141v132h146v-141q0 -24 17 -38.5t45 -14.5q29 0 47.5 14t18.5 37v122q0 45 -58 63l-99 25q-121 33 -121 167v108q0 79 56.5 129t153.5 50q100 0 152 -46t52 -117v-120h-144v104
q0 26 -17 41.5t-44 15.5q-28 0 -44.5 -13.5t-16.5 -33.5v-102q0 -21 11 -33t39 -20zM199 -67v44h120v-46q0 -51 -70 -51h-50v29h45q25 0 25 18v7z" />
    <glyph glyph-name="uni021A" unicode="&#x21a;" horiz-adv-x="448" 
d="M1 945h446v-130h-148v-815h-150v815h-148v130zM176 -61v44h120v-46q0 -51 -70 -51h-50v29h45q25 0 25 18v7z" />
    <glyph glyph-name="uni021B" unicode="&#x21b;" horiz-adv-x="373" 
d="M294 130h65v-130h-98q-83 0 -126 42t-43 117v542h-85v120q71 0 92.5 23.5t33.5 97.5h109v-121h114v-120h-117v-508q0 -63 55 -63zM171 -61v44h120v-46q0 -51 -70 -51h-50v29h45q25 0 25 18v7z" />
    <glyph glyph-name="Wgrave" unicode="&#x1e80;" horiz-adv-x="819" 
d="M394 1056l59 -83h-52l-101 83h94zM582 289h11l15 168l54 488h158l-132 -944h-188l-66 464l-21 201h-9l-19 -201l-67 -465h-188l-130 945h160l51 -488l16 -166h11l20 166l72 488h162l71 -488z" />
    <glyph glyph-name="wgrave" unicode="&#x1e81;" horiz-adv-x="740" 
d="M353 932l59 -83h-52l-101 83h94zM527 283l9 123l34 417h151l-110 -823h-160l-56 394l-16 131h-14l-17 -131l-57 -394h-164l-108 823h151l38 -417l10 -123h11l13 123l67 417h126l65 -417l14 -123h13z" />
    <glyph glyph-name="Wacute" unicode="&#x1e82;" horiz-adv-x="819" 
d="M432 1056h94l-101 -83h-52zM582 289h11l15 168l54 488h158l-132 -944h-188l-66 464l-21 201h-9l-19 -201l-67 -465h-188l-130 945h160l51 -488l16 -166h11l20 166l72 488h162l71 -488z" />
    <glyph glyph-name="wacute" unicode="&#x1e83;" horiz-adv-x="740" 
d="M391 932h94l-101 -83h-52zM527 283l9 123l34 417h151l-110 -823h-160l-56 394l-16 131h-14l-17 -131l-57 -394h-164l-108 823h151l38 -417l10 -123h11l13 123l67 417h126l65 -417l14 -123h13z" />
    <glyph glyph-name="Wdieresis" unicode="&#x1e84;" horiz-adv-x="819" 
d="M319 1056h70v-79h-70v79zM433 1056h70v-79h-70v79zM582 289h11l15 168l54 488h158l-132 -944h-188l-66 464l-21 201h-9l-19 -201l-67 -465h-188l-130 945h160l51 -488l16 -166h11l20 166l72 488h162l71 -488z" />
    <glyph glyph-name="wdieresis" unicode="&#x1e85;" horiz-adv-x="740" 
d="M278 932h70v-79h-70v79zM392 932h70v-79h-70v79zM527 283l9 123l34 417h151l-110 -823h-160l-56 394l-16 131h-14l-17 -131l-57 -394h-164l-108 823h151l38 -417l10 -123h11l13 123l67 417h126l65 -417l14 -123h13z" />
    <glyph glyph-name="Ygrave" unicode="&#x1ef2;" horiz-adv-x="537" 
d="M252 1056l59 -83h-52l-101 83h94zM277 538l27 122l60 285l165 1l-186 -674v-272h-150v276l-186 670l170 -1l61 -285l27 -122h12z" />
    <glyph glyph-name="ygrave" unicode="&#x1ef3;" horiz-adv-x="491" 
d="M226 932l59 -83h-52l-101 83h94zM254 255l24 173l39 393h155l-127 -753q-41 -179 -195 -179h-123v123h77q40 0 58 29l-143 780h152l48 -393l24 -173h11z" />
    <glyph glyph-name="endash" unicode="&#x2013;" horiz-adv-x="400" 
d="M9 535h381v-124h-381v124z" />
    <glyph glyph-name="emdash" unicode="&#x2014;" horiz-adv-x="609" 
d="M9 535h591v-124h-591v124z" />
    <glyph glyph-name="quoteleft" unicode="&#x2018;" horiz-adv-x="285" 
d="M190 895q-41 0 -41 -43v-12h70v-169h-150v185q0 42 25.5 66.5t75.5 24.5h50v-52h-30z" />
    <glyph glyph-name="quoteright" unicode="&#x2019;" horiz-adv-x="285" 
d="M67 945h150v-185q0 -42 -25.5 -66.5t-75.5 -24.5h-50v52h30q41 0 41 43v12h-70v169z" />
    <glyph glyph-name="quotesinglbase" unicode="&#x201a;" horiz-adv-x="285" 
d="M68 169h150v-185q0 -42 -25.5 -66.5t-75.5 -24.5h-50v52h30q41 0 41 43v12h-70v169z" />
    <glyph glyph-name="quotedblleft" unicode="&#x201c;" horiz-adv-x="522" 
d="M69 856q0 42 25.5 66.5t75.5 24.5h50v-52h-30q-41 0 -41 -43v-12h70v-169h-150v185zM427 895q-41 0 -41 -43v-12h70v-169h-150v185q0 42 25.5 66.5t75.5 24.5h50v-52h-30z" />
    <glyph glyph-name="quotedblright" unicode="&#x201d;" horiz-adv-x="522" 
d="M67 776v169h150v-185q0 -42 -25.5 -66.5t-75.5 -24.5h-50v52h30q41 0 41 43v12h-70zM304 945h150v-185q0 -42 -25.5 -66.5t-75.5 -24.5h-50v52h30q41 0 41 43v12h-70v169z" />
    <glyph glyph-name="quotedblbase" unicode="&#x201e;" horiz-adv-x="521" 
d="M68 0v169h150v-185q0 -42 -25.5 -66.5t-75.5 -24.5h-50v52h30q41 0 41 43v12h-70zM304 169h150v-185q0 -42 -25.5 -66.5t-75.5 -24.5h-50v52h30q41 0 41 43v12h-70v169z" />
    <glyph glyph-name="dagger" unicode="&#x2020;" horiz-adv-x="319" 
d="M289 821v-92h-77v-233q-30 -12 -45.5 -39t-23.5 -73h-36v345h-77v92h77q56 22 68 118h37v-118h77z" />
    <glyph glyph-name="daggerdbl" unicode="&#x2021;" horiz-adv-x="319" 
d="M289 729h-77v-140h77v-93h-77q-30 -12 -45.5 -39t-23.5 -73h-36v112h-77v93h77v140h-77v92h77q56 22 68 118h37v-118h77v-92z" />
    <glyph glyph-name="bullet" unicode="&#x2022;" horiz-adv-x="395" 
d="M347 594v-305h-271v305h271z" />
    <glyph glyph-name="ellipsis" unicode="&#x2026;" horiz-adv-x="849" 
d="M218 169v-169h-150v169h150zM500 169v-169h-150v169h150zM782 169v-169h-150v169h150z" />
    <glyph glyph-name="guilsinglleft" unicode="&#x2039;" horiz-adv-x="391" 
d="M194 411h-150l157 410h154zM194 410l161 -410h-154l-157 410h150z" />
    <glyph glyph-name="guilsinglright" unicode="&#x203a;" horiz-adv-x="391" 
d="M197 411l-161 410h154l157 -410h-150zM197 410h150l-157 -410h-154z" />
    <glyph glyph-name="Euro" unicode="&#x20ac;" horiz-adv-x="558" 
d="M510 605h-146v141q0 81 -66 81q-28 0 -48 -20t-20 -61v-198h184v-48h-184v-47h184v-48h-184v-207q0 -40 19.5 -60t48.5 -20q66 0 66 80v148h146v-162q0 -87 -55 -140.5t-157 -53.5q-103 0 -161.5 54.5t-58.5 156.5v204h-64v48h64v47h-64v48h64v196q0 101 58.5 155.5
t161.5 54.5q102 0 157 -53.5t55 -140.5v-155z" />
    <glyph glyph-name="trademark" unicode="&#x2122;" horiz-adv-x="557" 
d="M218 945v-71h-61v-351h-86v351h-61v71h208zM237 945h101l36 -179l11 -85l10 85l37 179h102v-422h-81v157l3 117l-47 -274h-49l-45 274l3 -117v-157h-81v422z" />
    <glyph glyph-name="lozenge" unicode="&#x25ca;" horiz-adv-x="732" 
d="M366 924l-155 -500h-150l157 521h295l157 -521h-150zM366 -77l154 500h150l-157 -521h-295l-157 521h150z" />
    <glyph glyph-name="i.loclTRK" horiz-adv-x="258" 
d="M55 932h147v-78h-147v78zM55 821h148v-821h-148v821z" />
    <glyph glyph-name="_g.003" horiz-adv-x="1328" 
 />
    <glyph glyph-name="_a.002" horiz-adv-x="675" 
 />
    <glyph glyph-name="_g.002" horiz-adv-x="1331" 
 />
    <glyph glyph-name="_S.001" horiz-adv-x="640" 
 />
    <glyph glyph-name="_g.001" horiz-adv-x="623" 
 />
    <glyph glyph-name="_a.001" horiz-adv-x="629" 
 />
    <glyph glyph-name="newGlyph" horiz-adv-x="600" 
 />
    <glyph glyph-name="newGlyph.001" horiz-adv-x="600" 
 />
    <glyph glyph-name="_Adiac" horiz-adv-x="556" 
d="M400 0l-26 184h-193l-26 -184h-155l176 869h204l176 -869h-156zM205 307h147l-33 264l-41 180l-41 -180z" />
    <glyph glyph-name="_Cdiac" horiz-adv-x="527" 
d="M478 385v-206q0 -87 -53 -138t-153 -51q-102 0 -161.5 51.5t-59.5 147.5v492q0 96 59.5 147.5t161.5 51.5q100 0 153 -51t53 -137v-185h-137v177q0 40 -19.5 60.5t-48.5 20.5t-49.5 -20.5t-20.5 -60.5v-498q0 -40 20.5 -60.5t49.5 -20.5t48.5 20t19.5 61v199h137z" />
    <glyph glyph-name="_Ediac" horiz-adv-x="466" 
d="M212 124h228v-124h-378v869h358v-124h-208v-246h177v-117h-177v-258z" />
    <glyph glyph-name="_Idiac" horiz-adv-x="274" 
d="M62 869h150v-869h-150v869z" />
    <glyph glyph-name="_Odiac" horiz-adv-x="546" 
d="M272 880q103 0 163 -51.5t60 -147.5v-492q0 -96 -60 -147.5t-163 -51.5q-102 0 -161.5 51.5t-59.5 147.5v492q0 96 59.5 147.5t161.5 51.5zM343 186v498q0 41 -20.5 61t-50.5 20q-28 0 -48.5 -20.5t-20.5 -60.5v-498q0 -40 20.5 -60.5t48.5 -20.5q30 0 50.5 20t20.5 61z
" />
    <glyph glyph-name="_Udiac" horiz-adv-x="550" 
d="M490 869v-684q0 -98 -56 -146.5t-160 -48.5q-102 0 -158.5 48.5t-56.5 143.5v687h152v-689q0 -75 63 -75q64 0 64 75v689h152z" />
    <glyph glyph-name="_Zdiac" horiz-adv-x="454" 
d="M182 124h256v-124h-410v108l253 637h-243v124h392l-1 -112z" />
    </font>
</defs>
</svg>
