<svg width="18" height="16" viewBox="0 0 18 16" fill="none" xmlns="http://www.w3.org/2000/svg">
	<path fill-rule="evenodd" clip-rule="evenodd" d="M17.6334 2.38781C16.9972 2.68225 16.3146 2.88214 15.5985 2.97128C16.33 2.51207 16.8916 1.78273 17.1543 0.915632C16.4691 1.34243 15.7118 1.65037 14.9056 1.81785C14.259 1.09662 13.3394 0.645508 12.3194 0.645508C10.3642 0.645508 8.7775 2.30948 8.7775 4.35972C8.7775 4.65146 8.80841 4.93509 8.87023 5.20521C5.92598 5.05124 3.31659 3.57096 1.57013 1.32352C1.26618 1.87187 1.09101 2.50937 1.09101 3.19008C1.09101 4.47858 1.71696 5.6158 2.66746 6.28031C2.08789 6.2614 1.5418 6.09392 1.06268 5.81569C1.06268 5.8319 1.06268 5.84541 1.06268 5.86161C1.06268 7.66064 2.28366 9.16254 3.9039 9.50289C3.60767 9.58663 3.29341 9.63255 2.97142 9.63255C2.74217 9.63255 2.52064 9.60824 2.30426 9.56502C2.75505 11.0399 4.0636 12.115 5.61172 12.1447C4.39847 13.1415 2.87354 13.7357 1.21208 13.7357C0.926157 13.7357 0.645385 13.7168 0.367188 13.6844C1.93333 14.7379 3.79571 15.3538 5.79718 15.3538C12.3116 15.3538 15.8741 9.69468 15.8741 4.78652C15.8741 4.62444 15.8715 4.46507 15.8638 4.3057C16.5567 3.78165 17.1569 3.12795 17.6309 2.38241L17.6334 2.38781Z" fill="white"/>
</svg>
