<svg width="133" height="38" viewBox="0 0 133 38" fill="none" xmlns="http://www.w3.org/2000/svg">
<path d="M48.4036 33.0436L46.9872 29.3505L45.5707 33.0436H48.4036ZM48.599 33.4809H45.3753L44.7404 35.0845H44.252L46.743 28.7188H47.2314L49.7224 35.0845H49.234L48.599 33.4809Z" fill="#80889C"/>
<path d="M55.6808 34.6471V35.0845H52.1641V28.7188H52.6525V34.6471H55.6808Z" fill="#80889C"/>
<path d="M61.6886 34.6471V35.0845H58.2207V28.7188H58.6603V34.6471H61.6886Z" fill="#80889C"/>
<path d="M64.7169 28.7188H64.2285V35.0845H64.7169V28.7188Z" fill="#80889C"/>
<path d="M71.3118 33.0436L69.8954 29.3505L68.4789 33.0436H71.3118ZM71.5072 33.4809H68.2836L67.6486 35.0845H67.1602L69.6512 28.7188H70.1396L72.6306 35.0845H72.1422L71.5072 33.4809Z" fill="#80889C"/>
<path d="M79.7612 28.7188V35.0845H79.3704L75.5607 29.642V35.0845H75.1211V28.7188H75.5118L79.2728 34.2098V28.7188H79.7612Z" fill="#80889C"/>
<mask id="mask0_12099_81461" style="mask-type:luminance" maskUnits="userSpaceOnUse" x="0" y="0" width="133" height="38">
<path d="M133 0H0V38H133V0Z" fill="white"/>
</mask>
<g mask="url(#mask0_12099_81461)">
<path d="M82.2031 31.9257C82.2031 30.1277 83.5707 28.6699 85.5245 28.6699C86.6967 28.6699 87.7224 29.253 88.2597 30.1763L87.8201 30.4193C87.3805 29.6418 86.5013 29.1073 85.5245 29.1073C83.8638 29.1073 82.6916 30.3707 82.6916 31.9257C82.6916 33.4807 83.8638 34.7441 85.5245 34.7441C86.5502 34.7441 87.4293 34.2096 87.8689 33.4321L88.3085 33.675C87.7712 34.5983 86.7455 35.23 85.5733 35.23C83.5707 35.1814 82.2031 33.7236 82.2031 31.9257Z" fill="#80889C"/>
</g>
<path d="M94.2668 34.6471V35.0845H90.6035V28.7188H94.2668V29.2047H91.0919V31.6829H94.0225V32.1203H91.0919V34.6471H94.2668Z" fill="#80889C"/>
<mask id="mask1_12099_81461" style="mask-type:luminance" maskUnits="userSpaceOnUse" x="0" y="0" width="133" height="38">
<path d="M133 0H0V38H133V0Z" fill="white"/>
</mask>
<g mask="url(#mask1_12099_81461)">
<path d="M56.9505 5.88002C56.9505 6.99767 56.0713 7.87235 54.9479 7.87235C53.8245 7.87235 52.9453 6.99767 52.9453 5.88002C52.9453 4.76238 53.8245 3.8877 54.9479 3.8877C56.0713 3.8877 56.9505 4.81097 56.9505 5.88002Z" fill="#80889C"/>
</g>
<mask id="mask2_12099_81461" style="mask-type:luminance" maskUnits="userSpaceOnUse" x="0" y="0" width="133" height="38">
<path d="M133 0H0V38H133V0Z" fill="white"/>
</mask>
<g mask="url(#mask2_12099_81461)">
<path d="M44.2526 24.394H48.502V12.9259H51.5303V8.89268H48.502V8.60112C48.502 7.72644 48.7462 7.09473 49.2346 6.65739C49.7231 6.17145 50.5046 5.97708 51.5303 6.02567V1.94383C49.137 1.84664 47.2809 2.38117 46.0598 3.54741C44.8388 4.66506 44.2526 6.36583 44.2526 8.55253V8.84409H42.0547V12.8773H44.2526V24.394Z" fill="#80889C"/>
</g>
<path d="M57.0482 8.94141H52.7988V24.4427H57.0482V8.94141Z" fill="#80889C"/>
<mask id="mask3_12099_81461" style="mask-type:luminance" maskUnits="userSpaceOnUse" x="0" y="0" width="133" height="38">
<path d="M133 0H0V38H133V0Z" fill="white"/>
</mask>
<g mask="url(#mask3_12099_81461)">
<path d="M69.2103 24.4423H73.4597V14.8208C73.4597 10.3988 70.5779 8.45508 67.6962 8.45508C65.7425 8.45508 64.1795 9.13539 63.3003 10.3016L62.763 11.0305V8.89242H58.5137V24.3937H62.763V15.9385C62.763 13.6546 63.9841 12.294 66.0844 12.294C67.9893 12.294 69.2103 13.5574 69.2103 15.5497V24.4423Z" fill="#80889C"/>
</g>
<mask id="mask4_12099_81461" style="mask-type:luminance" maskUnits="userSpaceOnUse" x="0" y="0" width="133" height="38">
<path d="M133 0H0V38H133V0Z" fill="white"/>
</mask>
<g mask="url(#mask4_12099_81461)">
<path d="M74.0469 12.9743H76.6356V18.9513C76.6356 21.0894 77.0752 22.4986 78.052 23.3733C79.1754 24.3937 81.178 24.7339 84.2551 24.4423V20.652C82.8386 20.7006 81.9106 20.652 81.3734 20.1175C81.0803 19.8259 80.9338 19.4372 80.9338 18.9027V12.9743H84.2551V8.94104H80.9338V4.51904L76.6844 5.78247V8.94104H74.0957L74.0469 12.9743Z" fill="#80889C"/>
</g>
<mask id="mask5_12099_81461" style="mask-type:luminance" maskUnits="userSpaceOnUse" x="0" y="0" width="133" height="38">
<path d="M133 0H0V38H133V0Z" fill="white"/>
</mask>
<g mask="url(#mask5_12099_81461)">
<path d="M96.9529 15.3067H89.1869L89.2846 14.918C89.773 13.12 91.1406 12.1482 93.0943 12.1482C94.9992 12.1482 96.318 13.1686 96.8064 14.918L96.9529 15.3067ZM93.192 8.45508C88.3565 8.45508 84.8887 11.9052 84.8887 16.6674C84.8887 21.5267 88.4542 24.8796 93.5828 24.8796C96.4645 24.8796 98.6625 23.9078 100.177 21.964L96.8064 20.0203C96.0249 20.7492 94.8527 21.1865 93.6316 21.1865C91.4337 21.1865 90.066 20.3604 89.4799 18.7569L89.3334 18.3681H101.007C101.105 17.8336 101.153 17.2991 101.153 16.7159C101.105 12.0024 97.6856 8.45508 93.192 8.45508Z" fill="#80889C"/>
</g>
<mask id="mask6_12099_81461" style="mask-type:luminance" maskUnits="userSpaceOnUse" x="0" y="0" width="133" height="38">
<path d="M133 0H0V38H133V0Z" fill="white"/>
</mask>
<g mask="url(#mask6_12099_81461)">
<path d="M110.434 8.45508C105.696 8.45508 102.131 12.0024 102.131 16.6674C102.131 21.3323 105.696 24.8796 110.434 24.8796C113.316 24.8796 115.905 23.4704 117.321 21.1379L113.609 19.0484C112.974 20.1175 111.753 20.7492 110.337 20.7492C108.041 20.7492 106.38 19.0484 106.38 16.7159C106.38 14.3835 108.041 12.6827 110.337 12.6827C111.753 12.6827 112.925 13.3144 113.609 14.3835L117.321 12.2454C115.953 9.86429 113.316 8.45508 110.434 8.45508Z" fill="#80889C"/>
</g>
<mask id="mask7_12099_81461" style="mask-type:luminance" maskUnits="userSpaceOnUse" x="0" y="0" width="133" height="38">
<path d="M133 0H0V38H133V0Z" fill="white"/>
</mask>
<g mask="url(#mask7_12099_81461)">
<path d="M128.751 24.2967H133.001V14.6752C133.001 10.2532 130.119 8.3095 127.237 8.3095C125.283 8.3095 123.72 8.98981 122.841 10.156L122.304 10.8849V2.33252H118.055V24.2967H122.304V15.7929C122.304 13.509 123.525 12.1484 125.625 12.1484C127.53 12.1484 128.751 13.4118 128.751 15.4041V24.2967Z" fill="#80889C"/>
</g>
<path d="M56.9505 5.78237C56.9505 6.90001 56.0713 7.77469 54.9479 7.77469C53.8245 7.77469 52.9453 6.90001 52.9453 5.78237C52.9453 4.66472 53.8245 3.79004 54.9479 3.79004C56.0713 3.79004 56.9505 4.66472 56.9505 5.78237Z" fill="#80889C"/>
<path d="M27.3522 34.0638C18.365 38.7287 7.473 34.8413 3.37017 25.7057C3.27249 25.4627 3.1748 25.2198 3.07712 24.9282C3.07712 24.8796 3.07711 24.831 3.02827 24.7824C2.78406 24.1021 2.58868 23.4218 2.44215 22.7415C2.44215 22.6929 2.44215 22.6929 2.39331 22.6443C2.05141 21.0407 1.95372 19.3886 2.05141 17.6878C2.14909 16.4244 0.146524 16.4244 0.0488372 17.6878C-0.0488492 19.5829 0.0976803 21.3809 0.488426 23.1789C0.488426 23.2274 0.488426 23.2274 0.488426 23.276C0.488426 23.3246 0.488426 23.3732 0.537269 23.3732V23.4218C0.634955 23.762 0.683799 24.0535 0.781485 24.3937C1.0257 25.1712 1.26992 25.9487 1.56298 26.6776C6.15424 36.8336 18.4627 40.9154 28.329 35.7645C29.4524 35.1814 28.4756 33.4806 27.3522 34.0638Z" fill="#80889C"/>
<path d="M14.8963 0.437139C13.6264 0.680105 14.1637 2.62384 15.3848 2.38087C24.8115 0.437139 33.9452 6.31693 35.9966 15.6955C36.2896 16.9589 38.1945 16.4244 37.9503 15.2095C35.6547 4.71335 25.3488 -1.74956 14.8963 0.437139Z" fill="#80889C"/>
<path d="M36.339 19.0485C36.2901 22.1098 35.5087 24.9769 33.9945 27.6981C33.3596 28.8157 35.0691 29.7876 35.704 28.67C37.4135 25.7058 38.2439 22.45 38.2927 19.0485C38.3416 17.7364 36.3878 17.7364 36.339 19.0485Z" fill="#80889C"/>
<path d="M31.2587 24.734C28.7677 29.6906 23.5903 32.8005 17.9245 32.3146C12.8448 31.8773 8.35125 28.4757 6.54405 23.7136C4.7857 19 5.86025 13.5576 9.32811 9.91306C12.8448 6.17138 18.3153 4.76217 23.1996 6.31716C28.7677 8.06652 32.4309 13.3146 32.5286 19C32.5286 20.312 34.58 20.312 34.58 19C34.4824 13.1688 31.2099 7.72636 25.8371 5.15092C20.5132 2.62406 14.1147 3.30437 9.52349 6.94887C4.88338 10.642 2.73428 16.7647 4.05305 22.4987C5.37182 28.1356 9.96307 32.7033 15.6289 34.0154C22.6623 35.6189 29.8423 32.1202 33.0171 25.7545C33.652 24.5397 31.8448 23.5678 31.2587 24.734Z" fill="#80889C"/>
<path d="M32.0898 22.1098C32.0898 22.6929 32.5783 23.1302 33.1156 23.1302C33.7017 23.1302 34.1413 22.6443 34.1413 22.1098C34.1413 21.5266 33.6528 21.0893 33.1156 21.0893C32.5783 21.0407 32.0898 21.5266 32.0898 22.1098Z" fill="#80889C"/>
<path d="M19.1961 7.2406C17.8773 7.19201 17.8773 9.23293 19.1961 9.28152C27.2552 9.47589 31.8953 18.7086 26.8645 25.123C26.083 26.1434 27.4994 27.6012 28.3298 26.5808C31.2604 22.8391 31.9442 17.834 29.6974 13.5577C27.646 9.62167 23.5431 7.33779 19.1961 7.2406Z" fill="#80889C"/>
<path d="M17.2897 8.5522C17.2897 7.96908 16.8013 7.53174 16.264 7.53174C15.6779 7.53174 15.2383 8.01767 15.2383 8.5522C15.2383 9.13532 15.7267 9.57266 16.264 9.57266C16.8501 9.57266 17.2897 9.08673 17.2897 8.5522Z" fill="#80889C"/>
</svg>
