<svg width="132" height="32" viewBox="0 0 132 32" fill="none" xmlns="http://www.w3.org/2000/svg">
<g clip-path="url(#clip0_12099_81420)">
<path d="M125.989 31.5055H121.092V4.39987H116.201V0.531738H130.877V4.39987H125.989V31.5055Z" fill="#80889C"/>
<path d="M104.179 13.4372H110.294V17.3149H104.182L104.179 27.6534L113.963 27.6502V31.5055H99.291V0.531738H113.963V4.39987H104.179V13.4372Z" fill="#80889C"/>
<path d="M87.0907 13.4372H93.2089V17.3149H87.0939L87.0907 27.6534L96.8786 27.6502V31.5055H82.2031V0.531738H96.8786V4.39987H87.0907V13.4372Z" fill="#80889C"/>
<path d="M64.9153 0.531738H74.1616C77.7672 0.531738 79.5716 2.29957 79.5716 5.83843V13.4756C79.5716 16.1769 78.6357 17.8904 76.7672 18.6064L80.0619 31.5055H75.5846L72.4854 18.9933H69.8061V31.4991L64.9121 31.5023L64.9153 0.531738ZM69.8093 15.4576H72.7354C74.1456 15.4576 74.7129 14.7383 74.7129 13.2454L74.7097 6.47139C74.7097 4.97849 74.1648 4.39667 72.7546 4.39667H69.8061V15.4576H69.8093Z" fill="#80889C"/>
<path d="M57.9586 31.5055H53.0614V4.39667H48.1738V0.531738H62.8461V4.39667H57.9586V31.5055Z" fill="#80889C"/>
<path d="M41.8525 8.2715L41.8685 6.13923C41.8781 4.90207 41.2307 4.38419 39.8238 4.3714L39.0706 4.36501C37.6989 4.35222 37.0387 4.95642 37.029 6.19358L36.9906 11.1294C36.9842 11.7049 37.0771 12.1972 37.3431 12.3986C37.6059 12.6032 38.0418 12.8685 38.6411 13.1882L43.1922 15.346C44.1921 15.8447 44.9004 16.2315 45.3171 16.5097C45.7337 16.7878 46.0574 17.1202 46.2882 17.5102C46.5189 17.9003 46.6311 18.6419 46.6215 19.7384L46.5702 26.343C46.5414 29.8275 44.5863 31.5506 40.7051 31.5154L37.7405 31.4899C33.8914 31.4547 31.9812 29.5398 32.0101 25.7388L32.0165 23.6865L36.8592 23.7312L36.8688 25.8539C36.8592 27.0655 37.545 27.6217 38.9873 27.6345L39.827 27.6409C41.0993 27.6537 41.6987 27.1646 41.7083 25.9562L41.7499 20.6751C41.7564 20.0997 41.6698 19.7256 41.4006 19.521C41.1346 19.3164 40.7019 19.0543 40.0994 18.7314L35.5484 16.4905C34.5452 16.0205 33.8209 15.6241 33.3722 15.3045C32.9235 14.9816 32.5998 14.5692 32.4043 14.0641C32.2088 13.5622 32.1126 12.9037 32.1191 12.0981L32.1703 5.75242C32.1992 2.21036 34.1382 0.458518 37.9873 0.493683L41 0.522454C44.8523 0.557619 46.7625 2.34463 46.7336 5.88668L46.7144 8.32584L41.8525 8.2715Z" fill="#80889C"/>
<path d="M23.2317 19.54L20.1453 31.2307H15.9212L20.2415 15.6847L15.918 0.483887H20.3761L23.2317 11.8325H23.3278L26.177 0.483887H30.4012L26.318 15.6847L30.3082 31.2307H25.8918L23.3278 19.54H23.2317Z" fill="#80889C"/>
<path d="M14.4856 4.32005H5.67838V13.2935H11.7101L11.7069 17.2095H5.67838V31.2339H0.861328V0.483887H13.4183L14.4856 4.32005Z" fill="#80889C"/>
</g>
<defs>
<clipPath id="clip0_12099_81420">
<rect width="131" height="32" fill="white" transform="translate(0.369141)"/>
</clipPath>
</defs>
</svg>
