<svg width="172" height="35" viewBox="0 0 172 35" fill="none" xmlns="http://www.w3.org/2000/svg">
<path fill-rule="evenodd" clip-rule="evenodd" d="M113.782 19.6135C112.802 19.6135 112.006 20.4064 112.004 21.3864C112.004 22.3664 112.8 23.1593 113.782 23.1593C114.761 23.1607 115.557 22.3678 115.559 21.3864C115.559 20.405 114.763 19.6121 113.782 19.6121V19.6135ZM171.09 18.265C170.902 17.8462 170.625 17.4735 170.279 17.172C169.902 16.8481 169.476 16.5885 169.017 16.4014C168.527 16.1962 167.974 16.0245 167.356 15.8877C166.359 15.6476 165.625 15.4201 165.153 15.2065C164.681 14.9929 164.445 14.6955 164.445 14.3186C164.445 14.0101 164.588 13.7491 164.87 13.5341C165.153 13.3205 165.656 13.213 166.376 13.213C167.096 13.213 167.723 13.3121 168.256 13.5104C168.788 13.7072 169.218 13.9264 169.543 14.1651L171.115 12.032C170.505 11.5825 169.821 11.2433 169.092 11.0297C168.346 10.8078 167.44 10.6961 166.374 10.6961C165.773 10.6961 165.178 10.7813 164.585 10.953C163.993 11.1247 163.46 11.369 162.988 11.6858C162.516 12.0027 162.134 12.3978 161.842 12.8682C161.55 13.3387 161.403 13.8747 161.403 14.475C161.403 15.0752 161.528 15.5596 161.778 15.9784C162.026 16.3986 162.344 16.7588 162.731 17.0589C163.118 17.3576 163.534 17.5936 163.979 17.7653C164.426 17.937 164.856 18.0738 165.267 18.1771C165.938 18.3306 166.469 18.4772 166.864 18.614C167.258 18.7508 167.568 18.889 167.791 19.0258C168.013 19.164 168.16 19.305 168.23 19.4502C168.298 19.5954 168.332 19.7545 168.332 19.9262C168.332 20.3199 168.135 20.6019 167.74 20.775C167.345 20.9467 166.821 21.0318 166.168 21.0318C165.429 21.0318 164.772 20.9076 164.198 20.6591C163.623 20.4106 163.147 20.0979 162.769 19.721L160.94 21.7005C161.489 22.3175 162.219 22.7838 163.129 23.1006C164.039 23.4175 165.061 23.5767 166.193 23.5767C166.897 23.5767 167.562 23.4873 168.189 23.3058C168.777 23.1439 169.333 22.8885 169.838 22.5478C170.31 22.2226 170.682 21.8233 170.957 21.3529C171.231 20.8825 171.369 20.3548 171.369 19.7713C171.369 19.1878 171.276 18.688 171.086 18.2678L171.09 18.265ZM157.904 11.1065L155.613 19.4865L153.037 11.1065H150.488L147.939 19.4865L145.622 11.1065H142.273L146.369 23.1607H149.201L151.597 15.8863L154.069 23.1607H157.005L161.101 11.1065H157.904ZM139.36 15.8612C139.353 15.2065 139.1 14.5769 138.652 14.0995C138.399 13.837 138.096 13.6276 137.763 13.4838C137.403 13.3219 136.991 13.2396 136.526 13.2396C136.029 13.2396 135.586 13.3205 135.201 13.4838C134.844 13.629 134.516 13.837 134.235 14.1009C133.985 14.3382 133.784 14.6216 133.643 14.9357C133.505 15.2442 133.437 15.5527 133.437 15.8612H139.36ZM142.167 15.0906C142.374 15.9128 142.477 16.7532 142.477 17.6089V18.0459H133.462C133.462 18.4912 133.56 18.8946 133.758 19.2534C133.955 19.6135 134.213 19.922 134.531 20.1789C134.848 20.4357 135.21 20.6326 135.613 20.7708C136.016 20.9076 136.416 20.976 136.809 20.976C137.393 20.976 137.904 20.9201 138.342 20.8099C138.78 20.6982 139.153 20.5698 139.462 20.4246C139.772 20.2794 140.024 20.1258 140.222 19.9611C140.419 19.7992 140.57 19.6666 140.672 19.5633L142.321 21.4129L141.896 21.8373C141.666 22.0676 141.329 22.3133 140.891 22.5702C140.453 22.827 139.894 23.0588 139.217 23.264C138.539 23.4692 137.728 23.5725 136.784 23.5725C135.841 23.5725 134.946 23.4105 134.157 23.0853C133.396 22.7796 132.708 22.3203 132.134 21.734C131.565 21.1421 131.126 20.4371 130.847 19.6652C130.547 18.8597 130.396 17.9691 130.396 16.9919C130.396 16.1013 130.547 15.2749 130.847 14.5127C131.133 13.7728 131.562 13.0958 132.109 12.5206C132.658 11.9497 133.314 11.496 134.041 11.1847C134.788 10.8594 135.616 10.6961 136.526 10.6961C137.625 10.6961 138.557 10.8971 139.321 11.2992C140.084 11.7012 140.699 12.2289 141.162 12.8808C141.632 13.5481 141.973 14.2977 142.166 15.0906H142.167ZM124.422 10.8497C123.941 10.8497 123.511 10.9013 123.134 11.0032C122.758 11.1051 122.417 11.2391 122.117 11.4011C121.815 11.5644 121.558 11.7403 121.343 11.9287C121.13 12.1172 120.946 12.2959 120.791 12.4676L120.714 11.1065H117.803V23.1607H120.842V16.6331C120.842 16.1878 120.915 15.7718 121.061 15.3865C121.207 15.0013 121.409 14.6634 121.667 14.3703C121.924 14.0799 122.234 13.8524 122.594 13.6891C122.959 13.5257 123.354 13.442 123.754 13.4448C124.424 13.4448 124.969 13.6556 125.389 14.0743C125.811 14.4945 126.021 15.0892 126.021 15.8612V23.1593H129.06V15.8347C129.06 14.3103 128.665 13.0972 127.877 12.1968C127.086 11.2978 125.936 10.8469 124.424 10.8469L124.422 10.8497ZM107.655 17.1217C107.655 16.6946 107.586 16.252 107.449 15.7984C107.315 15.3516 107.102 14.9343 106.818 14.5643C106.529 14.1916 106.165 13.8859 105.749 13.6653C105.319 13.435 104.812 13.3177 104.229 13.3177C103.645 13.3177 103.139 13.4336 102.71 13.6653C102.282 13.8957 101.924 14.1958 101.641 14.5643C101.357 14.9343 101.144 15.3516 101.01 15.7984C100.876 16.2269 100.807 16.6736 100.803 17.1217C100.803 17.567 100.872 18.0124 101.01 18.4577C101.147 18.903 101.36 19.3204 101.641 19.6917C101.924 20.0686 102.28 20.3729 102.71 20.6047C103.139 20.835 103.645 20.9523 104.229 20.9523C104.812 20.9523 105.319 20.8364 105.749 20.6047C106.178 20.3743 106.534 20.07 106.818 19.6917C107.1 19.3148 107.311 18.903 107.449 18.4577C107.586 18.0124 107.655 17.567 107.655 17.1217ZM110.244 14.6425C110.561 15.4214 110.72 16.2479 110.72 17.1217C110.72 17.9956 110.561 18.8234 110.244 19.601C109.937 20.3646 109.488 21.0625 108.918 21.6572C108.337 22.2589 107.641 22.7363 106.87 23.0588C106.072 23.4008 105.192 23.5725 104.23 23.5725C103.269 23.5725 102.389 23.4008 101.591 23.0588C100.82 22.7349 100.123 22.2575 99.5427 21.6572C98.9731 21.0625 98.5236 20.3646 98.2165 19.6024C97.8968 18.815 97.7349 17.9719 97.7391 17.1217C97.7391 16.2479 97.8982 15.4214 98.2165 14.6425C98.5222 13.8817 98.9717 13.1879 99.5427 12.5988C100.126 12.0041 100.823 11.5323 101.591 11.2098C102.389 10.8678 103.269 10.6961 104.23 10.6961C105.192 10.6961 106.072 10.8664 106.87 11.2098C107.638 11.5323 108.334 12.0041 108.918 12.5988C109.488 13.1879 109.938 13.8817 110.243 14.6425H110.244ZM95.5167 20.7722C95.2334 20.909 94.8509 20.9774 94.3706 20.9774C93.8555 20.9774 93.4814 20.7931 93.2511 20.4246C93.018 20.0574 92.9035 19.5298 92.9035 18.843V13.5746H96.1477V11.1065H92.9035V7.19922H89.8645V11.1065H87.804V13.5746H89.8645V19.0496C89.8645 19.7168 89.9329 20.3311 90.0711 20.8866C90.2079 21.4436 90.4368 21.9183 90.7537 22.3133C91.072 22.707 91.488 23.0113 92.0031 23.2263C92.5182 23.4399 93.145 23.5474 93.8835 23.5474C94.6219 23.5474 95.2571 23.4399 95.8406 23.2263C96.4241 23.0113 97.016 22.6553 97.6177 22.1598L96.3306 20.2836C96.0751 20.4706 95.8043 20.6354 95.5195 20.7722H95.5167ZM84.1717 17.1985C84.1717 16.6848 84.1159 16.2046 84.0042 15.7593C83.9037 15.3377 83.7194 14.9398 83.464 14.5895C83.2099 14.2516 82.8791 13.978 82.498 13.7924C82.1029 13.5955 81.6143 13.4964 81.0294 13.4964C80.566 13.4964 80.1458 13.5955 79.7675 13.7924C79.3892 13.9892 79.0681 14.2419 78.8015 14.5504C78.5362 14.8589 78.3296 15.1981 78.1844 15.5652C78.0379 15.9352 77.9653 16.2897 77.9653 16.6317V20.204C78.5655 20.701 79.4757 20.9495 80.6958 20.9495C81.2444 20.9495 81.7344 20.842 82.1643 20.6284C82.5831 20.4218 82.9545 20.1342 83.2588 19.7796C83.5589 19.4279 83.7906 19.0216 83.9414 18.5847C84.0963 18.138 84.1745 17.6689 84.1731 17.1971H84.1717V17.1985ZM86.9022 14.8617C87.1256 15.6155 87.2373 16.3944 87.2373 17.1999C87.2373 18.1422 87.0991 18.9477 86.8255 19.6163C86.5728 20.2473 86.2252 20.8364 85.7952 21.3641C85.1084 22.1863 84.3574 22.76 83.5408 23.0867C82.7423 23.4092 81.8907 23.5739 81.0294 23.5753C80.6344 23.5753 80.2951 23.5585 80.0118 23.5236C79.526 23.4692 79.0499 23.3519 78.5949 23.176L77.9653 22.9317V28.3034H74.9514V11.1065H77.8871L77.9639 12.469C78.1188 12.2987 78.3115 12.1186 78.5432 11.9301C78.7749 11.7417 79.0499 11.57 79.3668 11.4164C79.6837 11.2629 80.0453 11.133 80.4487 11.0311C80.8521 10.9292 81.303 10.8776 81.8014 10.8776C82.7283 10.8776 83.531 11.0577 84.2094 11.4164C84.8879 11.7766 85.449 12.2512 85.8957 12.8431C86.3494 13.4489 86.69 14.133 86.9008 14.8603L86.9022 14.8617ZM67.7412 19.3581L64.289 11.1065H60.7865L66.221 23.0602L65.8343 24.0359C65.5426 24.7563 65.2634 25.2867 64.9968 25.6301C64.7301 25.9721 64.3909 26.1438 63.9791 26.1438C63.6706 26.1438 63.4137 26.0796 63.2057 25.9512C63.0089 25.8298 62.8205 25.6971 62.6404 25.5534L61.2751 27.6864C61.6171 27.9767 62.0178 28.2043 62.4729 28.3676C62.928 28.5295 63.4989 28.6119 64.1857 28.6119C64.9758 28.6119 65.6277 28.4402 66.1443 28.0982C66.6635 27.7506 67.1061 27.2997 67.4439 26.7748C67.8027 26.2206 68.1014 25.6301 68.3331 25.0131C68.5718 24.3793 68.8133 23.7637 69.0548 23.1635L74.1026 11.1093H70.7802L67.7412 19.3609V19.3581ZM58.8294 10.8748C58.331 10.8748 57.8885 10.9348 57.5032 11.0549C57.1166 11.1749 56.7773 11.3215 56.4856 11.4932C56.1938 11.6635 55.9398 11.852 55.7262 12.0586C55.5112 12.2638 55.3339 12.4522 55.1971 12.6239L55.1203 11.1079H52.2097V23.1621H55.2488V16.6597C55.2488 16.2144 55.3297 15.8109 55.493 15.4522C55.655 15.0934 55.8755 14.7849 56.1505 14.5266C56.4242 14.2698 56.7508 14.0729 57.1291 13.9361C57.5074 13.7993 57.9025 13.7295 58.3143 13.7295C58.6046 13.7295 58.8587 13.7463 59.0737 13.7812C59.2873 13.8161 59.4981 13.8747 59.7047 13.9613L60.3231 11.1093C60.083 11.0242 59.8471 10.9641 59.6153 10.9292C59.3557 10.8929 59.0918 10.8762 58.8294 10.8776V10.8748ZM43.1457 15.7076C43.0089 16.1669 42.9391 16.6429 42.9391 17.1203C42.9391 17.5978 43.0075 18.0375 43.1443 18.4828C43.2826 18.9295 43.4919 19.3315 43.7767 19.6903C44.0601 20.0491 44.4161 20.3422 44.846 20.5642C45.276 20.7861 45.7813 20.8978 46.3648 20.8978C46.9483 20.8978 47.5151 20.7819 48.0135 20.5516C48.4965 20.3324 48.9264 20.0128 49.2754 19.6135L51.079 21.5665C50.5067 22.1695 49.8254 22.6595 49.0702 23.0057C48.2969 23.3645 47.3965 23.5446 46.3662 23.5446C45.336 23.5446 44.4175 23.391 43.6106 23.0825C42.8037 22.7726 42.1253 22.3357 41.5753 21.7703C41.0169 21.1896 40.5855 20.4972 40.3133 19.7392C40.0216 18.9518 39.875 18.078 39.875 17.1175C39.875 16.2437 40.0341 15.4173 40.351 14.6383C40.6567 13.8775 41.1076 13.1837 41.6786 12.5946C42.2621 11.9999 42.9587 11.5281 43.7265 11.2056C44.525 10.8636 45.4044 10.6919 46.3662 10.6919C47.3281 10.6919 48.2382 10.8678 49.0451 11.2182C49.8212 11.549 50.5234 12.0334 51.1055 12.6449L49.1735 14.5992C48.8385 14.2111 48.4267 13.8971 47.9632 13.6737C47.4984 13.4517 46.9665 13.3401 46.3662 13.3401C45.766 13.3401 45.276 13.4476 44.8474 13.6611C44.4189 13.8747 44.0615 14.1539 43.7781 14.4959C43.4878 14.8519 43.2728 15.2623 43.1471 15.7034V15.7076H43.1457Z" fill="#80889C"/>
<path d="M17.5046 0C8.03996 0 0.369141 7.65547 0.369141 17.1006C0.369141 26.5457 8.04136 34.2011 17.5046 34.2011C26.9678 34.2011 34.6401 26.5457 34.6401 17.1006C34.6401 7.65547 26.9692 0 17.5046 0ZM17.499 22.2405C19.2035 22.2405 20.7991 21.3987 21.7595 19.9902C22.1532 19.4151 22.9377 19.2657 23.5142 19.658C24.0908 20.0502 24.2387 20.8334 23.8465 21.4085C22.4142 23.5052 20.0397 24.7602 17.499 24.7588V24.7616C13.2665 24.7616 9.82261 21.3247 9.82261 17.1006C9.82261 12.8764 13.2665 9.43951 17.499 9.43951C20.0383 9.43951 22.4142 10.6931 23.8465 12.7898C24.2401 13.365 24.0908 14.1495 23.5142 14.5404C22.9377 14.9326 22.1532 14.7833 21.7595 14.2081C20.7991 12.7996 19.2035 11.9578 17.499 11.9578C14.6582 11.9578 12.3479 14.2654 12.3479 17.0992C12.3479 19.933 14.6596 22.2405 17.499 22.2405ZM10.1814 24.1474C12.0729 26.1157 14.6806 27.2339 17.4097 27.2492H17.5018C20.1988 27.2576 22.7869 26.1883 24.6896 24.2772C28.6542 20.321 28.6542 13.8829 24.6896 9.9267C20.7237 5.96914 14.2729 5.96914 10.3084 9.9267C7.86966 12.3529 6.83245 15.8526 7.55417 19.2168C7.59325 19.4863 7.42574 19.7431 7.1633 19.8171C6.87573 19.8967 6.57699 19.7292 6.49603 19.4402C5.69754 15.7186 6.84641 11.8475 9.54481 9.16311C13.9323 4.78536 21.0713 4.78536 25.4574 9.16311C29.8435 13.5409 29.8435 20.6631 25.4574 25.0408H25.4546C23.3286 27.1627 20.5059 28.3283 17.5018 28.3283H17.4013C14.3818 28.3115 11.4964 27.0747 9.40382 24.8984C9.21955 24.689 9.22514 24.3735 9.41638 24.1711C9.62159 23.9533 9.9636 23.9422 10.1814 24.1474ZM9.1009 22.073C9.1009 22.6705 8.6165 23.1535 8.01902 23.1535C7.42155 23.1535 6.93715 22.6705 6.93715 22.073C6.93715 21.4755 7.42155 20.9925 8.01902 20.9925C8.6165 20.9925 9.1009 21.4755 9.1009 22.073ZM24.1885 3.88916H24.2722C24.8683 3.91428 25.3332 4.41683 25.3094 5.01291C25.2857 5.60898 24.7832 6.07384 24.1871 6.05011C23.5896 6.05011 23.1052 5.56571 23.1052 4.96963C23.1052 4.37356 23.5896 3.88916 24.1885 3.88916ZM27.6951 27.2729C24.973 29.9867 21.3547 31.4832 17.5046 31.4832C13.6811 31.4943 10.0125 29.9783 7.31406 27.2716C4.59193 24.555 3.09267 20.9423 3.09267 17.102C3.08289 13.284 4.6031 9.62098 7.31406 6.93236C10.8626 3.3894 15.7708 1.98506 20.7809 3.0767L20.8186 3.08508C21.1076 3.15907 21.2821 3.45361 21.2081 3.74258C21.1341 4.03154 20.8396 4.20604 20.5506 4.13205C15.909 3.12138 11.3638 4.41962 8.08045 7.69595C5.57329 10.1822 4.16756 13.5702 4.17593 17.102C4.16756 20.6337 5.57329 24.0217 8.08045 26.508C10.5778 29.0123 13.97 30.4139 17.506 30.4041C21.042 30.4153 24.4356 29.0123 26.9315 26.508C29.4387 24.0217 30.8444 20.6337 30.8361 17.102C30.8249 13.5436 29.3968 10.1375 26.8687 7.63313H26.8673C26.6565 7.42374 26.6551 7.08173 26.8645 6.87094C27.0753 6.65875 27.4173 6.65735 27.6295 6.86675C30.3544 9.55398 31.9179 13.2854 31.9179 17.102C31.9277 20.9213 30.4075 24.5843 27.6965 27.2729H27.6951Z" fill="#80889C"/>
</svg>
