<svg width="150" height="29" viewBox="0 0 150 29" fill="none" xmlns="http://www.w3.org/2000/svg">
	<path d="M3.15105 5.30176H0V17.906L3.15105 16.0053V5.30176Z" fill="#80889C"/>
	<path d="M31.7107 24.2081V5.30176H34.8617V28.4095H18.4062L31.7107 24.2081Z" fill="#80889C"/>
	<path d="M26.609 20.4568V6.95232L18.4062 9.50317V4.2014L31.7107 0V24.2081L18.4062 28.4095V23.0577L26.609 20.4568Z" fill="#80889C"/>
	<path d="M12.0032 27.0091L16.4547 28.4095V23.0578L9.95251 21.0071L5.95117 25.1084L12.0032 27.0091Z" fill="#80889C"/>
	<path d="M8.20207 6.95232L16.4548 9.50317V4.2014L3.15039 0V16.0053L8.20207 12.9043V6.95232Z" fill="#80889C"/>
	<path d="M12.0043 27.009L5.95226 25.1084L2.70117 28.4095H16.4558L12.0043 27.009Z" fill="#80889C"/>
	<path d="M16.4554 28.4095L12.0039 27.009L16.4554 28.4095Z" fill="#007850"/>
	<path d="M17.4058 16.4055L12.3041 12.7043L0 20.1568V28.4095L12.3041 15.8554L17.4058 18.3562L22.8076 12.2542L23.0577 14.1548L24.7583 9.60327L20.2067 11.3038L22.2074 11.6039L17.4058 16.4055Z" fill="#80889C"/>
	<path d="M51.9165 15.2552C51.7164 13.9047 50.8661 13.2045 49.5157 13.2045C47.415 13.2045 46.7648 15.3052 46.7648 17.0558C46.7648 18.7563 47.415 20.807 49.4657 20.807C50.9662 20.807 51.8665 19.8567 52.0665 18.4062H55.2176C54.8174 21.5573 52.6167 23.2578 49.5157 23.2578C45.9145 23.2578 43.5137 20.757 43.5137 17.1558C43.5137 13.4546 45.7144 10.7537 49.5657 10.7537C52.3666 10.7537 54.9175 12.2041 55.1175 15.2552H51.9165Z" fill="#80889C"/>
	<path d="M62.7708 10.7537C66.522 10.7537 68.9228 13.2545 68.9228 17.0057C68.9228 20.757 66.522 23.2578 62.7708 23.2578C59.0695 23.2578 56.6687 20.757 56.6687 17.0057C56.6187 13.2045 59.0195 10.7537 62.7708 10.7537ZM62.7708 20.807C64.9715 20.807 65.6717 18.9064 65.6717 17.0057C65.6717 15.1051 65.0215 13.2045 62.7708 13.2045C60.57 13.2045 59.9198 15.1051 59.9198 17.0057C59.8698 18.9064 60.57 20.807 62.7708 20.807Z" fill="#80889C"/>
	<path d="M74.3734 9.25315H71.1223V6.55225H74.3734V9.25315ZM71.0723 11.0537H74.3233V22.9077H71.0723V11.0537Z" fill="#80889C"/>
	<path d="M76.9258 11.0538H80.0268V12.7043H80.0768C80.9271 11.3539 82.3276 10.7537 83.678 10.7537C87.1292 10.7537 88.0295 12.7043 88.0295 15.6553V22.9577H84.7784V16.2055C84.7784 14.2548 84.2282 13.3045 82.6777 13.3045C80.9271 13.3045 80.1769 14.3048 80.1769 16.7056V22.9077H76.9258V11.0538Z" fill="#80889C"/>
	<path d="M99.0331 14.805C98.6329 13.0545 97.5826 11.9541 95.6819 11.9541C92.931 11.9541 91.5306 14.4549 91.5306 17.0058C91.5306 19.5066 92.931 22.0575 95.6819 22.0575C97.4825 22.0575 98.933 20.657 99.1331 18.7063H100.584C100.183 21.5573 98.3328 23.3079 95.6819 23.3079C92.0807 23.3079 90.0801 20.4569 90.0801 17.0558C90.0801 13.6547 92.0307 10.8037 95.6819 10.8037C98.1828 10.8037 100.133 12.1542 100.484 14.8551L99.0331 14.805Z" fill="#80889C"/>
	<path d="M113.188 17.0057C113.188 20.4069 111.237 23.2578 107.586 23.2578C103.935 23.2578 101.984 20.4069 101.984 17.0057C101.984 13.6046 103.935 10.7537 107.586 10.7537C111.237 10.7537 113.188 13.6046 113.188 17.0057ZM103.435 17.0057C103.435 19.5066 104.835 22.0574 107.586 22.0574C110.337 22.0574 111.738 19.5566 111.738 17.0057C111.738 14.5049 110.337 11.9541 107.586 11.9541C104.785 11.9541 103.435 14.5049 103.435 17.0057Z" fill="#80889C"/>
	<path d="M125.742 22.9077H124.391V20.6569H124.341C123.741 22.2075 121.84 23.2578 120.14 23.2578C116.538 23.2578 114.838 20.3568 114.838 17.0057C114.838 13.6546 116.538 10.7536 120.14 10.7536C121.89 10.7536 123.641 11.6539 124.241 13.3545H124.291V6.55225H125.742V22.9077ZM120.14 22.0574C123.191 22.0574 124.291 19.4565 124.291 17.0057C124.291 14.5549 123.191 11.954 120.14 11.954C117.389 11.954 116.238 14.5549 116.238 17.0057C116.288 19.4565 117.389 22.0574 120.14 22.0574Z" fill="#80889C"/>
	<path d="M129.343 17.4059C129.343 19.5066 130.443 22.0574 133.244 22.0574C135.345 22.0574 136.495 20.807 136.946 19.0064H138.396C137.796 21.7073 136.195 23.2578 133.244 23.2578C129.493 23.2578 127.893 20.3569 127.893 17.0057C127.893 13.9047 129.493 10.7537 133.244 10.7537C137.046 10.7537 138.546 14.0548 138.446 17.4059H129.343ZM136.996 16.1555C136.946 13.9547 135.595 11.9541 133.244 11.9541C130.894 11.9541 129.593 14.0047 129.343 16.1555H136.996Z" fill="#80889C"/>
	<path d="M143.648 16.7556L139.397 11.0537H141.198L144.549 15.5552L147.85 11.0537H149.65L145.399 16.7056L150.001 22.8576H148.2L144.499 17.856L140.847 22.8576H139.047L143.648 16.7556Z" fill="#80889C"/>
</svg>
