<svg width="219" height="34" viewBox="0 0 219 34" fill="none" xmlns="http://www.w3.org/2000/svg">
<g clip-path="url(#clip0_12099_81307)">
<path d="M76.1851 33.8462C76.1652 33.8317 76.1481 33.82 76.1252 33.8142C75.7688 33.669 75.5378 33.4017 75.4323 33.0385C75.3981 32.9165 75.4323 32.6696 75.4951 32.6434C75.6776 32.5737 75.9028 32.5592 75.9912 32.8293C76.2193 33.5063 76.8153 33.6283 77.4199 33.5295C78.1071 33.4162 78.4949 32.7422 78.3438 32.0856C77.9816 32.2309 77.6195 32.4662 77.2345 32.5156C76.131 32.6579 75.2869 31.9055 75.2242 30.7666C75.2042 30.4325 75.2242 30.0868 75.2926 29.7614C75.535 28.6226 76.6442 27.9805 77.725 28.3495C77.936 28.4221 78.1156 28.5964 78.3238 28.733C78.3466 28.6865 78.3609 28.6022 78.4094 28.5674C78.5348 28.486 78.6745 28.3814 78.8114 28.3785C78.8799 28.3785 79.0167 28.5732 79.0167 28.6778C79.0167 29.9473 79.0281 31.2198 78.9711 32.4865C78.9454 33.0647 78.6318 33.5121 78.1213 33.7881C78.0586 33.8229 77.9902 33.8491 77.9217 33.8665C76.7326 34.1716 76.1851 33.8433 76.1851 33.8433V33.8462ZM78.3865 30.3396C78.3865 30.3396 78.3637 30.3367 78.3495 30.3337C78.3495 30.2263 78.3523 30.1159 78.3495 30.0084C78.3238 29.3489 77.9132 28.8695 77.3058 28.7882C76.7212 28.7097 76.2251 29.0642 76.0283 29.7004C75.8715 30.2146 75.8886 30.726 76.0625 31.2286C76.2365 31.737 76.6613 32.0362 77.1718 32.0275C77.6794 32.0188 78.1042 31.7079 78.2525 31.1908C78.3295 30.9177 78.3438 30.6243 78.3865 30.3396Z" fill="#80889C"/>
<path d="M0 0.435547C0.342188 0.441357 0.687227 0.455884 1.02941 0.455884C5.31816 0.455884 9.60406 0.455884 13.8928 0.450073C14.2407 0.450073 14.332 0.557567 14.3234 0.912006C14.2977 1.80682 14.3234 2.70163 14.3263 3.59645C14.3263 3.73299 14.2977 3.86954 14.2806 4.00608C14.2407 4.0177 14.1979 4.02642 14.158 4.03804C14.0953 3.88987 14.0069 3.74461 13.9727 3.58773C13.8586 3.09965 13.7046 2.63772 13.3539 2.26294C13.0117 1.89688 12.6011 1.66737 12.0992 1.66156C10.8873 1.64703 9.67535 1.64703 8.46629 1.63541C8.28379 1.63541 8.2068 1.70223 8.2125 1.88817C8.2182 2.1293 8.2125 2.37334 8.2125 2.61448C8.2125 8.1199 8.20395 13.6253 8.2182 19.1308C8.2182 19.6421 8.30945 20.1621 8.42637 20.6647C8.52332 21.0744 8.78281 21.3968 9.2077 21.5392C9.28754 21.5653 9.35313 21.6351 9.42727 21.6874C9.41871 21.7193 9.41301 21.7542 9.40445 21.7861H4.75355C4.89328 21.6612 4.95031 21.5741 5.02445 21.5508C5.78582 21.3213 5.93695 20.6705 6.05957 20.0052C6.09094 19.8396 6.08523 19.6682 6.08523 19.4997C6.08523 13.666 6.08523 7.83519 6.08238 2.00147C6.08238 1.9056 6.08238 1.80972 6.08238 1.67608C5.96547 1.66446 5.86281 1.64703 5.76301 1.64703C4.75355 1.64703 3.7441 1.64703 2.73465 1.64703C1.40582 1.64703 0.63875 2.28037 0.390664 3.6255C0.345039 3.87825 0.233828 3.98284 0.00285156 3.99446V0.435547H0Z" fill="#80889C"/>
<path d="M219.001 21.7892C218.1 21.795 217.196 21.8067 216.295 21.8067C213.457 21.8125 210.617 21.8125 207.78 21.8183C207.306 21.8183 206.83 21.8473 206.357 21.8531C206.22 21.8531 206.083 21.8212 205.838 21.7921C206.015 21.6672 206.097 21.5771 206.2 21.5394C206.921 21.2808 207.181 20.6794 207.235 19.988C207.295 19.2413 207.281 18.4889 207.284 17.7393C207.292 12.7772 207.298 7.81794 207.295 2.8558C207.295 2.47521 207.235 2.083 207.132 1.71694C207.004 1.26373 206.748 0.886045 206.243 0.772741C206.146 0.749499 206.057 0.679773 205.961 0.537416C206.095 0.505459 206.229 0.444449 206.365 0.444449C207.649 0.441544 208.932 0.444449 210.212 0.453165C210.358 0.453165 210.5 0.502554 210.717 0.543227C210.6 0.633289 210.554 0.691394 210.494 0.711731C209.622 0.996444 209.451 1.74309 209.399 2.52169C209.354 3.20733 209.394 3.90168 209.394 4.59022C209.394 9.81675 209.402 15.0462 209.394 20.2727C209.394 20.569 209.471 20.6359 209.753 20.6359C211.855 20.6242 213.956 20.63 216.061 20.6271C217.427 20.6271 218.325 19.895 218.661 18.5325C218.733 18.2507 218.639 17.8759 219.009 17.719V21.7863L219.001 21.7892Z" fill="#80889C"/>
<path d="M146.693 33.8462C146.673 33.8317 146.656 33.82 146.633 33.8142C146.277 33.669 146.046 33.4017 145.94 33.0385C145.906 32.9165 145.94 32.6696 146.003 32.6434C146.185 32.5737 146.411 32.5592 146.499 32.8293C146.727 33.5063 147.323 33.6283 147.928 33.5295C148.615 33.4162 149.003 32.7422 148.852 32.0856C148.489 32.2309 148.127 32.4662 147.742 32.5156C146.639 32.6579 145.795 31.9055 145.732 30.7666C145.712 30.4325 145.732 30.0868 145.8 29.7614C146.043 28.6226 147.152 27.9805 148.233 28.3495C148.444 28.4221 148.623 28.5964 148.832 28.733C148.854 28.6865 148.869 28.6022 148.917 28.5674C149.043 28.486 149.182 28.3814 149.319 28.3785C149.388 28.3785 149.525 28.5732 149.525 28.6778C149.525 29.9473 149.536 31.2198 149.479 32.4865C149.453 33.0647 149.14 33.5121 148.629 33.7881C148.566 33.8229 148.498 33.8491 148.43 33.8665C147.24 34.1716 146.693 33.8433 146.693 33.8433V33.8462ZM148.894 30.3396C148.894 30.3396 148.872 30.3367 148.857 30.3337C148.857 30.2263 148.86 30.1159 148.857 30.0084C148.832 29.3489 148.421 28.8695 147.814 28.7882C147.229 28.7097 146.733 29.0642 146.536 29.7004C146.379 30.2146 146.396 30.726 146.57 31.2286C146.744 31.737 147.169 32.0362 147.68 32.0275C148.187 32.0188 148.612 31.7079 148.76 31.1908C148.837 30.9177 148.852 30.6243 148.894 30.3396Z" fill="#80889C"/>
<path d="M214.437 33.9913V33.5759C214.574 33.5556 214.703 33.5527 214.82 33.5178C215.344 33.3551 215.621 32.8176 215.427 32.2947C214.993 31.1326 214.546 29.9763 214.112 28.8142C214.061 28.6748 213.847 28.4598 214.121 28.3668C214.346 28.2913 214.634 28.2738 214.754 28.5934C214.845 28.8287 214.922 29.0699 214.999 29.311C215.216 29.9879 215.43 30.6648 215.646 31.3418C215.704 31.5219 215.772 31.6962 215.875 31.978C215.969 31.7165 216.026 31.5684 216.074 31.4144C216.354 30.5312 216.627 29.6451 216.91 28.7619C217.044 28.3465 217.223 28.2738 217.717 28.4423C217.568 28.8665 217.426 29.2965 217.269 29.7177C216.895 30.7084 216.502 31.6933 216.137 32.6898C215.946 33.2156 215.609 33.6224 215.219 33.9943H214.435L214.437 33.9913Z" fill="#80889C"/>
<path d="M174.659 0C173.809 0.0406733 172.957 0.0958729 172.107 0.11621C171.842 0.12202 171.577 0.0406733 171.309 0C172.426 0 173.541 0 174.659 0Z" fill="#80889C"/>
<path d="M172.887 0.203278C175.405 0.142268 177.715 0.763989 179.697 2.40254C182.021 4.32291 183.267 6.84175 183.575 9.85448C183.857 12.629 183.289 15.2059 181.69 17.4894C179.893 20.0519 177.415 21.5219 174.378 22.0129C171.94 22.4051 169.585 22.1117 167.403 20.8973C164.532 19.3023 162.81 16.7922 162.216 13.5528C161.475 9.50004 162.576 5.95274 165.464 3.0446C166.956 1.54259 168.778 0.630348 170.865 0.331109C171.532 0.235236 172.214 0.241046 172.89 0.200373L172.887 0.203278ZM181.496 11.5017C181.37 8.28565 180.25 5.55182 177.923 3.39613C175.168 0.848241 171.179 0.499613 168.27 2.63496C165.379 4.75869 164.073 7.76271 164.158 11.3507C164.218 13.7998 165.156 15.9671 166.705 17.8294C169.725 21.4667 173.902 21.9693 177.458 19.5173C180.215 17.6173 181.348 14.7789 181.496 11.4988V11.5017Z" fill="#80889C"/>
<path d="M159.682 21.8096H155.137C155.126 21.7806 155.114 21.7515 155.103 21.7225C155.177 21.6586 155.24 21.5627 155.325 21.5395C155.844 21.4 156.061 20.9933 156.195 20.5255C156.275 20.2379 156.343 19.9329 156.343 19.6365C156.355 16.8039 156.349 13.9742 156.349 11.1416C156.349 11.0835 156.338 11.0225 156.329 10.9324C156.238 10.9208 156.147 10.9034 156.058 10.9034C152.899 10.9034 149.739 10.9121 146.58 10.9034C146.257 10.9034 146.155 10.9818 146.157 11.3246C146.172 14.0468 146.157 16.772 146.172 19.4942C146.172 19.8748 146.257 20.2612 146.349 20.633C146.451 21.0485 146.682 21.3768 147.104 21.5307C147.195 21.5627 147.27 21.6528 147.329 21.798H142.781C142.884 21.6818 142.93 21.5714 143.004 21.5482C143.802 21.2722 143.948 20.5953 143.999 19.8718C144.027 19.4738 144.005 19.0729 144.005 18.6749C144.005 13.2886 144.01 7.90517 144.005 2.51886C144.005 2.17895 143.919 1.82742 143.814 1.49912C143.699 1.14469 143.466 0.871594 143.081 0.772815C142.984 0.746668 142.898 0.676943 142.807 0.537491C142.915 0.505534 143.026 0.447429 143.135 0.447429C144.407 0.444524 145.676 0.447429 146.947 0.453239C147.081 0.453239 147.215 0.502628 147.426 0.543302C147.301 0.636269 147.247 0.70309 147.178 0.720521C146.494 0.900646 146.331 1.47298 146.217 2.06565C146.172 2.30097 146.166 2.54792 146.166 2.78905C146.16 5.02899 146.166 7.26602 146.155 9.50596C146.155 9.75291 146.26 9.77905 146.46 9.77905C149.286 9.77324 152.114 9.77034 154.94 9.77034C155.32 9.77034 155.702 9.77905 156.081 9.79358C156.295 9.8023 156.369 9.71514 156.369 9.49434C156.358 7.1963 156.358 4.89535 156.34 2.5973C156.34 2.27773 156.272 1.94653 156.181 1.63858C156.055 1.22022 155.821 0.877404 155.362 0.7641C155.277 0.743763 155.203 0.676943 155.023 0.572354C155.228 0.511344 155.337 0.450334 155.445 0.450334C156.717 0.444524 157.986 0.447429 159.258 0.453239C159.392 0.453239 159.523 0.505534 159.722 0.546207C159.625 0.633364 159.591 0.688564 159.546 0.700185C158.713 0.938414 158.545 1.62986 158.488 2.36489C158.445 2.95465 158.462 3.55022 158.462 4.14289C158.462 9.21253 158.462 14.2851 158.476 19.3547C158.476 19.7237 158.528 20.1014 158.613 20.4616C158.727 20.9439 158.952 21.368 159.457 21.5511C159.5 21.5656 159.534 21.6063 159.568 21.6382C159.591 21.6615 159.608 21.6963 159.685 21.8096H159.682Z" fill="#80889C"/>
<path d="M186.264 0.563475C186.475 0.508276 186.6 0.447266 186.726 0.447266C188.745 0.447266 190.763 0.447266 192.782 0.464697C195.352 0.485034 197.687 1.23168 199.637 2.96901C202.332 5.37164 203.51 8.45991 203.236 12.0682C202.951 15.8537 201.14 18.7125 197.838 20.5225C196.087 21.4812 194.18 21.8356 192.206 21.8414C190.424 21.8473 188.642 21.8502 186.862 21.8502C186.7 21.8502 186.537 21.8298 186.286 21.8124C186.418 21.6875 186.469 21.5974 186.543 21.5713C187.316 21.3011 187.49 20.6416 187.561 19.9356C187.607 19.4795 187.601 19.0175 187.604 18.5585C187.607 13.3785 187.61 8.19844 187.604 3.0184C187.604 2.64653 187.57 2.26885 187.504 1.90279C187.404 1.35079 187.151 0.903388 186.563 0.746505C186.489 0.726168 186.426 0.665159 186.264 0.56638V0.563475ZM189.708 1.60646C189.708 2.31243 189.708 3.01259 189.708 3.70985C189.708 9.27628 189.703 14.8427 189.697 20.4092C189.697 20.598 189.7 20.7375 189.951 20.7345C191.399 20.7142 192.848 20.7171 194.262 20.3278C196.612 19.6799 198.585 18.4714 199.897 16.3186C201.003 14.5057 201.294 12.5098 201.029 10.4239C200.638 7.35302 199.201 4.91552 196.672 3.17819C194.573 1.73429 192.212 1.44376 189.706 1.60646H189.708Z" fill="#80889C"/>
<path d="M58.5575 21.7252C58.6288 21.6671 58.6886 21.5799 58.7685 21.5508C59.5897 21.2603 59.7152 20.5427 59.8007 19.8077C59.8321 19.5317 59.815 19.2528 59.815 18.9739C59.815 13.637 59.815 8.30296 59.8064 2.96604C59.8064 2.54768 59.7608 2.12061 59.6753 1.71097C59.5783 1.25195 59.3274 0.894601 58.8398 0.769676C58.7428 0.746434 58.6601 0.673803 58.4805 0.569215C58.6886 0.505299 58.8027 0.441384 58.9168 0.441384C61.1952 0.45591 63.4821 0.365848 65.7548 0.519826C70.0122 0.807444 73.1147 2.97766 74.6888 7.02756C76.3027 11.182 75.7068 15.0954 72.7269 18.4713C71.0131 20.412 68.7718 21.4259 66.2481 21.6903C64.8024 21.8414 63.3338 21.7775 61.8738 21.8065C60.9357 21.8268 59.9975 21.8414 59.0593 21.853C58.8996 21.853 58.7371 21.8327 58.5746 21.821C58.5689 21.7891 58.5603 21.7571 58.5546 21.7223L58.5575 21.7252ZM61.9309 20.6764C62.025 20.6967 62.0706 20.717 62.1162 20.717C63.6846 20.7345 65.2501 20.7083 66.7728 20.2493C68.9828 19.5811 70.842 18.4016 72.0938 16.3737C73.2801 14.4533 73.5652 12.3383 73.2173 10.1333C72.6813 6.74866 70.9418 4.21238 67.9448 2.62031C66.4164 1.80685 64.7653 1.52794 63.0515 1.58024C62.6865 1.59186 62.3244 1.58024 61.9309 1.58024V20.6764Z" fill="#80889C"/>
<path d="M20.9011 21.8095H16.3301C16.4698 21.6788 16.524 21.5887 16.601 21.5597C17.3766 21.2895 17.5534 20.6271 17.6019 19.9182C17.6532 19.221 17.6446 18.515 17.6475 17.8148C17.6504 12.9253 17.6532 8.03579 17.6475 3.14628C17.6475 2.70178 17.6104 2.24856 17.522 1.81568C17.4222 1.3276 17.1855 0.909245 16.6523 0.766889C16.5668 0.743647 16.4898 0.679732 16.3985 0.537375C16.5297 0.505417 16.6637 0.447312 16.7949 0.447312C18.0182 0.441502 19.2415 0.447312 20.4648 0.453123C20.6217 0.453123 20.7757 0.496702 21.0238 0.531564C20.8783 0.644869 20.8241 0.714594 20.7586 0.734931C20.1284 0.903435 19.9173 1.41476 19.8261 1.98128C19.7548 2.41997 19.7434 2.87319 19.7405 3.31769C19.7377 5.36298 19.7491 7.40826 19.7462 9.45355C19.7462 9.68887 19.7776 9.79346 20.0542 9.79056C23.1425 9.77313 26.2307 9.77313 29.3189 9.77022C29.5071 9.77022 29.6925 9.77022 29.9064 9.77022C29.9149 9.61043 29.9263 9.49422 29.9263 9.37801C29.9292 7.1526 29.9349 4.92428 29.9263 2.69887C29.9263 2.38801 29.875 2.07134 29.798 1.7692C29.6754 1.28112 29.4359 0.874382 28.9026 0.746552C28.8285 0.729121 28.7629 0.668111 28.6859 0.537375C28.8057 0.505417 28.9283 0.444407 29.048 0.444407C30.2942 0.441502 31.5432 0.444407 32.7893 0.456028C32.9376 0.456028 33.0859 0.499607 33.3054 0.53447C33.1942 0.630342 33.1457 0.705879 33.0802 0.726215C32.3188 0.941203 32.1734 1.58036 32.0793 2.23984C32.0365 2.53618 32.045 2.84413 32.045 3.14628C32.045 8.47158 32.0393 13.7969 32.0564 19.1222C32.0564 19.6335 32.1505 20.1535 32.2646 20.6532C32.353 21.0484 32.584 21.3796 32.9975 21.5277C33.0887 21.5597 33.1571 21.6526 33.2142 21.8037H28.6089C28.7629 21.6701 28.8285 21.5742 28.9169 21.5481C29.5613 21.3447 29.7695 20.813 29.8607 20.2204C29.9263 19.7933 29.9377 19.3546 29.9377 18.9188C29.9406 16.4377 29.9377 13.9567 29.932 11.4756C29.932 11.1037 29.7438 10.9178 29.3674 10.9178C27.5253 10.9178 25.6861 10.9178 23.8439 10.9178C22.5978 10.9178 21.3488 10.9236 20.1027 10.9062C19.8118 10.9033 19.7405 10.9991 19.7434 11.278C19.7548 14.0729 19.7434 16.8706 19.7634 19.6655C19.7634 20.0315 19.866 20.4063 19.9744 20.7607C20.0827 21.1123 20.2823 21.4115 20.6816 21.5103C20.7785 21.5335 20.8555 21.6439 20.9411 21.7137C20.9268 21.7456 20.9125 21.7776 20.9011 21.8124V21.8095Z" fill="#80889C"/>
<path d="M35.7909 21.7136C35.8621 21.6555 35.9249 21.5712 36.0047 21.5422C36.8288 21.2458 37.0284 20.5398 37.0598 19.7787C37.0997 18.788 37.0712 17.7944 37.0712 16.8008C37.0712 12.0682 37.0769 7.33554 37.0598 2.6029C37.0598 2.21941 36.9201 1.8272 36.7946 1.45533C36.6777 1.11252 36.4268 0.868476 36.0618 0.772603C35.9648 0.746456 35.8793 0.676731 35.7852 0.525658C35.922 0.496606 36.0561 0.441406 36.1929 0.441406C39.9827 0.441406 43.7724 0.447217 47.5621 0.450122C48.0583 0.450122 48.0554 0.447217 48.0611 0.944012C48.0697 1.64708 48.0811 2.34724 48.0896 3.05031C48.0896 3.13456 48.1039 3.22462 48.0782 3.30016C48.0554 3.36989 47.9927 3.46285 47.9357 3.47447C47.8843 3.48319 47.8045 3.39894 47.7617 3.33793C47.7218 3.28273 47.7161 3.20138 47.699 3.13166C47.4309 2.14388 46.815 1.60931 45.7998 1.59479C44.0433 1.56864 42.2839 1.58316 40.5245 1.58026C40.1908 1.58026 39.8572 1.59479 39.5264 1.57735C39.2783 1.56283 39.1985 1.64417 39.2013 1.90274C39.2099 4.23855 39.2013 6.57436 39.2013 8.91017C39.2013 9.18327 39.13 9.56095 39.2726 9.70331C39.4123 9.84566 39.783 9.7585 40.0511 9.7585C41.4655 9.76141 42.8798 9.75269 44.2914 9.76431C45.2238 9.77303 45.9054 9.43312 46.1934 8.46858C46.2219 8.3698 46.3217 8.29426 46.3873 8.20711C46.4186 8.21582 46.45 8.22744 46.4814 8.23616V12.3035C46.4443 12.3151 46.4101 12.3267 46.373 12.3384C46.3074 12.2251 46.219 12.1205 46.1762 11.9984C45.9225 11.2896 45.3978 10.9119 44.6906 10.8974C42.9454 10.8625 41.1974 10.8828 39.4523 10.8741C39.1985 10.8741 39.2042 11.0194 39.2013 11.2024C39.2013 12.9223 39.1928 14.6393 39.1899 16.3592C39.1899 17.7014 39.1985 19.0466 39.1899 20.3888C39.1899 20.6299 39.2327 20.7287 39.5007 20.7258C41.628 20.7083 43.7524 20.7083 45.8797 20.6967C47.1714 20.688 47.9841 20.0779 48.4005 18.8199C48.4917 18.5439 48.5773 18.265 48.6657 17.989C48.7084 17.9919 48.7484 17.9949 48.7911 17.9978C48.8139 18.1023 48.8567 18.2069 48.8596 18.3115C48.8681 19.401 48.8681 20.4905 48.8795 21.5799C48.8795 21.8414 48.717 21.8269 48.543 21.824C47.3311 21.8123 46.1192 21.7949 44.9073 21.7978C42.0215 21.8065 39.1329 21.8269 36.2471 21.8385C36.0988 21.8385 35.9477 21.8123 35.7994 21.8007C35.7966 21.7688 35.7909 21.7368 35.788 21.7048L35.7909 21.7136Z" fill="#80889C"/>
<path d="M95.0911 21.8065C94.9543 21.8211 94.8174 21.8501 94.6805 21.8501C93.3745 21.8559 92.0685 21.8559 90.7625 21.8559C90.714 21.8559 90.6627 21.8676 90.6199 21.8501C90.54 21.8211 90.463 21.7775 90.3861 21.7397C90.4488 21.6642 90.4944 21.548 90.5714 21.5189C91.3356 21.2516 91.4668 21.0338 91.1845 20.2435C90.2748 17.6898 89.3452 15.1419 88.4128 12.5969C88.3757 12.4982 88.216 12.382 88.1105 12.3791C86.4366 12.3645 84.7599 12.3703 83.0861 12.3703C82.895 12.3703 82.7667 12.4168 82.6897 12.6376C81.8371 15.0577 80.9702 17.4748 80.1119 19.892C80.0406 20.0954 79.975 20.3074 79.9408 20.5195C79.8666 20.9669 80.0577 21.2894 80.4655 21.4753C80.5938 21.5335 80.7107 21.6235 80.8333 21.6961C80.8219 21.731 80.8105 21.7688 80.7991 21.8036H77.2518L77.209 21.7252C77.2945 21.6555 77.3715 21.548 77.4685 21.5189C77.939 21.3824 78.2755 21.0686 78.4637 20.6445C78.8771 19.7119 79.2707 18.7648 79.6243 17.806C81.723 12.1466 83.8075 6.48142 85.8948 0.819108C85.969 0.621552 86.0403 0.42109 86.1372 0.153809C86.2228 0.304881 86.2798 0.380417 86.3112 0.464669C88.6466 6.88234 90.9792 13.3029 93.3203 19.7206C93.46 20.1041 93.6482 20.4701 93.8507 20.8217C94.056 21.179 94.3725 21.4056 94.7803 21.4986C94.9029 21.5276 95.0113 21.6119 95.1253 21.6729C95.1139 21.7165 95.1025 21.7601 95.0911 21.8036V21.8065ZM87.9879 11.2489C87.1837 9.01479 86.3882 6.80971 85.5555 4.50295C84.7228 6.8039 83.9273 9.00607 83.1174 11.2489H87.985H87.9879Z" fill="#80889C"/>
<path d="M125.554 10.2731C125.633 10.1656 125.713 10.0842 125.767 9.98543C127.162 7.5247 128.556 5.06396 129.948 2.60322C130.065 2.39404 130.179 2.17906 130.27 1.95826C130.458 1.49342 130.339 1.14189 129.922 0.8717C129.805 0.796164 129.694 0.711912 129.477 0.560839C129.703 0.50564 129.825 0.447535 129.948 0.447535C130.838 0.44463 131.73 0.447535 132.62 0.459156C132.768 0.459156 132.919 0.499829 133.159 0.534692C133.016 0.650902 132.951 0.732248 132.865 0.770017C132.349 0.99372 131.984 1.39755 131.704 1.86239C130.915 3.18136 130.148 4.51777 129.383 5.85418C128.399 7.57699 127.421 9.30561 126.455 11.04C126.349 11.2289 126.275 11.47 126.275 11.685C126.264 14.2387 126.249 16.7924 126.281 19.3461C126.286 19.8632 126.426 20.3949 126.609 20.8801C126.706 21.1357 127.025 21.3071 127.247 21.5076C127.327 21.5802 127.424 21.6354 127.516 21.6994C127.507 21.7313 127.498 21.7633 127.487 21.7952H122.916L122.779 21.6238C122.873 21.5977 122.967 21.5744 123.061 21.5454C123.908 21.2955 124.028 20.5721 124.125 19.8371C124.142 19.718 124.134 19.596 124.134 19.4739C124.134 16.9696 124.136 14.4624 124.128 11.9581C124.128 11.7634 124.074 11.5455 123.977 11.3799C122.348 8.51248 120.717 5.64791 119.072 2.79206C118.821 2.35628 118.51 1.95245 118.208 1.55153C117.929 1.18256 117.592 0.880416 117.13 0.761301C117.036 0.738059 116.953 0.662523 116.854 0.607323C117.084 0.406862 120.906 0.38943 121.359 0.578271C121.271 0.656712 121.205 0.732248 121.125 0.790353C120.638 1.15351 120.581 1.38302 120.877 1.9234C121.37 2.81821 121.875 3.71012 122.371 4.60203C123.404 6.45266 124.436 8.30039 125.465 10.151C125.482 10.1801 125.505 10.2033 125.554 10.2672V10.2731Z" fill="#80889C"/>
<path d="M109.401 0.54015C109.301 0.636023 109.273 0.685412 109.233 0.697033C108.28 1.00789 108.144 1.80974 108.089 2.66097C108.075 2.90211 108.084 3.14615 108.084 3.38728C108.084 9.04959 108.081 14.7148 108.078 20.3771C108.078 20.4468 108.087 20.5166 108.092 20.627H108.491C110.63 20.627 112.769 20.6153 114.905 20.6328C115.948 20.6415 116.644 20.136 117.058 19.2092C117.226 18.8286 117.289 18.4016 117.417 18.0006C117.454 17.8902 117.557 17.8002 117.628 17.7014L117.736 17.7595V21.8007H104.673C104.665 21.7745 104.656 21.7455 104.65 21.7193C104.719 21.6641 104.779 21.5799 104.856 21.5537C105.666 21.2777 105.877 20.6037 105.942 19.8484C105.979 19.4271 105.954 19.0029 105.954 18.5788C105.954 13.3639 105.962 8.14606 105.945 2.93116C105.945 2.44889 105.834 1.9521 105.697 1.48726C105.594 1.13863 105.34 0.862631 104.95 0.775474C104.853 0.755137 104.767 0.682506 104.676 0.537244C104.799 0.505287 104.921 0.444277 105.044 0.441372C106.35 0.435561 107.656 0.441372 108.965 0.447182C109.087 0.447182 109.21 0.496571 109.407 0.537244L109.401 0.54015Z" fill="#80889C"/>
<path d="M97.0642 0.592841C97.3351 0.404 101.322 0.395285 101.732 0.584125C101.658 0.639325 101.604 0.706145 101.533 0.729387C100.78 0.970522 100.6 1.60967 100.52 2.28659C100.466 2.75143 100.489 3.2308 100.489 3.70145C100.489 8.82048 100.483 13.9424 100.5 19.0614C100.5 19.5989 100.592 20.1422 100.706 20.668C100.791 21.0661 101.034 21.3885 101.453 21.5251C101.553 21.557 101.63 21.6616 101.692 21.8127H96.9844C97.1355 21.682 97.1982 21.589 97.2809 21.5599C98.0708 21.2927 98.2847 20.6303 98.3075 19.904C98.3503 18.6111 98.3389 17.3154 98.3389 16.0197C98.3446 11.6996 98.3446 7.37657 98.3446 3.05648C98.3446 2.70785 98.3275 2.35342 98.2676 2.0106C98.1621 1.40921 97.9026 0.909512 97.2581 0.741008C97.2125 0.729387 97.1726 0.69743 97.1355 0.671282C97.1156 0.659661 97.1041 0.63642 97.0699 0.598651L97.0642 0.592841Z" fill="#80889C"/>
<path d="M6.06895 31.5739C6.06895 31.3879 6.06895 31.1991 6.06895 31.0132C6.05469 29.8511 6.04328 28.689 6.02047 27.5298C6.01477 27.2509 6.12027 27.1231 6.38832 27.1318C6.58223 27.1376 6.69344 27.2218 6.69344 27.4426C6.69344 29.0144 6.69344 30.589 6.69629 32.1607C6.69629 32.3612 6.60789 32.4309 6.41684 32.4425C5.72676 32.489 5.72961 32.4919 5.40453 31.8673C4.76578 30.6384 4.12418 29.4153 3.48258 28.1893C3.44836 28.1225 3.39418 28.0673 3.28297 28.0237C3.28297 28.1254 3.28297 28.2241 3.28297 28.3258C3.28867 29.5722 3.29152 30.8185 3.30578 32.0649C3.30863 32.3641 3.20598 32.4803 2.90941 32.4571C2.71551 32.4425 2.63281 32.3786 2.63281 32.1753C2.63852 30.589 2.63852 29.0057 2.63281 27.4194C2.63281 27.1957 2.72406 27.1289 2.92652 27.1114C3.37707 27.0737 3.68219 27.1812 3.91031 27.6518C4.52625 28.9185 5.20777 30.1503 5.86648 31.3938C5.90355 31.4635 5.95488 31.5216 6.00051 31.5855C6.02332 31.5797 6.04613 31.5768 6.06895 31.571V31.5739Z" fill="#80889C"/>
<path d="M208.954 29.0061C209.382 28.2914 209.949 28.0764 210.605 28.3321C211.115 28.5326 211.329 28.9567 211.346 29.468C211.375 30.3745 211.358 31.2809 211.361 32.1903C211.361 32.4343 211.224 32.4575 211.033 32.4459C210.85 32.4343 210.716 32.4227 210.716 32.1728C210.713 31.3013 210.705 30.4326 210.668 29.561C210.648 29.0758 210.431 28.8638 210.006 28.8144C209.567 28.7621 209.259 28.9364 209.165 29.4012C209.065 29.8806 209.045 30.3803 209.017 30.8713C208.994 31.2809 209 31.6935 209.017 32.106C209.028 32.3646 208.925 32.4459 208.689 32.4517C208.452 32.4546 208.341 32.3762 208.347 32.1176C208.361 31.4901 208.361 30.8597 208.358 30.2292C208.358 29.9765 208.344 29.7208 208.315 29.471C208.267 29.0381 208.087 28.8725 207.648 28.8115C207.277 28.7621 206.983 28.9044 206.867 29.2792C206.764 29.6075 206.704 29.959 206.687 30.3048C206.653 30.8945 206.658 31.4901 206.664 32.0828C206.664 32.3239 206.59 32.4401 206.339 32.443C206.082 32.4459 206.017 32.3268 206.017 32.0886C206.017 31.0253 206 29.959 206.008 28.8957C206.008 28.7185 206.065 28.457 206.185 28.3873C206.427 28.2449 206.627 28.4105 206.747 28.7446C207.049 28.2856 207.465 28.2275 207.916 28.2595C208.389 28.2914 208.68 28.6052 208.954 29.009V29.0061Z" fill="#80889C"/>
<path d="M135.008 29.7932C135.008 29.0436 135.022 28.2941 135.002 27.5445C134.994 27.1988 135.122 27.0971 135.439 27.1203C136.123 27.1697 136.819 27.1436 137.495 27.2511C138.424 27.3992 139.017 27.9832 139.231 28.9361C139.382 29.613 139.362 30.2812 139.106 30.9291C138.746 31.8384 138.054 32.312 137.118 32.3963C136.528 32.4485 135.932 32.4253 135.339 32.4485C135.094 32.4602 135.005 32.3701 135.008 32.1144C135.019 31.3417 135.014 30.566 135.014 29.7932C135.014 29.7932 135.011 29.7932 135.008 29.7932ZM135.672 29.7641C135.672 30.1273 135.672 30.4875 135.672 30.8507C135.672 31.5557 136.024 31.9053 136.728 31.8995C137.714 31.8907 138.336 31.3852 138.524 30.3974C138.59 30.0575 138.61 29.7002 138.578 29.3545C138.49 28.3754 137.928 27.7595 137.064 27.6752C136.699 27.6404 136.331 27.6694 135.963 27.6578C135.724 27.6491 135.664 27.7595 135.67 27.989C135.684 28.5817 135.675 29.1714 135.675 29.7641H135.672Z" fill="#80889C"/>
<path d="M18.4405 29.038C18.2865 29.6016 18.1553 30.0722 18.0327 30.5458C17.8987 31.06 17.7561 31.5713 17.6477 32.0914C17.5821 32.4109 17.3797 32.44 17.123 32.4516C16.8664 32.4632 16.7523 32.3645 16.6753 32.1059C16.3474 30.9961 15.9881 29.895 15.6545 28.7881C15.6146 28.6574 15.6089 28.4162 15.6773 28.3727C15.8997 28.2303 16.2761 28.3959 16.3389 28.6283C16.6012 29.619 16.855 30.6126 17.1145 31.6062C17.1202 31.6294 17.1316 31.6498 17.1744 31.766C17.2599 31.5336 17.3398 31.3709 17.3825 31.1965C17.5821 30.4005 17.7789 29.6045 17.9642 28.8055C18.0355 28.5063 18.1753 28.3552 18.5032 28.3697C18.7712 28.3814 18.8996 28.4685 18.9623 28.7445C19.1933 29.7294 19.4499 30.7085 19.775 31.7166C19.8605 31.4551 19.9603 31.1995 20.0288 30.9351C20.2141 30.2117 20.3795 29.4825 20.5677 28.7561C20.6732 28.3436 20.8643 28.2681 21.3234 28.454C21.2179 28.8259 21.1238 29.2094 21.004 29.5841C20.7331 30.4354 20.4366 31.275 20.1771 32.1291C20.083 32.4371 19.8805 32.4167 19.6524 32.4255C19.4043 32.4342 19.3016 32.3267 19.2475 32.0826C19.0364 31.1297 18.8026 30.1797 18.5745 29.2297C18.5659 29.1977 18.5346 29.1716 18.4376 29.0409L18.4405 29.038Z" fill="#80889C"/>
<path d="M48.5742 31.8326C48.0353 32.5676 47.3737 32.646 46.6466 32.4514C46.5125 32.4165 46.3728 32.3584 46.2616 32.2742C45.4517 31.6612 45.3263 30.8041 45.486 29.8744C45.6257 29.0668 46.0876 28.5206 46.8832 28.3172C47.502 28.1604 48.0809 28.2417 48.5999 28.8198C48.5999 28.1807 48.6084 27.6432 48.597 27.1087C48.5913 26.8123 48.7139 26.731 48.9848 26.7658C49.173 26.7891 49.2557 26.8617 49.2557 27.0622C49.2443 28.7414 49.2415 30.4206 49.2244 32.0999C49.2244 32.2161 49.1274 32.3817 49.0333 32.4311C48.9449 32.4746 48.751 32.4223 48.6883 32.3439C48.6113 32.248 48.6255 32.0795 48.5771 31.8384L48.5742 31.8326ZM46.139 30.4177C46.1817 30.6647 46.1989 30.9087 46.2644 31.1382C46.4298 31.7135 46.849 32.033 47.3794 32.0243C47.944 32.0156 48.386 31.696 48.4915 31.0976C48.5714 30.656 48.5828 30.1795 48.5172 29.735C48.4288 29.1365 47.9668 28.8053 47.3794 28.7908C46.8348 28.7763 46.4099 29.1133 46.253 29.7059C46.1932 29.9384 46.1732 30.1795 46.1361 30.4148L46.139 30.4177Z" fill="#80889C"/>
<path d="M174.281 29.7959C174.281 29.0202 174.29 28.2474 174.276 27.4717C174.27 27.2132 174.373 27.1202 174.604 27.1231C175.53 27.1376 176.457 27.1464 177.381 27.1783C177.481 27.1812 177.575 27.3236 177.672 27.3991C177.566 27.4776 177.461 27.6228 177.352 27.6286C176.654 27.6519 175.952 27.6461 175.251 27.6402C175.023 27.6402 174.934 27.7245 174.943 27.9627C174.96 28.3607 174.96 28.7617 174.943 29.1597C174.931 29.4241 175.017 29.5257 175.285 29.5199C175.89 29.5083 176.497 29.517 177.102 29.5345C177.21 29.5374 177.384 29.6071 177.412 29.6913C177.495 29.9238 177.39 30.0458 177.127 30.0429C176.523 30.0371 175.915 30.0603 175.311 30.0516C175.037 30.0487 174.923 30.1242 174.949 30.4235C174.977 30.7605 174.969 31.1033 174.943 31.4403C174.917 31.7773 175.011 31.9139 175.373 31.8993C176.049 31.8703 176.728 31.8877 177.404 31.908C177.512 31.9109 177.675 32.0097 177.715 32.1085C177.783 32.2712 177.715 32.4194 177.498 32.4223C176.5 32.431 175.502 32.4368 174.504 32.4455C174.276 32.4455 174.281 32.2915 174.281 32.123C174.284 31.3473 174.281 30.5745 174.281 29.7988C174.281 29.7988 174.278 29.7988 174.276 29.7988L174.281 29.7959Z" fill="#80889C"/>
<path d="M10.3007 30.6386C10.2579 31.5915 10.9024 32.19 11.7094 31.9692C12.0174 31.885 12.217 31.6903 12.3481 31.3911C12.3966 31.2778 12.5164 31.1558 12.6276 31.1238C12.7502 31.0889 12.947 31.1064 13.024 31.1877C13.0838 31.2516 13.0354 31.4608 12.9812 31.5799C12.6675 32.283 12.0829 32.5387 11.3672 32.5416C10.5745 32.5445 10.007 32.1726 9.7304 31.4405C9.47376 30.7607 9.47376 30.0663 9.75607 29.3894C10.0868 28.5933 10.8568 28.1547 11.7122 28.2621C12.4508 28.3551 12.9698 28.91 13.1209 29.7729C13.2663 30.6067 13.2435 30.6299 12.4194 30.6096C11.7921 30.5951 11.1619 30.6009 10.5317 30.6009C10.4518 30.6009 10.3749 30.627 10.2979 30.6386H10.3007ZM12.4879 30.0576C12.4251 29.1628 11.9717 28.7008 11.2902 28.7967C10.6714 28.8839 10.2494 29.4649 10.3577 30.0983C11.0136 30.0983 11.6752 30.0983 12.3339 30.0983C12.3795 30.0983 12.4223 30.075 12.4879 30.0576Z" fill="#80889C"/>
<path d="M125.868 30.6649C125.933 31.766 126.703 32.3267 127.501 31.8793C127.647 31.798 127.784 31.6556 127.866 31.5045C128.095 31.0891 128.146 31.0542 128.648 31.1791C128.614 31.888 127.981 32.4691 127.179 32.533C126.05 32.623 125.326 32.0158 125.175 30.8567C125.069 30.0345 125.189 29.2675 125.828 28.7039C126.378 28.2187 127.042 28.1025 127.727 28.3901C128.445 28.6923 128.662 29.3372 128.73 30.0577C128.779 30.5719 128.753 30.5894 128.26 30.5894C127.618 30.5894 126.977 30.5894 126.338 30.601C126.178 30.601 126.019 30.6388 125.865 30.6591L125.868 30.6649ZM128.072 30.0868C128.023 29.3459 127.772 28.9392 127.305 28.8317C126.503 28.6487 126.076 29.1106 125.89 29.834C125.842 30.0258 125.899 30.1333 126.127 30.1071C126.364 30.0839 126.6 30.0868 126.837 30.0839C127.248 30.081 127.658 30.0839 128.072 30.0839V30.0868Z" fill="#80889C"/>
<path d="M119.62 28.9596C120.11 28.2333 120.72 28.1606 121.379 28.3175C121.958 28.4541 122.294 28.8434 122.317 29.4448C122.351 30.3628 122.331 31.2838 122.34 32.2018C122.34 32.4691 122.166 32.4401 121.998 32.443C121.812 32.4459 121.681 32.411 121.684 32.1641C121.696 31.522 121.69 30.8828 121.684 30.2408C121.684 30.049 121.681 29.8544 121.659 29.6626C121.593 29.1136 121.422 28.8986 121.023 28.8288C120.492 28.7359 120.042 28.9131 119.871 29.3808C119.731 29.7585 119.665 30.174 119.634 30.5778C119.594 31.0949 119.617 31.6179 119.628 32.1379C119.634 32.3965 119.517 32.4662 119.277 32.4633C119.049 32.4604 118.961 32.379 118.961 32.1437C118.969 30.4645 118.967 28.7824 118.972 27.1031C118.972 26.9317 118.944 26.74 119.232 26.7342C119.52 26.7284 119.637 26.8126 119.625 27.1235C119.605 27.6958 119.62 28.2681 119.62 28.9654V28.9596Z" fill="#80889C"/>
<path d="M82.8326 28.9537C83.3031 28.2419 83.9133 28.1606 84.5749 28.3088C85.1737 28.4424 85.5245 28.8753 85.5359 29.4941C85.5558 30.3773 85.5359 31.2605 85.5473 32.1408C85.5501 32.4342 85.379 32.4342 85.1794 32.4429C84.957 32.4545 84.8943 32.3441 84.8943 32.135C84.9 31.458 84.9 30.7811 84.8943 30.1042C84.8943 29.9473 84.8857 29.7904 84.8629 29.6335C84.7888 29.1048 84.6234 28.8956 84.2413 28.823C83.728 28.7271 83.2803 28.8898 83.1035 29.3372C82.9524 29.7207 82.8782 30.1478 82.844 30.5632C82.8012 31.0804 82.8269 31.6033 82.8355 32.1233C82.8383 32.379 82.7271 32.4545 82.4876 32.4545C82.2594 32.4545 82.171 32.3761 82.1739 32.1379C82.1824 30.4586 82.1824 28.7765 82.1853 27.0973C82.1853 26.8968 82.1853 26.7167 82.479 26.7254C82.7413 26.7341 82.8383 26.8213 82.8355 27.0857C82.824 27.6725 82.8326 28.2565 82.8326 28.9508V28.9537Z" fill="#80889C"/>
<path d="M101.8 32.5357C100.565 32.5357 99.8097 31.7106 99.8125 30.3655C99.8125 29.0901 100.6 28.2534 101.791 28.2505C102.995 28.2505 103.785 29.0959 103.788 30.3946C103.79 31.699 103.015 32.5357 101.8 32.5357ZM103.055 30.38C103.043 30.258 103.038 30.0866 103.012 29.921C102.904 29.2412 102.473 28.817 101.86 28.788C101.255 28.7589 100.811 29.1075 100.628 29.7728C100.485 30.2871 100.5 30.8042 100.714 31.2981C101.013 31.9953 101.823 32.2394 102.447 31.8268C102.944 31.4956 103.026 30.9727 103.058 30.3829L103.055 30.38Z" fill="#80889C"/>
<path d="M33.7421 29.6161H33.1746C33.0891 29.1948 33.2687 28.8956 33.5539 28.6574C34.0729 28.2245 34.6717 28.149 35.2991 28.3436C35.7867 28.4947 36.0376 28.8753 36.0547 29.3779C36.0918 30.3075 36.1003 31.2401 36.1003 32.1727C36.1003 32.2686 35.9435 32.4458 35.8694 32.44C35.7353 32.4313 35.6042 32.3209 35.4844 32.2337C35.453 32.2134 35.4644 32.1291 35.4416 31.9781C35.0595 32.5097 34.5691 32.5707 34.0472 32.5359C33.4855 32.4981 33.0606 32.164 32.9494 31.6672C32.8239 31.1094 33.015 30.54 33.5282 30.3163C33.9531 30.1303 34.4379 30.0897 34.897 29.9851C35.108 29.9357 35.4074 30.0461 35.4274 29.6655C35.4502 29.2181 35.2563 28.8753 34.9084 28.8346C34.1556 28.7474 33.9645 28.8346 33.745 29.619L33.7421 29.6161ZM34.877 30.4499C34.6033 30.5167 34.321 30.5516 34.0615 30.6562C33.7421 30.7869 33.6109 31.0687 33.6509 31.4173C33.6908 31.7602 33.8961 31.949 34.224 32.01C34.8342 32.1291 35.2734 31.7921 35.3903 31.1123C35.4901 30.5371 35.4473 30.4848 34.877 30.4499Z" fill="#80889C"/>
<path d="M163.186 31.9778C162.761 32.5967 162.197 32.5908 161.635 32.5095C161.15 32.4398 160.817 32.1347 160.702 31.6321C160.588 31.1266 160.777 30.5775 161.227 30.3509C161.589 30.1708 162.008 30.101 162.408 30.0023C162.567 29.9616 162.739 29.9703 162.904 29.9616C163.109 29.95 163.189 29.8454 163.189 29.6362C163.189 29.1685 163.007 28.8838 162.65 28.8198C162.077 28.7182 161.769 28.875 161.598 29.3544C161.569 29.4328 161.544 29.5142 161.504 29.6333C161.413 29.6333 161.31 29.6362 161.207 29.6333C161.116 29.6304 161.022 29.6188 160.936 29.6101C160.874 29.0435 161.207 28.5322 161.815 28.3637C162.137 28.2737 162.499 28.2475 162.833 28.2882C163.434 28.3608 163.794 28.7792 163.816 29.3893C163.851 30.3073 163.865 31.2283 163.871 32.1463C163.871 32.248 163.739 32.4427 163.694 32.434C163.54 32.4078 163.392 32.3177 163.252 32.2364C163.218 32.2161 163.223 32.1318 163.186 31.9749V31.9778ZM163.189 30.746C163.166 30.7141 163.081 30.5107 163.009 30.5136C162.602 30.5368 162.182 30.5601 161.797 30.6792C161.49 30.7722 161.373 31.0917 161.413 31.42C161.452 31.757 161.658 31.9546 161.989 32.0156C162.684 32.1434 163.175 31.6757 163.189 30.7489V30.746Z" fill="#80889C"/>
<path d="M188.222 32.5388C187.013 32.5243 186.246 31.6934 186.252 30.4122C186.261 29.0699 187.033 28.2448 188.271 28.2565C189.471 28.2681 190.241 29.1309 190.224 30.4441C190.207 31.7369 189.426 32.5533 188.222 32.5388ZM186.934 30.4238C187.016 30.7346 187.068 31.0571 187.187 31.3535C187.367 31.8038 187.749 31.9984 188.208 32.0158C188.639 32.0333 189.004 31.8648 189.226 31.4726C189.583 30.8421 189.588 30.1855 189.326 29.5232C189.129 29.0293 188.75 28.7997 188.24 28.7968C187.738 28.791 187.361 29.0264 187.173 29.497C187.059 29.7817 187.019 30.0984 186.939 30.4267L186.934 30.4238Z" fill="#80889C"/>
<path d="M203.186 30.4294C203.186 32.2567 201.675 32.8901 200.374 32.3817C199.579 32.0708 199.293 31.3736 199.228 30.5688C199.1 28.9738 200.346 27.9047 201.828 28.3318C202.687 28.5787 203.194 29.3602 203.189 30.4323L203.186 30.4294ZM202.547 30.4235C202.524 30.4148 202.501 30.4032 202.479 30.3945C202.462 30.2376 202.456 30.0807 202.427 29.9267C202.405 29.796 202.367 29.6682 202.319 29.5462C202.114 29.0436 201.714 28.7792 201.178 28.7879C200.656 28.7966 200.283 29.0552 200.095 29.5694C199.875 30.1708 199.869 30.7809 200.155 31.3619C200.551 32.1667 201.697 32.2684 202.151 31.5217C202.347 31.1963 202.419 30.7925 202.544 30.4235H202.547Z" fill="#80889C"/>
<path d="M60.3679 28.9418C60.7243 28.2795 61.2775 28.2243 61.8507 28.2707C62.5236 28.323 62.9942 28.8431 63.0084 29.5519C63.0227 30.3974 63.0027 31.2428 63.0141 32.0911C63.017 32.3758 62.8715 32.4339 62.6406 32.4514C62.3754 32.4688 62.3583 32.3032 62.3611 32.1027C62.3611 31.4374 62.364 30.7721 62.3611 30.1098C62.3611 29.9412 62.3411 29.7727 62.3297 29.6042C62.3012 29.2498 62.1644 28.9535 61.8079 28.8634C61.4058 28.7617 61.0066 28.7559 60.6986 29.1307C60.3878 29.5084 60.3308 29.9645 60.3137 30.4235C60.2909 30.9552 60.3051 31.4868 60.308 32.0185C60.308 32.2654 60.3165 32.4659 59.9686 32.4659C59.6407 32.4659 59.6008 32.3119 59.6037 32.0417C59.6122 30.9668 59.6065 29.8919 59.6037 28.814C59.6037 28.5874 59.5922 28.3695 59.9059 28.355C60.1768 28.3434 60.2994 28.4683 60.2937 28.7414C60.2937 28.7821 60.3222 28.8256 60.3679 28.9477V28.9418Z" fill="#80889C"/>
<path d="M39.9701 28.9364C40.3864 28.2653 40.971 28.1839 41.5983 28.2943C42.1686 28.3931 42.5907 28.8579 42.6106 29.4448C42.642 30.3512 42.6277 31.2577 42.6363 32.1641C42.6363 32.414 42.4994 32.4575 42.2913 32.4575C42.0717 32.4575 41.9633 32.3965 41.9633 32.1496C41.9633 31.3158 41.9633 30.482 41.9348 29.6482C41.9148 29.1485 41.7124 28.9102 41.3331 28.826C40.8084 28.7098 40.3664 28.8579 40.1868 29.3053C40.0414 29.6656 39.9587 30.0665 39.9273 30.4558C39.8845 30.9962 39.9045 31.5424 39.9188 32.0857C39.9245 32.3646 39.7876 32.4401 39.548 32.443C39.2857 32.4488 39.2344 32.3006 39.2344 32.0711C39.2401 30.9846 39.2372 29.8951 39.2372 28.8086C39.2372 28.5994 39.2087 28.3728 39.5081 28.3582C39.7705 28.3466 39.8988 28.4948 39.9188 28.7534C39.9216 28.7882 39.9359 28.8231 39.9701 28.9364Z" fill="#80889C"/>
<path d="M193.804 28.965C194.143 28.2533 194.713 28.2155 195.292 28.2765C195.783 28.3288 196.159 28.5932 196.33 29.0929C196.367 29.2062 196.399 29.3253 196.399 29.4444C196.407 30.3276 196.401 31.2108 196.41 32.0911C196.41 32.3293 196.336 32.4484 196.085 32.4484C195.831 32.4484 195.76 32.3264 195.763 32.0882C195.768 31.327 195.774 30.5629 195.757 29.8018C195.74 29.0725 195.381 28.7472 194.702 28.8024C194.331 28.8314 194.052 29.0319 193.946 29.3718C193.821 29.7814 193.744 30.2143 193.71 30.6414C193.67 31.1353 193.692 31.6321 193.701 32.1289C193.704 32.3845 193.601 32.4542 193.356 32.4484C193.125 32.4426 193.048 32.3758 193.051 32.1347C193.062 30.9987 193.051 29.8599 193.065 28.7239C193.065 28.6048 193.211 28.3811 193.253 28.3898C193.402 28.4189 193.547 28.5147 193.667 28.6164C193.732 28.6716 193.741 28.7965 193.801 28.9592L193.804 28.965Z" fill="#80889C"/>
<path d="M25.2309 32.5299C24.6293 32.5561 24.1274 32.3614 23.8308 31.7949C23.7453 31.6322 23.5542 31.3969 23.8023 31.2604C24.0162 31.1412 24.25 31.2226 24.4011 31.4812C24.6863 31.9721 25.077 32.1494 25.5646 31.9605C25.7442 31.8908 25.9524 31.6874 25.9923 31.5073C26.0265 31.3475 25.8925 31.0802 25.7499 30.9669C25.5532 30.81 25.2794 30.7519 25.0427 30.6473C24.7832 30.534 24.5038 30.4469 24.2728 30.29C23.7082 29.9123 23.6597 29.1424 24.1445 28.6631C24.8175 27.9978 26.0522 28.1547 26.4856 28.9739C26.5712 29.1366 26.748 29.34 26.517 29.5172C26.3316 29.6596 26.0208 29.5405 25.9039 29.2819C25.7556 28.9594 25.5075 28.8141 25.1768 28.788C24.8431 28.7648 24.5808 28.9333 24.5181 29.2151C24.4439 29.5521 24.5865 29.7874 24.8859 29.9094C25.1939 30.0343 25.519 30.1099 25.8269 30.2348C26.2119 30.3888 26.5512 30.6096 26.6681 31.0541C26.8677 31.8123 26.3801 32.4341 25.519 32.527C25.4249 32.5358 25.3279 32.527 25.2338 32.527L25.2309 32.5299Z" fill="#80889C"/>
<path d="M67.3565 32.533C66.7377 32.533 66.1931 32.3732 65.9279 31.7399C65.868 31.5946 65.8766 31.2663 65.9165 31.2547C66.1389 31.1908 66.3727 31.1704 66.521 31.4551C66.7862 31.9606 67.1512 32.1088 67.6674 31.9897C67.9326 31.9287 68.0951 31.7747 68.135 31.5103C68.1749 31.246 68.0694 31.0252 67.827 30.9119C67.559 30.7869 67.2767 30.6969 67.0001 30.5894C66.5495 30.4151 66.1047 30.2378 65.9792 29.6858C65.8965 29.3198 65.9792 28.9886 66.2131 28.7039C66.695 28.1228 68.1322 27.9718 68.6169 29.0031C68.6854 29.1484 68.7082 29.4069 68.6283 29.5115C68.5057 29.6742 68.1322 29.5261 68.0152 29.3053C67.7871 28.8724 67.5419 28.7445 67.0942 28.8027C66.8033 28.8404 66.6037 29.0176 66.6037 29.2849C66.6037 29.4767 66.732 29.744 66.886 29.8427C67.137 30.0054 67.4563 30.0664 67.7472 30.1623C68.4145 30.3773 68.8251 30.8508 68.8137 31.4057C68.8023 32.0333 68.3289 32.472 67.6018 32.533C67.5191 32.5388 67.4364 32.533 67.3537 32.533H67.3565Z" fill="#80889C"/>
<path d="M183.789 31.1996C183.606 31.5191 183.501 31.7893 183.324 32.0043C182.691 32.7742 180.96 32.8178 180.461 31.6063C180.082 30.6824 180.07 29.7615 180.7 28.9306C181.131 28.3641 181.744 28.1839 182.42 28.2798C183.013 28.367 183.449 28.7098 183.652 29.2966C183.695 29.4216 183.66 29.6917 183.606 29.7092C183.387 29.7731 183.141 29.8167 183.019 29.5C182.808 28.948 182.56 28.7708 182.083 28.7882C181.57 28.8056 181.228 29.0671 181.063 29.5901C180.889 30.1362 180.897 30.6882 181.063 31.2315C181.199 31.6673 181.476 31.9724 181.941 32.0159C182.397 32.0595 182.762 31.8852 182.947 31.4378C183.104 31.063 183.381 31.1502 183.78 31.1996H183.789Z" fill="#80889C"/>
<path d="M95.9377 30.6675C95.9377 30.1853 95.9377 29.7001 95.9377 29.2178C95.9377 29.0522 95.932 28.907 95.7096 28.8837C95.6326 28.875 95.4957 28.753 95.5043 28.7065C95.5242 28.6048 95.6069 28.4537 95.6868 28.4334C95.9605 28.3724 95.9605 28.1952 95.9605 27.9744C95.9605 27.7594 95.9748 27.5357 96.0318 27.3323C96.1715 26.8239 96.759 26.5014 97.2437 26.6728C97.3464 26.7106 97.4291 26.8704 97.469 26.9924C97.4804 27.0331 97.3321 27.1667 97.2409 27.1929C96.6421 27.3498 96.5765 27.4369 96.5679 28.0674C96.5651 28.323 96.662 28.4189 96.9044 28.4044C97.0099 28.3956 97.1354 28.3724 97.2181 28.4189C97.3008 28.4625 97.3863 28.5816 97.392 28.6745C97.3977 28.7443 97.2979 28.8547 97.2209 28.8924C97.1439 28.9302 97.0356 28.9099 96.9415 28.8983C96.682 28.8721 96.5879 28.9796 96.5907 29.2498C96.6021 30.1911 96.5907 31.1324 96.5964 32.0766C96.5964 32.3351 96.5137 32.4543 96.2485 32.4514C96.0347 32.4514 95.9491 32.3729 95.952 32.155C95.9605 31.6611 95.952 31.1643 95.952 30.6704C95.9463 30.6704 95.9434 30.6704 95.9377 30.6704V30.6675Z" fill="#80889C"/>
<path d="M114.676 30.4617C114.676 30.052 114.664 29.6395 114.681 29.2298C114.69 29.0032 114.636 28.8986 114.393 28.887C114.305 28.8812 114.222 28.7476 114.137 28.672C114.217 28.582 114.291 28.4222 114.373 28.4164C114.707 28.4018 114.71 28.2101 114.707 27.9515C114.707 27.7917 114.741 27.5564 114.847 27.4867C115.095 27.3211 115.329 27.4925 115.34 27.8034C115.34 27.876 115.346 27.9486 115.337 28.0213C115.297 28.3263 115.423 28.4425 115.719 28.4047C115.902 28.3815 116.087 28.3786 116.09 28.6517C116.093 28.9335 115.899 28.9219 115.719 28.9015C115.411 28.8667 115.334 29.009 115.343 29.2996C115.36 29.9881 115.349 30.6766 115.351 31.3652C115.351 31.7051 115.42 31.9898 115.842 32.016C115.916 32.0218 116.047 32.167 116.039 32.2339C116.027 32.3181 115.913 32.4285 115.822 32.4576C115.155 32.6609 114.727 32.3588 114.693 31.6557C114.673 31.2577 114.69 30.8597 114.69 30.4588C114.684 30.4588 114.679 30.4588 114.673 30.4588L114.676 30.4617Z" fill="#80889C"/>
<path d="M157.406 28.9014C157.386 29.0089 157.357 29.0874 157.357 29.1687C157.352 29.9183 157.355 30.6678 157.349 31.4174C157.349 31.734 157.44 31.949 157.791 31.9984C157.894 32.0129 157.976 32.1466 158.07 32.225C157.968 32.3064 157.874 32.44 157.762 32.4603C157.067 32.5795 156.724 32.2947 156.707 31.5742C156.69 30.8014 156.693 30.0287 156.699 29.253C156.699 29.0234 156.659 28.8869 156.391 28.8869C156.302 28.8869 156.137 28.7562 156.143 28.7068C156.16 28.5993 156.262 28.4192 156.334 28.4192C156.742 28.4133 156.707 28.149 156.69 27.873C156.676 27.6318 156.667 27.3965 157.015 27.4081C157.212 27.4139 157.338 27.4749 157.335 27.6987C157.335 27.7829 157.355 27.8701 157.34 27.9514C157.286 28.3058 157.434 28.4279 157.777 28.4075C157.876 28.4017 157.985 28.5325 158.087 28.6022C158.016 28.701 157.962 28.852 157.868 28.8869C157.734 28.9363 157.568 28.8985 157.403 28.8985L157.406 28.9014Z" fill="#80889C"/>
<path d="M89.6618 32.4775C89.0687 32.4601 88.8492 32.2451 88.8377 31.635C88.8206 30.8622 88.8206 30.0894 88.8206 29.3166C88.8206 29.0813 88.8206 28.8837 88.4984 28.8867C88.4186 28.8867 88.2646 28.7356 88.276 28.6862C88.2988 28.5816 88.4072 28.4218 88.487 28.416C88.8092 28.3957 88.832 28.2184 88.8178 27.9512C88.8092 27.7885 88.8349 27.559 88.9376 27.466C89.1571 27.2713 89.4537 27.4544 89.4708 27.7623C89.4765 27.8698 89.4822 27.9802 89.4708 28.0877C89.4394 28.4073 89.6504 28.4073 89.8615 28.3957C90.0468 28.384 90.2008 28.4073 90.2093 28.6397C90.2208 28.9099 90.0383 28.9215 89.8501 28.8983C89.5535 28.8576 89.4565 28.9796 89.4651 29.2818C89.4822 30.0052 89.4708 30.7315 89.4708 31.4549C89.4708 31.7193 89.5392 31.9168 89.8415 31.9865C89.967 32.0156 90.0639 32.1696 90.1751 32.2654C90.0383 32.3352 89.9014 32.4078 89.7645 32.4746C89.736 32.4891 89.6932 32.4746 89.659 32.4746L89.6618 32.4775Z" fill="#80889C"/>
<path d="M168.204 32.257C167.591 32.6812 167.018 32.4284 167.004 31.7224C166.97 30.1739 166.981 28.6254 166.967 27.0799C166.967 26.7835 167.144 26.798 167.346 26.7922C167.566 26.7835 167.668 26.8503 167.665 27.0973C167.657 28.4627 167.668 29.8311 167.657 31.1966C167.654 31.5714 167.614 31.9287 168.065 32.074C168.119 32.0914 168.147 32.1785 168.204 32.257Z" fill="#80889C"/>
<path d="M56.4232 27.1813C56.4346 27.2685 56.4517 27.3498 56.4517 27.4311C56.4517 28.968 56.4517 30.5049 56.4517 32.0389C56.4517 32.2538 56.4317 32.4165 56.1665 32.4427C55.9185 32.4659 55.7816 32.4049 55.7873 32.1202C55.7987 31.5043 55.7958 30.8855 55.7958 30.2696C55.7958 29.4096 55.8015 28.5526 55.7901 27.6926C55.7816 27.0767 55.773 27.0738 56.4232 27.1842V27.1813Z" fill="#80889C"/>
<path d="M107.344 28.7647C107.615 28.5933 107.843 28.4161 108.097 28.3057C108.168 28.2737 108.382 28.4045 108.422 28.5062C108.49 28.6776 108.416 28.8083 108.185 28.8403C107.601 28.9216 107.321 29.186 107.284 29.7757C107.241 30.5224 107.264 31.2719 107.264 32.0215C107.264 32.4282 107.219 32.4689 106.848 32.4369C106.651 32.4195 106.594 32.3294 106.594 32.1348C106.603 31.0337 106.594 29.9355 106.6 28.8344C106.6 28.6572 106.537 28.4219 106.814 28.3667C107.059 28.3173 107.187 28.448 107.264 28.6688C107.284 28.7269 107.347 28.7705 107.341 28.7647H107.344Z" fill="#80889C"/>
<path d="M153.403 30.3973C153.403 30.9522 153.397 31.5071 153.406 32.062C153.411 32.3496 153.269 32.4426 153.012 32.4455C152.747 32.4455 152.71 32.2828 152.713 32.062C152.713 30.9406 152.718 29.8162 152.701 28.6948C152.698 28.4043 152.838 28.3433 153.066 28.3404C153.303 28.3375 153.403 28.4479 153.397 28.6948C153.386 29.2613 153.394 29.8279 153.394 30.3973H153.4H153.403Z" fill="#80889C"/>
<path d="M142.193 30.3596C142.193 29.7931 142.202 29.2266 142.188 28.6601C142.182 28.4364 142.273 28.3434 142.476 28.3521C142.664 28.3579 142.861 28.3463 142.858 28.6456C142.849 29.8164 142.849 30.9872 142.858 32.158C142.858 32.4224 142.707 32.4427 142.513 32.4514C142.288 32.463 142.191 32.373 142.193 32.1376C142.202 31.5479 142.193 30.9552 142.193 30.3655C142.193 30.3655 142.191 30.3655 142.188 30.3655L142.193 30.3596Z" fill="#80889C"/>
<path d="M72.3192 30.4297C72.3192 30.9846 72.3135 31.5424 72.3192 32.0973C72.3221 32.3646 72.208 32.4517 71.9542 32.4546C71.6776 32.4604 71.6491 32.3181 71.6491 32.0915C71.6548 30.9788 71.6491 29.8661 71.6491 28.7534C71.6491 28.5471 71.6206 28.3408 71.94 28.3321C72.265 28.3205 72.3107 28.4919 72.305 28.7592C72.2964 29.3141 72.3021 29.8719 72.3021 30.4268H72.3164L72.3192 30.4297Z" fill="#80889C"/>
<path d="M71.5771 27.4226C71.5942 27.1524 71.7795 27.042 72.002 27.0391C72.2671 27.0362 72.3555 27.2396 72.3527 27.4807C72.3527 27.7218 72.2215 27.8671 71.982 27.87C71.7025 27.87 71.597 27.687 71.5742 27.4255L71.5771 27.4226Z" fill="#80889C"/>
<path d="M142.087 27.3937C142.224 27.2833 142.352 27.1031 142.503 27.0741C142.731 27.0334 142.951 27.1961 142.905 27.4431C142.88 27.5941 142.68 27.7917 142.535 27.8178C142.406 27.8411 142.241 27.6522 142.093 27.5593C142.093 27.5041 142.087 27.4489 142.084 27.3937H142.087Z" fill="#80889C"/>
<path d="M153.5 27.5212C153.346 27.6345 153.192 27.835 153.038 27.8321C152.913 27.8321 152.713 27.5967 152.696 27.4486C152.682 27.3353 152.896 27.0825 153.01 27.0825C153.172 27.0825 153.335 27.2539 153.497 27.3498C153.497 27.4079 153.497 27.4631 153.5 27.5212Z" fill="#80889C"/>
</g>
<defs>
<clipPath id="clip0_12099_81307">
<rect width="219" height="34" fill="white"/>
</clipPath>
</defs>
</svg>
