<svg width="206" height="41" viewBox="0 0 206 41" fill="none" xmlns="http://www.w3.org/2000/svg">
<path fill-rule="evenodd" clip-rule="evenodd" d="M18.0133 3.9558L18.2366 0H0V2.64072L0.698248 2.72192C1.4196 2.80615 2.13967 2.89022 2.90722 2.97429V27.2695C2.02929 27.4086 1.20653 27.5476 0.328588 27.7143V30.3829H18.6473L18.5574 28.2126L18.5421 27.7814L18.4959 26.5748L18.433 24.8982L18.3457 22.7664C17.7103 22.7391 17.0955 22.7184 16.4846 22.6978C15.8543 22.6765 15.2292 22.6557 14.5888 22.6275L14.4322 24.0195C14.2936 25.2349 14.16 26.4117 14.0407 27.6031H8.44572V16.1227H10.8318C11.0244 16.9566 11.2439 17.7906 11.4621 18.5411H13.9033V11.0914H11.4082C11.2156 11.9252 11.0244 12.7035 10.8318 13.482H8.41877V2.66859H13.9855L14.2319 7.19962C14.8378 7.22684 15.4231 7.24733 16.0046 7.26783C16.609 7.28913 17.2098 7.31027 17.8246 7.33861L18.0133 3.9558ZM83.1173 40.2693L83.0903 40.6681H92.1675L92.1919 40.3309L92.2329 39.6523L92.2663 39.1083L92.3035 38.5834C91.5771 38.4254 90.9495 38.2926 90.3269 38.1611L90.2204 38.1385V29.9938C90.291 30.0079 90.3475 30.0222 90.3963 30.0365L90.522 30.0772C91.5308 30.5437 92.5731 30.7085 93.6512 30.699L93.962 30.6914C94.0878 30.6867 94.2147 30.6797 94.3431 30.6707L94.4702 30.6609C97.131 30.4386 99.0499 29.1043 100.119 26.6024C100.449 25.7686 100.695 24.9068 100.86 24.0173C101.326 21.6268 101.299 19.2082 101.107 16.8177C101.024 15.6503 100.778 14.455 100.449 13.3429C99.6814 10.8412 98.1733 9.08992 95.4302 8.81191C93.2367 8.58964 91.3166 9.20105 89.8366 10.9245C89.7545 11.0079 89.671 11.0635 89.5889 11.1469C89.4348 10.6031 89.2963 10.0863 89.1512 9.5492L88.9586 8.83977C86.8742 9.14548 84.8731 9.42349 82.8708 9.70149V11.8696C83.6665 12.0086 84.4341 12.1199 85.1747 12.2311V38.1385C84.8052 38.2322 84.4444 38.3171 84.0825 38.3982C83.8001 38.4614 83.5164 38.5224 83.2277 38.5834C83.1994 38.911 83.1801 39.2387 83.1596 39.5762L83.1558 39.6401L83.1518 39.6939L83.1173 40.2693ZM94.9914 27.2975C93.3741 27.8534 91.8106 27.8256 90.1921 27.1306V26.5191V14.3716C90.1921 13.2595 90.8776 12.4257 91.9749 12.2032C92.0263 12.2032 92.0713 12.1973 92.1136 12.188C92.1624 12.1774 92.206 12.1625 92.2496 12.1477C94.0595 11.8419 95.2378 12.5368 95.7871 14.2881C96.0335 15.0943 96.1978 15.9559 96.253 16.79C96.4173 19.2916 96.4725 21.7934 96.1157 24.2674C96.0066 25.0736 95.7588 25.8797 95.5676 26.6859C95.4854 26.9915 95.3211 27.1864 94.9914 27.2975ZM152.098 27.9905C152.423 28.0578 152.742 28.1224 153.073 28.1869L153.055 28.5912L153.018 29.2851C152.997 29.6464 152.977 30.0077 152.963 30.3829H145.97L145.968 30.274L145.957 30.1469C145.951 30.0702 145.943 29.9938 145.943 29.9103C145.943 27.5104 145.951 25.1106 145.953 22.7106C145.956 20.4129 145.956 18.1147 145.943 15.817C145.943 15.1775 145.806 14.5382 145.613 13.9266C145.395 13.2039 144.791 12.7869 144.051 12.6202C143.338 12.4534 142.625 12.5089 141.967 12.7869L141.868 12.8323L141.753 12.8936C141.671 12.9395 141.594 12.9906 141.52 13.0467C141.354 13.1733 141.212 13.3256 141.109 13.5035C141.057 13.5923 141.015 13.6872 140.985 13.7886C140.946 13.9171 140.925 14.0559 140.925 14.2047V27.5476C140.925 27.5785 140.934 27.6009 140.944 27.6337C140.955 27.6598 140.967 27.6929 140.98 27.7422C141.609 27.8811 142.268 28.0202 143.035 28.1591C143.007 28.5414 142.986 28.9237 142.963 29.3142C142.945 29.6621 142.924 30.0163 142.899 30.3829H133.905V28.1869C134.589 28.0479 135.22 27.9088 135.905 27.7422V12.4534L135.634 12.4229C134.978 12.3493 134.302 12.2732 133.602 12.1753V9.92378C135.55 9.64576 137.497 9.36776 139.526 9.06204C139.65 9.49042 139.761 9.9188 139.869 10.3323L139.873 10.3491L140.047 11.0079C140.17 10.9134 140.298 10.8122 140.428 10.7081C140.754 10.4447 141.099 10.1629 141.473 9.92378C143.419 8.6729 145.531 8.45048 147.697 9.22892C149.507 9.89607 150.467 11.3415 150.769 13.2317C150.812 13.5106 150.841 13.7896 150.857 14.0685C150.873 14.3179 150.879 14.567 150.879 14.8162V26.9081C150.915 27.1107 150.927 27.2888 150.931 27.4667C150.933 27.5575 150.933 27.6483 150.933 27.7422C151.343 27.8315 151.725 27.9129 152.098 27.9905ZM28.8258 28.0203L28.2688 27.9061L27.4499 27.7422L27.4281 27.5023C27.4166 27.3402 27.405 27.1785 27.3678 26.9915V24.4898L27.3703 22.3626L27.3729 20.9931C27.3794 18.7782 27.3857 16.5669 27.3678 14.3436C27.3678 14.1122 27.4101 13.9152 27.4896 13.7285C27.5539 13.5788 27.6424 13.4358 27.7516 13.2873C28.4099 12.4812 29.3149 12.4535 30.1915 12.5368C31.4264 12.6481 32.1386 13.3986 32.3312 14.6216C32.4133 15.1498 32.4685 15.6779 32.4685 16.2061V29.549V30.3552H39.4882V29.2154C39.4882 29.0991 39.4908 28.9824 39.496 28.8658C39.4998 28.7631 39.5049 28.6602 39.5126 28.5574L39.5204 28.4475L39.5434 28.1313C39.1738 28.0618 38.8234 27.9922 38.473 27.9228C38.1239 27.8533 37.7747 27.7839 37.4038 27.7145V26.8804V14.7327C37.4038 14.1769 37.3768 13.5931 37.2664 13.0649C36.8557 10.9802 35.6762 9.53462 33.5929 9.03435C31.2069 8.45063 29.0132 8.92305 27.1213 10.5632C27.0276 10.6447 26.9339 10.733 26.8428 10.818C26.7478 10.9069 26.6554 10.9924 26.572 11.0635C26.3807 10.3686 26.2164 9.7292 26.0239 9.06204C23.9677 9.36792 22.0205 9.64592 20.0734 9.92378V12.1755L21.7073 12.3541L22.3491 12.4256C22.5134 13.2039 22.4595 27.2418 22.3221 27.7422C21.6906 27.8811 21.0604 28.0202 20.402 28.1591L20.3751 28.7872L20.3442 29.3326L20.3147 29.8777L20.2929 30.3552H29.3688C29.424 29.6047 29.4522 28.9098 29.5061 28.1591L28.8258 28.0203ZM183.047 11.8975L182.613 11.853L182.002 11.7953L181.846 11.7809C181.484 11.7479 181.12 11.7146 180.743 11.6751V9.70149L182.521 9.49891L183.774 9.35286L186.061 9.08831L187.542 8.92305L187.658 9.27616L187.662 9.29393C187.792 9.68964 187.917 10.0732 188.003 10.4647C188.041 10.6401 188.073 10.817 188.093 10.9975C188.11 11.1466 188.119 11.2979 188.119 11.4526C188.101 14.9017 188.107 18.3508 188.114 21.7915C188.116 23.5086 188.119 25.2238 188.119 26.9361V27.77C188.859 27.9091 189.517 28.0479 190.23 28.2147C190.189 28.5899 190.155 28.9514 190.121 29.3128L190.059 29.9628L190.01 30.4108H184.171L184.006 29.9001C183.884 29.525 183.754 29.133 183.621 28.715C183.431 28.854 183.293 28.9653 183.156 29.0765C180.769 31.2725 177.562 31.0501 175.533 30.0493C173.942 29.2711 173.091 27.9367 172.817 26.2133C172.777 26.0038 172.748 25.7904 172.725 25.5745C172.691 25.2175 172.681 24.8537 172.681 24.4898V12.8148V11.9531L171.153 11.788L170.377 11.7029V9.7292C172.006 9.54568 173.635 9.3471 175.299 9.14452L177.123 8.92305C177.314 9.70149 177.644 10.3963 177.644 11.2025V23.4336C177.644 23.5694 177.646 23.7052 177.65 23.8409L177.655 23.9817L177.665 24.2017C177.68 24.5016 177.708 24.8015 177.753 25.1014C177.946 26.6024 178.905 27.492 180.385 27.5197C180.907 27.5197 181.428 27.4364 181.949 27.2975C182.497 27.1584 183.211 26.1854 183.211 25.6296V12.1477C183.128 12.0642 183.101 12.0086 183.047 11.8975ZM72.9709 25.7129C72.0659 24.3509 71.7926 22.822 71.7926 21.0983C75.2748 21.0429 78.6479 21.0152 82.1032 20.9872C82.1546 20.8219 82.2201 20.6568 82.2842 20.4915C82.4267 20.1286 82.5692 19.7657 82.5692 19.4029C82.5692 17.8184 82.4049 16.2338 81.9659 14.6772C81.5269 13.1484 80.8967 11.7583 79.7724 10.6465C77.8521 8.78405 75.5495 8.47834 73.0811 9.00649C70.4756 9.56233 68.7761 11.2025 67.6788 13.5931C66.9933 15.0663 66.6634 16.5952 66.5274 18.2075C66.3079 20.8205 66.5543 23.3779 67.6788 25.7963C68.6928 27.9922 70.2291 29.6323 72.5871 30.3274C75.4121 31.1612 78.0716 30.6888 80.595 29.2987C80.8582 29.1738 81.0892 29.0033 81.3216 28.8309C81.4512 28.7348 81.5821 28.6379 81.7195 28.5483C81.4178 27.8533 81.1431 27.214 80.8684 26.5746C80.7272 26.6226 80.6117 26.6613 80.5077 26.7016C80.432 26.7311 80.3628 26.7616 80.2934 26.797C79.0317 27.3252 77.743 27.6031 76.3721 27.5753C74.9179 27.5476 73.7935 26.9081 72.9709 25.7129ZM77.987 17.5988C78.0036 17.8341 78.0215 18.0806 78.0447 18.3466C75.905 18.4577 73.8487 18.5411 71.7926 18.6244C71.7643 18.4577 71.7104 18.3466 71.7104 18.2075C71.7926 16.3728 72.1211 14.5938 72.8066 12.8704C73.0259 12.3699 73.3545 12.0642 73.8757 11.8973C75.1927 11.4805 76.2067 11.8418 76.8921 13.0649C77.1141 13.4552 77.2873 13.8593 77.426 14.2733C77.5787 14.7308 77.6891 15.2003 77.7726 15.6772C77.8278 15.9987 77.8714 16.3238 77.9073 16.6508C77.9394 16.9594 77.9625 17.2679 77.987 17.5988ZM163.458 21.0387C162.017 21.0565 160.581 21.075 159.134 21.0983C159.094 21.4602 159.098 21.8091 159.13 22.1511C159.164 22.5188 159.228 22.8788 159.298 23.2388C159.49 24.2951 159.874 25.2681 160.587 26.102C161.381 27.0472 162.37 27.5197 163.576 27.5476C164.892 27.6031 166.154 27.353 167.388 26.8526C167.635 26.7415 167.881 26.6581 168.209 26.5468C168.484 27.1861 168.759 27.8254 169.061 28.5483C169.003 28.5922 168.945 28.6284 168.887 28.6648C168.835 28.6978 168.784 28.7311 168.731 28.7706C166.537 30.3274 164.069 30.9388 161.465 30.633C158.229 30.2718 156.062 28.3535 154.883 25.3516C153.374 21.4877 153.429 17.5681 154.992 13.7042C156.007 11.2302 157.761 9.53462 160.423 8.95092C162.506 8.50605 164.508 8.64504 166.318 9.8959C167.607 10.7855 168.402 12.0919 168.95 13.5375C169.664 15.4 169.938 17.3459 169.884 19.3194C169.855 19.8754 169.609 20.4036 169.445 20.9594C167.694 20.9871 165.977 21.008 164.271 21.0286L163.458 21.0387ZM165.331 18.3466C165.276 16.901 165.111 15.5389 164.701 14.2324C164.482 13.5652 164.179 12.9815 163.74 12.4255C162.918 11.3692 160.423 11.5638 160.039 13.0371C159.95 13.3816 159.851 13.7263 159.753 14.0723C159.644 14.4523 159.534 14.8338 159.437 15.2188C159.323 15.6715 159.224 16.1294 159.161 16.5952C159.119 16.9261 159.065 17.2502 159.039 17.5845C159.01 17.9239 159.009 18.274 159.078 18.6522C160.176 18.5938 161.258 18.5428 162.35 18.4917C163.33 18.4456 164.319 18.3992 165.331 18.3466ZM122.442 21.0986C125.87 21.043 129.27 21.0152 132.753 20.9595C132.918 20.4314 133.219 19.8754 133.219 19.3473C133.219 17.2347 132.944 15.1777 132.121 13.2318C131.492 11.7306 130.587 10.4519 129.134 9.64576C126.939 8.42277 124.636 8.53391 122.387 9.42349C120.467 10.2018 119.207 11.7029 118.356 13.5654C117.615 15.1498 117.287 16.8455 117.177 18.5967C116.985 21.1818 117.313 23.7116 118.493 26.0743C119.644 28.3815 121.427 29.9938 123.978 30.4942C126.692 31.0501 129.298 30.5219 131.656 29.0209C131.794 28.9273 131.924 28.8251 132.055 28.724C132.158 28.6448 132.26 28.5661 132.37 28.4927L131.863 27.325L131.518 26.519C131.217 26.6581 130.97 26.7415 130.724 26.8526C129.462 27.3808 128.174 27.6031 126.83 27.5476C126.585 27.5419 126.348 27.5158 126.121 27.4697C125.695 27.3841 125.301 27.2291 124.94 27.0081C124.563 26.7771 124.223 26.4739 123.922 26.1022C122.744 24.6845 122.469 22.9888 122.442 21.0986ZM128.578 17.1472C128.596 17.3607 128.611 17.5778 128.627 17.8023L128.666 18.3466C127.688 18.3975 126.727 18.4425 125.762 18.4869C124.618 18.5398 123.468 18.592 122.277 18.6522C122.3 18.3896 122.318 18.1503 122.335 17.9231C122.359 17.5971 122.382 17.2955 122.414 16.9844C122.607 15.5112 122.908 14.0656 123.512 12.7036C123.603 12.5027 123.72 12.3446 123.867 12.22C123.937 12.1611 124.012 12.1097 124.096 12.0647C124.154 12.0338 124.215 12.0059 124.279 11.9808C125.678 11.4249 126.803 11.7862 127.542 13.1204C128.118 14.1491 128.365 15.2888 128.502 16.4285C128.534 16.6664 128.559 16.9044 128.578 17.1472ZM58.2177 9.06204C58.382 9.70133 58.5193 10.3129 58.6836 10.9522C58.7915 10.892 58.898 10.8265 59.0046 10.7603L59.0547 10.7283L59.2279 10.622L59.4243 10.5075C60.8786 9.64576 62.4406 9.25662 64.1144 9.06204C64.9089 8.97862 65.4851 9.22876 65.9511 9.92378C65.7585 11.7583 65.5403 13.6486 65.3208 15.5945L64.8845 15.5744L64.0347 15.5401L63.6561 15.5256L62.8744 15.4957L61.9477 15.4554C61.8103 14.4269 61.7012 13.4541 61.591 12.4255C60.7682 12.4811 60.0827 12.7314 59.4525 13.1761V27.7699C59.9249 27.8851 60.3844 27.9869 60.867 28.0938L60.89 28.0986L61.5358 28.2424C61.5088 28.9651 61.4536 29.6323 61.4267 30.3829H52.4598V28.2704C53.09 28.1035 53.7202 27.9367 54.3235 27.7977V12.4811C53.5842 12.3978 52.8975 12.3144 52.1581 12.2309V9.97933C53.7214 9.71511 55.3029 9.48578 56.9291 9.24973L58.2177 9.06204ZM191.574 28.2424C191.519 28.9374 191.492 29.6323 191.464 30.3829C194.508 30.3829 197.469 30.3829 200.541 30.2994L200.566 29.9531L200.611 29.2292L200.63 28.8889L200.679 28.159L199.868 27.9731C199.428 27.8713 199.006 27.7734 198.594 27.6864V12.9815L199.129 12.7869L199.877 12.5179C200.147 12.4223 200.421 12.3265 200.705 12.2309L200.851 13.4466C200.929 14.1 201.004 14.7308 201.089 15.3721C201.634 15.399 202.173 15.4194 202.711 15.4397L202.762 15.4415L202.8 15.443C203.343 15.4636 203.886 15.484 204.435 15.5111C204.655 13.5652 204.874 11.6751 205.066 9.8682C204.573 9.11762 203.941 8.86748 203.147 9.03418C202.877 9.09039 202.607 9.13972 202.339 9.18872C201.679 9.30931 201.027 9.42845 200.404 9.64576C199.886 9.82064 199.387 10.0591 198.894 10.3039C198.526 10.4873 198.163 10.6744 197.798 10.8411C197.662 10.3129 197.524 9.70133 197.36 9.06204C196.177 9.24045 195.002 9.4094 193.815 9.57434L192.722 9.72487L191.245 9.92378V11.0635V12.1753C192.04 12.2865 192.752 12.3699 193.438 12.4534V27.7699L192.773 27.9373C192.371 28.0375 191.983 28.1341 191.574 28.2424ZM111.366 12.5978L110.861 12.7869L110.047 13.0926V27.7699C110.76 27.9367 111.445 28.0757 112.159 28.2424L111.994 30.3829H103.028V28.2704L104.92 27.7699V12.4534L102.726 12.2032V9.95164C104.727 9.67363 106.701 9.39563 108.813 9.08975C108.901 9.415 108.996 9.74024 109.091 10.0655L109.162 10.3095C109.221 10.5145 109.278 10.7195 109.334 10.9245C109.937 10.6188 110.486 10.2852 111.09 10.0072C112.186 9.47906 113.392 9.28449 114.599 9.08975C114.986 9.03562 115.336 9.0542 115.651 9.17447C115.982 9.30066 116.279 9.53926 116.546 9.92378C116.355 11.7306 116.135 13.6208 115.943 15.5945C115.4 15.5811 114.863 15.5612 114.324 15.5412L114.301 15.5402C113.731 15.5189 113.157 15.4974 112.569 15.4834C112.484 14.7965 112.408 14.1543 112.329 13.4863L112.186 12.2865L111.366 12.5978ZM46.7275 9.34006V5.03147C45.5492 5.08704 44.4517 5.1426 43.3003 5.19817C42.9166 6.56033 42.5046 7.92233 42.1208 9.25662C41.5561 9.29026 41.0209 9.31379 40.492 9.33941C40.148 9.35608 39.8065 9.37368 39.4613 9.39563C39.4434 9.98222 39.4164 10.5259 39.3907 11.0601C39.3753 11.3867 39.3612 11.7097 39.351 12.0365C40.1736 12.1753 40.9143 12.2866 41.7101 12.4256C41.7371 12.6758 41.764 12.9259 41.764 13.1761V25.6852C41.764 26.1022 41.764 26.519 41.8192 26.9361C42.0387 28.9374 43.3273 30.2718 45.2745 30.6054C46.5632 30.8277 47.8249 30.7443 49.0866 30.4942C49.6617 30.3829 50.238 30.2718 50.786 29.9103C50.7411 29.5128 50.7038 29.1153 50.6666 28.7088C50.6359 28.376 50.6051 28.037 50.5678 27.6866C50.0942 27.6866 49.6514 27.6972 49.2214 27.6988C48.9544 27.6997 48.6913 27.6972 48.4281 27.6866C47.5784 27.6588 46.9751 27.1029 46.8647 26.2412C46.8378 25.9632 46.8378 25.6852 46.8378 25.4072C46.8108 21.2652 46.8108 17.1234 46.8108 12.9815C46.8108 12.7869 46.8378 12.6202 46.8647 12.4256C47.9892 12.2866 49.0584 12.1753 50.2109 12.0365L50.2726 11.3718C50.3342 10.7102 50.3959 10.0485 50.4574 9.34006H46.7275Z" fill="#80889C"/>
</svg>
