<svg width="195" height="46" viewBox="0 0 195 46" fill="none" xmlns="http://www.w3.org/2000/svg">
<path fill-rule="evenodd" clip-rule="evenodd" d="M27.7512 33.6768C25.0239 36.5016 20.351 38.4053 15.2215 38.3749C6.9321 38.3749 0.357851 33.9384 0.0664062 28.4979V10.5249V10.1686C0.0664062 4.59863 6.80188 -0.0322309 15.2873 0.00016899C20.8247 0.00016899 25.8438 2.23468 28.3378 5.63497H48.1238L45.6297 15.9652H35.6561L33.5193 21.6649L44.562 17.034L24.9695 45.4993L27.7512 33.6768ZM19.7643 36.3683L20.8483 31.8078C19.1517 32.2348 17.1761 32.5063 15.2551 32.4162C9.1012 32.5135 3.98541 30.0523 1.49138 26.4253V28.1741C1.58812 32.9021 7.61173 36.9177 15.2551 36.9825C16.732 36.8938 18.3171 36.6973 19.7643 36.3683ZM21.239 30.1649L22.4059 25.2572C20.2506 26.1019 17.7924 26.5728 15.2551 26.4253C9.1012 26.5873 3.98541 24.1585 1.49138 20.7906V22.2154C1.58812 27.0406 7.61173 31.0239 15.2551 31.0239C17.2654 31.0239 19.3278 30.6923 21.239 30.1649ZM22.8152 23.5309L23.96 18.7166C21.4126 19.9043 18.4287 20.6709 15.2873 20.7582C9.13344 20.661 4.01766 18.1999 1.52363 14.7672V16.1921C1.62036 21.1144 7.64397 25.0976 15.2873 25.0003C18.0194 25.0895 20.6709 24.5247 22.8152 23.5309ZM26.5569 5.63497H17.5208L15.028 15.9652H24.6135L24.4423 16.6858C22.0265 18.2212 18.7499 19.219 15.2873 19.3658C7.64397 19.2038 1.62036 15.1882 1.52363 10.201C1.58812 5.44073 7.64397 1.45739 15.2873 1.39275C19.8202 1.45739 24.0628 3.04422 26.5569 5.63497ZM28.5313 38.051L29.9562 30.9267L21.7636 34.4888L26.3944 14.5729H16.7767L18.5576 7.0922H46.3429L44.562 14.5729H34.9443L30.6694 24.5471L40.287 20.2723L28.5313 38.051ZM68.4295 12.5974C68.4616 13.7309 68.1045 14.6052 67.3926 15.2529C66.6808 15.9006 65.7085 16.2244 64.4459 16.2244C63.1822 16.2244 62.1466 15.8034 61.369 14.994C60.5914 14.1843 60.2032 13.1156 60.2032 11.8203V9.71536C60.2032 8.41998 60.5914 7.35125 61.3368 6.5417C62.1144 5.73202 63.1176 5.31113 64.348 5.31113C65.644 5.31113 66.6472 5.63497 67.3926 6.25026C68.138 6.89795 68.4939 7.77229 68.4616 8.90566V8.93807H66.3893C66.3893 8.25797 66.2269 7.73989 65.9032 7.41604C65.5795 7.0922 65.0611 6.93035 64.3815 6.93035C63.8531 6.93035 63.4327 7.10258 63.1015 7.44704C63.0271 7.52503 62.9565 7.61184 62.8907 7.70748C62.5349 8.22557 62.3413 8.87326 62.3413 9.68295V11.8203C62.3413 12.6298 62.5349 13.3099 62.8907 13.828C63.2802 14.3462 63.7986 14.6052 64.4781 14.6052C65.1256 14.6052 65.5795 14.4433 65.9032 14.1195C66.2269 13.7955 66.3893 13.2775 66.3893 12.5974H68.4295ZM80.1517 11.7231C80.1517 13.0184 79.7313 14.1195 78.9215 14.9615C78.1116 15.8034 77.0426 16.2244 75.7156 16.2244C74.3874 16.2244 73.3517 15.8034 72.5096 14.9615C71.6997 14.1195 71.2781 13.0184 71.2781 11.7231V9.8124C71.2781 8.51702 71.6997 7.44844 72.5096 6.57411C73.3183 5.73202 74.3873 5.27873 75.6833 5.27873C77.0103 5.27873 78.0794 5.69977 78.8892 6.57411C79.7313 7.41604 80.1194 8.51702 80.1194 9.8124V11.7231H80.1517ZM78.0148 9.78C78.0148 9.35756 77.9652 8.98395 77.8636 8.64693C77.7631 8.31239 77.6094 8.01413 77.3997 7.73989C77.1777 7.4672 76.9198 7.25745 76.6171 7.11979C76.3444 6.99578 76.0355 6.93035 75.6833 6.93035C74.9701 6.93035 74.3874 7.18939 73.9991 7.73989C73.6098 8.25797 73.384 8.93807 73.384 9.78V11.6907C73.384 12.5326 73.5775 13.2127 73.9991 13.7634C74.2198 14.0579 74.5039 14.2792 74.8375 14.4154C75.0917 14.5186 75.3758 14.5729 75.6833 14.5729C76.4274 14.5729 76.9781 14.3138 77.3997 13.7634C77.582 13.5381 77.7221 13.2762 77.8226 12.983C77.8995 12.7586 77.9516 12.516 77.9826 12.2574C78.0037 12.0761 78.0148 11.8869 78.0148 11.6907V9.78ZM85.6569 16.0625H83.5201V5.44058H85.6569V16.0625ZM97.931 16.0625H95.7929L91.518 8.90566H91.4858V16.0625H89.3489V5.44058H91.4858L95.7607 12.5974H95.7929V5.44058H97.931V16.0625ZM108.65 7.0922H105.605V16.0625H103.469V7.0922H100.488V5.44058H108.65V7.0922ZM117.458 11.3992H113.507V14.4433H118.203V16.0625H111.402V5.44058H118.203V7.0922H113.54V9.7476H117.49V11.3992H117.458ZM123.385 14.4433H128.145V16.0625H121.247V5.44058H123.385V14.4433ZM137.211 11.3992H133.262V14.4433H137.957V16.0625H131.156V5.44058H137.957V7.0922H133.294V9.7476H137.244V11.3992H137.211ZM148.934 14.9014C148.824 15.0144 148.701 15.1243 148.565 15.2304C148.313 15.4246 148.017 15.6061 147.672 15.7711C147.024 16.0949 146.182 16.2567 145.146 16.2567C143.851 16.2567 142.814 15.8682 142.005 15.0586C141.195 14.249 140.775 13.2127 140.775 11.9175V9.68295C140.775 8.38758 141.163 7.35125 141.972 6.5417C142.75 5.73202 143.786 5.31113 145.017 5.31113C146.312 5.31113 147.315 5.63497 147.996 6.25026C148.677 6.86555 149.032 7.67509 148.999 8.71142V8.74382H146.991C146.991 8.4826 146.956 8.24325 146.882 8.02916C146.802 7.79213 146.676 7.58625 146.506 7.41604C146.182 7.0922 145.697 6.93035 145.081 6.93035C144.434 6.93035 143.915 7.18939 143.494 7.67509C143.107 8.19333 142.911 8.84087 142.911 9.61816V11.8527C142.911 12.6622 143.107 13.3099 143.527 13.828C143.948 14.3462 144.498 14.5729 145.179 14.5729C145.697 14.5729 146.085 14.5081 146.377 14.4108C146.532 14.3591 146.669 14.298 146.788 14.2278C146.891 14.1663 146.981 14.0979 147.056 14.0223V11.9497H145.017V10.4601H149.195V14.6376H149.162C149.094 14.7272 149.018 14.8152 148.934 14.9014ZM154.667 11.8851V16.0625H152.53V5.44058H156.221C157.419 5.44058 158.392 5.73202 159.071 6.28266C159.751 6.83316 160.107 7.61028 160.107 8.58182C160.107 8.89217 160.066 9.17169 159.978 9.43197C159.944 9.53336 159.902 9.6318 159.853 9.72792C159.805 9.82278 159.749 9.91549 159.686 10.0068C159.552 10.186 159.39 10.3514 159.201 10.5032C158.98 10.6804 158.721 10.8387 158.423 10.9783C159.039 11.1726 159.491 11.464 159.784 11.9175C160.043 12.3384 160.205 12.8889 160.205 13.5366V14.3138C160.205 14.6052 160.237 14.9291 160.333 15.2529C160.364 15.4 160.412 15.5268 160.476 15.637C160.552 15.7692 160.648 15.877 160.755 15.9652V16.1273H158.553C158.359 15.9652 158.229 15.7063 158.164 15.3499C158.125 15.1339 158.097 14.9177 158.082 14.7086C158.072 14.5734 158.067 14.441 158.067 14.3138V13.569C158.067 13.0508 157.937 12.6298 157.646 12.3384C157.499 12.1905 157.317 12.0759 157.107 11.999C156.992 11.9573 156.872 11.9266 156.741 11.9077C156.638 11.8928 156.529 11.8851 156.416 11.8851H154.667ZM154.667 10.201H156.19C156.773 10.201 157.226 10.0714 157.517 9.8124C157.809 9.55335 157.97 9.19711 157.97 8.67902C157.97 8.19333 157.809 7.80469 157.517 7.51324C157.226 7.2218 156.804 7.0922 156.221 7.0922H154.667V10.201ZM165.71 13.7955L164.997 16.0949H162.763L166.357 5.47297H168.527L172.089 16.0949H169.854L169.143 13.7955H165.71ZM168.625 12.1117L167.459 8.35517H167.426L166.229 12.1117H168.625ZM176.817 12.2412V16.0625H174.68V5.44058H178.761C179.991 5.44058 180.93 5.76441 181.643 6.37971C182.354 6.995 182.68 7.83708 182.68 8.84087C182.68 9.8448 182.323 10.6867 181.643 11.302C180.93 11.9175 179.991 12.2412 178.761 12.2412H176.817ZM176.817 10.5897H178.761C179.343 10.5897 179.797 10.4277 180.121 10.1039C180.413 9.78 180.574 9.35911 180.574 8.87326C180.574 8.61221 180.532 8.3758 180.455 8.16403C180.377 7.95553 180.267 7.77089 180.121 7.61028C179.987 7.46177 179.82 7.34736 179.618 7.26691C179.379 7.17203 179.095 7.1246 178.761 7.1246H176.817V10.5897ZM194.37 16.0625H192.232V11.6583H187.893V16.0625H185.755V5.44058H187.893V10.0068H192.232V5.44058H194.37V16.0625ZM62.7605 33.4203H64.0888V26.4252H66.4848V25.2918H60.3645V26.4252H62.7605V33.4203ZM71.6663 33.4203H72.9946V29.4047C72.9946 27.8826 72.2493 27.1377 70.7597 27.1377C70.5377 27.1377 70.3331 27.1648 70.1434 27.214C69.9722 27.2582 69.8109 27.3202 69.6584 27.3967C69.3347 27.5588 69.0755 27.7853 68.9131 28.0768H68.8163C68.8486 27.6559 68.8808 27.2997 68.8808 26.9435V24.7414H67.5861V33.3878H68.8808V30.3438C68.8808 29.5665 69.0111 29.0159 69.2703 28.6921C69.5295 28.3683 69.9176 28.2065 70.4683 28.2065C70.8888 28.2065 71.1802 28.3359 71.3749 28.5627C71.5696 28.7894 71.6663 29.1456 71.6663 29.6312V33.4203ZM76.5849 33.4184C76.8627 33.4839 77.1665 33.5174 77.4952 33.5174C77.9169 33.5174 78.305 33.485 78.5965 33.4203C78.9202 33.3554 79.2439 33.2582 79.5676 33.0963V32.0276C79.2117 32.1897 78.8879 32.3191 78.5642 32.3839C78.2728 32.4486 77.9169 32.481 77.5597 32.481C77.009 32.481 76.5564 32.3191 76.265 31.9954C75.9735 31.7038 75.8111 31.218 75.7788 30.6352H79.8912V29.9227C79.8912 29.4645 79.8292 29.0597 79.7003 28.7081C79.5838 28.389 79.4113 28.1138 79.1794 27.8826C78.8594 27.5408 78.4452 27.3111 77.9441 27.2051C77.7333 27.1605 77.5076 27.1377 77.2682 27.1377C76.3939 27.1377 75.6821 27.4291 75.1959 28.012C74.7098 28.5949 74.4517 29.3723 74.4517 30.3762C74.4517 31.3477 74.7098 32.1248 75.2604 32.6753C75.6027 33.0394 76.0441 33.2903 76.5849 33.4184ZM76.265 28.5303C76.5242 28.2712 76.8479 28.1417 77.2682 28.1417C77.5622 28.1417 77.8077 28.2044 78.0062 28.3302C78.093 28.3849 78.1712 28.4517 78.2405 28.5303C78.4663 28.7894 78.5965 29.178 78.5965 29.6961H75.8111C75.8768 29.178 76.0058 28.7894 76.265 28.5303ZM85.9149 28.2388H87.3721V27.2349H85.8826V26.8462C85.8826 26.49 85.9471 26.2309 86.0773 26.0367C86.2063 25.8747 86.4333 25.7777 86.7247 25.7777C86.9021 25.7777 87.0695 25.7971 87.2382 25.8305C87.3771 25.8582 87.5172 25.8955 87.6636 25.9395L88.0194 24.9356C87.5668 24.7738 87.1129 24.709 86.6602 24.709C85.9794 24.709 85.4622 24.8709 85.105 25.227C84.749 25.5832 84.5879 26.1338 84.5879 26.8462V27.2349L83.5834 27.6236V28.2388H84.5879V33.4203H85.9149V28.2388ZM92.6181 32.6107L92.8127 33.4203H93.8497V27.2673H92.5214V30.3438C92.5214 30.8354 92.4692 31.2363 92.3651 31.5467C92.3055 31.7269 92.2287 31.8765 92.1332 31.9954C91.874 32.3191 91.4846 32.481 90.9351 32.481C90.5135 32.481 90.222 32.3515 90.0274 32.1248C89.8972 31.9505 89.8103 31.7468 89.7682 31.4845C89.7471 31.3567 89.7359 31.2151 89.7359 31.0562V27.2673H88.4089V31.3153C88.4089 32.06 88.5701 32.6429 88.9596 32.9991C89.3477 33.3554 89.8983 33.5498 90.6437 33.5498C91.0641 33.5498 91.4524 33.4526 91.776 33.2906C92.1009 33.1288 92.3589 32.9021 92.5536 32.6107H92.6181ZM98.9654 32.2868C98.6417 32.3838 98.318 32.4486 97.9943 32.4486C97.7351 32.4486 97.5081 32.3839 97.4114 32.2544C97.249 32.0924 97.1844 31.8658 97.1844 31.5419V28.2388H98.9332V27.2349H97.1844V25.8747H96.3746L95.922 27.1701L95.0154 27.6559V28.2388H95.8575V31.5419C95.8575 32.8374 96.4726 33.485 97.7028 33.485C97.962 33.485 98.189 33.4526 98.4148 33.4203C98.6417 33.3877 98.8364 33.323 98.9654 33.2582V32.2868ZM104.309 32.6107L104.503 33.4203H105.54V27.2673H104.211V30.3438C104.211 31.1209 104.082 31.6715 103.823 31.9954C103.564 32.3191 103.176 32.481 102.625 32.481C102.205 32.481 101.913 32.3515 101.719 32.1248C101.524 31.8658 101.427 31.5419 101.427 31.0562V27.2673H100.099V31.3153C100.099 32.06 100.294 32.6429 100.65 32.9991C101.038 33.3554 101.588 33.5498 102.334 33.5498C102.754 33.5498 103.144 33.4526 103.467 33.2906C103.791 33.1288 104.05 32.9021 104.245 32.6107H104.309ZM111.175 27.2026C111.013 27.17 110.786 27.1377 110.526 27.1377C110.138 27.1377 109.782 27.2673 109.491 27.4615C109.167 27.6882 108.876 27.9796 108.681 28.3359H108.617L108.454 27.2673H107.419V33.4203H108.713V30.2141C108.713 29.6636 108.876 29.2426 109.199 28.8865C109.523 28.5303 109.944 28.3683 110.462 28.3683C110.657 28.3683 110.85 28.4006 111.045 28.433L111.175 27.2026ZM112.534 32.6753C113.053 33.226 113.798 33.5174 114.769 33.5174C115.19 33.5174 115.547 33.485 115.87 33.4203C116.194 33.3554 116.518 33.2582 116.841 33.0963V32.0276C116.734 32.0768 116.628 32.123 116.525 32.1653C116.29 32.2623 116.064 32.3388 115.838 32.3839C115.547 32.4486 115.19 32.481 114.834 32.481C114.283 32.481 113.83 32.3191 113.539 31.9954C113.247 31.7038 113.085 31.218 113.053 30.6352H117.165V29.9227C117.165 29.0483 116.938 28.3683 116.453 27.8826C115.999 27.3967 115.352 27.1377 114.542 27.1377C113.668 27.1377 112.956 27.4291 112.47 28.012C112.155 28.3891 111.935 28.8474 111.82 29.3958C111.757 29.6952 111.725 30.0216 111.725 30.3762C111.725 31.3477 111.984 32.1248 112.534 32.6753ZM113.539 28.5303C113.798 28.2712 114.122 28.1417 114.542 28.1417C114.932 28.1417 115.255 28.2712 115.514 28.5303C115.74 28.7894 115.87 29.178 115.87 29.6961H113.085C113.149 29.178 113.28 28.7894 113.539 28.5303ZM126.266 32.6753C126.783 32.0924 127.042 31.3153 127.042 30.3114C127.042 29.3398 126.816 28.5949 126.298 28.012C125.78 27.4291 125.068 27.1377 124.193 27.1377C123.253 27.1377 122.541 27.4291 122.023 27.9798C121.505 28.5303 121.245 29.3074 121.245 30.3114C121.245 30.9591 121.376 31.5095 121.603 31.9954C121.828 32.481 122.152 32.8697 122.606 33.1288C123.06 33.3877 123.545 33.5174 124.128 33.5174C124.72 33.5174 125.23 33.3931 125.657 33.1532C125.883 33.0259 126.086 32.8662 126.266 32.6753ZM124.16 32.4486C123.092 32.4486 122.574 31.7362 122.574 30.3114C122.574 29.6312 122.703 29.1132 122.962 28.757C123.221 28.4006 123.61 28.2065 124.16 28.2065C125.197 28.2065 125.715 28.9188 125.715 30.3114C125.715 31.7362 125.197 32.4486 124.16 32.4486ZM130.152 28.2388H131.608V27.2349H130.119V26.8462C130.119 26.49 130.183 26.1985 130.314 26.0367C130.443 25.8747 130.67 25.7777 130.961 25.7777C131.173 25.7777 131.372 25.8056 131.575 25.8522C131.681 25.8766 131.789 25.9062 131.9 25.9395L132.256 24.9356C131.803 24.7738 131.349 24.709 130.897 24.709C130.516 24.709 130.187 24.7594 129.908 24.8661C129.687 24.9504 129.499 25.0698 129.341 25.227C128.986 25.5832 128.825 26.1338 128.825 26.8462V27.2349L127.82 27.6236V28.2388H128.825V33.4203H130.152V28.2388ZM139.51 33.4203H140.838H140.935V30.1494C140.935 29.5018 141.064 29.0159 141.292 28.6921C141.518 28.3683 141.875 28.2065 142.392 28.2065C142.781 28.2065 143.04 28.3359 143.234 28.5627C143.31 28.6828 143.371 28.8169 143.414 28.9748C143.465 29.157 143.493 29.3709 143.493 29.6312V33.4203H144.789V29.4047C144.789 28.6597 144.595 28.0768 144.271 27.7206C143.915 27.3644 143.396 27.1701 142.651 27.1701C142.23 27.1701 141.843 27.2673 141.518 27.4291C141.194 27.5912 140.935 27.8502 140.741 28.1417H140.643C140.352 27.4939 139.704 27.1701 138.766 27.1701C138.377 27.1701 138.02 27.2349 137.697 27.3967C137.373 27.5588 137.114 27.7853 136.952 28.0768H136.886L136.693 27.2673H135.657V33.4203H136.952V30.3438C136.952 29.8062 137.015 29.3774 137.128 29.0567C137.178 28.9137 137.239 28.7922 137.308 28.6921C137.535 28.3683 137.891 28.2065 138.41 28.2065C138.798 28.2065 139.09 28.3359 139.252 28.5627C139.318 28.671 139.375 28.7909 139.417 28.9292C139.477 29.1211 139.51 29.3488 139.51 29.6312V33.4203ZM151.201 32.6753C151.719 32.0924 151.978 31.3153 151.978 30.3114C151.978 29.7632 151.896 29.2873 151.737 28.8718C151.614 28.5509 151.445 28.2661 151.233 28.012C150.715 27.4291 150.002 27.1377 149.129 27.1377C148.189 27.1377 147.476 27.4291 146.958 27.9798C146.44 28.5303 146.182 29.3074 146.182 30.3114C146.182 30.9591 146.311 31.5095 146.538 31.9954C146.765 32.481 147.089 32.8697 147.541 33.1288C147.87 33.3164 148.214 33.436 148.6 33.4878C148.748 33.5075 148.901 33.5174 149.063 33.5174C149.971 33.5174 150.683 33.226 151.201 32.6753ZM149.097 32.4486C148.028 32.4486 147.509 31.7362 147.509 30.3114C147.509 29.6312 147.639 29.1132 147.897 28.757C148.156 28.4006 148.546 28.2065 149.097 28.2065C150.132 28.2065 150.65 28.9188 150.65 30.3114C150.65 31.7362 150.132 32.4486 149.097 32.4486ZM157.58 33.4203H158.909V29.437C158.909 27.915 158.196 27.1701 156.706 27.1701C156.285 27.1701 155.896 27.2349 155.572 27.3967C155.249 27.5588 154.989 27.7853 154.795 28.0768H154.73L154.536 27.2673H153.5V33.4203H154.795V30.3438C154.795 29.5665 154.958 29.0159 155.185 28.6921C155.41 28.3683 155.831 28.2065 156.383 28.2065C156.656 28.2065 156.874 28.2611 157.046 28.3611C157.141 28.4154 157.221 28.4831 157.289 28.5627C157.484 28.7894 157.58 29.1456 157.58 29.6312V33.4203ZM161.174 32.6753C161.694 33.226 162.438 33.5174 163.409 33.5174C163.831 33.5174 164.187 33.485 164.51 33.4203C164.834 33.3554 165.158 33.2582 165.482 33.0963V32.0276C165.295 32.1122 165.11 32.188 164.932 32.2505C164.771 32.3074 164.617 32.353 164.479 32.3839C164.187 32.4486 163.831 32.481 163.474 32.481C162.923 32.481 162.471 32.3191 162.179 31.9954C161.992 31.8081 161.857 31.5407 161.777 31.219C161.733 31.0399 161.704 30.8436 161.694 30.6352H165.806V29.9227C165.806 29.0483 165.58 28.3683 165.093 27.8826C164.64 27.3967 163.992 27.1377 163.182 27.1377C162.308 27.1377 161.596 27.4291 161.111 28.012C160.624 28.5949 160.366 29.3723 160.366 30.3762C160.366 31.3477 160.624 32.1248 161.174 32.6753ZM162.65 28.2164C162.801 28.1666 162.965 28.1417 163.15 28.1417C163.334 28.1417 163.498 28.1663 163.646 28.2155C163.836 28.2791 163.995 28.3841 164.123 28.5303C164.348 28.7894 164.479 29.178 164.479 29.6961H161.694C161.744 29.2874 161.836 28.9594 162 28.7118C162.043 28.6455 162.092 28.585 162.147 28.5303C162.292 28.3849 162.458 28.2802 162.65 28.2164ZM167.554 27.2673H166.13L168.655 33.3878L168.428 33.9707C168.17 34.7156 167.717 35.0718 167.101 35.0718C166.842 35.0718 166.616 35.0395 166.42 35.0071V36.0432C166.615 36.0914 166.825 36.1218 167.039 36.134C167.114 36.1382 167.189 36.1404 167.262 36.1404C168.396 36.1404 169.174 35.4927 169.66 34.2297L172.282 27.2673H170.858C170.162 29.2308 169.731 30.5141 169.536 31.1009L169.433 31.4123C169.336 31.7038 169.27 31.963 169.238 32.1572H169.207C169.142 31.7362 169.011 31.2505 168.818 30.7647L167.554 27.2673Z" fill="#80889C"/>
</svg>
