<svg width="166" height="24" viewBox="0 0 166 24" fill="none" xmlns="http://www.w3.org/2000/svg">
<g clip-path="url(#clip0_12099_81360)">
<path d="M89.3692 0H87.9192L77.7792 17.36L67.5492 0H66.1392L62.1992 23.13H66.0692L68.4292 8.57L77.0292 23.13H78.5192L87.0092 8.69L89.3692 23.13H93.2792L89.3692 0Z" fill="#80889C"/>
<path d="M113.11 2.43996C112.014 1.36141 110.621 0.633805 109.11 0.349963C107.057 0.0586254 104.983 -0.0551293 102.91 0.00996323H97V23.13H101V12.89H102.21C104.49 12.9615 106.772 12.8344 109.03 12.51C110.605 12.244 112.064 11.5126 113.22 10.41C113.727 9.87701 114.124 9.24945 114.388 8.56313C114.652 7.87681 114.779 7.14516 114.76 6.40996C114.77 5.67485 114.637 4.94477 114.37 4.25996C114.076 3.57511 113.648 2.95622 113.11 2.43996ZM110.67 6.43996C110.668 7.07813 110.453 7.69743 110.06 8.19996C109.621 8.72909 109.032 9.11263 108.37 9.29996C107.16 9.5978 105.915 9.72237 104.67 9.66996H100.91V3.26996H104.91C106.114 3.22017 107.319 3.33797 108.49 3.61996C109.113 3.81253 109.662 4.19328 110.06 4.70996C110.448 5.20021 110.662 5.805 110.67 6.42996V6.43996Z" fill="#80889C"/>
<path d="M118.229 0V23.13H122.169V0H118.229Z" fill="#80889C"/>
<path d="M43.9492 0V23.12H60.1792V19.86H47.8892V12.86H60.2792V9.62H47.8992V9.06V3.27H60.2992V0H43.9492Z" fill="#80889C"/>
<path d="M149.029 0V23.12H165.259V19.86H152.969V12.86H165.369V9.62H152.979V9.06V3.27H165.369V0H149.029Z" fill="#80889C"/>
<path d="M146.789 23.14L138.789 12.22L139.039 12.17C140.11 11.8179 141.086 11.2224 141.889 10.43C142.397 9.89828 142.795 9.27095 143.06 8.58432C143.324 7.89769 143.449 7.16542 143.429 6.42996C143.45 5.6972 143.317 4.96816 143.039 4.28996C142.77 3.60848 142.365 2.98912 141.849 2.46996C140.757 1.3821 139.363 0.647058 137.849 0.359956C135.78 0.0589474 133.689 -0.0615067 131.599 -4.40143e-05H125.719V23.15H129.659V12.91H130.869C132.199 12.91 133.349 12.91 134.349 12.85L141.899 23.14H146.789ZM129.659 9.64996V3.29996H133.659C134.859 3.24438 136.062 3.36226 137.229 3.64996C137.855 3.84127 138.407 4.22207 138.809 4.73996C139.198 5.22847 139.41 5.83511 139.409 6.45996C139.412 7.09429 139.201 7.71107 138.809 8.20996C138.387 8.74228 137.811 9.13022 137.159 9.31996C135.948 9.6118 134.703 9.73297 133.459 9.67996L129.659 9.64996Z" fill="#80889C"/>
<path d="M5.56914 13.36H20.2091L21.9591 11.09L20.4391 9.09H5.56914V7.38V4.31H16.5691L16.1091 3.53L13.4191 0H0.369141V23.17H5.57914V15.5L5.56914 13.36Z" fill="#80889C"/>
<path d="M36.8195 16.27L33.4495 12L30.5195 15.78L36.2895 23.19H42.1995L36.8195 16.27Z" fill="#80889C"/>
<path d="M41.6483 0H35.7483L30.4883 6.75L33.4383 10.56L41.6483 0Z" fill="#80889C"/>
<path d="M26.9191 5.26L22.8291 0H16.9291L25.6691 11.23L16.3691 23.17H22.3091L28.6291 15L31.5591 11.22L26.9191 5.26Z" fill="#80889C"/>
</g>
<defs>
<clipPath id="clip0_12099_81360">
<rect width="165" height="23.17" fill="white" transform="translate(0.369141)"/>
</clipPath>
</defs>
</svg>
