<svg width="143" height="32" viewBox="0 0 143 32" fill="none" xmlns="http://www.w3.org/2000/svg">
<g clip-path="url(#clip0_12099_81371)">
<path d="M137.078 21.3433C134.157 21.3433 131.787 23.7286 131.787 26.6721C131.787 29.6157 134.156 32.001 137.078 32.001C140.001 32.001 142.37 29.6157 142.37 26.6721C142.37 23.7286 140.001 21.3433 137.078 21.3433ZM137.078 29.3371C135.617 29.3371 134.432 28.1435 134.432 26.6721C134.432 25.2008 135.618 24.0072 137.078 24.0072C138.539 24.0072 139.725 25.2008 139.725 26.6721C139.725 28.1435 138.539 29.3371 137.078 29.3371Z" fill="#80889C"/>
<path d="M0.369141 1.1648C0.471407 1.15377 0.574586 1.1317 0.676852 1.1317C2.62904 1.1271 4.58122 1.12158 6.53249 1.12158C10.6861 1.12158 14.8389 1.12434 18.9925 1.12618C19.2655 1.12618 19.2655 1.12894 19.2655 1.39837C19.2646 3.13451 19.26 4.86974 19.2673 6.60588C19.2673 6.81554 19.2107 6.87623 18.9989 6.87531C15.0744 6.86979 11.1491 6.87163 7.22462 6.87255C6.93151 6.87255 6.92969 6.87255 6.9306 7.16314C6.93151 9.4124 6.93517 11.6626 6.9306 13.9118C6.9306 14.0728 6.99086 14.1206 7.13605 14.1187C7.33693 14.116 7.5378 14.1206 7.73868 14.1206C10.7564 14.1215 13.7751 14.1224 16.7929 14.1243C17.065 14.1243 17.065 14.1261 17.065 14.3955C17.065 16.1032 17.0604 17.8117 17.0695 19.5194C17.0705 19.7345 17.0047 19.7851 16.7984 19.7851C13.6418 19.7805 10.4853 19.7823 7.32871 19.786C6.87308 19.786 6.92969 19.7226 6.92969 20.1805C6.92877 23.8671 6.92969 27.5545 6.92969 31.2411C6.92969 31.3156 6.92969 31.3891 6.92969 31.4939H0.369141C0.369141 21.3852 0.369141 11.2754 0.369141 1.1648Z" fill="#80889C"/>
<path d="M81.0232 24.4147C80.9666 24.3448 80.9356 24.2556 80.9045 24.1976C80.5146 24.514 80.2133 24.777 79.8928 25.0133C79.2957 25.4556 78.6647 25.8391 77.9552 26.0809C76.8778 26.4487 75.7739 26.5756 74.6435 26.4515C73.0255 26.274 71.602 25.7094 70.5574 24.3852C70.0461 23.7369 69.7685 22.9967 69.6516 22.158C69.7438 22.158 69.8251 22.158 69.9064 22.158C72.2183 22.158 74.5302 22.158 76.8431 22.158C79.2034 22.158 81.5647 22.158 83.925 22.159C84.0602 22.159 84.156 22.1525 84.1926 21.9806C84.493 20.5663 84.6263 19.1446 84.4345 17.7018C84.2528 16.3307 83.8474 15.0323 83.1462 13.8433C82.2249 12.28 80.9292 11.0956 79.3084 10.2938C77.0586 9.18019 74.6718 8.87213 72.2165 9.30985C68.3276 10.0032 65.5482 12.1835 63.9412 15.8047C62.9021 18.146 62.7304 20.604 63.2317 23.1006C63.7238 25.5485 64.9172 27.6046 66.8283 29.2194C68.4655 30.6024 70.3675 31.4162 72.4658 31.7795C72.883 31.8521 73.3113 31.8595 73.787 31.9018L76.3391 31.8733C76.3665 31.8484 76.392 31.8447 76.4176 31.8457C77.6384 31.9082 78.7843 31.5836 79.9147 31.1753C80.9036 30.8185 81.814 30.3017 82.6814 29.7206C83.2019 29.372 83.6611 28.9306 84.1478 28.5316C84.2519 28.4469 84.241 28.3725 84.157 28.2695C83.1087 26.9867 82.0642 25.7011 81.0214 24.4137L81.0232 24.4147ZM71.4751 15.1491C73.0227 14.1229 75.457 14.2213 76.8714 15.3891C77.6548 16.0365 78.0995 16.8733 78.2063 17.8894C78.2219 18.0375 78.1844 18.1165 78.0246 18.1119C77.9416 18.1101 77.8585 18.1193 77.7754 18.1193C75.1384 18.1193 72.5014 18.1193 69.8653 18.1175C69.7721 18.1175 69.679 18.1073 69.5813 18.1018C69.7247 16.7813 70.4159 15.8498 71.4751 15.1482V15.1491Z" fill="#80889C"/>
<path d="M102.512 23.5416C102.485 23.56 102.459 23.572 102.439 23.5904C102.414 23.6134 102.389 23.6382 102.369 23.6667C101.956 24.2515 101.433 24.7233 100.865 25.1481C99.6398 26.064 98.2774 26.4383 96.7626 26.1652C94.8479 25.8194 93.5431 24.7178 92.8181 22.9163C92.3488 21.7512 92.3022 20.553 92.4903 19.3199C92.8647 16.8702 95.0588 15.0071 97.1379 14.9161C98.2199 14.8683 99.228 15.0605 100.144 15.6012C100.938 16.0692 101.566 16.7451 102.067 17.5277C102.298 17.8891 102.292 17.89 102.613 17.6086C103.904 16.4748 105.194 15.3391 106.492 14.2136C106.618 14.1041 106.602 14.0361 106.526 13.9239C105.683 12.6714 104.627 11.6314 103.372 10.7983C101.685 9.67641 99.795 9.1964 97.799 9.13938C95.8815 9.08513 94.0252 9.42353 92.2757 10.2447C89.9108 11.3555 88.1129 13.0669 86.9825 15.4347C85.6796 18.1649 85.4476 21.0202 86.3187 23.9058C87.5587 28.0153 90.3464 30.5644 94.469 31.6485C95.0698 31.8067 95.7034 31.8426 96.2349 31.9226L98.6664 31.8922C101.991 31.6633 104.632 30.0439 106.66 27.3394C105.257 26.0557 103.886 24.7996 102.511 23.5416H102.512Z" fill="#80889C"/>
<path d="M129.075 31.4832H122.626C122.621 31.4106 122.613 31.338 122.613 31.2653C122.613 27.5089 122.61 23.7524 122.619 19.9969C122.621 19.2668 122.627 18.5376 122.464 17.8231C122.113 16.2709 121.172 15.298 119.606 14.9733C118.273 14.6975 117.06 14.9568 116.025 15.8736C115.331 16.4879 114.908 17.2677 114.67 18.1652C114.5 18.8089 114.427 19.4599 114.426 20.1202C114.424 23.8205 114.426 27.5218 114.426 31.2221V31.4796H107.949V31.2101C107.949 21.7119 107.95 12.2137 107.951 2.71552C107.951 2.25757 107.954 1.79871 107.942 1.34077C107.937 1.178 107.982 1.11823 108.147 1.11915C110.175 1.12467 112.203 1.12651 114.232 1.12467C114.388 1.12467 114.43 1.17708 114.43 1.33065C114.426 4.69075 114.426 8.05176 114.426 11.4119C114.426 11.5893 114.426 11.7677 114.426 11.9765C114.477 11.9379 114.511 11.9213 114.533 11.8937C115.624 10.4877 117.066 9.65641 118.789 9.31893C120.601 8.96489 122.389 9.08996 124.113 9.76768C126.019 10.5171 127.378 11.856 128.214 13.7338C128.732 14.897 128.984 16.1219 129.037 17.3826C129.087 18.5753 129.082 19.7698 129.082 20.9634C129.085 24.3235 129.079 27.6845 129.076 31.0446C129.076 31.1816 129.076 31.3196 129.076 31.4814L129.075 31.4832Z" fill="#80889C"/>
<path d="M51.5369 31.4831H45.0658V31.2257C45.0658 27.1428 45.0685 23.0608 45.064 18.9779C45.0631 18.1172 44.8704 17.3062 44.4065 16.5632C43.7884 15.5719 42.8826 15.0735 41.754 14.9098C40.3287 14.7038 39.1508 15.1875 38.1775 16.2054C37.625 16.7839 37.2945 17.502 37.1338 18.28C37.0187 18.84 36.9274 19.4166 36.9247 19.9867C36.9064 23.7284 36.9156 27.4711 36.9156 31.2137V31.4758H30.4609V9.65262C30.5449 9.64526 30.6253 9.63331 30.7066 9.63331C32.6167 9.62963 34.5269 9.62963 36.438 9.62135C36.6179 9.62135 36.6763 9.66733 36.6727 9.85492C36.6572 10.6393 36.6572 11.4237 36.6526 12.2081C36.6526 12.2394 36.6663 12.2706 36.6809 12.3313C36.8663 12.0922 37.0306 11.8743 37.2023 11.6619C38.2432 10.3671 39.6101 9.61951 41.219 9.3133C42.9438 8.98501 44.6494 9.09536 46.3158 9.66089C47.6316 10.1078 48.7501 10.872 49.6203 11.9497C50.4074 12.9254 50.9059 14.0638 51.2018 15.2859C51.4319 16.2349 51.5332 17.1995 51.5341 18.1733C51.5396 22.5128 51.5369 26.8522 51.5369 31.1916V31.484V31.4831Z" fill="#80889C"/>
<path d="M60.7882 31.4811H54.2058V6.92408C54.1117 6.91948 54.0378 6.91397 53.9647 6.91397C51.3414 6.91397 48.7172 6.91397 46.0939 6.91397C45.8081 6.91397 45.809 6.91213 45.809 6.63166C45.809 4.88172 45.8117 3.13179 45.8008 1.38185C45.7999 1.16575 45.862 1.11426 46.0674 1.11426C50.6776 1.11978 55.2887 1.11886 59.8989 1.11978C62.9103 1.11978 65.9216 1.12437 68.933 1.11794C69.1448 1.11794 69.1996 1.17587 69.1987 1.38553C69.1896 3.14926 69.1887 4.91299 69.1969 6.67672C69.1969 6.87994 69.1257 6.91305 68.9458 6.91213C66.3225 6.90753 63.6983 6.91029 61.0749 6.91121C60.8056 6.91121 60.8019 6.91121 60.8019 7.18616C60.8001 11.7205 60.7992 16.2549 60.7965 20.7893C60.7946 24.2055 60.791 27.6217 60.7882 31.0379C60.7882 31.1813 60.7882 31.3248 60.7882 31.4774V31.4811Z" fill="#80889C"/>
<path d="M21.5953 31.4749C21.5953 31.28 21.5953 31.1006 21.5953 30.9213C21.5953 23.9023 21.5953 16.8832 21.5898 9.86418C21.5898 9.67015 21.6455 9.61865 21.8346 9.61865C23.8214 9.62601 25.8074 9.62417 27.7943 9.62509C28.0709 9.62509 28.071 9.62785 28.071 9.8936C28.0691 16.4823 28.0673 23.071 28.0655 29.6597C28.0655 30.2078 28.0609 30.7567 28.0636 31.3048C28.0636 31.4289 28.0426 31.4933 27.8947 31.4933C25.8321 31.4896 23.7694 31.4905 21.7067 31.4896C21.6802 31.4896 21.6538 31.4823 21.5935 31.474L21.5953 31.4749Z" fill="#80889C"/>
<path d="M28.368 3.43995C28.4055 5.01792 27.2878 6.62165 25.2699 6.90671C23.5825 7.14488 22.0083 6.23727 21.4331 4.74297C20.594 2.56268 21.9545 0.306066 24.2701 0.0320348C25.1046 -0.0663589 25.9008 0.0522652 26.6331 0.473427C27.7718 1.12816 28.3415 2.12773 28.368 3.43995Z" fill="#80889C"/>
</g>
<defs>
<clipPath id="clip0_12099_81371">
<rect width="142" height="32" fill="white" transform="translate(0.369141)"/>
</clipPath>
</defs>
</svg>
