<svg width="104" height="38" viewBox="0 0 104 38" fill="none" xmlns="http://www.w3.org/2000/svg">
<g clip-path="url(#clip0_12099_81383)">
<path d="M42.8368 0C42.8291 0.0855973 42.815 0.171195 42.815 0.256792C42.8137 2.91485 42.8137 5.5729 42.815 8.23031C42.815 8.30488 42.8233 8.3801 42.8298 8.49164C42.8974 8.4456 42.9521 8.4216 42.9882 8.3814C44.5588 6.66232 46.5158 6.31669 48.6466 6.90355C50.6944 7.46771 51.7389 9.01235 52.162 11.0219C52.2856 11.6095 52.3474 12.221 52.3506 12.8214C52.3687 16.0625 52.3597 19.3041 52.359 22.5452C52.359 22.6398 52.3487 22.7345 52.3423 22.8486H46.8236V22.4609C46.8236 19.76 46.8307 17.0585 46.8158 14.3576C46.8133 13.931 46.7579 13.4919 46.6465 13.0808C46.4475 12.3468 45.9471 11.9006 45.1841 11.8098C44.3991 11.7164 43.7384 11.9538 43.2883 12.6418C42.9264 13.1956 42.8368 13.824 42.8368 14.4705C42.8356 17.1285 42.8362 19.7866 42.8362 22.444C42.8362 22.5711 42.8362 22.6982 42.8362 22.8473H37.2988V0C39.145 0 40.9906 0 42.8368 0Z" fill="#80889C"/>
<path d="M103.369 0.0644111C103.309 0.177244 103.24 0.286186 103.192 0.403558C101.329 4.93113 99.4649 9.45806 97.6116 13.9895C97.5021 14.2567 97.3785 14.3617 97.0778 14.3592C95.1472 14.3429 93.2166 14.3507 91.2867 14.3507C91.1707 14.3507 91.0555 14.3507 90.8906 14.3507C90.9544 14.1841 90.9975 14.0654 91.0452 13.9487C92.9062 9.42045 94.7685 4.89288 96.6283 0.364002C96.6759 0.247278 96.7004 0.120827 96.7358 -0.000435345C98.8609 -0.000435345 100.986 -0.00108381 103.111 0.00215851C103.197 0.00215851 103.283 0.0423633 103.369 0.0644111Z" fill="#80889C"/>
<path d="M63.3161 37.9999C63.1731 37.9643 63.0308 37.9208 62.8866 37.8936C61.5858 37.6491 60.6366 36.9209 60.0197 35.7556C59.0389 33.9017 59.2515 31.5017 60.56 29.9739C61.6141 28.7438 62.9613 28.3294 64.5325 28.6938C65.0651 28.8177 65.5255 29.0933 65.9054 29.4966C65.9692 29.5647 66.0413 29.625 66.1733 29.7495C66.1881 29.5109 66.2158 29.3455 66.2042 29.1828C66.1836 28.9052 66.2789 28.8015 66.5681 28.808C67.3402 28.8255 68.1129 28.8294 68.885 28.8067C69.2064 28.7976 69.3087 28.8858 69.3068 29.2204C69.2926 31.37 69.2997 33.5197 69.2997 35.6694C69.2997 36.2309 69.2901 36.7932 69.3036 37.3547C69.31 37.6128 69.2398 37.7211 68.9617 37.7159C68.1574 37.7004 67.3524 37.7004 66.5481 37.7159C66.268 37.7211 66.1907 37.607 66.2055 37.3515C66.2152 37.1764 66.1926 36.9994 66.1849 36.823C66.145 36.8022 66.1051 36.7815 66.0658 36.7614C65.9853 36.8736 65.9183 37 65.8211 37.0947C65.333 37.5687 64.738 37.8184 64.0734 37.9163C63.9697 37.9319 63.8699 37.9721 63.7682 38.0006H63.3174L63.3161 37.9999ZM64.3754 35.1084C65.4508 35.113 66.2867 34.3095 66.2937 33.2642C66.3008 32.2364 65.4392 31.3817 64.3941 31.3804C63.3618 31.3791 62.5215 32.2143 62.5182 33.2441C62.515 34.2927 63.3225 35.1033 64.3748 35.1078L64.3754 35.1084Z" fill="#80889C"/>
<path d="M92.4209 37.9998C92.0545 37.9298 91.6843 37.876 91.3224 37.7878C89.3197 37.3021 88.0652 35.7146 87.9892 33.6356C87.9203 31.7421 88.5785 30.2228 90.2115 29.2241C92.2509 27.9765 95.0637 28.5154 96.3652 30.3745C97.0832 31.4004 97.2841 32.565 97.2319 33.7939C97.221 34.0455 97.0651 34.026 96.9016 34.026C95.8713 34.026 94.8409 34.026 93.8106 34.026C93.0057 34.026 92.2007 34.0241 91.3958 34.0273C91.048 34.0286 91.0184 34.0734 91.1118 34.408C91.3288 35.1887 92.2522 35.688 93.1415 35.4462C93.4674 35.3573 93.7488 35.1096 94.0559 34.9455C94.1551 34.893 94.2929 34.8184 94.3779 34.8496C95.2022 35.1524 96.0194 35.476 96.8836 35.8112C96.8114 35.9306 96.7599 36.0304 96.6949 36.1206C95.8725 37.2534 94.7231 37.7741 93.3714 37.9175C93.2465 37.9304 93.1241 37.9719 93.0005 38.0005H92.4209V37.9998ZM94.1725 32.2272C94.1248 31.7181 93.8956 31.3634 93.4777 31.1488C92.8447 30.8233 92.211 30.8498 91.6218 31.2519C91.296 31.4743 91.0777 31.7849 91.1086 32.2272H94.1719H94.1725Z" fill="#80889C"/>
<path d="M84.8868 37.9996C84.6691 37.9536 84.4528 37.8991 84.2332 37.8628C82.0347 37.5036 80.5156 35.756 80.4667 33.5142C80.4242 31.5863 81.1216 30.043 82.8648 29.1228C84.172 28.4328 85.5513 28.3881 86.9494 28.8725C87.1773 28.9516 87.2655 29.0729 87.2604 29.3193C87.2462 30.0423 87.2559 30.7667 87.2546 31.4897C87.2546 31.5837 87.2424 31.6771 87.2379 31.7407C86.7452 31.6259 86.2777 31.4664 85.7986 31.4164C84.8063 31.3127 83.908 31.9417 83.7103 32.8171C83.4411 34.0083 84.2641 35.0394 85.5288 35.1023C86.1251 35.1321 86.6712 34.9687 87.2095 34.6568C87.2295 34.7463 87.2533 34.804 87.2533 34.8617C87.2559 35.6503 87.2507 36.4388 87.2585 37.2267C87.2604 37.4219 87.1844 37.5353 87.0067 37.5833C86.5946 37.6949 86.1805 37.8019 85.7677 37.9121C85.6666 37.9387 85.5668 37.9705 85.4663 37.9996H84.8868Z" fill="#80889C"/>
<path d="M30.0847 8.41318V7.05076H35.4031V22.8409H30.0763V21.4447C29.9913 21.5044 29.954 21.5212 29.9295 21.5491C28.6435 23.0036 26.9737 23.4264 25.141 23.2345C21.7732 22.8817 19.2431 20.4785 18.5341 16.9599C17.9403 14.012 18.5308 11.3222 20.5458 9.04284C22.4358 6.90485 25.3954 6.11308 27.901 7.0112C28.724 7.30625 29.4349 7.77185 30.0081 8.44625C30.0338 8.43523 30.0596 8.4242 30.0853 8.41318H30.0847ZM26.9454 18.2322C28.7736 18.2335 30.1954 16.8108 30.2006 14.9743C30.2064 13.1424 28.7852 11.7035 26.9615 11.6944C25.1172 11.6853 23.6786 13.112 23.6722 14.9575C23.6657 16.8024 25.0934 18.2309 26.9448 18.2316L26.9454 18.2322Z" fill="#80889C"/>
<path d="M9.98404 16.3374C10.1006 16.0455 10.1811 15.8484 10.259 15.65C11.3415 12.8875 12.4272 10.1257 13.5007 7.35937C13.5979 7.10842 13.7203 7.02217 13.9901 7.02412C15.6959 7.03708 17.4024 7.0306 19.1082 7.0306H19.4682C19.4193 7.17067 19.3903 7.26924 19.3517 7.36326C16.4635 14.3764 13.5734 21.3889 10.6917 28.4046C10.5855 28.664 10.4593 28.7554 10.1766 28.7529C8.47074 28.7386 6.76426 28.7457 5.05842 28.7457C4.94444 28.7457 4.82982 28.7457 4.67076 28.7457C4.73323 28.5843 4.77251 28.4747 4.81694 28.3677C5.52271 26.6862 6.22463 25.0041 6.93942 23.3265C7.03601 23.1002 7.04052 22.9147 6.94328 22.6845C4.80728 17.6272 2.67836 12.5652 0.548804 7.50333C0.491492 7.3678 0.439332 7.22968 0.369141 7.0533C0.513387 7.04357 0.616419 7.03125 0.718808 7.03125C2.48904 7.02995 4.25992 7.03708 6.03015 7.02347C6.29417 7.02152 6.40107 7.1162 6.49122 7.35094C7.58917 10.2003 8.69677 13.0458 9.80308 15.8919C9.84945 16.0112 9.89968 16.1292 9.98468 16.3367L9.98404 16.3374Z" fill="#80889C"/>
<path d="M88.1532 14.5373C88.1461 19.3502 85.0378 22.8078 80.7117 23.2183C77.7746 23.4965 75.191 22.6794 73.265 20.3638C71.1534 17.8244 70.7671 14.8894 71.9255 11.8378C73.0628 8.8425 75.3739 7.20448 78.4978 6.7486C80.4309 6.46652 82.2984 6.75639 84.0074 7.73816C86.7816 9.33209 88.065 11.817 88.1526 14.5373H88.1532ZM79.7329 18.1694C81.5192 18.1726 82.8889 16.7914 82.894 14.9828C82.8992 13.1535 81.525 11.7535 79.7329 11.7612C77.9478 11.769 76.5859 13.1561 76.5852 14.9666C76.5852 16.7771 77.9504 18.1668 79.7322 18.1694H79.7329Z" fill="#80889C"/>
<path d="M70.3644 14.9723C70.3619 19.3586 67.2657 22.8026 62.9049 23.2195C60.0315 23.4945 57.4892 22.7027 55.5709 20.4694C53.4001 17.9423 52.9731 14.997 54.1155 11.9084C55.2424 8.86316 57.571 7.20634 60.7341 6.74593C62.5301 6.48395 64.2668 6.74787 65.9025 7.56299C68.6869 8.95071 70.3657 11.7469 70.3638 14.973L70.3644 14.9723ZM61.9512 11.7612C60.1655 11.7657 58.8061 13.1489 58.8042 14.9633C58.8022 16.7906 60.1745 18.1777 61.9769 18.1693C63.7555 18.1615 65.1201 16.7621 65.1123 14.9535C65.1046 13.1437 63.7311 11.7566 61.9512 11.7612Z" fill="#80889C"/>
<path d="M52.9928 29.7586C53.0301 29.7229 53.072 29.6911 53.1029 29.6509C53.9503 28.5699 55.0766 28.3682 56.3149 28.6996C57.5301 29.0251 58.1219 29.9408 58.3363 31.1352C58.3872 31.4199 58.4065 31.7143 58.4071 32.0042C58.4136 33.7758 58.4033 35.5467 58.4174 37.3184C58.42 37.6367 58.3183 37.723 58.013 37.7159C57.2087 37.6971 56.4044 37.7016 55.6001 37.7139C55.3451 37.7178 55.2659 37.6277 55.2672 37.3767C55.2756 35.9183 55.2769 34.4606 55.2659 33.0022C55.264 32.7363 55.2234 32.4627 55.1513 32.2065C55.0154 31.7266 54.6606 31.4744 54.1789 31.4446C53.7031 31.4154 53.2877 31.6008 53.1035 32.0567C52.9696 32.3868 52.8994 32.7635 52.8936 33.1215C52.8704 34.5144 52.8736 35.9079 52.891 37.3015C52.8955 37.638 52.7854 37.7243 52.466 37.7159C51.6624 37.6951 50.8574 37.7029 50.0531 37.7126C49.8187 37.7159 49.7324 37.64 49.7331 37.3975C49.7389 34.6434 49.7395 31.8888 49.7324 29.1347C49.7318 28.8721 49.8271 28.8047 50.0724 28.8079C50.898 28.8202 51.7242 28.8202 52.5497 28.8079C52.8002 28.804 52.9046 28.8844 52.8859 29.1406C52.8717 29.339 52.8833 29.5394 52.8833 29.7391L52.9921 29.7579L52.9928 29.7586Z" fill="#80889C"/>
<path d="M73.925 29.8461C74.0551 29.7301 74.115 29.6905 74.1568 29.6373C74.9592 28.6127 76.0288 28.3988 77.2201 28.664C78.4044 28.9273 79.0631 29.7456 79.3291 30.9005C79.4109 31.2546 79.4521 31.6262 79.4546 31.9899C79.4675 33.7719 79.454 35.5546 79.4682 37.3365C79.4707 37.6446 79.3696 37.7211 79.0805 37.7152C78.2762 37.6984 77.4713 37.701 76.667 37.7139C76.4004 37.7185 76.3109 37.627 76.3128 37.3599C76.3218 35.9884 76.3186 34.6162 76.3154 33.2441C76.3154 33.0067 76.3038 32.7688 76.2774 32.5334C76.204 31.8843 75.797 31.4738 75.2058 31.4381C74.625 31.4031 74.1208 31.8071 73.9965 32.4309C73.9501 32.6618 73.9295 32.9017 73.9282 33.1377C73.9218 34.5417 73.9179 35.9462 73.9308 37.3502C73.9334 37.6394 73.8413 37.7204 73.5618 37.7152C72.7466 37.699 71.9313 37.7023 71.1161 37.7139C70.8662 37.7178 70.7767 37.6348 70.7773 37.3793C70.7838 34.6357 70.7831 31.892 70.7773 29.1484C70.7773 28.9013 70.8508 28.8047 71.109 28.8086C71.9455 28.8216 72.7826 28.8209 73.6191 28.8086C73.8645 28.8047 73.943 28.8968 73.9276 29.1302C73.9134 29.3384 73.9244 29.5485 73.9244 29.8455L73.925 29.8461Z" fill="#80889C"/>
<path d="M43.9884 27.2281C43.5833 27.197 43.2433 27.1366 42.9059 27.1509C42.1132 27.1846 41.6817 27.7559 41.674 28.5633C41.672 28.7643 41.7847 28.8162 41.9638 28.8142C42.4892 28.809 43.0153 28.8214 43.5402 28.809C43.7694 28.8038 43.8712 28.8693 43.8666 29.1177C43.8551 29.7655 43.857 30.414 43.8654 31.0618C43.8679 31.2829 43.7926 31.3692 43.5659 31.3633C43.0623 31.3504 42.5568 31.3763 42.0539 31.3536C41.7519 31.34 41.665 31.4515 41.6662 31.7427C41.6746 33.5895 41.6708 35.4363 41.6701 37.2838C41.6701 37.7092 41.6688 37.7099 41.2419 37.7099C40.4698 37.7099 39.697 37.6949 38.9256 37.717C38.6055 37.7261 38.5321 37.6126 38.5347 37.3091C38.5469 35.4837 38.5411 33.6583 38.5405 31.8328C38.5405 31.3607 38.5392 31.3659 38.0904 31.3588C37.268 31.3458 37.3614 31.5015 37.355 30.6234C37.3517 30.1267 37.3614 29.6293 37.3517 29.1333C37.3472 28.9018 37.4239 28.8006 37.6679 28.809C37.9332 28.8175 38.2868 28.8849 38.44 28.7455C38.5856 28.6132 38.527 28.2481 38.5508 27.9848C38.7118 26.1724 39.6352 24.9928 41.2593 24.5778C42.0488 24.3761 42.8492 24.3813 43.6451 24.5836C43.8892 24.6459 43.9993 24.7594 43.9935 25.0304C43.9768 25.7619 43.9877 26.4934 43.9877 27.2287L43.9884 27.2281Z" fill="#80889C"/>
<path d="M88.8691 19.5172C88.8704 17.4291 90.5215 15.7684 92.5944 15.769C94.6229 15.7697 96.1916 17.3448 96.1961 19.3842C96.2006 21.4917 94.5501 23.1512 92.4534 23.1473C90.4327 23.1434 88.8672 21.5579 88.8691 19.5172Z" fill="#80889C"/>
<path d="M45.1088 33.2338C45.1088 31.8843 45.1178 30.5342 45.1017 29.1847C45.0978 28.878 45.1995 28.8015 45.488 28.808C46.3026 28.8255 47.1179 28.8203 47.9325 28.8099C48.1669 28.8067 48.2564 28.8852 48.2564 29.1251C48.2519 31.8785 48.2513 34.6318 48.2577 37.3852C48.2577 37.6472 48.1547 37.7166 47.9119 37.714C47.0863 37.7036 46.2608 37.7017 45.4352 37.7153C45.1802 37.7192 45.1023 37.6355 45.1042 37.3807C45.1145 35.9988 45.1088 34.6163 45.1088 33.2344V33.2338Z" fill="#80889C"/>
<path d="M46.6862 27.8708C45.6965 27.8727 44.9173 27.103 44.916 26.1212C44.9147 25.1518 45.7197 24.3425 46.6805 24.3477C47.6548 24.3529 48.4449 25.1446 48.4455 26.1167C48.4462 27.1101 47.685 27.8688 46.6862 27.8708Z" fill="#80889C"/>
</g>
<defs>
<clipPath id="clip0_12099_81383">
<rect width="103" height="38" fill="white" transform="translate(0.369141)"/>
</clipPath>
</defs>
</svg>
