<svg width="269" height="43" viewBox="0 0 269 43" fill="none" xmlns="http://www.w3.org/2000/svg">
<g clip-path="url(#clip0_12099_81401)">
<path d="M6.9816 43C6.99069 42.5927 7.00703 42.1873 7.00703 41.78C7.00158 39.0361 6.9925 36.2921 6.98524 33.5464L6.9707 33.5609H13.6993V36.9202H23.8448V33.5772H30.5679C30.5679 33.7509 30.5679 33.9229 30.5679 34.0948C30.5552 36.9763 30.5425 39.8578 30.5334 42.7393C30.5334 42.8262 30.5679 42.9131 30.5861 42.9982H6.9816V43Z" fill="#80889C"/>
<path d="M3.75254 16.8004V10.0002C4.46464 10.0002 5.16401 10.0002 5.86158 10.0002C6.62453 10.0026 7.0048 9.63097 7.00238 8.88525C7.00056 6.07434 6.99875 3.26523 7.00056 0.454308C7.00056 0.333039 7.02236 0.209959 7.03871 0.0361999C7.2458 0.0271499 7.43836 0.01086 7.6291 0.01086C15.057 0.01086 22.4832 0.0162899 29.9111 0C30.4415 0 30.5723 0.157469 30.5687 0.666077C30.5469 3.56569 30.576 6.46529 30.5524 9.3649C30.5487 9.88799 30.7594 10.0129 31.2209 10.0038C32.0692 9.98935 32.9157 10.0002 33.7895 10.0002C33.8131 10.1613 33.8458 10.2808 33.844 10.4002C33.8149 12.4039 33.7822 14.4075 33.7459 16.4112C33.7441 16.5488 33.6987 16.6863 33.675 16.8221L33.6805 16.8185H30.6614C30.6614 16.3189 30.6632 15.8972 30.6614 15.4736C30.6486 13.7559 30.6323 12.0365 30.6214 10.3188C30.6214 10.0491 30.5197 9.95677 30.2254 9.95858C28.3234 9.97306 26.4197 9.94591 24.5177 9.97306C23.98 9.9803 23.8401 9.80111 23.8656 9.29431C23.9055 8.45991 23.8765 7.62007 23.8765 6.70421C22.7484 6.70421 21.6857 6.69335 20.623 6.7205C20.5176 6.72412 20.3342 6.95761 20.3269 7.09155C20.2906 7.8065 20.2888 8.52326 20.2906 9.2382C20.3124 13.7867 20.3323 18.337 20.3687 22.8855C20.3723 23.2874 20.2942 23.4738 19.8346 23.4557C18.9863 23.4231 18.1361 23.4466 17.226 23.4466V6.73317H13.7509V9.94048H7.03326C7.01146 10.1993 6.98058 10.4075 6.98058 10.6174C6.9715 12.4618 6.95878 14.308 6.96968 16.1524C6.97331 16.6121 6.83889 16.7823 6.34297 16.7623C5.47465 16.728 4.60451 16.7732 3.73438 16.7859L3.75254 16.8022V16.8004Z" fill="#80889C"/>
<path d="M227.396 12.2031H246.036C246.045 12.3914 246.064 12.5796 246.064 12.7678C246.064 18.5526 246.064 24.3373 246.064 30.1221C246.064 30.8225 246.064 30.828 245.359 30.828C239.504 30.828 233.651 30.828 227.796 30.828C227.674 30.828 227.553 30.828 227.396 30.828V12.2031ZM242.309 21.5029C242.309 21.5029 242.294 21.5029 242.287 21.5029C242.287 19.8196 242.281 18.1345 242.292 16.4512C242.294 16.0801 242.216 15.9263 241.776 15.9281C238.459 15.948 235.142 15.948 231.823 15.919C231.271 15.9136 231.115 16.0729 231.119 16.6105C231.142 19.9246 231.14 23.2387 231.131 26.5509C231.131 26.9564 231.311 27.0143 231.658 27.0143C235.048 27.0197 238.438 27.0306 241.827 27.0595C242.24 27.0632 242.314 26.9003 242.31 26.5509C242.3 24.8676 242.305 23.1844 242.305 21.4992L242.309 21.5029Z" fill="#80889C"/>
<path d="M71.1816 30.8423V12.2266H89.865C89.865 12.4202 89.865 12.6103 89.865 12.8021C89.865 18.5688 89.865 24.3336 89.865 30.1002C89.865 30.8224 89.865 30.8242 89.1275 30.8279C88.2755 30.8333 87.4236 30.817 86.5734 30.8441C86.1629 30.8568 86.0539 30.7211 86.0593 30.3192C86.0848 28.207 86.0684 26.0929 86.0957 23.9807C86.1011 23.5336 85.9394 23.4485 85.5289 23.4503C82.1755 23.4612 78.8239 23.4594 75.4706 23.4449C75.0818 23.4449 74.9329 23.5318 74.9383 23.9517C74.9655 26.064 74.9492 28.178 74.9746 30.2903C74.9801 30.7012 74.8838 30.8641 74.4351 30.8514C73.3706 30.8224 72.3043 30.8423 71.1816 30.8423ZM80.5806 15.9407V15.9334C78.9329 15.9334 77.2835 15.9334 75.6359 15.9334C74.9347 15.9334 74.9329 15.9334 74.931 16.652C74.9274 17.4574 74.9565 18.2629 74.9201 19.0665C74.9002 19.5136 75.0328 19.6566 75.4942 19.653C78.5006 19.6349 81.507 19.6439 84.5134 19.6439C84.9294 19.6439 85.3491 19.6765 85.7614 19.6331C85.8958 19.6186 86.1138 19.414 86.1156 19.2946C86.1284 18.2937 86.092 17.2909 86.0866 16.29C86.0848 15.9588 85.9122 15.9316 85.6342 15.9334C83.9503 15.9443 82.2663 15.9389 80.5806 15.9389V15.9407Z" fill="#80889C"/>
<path d="M205.074 21.5116C205.074 18.5758 205.081 15.64 205.066 12.7041C205.065 12.2879 205.179 12.1593 205.619 12.1612C211.453 12.1756 217.286 12.1756 223.121 12.1612C223.641 12.1612 223.777 12.3041 223.775 12.8254C223.755 18.6445 223.761 24.4619 223.775 30.281C223.775 30.6774 223.71 30.8529 223.248 30.8529C217.414 30.8367 211.581 30.833 205.746 30.8529C205.186 30.8529 205.063 30.7027 205.068 30.1597C205.099 27.2782 205.083 24.3949 205.083 21.5134C205.079 21.5134 205.077 21.5134 205.074 21.5134V21.5116ZM219.933 27.0339V15.9585C219.799 15.9495 219.695 15.9386 219.592 15.9368C216.169 15.9332 212.747 15.9368 209.324 15.9205C208.876 15.9187 208.832 16.1268 208.834 16.4816C208.849 19.8464 208.858 23.2093 208.849 26.5741C208.849 26.9633 209.016 27.0085 209.335 27.0085C211.726 27.0085 214.117 27.0248 216.507 27.0321C217.628 27.0357 218.749 27.0321 219.937 27.0321L219.933 27.0339Z" fill="#80889C"/>
<path d="M175.331 23.5318C175.331 24.625 175.318 25.6785 175.351 26.7301C175.355 26.8405 175.625 27.0287 175.774 27.0341C176.841 27.0613 177.909 27.0486 179.057 27.0486C179.057 28.0315 179.059 28.9545 179.057 29.8776C179.053 31.0397 179.122 30.8044 178.11 30.8279C177.331 30.846 176.552 30.817 175.772 30.8442C175.371 30.8568 175.235 30.7356 175.251 30.3265C175.286 29.4143 175.26 28.5002 175.273 27.588C175.278 27.2513 175.162 27.112 174.799 27.1192C173.771 27.1391 172.741 27.1265 171.602 27.1265C171.602 26.0386 171.567 25.007 171.618 23.9789C171.64 23.5264 171.458 23.463 171.097 23.4648C169.683 23.4703 168.27 23.4648 166.857 23.4648C166.023 23.4648 165.191 23.4648 164.264 23.4648V24.0133C164.264 26.0187 164.264 28.0242 164.264 30.0297C164.264 30.8225 164.264 30.8243 163.491 30.8297C162.657 30.8351 161.823 30.8206 160.991 30.8442C160.604 30.855 160.457 30.7609 160.459 30.3374C160.473 24.4821 160.471 18.6267 160.455 12.7732C160.455 12.3461 160.53 12.1632 161.007 12.1651C166.951 12.1795 172.895 12.1777 178.839 12.1813C178.89 12.1813 178.94 12.2049 179.026 12.2266C179.037 12.3804 179.057 12.5343 179.057 12.69C179.057 16.0746 179.049 19.4593 179.068 22.8422C179.069 23.311 178.944 23.4721 178.463 23.454C177.649 23.425 176.831 23.454 176.018 23.4666C175.807 23.4703 175.596 23.5065 175.331 23.5336V23.5318ZM164.293 19.6512C164.749 19.6512 165.162 19.6512 165.574 19.6512C168.621 19.653 171.665 19.6566 174.711 19.6566C175.017 19.6566 175.345 19.7127 175.327 19.2186C175.293 18.3064 175.286 17.3923 175.289 16.4801C175.291 16.0909 175.209 15.928 174.744 15.9316C171.409 15.9516 168.074 15.9316 164.737 15.9298C164.597 15.9298 164.459 15.9516 164.293 15.966V19.653V19.6512Z" fill="#80889C"/>
<path d="M156.77 27.0359C156.77 28.2558 156.762 29.3653 156.773 30.473C156.777 30.8568 156.548 30.8459 156.272 30.8441C154.513 30.8368 152.755 30.835 150.997 30.835C146.882 30.835 142.768 30.8278 138.653 30.8477C138.155 30.8495 138.063 30.692 138.064 30.2323C138.079 24.4114 138.072 18.5922 138.07 12.7713C138.07 12.5957 138.086 12.422 138.097 12.2102C138.27 12.1957 138.408 12.1722 138.546 12.1722C144.401 12.1686 150.255 12.174 156.11 12.1577C156.623 12.1577 156.804 12.2826 156.771 12.8166C156.715 13.727 156.735 14.6428 156.73 15.5551C156.728 15.8628 156.621 15.9895 156.276 15.9877C152.107 15.9605 147.939 15.9478 143.77 15.9334C143.318 15.9334 142.862 15.9551 142.412 15.9261C142.043 15.9026 141.932 16.0619 141.934 16.3949C141.939 17.3433 141.939 18.2936 141.923 19.242C141.916 19.6475 142.166 19.6475 142.461 19.6457C144.128 19.6366 145.796 19.6348 147.463 19.633C147.952 19.633 148.443 19.6475 148.931 19.6438C149.224 19.6402 149.353 19.7506 149.353 20.0565C149.353 21.0593 149.36 22.062 149.387 23.0647C149.4 23.5009 149.113 23.4466 148.842 23.4485C146.759 23.4503 144.673 23.4684 142.59 23.4448C142.106 23.4394 141.91 23.5335 141.941 24.0584C141.988 24.8621 141.974 25.6711 141.941 26.4748C141.923 26.9037 142.066 27.0232 142.497 27.0214C146.739 27.0141 150.98 27.0286 155.222 27.0359C155.707 27.0359 156.192 27.0359 156.773 27.0359H156.77Z" fill="#80889C"/>
<path d="M201.463 21.4864C201.463 24.3878 201.45 27.2874 201.474 30.1889C201.478 30.7156 201.32 30.8712 200.793 30.8459C199.888 30.8043 198.98 30.8151 198.075 30.8459C197.661 30.8604 197.546 30.7246 197.548 30.3282C197.568 25.7978 197.574 21.2674 197.583 16.737C197.583 15.9388 197.585 15.9424 196.794 15.9406C193.641 15.9388 190.487 15.9352 187.336 15.9297C186.493 15.9297 186.482 15.9243 186.485 16.7442C186.502 21.2022 186.522 25.6603 186.545 30.1201C186.549 30.826 186.556 30.8296 185.837 30.8332C184.985 30.8368 184.133 30.8115 183.283 30.8423C182.867 30.8567 182.756 30.7174 182.758 30.3228C182.776 24.7354 182.783 19.1497 182.791 13.5623C182.791 13.2401 182.787 12.9179 182.776 12.5957C182.765 12.288 182.869 12.1577 183.216 12.1577C189.123 12.1704 195.031 12.174 200.938 12.1613C201.389 12.1613 201.479 12.3224 201.478 12.7261C201.463 15.6456 201.47 18.5633 201.47 21.4828C201.468 21.4828 201.467 21.4828 201.463 21.4828V21.4864Z" fill="#80889C"/>
<path d="M97.2948 27.0449H112.096C112.096 27.4774 112.091 27.8775 112.096 28.2793C112.109 28.9417 112.107 29.6042 112.152 30.2648C112.185 30.7228 112.005 30.8458 111.562 30.844C107.92 30.8296 104.278 30.835 100.635 30.835C98.4247 30.835 96.2139 30.8259 94.0031 30.8458C93.5817 30.8495 93.4491 30.7463 93.4509 30.3047C93.4654 24.4674 93.4636 18.632 93.4473 12.7948C93.4473 12.3405 93.5326 12.1613 94.0322 12.1631C99.867 12.1776 105.702 12.1794 111.535 12.1667C112.034 12.1667 112.192 12.297 112.162 12.8002C112.107 13.6744 112.109 14.5541 112.122 15.4301C112.127 15.8175 112.022 15.9568 111.602 15.955C107.035 15.9351 102.47 15.9351 97.9033 15.9297C97.7089 15.9297 97.5146 15.9297 97.2893 15.9297V27.0449H97.2948Z" fill="#80889C"/>
<path d="M253.46 15.9784V16.6173C253.46 21.1315 253.451 25.6456 253.472 30.1579C253.474 30.7045 253.322 30.8674 252.771 30.8403C251.903 30.795 251.031 30.8222 250.163 30.8421C249.805 30.8511 249.654 30.7697 249.654 30.366C249.665 24.4727 249.665 18.5812 249.648 12.6878C249.648 12.2679 249.794 12.1648 250.179 12.1666C256.088 12.1738 261.997 12.1774 267.907 12.1611C268.45 12.1611 268.365 12.4725 268.363 12.7892C268.341 17.6255 268.314 22.46 268.301 27.2963C268.297 28.299 268.33 29.3018 268.363 30.3045C268.375 30.6828 268.268 30.8547 267.843 30.8421C266.92 30.8149 265.994 30.8131 265.071 30.8457C264.642 30.8602 264.555 30.6973 264.557 30.3154C264.575 26.3207 264.579 22.3279 264.588 18.3332C264.588 17.6708 264.582 17.0083 264.592 16.3458C264.595 16.049 264.466 15.9332 264.166 15.9332C260.686 15.9332 257.205 15.9295 253.725 15.9277C253.656 15.9277 253.589 15.9531 253.461 15.9802L253.46 15.9784Z" fill="#80889C"/>
<path d="M52.6497 23.51C52.6497 25.4503 52.6497 27.3273 52.6497 29.2043C52.6497 29.5988 52.6497 29.9916 52.6642 30.3862C52.6751 30.6903 52.5752 30.8514 52.2301 30.8459C51.2509 30.8314 50.2718 30.8242 49.2945 30.8387C48.9439 30.8441 48.873 30.6975 48.873 30.388C48.8948 25.2838 48.9094 20.1796 48.9203 15.0755C48.9203 14.3424 48.893 13.6076 48.8803 12.8745C48.8767 12.6645 48.8803 12.4546 48.8803 12.1795C50.0956 12.1795 51.2491 12.1686 52.399 12.2012C52.4916 12.203 52.6533 12.5071 52.6533 12.6718C52.6588 14.8384 52.6479 17.0049 52.6243 19.1715C52.6206 19.5099 52.6933 19.6493 53.0693 19.6493C56.4954 19.6439 59.9196 19.6566 63.3456 19.662C63.4528 19.662 63.56 19.6493 63.7416 19.6385V12.2193H67.5365C67.5365 12.8437 67.5365 13.4139 67.5365 13.9858C67.5455 19.4122 67.551 24.8386 67.5746 30.2649C67.5764 30.7029 67.4765 30.8658 67.006 30.8514C65.9579 30.8188 64.9079 30.8405 63.7925 30.8405V23.5082H52.6461L52.6497 23.51Z" fill="#80889C"/>
<path d="M119.516 12.2482C119.516 12.7225 119.518 13.1677 119.516 13.613C119.503 15.4936 119.496 17.3723 119.47 19.2529C119.463 19.7326 119.799 19.6439 120.068 19.6457C122.097 19.6547 124.128 19.6457 126.157 19.6584C127.027 19.6638 127.016 19.6783 127.004 18.8312C126.991 17.8864 127 16.9397 127 15.9062C127.901 15.9062 128.782 15.9026 129.661 15.9062C130.9 15.9135 130.755 16.0221 130.737 14.8148C130.724 13.9605 130.735 13.1044 130.735 12.1704C131.689 12.1704 132.641 12.1596 133.592 12.174C134.508 12.1885 134.475 12.0111 134.464 13.0356C134.455 13.8591 134.441 14.6827 134.446 15.5062C134.448 15.8809 134.305 15.9877 133.921 15.9768C132.893 15.9461 131.865 15.966 130.779 15.966V19.7796C129.676 19.7796 128.63 19.8032 127.587 19.7688C127.136 19.7543 127.035 19.9136 127.044 20.3226C127.067 21.3054 127.051 22.2901 127.051 23.3761H130.75V27.0558C131.863 27.0558 132.909 27.0775 133.954 27.0449C134.343 27.0323 134.466 27.1318 134.459 27.5119C134.443 28.4422 134.448 29.3744 134.468 30.3047C134.477 30.6866 134.366 30.855 133.943 30.8423C133.038 30.8151 132.13 30.8115 131.225 30.8423C130.795 30.8568 130.65 30.7373 130.675 30.2975C130.726 29.4396 130.699 28.578 130.746 27.7201C130.771 27.2531 130.622 27.0757 130.136 27.0884C129.126 27.1155 128.114 27.0974 127.015 27.0974V23.5444C126.724 23.51 126.515 23.4648 126.306 23.463C124.223 23.4521 122.137 23.4611 120.054 23.4358C119.607 23.4304 119.465 23.5553 119.474 24.0114C119.518 26.0693 119.51 28.1291 119.55 30.1889C119.559 30.6649 119.45 30.8676 118.926 30.8441C118.039 30.8061 117.149 30.8115 116.262 30.8441C115.828 30.8604 115.752 30.6866 115.752 30.3102C115.77 24.6702 115.776 19.0285 115.785 13.3885C115.785 13.3704 115.785 13.3523 115.785 13.3342C115.781 12.5547 116.182 12.1656 116.987 12.1668C117.767 12.1686 118.546 12.1758 119.325 12.1849C119.376 12.1849 119.427 12.2157 119.516 12.2446V12.2482Z" fill="#80889C"/>
<path d="M33.8773 26.8964C33.8773 23.89 33.8864 20.8818 33.8718 17.8754C33.8718 17.5224 33.7465 17.1695 33.6793 16.8184L33.6738 16.822C34.8292 16.822 35.9863 16.822 37.2107 16.822V20.0872C38.1789 20.0872 39.0799 20.1107 39.9791 20.0782C40.4605 20.0601 40.6095 20.2157 40.5877 20.6899C40.5532 21.4212 40.5659 22.1596 40.6095 22.8909C40.6349 23.3108 40.5277 23.4701 40.0827 23.4574C39.1599 23.4303 38.2352 23.4502 37.2343 23.4502V26.8801H33.8609L33.8791 26.8982L33.8773 26.8964Z" fill="#80889C"/>
<path d="M3.72435 26.8729C2.78519 26.853 1.84784 26.8276 0.908672 26.815C0.583507 26.8095 0.367335 26.7625 0.369152 26.3462C0.381868 23.233 0.372785 20.1216 0.372785 17.0084C0.372785 16.9577 0.394584 16.9071 0.418199 16.8003C1.52449 16.8003 2.63804 16.8003 3.7516 16.8003C3.7516 16.8003 3.73343 16.784 3.73343 16.7858C3.72799 20.1524 3.72072 23.519 3.71345 26.8855L3.72435 26.8747V26.8729Z" fill="#80889C"/>
<path d="M3.71289 26.884C4.63207 26.884 5.55307 26.8984 6.47226 26.8713C6.89552 26.8586 6.9809 27.0233 6.97726 27.407C6.96091 29.4578 6.97 31.5103 6.97 33.561L6.98453 33.5465C5.92002 33.5465 4.85551 33.5465 3.72379 33.5465C3.72379 31.2913 3.72379 29.0813 3.72379 26.8713L3.71289 26.8821V26.884Z" fill="#80889C"/>
<path d="M33.86 26.8785C33.8382 28.6469 33.8146 30.4153 33.7946 32.1836C33.7892 32.6235 33.7946 33.0651 33.7946 33.5176H30.652C30.652 33.1701 30.6556 32.8388 30.652 32.5094C30.6338 30.8117 30.6284 29.1139 30.5848 27.4161C30.5721 26.96 30.7119 26.8297 31.1661 26.8514C32.0689 26.8948 32.9736 26.884 33.8782 26.8948L33.86 26.8785Z" fill="#80889C"/>
</g>
<defs>
<clipPath id="clip0_12099_81401">
<rect width="268" height="43" fill="white" transform="translate(0.369141)"/>
</clipPath>
</defs>
</svg>
