<svg width="242" height="46" viewBox="0 0 242 46" fill="none" xmlns="http://www.w3.org/2000/svg">
<path fill-rule="evenodd" clip-rule="evenodd" d="M23.1546 45.5709C35.7387 45.5709 45.9401 35.3695 45.9401 22.7855C45.9401 10.2014 35.7387 0 23.1546 0C10.5705 0 0.369141 10.2014 0.369141 22.7855C0.369141 35.3695 10.5705 45.5709 23.1546 45.5709ZM13.2823 35.6421C13.4332 36.6787 13.7667 37.643 14.3823 38.5602C14.4538 38.5115 14.5221 38.4656 14.588 38.4212C14.7205 38.332 14.8437 38.2491 14.9647 38.1628C15.2631 37.95 15.5611 37.7369 15.8591 37.5237C16.7308 36.9003 17.6022 36.2771 18.4819 35.665C18.6116 35.5749 18.8316 35.5463 18.9895 35.5821C19.3394 35.6613 19.6871 35.7526 20.0347 35.8438C20.5685 35.9839 21.1022 36.1239 21.6436 36.2205C23.2055 36.4985 24.7715 36.4349 26.3221 36.0882C29.0862 35.4699 31.4173 34.093 33.3373 31.987C34.6186 30.5816 35.5768 28.9803 36.2227 27.1853C36.6592 25.9736 36.8778 24.714 37.0223 23.4365C37.1584 22.2356 36.8418 21.2448 35.8835 20.4641C35.0099 19.7521 34.0213 19.2918 32.9749 18.9393C31.4681 18.4318 29.9168 18.1794 28.331 18.0686C26.4702 17.9392 24.6199 17.9914 22.8007 18.3839C22.0208 18.5523 21.257 18.7952 20.4931 19.0382C20.1057 19.1615 19.7183 19.2847 19.3287 19.3983C18.2428 19.715 17.2556 19.5055 16.4116 18.7449C15.538 17.9571 15.2538 16.947 15.4082 15.7525C16.5202 16.4159 17.678 16.7354 18.9472 16.5688C20.2115 16.403 21.2833 15.8783 22.1682 14.9175C22.1371 14.8814 22.1092 14.8484 22.0833 14.8178C22.0278 14.7522 21.9815 14.6975 21.932 14.6459C21.7591 14.4652 21.5861 14.2844 21.4132 14.1036C20.7768 13.4384 20.1402 12.773 19.5015 12.1102C17.9502 10.5004 16.3968 8.89191 14.8427 7.28489C14.4859 6.91603 14.4683 6.91102 14.1531 7.3235C13.0158 8.81113 12.6075 10.4818 13.0552 12.3154C13.1647 12.7656 13.3473 13.1974 13.5348 13.6407C13.6216 13.8458 13.7093 14.0533 13.7914 14.2663C13.7721 14.2833 13.7497 14.3039 13.7249 14.3267C13.6656 14.3813 13.5926 14.4485 13.515 14.51C12.1393 15.5988 11.1775 16.987 10.5796 18.6441C9.87303 20.6021 9.91463 22.6123 10.2143 24.6254C10.6226 27.3676 11.7903 29.7581 13.5862 31.8433C13.6623 31.9313 13.6898 32.1272 13.6511 32.2422C13.2752 33.3496 13.1131 34.4755 13.2823 35.6421ZM20.4841 34.5645C20.4347 34.5522 20.3806 34.5388 20.3194 34.5241L20.3201 34.5234C20.5888 34.331 20.8529 34.1426 21.1136 33.9566C21.689 33.5461 22.2477 33.1475 22.8028 32.7441C23.1219 32.5122 23.4442 32.2841 23.7666 32.0559C24.5891 31.4739 25.4118 30.8917 26.1818 30.2456C27.243 29.3549 27.8543 28.1232 28.2428 26.7921C28.546 25.7534 29.0566 24.8827 30.0007 24.318C30.5486 23.9906 31.143 23.8254 31.7741 23.8204C32.6925 23.8128 33.6108 23.8147 34.5292 23.8167C34.8088 23.8173 35.0885 23.8179 35.3681 23.8183C35.3951 23.8183 35.4224 23.8235 35.4734 23.8332C35.505 23.8392 35.5456 23.8469 35.6008 23.8562C35.5666 24.0858 35.5381 24.3154 35.5098 24.544C35.4487 25.0362 35.3882 25.5239 35.2722 25.9979C34.7067 28.3033 33.4516 30.1856 31.7276 31.7697C30.4858 32.9114 29.0855 33.8006 27.4926 34.3061C26.5865 34.5934 25.6219 34.7528 24.6728 34.8229C23.3641 34.9187 22.0441 34.8908 20.7446 34.6256C20.6636 34.6089 20.5833 34.589 20.4841 34.5645ZM25.1347 21.6508C25.5436 21.9789 25.825 22.8482 25.4083 23.3601V23.3608C24.6658 22.8468 23.912 22.8325 23.1688 23.3701C22.8134 22.8418 22.9185 22.1126 23.4057 21.673C23.9127 21.2155 24.596 21.2183 25.1347 21.6508Z" fill="#80889C"/>
<path d="M69.1381 13.6059C70.5089 17.9037 71.8761 22.1893 73.2722 26.5664C73.3992 26.1925 73.5021 25.9023 73.5966 25.6099C74.8602 21.7218 76.1259 17.8336 77.3789 13.9419C77.4628 13.6817 77.5671 13.5945 77.8393 13.5988C79.0486 13.6159 80.2579 13.6059 81.5109 13.6059C81.2345 14.4702 80.97 15.303 80.7021 16.1344C79.0394 21.2843 77.3739 26.4335 75.719 31.5855C75.6259 31.8757 75.5096 31.993 75.1881 31.9865C73.9315 31.9636 72.6736 31.9679 71.4171 31.9844C71.1442 31.988 71.0419 31.8957 70.9594 31.6377C69.7121 27.7317 68.452 23.8299 67.1941 19.9275C67.1659 19.8395 67.1327 19.7538 67.0827 19.6101C66.4445 21.5295 65.8247 23.3889 65.2078 25.2489C64.4977 27.3892 63.7876 29.5288 63.0861 31.6713C63.0134 31.8936 62.9232 31.988 62.6714 31.9851C61.379 31.9694 60.0865 31.9751 58.794 31.9801C58.6015 31.9808 58.4823 31.9565 58.409 31.7299C56.4791 25.7601 54.5393 19.7931 52.6023 13.8261C52.584 13.7704 52.579 13.711 52.5586 13.6059C52.7462 13.6059 52.9168 13.6059 53.0867 13.6059C54.2382 13.6059 55.3897 13.6159 56.5411 13.5988C56.8133 13.5945 56.924 13.6824 57.0058 13.9405C58.2771 17.973 59.559 22.0027 60.8388 26.0331C60.8734 26.1418 60.9136 26.249 60.982 26.4478C61.1131 26.0739 61.2196 25.7836 61.3169 25.4906C62.5911 21.6439 63.8659 17.7979 65.1323 13.9484C65.2141 13.7003 65.3156 13.5952 65.5928 13.5995C66.7668 13.6174 67.9408 13.6074 69.1381 13.6074V13.6059Z" fill="#80889C"/>
<path d="M195.191 16.4808C194.281 17.3329 193.401 18.1557 192.586 18.9177C191.871 18.4338 191.231 17.8926 190.505 17.5302C188.081 16.3206 184.338 16.8003 182.694 19.6347C180.977 22.5971 181.834 27.7392 186.637 28.5784C188.048 28.825 189.42 28.6377 190.734 28.0373C190.958 27.935 191.039 27.8014 191.037 27.549C191.025 26.0242 191.03 24.4994 191.03 22.9739C191.03 22.833 191.03 22.6929 191.03 22.5257H194.84C194.847 22.6508 194.86 22.7651 194.86 22.8795C194.861 25.1313 194.856 27.3832 194.867 29.635C194.868 29.8802 194.788 30.021 194.593 30.1547C192.388 31.6659 189.938 32.3086 187.298 32.2793C185.099 32.2542 183.064 31.6731 181.299 30.3213C178.547 28.211 177.434 25.3401 177.69 21.8994C178.006 17.6617 180.967 14.4112 185.181 13.5541C187.972 12.9865 190.677 13.2682 193.184 14.7579C193.939 15.2062 194.595 15.7773 195.191 16.4808Z" fill="#80889C"/>
<path d="M140.611 31.9633H136.568C136.568 31.8096 136.568 31.6716 136.568 31.5329C136.569 29.2575 136.576 26.9814 136.566 24.706C136.564 24.2556 136.536 23.7974 136.451 23.357C136.189 22.0002 135.307 21.2568 133.943 21.1967C131.986 21.1109 130.656 22.2604 130.457 24.2356C130.407 24.7317 130.416 25.235 130.415 25.7347C130.412 27.6648 130.415 29.5949 130.417 31.5251C130.417 31.6645 130.417 31.8039 130.417 31.9611H126.385V12.5361H130.412V19.3088C130.606 19.1443 130.725 19.04 130.848 18.9406C132.886 17.3043 136.34 17.2156 138.451 18.7504C139.744 19.6905 140.324 21.0359 140.52 22.5821C140.586 23.1004 140.603 23.6273 140.605 24.1505C140.615 26.6047 140.611 29.0595 140.612 31.5136C140.612 31.6545 140.612 31.7953 140.612 31.964L140.611 31.9633Z" fill="#80889C"/>
<path d="M157.863 26.0903H147.278C147.515 27.1769 148.118 27.9068 149.021 28.4015C150.459 29.1892 153.061 29.1421 154.538 27.7266C154.596 27.6709 154.663 27.6223 154.751 27.5486C155.463 28.3321 156.168 29.1078 156.884 29.8955C156.31 30.5954 155.632 31.1337 154.83 31.4525C151.957 32.5949 149.103 32.5441 146.435 30.9178C143.797 29.3101 142.906 26.7773 143.29 23.7713C143.698 20.5808 146.226 18.136 149.385 17.745C151.131 17.5284 152.817 17.6992 154.371 18.5771C156.657 19.8688 157.717 21.9291 157.86 24.5233C157.889 25.0302 157.865 25.5391 157.865 26.091L157.863 26.0903ZM154.028 23.6691C153.949 21.9527 152.334 20.6659 150.385 20.7581C148.363 20.8539 147.282 22.4717 147.269 23.6691H154.028Z" fill="#80889C"/>
<path d="M237.331 17.8767H241.37V31.9574H237.56V30.3797C237.438 30.459 237.369 30.4905 237.319 30.5405C235.969 31.8694 234.332 32.3077 232.499 32.1547C231.288 32.0539 230.175 31.685 229.226 30.8979C228.088 29.9558 227.553 28.684 227.38 27.2421C227.308 26.6409 227.286 26.0311 227.283 25.4249C227.271 23.0545 227.276 20.6847 227.273 18.3142C227.273 18.1748 227.273 18.0347 227.273 17.8767H231.322C231.322 18.0354 231.322 18.1748 231.322 18.3135C231.322 20.6954 231.299 23.078 231.338 25.46C231.348 26.0526 231.494 26.6645 231.691 27.2264C231.943 27.9427 232.517 28.3666 233.249 28.5432C235.439 29.0722 237.221 27.7354 237.307 25.4228C237.373 23.6742 237.328 21.9221 237.331 20.1707C237.333 19.4208 237.331 18.6716 237.331 17.876V17.8767Z" fill="#80889C"/>
<path d="M212.436 31.9651H208.617V30.366C208.261 30.6598 207.979 30.9228 207.668 31.1452C206.505 31.9766 205.193 32.2582 203.793 32.1724C202.199 32.0745 200.784 31.5626 199.703 30.3081C198.837 29.3037 198.495 28.0884 198.398 26.7945C198.342 26.0475 198.345 25.2954 198.341 24.5455C198.333 22.4731 198.335 20.4008 198.334 18.3284C198.334 18.1875 198.334 18.046 198.334 17.8809H202.397C202.397 18.0167 202.397 18.1525 202.397 18.2883C202.393 20.5394 202.373 22.7905 202.397 25.0409C202.403 25.665 202.479 26.3034 202.634 26.906C202.862 27.7903 203.468 28.3465 204.363 28.5502C206.623 29.0642 208.367 27.6345 208.397 25.1975C208.426 22.9114 208.403 20.6238 208.403 18.3377C208.403 18.1961 208.403 18.0539 208.403 17.8837H212.436V31.9644V31.9651Z" fill="#80889C"/>
<path d="M96.2323 31.9659H92.4352V30.4225C92.0016 30.79 91.613 31.211 91.1441 31.4977C90.0223 32.1847 88.7636 32.2504 87.4937 32.1568C86.4205 32.0782 85.4094 31.7822 84.5449 31.1074C83.2313 30.0815 82.7842 28.6961 83.0754 27.0805C83.3603 25.5 84.3912 24.5471 85.8621 24.1282C86.7012 23.8887 87.5868 23.7679 88.4583 23.7107C89.5463 23.6392 90.6428 23.6885 91.7357 23.6857C91.8634 23.6857 91.991 23.6857 92.113 23.6857C92.3076 22.6455 91.6081 21.5789 90.7789 21.2387C89.6979 20.7947 88.5972 20.8405 87.4888 21.0757C86.5834 21.268 85.7415 21.6175 84.9616 22.2245C84.4737 21.2644 83.9984 20.3294 83.4823 19.3143C84.0873 19.0154 84.6549 18.6795 85.2606 18.4471C87.4676 17.6014 89.7367 17.3927 92.0396 17.9632C94.4935 18.5708 95.9375 20.3058 96.1554 22.8678C96.2189 23.6142 96.2196 24.3669 96.2231 25.1168C96.233 27.2493 96.2295 29.381 96.2309 31.5134C96.2309 31.6535 96.2309 31.7944 96.2309 31.9666L96.2323 31.9659ZM92.1271 26.1005C91.0666 26.1005 90.0018 26.0776 88.9392 26.1126C88.55 26.1255 88.1502 26.2341 87.7828 26.3728C87.2533 26.573 86.9755 27.0083 86.9346 27.5802C86.8915 28.1836 87.0981 28.6768 87.6101 29.0164C88.2122 29.416 88.8892 29.4703 89.5745 29.4039C91.1032 29.2559 92.5657 28.2908 92.1278 26.1005H92.1271Z" fill="#80889C"/>
<path d="M124.041 21.2675C123.017 21.8251 121.989 22.3848 120.969 22.9403C120.715 22.6171 120.507 22.2969 120.245 22.0295C119.196 20.9601 117.915 20.7835 116.563 21.2139C115.223 21.6406 114.462 22.64 114.222 24.0376C114.092 24.7982 114.108 25.5602 114.339 26.3008C114.801 27.7849 115.827 28.6149 117.331 28.7964C118.772 28.9701 119.935 28.4533 120.741 27.1958C120.786 27.1258 120.827 27.0536 120.872 26.9842C120.884 26.9649 120.905 26.9514 120.959 26.8999C121.976 27.4603 123.009 28.0294 124.062 28.6098C123.524 29.8123 122.695 30.6944 121.58 31.2842C119.487 32.3915 117.298 32.4394 115.081 31.7653C113.34 31.2363 111.963 30.1876 111.018 28.5941C109.165 25.4723 109.72 20.0136 114.771 18.1857C117.061 17.3572 119.365 17.4094 121.578 18.5388C122.716 19.1193 123.684 20.2159 124.042 21.2675H124.041Z" fill="#80889C"/>
<path d="M98.2266 18.1817H100.329V14.7646H104.389V18.166H107.836V21.32H104.42C104.411 21.4758 104.399 21.5909 104.398 21.7067C104.396 23.4338 104.394 25.1616 104.394 26.8887C104.394 27.0675 104.399 27.2462 104.416 27.4242C104.499 28.3027 105.063 28.8518 105.931 28.9154C106.584 28.9626 107.188 28.8232 107.758 28.4107C108.125 29.3843 108.48 30.3244 108.844 31.2873C108.349 31.6626 107.795 31.8656 107.208 32C106.054 32.2652 104.897 32.2638 103.752 31.9736C101.757 31.4675 100.522 30.0556 100.417 27.9718C100.314 25.9394 100.356 23.8999 100.336 21.8633C100.334 21.6988 100.336 21.5344 100.336 21.3307H98.2266V18.1817Z" fill="#80889C"/>
<path d="M216.225 17.8739H220.066V19.6818C221.351 18.1306 222.98 17.6859 224.814 17.6616V21.3889C224.472 21.3889 224.136 21.3839 223.8 21.3896C221.618 21.4254 220.284 22.7522 220.256 24.969C220.23 27.1486 220.249 29.3282 220.249 31.5085C220.249 31.6494 220.249 31.7895 220.249 31.9539H216.225V17.8739Z" fill="#80889C"/>
<path d="M160.584 17.8518C161.788 17.8518 162.96 17.8518 164.133 17.8525C164.213 17.8525 164.293 17.8675 164.424 17.8811V19.6797C165.714 18.1341 167.34 17.6845 169.174 17.6616V21.3896C168.81 21.3896 168.451 21.3839 168.091 21.3904C166.096 21.4282 164.837 22.5978 164.639 24.6087C164.603 24.9747 164.602 25.3457 164.602 25.7146C164.599 27.6433 164.601 29.572 164.601 31.5007V31.9503H160.585V17.8511L160.584 17.8518Z" fill="#80889C"/>
<path d="M170.732 29.6068C170.734 28.1406 171.769 27.1055 173.234 27.1055C174.712 27.1055 175.752 28.1535 175.746 29.6368C175.739 31.0973 174.656 32.1932 173.223 32.1874C171.799 32.1824 170.731 31.0758 170.732 29.6068Z" fill="#80889C"/>
</svg>
