<?xml version="1.0" standalone="no"?>
<!DOCTYPE svg PUBLIC "-//W3C//DTD SVG 1.1//EN" "http://www.w3.org/Graphics/SVG/1.1/DTD/svg11.dtd" >
<svg xmlns="http://www.w3.org/2000/svg" xmlns:xlink="http://www.w3.org/1999/xlink" version="1.1">
<metadata>
Created by FontForge 20201107 at Mon Aug  9 17:42:54 2021
 By Jimmy Wärting
\(c\) 2020, Copyright by Lineto. All rights reserved.
</metadata>
<defs>
<font id="Circular-MediumItalic" horiz-adv-x="578" >
  <font-face 
    font-family="Circular"
    font-weight="500"
    font-style="italic"
    font-stretch="normal"
    units-per-em="1000"
    panose-1="2 11 6 4 1 1 1 1 1 4"
    ascent="800"
    descent="-200"
    x-height="487"
    cap-height="709"
    bbox="-257 -229 1182 907"
    underline-thickness="50"
    underline-position="-175"
    slope="-12"
    stemh="100"
    stemv="82"
    unicode-range="U+000D-FEFF"
  />
<missing-glyph horiz-adv-x="748" 
d="M116 709h542v-709h-542v709zM562 96v517h-350v-517h350z" />
    <glyph glyph-name="f_f" unicode="ff" horiz-adv-x="658" 
d="M49 0l82 387h-82l21 100h83l18 86c7 32 17 58 30 79c13 20 27 36 44 48c17 11 35 19 54 24c19 4 37 6 56 6s36 -2 49 -6s21 -7 24 -9l-21 -96c0 -1 -3 1 -10 4s-18 4 -31 4c-19 0 -36 -5 -51 -15s-25 -28 -30 -54l-16 -71h187l18 86c7 32 17 58 30 79c13 20 27 36 44 48
c17 11 35 19 54 24c19 4 37 6 56 6s36 -2 49 -6s21 -7 24 -9l-21 -96c0 -1 -3 1 -10 4s-18 4 -31 4c-19 0 -36 -5 -51 -15s-25 -28 -30 -54l-15 -71h106l-21 -100h-107l-81 -387h-118l82 387h-186l-82 -387h-117z" />
    <glyph glyph-name="f_f_i" unicode="ffi" horiz-adv-x="910" 
d="M784 653c0 11 2 22 7 32s11 19 19 26c7 7 16 13 26 18c10 4 20 6 31 6c20 0 36 -6 49 -19s19 -28 19 -47c0 -12 -2 -23 -7 -33s-11 -19 -18 -26c-8 -8 -17 -14 -27 -18s-20 -6 -31 -6c-20 0 -36 7 -49 20s-19 28 -19 47zM49 0l82 387h-82l21 100h83l18 86
c7 32 17 58 30 79c13 20 27 36 44 48c17 11 35 19 54 24c19 4 37 6 56 6s36 -2 49 -6s21 -7 24 -9l-21 -96c0 -1 -3 1 -10 4s-18 4 -31 4c-19 0 -36 -5 -51 -15s-25 -28 -30 -54l-16 -71h187l18 86c7 32 17 58 30 79c13 20 27 36 44 48c17 11 35 19 54 24c19 4 37 6 56 6
s36 -2 49 -6s21 -7 24 -9l-21 -96c0 -1 -3 1 -10 4s-18 4 -31 4c-19 0 -36 -5 -51 -15s-25 -28 -30 -54l-15 -71h309l-104 -487h-115l83 387h-195l-81 -387h-118l82 387h-186l-82 -387h-117z" />
    <glyph glyph-name="f_f_l" unicode="ffl" horiz-adv-x="917" 
d="M49 0l82 387h-82l21 100h83l18 86c7 32 17 58 30 79c13 20 27 36 44 48c17 11 35 19 54 24c19 4 37 6 56 6s36 -2 49 -6s21 -7 24 -9l-21 -96c0 -1 -3 1 -10 4s-18 4 -31 4c-19 0 -36 -5 -51 -15s-25 -28 -30 -54l-16 -71h187l18 86c7 32 17 58 30 79c13 20 27 36 44 48
c17 11 35 19 54 24c19 4 37 6 56 6s36 -2 49 -6s21 -7 24 -9l-21 -96c0 -1 -3 1 -10 4s-18 4 -31 4c-19 0 -36 -5 -51 -15s-25 -28 -30 -54l-15 -71h200l51 237h115l-154 -724h-115l82 387h-201l-81 -387h-118l82 387h-186l-82 -387h-117z" />
    <glyph glyph-name="f_i" unicode="fi" horiz-adv-x="613" 
d="M166 0h-117l82 387h-82l21 100h83l19 89c7 31 16 57 29 77s28 36 44 47c17 11 34 19 53 24c19 4 38 6 57 6s35 -2 48 -6s22 -7 25 -9l-21 -96c0 -1 -4 1 -11 4s-18 4 -31 4c-20 0 -37 -5 -52 -16c-14 -11 -24 -30 -29 -56l-15 -68h316l-104 -487h-115l82 387h-200z
M487 653c0 11 2 22 7 32s11 19 18 26c8 7 17 13 27 18c10 4 20 6 31 6c20 0 36 -6 49 -19s19 -28 19 -47c0 -12 -2 -23 -7 -33s-11 -19 -19 -26c-7 -8 -16 -14 -26 -18s-20 -6 -31 -6c-20 0 -36 7 -49 20s-19 28 -19 47z" />
    <glyph glyph-name="f_l" unicode="fl" horiz-adv-x="613" 
d="M166 0h-117l82 387h-82l21 100h83l19 89c7 31 16 57 29 77s28 36 44 47c17 11 34 19 53 24c19 4 38 6 57 6s35 -2 48 -6s22 -7 25 -9l-21 -96c0 -1 -4 1 -11 4s-18 4 -31 4c-20 0 -37 -5 -52 -16c-14 -11 -24 -30 -29 -56l-15 -68h200l51 237h115l-154 -724h-115l82 387
h-200z" />
    <glyph glyph-name=".notdef" horiz-adv-x="748" 
d="M116 709h542v-709h-542v709zM562 96v517h-350v-517h350z" />
    <glyph glyph-name="NULL" horiz-adv-x="0" 
 />
    <glyph glyph-name="NULL" horiz-adv-x="0" 
 />
    <glyph glyph-name="CR" unicode="&#xd;" horiz-adv-x="239" 
 />
    <glyph glyph-name="space" unicode=" " horiz-adv-x="239" 
 />
    <glyph glyph-name="exclam" unicode="!" horiz-adv-x="262" 
d="M146 709h143l-134 -499h-84zM13 58c0 22 8 41 23 58c15 16 34 24 57 24c21 0 37 -6 49 -19s18 -28 18 -46c0 -23 -8 -43 -24 -58c-17 -16 -35 -24 -56 -24c-20 0 -36 6 -48 19c-13 13 -19 28 -19 46z" />
    <glyph glyph-name="quotedbl" unicode="&#x22;" horiz-adv-x="399" 
d="M115 618v11c-1 7 -1 12 -1 16c0 21 7 39 21 53c13 15 31 22 53 22c19 0 35 -6 47 -17c11 -11 17 -26 17 -43c0 -6 -1 -12 -2 -19c-2 -7 -4 -13 -7 -18l-83 -179h-41zM296 618v27c0 21 7 39 20 53c13 15 31 22 54 22c19 0 35 -6 47 -17c11 -11 17 -26 17 -43
c0 -6 -1 -12 -3 -19s-4 -13 -7 -18l-83 -179h-41z" />
    <glyph glyph-name="numbersign" unicode="#" horiz-adv-x="714" 
d="M402 182h-142l-38 -182h-93l37 182h-127v87h146l36 169h-130v87h147l39 184h94l-39 -184h142l39 184h94l-39 -184h134v-87h-152l-35 -169h134v-87h-153l-37 -182h-94zM279 269h142l35 169h-142z" />
    <glyph glyph-name="dollar" unicode="$" horiz-adv-x="563" 
d="M106 499c0 31 6 58 18 83c11 25 27 46 47 64c19 18 42 32 68 43s53 17 82 19h8l23 111h95l-25 -121c27 -7 49 -18 68 -32c18 -14 33 -30 44 -47s20 -35 25 -54c5 -18 7 -35 7 -52l-107 -19c0 9 -1 20 -4 33s-9 26 -18 38s-22 22 -38 30c-16 9 -37 13 -64 13
c-16 0 -31 -3 -45 -8s-26 -11 -36 -20c-11 -9 -19 -19 -25 -31s-9 -25 -9 -38c0 -22 6 -40 17 -53s27 -24 46 -33l83 -36c48 -21 83 -47 106 -77c22 -30 33 -65 33 -105c0 -27 -5 -52 -16 -77c-11 -24 -26 -46 -45 -65s-43 -34 -70 -46c-28 -11 -59 -18 -94 -19h-6l-24 -115
h-96l26 126c-27 7 -51 18 -71 32c-21 14 -37 30 -50 48s-23 37 -29 58c-7 21 -10 41 -10 62c0 13 1 24 3 34l106 20c-2 -9 -3 -20 -3 -31c0 -18 3 -35 9 -51c5 -17 14 -31 25 -43s26 -21 44 -28c17 -7 38 -11 61 -11c37 0 66 9 89 26c22 17 33 41 33 71c0 18 -5 35 -14 50
s-27 27 -52 38l-89 37c-43 18 -74 42 -95 72c-21 29 -31 64 -31 104z" />
    <glyph glyph-name="percent" unicode="%" horiz-adv-x="860" 
d="M686 709h107l-592 -709h-107zM266 719c21 0 40 -4 58 -11c18 -8 34 -18 47 -31s24 -29 31 -46c7 -18 11 -37 11 -57c0 -25 -5 -49 -15 -70c-11 -22 -24 -41 -41 -56c-17 -16 -36 -28 -57 -37c-22 -9 -44 -13 -66 -13c-21 0 -41 4 -58 11c-18 7 -33 17 -46 30
s-23 29 -30 46c-7 18 -11 37 -11 57c0 25 5 48 15 70c9 21 22 40 38 56s35 29 56 38s44 13 68 13zM242 484c20 0 38 8 55 23c16 15 24 36 24 62c0 19 -6 34 -17 46c-11 11 -27 17 -46 17c-20 0 -38 -8 -53 -23c-16 -15 -24 -36 -24 -61c0 -19 5 -34 16 -45
c11 -12 26 -18 45 -19zM652 311c21 0 40 -4 58 -11c18 -8 34 -18 47 -31s23 -29 30 -46c7 -18 11 -37 11 -57c0 -25 -5 -49 -15 -70c-11 -22 -24 -41 -41 -56c-17 -16 -36 -28 -57 -37s-43 -13 -65 -13c-21 0 -41 4 -58 11c-18 7 -33 18 -46 31s-24 28 -31 46
c-7 17 -11 36 -11 56c0 25 5 48 15 70c9 21 22 40 39 56c16 16 35 29 56 38s44 13 68 13zM628 76c20 0 38 8 54 23s24 36 24 62c0 19 -6 34 -17 46c-11 11 -27 17 -46 17c-10 0 -19 -2 -28 -6s-18 -10 -25 -17s-13 -16 -17 -26c-5 -11 -7 -22 -7 -35c0 -19 6 -34 17 -45
c11 -12 26 -18 45 -19z" />
    <glyph glyph-name="ampersand" unicode="&#x26;" horiz-adv-x="685" 
d="M476 0l-56 80l-11 -9c-30 -25 -60 -45 -89 -59c-29 -13 -63 -20 -101 -20c-31 0 -58 5 -82 14c-24 10 -44 23 -61 40s-30 36 -39 57s-14 44 -14 68c0 27 4 50 13 71c8 21 20 41 35 58s32 33 52 47c19 14 41 27 64 39l15 8l-11 15c-11 16 -22 35 -33 56
c-11 22 -17 47 -17 74c0 31 6 58 18 81s28 43 47 58s40 27 64 34c24 8 48 12 73 12c28 0 53 -4 75 -13c22 -8 41 -19 56 -34s27 -32 35 -51s12 -39 12 -61c0 -23 -4 -44 -12 -63c-9 -18 -19 -34 -32 -49c-13 -14 -28 -27 -45 -38s-33 -22 -50 -31l-28 -16l94 -135l211 180
l-33 -157l-122 -104l107 -152h-135zM141 178c0 -22 8 -41 25 -58c17 -16 39 -24 66 -24c21 0 43 6 64 17c21 12 41 26 60 42l8 6l-107 153l-35 -19c-28 -15 -48 -32 -61 -49s-20 -40 -20 -68zM333 464c29 15 48 31 59 47s16 33 16 50c0 19 -7 35 -20 47s-31 18 -53 18
c-9 0 -18 -2 -27 -5c-10 -3 -19 -7 -27 -14s-14 -15 -19 -26s-8 -23 -8 -38c0 -13 3 -26 8 -37s10 -22 17 -31l20 -29z" />
    <glyph glyph-name="quotesingle" unicode="'" horiz-adv-x="218" 
d="M115 618v11c-1 7 -1 12 -1 16c0 21 7 39 21 53c13 15 31 22 53 22c19 0 35 -6 47 -17c11 -11 17 -26 17 -43c0 -6 -1 -12 -2 -19c-2 -7 -4 -13 -7 -18l-83 -179h-41z" />
    <glyph glyph-name="parenleft" unicode="(" horiz-adv-x="329" 
d="M41 204c0 125 27 239 80 341s132 188 236 259l53 -72c-38 -28 -73 -60 -106 -95s-62 -74 -86 -117s-43 -91 -57 -142s-21 -107 -21 -168c0 -59 8 -115 25 -168s40 -103 69 -150l-79 -49c-15 23 -30 47 -44 74s-26 56 -36 87c-11 31 -19 63 -25 96s-9 68 -9 104z" />
    <glyph glyph-name="parenright" unicode=")" horiz-adv-x="327" 
d="M300 436c0 -124 -27 -236 -82 -337s-133 -187 -235 -260l-53 71c38 29 73 61 106 96s61 75 86 118s44 91 58 142s21 108 21 169c0 58 -8 114 -25 167c-16 53 -39 102 -68 148l79 49c33 -49 60 -103 81 -164s32 -128 32 -199z" />
    <glyph glyph-name="asterisk" unicode="*" horiz-adv-x="459" 
d="M335 579l126 40l12 -88l-128 -40l60 -100l-79 -53l-61 106l-99 -106l-66 54l100 105l-113 39l41 83l112 -40l21 130h99z" />
    <glyph glyph-name="plus" unicode="+" horiz-adv-x="562" 
d="M244 396v195h98v-195h189v-95h-189v-197h-98v197h-188v95h188z" />
    <glyph glyph-name="comma" unicode="," horiz-adv-x="276" 
d="M6 63c0 25 9 46 26 62s39 24 64 24s46 -8 62 -25c15 -16 23 -38 23 -66c0 -29 -5 -57 -16 -84c-11 -26 -26 -49 -45 -69s-42 -36 -68 -49c-27 -12 -55 -19 -85 -21l13 61c13 2 26 6 39 12s24 13 35 22s20 20 28 31c8 12 13 25 16 38c-5 -3 -13 -4 -23 -4
c-20 0 -36 6 -49 19s-20 29 -20 49z" />
    <glyph glyph-name="hyphen" unicode="-" horiz-adv-x="409" 
d="M52 241l22 103h281l-21 -103h-282z" />
    <glyph glyph-name="period" unicode="." horiz-adv-x="262" 
d="M81 -6c-23 0 -41 7 -54 22c-14 15 -21 32 -21 51c0 12 2 23 7 34s11 20 20 28c8 9 18 15 29 20s22 7 35 7c23 0 42 -7 55 -22c13 -14 19 -31 19 -50c0 -25 -9 -47 -26 -64c-18 -17 -39 -26 -64 -26z" />
    <glyph glyph-name="slash" unicode="/" horiz-adv-x="524" 
d="M73 -15h-113l516 739h114z" />
    <glyph glyph-name="zero" unicode="0" horiz-adv-x="668" 
d="M304 -15c-44 0 -82 8 -113 23s-57 36 -77 61c-20 26 -35 56 -44 89s-14 68 -14 104c0 33 3 67 8 102c6 36 15 71 26 105c12 35 27 67 45 98s39 58 64 81s54 42 85 55c32 14 68 21 107 21c45 0 84 -8 115 -23c32 -15 58 -36 77 -61c20 -25 34 -54 43 -87s13 -68 13 -103
c0 -52 -7 -105 -21 -160c-13 -55 -34 -105 -61 -150s-62 -82 -104 -111c-43 -30 -92 -44 -149 -44zM174 262c0 -50 11 -91 32 -122s56 -47 105 -47c39 0 71 12 98 37s48 56 65 93s29 76 36 117s11 79 11 112c0 25 -3 47 -8 67s-13 37 -24 51c-11 15 -25 26 -42 34
s-39 12 -64 12c-26 0 -49 -6 -70 -17c-20 -11 -38 -27 -53 -46s-29 -40 -40 -65c-11 -24 -20 -49 -27 -76c-7 -26 -12 -52 -15 -78s-4 -50 -4 -72z" />
    <glyph glyph-name="one" unicode="1" horiz-adv-x="366" 
d="M115 0l107 504h-154l16 78c45 3 85 15 120 38c34 23 59 52 74 89h105l-149 -709h-119z" />
    <glyph glyph-name="two" unicode="2" horiz-adv-x="606" 
d="M349 373c40 19 71 39 92 61c22 23 33 50 33 82c0 13 -2 26 -7 39c-4 13 -11 24 -20 33c-9 10 -21 18 -36 23c-14 6 -31 9 -52 9c-44 0 -79 -15 -105 -44s-39 -70 -39 -121v-8l-114 11v6c0 35 6 69 18 100c12 32 29 60 52 84c23 23 50 42 83 56c33 13 70 20 111 20
c39 0 72 -5 101 -15c29 -11 53 -25 72 -42c19 -18 33 -39 42 -62c9 -24 14 -49 14 -76c0 -59 -17 -108 -50 -148c-33 -39 -77 -72 -133 -98l-155 -72c-19 -9 -39 -23 -60 -40c-20 -17 -35 -38 -46 -63h374l-23 -108h-512l1 6c8 67 30 126 67 177c37 52 90 94 161 127z" />
    <glyph glyph-name="three" unicode="3" horiz-adv-x="608" 
d="M214 440l242 163h-335l22 106h483l-26 -130l-229 -154c22 -2 43 -8 64 -18c20 -9 38 -22 54 -38c15 -16 28 -35 37 -58c9 -22 13 -47 13 -74c0 -33 -6 -64 -19 -95c-13 -30 -31 -57 -54 -80c-24 -23 -53 -42 -86 -56c-34 -14 -72 -21 -113 -21c-40 0 -75 6 -106 19
s-57 29 -78 50s-36 44 -47 71s-16 54 -16 82v14c0 4 1 9 2 14l116 13c-1 -5 -2 -9 -2 -14v-12c0 -17 3 -34 8 -50s14 -30 25 -43c11 -12 24 -22 41 -29c16 -7 35 -11 56 -11s41 3 60 10c18 7 34 16 47 29c13 12 24 27 32 45c7 17 11 37 11 58c0 20 -4 37 -11 51
s-17 26 -28 35c-12 9 -25 15 -39 19c-15 4 -29 6 -44 6s-27 -2 -37 -5z" />
    <glyph glyph-name="four" unicode="4" horiz-adv-x="646" 
d="M30 293l399 416h152l-97 -445h128l-22 -107h-128l-31 -157h-117l30 157h-342zM436 581l-301 -317h232z" />
    <glyph glyph-name="five" unicode="5" horiz-adv-x="590" 
d="M17 211v3c0 2 0 4 1 5l114 22c-1 -3 -1 -6 -1 -9v-8c0 -17 3 -34 8 -50s13 -31 24 -44s24 -23 41 -31c16 -7 36 -11 59 -11c19 0 37 3 55 10s34 16 47 29c14 13 25 29 33 48c9 19 13 42 13 67c0 37 -11 67 -34 88s-53 32 -90 32c-24 0 -45 -4 -63 -11
c-17 -7 -33 -16 -47 -27l-105 61l151 324h384l-23 -107h-298l-79 -167c30 17 66 26 108 26c33 0 62 -5 89 -14s50 -23 69 -41c19 -17 33 -39 44 -64s16 -54 16 -87c0 -37 -7 -72 -20 -105s-32 -61 -56 -86c-24 -24 -53 -43 -86 -58c-33 -14 -70 -21 -111 -21
c-37 0 -70 6 -100 17s-55 27 -76 47s-38 44 -49 71c-12 28 -18 58 -18 91z" />
    <glyph glyph-name="six" unicode="6" horiz-adv-x="632" 
d="M601 592c-38 18 -81 27 -128 27c-69 0 -128 -19 -177 -57c-48 -38 -82 -90 -101 -157c17 19 40 34 68 46s60 18 95 18c34 0 65 -5 92 -15s51 -24 70 -42s33 -40 43 -65c10 -26 15 -54 15 -85c0 -43 -8 -81 -23 -116c-15 -34 -36 -63 -62 -87s-56 -42 -90 -55
s-70 -19 -107 -19c-33 0 -64 6 -94 17c-29 12 -55 29 -78 51c-22 23 -40 50 -53 83s-20 71 -20 114c0 62 10 121 29 178s47 108 83 152s80 79 132 105s111 39 177 39c33 0 65 -3 96 -10c31 -6 57 -16 78 -29zM326 369c-22 0 -42 -4 -61 -11c-19 -8 -35 -19 -49 -32
c-13 -13 -24 -29 -32 -48c-7 -19 -11 -39 -11 -61c0 -19 3 -36 10 -51c7 -16 16 -30 27 -41c12 -12 26 -21 42 -27c16 -7 33 -10 52 -10s37 4 55 11c19 7 35 17 49 30c15 13 26 30 35 49s13 42 13 67c0 38 -12 68 -35 91c-23 22 -55 33 -95 33z" />
    <glyph glyph-name="seven" unicode="7" horiz-adv-x="559" 
d="M608 600c-18 -12 -45 -33 -81 -62s-74 -68 -115 -117s-82 -108 -123 -177c-41 -70 -75 -151 -102 -244h-125c17 68 39 130 66 186c27 55 55 105 84 149s59 83 89 116s57 60 82 82c24 22 44 39 61 50c16 11 25 18 28 20h-385l23 106h521z" />
    <glyph glyph-name="eight" unicode="8" horiz-adv-x="614" 
d="M543 205c0 -34 -7 -65 -21 -92c-15 -27 -34 -51 -59 -70s-54 -33 -87 -43s-69 -15 -107 -15c-39 0 -73 5 -103 14c-30 10 -55 24 -75 41c-21 17 -36 38 -47 61s-16 49 -16 76c0 46 16 86 47 120c31 35 74 58 129 70c-12 5 -23 12 -34 21s-20 20 -28 33
c-9 13 -15 26 -20 41s-8 30 -8 45c0 33 7 62 21 89c13 27 32 50 55 69s51 33 82 43c31 11 64 16 99 16c37 0 69 -5 98 -14c28 -9 52 -22 71 -39c19 -16 34 -35 43 -57c10 -22 15 -45 15 -70c0 -44 -14 -83 -41 -116s-66 -57 -116 -70c33 -11 58 -31 76 -60
c17 -29 26 -60 26 -93zM342 408c39 0 72 11 98 34c25 22 38 51 38 87c0 25 -9 48 -28 67s-45 29 -80 29c-45 0 -79 -12 -104 -35c-24 -23 -36 -51 -36 -86c0 -13 2 -25 7 -36s12 -22 22 -31c9 -9 21 -16 35 -21s30 -8 48 -8zM148 188c0 -33 12 -58 36 -77
c23 -19 55 -28 94 -28c21 0 40 3 58 10c18 6 34 15 47 26s24 24 32 39c7 15 11 32 11 51c0 29 -10 54 -31 75s-53 31 -96 31c-22 0 -42 -3 -60 -9c-19 -7 -35 -15 -48 -26c-14 -11 -25 -25 -32 -40c-7 -16 -11 -33 -11 -52z" />
    <glyph glyph-name="nine" unicode="9" horiz-adv-x="635" 
d="M205 468c0 -37 11 -67 34 -90s54 -34 93 -34c22 0 42 4 60 11s33 18 46 31s24 29 31 48c7 18 11 38 11 60c0 19 -3 37 -10 52c-6 15 -15 29 -26 40s-25 19 -40 25s-32 9 -50 9c-19 0 -37 -3 -55 -10s-34 -16 -48 -29s-25 -29 -33 -48c-9 -19 -13 -40 -13 -65zM60 134
c23 -15 48 -26 73 -32c25 -7 51 -10 76 -10c35 0 67 6 96 17c30 11 56 26 78 46c23 20 41 44 55 72c15 27 24 58 28 91c-15 -21 -36 -39 -63 -53s-60 -21 -100 -21c-30 0 -58 5 -85 15s-50 24 -70 43s-36 41 -48 68c-11 26 -17 55 -17 88c0 41 8 78 23 111s36 61 61 84
c26 23 56 40 89 53c34 12 69 18 106 18c35 0 67 -5 96 -16c30 -11 56 -28 78 -50s39 -50 52 -83s19 -72 19 -116c0 -69 -9 -132 -27 -190c-17 -58 -43 -108 -77 -150s-76 -75 -126 -98c-49 -24 -106 -36 -169 -36c-35 0 -71 5 -107 14c-35 9 -65 24 -90 43z" />
    <glyph glyph-name="colon" unicode=":" horiz-adv-x="290" 
d="M91 -6c-22 0 -40 7 -54 22c-13 15 -20 31 -20 50c0 12 2 23 7 34s11 20 19 29c9 8 18 14 29 19c11 4 22 6 35 6c23 0 41 -7 54 -21s19 -31 19 -50c0 -25 -9 -46 -26 -63s-38 -26 -63 -26zM164 332c-22 0 -40 7 -54 22c-13 15 -20 31 -20 50c0 12 2 23 7 34s11 20 19 29
c9 8 18 14 29 19c11 4 22 6 35 6c23 0 41 -7 54 -21s19 -31 19 -50c0 -25 -9 -46 -26 -63s-38 -26 -63 -26z" />
    <glyph glyph-name="semicolon" unicode=";" horiz-adv-x="297" 
d="M15 61c0 25 8 45 24 60c17 15 37 23 62 23c24 0 43 -8 58 -23c15 -16 23 -38 23 -65c0 -28 -5 -54 -16 -79c-10 -25 -24 -48 -43 -67c-18 -19 -40 -35 -65 -46c-25 -12 -52 -19 -81 -21l13 59c12 1 24 5 36 11c13 6 24 13 34 22c11 8 20 18 27 29c8 11 13 23 16 36
c-5 -3 -13 -4 -22 -4c-19 0 -35 6 -47 19c-13 12 -19 27 -19 46zM168 334c-22 0 -40 7 -54 22c-13 15 -20 31 -20 50c0 12 2 23 7 34s11 20 19 29c9 8 18 14 29 19c11 4 22 6 35 6c23 0 41 -7 54 -21s19 -31 19 -50c0 -25 -9 -46 -26 -63s-38 -26 -63 -26z" />
    <glyph glyph-name="less" unicode="&#x3c;" horiz-adv-x="554" 
d="M53 394l422 213v-111l-302 -147l302 -148v-111l-422 211v93z" />
    <glyph glyph-name="equal" unicode="=" horiz-adv-x="655" 
d="M95 400v94h475v-94h-475zM95 203v95h475v-95h-475z" />
    <glyph glyph-name="greater" unicode="&#x3e;" horiz-adv-x="554" 
d="M525 301l-422 -211v110l303 148l-303 148v111l422 -212v-94z" />
    <glyph glyph-name="question" unicode="?" horiz-adv-x="519" 
d="M179 209c1 18 3 36 8 53c4 17 11 34 20 51s20 32 34 46c14 15 31 28 51 40l54 31c45 26 68 61 68 104c0 11 -2 21 -5 31c-4 11 -10 20 -18 28s-18 14 -30 19s-26 7 -43 7c-22 0 -41 -4 -57 -12s-29 -19 -39 -32c-11 -13 -19 -28 -24 -45s-8 -34 -8 -53l-111 14
c1 33 7 64 20 93c12 29 29 53 50 74s47 37 78 48c30 12 63 18 100 18c35 0 65 -5 91 -15c26 -9 48 -22 65 -38s30 -35 39 -56s13 -42 13 -64c0 -25 -3 -48 -10 -69c-7 -20 -17 -39 -30 -56s-27 -32 -44 -46c-17 -13 -35 -26 -55 -37l-50 -28c-43 -25 -66 -61 -70 -106h-97z
M139 58c0 22 8 41 23 57c15 17 34 25 57 25c21 0 37 -6 49 -19s18 -28 18 -46c0 -23 -8 -43 -24 -59c-17 -15 -35 -23 -56 -23c-20 0 -36 6 -48 19c-13 13 -19 28 -19 46z" />
    <glyph glyph-name="at" unicode="@" horiz-adv-x="833" 
d="M463 -47c-59 0 -112 9 -161 28c-49 18 -92 44 -127 77c-36 33 -64 72 -83 119c-20 47 -30 98 -30 155c0 58 10 111 31 160c21 48 49 89 85 124c35 34 77 61 124 80s98 28 151 28c51 0 99 -8 143 -25c43 -17 81 -39 113 -68s57 -64 76 -104c18 -40 27 -83 27 -130
c0 -38 -5 -73 -16 -104s-26 -58 -44 -81c-19 -23 -40 -41 -64 -54s-49 -20 -75 -20c-25 0 -45 6 -62 17s-28 25 -33 43c-13 -20 -31 -35 -53 -46s-44 -16 -66 -16s-42 4 -61 13c-19 8 -35 20 -48 35s-24 33 -31 54c-8 21 -12 45 -12 70c0 33 5 63 16 91s25 52 43 73
s39 37 63 48s49 17 76 17c19 0 39 -5 60 -14c20 -10 34 -25 42 -44l8 45h88l-53 -248c-1 -5 -1 -9 -1 -13c-1 -3 -1 -7 -1 -11c0 -9 3 -18 8 -25s14 -10 26 -10c13 0 25 5 38 14s24 22 33 38c9 17 17 36 23 57c6 22 9 45 9 70c0 36 -6 69 -19 99s-32 56 -56 77
c-24 22 -53 39 -86 51c-33 13 -70 19 -110 19c-43 0 -82 -8 -119 -23s-68 -36 -95 -63s-47 -59 -62 -97s-23 -80 -23 -127c0 -43 7 -82 21 -119c14 -36 34 -67 61 -94c26 -27 58 -48 96 -63s81 -22 130 -22c34 0 68 5 101 15c33 11 64 27 93 49l44 -61
c-14 -13 -30 -25 -49 -35c-19 -11 -39 -20 -60 -27s-43 -12 -65 -16s-43 -6 -64 -6zM525 368c0 27 -6 47 -19 62s-32 23 -56 23c-17 0 -32 -4 -45 -12c-13 -7 -25 -17 -34 -30c-10 -12 -17 -26 -22 -42c-5 -17 -8 -34 -8 -51c0 -28 6 -51 17 -70s31 -29 60 -29
c31 0 56 14 76 42c19 27 30 63 31 107z" />
    <glyph glyph-name="A" unicode="A" horiz-adv-x="696" 
d="M472 178h-285l-102 -178h-135l419 709h135l118 -709h-123zM250 289h205l-43 285z" />
    <glyph glyph-name="B" unicode="B" horiz-adv-x="612" 
d="M402 709c31 0 58 -4 81 -13c23 -8 43 -19 58 -34c16 -15 28 -32 36 -53c7 -20 11 -42 11 -65c0 -21 -3 -42 -10 -62c-7 -19 -16 -37 -28 -54c-13 -16 -27 -30 -44 -42s-36 -21 -57 -27c27 -9 50 -26 70 -51c19 -25 29 -55 29 -91c0 -31 -6 -60 -18 -87
c-12 -26 -29 -49 -50 -68c-22 -19 -48 -34 -77 -45c-30 -11 -63 -17 -99 -17h-278l150 709h226zM333 409c41 0 73 11 97 32c25 22 37 50 37 84c0 25 -8 45 -25 60c-16 15 -41 22 -74 22h-95l-42 -198h102zM287 102c20 0 39 3 56 9s32 14 44 24c13 11 22 23 29 38
s11 31 11 49c0 25 -8 46 -25 62c-16 16 -42 24 -78 24h-114l-44 -206h121z" />
    <glyph glyph-name="C" unicode="C" horiz-adv-x="729" 
d="M441 724c46 0 86 -6 121 -19c34 -13 63 -30 87 -51s43 -46 57 -73s24 -55 29 -84l-115 -35c-4 19 -11 38 -20 56s-22 34 -37 48c-15 13 -34 24 -55 33c-22 8 -47 12 -76 12c-37 0 -71 -8 -102 -23c-31 -16 -57 -37 -79 -64s-39 -59 -51 -95c-13 -37 -19 -76 -19 -118
c0 -32 5 -61 14 -87c9 -27 21 -49 38 -68s37 -33 62 -43c24 -10 51 -15 81 -15c51 0 93 14 127 41c33 27 60 61 79 104l106 -43c-12 -29 -28 -57 -47 -83c-20 -26 -43 -49 -70 -68c-27 -20 -57 -36 -91 -47c-35 -11 -73 -17 -115 -17c-45 0 -87 8 -124 24
c-38 15 -70 37 -97 66c-27 28 -48 62 -63 101s-23 81 -23 128c0 68 11 128 33 180s51 96 87 132c36 35 77 62 123 81c46 18 93 27 140 27z" />
    <glyph glyph-name="D" unicode="D" horiz-adv-x="712" 
d="M305 111c30 0 60 6 90 19s57 31 82 56s45 57 60 95s23 82 23 133c0 59 -17 104 -52 137s-83 49 -144 49h-91l-104 -489h136zM27 0l149 709h203c47 0 89 -7 126 -21s69 -34 95 -59c27 -25 47 -56 61 -92c14 -35 21 -75 21 -118c0 -69 -11 -129 -33 -181
c-21 -52 -50 -96 -85 -131s-76 -62 -121 -80s-92 -27 -140 -27h-276z" />
    <glyph glyph-name="E" unicode="E" horiz-adv-x="574" 
d="M26 0l150 709h435l-24 -112h-314l-40 -188h285l-24 -109h-284l-41 -188h315l-23 -112h-435z" />
    <glyph glyph-name="F" unicode="F" horiz-adv-x="568" 
d="M26 0l150 709h437l-24 -113h-317l-42 -199h284l-23 -111h-284l-61 -286h-120z" />
    <glyph glyph-name="G" unicode="G" horiz-adv-x="763" 
d="M433 612c-37 0 -70 -8 -101 -23s-58 -36 -80 -63c-23 -27 -40 -59 -53 -96s-19 -76 -19 -119c0 -33 5 -62 14 -89c9 -26 22 -49 39 -68s37 -33 61 -44c24 -10 51 -15 82 -15c25 0 50 4 73 11s43 18 62 32s35 31 48 50c13 20 23 42 30 66h-231l22 105h344l-76 -359h-92
l5 76c-23 -28 -52 -50 -85 -66s-72 -24 -116 -24c-43 0 -82 7 -119 22s-69 37 -96 64c-27 28 -49 61 -64 100s-23 83 -23 132c0 68 11 128 33 180s51 96 87 131c36 36 77 63 124 81c46 19 93 28 141 28c45 0 85 -6 120 -19c34 -13 63 -29 87 -50s43 -45 58 -72
c14 -27 24 -54 29 -83l-116 -34c-4 19 -11 37 -20 54c-9 18 -22 34 -37 48c-15 13 -34 24 -55 32c-22 8 -47 12 -76 12z" />
    <glyph glyph-name="H" unicode="H" horiz-adv-x="723" 
d="M452 0l64 303h-306l-64 -303h-120l150 709h120l-62 -293h306l62 293h121l-150 -709h-121z" />
    <glyph glyph-name="I" unicode="I" horiz-adv-x="298" 
d="M26 0l150 709h122l-150 -709h-122z" />
    <glyph glyph-name="J" unicode="J" horiz-adv-x="541" 
d="M548 709l-109 -512c-7 -32 -17 -61 -30 -86c-14 -26 -31 -48 -50 -67c-20 -19 -43 -33 -68 -43c-26 -10 -54 -15 -85 -15c-33 0 -61 5 -86 15c-25 9 -46 23 -63 40s-30 37 -39 61c-9 23 -14 49 -14 76c0 11 1 22 2 34s3 23 5 33l5 24l119 18l-11 -54c-1 -6 -2 -12 -3 -19
s-2 -14 -2 -20c0 -28 8 -51 23 -70s38 -28 69 -28c30 0 54 10 72 30c17 19 30 46 37 80l107 503h121z" />
    <glyph glyph-name="K" unicode="K" horiz-adv-x="669" 
d="M304 311l-114 -101l-44 -210h-120l150 709h120l-68 -319l359 319h166l-356 -315l210 -394h-139z" />
    <glyph glyph-name="L" unicode="L" horiz-adv-x="537" 
d="M26 0l150 709h120l-126 -595h316l-24 -114h-436z" />
    <glyph glyph-name="M" unicode="M" horiz-adv-x="942" 
d="M674 0l109 516l-321 -516h-93l-118 512l-109 -512h-116l150 709h145l124 -536l331 536h167l-151 -709h-118z" />
    <glyph glyph-name="N" unicode="N" horiz-adv-x="749" 
d="M477 0l-218 534l-113 -534h-120l150 709h140l205 -509l108 509h121l-151 -709h-122z" />
    <glyph glyph-name="O" unicode="O" horiz-adv-x="777" 
d="M57 299c0 69 11 130 33 183s51 97 86 133s76 63 121 82c45 18 92 27 139 27s89 -7 128 -22c38 -15 71 -37 98 -64c27 -28 47 -61 62 -100s22 -81 22 -128c0 -69 -11 -129 -32 -182c-22 -53 -51 -98 -86 -134c-36 -36 -77 -63 -122 -81c-45 -19 -91 -28 -138 -28
s-89 8 -127 23c-39 15 -71 37 -98 64s-48 60 -63 99s-23 81 -23 128zM624 401c0 33 -5 62 -14 88s-22 48 -39 66s-38 32 -62 42c-24 9 -50 14 -79 14c-37 0 -71 -8 -101 -23c-31 -16 -57 -38 -79 -65c-22 -28 -39 -60 -51 -97c-13 -37 -19 -76 -19 -118c0 -33 5 -63 14 -89
s23 -48 40 -66s37 -32 61 -41s50 -14 79 -14c37 0 70 8 101 24s57 38 79 65s39 59 51 96s18 76 19 118z" />
    <glyph glyph-name="P" unicode="P" horiz-adv-x="594" 
d="M404 709c31 0 60 -5 86 -14c25 -9 47 -22 65 -39s32 -37 42 -60c9 -23 14 -49 14 -76c0 -37 -7 -71 -20 -100c-14 -29 -33 -54 -57 -75s-52 -37 -85 -48s-68 -17 -106 -17h-138l-59 -280h-120l150 709h228zM275 604l-48 -219h115c42 0 77 11 104 32s41 53 42 95
c0 28 -9 50 -27 67s-45 25 -81 25h-105z" />
    <glyph glyph-name="Q" unicode="Q" horiz-adv-x="777" 
d="M57 299c0 69 11 130 33 183s51 97 86 133s76 63 121 82c45 18 92 27 139 27s89 -7 128 -22c38 -15 71 -37 98 -64c27 -28 47 -61 62 -100s22 -81 22 -128c0 -73 -12 -136 -36 -191s-56 -100 -95 -136l75 -103l-90 -59l-73 101c-51 -25 -104 -37 -159 -37
c-47 0 -89 8 -127 23c-39 15 -71 37 -98 64s-48 60 -63 99s-23 81 -23 128zM444 321l102 -143c24 28 43 61 57 100c13 38 20 79 21 123c0 33 -5 62 -14 88s-22 48 -39 66s-38 32 -62 42c-24 9 -50 14 -79 14c-37 0 -71 -8 -101 -23c-31 -16 -57 -38 -79 -65
c-22 -28 -39 -60 -51 -97c-13 -37 -19 -76 -19 -118c0 -33 5 -63 14 -89s23 -48 40 -66s37 -32 61 -41s50 -14 79 -14s58 6 86 17l-106 147z" />
    <glyph glyph-name="R" unicode="R" horiz-adv-x="631" 
d="M314 283h-108l-60 -283h-120l150 709h239c32 0 60 -5 85 -14s46 -22 63 -38s30 -35 39 -57s13 -46 13 -72c0 -30 -4 -58 -13 -83s-22 -48 -38 -67c-17 -20 -36 -37 -59 -51s-47 -24 -74 -31l113 -296h-128zM349 388c43 0 77 11 104 34c26 23 39 54 39 93
c0 27 -8 48 -25 65c-17 16 -42 24 -76 24h-117l-46 -216h121z" />
    <glyph glyph-name="S" unicode="S" horiz-adv-x="594" 
d="M282 91c37 0 67 9 88 27c22 18 33 41 33 70c0 17 -5 34 -15 50c-9 15 -27 29 -52 40l-89 40c-43 19 -76 44 -99 74s-35 68 -35 113c0 31 6 60 19 87s30 50 52 70c23 19 49 35 79 46s62 16 96 16c45 0 83 -7 113 -21c31 -14 55 -31 73 -52c19 -21 32 -43 39 -66
c8 -24 12 -46 12 -65l-113 -20c0 8 -1 19 -4 32s-9 26 -18 39s-22 24 -39 33s-40 14 -69 14c-37 0 -66 -10 -87 -29s-31 -43 -31 -71c0 -21 5 -39 16 -53s26 -25 44 -33l89 -40c51 -23 87 -50 110 -82c23 -33 34 -69 34 -110c0 -28 -6 -55 -17 -80c-11 -26 -28 -49 -49 -69
s-47 -36 -78 -48c-30 -12 -64 -18 -101 -18c-48 0 -89 7 -122 22s-60 34 -81 57s-37 48 -46 75s-14 54 -14 80c0 3 0 6 1 9v9l116 20c-1 -3 -1 -7 -1 -10v-11c0 -18 3 -36 8 -53s14 -33 26 -46c12 -14 27 -25 46 -33c18 -9 40 -13 66 -13z" />
    <glyph glyph-name="T" unicode="T" horiz-adv-x="587" 
d="M423 597l-127 -597h-120l126 597h-221l24 112h554l-24 -112h-212z" />
    <glyph glyph-name="U" unicode="U" horiz-adv-x="682" 
d="M689 709l-103 -489c-8 -38 -20 -72 -37 -101s-37 -54 -61 -73c-24 -20 -51 -35 -81 -45c-30 -11 -62 -16 -97 -16c-36 0 -69 5 -99 15c-29 10 -55 25 -76 44s-37 42 -49 69c-11 27 -17 57 -17 91c0 13 1 25 2 36s3 23 6 36l91 433h118l-91 -442c-4 -18 -6 -35 -6 -50
c0 -36 10 -64 31 -85s53 -32 98 -32c40 0 73 12 99 35c25 23 43 57 52 102l99 472h121z" />
    <glyph glyph-name="V" unicode="V" horiz-adv-x="663" 
d="M299 157l307 552h131l-407 -709h-121l-106 709h122z" />
    <glyph glyph-name="W" unicode="W" horiz-adv-x="995" 
d="M638 709l59 -522l236 522h125l-333 -709h-119l-59 536l-267 -536h-125l-50 709h118l33 -518l258 518h124z" />
    <glyph glyph-name="X" unicode="X" horiz-adv-x="631" 
d="M99 0h-150l311 357l-162 352h135l113 -253l214 253h150l-313 -360l161 -349h-136l-111 250z" />
    <glyph glyph-name="Y" unicode="Y" horiz-adv-x="625" 
d="M98 709h127l110 -292l211 292h144l-314 -411l-62 -298h-121l64 302z" />
    <glyph glyph-name="Z" unicode="Z" horiz-adv-x="621" 
d="M-21 0l25 116l475 481h-364l24 112h523l-24 -112l-481 -484h383l-24 -113h-537z" />
    <glyph glyph-name="bracketleft" unicode="[" horiz-adv-x="308" 
d="M-26 -157l203 956h213l-19 -89h-118l-165 -777h119l-19 -90h-214z" />
    <glyph glyph-name="backslash" unicode="\" horiz-adv-x="517" 
d="M115 724h102l213 -739h-101z" />
    <glyph glyph-name="bracketright" unicode="]" horiz-adv-x="308" 
d="M-69 -157l19 90h118l165 777h-119l19 89h214l-203 -956h-213z" />
    <glyph glyph-name="asciicircum" unicode="^" horiz-adv-x="564" 
d="M348 710l196 -358h-113l-129 244l-130 -244h-114l196 358h94z" />
    <glyph glyph-name="underscore" unicode="_" horiz-adv-x="541" 
d="M-57 0h511v-96h-511v96z" />
    <glyph glyph-name="grave" unicode="`" horiz-adv-x="275" 
d="M-9 696h132l57 -148h-90z" />
    <glyph glyph-name="a" unicode="a" horiz-adv-x="583" 
d="M290 398c-23 0 -44 -6 -62 -17s-33 -26 -45 -44c-12 -19 -21 -39 -27 -61c-7 -23 -10 -45 -10 -67c0 -36 9 -65 27 -86c17 -22 43 -33 77 -33c19 0 38 5 55 14s33 23 46 40s23 38 30 62c7 23 11 50 11 79c0 33 -8 61 -25 82s-43 31 -77 31zM553 487l-79 -371
c-3 -15 -6 -31 -7 -46c-2 -15 -3 -30 -3 -46v-10c0 -4 0 -9 1 -14h-108c-1 5 -1 8 -1 11v9v16c0 5 1 13 2 24c-14 -18 -32 -34 -54 -48c-23 -14 -49 -21 -80 -21s-59 5 -83 16s-44 27 -60 46c-17 19 -29 42 -38 68s-13 54 -13 85c0 41 6 79 19 114c13 36 30 67 53 94
c22 27 48 48 79 63s64 23 100 23c22 0 41 -2 58 -7c16 -4 30 -10 42 -17c11 -7 21 -14 29 -23c7 -8 13 -16 17 -24l13 58h113z" />
    <glyph glyph-name="b" unicode="b" horiz-adv-x="593" 
d="M9 0l152 724h114l-58 -277c15 17 35 29 59 38s50 14 79 14c31 0 59 -6 83 -17c23 -11 43 -25 59 -44c15 -19 27 -41 35 -66s12 -52 12 -81c0 -43 -6 -84 -19 -121s-30 -69 -53 -96s-50 -49 -82 -64c-31 -15 -66 -23 -103 -23s-69 8 -95 26c-27 17 -45 37 -55 60l-16 -73
h-112zM314 398c-20 0 -39 -4 -56 -13s-33 -22 -46 -38c-13 -17 -24 -36 -31 -59c-8 -23 -12 -48 -12 -75c0 -37 10 -66 30 -89c19 -23 46 -34 79 -34c18 0 36 4 54 12c17 8 33 20 47 36s26 35 35 58s13 50 13 80c0 40 -10 70 -30 91s-48 31 -83 31z" />
    <glyph glyph-name="c" unicode="c" horiz-adv-x="539" 
d="M403 310c-5 23 -17 43 -34 61c-17 17 -43 26 -76 26c-18 0 -36 -4 -53 -11c-18 -8 -34 -20 -48 -35s-25 -34 -34 -57s-13 -49 -13 -80c0 -39 11 -69 33 -92c21 -22 50 -33 86 -33c16 0 31 2 44 7s24 11 34 19c9 7 18 16 25 26c7 9 14 19 19 29l96 -39
c-9 -19 -21 -37 -34 -54c-14 -18 -30 -34 -48 -47c-19 -13 -40 -24 -63 -32c-24 -9 -50 -13 -79 -13c-35 0 -66 6 -94 17s-52 27 -72 48c-20 20 -35 44 -46 72c-11 27 -16 57 -16 90c0 43 7 83 22 119c15 35 34 66 59 91s53 45 86 59s67 21 104 21c33 0 62 -5 87 -14
c24 -10 44 -23 61 -38c16 -15 29 -32 39 -51c9 -19 16 -37 20 -56z" />
    <glyph glyph-name="d" unicode="d" horiz-adv-x="583" 
d="M474 116c-4 -20 -7 -38 -9 -53c-1 -15 -2 -28 -2 -39v-11c0 -5 0 -10 1 -13h-107c-1 5 -1 9 -1 13v12v19c1 6 1 11 2 16c-14 -18 -32 -34 -55 -48c-22 -14 -48 -21 -79 -21s-59 5 -83 16s-44 27 -61 46c-16 19 -28 42 -37 68s-13 54 -13 85c0 41 6 79 19 114
c13 36 30 67 52 94c23 27 49 48 80 63s64 23 100 23c21 0 39 -2 55 -7c16 -4 30 -9 42 -16c12 -6 22 -13 29 -21c8 -9 14 -17 19 -25l62 293h115zM290 398c-23 0 -44 -6 -62 -17s-33 -26 -45 -45c-12 -18 -21 -38 -27 -61c-7 -22 -10 -44 -10 -66c0 -36 9 -65 27 -87
c17 -21 43 -32 77 -32c19 0 38 5 55 14s32 23 45 40s24 38 31 61c7 24 11 51 11 80c0 33 -9 60 -26 81s-42 32 -76 32z" />
    <glyph glyph-name="e" unicode="e" horiz-adv-x="545" 
d="M389 297c0 1 0 4 1 7v8c0 11 -2 22 -5 33s-9 21 -16 30c-8 9 -18 16 -31 22c-13 5 -28 8 -47 8c-18 0 -34 -3 -49 -9s-29 -14 -40 -24s-21 -21 -29 -34s-14 -27 -18 -41h234zM142 212c-1 -3 -1 -7 -1 -11c0 -35 11 -63 32 -84c21 -22 49 -33 83 -33c32 0 58 7 79 22
c21 14 36 30 45 49l89 -49c-8 -16 -19 -31 -32 -46c-14 -15 -30 -27 -48 -38s-38 -20 -61 -27s-48 -10 -75 -10c-30 0 -58 5 -85 15s-51 25 -71 44c-21 19 -37 42 -49 70c-12 27 -18 59 -18 94c0 46 8 87 23 124c15 36 34 67 59 92s53 45 85 58c31 13 64 20 97 20
s63 -5 89 -15s48 -24 66 -41c17 -18 31 -39 40 -64s14 -52 14 -81c0 -17 -1 -33 -4 -48c-3 -16 -7 -30 -10 -41h-347z" />
    <glyph glyph-name="f" unicode="f" horiz-adv-x="355" 
d="M248 387l-82 -387h-117l82 387h-82l21 100h83l19 89c7 31 16 57 29 77s28 36 44 47c17 11 34 19 53 24c19 4 38 6 57 6s35 -2 48 -6s22 -7 25 -9l-21 -96c0 -1 -4 1 -11 4s-18 4 -31 4c-20 0 -37 -5 -52 -16c-14 -11 -24 -30 -29 -56l-15 -68h107l-21 -100h-107z" />
    <glyph glyph-name="g" unicode="g" horiz-adv-x="584" 
d="M395 290c0 13 -2 26 -6 39c-5 13 -11 24 -20 34s-20 18 -33 24s-29 9 -47 9c-20 0 -38 -4 -55 -11s-31 -18 -44 -31c-13 -14 -22 -31 -29 -51c-7 -19 -11 -41 -11 -66c0 -33 9 -61 27 -83c18 -21 45 -32 81 -32c20 0 38 4 55 11c17 8 31 19 43 34s22 32 29 53
s10 44 10 70zM80 0c0 -18 3 -34 9 -47s14 -24 24 -33c10 -8 22 -14 35 -19c13 -4 27 -6 41 -6c43 0 78 13 103 39s42 62 53 109l8 36c-10 -14 -25 -26 -46 -37s-46 -16 -75 -16c-31 0 -59 5 -83 16c-25 10 -45 24 -62 42c-17 19 -30 40 -39 65s-14 51 -14 80
c0 37 6 72 19 105c12 33 29 61 51 85c21 24 47 43 78 57c30 14 63 21 99 21c37 0 68 -7 93 -20s43 -30 54 -50l12 60h115l-92 -443c-7 -32 -17 -63 -30 -93s-31 -57 -53 -80s-49 -41 -80 -55s-68 -21 -111 -21c-36 0 -67 5 -94 16s-50 24 -67 41c-18 17 -31 37 -40 59
s-13 44 -13 66z" />
    <glyph glyph-name="h" unicode="h" horiz-adv-x="559" 
d="M317 0l62 288c1 5 2 11 3 16s1 10 1 15c0 25 -7 44 -21 58s-34 21 -61 21c-17 0 -32 -3 -45 -9c-13 -7 -24 -15 -34 -26c-9 -11 -17 -23 -24 -37c-6 -14 -11 -28 -14 -43l-61 -283h-115l153 724h116l-59 -277c17 19 37 33 60 41c23 9 47 13 73 13c48 0 85 -14 112 -41
c26 -27 39 -63 39 -108c0 -9 0 -19 -1 -28s-3 -17 -4 -23l-65 -301h-115z" />
    <glyph glyph-name="i" unicode="i" horiz-adv-x="255" 
d="M129 653c0 11 2 22 7 32s11 19 19 26c7 7 16 13 26 18c10 4 20 6 31 6c20 0 36 -6 49 -19s19 -28 19 -47c0 -12 -2 -23 -7 -33s-11 -19 -18 -26c-8 -8 -17 -14 -27 -18s-20 -6 -31 -6c-20 0 -36 7 -49 20s-19 28 -19 47zM8 0l104 487h115l-104 -487h-115z" />
    <glyph glyph-name="j" unicode="j" horiz-adv-x="254" 
d="M112 487h114l-118 -557c-9 -44 -28 -78 -55 -101c-28 -23 -62 -34 -101 -34c-23 0 -42 3 -56 8c-13 5 -21 9 -24 11l19 90c3 -1 9 -3 16 -5c8 -1 17 -2 26 -2c19 0 34 4 43 13c10 9 17 25 22 47zM129 653c0 11 2 22 7 32s11 19 19 26c7 7 16 13 26 18c10 4 20 6 31 6
c20 0 36 -6 49 -19s19 -28 19 -47c0 -12 -2 -23 -7 -33s-11 -19 -19 -26c-8 -8 -17 -14 -27 -18s-20 -6 -30 -6c-20 0 -36 7 -49 20s-19 28 -19 47z" />
    <glyph glyph-name="k" unicode="k" horiz-adv-x="537" 
d="M237 211l-86 -72l-29 -139h-114l153 724h115l-90 -421l216 184h164l-241 -202l140 -285h-128z" />
    <glyph glyph-name="l" unicode="l" horiz-adv-x="255" 
d="M8 0l154 724h115l-154 -724h-115z" />
    <glyph glyph-name="m" unicode="m" horiz-adv-x="843" 
d="M306 0l62 295c2 10 3 20 3 30c0 21 -6 39 -19 53c-12 14 -31 21 -58 21c-30 0 -54 -10 -72 -31c-17 -20 -30 -46 -37 -78l-62 -290h-114l85 403c5 23 8 43 9 58s2 24 2 26h112c0 -3 0 -10 -1 -20s-2 -20 -3 -29c34 42 80 63 137 63c30 0 56 -7 77 -21s37 -32 48 -55
c23 29 48 49 77 60s58 16 88 16c21 0 40 -4 58 -11c17 -7 33 -16 46 -29s24 -28 32 -47c7 -18 11 -38 11 -61c0 -9 0 -18 -1 -25s-3 -15 -4 -22l-65 -306h-115l63 295c2 10 3 19 3 28c0 22 -6 40 -18 55c-13 14 -32 21 -59 21c-30 0 -54 -10 -71 -31
c-18 -21 -30 -47 -37 -78l-62 -290h-115z" />
    <glyph glyph-name="n" unicode="n" horiz-adv-x="560" 
d="M318 0l62 288c1 5 2 11 3 16s1 10 1 15c0 25 -7 44 -21 58s-34 21 -61 21c-17 0 -32 -3 -45 -9c-13 -7 -24 -15 -34 -26c-9 -11 -17 -23 -24 -37c-6 -14 -11 -28 -14 -43l-61 -283h-115l85 403c5 23 9 43 10 58s1 24 1 26h112c0 -3 0 -10 -1 -21s-2 -21 -4 -30
c17 23 39 40 65 50c25 10 52 15 79 15c46 0 82 -14 108 -42s39 -64 39 -109c0 -8 0 -17 -1 -26c-1 -10 -3 -19 -5 -28l-64 -296h-115z" />
    <glyph glyph-name="o" unicode="o" horiz-adv-x="569" 
d="M292 398c-19 0 -38 -4 -55 -13c-18 -9 -34 -21 -47 -37s-24 -35 -32 -57c-8 -23 -12 -48 -12 -76c0 -39 10 -69 31 -92c20 -23 47 -34 80 -34c18 0 36 4 53 11c17 8 33 20 47 36c14 15 25 35 34 58c8 23 12 49 12 79c0 39 -10 69 -29 91c-20 22 -47 33 -82 34zM520 277
c0 -40 -7 -78 -20 -114c-13 -35 -32 -66 -56 -93c-24 -26 -52 -47 -85 -62s-69 -23 -108 -23c-34 0 -65 6 -92 17c-27 12 -50 28 -69 49s-34 45 -44 72c-11 27 -16 57 -16 88c0 43 7 82 21 117c14 36 33 67 58 92c24 26 53 46 86 60c33 15 68 22 105 22c35 0 66 -6 93 -18
c27 -11 51 -27 70 -48c19 -20 33 -44 43 -71c9 -27 14 -57 14 -88z" />
    <glyph glyph-name="p" unicode="p" horiz-adv-x="594" 
d="M317 396c-20 0 -39 -4 -56 -13c-18 -9 -34 -21 -47 -37s-24 -35 -31 -58c-8 -23 -12 -48 -12 -75c0 -40 10 -70 30 -91s47 -32 80 -32c17 0 35 4 53 12c17 8 33 20 47 36s25 36 34 59s13 49 13 79c0 39 -10 69 -30 90c-20 20 -47 30 -81 30zM213 434c15 20 36 36 62 47
c26 12 54 18 83 18c31 0 59 -5 82 -16s43 -26 58 -45c16 -19 28 -41 35 -66c8 -25 12 -52 12 -81c0 -43 -6 -84 -19 -121s-30 -69 -53 -96c-22 -27 -49 -49 -80 -64s-66 -23 -103 -23c-35 0 -66 7 -93 22s-48 34 -61 57l-54 -256h-114l126 593c5 23 9 43 10 58s1 24 1 26
h112c0 -3 0 -11 -1 -22s-2 -22 -3 -31z" />
    <glyph glyph-name="q" unicode="q" horiz-adv-x="583" 
d="M411 -190h-115l49 230c-15 -15 -32 -26 -52 -35c-21 -9 -44 -14 -69 -14c-31 0 -58 6 -82 17s-44 27 -61 46s-29 42 -38 69c-9 26 -13 54 -13 83c0 41 6 79 19 114s30 66 53 93c22 27 48 48 79 63s64 23 101 23c21 0 40 -2 57 -6c16 -5 30 -10 42 -17s22 -14 30 -22
s14 -16 19 -24l12 57h113zM290 397c-23 0 -44 -6 -62 -17s-33 -26 -46 -44c-12 -18 -21 -38 -28 -60c-6 -23 -9 -45 -9 -67c0 -35 9 -64 28 -86s46 -33 81 -33c20 0 38 5 55 14s32 22 45 39s23 37 30 61c7 23 11 49 11 77c0 35 -9 64 -26 85s-44 31 -79 31z" />
    <glyph glyph-name="r" unicode="r" horiz-adv-x="371" 
d="M368 369c-15 3 -29 5 -41 5c-17 0 -34 -2 -49 -7c-16 -5 -31 -14 -45 -25c-13 -11 -25 -26 -36 -45c-10 -19 -18 -42 -24 -69l-49 -228h-114l85 403c5 23 8 43 9 58s2 24 2 26h112c0 -3 0 -8 -1 -13v-18c-1 -7 -1 -13 -2 -19c-1 -7 -3 -12 -4 -17c9 14 20 26 32 35
s25 17 38 22s26 9 39 12c13 2 26 3 38 3c13 0 25 -1 35 -3z" />
    <glyph glyph-name="s" unicode="s" horiz-adv-x="450" 
d="M104 170c0 -25 7 -47 22 -66s37 -28 67 -28c23 0 41 6 52 18c11 11 17 24 17 38c0 10 -3 20 -10 29c-6 9 -16 16 -31 23l-62 27c-33 15 -58 33 -73 55s-23 47 -23 76c0 21 4 41 13 60s21 37 36 52c16 15 35 26 57 35c23 9 48 13 76 13c35 0 63 -5 85 -15
c23 -10 41 -22 54 -37c14 -15 24 -31 30 -48c5 -17 8 -32 9 -45l-101 -21c-1 7 -2 16 -5 25s-7 17 -13 25c-7 7 -15 14 -25 19c-11 5 -24 7 -40 7c-21 0 -37 -5 -48 -16c-12 -11 -18 -24 -18 -39c0 -12 3 -22 9 -29c6 -8 14 -14 25 -19l64 -28c36 -15 63 -35 80 -59
s25 -51 25 -80c0 -17 -4 -35 -11 -54s-18 -36 -33 -51s-34 -28 -57 -38c-23 -9 -51 -14 -83 -14c-38 0 -69 6 -93 18c-25 12 -44 27 -58 44s-24 35 -29 54s-8 35 -8 50z" />
    <glyph glyph-name="t" unicode="t" horiz-adv-x="354" 
d="M71 110c0 6 1 14 2 24s3 22 6 35l46 215h-88l22 103h18c28 0 50 7 66 21c15 14 26 33 31 58l15 70h105l-33 -149h97l-22 -103h-96l-48 -227c-2 -8 -3 -15 -3 -22c0 -11 4 -21 12 -29c7 -8 21 -12 41 -12c11 0 22 1 34 3l-19 -93c-5 -2 -12 -4 -21 -7
c-10 -2 -22 -3 -37 -3c-40 0 -71 10 -94 31s-34 49 -34 85z" />
    <glyph glyph-name="u" unicode="u" horiz-adv-x="555" 
d="M222 487l-60 -280c-3 -15 -5 -28 -5 -39c0 -23 6 -42 19 -57c12 -15 32 -22 61 -22c15 0 29 3 42 9s24 14 33 25s17 23 24 36c6 14 11 29 14 44l60 284h114l-78 -376c-3 -15 -6 -30 -8 -45c-2 -14 -3 -29 -3 -44v-10c0 -3 0 -7 1 -12h-112c-1 3 -1 7 -2 12v17v11
c0 4 0 8 1 13c-14 -21 -33 -37 -56 -48s-46 -16 -69 -16c-51 0 -91 15 -118 44c-27 30 -41 68 -41 115c0 17 2 35 6 54l61 285h116z" />
    <glyph glyph-name="v" unicode="v" horiz-adv-x="520" 
d="M257 0h-114l-86 487h119l48 -348l189 348h129z" />
    <glyph glyph-name="w" unicode="w" horiz-adv-x="804" 
d="M498 487l41 -335l165 335h122l-254 -487h-116l-44 348l-181 -348h-120l-48 487h111l28 -334l174 334h122z" />
    <glyph glyph-name="x" unicode="x" horiz-adv-x="519" 
d="M95 0h-143l234 249l-127 238h126l18 -35l21 -43c7 -15 14 -29 21 -42c7 -14 13 -26 18 -35l137 155h144c-13 -13 -29 -31 -50 -53s-42 -45 -64 -68c-23 -24 -44 -47 -65 -69s-37 -40 -50 -53c7 -14 17 -32 28 -54c12 -22 24 -45 37 -68c13 -24 25 -47 37 -69
s22 -40 29 -53h-126l-82 161z" />
    <glyph glyph-name="y" unicode="y" horiz-adv-x="512" 
d="M-28 -190l175 270l-113 407h123l75 -288l175 288h132l-438 -677h-129z" />
    <glyph glyph-name="z" unicode="z" horiz-adv-x="484" 
d="M-20 0l22 102l303 284h-235l22 101h385l-22 -100l-307 -285h253l-21 -102h-400z" />
    <glyph glyph-name="braceleft" unicode="{" horiz-adv-x="355" 
d="M31 373c14 0 28 2 42 5c13 3 26 9 37 16s21 17 30 29c8 13 14 28 17 45l29 142c7 35 17 65 29 89s27 43 44 58c18 15 39 26 63 32c24 7 51 10 82 10h33l-19 -89h-22c-33 0 -59 -7 -76 -22s-30 -40 -37 -75l-36 -166c-7 -33 -21 -61 -42 -84c-21 -22 -50 -36 -85 -41
c23 -7 42 -19 56 -36c13 -17 20 -38 20 -63c0 -5 0 -11 -1 -17c-1 -5 -2 -11 -3 -16l-31 -150c-3 -13 -4 -25 -4 -36c0 -24 7 -42 20 -53s33 -16 58 -16h20l-19 -88h-22c-51 0 -90 12 -116 35s-39 57 -39 102c0 9 1 18 2 27c1 10 2 20 5 31l29 135c2 10 3 19 3 27
c0 13 -2 24 -7 33s-12 16 -20 21s-17 8 -28 11c-11 2 -22 3 -33 3z" />
    <glyph glyph-name="bar" unicode="|" horiz-adv-x="236" 
d="M-25 -153l202 952h98l-202 -952h-98z" />
    <glyph glyph-name="braceright" unicode="}" horiz-adv-x="354" 
d="M337 271c-13 0 -26 -2 -39 -5s-26 -8 -37 -15c-12 -7 -22 -16 -31 -28s-15 -27 -19 -46l-30 -141c-14 -66 -39 -114 -76 -144s-87 -45 -149 -45h-25l19 88h21c32 0 58 9 77 27s32 43 39 76l35 166c7 32 21 58 44 79c22 21 50 35 84 42c-25 6 -45 17 -58 34s-20 38 -20 61
c0 9 1 19 3 29l34 163c3 13 4 25 4 38c0 21 -6 37 -18 46s-31 14 -57 14h-24l19 89h28c47 0 84 -11 111 -32c26 -21 39 -54 39 -99c0 -17 -2 -36 -6 -56l-32 -144c-2 -10 -3 -19 -3 -27c0 -25 9 -43 26 -53c17 -11 37 -16 62 -16z" />
    <glyph glyph-name="asciitilde" unicode="~" horiz-adv-x="623" 
d="M569 307c-19 -33 -42 -57 -69 -74s-57 -25 -89 -25c-33 0 -67 9 -102 28l-47 25c-17 9 -34 14 -52 14c-17 0 -34 -5 -50 -14c-15 -9 -29 -23 -42 -40l-66 53c19 32 42 57 69 74s57 26 90 26c17 0 33 -2 50 -6c17 -5 34 -12 51 -21l46 -25c9 -5 17 -8 26 -11s18 -4 26 -4
c19 0 36 4 52 12c15 8 29 22 41 41z" />
    <glyph glyph-name="uni00A0" unicode="&#xa0;" horiz-adv-x="239" 
 />
    <glyph glyph-name="exclamdown" unicode="&#xa1;" horiz-adv-x="250" 
d="M91 -214h-143l135 499h83zM225 437c0 -22 -8 -41 -23 -57c-16 -16 -35 -24 -58 -24c-20 0 -36 6 -48 19s-18 28 -18 46c0 23 8 42 24 58c16 15 34 23 55 23c20 0 36 -6 49 -18c13 -13 19 -28 19 -47z" />
    <glyph glyph-name="cent" unicode="&#xa2;" horiz-adv-x="555" 
d="M326 511c-19 0 -38 -4 -56 -13c-19 -8 -35 -20 -49 -35c-15 -15 -26 -34 -35 -57s-14 -48 -14 -77c0 -37 11 -67 33 -90c21 -23 51 -34 89 -34c30 0 56 8 77 24s38 36 49 59l93 -38c-10 -22 -22 -42 -37 -61c-15 -18 -31 -34 -50 -48c-19 -13 -40 -24 -63 -32
c-23 -7 -47 -11 -73 -11l-20 -98h-88l23 111c-22 7 -42 18 -60 31c-18 14 -33 30 -46 49s-23 39 -30 62s-11 48 -11 74c0 41 7 79 21 113c13 34 32 63 55 88s50 45 81 60c30 15 62 25 95 28l20 93h88l-21 -100c22 -5 41 -13 58 -24c17 -10 31 -22 43 -36
c12 -13 22 -28 29 -45c7 -16 13 -32 16 -49l-103 -31c-5 23 -16 43 -34 61c-19 17 -45 26 -80 26z" />
    <glyph glyph-name="sterling" unicode="&#xa3;" horiz-adv-x="644" 
d="M158 389c-3 19 -6 37 -9 56c-3 18 -4 36 -4 55c0 32 6 62 17 89s26 50 46 70c20 19 44 35 72 46s59 16 93 16c36 0 67 -5 93 -16s48 -26 65 -43s30 -37 39 -58c8 -22 12 -44 12 -66v-16c-1 -5 -1 -9 -2 -11l-103 -12c1 4 1 8 1 12v11c0 29 -9 53 -28 72s-45 28 -79 28
c-35 0 -63 -11 -84 -34s-32 -54 -32 -94c0 -17 2 -34 5 -51s5 -35 8 -54h192l-19 -91h-167c0 -39 -10 -77 -29 -113c-20 -37 -48 -64 -85 -83h206c35 0 62 10 83 29s35 44 41 75l99 -20c-10 -57 -34 -102 -71 -135c-37 -34 -86 -51 -147 -51h-376l22 100c23 7 43 17 61 32
c18 14 33 30 46 49c13 18 22 37 29 58c7 20 10 40 10 59h-99l18 91h76z" />
    <glyph glyph-name="currency" unicode="&#xa4;" horiz-adv-x="652" 
d="M126 349c0 21 3 42 8 61c6 19 14 36 25 53l-74 75l71 70l75 -76c16 9 33 17 52 23c19 5 38 8 58 8c38 0 73 -10 106 -29l73 74l71 -70l-71 -72c24 -35 36 -74 36 -117c0 -21 -3 -42 -9 -61c-6 -20 -14 -38 -25 -54l69 -71l-71 -70l-71 72c-16 -9 -33 -16 -52 -21
c-18 -5 -37 -8 -56 -8c-42 0 -79 11 -112 32l-74 -75l-70 70l72 74c-21 34 -31 71 -31 112zM224 349c0 -35 11 -63 33 -85c23 -21 51 -32 84 -32s60 11 82 32c22 22 33 50 33 85s-11 63 -33 85c-22 21 -49 32 -82 32s-61 -11 -84 -32c-22 -22 -33 -50 -33 -85z" />
    <glyph glyph-name="yen" unicode="&#xa5;" horiz-adv-x="651" 
d="M352 158l-33 -158h-117l34 158h-176l18 84h175l16 70h-176l16 84h125l-117 313h125l104 -298l225 298h132l-247 -313h131l-18 -84h-185l-14 -70h186l-19 -84h-185z" />
    <glyph glyph-name="brokenbar" unicode="&#xa6;" horiz-adv-x="247" 
d="M98 400l84 399h98l-84 -399h-98zM-20 -154l85 399h98l-85 -399h-98z" />
    <glyph glyph-name="section" unicode="&#xa7;" horiz-adv-x="524" 
d="M104 9l-3 -15s-1 -12 -1 -19c0 -25 8 -46 23 -61s38 -23 67 -23c24 0 46 8 65 23s29 37 29 65c0 26 -12 47 -35 64l-90 63c-14 10 -27 20 -40 31s-25 23 -34 35c-9 13 -17 26 -22 41c-6 15 -9 31 -9 48c0 20 3 38 10 54s15 30 26 41c11 12 23 22 36 30s25 14 38 19
c-37 33 -56 74 -56 123c0 30 6 57 19 81c13 25 30 45 51 62s44 29 70 38s53 14 80 14c32 0 60 -4 84 -13s44 -21 60 -36s28 -32 37 -52c8 -20 12 -41 12 -64c0 -15 -1 -28 -4 -39l-112 -9c1 6 2 12 3 17c1 6 1 12 1 17c0 25 -8 45 -23 60s-37 23 -66 23c-12 0 -24 -2 -35 -7
c-12 -4 -22 -10 -31 -17s-16 -17 -21 -28s-8 -22 -8 -35c0 -25 12 -47 37 -64l89 -63c14 -10 27 -20 40 -31s24 -22 34 -34c9 -12 17 -25 23 -40c5 -14 8 -30 8 -47c0 -21 -3 -39 -10 -55s-15 -30 -26 -43c-11 -12 -22 -22 -35 -30c-13 -9 -25 -15 -38 -20
c18 -17 32 -36 41 -57s14 -42 14 -64c0 -31 -6 -58 -19 -83c-13 -24 -29 -45 -50 -62s-45 -30 -71 -39c-27 -9 -54 -13 -82 -13c-31 0 -59 4 -82 13c-24 9 -44 20 -60 35s-28 33 -36 53s-12 42 -12 65c0 6 0 12 1 19c0 7 1 14 2 21zM220 362c-15 -7 -28 -18 -39 -31
s-16 -29 -16 -48c0 -12 3 -23 8 -34c5 -10 15 -20 28 -29l89 -63c15 7 28 17 39 30s16 30 16 49c0 24 -12 45 -37 63z" />
    <glyph glyph-name="dieresis" unicode="&#xa8;" horiz-adv-x="383" 
d="M-26 618c0 19 7 36 21 51c14 14 31 21 51 21c17 0 32 -6 43 -18s16 -26 16 -41c0 -21 -8 -38 -23 -51s-32 -20 -51 -20c-17 0 -30 6 -41 17s-16 25 -16 41zM177 618c0 9 2 18 6 27s9 16 16 23c6 7 13 12 22 16s18 6 28 6c17 0 32 -6 43 -18s16 -26 16 -41
c0 -21 -8 -38 -23 -51s-32 -20 -50 -20c-17 0 -31 6 -42 17s-16 25 -16 41z" />
    <glyph glyph-name="copyright" unicode="&#xa9;" horiz-adv-x="838" 
d="M65 355c0 51 10 98 29 143s45 84 78 118c33 33 71 60 116 79s92 29 143 29s99 -10 144 -29s84 -46 117 -79c33 -34 60 -73 79 -118s29 -92 29 -143s-10 -99 -29 -144s-46 -84 -79 -118c-33 -33 -72 -60 -117 -79s-93 -29 -144 -29s-98 10 -143 29s-83 46 -116 79
c-33 34 -59 73 -78 118s-29 93 -29 144zM147 355c0 -41 7 -80 22 -116s35 -67 61 -93c25 -27 55 -47 90 -62c34 -15 71 -23 111 -23s77 8 112 23s65 35 91 62c25 26 45 57 60 93s22 75 22 116s-7 80 -22 116c-15 35 -35 66 -60 93c-26 26 -56 47 -91 62s-72 22 -112 22
s-77 -7 -111 -22c-35 -15 -65 -36 -90 -62c-26 -27 -46 -58 -61 -93c-15 -36 -22 -75 -22 -116zM536 407c-4 18 -13 34 -27 49s-34 22 -60 22c-15 0 -29 -3 -43 -9s-27 -15 -38 -27c-11 -13 -20 -28 -27 -46c-7 -19 -10 -40 -10 -64c0 -31 9 -55 26 -72
c18 -18 41 -27 69 -27c25 0 46 7 61 20s27 28 36 44l74 -31c-17 -35 -41 -62 -70 -83s-66 -31 -110 -31c-25 0 -48 4 -69 13s-40 21 -56 36c-15 15 -28 34 -37 56s-13 46 -13 73c0 34 6 65 17 93s27 52 46 72c20 20 43 36 69 47c25 11 52 16 81 16c26 0 49 -4 68 -11
s35 -17 48 -29s23 -25 30 -40s13 -30 16 -45z" />
    <glyph glyph-name="guillemotleft" unicode="&#xab;" horiz-adv-x="537" 
d="M135 100l-99 196l174 191h119l-180 -200l94 -187h-108zM343 100l-99 196l174 191h119l-180 -200l94 -187h-108z" />
    <glyph glyph-name="logicalnot" unicode="&#xac;" horiz-adv-x="622" 
d="M448 199v195h-376v97h477v-292h-101z" />
    <glyph glyph-name="uni00AD" unicode="&#xad;" horiz-adv-x="411" 
d="M53 241l22 102h281l-22 -102h-281z" />
    <glyph glyph-name="registered" unicode="&#xae;" horiz-adv-x="838" 
d="M65 355c0 51 10 98 29 143s45 84 78 118c33 33 71 60 116 79s92 29 143 29s99 -10 144 -29s84 -46 117 -79c33 -34 60 -73 79 -118s29 -92 29 -143s-10 -99 -29 -144s-46 -84 -79 -118c-33 -33 -72 -60 -117 -79s-93 -29 -144 -29s-98 10 -143 29s-83 46 -116 79
c-33 34 -59 73 -78 118s-29 93 -29 144zM147 355c0 -41 7 -80 22 -116s35 -67 61 -93c25 -27 55 -47 90 -62c34 -15 71 -23 111 -23s77 8 112 23s65 35 91 62c25 26 45 57 60 93s22 75 22 116s-7 80 -22 116c-15 35 -35 66 -60 93c-26 26 -56 47 -91 62s-72 22 -112 22
s-77 -7 -111 -22c-35 -15 -65 -36 -90 -62c-26 -27 -46 -58 -61 -93c-15 -36 -22 -75 -22 -116zM424 299h-35l-30 -143h-85l85 400h140c17 0 33 -3 48 -9c14 -6 26 -14 36 -25s18 -23 24 -36c5 -14 8 -28 8 -43c0 -34 -10 -63 -31 -88s-47 -41 -80 -49l58 -149h-87zM450 369
c23 0 43 6 58 18c15 11 22 29 22 52c0 31 -19 46 -56 46h-45l-26 -116h47z" />
    <glyph glyph-name="macron" unicode="&#xaf;" horiz-adv-x="328" 
d="M-34 577l19 90h277l-19 -90h-277z" />
    <glyph glyph-name="degree" unicode="&#xb0;" horiz-adv-x="395" 
d="M269 724c21 0 40 -4 58 -11c18 -8 34 -18 47 -31s23 -29 30 -46c7 -18 11 -37 11 -58c0 -25 -5 -49 -15 -71c-11 -21 -24 -40 -41 -55s-36 -27 -57 -36s-43 -13 -65 -13c-21 0 -41 4 -58 11c-18 7 -33 17 -46 30s-23 29 -30 46c-7 18 -11 37 -11 57c0 25 5 48 15 70
c9 21 22 40 38 56s35 29 56 38s44 13 68 13zM245 489c20 0 38 8 54 23c17 15 25 36 25 62c0 19 -6 34 -17 46c-11 11 -27 17 -46 17c-20 0 -38 -8 -54 -23s-24 -36 -24 -61c0 -19 6 -34 17 -45c11 -12 26 -18 45 -19z" />
    <glyph glyph-name="plusminus" unicode="&#xb1;" horiz-adv-x="611" 
d="M256 462v129h99v-129h178v-94h-178v-128h-99v128h-177v94h177zM533 199v-95h-454v95h454z" />
    <glyph glyph-name="twosuperior" unicode="&#xb2;" horiz-adv-x="352" 
d="M237 542c35 15 52 35 52 59c0 9 -4 19 -11 28s-19 14 -34 14c-19 0 -33 -6 -44 -17c-11 -12 -16 -29 -16 -52l-84 3c0 43 13 77 40 102s63 37 107 37c22 0 41 -3 58 -9s30 -14 41 -24s20 -22 25 -35c6 -13 9 -27 9 -42c0 -30 -9 -55 -28 -76c-18 -21 -43 -38 -74 -51
l-76 -33c-10 -5 -17 -10 -21 -16s-6 -10 -7 -11h171l-16 -76h-278c5 81 46 138 122 171z" />
    <glyph glyph-name="threesuperior" unicode="&#xb3;" horiz-adv-x="357" 
d="M165 573l111 62h-163l16 74h272l-17 -85l-108 -59c24 -5 44 -17 59 -35c15 -17 23 -39 23 -64c0 -17 -4 -34 -11 -50c-7 -15 -18 -29 -31 -41s-30 -22 -49 -29s-39 -10 -62 -10c-41 0 -75 11 -101 33c-27 22 -40 51 -40 86c0 5 1 11 2 16l82 6c-1 -3 -1 -7 -1 -10
c0 -15 5 -28 16 -39s25 -17 42 -17c19 0 35 5 46 14c11 10 17 24 17 43c0 15 -5 26 -16 34c-10 8 -22 12 -35 12c-9 0 -17 -2 -25 -5z" />
    <glyph glyph-name="acute" unicode="&#xb4;" horiz-adv-x="276" 
d="M58 548h-100l117 148h145z" />
    <glyph glyph-name="mu" unicode="&#xb5;" horiz-adv-x="606" 
d="M72 487h117v-286c0 -15 2 -30 6 -43c3 -13 9 -25 17 -35s18 -18 31 -24c12 -6 27 -9 44 -9c34 0 60 10 77 30c17 21 25 47 25 79v288h116v-398c0 -23 1 -42 2 -59c1 -16 2 -26 3 -30h-111c-1 5 -2 13 -3 24s-1 22 -1 31c-13 -23 -33 -41 -59 -52s-52 -17 -79 -17
c-25 0 -48 5 -69 14v-190h-116v677z" />
    <glyph glyph-name="paragraph" unicode="&#xb6;" horiz-adv-x="668" 
d="M239 -190h-95l107 500h-9c-24 0 -46 4 -67 13c-21 8 -38 19 -53 34s-27 32 -36 53c-9 20 -13 42 -13 65c0 38 8 72 25 101c16 29 37 54 63 74c26 19 56 34 89 44s67 15 101 15h366l-19 -93h-98l-171 -806h-95l171 806h-94z" />
    <glyph glyph-name="periodcentered" unicode="&#xb7;" horiz-adv-x="266" 
d="M54 290c0 11 2 22 7 33c5 10 11 19 18 27c8 8 17 14 28 19s22 7 34 7c21 0 38 -7 51 -20c13 -14 20 -30 20 -49c0 -25 -9 -46 -26 -62c-17 -17 -37 -25 -60 -25c-21 0 -39 7 -52 21c-13 13 -20 30 -20 49z" />
    <glyph glyph-name="cedilla" unicode="&#xb8;" horiz-adv-x="286" 
d="M179 13l-74 -65c23 -3 41 -12 54 -26s19 -30 19 -49c0 -12 -3 -24 -8 -36c-5 -11 -13 -22 -23 -31c-11 -9 -23 -16 -38 -21s-33 -8 -52 -8s-35 2 -50 7s-27 12 -38 19s-19 15 -26 23s-11 15 -14 20l54 40c2 -3 5 -8 8 -13s8 -11 14 -16c5 -5 12 -9 21 -12
c8 -3 18 -5 29 -5s21 2 30 7s13 13 13 24c0 10 -4 18 -12 23c-7 5 -17 8 -28 8h-7c-3 0 -7 0 -10 -1l-23 46l72 66h89z" />
    <glyph glyph-name="onesuperior" unicode="&#xb9;" horiz-adv-x="242" 
d="M116 343l53 238h-85l12 59c28 1 52 9 71 23c19 13 32 29 39 46h80l-79 -366h-91z" />
    <glyph glyph-name="guillemotright" unicode="&#xbb;" horiz-adv-x="543" 
d="M194 487l99 -196l-174 -191h-119l181 200l-95 187h108zM410 487l99 -196l-174 -191h-119l181 200l-95 187h108z" />
    <glyph glyph-name="onequarter" unicode="&#xbc;" horiz-adv-x="806" 
d="M41 0l591 709h105l-592 -709h-104zM422 170l204 196h100l-46 -219h63l-16 -73h-62l-16 -74h-89l15 74h-172zM617 269l-126 -122h99zM106 640c28 1 52 9 71 22s32 29 39 47h80l-79 -366h-90l52 238h-85z" />
    <glyph glyph-name="onehalf" unicode="&#xbd;" horiz-adv-x="846" 
d="M59 0l591 709h105l-592 -709h-104zM105 640c28 1 52 9 71 22s32 29 39 47h80l-79 -366h-90l52 238h-85zM516 234c0 22 4 42 12 59c7 17 18 32 31 44s28 21 46 28c18 6 37 9 58 9c22 0 41 -3 58 -9s31 -14 42 -24c11 -11 19 -23 25 -36c5 -13 8 -27 8 -42
c0 -30 -9 -55 -27 -76s-43 -38 -75 -51l-76 -33c-7 -3 -13 -7 -18 -12s-8 -10 -11 -15h172l-16 -76h-278c5 81 46 138 122 171l65 28c17 8 30 17 39 26c8 9 12 21 12 34c0 10 -4 19 -11 28s-19 13 -34 13c-19 0 -33 -6 -44 -17c-11 -12 -16 -29 -16 -52z" />
    <glyph glyph-name="threequarters" unicode="&#xbe;" horiz-adv-x="901" 
d="M127 0l592 709h104l-592 -709h-104zM517 170l204 196h100l-46 -219h63l-16 -73h-62l-16 -74h-89l16 74h-173zM713 269l-127 -122h99zM172 573l111 62h-163l16 74h272l-17 -85l-108 -59c25 -5 45 -17 60 -35c15 -19 22 -41 22 -68c0 -17 -4 -33 -12 -48s-19 -29 -33 -40
c-15 -12 -32 -21 -51 -28c-20 -7 -42 -10 -65 -10c-19 0 -37 3 -53 9c-17 6 -31 14 -42 25c-12 11 -21 23 -28 38s-10 30 -10 47c0 5 1 11 2 16l82 6c-1 -3 -1 -5 -1 -6v-4c0 -15 5 -28 15 -39s24 -17 41 -17c18 0 33 5 46 14s19 22 19 39c0 16 -5 28 -15 37
c-11 9 -23 13 -38 13c-7 0 -14 -2 -23 -5z" />
    <glyph glyph-name="questiondown" unicode="&#xbf;" horiz-adv-x="513" 
d="M316 286c-1 -18 -3 -36 -7 -53s-10 -34 -19 -51c-9 -16 -20 -31 -34 -46s-32 -28 -53 -40l-54 -31c-23 -13 -39 -28 -50 -45s-16 -37 -16 -58c0 -22 7 -42 22 -60c15 -17 40 -26 74 -26c22 0 41 4 57 12s29 18 39 31c11 13 19 29 24 46s8 35 8 53l111 -13
c-1 -33 -7 -64 -20 -93c-12 -29 -29 -54 -50 -75s-47 -37 -77 -49c-31 -11 -64 -17 -101 -17c-35 0 -65 5 -91 14c-26 10 -48 23 -65 39c-17 17 -30 35 -39 56s-13 42 -13 64c0 25 3 48 10 69s17 39 29 56s26 32 43 46c17 13 35 26 55 37l50 29c23 13 40 29 51 46
s17 37 19 59h97zM356 437c0 -22 -8 -41 -23 -57s-34 -24 -57 -24c-21 0 -37 6 -49 19s-18 28 -18 46c0 23 8 42 25 57c16 16 34 24 55 24c20 0 36 -6 49 -19c12 -12 18 -27 18 -46z" />
    <glyph glyph-name="Eacute" unicode="&#xc9;" horiz-adv-x="574" 
d="M436 759h-114l123 124h153zM26 0l150 709h435l-24 -112h-314l-40 -188h285l-24 -109h-284l-41 -188h315l-23 -112h-435z" />
    <glyph glyph-name="Ntilde" unicode="&#xd1;" horiz-adv-x="749" 
d="M664 886c-8 -49 -23 -84 -44 -103s-46 -29 -75 -29c-15 0 -28 3 -40 8s-23 10 -32 16l-8 5c-7 5 -14 9 -21 12s-14 5 -21 5c-9 0 -17 -3 -24 -10s-11 -18 -14 -33h-78c5 48 20 82 43 102c23 19 49 29 78 29c15 0 28 -2 40 -7c11 -5 22 -10 31 -16l8 -6c7 -5 14 -9 21 -12
c6 -3 13 -5 20 -5c19 0 32 15 38 44h78zM477 0l-218 534l-113 -534h-120l150 709h140l205 -509l108 509h121l-151 -709h-122z" />
    <glyph glyph-name="Odieresis" unicode="&#xd6;" horiz-adv-x="777" 
d="M239 814c0 20 7 37 21 52s32 22 53 22c17 0 31 -6 42 -17c11 -12 17 -26 17 -42c0 -22 -7 -40 -22 -53c-15 -14 -32 -21 -51 -21c-17 0 -32 6 -43 17s-17 25 -17 42zM575 814c0 20 7 37 21 52s32 22 53 22c17 0 31 -6 42 -17c11 -12 17 -26 17 -42c0 -22 -7 -40 -22 -53
c-15 -14 -32 -21 -51 -21c-17 0 -32 6 -43 17s-17 25 -17 42zM57 299c0 69 11 130 33 183s51 97 86 133s76 63 121 82c45 18 92 27 139 27s89 -7 127 -22c39 -15 71 -37 98 -64c27 -28 48 -61 63 -100s22 -81 22 -128c0 -69 -11 -129 -33 -182c-21 -53 -50 -98 -86 -134
c-35 -36 -76 -63 -121 -81c-45 -19 -91 -28 -138 -28s-89 8 -128 23c-38 15 -71 37 -98 64s-48 60 -63 99s-22 81 -22 128zM624 401c0 33 -5 62 -14 88s-23 48 -40 66s-37 32 -61 42c-24 9 -50 14 -79 14c-37 0 -71 -8 -101 -23c-31 -16 -57 -38 -79 -65
c-22 -28 -39 -60 -51 -97c-13 -37 -19 -76 -19 -118c0 -33 5 -63 14 -89s23 -48 40 -66s37 -32 61 -41s50 -14 79 -14c37 0 70 8 101 24s57 38 79 65s39 59 51 96s18 76 19 118z" />
    <glyph glyph-name="multiply" unicode="&#xd7;" horiz-adv-x="609" 
d="M317 280l-167 -172l-69 69l167 172l-166 171l69 69l166 -170l166 170l69 -69l-168 -171l168 -172l-68 -69z" />
    <glyph glyph-name="Udieresis" unicode="&#xdc;" horiz-adv-x="682" 
d="M262 814c0 20 7 37 21 52s32 22 53 22c17 0 31 -6 42 -17c11 -12 17 -26 17 -42c0 -22 -7 -40 -22 -53c-15 -14 -32 -21 -51 -21c-17 0 -32 6 -43 17s-17 25 -17 42zM488 814c0 20 7 37 21 52s32 22 53 22c17 0 31 -6 42 -17c11 -12 17 -26 17 -42c0 -22 -7 -40 -22 -53
c-15 -14 -32 -21 -51 -21c-17 0 -32 6 -43 17s-17 25 -17 42zM689 709l-103 -489c-8 -38 -20 -72 -37 -101s-37 -54 -61 -73c-24 -20 -51 -35 -81 -45c-30 -11 -62 -16 -97 -16c-36 0 -69 5 -99 15c-29 10 -55 25 -76 44s-37 42 -49 69c-11 27 -17 57 -17 91c0 13 1 25 2 36
s3 23 6 36l91 433h118l-91 -442c-4 -18 -6 -35 -6 -50c0 -36 10 -64 31 -85s53 -32 98 -32c40 0 73 12 98 35c26 23 44 57 53 102l99 472h121z" />
    <glyph glyph-name="germandbls" unicode="&#xdf;" horiz-adv-x="586" 
d="M389 330c0 -9 3 -16 8 -21c6 -5 14 -11 23 -18l26 -20c21 -17 39 -35 53 -56c15 -21 22 -45 22 -71c0 -16 -3 -33 -10 -52c-6 -19 -16 -36 -30 -52s-32 -29 -55 -40c-22 -11 -49 -16 -80 -16c-24 0 -46 4 -65 11s-36 16 -50 29c-13 13 -24 27 -31 44c-7 16 -11 34 -11 53
v12c0 4 1 8 2 12l99 11c-1 -3 -2 -5 -2 -8v-9c0 -7 1 -15 3 -22s5 -14 10 -20c5 -7 11 -12 19 -16s18 -6 30 -6c11 0 20 2 27 5c8 3 14 8 19 13s8 11 10 17c3 7 4 13 4 19c0 13 -3 23 -10 30c-6 7 -15 16 -27 25l-25 19c-19 15 -37 31 -52 50s-23 41 -23 65c0 17 2 33 7 46
c5 14 12 26 20 36c8 11 17 20 27 27c10 8 20 15 30 20l28 14c21 11 38 22 51 35s19 30 19 51c0 9 -2 17 -6 26s-10 18 -18 25s-18 13 -31 18c-12 5 -26 7 -43 7c-13 0 -27 -2 -40 -7c-13 -4 -26 -11 -37 -21s-22 -23 -31 -40c-9 -16 -16 -36 -21 -60l-104 -495h-115l108 514
c8 37 20 68 36 95s35 49 57 66s46 29 72 37s53 12 81 12c33 0 63 -5 88 -14c26 -9 48 -22 66 -37c17 -16 31 -34 40 -54s13 -41 13 -63c0 -25 -4 -46 -11 -64c-7 -19 -17 -35 -28 -49c-12 -14 -25 -26 -39 -35c-15 -9 -29 -17 -43 -24l-26 -12c-9 -5 -17 -10 -24 -16
s-10 -15 -10 -26z" />
    <glyph glyph-name="agrave" unicode="&#xe0;" horiz-adv-x="583" 
d="M290 398c-23 0 -44 -6 -62 -17s-33 -26 -45 -44c-12 -19 -21 -39 -27 -61c-7 -23 -10 -45 -10 -67c0 -36 9 -65 27 -86c17 -22 43 -33 77 -33c19 0 38 5 55 14s33 23 46 40s23 38 30 62c7 23 11 50 11 79c0 33 -8 61 -25 82s-43 31 -77 31zM553 487l-79 -371
c-3 -15 -6 -31 -7 -46c-2 -15 -3 -30 -3 -46v-10c0 -4 0 -9 1 -14h-108c-1 5 -1 8 -1 11v9v16c0 5 1 13 2 24c-14 -18 -32 -34 -54 -48c-23 -14 -49 -21 -80 -21s-59 5 -83 16s-44 27 -60 46c-17 19 -29 42 -38 68s-13 54 -13 85c0 41 6 79 19 114c13 36 30 67 53 94
c22 27 48 48 79 63s64 23 100 23c22 0 41 -2 58 -7c16 -4 30 -10 42 -17c11 -7 21 -14 29 -23c7 -8 13 -16 17 -24l13 58h113zM178 696h132l57 -148h-90z" />
    <glyph glyph-name="aacute" unicode="&#xe1;" horiz-adv-x="583" 
d="M290 398c-23 0 -44 -6 -62 -17s-33 -26 -45 -44c-12 -19 -21 -39 -27 -61c-7 -23 -10 -45 -10 -67c0 -36 9 -65 27 -86c17 -22 43 -33 77 -33c19 0 38 5 55 14s33 23 46 40s23 38 30 62c7 23 11 50 11 79c0 33 -8 61 -25 82s-43 31 -77 31zM553 487l-79 -371
c-3 -15 -6 -31 -7 -46c-2 -15 -3 -30 -3 -46v-10c0 -4 0 -9 1 -14h-108c-1 5 -1 8 -1 11v9v16c0 5 1 13 2 24c-14 -18 -32 -34 -54 -48c-23 -14 -49 -21 -80 -21s-59 5 -83 16s-44 27 -60 46c-17 19 -29 42 -38 68s-13 54 -13 85c0 41 6 79 19 114c13 36 30 67 53 94
c22 27 48 48 79 63s64 23 100 23c22 0 41 -2 58 -7c16 -4 30 -10 42 -17c11 -7 21 -14 29 -23c7 -8 13 -16 17 -24l13 58h113zM363 548h-100l117 148h145z" />
    <glyph glyph-name="acircumflex" unicode="&#xe2;" horiz-adv-x="583" 
d="M151 549l138 143h123l76 -143h-95l-53 77l-86 -77h-103zM290 398c-23 0 -44 -6 -62 -17s-33 -26 -45 -44c-12 -19 -21 -39 -27 -61c-7 -23 -10 -45 -10 -67c0 -36 9 -65 27 -86c17 -22 43 -33 77 -33c19 0 38 5 55 14s33 23 46 40s23 38 30 62c7 23 11 50 11 79
c0 33 -8 61 -25 82s-43 31 -77 31zM553 487l-79 -371c-3 -15 -6 -31 -7 -46c-2 -15 -3 -30 -3 -46v-10c0 -4 0 -9 1 -14h-108c-1 5 -1 8 -1 11v9v16c0 5 1 13 2 24c-14 -18 -32 -34 -54 -48c-23 -14 -49 -21 -80 -21s-59 5 -83 16s-44 27 -60 46c-17 19 -29 42 -38 68
s-13 54 -13 85c0 41 6 79 19 114c13 36 30 67 53 94c22 27 48 48 79 63s64 23 100 23c22 0 41 -2 58 -7c16 -4 30 -10 42 -17c11 -7 21 -14 29 -23c7 -8 13 -16 17 -24l13 58h113z" />
    <glyph glyph-name="atilde" unicode="&#xe3;" horiz-adv-x="583" 
d="M290 398c-23 0 -44 -6 -62 -17s-33 -26 -45 -44c-12 -19 -21 -39 -27 -61c-7 -23 -10 -45 -10 -67c0 -36 9 -65 27 -86c17 -22 43 -33 77 -33c19 0 38 5 55 14s33 23 46 40s23 38 30 62c7 23 11 50 11 79c0 33 -8 61 -25 82s-43 31 -77 31zM553 487l-79 -371
c-3 -15 -6 -31 -7 -46c-2 -15 -3 -30 -3 -46v-10c0 -4 0 -9 1 -14h-108c-1 5 -1 8 -1 11v9v16c0 5 1 13 2 24c-14 -18 -32 -34 -54 -48c-23 -14 -49 -21 -80 -21s-59 5 -83 16s-44 27 -60 46c-17 19 -29 42 -38 68s-13 54 -13 85c0 41 6 79 19 114c13 36 30 67 53 94
c22 27 48 48 79 63s64 23 100 23c22 0 41 -2 58 -7c16 -4 30 -10 42 -17c11 -7 21 -14 29 -23c7 -8 13 -16 17 -24l13 58h113zM160 555c3 25 8 45 15 62c8 17 18 31 29 42s24 18 37 23c14 5 28 8 43 8s29 -3 40 -8c12 -5 22 -11 31 -16l6 -4c7 -5 13 -9 20 -13
c7 -3 14 -5 22 -5c21 0 34 15 40 44h78c-7 -49 -22 -84 -45 -105c-22 -20 -47 -30 -76 -30c-15 0 -28 2 -39 7s-22 11 -31 17l-8 5c-7 5 -14 9 -20 12c-7 3 -14 5 -23 5c-21 0 -34 -15 -40 -44h-79z" />
    <glyph glyph-name="adieresis" unicode="&#xe4;" horiz-adv-x="583" 
d="M173 618c0 19 7 36 21 51c14 14 31 21 51 21c17 0 32 -6 43 -18s16 -26 16 -41c0 -21 -8 -38 -23 -51s-32 -20 -51 -20c-17 0 -30 6 -41 17s-16 25 -16 41zM376 618c0 9 2 18 6 27s9 16 16 23c6 7 13 12 22 16s18 6 28 6c17 0 32 -6 43 -18s16 -26 16 -41
c0 -21 -8 -38 -23 -51s-32 -20 -50 -20c-17 0 -31 6 -42 17s-16 25 -16 41zM290 398c-23 0 -44 -6 -62 -17s-33 -26 -45 -44c-12 -19 -21 -39 -27 -61c-7 -23 -10 -45 -10 -67c0 -36 9 -65 27 -86c17 -22 43 -33 77 -33c19 0 38 5 55 14s33 23 46 40s23 38 30 62
c7 23 11 50 11 79c0 33 -8 61 -25 82s-43 31 -77 31zM553 487l-79 -371c-3 -15 -6 -31 -7 -46c-2 -15 -3 -30 -3 -46v-10c0 -4 0 -9 1 -14h-108c-1 5 -1 8 -1 11v9v16c0 5 1 13 2 24c-14 -18 -32 -34 -54 -48c-23 -14 -49 -21 -80 -21s-59 5 -83 16s-44 27 -60 46
c-17 19 -29 42 -38 68s-13 54 -13 85c0 41 6 79 19 114c13 36 30 67 53 94c22 27 48 48 79 63s64 23 100 23c22 0 41 -2 58 -7c16 -4 30 -10 42 -17c11 -7 21 -14 29 -23c7 -8 13 -16 17 -24l13 58h113z" />
    <glyph glyph-name="aring" unicode="&#xe5;" horiz-adv-x="583" 
d="M290 398c-23 0 -44 -6 -62 -17s-33 -26 -45 -44c-12 -19 -21 -39 -27 -61c-7 -23 -10 -45 -10 -67c0 -36 9 -65 27 -86c17 -22 43 -33 77 -33c19 0 38 5 55 14s33 23 46 40s23 38 30 62c7 23 11 50 11 79c0 33 -8 61 -25 82s-43 31 -77 31zM553 487l-79 -371
c-3 -15 -6 -31 -7 -46c-2 -15 -3 -30 -3 -46v-10c0 -4 0 -9 1 -14h-108c-1 5 -1 8 -1 11v9v16c0 5 1 13 2 24c-14 -18 -32 -34 -54 -48c-23 -14 -49 -21 -80 -21s-59 5 -83 16s-44 27 -60 46c-17 19 -29 42 -38 68s-13 54 -13 85c0 41 6 79 19 114c13 36 30 67 53 94
c22 27 48 48 79 63s64 23 100 23c22 0 41 -2 58 -7c16 -4 30 -10 42 -17c11 -7 21 -14 29 -23c7 -8 13 -16 17 -24l13 58h113zM348 758c15 0 28 -3 41 -8s24 -12 33 -21c10 -9 18 -19 23 -32c5 -12 8 -25 8 -39c0 -16 -3 -31 -10 -46s-16 -28 -27 -39s-24 -19 -39 -26
c-15 -6 -30 -9 -46 -9c-15 0 -29 2 -42 7s-24 12 -33 21s-17 20 -23 32c-5 12 -8 25 -8 39c0 18 3 34 10 49s17 28 28 38c12 11 25 19 40 25s30 9 45 9zM294 644c0 -12 4 -22 11 -29s17 -10 29 -10c13 0 25 4 34 13s14 20 14 34c0 11 -4 21 -11 28s-17 11 -29 11
s-23 -4 -33 -13s-15 -20 -15 -34z" />
    <glyph glyph-name="ccedilla" unicode="&#xe7;" horiz-adv-x="539" 
d="M195 -8c-51 13 -92 39 -121 78c-29 40 -44 87 -44 142c0 43 7 83 22 118c15 36 34 67 59 92s53 45 86 59s67 21 104 21c33 0 62 -5 87 -15c24 -9 44 -22 61 -37c16 -15 29 -32 39 -51c9 -19 16 -37 20 -56l-105 -33c-5 23 -17 43 -34 60c-17 18 -43 27 -76 27
c-18 0 -36 -4 -53 -12c-18 -7 -34 -19 -48 -34s-25 -34 -34 -57s-13 -49 -13 -80c0 -39 11 -69 33 -92c21 -22 50 -33 86 -33c16 0 31 2 44 7s24 11 34 18c9 8 18 17 25 26c7 10 14 20 19 30l96 -39c-9 -18 -19 -35 -32 -52s-27 -32 -44 -45s-37 -23 -58 -32
c-22 -9 -46 -14 -72 -16l-43 -38c23 -3 41 -12 54 -26s19 -30 19 -49c0 -12 -3 -24 -8 -36c-5 -11 -13 -22 -23 -31c-11 -9 -23 -16 -38 -21s-33 -8 -52 -8s-35 2 -50 7s-27 12 -38 19s-19 15 -26 23s-11 15 -14 20l54 40c2 -3 5 -8 8 -13s8 -11 14 -16c5 -5 12 -9 21 -12
c8 -3 18 -5 29 -5s21 2 30 7s13 13 13 24c0 10 -4 18 -11 23c-8 5 -18 8 -29 8c-3 0 -6 0 -9 -1c-3 0 -5 0 -8 -1l-23 47z" />
    <glyph glyph-name="egrave" unicode="&#xe8;" horiz-adv-x="545" 
d="M389 297c0 1 0 4 1 7v8c0 11 -2 22 -5 33s-9 21 -16 30c-8 9 -18 16 -31 22c-13 5 -28 8 -47 8c-18 0 -34 -3 -49 -9s-29 -14 -40 -24s-21 -21 -29 -34s-14 -27 -18 -41h234zM142 212c-1 -3 -1 -7 -1 -11c0 -35 11 -63 32 -84c21 -22 49 -33 83 -33c32 0 58 7 79 22
c21 14 36 30 45 49l89 -49c-8 -16 -19 -31 -32 -46c-14 -15 -30 -27 -48 -38s-38 -20 -61 -27s-48 -10 -75 -10c-30 0 -58 5 -85 15s-51 25 -71 44c-21 19 -37 42 -49 70c-12 27 -18 59 -18 94c0 46 8 87 23 124c15 36 34 67 59 92s53 45 85 58c31 13 64 20 97 20
s63 -5 89 -15s48 -24 66 -41c17 -18 31 -39 40 -64s14 -52 14 -81c0 -17 -1 -33 -4 -48c-3 -16 -7 -30 -10 -41h-347zM190 696h132l57 -148h-90z" />
    <glyph glyph-name="eacute" unicode="&#xe9;" horiz-adv-x="545" 
d="M351 548h-100l117 148h145zM389 297c0 1 0 4 1 7v8c0 11 -2 22 -5 33s-9 21 -16 30c-8 9 -18 16 -31 22c-13 5 -28 8 -47 8c-18 0 -34 -3 -49 -9s-29 -14 -40 -24s-21 -21 -29 -34s-14 -27 -18 -41h234zM142 212c-1 -3 -1 -7 -1 -11c0 -35 11 -63 32 -84
c21 -22 49 -33 83 -33c32 0 58 7 79 22c21 14 36 30 45 49l89 -49c-8 -16 -19 -31 -32 -46c-14 -15 -30 -27 -48 -38s-38 -20 -61 -27s-48 -10 -75 -10c-30 0 -58 5 -85 15s-51 25 -71 44c-21 19 -37 42 -49 70c-12 27 -18 59 -18 94c0 46 8 87 23 124c15 36 34 67 59 92
s53 45 85 58c31 13 64 20 97 20s63 -5 89 -15s48 -24 66 -41c17 -18 31 -39 40 -64s14 -52 14 -81c0 -17 -1 -33 -4 -48c-3 -16 -7 -30 -10 -41h-347z" />
    <glyph glyph-name="ecircumflex" unicode="&#xea;" horiz-adv-x="545" 
d="M150 549l138 143h123l76 -143h-95l-53 77l-86 -77h-103zM389 297c0 1 0 4 1 7v8c0 11 -2 22 -5 33s-9 21 -16 30c-8 9 -18 16 -31 22c-13 5 -28 8 -47 8c-18 0 -34 -3 -49 -9s-29 -14 -40 -24s-21 -21 -29 -34s-14 -27 -18 -41h234zM142 212c-1 -3 -1 -7 -1 -11
c0 -35 11 -63 32 -84c21 -22 49 -33 83 -33c32 0 58 7 79 22c21 14 36 30 45 49l89 -49c-8 -16 -19 -31 -32 -46c-14 -15 -30 -27 -48 -38s-38 -20 -61 -27s-48 -10 -75 -10c-30 0 -58 5 -85 15s-51 25 -71 44c-21 19 -37 42 -49 70c-12 27 -18 59 -18 94c0 46 8 87 23 124
c15 36 34 67 59 92s53 45 85 58c31 13 64 20 97 20s63 -5 89 -15s48 -24 66 -41c17 -18 31 -39 40 -64s14 -52 14 -81c0 -17 -1 -33 -4 -48c-3 -16 -7 -30 -10 -41h-347z" />
    <glyph glyph-name="edieresis" unicode="&#xeb;" horiz-adv-x="545" 
d="M164 618c0 19 7 36 21 51c14 14 31 21 51 21c17 0 32 -6 43 -18s16 -26 16 -41c0 -21 -8 -38 -23 -51s-32 -20 -51 -20c-17 0 -30 6 -41 17s-16 25 -16 41zM367 618c0 9 2 18 6 27s9 16 16 23c6 7 13 12 22 16s18 6 28 6c17 0 32 -6 43 -18s16 -26 16 -41
c0 -21 -8 -38 -23 -51s-32 -20 -50 -20c-17 0 -31 6 -42 17s-16 25 -16 41zM389 297c0 1 0 4 1 7v8c0 11 -2 22 -5 33s-9 21 -16 30c-8 9 -18 16 -31 22c-13 5 -28 8 -47 8c-18 0 -34 -3 -49 -9s-29 -14 -40 -24s-21 -21 -29 -34s-14 -27 -18 -41h234zM142 212
c-1 -3 -1 -7 -1 -11c0 -35 11 -63 32 -84c21 -22 49 -33 83 -33c32 0 58 7 79 22c21 14 36 30 45 49l89 -49c-8 -16 -19 -31 -32 -46c-14 -15 -30 -27 -48 -38s-38 -20 -61 -27s-48 -10 -75 -10c-30 0 -58 5 -85 15s-51 25 -71 44c-21 19 -37 42 -49 70
c-12 27 -18 59 -18 94c0 46 8 87 23 124c15 36 34 67 59 92s53 45 85 58c31 13 64 20 97 20s63 -5 89 -15s48 -24 66 -41c17 -18 31 -39 40 -64s14 -52 14 -81c0 -17 -1 -33 -4 -48c-3 -16 -7 -30 -10 -41h-347z" />
    <glyph glyph-name="igrave" unicode="&#xec;" horiz-adv-x="256" 
d="M8 0l104 487h116l-104 -487h-116zM37 696h132l57 -148h-90z" />
    <glyph glyph-name="iacute" unicode="&#xed;" horiz-adv-x="256" 
d="M226 548h-100l117 148h145zM8 0l104 487h116l-104 -487h-116z" />
    <glyph glyph-name="icircumflex" unicode="&#xee;" horiz-adv-x="256" 
d="M10 549l138 143h123l76 -143h-95l-53 77l-86 -77h-103zM8 0l104 487h116l-104 -487h-116z" />
    <glyph glyph-name="idieresis" unicode="&#xef;" horiz-adv-x="256" 
d="M56 618c0 18 6 34 19 47c13 14 29 21 48 21c17 0 30 -5 41 -16c10 -11 15 -24 15 -39c0 -19 -7 -35 -21 -47c-14 -13 -30 -19 -47 -19s-31 5 -40 15c-10 10 -15 23 -15 38zM212 618c0 18 6 34 19 47c13 14 29 21 48 21c17 0 30 -5 41 -16c10 -11 15 -24 15 -39
c0 -19 -7 -35 -21 -48c-14 -12 -30 -18 -47 -18s-31 5 -40 15c-10 10 -15 23 -15 38zM8 0l104 487h116l-104 -487h-116z" />
    <glyph glyph-name="ntilde" unicode="&#xf1;" horiz-adv-x="560" 
d="M157 555c3 25 8 45 15 62c8 17 18 31 29 42s24 18 37 23c14 5 28 8 43 8s29 -3 40 -8c12 -5 22 -11 31 -16l6 -4c7 -5 13 -9 20 -13c7 -3 14 -5 22 -5c21 0 34 15 40 44h78c-7 -49 -22 -84 -45 -104c-22 -21 -47 -31 -76 -31c-15 0 -28 3 -39 8s-22 10 -31 16l-8 5
c-7 5 -14 9 -20 12c-7 3 -14 5 -23 5c-21 0 -34 -15 -40 -44h-79zM318 0l62 288c1 5 2 11 3 16s1 10 1 15c0 25 -7 44 -21 58s-34 21 -61 21c-17 0 -32 -3 -45 -9c-13 -7 -24 -15 -34 -26c-9 -11 -17 -23 -24 -37c-6 -14 -11 -28 -14 -43l-61 -283h-115l85 403
c5 23 8 43 9 58s2 24 2 26h112c0 -3 0 -10 -1 -21s-2 -21 -4 -30c17 23 39 40 64 50c26 10 53 15 80 15c46 0 82 -14 108 -42s39 -64 39 -109c0 -8 -1 -17 -2 -26c-1 -10 -2 -19 -4 -28l-64 -296h-115z" />
    <glyph glyph-name="ograve" unicode="&#xf2;" horiz-adv-x="569" 
d="M186 696h132l57 -148h-90zM292 398c-19 0 -38 -4 -55 -13c-18 -9 -34 -21 -47 -37s-24 -35 -32 -57c-8 -23 -12 -48 -12 -76c0 -39 10 -69 31 -92c20 -23 47 -34 80 -34c18 0 36 4 53 11c17 8 33 20 47 36c14 15 25 35 34 58c8 23 12 49 12 79c0 39 -10 69 -29 91
c-20 22 -47 33 -82 34zM520 277c0 -40 -7 -78 -20 -114c-13 -35 -32 -66 -56 -93c-24 -26 -52 -47 -85 -62s-69 -23 -108 -23c-34 0 -65 6 -92 17c-27 12 -50 28 -69 49s-34 45 -44 72c-11 27 -16 57 -16 88c0 43 7 82 21 117c14 36 33 67 58 92c24 26 53 46 86 60
c33 15 68 22 105 22c35 0 66 -6 93 -18c27 -11 51 -27 70 -48c19 -20 33 -44 43 -71c9 -27 14 -57 14 -88z" />
    <glyph glyph-name="oacute" unicode="&#xf3;" horiz-adv-x="569" 
d="M363 548h-100l117 148h145zM292 398c-19 0 -38 -4 -55 -13c-18 -9 -34 -21 -47 -37s-24 -35 -32 -57c-8 -23 -12 -48 -12 -76c0 -39 10 -69 31 -92c20 -23 47 -34 80 -34c18 0 36 4 53 11c17 8 33 20 47 36c14 15 25 35 34 58c8 23 12 49 12 79c0 39 -10 69 -29 91
c-20 22 -47 33 -82 34zM520 277c0 -40 -7 -78 -20 -114c-13 -35 -32 -66 -56 -93c-24 -26 -52 -47 -85 -62s-69 -23 -108 -23c-34 0 -65 6 -92 17c-27 12 -50 28 -69 49s-34 45 -44 72c-11 27 -16 57 -16 88c0 43 7 82 21 117c14 36 33 67 58 92c24 26 53 46 86 60
c33 15 68 22 105 22c35 0 66 -6 93 -18c27 -11 51 -27 70 -48c19 -20 33 -44 43 -71c9 -27 14 -57 14 -88z" />
    <glyph glyph-name="ocircumflex" unicode="&#xf4;" horiz-adv-x="569" 
d="M156 549l138 143h123l76 -143h-95l-53 77l-86 -77h-103zM292 398c-19 0 -38 -4 -55 -13c-18 -9 -34 -21 -47 -37s-24 -35 -32 -57c-8 -23 -12 -48 -12 -76c0 -39 10 -69 31 -92c20 -23 47 -34 80 -34c18 0 36 4 53 11c17 8 33 20 47 36c14 15 25 35 34 58
c8 23 12 49 12 79c0 39 -10 69 -29 91c-20 22 -47 33 -82 34zM520 277c0 -40 -7 -78 -20 -114c-13 -35 -32 -66 -56 -93c-24 -26 -52 -47 -85 -62s-69 -23 -108 -23c-34 0 -65 6 -92 17c-27 12 -50 28 -69 49s-34 45 -44 72c-11 27 -16 57 -16 88c0 43 7 82 21 117
c14 36 33 67 58 92c24 26 53 46 86 60c33 15 68 22 105 22c35 0 66 -6 93 -18c27 -11 51 -27 70 -48c19 -20 33 -44 43 -71c9 -27 14 -57 14 -88z" />
    <glyph glyph-name="otilde" unicode="&#xf5;" horiz-adv-x="569" 
d="M292 398c-19 0 -38 -4 -55 -13c-18 -9 -34 -21 -47 -37s-24 -35 -32 -57c-8 -23 -12 -48 -12 -76c0 -39 10 -69 31 -92c20 -23 47 -34 80 -34c18 0 36 4 53 11c17 8 33 20 47 36c14 15 25 35 34 58c8 23 12 49 12 79c0 39 -10 69 -29 91c-20 22 -47 33 -82 34zM520 277
c0 -40 -7 -78 -20 -114c-13 -35 -32 -66 -56 -93c-24 -26 -52 -47 -85 -62s-69 -23 -108 -23c-34 0 -65 6 -92 17c-27 12 -50 28 -69 49s-34 45 -44 72c-11 27 -16 57 -16 88c0 43 7 82 21 117c14 36 33 67 58 92c24 26 53 46 86 60c33 15 68 22 105 22c35 0 66 -6 93 -18
c27 -11 51 -27 70 -48c19 -20 33 -44 43 -71c9 -27 14 -57 14 -88zM145 555c3 25 8 45 15 62c8 17 18 31 29 42s24 18 37 23c14 5 28 8 43 8s29 -3 40 -8c12 -5 22 -11 31 -16l6 -4c7 -5 13 -9 20 -13c7 -3 14 -5 22 -5c21 0 34 15 40 44h78c-7 -49 -22 -84 -44 -105
c-23 -20 -48 -30 -77 -30c-15 0 -28 2 -39 7s-22 11 -31 17l-8 5c-7 5 -14 9 -20 12c-7 3 -14 5 -23 5c-21 0 -34 -15 -40 -44h-79z" />
    <glyph glyph-name="odieresis" unicode="&#xf6;" horiz-adv-x="569" 
d="M171 618c0 19 7 36 21 51c14 14 31 21 51 21c17 0 32 -6 43 -18s16 -26 16 -41c0 -21 -8 -38 -23 -51s-32 -20 -51 -20c-17 0 -30 6 -41 17s-16 25 -16 41zM374 618c0 9 2 18 6 27s9 16 16 23c6 7 13 12 22 16s18 6 28 6c17 0 32 -6 43 -18s16 -26 16 -41
c0 -21 -8 -38 -23 -51s-32 -20 -50 -20c-17 0 -31 6 -42 17s-16 25 -16 41zM292 398c-19 0 -38 -4 -55 -13c-18 -9 -34 -21 -47 -37s-24 -35 -32 -57c-8 -23 -12 -48 -12 -76c0 -39 10 -69 31 -92c20 -23 47 -34 80 -34c18 0 36 4 53 11c17 8 33 20 47 36c14 15 25 35 34 58
c8 23 12 49 12 79c0 39 -10 69 -29 91c-20 22 -47 33 -82 34zM520 277c0 -40 -7 -78 -20 -114c-13 -35 -32 -66 -56 -93c-24 -26 -52 -47 -85 -62s-69 -23 -108 -23c-34 0 -65 6 -92 17c-27 12 -50 28 -69 49s-34 45 -44 72c-11 27 -16 57 -16 88c0 43 7 82 21 117
c14 36 33 67 58 92c24 26 53 46 86 60c33 15 68 22 105 22c35 0 66 -6 93 -18c27 -11 51 -27 70 -48c19 -20 33 -44 43 -71c9 -27 14 -57 14 -88z" />
    <glyph glyph-name="divide" unicode="&#xf7;" horiz-adv-x="572" 
d="M224 168c0 19 7 36 22 50c14 14 31 21 50 21s36 -7 50 -21c15 -14 22 -31 22 -50s-7 -36 -22 -50c-14 -15 -31 -22 -50 -22s-36 7 -50 22c-15 14 -22 31 -22 50zM224 530c0 19 7 36 22 50c14 14 31 21 50 21s36 -7 50 -21c15 -14 22 -31 22 -50s-7 -36 -22 -51
c-14 -15 -31 -22 -50 -22s-36 7 -50 22c-15 15 -22 32 -22 51zM61 398h474v-98h-474v98z" />
    <glyph glyph-name="ugrave" unicode="&#xf9;" horiz-adv-x="555" 
d="M222 487l-60 -280c-3 -15 -5 -28 -5 -39c0 -23 6 -42 19 -57c12 -15 32 -22 61 -22c15 0 29 3 42 9s24 14 33 25s17 23 24 36c6 14 11 29 14 44l60 284h114l-78 -376c-3 -15 -6 -30 -8 -45c-2 -14 -3 -29 -3 -44v-10c0 -3 0 -7 1 -12h-112c-1 3 -1 7 -2 12v17v11
c0 4 0 8 1 13c-14 -21 -33 -37 -56 -48s-46 -16 -69 -16c-51 0 -91 15 -118 44c-27 30 -41 68 -41 115c0 17 2 35 6 54l61 285h116zM185 696h132l57 -148h-90z" />
    <glyph glyph-name="uacute" unicode="&#xfa;" horiz-adv-x="555" 
d="M354 548h-100l117 148h145zM222 487l-60 -280c-3 -15 -5 -28 -5 -39c0 -23 6 -42 19 -57c12 -15 32 -22 61 -22c15 0 29 3 42 9s24 14 33 25s17 23 24 36c6 14 11 29 14 44l60 284h114l-78 -376c-3 -15 -6 -30 -8 -45c-2 -14 -3 -29 -3 -44v-10c0 -3 0 -7 1 -12h-112
c-1 3 -1 7 -2 12v17v11c0 4 0 8 1 13c-14 -21 -33 -37 -56 -48s-46 -16 -69 -16c-51 0 -91 15 -118 44c-27 30 -41 68 -41 115c0 17 2 35 6 54l61 285h116z" />
    <glyph glyph-name="ucircumflex" unicode="&#xfb;" horiz-adv-x="555" 
d="M155 549l138 143h123l76 -143h-95l-53 77l-86 -77h-103zM222 487l-60 -280c-3 -15 -5 -28 -5 -39c0 -23 6 -42 19 -57c12 -15 32 -22 61 -22c15 0 29 3 42 9s24 14 33 25s17 23 24 36c6 14 11 29 14 44l60 284h114l-78 -376c-3 -15 -6 -30 -8 -45c-2 -14 -3 -29 -3 -44
v-10c0 -3 0 -7 1 -12h-112c-1 3 -1 7 -2 12v17v11c0 4 0 8 1 13c-14 -21 -33 -37 -56 -48s-46 -16 -69 -16c-51 0 -91 15 -118 44c-27 30 -41 68 -41 115c0 17 2 35 6 54l61 285h116z" />
    <glyph glyph-name="udieresis" unicode="&#xfc;" horiz-adv-x="555" 
d="M176 618c0 19 7 36 21 51c14 14 31 21 51 21c17 0 32 -6 43 -18s16 -26 16 -41c0 -21 -8 -38 -23 -51s-32 -20 -51 -20c-17 0 -30 6 -41 17s-16 25 -16 41zM379 618c0 9 2 18 6 27s9 16 16 23c6 7 13 12 22 16s18 6 28 6c17 0 32 -6 43 -18s16 -26 16 -41
c0 -21 -8 -38 -23 -51s-32 -20 -50 -20c-17 0 -31 6 -42 17s-16 25 -16 41zM222 487l-60 -280c-3 -15 -5 -28 -5 -39c0 -23 6 -42 19 -57c12 -15 32 -22 61 -22c15 0 29 3 42 9s24 14 33 25s17 23 24 36c6 14 11 29 14 44l60 284h114l-78 -376c-3 -15 -6 -30 -8 -45
c-2 -14 -3 -29 -3 -44v-10c0 -3 0 -7 1 -12h-112c-1 3 -1 7 -1 12c-1 5 -1 10 -1 17v11c0 4 0 8 1 13c-14 -21 -33 -37 -56 -48s-46 -16 -69 -16c-51 0 -91 15 -118 44c-27 30 -41 68 -41 115c0 17 2 35 6 54l61 285h116z" />
    <glyph glyph-name="OE" unicode="&#x152;" horiz-adv-x="1095" 
d="M624 401c0 33 -5 62 -14 88s-23 48 -40 66s-37 32 -61 42c-24 9 -50 14 -79 14c-37 0 -71 -8 -102 -23c-30 -16 -56 -38 -78 -65c-22 -28 -39 -60 -52 -97c-12 -37 -18 -76 -18 -118c0 -33 5 -63 14 -89s22 -48 39 -66s38 -32 62 -41s50 -14 79 -14c37 0 70 8 101 24
s57 38 79 65s39 59 51 96s18 76 19 118zM547 0l12 58c-27 -23 -58 -41 -91 -54c-34 -13 -69 -19 -106 -19c-45 0 -87 8 -124 23c-38 15 -70 37 -97 65c-27 27 -47 60 -62 99c-15 38 -22 80 -22 127c0 69 11 130 33 183s51 97 86 133s76 63 121 82c45 18 92 27 139 27
c58 0 107 -11 146 -32c40 -22 71 -53 92 -93l23 110h435l-24 -112h-314l-40 -188h285l-24 -109h-284l-41 -188h315l-23 -112h-435z" />
    <glyph glyph-name="oe" unicode="&#x153;" horiz-adv-x="915" 
d="M623 -15c-38 0 -73 8 -104 23s-57 36 -77 64c-23 -27 -51 -48 -84 -63c-32 -16 -68 -24 -107 -24c-34 0 -65 6 -92 18c-27 11 -50 27 -69 48s-34 45 -44 72c-11 27 -16 57 -16 88c0 43 7 82 21 118c14 35 33 66 58 92c24 25 53 45 86 60c33 14 68 21 105 21
c41 0 77 -8 106 -23c29 -16 52 -37 69 -64c25 28 55 50 88 65s66 22 101 22c33 0 63 -5 89 -15s48 -24 66 -41c17 -18 31 -39 40 -64s14 -52 14 -81c0 -17 -1 -33 -4 -48c-3 -16 -7 -30 -10 -41h-347c-1 -3 -1 -6 -1 -11c0 -35 11 -63 32 -84c21 -22 49 -33 83 -33
c32 0 58 7 79 22c21 14 36 30 46 49l88 -49c-8 -16 -19 -31 -32 -46c-14 -15 -30 -27 -48 -38s-38 -20 -61 -27s-48 -10 -75 -10zM759 297c0 1 0 4 1 7v8c0 11 -2 22 -5 33s-9 21 -16 30c-8 9 -18 16 -31 22c-13 5 -28 8 -47 8c-18 0 -35 -3 -50 -9s-28 -14 -39 -24
s-21 -21 -29 -34s-14 -27 -18 -41h234zM403 273c0 38 -10 68 -29 91c-20 23 -47 34 -82 34c-19 0 -38 -4 -55 -13c-18 -9 -34 -21 -47 -37s-24 -35 -32 -57c-8 -23 -12 -48 -12 -76c0 -39 10 -69 31 -92c20 -23 47 -34 80 -34c18 0 36 4 53 12c17 7 33 19 47 35
c14 15 25 35 34 58c8 23 12 49 12 79z" />
    <glyph glyph-name="florin" unicode="&#x192;" horiz-adv-x="401" 
d="M150 388h-103v99h123l21 101c5 27 14 50 26 69s26 35 42 47c16 13 33 22 52 27c19 6 38 9 57 9c22 0 39 -1 51 -4c12 -2 23 -5 32 -8v-101c-9 3 -17 5 -26 6s-19 2 -31 2c-8 0 -16 -1 -25 -3s-18 -6 -26 -12c-9 -6 -16 -14 -23 -25s-13 -26 -17 -44l-13 -64h122v-99h-142
l-80 -401c-5 -27 -14 -50 -26 -69s-26 -35 -42 -47c-16 -13 -33 -22 -52 -27c-19 -6 -39 -9 -58 -9c-22 0 -39 1 -50 4c-11 2 -23 5 -35 8v101c8 -2 17 -4 27 -5s21 -2 34 -2c8 0 16 1 25 2c9 2 17 6 26 12c8 6 16 14 23 25s12 26 15 44z" />
    <glyph glyph-name="uni02BB" unicode="&#x2bb;" horiz-adv-x="221" 
d="M242 606c0 -18 -7 -33 -20 -46s-30 -20 -49 -20c-21 0 -37 7 -49 22c-13 14 -19 30 -19 47c0 22 4 41 13 58c9 16 20 29 33 40c13 10 28 18 44 23s32 7 47 7h7c3 0 6 0 10 -1l-9 -45c-3 1 -6 1 -7 1h-4c-17 0 -33 -4 -46 -11c-14 -8 -23 -18 -26 -29l9 3s7 1 12 1
c18 0 32 -5 41 -15s13 -22 13 -35z" />
    <glyph glyph-name="uni02BC" unicode="&#x2bc;" horiz-adv-x="229" 
d="M119 580h9c14 0 28 3 42 8s25 16 32 31c-5 -3 -12 -4 -21 -4c-17 0 -31 5 -40 15s-14 22 -14 36c0 19 7 34 20 46c13 11 30 17 49 17s35 -6 48 -17c13 -12 20 -29 20 -51c0 -19 -4 -37 -11 -52c-7 -16 -17 -29 -30 -40c-12 -11 -26 -20 -42 -26c-17 -6 -34 -9 -52 -9h-9
c-3 0 -7 0 -10 1z" />
    <glyph glyph-name="circumflex" unicode="&#x2c6;" horiz-adv-x="386" 
d="M-42 549l138 143h123l76 -143h-95l-53 77l-86 -77h-103z" />
    <glyph glyph-name="caron" unicode="&#x2c7;" horiz-adv-x="386" 
d="M327 694l-137 -145h-125l-74 145h94l53 -77l85 77h104z" />
    <glyph glyph-name="uni02C9" unicode="&#x2c9;" horiz-adv-x="328" 
d="M-34 577l19 90h277l-19 -90h-277z" />
    <glyph glyph-name="breve" unicode="&#x2d8;" horiz-adv-x="359" 
d="M158 547c-21 0 -40 3 -56 10c-17 7 -30 16 -41 27s-20 24 -25 39c-6 14 -9 29 -9 45c0 11 1 20 3 27h79c-1 -3 -1 -5 -1 -8c0 -13 4 -26 13 -37c8 -11 23 -17 46 -17c13 0 24 2 33 6s17 9 24 15s12 13 17 20c4 7 7 14 9 21h88c-4 -19 -11 -37 -20 -54
c-9 -18 -21 -34 -36 -48s-33 -25 -53 -33c-21 -9 -44 -13 -71 -13z" />
    <glyph glyph-name="dotaccent" unicode="&#x2d9;" horiz-adv-x="191" 
d="M-29 614c0 21 8 39 23 56s34 25 57 25c19 0 35 -6 47 -19c13 -13 19 -28 19 -45c0 -11 -2 -22 -7 -32c-4 -10 -10 -19 -17 -26s-16 -13 -25 -17c-10 -5 -20 -7 -31 -7c-19 0 -35 6 -48 19c-12 13 -18 28 -18 46z" />
    <glyph glyph-name="ring" unicode="&#x2da;" horiz-adv-x="277" 
d="M98 755c15 0 28 -2 41 -7s24 -12 33 -21c10 -9 18 -20 23 -32c5 -13 8 -26 8 -40c0 -16 -3 -31 -10 -46s-16 -27 -27 -38s-24 -20 -39 -26c-15 -7 -30 -10 -46 -10c-15 0 -29 3 -42 8s-24 12 -33 21s-17 19 -23 31c-5 12 -8 25 -8 39c0 18 3 35 10 50s17 27 28 38
c12 10 25 18 40 24s30 9 45 9zM44 641c0 -12 4 -21 11 -28s17 -11 29 -11c13 0 25 4 34 13s14 20 14 34c0 11 -4 21 -11 28s-17 11 -29 11s-23 -4 -33 -13s-15 -20 -15 -34z" />
    <glyph glyph-name="ogonek" unicode="&#x2db;" horiz-adv-x="218" 
d="M56 -220c-29 0 -54 8 -73 25c-19 16 -29 38 -29 67c0 21 4 40 13 57s19 31 32 43c14 12 28 22 43 30s28 14 41 19l65 -21c-11 -5 -23 -10 -35 -17s-23 -14 -33 -23s-18 -18 -25 -29s-10 -22 -10 -35s4 -23 13 -29s19 -9 32 -10c7 0 14 0 19 1s8 1 9 1l-15 -72
c-7 -2 -13 -4 -20 -5s-16 -2 -27 -2z" />
    <glyph glyph-name="tilde" unicode="&#x2dc;" horiz-adv-x="375" 
d="M1 555c3 25 8 45 15 62c8 17 18 31 29 42s24 18 37 23c14 5 28 8 43 8s29 -3 40 -8c12 -5 22 -11 31 -16l6 -4c7 -5 13 -9 20 -13c7 -3 14 -5 22 -5c21 0 34 15 40 44h78c-7 -49 -22 -84 -45 -104c-22 -21 -47 -31 -76 -31c-15 0 -28 3 -39 8s-22 10 -31 16l-8 5
c-7 5 -14 9 -20 12c-7 3 -14 5 -23 5c-21 0 -34 -15 -40 -44h-79z" />
    <glyph glyph-name="hungarumlaut" unicode="&#x2dd;" horiz-adv-x="373" 
d="M35 548h-80l84 148h122zM179 548h-80l96 148h123z" />
    <glyph glyph-name="uni0394" unicode="&#x394;" horiz-adv-x="685" 
d="M314 576l-171 -465h343zM250 709h130l274 -709h-678z" />
    <glyph glyph-name="uni03A9" unicode="&#x3a9;" horiz-adv-x="835" 
d="M421 614c-28 0 -55 -5 -82 -14c-27 -10 -52 -24 -73 -43s-38 -43 -51 -70c-13 -28 -20 -60 -20 -96c0 -32 6 -61 17 -86c11 -26 25 -49 42 -68s37 -35 59 -47c23 -13 46 -21 69 -26v-164h-304v109h185c-25 10 -50 24 -73 41s-43 38 -60 63c-17 24 -31 52 -42 83
s-16 64 -16 100c0 51 10 96 29 137s45 75 77 104c32 28 69 50 111 65s86 22 132 22s90 -7 132 -22s79 -37 111 -65c32 -29 58 -63 77 -104s29 -86 29 -137c0 -36 -5 -69 -16 -100s-25 -59 -42 -83c-17 -25 -38 -46 -61 -63s-47 -31 -72 -41h185v-109h-304v164
c23 5 45 13 68 26c23 12 43 28 60 47s32 42 43 68c11 25 16 54 16 86c0 36 -6 68 -19 96c-13 27 -31 51 -52 70s-45 33 -72 43c-27 9 -55 14 -83 14z" />
    <glyph glyph-name="uni03BC" unicode="&#x3bc;" horiz-adv-x="600" 
d="M72 487h117v-286c0 -15 2 -30 6 -43c3 -13 9 -25 17 -35s18 -18 31 -24c12 -6 27 -9 44 -9c34 0 60 10 77 30c17 21 25 47 25 79v288h116v-398c0 -23 1 -42 2 -59c1 -16 2 -26 3 -30h-111c-1 5 -2 13 -3 24s-1 22 -1 31c-13 -23 -33 -41 -59 -52s-52 -17 -79 -17
c-25 0 -48 5 -69 14v-190h-116v677z" />
    <glyph glyph-name="pi" unicode="&#x3c0;" horiz-adv-x="694" 
d="M525 139c0 -18 5 -30 16 -37c10 -7 22 -11 35 -11s23 1 31 4v-90c-4 -1 -11 -4 -22 -8c-11 -3 -25 -5 -43 -5c-23 0 -42 3 -58 11c-17 7 -30 16 -41 28s-20 26 -25 42s-8 33 -8 52v262h-147v-387h-115v387h-83v100h540v-100h-80v-248z" />
    <glyph glyph-name="uni0400" unicode="&#x400;" 
d="M26 0l150 709h435l-24 -113h-314l-40 -187h285l-24 -109h-284l-40 -187h315l-24 -113h-435zM364 759l-99 148h132l57 -148h-90z" />
    <glyph glyph-name="uni0401" unicode="&#x401;" 
d="M26 0l150 709h435l-24 -113h-314l-40 -187h285l-24 -109h-284l-40 -187h315l-24 -113h-435zM297 755c-17 0 -32 6 -43 17s-17 26 -17 43c0 19 7 36 21 51s32 22 53 22c17 0 32 -6 43 -17c11 -12 16 -26 16 -42c0 -22 -7 -40 -22 -53c-15 -14 -32 -21 -51 -21zM544 755
c-18 0 -33 6 -44 17s-17 26 -17 43c0 19 7 36 21 51c15 15 32 22 53 22c18 0 32 -6 43 -17c11 -12 17 -26 17 -42c0 -22 -7 -40 -22 -53c-15 -14 -32 -21 -51 -21z" />
    <glyph glyph-name="uni0402" unicode="&#x402;" horiz-adv-x="818" 
d="M557 456c35 0 65 -5 92 -15c27 -11 49 -25 67 -44s32 -41 41 -66c9 -26 14 -54 14 -85c0 -32 -5 -63 -16 -93c-11 -31 -27 -58 -49 -81c-22 -24 -50 -43 -85 -57c-35 -15 -76 -22 -124 -22c-23 0 -40 1 -53 3c-7 1 -14 3 -20 4l21 101c5 -1 11 -2 19 -3c7 -1 17 -2 29 -2
c46 0 83 12 111 37c28 24 42 58 42 103c0 34 -10 61 -29 80c-20 19 -50 29 -91 29c-24 0 -46 -3 -67 -10c-20 -7 -38 -18 -54 -31c-16 -14 -30 -30 -41 -49s-18 -40 -23 -63l-41 -192h-121l127 596h-225l24 113h565l-24 -113h-219l-46 -214c21 22 46 40 76 54
c29 13 63 20 100 20z" />
    <glyph glyph-name="uni0403" unicode="&#x403;" horiz-adv-x="529" 
d="M446 759h-115l124 124h153zM26 0l150 709h422l-24 -113h-301l-126 -596h-121z" />
    <glyph glyph-name="uni0404" unicode="&#x404;" horiz-adv-x="729" 
d="M688 200c-12 -29 -28 -57 -48 -83c-19 -26 -42 -49 -69 -68c-27 -20 -57 -36 -92 -47c-34 -11 -72 -17 -114 -17c-45 0 -87 8 -125 24c-37 15 -70 37 -97 66c-27 28 -48 62 -63 101s-22 81 -22 128c0 68 11 128 33 180s51 96 87 132c37 35 78 62 124 81
c46 18 93 27 141 27c45 0 85 -6 119 -19s63 -31 87 -52s43 -45 57 -72s24 -55 29 -84l-116 -35c-4 19 -11 37 -20 55s-22 34 -37 48c-15 13 -34 24 -55 33c-21 8 -46 12 -75 12c-31 0 -59 -5 -85 -15c-26 -11 -49 -25 -69 -43s-37 -39 -51 -63s-25 -50 -32 -78h337l-23 -110
h-327c1 -61 19 -109 53 -146s81 -56 141 -56c51 0 93 14 126 41c34 27 60 61 79 103z" />
    <glyph glyph-name="uni0405" unicode="&#x405;" horiz-adv-x="594" 
d="M528 200c0 -28 -6 -55 -17 -81c-11 -25 -28 -48 -49 -68s-47 -36 -77 -48c-31 -12 -65 -18 -102 -18c-48 0 -89 7 -122 22s-60 33 -81 55c-21 23 -37 48 -46 75c-9 28 -14 55 -14 81c0 4 0 7 1 10v9l116 20c-1 -3 -1 -7 -1 -10v-11c0 -18 3 -35 8 -52s14 -33 26 -46
c11 -14 26 -25 45 -33c18 -9 40 -13 66 -13c38 0 68 9 90 27c21 17 32 41 32 71c0 17 -5 34 -15 49c-11 15 -28 28 -52 39l-90 39c-42 19 -75 44 -98 75s-35 69 -35 113c0 31 7 60 20 87s30 50 52 70c22 19 48 35 78 46s62 16 96 16c45 0 83 -7 114 -21
c30 -14 54 -31 72 -52c19 -21 32 -43 39 -67c8 -23 12 -45 12 -64l-114 -20c0 8 -1 18 -4 31s-9 26 -18 39s-22 25 -39 34s-41 14 -70 14c-17 0 -33 -3 -47 -8s-26 -13 -36 -22s-18 -20 -23 -32c-6 -12 -9 -25 -9 -38c0 -21 6 -39 17 -53s25 -25 43 -33l88 -40
c50 -23 87 -50 110 -82c23 -33 34 -69 34 -110z" />
    <glyph glyph-name="uni0406" unicode="&#x406;" horiz-adv-x="298" 
d="M26 0l150 709h123l-151 -709h-122z" />
    <glyph glyph-name="uni0407" unicode="&#x407;" horiz-adv-x="298" 
d="M26 0l150 709h123l-151 -709h-122zM165 759c-17 0 -31 6 -42 17s-17 25 -17 42s6 33 19 46s28 19 46 19c17 0 32 -6 43 -17s17 -25 17 -42c0 -19 -6 -34 -19 -46c-13 -13 -29 -19 -47 -19zM337 759c-17 0 -32 6 -43 17s-17 25 -17 42s6 33 19 46s28 19 46 19
c17 0 32 -6 43 -17s17 -25 17 -42c0 -19 -6 -34 -19 -46c-13 -13 -29 -19 -46 -19z" />
    <glyph glyph-name="uni0408" unicode="&#x408;" horiz-adv-x="542" 
d="M440 197c-7 -32 -17 -61 -30 -86c-14 -26 -31 -48 -50 -67c-20 -19 -43 -33 -68 -43c-26 -10 -54 -15 -85 -15c-33 0 -62 5 -87 15c-25 9 -47 23 -64 40s-30 37 -39 61s-13 50 -13 78c0 10 0 21 1 32s3 23 6 34l5 23l120 18l-10 -50c-1 -7 -3 -15 -4 -23s-1 -15 -1 -21
c0 -27 7 -50 22 -68c15 -19 38 -28 69 -28c30 0 54 10 71 30c18 19 30 46 37 79l107 503h123z" />
    <glyph glyph-name="uni0409" unicode="&#x409;" horiz-adv-x="1014" 
d="M283 372c-16 -63 -32 -119 -48 -166c-15 -47 -33 -87 -53 -118s-44 -55 -71 -71s-59 -24 -98 -24c-17 0 -30 1 -40 3c-6 1 -11 3 -16 4l22 99c2 -1 4 -1 7 -2s11 -1 24 -1c19 0 35 6 49 18c15 11 28 29 40 53s24 54 35 91c11 36 23 79 36 128l81 323h454l-54 -253h87
c36 0 68 -4 97 -13s54 -22 74 -39c21 -17 37 -38 48 -63s17 -55 17 -88c0 -42 -7 -79 -22 -110c-14 -32 -34 -58 -59 -79s-56 -37 -91 -48s-74 -16 -116 -16h-251l126 596h-221zM630 350l-53 -244h109c51 0 90 11 119 34s44 57 44 104c0 15 -2 30 -7 43c-4 13 -11 24 -21 33
c-11 9 -24 17 -41 22s-37 8 -62 8h-88z" />
    <glyph glyph-name="uni040A" unicode="&#x40a;" horiz-adv-x="1020" 
d="M625 329l-47 -223h113c50 0 90 10 119 29s43 50 43 94c0 13 -2 26 -7 39c-5 12 -12 23 -23 32s-24 16 -41 21s-37 8 -62 8h-95zM146 0h-120l150 709h121l-58 -274h288l58 274h121l-58 -274h91c36 0 69 -4 98 -13s55 -21 76 -38s37 -38 49 -62c11 -25 17 -53 17 -84
c0 -41 -7 -76 -21 -105c-15 -30 -35 -55 -60 -74c-26 -20 -57 -35 -92 -44c-35 -10 -74 -15 -116 -15h-255l68 322h-288z" />
    <glyph glyph-name="uni040B" unicode="&#x40b;" horiz-adv-x="796" 
d="M514 345c-21 0 -41 -4 -60 -11c-19 -8 -36 -19 -51 -32c-15 -14 -28 -30 -39 -49s-19 -40 -24 -63l-40 -190h-121l127 596h-225l24 113h565l-24 -113h-219l-45 -213c20 23 45 41 75 54c29 13 63 19 101 19c55 0 100 -16 134 -47c33 -31 50 -76 50 -135
c0 -11 0 -23 -1 -34c-1 -12 -4 -25 -7 -38l-42 -202h-121l43 202c1 9 3 17 4 24s1 15 1 22c0 33 -9 58 -27 74c-18 15 -44 23 -78 23z" />
    <glyph glyph-name="uni040C" unicode="&#x40c;" horiz-adv-x="662" 
d="M496 759h-115l124 124h153zM147 0h-121l150 709h121l-63 -299h48l308 299h158l-371 -357l222 -352h-143l-190 300h-56z" />
    <glyph glyph-name="uni040D" unicode="&#x40d;" horiz-adv-x="756" 
d="M595 516l-439 -516h-130l150 709h121l-110 -518l439 518h130l-150 -709h-120zM424 759l-99 148h132l57 -148h-90z" />
    <glyph glyph-name="uni040E" unicode="&#x40e;" horiz-adv-x="626" 
d="M94 -9c-11 0 -21 0 -29 1c-9 1 -16 2 -22 3c-7 1 -13 3 -18 5l21 104c3 -1 7 -3 12 -4c4 -1 9 -2 15 -3s13 -1 20 -1c15 0 29 2 42 5c12 4 24 10 35 18s22 18 33 30c11 13 22 27 34 44l-147 516h129l107 -393l252 393h138l-337 -503c-25 -37 -49 -70 -70 -97
c-22 -27 -44 -50 -66 -67s-45 -30 -68 -38c-24 -9 -51 -13 -81 -13zM410 754c-27 0 -49 3 -68 8c-19 6 -34 14 -45 24c-12 10 -21 21 -26 34s-8 27 -8 42c0 4 0 8 1 12c0 4 0 8 1 12h100c-1 -3 -1 -8 -1 -13c0 -13 4 -25 13 -34s23 -13 42 -13c22 0 39 6 52 17
c12 12 20 26 24 43h100c-4 -17 -10 -34 -19 -50c-9 -15 -21 -29 -36 -42c-15 -12 -34 -22 -55 -29s-46 -11 -75 -11z" />
    <glyph glyph-name="uni040F" unicode="&#x40f;" horiz-adv-x="740" 
d="M248 0h-222l150 709h121l-127 -596h324l126 596h121l-151 -709h-222l-32 -150h-120z" />
    <glyph glyph-name="uni0410" unicode="&#x410;" horiz-adv-x="695" 
d="M-51 0l419 709h136l117 -709h-123l-27 178h-285l-101 -178h-136zM249 289h205l-43 283z" />
    <glyph glyph-name="uni0411" unicode="&#x411;" horiz-adv-x="617" 
d="M216 328l-47 -222h122c27 0 50 4 69 11s34 16 46 27c11 11 20 24 25 39s8 30 8 45c0 31 -9 56 -28 74c-19 17 -51 26 -98 26h-97zM176 709h441l-24 -113h-320l-35 -162h104c71 0 126 -18 165 -53s58 -84 58 -147c0 -32 -6 -62 -17 -91c-12 -29 -29 -53 -52 -74
s-52 -38 -86 -50c-35 -13 -75 -19 -121 -19h-263z" />
    <glyph glyph-name="uni0412" unicode="&#x412;" horiz-adv-x="614" 
d="M26 0l150 709h226c31 0 58 -4 81 -13c23 -8 43 -19 59 -34c15 -15 27 -32 35 -53c7 -20 11 -42 11 -65c0 -21 -3 -42 -10 -61c-7 -20 -16 -38 -28 -54c-12 -17 -26 -31 -43 -43s-36 -21 -57 -27c13 -4 25 -10 37 -19s23 -19 32 -31s17 -26 22 -41s8 -32 8 -50
c0 -31 -6 -60 -18 -87s-29 -50 -50 -69c-22 -19 -48 -34 -78 -45s-63 -17 -99 -17h-278zM167 102h120c20 0 39 3 56 9s32 14 45 24c12 11 22 23 29 38s10 31 10 49c0 25 -8 46 -24 61c-17 16 -43 24 -79 24h-114zM232 409h101c41 0 73 11 98 33c24 21 36 49 36 83
c0 25 -8 45 -24 59c-17 15 -42 22 -75 22h-94z" />
    <glyph glyph-name="uni0413" unicode="&#x413;" horiz-adv-x="529" 
d="M26 0l150 709h422l-24 -113h-301l-126 -596h-121z" />
    <glyph glyph-name="uni0414" unicode="&#x414;" horiz-adv-x="765" 
d="M474 113l102 483h-235l-47 -198c-19 -75 -38 -136 -59 -181c-20 -45 -41 -80 -62 -104h301zM-23 113h57c31 25 59 61 82 109s44 108 61 179l76 308h468l-127 -596h99l-56 -263h-120l32 150h-475l-32 -150h-121z" />
    <glyph glyph-name="uni0415" unicode="&#x415;" 
d="M26 0l150 709h435l-24 -113h-314l-40 -187h285l-24 -109h-284l-40 -187h315l-24 -113h-435z" />
    <glyph glyph-name="uni0416" unicode="&#x416;" horiz-adv-x="994" 
d="M94 0h-162l370 372l-191 337h140l167 -299h47l63 299h120l-63 -299h46l290 299h157l-353 -359l202 -350h-144l-174 300h-48l-63 -300h-121l64 300h-48z" />
    <glyph glyph-name="uni0417" unicode="&#x417;" horiz-adv-x="609" 
d="M272 -15c-45 0 -83 6 -115 17c-33 11 -59 26 -80 45s-37 41 -47 66c-11 25 -16 50 -17 77l122 29c0 -18 3 -35 8 -50s13 -29 24 -40s26 -20 44 -26c18 -7 40 -10 65 -10c45 0 80 12 105 35s37 54 37 91c0 59 -39 88 -117 88h-85l23 106h80c25 0 46 3 65 10
c18 7 33 16 45 27s21 23 27 38s9 30 9 46c0 26 -8 47 -24 63c-17 16 -44 24 -82 24s-71 -11 -98 -33c-27 -23 -47 -53 -60 -92l-107 29c17 61 50 109 97 144s106 53 176 53c35 0 67 -4 95 -13c27 -9 51 -22 70 -38s33 -35 43 -57c9 -23 14 -47 14 -74c0 -23 -4 -44 -11 -63
s-17 -37 -29 -52c-13 -15 -27 -28 -44 -39s-34 -20 -53 -26c11 -5 21 -12 32 -19c11 -8 20 -18 29 -29c8 -12 15 -26 20 -41s7 -33 7 -53c0 -35 -7 -66 -20 -95s-32 -53 -56 -74c-24 -20 -52 -36 -85 -47s-68 -17 -107 -17z" />
    <glyph glyph-name="uni0418" unicode="&#x418;" horiz-adv-x="756" 
d="M595 516l-439 -516h-130l150 709h121l-110 -518l439 518h130l-150 -709h-120z" />
    <glyph glyph-name="uni0419" unicode="&#x419;" horiz-adv-x="756" 
d="M595 516l-439 -516h-130l150 709h121l-110 -518l439 518h130l-150 -709h-120zM469 754c-27 0 -49 3 -68 8c-19 6 -34 14 -45 24c-12 10 -21 21 -26 34s-8 27 -8 42c0 4 0 8 1 12c0 4 0 8 1 12h100c-1 -3 -1 -8 -1 -13c0 -13 4 -25 13 -34s23 -13 42 -13c22 0 39 6 52 17
c12 12 20 26 24 43h100c-4 -17 -10 -34 -19 -50c-9 -15 -21 -29 -36 -42c-15 -12 -34 -22 -55 -29s-46 -11 -75 -11z" />
    <glyph glyph-name="uni041A" unicode="&#x41a;" horiz-adv-x="662" 
d="M147 0h-121l150 709h121l-63 -299h48l308 299h158l-371 -357l222 -352h-143l-190 300h-56z" />
    <glyph glyph-name="uni041B" unicode="&#x41b;" horiz-adv-x="712" 
d="M13 -7c-17 0 -30 1 -40 3c-6 1 -11 3 -16 4l22 99c2 -1 4 -1 7 -2s11 -1 24 -1c19 0 35 6 50 17c14 12 27 30 39 54s24 54 35 90c11 37 23 80 36 129l81 323h461l-150 -709h-120l126 596h-228l-57 -224c-16 -63 -32 -119 -47 -166c-16 -47 -34 -87 -54 -118
s-43 -55 -70 -71s-60 -24 -99 -24z" />
    <glyph glyph-name="uni041C" unicode="&#x41c;" horiz-adv-x="943" 
d="M26 0l150 709h146l123 -535l330 535h168l-150 -709h-119l109 515l-320 -515h-94l-117 511l-109 -511h-117z" />
    <glyph glyph-name="uni041D" unicode="&#x41d;" horiz-adv-x="723" 
d="M452 0l64 303h-305l-65 -303h-120l150 709h121l-62 -293h305l62 293h121l-150 -709h-121z" />
    <glyph glyph-name="uni041E" unicode="&#x41e;" horiz-adv-x="778" 
d="M747 410c0 -69 -11 -129 -33 -182s-51 -98 -86 -134s-76 -63 -121 -81c-46 -19 -92 -28 -139 -28s-89 8 -127 23c-39 15 -71 37 -98 64s-48 60 -63 99s-23 81 -23 128c0 69 11 130 33 183c21 53 50 97 86 133c35 36 76 63 121 82c45 18 92 27 139 27s89 -7 128 -22
c38 -15 71 -37 98 -64c27 -28 48 -61 63 -100s22 -81 22 -128zM181 309c0 -33 5 -63 14 -89s23 -48 40 -66s37 -32 61 -41c23 -9 49 -14 78 -14c37 0 70 8 101 24c31 15 57 37 79 64s39 59 51 96s18 76 18 118c0 33 -5 62 -14 88s-22 48 -39 66s-38 32 -61 41
c-24 9 -50 14 -79 14c-37 0 -70 -8 -101 -23c-31 -16 -57 -38 -79 -65s-39 -59 -51 -95c-12 -37 -18 -76 -18 -118z" />
    <glyph glyph-name="uni041F" unicode="&#x41f;" horiz-adv-x="735" 
d="M176 709h559l-150 -709h-120l126 596h-318l-127 -596h-120z" />
    <glyph glyph-name="uni0420" unicode="&#x420;" horiz-adv-x="594" 
d="M26 0l150 709h228c31 0 60 -5 86 -14c25 -9 47 -22 65 -39s32 -37 42 -60c9 -23 14 -49 14 -76c0 -37 -7 -71 -20 -100c-14 -29 -33 -54 -57 -75s-52 -37 -85 -48s-68 -17 -106 -17h-137l-60 -280h-120zM228 385h114c46 0 82 12 108 35c25 23 38 54 38 91
c0 28 -9 50 -27 67s-45 25 -82 25h-104z" />
    <glyph glyph-name="uni0421" unicode="&#x421;" horiz-adv-x="728" 
d="M687 200c-12 -29 -28 -57 -48 -83c-19 -26 -42 -49 -69 -68c-27 -20 -57 -36 -92 -47c-34 -11 -72 -17 -114 -17c-45 0 -87 8 -125 24c-37 15 -70 37 -97 66c-27 28 -48 62 -63 101s-22 81 -22 128c0 66 11 125 32 177s50 96 85 132c36 36 77 64 123 83
c47 19 95 28 145 28c45 0 85 -6 119 -19s63 -31 87 -52s43 -45 57 -72s24 -55 29 -84l-116 -35c-4 19 -11 37 -20 55s-22 34 -37 48c-15 13 -34 24 -55 33c-21 8 -46 12 -75 12c-37 0 -70 -8 -101 -23s-57 -36 -79 -63s-39 -59 -52 -95c-12 -37 -18 -76 -18 -118
c0 -32 4 -61 13 -87s22 -48 39 -67s37 -33 61 -43s51 -15 81 -15c51 0 93 14 126 41c34 27 60 61 79 103z" />
    <glyph glyph-name="uni0422" unicode="&#x422;" horiz-adv-x="588" 
d="M423 596l-126 -596h-121l126 596h-221l24 113h554l-24 -113h-212z" />
    <glyph glyph-name="uni0423" unicode="&#x423;" horiz-adv-x="626" 
d="M94 -9c-11 0 -21 0 -29 1c-9 1 -16 2 -22 3c-7 1 -13 3 -18 5l21 104c3 -1 7 -3 12 -4c4 -1 9 -2 15 -3s13 -1 20 -1c15 0 29 2 42 5c12 4 24 10 35 18s22 18 33 30c11 13 22 27 34 44l-147 516h129l107 -393l252 393h138l-337 -503c-25 -37 -49 -70 -70 -97
c-22 -27 -44 -50 -66 -67s-45 -30 -68 -38c-24 -9 -51 -13 -81 -13z" />
    <glyph glyph-name="uni0424" unicode="&#x424;" horiz-adv-x="868" 
d="M430 -12h-121l16 73c-40 3 -77 10 -110 23c-34 12 -63 29 -87 50s-43 47 -56 77s-20 64 -20 102c0 51 9 98 28 139c18 41 44 77 79 106c34 30 76 53 125 70s105 27 167 29l14 64h120l-14 -64c42 -2 80 -9 113 -22c34 -12 63 -29 87 -51c23 -21 41 -47 54 -77
s19 -64 19 -102c0 -51 -9 -98 -27 -139s-44 -77 -78 -106c-34 -30 -76 -53 -125 -70c-50 -17 -106 -27 -169 -29zM469 173c35 1 67 6 98 16c30 9 56 24 79 43c22 19 40 42 53 71c13 28 19 61 19 100c0 23 -4 43 -12 60s-19 32 -34 44s-33 21 -54 28c-21 6 -45 10 -70 11z
M427 545c-37 -1 -71 -7 -102 -17c-31 -11 -57 -26 -79 -45s-39 -43 -51 -71s-18 -60 -18 -96c0 -47 16 -82 47 -105s73 -36 124 -39z" />
    <glyph glyph-name="uni0425" unicode="&#x425;" horiz-adv-x="632" 
d="M-51 0l311 357l-162 352h136l112 -253l213 253h152l-313 -360l161 -349h-137l-110 249l-211 -249h-152z" />
    <glyph glyph-name="uni0426" unicode="&#x426;" horiz-adv-x="763" 
d="M547 0h-521l150 709h121l-127 -596h302l126 596h121l-127 -596h99l-56 -263h-120z" />
    <glyph glyph-name="uni0427" unicode="&#x427;" horiz-adv-x="671" 
d="M460 287c-20 -10 -41 -18 -64 -23c-23 -6 -49 -9 -77 -9c-75 0 -133 18 -174 54c-42 35 -63 87 -63 154c0 24 3 50 9 78l36 168h120l-36 -175c-5 -19 -7 -38 -7 -57c0 -41 12 -69 37 -85c24 -16 56 -24 97 -24c31 0 59 4 85 12s47 18 63 30l63 299h121l-150 -709h-121z
" />
    <glyph glyph-name="uni0428" unicode="&#x428;" horiz-adv-x="966" 
d="M176 709h121l-127 -596h215l126 596h121l-127 -596h215l126 596h120l-150 -709h-790z" />
    <glyph glyph-name="uni0429" unicode="&#x429;" horiz-adv-x="1011" 
d="M762 -150l32 150h-768l150 709h121l-127 -596h215l126 596h121l-127 -596h215l126 596h120l-126 -596h99l-56 -263h-121z" />
    <glyph glyph-name="uni042A" unicode="&#x42a;" horiz-adv-x="707" 
d="M322 350l-53 -244h109c51 0 91 11 120 34s43 57 43 104c0 15 -2 30 -6 43c-5 13 -12 24 -22 33c-11 9 -24 17 -41 22s-37 8 -62 8h-88zM253 596h-170l25 113h289l-53 -253h86c36 0 69 -4 98 -13s53 -22 74 -39s37 -38 48 -63s17 -55 17 -88c0 -42 -7 -79 -21 -110
c-15 -32 -35 -58 -60 -79c-26 -21 -57 -37 -92 -48s-74 -16 -116 -16h-251z" />
    <glyph glyph-name="uni042B" unicode="&#x42b;" horiz-adv-x="868" 
d="M596 0l150 709h123l-151 -709h-122zM221 350l-52 -244h109c50 0 90 11 119 34s43 57 43 104c0 15 -2 30 -6 43c-5 13 -12 24 -22 33c-11 9 -24 17 -41 22s-37 8 -62 8h-88zM176 709h120l-53 -253h87c35 0 68 -4 97 -13s53 -22 74 -39s37 -38 48 -63s17 -55 17 -88
c0 -42 -7 -79 -21 -110c-15 -32 -35 -58 -60 -79c-26 -21 -57 -37 -92 -48s-74 -16 -116 -16h-251z" />
    <glyph glyph-name="uni042C" unicode="&#x42c;" horiz-adv-x="606" 
d="M221 350l-52 -244h109c50 0 90 11 119 34s43 57 43 104c0 15 -2 30 -6 43c-5 13 -12 24 -22 33c-11 9 -24 17 -41 22s-37 8 -62 8h-88zM176 709h120l-53 -253h87c35 0 68 -4 97 -13s53 -22 74 -39s37 -38 48 -63s17 -55 17 -88c0 -42 -7 -79 -21 -110
c-15 -32 -35 -58 -60 -79c-26 -21 -57 -37 -92 -48s-74 -16 -116 -16h-251z" />
    <glyph glyph-name="uni042D" unicode="&#x42d;" horiz-adv-x="729" 
d="M312 -15c-45 0 -85 6 -119 19s-63 30 -86 51s-42 45 -56 72s-24 54 -29 83l114 36c4 -19 11 -37 20 -54c9 -18 22 -34 37 -48s34 -25 55 -33c21 -9 46 -13 75 -13c34 0 65 5 92 16s50 25 70 44c20 18 36 39 49 64s22 51 28 79h-324l23 110h311l1 1c-2 63 -20 111 -54 146
c-35 35 -81 52 -140 52c-51 0 -93 -13 -126 -40c-34 -27 -60 -61 -79 -103l-107 42c12 29 28 56 47 83c20 26 43 49 70 68s57 35 92 47c34 11 72 17 114 17c45 0 87 -8 125 -23c37 -15 70 -37 97 -64c27 -28 48 -62 63 -101s22 -83 22 -131c0 -68 -10 -128 -31 -180
s-48 -96 -83 -131c-35 -36 -76 -63 -123 -81c-47 -19 -96 -28 -148 -28z" />
    <glyph glyph-name="uni042E" unicode="&#x42e;" horiz-adv-x="1018" 
d="M617 -15c-45 0 -85 7 -121 22c-37 15 -68 35 -94 62s-46 59 -61 97c-15 37 -23 79 -24 124v13h-106l-64 -303h-121l150 709h121l-62 -293h94c11 50 29 94 53 133c24 38 52 70 84 96s67 46 105 59c37 13 76 20 115 20c45 0 87 -7 124 -22s68 -37 94 -64
c26 -28 46 -61 61 -100c14 -39 21 -81 21 -128c0 -69 -11 -129 -32 -182s-49 -98 -84 -134s-74 -63 -118 -81c-44 -19 -89 -28 -135 -28zM862 401c0 67 -17 118 -50 154c-34 37 -78 55 -133 55c-35 0 -68 -8 -97 -24c-29 -15 -54 -37 -75 -64s-38 -59 -49 -95
c-12 -37 -18 -76 -18 -118c0 -33 5 -63 14 -89s21 -48 37 -66s35 -32 58 -41c22 -9 47 -14 74 -14c35 0 68 8 97 24c29 15 55 37 76 64s37 59 49 96c11 37 17 76 17 118z" />
    <glyph glyph-name="uni042F" unicode="&#x42f;" horiz-adv-x="636" 
d="M443 366l51 237h-110c-55 0 -96 -13 -123 -39c-28 -26 -42 -58 -41 -97c1 -32 11 -57 31 -74c20 -18 52 -27 96 -27h96zM421 260h-103l-202 -260h-142l228 292c-32 15 -58 37 -77 65s-29 63 -29 104c0 77 27 138 80 182s127 66 223 66h237l-150 -709h-120z" />
    <glyph glyph-name="uni0430" unicode="&#x430;" horiz-adv-x="584" 
d="M358 60c-14 -18 -32 -34 -55 -48c-22 -14 -49 -21 -81 -21c-31 0 -58 5 -82 16s-44 27 -61 46c-16 19 -28 42 -36 68c-9 27 -13 55 -13 85c0 41 6 79 19 114c13 36 30 67 53 94c22 27 48 48 79 63s64 23 100 23c22 0 41 -2 58 -6c16 -5 30 -10 42 -17s22 -15 30 -23
c7 -9 13 -17 17 -25l12 58h113l-78 -371c-5 -21 -8 -39 -9 -56s-2 -32 -2 -43c0 -3 0 -6 1 -9v-8h-107c-1 4 -2 12 -2 24c0 5 0 11 1 17c0 6 0 12 1 19zM146 210c0 -36 9 -65 27 -87c17 -21 43 -32 77 -32c19 0 38 5 55 14s32 22 45 39s24 38 31 61c7 24 11 51 11 80
c0 33 -9 60 -26 81s-42 32 -76 32c-23 0 -44 -6 -62 -17s-33 -26 -45 -44s-21 -38 -28 -61c-6 -22 -9 -44 -9 -66z" />
    <glyph glyph-name="uni0431" unicode="&#x431;" horiz-adv-x="592" 
d="M258 -15c-32 0 -61 5 -88 16c-27 10 -49 25 -68 44s-34 43 -45 70s-16 58 -16 91c0 31 5 69 15 114c13 58 29 109 48 153s42 81 71 112s63 55 104 73c40 19 88 32 145 40c27 4 51 7 71 10c19 3 36 6 50 8c13 3 25 5 34 7s16 4 23 6l-21 -102c-7 -3 -15 -5 -24 -8
c-9 -2 -19 -4 -32 -6c-13 -3 -29 -5 -47 -8c-19 -3 -41 -6 -66 -9c-32 -4 -60 -11 -85 -21s-47 -23 -66 -38c-19 -16 -35 -35 -48 -57c-14 -23 -26 -48 -35 -77c18 21 41 38 68 51s58 19 93 19c33 0 62 -5 87 -15s46 -24 63 -42c17 -19 29 -40 38 -65s13 -53 13 -83
c0 -36 -6 -71 -19 -105s-32 -64 -57 -90c-25 -27 -54 -48 -89 -64s-74 -24 -117 -24zM312 373c-23 0 -45 -4 -64 -13s-36 -21 -50 -36s-25 -33 -32 -52c-8 -20 -12 -41 -12 -63c0 -40 11 -70 33 -89c21 -20 47 -30 77 -30c23 0 44 4 63 13c19 8 36 20 50 35s25 34 33 55
c7 21 11 45 11 71c0 36 -10 63 -30 82c-21 18 -47 27 -79 27z" />
    <glyph glyph-name="uni0432" unicode="&#x432;" horiz-adv-x="534" 
d="M112 487h222c27 0 51 -3 71 -9c19 -7 35 -15 48 -26c12 -11 21 -24 27 -39s9 -31 9 -48c0 -28 -9 -52 -27 -73s-42 -36 -72 -44c8 -2 16 -5 24 -10s15 -12 22 -19c6 -8 11 -17 16 -27c4 -11 6 -22 6 -35c0 -46 -16 -84 -48 -113c-33 -29 -78 -44 -137 -44h-264zM287 289
c30 0 51 6 64 17s19 26 19 43s-6 30 -19 37s-29 10 -48 10h-94l-23 -107h101zM253 91c32 0 55 6 68 19c13 12 19 27 19 45c0 17 -6 30 -18 39c-13 8 -29 12 -49 12h-105l-24 -115h109z" />
    <glyph glyph-name="uni0433" unicode="&#x433;" horiz-adv-x="418" 
d="M112 487h327l-22 -101h-211l-81 -386h-116z" />
    <glyph glyph-name="uni0434" unicode="&#x434;" horiz-adv-x="620" 
d="M349 101l60 285h-155l-24 -99c-12 -46 -25 -84 -39 -115c-14 -30 -28 -54 -42 -71h200zM-19 101h45c11 9 20 18 29 29s17 25 25 40c8 16 16 35 23 56s15 46 22 74l48 187h374l-82 -386h86l-49 -231h-106l28 130h-358l-28 -130h-106z" />
    <glyph glyph-name="uni0435" unicode="&#x435;" horiz-adv-x="550" 
d="M469 106c-8 -16 -19 -31 -33 -46c-13 -15 -29 -27 -47 -38s-39 -20 -62 -27s-47 -10 -74 -10c-30 0 -59 5 -86 15s-50 25 -71 44c-20 19 -36 42 -48 70s-18 60 -18 95c0 45 7 86 22 123c15 36 35 67 60 92s53 45 85 58c31 13 64 20 97 20s63 -5 89 -15s48 -24 66 -42
c17 -17 31 -38 40 -63s14 -52 14 -81c0 -19 -2 -38 -5 -55c-4 -17 -7 -29 -9 -34h-347v-10c0 -35 11 -63 32 -85s49 -33 83 -33c32 0 58 7 78 22c20 14 35 30 45 49zM291 405c-36 0 -65 -10 -87 -30s-38 -46 -48 -78h232c1 7 2 12 2 15c0 11 -2 22 -5 33s-9 21 -16 30
c-8 9 -18 16 -31 22c-13 5 -28 8 -47 8z" />
    <glyph glyph-name="uni0436" unicode="&#x436;" horiz-adv-x="795" 
d="M90 0h-147l256 268l-125 219h128l105 -197h34l42 197h116l-42 -197h33l189 197h145l-236 -238l129 -249h-137l-105 205h-36l-44 -205h-116l44 205h-38z" />
    <glyph glyph-name="uni0437" unicode="&#x437;" horiz-adv-x="491" 
d="M201 -15c-39 0 -71 4 -98 13c-26 10 -47 21 -63 35s-27 29 -34 46c-7 16 -10 31 -9 45l109 35c-1 -9 1 -17 4 -26s9 -17 16 -24c8 -7 18 -13 31 -18s28 -7 47 -7c33 0 58 7 74 20s24 30 24 50c0 18 -7 30 -20 37c-14 7 -32 10 -53 10h-72l19 91h71c28 0 49 6 63 18
c13 12 20 27 20 46c0 17 -6 29 -19 37s-29 12 -50 12c-33 0 -60 -8 -79 -24c-19 -15 -33 -34 -41 -55l-96 26c17 45 44 81 82 109c38 27 88 41 150 41c25 0 48 -3 69 -8s39 -13 54 -24s27 -25 36 -41s13 -35 13 -57c0 -32 -10 -58 -31 -79s-46 -35 -74 -42
c21 -7 39 -18 53 -34c14 -15 21 -36 21 -61c0 -51 -19 -93 -57 -124c-39 -31 -92 -47 -160 -47z" />
    <glyph glyph-name="uni0438" unicode="&#x438;" horiz-adv-x="582" 
d="M400 311l-279 -311h-112l103 487h116l-66 -310l279 310h112l-103 -487h-116z" />
    <glyph glyph-name="uni0439" unicode="&#x439;" horiz-adv-x="582" 
d="M400 311l-279 -311h-112l103 487h116l-66 -310l279 310h112l-103 -487h-116zM343 550c-46 0 -81 11 -104 33c-23 23 -35 51 -35 85v13c0 5 1 9 2 14h96c-1 -4 -2 -8 -2 -12v-10c0 -32 17 -48 51 -48c19 0 35 6 48 17c13 12 22 30 27 53h95c-5 -20 -12 -39 -21 -56
c-10 -17 -22 -33 -37 -46s-33 -24 -53 -31c-20 -8 -42 -12 -67 -12z" />
    <glyph glyph-name="uni043A" unicode="&#x43a;" horiz-adv-x="535" 
d="M125 0h-116l103 487h116l-42 -197h33l203 197h145l-249 -240l139 -247h-137l-113 205h-39z" />
    <glyph glyph-name="uni043B" unicode="&#x43b;" horiz-adv-x="555" 
d="M11 -7c-16 0 -28 1 -36 3c-8 3 -12 4 -11 4l20 95c1 -1 2 -1 5 -2c2 -1 4 -1 7 -2h12c12 0 23 4 32 11s18 19 26 34c8 16 16 36 23 60s15 53 24 87l52 204h362l-104 -487h-116l82 386h-141l-27 -106c-13 -51 -25 -95 -38 -131c-12 -37 -26 -66 -41 -89s-33 -40 -54 -51
s-47 -16 -77 -16z" />
    <glyph glyph-name="uni043C" unicode="&#x43c;" horiz-adv-x="749" 
d="M189 320l-68 -320h-112l103 487h147l83 -353l230 353h149l-104 -487h-116l69 323l-213 -323h-91z" />
    <glyph glyph-name="uni043D" unicode="&#x43d;" horiz-adv-x="566" 
d="M112 487h116l-39 -185h193l39 185h116l-103 -487h-116l42 201h-193l-42 -201h-116z" />
    <glyph glyph-name="uni043E" unicode="&#x43e;" horiz-adv-x="570" 
d="M520 277c0 -40 -7 -78 -20 -114c-13 -35 -32 -66 -56 -93c-24 -26 -52 -47 -85 -62s-69 -23 -108 -23c-34 0 -65 6 -92 17c-27 12 -50 28 -69 49s-34 45 -44 72c-11 27 -16 57 -16 88c0 43 7 82 21 117c14 36 33 67 58 92c24 26 53 46 86 60c33 15 68 22 105 22
c35 0 66 -6 93 -18c27 -11 51 -27 70 -48c19 -20 33 -44 43 -71c9 -27 14 -57 14 -88zM147 215c0 -39 10 -69 31 -92c20 -22 46 -33 79 -33c18 0 36 4 53 11c17 8 33 20 47 35c13 16 24 35 33 58s13 49 13 79c0 39 -10 69 -29 91c-20 22 -47 33 -82 33c-19 0 -38 -4 -55 -13
c-18 -9 -34 -21 -47 -37s-24 -35 -31 -58c-8 -22 -12 -47 -12 -74z" />
    <glyph glyph-name="uni043F" unicode="&#x43f;" horiz-adv-x="561" 
d="M112 487h420l-103 -487h-117l81 386h-185l-82 -386h-117z" />
    <glyph glyph-name="uni0440" unicode="&#x440;" horiz-adv-x="596" 
d="M-32 -190l126 593c5 22 8 41 9 56s2 25 2 28h113c0 -3 0 -11 -1 -22c-1 -12 -2 -22 -4 -30c16 19 37 35 62 47c26 11 54 17 83 17c32 0 60 -5 83 -16s43 -25 58 -44c16 -19 28 -41 36 -66c7 -25 11 -52 11 -81c0 -44 -6 -85 -19 -122s-30 -69 -53 -96s-50 -49 -81 -64
s-65 -23 -102 -23c-35 0 -67 7 -94 22s-47 34 -60 57l-54 -256h-115zM172 213c0 -40 10 -70 30 -91s46 -31 79 -31c18 0 36 4 53 12c18 8 34 20 47 36c14 15 25 35 34 58s13 50 13 81c0 39 -10 68 -30 88s-47 30 -81 30c-19 0 -38 -4 -56 -13c-17 -9 -33 -21 -46 -37
s-24 -35 -32 -58c-7 -23 -11 -48 -11 -75z" />
    <glyph glyph-name="uni0441" unicode="&#x441;" horiz-adv-x="540" 
d="M483 131c-9 -19 -21 -37 -35 -55c-13 -17 -29 -33 -48 -46c-18 -13 -39 -24 -63 -33c-24 -8 -50 -12 -79 -12c-34 0 -65 6 -93 17s-52 27 -72 47c-20 21 -36 45 -47 72c-11 28 -16 58 -16 91c0 43 7 83 22 119c15 35 34 66 59 91s54 45 87 59s67 21 104 21
c33 0 61 -5 85 -14c25 -10 45 -23 62 -38s30 -32 40 -51c9 -19 16 -38 20 -57l-106 -33c-3 11 -7 22 -12 33s-12 20 -21 28s-20 15 -32 20c-13 5 -27 7 -44 7c-18 0 -36 -4 -53 -11c-18 -8 -34 -20 -48 -35s-25 -34 -34 -57s-13 -49 -13 -80c0 -39 11 -69 33 -91
c21 -22 50 -33 86 -33c33 0 59 8 78 25s33 35 43 56z" />
    <glyph glyph-name="uni0442" unicode="&#x442;" horiz-adv-x="476" 
d="M203 386h-164l22 101h438l-22 -101h-158l-81 -386h-116z" />
    <glyph glyph-name="uni0443" unicode="&#x443;" horiz-adv-x="532" 
d="M-6 -190l175 270l-112 407h124l74 -288l175 288h133l-438 -677h-131z" />
    <glyph glyph-name="uni0444" unicode="&#x444;" horiz-adv-x="749" 
d="M475 501c69 -5 124 -27 164 -67s60 -94 60 -163c0 -39 -7 -75 -21 -109s-35 -64 -63 -89s-63 -46 -104 -61c-42 -16 -91 -25 -146 -26l-37 -176h-114l38 177c-32 3 -62 10 -89 21s-51 25 -71 44s-36 41 -47 68c-11 26 -17 56 -17 89c0 41 8 79 23 114s37 65 66 91
c28 26 63 47 104 62s87 24 139 25l37 172h115zM338 398c-61 -3 -108 -21 -141 -53c-34 -32 -51 -76 -51 -133c0 -36 12 -65 35 -86s54 -33 92 -36zM388 89c63 3 111 21 144 52s49 74 49 127c0 42 -12 74 -35 95c-24 21 -55 32 -93 35z" />
    <glyph glyph-name="uni0445" unicode="&#x445;" horiz-adv-x="521" 
d="M-48 0l234 249l-128 238h128l77 -153l137 153h144l-228 -243l131 -244h-127l-82 159l-143 -159h-143z" />
    <glyph glyph-name="uni0446" unicode="&#x446;" horiz-adv-x="603" 
d="M407 0h-398l103 487h116l-82 -386h186l82 386h116l-82 -386h86l-49 -231h-106z" />
    <glyph glyph-name="uni0447" unicode="&#x447;" horiz-adv-x="528" 
d="M319 186c-17 -9 -34 -17 -52 -22s-38 -8 -59 -8c-52 0 -92 13 -121 39c-29 27 -44 64 -44 113c0 20 2 40 7 61l25 118h116l-25 -123c-3 -11 -4 -22 -4 -33c0 -21 6 -39 18 -52s32 -19 60 -19c17 0 33 2 46 5s23 7 32 12c10 5 18 10 25 17l41 193h116l-104 -487h-116z" />
    <glyph glyph-name="uni0448" unicode="&#x448;" horiz-adv-x="799" 
d="M112 487h116l-82 -386h155l82 386h116l-82 -386h155l83 386h116l-104 -487h-658z" />
    <glyph glyph-name="uni0449" unicode="&#x449;" horiz-adv-x="844" 
d="M645 0h-636l103 487h116l-82 -386h155l82 386h116l-82 -386h155l83 386h116l-83 -386h87l-49 -231h-109z" />
    <glyph glyph-name="uni044A" unicode="&#x44a;" horiz-adv-x="565" 
d="M75 0l83 388h-118l21 99h233l-32 -150h80c54 0 96 -13 126 -38s45 -63 45 -113c0 -25 -4 -48 -13 -71s-23 -42 -42 -59s-43 -31 -72 -41s-63 -15 -102 -15h-209zM295 98c35 0 61 8 77 24c15 16 23 35 23 56c0 41 -26 62 -78 62h-75l-30 -142h83z" />
    <glyph glyph-name="uni044B" unicode="&#x44b;" horiz-adv-x="725" 
d="M112 487h116l-32 -150h80c54 0 96 -13 126 -38s45 -63 45 -113c0 -25 -4 -48 -13 -71s-23 -42 -42 -59s-43 -31 -72 -41s-63 -15 -102 -15h-209zM581 487h116l-104 -487h-116zM229 98c35 0 61 8 77 24c15 16 23 35 23 56c0 41 -26 62 -78 62h-75l-30 -142h83z" />
    <glyph glyph-name="uni044C" unicode="&#x44c;" horiz-adv-x="499" 
d="M112 487h116l-32 -150h80c54 0 96 -13 126 -38s45 -63 45 -113c0 -25 -4 -48 -13 -71s-23 -42 -42 -59s-43 -31 -72 -41s-63 -15 -102 -15h-209zM229 98c35 0 61 8 77 24c15 16 23 35 23 56c0 41 -26 62 -78 62h-75l-30 -142h83z" />
    <glyph glyph-name="uni044D" unicode="&#x44d;" horiz-adv-x="541" 
d="M226 -15c-35 0 -66 5 -91 14c-26 9 -48 21 -65 36c-18 15 -32 32 -42 51s-17 38 -21 57l105 36c5 -24 18 -45 37 -64c19 -18 46 -27 82 -27c32 0 60 9 84 27c24 19 41 48 50 89h-193l18 88h182c-3 36 -14 63 -33 80c-19 18 -45 27 -78 27s-59 -9 -80 -27s-37 -39 -47 -62
l-96 39c9 21 20 41 35 60c14 19 31 35 50 49c19 13 40 24 65 32c24 8 50 12 79 12c34 0 65 -5 93 -16c27 -11 51 -26 70 -46s33 -44 44 -72c10 -28 15 -59 15 -93c0 -45 -7 -86 -20 -121c-14 -36 -33 -66 -56 -91c-24 -25 -52 -45 -84 -58s-66 -20 -103 -20z" />
    <glyph glyph-name="uni044E" unicode="&#x44e;" horiz-adv-x="763" 
d="M446 -15c-31 0 -59 6 -84 17s-47 27 -64 46c-18 19 -32 42 -42 68c-10 27 -15 55 -16 85h-73l-42 -201h-116l103 487h116l-39 -185h64c8 30 20 57 36 82c15 25 34 46 56 63c21 17 45 31 72 40c27 10 55 15 85 15c33 0 63 -6 90 -18c26 -11 48 -27 66 -48
c18 -20 32 -44 41 -71s14 -57 14 -88c0 -40 -7 -78 -20 -114c-13 -35 -32 -66 -55 -93c-24 -26 -52 -47 -85 -62s-68 -23 -107 -23zM494 397c-19 0 -36 -4 -53 -13s-31 -21 -44 -37s-23 -35 -30 -58c-7 -22 -11 -47 -11 -74c0 -39 10 -69 29 -92c19 -22 43 -33 74 -33
c17 0 33 4 50 11c17 8 32 20 45 35c13 16 23 35 31 58s12 49 12 79c0 39 -9 69 -27 91c-19 22 -44 33 -76 33z" />
    <glyph glyph-name="uni044F" unicode="&#x44f;" horiz-adv-x="529" 
d="M275 391c-34 0 -59 -8 -76 -23c-17 -16 -26 -35 -26 -58c0 -21 7 -37 22 -46c14 -10 34 -15 59 -15h80l30 142h-89zM242 159l-134 -159h-135l159 184c-23 10 -41 25 -56 46s-22 48 -22 80c0 27 6 51 18 73c11 21 28 40 49 56c21 15 45 27 73 36c28 8 59 12 92 12h214
l-103 -487h-116l33 159h-72z" />
    <glyph glyph-name="uni0450" unicode="&#x450;" horiz-adv-x="550" 
d="M469 106c-8 -16 -19 -31 -33 -46c-13 -15 -29 -27 -47 -38s-39 -20 -62 -27s-47 -10 -74 -10c-30 0 -59 5 -86 15s-50 25 -71 44c-20 19 -36 42 -48 70s-18 60 -18 95c0 45 7 86 22 123c15 36 35 67 60 92s53 45 85 58c31 13 64 20 97 20s63 -5 89 -15s48 -24 66 -42
c17 -17 31 -38 40 -63s14 -52 14 -81c0 -19 -2 -38 -5 -55c-4 -17 -7 -29 -9 -34h-347v-10c0 -35 11 -63 32 -85s49 -33 83 -33c32 0 58 7 78 22c20 14 35 30 45 49zM291 405c-36 0 -65 -10 -87 -30s-38 -46 -48 -78h232c1 7 2 12 2 15c0 11 -2 22 -5 33s-9 21 -16 30
c-8 9 -18 16 -31 22c-13 5 -28 8 -47 8zM267 548l-99 148h132l57 -148h-90z" />
    <glyph glyph-name="uni0451" unicode="&#x451;" horiz-adv-x="550" 
d="M469 106c-8 -16 -19 -31 -33 -46c-13 -15 -29 -27 -47 -38s-39 -20 -62 -27s-47 -10 -74 -10c-30 0 -59 5 -86 15s-50 25 -71 44c-20 19 -36 42 -48 70s-18 60 -18 95c0 45 7 86 22 123c15 36 35 67 60 92s53 45 85 58c31 13 64 20 97 20s63 -5 89 -15s48 -24 66 -42
c17 -17 31 -38 40 -63s14 -52 14 -81c0 -19 -2 -38 -5 -55c-4 -17 -7 -29 -9 -34h-347v-10c0 -35 11 -63 32 -85s49 -33 83 -33c32 0 58 7 78 22c20 14 35 30 45 49zM291 405c-36 0 -65 -10 -87 -30s-38 -46 -48 -78h232c1 7 2 12 2 15c0 11 -2 22 -5 33s-9 21 -16 30
c-8 9 -18 16 -31 22c-13 5 -28 8 -47 8zM243 560c-17 0 -30 6 -41 17s-17 25 -17 41c0 19 7 36 22 51c14 14 31 21 51 21c17 0 32 -6 43 -17c11 -12 16 -26 16 -42c0 -21 -8 -38 -23 -51s-32 -20 -51 -20zM447 560c-17 0 -31 6 -42 17s-16 25 -16 41c0 9 2 18 6 27
s9 16 16 23c6 7 13 12 22 16s18 6 28 6c17 0 32 -6 43 -17c11 -12 16 -26 16 -42c0 -21 -7 -38 -22 -51s-32 -20 -51 -20z" />
    <glyph glyph-name="uni0452" unicode="&#x452;" horiz-adv-x="562" 
d="M380 288c3 10 4 21 4 32c0 24 -7 43 -20 57c-14 14 -34 21 -61 21c-16 0 -31 -3 -44 -9c-13 -7 -24 -15 -34 -26s-18 -23 -25 -37c-6 -14 -11 -28 -14 -43l-61 -283h-116l118 554h-78l19 87h77l18 83h116l-18 -83h121l-19 -87h-120l-22 -107c17 19 37 33 60 42
c23 8 47 12 73 12c47 0 84 -14 111 -41c27 -28 40 -64 40 -109c0 -17 -2 -33 -6 -50l-78 -371c-9 -44 -28 -78 -55 -101c-28 -23 -62 -34 -102 -34c-22 0 -40 2 -54 7s-23 9 -26 12l19 91c1 0 6 -1 14 -4c7 -3 17 -4 28 -4c19 0 33 5 43 15s17 25 21 45z" />
    <glyph glyph-name="uni0453" unicode="&#x453;" horiz-adv-x="418" 
d="M225 548l118 148h145l-162 -148h-101zM112 487h327l-22 -101h-211l-81 -386h-116z" />
    <glyph glyph-name="uni0454" unicode="&#x454;" horiz-adv-x="540" 
d="M483 131c-9 -19 -21 -37 -35 -55c-13 -17 -29 -33 -48 -46c-18 -13 -39 -24 -63 -33c-24 -8 -50 -12 -79 -12c-34 0 -65 6 -93 17s-52 27 -72 47c-20 21 -36 45 -47 72c-11 28 -16 58 -16 91c0 43 7 83 22 118c15 36 34 67 59 92s54 45 87 59s67 21 104 21
c33 0 61 -5 85 -15c25 -9 45 -22 62 -37s30 -33 40 -52c9 -19 16 -37 20 -56l-103 -31c-5 23 -17 43 -34 61c-18 18 -44 27 -78 27c-28 0 -55 -9 -81 -28c-26 -18 -45 -46 -56 -83h195l-18 -86h-187c2 -35 14 -63 35 -84c21 -20 49 -30 83 -30c16 0 31 2 44 7s24 11 34 18
c10 8 19 17 26 27c7 9 13 19 18 29z" />
    <glyph glyph-name="uni0455" unicode="&#x455;" horiz-adv-x="451" 
d="M376 142c0 -17 -4 -35 -11 -54s-19 -36 -34 -51s-34 -28 -57 -38c-23 -9 -50 -14 -82 -14c-36 0 -66 5 -90 17c-24 11 -43 24 -58 41c-14 16 -24 33 -31 52c-6 19 -9 36 -9 51v4l100 20v-6c1 -25 9 -46 24 -62c16 -17 38 -25 65 -25c23 0 40 6 51 17s17 24 17 38
c0 11 -3 20 -9 29c-6 8 -16 16 -31 23l-62 27c-33 15 -58 33 -73 55s-23 47 -23 76c0 21 4 41 13 60s21 37 37 52c15 15 34 26 57 35c22 9 47 13 75 13c33 0 60 -5 82 -14s40 -21 53 -34c13 -14 23 -29 30 -45c6 -16 10 -30 12 -43c1 -3 1 -5 1 -6v-3l-101 -20v3
c-1 1 -1 3 -1 4c-1 8 -4 16 -7 24s-8 15 -14 22s-14 12 -23 16c-10 4 -22 6 -37 6c-21 0 -37 -5 -49 -16s-18 -24 -18 -39c0 -12 3 -22 9 -29s14 -14 25 -19l64 -28c36 -15 63 -35 80 -59s25 -51 25 -80z" />
    <glyph glyph-name="uni0456" unicode="&#x456;" horiz-adv-x="256" 
d="M8 0l104 487h116l-104 -487h-116zM280 668c0 -12 -2 -23 -7 -33s-11 -19 -19 -26c-7 -7 -16 -13 -26 -17s-20 -6 -31 -6c-20 0 -36 6 -49 19s-19 29 -19 48c0 11 2 22 7 32s11 19 19 26c7 7 16 13 26 18c10 4 20 6 31 6c20 0 36 -6 49 -19s19 -29 19 -48z" />
    <glyph glyph-name="uni0457" unicode="&#x457;" horiz-adv-x="256" 
d="M206 650c0 21 6 40 18 57c12 16 28 24 49 24c17 0 30 -7 39 -20c8 -13 12 -29 12 -47c0 -23 -6 -42 -19 -57s-28 -22 -47 -22c-17 0 -30 7 -39 20s-13 28 -13 45zM73 650c0 21 6 40 19 57c12 16 28 24 49 24c17 0 30 -7 39 -20c8 -13 12 -29 12 -47c0 -23 -6 -42 -19 -57
s-29 -22 -47 -22c-17 0 -30 7 -39 20s-14 28 -14 45zM112 487h116l-104 -487h-116z" />
    <glyph glyph-name="uni0458" unicode="&#x458;" horiz-adv-x="255" 
d="M112 487h115l-119 -557c-9 -44 -28 -78 -55 -101c-28 -23 -62 -34 -101 -34c-22 0 -40 2 -54 7s-23 9 -26 12l19 91c1 0 6 -1 13 -4c8 -3 18 -4 29 -4c19 0 34 5 44 15s17 25 21 45zM197 586c-20 0 -36 6 -49 19s-19 29 -19 48c0 11 2 22 7 32s11 19 19 26
c7 7 16 13 26 18c10 4 20 6 31 6c20 0 36 -6 49 -19s19 -29 19 -48c0 -12 -2 -23 -7 -33s-11 -19 -18 -26c-8 -7 -17 -13 -27 -17s-20 -6 -31 -6z" />
    <glyph glyph-name="uni0459" unicode="&#x459;" horiz-adv-x="789" 
d="M11 -7c-16 0 -28 1 -36 4c-8 2 -12 3 -11 3l20 95c1 -1 2 -1 5 -2c2 -1 4 -1 7 -1c3 -1 7 -1 12 -1c12 0 23 4 32 11s18 19 26 35c8 15 16 35 23 59s15 53 24 87l52 204h353l-32 -150h80c54 0 96 -13 126 -38s45 -63 45 -113c0 -25 -5 -48 -14 -71s-23 -43 -42 -60
s-42 -30 -71 -40s-63 -15 -102 -15h-209l82 386h-133l-27 -106c-13 -51 -25 -95 -38 -131c-12 -37 -26 -66 -41 -89s-33 -40 -54 -51s-47 -16 -77 -16zM519 98c35 0 61 8 76 24c16 16 24 35 24 56c0 41 -26 62 -78 62h-75l-30 -142h83z" />
    <glyph glyph-name="uni045A" unicode="&#x45a;" horiz-adv-x="794" 
d="M526 97c37 0 63 7 77 20s21 30 21 50c0 37 -24 55 -73 55h-72l-27 -125h74zM9 0l103 487h116l-36 -169h191l36 169h116l-36 -169h79c50 0 90 -12 120 -36c29 -24 44 -59 44 -105c0 -24 -4 -47 -13 -68c-9 -22 -23 -41 -41 -57c-19 -16 -42 -29 -70 -38s-61 -14 -99 -14
h-203l46 216h-192l-45 -216h-116z" />
    <glyph glyph-name="uni045B" unicode="&#x45b;" horiz-adv-x="562" 
d="M9 0l118 554h-78l19 87h77l18 83h116l-18 -83h121l-19 -87h-120l-22 -107c17 19 37 33 60 42c23 8 47 12 73 12c47 0 84 -14 111 -41c27 -28 40 -64 40 -109c0 -17 -2 -33 -6 -50l-64 -301h-116l61 288c3 10 4 21 4 32c0 24 -7 43 -20 57c-14 14 -34 21 -61 21
c-16 0 -31 -3 -44 -9c-13 -7 -24 -15 -34 -26s-18 -23 -25 -37c-6 -14 -11 -28 -14 -43l-61 -283h-116z" />
    <glyph glyph-name="uni045C" unicode="&#x45c;" horiz-adv-x="535" 
d="M125 0h-116l103 487h116l-42 -197h33l203 197h145l-249 -240l139 -247h-137l-113 205h-39zM270 548l118 148h145l-162 -148h-101z" />
    <glyph glyph-name="uni045D" unicode="&#x45d;" horiz-adv-x="582" 
d="M400 311l-279 -311h-112l103 487h116l-66 -310l279 310h112l-103 -487h-116zM294 548l-99 148h132l57 -148h-90z" />
    <glyph glyph-name="uni045E" unicode="&#x45e;" horiz-adv-x="532" 
d="M-6 -190l175 270l-112 407h124l74 -288l175 288h133l-438 -677h-131zM327 550c-46 0 -81 11 -104 33c-23 23 -35 51 -35 85v13c0 5 1 9 2 14h96c-1 -4 -2 -8 -2 -12v-10c0 -32 17 -48 51 -48c19 0 35 6 48 17c13 12 22 30 27 53h95c-5 -20 -12 -39 -21 -56
c-10 -17 -22 -33 -37 -46s-33 -24 -53 -31c-20 -8 -42 -12 -67 -12z" />
    <glyph glyph-name="uni045F" unicode="&#x45f;" horiz-adv-x="562" 
d="M165 0h-156l103 487h116l-82 -386h189l82 386h116l-103 -487h-157l-28 -130h-108z" />
    <glyph glyph-name="uni0462" unicode="&#x462;" horiz-adv-x="727" 
d="M253 516h-183l19 93h184l21 100h121l-21 -100h230l-20 -93h-230l-18 -88h106c33 0 63 -4 91 -11c27 -8 51 -19 71 -34s36 -34 47 -57s16 -50 16 -80c0 -32 -7 -63 -20 -92c-13 -30 -32 -56 -57 -79s-55 -41 -90 -54c-36 -14 -76 -21 -121 -21h-255zM411 107
c24 0 46 4 65 11s34 16 47 27s22 25 29 40s10 31 10 48c0 59 -36 89 -108 89h-121l-46 -215h124z" />
    <glyph glyph-name="uni0463" unicode="&#x463;" horiz-adv-x="583" 
d="M58 487h136l51 237h116l-51 -237h171l-18 -87h-172l-17 -83h84c52 0 93 -12 124 -35c30 -23 45 -56 45 -99c0 -25 -5 -49 -16 -71c-11 -23 -27 -42 -46 -59s-42 -30 -69 -39s-56 -14 -87 -14h-218l85 400h-137zM317 98c31 0 54 7 69 22c15 14 22 32 22 53
c0 15 -5 26 -16 34c-11 9 -28 13 -50 13h-89l-25 -122h89z" />
    <glyph glyph-name="uni0472" unicode="&#x472;" horiz-adv-x="778" 
d="M747 410c0 -69 -11 -129 -33 -182s-51 -98 -86 -134s-76 -63 -121 -81c-46 -19 -92 -28 -139 -28s-89 8 -127 23c-39 15 -71 37 -98 64s-48 60 -63 99s-23 81 -23 128c0 69 11 130 33 183c21 53 50 97 86 133c35 36 76 63 121 82c45 18 92 27 139 27s89 -7 128 -22
c38 -15 71 -37 98 -64c27 -28 48 -61 63 -100s22 -81 22 -128zM284 331c-21 0 -40 -3 -57 -9c-17 -7 -33 -18 -46 -35c4 -61 24 -107 59 -139c35 -33 80 -49 134 -49c31 0 59 6 86 17s50 26 71 46s38 44 53 71c14 27 24 57 31 89c-14 -15 -31 -26 -51 -33
c-21 -7 -43 -11 -67 -11s-44 3 -61 9c-17 5 -33 11 -48 18c-15 6 -31 12 -47 18c-16 5 -35 8 -57 8zM523 386c21 0 39 3 55 9c16 5 31 16 44 31c-5 59 -24 104 -59 136s-79 48 -133 48c-30 0 -58 -5 -85 -16c-26 -11 -49 -26 -70 -45c-20 -19 -37 -42 -52 -68
c-15 -27 -26 -56 -33 -87c13 14 30 25 51 33c21 7 43 11 67 11c23 0 42 -3 59 -8s34 -11 49 -18c16 -7 32 -13 49 -18s36 -8 58 -8z" />
    <glyph glyph-name="uni0473" unicode="&#x473;" horiz-adv-x="570" 
d="M520 277c0 -40 -7 -78 -20 -114c-13 -35 -32 -66 -56 -93c-24 -26 -52 -47 -85 -62s-69 -23 -108 -23c-34 0 -65 6 -92 17c-27 12 -50 28 -69 49s-34 45 -44 72c-11 27 -16 57 -16 88c0 43 7 82 21 117c14 36 33 67 58 92c24 26 53 46 86 60c33 15 68 22 105 22
c35 0 66 -6 93 -18c27 -11 51 -27 70 -48c19 -20 33 -44 43 -71c9 -27 14 -57 14 -88zM322 188c-13 0 -24 1 -33 4s-18 6 -25 9c-8 3 -16 6 -23 9c-8 3 -17 4 -28 4c-27 0 -50 -7 -67 -21c3 -33 15 -58 35 -77s45 -28 76 -28c15 0 31 3 46 9s30 15 43 26s24 26 34 43
c9 17 16 37 20 60c-20 -25 -46 -38 -78 -38zM339 279c13 0 25 1 36 4s20 8 28 15c-4 32 -16 57 -35 74c-19 18 -44 27 -75 27c-34 0 -64 -12 -90 -36c-26 -23 -44 -55 -53 -96c21 25 48 38 80 38c11 0 21 -1 30 -4s17 -6 25 -9s16 -6 25 -9c8 -3 18 -4 29 -4z" />
    <glyph glyph-name="uni0474" unicode="&#x474;" horiz-adv-x="704" 
d="M99 709h123l74 -552l238 430c25 44 52 77 83 99s70 33 119 33c8 0 15 0 21 -1s11 -2 15 -3c5 -1 9 -2 13 -3l-22 -102c-2 0 -4 0 -7 1c-5 1 -11 2 -16 2c-23 0 -43 -6 -58 -19c-16 -12 -32 -33 -49 -62l-305 -532h-122z" />
    <glyph glyph-name="uni0475" unicode="&#x475;" horiz-adv-x="535" 
d="M57 487h119l49 -347l139 255c19 35 41 61 65 78c24 16 53 24 87 24c8 0 15 0 21 -1c7 -1 12 -1 16 -2l12 -3l-20 -94c-1 0 -2 0 -4 1c-1 0 -3 0 -6 1h-8h-7c-11 0 -20 -3 -28 -10s-16 -17 -25 -32l-209 -357h-115z" />
    <glyph glyph-name="uni0490" unicode="&#x490;" horiz-adv-x="529" 
d="M176 709h302l32 150h121l-57 -263h-301l-127 -596h-120z" />
    <glyph glyph-name="uni0491" unicode="&#x491;" horiz-adv-x="418" 
d="M112 487h218l28 130h108l-49 -231h-211l-81 -386h-116z" />
    <glyph glyph-name="uni0492" unicode="&#x492;" horiz-adv-x="542" 
d="M104 319h-77l19 93h78l63 297h422l-24 -113h-301l-40 -184h171l-20 -93h-170l-68 -319h-120z" />
    <glyph glyph-name="uni0493" unicode="&#x493;" horiz-adv-x="443" 
d="M74 192h-71l18 87h71l45 208h326l-21 -101h-211l-23 -107h121l-19 -87h-120l-41 -192h-116z" />
    <glyph glyph-name="uni049A" unicode="&#x49a;" horiz-adv-x="692" 
d="M459 -150l32 150h-35l-190 300h-56l-63 -300h-121l150 709h121l-63 -299h48l308 299h158l-371 -357l153 -239h105l-56 -263h-120z" />
    <glyph glyph-name="uni049B" unicode="&#x49b;" horiz-adv-x="560" 
d="M125 0h-116l103 487h116l-42 -197h33l203 197h145l-249 -240l84 -146h88l-49 -231h-109l28 130h-40l-113 205h-39z" />
    <glyph glyph-name="uni04A2" unicode="&#x4a2;" horiz-adv-x="775" 
d="M559 0h-99l64 303h-314l-64 -303h-120l150 709h121l-62 -293h313l62 293h121l-127 -596h99l-56 -263h-120z" />
    <glyph glyph-name="uni04A3" unicode="&#x4a3;" horiz-adv-x="614" 
d="M112 487h116l-40 -185h197l40 185h116l-82 -386h87l-49 -231h-109l28 130h-94l42 201h-197l-42 -201h-116z" />
    <glyph glyph-name="uni04AE" unicode="&#x4ae;" horiz-adv-x="632" 
d="M101 709h127l110 -292l211 292h145l-315 -412l-62 -297h-121l64 302z" />
    <glyph glyph-name="uni04AF" unicode="&#x4af;" horiz-adv-x="520" 
d="M57 487h119l48 -346l189 346h130l-285 -487l-40 -190h-116l40 190z" />
    <glyph glyph-name="uni04B0" unicode="&#x4b0;" horiz-adv-x="628" 
d="M360 216l-45 -216h-121l46 216h-145l20 93h140l-156 400h127l110 -292l211 292h145l-307 -400h140l-20 -93h-145z" />
    <glyph glyph-name="uni04B1" unicode="&#x4b1;" horiz-adv-x="521" 
d="M125 -87h-134l19 87h133l-85 487h119l48 -346l189 346h130l-285 -487h133l-18 -87h-133l-22 -103h-116z" />
    <glyph glyph-name="uni04B2" unicode="&#x4b2;" horiz-adv-x="672" 
d="M559 -150h-121l32 150h-48l-110 249l-211 -249h-152l311 357l-162 352h136l112 -253l213 253h152l-313 -360l109 -236h108z" />
    <glyph glyph-name="uni04B3" unicode="&#x4b3;" horiz-adv-x="552" 
d="M-48 0l234 249l-128 238h128l77 -153l137 153h144l-228 -243l76 -143h94l-49 -231h-109l28 130h-36l-82 159l-143 -159h-143z" />
    <glyph glyph-name="uni04BA" unicode="&#x4ba;" horiz-adv-x="671" 
d="M236 422c20 10 41 18 64 24c23 5 49 8 77 8c75 0 133 -18 175 -53c41 -36 62 -88 62 -155c0 -24 -3 -50 -9 -78l-36 -168h-120l36 175c5 19 7 38 7 57c0 41 -12 69 -36 85c-25 16 -57 24 -98 24c-31 0 -59 -4 -85 -12s-47 -18 -63 -30l-63 -299h-121l150 709h121z" />
    <glyph glyph-name="uni04BB" unicode="&#x4bb;" horiz-adv-x="561" 
d="M9 0l153 724h117l-59 -277c17 19 37 33 60 42c23 8 47 12 73 12c47 0 84 -14 111 -41c27 -28 40 -64 40 -109c0 -15 -2 -33 -6 -54l-64 -297h-116l60 281c2 8 3 15 4 22c1 6 1 12 1 17c0 24 -7 43 -20 57c-14 14 -34 21 -61 21c-16 0 -31 -3 -44 -9
c-13 -7 -24 -15 -34 -26s-18 -23 -25 -37c-6 -14 -11 -28 -14 -43l-60 -283h-116z" />
    <glyph glyph-name="uni04D8" unicode="&#x4d8;" horiz-adv-x="784" 
d="M754 408c0 -68 -11 -128 -34 -181s-52 -97 -89 -133s-79 -63 -125 -82c-47 -19 -94 -28 -141 -28c-43 0 -83 7 -121 22c-39 14 -72 35 -101 62s-51 59 -68 98s-25 82 -25 130c0 15 1 29 2 43s2 27 5 39h573c1 4 1 8 1 12v12c0 34 -5 64 -16 90s-27 48 -46 66
c-19 17 -42 31 -67 40c-26 9 -54 13 -84 13c-25 0 -49 -3 -72 -10s-44 -17 -63 -29c-19 -13 -36 -27 -51 -43s-26 -33 -35 -51l-100 51c13 27 31 53 53 77c22 23 47 44 76 62c29 17 60 31 94 41s70 15 108 15c47 0 90 -8 130 -23s75 -37 104 -64c29 -28 51 -61 68 -100
c16 -39 24 -82 24 -129zM375 94c58 0 107 17 148 50c40 33 69 76 87 130h-438c1 -27 6 -52 17 -74c10 -22 24 -41 42 -56c18 -16 39 -28 64 -37c24 -9 51 -13 80 -13z" />
    <glyph glyph-name="uni04D9" unicode="&#x4d9;" horiz-adv-x="549" 
d="M388 275v12c0 34 -11 62 -32 83c-21 22 -49 33 -83 33c-32 0 -58 -7 -78 -22c-21 -14 -36 -30 -46 -49l-89 49c9 16 20 31 33 46s29 27 47 38s38 20 61 27s48 10 75 10c31 0 60 -5 87 -15s50 -25 71 -44c20 -19 36 -42 48 -70c11 -27 17 -59 17 -94
c0 -46 -7 -87 -22 -124c-15 -36 -35 -67 -60 -92s-53 -45 -84 -58c-32 -13 -65 -20 -98 -20s-63 5 -89 15s-48 24 -65 41c-18 18 -32 39 -41 64s-14 52 -14 81c0 19 2 36 6 53c3 17 6 29 8 36h348zM140 175c0 -11 2 -22 5 -33s9 -21 17 -30c7 -9 17 -16 30 -22
c13 -5 28 -8 46 -8c36 0 65 10 88 30c22 21 38 47 48 78h-233c-1 -2 -1 -5 -1 -8v-7z" />
    <glyph glyph-name="uni04E8" unicode="&#x4e8;" horiz-adv-x="778" 
d="M368 -15c-47 0 -89 8 -127 23c-39 15 -71 37 -98 64s-48 60 -63 99s-23 81 -23 128c0 69 11 130 33 183c21 53 50 97 86 133c35 36 76 63 121 82c45 18 92 27 139 27s89 -7 128 -22c38 -15 71 -37 98 -64c27 -28 48 -61 63 -100s22 -81 22 -128c0 -69 -11 -129 -33 -182
s-51 -98 -86 -134s-76 -63 -121 -81c-46 -19 -92 -28 -139 -28zM374 98c29 0 57 5 83 16c25 10 48 24 69 43c21 18 38 40 53 66c15 25 26 53 34 83h-434c0 -33 5 -62 15 -87c10 -26 24 -48 41 -66s37 -32 61 -41s50 -14 78 -14zM430 612c-29 0 -56 -5 -81 -15
s-48 -24 -68 -41c-21 -18 -38 -39 -53 -64s-27 -51 -35 -80h432c-3 63 -22 112 -57 147s-81 53 -138 53z" />
    <glyph glyph-name="uni04E9" unicode="&#x4e9;" horiz-adv-x="570" 
d="M520 277c0 -40 -7 -78 -20 -114c-13 -35 -32 -66 -56 -93c-24 -26 -52 -47 -85 -62s-69 -23 -108 -23c-34 0 -65 6 -92 17c-27 12 -50 28 -69 49s-34 45 -44 72c-11 27 -16 57 -16 88c0 43 7 82 21 117c14 36 33 67 58 92c24 26 53 46 86 60c33 15 68 22 105 22
c35 0 66 -6 93 -18c27 -11 51 -27 70 -48c19 -20 33 -44 43 -71c9 -27 14 -57 14 -88zM257 90c27 0 54 9 80 28s45 47 56 84h-246c3 -35 14 -63 34 -83c19 -19 45 -29 76 -29zM292 397c-30 0 -57 -10 -82 -30c-24 -19 -42 -46 -53 -80h245c-3 34 -14 61 -33 80
c-19 20 -45 30 -77 30z" />
    <glyph glyph-name="uni2007" unicode="&#x2007;" horiz-adv-x="623" 
 />
    <glyph glyph-name="uni2008" unicode="&#x2008;" horiz-adv-x="262" 
 />
    <glyph glyph-name="uni200B" unicode="&#x200b;" horiz-adv-x="0" 
 />
    <glyph glyph-name="endash" unicode="&#x2013;" horiz-adv-x="645" 
d="M54 242l21 101h514l-21 -101h-514z" />
    <glyph glyph-name="emdash" unicode="&#x2014;" horiz-adv-x="1077" 
d="M54 242l21 101h946l-21 -101h-946z" />
    <glyph glyph-name="quoteleft" unicode="&#x2018;" horiz-adv-x="254" 
d="M249 515c0 -21 -8 -40 -23 -55s-35 -23 -58 -23s-42 8 -55 23c-14 15 -21 35 -21 58c0 25 5 50 15 74c10 23 24 44 42 62c17 18 38 33 61 44s48 18 75 19l-12 -57c-25 -3 -47 -13 -67 -30c-21 -17 -34 -36 -40 -59c1 1 4 1 8 2s8 2 13 2c19 0 34 -6 45 -17s17 -26 17 -43
z" />
    <glyph glyph-name="quoteright" unicode="&#x2019;" horiz-adv-x="254" 
d="M126 639c0 21 8 40 23 55c16 15 36 23 59 23s41 -8 55 -23s21 -35 21 -58c0 -25 -5 -50 -16 -73c-10 -24 -24 -45 -41 -63s-38 -33 -61 -44s-48 -18 -75 -19l11 57c12 1 24 5 35 10s22 12 32 20s19 17 26 27s11 21 14 32c-1 -1 -4 -1 -8 -2s-8 -2 -13 -2
c-19 0 -34 6 -45 17s-17 26 -17 43z" />
    <glyph glyph-name="quotesinglbase" unicode="&#x201a;" horiz-adv-x="258" 
d="M5 55c0 22 8 40 23 55s35 23 58 23s42 -8 55 -23c14 -15 21 -34 21 -58c0 -25 -5 -50 -15 -73s-24 -44 -42 -62c-17 -19 -38 -34 -61 -45s-48 -17 -75 -18l12 56c11 1 23 5 34 10c12 5 23 12 33 20c9 8 18 17 25 28c7 10 11 21 14 32c-3 -3 -10 -4 -21 -4
c-19 0 -33 6 -44 17s-17 25 -17 42z" />
    <glyph glyph-name="quotedblleft" unicode="&#x201c;" horiz-adv-x="440" 
d="M437 520c0 -21 -8 -39 -23 -53c-15 -15 -34 -22 -57 -22c-22 0 -40 7 -54 22c-13 15 -20 34 -20 57c0 25 5 48 15 71s23 43 40 60s37 32 60 43s48 18 74 19l-12 -55c-11 -2 -23 -6 -34 -11s-22 -12 -31 -19c-9 -8 -18 -17 -25 -26c-7 -10 -11 -20 -14 -31c1 1 4 1 7 2
c4 1 8 1 13 1c19 0 34 -5 45 -16s16 -25 16 -42zM246 520c0 -21 -7 -39 -22 -53c-15 -15 -34 -22 -57 -22s-41 7 -54 22s-20 34 -20 57c0 25 5 48 14 71c10 23 23 43 40 60s37 32 60 43s48 18 74 19l-12 -55c-23 -3 -45 -13 -65 -30s-33 -36 -39 -57c1 1 4 1 7 2
c4 1 9 1 14 1c18 0 32 -5 43 -16s17 -25 17 -42z" />
    <glyph glyph-name="quotedblright" unicode="&#x201d;" horiz-adv-x="443" 
d="M127 639c0 21 8 39 23 54s33 22 56 22c22 0 40 -7 54 -22c13 -15 20 -34 20 -57c0 -25 -5 -48 -15 -71s-23 -44 -40 -61c-17 -18 -37 -32 -60 -43s-47 -17 -73 -18l11 55c11 1 23 5 34 10s21 11 31 19c9 7 18 16 25 26s11 21 14 32c-3 -3 -9 -4 -20 -4
c-18 0 -32 6 -43 17s-17 24 -17 41zM318 639c0 21 8 39 23 54s34 22 57 22c22 0 40 -7 54 -22c13 -15 20 -34 20 -57c0 -25 -5 -48 -15 -71s-23 -44 -40 -61c-17 -18 -37 -32 -60 -43s-48 -17 -74 -18l12 55c11 1 23 5 34 10s21 11 31 19c9 7 18 16 25 26s11 21 14 32
c-3 -3 -9 -4 -20 -4c-19 0 -33 6 -44 17s-17 24 -17 41z" />
    <glyph glyph-name="quotedblbase" unicode="&#x201e;" horiz-adv-x="441" 
d="M6 54c0 21 8 39 23 54s33 22 56 22s41 -7 54 -22s20 -34 20 -57c0 -25 -5 -48 -14 -72c-10 -23 -23 -43 -40 -61c-17 -17 -37 -32 -60 -43s-48 -16 -74 -17l12 55c11 1 22 4 33 9s22 12 32 19c9 8 18 17 25 27s11 21 14 32c-3 -3 -10 -4 -21 -4c-18 0 -32 6 -43 17
s-17 24 -17 41zM191 54c0 21 8 39 23 54s33 22 56 22c22 0 40 -7 54 -22c13 -15 20 -34 20 -57c0 -25 -5 -48 -15 -72c-10 -23 -23 -43 -40 -61c-17 -17 -37 -32 -60 -43s-47 -16 -73 -17l11 55c11 1 23 4 34 9s21 12 31 19c9 8 18 17 25 27s11 21 14 32c-3 -3 -9 -4 -20 -4
c-18 0 -32 6 -43 17s-17 24 -17 41z" />
    <glyph glyph-name="dagger" unicode="&#x2020;" horiz-adv-x="419" 
d="M347 709l-31 -145h125l-20 -94h-125l-65 -308h-99l66 308h-125l20 94h124l32 145h98z" />
    <glyph glyph-name="daggerdbl" unicode="&#x2021;" horiz-adv-x="443" 
d="M111 0l30 146h-124l19 93h125l49 231h-125l21 93h124l31 146h98l-31 -146h125l-20 -93h-125l-49 -231h125l-20 -93h-124l-31 -146h-98z" />
    <glyph glyph-name="bullet" unicode="&#x2022;" horiz-adv-x="555" 
d="M71 294c0 29 6 56 17 82c11 25 25 47 44 66s41 34 66 45s52 16 81 16s56 -5 81 -16s46 -26 65 -45s34 -41 45 -66c11 -26 16 -53 16 -82c0 -28 -5 -55 -16 -80s-26 -47 -45 -66s-40 -33 -65 -44s-52 -17 -81 -17s-56 6 -81 17s-47 25 -66 44s-33 41 -44 66s-17 52 -17 80
z" />
    <glyph glyph-name="ellipsis" unicode="&#x2026;" horiz-adv-x="838" 
d="M72 -8c-21 0 -37 7 -49 20c-13 13 -19 28 -19 45c0 11 2 21 7 31c4 10 10 19 17 27c7 7 16 13 27 18c10 4 21 6 32 6c21 0 37 -6 50 -19c12 -13 18 -29 18 -47c0 -23 -8 -42 -24 -57c-17 -16 -36 -24 -59 -24zM366 -8c-21 0 -37 7 -49 20c-13 13 -19 28 -19 45
c0 11 2 21 7 31c4 10 10 19 17 27c7 7 16 13 27 18c10 4 21 6 32 6c21 0 37 -6 50 -19c12 -13 18 -29 18 -47c0 -23 -8 -42 -24 -57c-17 -16 -36 -24 -59 -24zM661 -8c-21 0 -37 7 -49 20c-13 13 -19 28 -19 45c0 11 2 21 7 31c4 10 10 19 17 27c7 7 16 13 27 18
c10 4 21 6 32 6c21 0 37 -6 50 -19c12 -13 18 -29 18 -47c0 -23 -8 -42 -24 -57c-17 -16 -36 -24 -59 -24z" />
    <glyph glyph-name="perthousand" unicode="&#x2030;" horiz-adv-x="1099" 
d="M686 709h107l-592 -709h-107zM89 542c0 25 5 48 15 70c9 21 22 40 38 56s35 29 56 38s44 13 68 13c21 0 40 -4 58 -11c18 -8 34 -18 47 -31s24 -29 31 -46c7 -18 11 -37 11 -57c0 -25 -5 -49 -15 -70c-11 -22 -24 -41 -41 -56c-17 -16 -36 -28 -57 -37
c-22 -9 -44 -13 -66 -13c-21 0 -41 4 -58 11c-18 7 -33 18 -46 31s-23 28 -30 46c-7 17 -11 36 -11 56zM242 484c20 0 38 8 55 23c16 15 24 36 24 62c0 19 -6 34 -17 46c-11 11 -27 17 -46 17c-20 0 -38 -8 -53 -23c-16 -15 -24 -36 -24 -61c0 -19 5 -34 16 -45
c11 -12 26 -18 45 -19zM652 311c23 0 45 -5 65 -14c19 -10 36 -23 49 -39c16 17 35 30 57 39c21 9 44 14 69 14c21 0 40 -4 58 -11c18 -8 34 -18 47 -31s23 -29 30 -46c7 -18 11 -37 11 -57c0 -25 -5 -49 -15 -70c-11 -22 -24 -41 -41 -56c-17 -16 -36 -28 -57 -37
s-43 -13 -65 -13c-24 0 -46 5 -65 14c-20 9 -37 22 -50 39c-17 -17 -36 -30 -57 -39c-22 -10 -45 -14 -68 -14c-21 0 -41 4 -58 11c-18 7 -33 18 -46 31s-24 28 -31 46c-7 17 -11 36 -11 56c0 25 5 48 15 70c9 21 22 40 39 56c16 16 35 29 56 38s44 13 68 13zM868 76
c10 0 20 2 29 6s18 10 25 17s13 16 18 27c4 10 6 22 6 35c0 19 -6 34 -17 46c-11 11 -27 17 -46 17c-10 0 -19 -2 -28 -6s-18 -10 -25 -17s-13 -16 -17 -26c-5 -11 -7 -22 -7 -35c0 -19 6 -34 17 -45c11 -12 26 -18 45 -19zM628 76c20 0 38 8 54 23s24 36 24 62
c0 19 -6 34 -17 46c-11 11 -27 17 -46 17c-10 0 -19 -2 -28 -6s-18 -10 -25 -17s-13 -16 -17 -26c-5 -11 -7 -22 -7 -35c0 -19 6 -34 17 -45c11 -12 26 -18 45 -19z" />
    <glyph glyph-name="guilsinglleft" unicode="&#x2039;" horiz-adv-x="329" 
d="M135 100l-99 196l174 191h119l-180 -200l94 -187h-108z" />
    <glyph glyph-name="guilsinglright" unicode="&#x203a;" horiz-adv-x="327" 
d="M194 487l99 -196l-174 -191h-119l181 200l-95 187h108z" />
    <glyph glyph-name="uni2042" unicode="&#x2042;" horiz-adv-x="815" 
d="M496 594l112 36l11 -78l-114 -36l53 -88l-70 -47l-53 94l-88 -94l-59 48l89 93l-100 34l36 74l99 -36l19 115h88zM225 202l112 36l11 -78l-114 -36l53 -88l-70 -47l-53 94l-88 -94l-59 48l89 93l-100 34l36 74l99 -36l19 115h88zM634 202l112 36l11 -78l-114 -36l53 -88
l-70 -47l-53 94l-88 -94l-59 48l89 93l-100 34l36 74l99 -36l19 115h88z" />
    <glyph glyph-name="fraction" unicode="&#x2044;" horiz-adv-x="165" 
d="M-251 0l592 709h105l-593 -709h-104z" />
    <glyph glyph-name="uni2051" unicode="&#x2051;" horiz-adv-x="441" 
d="M328 594l112 36l11 -78l-114 -36l53 -88l-70 -47l-53 94l-88 -94l-59 48l89 93l-100 34l36 74l99 -36l19 115h88zM238 203l112 36l11 -78l-114 -36l53 -88l-70 -47l-53 94l-88 -94l-59 48l89 93l-100 34l36 74l99 -36l19 115h88z" />
    <glyph glyph-name="uni2070" unicode="&#x2070;" horiz-adv-x="389" 
d="M79 477c0 26 4 53 11 81s18 54 33 78c15 23 34 43 57 58s52 23 85 23c24 0 45 -4 63 -11s33 -17 45 -30s21 -28 27 -45s9 -36 9 -55c0 -29 -4 -58 -11 -87s-18 -54 -33 -77s-35 -41 -58 -55c-24 -15 -52 -22 -84 -22c-21 0 -40 3 -57 10c-18 7 -33 16 -46 29
c-13 12 -23 27 -30 45c-7 17 -11 37 -11 58zM166 479c0 -17 5 -33 15 -46c9 -13 25 -20 46 -20c17 0 31 6 44 17c12 11 22 24 29 41c7 16 13 33 17 52c3 19 5 36 5 51c0 17 -4 33 -13 46s-25 20 -48 20c-19 0 -34 -6 -46 -19c-13 -13 -22 -28 -29 -45s-12 -35 -15 -53
s-5 -33 -5 -44z" />
    <glyph glyph-name="uni2074" unicode="&#x2074;" horiz-adv-x="375" 
d="M73 513l204 196h101l-47 -219h63l-16 -73h-62c0 -1 -1 -7 -4 -19c-3 -13 -7 -31 -12 -55h-89l15 74h-172zM269 612l-127 -122h99z" />
    <glyph glyph-name="uni2075" unicode="&#x2075;" horiz-adv-x="344" 
d="M145 467c0 -15 5 -28 14 -39s23 -16 41 -16c15 0 29 5 42 14c13 10 19 25 19 45c0 16 -5 28 -15 36c-11 9 -23 13 -38 13c-9 0 -18 -2 -26 -5s-15 -6 -20 -11l-73 37l74 168h219l-16 -75h-155l-28 -62c7 5 16 8 27 9c10 2 19 3 27 3c34 0 62 -9 83 -28
c21 -18 31 -44 31 -78c0 -19 -4 -38 -11 -55c-8 -17 -19 -32 -32 -45s-29 -24 -48 -31s-39 -11 -61 -11c-41 0 -75 12 -100 35c-26 23 -39 52 -39 88z" />
    <glyph glyph-name="uni2076" unicode="&#x2076;" horiz-adv-x="369" 
d="M379 625c-9 5 -20 10 -31 13c-12 3 -27 4 -44 4c-23 0 -46 -6 -69 -19s-39 -32 -49 -57c9 9 21 15 35 18c13 3 26 5 38 5c36 0 64 -10 85 -30s31 -46 31 -79c0 -23 -4 -43 -13 -61s-20 -33 -34 -45c-15 -13 -31 -22 -50 -29s-39 -10 -59 -10c-19 0 -37 3 -54 10
s-32 16 -45 29c-13 12 -23 27 -30 46c-8 19 -12 40 -12 64c0 33 6 64 18 93c11 28 27 52 48 73c20 21 44 37 72 49c27 11 57 17 89 17c21 0 40 -2 58 -5c18 -4 34 -10 47 -19zM233 520c-17 0 -31 -5 -44 -16s-20 -25 -20 -44c0 -15 5 -28 16 -37c10 -9 23 -14 38 -14
s30 5 43 16c13 10 19 26 19 47c0 14 -5 26 -14 35c-10 9 -23 13 -38 13z" />
    <glyph glyph-name="uni2077" unicode="&#x2077;" horiz-adv-x="337" 
d="M391 635c-13 -9 -29 -22 -48 -37s-38 -34 -58 -58c-20 -23 -40 -51 -59 -84c-19 -32 -35 -70 -48 -113h-95c11 44 26 83 47 118s42 64 63 89s40 44 57 59c17 14 27 22 31 24h-186l15 76h297z" />
    <glyph glyph-name="uni2078" unicode="&#x2078;" horiz-adv-x="359" 
d="M198 600c0 -10 4 -19 12 -26c7 -7 17 -11 29 -11c14 0 27 4 38 12c11 7 17 19 17 34c0 9 -3 18 -10 26c-7 7 -19 11 -34 11c-16 0 -29 -4 -38 -13s-14 -20 -14 -33zM156 446c0 -13 5 -23 16 -30s23 -11 37 -11c19 0 34 5 45 14s16 22 16 37c0 11 -4 20 -12 28
c-9 9 -22 13 -41 13s-33 -5 -44 -16c-11 -10 -17 -22 -17 -35zM208 335c-48 0 -84 10 -107 29c-24 19 -36 43 -36 72c0 23 9 44 26 61c17 18 40 30 69 37c-15 5 -26 15 -35 29s-13 28 -13 41c0 32 13 59 39 80c26 22 61 33 105 33c40 0 71 -9 94 -27c22 -18 33 -41 33 -69
c0 -20 -7 -39 -20 -56c-14 -17 -33 -30 -58 -38c15 -5 28 -15 39 -30c10 -14 15 -29 15 -44c0 -17 -4 -33 -11 -48c-8 -15 -19 -27 -33 -37c-13 -11 -29 -19 -48 -24c-18 -6 -38 -9 -59 -9z" />
    <glyph glyph-name="uni2079" unicode="&#x2079;" horiz-adv-x="367" 
d="M91 434c23 -15 50 -23 83 -23c23 0 45 6 68 19c22 13 37 33 44 60c-9 -9 -20 -16 -33 -20c-13 -5 -26 -7 -38 -7c-36 0 -65 10 -87 31c-23 20 -34 47 -34 80c0 22 4 42 13 59c8 17 19 32 34 45c14 12 30 21 49 28s38 10 59 10c19 0 38 -3 55 -9c17 -7 31 -16 44 -28
c12 -12 22 -27 29 -45s11 -39 11 -62c0 -35 -5 -67 -15 -96c-11 -29 -25 -54 -44 -75s-41 -38 -68 -49s-57 -17 -90 -17c-21 0 -42 3 -61 9c-20 6 -37 14 -51 23zM234 530c17 0 32 6 44 18c11 11 17 26 17 45c0 15 -5 28 -15 37s-22 13 -35 13c-16 0 -30 -5 -42 -16
c-13 -11 -19 -27 -19 -47c0 -15 5 -27 14 -36s21 -14 36 -14z" />
    <glyph glyph-name="uni2080" unicode="&#x2080;" horiz-adv-x="392" 
d="M-7 62c0 26 4 53 11 81s18 54 33 78c15 23 34 43 57 58s52 23 85 23c24 0 45 -4 63 -11s33 -17 45 -30s21 -28 27 -45s9 -36 9 -55c0 -29 -4 -58 -11 -87s-18 -54 -33 -77s-35 -41 -58 -56c-24 -14 -52 -21 -84 -21c-21 0 -40 3 -57 10c-18 7 -33 16 -46 28
c-13 13 -23 28 -30 46c-7 17 -11 37 -11 58zM80 64c0 -17 5 -33 15 -46c9 -13 25 -20 46 -20c17 0 31 6 44 17c12 11 22 24 29 41c7 16 13 33 17 52c3 19 5 36 5 51c0 17 -4 33 -13 46s-25 20 -48 20c-19 0 -34 -6 -46 -19c-13 -13 -22 -28 -29 -45s-12 -35 -15 -53
s-5 -33 -5 -44z" />
    <glyph glyph-name="uni2081" unicode="&#x2081;" horiz-adv-x="242" 
d="M24 -89l53 238h-85l12 59c28 1 52 9 71 23c19 13 32 29 39 46h80l-79 -366h-91z" />
    <glyph glyph-name="uni2082" unicode="&#x2082;" horiz-adv-x="356" 
d="M148 110c35 15 52 35 52 59c0 9 -4 19 -11 28s-19 14 -34 14c-19 0 -33 -6 -44 -17c-11 -12 -16 -29 -16 -52l-84 3c0 43 13 77 40 102s63 37 107 37c22 0 41 -3 58 -9s30 -14 41 -24s20 -22 25 -35c6 -13 9 -27 9 -42c0 -30 -9 -55 -28 -76c-18 -21 -43 -38 -74 -51
l-76 -33c-10 -5 -17 -10 -21 -16s-6 -10 -7 -11h171l-16 -76h-278c5 81 46 138 122 171z" />
    <glyph glyph-name="uni2083" unicode="&#x2083;" horiz-adv-x="359" 
d="M75 142l111 62h-163l16 74h272l-17 -85l-108 -59c24 -5 44 -17 59 -35c15 -17 23 -39 23 -64c0 -17 -4 -34 -11 -50c-7 -15 -18 -29 -31 -41s-30 -22 -49 -29s-39 -10 -62 -10c-41 0 -75 11 -101 33c-27 22 -40 51 -40 86c0 5 1 11 2 16l82 6c-1 -3 -1 -7 -1 -10
c0 -15 5 -28 16 -39s25 -17 42 -17c19 0 35 5 46 14c11 10 17 24 17 43c0 15 -5 26 -16 34c-10 8 -22 12 -35 12c-9 0 -17 -2 -25 -5z" />
    <glyph glyph-name="uni2084" unicode="&#x2084;" horiz-adv-x="378" 
d="M-17 81l204 196h101l-47 -219h63l-16 -73h-62c0 -1 -1 -7 -4 -20c-3 -12 -7 -30 -12 -54h-89l15 74h-172zM179 180l-127 -122h99z" />
    <glyph glyph-name="uni2085" unicode="&#x2085;" horiz-adv-x="346" 
d="M55 35c0 -15 5 -28 14 -39s23 -16 41 -16c15 0 29 5 42 14c13 10 19 25 19 45c0 16 -5 28 -15 36c-11 9 -23 13 -38 13c-9 0 -18 -2 -26 -5s-15 -6 -20 -11l-73 37l74 168h219l-16 -75h-155l-28 -62c7 5 16 8 27 9c10 2 19 3 27 3c34 0 62 -9 83 -28
c21 -18 31 -44 31 -78c0 -19 -4 -38 -11 -55c-8 -17 -19 -33 -32 -46s-29 -23 -48 -30s-39 -11 -61 -11c-41 0 -75 11 -100 34c-26 23 -39 53 -39 89z" />
    <glyph glyph-name="uni2086" unicode="&#x2086;" horiz-adv-x="370" 
d="M289 194c-9 5 -20 10 -31 13c-12 3 -27 4 -44 4c-23 0 -46 -6 -69 -19s-39 -32 -49 -57c9 9 21 15 35 18c13 3 26 5 38 5c36 0 64 -10 85 -30s31 -46 31 -79c0 -23 -4 -43 -13 -61s-20 -33 -34 -45c-15 -13 -31 -22 -50 -29s-39 -10 -59 -10c-19 0 -37 3 -54 10
s-32 16 -45 29c-13 12 -23 27 -31 46c-7 19 -11 40 -11 64c0 33 6 64 18 93c11 28 27 52 48 73c20 21 44 37 72 49c27 11 57 17 89 17c21 0 40 -2 58 -5c18 -4 34 -10 47 -19zM143 89c-17 0 -31 -5 -44 -16s-20 -25 -20 -44c0 -15 5 -28 16 -37c10 -9 23 -14 38 -14
s30 5 43 16c13 10 19 26 19 47c0 14 -5 26 -14 35c-10 9 -23 13 -38 13z" />
    <glyph glyph-name="uni2087" unicode="&#x2087;" horiz-adv-x="339" 
d="M301 203c-13 -9 -29 -22 -48 -37s-38 -34 -58 -58c-20 -23 -40 -51 -59 -84c-19 -32 -35 -70 -48 -113h-95c11 44 26 83 47 118s42 64 63 89s40 44 57 59c17 14 27 22 31 24h-186l15 76h297z" />
    <glyph glyph-name="uni2088" unicode="&#x2088;" horiz-adv-x="360" 
d="M107 168c0 -10 4 -19 12 -26c7 -7 17 -11 29 -11c14 0 27 4 38 12c11 7 17 19 17 34c0 9 -3 18 -10 26c-7 7 -19 11 -34 11c-16 0 -29 -4 -38 -13s-14 -20 -14 -33zM65 14c0 -13 5 -24 16 -31s23 -10 37 -10c19 0 34 5 45 14s16 22 16 37c0 11 -4 20 -12 28
c-9 9 -22 13 -41 13s-33 -5 -44 -16c-11 -10 -17 -22 -17 -35zM117 -97c-48 0 -84 10 -107 29c-24 19 -36 43 -36 72c0 23 9 44 26 61c17 18 40 30 69 37c-15 5 -26 15 -35 29s-13 28 -13 41c0 32 13 59 39 80c26 22 61 33 105 33c40 0 71 -9 94 -27c22 -18 33 -41 33 -69
c0 -20 -7 -39 -20 -56c-14 -17 -33 -30 -58 -38c15 -5 28 -15 39 -30c10 -14 15 -29 15 -44c0 -17 -4 -33 -11 -48c-8 -15 -19 -27 -33 -38c-13 -10 -29 -18 -48 -24c-18 -5 -38 -8 -59 -8z" />
    <glyph glyph-name="uni2089" unicode="&#x2089;" horiz-adv-x="370" 
d="M1 3c23 -15 50 -23 83 -23c23 0 45 6 68 19c22 13 37 33 44 60c-9 -9 -20 -16 -33 -20c-13 -5 -26 -7 -38 -7c-36 0 -65 10 -87 31c-23 20 -34 47 -34 80c0 22 4 42 13 59c8 17 19 32 34 45c14 12 30 21 49 28s38 10 59 10c19 0 38 -3 55 -9c17 -7 31 -16 44 -28
c12 -12 22 -27 29 -45s11 -39 11 -62c0 -35 -5 -67 -15 -96c-11 -29 -25 -55 -44 -76s-41 -37 -68 -48s-57 -17 -90 -17c-21 0 -42 3 -61 9c-20 6 -37 14 -51 23zM144 99c17 0 32 6 44 18c11 11 17 26 17 45c0 15 -5 28 -15 37s-22 13 -35 13c-16 0 -30 -5 -42 -16
c-13 -11 -19 -27 -19 -47c0 -15 5 -27 14 -36s21 -14 36 -14z" />
    <glyph glyph-name="Euro" unicode="&#x20ac;" horiz-adv-x="733" 
d="M270 233c13 -46 38 -81 74 -104c36 -24 80 -36 132 -36c26 0 51 3 74 10s44 16 63 28c1 -3 4 -9 7 -18s7 -18 11 -28c3 -10 7 -19 10 -28s6 -15 7 -18c-25 -16 -54 -29 -86 -38c-32 -10 -66 -15 -101 -15c-42 0 -81 6 -116 18c-36 12 -68 29 -95 51s-50 48 -68 79
c-18 30 -31 63 -38 99h-113l19 84h88c0 10 0 21 1 33s2 24 4 37h-80l19 83h85c15 38 36 73 61 104s54 57 87 79s68 39 106 52c38 12 78 18 119 18c48 0 89 -7 124 -20c34 -13 63 -31 86 -52c-3 -3 -7 -9 -12 -17c-6 -8 -12 -16 -18 -25c-7 -9 -13 -18 -18 -26
c-6 -8 -10 -14 -13 -17c-17 15 -40 28 -68 38c-29 10 -59 15 -91 15c-23 0 -47 -3 -70 -10s-45 -16 -66 -29s-40 -28 -57 -46c-18 -19 -33 -40 -45 -64h323l-56 -83h-298c-3 -9 -4 -19 -5 -30s-1 -25 -1 -40h260c-2 -3 -5 -9 -10 -17s-10 -16 -15 -25c-6 -9 -11 -18 -16 -26
s-8 -13 -10 -16h-194z" />
    <glyph glyph-name="uni20B4" unicode="&#x20b4;" horiz-adv-x="659" 
d="M88 477h386c9 7 15 17 19 30c5 12 7 24 7 37c0 23 -8 41 -25 54c-16 13 -40 20 -72 20c-21 0 -40 -3 -57 -8c-17 -6 -31 -14 -44 -23c-12 -10 -23 -21 -32 -33c-9 -13 -16 -26 -21 -39l-101 35c9 23 21 45 36 66c16 21 35 39 58 55s50 29 80 39c30 9 64 14 102 14
c33 0 61 -4 86 -12s45 -19 62 -34s29 -32 38 -51c9 -20 13 -41 13 -64c0 -15 -2 -30 -7 -45c-5 -16 -12 -30 -19 -41h48l-17 -82h-557zM279 -15c-37 0 -69 4 -97 13c-28 8 -51 19 -70 34s-33 32 -42 53c-9 20 -14 42 -14 65s4 44 12 64c8 19 16 34 24 44h-50l17 81h557
l-18 -81h-377c-15 -11 -26 -25 -33 -40c-6 -16 -9 -32 -9 -47c1 -23 10 -41 28 -56s46 -22 84 -22c26 0 49 4 68 11c20 7 37 17 51 29s26 26 35 41s17 31 23 47l106 -32c-7 -25 -19 -49 -35 -73c-15 -25 -35 -47 -60 -66c-24 -19 -53 -35 -86 -47s-71 -18 -114 -18z" />
    <glyph glyph-name="uni20B8" unicode="&#x20b8;" horiz-adv-x="640" 
d="M123 709h566l-21 -95h-565zM293 462h-222l20 95h565l-20 -95h-222l-98 -462h-121z" />
    <glyph glyph-name="uni20BD" unicode="&#x20bd;" horiz-adv-x="660" 
d="M395 391c51 0 88 11 112 32c24 22 36 50 36 85c0 31 -10 55 -30 71c-21 16 -49 24 -86 24h-104l-45 -212h117zM222 131l-27 -131h-121l28 131h-82l21 93h81l12 60h-81l20 93h81l70 332h214c75 0 132 -17 171 -52c39 -34 59 -82 59 -143c0 -35 -6 -67 -19 -96
c-12 -28 -30 -52 -53 -72s-52 -35 -86 -46s-72 -16 -115 -16h-140l-13 -60h212l-20 -93h-212z" />
    <glyph glyph-name="uni2113" unicode="&#x2113;" horiz-adv-x="412" 
d="M230 -8c-49 0 -86 12 -113 35c-27 24 -41 57 -41 99c0 4 0 9 1 15c0 7 1 13 2 19l19 90c-13 -3 -25 -6 -37 -9c-13 -2 -25 -4 -37 -5l21 100c11 1 23 3 35 6s25 6 38 11l47 221c11 49 30 86 58 111c27 25 60 38 97 38c42 0 74 -12 96 -35c21 -23 32 -52 32 -88
c0 -31 -6 -61 -18 -92c-12 -30 -29 -59 -50 -86c-22 -27 -47 -53 -76 -76s-61 -42 -95 -58l-24 -107c-1 -3 -1 -8 -2 -13s-1 -10 -1 -15c0 -14 3 -25 8 -34c5 -8 11 -14 19 -19c7 -5 16 -8 25 -9s17 -2 24 -2c16 0 30 1 41 4s21 6 30 11l-20 -96c-8 -3 -18 -7 -31 -11
c-13 -3 -29 -5 -48 -5zM235 411c14 9 28 21 41 34s25 28 36 43c10 15 18 32 24 49c6 18 9 36 9 54c0 23 -11 34 -32 34c-10 0 -19 -4 -26 -13c-8 -8 -14 -23 -19 -44z" />
    <glyph glyph-name="uni2116" unicode="&#x2116;" horiz-adv-x="1167" 
d="M1026 722c50 0 89 -13 116 -40s40 -63 40 -108c0 -29 -5 -57 -15 -83c-10 -27 -24 -50 -43 -70s-42 -36 -69 -47c-27 -12 -58 -18 -93 -18c-47 0 -85 13 -113 40s-42 63 -42 109c0 31 5 59 16 86c11 26 26 49 45 69c19 19 43 35 70 46s56 16 88 16zM1015 635
c-17 0 -33 -3 -46 -10c-14 -6 -26 -15 -36 -26s-18 -23 -23 -38c-5 -14 -8 -29 -8 -44c0 -23 7 -41 21 -54c13 -13 31 -19 52 -19c17 0 32 3 46 10s26 15 35 26s17 24 22 38c5 15 8 30 8 46c0 22 -6 39 -19 52s-31 19 -52 19zM778 303h328l-20 -91h-328zM36 0l150 709h141
l204 -508l109 508h120l-150 -709h-123l-217 533l-114 -533h-120z" />
    <glyph glyph-name="trademark" unicode="&#x2122;" horiz-adv-x="882" 
d="M299 632l-61 -288h-85l61 288h-108l16 77h300l-16 -77h-107zM738 344l48 228l-139 -228h-64l-49 227l-48 -227h-84l77 365h108l50 -232l141 232h120l-77 -365h-83z" />
    <glyph glyph-name="Omega" unicode="&#x2126;" horiz-adv-x="866" 
d="M432 614c-28 0 -55 -5 -82 -14c-27 -10 -52 -24 -73 -43s-38 -43 -51 -70c-13 -28 -20 -60 -20 -96c0 -32 6 -61 17 -86c11 -26 25 -49 42 -68s37 -35 59 -47c23 -13 46 -21 69 -26v-164h-304v109h185c-25 10 -50 24 -73 41s-43 38 -60 63c-17 24 -31 52 -42 83
s-16 64 -16 100c0 51 10 96 29 137s45 75 77 104c32 28 69 50 111 65s86 22 132 22s90 -7 132 -22s79 -37 111 -65c32 -29 58 -63 77 -104s29 -86 29 -137c0 -36 -5 -69 -16 -100s-25 -59 -42 -83c-17 -25 -38 -46 -61 -63s-47 -31 -72 -41h185v-109h-304v164
c23 5 45 13 68 26c23 12 43 28 60 47s32 42 43 68c11 25 16 54 16 86c0 36 -6 68 -19 96c-13 27 -31 51 -52 70s-45 33 -72 43c-27 9 -55 14 -83 14z" />
    <glyph glyph-name="arrowleft" unicode="&#x2190;" horiz-adv-x="1070" 
d="M29 292l274 225v-175h716v-100h-716v-174z" />
    <glyph glyph-name="arrowup" unicode="&#x2191;" horiz-adv-x="496" 
d="M510 543h-165v-690h-100v690h-167l217 257z" />
    <glyph glyph-name="arrowright" unicode="&#x2192;" horiz-adv-x="1069" 
d="M766 68v174h-716v100h716v175l274 -225z" />
    <glyph glyph-name="arrowdown" unicode="&#x2193;" horiz-adv-x="511" 
d="M223 -157l-225 262h174v686h101v-686h174z" />
    <glyph glyph-name="uni2196" unicode="&#x2196;" horiz-adv-x="913" 
d="M434 709l-121 -122l527 -526l-71 -71l-527 526l-122 -123v316h314z" />
    <glyph glyph-name="uni2197" unicode="&#x2197;" horiz-adv-x="712" 
d="M697 709v-316l-123 123l-526 -526l-71 71l527 526l-121 122h314z" />
    <glyph glyph-name="uni2198" unicode="&#x2198;" horiz-adv-x="916" 
d="M507 0l121 122l-527 526l71 71l526 -527l123 124v-316h-314z" />
    <glyph glyph-name="uni2199" unicode="&#x2199;" horiz-adv-x="714" 
d="M43 0v316l122 -124l527 527l71 -71l-527 -526l121 -122h-314z" />
    <glyph glyph-name="uni21A9" unicode="&#x21a9;" horiz-adv-x="881" 
d="M440 657h193c34 0 65 -6 94 -17s53 -26 74 -45s37 -41 48 -68c11 -26 17 -54 17 -84s-6 -58 -17 -85c-11 -26 -27 -49 -48 -68s-45 -34 -73 -45s-59 -16 -92 -16h-366v-156l-244 207l244 208v-158h363c19 0 36 3 52 8c16 6 30 14 41 24c12 10 21 22 28 35
c7 14 10 29 10 46c0 36 -13 64 -38 84s-58 30 -97 30h-189v100z" />
    <glyph glyph-name="uni21B0" unicode="&#x21b0;" horiz-adv-x="832" 
d="M73 517l245 207v-157h418v-567h-100v467h-318v-157z" />
    <glyph glyph-name="uni21B1" unicode="&#x21b1;" horiz-adv-x="774" 
d="M100 0v567h452v157l244 -207l-244 -207v157h-352v-467h-100z" />
    <glyph glyph-name="uni21B2" unicode="&#x21b2;" horiz-adv-x="775" 
d="M702 709v-567h-453v-157l-244 207l244 207v-157h352v467h101z" />
    <glyph glyph-name="uni21B3" unicode="&#x21b3;" horiz-adv-x="867" 
d="M820 192l-244 -207v157h-453v567h101v-467h352v157z" />
    <glyph glyph-name="uni21B4" unicode="&#x21b4;" horiz-adv-x="889" 
d="M114 709h572v-484h157l-206 -241l-207 241h156v384h-472v100z" />
    <glyph glyph-name="uni21B5" unicode="&#x21b5;" horiz-adv-x="1079" 
d="M39 355h143c0 51 10 99 30 144c19 45 46 84 79 117s72 60 117 79s93 29 144 29c32 0 63 -4 93 -11c30 -8 58 -19 84 -33l-45 -90c-41 23 -85 34 -131 34c-37 0 -72 -7 -105 -21s-62 -33 -86 -57c-25 -25 -44 -53 -58 -86s-21 -68 -21 -105h153l-198 -233zM920 354
c0 -51 -10 -99 -29 -144c-20 -45 -47 -84 -80 -117s-72 -60 -117 -79s-93 -29 -144 -29c-32 0 -63 4 -92 12c-30 7 -58 18 -85 32l45 90c41 -23 85 -34 132 -34c37 0 72 7 105 21s61 33 85 58c24 24 43 52 57 85s21 68 21 105h-150l199 232l199 -232h-146z" />
    <glyph glyph-name="uni21C6" unicode="&#x21c6;" horiz-adv-x="1159" 
d="M82 549l244 208v-158h756v-101h-756v-156zM862 -41v157h-755v100h755v157l244 -207z" />
    <glyph glyph-name="partialdiff" unicode="&#x2202;" horiz-adv-x="608" 
d="M239 617c-15 0 -36 -2 -61 -6c-26 -4 -53 -13 -82 -27l-40 92c32 17 65 29 98 36c34 7 65 10 93 10c21 0 43 -2 67 -6c23 -4 47 -11 70 -21c23 -11 45 -25 67 -43c21 -18 40 -41 57 -68c16 -28 29 -61 39 -100c9 -39 14 -84 14 -136c0 -53 -6 -102 -17 -147
c-12 -45 -30 -83 -54 -115c-23 -32 -53 -57 -88 -75c-35 -17 -77 -26 -124 -26c-31 0 -62 5 -91 15c-30 10 -57 25 -80 45c-23 21 -42 46 -56 76c-14 31 -21 66 -21 106c0 36 7 68 21 97c13 29 32 53 55 73s49 35 78 46s59 16 90 16c40 0 74 -6 102 -17
c27 -11 48 -24 63 -37c-5 39 -13 71 -24 98s-25 49 -42 66s-37 29 -60 37c-23 7 -47 11 -74 11zM297 360c-25 0 -47 -4 -66 -11s-34 -17 -47 -29c-12 -13 -21 -27 -27 -44c-7 -17 -10 -36 -10 -55c0 -21 4 -40 12 -56c7 -16 18 -29 31 -40s27 -20 43 -25c16 -6 33 -9 50 -9
c32 0 58 7 79 22c20 14 36 32 48 53s20 43 25 67c5 23 7 45 7 64c-16 20 -37 36 -62 47c-26 11 -54 16 -83 16z" />
    <glyph glyph-name="Delta" unicode="&#x2206;" horiz-adv-x="756" 
d="M331 576l-171 -465h343zM267 709h130l274 -709h-678z" />
    <glyph glyph-name="product" unicode="&#x220f;" horiz-adv-x="736" 
d="M521 0v600h-278v-600h-120v709h516v-709h-118z" />
    <glyph glyph-name="summation" unicode="&#x2211;" horiz-adv-x="713" 
d="M115 107l263 248l-263 247v107h507v-111h-344l260 -243l-269 -244h353v-111h-507v107z" />
    <glyph glyph-name="minus" unicode="&#x2212;" horiz-adv-x="604" 
d="M86 301v95h452v-95h-452z" />
    <glyph glyph-name="uni2215" unicode="&#x2215;" horiz-adv-x="416" 
d="M491 648l-450 -648h-111l450 648h111z" />
    <glyph glyph-name="uni2219" unicode="&#x2219;" horiz-adv-x="266" 
d="M55 295c0 11 2 21 6 31c4 9 10 18 17 25s16 13 26 18c10 4 21 6 32 6c21 0 39 -7 54 -21c14 -15 21 -32 21 -52c0 -23 -8 -43 -24 -58c-16 -16 -35 -24 -58 -24c-21 0 -39 7 -53 22c-14 14 -21 32 -21 53z" />
    <glyph glyph-name="radical" unicode="&#x221a;" horiz-adv-x="638" 
d="M609 773l-261 -773h-106l-190 534h120l123 -364l232 704h208v-101h-126z" />
    <glyph glyph-name="infinity" unicode="&#x221e;" horiz-adv-x="822" 
d="M603 170c-66 0 -127 33 -183 100c-30 -33 -59 -58 -88 -75c-28 -17 -59 -25 -92 -25c-27 0 -51 4 -74 13s-42 22 -59 37c-16 16 -29 35 -38 57c-9 21 -13 45 -13 70s4 49 13 71c9 21 22 40 38 56c17 16 36 29 59 38s47 13 74 13c65 0 126 -34 183 -102c29 33 59 58 88 76
c29 17 59 26 92 26c27 0 51 -4 74 -13c22 -9 41 -22 57 -38c17 -16 30 -35 39 -56c9 -22 14 -46 14 -71s-5 -49 -14 -70c-9 -22 -22 -41 -39 -56c-16 -16 -35 -28 -57 -37c-23 -9 -47 -14 -74 -14zM359 344c-19 23 -38 43 -56 59s-38 24 -61 24c-25 0 -46 -8 -61 -23
s-22 -35 -22 -58s7 -43 22 -58s36 -22 61 -22c22 0 42 7 61 22s37 33 56 56zM483 347c19 -23 38 -43 57 -58s39 -23 61 -23c25 0 45 7 60 22s23 35 23 58s-8 43 -23 58s-35 23 -60 23c-23 0 -44 -8 -62 -23s-37 -34 -56 -57z" />
    <glyph glyph-name="integral" unicode="&#x222b;" horiz-adv-x="329" 
d="M100 536c0 54 15 96 46 127s73 46 127 46h45v-103h-38c-19 0 -35 -6 -46 -18c-12 -12 -18 -30 -18 -53v-551c0 -54 -15 -97 -45 -128s-72 -46 -126 -46h-49v103h39c19 0 35 6 47 19s18 31 18 54v550z" />
    <glyph glyph-name="approxequal" unicode="&#x2248;" horiz-adv-x="635" 
d="M585 452c-16 -26 -38 -48 -65 -66c-27 -17 -57 -26 -90 -26c-17 0 -33 2 -48 6s-31 11 -49 20l-55 30c-18 10 -36 15 -55 15c-20 0 -37 -4 -51 -12c-13 -7 -27 -19 -40 -34l-63 53c16 27 37 50 64 67c27 18 57 27 91 27c17 0 33 -3 50 -8s35 -13 53 -22l47 -25
c11 -6 21 -10 30 -13c10 -3 23 -5 38 -5c14 0 28 4 43 12s27 19 38 33zM585 254c-16 -26 -38 -48 -65 -66c-27 -17 -57 -26 -90 -26c-17 0 -33 2 -48 6s-31 11 -49 20l-55 30c-18 10 -36 15 -55 15c-20 0 -37 -4 -51 -12c-13 -7 -27 -19 -40 -34l-63 53c16 27 37 50 64 67
c27 18 57 27 91 27c17 0 33 -3 50 -8s35 -13 53 -22l47 -25c11 -6 21 -11 30 -14c10 -3 23 -4 38 -4c14 0 28 4 43 12s27 19 38 33z" />
    <glyph glyph-name="notequal" unicode="&#x2260;" horiz-adv-x="614" 
d="M283 203l-68 -98h-109l68 98h-93v95h157l72 102h-229v94h292l67 95h109l-66 -95h73v-94h-137l-72 -102h209v-95h-273z" />
    <glyph glyph-name="lessequal" unicode="&#x2264;" horiz-adv-x="574" 
d="M76 465l421 140v-98l-292 -90l292 -90v-99l-421 140v97zM497 199v-95h-421v95h421z" />
    <glyph glyph-name="greaterequal" unicode="&#x2265;" horiz-adv-x="600" 
d="M524 368l-421 -140v98l292 90l-292 91v98l421 -140v-97zM524 199v-95h-421v95h421z" />
    <glyph glyph-name="dotmath" unicode="&#x22c5;" horiz-adv-x="266" 
d="M55 295c0 11 2 21 6 31c4 9 10 18 17 25s16 13 26 18c10 4 21 6 32 6c21 0 39 -7 54 -21c14 -15 21 -32 21 -52c0 -23 -8 -43 -24 -58c-16 -16 -35 -24 -58 -24c-21 0 -39 7 -53 22c-14 14 -21 32 -21 53z" />
    <glyph glyph-name="uni24C5" unicode="&#x24c5;" horiz-adv-x="831" 
d="M62 355c0 51 10 98 29 143s45 84 78 118c33 33 71 60 116 79s92 29 143 29s99 -10 144 -29s84 -46 117 -79c33 -34 60 -73 79 -118s29 -92 29 -143s-10 -99 -29 -144s-46 -84 -79 -118c-33 -33 -72 -60 -117 -79s-93 -29 -144 -29s-98 10 -143 29s-83 46 -116 79
c-33 34 -59 73 -78 118s-29 93 -29 144zM144 355c0 -41 7 -80 22 -116s35 -67 61 -93c25 -27 55 -47 90 -62c34 -15 71 -23 111 -23s77 8 112 23s65 35 91 62c25 26 45 57 60 93s22 75 22 116s-7 80 -22 116c-15 35 -35 66 -60 93c-26 26 -56 47 -91 62s-72 22 -112 22
s-77 -7 -111 -22c-35 -15 -65 -36 -90 -62c-26 -27 -46 -58 -61 -93c-15 -36 -22 -75 -22 -116zM454 369c23 0 42 6 57 18c15 11 22 29 22 52c0 31 -18 46 -55 46h-46l-25 -116h47zM391 297l-29 -141h-84l85 400h139c17 0 33 -3 47 -9c15 -6 27 -14 37 -25
c11 -11 19 -23 24 -36c6 -14 9 -28 9 -43c0 -20 -4 -39 -12 -57c-7 -18 -18 -33 -31 -46s-29 -24 -48 -31c-18 -8 -38 -12 -59 -12h-78z" />
    <glyph glyph-name="filledbox" unicode="&#x25a0;" horiz-adv-x="922" 
d="M119 709h709v-709h-709v709z" />
    <glyph glyph-name="H22073" unicode="&#x25a1;" horiz-adv-x="922" 
d="M119 0v709h709v-709h-709zM218 95h509v518h-509v-518z" />
    <glyph glyph-name="uni25AF" unicode="&#x25af;" horiz-adv-x="648" 
d="M119 0v709h435v-709h-435zM216 93h241v524h-241v-524z" />
    <glyph glyph-name="triagup" unicode="&#x25b2;" horiz-adv-x="890" 
d="M809 0h-838l420 724z" />
    <glyph glyph-name="uni25B3" unicode="&#x25b3;" horiz-adv-x="889" 
d="M391 724l417 -724h-837zM140 95h498l-248 430z" />
    <glyph glyph-name="lozenge" unicode="&#x25ca;" horiz-adv-x="587" 
d="M441 354l-134 232l-134 -232l134 -231zM249 0l-205 354l205 355h116l205 -355l-205 -354h-116z" />
    <glyph glyph-name="circle" unicode="&#x25cb;" horiz-adv-x="839" 
d="M803 354c0 -51 -10 -99 -29 -144s-46 -85 -79 -118s-72 -60 -117 -79s-94 -29 -145 -29s-99 10 -144 29s-85 46 -118 79c-34 33 -61 73 -80 118s-29 93 -29 144s10 100 29 145s46 84 80 118c33 33 73 60 118 79s93 29 144 29s100 -10 145 -29s84 -46 117 -79
c33 -34 60 -73 79 -118s29 -94 29 -145zM702 354c0 38 -7 74 -21 107s-33 61 -57 86c-25 25 -53 44 -86 59c-33 14 -68 21 -105 21s-72 -7 -105 -21c-33 -15 -62 -34 -87 -59s-44 -53 -58 -86s-21 -69 -21 -107s7 -73 21 -106s33 -62 58 -87s54 -44 87 -58
c33 -15 68 -22 105 -22s72 7 105 22c33 14 61 33 86 58c24 25 43 54 57 87s21 68 21 106z" />
    <glyph glyph-name="H18533" unicode="&#x25cf;" horiz-adv-x="839" 
d="M62 354c0 51 10 100 29 145s46 84 79 118c33 33 72 60 117 79s94 29 145 29s99 -10 144 -29s85 -46 118 -79c34 -34 61 -73 80 -118s29 -94 29 -145s-10 -99 -29 -144s-46 -85 -80 -118c-33 -33 -73 -60 -118 -79s-93 -29 -144 -29s-100 10 -145 29s-84 46 -117 79
s-60 73 -79 118s-29 93 -29 144z" />
    <glyph glyph-name="uni262E" unicode="&#x262e;" horiz-adv-x="833" 
d="M797 355c0 -51 -10 -99 -29 -144s-45 -84 -78 -118c-33 -33 -72 -60 -117 -79s-93 -29 -144 -29s-98 10 -143 29s-84 46 -117 79c-33 34 -59 73 -78 118s-28 93 -28 144s9 98 28 143s45 84 78 118c33 33 72 60 117 79s92 29 143 29s99 -10 144 -29s84 -46 117 -79
c33 -34 59 -73 78 -118s29 -92 29 -143zM698 355c0 35 -6 67 -17 98c-11 30 -27 57 -46 81c-20 24 -43 44 -70 60s-57 27 -88 33v-215l195 -178c8 18 14 37 19 58c5 20 7 41 7 63zM159 355c0 -43 9 -83 26 -120l193 177v215c-31 -6 -60 -17 -87 -33c-27 -17 -50 -37 -69 -61
c-20 -24 -35 -51 -46 -81c-11 -31 -17 -63 -17 -97zM477 81c54 10 100 34 138 71l-138 128v-199zM241 154c38 -38 84 -62 137 -72v198z" />
    <glyph glyph-name="uni2713" unicode="&#x2713;" horiz-adv-x="889" 
d="M315 -17l-288 321l73 68l219 -239l551 594l72 -71z" />
    <glyph glyph-name="uni2715" unicode="&#x2715;" horiz-adv-x="879" 
d="M97 65l285 289l-285 288l71 70l283 -287l283 287l71 -70l-284 -288l287 -289l-70 -70l-286 289l-285 -289z" />
    <glyph glyph-name="uni2780" unicode="&#x2780;" horiz-adv-x="833" 
d="M63 355c0 51 10 98 29 143s45 84 78 118c33 33 71 60 116 79s92 29 143 29s98 -10 143 -29s84 -46 117 -79c33 -34 60 -73 79 -118s29 -92 29 -143s-10 -99 -29 -144s-46 -84 -79 -118c-33 -33 -72 -60 -117 -79s-92 -29 -143 -29s-98 10 -143 29s-83 46 -116 79
c-33 34 -59 73 -78 118s-29 93 -29 144zM145 355c0 -41 7 -80 22 -116s35 -67 60 -93c25 -27 55 -47 90 -62s72 -23 112 -23s77 8 112 23c34 15 64 35 90 62c25 26 45 57 60 93s22 75 22 116s-7 80 -22 116c-15 35 -35 66 -60 93c-26 26 -56 47 -90 62
c-35 15 -72 22 -112 22s-77 -7 -112 -22s-65 -36 -90 -62c-25 -27 -45 -58 -60 -93c-15 -36 -22 -75 -22 -116zM396 173v232h-89v60c29 1 51 9 68 24s27 31 30 50h82v-366h-91z" />
    <glyph glyph-name="uni2781" unicode="&#x2781;" horiz-adv-x="833" 
d="M429 724c51 0 98 -10 143 -29s84 -46 117 -79c33 -34 60 -73 79 -118s29 -92 29 -143s-10 -99 -29 -144s-46 -84 -79 -118c-33 -33 -72 -60 -117 -79s-92 -29 -143 -29s-98 10 -143 29s-84 46 -117 79c-33 34 -59 73 -78 118s-28 93 -28 144s9 98 28 143s45 84 78 118
c33 33 72 60 117 79s92 29 143 29zM145 355c0 -41 7 -80 22 -116s35 -67 60 -93c25 -27 55 -47 90 -62s72 -23 112 -23s77 8 112 23c34 15 64 35 90 62c25 26 45 57 60 93s22 75 22 116s-7 80 -22 116c-15 35 -35 66 -60 93c-26 26 -56 47 -90 62c-35 15 -72 22 -112 22
s-77 -7 -112 -22s-65 -36 -90 -62c-25 -27 -45 -58 -60 -93c-15 -36 -22 -75 -22 -116zM434 380c27 17 40 36 40 57c0 11 -4 21 -11 30c-8 9 -20 14 -37 14c-16 0 -29 -5 -38 -14s-14 -22 -15 -37c0 -3 0 -7 1 -12c0 -5 1 -9 2 -14h-84c-2 9 -3 18 -3 29c0 16 3 31 9 46
s15 27 27 38s26 20 43 27s37 10 59 10s41 -3 58 -10c17 -6 32 -15 43 -26c12 -11 21 -23 27 -37c7 -14 10 -29 10 -45c0 -23 -7 -44 -20 -63s-32 -35 -55 -49l-71 -43c-5 -3 -10 -7 -13 -11c-4 -4 -7 -9 -8 -14h169v-76h-281v15c0 31 7 59 20 84s36 46 68 65z" />
    <glyph glyph-name="uni2782" unicode="&#x2782;" horiz-adv-x="833" 
d="M63 355c0 51 10 98 29 143s45 84 78 118c33 33 71 60 116 79s92 29 143 29s98 -10 143 -29s84 -46 117 -79c33 -34 60 -73 79 -118s29 -92 29 -143s-10 -99 -29 -144s-46 -84 -79 -118c-33 -33 -72 -60 -117 -79s-92 -29 -143 -29s-98 10 -143 29s-83 46 -116 79
c-33 34 -59 73 -78 118s-29 93 -29 144zM145 355c0 -41 7 -80 22 -116s35 -67 60 -93c25 -27 55 -47 90 -62s72 -23 112 -23s77 8 112 23c34 15 64 35 90 62c25 26 45 57 60 93s22 75 22 116s-7 80 -22 116c-15 35 -35 66 -60 93c-26 26 -56 47 -90 62
c-35 15 -72 22 -112 22s-77 -7 -112 -22s-65 -36 -90 -62c-25 -27 -45 -58 -60 -93c-15 -36 -22 -75 -22 -116zM353 295c3 -17 10 -30 23 -41c12 -11 27 -16 46 -16s34 5 45 14s16 21 16 34c0 19 -6 32 -19 40c-13 7 -27 11 -42 11c-13 0 -24 -2 -34 -6l-32 61l94 70h-164
v75h279v-73l-94 -68c30 -3 55 -14 74 -33s29 -44 29 -77c0 -17 -3 -32 -10 -47s-17 -29 -30 -40s-29 -20 -48 -27s-40 -10 -63 -10c-22 0 -42 3 -59 10c-18 6 -33 14 -45 24c-13 10 -23 22 -30 35c-8 13 -13 27 -16 41z" />
    <glyph glyph-name="uni2783" unicode="&#x2783;" horiz-adv-x="833" 
d="M63 355c0 51 10 98 29 143s45 84 78 118c33 33 71 60 116 79s92 29 143 29s98 -10 143 -29s84 -46 117 -79c33 -34 60 -73 79 -118s29 -92 29 -143s-10 -99 -29 -144s-46 -84 -79 -118c-33 -33 -72 -60 -117 -79s-92 -29 -143 -29s-98 10 -143 29s-83 46 -116 79
c-33 34 -59 73 -78 118s-29 93 -29 144zM145 355c0 -41 7 -80 22 -116s35 -67 60 -93c25 -27 55 -47 90 -62s72 -23 112 -23s77 8 112 23c34 15 64 35 90 62c25 26 45 57 60 93s22 75 22 116s-7 80 -22 116c-15 35 -35 66 -60 93c-26 26 -56 47 -90 62
c-35 15 -72 22 -112 22s-77 -7 -112 -22s-65 -36 -90 -62c-25 -27 -45 -58 -60 -93c-15 -36 -22 -75 -22 -116zM252 334l173 210h98v-222h62v-73h-62v-71h-90v71h-181v85zM433 443l-98 -121h98v121z" />
    <glyph glyph-name="uni2784" unicode="&#x2784;" horiz-adv-x="833" 
d="M63 355c0 51 10 98 29 143s45 84 78 118c33 33 71 60 116 79s92 29 143 29s98 -10 143 -29s84 -46 117 -79c33 -34 60 -73 79 -118s29 -92 29 -143s-10 -99 -29 -144s-46 -84 -79 -118c-33 -33 -72 -60 -117 -79s-92 -29 -143 -29s-98 10 -143 29s-83 46 -116 79
c-33 34 -59 73 -78 118s-29 93 -29 144zM145 355c0 -41 7 -80 22 -116s35 -67 60 -93c25 -27 55 -47 90 -62s72 -23 112 -23s77 8 112 23c34 15 64 35 90 62c25 26 45 57 60 93s22 75 22 116s-7 80 -22 116c-15 35 -35 66 -60 93c-26 26 -56 47 -90 62
c-35 15 -72 22 -112 22s-77 -7 -112 -22s-65 -36 -90 -62c-25 -27 -45 -58 -60 -93c-15 -36 -22 -75 -22 -116zM352 289c3 -17 11 -30 23 -39s26 -14 43 -14s31 5 42 14s17 22 17 39c0 19 -6 34 -17 43s-26 13 -43 13c-12 0 -23 -2 -33 -6c-9 -5 -18 -11 -25 -18l-74 25
l47 188h214v-75h-158l-19 -74c9 9 19 16 32 20c13 3 27 5 40 5c38 0 68 -10 91 -31s35 -51 35 -88c0 -18 -3 -35 -10 -50c-7 -16 -16 -30 -29 -41c-12 -12 -27 -21 -46 -28s-40 -11 -64 -11c-19 0 -37 3 -53 9c-17 5 -31 13 -44 22s-23 20 -31 33c-9 12 -14 25 -17 38z" />
    <glyph glyph-name="uni2785" unicode="&#x2785;" horiz-adv-x="833" 
d="M63 355c0 51 10 98 29 143s45 84 78 118c33 33 71 60 116 79s92 29 143 29s98 -10 143 -29s84 -46 117 -79c33 -34 60 -73 79 -118s29 -92 29 -143s-10 -99 -29 -144s-46 -84 -79 -118c-33 -33 -72 -60 -117 -79s-92 -29 -143 -29s-98 10 -143 29s-83 46 -116 79
c-33 34 -59 73 -78 118s-29 93 -29 144zM145 355c0 -41 7 -80 22 -116s35 -67 60 -93c25 -27 55 -47 90 -62s72 -23 112 -23s77 8 112 23c34 15 64 35 90 62c25 26 45 57 60 93s22 75 22 116s-7 80 -22 116c-15 35 -35 66 -60 93c-26 26 -56 47 -90 62
c-35 15 -72 22 -112 22s-77 -7 -112 -22s-65 -36 -90 -62c-25 -27 -45 -58 -60 -93c-15 -36 -22 -75 -22 -116zM537 461c-19 8 -41 12 -64 12c-29 0 -54 -7 -76 -22s-37 -38 -44 -70c9 11 22 20 38 27s33 10 50 10c38 0 69 -10 94 -31c24 -21 36 -51 36 -91
c0 -19 -4 -37 -11 -54c-8 -16 -19 -30 -32 -41c-14 -11 -30 -20 -48 -27c-19 -6 -39 -9 -61 -9c-20 0 -39 3 -58 10s-36 18 -50 32c-15 14 -26 31 -35 52s-13 46 -13 74c0 33 5 62 16 89c10 27 24 49 43 67c18 19 39 33 64 43s52 15 81 15c16 0 32 -2 47 -5s29 -8 41 -13z
M359 294c0 -17 6 -31 19 -41c12 -9 26 -14 41 -14s29 5 41 14c13 10 19 24 19 41s-6 31 -19 41c-12 10 -26 15 -41 15s-29 -5 -41 -15c-13 -10 -19 -24 -19 -41z" />
    <glyph glyph-name="uni2786" unicode="&#x2786;" horiz-adv-x="833" 
d="M63 355c0 51 10 98 29 143s45 84 78 118c33 33 71 60 116 79s92 29 143 29s98 -10 143 -29s84 -46 117 -79c33 -34 60 -73 79 -118s29 -92 29 -143s-10 -99 -29 -144s-46 -84 -79 -118c-33 -33 -72 -60 -117 -79s-92 -29 -143 -29s-98 10 -143 29s-83 46 -116 79
c-33 34 -59 73 -78 118s-29 93 -29 144zM145 355c0 -41 7 -80 22 -116s35 -67 60 -93c25 -27 55 -47 90 -62s72 -23 112 -23s77 8 112 23c34 15 64 35 90 62c25 26 45 57 60 93s22 75 22 116s-7 80 -22 116c-15 35 -35 66 -60 93c-26 26 -56 47 -90 62
c-35 15 -72 22 -112 22s-77 -7 -112 -22s-65 -36 -90 -62c-25 -27 -45 -58 -60 -93c-15 -36 -22 -75 -22 -116zM580 454c-9 -7 -20 -17 -35 -31s-30 -33 -45 -56s-29 -52 -42 -85s-21 -72 -25 -117h-96c3 48 12 90 27 126c14 36 29 66 44 91c18 29 38 53 60 74h-191v76h303
v-78z" />
    <glyph glyph-name="uni2787" unicode="&#x2787;" horiz-adv-x="833" 
d="M63 355c0 51 10 98 29 143s45 84 78 118c33 33 71 60 116 79s92 29 143 29s98 -10 143 -29s84 -46 117 -79c33 -34 60 -73 79 -118s29 -92 29 -143s-10 -99 -29 -144s-46 -84 -79 -118c-33 -33 -72 -60 -117 -79s-92 -29 -143 -29s-98 10 -143 29s-83 46 -116 79
c-33 34 -59 73 -78 118s-29 93 -29 144zM145 355c0 -41 7 -80 22 -116s35 -67 60 -93c25 -27 55 -47 90 -62s72 -23 112 -23s77 8 112 23c34 15 64 35 90 62c25 26 45 57 60 93s22 75 22 116s-7 80 -22 116c-15 35 -35 66 -60 93c-26 26 -56 47 -90 62
c-35 15 -72 22 -112 22s-77 -7 -112 -22s-65 -36 -90 -62c-25 -27 -45 -58 -60 -93c-15 -36 -22 -75 -22 -116zM429 392c16 0 28 4 37 13c9 8 13 18 13 30c0 11 -4 20 -12 28c-9 8 -21 12 -38 12s-29 -4 -38 -12s-13 -17 -13 -28c0 -12 5 -22 14 -30c9 -9 21 -13 37 -13z
M429 238c21 0 36 4 46 13c9 9 14 20 14 33c0 12 -5 22 -15 31s-25 13 -45 13s-35 -4 -45 -13c-11 -9 -16 -19 -16 -31c0 -13 5 -24 15 -33s25 -13 46 -13zM429 165c-48 0 -85 10 -112 30c-26 21 -39 47 -39 79c0 19 6 37 19 52c13 16 31 28 52 35c-19 7 -34 18 -44 33
c-11 15 -16 31 -16 48c0 31 13 56 38 76c25 19 59 29 102 29s77 -10 102 -29c25 -20 37 -45 37 -76c0 -17 -5 -33 -15 -48s-25 -26 -44 -33c21 -7 39 -19 52 -34s19 -32 19 -51c0 -32 -13 -58 -39 -79s-63 -32 -112 -32z" />
    <glyph glyph-name="uni2788" unicode="&#x2788;" horiz-adv-x="833" 
d="M63 355c0 51 10 98 29 143s45 84 78 118c33 33 71 60 116 79s92 29 143 29s98 -10 143 -29s84 -46 117 -79c33 -34 60 -73 79 -118s29 -92 29 -143s-10 -99 -29 -144s-46 -84 -79 -118c-33 -33 -72 -60 -117 -79s-92 -29 -143 -29s-98 10 -143 29s-83 46 -116 79
c-33 34 -59 73 -78 118s-29 93 -29 144zM145 355c0 -41 7 -80 22 -116s35 -67 60 -93c25 -27 55 -47 90 -62s72 -23 112 -23s77 8 112 23c34 15 64 35 90 62c25 26 45 57 60 93s22 75 22 116s-7 80 -22 116c-15 35 -35 66 -60 93c-26 26 -56 47 -90 62
c-35 15 -72 22 -112 22s-77 -7 -112 -22s-65 -36 -90 -62c-25 -27 -45 -58 -60 -93c-15 -36 -22 -75 -22 -116zM316 251c21 -9 42 -13 64 -13c29 0 55 7 77 21c23 14 37 38 42 71c-9 -11 -22 -20 -38 -27s-33 -10 -50 -10c-18 0 -35 3 -51 8s-30 13 -42 24
c-11 10 -21 23 -28 38s-10 33 -10 52s4 37 11 53s18 30 31 42c14 11 30 20 49 27c19 6 39 9 61 9c20 0 39 -3 58 -10s35 -18 49 -32c15 -14 26 -31 35 -52s13 -44 13 -71c0 -35 -5 -67 -15 -94s-24 -49 -42 -68c-17 -18 -38 -32 -63 -41c-24 -9 -51 -14 -80 -14
c-16 0 -32 2 -47 5s-29 7 -41 12zM490 416c0 17 -6 31 -18 41s-26 15 -43 15c-16 0 -30 -5 -42 -15s-18 -24 -18 -41s6 -31 18 -41s26 -15 42 -15c17 0 31 5 43 15s18 24 18 41z" />
    <glyph glyph-name="uniE000" unicode="&#xe000;" horiz-adv-x="709" 
d="M18 225h157v484h572v-100h-471v-384h156l-207 -241z" />
    <glyph glyph-name="uniE002" unicode="&#xe002;" horiz-adv-x="970" 
d="M758 586l199 -232h-142c0 -51 -10 -99 -29 -144s-46 -84 -79 -117s-72 -60 -117 -79s-94 -29 -145 -29s-99 10 -144 29s-84 46 -117 79s-60 72 -79 117s-29 93 -29 144s10 100 29 145s46 84 79 117s72 60 117 79s93 29 144 29c61 0 117 -13 169 -40l-42 -91
c-39 21 -81 31 -126 31c-37 0 -72 -7 -105 -21s-61 -33 -85 -57c-25 -25 -44 -53 -58 -86s-21 -69 -21 -106s7 -72 21 -105s33 -62 58 -87c24 -25 52 -44 85 -58s68 -21 105 -21s72 7 105 21s61 33 85 58s43 54 57 87s21 68 21 105h-154z" />
    <glyph glyph-name="uniF4D2" unicode="&#xf4d2;" horiz-adv-x="756" 
d="M723 410c0 -69 -11 -129 -33 -182s-51 -98 -86 -134s-76 -63 -121 -81c-46 -19 -92 -28 -139 -28s-89 8 -127 23c-39 15 -71 37 -98 64s-48 60 -63 99s-23 81 -23 128c0 69 11 130 33 183c21 53 50 97 86 133c35 36 76 63 121 82c45 18 92 27 139 27s89 -7 128 -22
c38 -15 71 -37 98 -64c27 -28 48 -61 63 -100s22 -81 22 -128zM157 309c0 -33 5 -63 14 -89s23 -48 40 -66s37 -32 61 -41c23 -9 49 -14 78 -14c37 0 70 8 101 24c31 15 57 37 79 64s39 59 51 96s18 76 18 118c0 33 -5 62 -14 88s-22 48 -39 66s-38 32 -61 41
c-24 9 -50 14 -79 14c-37 0 -70 -8 -101 -23c-31 -16 -57 -38 -79 -65s-39 -59 -51 -95c-12 -37 -18 -76 -18 -118zM381 759l-99 148h132l57 -148h-90z" />
    <glyph glyph-name="uniF4D3" unicode="&#xf4d3;" horiz-adv-x="551" 
d="M498 277c0 -40 -7 -78 -20 -114c-13 -35 -32 -66 -56 -93c-24 -26 -52 -47 -85 -62s-69 -23 -108 -23c-34 0 -65 6 -92 17c-27 12 -50 28 -69 49s-34 45 -44 72c-11 27 -16 57 -16 88c0 43 7 82 21 117c14 36 33 67 58 92c24 26 53 46 86 60c33 15 68 22 105 22
c35 0 66 -6 93 -18c27 -11 51 -27 70 -48c19 -20 33 -44 43 -71c9 -27 14 -57 14 -88zM125 215c0 -39 10 -69 31 -92c20 -22 46 -33 79 -33c18 0 36 4 53 11c17 8 33 20 47 35c13 16 24 35 33 58s13 49 13 79c0 39 -10 69 -29 91c-20 22 -47 33 -82 33c-19 0 -38 -4 -55 -13
c-18 -9 -34 -21 -47 -37s-24 -35 -31 -58c-8 -22 -12 -47 -12 -74zM242 548l-99 148h132l57 -148h-90z" />
    <glyph glyph-name="uniFEFF" unicode="&#xfeff;" horiz-adv-x="0" 
 />
    <glyph glyph-name="Euro.ss08" horiz-adv-x="687" 
d="M77 445h84c16 36 36 68 61 95s52 50 83 68c30 18 62 32 96 41c33 9 67 14 100 14c44 0 83 -6 116 -18s61 -28 82 -48l-65 -86c-16 15 -37 27 -62 36s-52 13 -81 13c-37 0 -74 -9 -111 -28s-68 -48 -93 -87h299l-57 -85h-275c-3 -11 -5 -23 -6 -36c-1 -12 -2 -25 -2 -38
h241l-57 -87h-169c15 -37 38 -64 71 -83s70 -28 112 -28c47 0 87 11 122 34l37 -90c-23 -15 -50 -26 -79 -35c-30 -8 -62 -12 -95 -12c-34 0 -67 5 -98 14c-32 10 -61 24 -86 42c-26 19 -48 41 -66 68c-19 27 -32 57 -41 90h-114l19 87h85c0 27 2 51 7 74h-77z" />
    <glyph glyph-name="Euro.tf" 
d="M492 1c-5 -2 -12 -4 -19 -5c-8 -1 -16 -2 -25 -3s-17 -2 -25 -2c-9 -1 -16 -1 -23 -1c-39 0 -74 5 -107 16s-61 26 -86 47c-25 20 -45 45 -61 75s-27 64 -33 103h-100l18 91h78c1 13 3 25 4 38c1 12 3 24 6 35h-71l19 90h81c15 35 35 67 58 96s49 55 79 76s63 38 99 50
s75 18 116 18c31 0 59 -3 82 -10s43 -14 59 -23l-48 -95c-9 5 -23 11 -42 16s-40 7 -63 7c-43 0 -84 -12 -122 -35c-39 -24 -70 -57 -94 -100h255l-45 -90h-246c-7 -23 -10 -48 -11 -73h221l-45 -91h-169c9 -43 29 -77 58 -100c29 -24 71 -36 126 -36c12 0 25 1 39 2
s25 3 32 5z" />
    <glyph glyph-name="Euro.tf.ss08" 
d="M68 446h73c15 32 33 61 56 88c22 27 47 50 76 69c28 19 59 34 93 45s70 16 107 16c39 0 69 -3 90 -10s39 -14 56 -22l-50 -95c-9 5 -23 11 -40 16s-39 7 -66 7c-17 0 -35 -2 -54 -6c-19 -5 -37 -12 -54 -21s-34 -21 -49 -35c-16 -15 -30 -32 -42 -52h258l-45 -87h-246
c-5 -23 -8 -47 -8 -72h223l-44 -88h-164c15 -36 40 -63 73 -80c33 -18 70 -27 112 -27c12 0 23 1 32 2s17 3 24 4l6 -101c-11 -3 -22 -6 -35 -8s-27 -3 -42 -3c-34 0 -67 5 -98 15c-31 9 -60 23 -86 42c-26 18 -48 40 -67 67c-19 26 -32 56 -41 89h-101l19 88h72
c0 12 1 24 2 36s3 24 5 36h-64z" />
    <glyph glyph-name="G.ss01" horiz-adv-x="756" 
d="M443 725c45 0 84 -6 118 -19s63 -29 88 -50c24 -21 43 -44 58 -71s25 -55 30 -84l-116 -34c-4 19 -11 38 -20 56c-10 17 -23 33 -38 46s-34 23 -55 31c-22 7 -47 11 -76 11c-37 0 -71 -8 -102 -23c-31 -16 -57 -37 -80 -64c-22 -27 -39 -59 -51 -95
c-13 -37 -19 -76 -19 -118c0 -32 5 -61 14 -87c9 -27 23 -49 40 -68s38 -33 63 -43c25 -11 52 -16 83 -16c28 0 54 4 77 12s44 19 62 32c17 13 32 29 44 48c12 18 21 38 26 59h-252l22 106h369c-2 -51 -11 -98 -28 -143s-40 -84 -70 -118c-30 -33 -66 -60 -109 -79
s-93 -29 -148 -29c-45 0 -87 8 -126 24s-72 38 -100 66c-28 29 -50 62 -65 101c-16 39 -24 82 -24 128c0 68 11 128 33 180s51 96 88 131c36 36 77 63 123 82s93 28 141 28z" />
    <glyph glyph-name="Ldot.latn_CAT" horiz-adv-x="544" 
d="M317 362c0 10 2 20 6 29s10 18 17 25s15 13 24 18c9 4 20 6 31 6c19 0 35 -6 47 -18s18 -27 18 -44c0 -23 -8 -42 -23 -57c-16 -15 -35 -23 -56 -23c-19 0 -34 6 -46 19c-12 12 -18 27 -18 45zM26 0l150 709h120l-126 -595h316l-24 -114h-436z" />
    <glyph glyph-name="a.ordn" horiz-adv-x="421" 
d="M267 637c-15 0 -29 -4 -40 -11c-12 -7 -22 -17 -30 -28c-8 -12 -14 -25 -18 -40s-6 -29 -6 -43c0 -25 6 -44 19 -58c12 -14 29 -21 50 -21c25 0 47 11 65 34c18 22 27 53 27 92c0 23 -6 42 -17 55c-12 13 -29 20 -50 20zM456 709l-56 -267c-2 -11 -3 -21 -4 -32
s-2 -20 -2 -27v-18h-83c-1 5 -1 9 -1 11v7v11c0 3 0 8 1 13c-8 -12 -20 -23 -35 -33s-35 -15 -58 -15c-21 0 -40 4 -56 12c-17 8 -31 19 -42 33c-12 13 -21 29 -27 48c-6 18 -9 38 -9 59c0 29 5 56 14 81s21 47 37 66c15 18 34 32 55 43s45 16 70 16c16 0 30 -2 41 -5
s21 -7 29 -12s15 -10 20 -15c5 -6 8 -11 10 -16l9 40h87z" />
    <glyph glyph-name="a.ordn.ss08" horiz-adv-x="421" 
d="M254 576c-15 0 -29 -4 -40 -11c-12 -7 -22 -17 -30 -28c-8 -12 -14 -25 -18 -40s-6 -29 -6 -43c0 -25 6 -44 19 -58c12 -14 29 -21 50 -21c25 0 47 11 65 34c18 22 27 53 27 92c0 23 -6 42 -17 55c-12 13 -29 20 -50 20zM443 648l-56 -267c-2 -11 -3 -21 -4 -32
s-2 -20 -2 -27v-18h-83c-1 5 -1 9 -1 11v7v11c0 3 0 8 1 13c-8 -12 -20 -23 -35 -33s-35 -15 -58 -15c-21 0 -40 4 -56 12c-17 8 -31 19 -42 33c-12 13 -21 29 -27 48c-6 18 -9 38 -9 59c0 29 5 56 14 81s21 47 37 66c15 18 34 32 55 43s45 16 70 16c16 0 30 -2 41 -5
s21 -7 29 -12s15 -10 20 -15c5 -6 8 -11 10 -16l9 40h87z" />
    <glyph glyph-name="acute.uc" horiz-adv-x="273" 
d="M66 759h-114l123 124h153z" />
    <glyph glyph-name="ampersand.ss04" horiz-adv-x="681" 
d="M557 217c-7 -32 -18 -62 -34 -90c-16 -29 -36 -53 -60 -74s-52 -38 -83 -50s-66 -18 -103 -18c-40 0 -76 5 -107 16s-57 25 -79 44c-21 19 -38 40 -49 65s-16 51 -16 78c0 35 6 65 19 91s29 48 48 66c19 17 40 31 63 41s46 16 67 19c-23 11 -42 28 -56 51
c-15 22 -22 47 -22 75c0 29 6 55 19 79c12 23 28 44 48 61s43 30 69 39c25 9 52 14 79 14c32 0 61 -4 86 -13s46 -22 63 -37c17 -16 31 -34 40 -55s13 -43 13 -66v-16c-1 -8 -1 -14 -2 -17l-117 -8c1 3 1 8 2 13v14c0 23 -7 43 -21 59c-15 15 -37 23 -67 23
c-11 0 -23 -2 -34 -6s-21 -10 -30 -18s-17 -18 -22 -29c-6 -12 -9 -25 -9 -40c0 -27 9 -47 28 -60s41 -19 66 -19l-22 -103h-24c-15 0 -31 -2 -50 -7c-19 -4 -36 -11 -52 -22c-17 -11 -31 -25 -42 -44c-11 -18 -17 -41 -17 -69c0 -14 3 -28 8 -41s14 -25 25 -35
c11 -11 26 -19 43 -26s37 -10 60 -10c36 0 68 11 97 33c28 22 47 53 57 92h-93l21 102h296l-21 -102h-85z" />
    <glyph glyph-name="approxequal.ss08" horiz-adv-x="630" 
d="M571 395c-18 -30 -40 -53 -67 -69c-27 -15 -57 -23 -88 -23c-33 0 -68 10 -104 30l-48 26c-19 10 -38 15 -57 15c-35 0 -64 -15 -89 -46l-63 54c19 31 41 54 68 70c26 15 54 23 85 23c33 0 69 -10 106 -30l46 -25c21 -12 42 -18 63 -18c33 0 62 15 86 45zM571 197
c-18 -30 -40 -53 -67 -69c-27 -15 -57 -23 -88 -23c-33 0 -68 10 -104 30l-48 26c-19 10 -38 15 -57 15c-35 0 -64 -15 -89 -46l-63 54c19 31 41 54 68 69c26 16 54 24 85 24c33 0 69 -10 106 -30l46 -25c21 -12 42 -18 63 -18c33 0 62 15 86 46z" />
    <glyph glyph-name="approxequal.tf" 
d="M557 452c-16 -26 -38 -48 -65 -66c-27 -17 -57 -26 -90 -26c-17 0 -33 2 -48 6s-31 11 -49 20l-55 30c-18 10 -36 15 -55 15c-20 0 -37 -4 -51 -12c-13 -7 -27 -19 -40 -34l-63 53c16 27 37 50 64 67c27 18 57 27 91 27c17 0 33 -3 50 -8s35 -13 53 -22l47 -25
c11 -6 21 -10 30 -13c10 -3 23 -5 38 -5c14 0 28 4 43 12s27 19 38 33zM557 254c-16 -26 -38 -48 -65 -66c-27 -17 -57 -26 -90 -26c-17 0 -33 2 -48 6s-31 11 -49 20l-55 30c-18 10 -36 15 -55 15c-20 0 -37 -4 -51 -12c-13 -7 -27 -19 -40 -34l-63 53c16 27 37 50 64 67
c27 18 57 27 91 27c17 0 33 -3 50 -8s35 -13 53 -22l47 -25c11 -6 21 -11 30 -14c10 -3 23 -4 38 -4c14 0 28 4 43 12s27 19 38 33z" />
    <glyph glyph-name="approxequal.tf.ss08" 
d="M545 197c-18 -30 -40 -53 -67 -69c-27 -15 -57 -23 -88 -23c-33 0 -68 10 -104 30l-47 26c-19 10 -39 15 -58 15c-16 0 -31 -4 -46 -12c-15 -7 -29 -19 -42 -34l-64 54c19 31 42 54 68 69c26 16 54 24 85 24c33 0 69 -10 106 -30l47 -25c11 -5 21 -10 32 -13
c10 -3 20 -5 31 -5c33 0 62 15 86 46zM545 395c-18 -30 -40 -53 -67 -69c-27 -15 -57 -23 -88 -23c-33 0 -68 10 -104 30l-47 26c-19 10 -39 15 -58 15c-16 0 -31 -4 -46 -12c-15 -7 -29 -19 -42 -34l-64 54c19 31 42 54 68 69c26 16 54 24 85 24c33 0 69 -10 106 -30
l47 -25c21 -12 42 -18 63 -18c33 0 62 15 86 45z" />
    <glyph glyph-name="b.ordn" horiz-adv-x="429" 
d="M69 366l106 507h89l-40 -191c9 11 22 19 39 25c17 7 35 10 55 10c22 0 41 -4 58 -11c16 -7 30 -18 41 -31s20 -28 26 -45c5 -17 8 -36 8 -56c0 -31 -4 -60 -13 -87s-22 -50 -38 -69s-35 -33 -57 -44s-46 -16 -72 -16c-27 0 -50 6 -67 17c-18 12 -31 25 -38 40l-10 -49
h-87zM286 638c-27 0 -49 -11 -67 -34c-19 -23 -28 -51 -28 -86c0 -25 7 -45 20 -60c13 -14 30 -21 51 -21c11 0 23 3 35 8c11 5 22 13 31 23s17 23 23 38s9 33 9 53c0 27 -7 46 -20 59s-31 20 -54 20z" />
    <glyph glyph-name="b.ordn.ss08" horiz-adv-x="429" 
d="M56 304l106 507h89l-40 -191c9 11 22 19 39 25c17 7 35 10 55 10c22 0 41 -4 58 -11c16 -7 30 -18 41 -31s20 -28 26 -45c5 -17 8 -36 8 -56c0 -31 -4 -60 -13 -87s-22 -50 -38 -69s-35 -33 -57 -44s-46 -16 -72 -16c-27 0 -50 6 -67 17c-18 12 -31 25 -38 40l-10 -49
h-87zM273 576c-27 0 -49 -11 -67 -34c-19 -23 -28 -51 -28 -86c0 -25 7 -45 20 -60c13 -14 30 -21 51 -21c11 0 23 3 35 8c11 5 22 13 31 23s17 23 23 38s9 33 9 53c0 27 -7 46 -20 59s-31 20 -54 20z" />
    <glyph glyph-name="braceleft.case" horiz-adv-x="374" 
d="M45 406c14 0 28 2 42 5c13 3 26 9 37 16s21 17 30 29c8 12 14 27 18 45l25 117c7 37 18 67 31 91c13 25 30 44 49 59s40 25 65 31c24 6 51 9 80 9h25l-19 -89h-22c-29 0 -52 -7 -71 -22s-32 -39 -39 -74l-31 -144c-7 -33 -22 -62 -43 -85s-50 -37 -86 -42
c25 -6 44 -18 57 -37s19 -41 19 -66c0 -5 0 -11 -1 -18c-1 -6 -2 -12 -3 -17l-26 -126c-1 -5 -2 -11 -3 -16s-1 -11 -1 -16c0 -23 7 -40 20 -50c13 -11 32 -16 55 -16h20l-19 -89h-21c-48 0 -85 12 -112 37s-41 60 -41 105c0 8 1 17 2 28c1 10 3 18 4 25l23 112
c1 3 1 8 2 13s1 9 1 13c0 25 -8 44 -25 55s-38 17 -63 17z" />
    <glyph glyph-name="braceright.case" horiz-adv-x="374" 
d="M355 303c-14 0 -28 -2 -41 -5c-14 -3 -27 -9 -39 -16c-11 -7 -21 -17 -30 -29c-8 -12 -14 -27 -17 -45l-24 -117c-7 -37 -18 -67 -31 -92c-14 -24 -30 -43 -49 -58s-41 -25 -65 -31c-25 -6 -52 -9 -81 -9h-25l19 89h22c29 0 53 7 72 21s32 39 39 75l31 144
c7 33 22 61 43 84s50 38 85 43c-25 7 -44 19 -57 38s-19 41 -19 66c0 12 1 23 4 34l26 126c1 5 2 10 3 16s1 12 1 17c0 23 -7 40 -20 50s-32 15 -55 15h-20l19 89h22c47 0 85 -12 112 -37s40 -60 40 -105c0 -17 -2 -34 -6 -53l-23 -112c-2 -10 -3 -19 -3 -26
c0 -25 9 -44 26 -55s37 -17 62 -17z" />
    <glyph glyph-name="bracketleft.case" horiz-adv-x="322" 
d="M-12 -100l193 910h213l-18 -90h-116l-155 -730h115l-18 -90h-214z" />
    <glyph glyph-name="bracketright.case" horiz-adv-x="322" 
d="M-45 -100l18 90h116l155 730h-116l19 90h214l-193 -910h-213z" />
    <glyph glyph-name="c.ordn" horiz-adv-x="390" 
d="M344 581c-3 15 -11 28 -22 39c-12 12 -29 18 -51 18c-12 0 -24 -3 -35 -8c-12 -5 -23 -12 -32 -22s-17 -22 -22 -37c-6 -15 -9 -32 -9 -52c0 -26 7 -46 22 -61c15 -14 34 -21 57 -21c21 0 38 5 51 16c12 11 22 23 29 36l74 -29c-15 -31 -36 -57 -63 -76s-59 -29 -96 -29
c-23 0 -45 4 -64 11c-20 8 -37 19 -52 33c-15 15 -26 32 -35 51c-8 20 -12 42 -12 66c0 31 5 59 16 84s25 47 43 64c17 18 38 32 61 42c23 9 48 14 74 14c23 0 44 -3 61 -10s32 -15 44 -26s21 -24 28 -37c7 -14 11 -28 14 -42z" />
    <glyph glyph-name="c.ordn.ss08" horiz-adv-x="391" 
d="M331 519c-3 15 -11 28 -22 39c-12 12 -29 18 -51 18c-12 0 -24 -3 -35 -8c-12 -5 -23 -12 -32 -22s-17 -22 -22 -37c-6 -15 -9 -32 -9 -52c0 -26 7 -46 22 -61c15 -14 34 -21 57 -21c21 0 38 5 51 16c12 11 22 23 29 36l74 -29c-15 -31 -36 -57 -63 -76s-59 -29 -96 -29
c-23 0 -45 4 -64 11c-20 8 -37 19 -52 33c-15 15 -26 32 -35 51c-8 20 -12 42 -12 66c0 31 5 59 16 84s25 47 43 64c17 18 38 32 61 42c23 9 48 14 74 14c23 0 44 -3 61 -10s32 -15 44 -26s21 -24 28 -37c7 -14 11 -28 14 -42z" />
    <glyph glyph-name="cent.ss08" horiz-adv-x="534" 
d="M191 92c-44 14 -79 39 -104 75s-37 78 -37 126c0 39 6 74 19 106s30 60 52 83s48 42 77 56c29 15 60 23 93 26l18 84h90l-19 -91c21 -5 39 -13 54 -23c15 -11 28 -22 39 -35s19 -26 26 -40c7 -15 12 -29 15 -43l-103 -31c-3 15 -9 28 -18 41c-8 12 -20 22 -35 29
l-58 -275c25 4 44 13 59 27s27 29 36 46l93 -36c-8 -17 -18 -34 -31 -50c-13 -17 -29 -31 -46 -44s-37 -23 -59 -31s-46 -12 -73 -13l-17 -79h-90zM162 295c0 -23 4 -43 13 -60s22 -31 38 -40l56 266c-29 -8 -55 -26 -76 -53c-21 -28 -31 -66 -31 -113z" />
    <glyph glyph-name="cent.tf" 
d="M338 511c-19 0 -37 -4 -55 -12c-19 -9 -35 -21 -49 -36c-15 -15 -26 -34 -35 -57s-14 -48 -14 -77c0 -37 11 -67 32 -90s51 -34 89 -34c30 0 56 8 77 24s38 36 49 59l93 -38c-9 -20 -20 -39 -34 -56c-13 -18 -29 -34 -47 -48c-18 -13 -38 -24 -61 -33
c-22 -9 -46 -14 -73 -15c-3 0 -6 0 -7 1l-21 -99h-88l23 111c-22 7 -42 18 -60 31c-18 14 -33 30 -46 49s-23 39 -30 62s-11 48 -11 74c0 41 7 79 21 113c13 35 32 64 55 89s50 45 81 60s63 24 96 27l19 93h88l-20 -100c22 -5 41 -13 58 -24c17 -10 31 -22 43 -36
c12 -13 22 -28 29 -45c7 -16 12 -32 15 -49l-103 -31c-5 23 -16 43 -34 61c-19 17 -45 26 -80 26z" />
    <glyph glyph-name="cent.tf.ss08" 
d="M213 97c-43 15 -77 39 -101 74c-25 35 -37 77 -37 124c0 38 6 73 19 104c12 32 29 60 51 83c21 23 46 42 75 56s59 22 92 25l18 86h90l-20 -93c20 -5 38 -13 53 -23c15 -11 28 -22 39 -34c11 -13 19 -26 26 -40c6 -15 11 -29 14 -42l-100 -31c-3 14 -9 27 -18 40
c-9 12 -20 22 -35 29l-58 -273c24 4 43 13 58 28s27 30 36 47l92 -37c-8 -17 -18 -34 -31 -49c-13 -16 -28 -30 -45 -43s-37 -23 -58 -30c-22 -8 -46 -12 -72 -13l-18 -85h-90zM185 297c0 -23 4 -43 13 -60s21 -30 36 -39l56 264c-28 -9 -53 -27 -74 -54s-31 -64 -31 -111z
" />
    <glyph glyph-name="colon.tf" 
d="M235 -10c-24 0 -43 8 -57 23c-15 15 -22 33 -22 54c0 13 3 25 8 36c5 12 11 22 20 31s19 15 31 20c11 5 24 8 37 8c23 0 42 -8 57 -23c14 -15 21 -33 21 -54c0 -13 -2 -26 -7 -37s-12 -21 -21 -30s-19 -15 -30 -21c-12 -5 -24 -7 -37 -7zM306 324c-24 0 -43 7 -57 22
c-15 15 -22 34 -22 55c0 13 3 25 8 36s11 21 20 30s19 15 31 20c11 5 24 8 37 8c24 0 43 -7 57 -22s21 -33 21 -54c0 -13 -2 -26 -7 -38c-5 -11 -12 -21 -21 -30c-9 -8 -19 -15 -30 -20c-12 -5 -24 -7 -37 -7z" />
    <glyph glyph-name="comma.tf" 
d="M147 71c0 29 10 52 29 70c20 19 44 28 73 28s52 -9 70 -28c17 -19 26 -44 26 -75c0 -33 -6 -65 -18 -95c-13 -30 -30 -56 -51 -79c-22 -23 -48 -41 -77 -55c-30 -14 -62 -22 -96 -24l14 69c15 3 29 7 44 14s28 15 40 25c12 11 23 22 32 35s15 28 18 43
c-6 -3 -15 -5 -26 -5c-23 0 -41 7 -56 22c-15 14 -22 32 -22 55z" />
    <glyph glyph-name="currency.ss08" horiz-adv-x="638" 
d="M96 242c0 21 3 42 8 61c6 19 14 36 25 53l-74 75l72 71l74 -76c16 9 33 17 52 22s38 8 58 8c39 0 74 -9 106 -28l73 74l71 -71l-70 -72c11 -17 20 -35 26 -55s9 -41 9 -62s-3 -42 -9 -61c-6 -20 -14 -38 -25 -55l69 -70l-70 -70l-72 72c-33 -19 -69 -29 -108 -29
c-41 0 -78 10 -112 31l-73 -74l-71 70l73 74c-21 33 -32 70 -32 112zM195 242c0 -17 3 -33 9 -47s14 -26 24 -37c11 -11 23 -19 37 -24c14 -6 29 -9 46 -9s32 3 46 9c14 5 26 13 36 24c11 11 19 23 24 37c6 14 9 30 9 47s-3 32 -9 47c-5 14 -13 26 -24 37
c-10 11 -22 19 -36 25c-14 5 -29 8 -46 8s-32 -3 -46 -8c-14 -6 -26 -14 -37 -25c-10 -11 -18 -23 -24 -37c-6 -15 -9 -30 -9 -47z" />
    <glyph glyph-name="currency.tf" 
d="M89 349c0 21 3 42 8 61c6 19 14 36 25 53l-74 75l71 70l75 -76c16 9 33 17 52 23c19 5 38 8 57 8c39 0 74 -10 107 -29l72 74l72 -70l-71 -72c24 -35 36 -74 36 -117c0 -21 -3 -42 -9 -61c-6 -20 -14 -38 -25 -54l69 -71l-71 -70l-71 72c-16 -9 -33 -16 -51 -21
c-19 -5 -38 -8 -58 -8c-41 0 -78 11 -111 32l-74 -75l-70 70l72 74c-21 34 -31 71 -31 112zM187 349c0 -35 11 -63 33 -85c23 -21 50 -32 83 -32s61 11 83 32c22 22 33 50 33 85s-11 63 -33 85c-22 21 -50 32 -83 32s-60 -11 -83 -32c-22 -22 -33 -50 -33 -85z" />
    <glyph glyph-name="currency.tf.ss08" 
d="M67 242c0 21 3 42 8 61c6 19 14 36 25 53l-74 75l72 71l74 -76c16 9 33 17 52 22s38 8 58 8c39 0 74 -9 106 -28l73 74l71 -71l-70 -72c11 -17 20 -35 26 -55s9 -41 9 -62s-3 -42 -9 -61c-6 -20 -14 -38 -25 -55l69 -70l-70 -70l-72 72c-33 -19 -69 -29 -108 -29
c-41 0 -78 10 -112 31l-73 -74l-71 70l73 74c-21 33 -32 70 -32 112zM166 242c0 -17 3 -33 9 -47s14 -26 24 -37c11 -11 23 -19 37 -24c14 -6 29 -9 46 -9s32 3 46 9c14 5 26 13 36 24c11 11 19 23 24 37c6 14 9 30 9 47s-3 32 -9 47c-5 14 -13 26 -24 37
c-10 11 -22 19 -36 25c-14 5 -29 8 -46 8s-32 -3 -46 -8c-14 -6 -26 -14 -37 -25c-10 -11 -18 -23 -24 -37c-6 -15 -9 -30 -9 -47z" />
    <glyph glyph-name="d.ordn" horiz-adv-x="421" 
d="M267 638c-15 0 -29 -4 -40 -11c-12 -7 -22 -17 -30 -28c-8 -12 -14 -25 -18 -40s-6 -29 -6 -43c0 -25 6 -44 19 -58c12 -14 29 -21 50 -21c25 0 47 11 65 34c18 22 27 53 27 92c0 23 -6 42 -17 55c-12 13 -29 20 -50 20zM311 408c-8 -12 -20 -23 -35 -33s-35 -15 -58 -15
c-21 0 -40 4 -56 12c-17 8 -31 19 -42 33c-12 13 -21 29 -27 48c-6 18 -9 38 -9 59c0 29 5 56 14 81s21 47 37 66c15 18 34 32 55 43s45 16 70 16c29 0 52 -5 67 -15c15 -11 26 -21 32 -30l42 200h90l-91 -430c-2 -11 -3 -21 -4 -32s-2 -20 -2 -27v-18h-83c-1 5 -1 9 -1 12
v6v9c0 3 0 8 1 15z" />
    <glyph glyph-name="d.ordn.ss08" horiz-adv-x="421" 
d="M254 576c-15 0 -29 -4 -40 -11c-12 -7 -22 -17 -30 -28c-8 -12 -14 -25 -18 -40s-6 -29 -6 -43c0 -25 6 -44 19 -58c12 -14 29 -21 50 -21c25 0 47 11 65 34c18 22 27 53 27 92c0 23 -6 42 -17 55c-12 13 -29 20 -50 20zM298 346c-8 -12 -20 -23 -35 -33s-35 -15 -58 -15
c-21 0 -40 4 -56 12c-17 8 -31 19 -42 33c-12 13 -21 29 -27 48c-6 18 -9 38 -9 59c0 29 5 56 14 81s21 47 37 66c15 18 34 32 55 43s45 16 70 16c29 0 52 -5 67 -15c15 -11 26 -21 32 -30l42 200h90l-91 -430c-2 -11 -3 -21 -4 -32s-2 -20 -2 -27v-18h-83c-1 5 -1 9 -1 12
v6v9c0 3 0 8 1 15z" />
    <glyph glyph-name="degree.ss08" horiz-adv-x="400" 
d="M235 429c10 0 20 2 29 6s18 10 25 17s13 16 17 27c5 10 7 22 7 35c0 19 -6 34 -17 45s-27 17 -46 17c-10 0 -20 -2 -29 -6s-17 -10 -24 -17s-13 -16 -17 -26c-5 -11 -7 -22 -7 -35c0 -19 6 -34 17 -45c11 -12 26 -18 45 -18zM227 342c-21 0 -41 4 -58 11
c-18 7 -33 18 -46 31s-24 28 -31 46c-7 17 -11 36 -11 56c0 25 5 48 15 70c9 21 22 40 39 56c16 16 35 29 56 38s44 13 68 13c21 0 40 -4 58 -11c18 -8 34 -18 47 -31s23 -29 30 -46c7 -18 11 -37 11 -57c0 -25 -5 -49 -15 -70c-11 -22 -24 -41 -41 -56
c-17 -16 -36 -28 -57 -37s-43 -13 -65 -13z" />
    <glyph glyph-name="dieresis.narrow" horiz-adv-x="305" 
d="M-37 618c0 18 6 34 19 47c13 14 29 21 48 21c17 0 30 -5 41 -16c10 -11 15 -24 15 -39c0 -19 -7 -35 -21 -47c-14 -13 -30 -19 -47 -19s-31 5 -41 15c-9 10 -14 23 -14 38zM119 618c0 18 6 34 19 47c13 14 29 21 48 21c17 0 30 -5 41 -16c10 -11 15 -24 15 -39
c0 -19 -7 -35 -21 -48c-14 -12 -30 -18 -47 -18s-31 5 -40 15c-10 10 -15 23 -15 38z" />
    <glyph glyph-name="divide.ss08" horiz-adv-x="558" 
d="M205 473c0 19 7 36 22 50c14 14 31 21 51 21c19 0 36 -7 50 -21s21 -31 21 -50s-7 -36 -21 -51s-31 -22 -50 -22c-20 0 -37 7 -51 22c-15 15 -22 32 -22 51zM205 111c0 19 7 36 22 50c14 15 31 22 51 22c19 0 36 -7 50 -22c14 -14 21 -31 21 -50s-7 -36 -21 -50
c-14 -15 -31 -22 -50 -22c-20 0 -37 7 -51 22c-15 14 -22 31 -22 50zM42 341h474v-98h-474v98z" />
    <glyph glyph-name="divide.tf" 
d="M63 398h475v-98h-475v98zM227 168c0 19 7 36 22 50c14 14 31 21 50 21s36 -7 50 -21c15 -14 22 -31 22 -50s-7 -36 -22 -50c-14 -15 -31 -22 -50 -22s-36 7 -50 22c-15 14 -22 31 -22 50zM227 530c0 19 7 36 22 50c14 14 31 21 50 21s36 -7 50 -21c15 -14 22 -31 22 -50
s-7 -36 -22 -51c-14 -15 -31 -22 -50 -22s-36 7 -50 22c-15 15 -22 32 -22 51z" />
    <glyph glyph-name="divide.tf.ss08" 
d="M52 341h474v-98h-474v98zM215 111c0 19 7 36 22 50c14 15 31 22 51 22c19 0 36 -7 50 -22c14 -14 21 -31 21 -50s-7 -36 -21 -50c-14 -15 -31 -22 -50 -22c-20 0 -37 7 -51 22c-15 14 -22 31 -22 50zM215 473c0 19 7 36 22 50c14 14 31 21 51 21c19 0 36 -7 50 -21
s21 -31 21 -50s-7 -36 -21 -51s-31 -22 -50 -22c-20 0 -37 7 -51 22c-15 15 -22 32 -22 51z" />
    <glyph glyph-name="dollar.ss08" horiz-adv-x="545" 
d="M171 -4c-28 8 -52 19 -72 34c-21 15 -37 31 -50 50s-22 38 -28 59s-9 41 -9 60v13c0 4 0 6 1 6l108 18c-1 -3 -1 -6 -1 -9v-9c0 -25 6 -48 17 -70c11 -23 30 -40 55 -51l40 190l-12 6c-39 19 -69 43 -90 70s-32 61 -32 101c0 28 6 54 17 78c11 23 26 44 45 62
c19 17 42 31 68 42c26 10 54 16 84 17l22 103h94l-24 -114c26 -7 48 -18 66 -32s32 -29 43 -46s18 -34 23 -51s7 -33 7 -47l-107 -20c0 5 -1 12 -2 20c-1 9 -4 17 -8 26s-9 18 -16 26c-7 9 -17 16 -28 22l-40 -192l7 -3c45 -22 79 -47 100 -76c21 -28 32 -61 32 -98
c0 -25 -5 -49 -15 -72s-24 -44 -43 -62s-42 -33 -69 -44s-58 -17 -91 -18l-21 -102h-95zM211 475c0 -32 15 -57 45 -75l34 161c-24 -5 -43 -15 -57 -31c-15 -16 -22 -34 -22 -55zM365 172c0 29 -16 53 -47 72l-33 -156c25 5 45 14 59 29c13 15 20 33 21 55z" />
    <glyph glyph-name="dollar.tf" 
d="M114 499c0 31 6 58 18 83c11 25 27 46 47 64c19 18 42 32 68 43s53 17 82 19h8l23 111h95l-25 -121c27 -7 49 -18 68 -32c18 -14 33 -30 44 -47s20 -35 25 -53c5 -19 7 -36 7 -53l-107 -19c0 9 -1 21 -4 34s-9 25 -18 37s-22 22 -38 31c-16 8 -37 12 -64 12
c-16 0 -31 -2 -45 -7s-26 -12 -36 -21c-11 -9 -19 -19 -25 -31s-9 -25 -9 -38c0 -22 6 -40 17 -53s27 -24 46 -33l82 -36c49 -21 84 -47 107 -77c22 -30 33 -65 33 -105c0 -27 -5 -52 -16 -76c-11 -25 -26 -46 -45 -65s-43 -34 -71 -46s-59 -19 -94 -20h-5l-24 -115h-96
l26 126c-27 7 -51 18 -71 32c-21 14 -37 30 -50 48s-23 37 -29 58c-7 21 -10 41 -10 62c0 13 1 24 3 34l106 20c-2 -9 -3 -20 -3 -31c0 -37 11 -68 34 -93c23 -26 58 -39 105 -40c37 0 66 9 89 26c22 17 33 41 33 71c0 18 -5 34 -14 49c-10 15 -28 28 -53 39l-88 37
c-43 18 -74 42 -95 72c-21 29 -31 64 -31 104z" />
    <glyph glyph-name="dollar.tf.ss08" 
d="M190 2c-28 8 -52 19 -71 34c-20 14 -36 30 -49 49c-13 18 -22 37 -27 58c-6 20 -9 39 -9 58v13c0 4 0 6 1 6l106 17c-1 -3 -1 -6 -1 -8v-9c0 -25 6 -48 17 -69c11 -22 28 -39 53 -50l39 186l-11 6c-39 19 -68 42 -89 69s-31 60 -31 99c0 27 5 53 16 76s26 43 45 60
s41 31 67 42c25 10 53 16 82 17l21 101h92l-23 -112c25 -7 47 -18 65 -31c17 -14 31 -29 42 -45c10 -17 17 -33 22 -50s7 -33 7 -47l-105 -19c0 5 -1 12 -2 20s-4 17 -7 26c-4 9 -9 17 -16 25s-17 15 -28 21l-39 -188l7 -3c45 -21 77 -46 98 -74s31 -60 31 -97
c0 -25 -5 -48 -14 -70c-10 -23 -24 -43 -43 -60c-19 -18 -41 -33 -67 -44c-27 -11 -56 -17 -89 -18l-21 -100h-93zM229 471c0 -31 15 -56 44 -73l33 158c-23 -5 -42 -15 -56 -30c-14 -16 -21 -34 -21 -55zM380 175c0 28 -15 51 -46 70l-33 -153c25 5 45 14 58 29
c13 14 20 32 21 54z" />
    <glyph glyph-name="dotlessi" horiz-adv-x="256" 
d="M8 0l104 487h116l-104 -487h-116z" />
    <glyph glyph-name="e.ordn" horiz-adv-x="392" 
d="M332 576c1 0 1 1 1 4v5c0 7 -1 14 -3 21c-3 7 -6 13 -11 19s-12 11 -21 15c-9 3 -19 5 -31 5c-24 0 -43 -7 -58 -20c-15 -14 -25 -30 -31 -49h154zM169 513c0 -29 8 -50 24 -63s34 -20 53 -20c20 0 37 5 50 14s23 20 30 32l69 -35c-11 -23 -30 -43 -56 -60
c-25 -17 -58 -26 -97 -26c-21 0 -42 4 -61 11s-36 18 -50 32c-15 13 -26 30 -34 49c-9 19 -13 41 -13 66c0 32 5 61 16 86s25 47 42 65c17 17 37 31 59 41c22 9 45 14 68 14c48 0 85 -13 111 -40c25 -27 38 -62 38 -104c0 -11 -1 -21 -2 -32c-2 -11 -4 -21 -7 -30h-240z" />
    <glyph glyph-name="e.ordn.ss08" horiz-adv-x="392" 
d="M319 515c1 0 1 1 1 4v5c0 7 -1 14 -3 21c-3 7 -6 13 -11 19s-12 11 -21 15c-9 3 -19 5 -31 5c-24 0 -43 -7 -58 -20c-15 -14 -25 -30 -31 -49h154zM156 452c0 -29 8 -50 24 -63s34 -20 53 -20c20 0 37 5 50 14s23 20 30 32l69 -35c-11 -23 -30 -43 -56 -60
c-25 -17 -58 -26 -97 -26c-21 0 -42 4 -61 11s-36 18 -50 32c-15 13 -26 30 -34 49c-9 19 -13 41 -13 66c0 32 5 61 16 86s25 47 42 65c17 17 37 31 59 41c22 9 45 14 68 14c48 0 85 -13 111 -40c25 -27 38 -62 38 -104c0 -11 -1 -21 -2 -32c-2 -11 -4 -21 -7 -30h-240z" />
    <glyph glyph-name="eight.dnom" horiz-adv-x="361" 
d="M127 258c0 -10 4 -19 12 -26c7 -7 17 -11 29 -11c14 0 27 4 38 12c11 7 17 19 17 34c0 9 -3 18 -10 26c-7 7 -19 11 -34 11c-16 0 -29 -4 -38 -13s-14 -20 -14 -33zM85 104c0 -13 5 -23 16 -30s23 -11 37 -11c19 0 34 5 45 14s16 22 16 37c0 11 -4 20 -12 28
c-9 9 -22 13 -41 13s-33 -5 -44 -16c-11 -10 -17 -22 -17 -35zM137 -7c-48 0 -84 10 -107 29c-24 19 -36 43 -36 72c0 23 9 44 26 61c17 18 40 30 69 37c-15 5 -26 15 -35 29s-13 28 -13 41c0 32 13 59 39 80c26 22 61 33 105 33c40 0 71 -9 94 -27c22 -18 33 -41 33 -69
c0 -20 -7 -39 -20 -56c-14 -17 -33 -30 -58 -38c15 -5 28 -15 39 -30c10 -14 15 -29 15 -44c0 -17 -4 -33 -11 -48c-8 -15 -19 -27 -33 -37c-13 -11 -29 -19 -48 -24c-18 -6 -38 -9 -59 -9z" />
    <glyph glyph-name="eight.numr" horiz-adv-x="359" 
d="M198 600c0 -10 4 -19 12 -26c7 -7 17 -11 29 -11c14 0 27 4 38 12c11 7 17 19 17 34c0 9 -3 18 -10 26c-7 7 -19 11 -34 11c-16 0 -29 -4 -38 -13s-14 -20 -14 -33zM156 446c0 -13 5 -23 16 -30s23 -11 37 -11c19 0 34 5 45 14s16 22 16 37c0 11 -4 20 -12 28
c-9 9 -22 13 -41 13s-33 -5 -44 -16c-11 -10 -17 -22 -17 -35zM208 335c-48 0 -84 10 -107 29c-24 19 -36 43 -36 72c0 23 9 44 26 61c17 18 40 30 69 37c-15 5 -26 15 -35 29s-13 28 -13 41c0 32 13 59 39 80c26 22 61 33 105 33c40 0 71 -9 94 -27c22 -18 33 -41 33 -69
c0 -20 -7 -39 -20 -56c-14 -17 -33 -30 -58 -38c15 -5 28 -15 39 -30c10 -14 15 -29 15 -44c0 -17 -4 -33 -11 -48c-8 -15 -19 -27 -33 -37c-13 -11 -29 -19 -48 -24c-18 -6 -38 -9 -59 -9z" />
    <glyph glyph-name="eight.numr.ss08" horiz-adv-x="359" 
d="M185 539c0 -10 4 -19 12 -26c7 -7 17 -11 29 -11c14 0 27 4 38 12c11 7 17 19 17 34c0 9 -3 18 -10 26c-7 7 -19 11 -34 11c-16 0 -29 -4 -38 -13s-14 -20 -14 -33zM143 385c0 -13 5 -23 16 -30s23 -11 37 -11c19 0 34 5 45 14s16 22 16 37c0 11 -4 20 -12 28
c-9 9 -22 13 -41 13s-33 -5 -44 -16c-11 -10 -17 -22 -17 -35zM195 274c-48 0 -84 10 -107 29c-24 19 -36 43 -36 72c0 23 9 44 26 61c17 18 40 30 69 37c-15 5 -26 15 -35 29s-13 28 -13 41c0 32 13 59 39 80c26 22 61 33 105 33c40 0 71 -9 94 -27c22 -18 33 -41 33 -69
c0 -20 -7 -39 -20 -56c-14 -17 -33 -30 -58 -38c15 -5 28 -15 39 -30c10 -14 15 -29 15 -44c0 -17 -4 -33 -11 -48c-8 -15 -19 -27 -33 -37c-13 -11 -29 -19 -48 -24c-18 -6 -38 -9 -59 -9z" />
    <glyph glyph-name="eight.ss08" horiz-adv-x="573" 
d="M313 376c34 0 62 10 84 30c22 19 33 44 33 75c0 21 -8 41 -24 58c-17 17 -40 26 -71 26c-39 0 -68 -10 -88 -31c-21 -21 -31 -45 -31 -74c0 -21 8 -41 24 -58s40 -26 73 -26zM142 175c0 -28 10 -50 31 -67s48 -25 82 -25c18 0 35 3 51 9c15 5 29 13 40 23s20 22 26 35
c7 13 10 28 10 43c0 25 -9 47 -27 66c-18 18 -46 27 -84 27c-19 0 -37 -3 -53 -8c-15 -6 -29 -14 -40 -24s-20 -22 -26 -35c-7 -13 -10 -28 -10 -44zM500 186c0 -31 -7 -59 -20 -84c-14 -25 -32 -46 -55 -63s-50 -31 -81 -40s-63 -14 -97 -14s-65 4 -92 13
c-28 9 -52 21 -71 36c-20 16 -35 35 -45 56c-11 22 -16 46 -16 73c0 42 14 79 43 110c28 31 67 52 117 63c-11 5 -21 11 -31 20s-19 19 -26 31c-8 11 -14 24 -19 37s-7 27 -7 42c0 30 6 57 18 81c13 24 30 45 51 62c22 17 47 31 76 40s60 14 93 14c34 0 64 -4 91 -13
c26 -9 48 -21 66 -36s32 -33 41 -53c9 -21 14 -42 14 -65c0 -40 -12 -75 -37 -106s-60 -52 -105 -64c29 -11 52 -29 68 -55c16 -27 24 -55 24 -85z" />
    <glyph glyph-name="eight.tf" 
d="M421 354c30 -13 53 -34 70 -62c16 -27 24 -58 24 -92c0 -33 -7 -63 -21 -89c-15 -27 -34 -49 -58 -67c-24 -19 -52 -33 -83 -43c-32 -10 -65 -15 -100 -15s-66 5 -95 14s-54 21 -75 38c-21 16 -37 36 -48 59c-12 23 -18 50 -18 79c0 25 5 49 14 70c9 22 21 41 37 58
s35 31 57 42c21 11 44 19 69 24c-27 13 -48 32 -65 57s-25 54 -25 86c0 31 6 59 19 85c13 25 30 47 53 66c22 19 48 33 79 44c30 10 63 15 98 15c36 0 68 -5 96 -14c27 -9 51 -22 70 -39s33 -36 43 -58c9 -22 14 -46 14 -71c0 -23 -4 -44 -11 -64c-8 -21 -19 -39 -32 -56
c-14 -17 -30 -31 -49 -42c-19 -12 -40 -20 -63 -25zM218 506c0 -29 10 -53 31 -72c21 -18 47 -27 79 -27c19 0 36 3 52 9s30 14 41 24c11 11 19 23 26 37c6 15 9 30 9 47c0 27 -9 50 -27 69c-19 19 -46 29 -83 29c-20 0 -38 -3 -54 -10c-16 -6 -29 -14 -40 -25
c-11 -10 -20 -22 -25 -36c-6 -14 -9 -29 -9 -45zM134 193c0 -18 3 -34 10 -47s16 -25 27 -34s25 -15 40 -20s32 -7 50 -7c21 0 40 3 57 10s32 16 45 27c12 12 21 25 28 40s10 32 10 49c0 14 -2 27 -7 40s-13 25 -23 35c-11 10 -24 18 -40 23c-16 6 -35 9 -57 9
s-42 -3 -59 -10s-32 -16 -44 -28c-12 -11 -21 -25 -27 -40c-7 -15 -10 -30 -10 -47z" />
    <glyph glyph-name="eight.tf.ss08" 
d="M316 376c34 0 62 10 84 30c22 19 33 44 33 75c0 21 -8 41 -24 58c-17 17 -40 26 -71 26c-39 0 -68 -10 -88 -31c-21 -21 -31 -45 -31 -74c0 -21 8 -41 24 -58s40 -26 73 -26zM145 175c0 -28 10 -50 31 -67s48 -25 82 -25c18 0 35 3 51 9c15 5 29 13 40 23s20 22 26 35
c7 13 10 28 10 43c0 25 -9 47 -27 66c-18 18 -46 27 -84 27c-19 0 -37 -3 -53 -8c-15 -6 -29 -14 -40 -24s-20 -22 -26 -35c-7 -13 -10 -28 -10 -44zM503 186c0 -31 -7 -59 -20 -84c-14 -25 -32 -46 -55 -63s-50 -31 -81 -40s-63 -14 -97 -14s-65 4 -92 13
c-28 9 -52 21 -71 36c-20 16 -35 35 -45 56c-11 22 -16 46 -16 73c0 42 14 79 43 110c28 31 67 52 117 63c-11 5 -21 11 -31 20s-19 19 -26 31c-8 11 -14 24 -19 37s-7 27 -7 42c0 30 6 57 18 81c13 24 30 45 51 62c22 17 47 31 76 40s60 14 93 14c34 0 64 -4 91 -13
c26 -9 48 -21 66 -36s32 -33 41 -53c9 -21 14 -42 14 -65c0 -40 -12 -75 -37 -106s-60 -52 -105 -64c29 -11 52 -29 68 -55c16 -27 24 -55 24 -85z" />
    <glyph glyph-name="emdash.case" horiz-adv-x="1078" 
d="M65 292l21 101h946l-21 -101h-946z" />
    <glyph glyph-name="endash.case" horiz-adv-x="646" 
d="M65 292l21 101h514l-21 -101h-514z" />
    <glyph glyph-name="equal.ss08" horiz-adv-x="648" 
d="M83 437h475v-94h-475v94zM83 241h475v-95h-475v95z" />
    <glyph glyph-name="equal.tf" 
d="M57 400v94h474v-94h-474zM57 203v95h474v-95h-474z" />
    <glyph glyph-name="equal.tf.ss08" 
d="M49 437h475v-94h-475v94zM49 241h475v-95h-475v95z" />
    <glyph glyph-name="exclamdown.case" horiz-adv-x="269" 
d="M146 0h-143l135 499h83zM280 651c0 -22 -8 -41 -23 -57c-16 -16 -35 -24 -58 -24c-20 0 -36 6 -48 19s-18 28 -18 46c0 23 8 42 24 58c16 15 34 23 55 23c20 0 36 -6 49 -18c13 -13 19 -28 19 -47z" />
    <glyph glyph-name="f.ordn" horiz-adv-x="267" 
d="M246 632l-56 -267h-91l57 267h-58l17 77h58l13 57c5 21 11 39 20 54c9 14 19 25 31 34c12 8 25 14 39 18c14 3 28 5 43 5c12 0 23 -1 33 -4s17 -5 22 -8l-16 -74c-3 1 -8 3 -13 4s-11 2 -18 2c-14 0 -26 -4 -35 -11c-10 -8 -17 -20 -20 -37l-9 -40h74l-17 -77h-74z" />
    <glyph glyph-name="f.ordn.ss08" horiz-adv-x="267" 
d="M233 571l-56 -267h-91l57 267h-58l17 77h58l13 57c5 21 11 39 20 54c9 14 19 25 31 34c12 8 25 14 39 18c14 3 28 5 43 5c12 0 23 -1 33 -4s17 -5 22 -8l-16 -74c-3 1 -8 3 -13 4s-11 2 -18 2c-14 0 -26 -4 -35 -11c-10 -8 -17 -20 -20 -37l-9 -40h74l-17 -77h-74z" />
    <glyph glyph-name="fi" horiz-adv-x="613" 
d="M166 0h-117l82 387h-82l21 100h83l19 89c7 31 16 57 29 77s28 36 44 47c17 11 34 19 53 24c19 4 38 6 57 6s35 -2 48 -6s22 -7 25 -9l-21 -96c0 -1 -4 1 -11 4s-18 4 -31 4c-20 0 -37 -5 -52 -16c-14 -11 -24 -30 -29 -56l-15 -68h316l-104 -487h-115l82 387h-200z
M487 653c0 11 2 22 7 32s11 19 18 26c8 7 17 13 27 18c10 4 20 6 31 6c20 0 36 -6 49 -19s19 -28 19 -47c0 -12 -2 -23 -7 -33s-11 -19 -19 -26c-7 -8 -16 -14 -26 -18s-20 -6 -31 -6c-20 0 -36 7 -49 20s-19 28 -19 47z" />
    <glyph glyph-name="five.dnom" horiz-adv-x="347" 
d="M75 125c0 -15 5 -28 14 -39s23 -16 41 -16c15 0 29 5 42 14c13 10 19 25 19 45c0 16 -5 28 -15 36c-11 9 -23 13 -38 13c-9 0 -18 -2 -26 -5s-15 -6 -20 -11l-73 37l74 168h219l-16 -75h-155l-28 -62c7 5 16 8 27 9c10 2 19 3 27 3c34 0 62 -9 83 -28
c21 -18 31 -44 31 -78c0 -19 -4 -38 -11 -55c-8 -17 -19 -32 -32 -45s-29 -24 -48 -31s-39 -11 -61 -11c-41 0 -75 12 -100 35c-26 23 -39 52 -39 88z" />
    <glyph glyph-name="five.numr" horiz-adv-x="344" 
d="M145 467c0 -15 5 -28 14 -39s23 -16 41 -16c15 0 29 5 42 14c13 10 19 25 19 45c0 16 -5 28 -15 36c-11 9 -23 13 -38 13c-9 0 -18 -2 -26 -5s-15 -6 -20 -11l-73 37l74 168h219l-16 -75h-155l-28 -62c7 5 16 8 27 9c10 2 19 3 27 3c34 0 62 -9 83 -28
c21 -18 31 -44 31 -78c0 -19 -4 -38 -11 -55c-8 -17 -19 -32 -32 -45s-29 -24 -48 -31s-39 -11 -61 -11c-41 0 -75 12 -100 35c-26 23 -39 52 -39 88z" />
    <glyph glyph-name="five.numr.ss08" horiz-adv-x="345" 
d="M133 406c0 -15 5 -28 14 -39s23 -16 41 -16c15 0 29 5 42 14c13 10 19 25 19 45c0 16 -5 28 -15 36c-11 9 -23 13 -38 13c-9 0 -18 -2 -26 -5s-15 -6 -20 -11l-73 37l74 168h219l-16 -75h-155l-28 -62c7 5 16 8 27 9c10 2 19 3 27 3c34 0 62 -9 83 -28
c21 -18 31 -44 31 -78c0 -19 -4 -38 -11 -55c-8 -17 -19 -32 -32 -45s-29 -24 -48 -31s-39 -11 -61 -11c-41 0 -75 12 -100 35c-26 23 -39 52 -39 88z" />
    <glyph glyph-name="five.ss08" horiz-adv-x="552" 
d="M12 199l114 22c-1 -3 -1 -6 -1 -9v-5c0 -15 2 -30 7 -44s12 -27 21 -38c10 -11 22 -20 36 -27c15 -7 32 -10 52 -10c17 0 33 3 49 8c15 6 29 15 41 26s22 25 29 41c7 17 11 36 11 58c0 33 -10 59 -30 77c-21 19 -47 28 -80 28c-21 0 -40 -3 -55 -10
c-16 -6 -30 -14 -42 -24l-103 56l137 300h357l-22 -105h-271l-68 -145c14 9 30 15 47 19s34 6 52 6c61 0 109 -17 146 -50c36 -33 54 -80 54 -139c0 -34 -6 -66 -18 -97c-13 -30 -30 -56 -52 -79c-22 -22 -49 -40 -80 -53s-66 -20 -104 -20c-34 0 -65 5 -92 16
c-28 11 -52 26 -72 45s-35 41 -46 66s-17 52 -17 81v6z" />
    <glyph glyph-name="five.tf" 
d="M198 421c14 14 32 24 54 31s43 10 63 10c33 0 63 -5 89 -15c26 -9 48 -23 66 -41c17 -18 31 -40 40 -65s14 -52 14 -83c0 -38 -7 -74 -20 -107s-32 -61 -56 -86c-25 -24 -54 -43 -87 -58c-34 -14 -71 -21 -112 -21c-37 0 -69 6 -98 18c-29 13 -54 29 -74 49
c-20 21 -35 44 -45 71c-11 27 -16 56 -16 86v9l112 22c-1 -3 -1 -6 -1 -9v-7c0 -18 3 -35 8 -52c5 -16 12 -30 23 -43c11 -12 24 -22 40 -29c15 -7 34 -11 56 -11c20 0 39 4 57 11s34 17 48 30c13 13 24 30 33 49c8 19 12 40 12 64c0 38 -11 68 -32 90c-22 22 -52 33 -91 33
c-23 0 -44 -4 -63 -12c-20 -8 -38 -19 -53 -33l-96 49l149 338h371l-21 -106h-288z" />
    <glyph glyph-name="five.tf.ss08" 
d="M25 199l114 22c-1 -3 -1 -6 -1 -9v-5c0 -15 2 -30 7 -44s12 -27 21 -38c10 -11 22 -20 36 -27c15 -7 32 -10 52 -10c17 0 33 3 49 8c15 6 29 15 41 26s22 25 29 41c7 17 11 36 11 58c0 33 -10 59 -30 77c-21 19 -47 28 -80 28c-21 0 -40 -3 -55 -10
c-16 -6 -30 -14 -42 -24l-103 56l137 300h357l-22 -105h-271l-68 -145c14 9 30 15 47 19s34 6 52 6c61 0 109 -17 146 -50c36 -33 54 -80 54 -139c0 -34 -6 -66 -18 -97c-13 -30 -30 -56 -52 -79c-22 -22 -49 -40 -80 -53s-66 -20 -104 -20c-34 0 -65 5 -92 16
c-28 11 -52 26 -72 45s-35 41 -46 66s-17 52 -17 81v6z" />
    <glyph glyph-name="fl" horiz-adv-x="613" 
d="M166 0h-117l82 387h-82l21 100h83l19 89c7 31 16 57 29 77s28 36 44 47c17 11 34 19 53 24c19 4 38 6 57 6s35 -2 48 -6s22 -7 25 -9l-21 -96c0 -1 -4 1 -11 4s-18 4 -31 4c-20 0 -37 -5 -52 -16c-14 -11 -24 -30 -29 -56l-15 -68h200l51 237h115l-154 -724h-115l82 387
h-200z" />
    <glyph glyph-name="florin.tf" 
d="M235 388h-103v99h123l21 101c5 27 14 50 26 69s26 35 42 47c16 13 33 22 52 27c19 6 38 9 57 9c22 0 39 -1 51 -4c12 -2 23 -5 32 -8v-101c-9 3 -17 5 -26 6s-19 2 -31 2c-8 0 -16 -1 -25 -3s-18 -6 -26 -12c-9 -6 -16 -14 -23 -25s-13 -26 -17 -44l-13 -64h122v-99h-142
l-80 -401c-5 -27 -14 -50 -26 -69s-26 -35 -42 -47c-16 -13 -33 -22 -52 -27c-19 -6 -39 -9 -58 -9c-22 0 -39 1 -50 4c-11 2 -23 5 -35 8v101c8 -2 17 -4 27 -5s21 -2 34 -2c8 0 16 1 25 2c9 2 17 6 26 12c8 6 16 14 23 25s12 26 15 44z" />
    <glyph glyph-name="four.dnom" horiz-adv-x="376" 
d="M1 171l204 196h101l-47 -219h63l-16 -73h-62c0 -1 -1 -7 -4 -19c-3 -13 -7 -31 -12 -55h-89l15 74h-172zM197 270l-127 -122h99z" />
    <glyph glyph-name="four.numr" horiz-adv-x="375" 
d="M73 513l204 196h101l-47 -219h63l-16 -73h-62c0 -1 -1 -7 -4 -19c-3 -13 -7 -31 -12 -55h-89l15 74h-172zM269 612l-127 -122h99z" />
    <glyph glyph-name="four.numr.ss08" horiz-adv-x="376" 
d="M60 452l204 196h101l-47 -219h63l-16 -73h-62c0 -1 -1 -7 -4 -19c-3 -13 -7 -31 -12 -55h-89l15 74h-172zM256 551l-127 -122h99z" />
    <glyph glyph-name="four.ss08" horiz-adv-x="604" 
d="M26 274l362 374h149l-86 -400h115l-22 -106h-116l-28 -142h-118l28 142h-311zM392 519l-261 -271h202z" />
    </font>
</defs>
</svg>
