<svg width="15" height="15" viewBox="0 0 15 15" fill="none" xmlns="http://www.w3.org/2000/svg">
	<path fill-rule="evenodd" clip-rule="evenodd" d="M8.6665 1C8.6665 0.447715 8.21879 0 7.6665 0C7.11422 0 6.6665 0.447715 6.6665 1V6.6665H0.999999C0.447714 6.6665 0 7.11422 0 7.6665C0 8.21879 0.447714 8.6665 0.999999 8.6665H6.6665V14C6.6665 14.5523 7.11422 15 7.6665 15C8.21879 15 8.6665 14.5523 8.6665 14V8.6665H14C14.5523 8.6665 15 8.21879 15 7.6665C15 7.11422 14.5523 6.6665 14 6.6665H8.6665V1Z" fill="#383838"/>
</svg>
