<svg width="26" height="23" viewBox="0 0 26 23" fill="none" xmlns="http://www.w3.org/2000/svg">
	<path d="M23.8095 0.342773L14.4404 7.30134L16.173 3.19588L23.8095 0.342773Z" fill="#E2761B" stroke="#E2761B" stroke-width="0.131827" stroke-linecap="round" stroke-linejoin="round"/>
	<path d="M2.18066 0.342773L11.4744 7.36726L9.82661 3.19588L2.18066 0.342773Z" fill="#E4761B" stroke="#E4761B" stroke-width="0.131827" stroke-linecap="round" stroke-linejoin="round"/>
	<path d="M20.4387 16.4727L17.9434 20.2956L23.2823 21.7646L24.8172 16.5574L20.4387 16.4727Z" fill="#E4761B" stroke="#E4761B" stroke-width="0.131827" stroke-linecap="round" stroke-linejoin="round"/>
	<path d="M1.19214 16.5574L2.71756 21.7646L8.05654 20.2956L5.56125 16.4727L1.19214 16.5574Z" fill="#E4761B" stroke="#E4761B" stroke-width="0.131827" stroke-linecap="round" stroke-linejoin="round"/>
	<path d="M7.75534 10.0127L6.26758 12.2632L11.5689 12.4986L11.3806 6.80176L7.75534 10.0127Z" fill="#E4761B" stroke="#E4761B" stroke-width="0.131827" stroke-linecap="round" stroke-linejoin="round"/>
	<path d="M18.2352 10.0132L14.5628 6.73633L14.4404 12.499L19.7323 12.2636L18.2352 10.0132Z" fill="#E4761B" stroke="#E4761B" stroke-width="0.131827" stroke-linecap="round" stroke-linejoin="round"/>
	<path d="M8.05664 20.2963L11.2393 18.7426L8.48979 16.5957L8.05664 20.2963Z" fill="#E4761B" stroke="#E4761B" stroke-width="0.131827" stroke-linecap="round" stroke-linejoin="round"/>
	<path d="M14.7515 18.7426L17.9436 20.2963L17.501 16.5957L14.7515 18.7426Z" fill="#E4761B" stroke="#E4761B" stroke-width="0.131827" stroke-linecap="round" stroke-linejoin="round"/>
	<path d="M17.9436 20.2959L14.7515 18.7422L15.0057 20.8232L14.9775 21.6989L17.9436 20.2959Z" fill="#D7C1B3" stroke="#D7C1B3" stroke-width="0.131827" stroke-linecap="round" stroke-linejoin="round"/>
	<path d="M8.05664 20.2959L11.0227 21.6989L11.0039 20.8232L11.2393 18.7422L8.05664 20.2959Z" fill="#D7C1B3" stroke="#D7C1B3" stroke-width="0.131827" stroke-linecap="round" stroke-linejoin="round"/>
	<path d="M11.0697 15.2204L8.41431 14.4389L10.2881 13.582L11.0697 15.2204Z" fill="#233447" stroke="#233447" stroke-width="0.131827" stroke-linecap="round" stroke-linejoin="round"/>
	<path d="M14.9209 15.2204L15.7024 13.582L17.5857 14.4389L14.9209 15.2204Z" fill="#233447" stroke="#233447" stroke-width="0.131827" stroke-linecap="round" stroke-linejoin="round"/>
	<path d="M8.05645 20.2956L8.50843 16.4727L5.56116 16.5574L8.05645 20.2956Z" fill="#CD6116" stroke="#CD6116" stroke-width="0.131827" stroke-linecap="round" stroke-linejoin="round"/>
	<path d="M17.4915 16.4727L17.9434 20.2956L20.4387 16.5574L17.4915 16.4727Z" fill="#CD6116" stroke="#CD6116" stroke-width="0.131827" stroke-linecap="round" stroke-linejoin="round"/>
	<path d="M19.7325 12.2637L14.4406 12.4991L14.9302 15.2204L15.7117 13.5819L17.595 14.4388L19.7325 12.2637Z" fill="#CD6116" stroke="#CD6116" stroke-width="0.131827" stroke-linecap="round" stroke-linejoin="round"/>
	<path d="M8.41435 14.4388L10.2976 13.5819L11.0697 15.2204L11.5688 12.4991L6.26746 12.2637L8.41435 14.4388Z" fill="#CD6116" stroke="#CD6116" stroke-width="0.131827" stroke-linecap="round" stroke-linejoin="round"/>
	<path d="M6.26758 12.2637L8.4898 16.5951L8.41447 14.4388L6.26758 12.2637Z" fill="#E4751F" stroke="#E4751F" stroke-width="0.131827" stroke-linecap="round" stroke-linejoin="round"/>
	<path d="M17.5953 14.4388L17.5011 16.5951L19.7327 12.2637L17.5953 14.4388Z" fill="#E4751F" stroke="#E4751F" stroke-width="0.131827" stroke-linecap="round" stroke-linejoin="round"/>
	<path d="M11.5689 12.499L11.0698 15.2203L11.6913 18.4312L11.8325 14.2034L11.5689 12.499Z" fill="#E4751F" stroke="#E4751F" stroke-width="0.131827" stroke-linecap="round" stroke-linejoin="round"/>
	<path d="M14.4408 12.499L14.1865 14.1939L14.2995 18.4312L14.9304 15.2203L14.4408 12.499Z" fill="#E4751F" stroke="#E4751F" stroke-width="0.131827" stroke-linecap="round" stroke-linejoin="round"/>
	<path d="M14.9302 15.22L14.2993 18.4309L14.7513 18.7417L17.5008 16.5948L17.595 14.4385L14.9302 15.22Z" fill="#F6851B" stroke="#F6851B" stroke-width="0.131827" stroke-linecap="round" stroke-linejoin="round"/>
	<path d="M8.41431 14.4385L8.48964 16.5948L11.2392 18.7417L11.6911 18.4309L11.0697 15.22L8.41431 14.4385Z" fill="#F6851B" stroke="#F6851B" stroke-width="0.131827" stroke-linecap="round" stroke-linejoin="round"/>
	<path d="M14.9773 21.6989L15.0056 20.8232L14.7701 20.6161H11.2202L11.0037 20.8232L11.0225 21.6989L8.0564 20.2959L9.09218 21.1434L11.192 22.6029H14.7984L16.9076 21.1434L17.9434 20.2959L14.9773 21.6989Z" fill="#C0AD9E" stroke="#C0AD9E" stroke-width="0.131827" stroke-linecap="round" stroke-linejoin="round"/>
	<path d="M14.7513 18.7424L14.2993 18.4316H11.691L11.2391 18.7424L11.0037 20.8234L11.2202 20.6162H14.7701L15.0055 20.8234L14.7513 18.7424Z" fill="#161616" stroke="#161616" stroke-width="0.131827" stroke-linecap="round" stroke-linejoin="round"/>
	<path d="M24.2053 7.75332L25.0057 3.91151L23.8098 0.342773L14.7515 7.06594L18.2355 10.0132L23.1601 11.4539L24.2524 10.1827L23.7816 9.84371L24.5349 9.15633L23.9511 8.70436L24.7044 8.12997L24.2053 7.75332Z" fill="#763D16" stroke="#763D16" stroke-width="0.131827" stroke-linecap="round" stroke-linejoin="round"/>
	<path d="M0.994385 3.91151L1.79476 7.75332L1.28629 8.12997L2.03958 8.70436L1.46519 9.15633L2.21849 9.84371L1.74768 10.1827L2.83054 11.4539L7.75521 10.0132L11.2392 7.06594L2.18083 0.342773L0.994385 3.91151Z" fill="#763D16" stroke="#763D16" stroke-width="0.131827" stroke-linecap="round" stroke-linejoin="round"/>
	<path d="M23.1601 11.4543L18.2354 10.0137L19.7326 12.2641L17.501 16.5956L20.4388 16.5579H24.8174L23.1601 11.4543Z" fill="#F6851B" stroke="#F6851B" stroke-width="0.131827" stroke-linecap="round" stroke-linejoin="round"/>
	<path d="M7.75523 10.0137L2.83056 11.4543L1.19214 16.5579H5.56125L8.48969 16.5956L6.26747 12.2641L7.75523 10.0137Z" fill="#F6851B" stroke="#F6851B" stroke-width="0.131827" stroke-linecap="round" stroke-linejoin="round"/>
	<path d="M14.4406 12.4985L14.7513 7.06537L16.1826 3.19531H9.82666L11.2391 7.06537L11.5687 12.4985L11.6817 14.2123L11.6911 18.4307H14.2994L14.3182 14.2123L14.4406 12.4985Z" fill="#F6851B" stroke="#F6851B" stroke-width="0.131827" stroke-linecap="round" stroke-linejoin="round"/>
</svg>
