<svg width="275" height="124" viewBox="0 0 275 124" fill="none" xmlns="http://www.w3.org/2000/svg">
	<path d="M1.78692 27.9429C2.77375 12.5105 16.0842 0.799983 31.5167 1.78681L246.078 15.507C261.511 16.4938 273.221 29.8043 272.235 45.2367V45.2367C271.248 60.6692 257.937 72.3797 242.505 71.3928L27.943 57.6727C12.5106 56.6858 0.800088 43.3754 1.78692 27.9429V27.9429Z" fill="#5CEE9C"/>
	<path d="M42.1428 16.1342C43.5 16.2209 44.7114 16.4988 45.777 16.9678C46.7412 17.3501 47.612 17.9402 48.3893 18.7381C49.0636 19.476 49.5714 20.3101 49.9128 21.2404C50.2241 22.2223 50.3457 23.2455 50.2776 24.31C50.184 25.7736 49.7165 27.0263 48.8749 28.0681C48.0334 29.1099 47.0011 29.792 45.778 30.1146C46.4864 30.3203 47.1205 30.6414 47.6804 31.078C48.267 31.5163 48.7544 32.0418 49.1428 32.6545C49.5595 33.2423 49.8771 33.9173 50.0955 34.6795C50.3157 35.415 50.3969 36.2352 50.339 37.14C50.2675 38.2577 49.9999 39.3095 49.536 40.2952C48.9923 41.2758 48.3541 42.0634 47.6213 42.6578C46.8053 43.3004 45.8523 43.7873 44.7623 44.1184C43.6723 44.4495 42.4487 44.5716 41.0914 44.4849L30.1538 43.7854L31.9636 15.4833L42.1428 16.1342ZM40.5566 27.7767C41.8606 27.8601 42.8657 27.6037 43.5718 27.0075C44.3312 26.4148 44.7458 25.5728 44.8155 24.4817C44.8853 23.3906 44.5938 22.5169 43.941 21.8606C43.3166 21.1793 42.3257 20.7953 40.9685 20.7085L37.0964 20.4609L36.6446 27.5265L40.5566 27.7767ZM40.3471 39.8279C41.7043 39.9147 42.776 39.6625 43.5619 39.0715C44.3496 38.4538 44.7801 37.5728 44.8532 36.4285C44.9247 35.3108 44.6366 34.3838 43.9889 33.6477C43.3163 32.8832 42.2881 32.4567 40.9043 32.3682L36.3536 32.0772L35.8762 39.542L40.3471 39.8279ZM69.083 26.1538C69.0072 25.6679 68.9013 25.2336 68.7655 24.8508C68.6081 24.3865 68.3302 23.9279 67.9316 23.4748C67.5828 23.0784 67.0985 22.7134 66.4785 22.3799C65.8834 22.0746 65.1202 21.8922 64.1888 21.8326C63.5501 21.7918 62.9445 21.86 62.372 22.0371C61.7463 22.2109 61.2503 22.4464 60.8839 22.7436C60.4343 23.0889 60.1177 23.4428 59.9342 23.8052C59.6907 24.2706 59.5553 24.7162 59.5281 25.142C59.4787 25.9137 59.6881 26.6085 60.1563 27.2263C60.6512 27.8458 61.3982 28.281 62.3976 28.532L66.301 29.5431C67.5099 29.8609 68.6162 30.3191 69.6201 30.9178C70.5209 31.4563 71.3059 32.1345 71.975 32.9522C72.5678 33.7116 73.0207 34.5689 73.3337 35.5241C73.6235 36.4245 73.7361 37.3803 73.6714 38.3915C73.6033 39.456 73.309 40.506 72.7886 41.5416C72.2981 42.5256 71.5865 43.4154 70.6539 44.2108C69.7795 44.9298 68.6725 45.5271 67.3328 46.0025C66.0497 46.4282 64.5698 46.5874 62.8932 46.4802C61.0038 46.3594 59.3983 45.9761 58.0768 45.3305C56.83 44.7698 55.7433 44.0055 54.8165 43.0378C53.9395 42.1266 53.2955 41.1235 52.8846 40.0283C52.4951 39.0148 52.2679 37.9715 52.2029 36.8985L57.3993 35.868C57.3867 36.4818 57.5172 37.1581 57.7906 37.8971C58.0391 38.6077 58.3892 39.1913 58.841 39.6477C59.3392 40.214 59.9391 40.6531 60.6406 40.9652C61.4202 41.309 62.2891 41.5115 63.2471 41.5728C64.764 41.6698 65.9296 41.4103 66.7439 40.7943C67.5565 40.205 67.9952 39.4047 68.0598 38.3934C68.1143 37.5418 67.8675 36.8046 67.3195 36.1817C66.7465 35.5304 65.9204 35.0768 64.8413 34.8207L60.9404 33.7697C58.7322 33.2009 56.9954 32.1546 55.7301 30.6308C54.463 29.1335 53.8976 27.3204 54.0337 25.1914C54.112 23.9673 54.453 22.8133 55.0567 21.7297C55.6587 20.6726 56.4235 19.7863 57.3511 19.0707C58.3619 18.3069 59.453 17.7488 60.6246 17.3961C61.8777 17.022 63.1563 16.8766 64.4603 16.96C66.1102 17.0655 67.5594 17.3853 68.8079 17.9194C69.9748 18.475 70.9345 19.1376 71.6869 19.9072C72.4393 20.6768 73.0145 21.5018 73.4125 22.3824C73.7855 23.2346 74.0247 24.0916 74.1299 24.9534L69.083 26.1538ZM89.6526 48.1913C87.7099 48.0671 85.8692 47.602 84.1304 46.7961C82.4698 46.0219 81.0025 44.9394 79.7287 43.5486C78.4549 42.1578 77.5024 40.5471 76.8712 38.7164C76.2169 36.8308 75.9612 34.7703 76.1041 32.5348C76.2505 30.2462 76.7799 28.2359 77.6922 26.5039C78.5514 24.7685 79.7021 23.2789 81.1445 22.0351C82.5585 20.8162 84.1649 19.9302 85.9639 19.3772C87.7646 18.7976 89.5963 18.5674 91.4592 18.6865C93.4019 18.8107 95.1138 19.2007 96.595 19.8566C98.0529 20.4575 99.2844 21.2577 100.289 22.2572C101.246 23.1735 102.034 24.2259 102.653 25.4145C103.243 26.628 103.636 27.7888 103.833 28.8969L98.5388 30.2017C98.4199 29.5528 98.1972 28.8572 97.8706 28.1148C97.5422 27.3991 97.0891 26.7555 96.511 26.1841C95.9063 25.6111 95.1627 25.1226 94.28 24.7188C93.4239 24.3167 92.3705 24.0756 91.1197 23.9956C90.0552 23.9276 88.9912 24.0599 87.9278 24.3928C86.9477 24.6775 85.9796 25.1901 85.0238 25.9306C84.2061 26.5998 83.4778 27.5419 82.839 28.7569C82.2585 29.8955 81.9163 31.2765 81.8125 32.8998C81.7121 34.47 81.879 35.8301 82.3131 36.9801C82.719 38.1551 83.3089 39.1681 84.0828 40.0192C84.8318 40.842 85.725 41.5004 86.7622 41.9943C87.7746 42.4598 88.8529 42.7292 89.9972 42.8023C91.248 42.8823 92.3236 42.7774 93.2239 42.4876C94.1242 42.1978 94.9258 41.7814 95.6285 41.2385C96.3313 40.6956 96.8893 40.1167 97.3028 39.5018C97.7162 38.8869 98.0523 38.227 98.3111 37.5221L103.361 39.4082C102.997 40.5072 102.473 41.596 101.789 42.6746C100.994 43.8262 100.064 44.7955 98.9982 45.5824C97.8758 46.4191 96.5366 47.0951 94.9806 47.6102C93.4778 48.1286 91.7018 48.3224 89.6526 48.1913ZM113.529 49.1169L114.785 29.477L119.854 29.8012L119.701 32.1963C120.056 31.6578 120.429 31.2542 120.821 30.9852C121.325 30.6167 121.824 30.3413 122.317 30.159C122.919 29.9303 123.476 29.7789 123.989 29.7048C124.609 29.6109 125.159 29.5792 125.638 29.6099C126.996 29.6967 128.162 30.0518 129.137 30.6753C130.113 31.2989 130.82 32.159 131.257 33.2559C132.079 32.106 133.037 31.3255 134.132 30.9146C135.176 30.4736 136.363 30.2957 137.694 30.3808C138.572 30.4369 139.441 30.6394 140.3 30.9883C141.107 31.3338 141.837 31.8214 142.491 32.4511C143.093 33.0775 143.575 33.8965 143.937 34.9084C144.277 35.8654 144.405 36.9959 144.322 38.2999L143.508 51.0339L138.358 50.7046L139.103 39.0484C139.172 37.9839 138.962 37.0887 138.474 36.3627C137.961 35.6084 137.092 35.1922 135.868 35.1139C134.724 35.0407 133.807 35.3696 133.119 36.1005C132.433 36.8048 132.056 37.6892 131.988 38.7537L131.253 50.2502L125.983 49.9133L126.729 38.2571C126.797 37.1926 126.574 36.2832 126.061 35.5289C125.547 34.8013 124.691 34.3992 123.493 34.3226C122.322 34.2477 121.394 34.5624 120.707 35.2667C120.019 35.9976 119.641 36.8954 119.573 37.9598L118.838 49.4564L113.529 49.1169ZM147.533 51.2913L148.789 31.6514L154.098 31.9909L152.842 51.6308L147.533 51.2913ZM148.561 25.1837C148.621 24.2522 148.99 23.4876 149.67 22.8897C150.349 22.2919 151.141 22.0219 152.046 22.0797C152.978 22.1393 153.742 22.5088 154.34 23.1884C154.91 23.8928 155.165 24.6975 155.108 25.6023C155.053 26.4539 154.699 27.1928 154.044 27.8189C153.364 28.4168 152.559 28.6859 151.628 28.6264C150.723 28.5685 149.971 28.1998 149.373 27.5203C148.776 26.8407 148.505 26.0619 148.561 25.1837ZM162.365 52.2397L157.056 51.9002L158.311 32.2603L163.461 32.5896L163.305 35.0246C163.982 34.0525 164.868 33.3609 165.963 32.95C167.032 32.5373 168.098 32.365 169.163 32.4331C170.36 32.5097 171.412 32.7774 172.318 33.2361C173.142 33.7164 173.838 34.322 174.406 35.0531C174.949 35.7558 175.335 36.6089 175.565 37.6122C175.773 38.5341 175.842 39.5539 175.77 40.6716L174.979 53.0463L169.67 52.7068L170.402 41.2502C170.472 40.1591 170.252 39.2098 169.743 38.4023C169.205 37.6197 168.297 37.1876 167.02 37.1059C165.849 37.031 164.92 37.3591 164.231 38.09C163.542 38.8475 163.16 39.7984 163.087 40.9428L162.365 52.2397ZM187.02 34.0961L190.972 34.3488L190.67 39.0591L186.718 38.8064L186.193 47.0296C186.138 47.8812 186.287 48.4786 186.639 48.8218C186.99 49.1916 187.564 49.402 188.362 49.453C188.788 49.4803 189.108 49.4874 189.323 49.4744C189.672 49.4433 189.901 49.4178 190.009 49.398L189.728 53.7891C189.564 53.8587 189.184 53.9413 188.59 54.0369C188.158 54.1162 187.529 54.1294 186.704 54.0766C184.761 53.9524 183.278 53.3232 182.255 52.1889C181.207 51.0263 180.744 49.5003 180.865 47.6108L181.449 38.4695L177.896 38.2423L178.198 33.5319L179.196 33.5957C180.207 33.6604 180.998 33.4037 181.57 32.8257C182.088 32.2442 182.374 31.5277 182.429 30.6761L182.605 27.9217L187.395 28.228L187.02 34.0961ZM192.786 54.185L194.042 34.5451L199.351 34.8846L198.095 54.5245L192.786 54.185ZM193.814 28.0774C193.873 27.1459 194.243 26.3813 194.922 25.7834C195.602 25.1856 196.394 24.9156 197.299 24.9734C198.23 25.033 198.995 25.4025 199.593 26.0821C200.162 26.7865 200.418 27.5912 200.36 28.496C200.306 29.3476 199.951 30.0865 199.297 30.7126C198.617 31.3105 197.812 31.5796 196.88 31.5201C195.976 31.4622 195.224 31.0935 194.626 30.414C194.029 29.7344 193.758 28.9556 193.814 28.0774ZM207.618 55.1334L202.308 54.7939L203.564 35.154L208.714 35.4833L208.558 37.9183C209.235 36.9462 210.121 36.2546 211.216 35.8437C212.284 35.431 213.351 35.2587 214.415 35.3268C215.613 35.4034 216.665 35.6711 217.571 36.1298C218.395 36.6101 219.091 37.2157 219.659 37.9468C220.202 38.6495 220.588 39.5026 220.818 40.5059C221.026 41.4278 221.095 42.4476 221.023 43.5653L220.232 55.94L214.923 55.6005L215.655 44.1439C215.725 43.0528 215.505 42.1035 214.996 41.296C214.458 40.5134 213.55 40.0813 212.273 39.9996C211.102 39.9247 210.172 40.2528 209.484 40.9837C208.795 41.7412 208.413 42.6921 208.34 43.8365L207.618 55.1334ZM227.912 56.2307C228.053 57.362 228.489 58.285 229.218 58.9997C229.999 59.7444 231.015 60.1567 232.265 60.2367C233.915 60.3422 235.233 59.9989 236.219 59.2069C237.18 58.3865 237.722 57.0183 237.844 55.1022L237.936 53.6652C237.496 54.2783 236.808 54.8088 235.87 55.2566C234.905 55.7293 233.717 55.9205 232.307 55.8303C231.003 55.7469 229.807 55.43 228.72 54.8795C227.659 54.3307 226.744 53.6041 225.973 52.6998C225.201 51.8221 224.627 50.77 224.251 49.5435C223.847 48.3419 223.689 47.0625 223.775 45.7053C223.857 44.4279 224.162 43.2049 224.691 42.0362C225.189 40.9458 225.879 39.9745 226.761 39.1224C227.588 38.3202 228.59 37.6895 229.768 37.2304C230.892 36.7946 232.145 36.6209 233.529 36.7094C235.073 36.8081 236.292 37.1666 237.188 37.7851C238.032 38.3735 238.618 39.0255 238.947 39.7413L239.095 37.426L244.204 37.7527L243.084 55.2769C242.999 56.6076 242.729 57.8997 242.275 59.1532C241.796 60.3785 241.114 61.4304 240.229 62.3091C239.318 63.1861 238.205 63.8765 236.89 64.3803C235.524 64.854 233.936 65.0331 232.126 64.9173C230.796 64.8323 229.583 64.5677 228.49 64.1236C227.424 63.6547 226.486 63.0736 225.675 62.3805C224.944 61.6924 224.327 60.8915 223.825 59.9775C223.375 59.067 223.114 58.1417 223.04 57.2018L227.912 56.2307ZM233.516 51.3383C234.873 51.4251 236.02 51.0442 236.956 50.1955C237.867 49.3185 238.37 48.1349 238.465 46.6446C238.562 45.1277 238.186 43.9012 237.338 42.9652C236.491 42.0025 235.429 41.4803 234.151 41.3986C233.486 41.3561 232.866 41.4367 232.292 41.6405C231.776 41.7678 231.249 42.0681 230.711 42.5414C230.258 42.94 229.892 43.4377 229.614 44.0344C229.337 44.6046 229.174 45.2756 229.124 46.0473C229.026 47.5908 229.386 48.8431 230.207 49.8041C231.029 50.7384 232.132 51.2498 233.516 51.3383Z" fill="#191B20"/>
	<path d="M35.304 96.0375C33.7675 80.65 44.996 66.9305 60.3834 65.394L196.706 51.7819C212.093 50.2454 225.813 61.4739 227.349 76.8613V76.8613C228.885 92.2488 217.657 105.968 202.27 107.505L65.9475 121.117C50.56 122.653 36.8405 111.425 35.304 96.0375V96.0375Z" fill="#FFFB1F"/>
	<path d="M67.8533 100.345C67.9859 101.135 68.3732 101.794 69.0152 102.319C69.6865 102.868 70.5926 103.086 71.7336 102.972C72.5827 102.887 73.2142 102.637 73.6282 102.22C74.0131 101.78 74.179 101.294 74.126 100.764C74.0809 100.312 73.8833 99.9436 73.5331 99.657C73.2068 99.3412 72.6376 99.1434 71.8257 99.0637L69.1789 98.725C67.1969 98.4673 65.7309 97.8767 64.7811 96.9532C63.7995 95.9793 63.2398 94.8024 63.102 93.4226C63.0173 92.5735 63.1209 91.7323 63.4129 90.8992C63.7049 90.0661 64.1547 89.3378 64.7624 88.7143C65.3171 88.0961 66.0402 87.5549 66.9319 87.0907C67.7465 86.661 68.6978 86.3918 69.7858 86.2832C71.1656 86.1454 72.353 86.2278 73.3479 86.5305C74.3668 86.8039 75.1973 87.2034 75.8393 87.7288C76.5106 88.2782 77.0107 88.8581 77.3396 89.4684C77.7296 90.153 77.9603 90.7196 78.0319 91.168L73.7132 92.6042C73.6284 92.2911 73.5196 92.0072 73.387 91.7524C73.2517 91.4711 73.0235 91.1991 72.7025 90.9364C72.4107 90.6975 72.0578 90.5184 71.6439 90.3989C71.2565 90.2768 70.7842 90.2436 70.227 90.2992C69.5636 90.3654 68.9984 90.6095 68.5313 91.0313C68.0616 91.4266 67.8559 91.9161 67.9142 92.4999C67.9645 93.004 68.1754 93.3716 68.5469 93.6025C68.8918 93.836 69.3362 93.9926 69.8801 94.0723L72.7259 94.3912C74.6761 94.5984 76.1965 95.197 77.2869 96.1869C78.3747 97.1502 78.9914 98.3616 79.1371 99.821C79.2166 100.617 79.1356 101.416 78.894 102.217C78.6789 103.016 78.2835 103.752 77.7076 104.426C77.0813 105.132 76.3342 105.702 75.4665 106.137C74.5218 106.606 73.4259 106.904 72.1788 107.028C70.6398 107.182 69.3714 107.094 68.3738 106.765C67.3204 106.414 66.4462 105.979 65.7511 105.459C65.0533 104.912 64.5227 104.295 64.1593 103.608C63.7428 102.926 63.4948 102.321 63.4152 101.793L67.8533 100.345ZM89.5612 100.067C90.1954 100.244 90.8309 100.302 91.4677 100.238C92.1045 100.174 92.7162 99.9927 93.3026 99.6929C93.913 99.364 94.4079 98.9528 94.7874 98.4593C95.1696 97.9923 95.4708 97.3861 95.6912 96.6405C95.9115 95.8949 95.9766 95.071 95.8865 94.1689C95.7965 93.2667 95.5697 92.4719 95.2063 91.7846C94.8429 91.0974 94.4277 90.5626 93.9607 90.1805C93.4911 89.7718 92.9247 89.4665 92.2613 89.2648C91.6537 89.0843 91.0182 89.0271 90.3549 89.0934C89.718 89.1569 89.1064 89.3386 88.5199 89.6384C87.9096 89.9673 87.4147 90.3785 87.0352 90.872C86.653 91.3389 86.3518 91.9452 86.1314 92.6908C85.9111 93.4364 85.8459 94.2603 85.936 95.1624C86.0261 96.0646 86.2529 96.8594 86.6163 97.5466C86.9797 98.2339 87.3949 98.7687 87.8618 99.1508C88.3314 99.5595 88.8979 99.8648 89.5612 100.067ZM85.8499 85.4429C87.0467 84.8142 88.388 84.4257 89.874 84.2773C91.3599 84.1289 92.7516 84.2446 94.0491 84.6242C95.3758 85.0277 96.5352 85.6355 97.5275 86.4476C98.5198 87.2597 99.3461 88.2894 100.007 89.5366C100.635 90.7334 101.027 92.1013 101.18 93.6403C101.337 95.2058 101.222 96.6108 100.837 97.8552C100.436 99.2084 99.83 100.381 99.0179 101.373C98.2058 102.366 97.1894 103.191 95.9687 103.849C94.8011 104.501 93.4611 104.903 91.9486 105.054C90.4361 105.205 89.0431 105.076 87.7695 104.667C86.4428 104.264 85.2834 103.656 84.2911 102.844C83.2988 102.032 82.4724 101.002 81.8119 99.7549C81.1885 98.6112 80.7987 97.2566 80.6423 95.691C80.4887 94.152 80.6017 92.7338 80.9813 91.4363C81.3821 90.0831 81.9886 88.9104 82.8007 87.9181C83.6128 86.9258 84.6292 86.1008 85.8499 85.4429ZM105.175 103.13L102.297 74.3136L107.591 73.7851L110.468 102.602L105.175 103.13ZM133.262 96.7481C133.349 97.6237 133.429 98.2858 133.5 98.7342C133.59 99.3684 133.682 99.8818 133.775 100.275L128.72 100.779C128.595 100.336 128.51 100.023 128.465 99.84C128.41 99.5507 128.353 99.1142 128.294 98.5305C127.923 99.3715 127.284 100.092 126.38 100.691C125.504 101.315 124.403 101.693 123.076 101.825C121.59 101.974 120.276 101.837 119.136 101.415C117.889 101.003 116.809 100.388 115.896 99.5675C114.983 98.7474 114.225 97.7244 113.62 96.4984C113.018 95.299 112.642 93.9563 112.494 92.4704C112.354 91.064 112.445 89.7015 112.769 88.3828C113.144 87.0322 113.685 85.8794 114.394 84.9243C115.153 83.9373 116.076 83.1215 117.164 82.4769C118.305 81.827 119.539 81.4358 120.866 81.3033C121.715 81.2185 122.466 81.2239 123.119 81.3195C123.774 81.4417 124.325 81.5877 124.77 81.7576C125.33 81.9965 125.727 82.2115 125.96 82.4026C126.252 82.6414 126.479 82.9001 126.641 83.1788L125.524 71.9944L130.738 71.4738L133.262 96.7481ZM117.827 91.9378C118.002 93.6891 118.59 95.0106 119.59 95.9023C120.59 96.794 121.807 97.1683 123.24 97.0252C124.62 96.8874 125.712 96.2826 126.516 95.2108C127.344 94.1097 127.67 92.6835 127.495 90.9322C127.321 89.1809 126.722 87.8873 125.701 87.0513C124.703 86.1862 123.515 85.8225 122.135 85.9602C120.782 86.0954 119.675 86.6883 118.815 87.7389C117.985 88.8134 117.655 90.213 117.827 91.9378ZM152.845 93.7475C153.479 93.9254 154.115 93.9825 154.751 93.9189C155.388 93.8553 156 93.6737 156.586 93.3739C157.197 93.045 157.692 92.6338 158.071 92.1403C158.453 91.6733 158.755 91.0671 158.975 90.3215C159.195 89.5759 159.26 88.752 159.17 87.8498C159.08 86.9477 158.853 86.1529 158.49 85.4656C158.127 84.7783 157.711 84.2436 157.244 83.8614C156.775 83.4527 156.208 83.1475 155.545 82.9458C154.937 82.7652 154.302 82.7081 153.639 82.7743C153.002 82.8379 152.39 83.0196 151.804 83.3193C151.193 83.6483 150.698 84.0595 150.319 84.553C149.937 85.0199 149.635 85.6262 149.415 86.3718C149.195 87.1174 149.13 87.9412 149.22 88.8434C149.31 89.7456 149.537 90.5403 149.9 91.2276C150.263 91.9149 150.679 92.4496 151.146 92.8318C151.615 93.2405 152.182 93.5457 152.845 93.7475ZM149.134 79.1239C150.33 78.4952 151.672 78.1067 153.158 77.9583C154.644 77.8099 156.035 77.9255 157.333 78.3052C158.66 78.7087 159.819 79.3165 160.811 80.1286C161.803 80.9407 162.63 81.9703 163.29 83.2175C163.919 84.4143 164.31 85.7822 164.464 87.3212C164.62 88.8868 164.506 90.2918 164.121 91.5362C163.72 92.8894 163.114 94.0621 162.302 95.0544C161.49 96.0466 160.473 96.8717 159.252 97.5296C158.085 98.1821 156.745 98.5839 155.232 98.735C153.72 98.886 152.327 98.7571 151.053 98.3483C149.727 97.9448 148.567 97.337 147.575 96.5249C146.583 95.7128 145.756 94.6831 145.096 93.4359C144.472 92.2922 144.082 90.9375 143.926 89.372C143.772 87.833 143.885 86.4147 144.265 85.1173C144.666 83.7641 145.272 82.5913 146.084 81.5991C146.897 80.6068 147.913 79.7817 149.134 79.1239ZM181.275 95.5316C181.23 95.3485 181.159 95.0473 181.064 94.6281C181.011 94.3654 180.958 93.9687 180.905 93.438C180.467 94.4197 179.764 95.1599 178.795 95.6586C177.829 96.1838 176.816 96.4994 175.754 96.6054C174.534 96.7273 173.464 96.6197 172.546 96.2825C171.578 95.9773 170.741 95.5115 170.035 94.8852C169.332 94.2854 168.772 93.5105 168.356 92.5605C167.923 91.7193 167.651 90.7415 167.54 89.627L166.304 77.2486L171.598 76.72L172.727 88.0238C172.838 89.1382 173.222 90.0378 173.88 90.7225C174.514 91.4363 175.455 91.731 176.702 91.6065C177.896 91.4873 178.776 91.0376 179.341 90.2576C179.906 89.4776 180.132 88.5171 180.018 87.3761L178.882 75.9927L184.175 75.4641L185.777 91.5043C185.835 92.0881 185.931 92.7753 186.063 93.5661C186.151 94.1737 186.239 94.6607 186.33 95.0268L181.275 95.5316ZM195.283 74.3549L199.224 73.9615L199.693 78.6581L195.752 79.0516L196.571 87.2508C196.656 88.0999 196.9 88.6651 197.303 88.9465C197.709 89.2543 198.31 89.3685 199.106 89.289C199.53 89.2466 199.848 89.2016 200.057 89.1538C200.397 89.0663 200.618 89.004 200.722 88.9669L201.159 93.3451C201.008 93.4406 200.647 93.5838 200.076 93.7748C199.662 93.9233 199.044 94.0387 198.222 94.1208C196.285 94.3142 194.719 93.9345 193.525 92.9818C192.302 92.0051 191.596 90.5748 191.408 88.6909L190.498 79.5762L186.956 79.9299L186.487 75.2333L187.482 75.1339C188.49 75.0332 189.229 74.6512 189.699 73.988C190.116 73.33 190.282 72.5764 190.197 71.7273L189.923 68.981L194.699 68.504L195.283 74.3549Z" fill="#191B20"/>
</svg>
