<svg width="799" height="356" viewBox="0 0 799 356" fill="none" xmlns="http://www.w3.org/2000/svg">
	<rect x="1" y="5" width="266" height="350" fill="#FFFFDE"/>
	<rect x="267" y="5" width="265" height="350" fill="#DEFFDF"/>
	<rect x="532" y="5" width="266" height="350" fill="#DEF3FF"/>
	<line x1="1" y1="256" x2="798" y2="256" stroke="#DDDFE4" stroke-width="2" stroke-dasharray="9 9"/>
	<line x1="1" y1="205.369" x2="798" y2="205.369" stroke="#DDDFE4" stroke-width="2" stroke-dasharray="9 9"/>
	<line x1="1" y1="354.479" x2="798" y2="354.479" stroke="#DDDFE4" stroke-width="2" stroke-dasharray="9 9"/>
	<line x1="1" y1="155.891" x2="798" y2="155.891" stroke="#DDDFE4" stroke-width="2" stroke-dasharray="9 9"/>
	<line x1="1" y1="305" x2="798" y2="305" stroke="#DDDFE4" stroke-width="2" stroke-dasharray="9 9"/>
	<line x1="1" y1="105.26" x2="798" y2="105.26" stroke="#DDDFE4" stroke-width="2" stroke-dasharray="9 9"/>
	<line x1="1" y1="54.6309" x2="798" y2="54.6309" stroke="#DDDFE4" stroke-width="2" stroke-dasharray="9 9"/>
	<line x1="1" y1="4" x2="798" y2="4" stroke="#DDDFE4" stroke-width="2" stroke-dasharray="9 9"/>
	<rect x="1" y="77" width="424" height="54" rx="27" fill="#FF6464"/>
	<path d="M42.3119 95.984L37.5359 109.232L32.7839 95.984H29.6639L35.9999 113H38.9279L45.3599 95.984H42.3119ZM50.3347 110.864C49.9027 110.864 49.4947 110.792 49.1107 110.624C48.7027 110.456 48.3667 110.216 48.0787 109.904C47.7667 109.592 47.5267 109.208 47.3587 108.752C47.1667 108.296 47.0707 107.744 47.0707 107.144C47.0707 106.544 47.1667 106.016 47.3587 105.56C47.5267 105.104 47.7667 104.72 48.0787 104.408C48.3667 104.096 48.7027 103.856 49.1107 103.712C49.4947 103.544 49.9027 103.472 50.3347 103.472C50.7667 103.472 51.1747 103.544 51.5827 103.712C51.9667 103.856 52.3027 104.096 52.6147 104.408C52.9267 104.72 53.1667 105.104 53.3347 105.56C53.5027 106.016 53.5987 106.544 53.5987 107.144C53.5987 107.744 53.5027 108.296 53.3347 108.752C53.1667 109.208 52.9267 109.592 52.6147 109.904C52.3027 110.216 51.9667 110.456 51.5827 110.624C51.1747 110.792 50.7667 110.864 50.3347 110.864ZM50.3347 100.952C49.4707 100.952 48.6787 101.096 47.9347 101.408C47.1907 101.72 46.5427 102.152 46.0147 102.704C45.4627 103.256 45.0547 103.928 44.7427 104.672C44.4307 105.416 44.2867 106.256 44.2867 107.144C44.2867 108.032 44.4307 108.872 44.7427 109.616C45.0547 110.384 45.4627 111.032 46.0147 111.584C46.5427 112.136 47.1907 112.568 47.9347 112.88C48.6787 113.192 49.4707 113.36 50.3347 113.36C51.2227 113.36 52.0147 113.192 52.7587 112.88C53.5027 112.568 54.1267 112.136 54.6787 111.584C55.2307 111.032 55.6387 110.384 55.9507 109.616C56.2627 108.872 56.4067 108.032 56.4067 107.144C56.4067 106.256 56.2627 105.416 55.9507 104.672C55.6387 103.928 55.2307 103.256 54.6787 102.704C54.1267 102.152 53.5027 101.72 52.7587 101.408C52.0147 101.096 51.2227 100.952 50.3347 100.952ZM58.3966 113H61.1806V95.624H58.3966V113ZM71.519 111.704C71.519 111.944 71.519 112.184 71.543 112.424C71.567 112.688 71.591 112.88 71.615 113H74.279C74.255 112.784 74.231 112.472 74.207 112.112C74.183 111.752 74.159 111.344 74.159 110.864V101.312H71.375V108.224C71.375 108.992 71.183 109.616 70.775 110.096C70.367 110.6 69.743 110.84 68.927 110.84C68.519 110.84 68.159 110.768 67.871 110.624C67.559 110.48 67.319 110.288 67.127 110.048C66.935 109.808 66.791 109.52 66.719 109.208C66.623 108.896 66.575 108.536 66.575 108.176V101.312H63.791V108.68C63.791 109.328 63.887 109.952 64.103 110.504C64.295 111.056 64.583 111.56 64.967 111.968C65.327 112.4 65.783 112.736 66.335 112.976C66.887 113.216 67.511 113.336 68.207 113.336C68.903 113.336 69.551 113.192 70.175 112.904C70.775 112.64 71.231 112.232 71.519 111.704ZM76.9019 113H79.6619V106.064C79.6619 105.32 79.8779 104.696 80.3099 104.216C80.7419 103.712 81.3419 103.472 82.0859 103.472C82.8779 103.472 83.4539 103.712 83.8139 104.168C84.1739 104.624 84.3419 105.2 84.3419 105.872V113H87.0779V106.064C87.0779 105.344 87.2939 104.744 87.7499 104.24C88.1819 103.736 88.7579 103.472 89.5019 103.472C90.2939 103.472 90.8699 103.712 91.2299 104.168C91.5899 104.624 91.7579 105.176 91.7579 105.872V113H94.4459V105.416C94.4459 104.648 94.3259 103.976 94.1099 103.424C93.8699 102.872 93.5579 102.416 93.1739 102.056C92.7899 101.696 92.3579 101.408 91.8539 101.24C91.3499 101.072 90.8459 100.976 90.3179 100.976C89.5499 100.976 88.8539 101.12 88.2059 101.432C87.5579 101.744 86.9819 102.272 86.5259 103.04C86.2139 102.344 85.7339 101.84 85.1099 101.504C84.4859 101.144 83.7899 100.976 83.0219 100.976C82.3739 100.976 81.7019 101.144 81.0539 101.456C80.4059 101.768 79.9019 102.2 79.5659 102.8V101.312H76.9019V113ZM104.913 105.872H99.1767C99.2007 105.56 99.2727 105.248 99.4167 104.936C99.5607 104.624 99.7527 104.36 99.9927 104.096C100.233 103.856 100.521 103.664 100.881 103.52C101.217 103.352 101.601 103.28 102.033 103.28C102.513 103.28 102.921 103.352 103.281 103.496C103.641 103.64 103.929 103.832 104.169 104.072C104.409 104.312 104.601 104.6 104.721 104.912C104.841 105.224 104.889 105.536 104.913 105.872ZM107.577 109.664L105.225 108.92C105.033 109.496 104.721 109.976 104.265 110.384C103.809 110.768 103.137 110.96 102.297 110.96C101.865 110.96 101.457 110.888 101.097 110.744C100.713 110.576 100.377 110.36 100.089 110.096C99.8007 109.832 99.5607 109.496 99.3927 109.136C99.2247 108.776 99.1287 108.368 99.1047 107.912H107.649C107.673 107.888 107.673 107.792 107.697 107.624C107.721 107.456 107.721 107.24 107.721 107.024C107.721 106.088 107.601 105.272 107.337 104.528C107.073 103.784 106.713 103.136 106.233 102.608C105.729 102.08 105.129 101.672 104.433 101.384C103.713 101.096 102.897 100.952 102.009 100.952C101.265 100.952 100.569 101.096 99.8727 101.408C99.1767 101.696 98.5767 102.104 98.0487 102.656C97.5207 103.184 97.1127 103.832 96.8007 104.576C96.4887 105.32 96.3207 106.16 96.3207 107.096C96.3207 108.08 96.4887 108.968 96.8247 109.736C97.1367 110.528 97.5687 111.176 98.1207 111.704C98.6727 112.256 99.2967 112.664 100.017 112.928C100.737 113.216 101.505 113.36 102.297 113.36C102.993 113.36 103.641 113.264 104.217 113.072C104.793 112.88 105.297 112.616 105.753 112.28C106.209 111.944 106.569 111.56 106.881 111.104C107.193 110.648 107.409 110.168 107.577 109.664Z" fill="white"/>
	<path d="M114.368 337H115.904V325.656H114.528C114.416 326.216 114.112 326.68 113.648 327.032C113.184 327.4 112.576 327.592 111.856 327.608V328.712H114.368V337ZM122.167 334.52L120.807 335C120.839 335.224 120.919 335.464 121.063 335.72C121.191 335.992 121.383 336.232 121.639 336.456C121.879 336.68 122.199 336.872 122.583 337.016C122.951 337.16 123.415 337.24 123.943 337.24C124.423 337.24 124.839 337.176 125.191 337.032C125.543 336.872 125.831 336.696 126.071 336.456C126.295 336.216 126.471 335.96 126.583 335.688C126.695 335.416 126.759 335.128 126.759 334.856C126.759 334.28 126.583 333.8 126.231 333.4C125.863 333 125.335 332.712 124.631 332.568L123.383 332.296C122.791 332.168 122.503 331.864 122.503 331.368C122.503 331.096 122.615 330.872 122.855 330.664C123.095 330.456 123.399 330.344 123.783 330.344C124.087 330.344 124.327 330.392 124.535 330.488C124.743 330.584 124.903 330.696 125.015 330.84C125.127 330.968 125.223 331.112 125.271 331.256C125.319 331.4 125.367 331.528 125.383 331.624L126.711 331.128C126.663 330.952 126.583 330.76 126.471 330.52C126.359 330.28 126.199 330.056 125.975 329.832C125.751 329.624 125.463 329.432 125.095 329.288C124.743 329.144 124.311 329.064 123.783 329.064C123.415 329.064 123.047 329.128 122.711 329.256C122.375 329.384 122.087 329.56 121.847 329.784C121.607 330.008 121.399 330.264 121.255 330.552C121.111 330.856 121.047 331.16 121.047 331.496C121.047 332.04 121.207 332.504 121.543 332.888C121.879 333.272 122.359 333.528 122.967 333.656L124.279 333.944C124.599 334.024 124.839 334.136 125.015 334.312C125.191 334.488 125.271 334.696 125.271 334.936C125.271 335.208 125.159 335.448 124.935 335.656C124.711 335.864 124.391 335.96 123.959 335.96C123.415 335.96 122.999 335.816 122.695 335.544C122.391 335.272 122.215 334.92 122.167 334.52ZM130.312 329.304V326.872H128.936V328.12C128.936 328.456 128.84 328.744 128.664 328.968C128.472 329.192 128.168 329.304 127.752 329.304H127.336V330.664H128.808V334.888C128.808 335.592 129 336.136 129.384 336.504C129.768 336.888 130.296 337.08 130.952 337.08C131.208 337.08 131.432 337.064 131.608 337.032C131.784 336.984 131.912 336.952 131.976 336.936V335.656C131.912 335.672 131.816 335.688 131.704 335.704C131.592 335.72 131.48 335.72 131.384 335.72C130.984 335.72 130.712 335.64 130.552 335.464C130.392 335.288 130.312 335.016 130.312 334.664V330.664H131.976V329.304H130.312ZM132.771 334.936C132.771 335.24 132.835 335.544 132.963 335.816C133.075 336.088 133.251 336.328 133.475 336.536C133.699 336.744 133.971 336.92 134.291 337.048C134.595 337.176 134.947 337.24 135.347 337.24C135.683 337.24 136.003 337.192 136.275 337.112C136.547 337.032 136.771 336.936 136.979 336.808C137.187 336.68 137.347 336.536 137.491 336.392C137.635 336.248 137.747 336.104 137.827 335.96C137.827 336.232 137.843 336.456 137.859 336.616C137.875 336.776 137.891 336.904 137.907 337H139.379C139.363 336.904 139.331 336.76 139.315 336.552C139.299 336.344 139.283 336.072 139.283 335.736V331.88C139.283 331.512 139.219 331.144 139.107 330.808C138.995 330.472 138.803 330.168 138.547 329.912C138.291 329.656 137.955 329.448 137.555 329.288C137.155 329.144 136.659 329.064 136.083 329.064C135.667 329.064 135.283 329.128 134.915 329.24C134.547 329.368 134.211 329.544 133.939 329.768C133.667 329.976 133.443 330.248 133.267 330.552C133.091 330.856 132.979 331.192 132.931 331.56L134.371 331.896C134.419 331.448 134.595 331.08 134.883 330.792C135.171 330.488 135.587 330.344 136.115 330.344C136.707 330.344 137.123 330.488 137.395 330.76C137.651 331.032 137.779 331.352 137.779 331.72C137.779 331.864 137.747 331.976 137.667 332.088C137.587 332.2 137.427 332.264 137.187 332.296L135.107 332.6C134.771 332.648 134.467 332.744 134.179 332.856C133.891 332.968 133.651 333.128 133.443 333.32C133.235 333.512 133.059 333.752 132.947 334.024C132.835 334.296 132.771 334.6 132.771 334.936ZM135.555 335.976C135.171 335.976 134.867 335.864 134.643 335.64C134.419 335.4 134.307 335.144 134.307 334.856C134.307 334.52 134.419 334.248 134.627 334.072C134.835 333.88 135.107 333.752 135.427 333.704L137.779 333.352V333.704C137.779 334.12 137.715 334.472 137.603 334.776C137.491 335.064 137.331 335.304 137.139 335.48C136.931 335.656 136.707 335.784 136.435 335.864C136.163 335.944 135.859 335.976 135.555 335.976ZM142.122 337.08L140.666 337.416C140.714 337.832 140.826 338.216 141.034 338.568C141.226 338.904 141.482 339.208 141.802 339.464C142.106 339.72 142.474 339.928 142.89 340.072C143.29 340.216 143.738 340.28 144.218 340.28C144.938 340.28 145.546 340.168 146.042 339.96C146.538 339.736 146.938 339.448 147.242 339.096C147.546 338.728 147.754 338.328 147.882 337.864C148.01 337.4 148.074 336.92 148.074 336.424V329.304H146.586V330.376C146.394 329.992 146.106 329.688 145.706 329.48C145.306 329.272 144.81 329.16 144.218 329.16C143.69 329.16 143.21 329.256 142.778 329.448C142.346 329.656 141.962 329.912 141.658 330.248C141.354 330.584 141.114 330.984 140.938 331.432C140.762 331.896 140.682 332.376 140.682 332.904C140.682 333.448 140.778 333.944 140.954 334.408C141.13 334.872 141.37 335.256 141.69 335.576C141.994 335.912 142.378 336.168 142.81 336.344C143.242 336.536 143.706 336.632 144.218 336.632C144.794 336.632 145.29 336.504 145.69 336.264C146.09 336.024 146.394 335.72 146.57 335.368V336.472C146.57 337.304 146.378 337.928 146.01 338.344C145.626 338.76 145.034 338.968 144.218 338.968C143.626 338.968 143.146 338.792 142.762 338.44C142.394 338.072 142.17 337.624 142.122 337.08ZM144.442 335.368C143.754 335.368 143.21 335.144 142.81 334.696C142.41 334.264 142.218 333.656 142.218 332.904C142.218 332.152 142.426 331.56 142.826 331.112C143.226 330.664 143.77 330.44 144.442 330.44C145.098 330.44 145.626 330.664 146.026 331.112C146.426 331.56 146.634 332.152 146.634 332.904C146.634 333.656 146.426 334.248 146.026 334.696C145.626 335.144 145.098 335.368 144.442 335.368ZM155.322 332.36H151.114C151.13 332.12 151.178 331.88 151.29 331.64C151.402 331.4 151.546 331.192 151.722 331C151.898 330.824 152.106 330.664 152.362 330.552C152.602 330.44 152.89 330.392 153.21 330.392C153.898 330.392 154.41 330.584 154.762 330.952C155.114 331.336 155.306 331.8 155.322 332.36ZM156.842 334.808L155.546 334.36C155.402 334.792 155.162 335.16 154.826 335.464C154.49 335.768 154.01 335.912 153.386 335.912C153.066 335.912 152.762 335.848 152.49 335.736C152.202 335.624 151.962 335.464 151.754 335.256C151.546 335.048 151.37 334.808 151.258 334.52C151.146 334.232 151.082 333.912 151.066 333.576H156.858C156.874 333.528 156.874 333.448 156.89 333.368C156.89 333.288 156.89 333.192 156.89 333.096C156.89 332.504 156.81 331.96 156.65 331.464C156.474 330.968 156.234 330.536 155.93 330.184C155.626 329.832 155.242 329.56 154.778 329.368C154.314 329.16 153.786 329.064 153.194 329.064C152.714 329.064 152.25 329.16 151.802 329.368C151.354 329.56 150.97 329.832 150.634 330.184C150.298 330.552 150.026 330.968 149.818 331.464C149.61 331.96 149.514 332.52 149.514 333.128C149.514 333.784 149.626 334.36 149.834 334.872C150.042 335.384 150.314 335.816 150.682 336.168C151.034 336.52 151.45 336.792 151.914 336.968C152.378 337.144 152.874 337.24 153.386 337.24C153.834 337.24 154.25 337.176 154.618 337.048C154.986 336.92 155.322 336.744 155.626 336.52C155.914 336.312 156.17 336.056 156.378 335.752C156.586 335.464 156.73 335.144 156.842 334.808Z" fill="#656D81"/>
	<path d="M375.865 337H383.673V335.56H377.737C377.817 335.192 377.977 334.84 378.201 334.536C378.441 334.232 378.713 333.96 379.049 333.752L381.385 332.312C382.057 331.896 382.585 331.4 382.969 330.84C383.369 330.28 383.561 329.624 383.561 328.888C383.561 328.424 383.481 327.976 383.305 327.56C383.129 327.144 382.889 326.776 382.569 326.472C382.249 326.152 381.849 325.896 381.385 325.72C380.921 325.544 380.393 325.448 379.801 325.448C379.177 325.448 378.633 325.544 378.153 325.752C377.673 325.944 377.273 326.2 376.937 326.536C376.601 326.872 376.361 327.256 376.185 327.704C376.009 328.136 375.929 328.6 375.929 329.096C375.929 329.208 375.929 329.32 375.945 329.464C375.961 329.608 375.977 329.72 375.993 329.8L377.481 329.864C377.465 329.752 377.449 329.656 377.433 329.56C377.417 329.448 377.417 329.352 377.417 329.272C377.417 328.536 377.641 327.944 378.073 327.496C378.505 327.048 379.097 326.824 379.849 326.824C380.185 326.824 380.473 326.888 380.745 327C381.017 327.112 381.257 327.256 381.433 327.448C381.625 327.624 381.769 327.848 381.865 328.104C381.977 328.36 382.025 328.632 382.025 328.92C382.025 329.432 381.881 329.88 381.593 330.264C381.321 330.632 380.905 331 380.345 331.352L378.281 332.648C377.833 332.92 377.449 333.224 377.145 333.56C376.841 333.88 376.601 334.232 376.409 334.6C376.233 334.968 376.089 335.368 376.009 335.768C375.929 336.168 375.881 336.584 375.865 337ZM389.557 334.52L388.197 335C388.229 335.224 388.309 335.464 388.453 335.72C388.581 335.992 388.773 336.232 389.029 336.456C389.269 336.68 389.589 336.872 389.973 337.016C390.341 337.16 390.805 337.24 391.333 337.24C391.813 337.24 392.229 337.176 392.581 337.032C392.933 336.872 393.221 336.696 393.461 336.456C393.685 336.216 393.861 335.96 393.973 335.688C394.085 335.416 394.149 335.128 394.149 334.856C394.149 334.28 393.973 333.8 393.621 333.4C393.253 333 392.725 332.712 392.021 332.568L390.773 332.296C390.181 332.168 389.893 331.864 389.893 331.368C389.893 331.096 390.005 330.872 390.245 330.664C390.485 330.456 390.789 330.344 391.173 330.344C391.477 330.344 391.717 330.392 391.925 330.488C392.133 330.584 392.293 330.696 392.405 330.84C392.517 330.968 392.613 331.112 392.661 331.256C392.709 331.4 392.757 331.528 392.773 331.624L394.101 331.128C394.053 330.952 393.973 330.76 393.861 330.52C393.749 330.28 393.589 330.056 393.365 329.832C393.141 329.624 392.853 329.432 392.485 329.288C392.133 329.144 391.701 329.064 391.173 329.064C390.805 329.064 390.437 329.128 390.101 329.256C389.765 329.384 389.477 329.56 389.237 329.784C388.997 330.008 388.789 330.264 388.645 330.552C388.501 330.856 388.437 331.16 388.437 331.496C388.437 332.04 388.597 332.504 388.933 332.888C389.269 333.272 389.749 333.528 390.357 333.656L391.669 333.944C391.989 334.024 392.229 334.136 392.405 334.312C392.581 334.488 392.661 334.696 392.661 334.936C392.661 335.208 392.549 335.448 392.325 335.656C392.101 335.864 391.781 335.96 391.349 335.96C390.805 335.96 390.389 335.816 390.085 335.544C389.781 335.272 389.605 334.92 389.557 334.52ZM397.703 329.304V326.872H396.327V328.12C396.327 328.456 396.231 328.744 396.055 328.968C395.863 329.192 395.559 329.304 395.143 329.304H394.727V330.664H396.199V334.888C396.199 335.592 396.391 336.136 396.775 336.504C397.159 336.888 397.687 337.08 398.343 337.08C398.599 337.08 398.823 337.064 398.999 337.032C399.175 336.984 399.303 336.952 399.367 336.936V335.656C399.303 335.672 399.207 335.688 399.095 335.704C398.983 335.72 398.871 335.72 398.775 335.72C398.375 335.72 398.103 335.64 397.943 335.464C397.783 335.288 397.703 335.016 397.703 334.664V330.664H399.367V329.304H397.703ZM400.162 334.936C400.162 335.24 400.226 335.544 400.354 335.816C400.466 336.088 400.642 336.328 400.866 336.536C401.09 336.744 401.362 336.92 401.682 337.048C401.986 337.176 402.338 337.24 402.738 337.24C403.074 337.24 403.394 337.192 403.666 337.112C403.938 337.032 404.162 336.936 404.37 336.808C404.578 336.68 404.738 336.536 404.882 336.392C405.026 336.248 405.138 336.104 405.218 335.96C405.218 336.232 405.234 336.456 405.25 336.616C405.266 336.776 405.282 336.904 405.298 337H406.77C406.754 336.904 406.722 336.76 406.706 336.552C406.69 336.344 406.674 336.072 406.674 335.736V331.88C406.674 331.512 406.61 331.144 406.498 330.808C406.386 330.472 406.194 330.168 405.938 329.912C405.682 329.656 405.346 329.448 404.946 329.288C404.546 329.144 404.05 329.064 403.474 329.064C403.058 329.064 402.674 329.128 402.306 329.24C401.938 329.368 401.602 329.544 401.33 329.768C401.058 329.976 400.834 330.248 400.658 330.552C400.482 330.856 400.37 331.192 400.322 331.56L401.762 331.896C401.81 331.448 401.986 331.08 402.274 330.792C402.562 330.488 402.978 330.344 403.506 330.344C404.098 330.344 404.514 330.488 404.786 330.76C405.042 331.032 405.17 331.352 405.17 331.72C405.17 331.864 405.138 331.976 405.058 332.088C404.978 332.2 404.818 332.264 404.578 332.296L402.498 332.6C402.162 332.648 401.858 332.744 401.57 332.856C401.282 332.968 401.042 333.128 400.834 333.32C400.626 333.512 400.45 333.752 400.338 334.024C400.226 334.296 400.162 334.6 400.162 334.936ZM402.946 335.976C402.562 335.976 402.258 335.864 402.034 335.64C401.81 335.4 401.698 335.144 401.698 334.856C401.698 334.52 401.81 334.248 402.018 334.072C402.226 333.88 402.498 333.752 402.818 333.704L405.17 333.352V333.704C405.17 334.12 405.106 334.472 404.994 334.776C404.882 335.064 404.722 335.304 404.53 335.48C404.322 335.656 404.098 335.784 403.826 335.864C403.554 335.944 403.25 335.976 402.946 335.976ZM409.513 337.08L408.057 337.416C408.105 337.832 408.217 338.216 408.425 338.568C408.617 338.904 408.873 339.208 409.193 339.464C409.497 339.72 409.865 339.928 410.281 340.072C410.681 340.216 411.129 340.28 411.609 340.28C412.329 340.28 412.937 340.168 413.433 339.96C413.929 339.736 414.329 339.448 414.633 339.096C414.937 338.728 415.145 338.328 415.273 337.864C415.401 337.4 415.465 336.92 415.465 336.424V329.304H413.977V330.376C413.785 329.992 413.497 329.688 413.097 329.48C412.697 329.272 412.201 329.16 411.609 329.16C411.081 329.16 410.601 329.256 410.169 329.448C409.737 329.656 409.353 329.912 409.049 330.248C408.745 330.584 408.505 330.984 408.329 331.432C408.153 331.896 408.073 332.376 408.073 332.904C408.073 333.448 408.169 333.944 408.345 334.408C408.521 334.872 408.761 335.256 409.081 335.576C409.385 335.912 409.769 336.168 410.201 336.344C410.633 336.536 411.097 336.632 411.609 336.632C412.185 336.632 412.681 336.504 413.081 336.264C413.481 336.024 413.785 335.72 413.961 335.368V336.472C413.961 337.304 413.769 337.928 413.401 338.344C413.017 338.76 412.425 338.968 411.609 338.968C411.017 338.968 410.537 338.792 410.153 338.44C409.785 338.072 409.561 337.624 409.513 337.08ZM411.833 335.368C411.145 335.368 410.601 335.144 410.201 334.696C409.801 334.264 409.609 333.656 409.609 332.904C409.609 332.152 409.817 331.56 410.217 331.112C410.617 330.664 411.161 330.44 411.833 330.44C412.489 330.44 413.017 330.664 413.417 331.112C413.817 331.56 414.025 332.152 414.025 332.904C414.025 333.656 413.817 334.248 413.417 334.696C413.017 335.144 412.489 335.368 411.833 335.368ZM422.713 332.36H418.505C418.521 332.12 418.569 331.88 418.681 331.64C418.793 331.4 418.937 331.192 419.113 331C419.289 330.824 419.497 330.664 419.753 330.552C419.993 330.44 420.281 330.392 420.601 330.392C421.289 330.392 421.801 330.584 422.153 330.952C422.505 331.336 422.697 331.8 422.713 332.36ZM424.233 334.808L422.937 334.36C422.793 334.792 422.553 335.16 422.217 335.464C421.881 335.768 421.401 335.912 420.777 335.912C420.457 335.912 420.153 335.848 419.881 335.736C419.593 335.624 419.353 335.464 419.145 335.256C418.937 335.048 418.761 334.808 418.649 334.52C418.537 334.232 418.473 333.912 418.457 333.576H424.249C424.265 333.528 424.265 333.448 424.281 333.368C424.281 333.288 424.281 333.192 424.281 333.096C424.281 332.504 424.201 331.96 424.041 331.464C423.865 330.968 423.625 330.536 423.321 330.184C423.017 329.832 422.633 329.56 422.169 329.368C421.705 329.16 421.177 329.064 420.585 329.064C420.105 329.064 419.641 329.16 419.193 329.368C418.745 329.56 418.361 329.832 418.025 330.184C417.689 330.552 417.417 330.968 417.209 331.464C417.001 331.96 416.905 332.52 416.905 333.128C416.905 333.784 417.017 334.36 417.225 334.872C417.433 335.384 417.705 335.816 418.073 336.168C418.425 336.52 418.841 336.792 419.305 336.968C419.769 337.144 420.265 337.24 420.777 337.24C421.225 337.24 421.641 337.176 422.009 337.048C422.377 336.92 422.713 336.744 423.017 336.52C423.305 336.312 423.561 336.056 423.769 335.752C423.977 335.464 424.121 335.144 424.233 334.808Z" fill="#656D81"/>
	<path d="M645.96 330.152C645.912 330.152 645.864 330.152 645.784 330.168C645.704 330.184 645.64 330.2 645.592 330.216L649 326.952V325.656H641.448V327.096H647.016L643.592 330.392L644.28 331.528C644.424 331.464 644.6 331.416 644.776 331.368C644.968 331.32 645.16 331.304 645.336 331.304C645.688 331.304 646.008 331.352 646.296 331.448C646.6 331.56 646.856 331.704 647.064 331.896C647.272 332.088 647.448 332.328 647.56 332.6C647.688 332.888 647.752 333.208 647.752 333.56C647.752 333.896 647.688 334.2 647.56 334.472C647.448 334.744 647.272 334.984 647.048 335.192C646.84 335.4 646.568 335.544 646.264 335.656C645.96 335.768 645.608 335.832 645.24 335.832C644.888 335.832 644.552 335.768 644.232 335.656C643.928 335.544 643.656 335.368 643.416 335.144C643.192 334.936 643 334.664 642.856 334.36C642.712 334.056 642.648 333.704 642.632 333.336L641.144 333.672C641.176 334.168 641.288 334.632 641.496 335.064C641.704 335.496 641.976 335.864 642.328 336.184C642.696 336.504 643.112 336.76 643.608 336.936C644.104 337.112 644.648 337.208 645.256 337.208C645.864 337.208 646.408 337.112 646.904 336.92C647.4 336.728 647.832 336.472 648.184 336.136C648.552 335.8 648.824 335.416 649.016 334.984C649.208 334.552 649.304 334.088 649.304 333.592C649.304 333.064 649.208 332.6 649.032 332.184C648.856 331.752 648.6 331.4 648.296 331.112C647.992 330.808 647.64 330.584 647.24 330.424C646.84 330.248 646.408 330.168 645.96 330.152ZM655.182 334.52L653.822 335C653.854 335.224 653.934 335.464 654.078 335.72C654.206 335.992 654.398 336.232 654.654 336.456C654.894 336.68 655.214 336.872 655.598 337.016C655.966 337.16 656.43 337.24 656.958 337.24C657.438 337.24 657.854 337.176 658.206 337.032C658.558 336.872 658.846 336.696 659.086 336.456C659.31 336.216 659.486 335.96 659.598 335.688C659.71 335.416 659.774 335.128 659.774 334.856C659.774 334.28 659.598 333.8 659.246 333.4C658.878 333 658.35 332.712 657.646 332.568L656.398 332.296C655.806 332.168 655.518 331.864 655.518 331.368C655.518 331.096 655.63 330.872 655.87 330.664C656.11 330.456 656.414 330.344 656.798 330.344C657.102 330.344 657.342 330.392 657.55 330.488C657.758 330.584 657.918 330.696 658.03 330.84C658.142 330.968 658.238 331.112 658.286 331.256C658.334 331.4 658.382 331.528 658.398 331.624L659.726 331.128C659.678 330.952 659.598 330.76 659.486 330.52C659.374 330.28 659.214 330.056 658.99 329.832C658.766 329.624 658.478 329.432 658.11 329.288C657.758 329.144 657.326 329.064 656.798 329.064C656.43 329.064 656.062 329.128 655.726 329.256C655.39 329.384 655.102 329.56 654.862 329.784C654.622 330.008 654.414 330.264 654.27 330.552C654.126 330.856 654.062 331.16 654.062 331.496C654.062 332.04 654.222 332.504 654.558 332.888C654.894 333.272 655.374 333.528 655.982 333.656L657.294 333.944C657.614 334.024 657.854 334.136 658.03 334.312C658.206 334.488 658.286 334.696 658.286 334.936C658.286 335.208 658.174 335.448 657.95 335.656C657.726 335.864 657.406 335.96 656.974 335.96C656.43 335.96 656.014 335.816 655.71 335.544C655.406 335.272 655.23 334.92 655.182 334.52ZM663.328 329.304V326.872H661.952V328.12C661.952 328.456 661.856 328.744 661.68 328.968C661.488 329.192 661.184 329.304 660.768 329.304H660.352V330.664H661.824V334.888C661.824 335.592 662.016 336.136 662.4 336.504C662.784 336.888 663.312 337.08 663.968 337.08C664.224 337.08 664.448 337.064 664.624 337.032C664.8 336.984 664.928 336.952 664.992 336.936V335.656C664.928 335.672 664.832 335.688 664.72 335.704C664.608 335.72 664.496 335.72 664.4 335.72C664 335.72 663.728 335.64 663.568 335.464C663.408 335.288 663.328 335.016 663.328 334.664V330.664H664.992V329.304H663.328ZM665.787 334.936C665.787 335.24 665.851 335.544 665.979 335.816C666.091 336.088 666.267 336.328 666.491 336.536C666.715 336.744 666.987 336.92 667.307 337.048C667.611 337.176 667.963 337.24 668.363 337.24C668.699 337.24 669.019 337.192 669.291 337.112C669.563 337.032 669.787 336.936 669.995 336.808C670.203 336.68 670.363 336.536 670.507 336.392C670.651 336.248 670.763 336.104 670.843 335.96C670.843 336.232 670.859 336.456 670.875 336.616C670.891 336.776 670.907 336.904 670.923 337H672.395C672.379 336.904 672.347 336.76 672.331 336.552C672.315 336.344 672.299 336.072 672.299 335.736V331.88C672.299 331.512 672.235 331.144 672.123 330.808C672.011 330.472 671.819 330.168 671.563 329.912C671.307 329.656 670.971 329.448 670.571 329.288C670.171 329.144 669.675 329.064 669.099 329.064C668.683 329.064 668.299 329.128 667.931 329.24C667.563 329.368 667.227 329.544 666.955 329.768C666.683 329.976 666.459 330.248 666.283 330.552C666.107 330.856 665.995 331.192 665.947 331.56L667.387 331.896C667.435 331.448 667.611 331.08 667.899 330.792C668.187 330.488 668.603 330.344 669.131 330.344C669.723 330.344 670.139 330.488 670.411 330.76C670.667 331.032 670.795 331.352 670.795 331.72C670.795 331.864 670.763 331.976 670.683 332.088C670.603 332.2 670.443 332.264 670.203 332.296L668.123 332.6C667.787 332.648 667.483 332.744 667.195 332.856C666.907 332.968 666.667 333.128 666.459 333.32C666.251 333.512 666.075 333.752 665.963 334.024C665.851 334.296 665.787 334.6 665.787 334.936ZM668.571 335.976C668.187 335.976 667.883 335.864 667.659 335.64C667.435 335.4 667.323 335.144 667.323 334.856C667.323 334.52 667.435 334.248 667.643 334.072C667.851 333.88 668.123 333.752 668.443 333.704L670.795 333.352V333.704C670.795 334.12 670.731 334.472 670.619 334.776C670.507 335.064 670.347 335.304 670.155 335.48C669.947 335.656 669.723 335.784 669.451 335.864C669.179 335.944 668.875 335.976 668.571 335.976ZM675.138 337.08L673.682 337.416C673.73 337.832 673.842 338.216 674.05 338.568C674.242 338.904 674.498 339.208 674.818 339.464C675.122 339.72 675.49 339.928 675.906 340.072C676.306 340.216 676.754 340.28 677.234 340.28C677.954 340.28 678.562 340.168 679.058 339.96C679.554 339.736 679.954 339.448 680.258 339.096C680.562 338.728 680.77 338.328 680.898 337.864C681.026 337.4 681.09 336.92 681.09 336.424V329.304H679.602V330.376C679.41 329.992 679.122 329.688 678.722 329.48C678.322 329.272 677.826 329.16 677.234 329.16C676.706 329.16 676.226 329.256 675.794 329.448C675.362 329.656 674.978 329.912 674.674 330.248C674.37 330.584 674.13 330.984 673.954 331.432C673.778 331.896 673.698 332.376 673.698 332.904C673.698 333.448 673.794 333.944 673.97 334.408C674.146 334.872 674.386 335.256 674.706 335.576C675.01 335.912 675.394 336.168 675.826 336.344C676.258 336.536 676.722 336.632 677.234 336.632C677.81 336.632 678.306 336.504 678.706 336.264C679.106 336.024 679.41 335.72 679.586 335.368V336.472C679.586 337.304 679.394 337.928 679.026 338.344C678.642 338.76 678.05 338.968 677.234 338.968C676.642 338.968 676.162 338.792 675.778 338.44C675.41 338.072 675.186 337.624 675.138 337.08ZM677.458 335.368C676.77 335.368 676.226 335.144 675.826 334.696C675.426 334.264 675.234 333.656 675.234 332.904C675.234 332.152 675.442 331.56 675.842 331.112C676.242 330.664 676.786 330.44 677.458 330.44C678.114 330.44 678.642 330.664 679.042 331.112C679.442 331.56 679.65 332.152 679.65 332.904C679.65 333.656 679.442 334.248 679.042 334.696C678.642 335.144 678.114 335.368 677.458 335.368ZM688.338 332.36H684.13C684.146 332.12 684.194 331.88 684.306 331.64C684.418 331.4 684.562 331.192 684.738 331C684.914 330.824 685.122 330.664 685.378 330.552C685.618 330.44 685.906 330.392 686.226 330.392C686.914 330.392 687.426 330.584 687.778 330.952C688.13 331.336 688.322 331.8 688.338 332.36ZM689.858 334.808L688.562 334.36C688.418 334.792 688.178 335.16 687.842 335.464C687.506 335.768 687.026 335.912 686.402 335.912C686.082 335.912 685.778 335.848 685.506 335.736C685.218 335.624 684.978 335.464 684.77 335.256C684.562 335.048 684.386 334.808 684.274 334.52C684.162 334.232 684.098 333.912 684.082 333.576H689.874C689.89 333.528 689.89 333.448 689.906 333.368C689.906 333.288 689.906 333.192 689.906 333.096C689.906 332.504 689.826 331.96 689.666 331.464C689.49 330.968 689.25 330.536 688.946 330.184C688.642 329.832 688.258 329.56 687.794 329.368C687.33 329.16 686.802 329.064 686.21 329.064C685.73 329.064 685.266 329.16 684.818 329.368C684.37 329.56 683.986 329.832 683.65 330.184C683.314 330.552 683.042 330.968 682.834 331.464C682.626 331.96 682.53 332.52 682.53 333.128C682.53 333.784 682.642 334.36 682.85 334.872C683.058 335.384 683.33 335.816 683.698 336.168C684.05 336.52 684.466 336.792 684.93 336.968C685.394 337.144 685.89 337.24 686.402 337.24C686.85 337.24 687.266 337.176 687.634 337.048C688.002 336.92 688.338 336.744 688.642 336.52C688.93 336.312 689.186 336.056 689.394 335.752C689.602 335.464 689.746 335.144 689.858 334.808Z" fill="#656D81"/>
	<path d="M0.597916 354.084C0.0922425 354.306 -0.137668 354.896 0.0843973 355.402C0.306462 355.908 0.896411 356.138 1.40208 355.916L0.597916 354.084ZM798.932 5.36311C799.132 4.84852 798.878 4.26879 798.363 4.06825L789.977 0.800236C789.463 0.599694 788.883 0.85428 788.683 1.36887C788.482 1.88346 788.737 2.46318 789.251 2.66373L796.705 5.56863L793.8 13.0226C793.6 13.5372 793.854 14.1169 794.369 14.3174C794.883 14.518 795.463 14.2634 795.664 13.7488L798.932 5.36311ZM1.40208 355.916L399.902 180.916L399.098 179.084L0.597916 354.084L1.40208 355.916ZM399.902 180.916L798.402 5.9156L797.598 4.08439L399.098 179.084L399.902 180.916Z" fill="#191B20"/>
	<rect x="358" y="225" width="440" height="54" rx="27" fill="#28D180"/>
	<path d="M398.249 254.28L401.825 261H405.089L401.249 253.992C402.449 253.704 403.385 253.128 404.081 252.264C404.753 251.4 405.089 250.368 405.089 249.144C405.089 248.424 404.969 247.752 404.729 247.128C404.465 246.504 404.129 245.952 403.673 245.472C403.217 245.016 402.641 244.632 401.993 244.368C401.321 244.104 400.577 243.984 399.761 243.984H393.233V261H396.137V254.28H398.249ZM399.233 251.736H396.137V246.528H399.233C400.121 246.528 400.841 246.768 401.369 247.224C401.897 247.704 402.161 248.352 402.161 249.144C402.161 249.936 401.897 250.56 401.369 251.04C400.841 251.496 400.121 251.736 399.233 251.736ZM414.484 253.872H408.748C408.772 253.56 408.844 253.248 408.988 252.936C409.132 252.624 409.324 252.36 409.564 252.096C409.804 251.856 410.092 251.664 410.452 251.52C410.788 251.352 411.172 251.28 411.604 251.28C412.084 251.28 412.492 251.352 412.852 251.496C413.212 251.64 413.5 251.832 413.74 252.072C413.98 252.312 414.172 252.6 414.292 252.912C414.412 253.224 414.46 253.536 414.484 253.872ZM417.148 257.664L414.796 256.92C414.604 257.496 414.292 257.976 413.836 258.384C413.38 258.768 412.708 258.96 411.868 258.96C411.436 258.96 411.028 258.888 410.668 258.744C410.284 258.576 409.948 258.36 409.66 258.096C409.372 257.832 409.132 257.496 408.964 257.136C408.796 256.776 408.7 256.368 408.676 255.912H417.22C417.244 255.888 417.244 255.792 417.268 255.624C417.292 255.456 417.292 255.24 417.292 255.024C417.292 254.088 417.172 253.272 416.908 252.528C416.644 251.784 416.284 251.136 415.804 250.608C415.3 250.08 414.7 249.672 414.004 249.384C413.284 249.096 412.468 248.952 411.58 248.952C410.836 248.952 410.14 249.096 409.444 249.408C408.748 249.696 408.148 250.104 407.62 250.656C407.092 251.184 406.684 251.832 406.372 252.576C406.06 253.32 405.892 254.16 405.892 255.096C405.892 256.08 406.06 256.968 406.396 257.736C406.708 258.528 407.14 259.176 407.692 259.704C408.244 260.256 408.868 260.664 409.588 260.928C410.308 261.216 411.076 261.36 411.868 261.36C412.564 261.36 413.212 261.264 413.788 261.072C414.364 260.88 414.868 260.616 415.324 260.28C415.78 259.944 416.14 259.56 416.452 259.104C416.764 258.648 416.98 258.168 417.148 257.664ZM425.069 261L429.653 249.312H426.725L423.701 257.664L420.605 249.312H417.533L422.285 261H425.069ZM438.568 253.872H432.832C432.856 253.56 432.928 253.248 433.072 252.936C433.216 252.624 433.408 252.36 433.648 252.096C433.888 251.856 434.176 251.664 434.536 251.52C434.872 251.352 435.256 251.28 435.688 251.28C436.168 251.28 436.576 251.352 436.936 251.496C437.296 251.64 437.584 251.832 437.824 252.072C438.064 252.312 438.256 252.6 438.376 252.912C438.496 253.224 438.544 253.536 438.568 253.872ZM441.232 257.664L438.88 256.92C438.688 257.496 438.376 257.976 437.92 258.384C437.464 258.768 436.792 258.96 435.952 258.96C435.52 258.96 435.112 258.888 434.752 258.744C434.368 258.576 434.032 258.36 433.744 258.096C433.456 257.832 433.216 257.496 433.048 257.136C432.88 256.776 432.784 256.368 432.76 255.912H441.304C441.328 255.888 441.328 255.792 441.352 255.624C441.376 255.456 441.376 255.24 441.376 255.024C441.376 254.088 441.256 253.272 440.992 252.528C440.728 251.784 440.368 251.136 439.888 250.608C439.384 250.08 438.784 249.672 438.088 249.384C437.368 249.096 436.552 248.952 435.664 248.952C434.92 248.952 434.224 249.096 433.528 249.408C432.832 249.696 432.232 250.104 431.704 250.656C431.176 251.184 430.768 251.832 430.456 252.576C430.144 253.32 429.976 254.16 429.976 255.096C429.976 256.08 430.144 256.968 430.48 257.736C430.792 258.528 431.224 259.176 431.776 259.704C432.328 260.256 432.952 260.664 433.672 260.928C434.392 261.216 435.16 261.36 435.952 261.36C436.648 261.36 437.296 261.264 437.872 261.072C438.448 260.88 438.952 260.616 439.408 260.28C439.864 259.944 440.224 259.56 440.536 259.104C440.848 258.648 441.064 258.168 441.232 257.664ZM446.143 261V254.256C446.143 253.488 446.359 252.84 446.767 252.288C447.175 251.76 447.775 251.496 448.567 251.496C449.455 251.496 450.079 251.736 450.439 252.24C450.799 252.744 450.967 253.368 450.967 254.088V261H453.751V253.608C453.751 252.96 453.655 252.36 453.487 251.808C453.319 251.256 453.055 250.752 452.719 250.32C452.359 249.912 451.927 249.576 451.399 249.336C450.871 249.096 450.247 248.976 449.527 248.976C448.879 248.976 448.231 249.12 447.607 249.408C446.959 249.72 446.455 250.2 446.071 250.872V249.312H443.359V261H446.143ZM463.981 259.704C463.981 259.944 463.981 260.184 464.005 260.424C464.029 260.688 464.053 260.88 464.077 261H466.741C466.717 260.784 466.693 260.472 466.669 260.112C466.645 259.752 466.621 259.344 466.621 258.864V249.312H463.837V256.224C463.837 256.992 463.645 257.616 463.237 258.096C462.829 258.6 462.205 258.84 461.389 258.84C460.981 258.84 460.621 258.768 460.333 258.624C460.021 258.48 459.781 258.288 459.589 258.048C459.397 257.808 459.253 257.52 459.181 257.208C459.085 256.896 459.037 256.536 459.037 256.176V249.312H456.253V256.68C456.253 257.328 456.349 257.952 456.565 258.504C456.757 259.056 457.045 259.56 457.429 259.968C457.789 260.4 458.245 260.736 458.797 260.976C459.349 261.216 459.973 261.336 460.669 261.336C461.365 261.336 462.013 261.192 462.637 260.904C463.237 260.64 463.693 260.232 463.981 259.704ZM477.212 253.872H471.476C471.5 253.56 471.572 253.248 471.716 252.936C471.86 252.624 472.052 252.36 472.292 252.096C472.532 251.856 472.82 251.664 473.18 251.52C473.516 251.352 473.9 251.28 474.332 251.28C474.812 251.28 475.22 251.352 475.58 251.496C475.94 251.64 476.228 251.832 476.468 252.072C476.708 252.312 476.9 252.6 477.02 252.912C477.14 253.224 477.188 253.536 477.212 253.872ZM479.876 257.664L477.524 256.92C477.332 257.496 477.02 257.976 476.564 258.384C476.108 258.768 475.436 258.96 474.596 258.96C474.164 258.96 473.756 258.888 473.396 258.744C473.012 258.576 472.676 258.36 472.388 258.096C472.1 257.832 471.86 257.496 471.692 257.136C471.524 256.776 471.428 256.368 471.404 255.912H479.948C479.972 255.888 479.972 255.792 479.996 255.624C480.02 255.456 480.02 255.24 480.02 255.024C480.02 254.088 479.9 253.272 479.636 252.528C479.372 251.784 479.012 251.136 478.532 250.608C478.028 250.08 477.428 249.672 476.732 249.384C476.012 249.096 475.196 248.952 474.308 248.952C473.564 248.952 472.868 249.096 472.172 249.408C471.476 249.696 470.876 250.104 470.348 250.656C469.82 251.184 469.412 251.832 469.1 252.576C468.788 253.32 468.62 254.16 468.62 255.096C468.62 256.08 468.788 256.968 469.124 257.736C469.436 258.528 469.868 259.176 470.42 259.704C470.972 260.256 471.596 260.664 472.316 260.928C473.036 261.216 473.804 261.36 474.596 261.36C475.292 261.36 475.94 261.264 476.516 261.072C477.092 260.88 477.596 260.616 478.052 260.28C478.508 259.944 478.868 259.56 479.18 259.104C479.492 258.648 479.708 258.168 479.876 257.664Z" fill="white"/>
</svg>
