<svg width="800" height="410" viewBox="0 0 800 410" fill="none" xmlns="http://www.w3.org/2000/svg">
	<line x1="3" y1="305" x2="800" y2="305" stroke="#F7F7F7" stroke-width="2" stroke-dasharray="9 9"/>
	<line x1="3" y1="254.369" x2="800" y2="254.369" stroke="#F7F7F7" stroke-width="2" stroke-dasharray="9 9"/>
	<line x1="3" y1="403.479" x2="800" y2="403.479" stroke="#F7F7F7" stroke-width="2" stroke-dasharray="9 9"/>
	<line x1="3" y1="204.891" x2="800" y2="204.891" stroke="#F7F7F7" stroke-width="2" stroke-dasharray="9 9"/>
	<line x1="3" y1="354" x2="800" y2="354" stroke="#F7F7F7" stroke-width="2" stroke-dasharray="9 9"/>
	<line x1="3" y1="154.26" x2="800" y2="154.26" stroke="#F7F7F7" stroke-width="2" stroke-dasharray="9 9"/>
	<line x1="3" y1="103.631" x2="800" y2="103.631" stroke="#F7F7F7" stroke-width="2" stroke-dasharray="9 9"/>
	<line x1="3" y1="53" x2="800" y2="53" stroke="#F7F7F7" stroke-width="2" stroke-dasharray="9 9"/>
	<path d="M2 110.9L7.60851 100.454L17.8908 160.673L22.5646 158.83L29.1078 174.191L37.5206 128.72L44.0639 164.974L49.6724 166.203L54.3461 178.493L57.1504 155.757L63.6937 160.673L66.4979 139.781H70.2369L78.6497 125.033L85.193 139.781L87.9972 123.19L92.671 116.43L94.5405 104.141L104.823 98.6105L107.627 72.1879L116.04 64.1997L119.779 69.1155L123.518 86.9354L128.192 78.3327V82.6341L133.8 76.4893L142.213 74.0314L148.756 113.973L151.56 110.9L155.299 125.033L160.908 119.503L164.647 126.877L167.451 158.83L177.733 137.323L180.538 153.299L184.277 145.311L188.016 148.383L190.82 155.757L198.298 132.407L202.972 136.094L209.515 155.757L215.124 158.83H220.732L224.471 145.311V174.191L230.08 160.673L233.819 155.757L241.297 178.493L246.905 169.276L247.84 168.661L254.383 178.493L258.122 153.299L261.861 193.24L270.274 206.144L274.013 225.808L277.752 266.978L280.556 256.532L284.295 279.882H286.165L293.643 276.195L299.251 252.845L302.055 270.05L307.664 263.291L311.403 284.798L316.077 265.134L319.816 278.038L327.294 265.134L331.033 278.038L334.772 272.508L346.924 284.798L355.336 273.737V247.929H360.945L365.619 270.05L370.292 263.291L374.031 272.508L380.575 270.05L386.183 252.845L389.922 258.375L394.596 266.978L399.27 268.821L404.878 284.798L411.422 322.281L414.226 357.921L417.965 360.993L420.769 355.463L425.443 376.97L432.921 398.476L438.529 378.813H445.073C444.138 380.042 442.829 382.869 445.073 384.343C447.316 385.818 451.616 377.584 453.485 373.283L460.029 368.367L474.05 384.343L480.593 386.801L485.267 394.79H489.941L494.614 383.114H499.288L506.766 368.367H516.114L526.396 392.946L530.135 381.885L542.287 372.054L546.961 376.97L553.504 347.475L560.047 348.704L569.395 357.921L575.003 356.692L577.807 372.054H581.546L588.09 340.715L598.372 346.246L610.524 351.776L615.198 355.463L619.871 348.704L623.61 351.776L631.088 340.715L635.762 348.704L638.566 339.486H641.371L647.914 333.956H655.392L662.87 340.715L665.674 347.475L671.283 348.704L675.956 376.97L683.434 368.367L686.239 372.054L690.912 368.367L696.521 370.825V368.367L703.064 383.114L711.477 390.488L715.216 381.885L718.02 388.03L723.629 384.343L731.107 386.801L735.781 388.03L738.585 384.343L746.063 401.549L750.737 394.79H753.541L755.41 369.596L764.758 364.066L770.366 357.921L773.171 383.114H776.91L780.649 390.488L789.061 385.572H791.866" stroke="#FFD439" stroke-width="2" stroke-linecap="square"/>
	<circle cx="794.414" cy="385.751" r="4.58632" fill="#FFD439"/>
	<g opacity="0.3">
		<path opacity="0.5" d="M7.60851 100.454L2 110.9V406.135H791.866V385.572H789.061L780.649 390.488L776.91 383.114H773.171L770.366 357.921L764.758 364.066L755.41 369.596L753.541 394.79H750.737L746.063 401.549L738.585 384.343L735.781 388.03L731.107 386.801L723.629 384.343L718.02 388.03L715.216 381.885L711.477 390.488L703.064 383.114L696.521 368.367V370.825L690.912 368.367L686.239 372.054L683.434 368.367L675.956 376.97L671.283 348.704L665.674 347.475L662.87 340.715L655.392 333.956H647.914L641.371 339.486H638.566L635.762 348.704L631.088 340.715L623.61 351.776L619.871 348.704L615.198 355.463L610.524 351.776L598.372 346.246L588.09 340.715L581.546 372.054H577.807L575.003 356.692L569.395 357.921L560.047 348.704L553.504 347.475L546.961 376.97L542.287 372.054L530.135 381.885L526.396 392.946L516.114 368.367H506.766L499.288 383.114H494.614L489.941 394.79H485.267L480.593 386.801L474.05 384.343L460.029 368.367L453.485 373.283C451.616 377.584 447.316 385.818 445.073 384.343C442.829 382.869 444.138 380.042 445.073 378.813H438.529L432.921 398.476L425.443 376.97L420.769 355.463L417.965 360.993L414.226 357.921L411.422 322.281L404.878 284.798L399.27 268.821L394.596 266.978L389.922 258.375L386.183 252.845L380.575 270.05L374.031 272.508L370.292 263.291L365.619 270.05L360.945 247.929H355.336V273.737L346.924 284.798L334.772 272.508L331.033 278.038L327.294 265.134L319.816 278.038L316.077 265.134L311.403 284.798L307.664 263.291L302.055 270.05L299.251 252.845L293.643 276.195L286.165 279.882H284.295L280.556 256.532L277.752 266.978L274.013 225.808L270.274 206.144L261.861 193.24L258.122 153.299L254.383 178.493L247.84 168.661L246.905 169.276L241.297 178.493L233.819 155.757L230.08 160.673L224.471 174.191V145.311L220.732 158.83H215.124L209.515 155.757L202.972 136.094L198.298 132.407L190.82 155.757L188.016 148.383L184.277 145.311L180.538 153.299L177.733 137.323L167.451 158.83L164.647 126.877L160.908 119.503L155.299 125.033L151.56 110.9L148.756 113.973L142.213 74.0314L133.8 76.4893L128.192 82.6341V78.3327L123.518 86.9354L119.779 69.1155L116.04 64.1997L107.627 72.1879L104.823 98.6105L94.5405 104.141L92.671 116.43L87.9972 123.19L85.193 139.781L78.6497 125.033L70.2369 139.781H66.4979L63.6937 160.673L57.1504 155.757L54.3461 178.493L49.6724 166.203L44.0639 164.974L37.5206 128.72L29.1078 174.191L22.5646 158.83L17.8908 160.673L7.60851 100.454Z" fill="url(#paint0_linear_9685_75770)"/>
	</g>
	<path d="M384.08 373.766L388.903 355.371L392.761 389.708H399.512L404.334 386.642L411.084 396.453L416.871 346.174L421.693 363.956V348.627L429.408 360.89L438.088 67.1895L441.946 86.8104L449.661 16.2979L454.483 42.6634L459.305 34.0793L462.198 88.6499H466.056L475.7 47.5686L483.415 113.789L486.309 97.8472L494.024 105.205L500.775 73.3211L502.704 135.863L507.526 117.468L509.455 130.957L515.242 122.373L518.135 131.571L526.815 117.468L528.743 121.76L535.494 119.308L537.423 101.526L541.281 134.023L550.925 153.644L554.783 142.607L559.605 148.126L562.498 129.118L565.391 145.06L570.213 138.315L575.035 154.87L582.751 142.607L591.43 154.87L598.181 141.381L601.074 146.899L612.647 138.928L615.541 142.607L619.398 134.023L623.256 146.899L628.078 131.571L636.757 190.433L639.651 153.644L652.187 141.381L655.08 152.418L660.866 145.673L670.51 154.87L676.297 155.484L682.083 131.571L685.941 130.957L691.727 122.373L696.549 126.665L703.3 85.5841L707.158 88.6499L719.695 74.5474L722.589 20.5899L730.304 43.8897L732.233 94.7814L737.055 64.7369L742.841 153.644L748.628 145.06L752.485 149.965L759.236 148.126L766.952 152.418L772.738 148.126L776.596 155.484L779.489 124.826L783.347 148.126L789.133 135.863L794.92 133.41" stroke="#28D180" stroke-width="2" stroke-linecap="square"/>
	<path opacity="0.5" d="M384.081 374.23H382.152V409.702H794.921V133.562L789.134 136.018L783.348 148.297L779.49 124.967L776.597 155.664L772.739 148.297L766.953 152.594L759.238 148.297L752.487 150.139L748.629 145.227L742.843 153.822L737.056 64.7997L732.234 94.8832L730.305 43.9255L722.59 20.5955L719.697 74.6229L707.159 88.7437L703.302 85.674L696.551 126.809L691.729 122.511L685.942 131.106L682.085 131.72L676.298 155.664L670.512 155.05L660.868 145.841L655.081 152.594L652.188 141.543L639.65 153.822L636.757 190.659L628.078 131.72L623.255 147.069L619.398 134.176L615.54 142.771L612.647 139.087L601.074 147.069L598.181 141.543L591.43 155.05L582.75 142.771L575.035 155.05L570.213 138.474L565.391 145.227L562.497 129.264L559.604 148.297L554.782 142.771L550.925 153.822L541.28 134.176L537.423 101.637L535.494 119.441L528.743 121.897L526.814 117.599L518.135 131.72L515.241 122.511L509.455 131.106L507.526 117.599L502.704 136.018L500.775 73.395L494.024 105.32L486.309 97.9529L483.416 113.916L475.7 47.6092L466.056 88.7437H462.199L459.305 34.1023L454.483 42.6976L449.661 16.2979L441.946 86.9019L438.088 67.2555L429.409 361.337L421.693 349.058V364.406L416.871 346.602L411.085 396.946L404.334 387.122L399.512 390.192H392.761L388.903 355.811L384.081 374.23Z" fill="url(#paint1_linear_9685_75770)" fill-opacity="0.4"/>
	<circle cx="794.412" cy="134.013" r="4.58632" fill="#28D180"/>
	<rect x="24" width="64.5484" height="23" rx="11.5" fill="#F8F8F8"/>
	<path d="M54.1513 16.6953C54.7856 16.6953 55.3636 16.5967 55.8711 16.4134C56.3786 16.2301 56.8297 15.9764 57.2103 15.6663C57.5909 15.3702 57.901 15.0178 58.1407 14.609C58.3803 14.2143 58.5636 13.8055 58.6763 13.3826L57.1257 12.8751C57.0411 13.157 56.9142 13.4249 56.7592 13.6927C56.59 13.9606 56.3786 14.1861 56.1389 14.3976C55.8993 14.609 55.6032 14.7641 55.279 14.891C54.9548 15.0178 54.5742 15.0742 54.1513 15.0742C53.7284 15.0742 53.3196 15.0037 52.9249 14.8487C52.5161 14.6936 52.1636 14.454 51.8535 14.1579C51.5434 13.8619 51.3037 13.4813 51.1205 13.0443C50.9372 12.5932 50.8385 12.0716 50.8385 11.4936C50.8385 10.8875 50.9372 10.3659 51.1205 9.91479C51.3037 9.4496 51.5575 9.06898 51.8676 8.77295C52.1777 8.47692 52.5301 8.25137 52.9249 8.09631C53.3196 7.94124 53.7284 7.87076 54.1372 7.87076C54.5601 7.87076 54.9407 7.92714 55.2649 8.03992C55.5891 8.15269 55.8711 8.30776 56.1107 8.50511C56.3504 8.70247 56.5477 8.94211 56.7028 9.20995C56.8579 9.47779 56.9706 9.75973 57.0411 10.0558L58.6341 9.52008C58.5213 9.08308 58.338 8.67427 58.0984 8.27956C57.8587 7.88485 57.5486 7.54653 57.168 7.2505C56.7874 6.95447 56.3504 6.71482 55.8429 6.54566C55.3354 6.3624 54.7715 6.27782 54.1372 6.27782C53.4887 6.27782 52.8685 6.40469 52.2623 6.64434C51.6561 6.88398 51.1205 7.22231 50.6553 7.6734C50.1901 8.1104 49.8095 8.66018 49.5275 9.30863C49.2456 9.94298 49.1046 10.676 49.1046 11.4936C49.1046 12.3112 49.2456 13.0443 49.5134 13.6927C49.7813 14.3271 50.1619 14.8769 50.6271 15.328C51.0923 15.765 51.628 16.1033 52.2341 16.3429C52.8403 16.5826 53.4746 16.6953 54.1513 16.6953ZM66.7112 16.4839H68.4169V6.48927H66.7112V10.6196H62.0169V6.48927H60.3253V16.4839H62.0169V12.2126H66.7112V16.4839ZM72.025 11.4795C72.025 10.8734 72.1237 10.3518 72.321 9.90069C72.5043 9.4496 72.758 9.06898 73.0682 8.77295C73.3783 8.47692 73.7307 8.25137 74.1395 8.09631C74.5342 7.94124 74.943 7.87076 75.3659 7.87076C75.7888 7.87076 76.1976 7.94124 76.6064 8.09631C77.0153 8.25137 77.3677 8.47692 77.6778 8.77295C77.9879 9.06898 78.2417 9.4496 78.439 9.90069C78.6223 10.3518 78.721 10.8734 78.721 11.4795C78.721 12.0857 78.6223 12.6073 78.439 13.0584C78.2417 13.5095 77.9879 13.8901 77.6778 14.1861C77.3677 14.4821 77.0153 14.7077 76.6064 14.8628C76.1976 15.0178 75.7888 15.0883 75.3659 15.0883C74.943 15.0883 74.5342 15.0178 74.1395 14.8628C73.7307 14.7077 73.3783 14.4821 73.0682 14.1861C72.758 13.8901 72.5043 13.5095 72.321 13.0584C72.1237 12.6073 72.025 12.0857 72.025 11.4795ZM70.2911 11.4795C70.2911 12.2971 70.4321 13.0302 70.714 13.6786C70.9959 14.3271 71.3765 14.8769 71.8417 15.3139C72.3069 15.765 72.8567 16.1033 73.4629 16.3429C74.069 16.5826 74.7034 16.6953 75.3659 16.6953C76.0285 16.6953 76.6628 16.5826 77.269 16.3429C77.8752 16.1033 78.4249 15.765 78.8901 15.3139C79.3553 14.8769 79.7359 14.3271 80.0179 13.6786C80.3139 13.0302 80.4549 12.2971 80.4549 11.4795C80.4549 10.6619 80.3139 9.92889 80.0179 9.28043C79.7359 8.64608 79.3553 8.09631 78.8901 7.64521C78.4249 7.20821 77.8752 6.86989 77.269 6.63024C76.6628 6.3906 76.0285 6.27782 75.3659 6.27782C74.7034 6.27782 74.069 6.3906 73.4629 6.63024C72.8567 6.86989 72.3069 7.20821 71.8417 7.64521C71.3765 8.09631 70.9959 8.64608 70.714 9.28043C70.4321 9.92889 70.2911 10.6619 70.2911 11.4795Z" fill="black"/>
	<circle cx="36.2415" cy="11.4998" r="7.79032" fill="#28D180"/>
	<rect x="94.4844" width="64.5484" height="23" rx="11.5" fill="#F8F8F8"/>
	<path d="M123.663 7.23097H120.223V17.2256H123.917C124.382 17.2256 124.805 17.1551 125.185 17.0141C125.566 16.8873 125.904 16.6899 126.172 16.4503C126.44 16.2106 126.637 15.9146 126.792 15.5763C126.948 15.2379 127.018 14.8714 127.018 14.4626C127.018 13.8706 126.849 13.3631 126.525 12.9261C126.2 12.5032 125.763 12.2212 125.228 12.0803C125.665 11.9252 126.017 11.6574 126.299 11.2908C126.567 10.9102 126.708 10.4591 126.708 9.92346C126.708 9.52875 126.637 9.16223 126.511 8.838C126.37 8.51378 126.172 8.23184 125.904 7.9922C125.637 7.75255 125.326 7.5552 124.946 7.42833C124.565 7.30146 124.142 7.23097 123.663 7.23097ZM123.437 11.46H121.901V8.66884H123.395C123.917 8.66884 124.311 8.79571 124.593 9.04946C124.875 9.3032 125.016 9.64152 125.016 10.0644C125.016 10.4873 124.875 10.8257 124.593 11.0794C124.326 11.3331 123.931 11.46 123.437 11.46ZM123.621 15.7877H121.901V12.8838H123.677C124.199 12.8838 124.607 13.0247 124.875 13.2926C125.157 13.5604 125.298 13.9128 125.298 14.3498C125.298 14.8009 125.143 15.1534 124.833 15.4071C124.537 15.6608 124.128 15.7877 123.621 15.7877ZM132.76 8.82391H136.016V7.23097H127.826V8.82391H131.068V17.2256H132.76V8.82391ZM141.596 17.437C142.23 17.437 142.808 17.3384 143.316 17.1551C143.823 16.9718 144.274 16.7181 144.655 16.408C145.035 16.1119 145.346 15.7595 145.585 15.3507C145.825 14.956 146.008 14.5472 146.121 14.1243L144.57 13.6168C144.486 13.8987 144.359 14.1666 144.204 14.4344C144.035 14.7023 143.823 14.9278 143.583 15.1393C143.344 15.3507 143.048 15.5058 142.724 15.6327C142.399 15.7595 142.019 15.8159 141.596 15.8159C141.173 15.8159 140.764 15.7454 140.369 15.5904C139.961 15.4353 139.608 15.1957 139.298 14.8996C138.988 14.6036 138.748 14.223 138.565 13.786C138.382 13.3349 138.283 12.8133 138.283 12.2353C138.283 11.6292 138.382 11.1076 138.565 10.6565C138.748 10.1913 139.002 9.81068 139.312 9.51465C139.622 9.21862 139.975 8.99307 140.369 8.838C140.764 8.68294 141.173 8.61246 141.582 8.61246C142.005 8.61246 142.385 8.66884 142.709 8.78162C143.034 8.89439 143.316 9.04946 143.555 9.24681C143.795 9.44417 143.992 9.68381 144.147 9.95165C144.302 10.2195 144.415 10.5014 144.486 10.7975L146.079 10.2618C145.966 9.82478 145.783 9.41597 145.543 9.02126C145.303 8.62655 144.993 8.28823 144.613 7.9922C144.232 7.69617 143.795 7.45652 143.287 7.28736C142.78 7.1041 142.216 7.01952 141.582 7.01952C140.933 7.01952 140.313 7.14639 139.707 7.38604C139.101 7.62568 138.565 7.96401 138.1 8.4151C137.635 8.8521 137.254 9.40188 136.972 10.0503C136.69 10.6847 136.549 11.4177 136.549 12.2353C136.549 13.0529 136.69 13.786 136.958 14.4344C137.226 15.0688 137.606 15.6186 138.072 16.0697C138.537 16.5067 139.073 16.845 139.679 17.0846C140.285 17.3243 140.919 17.437 141.596 17.437Z" fill="black"/>
	<circle cx="106.726" cy="11.4998" r="7.79032" fill="#FFD439"/>
	<path d="M31.088 389.856L32.816 389.312C32.752 388.992 32.64 388.656 32.464 388.32C32.288 387.984 32.048 387.664 31.728 387.376C31.424 387.104 31.024 386.864 30.56 386.688C30.096 386.512 29.52 386.416 28.848 386.416C28.32 386.416 27.808 386.512 27.344 386.688C26.88 386.864 26.48 387.12 26.128 387.424C25.776 387.744 25.504 388.112 25.296 388.528C25.088 388.96 24.992 389.408 24.992 389.888C24.992 390.736 25.248 391.44 25.776 391.984C26.304 392.528 27.008 392.896 27.872 393.072L29.472 393.408C29.968 393.52 30.336 393.696 30.592 393.968C30.864 394.24 30.992 394.576 30.992 394.944C30.992 395.392 30.816 395.76 30.464 396.064C30.128 396.368 29.616 396.512 28.928 396.512C28.528 396.512 28.16 396.448 27.856 396.32C27.552 396.192 27.28 396.016 27.056 395.808C26.848 395.6 26.672 395.36 26.56 395.088C26.448 394.816 26.368 394.544 26.336 394.24L24.544 394.752C24.592 395.152 24.704 395.568 24.896 395.984C25.088 396.4 25.36 396.768 25.712 397.104C26.08 397.44 26.512 397.712 27.04 397.92C27.568 398.144 28.208 398.24 28.928 398.24C29.584 398.24 30.144 398.144 30.64 397.952C31.136 397.76 31.568 397.504 31.904 397.184C32.24 396.864 32.496 396.496 32.672 396.08C32.848 395.664 32.944 395.232 32.944 394.8C32.944 394 32.688 393.312 32.16 392.72C31.632 392.128 30.88 391.744 29.872 391.536L28.24 391.2C27.792 391.104 27.456 390.928 27.232 390.672C27.024 390.416 26.912 390.112 26.912 389.744C26.912 389.536 26.96 389.328 27.056 389.12C27.152 388.928 27.28 388.752 27.456 388.608C27.632 388.464 27.824 388.336 28.064 388.256C28.304 388.16 28.576 388.112 28.864 388.112C29.248 388.112 29.568 388.176 29.84 388.288C30.112 388.4 30.32 388.544 30.496 388.72C30.672 388.896 30.816 389.088 30.896 389.296C30.992 389.504 31.056 389.68 31.088 389.856ZM34.4225 398H36.2625V390.208H34.4225V398ZM34.1345 387.472C34.1345 387.808 34.2465 388.096 34.4865 388.32C34.7265 388.56 34.9985 388.672 35.3345 388.672C35.6705 388.672 35.9585 388.56 36.1985 388.32C36.4385 388.096 36.5505 387.808 36.5505 387.472C36.5505 387.136 36.4385 386.848 36.1985 386.608C35.9585 386.368 35.6705 386.256 35.3345 386.256C34.9985 386.256 34.7265 386.368 34.4865 386.608C34.2465 386.848 34.1345 387.136 34.1345 387.472ZM40.0645 398V393.504C40.0645 392.992 40.2085 392.56 40.4805 392.192C40.7525 391.84 41.1525 391.664 41.6805 391.664C42.2725 391.664 42.6885 391.824 42.9285 392.16C43.1685 392.496 43.2805 392.912 43.2805 393.392V398H45.1365V393.072C45.1365 392.64 45.0725 392.24 44.9605 391.872C44.8485 391.504 44.6725 391.168 44.4485 390.88C44.2085 390.608 43.9205 390.384 43.5685 390.224C43.2165 390.064 42.8005 389.984 42.3205 389.984C41.8885 389.984 41.4565 390.08 41.0405 390.272C40.6085 390.48 40.2725 390.8 40.0165 391.248V390.208H38.2085V398H40.0645ZM50.5142 391.68C50.8182 391.68 51.0742 391.728 51.2822 391.808C51.4902 391.888 51.6822 392 51.8422 392.144C51.9862 392.288 52.1142 392.432 52.2102 392.608C52.2902 392.784 52.3542 392.96 52.4022 393.136L54.0662 392.528C53.9862 392.224 53.8422 391.904 53.6662 391.6C53.4902 391.296 53.2502 391.024 52.9462 390.784C52.6422 390.544 52.2902 390.336 51.8902 390.192C51.4902 390.048 51.0262 389.968 50.4982 389.968C49.9382 389.968 49.4102 390.064 48.9302 390.272C48.4502 390.48 48.0342 390.768 47.6662 391.136C47.2982 391.504 47.0262 391.936 46.8182 392.448C46.6102 392.944 46.5142 393.504 46.5142 394.096C46.5142 394.688 46.6262 395.248 46.8342 395.744C47.0422 396.24 47.3142 396.688 47.6822 397.056C48.0342 397.424 48.4502 397.712 48.9462 397.92C49.4422 398.128 49.9702 398.24 50.5462 398.24C51.0582 398.24 51.5222 398.16 51.9222 398.016C52.3222 397.872 52.6742 397.664 52.9782 397.424C53.2662 397.184 53.5062 396.912 53.6982 396.608C53.8902 396.304 54.0342 396 54.1302 395.696L52.4982 395.104C52.4502 395.248 52.3862 395.408 52.2902 395.568C52.1942 395.744 52.0662 395.888 51.9222 396.032C51.7622 396.176 51.5702 396.304 51.3462 396.4C51.1062 396.496 50.8502 396.544 50.5462 396.544C50.2582 396.544 49.9862 396.496 49.7142 396.384C49.4422 396.272 49.2182 396.112 49.0262 395.904C48.8182 395.696 48.6582 395.44 48.5462 395.136C48.4342 394.832 48.3702 394.496 48.3702 394.096C48.3702 393.696 48.4342 393.36 48.5462 393.056C48.6582 392.752 48.8182 392.512 49.0262 392.304C49.2182 392.096 49.4422 391.952 49.6982 391.84C49.9542 391.728 50.2262 391.68 50.5142 391.68ZM60.6689 393.248H56.8449C56.8609 393.04 56.9089 392.832 57.0049 392.624C57.1009 392.416 57.2289 392.24 57.3889 392.064C57.5489 391.904 57.7409 391.776 57.9809 391.68C58.2049 391.568 58.4609 391.52 58.7489 391.52C59.0689 391.52 59.3409 391.568 59.5809 391.664C59.8209 391.76 60.0129 391.888 60.1729 392.048C60.3329 392.208 60.4609 392.4 60.5409 392.608C60.6209 392.816 60.6529 393.024 60.6689 393.248ZM62.4449 395.776L60.8769 395.28C60.7489 395.664 60.5409 395.984 60.2369 396.256C59.9329 396.512 59.4849 396.64 58.9249 396.64C58.6369 396.64 58.3649 396.592 58.1249 396.496C57.8689 396.384 57.6449 396.24 57.4529 396.064C57.2609 395.888 57.1009 395.664 56.9889 395.424C56.8769 395.184 56.8129 394.912 56.7969 394.608H62.4929C62.5089 394.592 62.5089 394.528 62.5249 394.416C62.5409 394.304 62.5409 394.16 62.5409 394.016C62.5409 393.392 62.4609 392.848 62.2849 392.352C62.1089 391.856 61.8689 391.424 61.5489 391.072C61.2129 390.72 60.8129 390.448 60.3489 390.256C59.8689 390.064 59.3249 389.968 58.7329 389.968C58.2369 389.968 57.7729 390.064 57.3089 390.272C56.8449 390.464 56.4449 390.736 56.0929 391.104C55.7409 391.456 55.4689 391.888 55.2609 392.384C55.0529 392.88 54.9409 393.44 54.9409 394.064C54.9409 394.72 55.0529 395.312 55.2769 395.824C55.4849 396.352 55.7729 396.784 56.1409 397.136C56.5089 397.504 56.9249 397.776 57.4049 397.952C57.8849 398.144 58.3969 398.24 58.9249 398.24C59.3889 398.24 59.8209 398.176 60.2049 398.048C60.5889 397.92 60.9249 397.744 61.2289 397.52C61.5329 397.296 61.7729 397.04 61.9809 396.736C62.1889 396.432 62.3329 396.112 62.4449 395.776ZM72.7891 398.24C73.5091 398.24 74.1651 398.128 74.7411 397.92C75.3171 397.712 75.8291 397.424 76.2611 397.072C76.6931 396.736 77.0451 396.336 77.3171 395.872C77.5891 395.424 77.7971 394.96 77.9251 394.48L76.1651 393.904C76.0691 394.224 75.9251 394.528 75.7491 394.832C75.5571 395.136 75.3171 395.392 75.0451 395.632C74.7731 395.872 74.4371 396.048 74.0691 396.192C73.7011 396.336 73.2691 396.4 72.7891 396.4C72.3091 396.4 71.8451 396.32 71.3971 396.144C70.9331 395.968 70.5331 395.696 70.1811 395.36C69.8291 395.024 69.5571 394.592 69.3491 394.096C69.1411 393.584 69.0291 392.992 69.0291 392.336C69.0291 391.648 69.1411 391.056 69.3491 390.544C69.5571 390.016 69.8451 389.584 70.1971 389.248C70.5491 388.912 70.9491 388.656 71.3971 388.48C71.8451 388.304 72.3091 388.224 72.7731 388.224C73.2531 388.224 73.6851 388.288 74.0531 388.416C74.4211 388.544 74.7411 388.72 75.0131 388.944C75.2851 389.168 75.5091 389.44 75.6851 389.744C75.8611 390.048 75.9891 390.368 76.0691 390.704L77.8771 390.096C77.7491 389.6 77.5411 389.136 77.2691 388.688C76.9971 388.24 76.6451 387.856 76.2131 387.52C75.7811 387.184 75.2851 386.912 74.7091 386.72C74.1331 386.512 73.4931 386.416 72.7731 386.416C72.0371 386.416 71.3331 386.56 70.6451 386.832C69.9571 387.104 69.3491 387.488 68.8211 388C68.2931 388.496 67.8611 389.12 67.5411 389.856C67.2211 390.576 67.0611 391.408 67.0611 392.336C67.0611 393.264 67.2211 394.096 67.5251 394.832C67.8291 395.552 68.2611 396.176 68.7891 396.688C69.3171 397.184 69.9251 397.568 70.6131 397.84C71.3011 398.112 72.0211 398.24 72.7891 398.24ZM86.6902 398H88.6262V386.656H86.6902V391.344H81.3622V386.656H79.4422V398H81.3622V393.152H86.6902V398ZM92.3669 392.32C92.3669 391.632 92.4789 391.04 92.7029 390.528C92.9109 390.016 93.1989 389.584 93.5509 389.248C93.9029 388.912 94.3029 388.656 94.7669 388.48C95.2149 388.304 95.6789 388.224 96.1589 388.224C96.6389 388.224 97.1029 388.304 97.5669 388.48C98.0309 388.656 98.4309 388.912 98.7829 389.248C99.1349 389.584 99.4229 390.016 99.6469 390.528C99.8549 391.04 99.9669 391.632 99.9669 392.32C99.9669 393.008 99.8549 393.6 99.6469 394.112C99.4229 394.624 99.1349 395.056 98.7829 395.392C98.4309 395.728 98.0309 395.984 97.5669 396.16C97.1029 396.336 96.6389 396.416 96.1589 396.416C95.6789 396.416 95.2149 396.336 94.7669 396.16C94.3029 395.984 93.9029 395.728 93.5509 395.392C93.1989 395.056 92.9109 394.624 92.7029 394.112C92.4789 393.6 92.3669 393.008 92.3669 392.32ZM90.3989 392.32C90.3989 393.248 90.5589 394.08 90.8789 394.816C91.1989 395.552 91.6309 396.176 92.1589 396.672C92.6869 397.184 93.3109 397.568 93.9989 397.84C94.6869 398.112 95.4069 398.24 96.1589 398.24C96.9109 398.24 97.6309 398.112 98.3189 397.84C99.0069 397.568 99.6309 397.184 100.159 396.672C100.687 396.176 101.119 395.552 101.439 394.816C101.775 394.08 101.935 393.248 101.935 392.32C101.935 391.392 101.775 390.56 101.439 389.824C101.119 389.104 100.687 388.48 100.159 387.968C99.6309 387.472 99.0069 387.088 98.3189 386.816C97.6309 386.544 96.9109 386.416 96.1589 386.416C95.4069 386.416 94.6869 386.544 93.9989 386.816C93.3109 387.088 92.6869 387.472 92.1589 387.968C91.6309 388.48 91.1989 389.104 90.8789 389.824C90.5589 390.56 90.3989 391.392 90.3989 392.32ZM106.95 398H108.806V386.416H106.95V398ZM110.752 398H112.592V390.208H110.752V398ZM110.464 387.472C110.464 387.808 110.576 388.096 110.816 388.32C111.056 388.56 111.328 388.672 111.664 388.672C112 388.672 112.288 388.56 112.528 388.32C112.768 388.096 112.88 387.808 112.88 387.472C112.88 387.136 112.768 386.848 112.528 386.608C112.288 386.368 112 386.256 111.664 386.256C111.328 386.256 111.056 386.368 110.816 386.608C110.576 386.848 110.464 387.136 110.464 387.472ZM115.61 395.44L113.994 395.888C114.01 396.112 114.09 396.352 114.218 396.624C114.346 396.896 114.538 397.152 114.794 397.392C115.05 397.632 115.37 397.84 115.77 398C116.17 398.16 116.65 398.24 117.21 398.24C117.706 398.24 118.138 398.16 118.506 398.016C118.874 397.872 119.194 397.664 119.434 397.424C119.674 397.184 119.85 396.928 119.978 396.624C120.09 396.336 120.154 396.048 120.154 395.744C120.154 395.168 119.962 394.672 119.594 394.24C119.21 393.824 118.65 393.536 117.914 393.376L116.73 393.136C116.49 393.088 116.298 392.992 116.154 392.848C116.01 392.704 115.946 392.528 115.946 392.32C115.946 392.08 116.058 391.856 116.266 391.68C116.474 391.504 116.73 391.424 117.066 391.424C117.322 391.424 117.546 391.456 117.722 391.536C117.898 391.616 118.042 391.728 118.154 391.84C118.266 391.952 118.346 392.08 118.394 392.224C118.442 392.368 118.49 392.48 118.506 392.592L120.074 392.144C120.042 391.952 119.962 391.728 119.85 391.488C119.738 391.232 119.578 390.992 119.338 390.768C119.098 390.544 118.794 390.352 118.426 390.208C118.058 390.048 117.61 389.968 117.066 389.968C116.666 389.968 116.282 390.032 115.93 390.176C115.594 390.304 115.29 390.48 115.034 390.704C114.778 390.944 114.57 391.2 114.426 391.504C114.282 391.808 114.202 392.144 114.202 392.48C114.202 393.024 114.378 393.504 114.73 393.904C115.082 394.32 115.61 394.608 116.298 394.752L117.45 395.008C117.754 395.072 117.994 395.184 118.138 395.328C118.282 395.472 118.362 395.664 118.362 395.872C118.362 396.112 118.266 396.32 118.058 396.496C117.866 396.672 117.578 396.768 117.194 396.768C116.698 396.768 116.314 396.64 116.042 396.368C115.786 396.096 115.642 395.792 115.61 395.44ZM124.069 390.208V387.824H122.389V388.992C122.389 389.328 122.293 389.616 122.101 389.856C121.909 390.096 121.605 390.208 121.189 390.208H120.789V391.856H122.229V395.776C122.229 396.512 122.437 397.088 122.853 397.488C123.269 397.888 123.845 398.096 124.565 398.096C124.901 398.096 125.173 398.08 125.349 398.032C125.525 397.968 125.653 397.936 125.701 397.92V396.384C125.653 396.4 125.573 396.4 125.445 396.416C125.317 396.432 125.189 396.448 125.061 396.448C124.725 396.448 124.469 396.368 124.309 396.208C124.149 396.064 124.069 395.808 124.069 395.472V391.856H125.685V390.208H124.069ZM132.28 393.248H128.456C128.472 393.04 128.52 392.832 128.616 392.624C128.712 392.416 128.84 392.24 129 392.064C129.16 391.904 129.352 391.776 129.592 391.68C129.816 391.568 130.072 391.52 130.36 391.52C130.68 391.52 130.952 391.568 131.192 391.664C131.432 391.76 131.624 391.888 131.784 392.048C131.944 392.208 132.072 392.4 132.152 392.608C132.232 392.816 132.264 393.024 132.28 393.248ZM134.056 395.776L132.488 395.28C132.36 395.664 132.152 395.984 131.848 396.256C131.544 396.512 131.096 396.64 130.536 396.64C130.248 396.64 129.976 396.592 129.736 396.496C129.48 396.384 129.256 396.24 129.064 396.064C128.872 395.888 128.712 395.664 128.6 395.424C128.488 395.184 128.424 394.912 128.408 394.608H134.104C134.12 394.592 134.12 394.528 134.136 394.416C134.152 394.304 134.152 394.16 134.152 394.016C134.152 393.392 134.072 392.848 133.896 392.352C133.72 391.856 133.48 391.424 133.16 391.072C132.824 390.72 132.424 390.448 131.96 390.256C131.48 390.064 130.936 389.968 130.344 389.968C129.848 389.968 129.384 390.064 128.92 390.272C128.456 390.464 128.056 390.736 127.704 391.104C127.352 391.456 127.08 391.888 126.872 392.384C126.664 392.88 126.552 393.44 126.552 394.064C126.552 394.72 126.664 395.312 126.888 395.824C127.096 396.352 127.384 396.784 127.752 397.136C128.12 397.504 128.536 397.776 129.016 397.952C129.496 398.144 130.008 398.24 130.536 398.24C131 398.24 131.432 398.176 131.816 398.048C132.2 397.92 132.536 397.744 132.84 397.52C133.144 397.296 133.384 397.04 133.592 396.736C133.8 396.432 133.944 396.112 134.056 395.776ZM136.959 394.08C136.959 393.328 137.167 392.736 137.567 392.304C137.967 391.872 138.463 391.648 139.071 391.648C139.679 391.648 140.175 391.856 140.559 392.288C140.927 392.72 141.119 393.312 141.119 394.064C141.119 394.432 141.071 394.768 140.975 395.072C140.863 395.376 140.719 395.648 140.543 395.856C140.367 396.08 140.143 396.256 139.887 396.384C139.631 396.496 139.359 396.56 139.055 396.56C138.415 396.56 137.903 396.336 137.535 395.888C137.151 395.424 136.959 394.832 136.959 394.08ZM142.911 396.576V386.416H141.103V391.12C141.039 390.992 140.943 390.864 140.831 390.736C140.719 390.608 140.559 390.496 140.383 390.384C140.191 390.272 139.967 390.176 139.711 390.112C139.455 390.032 139.151 390 138.815 390C138.271 390 137.775 390.112 137.311 390.32C136.847 390.528 136.463 390.832 136.143 391.2C135.807 391.568 135.551 392 135.375 392.496C135.199 392.992 135.103 393.52 135.103 394.08C135.103 394.672 135.199 395.216 135.375 395.712C135.551 396.208 135.807 396.64 136.143 397.008C136.463 397.376 136.847 397.664 137.311 397.872C137.775 398.096 138.287 398.192 138.847 398.192C139.407 398.192 139.871 398.08 140.271 397.84C140.671 397.6 140.959 397.328 141.135 396.992C141.135 397.152 141.151 397.344 141.167 397.552C141.183 397.76 141.199 397.92 141.215 398H142.991C142.975 397.936 142.959 397.776 142.943 397.504C142.927 397.232 142.911 396.928 142.911 396.576Z" fill="#191B20"/>
	<defs>
		<linearGradient id="paint0_linear_9685_75770" x1="396.933" y1="118" x2="396.933" y2="433" gradientUnits="userSpaceOnUse">
			<stop stop-color="#FFD439"/>
			<stop offset="1" stop-color="#FFD439" stop-opacity="0"/>
		</linearGradient>
		<linearGradient id="paint1_linear_9685_75770" x1="588.537" y1="29.5" x2="588.537" y2="409.702" gradientUnits="userSpaceOnUse">
			<stop stop-color="#28D180"/>
			<stop offset="1" stop-color="#28D180" stop-opacity="0"/>
		</linearGradient>
	</defs>
</svg>
