<svg width="149" height="26" viewBox="0 0 149 26" fill="none" xmlns="http://www.w3.org/2000/svg">
	<path d="M0 16.9485C0 12.1907 3.96263 8.33374 8.85079 8.33374H23.7201C28.6083 8.33374 32.5709 12.1907 32.5709 16.9485C32.5709 21.7063 28.6083 25.5633 23.7201 25.5633H8.85079C3.96263 25.5633 0 21.7063 0 16.9485Z" fill="#1D1D1F"/>
	<path d="M12.0381 16.9484C12.0381 13.2986 15.0497 10.3398 18.7647 10.3398H23.0131C26.7281 10.3398 29.7397 13.2986 29.7397 16.9484C29.7397 20.5983 26.7281 23.557 23.0131 23.557H18.7647C15.0497 23.557 12.0381 20.5983 12.0381 16.9484Z" fill="url(#paint0_linear_3636_28775)"/>
	<path d="M47.0899 12.7029C46.6029 12.8954 46.1608 13.1865 45.7915 13.5579C45.4094 13.9862 45.1044 14.4776 44.8902 15.0102C44.6507 15.6331 44.5353 16.2968 44.5506 16.964C44.5283 17.6308 44.6372 18.2956 44.8711 18.9205C45.078 19.4569 45.3785 19.9524 45.7586 20.3838C46.132 20.772 46.5815 21.0789 47.079 21.2853C47.5956 21.4882 48.1457 21.5923 48.7007 21.5922C49.1983 21.5983 49.6926 21.5109 50.158 21.3346C50.5686 21.1937 50.9514 20.9823 51.2894 20.7099C51.5872 20.4611 51.8361 20.1591 52.0235 19.8193C52.1257 19.6517 52.2172 19.4778 52.2975 19.2986C52.35 19.1817 52.4443 19.0888 52.562 19.038C52.6796 18.9873 52.812 18.9825 52.933 19.0246L55.8669 20.0193C55.996 20.0625 56.1028 20.155 56.1638 20.2767C56.2249 20.3984 56.2354 20.5394 56.1929 20.6687C56.0104 21.1938 55.7658 21.6952 55.4642 22.1622C55.0298 22.8283 54.4894 23.4188 53.8644 23.9104C53.1871 24.4592 52.4234 24.8917 51.6044 25.1901C50.6619 25.5056 49.6726 25.6585 48.6788 25.6423C47.5321 25.6529 46.3964 25.4184 45.3477 24.9545C44.3223 24.5446 43.3904 23.9312 42.6083 23.1514C41.8237 22.3619 41.2044 21.4238 40.7867 20.392C40.3457 19.296 40.1268 18.1233 40.1429 16.942C40.1408 15.7497 40.3716 14.5685 40.8223 13.4647C41.2269 12.4463 41.8342 11.5208 42.6075 10.7445C43.3807 9.96819 44.3037 9.35725 45.3203 8.94882C46.3724 8.52225 47.5 8.31344 48.6349 8.33501C49.6478 8.33231 50.6544 8.49426 51.6154 8.81455C52.424 9.12257 53.1813 9.55125 53.8617 10.086C54.4805 10.5753 55.005 11.1733 55.4094 11.8507C55.7028 12.3343 55.9417 12.849 56.1216 13.3852C56.1631 13.5142 56.1518 13.6544 56.0902 13.7751C56.0286 13.8958 55.9217 13.9871 55.7929 14.0292L52.7796 15.0212C52.6541 15.0616 52.5179 15.0527 52.3988 14.9962C52.2797 14.9396 52.1866 14.8398 52.1386 14.717C51.9167 14.1815 51.5908 13.6953 51.1798 13.2866C50.6319 12.7194 49.7937 12.4179 48.7007 12.4125C48.1503 12.4073 47.6039 12.5058 47.0899 12.7029Z" fill="#1D1D1F"/>
	<path d="M57.4639 24.6666L57.5817 1.70359C57.582 1.63594 57.5957 1.56902 57.6219 1.50665C57.6481 1.44429 57.6864 1.3877 57.7344 1.34012C57.7825 1.29253 57.8395 1.25489 57.9021 1.22933C57.9647 1.20378 58.0318 1.19081 58.0994 1.19117L61.477 1.20761C61.6132 1.20976 61.7431 1.26519 61.8388 1.362C61.9346 1.45882 61.9886 1.58932 61.9893 1.72551L61.951 9.08301C61.9498 9.17664 61.9743 9.26879 62.0219 9.34945C62.0694 9.43012 62.1381 9.49621 62.2206 9.54055C62.303 9.58489 62.3961 9.60579 62.4895 9.60097C62.583 9.59616 62.6734 9.56581 62.7508 9.51322C63.1244 9.24848 63.5378 9.04498 63.9753 8.91037C64.7414 8.63356 65.5496 8.49171 66.3641 8.49112C67.2975 8.47055 68.2238 8.65774 69.076 9.03916C69.8001 9.3444 70.4442 9.81243 70.9582 10.4069C71.4723 11.0014 71.8424 11.7064 72.04 12.4672C72.2782 13.2862 72.3972 14.1352 72.3934 14.9882L72.3414 24.7461C72.3414 24.8136 72.328 24.8805 72.3021 24.9428C72.2762 25.0052 72.2382 25.0618 72.1904 25.1094C72.1425 25.157 72.0857 25.1947 72.0232 25.2203C71.9608 25.2459 71.8939 25.2589 71.8264 25.2585L68.4487 25.2421C68.3811 25.2417 68.3142 25.2281 68.2519 25.2018C68.1895 25.1756 68.1329 25.1374 68.0854 25.0893C68.0378 25.0412 68.0002 24.9842 67.9746 24.9215C67.9491 24.8589 67.9361 24.7918 67.9365 24.7242L67.983 15.728C68.0145 14.8995 67.7739 14.0834 67.2982 13.4043C66.8051 12.7713 66.0436 12.4699 64.9834 12.4644C64.5723 12.4398 64.161 12.5097 63.7811 12.6689C63.4012 12.828 63.0628 13.0721 62.7919 13.3824C62.2441 14.0042 61.9353 14.8007 61.9208 15.6294L61.8743 24.694C61.8728 24.8305 61.8176 24.9608 61.7207 25.0567C61.6237 25.1527 61.4929 25.2065 61.3565 25.2065L57.9761 25.1846C57.9085 25.1842 57.8416 25.1705 57.7793 25.1443C57.7169 25.1181 57.6603 25.0798 57.6128 25.0317C57.5652 24.9836 57.5276 24.9266 57.502 24.864C57.4765 24.8014 57.4635 24.7343 57.4639 24.6666Z" fill="#1D1D1F"/>
	<path d="M85.6712 9.15467C86.6829 9.57377 87.6032 10.1862 88.3805 10.9577C89.1499 11.7502 89.7534 12.6883 90.1556 13.7171C90.5826 14.8276 90.7901 16.0104 90.7665 17.2C90.7824 18.3797 90.5626 19.5508 90.12 20.6444C89.7085 21.6699 89.0945 22.6019 88.3147 23.3846C87.0588 24.5615 85.4906 25.3517 83.7977 25.6607C82.1047 25.9698 80.3586 25.7846 78.768 25.1274C77.7572 24.707 76.8379 24.0937 76.0616 23.3216C75.2898 22.5311 74.6859 21.5924 74.2864 20.5622C73.8539 19.4647 73.6453 18.2917 73.6728 17.1123C73.6612 15.9229 73.8817 14.7426 74.3221 13.6377C74.7322 12.6121 75.3453 11.68 76.1246 10.8975C76.9084 10.1331 77.8344 9.52985 78.8502 9.12179C81.0519 8.29463 83.481 8.30731 85.674 9.15741L85.6712 9.15467ZM83.7537 21.5049C84.2583 21.3139 84.7127 21.0103 85.0823 20.617C85.473 20.2071 85.78 19.725 85.9863 19.1976C86.2388 18.5545 86.3653 17.8689 86.3588 17.178C86.3736 16.4874 86.2535 15.8005 86.0054 15.1558C85.8052 14.6259 85.5037 14.14 85.1179 13.7254C84.7513 13.3292 84.2999 13.021 83.7975 12.8238C82.8004 12.421 81.6869 12.4151 80.6856 12.8074C80.1827 13.0018 79.729 13.3049 79.357 13.6952C78.9656 14.1051 78.6593 14.5885 78.4558 15.1174C77.9628 16.4182 77.9551 17.8531 78.4338 19.1592C78.6335 19.6882 78.9329 20.1738 79.3159 20.5896C79.684 20.9841 80.135 21.292 80.6363 21.4912C81.635 21.8919 82.7488 21.8968 83.751 21.5049H83.7537Z" fill="#1D1D1F"/>
	<path d="M92.5681 1.7668C92.8165 1.51092 93.115 1.30902 93.445 1.17371C93.7749 1.03839 94.1292 0.972573 94.4857 0.980354C94.8485 0.974929 95.2085 1.04357 95.5439 1.18209C95.8792 1.32061 96.1828 1.5261 96.4361 1.78598C96.9327 2.31584 97.2021 3.01912 97.1867 3.74524C97.1887 4.10235 97.1187 4.4562 96.9808 4.78562C96.843 5.11504 96.6401 5.41326 96.3844 5.66243C96.1286 5.9116 95.8253 6.10661 95.4924 6.23578C95.1596 6.36496 94.8041 6.42565 94.4473 6.41421C94.0896 6.41988 93.7346 6.35147 93.4046 6.2133C93.0746 6.07513 92.7768 5.87018 92.5298 5.61133C92.2803 5.36476 92.0836 5.06996 91.9518 4.74489C91.8199 4.41983 91.7556 4.07131 91.7627 3.72058C91.7566 3.35718 91.8249 2.99637 91.9634 2.66036C92.1019 2.32436 92.3077 2.02026 92.5681 1.7668ZM92.779 9.05853L96.1567 9.07497C96.2243 9.07533 96.2912 9.08901 96.3536 9.11523C96.4159 9.14145 96.4725 9.1797 96.52 9.22779C96.5676 9.27589 96.6052 9.33288 96.6308 9.39552C96.6563 9.45816 96.6693 9.52522 96.6689 9.59287L96.5895 24.8669C96.5866 25.0018 96.5306 25.1302 96.4337 25.2241C96.3368 25.318 96.2067 25.3698 96.0718 25.3683H92.6969C92.6291 25.3676 92.5622 25.3535 92.5 25.3267C92.4377 25.3 92.3814 25.2611 92.3343 25.2125C92.2871 25.1638 92.2501 25.1062 92.2254 25.0431C92.2006 24.9801 92.1886 24.9127 92.1901 24.8449L92.2668 9.57095C92.2675 9.43527 92.3217 9.30535 92.4176 9.20941C92.5135 9.11347 92.6434 9.05925 92.779 9.05853Z" fill="#1D1D1F"/>
	<path d="M102.538 21.7677C103.034 22.2664 103.76 22.535 104.73 22.5405C105.306 22.5797 105.877 22.4169 106.346 22.0801C106.516 21.9387 106.653 21.7621 106.748 21.5624C106.842 21.3627 106.892 21.1447 106.894 20.9237C106.897 20.7449 106.864 20.5672 106.797 20.4015C106.729 20.2357 106.629 20.0853 106.502 19.9592C106.228 19.6605 105.776 19.4577 105.146 19.3234L102.985 18.8192C101.396 18.4466 100.246 17.8465 99.5142 16.9805C98.8015 16.1237 98.4195 15.0397 98.4376 13.9252C98.4407 13.2143 98.6027 12.513 98.9115 11.8728C99.2078 11.2179 99.6535 10.6417 100.213 10.1903C100.772 9.68634 101.423 9.29551 102.13 9.03938C102.902 8.7433 103.723 8.60088 104.549 8.62013C105.545 8.599 106.535 8.77308 107.464 9.13255C108.19 9.39188 108.854 9.80181 109.412 10.3355C109.877 10.779 110.25 11.3109 110.507 11.9002C110.643 12.2045 110.754 12.5187 110.841 12.8401C110.858 12.9069 110.86 12.9762 110.849 13.044C110.838 13.1119 110.814 13.1768 110.777 13.235C110.741 13.2933 110.693 13.3436 110.637 13.383C110.58 13.4225 110.517 13.4503 110.45 13.4648L107.751 14.0595C107.625 14.0877 107.492 14.0665 107.38 14.0004C107.268 13.9342 107.185 13.828 107.149 13.7032C107.122 13.6101 107.09 13.5186 107.053 13.4292C106.945 13.1514 106.777 12.9014 106.56 12.6976C106.326 12.4639 106.046 12.2818 105.738 12.1632C105.37 12.0169 104.975 11.947 104.579 11.9577C104.055 11.9452 103.542 12.106 103.119 12.4153C102.921 12.5385 102.758 12.7111 102.646 12.9161C102.534 13.1212 102.477 13.3518 102.481 13.5854C102.47 13.7683 102.503 13.9511 102.577 14.1185C102.652 14.2859 102.765 14.4329 102.908 14.5472C103.217 14.7976 103.582 14.9697 103.971 15.0487L106.286 15.5556C107.908 15.8954 109.096 16.5311 109.888 17.4299C110.686 18.285 111.118 19.4175 111.093 20.5867C111.088 21.2577 110.949 21.9209 110.685 22.5377C110.435 23.1938 110.034 23.7822 109.516 24.2558C108.941 24.7883 108.267 25.2018 107.532 25.4725C105.608 26.1029 103.527 26.0662 101.626 25.3684C100.879 25.0529 100.191 24.6148 99.5882 24.0722C99.0861 23.61 98.6931 23.0418 98.4376 22.4089C98.2793 22.076 98.1545 21.7281 98.0651 21.3704C98.049 21.3036 98.0464 21.2342 98.0577 21.1664C98.0689 21.0986 98.0937 21.0337 98.1305 20.9757C98.1673 20.9177 98.2154 20.8676 98.2719 20.8286C98.3284 20.7895 98.3922 20.7622 98.4595 20.7484L101.232 20.1619C101.361 20.1338 101.497 20.1573 101.609 20.2274C101.722 20.2975 101.803 20.4087 101.834 20.5374C101.955 21.0028 102.198 21.4276 102.538 21.7677Z" fill="#1D1D1F"/>
	<path d="M126.518 22.8858C126.082 23.5112 125.541 24.0571 124.921 24.4998C124.26 24.9758 123.533 25.3516 122.762 25.6151C121.87 25.8853 120.941 26.0147 120.009 25.9987C118.914 25.9928 117.827 25.7971 116.799 25.4205C115.794 25.0374 114.883 24.4452 114.125 23.6832C113.337 22.8995 112.721 21.9596 112.317 20.9238C111.844 19.7549 111.613 18.5018 111.64 17.241C111.635 16.027 111.866 14.8237 112.32 13.6978C112.724 12.6967 113.326 11.7872 114.089 11.0234C114.831 10.2858 115.713 9.70439 116.683 9.31349C117.633 8.89727 118.66 8.68803 119.697 8.69968C122.247 8.69968 124.2 9.48338 125.617 10.9823C127.033 12.4812 127.718 14.572 127.704 17.1916C127.708 17.4898 127.697 17.788 127.668 18.0849C127.654 18.2101 127.593 18.3255 127.499 18.4089C127.404 18.4923 127.282 18.538 127.156 18.5371L116.555 18.485C116.479 18.4839 116.405 18.4994 116.336 18.5305C116.267 18.5615 116.207 18.6073 116.158 18.6646C116.109 18.7219 116.073 18.7893 116.053 18.862C116.033 18.9347 116.03 19.0109 116.042 19.0851C116.097 19.3938 116.194 19.6934 116.33 19.9757C116.559 20.4101 116.859 20.8029 117.218 21.1375C117.59 21.4784 118.02 21.7494 118.489 21.9377L118.541 21.9569C119.032 22.1317 119.548 22.2243 120.069 22.2309C121.097 22.2309 121.927 22.0089 122.491 21.5458C122.969 21.1832 123.357 20.7141 123.622 20.1757C123.674 20.0646 123.764 19.9757 123.875 19.9253C123.987 19.875 124.113 19.8666 124.23 19.9017L126.97 20.7238C127.037 20.7435 127.099 20.7768 127.153 20.8215C127.207 20.8663 127.251 20.9215 127.282 20.9839C127.314 21.0463 127.332 21.1144 127.336 21.1842C127.341 21.254 127.331 21.3239 127.307 21.3896C127.109 21.9203 126.844 22.4231 126.518 22.8858ZM123.118 14.35C122.984 13.9568 122.759 13.6009 122.461 13.3115C122.146 12.9859 121.762 12.735 121.338 12.5771C120.837 12.3604 120.294 12.2556 119.749 12.2702C119.222 12.2583 118.699 12.3602 118.215 12.5689C117.797 12.7546 117.415 13.0104 117.083 13.3252C116.791 13.6231 116.554 13.97 116.382 14.35C116.311 14.5051 116.251 14.6654 116.204 14.8296C116.183 14.9057 116.181 14.9855 116.196 15.0629C116.211 15.1403 116.244 15.2131 116.292 15.2757C116.34 15.3383 116.402 15.3889 116.472 15.4237C116.543 15.4585 116.621 15.4765 116.7 15.4762L122.773 15.5091C122.851 15.5091 122.928 15.4915 122.998 15.4575C123.069 15.4236 123.13 15.3742 123.179 15.3131C123.227 15.2519 123.261 15.1806 123.278 15.1045C123.295 15.0284 123.295 14.9494 123.277 14.8734C123.242 14.6941 123.188 14.5188 123.118 14.35Z" fill="#1D1D1F"/>
	<path d="M132.65 10.0637C132.502 10.1238 132.367 10.2147 132.255 10.3306C132.139 10.4644 132.046 10.6178 131.981 10.7841C131.908 10.9786 131.873 11.1859 131.878 11.3943C131.871 11.6025 131.904 11.8101 131.975 12.0052C132.038 12.1736 132.129 12.3292 132.245 12.4647C132.358 12.5862 132.495 12.6821 132.646 12.7462C132.803 12.81 132.97 12.8425 133.139 12.8421C133.29 12.8444 133.44 12.8171 133.582 12.7616C133.707 12.7178 133.823 12.6518 133.926 12.5665C134.016 12.4889 134.092 12.3946 134.149 12.2884C134.18 12.2361 134.207 12.1818 134.232 12.1259C134.248 12.0895 134.277 12.0606 134.312 12.0448C134.348 12.0289 134.388 12.0274 134.425 12.0403L135.316 12.3509C135.354 12.3649 135.386 12.3935 135.404 12.4306C135.422 12.4678 135.425 12.5107 135.413 12.5503C135.358 12.7143 135.283 12.8709 135.191 13.0166C135.059 13.2246 134.895 13.409 134.705 13.5626C134.499 13.7339 134.267 13.8692 134.019 13.963C133.733 14.0602 133.433 14.1074 133.132 14.1025C132.784 14.1068 132.439 14.0341 132.12 13.8894C131.809 13.7614 131.526 13.5699 131.288 13.3264C131.049 13.08 130.861 12.787 130.734 12.4647C130.6 12.1225 130.534 11.7563 130.539 11.3874C130.538 11.0151 130.608 10.6462 130.745 10.3015C130.868 9.98352 131.053 9.69452 131.288 9.4521C131.523 9.20968 131.803 9.01891 132.112 8.89137C132.432 8.75816 132.774 8.69296 133.119 8.69969C133.427 8.69885 133.733 8.74942 134.025 8.84944C134.27 8.94597 134.5 9.0798 134.707 9.24648C134.895 9.39926 135.054 9.586 135.177 9.79754C135.266 9.94871 135.339 10.1094 135.395 10.2767C135.407 10.3171 135.403 10.3608 135.384 10.3984C135.365 10.436 135.333 10.4645 135.294 10.4778L134.378 10.7876C134.34 10.8002 134.299 10.7974 134.263 10.7798C134.226 10.7621 134.198 10.7309 134.184 10.6926C134.116 10.5254 134.017 10.3735 133.892 10.2459C133.726 10.0688 133.471 9.97467 133.139 9.97296C132.972 9.97133 132.806 10.0021 132.65 10.0637Z" fill="#1D1D1F"/>
	<path d="M139.159 8.92838C139.466 9.05958 139.745 9.2508 139.981 9.49142C140.215 9.73858 140.399 10.0316 140.52 10.3531C140.65 10.6989 140.713 11.0675 140.706 11.4381C140.711 11.8065 140.644 12.1722 140.51 12.5137C140.385 12.8339 140.198 13.1249 139.962 13.3694C139.723 13.6077 139.442 13.796 139.134 13.9239C138.805 14.0653 138.452 14.1341 138.096 14.1258C137.74 14.1324 137.387 14.0622 137.06 13.9196C136.753 13.7884 136.473 13.5972 136.237 13.3566C136.003 13.1081 135.82 12.8136 135.7 12.4906C135.568 12.1478 135.505 11.7815 135.514 11.4133C135.509 11.0412 135.575 10.6717 135.709 10.3257C135.834 10.0057 136.02 9.71477 136.256 9.47003C136.497 9.23181 136.779 9.04353 137.089 8.91554C137.758 8.65751 138.496 8.66147 139.163 8.92667L139.159 8.92838ZM138.576 12.7858C138.729 12.7253 138.868 12.6303 138.981 12.5077C139.099 12.3795 139.192 12.229 139.254 12.0645C139.331 11.865 139.369 11.6524 139.368 11.4381C139.371 11.2224 139.335 11.008 139.259 10.8066C139.199 10.6412 139.108 10.4895 138.991 10.3599C138.879 10.2364 138.741 10.1402 138.589 10.0784C138.286 9.951 137.948 9.94763 137.643 10.069C137.49 10.1295 137.352 10.2242 137.239 10.3463C137.12 10.4746 137.027 10.6255 136.965 10.7904C136.888 10.9911 136.849 11.2052 136.851 11.421C136.847 11.6366 136.883 11.8509 136.958 12.0525C137.019 12.2178 137.111 12.3695 137.228 12.4992C137.339 12.6224 137.477 12.7186 137.629 12.7807C137.779 12.843 137.94 12.8755 138.102 12.8765C138.264 12.8768 138.424 12.8461 138.575 12.7858H138.576Z" fill="#1D1D1F"/>
	<path d="M141.318 8.89837L142.284 8.90351C142.304 8.9034 142.325 8.9075 142.344 8.91559C142.363 8.92368 142.381 8.93558 142.395 8.95062C142.41 8.96566 142.421 8.98354 142.429 9.00321C142.437 9.02288 142.441 9.04396 142.441 9.06523V9.07721C142.441 9.10779 142.45 9.1377 142.466 9.16339C142.482 9.18908 142.505 9.20948 142.532 9.22217C142.559 9.23487 142.589 9.23932 142.619 9.23501C142.648 9.23071 142.676 9.21782 142.698 9.19787C142.81 9.10208 142.932 9.02101 143.064 8.95656C143.196 8.89195 143.336 8.84397 143.48 8.81366C143.616 8.78277 143.756 8.76614 143.896 8.76403C144.208 8.75773 144.516 8.83436 144.791 8.98651C144.973 9.09101 145.129 9.23745 145.247 9.41435C145.26 9.43514 145.278 9.45239 145.299 9.46472C145.321 9.47705 145.344 9.48412 145.368 9.48537C145.393 9.48662 145.417 9.48201 145.439 9.4719C145.461 9.4618 145.481 9.44649 145.496 9.42719C145.643 9.2331 145.833 9.07718 146.049 8.97196C146.324 8.84 146.626 8.77611 146.93 8.78542C147.156 8.78695 147.381 8.82655 147.596 8.90265C147.807 8.97561 148.001 9.09207 148.167 9.24493C148.344 9.41499 148.481 9.62461 148.567 9.8576C148.673 10.1342 148.724 10.4304 148.714 10.7278L148.698 13.8682C148.698 13.9108 148.681 13.9515 148.652 13.9815C148.622 14.0114 148.582 14.0282 148.541 14.0282L147.556 14.0231C147.535 14.023 147.515 14.0187 147.496 14.0105C147.477 14.0023 147.46 13.9904 147.445 13.9754C147.431 13.9603 147.419 13.9426 147.412 13.923C147.404 13.9034 147.4 13.8825 147.4 13.8614L147.414 10.9999C147.424 10.7554 147.354 10.5145 147.216 10.3154C147.076 10.128 146.855 10.0339 146.543 10.0322C146.415 10.0252 146.288 10.0483 146.171 10.0998C146.054 10.1513 145.95 10.2297 145.867 10.3291C145.704 10.5242 145.617 10.7744 145.622 11.0316L145.608 13.8554C145.608 13.8765 145.604 13.8974 145.596 13.9169C145.588 13.9363 145.576 13.954 145.562 13.9689C145.547 13.9837 145.53 13.9955 145.511 14.0035C145.492 14.0115 145.471 14.0155 145.451 14.0154L144.433 14.0051C144.391 14.0049 144.352 13.9878 144.323 13.9577C144.293 13.9276 144.277 13.8868 144.277 13.8443L144.292 10.9828C144.302 10.7336 144.228 10.4885 144.084 10.288C143.944 10.1117 143.723 10.0176 143.418 10.0159C143.114 10.0142 142.895 10.1066 142.732 10.3017C142.569 10.5007 142.482 10.7542 142.488 11.0145L142.473 13.8383C142.473 13.8594 142.469 13.8803 142.461 13.8998C142.453 13.9192 142.442 13.9369 142.427 13.9518C142.412 13.9666 142.395 13.9784 142.376 13.9864C142.357 13.9943 142.337 13.9984 142.316 13.9983L141.29 13.9931C141.269 13.993 141.249 13.9888 141.23 13.9806C141.211 13.9724 141.194 13.9604 141.18 13.9454C141.165 13.9304 141.154 13.9126 141.146 13.893C141.138 13.8735 141.134 13.8525 141.134 13.8314L141.158 9.06181C141.158 9.04015 141.162 9.01861 141.17 8.99851C141.178 8.97841 141.189 8.96017 141.204 8.94489C141.219 8.92961 141.237 8.9176 141.257 8.90961C141.276 8.90161 141.297 8.89779 141.318 8.89837Z" fill="#1D1D1F"/>
	<defs>
		<linearGradient id="paint0_linear_3636_28775" x1="37.3671" y1="10.3398" x2="17.7762" y2="23.213" gradientUnits="userSpaceOnUse">
			<stop stop-color="#5CEE9C"/>
			<stop offset="1" stop-color="#FFEF21"/>
		</linearGradient>
	</defs>
</svg>
