<svg width="66" height="20" viewBox="0 0 66 20" fill="none" xmlns="http://www.w3.org/2000/svg">
	<g clip-path="url(#clip0_3663_20214)">
		<g filter="url(#filter0_i_3663_20214)">
			<rect x="0.14209" width="19.2592" height="19.2592" rx="4.8148" fill="#191B20"/>
		</g>
		<g opacity="0.15" filter="url(#filter1_f_3663_20214)">
			<circle cx="9.77192" cy="9.62969" r="6.0185" transform="rotate(-90 9.77192 9.62969)" fill="url(#paint0_linear_3663_20214)"/>
			<circle cx="9.77192" cy="9.62969" r="5.77776" transform="rotate(-90 9.77192 9.62969)" stroke="white" stroke-opacity="0.34" stroke-width="0.48148"/>
		</g>
		<g opacity="0.3" filter="url(#filter2_f_3663_20214)">
			<circle cx="9.77183" cy="9.62954" r="4.8148" transform="rotate(-90 9.77183 9.62954)" fill="url(#paint1_linear_3663_20214)"/>
			<circle cx="9.77183" cy="9.62954" r="4.57406" transform="rotate(-90 9.77183 9.62954)" stroke="white" stroke-opacity="0.34" stroke-width="0.48148"/>
		</g>
		<g filter="url(#filter3_dd_3663_20214)">
			<circle cx="9.77192" cy="9.62969" r="6.0185" transform="rotate(-90 9.77192 9.62969)" fill="url(#paint2_linear_3663_20214)"/>
			<circle cx="9.77192" cy="9.62969" r="5.77776" transform="rotate(-90 9.77192 9.62969)" stroke="white" stroke-opacity="0.5" stroke-width="0.48148"/>
		</g>
	</g>
	<path d="M27.5328 13.5292C27.0173 13.5292 26.523 13.4374 26.0499 13.2538C25.5979 13.0773 25.1919 12.816 24.8317 12.47C24.4716 12.124 24.1926 11.7144 23.9949 11.2413C23.7901 10.754 23.6877 10.2138 23.6877 9.6206C23.6877 9.01329 23.7936 8.47307 24.0055 7.99993C24.2032 7.5268 24.4822 7.11369 24.8423 6.76061C25.1954 6.41458 25.605 6.1533 26.071 5.97676C26.5371 5.79315 27.0173 5.70135 27.5116 5.70135C28.0271 5.70135 28.4861 5.7755 28.8887 5.92379C29.2841 6.05797 29.6231 6.24863 29.9055 6.49579C30.1739 6.72177 30.3999 6.98658 30.5835 7.29023C30.76 7.60095 30.8836 7.90107 30.9542 8.1906L29.5772 8.6249C29.5348 8.45541 29.4642 8.27534 29.3653 8.08467C29.2665 7.90107 29.1358 7.73865 28.9734 7.59742C28.8039 7.45618 28.5991 7.33967 28.359 7.24786C28.126 7.15606 27.8435 7.11016 27.5116 7.11016C27.2292 7.11016 26.9502 7.16312 26.6748 7.26905C26.4206 7.36085 26.1734 7.51268 25.9333 7.72453C25.7285 7.91519 25.552 8.17648 25.4037 8.50838C25.2695 8.81909 25.2024 9.18983 25.2024 9.6206C25.2024 10.0372 25.2695 10.3939 25.4037 10.6904C25.5308 10.9941 25.7038 11.2518 25.9227 11.4637C26.1346 11.6685 26.3818 11.8274 26.6642 11.9404C26.9396 12.0463 27.2292 12.0993 27.5328 12.0993C27.8647 12.0993 28.1472 12.0534 28.3802 11.9616C28.6133 11.8697 28.818 11.7462 28.9946 11.5908C29.1711 11.4355 29.3088 11.273 29.4077 11.1036C29.5066 10.9341 29.5842 10.754 29.6407 10.5633L31.0072 10.9764C30.9295 11.273 30.8094 11.5696 30.647 11.8662C30.4564 12.184 30.2269 12.4559 29.9585 12.6818C29.676 12.9219 29.3335 13.1232 28.931 13.2856C28.5426 13.448 28.0766 13.5292 27.5328 13.5292ZM33.389 13.3704H31.9802V5.70135H33.389V8.59312C33.5655 8.38833 33.7809 8.24356 34.0352 8.15882C34.2894 8.06702 34.5436 8.02112 34.7978 8.02112C35.1438 8.02112 35.4334 8.07761 35.6664 8.1906C35.9065 8.29653 36.1078 8.44129 36.2702 8.6249C36.4255 8.80144 36.5421 9.02035 36.6197 9.28163C36.6974 9.54998 36.7363 9.81832 36.7363 10.0867V13.3704H35.3274V10.3303C35.3274 10.0408 35.2533 9.79361 35.105 9.58882C34.9496 9.39109 34.7025 9.29223 34.3635 9.29223C34.0669 9.29223 33.8339 9.39109 33.6644 9.58882C33.4879 9.78655 33.3961 10.0266 33.389 10.3091V13.3704ZM37.8175 11.951C37.8175 11.7109 37.8599 11.5025 37.9446 11.326C38.0082 11.1706 38.1176 11.0153 38.273 10.8599C38.4072 10.7258 38.5731 10.6198 38.7709 10.5421C38.9756 10.4574 39.1769 10.4009 39.3746 10.3727L40.6563 10.182C40.8117 10.1608 40.9141 10.1149 40.9635 10.0443C41.02 9.97368 41.0483 9.896 41.0483 9.81126C41.0483 9.63472 40.9776 9.47583 40.8364 9.3346C40.6952 9.20042 40.4727 9.13334 40.1691 9.13334C39.8513 9.13334 39.6147 9.21808 39.4594 9.38756C39.2899 9.55704 39.1946 9.75477 39.1734 9.98074L37.9234 9.71593C37.9446 9.50408 38.0082 9.29929 38.1141 9.10156C38.2271 8.88971 38.3719 8.7061 38.5484 8.55075C38.7391 8.38127 38.9651 8.25062 39.2263 8.15882C39.4947 8.0529 39.8054 7.99993 40.1585 7.99993C40.5822 7.99993 40.9317 8.05643 41.2071 8.16942C41.4967 8.27534 41.7332 8.42011 41.9168 8.60371C42.0934 8.78025 42.224 8.98857 42.3088 9.22867C42.3864 9.48289 42.4253 9.73358 42.4253 9.98074V12.5441C42.4253 12.6359 42.4323 12.7878 42.4465 12.9996C42.4465 13.0491 42.45 13.0985 42.4571 13.1479C42.4641 13.1903 42.4712 13.2327 42.4782 13.275C42.4853 13.3174 42.4888 13.3492 42.4888 13.3704H41.1965C41.1824 13.2997 41.1718 13.2044 41.1648 13.0844C41.1506 12.9149 41.1436 12.8019 41.1436 12.7454C41.0094 12.9502 40.8187 13.1303 40.5716 13.2856C40.3244 13.441 40.0031 13.5187 39.6077 13.5187C39.3393 13.5187 39.0922 13.4763 38.8662 13.3915C38.6402 13.2927 38.4495 13.1762 38.2942 13.042C38.1388 12.8937 38.0223 12.7242 37.9446 12.5335C37.8599 12.3499 37.8175 12.1557 37.8175 11.951ZM39.9043 12.47C40.0596 12.47 40.2044 12.4488 40.3386 12.4064C40.4586 12.3782 40.5786 12.3111 40.6987 12.2052C40.8117 12.1063 40.8964 11.9827 40.9529 11.8344C41.0165 11.6861 41.0483 11.4955 41.0483 11.2624V11.0294L39.8725 11.2095C39.6818 11.2448 39.53 11.3083 39.417 11.4001C39.2899 11.5061 39.2263 11.6614 39.2263 11.8662C39.2263 12.0286 39.2828 12.1663 39.3958 12.2793C39.5088 12.4064 39.6783 12.47 39.9043 12.47ZM47.0022 9.55704C46.8821 9.52879 46.7409 9.51467 46.5785 9.51467C46.3808 9.51467 46.2077 9.53939 46.0594 9.58882C45.8758 9.65237 45.7346 9.73358 45.6357 9.83245C45.5157 9.94543 45.4204 10.0937 45.3497 10.2773C45.2721 10.4751 45.2332 10.7116 45.2332 10.987V13.3704H43.8244V8.15882H45.1909V8.93208C45.2615 8.77672 45.3639 8.63549 45.498 8.50838C45.6181 8.40245 45.7487 8.32124 45.89 8.26475C46.0453 8.20825 46.183 8.16942 46.3031 8.14823C46.4372 8.12704 46.5608 8.11645 46.6738 8.11645H46.8433C46.8645 8.11645 46.8927 8.11998 46.928 8.12704C46.9633 8.13411 46.9881 8.13764 47.0022 8.13764V9.55704ZM47.9311 13.3704V8.15882H49.3399V13.3704H47.9311ZM47.7616 6.45342C47.7616 6.20626 47.8464 5.99794 48.0158 5.82846C48.1853 5.65898 48.3901 5.57424 48.6302 5.57424C48.8774 5.57424 49.0857 5.65898 49.2552 5.82846C49.4176 6.005 49.4988 6.21332 49.4988 6.45342C49.4988 6.6794 49.4176 6.88065 49.2552 7.0572C49.0857 7.22668 48.8774 7.31142 48.6302 7.31142C48.3901 7.31142 48.1853 7.22668 48.0158 7.0572C47.8464 6.88772 47.7616 6.68646 47.7616 6.45342ZM51.6338 11.6544C51.6479 11.8662 51.7326 12.0498 51.888 12.2052C52.0504 12.3676 52.2835 12.4488 52.5871 12.4488C52.8131 12.4488 52.9861 12.3994 53.1061 12.3005C53.2191 12.1946 53.2756 12.071 53.2756 11.9298C53.2756 11.8097 53.2333 11.7073 53.1485 11.6226C53.0708 11.5308 52.9261 11.4637 52.7142 11.4213L52.0257 11.2624C51.5102 11.1424 51.1395 10.9482 50.9135 10.6799C50.6804 10.3974 50.5639 10.0725 50.5639 9.70534C50.5639 9.47936 50.6134 9.26045 50.7122 9.0486C50.8111 8.83675 50.9488 8.65667 51.1253 8.50838C51.2878 8.36008 51.4925 8.2365 51.7397 8.13764C51.9657 8.04584 52.2234 7.99993 52.513 7.99993C52.8802 7.99993 53.1909 8.0529 53.4451 8.15882C53.7064 8.25769 53.9147 8.3848 54.0701 8.54015C54.2325 8.70257 54.349 8.86852 54.4196 9.03801C54.5044 9.22867 54.5503 9.38403 54.5573 9.50408L53.3815 9.76889C53.3674 9.68415 53.3462 9.60647 53.318 9.53586C53.2897 9.45818 53.2368 9.3805 53.1591 9.30282C53.0885 9.2322 53.0002 9.17571 52.8943 9.13334C52.7954 9.09097 52.6718 9.06978 52.5236 9.06978C52.347 9.06978 52.1917 9.11921 52.0575 9.21808C51.9233 9.30988 51.8562 9.43346 51.8562 9.58882C51.8562 9.72299 51.9021 9.82539 51.9939 9.896C52.0787 9.96662 52.1917 10.0196 52.3329 10.0549L53.0744 10.2138C53.5828 10.3197 53.9677 10.5174 54.229 10.807C54.4902 11.0894 54.6209 11.4249 54.6209 11.8133C54.6209 12.0251 54.5785 12.2334 54.4938 12.4382C54.4161 12.643 54.2925 12.8266 54.123 12.989C53.9394 13.1585 53.7276 13.2892 53.4875 13.381C53.2262 13.4798 52.9296 13.5292 52.5977 13.5292C52.1881 13.5292 51.8562 13.4728 51.602 13.3598C51.3337 13.2397 51.1147 13.102 50.9453 12.9467C50.7758 12.7842 50.6522 12.6077 50.5745 12.417C50.4827 12.2264 50.4333 12.0604 50.4262 11.9192L51.6338 11.6544ZM55.7617 13.3704V8.15882H57.107V8.79438C57.1917 8.64608 57.2835 8.53309 57.3824 8.45541C57.5095 8.34949 57.6366 8.26828 57.7637 8.21179C57.9191 8.14117 58.0638 8.09174 58.198 8.06349C58.3604 8.02818 58.5052 8.01053 58.6323 8.01053C58.9925 8.01053 59.3067 8.08467 59.5751 8.23297C59.8434 8.38127 60.0447 8.59665 60.1788 8.87912C60.3766 8.56134 60.6167 8.3389 60.8991 8.21179C61.1675 8.07761 61.4782 8.01053 61.8313 8.01053C62.0643 8.01053 62.2973 8.04937 62.5304 8.12704C62.7493 8.20472 62.9505 8.32124 63.1342 8.4766C63.3036 8.63196 63.4449 8.84028 63.5579 9.10156C63.6638 9.34872 63.7167 9.64531 63.7167 9.99134V13.3704H62.3503V10.2773C62.3503 9.99487 62.2797 9.76183 62.1384 9.57823C61.9902 9.38756 61.7536 9.29223 61.4287 9.29223C61.1251 9.29223 60.8885 9.39462 60.719 9.59941C60.5496 9.79714 60.4648 10.0372 60.4648 10.3197V13.3704H59.0666V10.2773C59.0666 9.99487 58.9925 9.7583 58.8442 9.56763C58.6959 9.38403 58.4628 9.29223 58.1451 9.29223C57.8343 9.29223 57.5942 9.39109 57.4248 9.58882C57.2553 9.79361 57.1705 10.0372 57.1705 10.3197V13.3704H55.7617Z" fill="white"/>
	<defs>
		<filter id="filter0_i_3663_20214" x="0.14209" y="0" width="19.2593" height="20.2222" filterUnits="userSpaceOnUse" color-interpolation-filters="sRGB">
			<feFlood flood-opacity="0" result="BackgroundImageFix"/>
			<feBlend mode="normal" in="SourceGraphic" in2="BackgroundImageFix" result="shape"/>
			<feColorMatrix in="SourceAlpha" type="matrix" values="0 0 0 0 0 0 0 0 0 0 0 0 0 0 0 0 0 0 127 0" result="hardAlpha"/>
			<feOffset dy="0.96296"/>
			<feGaussianBlur stdDeviation="0.48148"/>
			<feComposite in2="hardAlpha" operator="arithmetic" k2="-1" k3="1"/>
			<feColorMatrix type="matrix" values="0 0 0 0 0.35625 0 0 0 0 0.375 0 0 0 0 0.364469 0 0 0 0.33 0"/>
			<feBlend mode="normal" in2="shape" result="effect1_innerShadow_3663_20214"/>
		</filter>
		<filter id="filter1_f_3663_20214" x="-5.3947" y="-5.53703" width="30.3333" height="30.3333" filterUnits="userSpaceOnUse" color-interpolation-filters="sRGB">
			<feFlood flood-opacity="0" result="BackgroundImageFix"/>
			<feBlend mode="normal" in="SourceGraphic" in2="BackgroundImageFix" result="shape"/>
			<feGaussianBlur stdDeviation="4.57406" result="effect1_foregroundBlur_3663_20214"/>
		</filter>
		<filter id="filter2_f_3663_20214" x="1.10519" y="0.962858" width="17.3331" height="17.3333" filterUnits="userSpaceOnUse" color-interpolation-filters="sRGB">
			<feFlood flood-opacity="0" result="BackgroundImageFix"/>
			<feBlend mode="normal" in="SourceGraphic" in2="BackgroundImageFix" result="shape"/>
			<feGaussianBlur stdDeviation="1.92592" result="effect1_foregroundBlur_3663_20214"/>
		</filter>
		<filter id="filter3_dd_3663_20214" x="-2.50582" y="0.240725" width="24.5556" height="24.5556" filterUnits="userSpaceOnUse" color-interpolation-filters="sRGB">
			<feFlood flood-opacity="0" result="BackgroundImageFix"/>
			<feColorMatrix in="SourceAlpha" type="matrix" values="0 0 0 0 0 0 0 0 0 0 0 0 0 0 0 0 0 0 127 0" result="hardAlpha"/>
			<feMorphology radius="2.88888" operator="erode" in="SourceAlpha" result="effect1_dropShadow_3663_20214"/>
			<feOffset dy="2.88888"/>
			<feGaussianBlur stdDeviation="4.57406"/>
			<feComposite in2="hardAlpha" operator="out"/>
			<feColorMatrix type="matrix" values="0 0 0 0 0 0 0 0 0 0 0 0 0 0 0 0 0 0 0.5 0"/>
			<feBlend mode="normal" in2="BackgroundImageFix" result="effect1_dropShadow_3663_20214"/>
			<feColorMatrix in="SourceAlpha" type="matrix" values="0 0 0 0 0 0 0 0 0 0 0 0 0 0 0 0 0 0 127 0" result="hardAlpha"/>
			<feMorphology radius="1.44444" operator="erode" in="SourceAlpha" result="effect2_dropShadow_3663_20214"/>
			<feOffset dy="1.92592"/>
			<feGaussianBlur stdDeviation="1.68518"/>
			<feComposite in2="hardAlpha" operator="out"/>
			<feColorMatrix type="matrix" values="0 0 0 0 0 0 0 0 0 0 0 0 0 0 0 0 0 0 0.5 0"/>
			<feBlend mode="normal" in2="effect1_dropShadow_3663_20214" result="effect2_dropShadow_3663_20214"/>
			<feBlend mode="normal" in="SourceGraphic" in2="effect2_dropShadow_3663_20214" result="shape"/>
		</filter>
		<linearGradient id="paint0_linear_3663_20214" x1="4.87793" y1="7.84645" x2="16.3144" y2="7.82844" gradientUnits="userSpaceOnUse">
			<stop stop-color="#7EFB31"/>
			<stop offset="0.586747" stop-color="#D7FF1F"/>
			<stop offset="0.814371" stop-color="#6DFF8A"/>
			<stop offset="1" stop-color="#16FFE1"/>
		</linearGradient>
		<linearGradient id="paint1_linear_3663_20214" x1="5.85664" y1="8.20294" x2="15.0059" y2="8.18853" gradientUnits="userSpaceOnUse">
			<stop stop-color="#7EFB31"/>
			<stop offset="0.586747" stop-color="#D7FF1F"/>
			<stop offset="0.814371" stop-color="#6DFF8A"/>
			<stop offset="1" stop-color="#16FFE1"/>
		</linearGradient>
		<linearGradient id="paint2_linear_3663_20214" x1="4.87793" y1="7.84645" x2="16.3144" y2="7.82844" gradientUnits="userSpaceOnUse">
			<stop stop-color="#7EFB31"/>
			<stop offset="0.586747" stop-color="#D7FF1F"/>
			<stop offset="0.814371" stop-color="#6DFF8A"/>
			<stop offset="1" stop-color="#16FFE1"/>
		</linearGradient>
		<clipPath id="clip0_3663_20214">
			<rect x="0.14209" width="19.2592" height="19.2592" rx="4.8148" fill="white"/>
		</clipPath>
	</defs>
</svg>
