<svg width="267" height="74" viewBox="0 0 267 74" fill="none" xmlns="http://www.w3.org/2000/svg">
	<path fill-rule="evenodd" clip-rule="evenodd" d="M59.6311 27.7368V53.5074L31.4575 70.0535L3.26833 53.5074V20.399L31.4575 3.83679L53.1102 16.5622L56.3785 14.6438L31.4575 0L0 18.4806V55.4258L31.4575 73.9063L62.9151 55.4258V25.8184L59.6311 27.7368ZM91.56 45.61L88.2762 39.8386H83.468V45.61H80.6396V28.2805H89.1559C90.1942 28.2721 91.2146 28.5537 92.1064 29.0947C92.9981 29.6358 93.7266 30.4154 94.213 31.3486C94.6992 32.2819 94.9242 33.333 94.8639 34.3875C94.8033 35.442 94.4596 36.4594 93.87 37.3287C93.2542 38.2509 92.3854 38.9682 91.3716 39.3912L94.8756 45.61H91.56ZM89.1559 31.2219H83.468V36.9771H89.1559C89.5278 36.9769 89.8954 36.8987 90.2361 36.7474C90.5766 36.5963 90.883 36.375 91.1358 36.0979C91.5274 35.6934 91.7934 35.1807 91.9006 34.6235C92.0078 34.0663 91.9516 33.4893 91.739 32.9644C91.5261 32.4395 91.1665 31.9898 90.7043 31.6714C90.2423 31.3532 89.6982 31.1802 89.1404 31.1741L89.1559 31.2219ZM119.435 28.2805L110.903 45.61H114.077L119.435 34.7549L124.778 45.61H127.952L119.435 28.2805ZM155.387 28.2805H151.773L146.917 34.675L142.078 28.2805H138.448L145.566 37.5207V45.61H148.394V37.3769L155.387 28.2805ZM169.874 28.2805H175.546C177.8 28.2972 179.957 29.2155 181.55 30.8369C183.144 32.458 184.046 34.6524 184.063 36.9452C184.05 39.2394 183.149 41.4359 181.555 43.0581C179.96 44.6804 177.801 45.5974 175.546 45.61H169.874V28.2805ZM175.546 42.6683C177.049 42.6643 178.49 42.0547 179.553 40.9733C180.616 39.8919 181.215 38.4266 181.219 36.8971C181.202 35.3717 180.599 33.9134 179.539 32.8348C178.479 31.7561 177.046 31.1427 175.546 31.126H172.687V42.6683H175.546ZM202.966 28.2805H200.138V45.61H202.966V28.2805ZM233.23 38.3679C233.246 39.3212 233.068 40.2675 232.708 41.1479C232.349 42.028 231.816 42.8235 231.139 43.4837C230.147 44.4937 228.883 45.1811 227.507 45.4592C226.129 45.737 224.703 45.5929 223.407 45.045C222.111 44.497 221.004 43.5699 220.227 42.3813C219.449 41.1926 219.036 39.7957 219.04 38.3679V28.2805H221.868V38.3679C221.868 39.517 222.317 40.6189 223.116 41.4316C223.913 42.244 224.996 42.7004 226.126 42.7004C227.256 42.7004 228.34 42.244 229.139 41.4316C229.936 40.6189 230.384 39.517 230.384 38.3679V28.2805H233.23V38.3679ZM252.132 45.61V35.2507L257.835 41.0377L263.509 35.2507V45.61H266.384V28.2805L257.835 36.9452L249.32 28.2805V45.61H252.132ZM18.8564 53.5235H23.5704V42.3328H32.9982C34.9063 42.3477 36.8046 42.0563 38.6235 41.4693C40.4604 40.6861 42.033 39.375 43.1489 37.6965C44.3614 35.9423 45.0041 33.8462 44.9872 31.7015C44.9708 28.9 43.8695 26.2178 41.9224 24.2366C39.9752 22.2556 37.3389 21.1352 34.5851 21.1184H18.8564V26.0102H34.5696C35.3041 26.0053 36.0323 26.1514 36.71 26.44C37.3877 26.7284 38.0011 27.1533 38.5134 27.689C39.0431 28.208 39.4624 28.8316 39.7463 29.5218C40.03 30.2118 40.1719 30.9537 40.1634 31.7015C40.1594 33.2142 39.5703 34.6644 38.5234 35.7383C37.4765 36.8125 36.0562 37.4241 34.5696 37.4408H18.8564V53.5235ZM44.8758 53.1237H39.3761L35.1337 45.594C36.8121 45.4895 38.4677 45.145 40.0518 44.5709L44.8758 53.1237ZM59.6002 24.2198L56.3477 22.3813V18.4965L59.6002 16.5781L62.853 18.4965V22.3813L59.6002 24.2198Z" fill="white"/>
</svg>
