<svg width="888" height="45" viewBox="0 0 888 45" fill="none" xmlns="http://www.w3.org/2000/svg">
	<path d="M54.128 16.9051C51.7058 14.9368 48.8178 13.812 45.8366 13.812C42.576 13.812 39.4086 15.0305 36.9864 17.3738C34.5642 19.717 33.1668 22.7164 32.9805 26.0907V26.4656H34.471V26.1844C34.8437 20.1857 39.8744 15.4992 45.8366 15.4992C48.5383 15.4992 51.0536 16.4365 53.1032 18.1236L53.1963 18.2173L54.3143 17.0926L54.128 16.9051Z" fill="#191B20"/>
	<path d="M52.6377 31.8084C51.0539 33.9642 48.5386 35.2764 45.8369 35.2764C41.1789 35.2764 37.4525 31.5272 37.4525 26.8407C37.4525 22.2479 41.1789 18.4987 45.8369 18.4987C48.5386 18.4987 51.0539 19.8109 52.6377 21.9667L52.7308 22.1542L53.8488 21.0294L53.7556 20.9357C51.8924 18.405 48.9113 16.999 45.8369 16.999C40.3405 16.9053 35.9619 21.4043 35.9619 26.8407C35.9619 32.3708 40.4336 36.7761 45.8369 36.7761C48.9113 36.7761 51.8924 35.2764 53.7556 32.8394L53.8488 32.7457L52.7308 31.6209L52.6377 31.8084Z" fill="#191B20"/>
	<path d="M55.8979 18.7798C55.6185 18.4986 55.4323 18.1237 55.1529 17.8425L55.0598 17.7488L53.9424 18.8735L54.0355 18.9673C54.3149 19.2485 54.5942 19.5297 54.7804 19.9046L54.8736 20.092L55.991 18.9673L55.8979 18.7798Z" fill="#191B20"/>
	<path d="M53.1038 35.6506L53.0107 35.7443C50.9611 37.4315 48.4458 38.3688 45.7441 38.3688C39.7818 38.3688 34.7512 33.6823 34.3785 27.6835V27.3086H32.8879V27.6835C33.0743 30.9641 34.5648 34.0572 36.8939 36.4004C39.316 38.65 42.4835 39.9622 45.7441 39.9622C48.8184 39.9622 51.7064 38.8374 54.0354 36.8691L54.1286 36.7754L53.1038 35.6506Z" fill="#191B20"/>
	<path d="M54.8736 33.7764L54.7804 33.9638C54.5942 34.245 54.3149 34.5262 54.0355 34.9011L53.9424 34.9949L55.0598 36.1196L55.1529 36.0259C55.4323 35.7447 55.7116 35.3698 55.8979 35.0886L55.991 34.9949L54.8736 33.7764Z" fill="#191B20"/>
	<path d="M56.8303 36.026C54.1286 39.3066 50.1227 41.2749 45.8373 41.2749C37.9187 41.2749 31.5837 34.8075 31.5837 26.8404C31.5837 18.8733 37.9187 12.4997 45.8373 12.4997C50.1227 12.4997 54.1286 14.3743 56.8303 17.7486L56.9234 17.936L58.0414 16.8113L57.9482 16.7176C54.9671 13.0621 50.4954 11 45.8373 11C37.0802 11 30 18.1235 30 26.9342C30 35.7448 37.0802 42.8683 45.8373 42.8683C50.4954 42.8683 54.9671 40.8063 57.9482 37.1508L58.0414 37.057L56.9234 35.9323L56.8303 36.026Z" fill="#191B20"/>
	<path d="M70.2441 26.559H70.4304V26.2778C70.4304 25.9967 70.4304 25.8092 70.4304 25.528C70.4304 25.2468 70.5236 24.9656 70.6167 24.7782C70.7099 24.497 70.8031 24.3095 70.8962 24.122C70.9894 23.9346 71.1757 23.7471 71.2689 23.5597C71.4552 23.3722 71.6415 23.2785 71.8278 23.1847C72.0141 23.091 72.2936 23.091 72.5731 23.091C72.8526 23.091 73.1321 23.1847 73.4116 23.2785C73.5979 23.3722 73.7842 23.5597 73.9705 23.6534C74.1568 23.8409 74.25 24.0283 74.3432 24.3095C74.4363 24.5907 74.5295 24.8719 74.5295 25.1531V25.3405H76.2064V25.1531C76.1132 24.6844 76.0201 24.2158 75.8337 23.7471C75.6474 23.3722 75.4611 22.9973 75.0885 22.6224C74.809 22.3412 74.4363 22.06 73.9705 21.9662C73.5979 21.7788 73.0389 21.6851 72.5731 21.6851C72.1073 21.6851 71.7347 21.7788 71.362 21.8725C70.9894 21.9662 70.7099 22.1537 70.4304 22.4349C70.1509 22.6224 69.8714 22.9036 69.6851 23.1847C69.4988 23.4659 69.3125 23.8409 69.2193 24.122C69.1262 24.497 69.033 24.8719 68.9398 25.2468C68.8467 25.6217 68.8467 25.9967 68.8467 26.3716V26.6528L70.2441 26.559Z" fill="#191B20"/>
	<path d="M74.5299 28.8083V28.9958C74.5299 29.2769 74.4367 29.5581 74.3435 29.8393C74.2504 30.1205 74.1572 30.308 73.9709 30.4954C73.7846 30.6829 73.5983 30.7766 73.4119 30.8704C73.2256 30.9641 72.9461 30.9641 72.5735 30.9641C72.294 30.9641 72.0145 30.8704 71.8282 30.8704C71.6419 30.7766 71.4556 30.6829 71.2692 30.4954C71.0829 30.308 70.9898 30.1205 70.8966 29.9331C70.8034 29.7456 70.7103 29.4644 70.6171 29.277C70.524 28.9958 70.4308 28.7146 70.4308 28.4334C70.4308 28.1522 70.4308 27.871 70.4308 27.6835V27.4023H68.7539V27.6835C68.7539 28.0585 68.7539 28.4334 68.8471 28.8083C68.9402 29.1832 69.0334 29.5581 69.1265 29.9331C69.2197 30.308 69.406 30.5892 69.5923 30.8704C69.7787 31.1516 70.0582 31.4327 70.3376 31.6202C70.6171 31.8077 70.9898 31.9951 71.2692 32.1826C71.6419 32.2763 72.0145 32.3701 72.4803 32.3701C72.9461 32.3701 73.4119 32.2763 73.8777 32.0889C74.2504 31.9014 74.623 31.7139 74.9957 31.4327C75.2752 31.1516 75.5546 30.7766 75.741 30.4017C75.9273 30.0268 76.0204 29.5581 76.1136 29.0895V28.902L74.5299 28.8083Z" fill="#191B20"/>
	<path d="M84.9645 28.9026H83.1953V32.3706H84.9645V28.9026Z" fill="#191B20"/>
	<path d="M88.2251 27.7778C88.4114 27.6841 88.6909 27.4966 88.8772 27.4029C89.1567 27.2154 89.343 27.028 89.5293 26.7468C89.7157 26.4656 89.8088 26.2781 89.902 25.9032C89.9951 25.622 90.0883 25.2471 90.0883 24.9659C90.0883 24.4035 89.9951 23.9349 89.8088 23.5599C89.6225 23.185 89.343 22.8101 89.0635 22.5289C88.6909 22.2477 88.3183 22.0602 87.9456 21.9665C87.573 21.8728 87.014 21.7791 86.5482 21.7791H83.3807V28.1527H86.7345L88.6909 32.2769H90.3678H90.5541L88.2251 27.7778ZM88.2251 25.7157C88.1319 25.9032 87.9456 26.0906 87.8524 26.2781C87.6661 26.3718 87.4798 26.5593 87.2003 26.653C86.9208 26.7468 86.7345 26.7468 86.455 26.7468H84.8713V23.0913H86.3619C86.6414 23.0913 86.9208 23.185 87.2003 23.185C87.4798 23.185 87.6661 23.3725 87.8524 23.5599C88.0388 23.6537 88.1319 23.9349 88.2251 24.1223C88.3183 24.3098 88.3183 24.591 88.3183 24.8722C88.4114 25.2471 88.3183 25.4345 88.2251 25.7157Z" fill="#191B20"/>
	<path d="M102.292 28.4336L105.646 21.6851H103.783L101.547 26.559L99.4042 21.6851H97.541L100.895 28.4336H102.292Z" fill="#191B20"/>
	<path d="M100.801 32.2772H102.384V29.3716H100.801V32.2772Z" fill="#191B20"/>
	<path d="M135.085 21.6851H127.073V23.1847H135.085V21.6851Z" fill="#191B20"/>
	<path d="M130.149 32.2763H131.918V24.0281H130.149V32.2763Z" fill="#191B20"/>
	<path d="M157.815 28.9966H156.139V32.2771H157.815V28.9966Z" fill="#191B20"/>
	<path d="M161.077 27.7778C161.263 27.6841 161.543 27.4966 161.729 27.4029C162.009 27.2154 162.195 27.028 162.381 26.7468C162.568 26.4656 162.661 26.2781 162.754 25.9032C162.847 25.622 162.94 25.2471 162.94 24.9659C162.94 24.4035 162.847 23.9349 162.661 23.5599C162.474 23.185 162.195 22.8101 161.915 22.5289C161.543 22.2477 161.17 22.0602 160.798 21.9665C160.332 21.8728 159.866 21.7791 159.4 21.7791H156.233V28.1527H159.586L161.543 32.2769H163.22H163.406L161.077 27.7778ZM161.17 25.7157C161.077 25.9032 160.891 26.0906 160.798 26.2781C160.611 26.3718 160.425 26.5593 160.145 26.653C159.866 26.7468 159.68 26.7468 159.4 26.7468H157.816V23.0913H159.307C159.586 23.0913 159.866 23.185 160.145 23.185C160.425 23.185 160.611 23.3725 160.798 23.5599C160.984 23.6537 161.077 23.9349 161.17 24.1223C161.263 24.3098 161.263 24.591 161.263 24.8722C161.263 25.2471 161.263 25.4345 161.17 25.7157Z" fill="#191B20"/>
	<path d="M170.393 21.6851V23.2785H172.815V32.2766H174.586V21.6851H170.393Z" fill="#191B20"/>
	<path d="M188.746 21.6851H187.163V28.8086C187.163 29.0898 187.07 29.3709 187.07 29.6521C186.976 29.9333 186.883 30.1208 186.697 30.3083C186.511 30.4957 186.324 30.6832 186.138 30.7769C185.952 30.8706 185.672 30.9644 185.299 30.9644C185.02 30.9644 184.741 30.8706 184.461 30.7769C184.275 30.6832 184.088 30.4957 183.902 30.3083C183.716 30.1208 183.623 29.8396 183.529 29.6521C183.436 29.3709 183.436 29.0898 183.436 28.8086V27.4026H181.853V28.8086C181.853 29.2772 181.946 29.7459 182.132 30.2145C182.318 30.6832 182.505 31.0581 182.877 31.3393C183.157 31.7142 183.529 31.9017 183.995 32.0891C184.368 32.2766 184.927 32.3703 185.393 32.3703C185.858 32.3703 186.324 32.2766 186.79 32.0891C187.163 31.9017 187.629 31.6205 187.908 31.3393C188.187 30.9644 188.467 30.5894 188.653 30.2145C188.84 29.7459 188.933 29.2772 188.933 28.8086L188.746 21.6851Z" fill="#191B20"/>
	<path d="M183.342 21.6851H181.759V26.559H183.342V21.6851Z" fill="#191B20"/>
	<path d="M201.138 21.6851L199.461 26.4653L197.877 21.6851H196.014V32.2766H197.597V28.0587L197.504 25.1531L198.902 29.4647H199.926L201.417 24.8719V26.559H203.001V21.6851H201.138Z" fill="#191B20"/>
	<path d="M201.417 28.059V32.2768H203V27.4966H201.417V28.059Z" fill="#191B20"/>
	<path d="M119.62 23.5597C119.434 23.1847 119.154 22.8098 118.875 22.5286C118.502 22.2474 118.223 22.06 117.757 21.8725C117.384 21.7788 116.919 21.6851 116.453 21.6851H113.006V25.9029H114.683V23.091H116.546C116.825 23.091 117.105 23.1847 117.291 23.1847C117.478 23.2785 117.757 23.3722 117.85 23.5597C118.037 23.7471 118.13 23.9346 118.223 24.122C118.316 24.3095 118.316 24.5907 118.316 24.8719C118.316 25.1531 118.223 25.4343 118.223 25.6217C118.13 25.8092 118.037 25.9967 117.85 26.1841C117.664 26.3716 117.478 26.4653 117.291 26.559C117.105 26.6528 116.825 26.6528 116.546 26.6528H113.099V32.1829H114.776V28.0587H116.639C117.105 28.0587 117.571 27.965 117.943 27.8713C118.409 27.7775 118.782 27.4963 119.061 27.2151C119.341 26.934 119.62 26.559 119.807 26.1841C119.993 25.8092 120.086 25.3405 120.086 24.7782C119.9 24.4032 119.807 23.9346 119.62 23.5597Z" fill="#191B20"/>
	<path d="M148.22 27.5903V26.0906H144.027V23.185H148.872V21.6853H142.351V27.5903H143.841H148.22Z" fill="#191B20"/>
	<path d="M144.027 30.8711V28.4341H142.351V32.277H148.965V30.8711H144.027Z" fill="#191B20"/>
	<g clip-path="url(#clip0_3663_19965)">
		<g filter="url(#filter0_i_3663_19965)">
			<rect x="728" y="6.48145" width="38.5185" height="38.5185" rx="9.62963" fill="#191B20"/>
		</g>
		<g opacity="0.15" filter="url(#filter1_f_3663_19965)">
			<circle cx="747.26" cy="25.7408" r="12.037" transform="rotate(-90 747.26 25.7408)" fill="url(#paint0_linear_3663_19965)"/>
			<circle cx="747.26" cy="25.7408" r="11.5556" transform="rotate(-90 747.26 25.7408)" stroke="white" stroke-opacity="0.34" stroke-width="0.962963"/>
		</g>
		<g opacity="0.3" filter="url(#filter2_f_3663_19965)">
			<circle cx="747.26" cy="25.7407" r="9.62963" transform="rotate(-90 747.26 25.7407)" fill="url(#paint1_linear_3663_19965)"/>
			<circle cx="747.26" cy="25.7407" r="9.14815" transform="rotate(-90 747.26 25.7407)" stroke="white" stroke-opacity="0.34" stroke-width="0.962963"/>
		</g>
		<g filter="url(#filter3_dd_3663_19965)">
			<circle cx="747.26" cy="25.7408" r="12.037" transform="rotate(-90 747.26 25.7408)" fill="url(#paint2_linear_3663_19965)"/>
			<circle cx="747.26" cy="25.7408" r="11.5556" transform="rotate(-90 747.26 25.7408)" stroke="white" stroke-opacity="0.5" stroke-width="0.962963"/>
		</g>
	</g>
	<path d="M782.781 33.5399C783.841 33.5399 784.773 33.3916 785.578 33.0527C786.362 32.7349 787.061 32.3324 787.633 31.8451C788.205 31.3579 788.65 30.8071 789.01 30.2139C789.349 29.5995 789.582 29.0063 789.73 28.4343L786.997 27.6081C786.891 27.9682 786.743 28.3284 786.531 28.6885C786.319 29.0487 786.044 29.3665 785.705 29.6631C785.366 29.9596 784.964 30.2139 784.476 30.4045C783.989 30.5952 783.417 30.6799 782.781 30.6799C782.167 30.6799 781.595 30.574 781.044 30.3622C780.472 30.1291 779.985 29.8114 779.561 29.4088C779.116 28.9851 778.777 28.4767 778.523 27.8623C778.248 27.2479 778.121 26.5276 778.121 25.7226C778.121 24.8752 778.248 24.1337 778.523 23.4982C778.799 22.8626 779.138 22.333 779.583 21.9305C780.027 21.5279 780.515 21.2102 781.065 21.0195C781.616 20.8076 782.167 20.7017 782.739 20.7017C783.396 20.7017 783.947 20.7865 784.434 20.9771C784.921 21.1678 785.324 21.4008 785.663 21.6762C785.98 21.9516 786.256 22.2906 786.447 22.6508C786.637 23.0109 786.785 23.3711 786.87 23.7312L789.624 22.8626C789.476 22.2482 789.222 21.6551 788.883 21.0619C788.523 20.4687 788.078 19.9391 787.527 19.473C786.955 18.9857 786.277 18.6044 785.493 18.329C784.688 18.0324 783.777 17.8841 782.739 17.8841C781.743 17.8841 780.769 18.0748 779.858 18.4349C778.926 18.7951 778.1 19.3247 777.4 20.0026C776.701 20.6805 776.129 21.5068 775.727 22.4813C775.303 23.4346 775.091 24.5151 775.091 25.7226C775.091 26.9302 775.303 28.0106 775.706 28.9639C776.108 29.9173 776.68 30.7435 777.379 31.4214C778.078 32.0994 778.883 32.629 779.816 32.9891C780.748 33.3493 781.743 33.5399 782.781 33.5399ZM794.494 33.2222V27.0996C794.515 26.5276 794.706 26.0404 795.045 25.6591C795.384 25.2565 795.85 25.0659 796.443 25.0659C797.121 25.0659 797.608 25.2565 797.926 25.6591C798.222 26.0616 798.371 26.5488 798.371 27.142V33.2222H801.188V26.6548C801.188 26.0828 801.104 25.5531 800.955 25.0447C800.807 24.5362 800.574 24.0914 800.256 23.7312C799.938 23.3711 799.536 23.0745 799.049 22.8626C798.561 22.6296 797.968 22.5236 797.312 22.5236C796.824 22.5236 796.316 22.6084 795.786 22.7991C795.257 22.9685 794.833 23.2651 794.494 23.6676V17.8841H791.676V33.2222H794.494ZM803.351 30.3834C803.351 30.7859 803.436 31.1884 803.605 31.5485C803.753 31.9299 803.987 32.2688 804.304 32.5654C804.622 32.8408 805.003 33.0739 805.448 33.2645C805.893 33.434 806.38 33.5188 806.931 33.5188C807.715 33.5188 808.351 33.3705 808.859 33.0527C809.346 32.7349 809.728 32.3748 810.003 31.9722C810.003 32.1629 810.024 32.3959 810.045 32.6502C810.067 32.8832 810.088 33.0739 810.109 33.2222H812.694C812.672 33.0315 812.63 32.7985 812.609 32.4807C812.588 32.1629 812.567 31.8451 812.567 31.5697V26.4429C812.567 25.9133 812.482 25.426 812.333 24.9388C812.164 24.4515 811.91 24.049 811.55 23.6888C811.189 23.3287 810.702 23.0321 810.13 22.8202C809.558 22.5872 808.859 22.4813 808.033 22.4813C807.334 22.4813 806.698 22.5872 806.169 22.7991C805.639 22.9897 805.173 23.2651 804.813 23.5829C804.453 23.9007 804.156 24.282 803.944 24.6845C803.732 25.0871 803.605 25.5108 803.563 25.9133L806.063 26.4429C806.105 25.998 806.296 25.5955 806.635 25.2565C806.952 24.9176 807.44 24.7481 808.054 24.7481C808.647 24.7481 809.092 24.8752 809.389 25.1506C809.664 25.426 809.812 25.7438 809.812 26.1039C809.812 26.2946 809.749 26.4429 809.643 26.57C809.537 26.7183 809.325 26.8031 809.029 26.8454L806.465 27.2268C806.02 27.2903 805.618 27.4174 805.258 27.5657C804.876 27.714 804.537 27.9259 804.262 28.2013C803.987 28.4767 803.753 28.7733 803.605 29.1334C803.436 29.4936 803.351 29.9173 803.351 30.3834ZM807.524 31.4214C807.08 31.4214 806.741 31.2943 806.508 31.0401C806.275 30.8071 806.169 30.5316 806.169 30.2139C806.169 29.8114 806.296 29.4936 806.55 29.2817C806.783 29.0911 807.101 28.9639 807.461 28.9004L809.812 28.5402V29.0063C809.812 29.4724 809.749 29.8537 809.622 30.1503C809.495 30.4681 809.325 30.7011 809.113 30.8918C808.901 31.0825 808.668 31.2308 808.393 31.2943C808.118 31.3791 807.821 31.4214 807.524 31.4214ZM821.72 25.5955V22.7567C821.614 22.7355 821.508 22.7355 821.403 22.7143C821.297 22.7143 821.17 22.7143 821.064 22.7143C820.831 22.7143 820.598 22.7355 820.322 22.7779C820.047 22.8202 819.771 22.905 819.496 23.0109C819.22 23.1168 818.945 23.2863 818.712 23.4982C818.458 23.7312 818.246 24.0066 818.098 24.3456V22.7991H815.365V33.2222H818.182V28.4555C818.182 27.8835 818.267 27.4174 818.415 27.0361C818.564 26.6759 818.754 26.3794 818.987 26.1463C819.22 25.9133 819.517 25.765 819.835 25.6591C820.153 25.5531 820.513 25.5108 820.873 25.5108C821.148 25.5108 821.445 25.5319 821.72 25.5955ZM823.578 33.2222H826.396V22.7991H823.578V33.2222ZM823.239 19.3882C823.239 19.8543 823.409 20.2568 823.748 20.5958C824.087 20.9348 824.489 21.1042 824.976 21.1042C825.464 21.1042 825.887 20.9348 826.226 20.5958C826.544 20.2568 826.714 19.8543 826.714 19.3882C826.714 18.901 826.544 18.4773 826.226 18.1383C825.887 17.7994 825.464 17.6299 824.976 17.6299C824.489 17.6299 824.087 17.7994 823.748 18.1383C823.409 18.4773 823.239 18.901 823.239 19.3882ZM830.984 29.7902L828.568 30.3198C828.59 30.6164 828.696 30.9554 828.865 31.3155C829.013 31.6968 829.268 32.057 829.607 32.3748C829.945 32.6925 830.39 32.9679 830.92 33.201C831.45 33.434 832.128 33.5399 832.911 33.5399C833.589 33.5399 834.183 33.434 834.691 33.2434C835.199 33.0527 835.623 32.7773 835.962 32.4595C836.301 32.1417 836.555 31.7604 836.704 31.3579C836.873 30.9554 836.958 30.5316 836.958 30.1079C836.958 29.3453 836.704 28.6674 836.174 28.0954C835.665 27.5234 834.903 27.1208 833.865 26.909L832.382 26.5912C832.106 26.5276 831.873 26.4217 831.704 26.2734C831.513 26.1251 831.428 25.9133 831.428 25.6591C831.428 25.3625 831.556 25.1082 831.831 24.9176C832.085 24.7269 832.403 24.621 832.763 24.621C833.06 24.621 833.314 24.6634 833.505 24.7481C833.716 24.8328 833.886 24.9388 834.034 25.0871C834.183 25.2354 834.288 25.3836 834.352 25.5531C834.416 25.7014 834.458 25.8709 834.479 26.0192L836.831 25.4896C836.809 25.2142 836.704 24.8964 836.555 24.5574C836.407 24.1973 836.174 23.8795 835.856 23.5617C835.538 23.2439 835.115 22.9897 834.606 22.7991C834.098 22.5872 833.483 22.4813 832.742 22.4813C832.17 22.4813 831.661 22.566 831.195 22.7567C830.708 22.9474 830.306 23.1804 829.967 23.4982C829.607 23.7948 829.331 24.1549 829.14 24.5786C828.95 24.9811 828.844 25.426 828.844 25.8921C828.844 26.6336 829.077 27.2691 829.543 27.8411C830.009 28.3919 830.751 28.7733 831.767 29.0063L833.144 29.3241C833.547 29.4088 833.844 29.5359 834.013 29.7266C834.183 29.8961 834.267 30.1079 834.267 30.341C834.267 30.6164 834.161 30.8706 833.928 31.0825C833.695 31.2731 833.356 31.3791 832.89 31.3791C832.276 31.3791 831.81 31.2096 831.492 30.8918C831.174 30.574 831.005 30.1927 830.984 29.7902ZM839.239 33.2222H842.057V27.1208C842.057 26.5488 842.227 26.0616 842.566 25.6591C842.905 25.2565 843.392 25.0659 844.006 25.0659C844.642 25.0659 845.108 25.2565 845.404 25.6167C845.701 25.998 845.849 26.4641 845.849 27.0361V33.2222H848.646V27.1208C848.646 26.5488 848.815 26.0828 849.154 25.6802C849.493 25.2777 849.959 25.0659 850.574 25.0659C851.23 25.0659 851.696 25.2565 851.993 25.6379C852.268 25.998 852.417 26.4641 852.417 27.0361V33.2222H855.15V26.4641C855.15 25.765 855.044 25.1718 854.832 24.6845C854.62 24.1761 854.345 23.7524 853.984 23.4346C853.624 23.1168 853.222 22.8838 852.777 22.7355C852.332 22.5872 851.866 22.5025 851.379 22.5025C850.679 22.5025 850.065 22.6296 849.514 22.905C848.963 23.1592 848.476 23.6041 848.074 24.2396C847.798 23.6676 847.396 23.2439 846.866 22.9474C846.337 22.6508 845.701 22.5025 844.981 22.5025C844.705 22.5025 844.409 22.5448 844.112 22.6084C843.794 22.6719 843.519 22.7779 843.243 22.905C842.968 23.0321 842.714 23.2016 842.481 23.3922C842.248 23.5829 842.078 23.8159 841.93 24.0702V22.7991H839.239V33.2222Z" fill="#191B20"/>
	<path d="M357.202 23.6016C357.202 16.5697 363.059 10.8691 370.283 10.8691H392.26C399.485 10.8691 405.341 16.5697 405.341 23.6016V23.6016C405.341 30.6336 399.485 36.3341 392.26 36.3341H370.283C363.059 36.3341 357.202 30.6336 357.202 23.6016V23.6016Z" fill="#1D1D1F"/>
	<path d="M374.994 23.6014C374.994 18.207 379.445 13.834 384.936 13.834H391.215C396.706 13.834 401.157 18.207 401.157 23.6014V23.6014C401.157 28.9957 396.706 33.3687 391.215 33.3687H384.936C379.445 33.3687 374.994 28.9957 374.994 23.6014V23.6014Z" fill="url(#paint3_linear_3663_19965)"/>
	<path d="M426.8 17.3268C426.08 17.6113 425.427 18.0415 424.881 18.5904C424.316 19.2235 423.865 19.9498 423.549 20.7369C423.195 21.6575 423.024 22.6385 423.047 23.6246C423.014 24.6102 423.175 25.5927 423.521 26.5163C423.826 27.3092 424.271 28.0414 424.832 28.679C425.384 29.2528 426.049 29.7064 426.784 30.0114C427.547 30.3113 428.36 30.4652 429.181 30.465C429.916 30.474 430.647 30.3449 431.335 30.0843C431.941 29.876 432.507 29.5636 433.007 29.1609C433.447 28.7932 433.815 28.3469 434.092 27.8447C434.243 27.5969 434.378 27.3399 434.497 27.0752C434.574 26.9024 434.714 26.765 434.888 26.69C435.062 26.6151 435.257 26.608 435.436 26.6702L439.772 28.1403C439.963 28.2042 440.121 28.3409 440.211 28.5208C440.301 28.7007 440.317 28.909 440.254 29.1002C439.984 29.8763 439.623 30.6173 439.177 31.3074C438.535 32.2919 437.736 33.1647 436.813 33.8913C435.812 34.7025 434.683 35.3416 433.472 35.7827C432.079 36.249 430.617 36.475 429.148 36.4509C427.454 36.4667 425.775 36.1201 424.225 35.4344C422.71 34.8286 421.332 33.9221 420.176 32.7695C419.017 31.6026 418.101 30.2161 417.484 28.6911C416.832 27.0714 416.509 25.3381 416.532 23.5922C416.529 21.83 416.87 20.0841 417.537 18.4527C418.135 16.9476 419.032 15.5797 420.175 14.4323C421.318 13.2849 422.682 12.382 424.185 11.7783C425.74 11.1479 427.406 10.8393 429.084 10.8711C430.581 10.8671 432.068 11.1065 433.489 11.5799C434.684 12.0351 435.803 12.6687 436.809 13.4591C437.723 14.1822 438.498 15.066 439.096 16.0673C439.53 16.782 439.883 17.5427 440.149 18.3353C440.21 18.526 440.193 18.7331 440.102 18.9115C440.011 19.0899 439.853 19.2249 439.663 19.287L435.209 20.7531C435.024 20.813 434.823 20.7997 434.647 20.7162C434.47 20.6327 434.333 20.4851 434.262 20.3036C433.934 19.5121 433.452 18.7935 432.845 18.1895C432.035 17.3511 430.796 16.9056 429.181 16.8975C428.367 16.8898 427.56 17.0355 426.8 17.3268Z" fill="#1D1D1F"/>
	<path d="M442.133 35.0091L442.307 1.07011C442.308 0.970116 442.328 0.871211 442.367 0.779037C442.405 0.686862 442.462 0.603224 442.533 0.532897C442.604 0.46257 442.688 0.406932 442.781 0.36916C442.873 0.331388 442.972 0.312222 443.072 0.312755L448.064 0.337055C448.266 0.340231 448.458 0.422149 448.599 0.565243C448.741 0.708336 448.821 0.901211 448.822 1.10251L448.765 11.9768C448.763 12.1151 448.799 12.2513 448.87 12.3706C448.94 12.4898 449.042 12.5875 449.163 12.653C449.285 12.7185 449.423 12.7494 449.561 12.7423C449.699 12.7352 449.833 12.6903 449.947 12.6126C450.499 12.2213 451.11 11.9206 451.757 11.7216C452.889 11.3125 454.084 11.1028 455.287 11.102C456.667 11.0716 458.036 11.3482 459.296 11.912C460.366 12.3631 461.318 13.0548 462.078 13.9335C462.837 14.8122 463.384 15.8541 463.676 16.9785C464.028 18.189 464.204 19.4439 464.199 20.7045L464.122 35.1266C464.122 35.2264 464.102 35.3252 464.064 35.4173C464.025 35.5095 463.969 35.5932 463.899 35.6635C463.828 35.7339 463.744 35.7896 463.652 35.8274C463.559 35.8653 463.46 35.8845 463.361 35.8839L458.368 35.8596C458.269 35.8591 458.17 35.8389 458.078 35.8001C457.985 35.7614 457.902 35.7048 457.831 35.6337C457.761 35.5627 457.706 35.4784 457.668 35.3859C457.63 35.2933 457.611 35.1942 457.611 35.0942L457.68 21.798C457.727 20.5734 457.371 19.3672 456.668 18.3636C455.939 17.4281 454.814 16.9826 453.247 16.9745C452.639 16.9381 452.031 17.0414 451.47 17.2766C450.908 17.5118 450.408 17.8726 450.008 18.3312C449.198 19.2502 448.742 20.4274 448.72 21.6522L448.652 35.0496C448.649 35.2512 448.568 35.4438 448.425 35.5856C448.281 35.7274 448.088 35.807 447.886 35.807L442.89 35.7746C442.79 35.774 442.691 35.7538 442.599 35.7151C442.507 35.6763 442.423 35.6198 442.353 35.5487C442.283 35.4776 442.227 35.3934 442.189 35.3008C442.152 35.2082 442.133 35.1091 442.133 35.0091V35.0091Z" fill="#1D1D1F"/>
	<path d="M483.823 12.0824C485.318 12.7019 486.678 13.6071 487.827 14.7474C488.964 15.9186 489.856 17.3052 490.451 18.8257C491.082 20.4669 491.388 22.2151 491.354 23.9733C491.377 25.7169 491.052 27.4477 490.398 29.0641C489.79 30.5798 488.882 31.9572 487.73 33.1141C485.874 34.8535 483.556 36.0214 481.054 36.4781C478.552 36.9349 475.971 36.6613 473.62 35.6899C472.126 35.0685 470.767 34.162 469.62 33.021C468.479 31.8525 467.587 30.4652 466.996 28.9426C466.357 27.3205 466.049 25.5868 466.09 23.8437C466.072 22.0857 466.398 20.3413 467.049 18.7083C467.655 17.1925 468.561 15.8149 469.713 14.6582C470.872 13.5286 472.24 12.637 473.742 12.0338C476.996 10.8113 480.586 10.8301 483.827 12.0865L483.823 12.0824ZM480.989 30.3358C481.735 30.0536 482.406 29.6048 482.952 29.0236C483.53 28.4178 483.984 27.7052 484.289 26.9257C484.662 25.9753 484.849 24.9619 484.839 23.9409C484.861 22.9201 484.684 21.9048 484.317 20.952C484.021 20.1688 483.575 19.4507 483.005 18.8379C482.463 18.2524 481.796 17.7969 481.054 17.5054C479.58 16.9101 477.934 16.9014 476.454 17.4811C475.711 17.7684 475.04 18.2165 474.491 18.7933C473.912 19.3991 473.459 20.1135 473.159 20.8953C472.43 22.8178 472.419 24.9386 473.126 26.869C473.421 27.6508 473.864 28.3685 474.43 28.9831C474.974 29.5661 475.64 30.0212 476.381 30.3156C477.857 30.9078 479.504 30.9151 480.985 30.3358H480.989Z" fill="#1D1D1F"/>
	<path d="M494.016 1.16326C494.383 0.785079 494.824 0.486676 495.312 0.286685C495.8 0.0866952 496.323 -0.0105871 496.85 0.000912667C497.386 -0.00710543 497.919 0.0943516 498.414 0.299081C498.91 0.50381 499.359 0.80751 499.733 1.19161C500.467 1.97474 500.865 3.01418 500.842 4.08737C500.845 4.61517 500.742 5.13816 500.538 5.62503C500.334 6.11191 500.034 6.55267 499.656 6.92094C499.278 7.28921 498.83 7.57743 498.338 7.76835C497.846 7.95927 497.321 8.04896 496.794 8.03207C496.265 8.04044 495.74 7.93934 495.252 7.73512C494.765 7.53091 494.324 7.228 493.959 6.84542C493.591 6.48099 493.3 6.04528 493.105 5.56484C492.91 5.0844 492.815 4.5693 492.826 4.05092C492.817 3.51382 492.918 2.98055 493.122 2.48394C493.327 1.98733 493.631 1.53788 494.016 1.16326V1.16326ZM494.328 11.9403L499.32 11.9646C499.42 11.9652 499.519 11.9854 499.611 12.0241C499.703 12.0629 499.787 12.1194 499.857 12.1905C499.927 12.2616 499.983 12.3458 500.021 12.4384C500.058 12.531 500.078 12.6301 500.077 12.7301L499.96 35.3048C499.955 35.5042 499.873 35.694 499.729 35.8327C499.586 35.9715 499.394 36.0481 499.194 36.0459H494.206C494.106 36.0449 494.007 36.024 493.915 35.9844C493.823 35.9449 493.74 35.8875 493.67 35.8155C493.601 35.7436 493.546 35.6585 493.51 35.5653C493.473 35.4721 493.455 35.3725 493.457 35.2724L493.571 12.6977C493.572 12.4971 493.652 12.3051 493.794 12.1633C493.935 12.0215 494.127 11.9414 494.328 11.9403V11.9403Z" fill="#1D1D1F"/>
	<path d="M508.752 30.7242C509.485 31.4613 510.558 31.8582 511.991 31.8663C512.842 31.9243 513.687 31.6837 514.38 31.1859C514.631 30.977 514.833 30.7159 514.973 30.4207C515.113 30.1256 515.187 29.8035 515.189 29.4768C515.194 29.2125 515.145 28.9499 515.045 28.705C514.946 28.46 514.798 28.2377 514.61 28.0512C514.205 27.6098 513.537 27.3101 512.606 27.1116L509.412 26.3664C507.064 25.8156 505.363 24.9287 504.282 23.6489C503.229 22.3825 502.664 20.7803 502.691 19.1331C502.695 18.0824 502.935 17.046 503.391 16.0997C503.829 15.1318 504.488 14.2801 505.314 13.613C506.14 12.8682 507.103 12.2905 508.149 11.912C509.289 11.4744 510.503 11.2639 511.724 11.2923C513.195 11.2611 514.659 11.5184 516.031 12.0497C517.105 12.433 518.086 13.0388 518.91 13.8276C519.598 14.483 520.149 15.2692 520.53 16.1402C520.73 16.5899 520.895 17.0543 521.024 17.5293C521.047 17.6281 521.051 17.7306 521.035 17.8308C521.019 17.9311 520.983 18.027 520.929 18.1131C520.875 18.1991 520.804 18.2735 520.721 18.3318C520.638 18.3902 520.544 18.4313 520.445 18.4527L516.457 19.3316C516.269 19.3732 516.073 19.342 515.907 19.2443C515.742 19.1465 515.62 18.9895 515.566 18.8051C515.527 18.6674 515.479 18.5322 515.424 18.4001C515.265 17.9896 515.016 17.62 514.695 17.3187C514.35 16.9733 513.936 16.7043 513.481 16.529C512.936 16.3128 512.354 16.2094 511.768 16.2252C510.994 16.2067 510.235 16.4445 509.61 16.9016C509.317 17.0836 509.076 17.3387 508.91 17.6418C508.745 17.9449 508.661 18.2857 508.667 18.6309C508.65 18.9012 508.699 19.1714 508.809 19.4188C508.919 19.6662 509.087 19.8835 509.298 20.0525C509.755 20.4226 510.294 20.6769 510.869 20.7936L514.291 21.5429C516.687 22.0451 518.445 22.9847 519.615 24.3131C520.793 25.5768 521.432 27.2507 521.396 28.9787C521.388 29.9704 521.183 30.9506 520.793 31.8623C520.422 32.832 519.83 33.7016 519.064 34.4017C518.215 35.1887 517.219 35.7998 516.133 36.1998C513.288 37.1316 510.213 37.0773 507.404 36.046C506.3 35.5797 505.282 34.9322 504.391 34.1303C503.649 33.4471 503.069 32.6074 502.691 31.6719C502.457 31.1798 502.272 30.6657 502.14 30.137C502.116 30.0383 502.113 29.9357 502.129 29.8355C502.146 29.7353 502.183 29.6395 502.237 29.5537C502.291 29.4679 502.362 29.394 502.446 29.3362C502.53 29.2785 502.624 29.2382 502.723 29.2176L506.821 28.3509C507.012 28.3094 507.212 28.344 507.378 28.4476C507.545 28.5512 507.664 28.7156 507.711 28.9058C507.89 29.5938 508.249 30.2215 508.752 30.7242V30.7242Z" fill="#1D1D1F"/>
	<path d="M544.193 32.377C543.548 33.3013 542.75 34.1081 541.833 34.7624C540.856 35.466 539.781 36.0214 538.642 36.4108C537.324 36.8101 535.951 37.0014 534.573 36.9778C532.954 36.969 531.349 36.6799 529.828 36.1232C528.344 35.557 526.997 34.6818 525.877 33.5555C524.711 32.3973 523.801 31.0081 523.204 29.4772C522.505 27.7496 522.164 25.8975 522.204 24.034C522.197 22.2398 522.538 20.4613 523.208 18.7973C523.806 17.3176 524.696 15.9734 525.824 14.8445C526.92 13.7544 528.224 12.895 529.658 12.3173C531.061 11.7021 532.58 11.3929 534.112 11.4101C537.881 11.4101 540.768 12.5684 542.861 14.7838C544.954 16.9991 545.966 20.0893 545.946 23.9611C545.953 24.4018 545.935 24.8426 545.893 25.2814V25.2814C545.872 25.4664 545.782 25.6369 545.643 25.7602C545.503 25.8835 545.323 25.9509 545.136 25.9496L529.468 25.8727C529.356 25.871 529.246 25.894 529.145 25.9398C529.043 25.9857 528.953 26.0534 528.881 26.1381C528.809 26.2228 528.756 26.3224 528.726 26.4299C528.697 26.5373 528.692 26.6499 528.711 26.7596C528.791 27.2158 528.934 27.6587 529.136 28.0759C529.473 28.718 529.917 29.2985 530.448 29.7931C530.998 30.2968 531.634 30.6974 532.326 30.9757L532.403 31.004C533.129 31.2624 533.892 31.3993 534.662 31.409C536.181 31.409 537.407 31.081 538.241 30.3965C538.948 29.8605 539.521 29.1672 539.913 28.3715C539.99 28.2072 540.122 28.0758 540.287 28.0015C540.453 27.9271 540.639 27.9147 540.812 27.9665L544.861 29.1815C544.96 29.2107 545.052 29.2599 545.132 29.326C545.211 29.3921 545.276 29.4738 545.323 29.566C545.369 29.6581 545.397 29.7589 545.403 29.862C545.409 29.9652 545.394 30.0685 545.359 30.1657C545.067 30.9499 544.675 31.6931 544.193 32.377V32.377ZM539.169 19.7612C538.97 19.18 538.637 18.6541 538.197 18.2263C537.731 17.7451 537.164 17.3743 536.537 17.1409C535.796 16.8205 534.995 16.6657 534.189 16.6873C533.41 16.6696 532.637 16.8202 531.921 17.1287C531.304 17.4032 530.739 17.7812 530.249 18.2465C529.818 18.6868 529.467 19.1995 529.213 19.7612C529.107 19.9904 529.019 20.2274 528.95 20.47C528.919 20.5824 528.915 20.7005 528.937 20.8148C528.96 20.9292 529.008 21.0368 529.079 21.1293C529.15 21.2218 529.242 21.2967 529.346 21.3481C529.451 21.3995 529.566 21.4261 529.682 21.4258L538.658 21.4744C538.774 21.4743 538.887 21.4483 538.991 21.3981C539.095 21.3479 539.186 21.2749 539.258 21.1846C539.329 21.0942 539.38 20.9888 539.405 20.8763C539.43 20.7638 539.43 20.647 539.403 20.5348C539.351 20.2698 539.272 20.0107 539.169 19.7612V19.7612Z" fill="#1D1D1F"/>
	<path d="M553.256 13.4258C553.037 13.5146 552.839 13.649 552.673 13.8204C552.501 14.0181 552.364 14.2449 552.268 14.4907C552.16 14.7781 552.109 15.0845 552.115 15.3924C552.105 15.7002 552.154 16.007 552.259 16.2954C552.352 16.5443 552.487 16.7743 552.658 16.9745C552.825 17.1541 553.027 17.2958 553.251 17.3906C553.483 17.4848 553.73 17.5329 553.979 17.5323C554.203 17.5357 554.425 17.4954 554.634 17.4134C554.818 17.3486 554.99 17.251 555.142 17.125C555.275 17.0102 555.387 16.8708 555.471 16.714C555.517 16.6366 555.558 16.5564 555.594 16.4737C555.618 16.4199 555.66 16.3772 555.713 16.3538C555.766 16.3305 555.825 16.3281 555.88 16.3472L557.197 16.8063C557.253 16.827 557.3 16.8692 557.326 16.9242C557.353 16.9791 557.358 17.0424 557.34 17.101C557.258 17.3435 557.148 17.5749 557.013 17.7903C556.818 18.0977 556.575 18.3702 556.294 18.5971C555.99 18.8503 555.647 19.0503 555.279 19.189C554.857 19.3327 554.414 19.4024 553.969 19.3951C553.454 19.4015 552.944 19.2941 552.473 19.0802C552.013 18.8911 551.594 18.608 551.243 18.2481C550.891 17.8839 550.612 17.4509 550.425 16.9745C550.227 16.4687 550.129 15.9275 550.136 15.3823C550.135 14.832 550.239 14.2868 550.441 13.7774C550.623 13.3074 550.896 12.8802 551.243 12.5219C551.59 12.1636 552.005 11.8817 552.461 11.6932C552.934 11.4963 553.44 11.3999 553.95 11.4099C554.404 11.4086 554.856 11.4834 555.288 11.6312C555.651 11.7739 555.991 11.9717 556.297 12.218C556.575 12.4438 556.81 12.7198 556.992 13.0325C557.123 13.2559 557.231 13.4934 557.313 13.7407C557.331 13.8004 557.325 13.865 557.297 13.9205C557.269 13.9761 557.222 14.0182 557.164 14.0379L555.811 14.4957C555.754 14.5144 555.693 14.5103 555.64 14.4842C555.586 14.4581 555.545 14.412 555.523 14.3553C555.423 14.1082 555.277 13.8838 555.092 13.6952C554.846 13.4334 554.47 13.2943 553.979 13.2917C553.732 13.2893 553.487 13.3348 553.256 13.4258V13.4258Z" fill="#1D1D1F"/>
	<path d="M562.876 11.7478C563.33 11.9417 563.743 12.2244 564.092 12.58C564.438 12.9453 564.709 13.3784 564.889 13.8535C565.081 14.3647 565.174 14.9094 565.163 15.4572C565.17 16.0017 565.072 16.5421 564.873 17.0469C564.688 17.5201 564.413 17.9502 564.063 18.3116C563.711 18.6638 563.295 18.9422 562.839 19.1311C562.354 19.3401 561.831 19.4418 561.305 19.4296C560.78 19.4393 560.258 19.3355 559.774 19.1248C559.32 18.9309 558.907 18.6482 558.558 18.2926C558.212 17.9254 557.942 17.4901 557.764 17.0127C557.57 16.5061 557.477 15.9647 557.489 15.4205C557.483 14.8705 557.58 14.3245 557.777 13.8131C557.962 13.3401 558.237 12.9101 558.587 12.5484C558.942 12.1963 559.359 11.918 559.817 11.7289C560.806 11.3475 561.897 11.3533 562.882 11.7453L562.876 11.7478ZM562.015 17.4491C562.242 17.3597 562.446 17.2192 562.613 17.038C562.788 16.8486 562.925 16.6261 563.018 16.3829C563.13 16.0881 563.187 15.7739 563.185 15.4572C563.191 15.1384 563.136 14.8215 563.025 14.5238C562.936 14.2793 562.801 14.0551 562.628 13.8637C562.462 13.6811 562.259 13.5389 562.034 13.4476C561.587 13.2592 561.087 13.2543 560.636 13.4337C560.41 13.523 560.206 13.663 560.038 13.8434C559.863 14.0331 559.726 14.2561 559.634 14.4998C559.52 14.7965 559.463 15.1129 559.465 15.4319C559.46 15.7505 559.514 16.0673 559.624 16.3652C559.714 16.6096 559.849 16.8337 560.022 17.0254C560.188 17.2076 560.39 17.3497 560.615 17.4415C560.837 17.5335 561.074 17.5816 561.314 17.5831C561.553 17.5836 561.791 17.5381 562.014 17.4491H562.015Z" fill="#1D1D1F"/>
	<path d="M566.068 11.7035L567.495 11.7111C567.525 11.7109 567.556 11.717 567.584 11.7289C567.612 11.7409 567.638 11.7585 567.66 11.7807C567.681 11.8029 567.698 11.8294 567.71 11.8584C567.721 11.8875 567.727 11.9187 567.727 11.9501V11.9678C567.727 12.013 567.74 12.0572 567.764 12.0952C567.788 12.1331 567.822 12.1633 567.862 12.182C567.902 12.2008 567.946 12.2074 567.99 12.201C568.033 12.1947 568.074 12.1756 568.107 12.1461V12.1461C568.272 12.0046 568.454 11.8847 568.647 11.7895C568.843 11.694 569.05 11.6231 569.262 11.5783C569.465 11.5326 569.671 11.508 569.878 11.5049C570.339 11.4956 570.794 11.6089 571.2 11.8337C571.469 11.9882 571.7 12.2046 571.874 12.4661C571.894 12.4968 571.921 12.5223 571.952 12.5405C571.983 12.5588 572.018 12.5692 572.054 12.5711C572.09 12.5729 572.126 12.5661 572.158 12.5511C572.191 12.5362 572.22 12.5136 572.243 12.4851C572.46 12.1982 572.74 11.9678 573.06 11.8122C573.467 11.6172 573.913 11.5228 574.361 11.5365C574.696 11.5388 575.029 11.5973 575.346 11.7098C575.658 11.8176 575.945 11.9898 576.191 12.2157C576.452 12.467 576.654 12.7768 576.781 13.1212C576.939 13.5301 577.013 13.9679 576.999 14.4074L576.975 19.0488C576.975 19.1118 576.95 19.1719 576.907 19.2162C576.863 19.2605 576.804 19.2853 576.743 19.2853L575.287 19.2777C575.256 19.2776 575.226 19.2712 575.198 19.2591C575.17 19.247 575.145 19.2294 575.123 19.2072C575.102 19.185 575.085 19.1587 575.074 19.1298C575.062 19.1009 575.056 19.0699 575.056 19.0387L575.077 14.8096C575.092 14.4482 574.989 14.0921 574.785 13.7978C574.578 13.5208 574.251 13.3817 573.789 13.3792C573.601 13.3689 573.413 13.403 573.24 13.4791C573.067 13.5552 572.913 13.6712 572.791 13.818C572.549 14.1064 572.421 14.4762 572.429 14.8564L572.408 19.0298C572.408 19.0611 572.402 19.092 572.39 19.1207C572.378 19.1495 572.361 19.1756 572.339 19.1976C572.318 19.2196 572.292 19.2369 572.264 19.2487C572.236 19.2605 572.206 19.2665 572.175 19.2663L570.671 19.2512C570.61 19.2508 570.551 19.2256 570.508 19.1811C570.465 19.1365 570.441 19.0762 570.441 19.0134L570.463 14.7843C570.477 14.4159 570.369 14.0537 570.156 13.7573C569.949 13.4968 569.622 13.3577 569.171 13.3552C568.721 13.3526 568.398 13.4892 568.158 13.7776C567.916 14.0717 567.788 14.4463 567.796 14.8311L567.775 19.0046C567.775 19.0358 567.769 19.0667 567.757 19.0954C567.745 19.1242 567.728 19.1503 567.707 19.1723C567.685 19.1943 567.659 19.2116 567.631 19.2234C567.603 19.2352 567.573 19.2412 567.543 19.241L566.026 19.2335C565.996 19.2333 565.966 19.227 565.938 19.2149C565.91 19.2028 565.884 19.1851 565.863 19.1629C565.841 19.1407 565.825 19.1144 565.813 19.0855C565.802 19.0566 565.796 19.0257 565.796 18.9944L565.832 11.945C565.831 11.913 565.837 11.8812 565.848 11.8515C565.86 11.8218 565.877 11.7948 565.899 11.7722C565.921 11.7496 565.948 11.7319 565.977 11.7201C566.006 11.7083 566.037 11.7026 566.068 11.7035V11.7035Z" fill="#1D1D1F"/>
	<circle cx="5" cy="27" r="5" fill="#0285FD"/>
	<circle cx="883" cy="27" r="5" fill="#24BE74"/>
	<path d="M303.707 26.7071C304.098 26.3166 304.098 25.6834 303.707 25.2929L297.343 18.9289C296.953 18.5384 296.319 18.5384 295.929 18.9289C295.538 19.3195 295.538 19.9526 295.929 20.3432L301.586 26L295.929 31.6569C295.538 32.0474 295.538 32.6805 295.929 33.0711C296.319 33.4616 296.953 33.4616 297.343 33.0711L303.707 26.7071ZM233 27L303 27L303 25L233 25L233 27Z" fill="#C6CAD3"/>
	<path d="M627.293 25.2929C626.902 25.6834 626.902 26.3166 627.293 26.7071L633.657 33.0711C634.047 33.4616 634.681 33.4616 635.071 33.0711C635.462 32.6805 635.462 32.0474 635.071 31.6569L629.414 26L635.071 20.3431C635.462 19.9526 635.462 19.3195 635.071 18.9289C634.681 18.5384 634.047 18.5384 633.657 18.9289L627.293 25.2929ZM698 25L628 25V27L698 27V25Z" fill="#C6CAD3"/>
	<defs>
		<filter id="filter0_i_3663_19965" x="728" y="6.48145" width="38.5186" height="40.4445" filterUnits="userSpaceOnUse" color-interpolation-filters="sRGB">
			<feFlood flood-opacity="0" result="BackgroundImageFix"/>
			<feBlend mode="normal" in="SourceGraphic" in2="BackgroundImageFix" result="shape"/>
			<feColorMatrix in="SourceAlpha" type="matrix" values="0 0 0 0 0 0 0 0 0 0 0 0 0 0 0 0 0 0 127 0" result="hardAlpha"/>
			<feOffset dy="1.92593"/>
			<feGaussianBlur stdDeviation="0.962963"/>
			<feComposite in2="hardAlpha" operator="arithmetic" k2="-1" k3="1"/>
			<feColorMatrix type="matrix" values="0 0 0 0 0.35625 0 0 0 0 0.375 0 0 0 0 0.364469 0 0 0 0.33 0"/>
			<feBlend mode="normal" in2="shape" result="effect1_innerShadow_3663_19965"/>
		</filter>
		<filter id="filter1_f_3663_19965" x="716.926" y="-4.59244" width="60.6666" height="60.6666" filterUnits="userSpaceOnUse" color-interpolation-filters="sRGB">
			<feFlood flood-opacity="0" result="BackgroundImageFix"/>
			<feBlend mode="normal" in="SourceGraphic" in2="BackgroundImageFix" result="shape"/>
			<feGaussianBlur stdDeviation="9.14815" result="effect1_foregroundBlur_3663_19965"/>
		</filter>
		<filter id="filter2_f_3663_19965" x="729.926" y="8.40738" width="34.6667" height="34.6667" filterUnits="userSpaceOnUse" color-interpolation-filters="sRGB">
			<feFlood flood-opacity="0" result="BackgroundImageFix"/>
			<feBlend mode="normal" in="SourceGraphic" in2="BackgroundImageFix" result="shape"/>
			<feGaussianBlur stdDeviation="3.85185" result="effect1_foregroundBlur_3663_19965"/>
		</filter>
		<filter id="filter3_dd_3663_19965" x="722.704" y="6.96312" width="49.111" height="49.111" filterUnits="userSpaceOnUse" color-interpolation-filters="sRGB">
			<feFlood flood-opacity="0" result="BackgroundImageFix"/>
			<feColorMatrix in="SourceAlpha" type="matrix" values="0 0 0 0 0 0 0 0 0 0 0 0 0 0 0 0 0 0 127 0" result="hardAlpha"/>
			<feMorphology radius="5.77778" operator="erode" in="SourceAlpha" result="effect1_dropShadow_3663_19965"/>
			<feOffset dy="5.77778"/>
			<feGaussianBlur stdDeviation="9.14815"/>
			<feComposite in2="hardAlpha" operator="out"/>
			<feColorMatrix type="matrix" values="0 0 0 0 0 0 0 0 0 0 0 0 0 0 0 0 0 0 0.5 0"/>
			<feBlend mode="normal" in2="BackgroundImageFix" result="effect1_dropShadow_3663_19965"/>
			<feColorMatrix in="SourceAlpha" type="matrix" values="0 0 0 0 0 0 0 0 0 0 0 0 0 0 0 0 0 0 127 0" result="hardAlpha"/>
			<feMorphology radius="2.88889" operator="erode" in="SourceAlpha" result="effect2_dropShadow_3663_19965"/>
			<feOffset dy="3.85185"/>
			<feGaussianBlur stdDeviation="3.37037"/>
			<feComposite in2="hardAlpha" operator="out"/>
			<feColorMatrix type="matrix" values="0 0 0 0 0 0 0 0 0 0 0 0 0 0 0 0 0 0 0.5 0"/>
			<feBlend mode="normal" in2="effect1_dropShadow_3663_19965" result="effect2_dropShadow_3663_19965"/>
			<feBlend mode="normal" in="SourceGraphic" in2="effect2_dropShadow_3663_19965" result="shape"/>
		</filter>
		<linearGradient id="paint0_linear_3663_19965" x1="737.472" y1="22.1743" x2="760.345" y2="22.1383" gradientUnits="userSpaceOnUse">
			<stop stop-color="#7EFB31"/>
			<stop offset="0.586747" stop-color="#D7FF1F"/>
			<stop offset="0.814371" stop-color="#6DFF8A"/>
			<stop offset="1" stop-color="#16FFE1"/>
		</linearGradient>
		<linearGradient id="paint1_linear_3663_19965" x1="739.429" y1="22.8875" x2="757.728" y2="22.8587" gradientUnits="userSpaceOnUse">
			<stop stop-color="#7EFB31"/>
			<stop offset="0.586747" stop-color="#D7FF1F"/>
			<stop offset="0.814371" stop-color="#6DFF8A"/>
			<stop offset="1" stop-color="#16FFE1"/>
		</linearGradient>
		<linearGradient id="paint2_linear_3663_19965" x1="737.472" y1="22.1743" x2="760.345" y2="22.1383" gradientUnits="userSpaceOnUse">
			<stop stop-color="#7EFB31"/>
			<stop offset="0.586747" stop-color="#D7FF1F"/>
			<stop offset="0.814371" stop-color="#6DFF8A"/>
			<stop offset="1" stop-color="#16FFE1"/>
		</linearGradient>
		<linearGradient id="paint3_linear_3663_19965" x1="412.43" y1="13.834" x2="383.475" y2="32.8603" gradientUnits="userSpaceOnUse">
			<stop stop-color="#5CEE9C"/>
			<stop offset="1" stop-color="#FFEF21"/>
		</linearGradient>
		<clipPath id="clip0_3663_19965">
			<rect x="728" y="6.48145" width="38.5185" height="38.5185" rx="9.62963" fill="white"/>
		</clipPath>
	</defs>
</svg>
