<svg width="1146" height="280" viewBox="0 0 1146 280" fill="none" xmlns="http://www.w3.org/2000/svg">
	<path d="M546.667 277C546.667 278.473 545.473 279.667 544 279.667C542.527 279.667 541.333 278.473 541.333 277C541.333 275.527 542.527 274.333 544 274.333C545.473 274.333 546.667 275.527 546.667 277ZM573.5 0C573.5 46.1493 566.243 92.3863 558.994 138.578C551.743 184.783 544.5 230.942 544.5 277H543.5C543.5 230.851 550.757 184.614 558.006 138.422C565.257 92.2174 572.5 46.058 572.5 0H573.5Z" fill="#0285FD"/>
	<path d="M487.333 277C487.333 278.473 488.527 279.667 490 279.667C491.473 279.667 492.667 278.473 492.667 277C492.667 275.527 491.473 274.333 490 274.333C488.527 274.333 487.333 275.527 487.333 277ZM572.5 0C572.5 45.9762 551.805 92.0718 531.044 138.295C510.305 184.468 489.5 230.769 489.5 277H490.5C490.5 231.024 511.195 184.928 531.956 138.705C552.695 92.5319 573.5 46.2312 573.5 0H572.5Z" fill="#0285FD"/>
	<path d="M432.833 277C432.833 278.473 434.027 279.667 435.5 279.667C436.973 279.667 438.167 278.473 438.167 277C438.167 275.527 436.973 274.333 435.5 274.333C434.027 274.333 432.833 275.527 432.833 277ZM572.5 0C572.5 22.9297 563.951 45.9175 551.079 68.9708C538.207 92.0242 521.041 115.096 503.849 138.202C486.666 161.295 469.457 184.421 456.548 207.542C443.638 230.663 435 253.826 435 277H436C436 254.07 444.549 231.083 457.421 208.029C470.293 184.976 487.459 161.904 504.651 138.798C521.834 115.705 539.043 92.5794 551.952 69.4583C564.862 46.3371 573.5 23.174 573.5 0H572.5Z" fill="#0285FD"/>
	<path d="M379.333 277C379.333 278.473 380.527 279.667 382 279.667C383.473 279.667 384.667 278.473 384.667 277C384.667 275.527 383.473 274.333 382 274.333C380.527 274.333 379.333 275.527 379.333 277ZM572 0C572 22.8836 560.177 45.8488 542.339 68.9086C524.506 91.9622 500.721 115.036 476.902 138.141C453.096 161.234 429.256 184.359 411.37 207.48C393.49 230.594 381.5 253.78 381.5 277H382.5C382.5 254.116 394.323 231.151 412.161 208.091C429.994 185.038 453.779 161.965 477.598 138.859C501.404 115.766 525.244 92.6415 543.13 69.5205C561.01 46.4058 573 23.2201 573 0H572Z" fill="#0285FD"/>
	<path d="M324.833 277C324.833 278.473 326.027 279.667 327.5 279.667C328.973 279.667 330.167 278.473 330.167 277C330.167 275.527 328.973 274.333 327.5 274.333C326.027 274.333 324.833 275.527 324.833 277ZM572.5 0C572.5 22.8383 557.289 45.788 534.287 68.8616C511.301 91.9186 480.645 114.995 449.949 138.101C419.27 161.193 388.551 184.315 365.505 207.432C342.476 230.533 327 253.735 327 277H328C328 254.162 343.211 231.212 366.213 208.138C389.199 185.081 419.855 162.005 450.551 138.899C481.23 115.807 511.949 92.6851 534.995 69.5676C558.024 46.4666 573.5 23.2654 573.5 0H572.5Z" fill="#0285FD"/>
	<path d="M270.333 277C270.333 278.473 271.527 279.667 273 279.667C274.473 279.667 275.667 278.473 275.667 277C275.667 275.527 274.473 274.333 273 274.333C271.527 274.333 270.333 275.527 270.333 277ZM572.5 0C572.5 11.3869 567.869 22.8185 559.702 34.3042C551.535 45.79 539.853 57.2985 525.808 68.8281C497.714 91.8894 460.247 114.97 422.738 138.074C385.247 161.168 347.714 184.286 319.558 207.399C305.478 218.957 293.722 230.529 285.483 242.116C277.244 253.703 272.5 265.335 272.5 277H273.5C273.5 265.613 278.131 254.181 286.298 242.696C294.465 231.21 306.147 219.701 320.192 208.172C348.286 185.111 385.753 162.03 423.262 138.926C460.753 115.832 498.286 92.7143 526.442 69.601C540.522 58.0433 552.278 46.4705 560.517 34.8838C568.756 23.2969 573.5 11.6649 573.5 0H572.5Z" fill="#0285FD"/>
	<path d="M217.333 277C217.333 278.473 218.527 279.667 220 279.667C221.473 279.667 222.667 278.473 222.667 277C222.667 275.527 221.473 274.333 220 274.333C218.527 274.333 217.333 275.527 217.333 277ZM572.5 0C572.5 11.362 567.062 22.7831 557.449 34.2731C547.837 45.7609 534.088 57.2722 517.558 68.8045C484.496 91.8697 440.402 114.953 396.268 138.057C352.152 161.151 307.996 184.266 274.87 207.375C258.307 218.93 244.477 230.5 234.784 242.085C225.094 253.668 219.5 265.31 219.5 277H220.5C220.5 265.638 225.938 254.217 235.551 242.727C245.163 231.239 258.912 219.728 275.442 208.196C308.504 185.13 352.598 162.047 396.732 138.943C440.848 115.849 485.004 92.734 518.13 69.6246C534.693 58.0696 548.523 46.4996 558.216 34.9149C567.906 23.3324 573.5 11.6899 573.5 0H572.5Z" fill="#0285FD"/>
	<path d="M163.333 277C163.333 278.473 164.527 279.667 166 279.667C167.473 279.667 168.667 278.473 168.667 277C168.667 275.527 167.473 274.333 166 274.333C164.527 274.333 163.333 275.527 163.333 277ZM572.5 0C572.5 11.3371 566.243 22.7499 555.152 34.2469C544.067 45.7377 528.21 57.2523 509.147 68.7868C471.022 91.8555 420.177 114.942 369.293 138.045C318.427 161.14 267.522 184.252 229.335 207.358C210.242 218.91 194.301 230.477 183.128 242.059C171.962 253.634 165.5 265.285 165.5 277H166.5C166.5 265.663 172.757 254.25 183.848 242.753C194.933 231.262 210.79 219.748 229.853 208.213C267.978 185.145 318.823 162.058 369.707 138.955C420.573 115.86 471.478 92.7482 509.665 69.6424C528.758 58.0896 544.699 46.5228 555.872 34.9411C567.038 23.3656 573.5 11.7147 573.5 0H572.5Z" fill="#0285FD"/>
	<path d="M109.333 277C109.333 278.473 110.527 279.667 112 279.667C113.473 279.667 114.667 278.473 114.667 277C114.667 275.527 113.473 274.333 112 274.333C110.527 274.333 109.333 275.527 109.333 277ZM572.5 0C572.5 11.313 565.426 22.7198 552.854 34.2251C540.294 45.7197 522.329 57.2372 500.733 68.7736C457.544 91.8451 399.948 114.933 342.314 138.036C284.698 161.132 227.044 184.241 183.796 207.344C162.173 218.895 144.122 230.459 131.471 242.037C118.832 253.604 111.5 265.261 111.5 277H112.5C112.5 265.687 119.575 254.28 132.146 242.775C144.706 231.28 162.671 219.763 184.267 208.226C227.456 185.155 285.052 162.067 342.686 138.964C400.302 115.868 457.956 92.7586 501.204 69.6556C522.827 58.1046 540.878 46.5408 553.529 34.9629C566.168 23.3957 573.5 11.7388 573.5 0H572.5Z" fill="#0285FD"/>
	<path d="M54.8333 277C54.8333 278.473 56.0272 279.667 57.5 279.667C58.9728 279.667 60.1667 278.473 60.1667 277C60.1667 275.527 58.9728 274.333 57.5 274.333C56.0272 274.333 54.8333 275.527 54.8333 277ZM572.5 0C572.5 11.2897 564.602 22.6925 550.533 34.2071C536.484 45.7054 516.389 57.2257 492.238 68.7634C443.937 91.8373 379.527 114.927 315.081 138.029C250.652 161.125 186.187 184.234 137.831 207.334C113.655 218.884 93.4758 230.445 79.3337 242.019C65.2115 253.577 57 265.238 57 277H58C58 265.71 65.8979 254.307 79.9671 242.793C94.0164 231.295 114.111 219.774 138.262 208.237C186.563 185.163 250.973 162.073 315.419 138.971C379.848 115.875 444.313 92.7663 492.669 69.6657C516.845 58.1162 537.024 46.5551 551.166 34.9809C565.289 23.4229 573.5 11.7622 573.5 0H572.5Z" fill="#0285FD"/>
	<path d="M0.333333 277C0.333333 278.473 1.52724 279.667 3 279.667C4.47276 279.667 5.66667 278.473 5.66667 277C5.66667 275.527 4.47276 274.333 3 274.333C1.52724 274.333 0.333333 275.527 0.333333 277ZM572.5 0C572.5 11.2675 563.78 22.6682 548.21 34.1921C532.671 45.6941 510.447 57.2168 483.739 68.7556C430.328 91.8314 359.104 114.923 287.846 138.024C216.604 161.121 145.328 184.228 91.8642 207.326C65.1343 218.875 42.827 230.434 27.1947 242.004C11.5921 253.553 2.5 265.216 2.5 277H3.5C3.5 265.733 12.2204 254.332 27.7897 242.808C43.3292 231.306 65.5532 219.783 92.2608 208.244C145.672 185.169 216.896 162.077 288.154 138.976C359.396 115.879 430.672 92.7723 484.136 69.6736C510.866 58.1251 533.173 46.5665 548.805 34.9959C564.408 23.4473 573.5 11.7844 573.5 0H572.5Z" fill="#0285FD"/>
	<path d="M599.333 277C599.333 278.473 600.527 279.667 602 279.667C603.473 279.667 604.667 278.473 604.667 277C604.667 275.527 603.473 274.333 602 274.333C600.527 274.333 599.333 275.527 599.333 277ZM572.5 0C572.5 46.1493 579.757 92.3863 587.006 138.578C594.257 184.783 601.5 230.942 601.5 277H602.5C602.5 230.851 595.243 184.614 587.994 138.422C580.743 92.2174 573.5 46.058 573.5 0H572.5Z" fill="#24BE74"/>
	<path d="M658.667 277C658.667 278.473 657.473 279.667 656 279.667C654.527 279.667 653.333 278.473 653.333 277C653.333 275.527 654.527 274.333 656 274.333C657.473 274.333 658.667 275.527 658.667 277ZM573.5 0C573.5 45.9762 594.195 92.0718 614.956 138.295C635.695 184.468 656.5 230.769 656.5 277H655.5C655.5 231.024 634.805 184.928 614.044 138.705C593.305 92.5319 572.5 46.2312 572.5 0H573.5Z" fill="#24BE74"/>
	<path d="M713.167 277C713.167 278.473 711.973 279.667 710.5 279.667C709.027 279.667 707.833 278.473 707.833 277C707.833 275.527 709.027 274.333 710.5 274.333C711.973 274.333 713.167 275.527 713.167 277ZM573.5 0C573.5 22.9297 582.049 45.9175 594.921 68.9708C607.793 92.0242 624.959 115.096 642.151 138.202C659.334 161.295 676.543 184.421 689.452 207.542C702.362 230.663 711 253.826 711 277H710C710 254.07 701.451 231.083 688.579 208.029C675.707 184.976 658.541 161.904 641.349 138.798C624.166 115.705 606.957 92.5794 594.048 69.4583C581.138 46.3371 572.5 23.174 572.5 0H573.5Z" fill="#24BE74"/>
	<path d="M766.667 277C766.667 278.473 765.473 279.667 764 279.667C762.527 279.667 761.333 278.473 761.333 277C761.333 275.527 762.527 274.333 764 274.333C765.473 274.333 766.667 275.527 766.667 277ZM574 0C574 22.8836 585.823 45.8488 603.661 68.9086C621.494 91.9622 645.279 115.036 669.098 138.141C692.904 161.234 716.744 184.359 734.63 207.48C752.51 230.594 764.5 253.78 764.5 277H763.5C763.5 254.116 751.677 231.151 733.839 208.091C716.006 185.038 692.221 161.965 668.402 138.859C644.596 115.766 620.756 92.6415 602.87 69.5205C584.99 46.4058 573 23.2201 573 0H574Z" fill="#24BE74"/>
	<path d="M821.167 277C821.167 278.473 819.973 279.667 818.5 279.667C817.027 279.667 815.833 278.473 815.833 277C815.833 275.527 817.027 274.333 818.5 274.333C819.973 274.333 821.167 275.527 821.167 277ZM573.5 0C573.5 22.8383 588.711 45.788 611.713 68.8616C634.699 91.9186 665.355 114.995 696.051 138.101C726.73 161.193 757.449 184.315 780.495 207.432C803.524 230.533 819 253.735 819 277H818C818 254.162 802.789 231.212 779.787 208.138C756.801 185.081 726.145 162.005 695.449 138.899C664.77 115.807 634.051 92.6851 611.005 69.5676C587.976 46.4666 572.5 23.2654 572.5 0H573.5Z" fill="#24BE74"/>
	<path d="M875.667 277C875.667 278.473 874.473 279.667 873 279.667C871.527 279.667 870.333 278.473 870.333 277C870.333 275.527 871.527 274.333 873 274.333C874.473 274.333 875.667 275.527 875.667 277ZM573.5 0C573.5 11.3869 578.131 22.8185 586.298 34.3042C594.465 45.79 606.147 57.2985 620.192 68.8281C648.286 91.8894 685.753 114.97 723.262 138.074C760.753 161.168 798.286 184.286 826.442 207.399C840.522 218.957 852.278 230.529 860.517 242.116C868.756 253.703 873.5 265.335 873.5 277H872.5C872.5 265.613 867.869 254.181 859.702 242.696C851.535 231.21 839.853 219.701 825.808 208.172C797.714 185.111 760.247 162.03 722.738 138.926C685.247 115.832 647.714 92.7143 619.558 69.601C605.478 58.0433 593.722 46.4705 585.483 34.8838C577.244 23.2969 572.5 11.6649 572.5 0H573.5Z" fill="#24BE74"/>
	<path d="M928.667 277C928.667 278.473 927.473 279.667 926 279.667C924.527 279.667 923.333 278.473 923.333 277C923.333 275.527 924.527 274.333 926 274.333C927.473 274.333 928.667 275.527 928.667 277ZM573.5 0C573.5 11.362 578.938 22.7831 588.551 34.2731C598.163 45.7609 611.912 57.2722 628.442 68.8045C661.504 91.8697 705.598 114.953 749.732 138.057C793.848 161.151 838.004 184.266 871.13 207.375C887.693 218.93 901.523 230.5 911.216 242.085C920.906 253.668 926.5 265.31 926.5 277H925.5C925.5 265.638 920.062 254.217 910.449 242.727C900.837 231.239 887.088 219.728 870.558 208.196C837.496 185.13 793.402 162.047 749.268 138.943C705.152 115.849 660.996 92.734 627.87 69.6246C611.307 58.0696 597.477 46.4996 587.784 34.9149C578.094 23.3324 572.5 11.6899 572.5 0H573.5Z" fill="#24BE74"/>
	<path d="M982.667 277C982.667 278.473 981.473 279.667 980 279.667C978.527 279.667 977.333 278.473 977.333 277C977.333 275.527 978.527 274.333 980 274.333C981.473 274.333 982.667 275.527 982.667 277ZM573.5 0C573.5 11.3371 579.757 22.7499 590.848 34.2469C601.933 45.7377 617.79 57.2523 636.853 68.7868C674.978 91.8555 725.823 114.942 776.707 138.045C827.573 161.14 878.478 184.252 916.665 207.358C935.758 218.91 951.699 230.477 962.872 242.059C974.038 253.634 980.5 265.285 980.5 277H979.5C979.5 265.663 973.243 254.25 962.152 242.753C951.067 231.262 935.21 219.748 916.147 208.213C878.022 185.145 827.177 162.058 776.293 138.955C725.427 115.86 674.522 92.7482 636.335 69.6424C617.242 58.0896 601.301 46.5228 590.128 34.9411C578.962 23.3656 572.5 11.7147 572.5 0H573.5Z" fill="#24BE74"/>
	<path d="M1036.67 277C1036.67 278.473 1035.47 279.667 1034 279.667C1032.53 279.667 1031.33 278.473 1031.33 277C1031.33 275.527 1032.53 274.333 1034 274.333C1035.47 274.333 1036.67 275.527 1036.67 277ZM573.5 0C573.5 11.313 580.574 22.7198 593.146 34.2251C605.706 45.7197 623.671 57.2372 645.267 68.7736C688.456 91.8451 746.052 114.933 803.686 138.036C861.302 161.132 918.956 184.241 962.204 207.344C983.827 218.895 1001.88 230.459 1014.53 242.037C1027.17 253.604 1034.5 265.261 1034.5 277H1033.5C1033.5 265.687 1026.43 254.28 1013.85 242.775C1001.29 231.28 983.329 219.763 961.733 208.226C918.544 185.155 860.948 162.067 803.314 138.964C745.698 115.868 688.044 92.7586 644.796 69.6556C623.173 58.1046 605.122 46.5408 592.471 34.9629C579.832 23.3957 572.5 11.7388 572.5 0H573.5Z" fill="#24BE74"/>
	<path d="M1091.17 277C1091.17 278.473 1089.97 279.667 1088.5 279.667C1087.03 279.667 1085.83 278.473 1085.83 277C1085.83 275.527 1087.03 274.333 1088.5 274.333C1089.97 274.333 1091.17 275.527 1091.17 277ZM573.5 0C573.5 11.2897 581.398 22.6925 595.467 34.2071C609.516 45.7054 629.611 57.2257 653.762 68.7634C702.063 91.8373 766.473 114.927 830.919 138.029C895.348 161.125 959.813 184.234 1008.17 207.334C1032.35 218.884 1052.52 230.445 1066.67 242.019C1080.79 253.577 1089 265.238 1089 277H1088C1088 265.71 1080.1 254.307 1066.03 242.793C1051.98 231.295 1031.89 219.774 1007.74 208.237C959.437 185.163 895.027 162.073 830.581 138.971C766.152 115.875 701.687 92.7663 653.331 69.6657C629.155 58.1162 608.976 46.5551 594.834 34.9809C580.711 23.4229 572.5 11.7622 572.5 0H573.5Z" fill="#24BE74"/>
	<path d="M1145.67 277C1145.67 278.473 1144.47 279.667 1143 279.667C1141.53 279.667 1140.33 278.473 1140.33 277C1140.33 275.527 1141.53 274.333 1143 274.333C1144.47 274.333 1145.67 275.527 1145.67 277ZM573.5 0C573.5 11.2675 582.22 22.6682 597.79 34.1921C613.329 45.6941 635.553 57.2168 662.261 68.7556C715.672 91.8314 786.896 114.923 858.154 138.024C929.396 161.121 1000.67 184.228 1054.14 207.326C1080.87 218.875 1103.17 230.434 1118.81 242.004C1134.41 253.553 1143.5 265.216 1143.5 277H1142.5C1142.5 265.733 1133.78 254.332 1118.21 242.808C1102.67 231.306 1080.45 219.783 1053.74 208.244C1000.33 185.169 929.104 162.077 857.846 138.976C786.604 115.879 715.328 92.7723 661.864 69.6736C635.134 58.1251 612.827 46.5665 597.195 34.9959C581.592 23.4473 572.5 11.7844 572.5 0H573.5Z" fill="#24BE74"/>
</svg>
