<svg width="65" height="20" viewBox="0 0 65 20" fill="none" xmlns="http://www.w3.org/2000/svg">
	<g clip-path="url(#clip0_3663_20170)">
		<g filter="url(#filter0_i_3663_20170)">
			<rect width="19.2592" height="19.2592" rx="4.8148" fill="#191B20"/>
		</g>
		<g opacity="0.15" filter="url(#filter1_f_3663_20170)">
			<circle cx="9.62983" cy="9.62969" r="6.0185" transform="rotate(-90 9.62983 9.62969)" fill="url(#paint0_linear_3663_20170)"/>
			<circle cx="9.62983" cy="9.62969" r="5.77776" transform="rotate(-90 9.62983 9.62969)" stroke="white" stroke-opacity="0.34" stroke-width="0.48148"/>
		</g>
		<g opacity="0.3" filter="url(#filter2_f_3663_20170)">
			<circle cx="9.62974" cy="9.62954" r="4.8148" transform="rotate(-90 9.62974 9.62954)" fill="url(#paint1_linear_3663_20170)"/>
			<circle cx="9.62974" cy="9.62954" r="4.57406" transform="rotate(-90 9.62974 9.62954)" stroke="white" stroke-opacity="0.34" stroke-width="0.48148"/>
		</g>
		<g filter="url(#filter3_dd_3663_20170)">
			<circle cx="9.62983" cy="9.62969" r="6.0185" transform="rotate(-90 9.62983 9.62969)" fill="url(#paint2_linear_3663_20170)"/>
			<circle cx="9.62983" cy="9.62969" r="5.77776" transform="rotate(-90 9.62983 9.62969)" stroke="white" stroke-opacity="0.5" stroke-width="0.48148"/>
		</g>
	</g>
	<path d="M27.3907 13.5292C27.9203 13.5292 28.3864 13.4551 28.7889 13.2856C29.1809 13.1267 29.5304 12.9255 29.8164 12.6818C30.1024 12.4382 30.3249 12.1628 30.5049 11.8662C30.6744 11.559 30.7909 11.2624 30.8651 10.9764L29.4986 10.5633C29.4457 10.7434 29.3715 10.9235 29.2656 11.1036C29.1597 11.2836 29.022 11.4425 28.8525 11.5908C28.683 11.7391 28.4818 11.8662 28.2381 11.9616C27.9945 12.0569 27.7085 12.0993 27.3907 12.0993C27.0835 12.0993 26.7975 12.0463 26.5221 11.9404C26.2361 11.8238 25.9925 11.665 25.7807 11.4637C25.5582 11.2518 25.3887 10.9976 25.2616 10.6904C25.1239 10.3833 25.0604 10.0231 25.0604 9.6206C25.0604 9.19689 25.1239 8.82615 25.2616 8.50838C25.3993 8.1906 25.5688 7.92579 25.7912 7.72453C26.0137 7.52327 26.2573 7.36438 26.5327 7.26905C26.8081 7.16312 27.0835 7.11016 27.3695 7.11016C27.6979 7.11016 27.9733 7.15253 28.2169 7.24786C28.4606 7.3432 28.6618 7.45971 28.8313 7.59742C28.9902 7.73512 29.1279 7.9046 29.2232 8.08467C29.3186 8.26475 29.3927 8.44482 29.4351 8.6249L30.8121 8.1906C30.738 7.88342 30.6109 7.58682 30.4414 7.29023C30.2613 6.99364 30.0389 6.72883 29.7635 6.49579C29.4775 6.25216 29.1385 6.0615 28.7466 5.92379C28.3441 5.7755 27.8886 5.70135 27.3695 5.70135C26.8717 5.70135 26.3844 5.79668 25.9289 5.97676C25.4629 6.15683 25.0498 6.42164 24.7002 6.76061C24.3507 7.09957 24.0647 7.51268 23.8634 7.99993C23.6515 8.4766 23.5456 9.01682 23.5456 9.6206C23.5456 10.2244 23.6515 10.7646 23.8528 11.2413C24.0541 11.7179 24.3401 12.131 24.6896 12.47C25.0392 12.809 25.4417 13.0738 25.9078 13.2538C26.3738 13.4339 26.8717 13.5292 27.3907 13.5292ZM33.2469 13.3704V10.3091C33.2575 10.0231 33.3528 9.77948 33.5223 9.58882C33.6918 9.38756 33.9248 9.29223 34.2214 9.29223C34.5604 9.29223 34.804 9.38756 34.9629 9.58882C35.1112 9.79008 35.1854 10.0337 35.1854 10.3303V13.3704H36.5942V10.0867C36.5942 9.80067 36.5518 9.53586 36.4776 9.28163C36.4035 9.02741 36.287 8.80497 36.1281 8.6249C35.9692 8.44482 35.7679 8.29653 35.5243 8.1906C35.2807 8.07408 34.9841 8.02112 34.6557 8.02112C34.4121 8.02112 34.1579 8.06349 33.8931 8.15882C33.6282 8.24356 33.4164 8.39186 33.2469 8.59312V5.70135H31.8381V13.3704H33.2469ZM37.6754 11.951C37.6754 12.1522 37.7178 12.3535 37.8025 12.5335C37.8767 12.7242 37.9932 12.8937 38.1521 13.042C38.311 13.1797 38.5017 13.2962 38.7241 13.3915C38.9465 13.4763 39.1902 13.5187 39.4656 13.5187C39.8575 13.5187 40.1753 13.4445 40.4295 13.2856C40.6731 13.1267 40.8638 12.9467 41.0015 12.7454C41.0015 12.8407 41.0121 12.9573 41.0227 13.0844C41.0333 13.2009 41.0439 13.2962 41.0545 13.3704H42.3468C42.3362 13.275 42.315 13.1585 42.3044 12.9996C42.2938 12.8407 42.2832 12.6818 42.2832 12.5441V9.98074C42.2832 9.71593 42.2408 9.4723 42.1667 9.22867C42.0819 8.98504 41.9548 8.78378 41.7748 8.60371C41.5947 8.42364 41.3511 8.27534 41.0651 8.16942C40.7791 8.0529 40.4295 7.99993 40.0164 7.99993C39.6668 7.99993 39.3491 8.0529 39.0842 8.15882C38.8194 8.25416 38.5864 8.39186 38.4063 8.55075C38.2262 8.70964 38.078 8.9003 37.972 9.10156C37.8661 9.30282 37.8025 9.51467 37.7814 9.71593L39.0313 9.98074C39.0525 9.7583 39.1478 9.55704 39.3173 9.38756C39.4762 9.21808 39.7198 9.13334 40.027 9.13334C40.3236 9.13334 40.546 9.19689 40.6943 9.3346C40.832 9.4723 40.9062 9.63119 40.9062 9.81126C40.9062 9.90659 40.8744 9.98074 40.8214 10.0443C40.7685 10.1184 40.6625 10.1608 40.5142 10.182L39.2325 10.3727C39.0101 10.4044 38.8088 10.468 38.6288 10.5421C38.4381 10.6163 38.2686 10.7222 38.1309 10.8599C37.9932 10.9976 37.8767 11.1459 37.8025 11.326C37.7178 11.5061 37.6754 11.7179 37.6754 11.951ZM39.7622 12.47C39.5397 12.47 39.3702 12.4064 39.2537 12.2793C39.1372 12.1628 39.0842 12.0251 39.0842 11.8662C39.0842 11.665 39.1478 11.5061 39.2749 11.4001C39.3914 11.3048 39.5503 11.2413 39.7304 11.2095L40.9062 11.0294V11.2624C40.9062 11.4955 40.8744 11.6861 40.8108 11.8344C40.7473 11.9933 40.6625 12.1098 40.5566 12.2052C40.4507 12.3005 40.3342 12.3747 40.1965 12.4064C40.0588 12.4488 39.9105 12.47 39.7622 12.47ZM46.8601 9.55704V8.13764C46.8071 8.12704 46.7542 8.12704 46.7012 8.11645C46.6482 8.11645 46.5847 8.11645 46.5317 8.11645C46.4152 8.11645 46.2987 8.12704 46.161 8.14823C46.0233 8.16942 45.8856 8.21179 45.7479 8.26475C45.6102 8.31771 45.4725 8.40245 45.3559 8.50838C45.2288 8.6249 45.1229 8.7626 45.0488 8.93208V8.15882H43.6823V13.3704H45.0911V10.987C45.0911 10.701 45.1335 10.468 45.2077 10.2773C45.2818 10.0973 45.3771 9.94896 45.4937 9.83245C45.6102 9.71593 45.7585 9.64178 45.9174 9.58882C46.0762 9.53586 46.2563 9.51467 46.4364 9.51467C46.5741 9.51467 46.7224 9.52526 46.8601 9.55704ZM47.789 13.3704H49.1978V8.15882H47.789V13.3704ZM47.6195 6.45342C47.6195 6.68646 47.7043 6.88772 47.8737 7.0572C48.0432 7.22668 48.2445 7.31142 48.4881 7.31142C48.7317 7.31142 48.9436 7.22668 49.1131 7.0572C49.272 6.88772 49.3567 6.68646 49.3567 6.45342C49.3567 6.20979 49.272 5.99794 49.1131 5.82846C48.9436 5.65898 48.7317 5.57424 48.4881 5.57424C48.2445 5.57424 48.0432 5.65898 47.8737 5.82846C47.7043 5.99794 47.6195 6.20979 47.6195 6.45342ZM51.4917 11.6544L50.2841 11.9192C50.2947 12.0675 50.3477 12.237 50.4324 12.417C50.5066 12.6077 50.6337 12.7878 50.8032 12.9467C50.9727 13.1055 51.1951 13.2433 51.4599 13.3598C51.7247 13.4763 52.0637 13.5292 52.4556 13.5292C52.7946 13.5292 53.0912 13.4763 53.3454 13.381C53.5996 13.2856 53.8115 13.1479 53.9809 12.989C54.1504 12.8301 54.2775 12.6395 54.3517 12.4382C54.4364 12.237 54.4788 12.0251 54.4788 11.8133C54.4788 11.4319 54.3517 11.093 54.0869 10.807C53.8326 10.521 53.4513 10.3197 52.9323 10.2138L52.1908 10.0549C52.0531 10.0231 51.9366 9.97015 51.8518 9.896C51.7565 9.82185 51.7141 9.71593 51.7141 9.58882C51.7141 9.44052 51.7777 9.31341 51.9154 9.21808C52.0425 9.12275 52.2014 9.06978 52.3815 9.06978C52.5298 9.06978 52.6569 9.09097 52.7522 9.13334C52.8581 9.17571 52.9429 9.22867 53.017 9.30282C53.0912 9.37697 53.1441 9.45111 53.1759 9.53586C53.2077 9.61 53.2289 9.69474 53.2395 9.76889L54.4152 9.50408C54.4046 9.36637 54.3517 9.20749 54.2775 9.03801C54.2034 8.85793 54.0869 8.69904 53.928 8.54015C53.7691 8.38127 53.5572 8.25416 53.303 8.15882C53.0488 8.0529 52.7416 7.99993 52.3709 7.99993C52.0849 7.99993 51.8306 8.0423 51.5976 8.13764C51.354 8.23297 51.1527 8.34949 50.9832 8.50838C50.8032 8.65667 50.6655 8.83675 50.5701 9.0486C50.4748 9.24986 50.4218 9.4723 50.4218 9.70534C50.4218 10.0761 50.5384 10.3939 50.7714 10.6799C51.0044 10.9553 51.3752 11.1459 51.8836 11.2624L52.5721 11.4213C52.7734 11.4637 52.9217 11.5273 53.0064 11.6226C53.0912 11.7073 53.1335 11.8133 53.1335 11.9298C53.1335 12.0675 53.0806 12.1946 52.9641 12.3005C52.8475 12.3958 52.6781 12.4488 52.445 12.4488C52.1378 12.4488 51.9048 12.3641 51.7459 12.2052C51.587 12.0463 51.5023 11.8556 51.4917 11.6544ZM55.6196 13.3704H57.0284V10.3197C57.0284 10.0337 57.1132 9.79008 57.2827 9.58882C57.4522 9.38756 57.6958 9.29223 58.003 9.29223C58.3207 9.29223 58.5538 9.38756 58.7021 9.56763C58.8504 9.7583 58.9245 9.99134 58.9245 10.2773V13.3704H60.3227V10.3197C60.3227 10.0337 60.4075 9.80067 60.577 9.59941C60.7464 9.39815 60.9795 9.29223 61.2867 9.29223C61.615 9.29223 61.8481 9.38756 61.9964 9.57823C62.1341 9.7583 62.2082 9.99134 62.2082 10.2773V13.3704H63.5747V9.99134C63.5747 9.64178 63.5217 9.34519 63.4158 9.10156C63.3098 8.84734 63.1721 8.63549 62.9921 8.4766C62.812 8.31771 62.6107 8.20119 62.3883 8.12704C62.1658 8.0529 61.9328 8.01053 61.6892 8.01053C61.3396 8.01053 61.0324 8.07408 60.757 8.21179C60.4816 8.3389 60.238 8.56134 60.0367 8.87912C59.899 8.59312 59.6978 8.38127 59.433 8.23297C59.1681 8.08467 58.8504 8.01053 58.4902 8.01053C58.3525 8.01053 58.2042 8.03171 58.0559 8.06349C57.897 8.09527 57.7593 8.14823 57.6216 8.21179C57.4839 8.27534 57.3568 8.36008 57.2403 8.45541C57.1238 8.55075 57.039 8.66727 56.9649 8.79438V8.15882H55.6196V13.3704Z" fill="#191B20"/>
	<defs>
		<filter id="filter0_i_3663_20170" x="0" y="0" width="19.2593" height="20.2222" filterUnits="userSpaceOnUse" color-interpolation-filters="sRGB">
			<feFlood flood-opacity="0" result="BackgroundImageFix"/>
			<feBlend mode="normal" in="SourceGraphic" in2="BackgroundImageFix" result="shape"/>
			<feColorMatrix in="SourceAlpha" type="matrix" values="0 0 0 0 0 0 0 0 0 0 0 0 0 0 0 0 0 0 127 0" result="hardAlpha"/>
			<feOffset dy="0.96296"/>
			<feGaussianBlur stdDeviation="0.48148"/>
			<feComposite in2="hardAlpha" operator="arithmetic" k2="-1" k3="1"/>
			<feColorMatrix type="matrix" values="0 0 0 0 0.35625 0 0 0 0 0.375 0 0 0 0 0.364469 0 0 0 0.33 0"/>
			<feBlend mode="normal" in2="shape" result="effect1_innerShadow_3663_20170"/>
		</filter>
		<filter id="filter1_f_3663_20170" x="-5.53679" y="-5.53703" width="30.3333" height="30.3333" filterUnits="userSpaceOnUse" color-interpolation-filters="sRGB">
			<feFlood flood-opacity="0" result="BackgroundImageFix"/>
			<feBlend mode="normal" in="SourceGraphic" in2="BackgroundImageFix" result="shape"/>
			<feGaussianBlur stdDeviation="4.57406" result="effect1_foregroundBlur_3663_20170"/>
		</filter>
		<filter id="filter2_f_3663_20170" x="0.963102" y="0.962858" width="17.3331" height="17.3333" filterUnits="userSpaceOnUse" color-interpolation-filters="sRGB">
			<feFlood flood-opacity="0" result="BackgroundImageFix"/>
			<feBlend mode="normal" in="SourceGraphic" in2="BackgroundImageFix" result="shape"/>
			<feGaussianBlur stdDeviation="1.92592" result="effect1_foregroundBlur_3663_20170"/>
		</filter>
		<filter id="filter3_dd_3663_20170" x="-2.64791" y="0.240725" width="24.5556" height="24.5556" filterUnits="userSpaceOnUse" color-interpolation-filters="sRGB">
			<feFlood flood-opacity="0" result="BackgroundImageFix"/>
			<feColorMatrix in="SourceAlpha" type="matrix" values="0 0 0 0 0 0 0 0 0 0 0 0 0 0 0 0 0 0 127 0" result="hardAlpha"/>
			<feMorphology radius="2.88888" operator="erode" in="SourceAlpha" result="effect1_dropShadow_3663_20170"/>
			<feOffset dy="2.88888"/>
			<feGaussianBlur stdDeviation="4.57406"/>
			<feComposite in2="hardAlpha" operator="out"/>
			<feColorMatrix type="matrix" values="0 0 0 0 0 0 0 0 0 0 0 0 0 0 0 0 0 0 0.5 0"/>
			<feBlend mode="normal" in2="BackgroundImageFix" result="effect1_dropShadow_3663_20170"/>
			<feColorMatrix in="SourceAlpha" type="matrix" values="0 0 0 0 0 0 0 0 0 0 0 0 0 0 0 0 0 0 127 0" result="hardAlpha"/>
			<feMorphology radius="1.44444" operator="erode" in="SourceAlpha" result="effect2_dropShadow_3663_20170"/>
			<feOffset dy="1.92592"/>
			<feGaussianBlur stdDeviation="1.68518"/>
			<feComposite in2="hardAlpha" operator="out"/>
			<feColorMatrix type="matrix" values="0 0 0 0 0 0 0 0 0 0 0 0 0 0 0 0 0 0 0.5 0"/>
			<feBlend mode="normal" in2="effect1_dropShadow_3663_20170" result="effect2_dropShadow_3663_20170"/>
			<feBlend mode="normal" in="SourceGraphic" in2="effect2_dropShadow_3663_20170" result="shape"/>
		</filter>
		<linearGradient id="paint0_linear_3663_20170" x1="4.73584" y1="7.84645" x2="16.1724" y2="7.82844" gradientUnits="userSpaceOnUse">
			<stop stop-color="#7EFB31"/>
			<stop offset="0.586747" stop-color="#D7FF1F"/>
			<stop offset="0.814371" stop-color="#6DFF8A"/>
			<stop offset="1" stop-color="#16FFE1"/>
		</linearGradient>
		<linearGradient id="paint1_linear_3663_20170" x1="5.71455" y1="8.20294" x2="14.8638" y2="8.18853" gradientUnits="userSpaceOnUse">
			<stop stop-color="#7EFB31"/>
			<stop offset="0.586747" stop-color="#D7FF1F"/>
			<stop offset="0.814371" stop-color="#6DFF8A"/>
			<stop offset="1" stop-color="#16FFE1"/>
		</linearGradient>
		<linearGradient id="paint2_linear_3663_20170" x1="4.73584" y1="7.84645" x2="16.1724" y2="7.82844" gradientUnits="userSpaceOnUse">
			<stop stop-color="#7EFB31"/>
			<stop offset="0.586747" stop-color="#D7FF1F"/>
			<stop offset="0.814371" stop-color="#6DFF8A"/>
			<stop offset="1" stop-color="#16FFE1"/>
		</linearGradient>
		<clipPath id="clip0_3663_20170">
			<rect width="19.2592" height="19.2592" rx="4.8148" fill="white"/>
		</clipPath>
	</defs>
</svg>
