<svg width="104" height="20" viewBox="0 0 104 20" fill="none" xmlns="http://www.w3.org/2000/svg">
	<path fill-rule="evenodd" clip-rule="evenodd" d="M10.3 18.55C12.855 18.55 15.2433 17.3765 16.854 15.4206L16.9095 15.3647L17.576 16.0353L17.5205 16.0912C15.7432 18.2706 13.0771 19.5 10.3 19.5C5.0791 19.5 0.85791 15.253 0.85791 10.0001C0.85791 4.74725 5.0791 0.500244 10.3 0.500244C13.0771 0.500244 15.7432 1.72964 17.5205 3.90902L17.576 3.9649L16.9095 4.63548L16.854 4.52372C15.2433 2.51198 12.855 1.39435 10.3 1.39435C5.57898 1.39435 1.80212 5.1943 1.80212 9.94423C1.80212 14.6942 5.57898 18.55 10.3 18.55ZM10.2997 2.1767C12.0771 2.1767 13.7989 2.84728 15.243 4.02079L15.3541 4.13255L14.6876 4.80313L14.632 4.74725C13.4101 3.74138 11.9105 3.18256 10.2997 3.18256C6.74505 3.18256 3.74579 5.97664 3.52362 9.55307V9.72071H2.63495V9.49718C2.74603 7.48545 3.57916 5.69724 5.02325 4.3002C6.46734 2.90316 8.35577 2.1767 10.2997 2.1767ZM10.2996 14.9737C11.9103 14.9737 13.4099 14.1913 14.3541 12.9061L14.4097 12.7943L15.0762 13.4649L15.0206 13.5208C13.9098 14.9737 12.1324 15.8678 10.2996 15.8678C7.07813 15.8678 4.41211 13.2414 4.41211 9.94434C4.41211 6.70321 7.02259 4.02089 10.2996 4.07677C12.1324 4.07677 13.9098 4.915 15.0206 6.4238L15.0762 6.47968L14.4097 7.15026L14.3541 7.0385C13.4099 5.75322 11.9103 4.97088 10.2996 4.97088C7.52247 4.97088 5.30079 7.20614 5.30079 9.94434C5.30079 12.7384 7.52247 14.9737 10.2996 14.9737ZM16.2978 5.13853C16.2145 5.05471 16.1451 4.95692 16.0757 4.85912L16.0757 4.85911C16.0063 4.76132 15.9369 4.66353 15.8537 4.57971L15.7981 4.52383L15.1319 5.19441L15.1875 5.25029C15.354 5.41794 15.5206 5.58558 15.6316 5.80911L15.6871 5.92087L16.3533 5.25029L16.2978 5.13853ZM14.5764 15.2526L14.6319 15.1967L15.2429 15.8673L15.1873 15.9232C13.7988 17.0967 12.077 17.7672 10.2441 17.7672C8.30011 17.7672 6.41168 16.9849 4.96759 15.6437C3.57904 14.2467 2.69037 12.4026 2.57928 10.4468V10.2232H3.46796V10.4468C3.69012 14.0232 6.68939 16.8173 10.2441 16.8173C11.8548 16.8173 13.3544 16.2584 14.5764 15.2526ZM15.6871 14.0794L15.6316 14.1911C15.5715 14.2819 15.4951 14.3727 15.4112 14.4723C15.3402 14.5567 15.2638 14.6474 15.1875 14.7499L15.1319 14.8058L15.7981 15.4764L15.8537 15.4205C16.0202 15.2529 16.1868 15.0294 16.2978 14.8617L16.3533 14.8058L15.6871 14.0794ZM24.8507 9.77626H24.9618V9.60861V9.16156C24.9618 8.99392 25.0173 8.82627 25.0729 8.71451C25.1284 8.54686 25.184 8.4351 25.2395 8.32334C25.2673 8.26746 25.3089 8.21157 25.3506 8.15569L25.3506 8.15567L25.3506 8.15565L25.3506 8.15564L25.3506 8.15562L25.3506 8.1556L25.3507 8.15558L25.3507 8.15556L25.3507 8.15554L25.3507 8.15552L25.3507 8.15551L25.3507 8.15549L25.3507 8.15547L25.3507 8.15545L25.3507 8.15543L25.3508 8.15541L25.3508 8.15539L25.3508 8.15538C25.3924 8.0996 25.434 8.04382 25.4617 7.98805C25.5728 7.87628 25.6838 7.8204 25.7949 7.76452C25.906 7.70864 26.0726 7.70864 26.2393 7.70864C26.4059 7.70864 26.5725 7.76452 26.7391 7.8204C26.7947 7.84834 26.8502 7.89025 26.9058 7.93217L26.9058 7.93218C26.9613 7.97409 27.0169 8.01599 27.0724 8.04393C27.1835 8.15569 27.239 8.26746 27.2946 8.4351C27.3501 8.60275 27.4056 8.77039 27.4056 8.93803V9.0498H28.4054V8.93803C28.3499 8.65863 28.2943 8.37922 28.1832 8.09981C28.0721 7.87628 27.9611 7.65276 27.7389 7.42923C27.5723 7.26159 27.3501 7.09394 27.0724 7.03806C26.8502 6.9263 26.517 6.87042 26.2393 6.87042C25.9615 6.87042 25.7394 6.9263 25.5172 6.98218C25.295 7.03806 25.1284 7.14982 24.9618 7.31747C24.7952 7.42923 24.6285 7.59688 24.5175 7.76452C24.4064 7.93217 24.2953 8.15569 24.2397 8.32334L24.0731 8.99392C24.0176 9.21744 24.0176 9.44097 24.0176 9.66449V9.83214L24.8507 9.77626ZM27.295 11.7321C27.3506 11.5645 27.4061 11.3968 27.4061 11.2292V11.1174L28.3503 11.1733V11.2851L28.3503 11.2851C28.2948 11.5645 28.2392 11.8439 28.1281 12.0674C28.0171 12.2909 27.8504 12.5145 27.6838 12.6821C27.4616 12.8498 27.2395 12.9615 27.0173 13.0733C26.7396 13.1851 26.4619 13.2409 26.1842 13.2409C25.9065 13.2409 25.6843 13.1851 25.4621 13.1292C25.3788 13.0733 25.2816 13.0174 25.1844 12.9615C25.0872 12.9056 24.99 12.8498 24.9067 12.7939C24.7401 12.6821 24.5735 12.5145 24.4624 12.3468C24.3513 12.1792 24.2402 12.0115 24.1847 11.788L24.018 11.1174C23.9625 10.8939 23.9625 10.6704 23.9625 10.4469V10.2792H24.9622V10.4469V10.8939C24.9622 11.0616 25.0178 11.2292 25.0733 11.3968L25.0733 11.3968C25.1011 11.4527 25.1289 11.5226 25.1566 11.5924L25.1567 11.5925C25.1844 11.6623 25.2122 11.7322 25.24 11.788C25.2955 11.8998 25.351 12.0115 25.4621 12.1233C25.5732 12.2351 25.6843 12.2909 25.7954 12.3468C25.8453 12.3468 25.9065 12.3581 25.9738 12.3706C26.0563 12.3858 26.148 12.4027 26.2397 12.4027C26.4619 12.4027 26.6285 12.4027 26.7396 12.3468C26.8507 12.2909 26.9618 12.2351 27.0728 12.1233C27.1839 12.0115 27.2395 11.8998 27.295 11.7321L27.295 11.7321ZM33.6273 11.1736H32.5725V13.2412H33.6273V11.1736ZM35.7659 10.3913C35.6964 10.4332 35.627 10.4751 35.5715 10.5031L36.96 13.1854H36.8489H35.8492L34.6828 10.7266H32.6833V6.92663H34.5717C34.8494 6.92663 35.1827 6.98251 35.4048 7.03839C35.627 7.09428 35.8492 7.20604 36.0713 7.37368C36.238 7.54133 36.4046 7.76486 36.5157 7.98838C36.6268 8.21191 36.6823 8.49132 36.6823 8.82661C36.6823 8.99425 36.6268 9.21778 36.5712 9.38542C36.5157 9.60895 36.4601 9.72071 36.349 9.88836C36.238 10.056 36.1269 10.1678 35.9603 10.2795C35.9047 10.3075 35.8353 10.3494 35.7659 10.3913ZM35.4604 9.4413C35.502 9.38542 35.5437 9.32954 35.5715 9.27366C35.5778 9.25455 35.5841 9.23616 35.5903 9.21825C35.6382 9.07908 35.6762 8.96877 35.627 8.77072C35.627 8.60308 35.627 8.43543 35.5715 8.32367C35.5608 8.30215 35.5501 8.27855 35.539 8.25408C35.4925 8.15148 35.439 8.0335 35.3493 7.98838C35.2382 7.87662 35.1271 7.76486 34.9605 7.76486C34.8772 7.76486 34.7939 7.75089 34.7106 7.73691C34.6272 7.72294 34.5439 7.70897 34.4606 7.70897H33.5719V9.88836H34.5162C34.6828 9.88836 34.7939 9.88836 34.9605 9.83247C35.0651 9.7974 35.1478 9.7403 35.2224 9.68883C35.2666 9.6583 35.3079 9.62975 35.3493 9.60895C35.3771 9.55307 35.4187 9.49718 35.4604 9.4413ZM43.9582 10.8939L45.9577 6.87039H44.8469L43.5139 9.77623L42.2364 6.87039H41.1255L43.1251 10.8939H43.9582ZM44.013 13.1854H43.0692V11.4531H44.013V13.1854ZM63.5092 6.87039H58.7325V7.76449H63.5092V6.87039ZM61.6209 13.1851H60.5661V8.26751H61.6209V13.1851ZM77.0607 11.2296H76.0614V13.1855H77.0607V11.2296ZM79.1997 10.3914C79.1302 10.4333 79.0608 10.4752 79.0053 10.5032L80.3938 13.1855H80.2827H79.283L78.1166 10.7267H76.1171V6.92675H78.0055C78.2832 6.92675 78.5609 6.98263 78.8386 7.03851C79.0608 7.09439 79.283 7.20616 79.5051 7.3738C79.6718 7.54145 79.8384 7.76497 79.9495 7.9885C80.0606 8.21203 80.1161 8.49143 80.1161 8.82672C80.1161 8.99437 80.0606 9.21789 80.005 9.38554C79.9495 9.60907 79.8939 9.72083 79.7829 9.88847C79.6718 10.0561 79.5607 10.1679 79.3941 10.2796C79.3385 10.3076 79.2691 10.3495 79.1997 10.3914ZM78.9497 9.44142C78.9914 9.38554 79.033 9.32966 79.0608 9.27378C79.1163 9.10613 79.1164 8.99437 79.1164 8.77084C79.1164 8.6032 79.1163 8.43555 79.0608 8.32379C79.0501 8.30226 79.0394 8.27866 79.0283 8.25419C78.9818 8.15159 78.9283 8.03362 78.8386 7.9885C78.7276 7.87674 78.6165 7.76497 78.4499 7.76497C78.3665 7.76497 78.2832 7.751 78.1999 7.73703C78.1166 7.72306 78.0333 7.70909 77.95 7.70909H77.0613V9.88847H78.0055C78.1721 9.88847 78.2832 9.88847 78.4499 9.83259C78.5544 9.79751 78.6372 9.74042 78.7117 9.68894C78.7559 9.65842 78.7973 9.62987 78.8386 9.60907C78.8664 9.55318 78.9081 9.4973 78.9497 9.44142ZM84.5597 6.87039V7.82038H86.0038V13.185H87.0591V6.87039H84.5597ZM94.5579 6.87042H95.5021L95.6132 11.1174C95.6132 11.3968 95.5576 11.6762 95.4465 11.9556C95.3355 12.1792 95.1688 12.4027 95.0022 12.6262C94.8356 12.7939 94.5579 12.9615 94.3357 13.0733C94.058 13.185 93.7803 13.2409 93.5026 13.2409C93.2249 13.2409 92.8916 13.185 92.6694 13.0733C92.3917 12.9615 92.1696 12.8497 92.0029 12.6262C91.7808 12.4586 91.6697 12.235 91.5586 11.9556C91.4475 11.6762 91.392 11.3968 91.392 11.1174V10.2792H92.3362V11.1174C92.3362 11.2851 92.3362 11.4527 92.3917 11.6204C92.4048 11.6467 92.418 11.6762 92.4318 11.7074C92.4766 11.8082 92.529 11.9261 92.6139 12.0115C92.725 12.1233 92.8361 12.235 92.9472 12.2909C93.1138 12.3468 93.2804 12.4027 93.447 12.4027C93.6692 12.4027 93.8358 12.3468 93.9469 12.2909C94.058 12.235 94.1691 12.1233 94.2802 12.0115C94.3912 11.8998 94.4468 11.788 94.5023 11.6204C94.5023 11.5365 94.5162 11.4527 94.5301 11.3689C94.544 11.2851 94.5579 11.2012 94.5579 11.1174V6.87042ZM92.2794 6.87039H91.3356V9.77623H92.2794V6.87039ZM101.889 9.72035L102.889 6.87039H104V9.77623H103.056V8.77036L102.167 11.5086H101.556L100.723 8.93801L100.778 10.6703V13.185H99.8341V6.87039H100.945L101.889 9.72035ZM103.056 10.6707V13.1854H104V10.3355H103.056V10.6707ZM53.8445 7.37332C54.0111 7.54097 54.1778 7.76449 54.2888 7.98802C54.3444 8.09978 54.386 8.22552 54.4277 8.35125C54.4694 8.47698 54.511 8.60272 54.5666 8.71448C54.5666 9.04977 54.511 9.32918 54.3999 9.5527C54.2888 9.77623 54.1222 9.99976 53.9556 10.1674C53.789 10.335 53.5668 10.5027 53.2891 10.5586C53.0669 10.6145 52.7892 10.6703 52.5115 10.6703H51.4007V13.1291H50.4009V9.83211H52.456C52.6226 9.83211 52.7892 9.83211 52.9003 9.77623C53.0114 9.72035 53.1225 9.66447 53.2335 9.5527C53.3446 9.44094 53.4002 9.32918 53.4557 9.21742C53.4557 9.16718 53.4669 9.10565 53.4793 9.03791C53.4944 8.95494 53.5113 8.86265 53.5113 8.77036V8.77033C53.5113 8.60269 53.5113 8.43507 53.4557 8.32331C53.4002 8.21155 53.3446 8.09978 53.2335 7.98802C53.1887 7.89778 53.0714 7.84397 52.9695 7.79718C52.9451 7.78602 52.9217 7.77526 52.9003 7.76449C52.8504 7.76449 52.7892 7.7532 52.7219 7.74077C52.6394 7.72555 52.5477 7.70861 52.456 7.70861H51.3451V9.38506H50.3454V6.87039H52.4004C52.6781 6.87039 52.9558 6.92627 53.178 6.98215C53.4557 7.09391 53.6223 7.20568 53.8445 7.37332ZM71.3396 10.3912V9.49711H68.8402V7.76478H71.7284V6.87068H67.8405V10.3912H68.7291H71.3396ZM68.8403 10.8945V12.3474H71.7841V13.1856H67.8406V10.8945H68.8403Z" fill="white"/>
</svg>
