<svg width="104" height="20" viewBox="0 0 104 20" fill="none" xmlns="http://www.w3.org/2000/svg">
	<path fill-rule="evenodd" clip-rule="evenodd" d="M9.44214 18.55C11.9971 18.55 14.3854 17.3765 15.9961 15.4206L16.0516 15.3647L16.7181 16.0353L16.6626 16.0912C14.8853 18.2706 12.2192 19.5 9.44214 19.5C4.22119 19.5 0 15.253 0 10.0001C0 4.74725 4.22119 0.500244 9.44214 0.500244C12.2192 0.500244 14.8853 1.72964 16.6626 3.90902L16.7181 3.9649L16.0516 4.63548L15.9961 4.52372C14.3854 2.51198 11.9971 1.39435 9.44214 1.39435C4.72107 1.39435 0.944214 5.1943 0.944214 9.94423C0.944214 14.6942 4.72107 18.55 9.44214 18.55ZM9.44183 2.1767C11.2192 2.1767 12.941 2.84728 14.3851 4.02079L14.4962 4.13255L13.8296 4.80313L13.7741 4.74725C12.5522 3.74138 11.0525 3.18256 9.44183 3.18256C5.88714 3.18256 2.88788 5.97664 2.66571 9.55307V9.72071H1.77704V9.49718C1.88812 7.48545 2.72125 5.69724 4.16534 4.3002C5.60943 2.90316 7.49786 2.1767 9.44183 2.1767ZM9.44165 14.9737C11.0524 14.9737 12.552 14.1913 13.4962 12.9061L13.5518 12.7943L14.2183 13.4649L14.1627 13.5208C13.0519 14.9737 11.2745 15.8678 9.44165 15.8678C6.22022 15.8678 3.5542 13.2414 3.5542 9.94434C3.5542 6.70321 6.16468 4.02089 9.44165 4.07677C11.2745 4.07677 13.0519 4.915 14.1627 6.4238L14.2183 6.47968L13.5518 7.15026L13.4962 7.0385C12.552 5.75322 11.0524 4.97088 9.44165 4.97088C6.66456 4.97088 4.44288 7.20614 4.44288 9.94434C4.44288 12.7384 6.66456 14.9737 9.44165 14.9737ZM15.4399 5.13853C15.3566 5.05471 15.2872 4.95692 15.2178 4.85912L15.2178 4.85911C15.1484 4.76132 15.079 4.66353 14.9957 4.57971L14.9402 4.52383L14.274 5.19441L14.3295 5.25029C14.4961 5.41794 14.6626 5.58558 14.7737 5.80911L14.8292 5.92087L15.4954 5.25029L15.4399 5.13853ZM13.7184 15.2526L13.774 15.1967L14.3849 15.8673L14.3294 15.9232C12.9409 17.0967 11.2191 17.7672 9.38617 17.7672C7.4422 17.7672 5.55377 16.9849 4.10968 15.6437C2.72113 14.2467 1.83246 12.4026 1.72137 10.4468V10.2232H2.61005V10.4468C2.83221 14.0232 5.83148 16.8173 9.38617 16.8173C10.9969 16.8173 12.4965 16.2584 13.7184 15.2526ZM14.8292 14.0794L14.7737 14.1911C14.7136 14.2819 14.6372 14.3727 14.5533 14.4723C14.4823 14.5567 14.4059 14.6474 14.3295 14.7499L14.274 14.8058L14.9402 15.4764L14.9957 15.4205C15.1623 15.2529 15.3288 15.0294 15.4399 14.8617L15.4954 14.8058L14.8292 14.0794ZM23.9928 9.77626H24.1039V9.60861V9.16156C24.1039 8.99392 24.1594 8.82627 24.215 8.71451C24.2705 8.54686 24.326 8.4351 24.3816 8.32334C24.4094 8.26746 24.451 8.21157 24.4927 8.15569L24.4927 8.15567L24.4927 8.15565L24.4927 8.15564L24.4927 8.15562L24.4927 8.1556L24.4927 8.15558L24.4928 8.15556L24.4928 8.15554L24.4928 8.15552L24.4928 8.15551L24.4928 8.15549L24.4928 8.15547L24.4928 8.15545L24.4928 8.15543L24.4928 8.15541L24.4929 8.15539L24.4929 8.15538C24.5345 8.0996 24.5761 8.04382 24.6038 7.98805C24.7148 7.87628 24.8259 7.8204 24.937 7.76452C25.0481 7.70864 25.2147 7.70864 25.3813 7.70864C25.548 7.70864 25.7146 7.76452 25.8812 7.8204C25.9368 7.84834 25.9923 7.89025 26.0479 7.93217L26.0479 7.93218C26.1034 7.97409 26.1589 8.01599 26.2145 8.04393C26.3256 8.15569 26.3811 8.26746 26.4366 8.4351C26.4922 8.60275 26.5477 8.77039 26.5477 8.93803V9.0498H27.5475V8.93803C27.4919 8.65863 27.4364 8.37922 27.3253 8.09981C27.2142 7.87628 27.1031 7.65276 26.881 7.42923C26.7144 7.26159 26.4922 7.09394 26.2145 7.03806C25.9923 6.9263 25.6591 6.87042 25.3813 6.87042C25.1036 6.87042 24.8815 6.9263 24.6593 6.98218C24.4371 7.03806 24.2705 7.14982 24.1039 7.31747C23.9373 7.42923 23.7706 7.59688 23.6595 7.76452C23.5485 7.93217 23.4374 8.15569 23.3818 8.32334L23.2152 8.99392C23.1597 9.21744 23.1597 9.44097 23.1597 9.66449V9.83214L23.9928 9.77626ZM26.4371 11.7321C26.4926 11.5645 26.5482 11.3968 26.5482 11.2292V11.1174L27.4924 11.1733V11.2851L27.4924 11.2851C27.4368 11.5645 27.3813 11.8439 27.2702 12.0674C27.1591 12.2909 26.9925 12.5145 26.8259 12.6821C26.6037 12.8498 26.3816 12.9615 26.1594 13.0733C25.8817 13.1851 25.604 13.2409 25.3263 13.2409C25.0486 13.2409 24.8264 13.1851 24.6042 13.1292C24.5209 13.0733 24.4237 13.0174 24.3265 12.9615C24.2293 12.9056 24.1321 12.8498 24.0488 12.7939C23.8822 12.6821 23.7155 12.5145 23.6045 12.3468C23.4934 12.1792 23.3823 12.0115 23.3267 11.788L23.1601 11.1174C23.1046 10.8939 23.1046 10.6704 23.1046 10.4469V10.2792H24.1043V10.4469V10.8939C24.1043 11.0616 24.1599 11.2292 24.2154 11.3968L24.2154 11.3968C24.2432 11.4527 24.271 11.5226 24.2987 11.5924L24.2988 11.5925C24.3265 11.6623 24.3543 11.7322 24.382 11.788C24.4376 11.8998 24.4931 12.0115 24.6042 12.1233C24.7153 12.2351 24.8264 12.2909 24.9375 12.3468C24.9874 12.3468 25.0486 12.3581 25.1159 12.3706C25.1983 12.3858 25.2901 12.4027 25.3818 12.4027C25.604 12.4027 25.7706 12.4027 25.8817 12.3468C25.9928 12.2909 26.1038 12.2351 26.2149 12.1233C26.326 12.0115 26.3816 11.8998 26.4371 11.7321L26.4371 11.7321ZM32.7694 11.1736H31.7146V13.2412H32.7694V11.1736ZM34.9079 10.3913C34.8385 10.4332 34.7691 10.4751 34.7135 10.5031L36.1021 13.1854H35.991H34.9913L33.8249 10.7266H31.8254V6.92663H33.7138C33.9915 6.92663 34.3248 6.98251 34.5469 7.03839C34.7691 7.09428 34.9913 7.20604 35.2134 7.37368C35.3801 7.54133 35.5467 7.76486 35.6578 7.98838C35.7688 8.21191 35.8244 8.49132 35.8244 8.82661C35.8244 8.99425 35.7688 9.21778 35.7133 9.38542C35.6578 9.60895 35.6022 9.72071 35.4911 9.88836C35.3801 10.056 35.269 10.1678 35.1023 10.2795C35.0468 10.3075 34.9774 10.3494 34.9079 10.3913ZM34.6025 9.4413C34.6441 9.38542 34.6858 9.32954 34.7135 9.27366C34.7199 9.25455 34.7262 9.23616 34.7324 9.21825C34.7803 9.07908 34.8183 8.96877 34.7691 8.77072C34.7691 8.60308 34.7691 8.43543 34.7135 8.32367C34.7029 8.30215 34.6922 8.27855 34.6811 8.25408C34.6346 8.15148 34.5811 8.0335 34.4914 7.98838C34.3803 7.87662 34.2692 7.76486 34.1026 7.76486C34.0193 7.76486 33.936 7.75089 33.8526 7.73691C33.7693 7.72294 33.686 7.70897 33.6027 7.70897H32.714V9.88836H33.6583C33.8249 9.88836 33.936 9.88836 34.1026 9.83247C34.2072 9.7974 34.2899 9.7403 34.3644 9.68883C34.4087 9.6583 34.45 9.62975 34.4914 9.60895C34.5191 9.55307 34.5608 9.49718 34.6025 9.4413ZM43.1003 10.8939L45.0998 6.87039H43.9889L42.6559 9.77623L41.3785 6.87039H40.2676L42.2671 10.8939H43.1003ZM43.1551 13.1854H42.2113V11.4531H43.1551V13.1854ZM62.6512 6.87039H57.8746V7.76449H62.6512V6.87039ZM60.763 13.1851H59.7082V8.26751H60.763V13.1851ZM76.2028 11.2296H75.2035V13.1855H76.2028V11.2296ZM78.3418 10.3914C78.2723 10.4333 78.2029 10.4752 78.1474 10.5032L79.5359 13.1855H79.4248H78.4251L77.2587 10.7267H75.2592V6.92675H77.1476C77.4253 6.92675 77.703 6.98263 77.9807 7.03851C78.2029 7.09439 78.4251 7.20616 78.6472 7.3738C78.8139 7.54145 78.9805 7.76497 79.0916 7.9885C79.2027 8.21203 79.2582 8.49143 79.2582 8.82672C79.2582 8.99437 79.2027 9.21789 79.1471 9.38554C79.0916 9.60907 79.036 9.72083 78.9249 9.88847C78.8139 10.0561 78.7028 10.1679 78.5362 10.2796C78.4806 10.3076 78.4112 10.3495 78.3418 10.3914ZM78.0918 9.44142C78.1335 9.38554 78.1751 9.32966 78.2029 9.27378C78.2584 9.10613 78.2584 8.99437 78.2584 8.77084C78.2584 8.6032 78.2584 8.43555 78.2029 8.32379C78.1922 8.30226 78.1815 8.27866 78.1704 8.25419C78.1239 8.15159 78.0704 8.03362 77.9807 7.9885C77.8697 7.87674 77.7586 7.76497 77.5919 7.76497C77.5086 7.76497 77.4253 7.751 77.342 7.73703C77.2587 7.72306 77.1754 7.70909 77.0921 7.70909H76.2034V9.88847H77.1476C77.3142 9.88847 77.4253 9.88847 77.5919 9.83259C77.6965 9.79751 77.7792 9.74042 77.8538 9.68894C77.898 9.65842 77.9394 9.62987 77.9807 9.60907C78.0085 9.55318 78.0502 9.4973 78.0918 9.44142ZM83.7018 6.87039V7.82038H85.1459V13.185H86.2012V6.87039H83.7018ZM93.7 6.87042H94.6442L94.7553 11.1174C94.7553 11.3968 94.6997 11.6762 94.5886 11.9556C94.4775 12.1792 94.3109 12.4027 94.1443 12.6262C93.9777 12.7939 93.7 12.9615 93.4778 13.0733C93.2001 13.185 92.9224 13.2409 92.6447 13.2409C92.367 13.2409 92.0337 13.185 91.8115 13.0733C91.5338 12.9615 91.3117 12.8497 91.145 12.6262C90.9229 12.4586 90.8118 12.235 90.7007 11.9556C90.5896 11.6762 90.5341 11.3968 90.5341 11.1174V10.2792H91.4783V11.1174C91.4783 11.2851 91.4783 11.4527 91.5338 11.6204C91.5469 11.6467 91.5601 11.6762 91.5739 11.7074C91.6187 11.8082 91.6711 11.9261 91.756 12.0115C91.8671 12.1233 91.9782 12.235 92.0892 12.2909C92.2559 12.3468 92.4225 12.4027 92.5891 12.4027C92.8113 12.4027 92.9779 12.3468 93.089 12.2909C93.2001 12.235 93.3112 12.1233 93.4222 12.0115C93.5333 11.8998 93.5889 11.788 93.6444 11.6204C93.6444 11.5365 93.6583 11.4527 93.6722 11.3689C93.6861 11.2851 93.7 11.2012 93.7 11.1174V6.87042ZM91.4215 6.87039H90.4777V9.77623H91.4215V6.87039ZM101.031 9.72035L102.031 6.87039H103.142V9.77623H102.198V8.77036L101.309 11.5086H100.698L99.8649 8.93801L99.9204 10.6703V13.185H98.9762V6.87039H100.087L101.031 9.72035ZM102.198 10.6707V13.1854H103.142V10.3355H102.198V10.6707ZM52.9866 7.37332C53.1532 7.54097 53.3199 7.76449 53.4309 7.98802C53.4865 8.09978 53.5281 8.22552 53.5698 8.35125C53.6114 8.47698 53.6531 8.60272 53.7086 8.71448C53.7086 9.04977 53.6531 9.32918 53.542 9.5527C53.4309 9.77623 53.2643 9.99976 53.0977 10.1674C52.9311 10.335 52.7089 10.5027 52.4312 10.5586C52.209 10.6145 51.9313 10.6703 51.6536 10.6703H50.5428V13.1291H49.543V9.83211H51.598C51.7647 9.83211 51.9313 9.83211 52.0424 9.77623C52.1535 9.72035 52.2646 9.66447 52.3756 9.5527C52.4867 9.44094 52.5423 9.32918 52.5978 9.21742C52.5978 9.16718 52.609 9.10565 52.6214 9.03791C52.6365 8.95494 52.6533 8.86265 52.6533 8.77036V8.77033C52.6533 8.60269 52.6533 8.43507 52.5978 8.32331C52.5423 8.21155 52.4867 8.09978 52.3756 7.98802C52.3308 7.89778 52.2135 7.84397 52.1116 7.79718C52.0872 7.78602 52.0638 7.77526 52.0424 7.76449C51.9925 7.76449 51.9313 7.7532 51.864 7.74077C51.7815 7.72555 51.6898 7.70861 51.598 7.70861H50.4872V9.38506H49.4875V6.87039H51.5425C51.8202 6.87039 52.0979 6.92627 52.3201 6.98215C52.5978 7.09391 52.7644 7.20568 52.9866 7.37332ZM70.4817 10.3912V9.49711H67.9823V7.76478H70.8705V6.87068H66.9825V10.3912H67.8712H70.4817ZM67.9824 10.8945V12.3474H70.9261V13.1856H66.9827V10.8945H67.9824Z" fill="black"/>
</svg>
