<svg width="307" height="66" viewBox="0 0 307 66" fill="none" xmlns="http://www.w3.org/2000/svg">
	<path fill-rule="evenodd" clip-rule="evenodd" d="M1.18958 1.46317C8.85812 10.6011 17.278 22.0812 18.6398 23.938C18.7125 24.037 18.765 24.1086 18.7963 24.1511C19.5223 25.1363 20.1216 25.8686 20.5767 26.4247L20.5768 26.4248C21.5872 27.6594 21.8869 28.0257 21.2841 28.3623C20.7978 28.6336 20.2961 28.7231 19.7955 28.7231C19.2293 28.7231 18.5915 28.4554 18.127 28.0229C17.7987 27.7172 15.5523 24.514 12.4934 19.8541C10.1529 16.2884 8.19413 13.3306 8.1407 13.2811C8.01716 13.1665 8.01927 13.1704 12.2547 20.6108C14.9142 25.2828 16.7334 28.7354 16.7334 28.9562C16.7334 29.4055 16.6085 29.6417 16.044 30.2599C15.1029 31.2909 14.6822 32.449 14.3785 34.8459C14.0381 37.5328 13.0807 39.4311 10.4277 42.6794C8.87468 44.5811 8.62058 44.9295 8.2287 45.696C7.73514 46.6612 7.59938 47.2017 7.54438 48.4205C7.48624 49.7093 7.59948 50.5417 8.00047 51.7736C8.35154 52.8522 8.71795 53.5646 9.65472 54.9892C10.4632 56.2182 10.9286 57.1318 10.9286 57.4892C10.9286 57.7737 10.9839 57.774 12.2367 57.4964C15.2346 56.8315 17.6689 55.6628 19.038 54.2301C19.8853 53.3433 20.0842 52.8537 20.0906 51.6386C20.0949 50.8438 20.0664 50.6775 19.8476 50.2203C19.4914 49.4758 18.8429 48.8573 17.4137 47.898C15.5409 46.641 14.7411 45.6292 14.5201 44.2376C14.3389 43.0959 14.5492 42.2902 15.5852 40.1585C16.6575 37.9518 16.9232 37.0115 17.103 34.7872C17.219 33.3502 17.3798 32.7835 17.8004 32.3287C18.239 31.8544 18.6338 31.6937 19.7191 31.5479C21.4887 31.3107 22.6154 30.8612 23.5416 30.0233C24.3451 29.2964 24.6813 28.596 24.7329 27.5416L24.772 26.7424L24.3231 26.2284C22.6971 24.3671 0.100681 0 0.000618884 0C-0.0207573 0 0.514298 0.658471 1.18958 1.46317ZM11.8414 49.8787C12.209 49.2393 12.0137 48.4177 11.3987 48.0161C10.8177 47.6369 9.91513 47.8156 9.91513 48.3099C9.91513 48.4606 10.0001 48.5704 10.1916 48.6673C10.5139 48.8302 10.5373 49.0133 10.2837 49.3876C10.0268 49.7668 10.0475 50.1 10.3422 50.3263C10.8171 50.6915 11.4893 50.4907 11.8414 49.8787ZM22.9067 15.0211C22.1813 14.9106 22.1507 14.8977 22.4921 14.8462C23.1463 14.7474 24.6909 14.882 25.7554 15.1305C28.2405 15.7105 30.5018 17.1961 32.9155 19.8347L33.5567 20.5357L34.4742 20.3909C38.3389 19.7811 42.2704 20.2657 45.5588 21.7572C46.4635 22.1675 47.8898 22.9843 48.0679 23.1941C48.1245 23.261 48.2291 23.6916 48.2994 24.1511C48.5437 25.7407 48.4216 26.9591 47.9262 27.8692C47.657 28.3644 47.6419 28.5213 47.8229 28.9452C47.9675 29.2834 48.3707 29.5337 48.7702 29.5331C49.5872 29.532 50.4666 28.2351 50.8744 26.4305L51.0362 25.7137L51.3569 26.0703C53.1158 28.027 54.4976 30.6955 54.7349 32.5948L54.7966 33.09L54.5011 32.6399C53.992 31.8653 53.481 31.3378 52.8261 30.9125C51.646 30.1458 50.3979 29.8848 47.0932 29.7138C44.1082 29.5594 42.4191 29.3091 40.744 28.7728C37.8937 27.8605 36.4572 26.6455 33.0716 22.2846C31.5679 20.3477 30.6385 19.276 29.714 18.4129C27.6132 16.452 25.549 15.4235 22.9067 15.0211ZM48.741 19.3459C48.8162 18.0479 48.9956 17.1918 49.356 16.41C49.4986 16.1005 49.6323 15.8472 49.6528 15.8472C49.6736 15.8472 49.6115 16.0757 49.5149 16.3548C49.253 17.1136 49.2099 18.1514 49.3905 19.3588C49.6195 20.8909 49.75 21.112 51.3992 22.7669C52.1727 23.5431 53.0726 24.5222 53.3988 24.9425L53.992 25.7067L53.3988 25.1606C52.6735 24.4926 51.0055 23.19 50.6371 23.0038C50.3899 22.8789 50.3531 22.8811 50.2009 23.03C50.0605 23.1672 50.0308 23.3734 50.0113 24.3482C49.9809 25.8675 49.7701 26.8426 49.261 27.8177C48.9857 28.345 48.9422 28.2325 49.1913 27.6372C49.3774 27.1928 49.3963 26.9974 49.395 25.5267C49.3921 22.5716 49.0346 21.8612 46.939 20.6442C46.4085 20.3359 45.5335 19.8913 44.9953 19.6561C44.4574 19.4209 44.0299 19.216 44.0452 19.2007C44.1047 19.1427 46.1485 19.7284 46.971 20.039C48.1945 20.5011 48.3963 20.561 48.545 20.5052C48.6445 20.4679 48.6928 20.1831 48.741 19.3459ZM22.1292 17.0772C21.932 19.3587 22.8431 22.4106 24.3158 24.4012C25.4574 25.9442 27.227 27.1432 28.5334 27.2591C29.3888 27.3349 29.6459 27.0719 29.2589 26.5171C28.7217 25.7467 28.0608 24.5605 27.886 24.0527C27.7774 23.7372 27.5413 22.8052 27.3613 21.9817C26.747 19.1702 26.1432 18.0753 24.7485 17.2437C24.2403 16.9406 23.1549 16.544 22.5254 16.4313L22.1902 16.3712L22.1292 17.0772ZM46.955 39.2157C40.0728 36.4952 37.6488 34.1338 37.6488 30.1494C37.6488 29.563 37.6695 29.0833 37.6945 29.0833C37.7197 29.0833 37.9858 29.2768 38.2861 29.5133C39.6817 30.6123 41.2445 31.0817 45.571 31.7012C48.1165 32.0661 49.5492 32.3604 50.8709 32.791C55.0713 34.1586 57.6703 36.9341 58.29 40.7149C58.4701 41.8134 58.3645 43.8733 58.0726 44.959C57.842 45.8166 57.1385 47.3621 56.952 47.4215C56.9002 47.438 56.8494 47.2434 56.8363 46.9786C56.7656 45.559 56.0349 44.177 54.8078 43.1416C53.4126 41.9644 51.538 41.0276 46.955 39.2157ZM41.791 38.9163C41.8876 39.1989 42.0373 39.842 42.1233 40.3459C42.6746 43.5668 40.9525 46.1691 37.6027 47.1775C37.2481 47.2841 35.8512 47.5527 34.4985 47.7737C31.7602 48.2213 30.5381 48.5383 29.3103 49.119C28.4396 49.5308 27.3855 50.1476 27.4481 50.2088C27.4683 50.2287 27.6671 50.1821 27.8897 50.1053C29.438 49.5716 31.161 49.2952 33.779 49.1616C34.818 49.1087 35.9996 49.0242 36.4051 48.9741C38.7373 48.6857 40.3539 47.99 41.611 46.7339C42.3104 46.0349 42.7274 45.3836 43.0635 44.4654C43.2764 43.8829 43.3052 43.6666 43.3068 42.6346C43.3087 41.583 43.2828 41.3906 43.052 40.7438C42.7498 39.8958 42.3932 39.2595 41.9416 38.7619L41.6154 38.4025L41.791 38.9163ZM45.2783 45.8468C44.3637 43.9168 44.154 42.0536 44.6547 40.316C44.7085 40.1302 44.7945 39.9782 44.8466 39.9782C44.8984 39.9782 45.114 40.0929 45.326 40.2327C45.7472 40.5113 46.5924 40.9803 48.8437 42.1854C51.6534 43.6893 53.2552 44.8537 54.3444 46.1844C55.2984 47.3494 55.8887 48.6764 56.1727 50.2946C56.3339 51.2112 56.2395 53.417 56 54.3398C55.2447 57.2502 53.489 59.5361 50.985 60.8702C50.6182 61.0654 50.2888 61.2258 50.253 61.2268C50.2175 61.2274 50.3512 60.8939 50.5501 60.4851C51.3924 58.7562 51.4884 57.0746 50.8517 55.203C50.4615 54.057 49.6665 52.6585 48.0612 50.2949C46.1949 47.5471 45.7372 46.8157 45.2783 45.8468ZM28.0545 52.1767C25.16 52.6383 21.9823 54.1421 19.4284 56.2593L18.668 56.8896L19.3362 56.9922C22.8232 57.5265 23.7622 58.0006 26.181 60.4469C27.5729 61.8544 28.043 62.1677 29.1975 62.4571C30.8932 62.882 32.5647 62.1012 33.1381 60.616C33.3942 59.9523 33.36 58.8535 33.0661 58.3018C32.3671 56.9879 30.3304 56.5633 29.3455 57.5256C28.5252 58.3273 28.7642 59.5349 29.7845 59.7425C30.0181 59.7904 30.0114 59.7801 29.725 59.653C29.2785 59.4547 29.0845 59.1799 29.082 58.7425C29.0763 57.7171 30.2715 57.1414 31.3835 57.6338C32.1976 57.9947 32.5209 58.4659 32.5209 59.2921C32.5209 60.5644 31.418 61.523 30.1345 61.3663C29.4485 61.2824 28.6095 60.8516 28.1595 60.3524C27.0275 59.0957 27.4685 57.1125 29.049 56.3516C30.2523 55.7725 31.8517 55.9152 33.092 56.7125C34.517 57.6288 35.123 58.4662 36.3504 61.2146C36.7501 62.1095 37.2644 63.117 37.493 63.4533C38.6558 65.162 40.0488 66 41.7267 66C42.6522 66 43.3484 65.834 44.2243 65.4047C44.8751 65.0855 45.7977 64.4791 45.7312 64.4141C45.7123 64.3958 45.4424 64.4781 45.1312 64.5972C43.2992 65.2987 41.4367 65.2506 40.3552 64.4732C39.674 63.9839 39.1246 63.0091 38.8422 61.79C38.7933 61.5789 38.6321 60.6471 38.4837 59.7189C38.1077 57.3665 37.7466 56.309 36.9046 55.0955C36.0431 53.854 34.3869 52.8121 32.5353 52.3467C31.3801 52.0564 29.302 51.9775 28.0545 52.1767ZM24.0005 33.9886C24.2505 33.0822 25.058 32.2178 25.8888 31.9672C26.417 31.8081 27.5089 31.9097 28.0223 32.1659C29.0172 32.6626 29.7394 33.7937 29.5827 34.6103C29.3915 35.6059 27.7469 36.4026 25.8551 36.4156C24.8889 36.4222 24.532 36.2947 24.163 35.8111C23.9346 35.5114 23.8481 34.5416 24.0005 33.9886ZM27.7682 32.5208C28.2644 32.8183 28.392 33.2582 28.1003 33.665C27.8993 33.9454 27.2772 34.2118 26.8226 34.2118C26.1396 34.2118 25.3945 33.7356 25.3945 33.2995C25.3945 32.4232 26.8233 31.9542 27.7682 32.5208ZM176.056 35.0299C174.512 30.0402 177.058 25.9014 182.488 24.5714C184.046 24.1897 191.098 24.3619 192.306 24.8112C192.75 24.9759 192.943 25.6078 192.947 26.9065C192.95 27.9294 193.065 29.1716 193.202 29.667C193.41 30.4179 193.288 30.5656 192.473 30.5536C191.736 30.5424 191.29 30.1224 190.667 28.8516C189.673 26.8221 188.469 26.1765 185.663 26.1689C182.082 26.1589 179.461 28.5029 179.888 31.335C180.166 33.178 182.06 34.9914 186.311 37.4843C190.356 39.8557 192.717 41.8059 193.658 43.5531C196.173 48.2244 194.025 53.2233 188.421 55.742C185.544 57.0348 180.723 57.1685 177.333 56.0494L175.162 55.3326V51.9613C175.162 48.9079 175.237 48.5893 175.953 48.5893C176.552 48.5893 176.811 48.9741 177.021 50.1796C177.544 53.177 179.887 54.9966 183.225 54.9966C186.495 54.9966 188.78 53.2603 189.656 50.1118C190.029 48.7705 189.964 48.276 189.225 46.7964C188.338 45.0225 186.812 43.8453 181.628 40.9383C178.751 39.3251 176.717 37.1682 176.056 35.0299ZM74.4322 26.5633C73.7248 26.5633 73.4488 26.3387 73.4488 25.7624C73.4488 24.9995 73.7248 24.9614 79.2677 24.9614C84.4126 24.9614 85.071 25.0367 84.953 25.6106C84.8791 25.9678 84.1682 26.4632 83.3723 26.7119L81.9249 27.164L81.8015 37.3761C81.7186 44.1903 81.835 48.1212 82.1507 49.1899C83.0893 52.3682 85.9523 54.1959 89.992 54.1959C92.8042 54.1959 94.447 53.5568 96.5109 51.6589C98.7309 49.6185 99.0849 47.6798 99.0779 37.6037C99.0712 27.6647 98.893 26.8444 96.697 26.6382C95.6977 26.5441 95.3629 26.3178 95.3629 25.7371C95.3629 25.0131 95.6926 24.9614 100.324 24.9614C105.01 24.9614 105.286 25.0059 105.286 25.7624C105.286 26.2558 105.008 26.5657 104.562 26.5693C102.647 26.5857 102.612 26.7628 102.354 37.6612C102.087 48.9788 101.837 50.3188 99.4776 53.0912C98.7971 53.891 97.1742 55.0523 95.8713 55.6721C93.7482 56.682 93.0728 56.7979 89.3674 56.7914C85.9517 56.7846 84.8734 56.6242 83.1654 55.8685C80.6723 54.7654 79.0509 53.3377 77.8555 51.1923C77.0212 49.6947 76.9499 48.8843 76.7567 38.7376C76.5354 27.1232 76.4283 26.5633 74.4322 26.5633ZM113.123 26.5633C112.177 26.5633 111.902 26.3823 111.902 25.7624C111.902 25.0115 112.166 24.9635 116.139 24.9943L120.378 25.0271L122.405 27.297C123.52 28.5453 127.154 32.4503 130.48 35.9743C133.807 39.4985 137.626 43.5982 138.966 45.0849C140.308 46.572 141.57 47.7883 141.772 47.7883C141.979 47.7883 142.082 43.5882 142.008 38.1417L141.878 28.4952L140.718 27.5293C140.08 26.9978 139.103 26.5633 138.547 26.5633C137.808 26.5633 137.537 26.3454 137.537 25.7512C137.537 24.969 137.748 24.943 143.222 25.0503C147.876 25.1416 148.907 25.2678 148.907 25.746C148.907 26.0868 148.331 26.4444 147.525 26.6042C146.765 26.7548 145.927 27.0864 145.664 27.3411C145.325 27.6698 145.152 31.9209 145.067 42.0011L144.949 56.198H143.751C142.719 56.198 141.491 55.0697 134.926 48.0886C130.731 43.628 125.835 38.327 124.045 36.3084C122.255 34.2895 120.651 32.6225 120.481 32.6041C120.001 32.5519 120.117 50.5886 120.608 52.3007C120.991 53.6349 121.254 53.8646 122.88 54.2861C124.19 54.6252 124.719 54.9693 124.719 55.4803C124.719 56.1365 124.22 56.198 118.931 56.198C113.546 56.198 113.142 56.1458 113.142 55.4474C113.142 54.936 113.532 54.6211 114.364 54.4598C116.888 53.9709 117.056 53.1947 117.198 41.33C117.277 34.6849 117.161 30.0354 116.89 29.0619C116.414 27.3499 115.228 26.5633 113.123 26.5633ZM156.477 26.5633C155.591 26.5633 155.316 26.3731 155.316 25.7624C155.316 24.9971 155.591 24.9614 161.518 24.9614C167.444 24.9614 167.72 24.9971 167.72 25.7624C167.72 26.3499 167.444 26.5633 166.686 26.5633C166.118 26.5633 165.273 26.931 164.809 27.3803C163.99 28.1736 163.969 28.5681 164.085 40.8289C164.199 52.7978 164.248 53.4903 165.008 54.0284C165.449 54.3408 166.24 54.5963 166.765 54.5963C167.444 54.5963 167.72 54.8272 167.72 55.3973C167.72 56.1626 167.444 56.198 161.518 56.198C155.733 56.198 155.316 56.1477 155.316 55.4486C155.316 54.8847 155.722 54.6357 156.954 54.4449C159.401 54.066 159.526 53.2901 159.373 39.4457C159.251 28.3587 159.199 27.6674 158.441 27.1312C158 26.8188 157.116 26.5633 156.477 26.5633ZM199.74 26.5633C199.174 26.5633 198.744 26.2586 198.61 25.7624C198.401 24.9879 198.598 24.9614 204.557 24.9614C210.445 24.9614 210.72 24.9971 210.72 25.7624C210.72 26.3779 210.445 26.5633 209.53 26.5633C206.928 26.5633 206.986 27.0214 210.926 37.4946C212.93 42.8258 214.878 47.8899 215.252 48.7482L215.932 50.3089L219.09 42.1404C222.808 32.5252 223.29 30.747 222.659 28.9934C222.219 27.7711 220.508 26.5633 219.217 26.5633C218.852 26.5633 218.576 26.2189 218.576 25.7624C218.576 24.9959 218.852 24.9614 224.985 24.9614C231.118 24.9614 231.394 24.9959 231.394 25.7624C231.394 26.3323 231.118 26.5633 230.439 26.5633C228.701 26.5633 227.934 27.4612 228.184 29.2057C228.441 31.0014 235.553 50.3011 235.851 50.0123C236.336 49.5427 244.212 28.7663 244.212 27.9566C244.212 26.9862 243.511 26.5633 241.904 26.5633C241.18 26.5633 240.904 26.3427 240.904 25.7624C240.904 25.0059 241.18 24.9614 245.866 24.9614C250.074 24.9614 250.827 25.056 250.827 25.583C250.827 25.925 250.312 26.3787 249.681 26.5914C248.264 27.0699 247.908 27.6162 246.13 32.0409C245.349 33.984 242.906 40.0652 240.7 45.554C238.494 51.0434 236.594 55.774 236.478 56.0665C236.362 56.3593 235.678 56.5987 234.958 56.5987H233.649L230.68 49.0898C229.046 44.9603 227.116 40.0677 226.391 38.2176C225.148 35.0473 225.044 34.9096 224.577 35.8145C224.304 36.3432 222.342 41.2445 220.215 46.7066L216.35 56.6379L214.908 56.5182L213.465 56.3985L207.963 42.4133C204.889 34.5997 202.063 28.0162 201.557 27.4956C201.06 26.9826 200.242 26.5633 199.74 26.5633ZM282.414 26.7332C282.345 26.581 282.345 26.0343 282.345 26.0343C282.345 26.0343 282.329 25.8371 282.414 25.7319C282.499 25.6271 282.529 25.6243 282.833 25.5962L282.836 25.5959C283.952 25.4927 286.192 25.319 288.061 25.2398C288.233 25.2325 288.423 25.2241 288.63 25.215L288.634 25.2148L288.636 25.2147L288.638 25.2146C290.695 25.1239 294.376 25.0025 296.907 25.1254C301.761 25.3612 305.214 27.642 306.39 31.4112C307.567 35.1801 306.945 38.718 305.341 40.97C303.737 43.2221 301.04 45.1611 296.557 45.0349C292.857 44.9308 291.866 44.2572 291.075 43.7191C290.908 43.6053 290.75 43.4975 290.577 43.4027V48.2092C290.616 51.4873 290.644 53.0617 290.905 53.6445C291.257 54.429 292.052 54.9124 293.602 55.2829C293.602 55.2829 294.303 55.4427 294.484 55.613C294.664 55.7834 294.664 56.1617 294.664 56.1617C294.664 56.1617 294.702 56.5154 294.556 56.6957C294.411 56.876 294.13 56.8399 294.13 56.8399L287.268 56.7861L283.13 56.7756C283.13 56.7756 282.696 56.8564 282.533 56.6867C282.37 56.5166 282.385 56.1626 282.385 56.1626C282.385 56.1626 282.421 55.7812 282.611 55.6105C282.801 55.4396 283.507 55.2487 283.507 55.2487C285.103 54.8132 285.795 54.3526 286.157 53.4847C286.448 52.785 286.45 51.4876 286.447 40.8995C286.444 30.8584 286.429 28.9854 286.192 28.4467C285.842 27.6494 284.964 27.4381 283.714 27.1373L283.714 27.1372C283.466 27.0775 283.203 27.0143 282.928 26.9424C282.928 26.9424 282.483 26.8853 282.414 26.7332ZM302.396 34.9264C302.396 36.5729 302.366 39.1507 300.563 40.7985C298.76 42.4462 295.209 42.8973 292.799 42.4385C292.039 42.2939 291.605 42.071 291.27 41.8991L291.236 41.8821L290.619 41.5662L290.584 35.7812C290.561 32.1565 290.6 29.795 290.688 29.4574C290.768 27.5461 293.669 27.3084 295.086 27.3791C301.149 27.3791 302.219 32.3446 302.396 34.9264ZM263.375 25.1857C263.375 25.1857 263.079 25.2962 262.63 25.4616L261.011 26.2744L259.845 29.1033C259.204 30.6591 258.031 33.5152 257.239 35.4502C255.796 38.9745 254.843 41.2899 253.84 43.7067C253.545 44.4176 252.655 46.5822 251.861 48.5172C251.068 50.4519 250.275 52.2933 250.099 52.6091C250.069 52.6616 250.038 52.7182 250.006 52.7779C249.562 53.5885 248.791 54.9966 247.43 55.2096C247.43 55.2096 246.681 55.2811 246.404 55.5471C246.127 55.8135 246.154 56.0311 246.154 56.0311V56.3665C246.154 56.3665 246.179 56.5291 246.336 56.6099C246.493 56.691 246.706 56.6957 246.706 56.6957L251.685 56.6407H256.832C256.832 56.6407 257.196 56.682 257.336 56.5689C257.477 56.4557 257.515 56.2879 257.515 56.2879V55.9347C257.515 55.9347 257.444 55.5518 257.24 55.4023C257.036 55.2531 256.272 55.1508 256.272 55.1508C254.212 54.8875 253.857 53.3728 254.111 52.0107C254.236 51.3415 255.064 48.866 255.997 46.3737L256.32 45.5123L261.712 45.4722C264.678 45.4502 267.239 45.4651 267.403 45.5055C267.637 45.563 267.965 46.2099 268.927 48.5138C270.385 52.0045 270.501 52.4297 270.179 53.0828C270.159 53.1226 270.138 53.1664 270.115 53.2137C269.812 53.8453 269.224 55.0725 267.742 55.1974C267.742 55.1974 266.956 55.2239 266.761 55.4523C266.565 55.6811 266.608 55.9441 266.608 55.9441V56.2935C266.608 56.2935 266.66 56.4983 266.761 56.5794C266.862 56.6606 267.033 56.64 267.033 56.64L271.928 56.6058L278.809 56.6055C278.809 56.6055 279.078 56.6335 279.152 56.5328C279.225 56.4318 279.241 56.313 279.241 56.313V55.849C279.241 55.849 279.211 55.6021 279.078 55.466C278.946 55.3302 278.054 55.1866 278.054 55.1866C276.914 55.0078 276.346 54.0933 275.923 53.4123C275.816 53.2385 275.717 53.08 275.621 52.9529C275.425 52.6933 274.725 51.2709 274.177 49.9029C273.63 48.5349 272.393 45.4446 271.43 43.0359C270.467 40.6272 269.123 37.267 268.443 35.5692C267.764 33.8711 266.473 30.6403 265.574 28.3895C265.426 28.02 265.294 27.6882 265.176 27.3912L265.175 27.3898C264.572 25.8783 264.329 25.2683 264.263 25.1857C264.046 24.9177 263.375 25.1857 263.375 25.1857ZM263.054 34.3837C262.837 33.8705 262.455 32.9498 262.205 32.3378C261.751 31.2253 261.579 30.969 261.438 31.1988C261.397 31.266 261.111 32.0263 260.803 32.8886C258.807 38.4712 257.903 40.985 257.722 41.4587C257.608 41.7565 257.515 42.0633 257.515 42.1407C257.515 42.2296 259.138 42.2815 261.919 42.2815C264.342 42.2815 266.323 42.2523 266.323 42.2165C266.323 42.1808 266.107 41.648 265.843 41.0319C265.579 40.4158 264.932 38.8781 264.406 37.6146C263.88 36.351 263.272 34.8972 263.054 34.3837Z" fill="white"/>
</svg>
