<svg width="254" height="47" viewBox="0 0 254 47" fill="none" xmlns="http://www.w3.org/2000/svg">
	<path fill-rule="evenodd" clip-rule="evenodd" d="M23.8953 46.9968C37.0923 46.9968 47.7906 36.4762 47.7906 23.4984C47.7906 10.5206 37.0923 0 23.8953 0C10.6983 0 0 10.5206 0 23.4984C0 36.4762 10.6983 46.9968 23.8953 46.9968ZM26.6117 28.0151L26.7063 28.1658L26.7161 28.153C27.0037 28.6321 27.1558 29.1782 27.1565 29.7345C27.1475 30.3624 26.9514 30.9739 26.5923 31.4932C26.2333 32.0125 25.7272 32.4167 25.1367 32.6558C24.5463 32.8949 23.8974 32.9583 23.2707 32.8382C22.6439 32.7181 22.0668 32.4197 21.6108 31.9801C21.5064 31.9031 21.402 31.8197 21.3042 31.7331C20.0711 30.6552 17.6603 29.2854 13.9089 31.6818C13.8099 31.7445 13.7302 31.7999 13.6397 31.8628L13.6397 31.8629L13.6396 31.8629C13.596 31.8933 13.5498 31.9254 13.4978 31.9609C13.0448 32.4052 12.4689 32.7087 11.8419 32.8336C11.2148 32.9585 10.5642 32.8993 9.97106 32.6634C9.37793 32.4275 8.86844 32.0253 8.50599 31.5068C8.14353 30.9883 7.94413 30.3764 7.93258 29.7474V29.7185V29.6736C7.93251 29.2401 8.0218 28.811 8.19505 28.4124C8.3683 28.0137 8.62192 27.6538 8.94058 27.3542L9.35488 26.7768C9.99463 25.938 10.3865 24.9418 10.4872 23.8981C10.5879 22.8543 10.3936 21.8034 9.92576 20.8613C9.68894 20.4417 9.40439 20.0499 9.07759 19.6936C8.94823 19.5702 8.82624 19.4395 8.71223 19.3022L8.69703 19.2853L8.69702 19.2853L8.69699 19.2853C8.65005 19.2332 8.59283 19.1697 8.57522 19.1322C8.5665 19.1136 8.52474 19.0549 8.47765 18.9887L8.47761 18.9886L8.47753 18.9885C8.41899 18.9062 8.35225 18.8123 8.33056 18.7697C8.06845 18.3044 7.93146 17.781 7.93258 17.2491C8.00537 16.4511 8.37918 15.7088 8.98046 15.1682C9.58174 14.6276 10.367 14.3278 11.1817 14.3278C11.9964 14.3278 12.7816 14.6276 13.3829 15.1682C13.9842 15.7088 14.358 16.4511 14.4308 17.2491C14.4317 17.7365 14.3142 18.2171 14.0883 18.651L14.0687 18.6831C13.9519 18.9065 13.8084 19.1154 13.6414 19.3054C13.5951 19.36 13.5472 19.421 13.4977 19.484L13.4976 19.4841L13.4975 19.4842L13.4975 19.4842L13.4974 19.4843C13.4249 19.5766 13.3489 19.6733 13.2695 19.7609C12.1734 20.9703 10.7804 23.341 13.2173 27.0302C13.3541 27.2486 13.5298 27.4409 13.736 27.598L14.0132 27.8226C14.0132 27.8226 16.7763 30.0265 20.1755 28.4417C20.6019 28.2072 21.0002 27.9264 21.3629 27.6044L21.4183 27.5499C21.6557 27.3091 21.8739 27.0506 22.0708 26.7768C22.7072 25.9362 23.0957 24.9393 23.1936 23.8957C23.2914 22.8521 23.0948 21.8021 22.6253 20.8613C22.3869 20.4419 22.1013 20.0502 21.7739 19.6936C21.6446 19.5702 21.5226 19.4395 21.4086 19.3022L21.3934 19.2853C21.3464 19.2332 21.2892 19.1697 21.2715 19.1322C21.2628 19.1136 21.2211 19.0549 21.174 18.9887C21.1154 18.9063 21.0486 18.8124 21.0269 18.7697C20.7796 18.3403 20.6364 17.8606 20.6084 17.3679C20.5805 16.8752 20.6685 16.3827 20.8656 15.9289C21.0627 15.4751 21.3636 15.0722 21.7449 14.7514C22.1262 14.4306 22.5776 14.2006 23.064 14.0793C23.5504 13.9581 24.0587 13.9488 24.5494 14.0523C25.04 14.1557 25.4998 14.3691 25.8929 14.6758C26.2861 14.9825 26.6019 15.3742 26.816 15.8205C27.0301 16.2668 27.1365 16.7557 27.1271 17.2491C27.1314 17.7351 27.0197 18.2152 26.8009 18.651L26.7813 18.6831C26.6645 18.9065 26.5211 19.1154 26.354 19.3054C26.3076 19.3601 26.2597 19.4211 26.2101 19.4842L26.2101 19.4843L26.21 19.4844C26.1374 19.5767 26.0615 19.6733 25.9821 19.7609C24.886 20.9703 23.4931 23.341 25.9299 27.0302C25.9913 27.1207 26.0447 27.1941 26.1037 27.2751L26.1037 27.2751L26.1038 27.2752C26.2142 27.4269 26.3443 27.6055 26.5823 27.9733L26.6117 28.0151ZM39.3254 28.1662L39.2275 28.0154L39.2014 27.9737C38.9634 27.6058 38.8333 27.4272 38.7229 27.2755L38.7229 27.2755L38.7228 27.2755L38.7228 27.2754C38.6638 27.1944 38.6104 27.121 38.549 27.0305C36.1122 23.3414 37.5051 20.9707 38.6012 19.7613C38.6807 19.6736 38.7567 19.5769 38.8292 19.4845L38.8293 19.4845C38.8788 19.4214 38.9268 19.3604 38.9731 19.3057C39.1402 19.1157 39.2836 18.9068 39.4004 18.6834L39.42 18.6513C39.6403 18.2161 39.7521 17.7356 39.7462 17.2494C39.6734 16.4515 39.2996 15.7091 38.6983 15.1685C38.0971 14.6279 37.3118 14.3281 36.4971 14.3281C35.6824 14.3281 34.8972 14.6279 34.2959 15.1685C33.6946 15.7091 33.3208 16.4515 33.248 17.2494C33.2469 17.7813 33.3839 18.3047 33.646 18.77C33.6677 18.8127 33.7345 18.9067 33.7931 18.989C33.8402 19.0552 33.8819 19.1139 33.8907 19.1325C33.9083 19.17 33.9655 19.2336 34.0125 19.2857L34.0277 19.3025C34.1417 19.4398 34.2637 19.5705 34.393 19.6939C34.7198 20.0503 35.0044 20.442 35.2412 20.8616C35.7091 21.8037 35.9034 22.8546 35.8026 23.8984C35.7019 24.9422 35.3101 25.9384 34.6703 26.7771L33.8548 27.9127C33.829 27.9457 33.805 27.9799 33.783 28.0154L33.7634 28.0411C33.432 28.5502 33.2586 29.1432 33.2643 29.7477C33.3371 30.5457 33.7109 31.288 34.3122 31.8286C34.9135 32.3692 35.6987 32.669 36.5134 32.669C37.3281 32.669 38.1134 32.3692 38.7147 31.8286C39.3159 31.288 39.6897 30.5457 39.7625 29.7477C39.7618 29.1913 39.6098 28.6453 39.3221 28.1662H39.3254ZM30.2146 26.5845C32.0541 26.5845 33.5453 25.1008 33.5453 23.2706C33.5453 21.4405 32.0541 19.9568 30.2146 19.9568C28.3752 19.9568 26.884 21.4405 26.884 23.2706C26.884 25.1008 28.3752 26.5845 30.2146 26.5845ZM130.406 27.3351C129.956 26.3363 129.371 25.4019 128.667 24.557C127.923 23.8199 127.035 23.2382 126.057 22.8472C125.334 22.4903 124.462 22.2837 123.691 22.1009L123.69 22.1008C123.533 22.0635 123.379 22.0271 123.232 21.9907C124.131 21.8019 125.007 21.5157 125.842 21.1373C126.648 20.7644 127.383 20.2576 128.014 19.6392C128.699 19.0164 129.157 18.1906 129.319 17.2878C129.753 16.4345 129.753 15.363 129.753 14.2947C129.717 13.214 129.571 12.1394 129.319 11.0868C128.885 10.0185 128.452 9.16199 127.362 8.30867C126.395 7.37607 125.194 6.71197 123.881 6.38388C122.11 5.92078 120.282 5.70481 118.45 5.74229H99.5293V41.03H119.755C123.451 41.03 126.06 40.1767 128.014 38.4636C129.968 36.7505 130.843 34.4023 130.843 31.4061C131.035 30.0343 130.885 28.6372 130.406 27.3351ZM108.888 11.5231H118.453C119.197 11.5424 119.932 11.6867 120.626 11.9497C121.198 12.1041 121.721 12.3989 122.146 12.8062C122.51 13.1805 122.805 13.6149 123.017 14.0894C123.235 14.5161 123.235 14.9427 123.235 15.5843V15.5843C123.243 16.6126 122.854 17.6055 122.146 18.3624C121.493 19.219 120.189 19.4339 118.453 19.4339H108.888V11.5231ZM123.242 33.5394C122.589 34.3959 121.285 34.6076 119.546 34.6076H108.888V26.6936H119.539C120.283 26.7129 121.018 26.8572 121.712 27.1202C122.285 27.2745 122.809 27.5692 123.235 27.9767C123.598 28.3521 123.891 28.7862 124.103 29.2599C124.322 29.6866 124.322 30.1133 124.322 30.7548C124.322 31.8231 124.103 32.8914 123.235 33.533L123.242 33.5394ZM235.181 23.4888L253.005 41.014H239.963L228.66 29.8983V41.014H219.532V5.74551H228.66V17.0761L239.963 5.96044H253.005L235.181 23.4888ZM68.459 5.7487V41.0139L93.6787 41.0364V33.9789H77.593V5.7487H68.459ZM148.882 34.1746L146.709 41.014H137.145L149.534 5.74878H161.705L174.102 41.0172H164.534L162.358 34.1778L160.185 27.563L155.618 12.8063L150.839 27.563L148.882 34.1746ZM188.865 41.0365V17.9391L202.354 41.014H213.658V5.74878H204.951V29.9048L191.475 5.74878H180.182V41.0365H188.865Z" fill="white"/>
</svg>
