<svg width="295" height="37" viewBox="0 0 295 37" fill="none" xmlns="http://www.w3.org/2000/svg">
	<path fill-rule="evenodd" clip-rule="evenodd" d="M25.4947 4.09922L29.2166 10.5618L32.6952 4.58567C35.3712 -0.231017 42.1341 -0.182361 44.9073 4.39107L57.5573 26.3339C60.3305 31.4424 56.5842 36.8429 51.5728 36.8429H51.179L51.1997 36.8431H50.2453C50.6382 36.8723 51.0481 36.8885 51.4763 36.8916H44.7134H33.4257H24.9115C24.6332 36.8916 24.3609 36.875 24.0951 36.8431H7.00644C1.41128 36.7943 -1.65389 30.9072 0.924742 26.3825L13.38 4.82902C16.1533 -0.376911 22.7215 -0.0363345 25.4947 4.09922ZM51.4758 36.8431H51.1997C51.2909 36.8438 51.3829 36.8438 51.4758 36.8431ZM292.146 35.1397C290.346 35.1397 288.934 34.7505 287.865 34.0693C286.744 33.3396 286.161 32.269 286.161 30.8095V9.59656H288.984C290.006 9.59656 290.881 10.4237 290.881 11.494V30.1769C290.881 30.2257 290.881 31.1014 291.611 31.8312C292.048 32.269 292.583 32.5123 293.313 32.5123H293.848C294.044 32.5123 294.238 32.707 294.238 32.9015V35.1883L292.146 35.1397ZM224.225 32.8039C226.026 34.3609 228.41 35.1393 231.329 35.1393C234.249 35.1393 236.633 34.3609 238.335 32.8039C239.26 32.0255 239.892 31.1497 240.281 30.1766C240.671 29.2037 240.865 27.7926 240.865 25.8952C240.865 24.0464 240.671 22.6353 240.281 21.6136C239.941 20.7379 239.309 19.862 238.384 19.0836C236.583 17.5267 234.199 16.7483 231.28 16.7483C228.36 16.7483 225.977 17.5267 224.178 19.0836C223.253 19.862 222.62 20.6893 222.28 21.6136C221.891 22.5867 221.695 24.0464 221.695 25.8952C221.695 27.7926 221.891 29.2037 222.28 30.1766C222.669 31.1497 223.302 32.0255 224.225 32.8039ZM226.512 25.9438C226.512 21.6136 228.117 19.4242 231.329 19.4242C234.492 19.4242 236.146 21.6136 236.146 25.9924C236.146 30.3227 234.539 32.512 231.329 32.512C228.117 32.512 226.512 30.3227 226.512 25.9438ZM251.472 35.1397C248.942 35.1397 246.607 34.4585 244.613 33.1449C244.417 32.9502 244.028 32.707 243.541 32.4151C243.445 32.3665 243.348 32.2204 243.348 32.0745V9.59656H246.218C247.24 9.59656 248.115 10.4723 248.115 11.494V18.0623L248.991 17.5757C250.013 17.0406 251.375 16.7973 253.126 16.7973C256.192 16.7973 258.526 17.7217 260.084 19.5218C261.446 21.1274 262.128 23.2682 262.128 25.8955C262.128 28.5229 261.349 30.6636 259.791 32.2204C257.991 34.1666 255.17 35.1397 251.472 35.1397ZM251.958 19.4246C250.889 19.4246 249.671 19.8138 248.309 20.641L248.115 20.7382V31.2961L248.309 31.442C249.38 32.1231 250.645 32.4637 251.958 32.4637C253.709 32.4637 255.073 31.7339 255.996 30.2744C256.775 29.1066 257.214 27.5984 257.214 25.8955C257.214 21.6139 255.413 19.4246 251.958 19.4246ZM264.657 25.8952C264.657 31.5877 268.014 35.0907 273.366 35.0907C275.408 35.0907 277.258 34.5068 278.425 33.4365L278.717 33.1932V34.7502H282.902V17.4781C282.902 17.2835 282.755 17.0889 282.512 17.0889H278.767V18.4998L278.474 18.3052C277.063 17.2835 275.311 16.7483 273.268 16.7483C267.964 16.7483 264.657 20.2514 264.657 25.8952ZM268.986 25.8952C268.986 22.4408 270.981 19.8621 274.339 19.8621C276.187 19.8621 277.695 20.3487 278.717 21.5163L278.767 21.5649V30.4199L278.717 30.4686C277.258 31.9283 275.408 32.0255 274.339 32.0255C270.981 32.0255 268.986 29.3496 268.986 25.8952ZM100.499 34.896V9.54753H121.566V11.1531C121.566 12.4181 120.544 13.4398 119.279 13.4398H105.754V20.2512H119.279V24.1436H105.754V30.955H119.279C120.544 30.955 121.566 31.9767 121.566 33.2418V34.8474L100.499 34.896ZM146.866 9.54753H151.829L141.806 22.2947L151.877 34.9446H146.915C145.99 34.9446 145.163 34.5068 144.579 33.8257L138.546 26.2844L132.562 33.777C131.978 34.5068 131.151 34.896 130.227 34.896H125.264L135.335 22.2461L125.264 9.59618H130.227C131.151 9.59618 131.978 9.98542 132.562 10.7152L138.546 18.2079L144.531 10.6666C145.114 9.93676 145.942 9.54753 146.866 9.54753ZM84.0065 32.2218L90.9153 20.1557V34.8492H96.17V9.50065H92.9101C91.8884 9.50065 90.9153 10.0358 90.4288 10.9602L82.1577 26.0428L73.8866 10.9602C73.4 10.0358 72.4269 9.50065 71.4052 9.50065H68.1455V34.8492H73.4V20.1557L80.3088 32.2218H84.0065ZM152.268 22.2464C152.316 29.5444 158.252 35.2856 165.55 35.1883C170.075 35.1883 173.578 33.6313 176.205 30.5662L174.551 29.1552C173.48 28.2795 171.972 28.2307 170.902 29.058C169.442 30.1283 167.642 30.7122 165.501 30.7122C160.441 30.7122 157.279 27.4523 157.279 22.1492C157.279 16.8945 160.344 13.7807 165.501 13.7807C167.593 13.7807 169.442 14.3159 170.902 15.4349C172.021 16.2621 173.529 16.2134 174.551 15.3376L176.205 13.9267C173.578 10.8129 169.929 9.20728 165.307 9.20728C161.366 9.20728 158.057 10.4236 155.771 12.6617C153.484 14.9484 152.268 18.2568 152.268 22.2464ZM197.905 35.1882C189.731 35.1882 184.671 30.2256 184.671 22.2463C184.671 14.2672 189.731 9.30451 197.808 9.30451C201.7 9.30451 204.959 10.4235 207.489 12.7103L206.274 14.0726C205.738 14.6564 204.959 14.997 204.18 14.997C203.743 14.997 203.305 14.8997 202.915 14.705C201.407 13.9266 199.656 13.5374 197.808 13.5374C192.552 13.5374 189.292 16.8945 189.292 22.2951C189.292 27.7441 192.698 31.1012 198.148 31.1012C200.775 31.1012 202.818 30.6148 204.327 29.5444L204.424 29.4958V24.2897H198.634V22.5868C198.634 21.322 199.656 20.3002 200.921 20.3002H208.072C208.268 20.3002 208.462 20.4948 208.462 20.6894V31.9285C205.981 34.0692 202.429 35.1882 197.905 35.1882ZM213.571 34.0693C214.64 34.7505 216.052 35.1397 217.852 35.1397L219.944 35.1883V32.9015C219.944 32.707 219.75 32.5123 219.554 32.5123H219.019C218.289 32.5123 217.756 32.269 217.317 31.8312C216.587 31.1014 216.587 30.2257 216.587 30.1769V11.4941C216.587 10.4237 215.712 9.59657 214.69 9.59657H211.867V30.8095C211.867 32.269 212.452 33.3396 213.571 34.0693Z" fill="white"/>
</svg>
