<svg width="587" height="175" viewBox="0 0 587 175" fill="none" xmlns="http://www.w3.org/2000/svg">
	<rect width="280.261" height="70.531" rx="35.2655" transform="matrix(0.986981 -0.160834 0.149508 0.98876 0 45.0757)" fill="#0285FD"/>
	<path d="M44.6463 96.9069L51.332 95.8575L60.8777 61.03L54.1446 62.0869L50.5508 76.6434L42.1957 63.9625L35.1307 65.0716L48.2412 83.905L44.6463 96.9069ZM75.9318 77.4206C75.1731 77.5397 74.3922 77.5165 73.6363 77.3437C72.8804 77.1708 72.1495 76.8483 71.5386 76.3611C70.9352 75.9214 70.3968 75.2772 69.9384 74.5232C69.4799 73.7692 69.1339 72.8033 68.9628 71.7127C68.7916 70.6221 68.8249 69.5966 69.0303 68.7384C69.2357 67.8802 69.5508 67.102 69.9905 66.4986C70.4228 65.8477 71.0196 65.3167 71.6862 64.9206C72.3528 64.5245 73.0891 64.2631 73.8478 64.144C74.6064 64.0249 75.3874 64.0481 76.1433 64.221C76.8992 64.3938 77.63 64.7164 78.2409 65.2035C78.8444 65.6432 79.3828 66.2874 79.8412 67.0414C80.2996 67.7954 80.6456 68.7614 80.8168 69.8519C80.988 70.9425 80.9546 71.968 80.7492 72.8262C80.5439 73.6844 80.2288 74.4626 79.7891 75.0661C79.3568 75.7169 78.76 76.2479 78.0934 76.644C77.4268 77.0402 76.6905 77.3015 75.9318 77.4206ZM72.9471 58.4067C71.1927 58.6821 69.6253 59.2196 68.2047 60.0742C66.8316 60.9213 65.6379 61.9832 64.7185 63.245C63.7991 64.5068 63.154 65.9684 62.7758 67.5825C62.3976 69.1966 62.3736 70.9008 62.6564 72.7026C62.9392 74.5044 63.4842 76.1193 64.3314 77.4925C65.186 78.913 66.2479 80.1067 67.5096 81.0261C68.7714 81.9455 70.233 82.5906 71.7997 82.9763C73.4212 83.4019 75.078 83.4334 76.8324 83.158C78.5868 82.8826 80.1543 82.345 81.5674 81.443C82.9406 80.5959 84.1342 79.534 85.0536 78.2722C85.973 77.0104 86.6181 75.5488 86.9963 73.9347C87.382 72.3681 87.406 70.6638 87.1231 68.862C86.8403 67.0602 86.2953 65.4453 85.4407 64.0247C84.5861 62.6042 83.5242 61.4105 82.2625 60.4911C81.0007 59.5717 79.5391 58.9266 77.9724 58.5409C76.3584 58.1627 74.7015 58.1313 72.9471 58.4067ZM107.816 77.5656L113.838 76.6204C113.724 76.2011 113.587 75.6395 113.42 74.8883C113.261 74.1845 113.08 73.3384 112.938 72.4375L109.939 53.3288L103.633 54.3187L105.761 67.8797C105.977 69.2548 105.769 70.4049 105.144 71.3775C104.52 72.3501 103.496 72.948 102.074 73.1713C100.604 73.4021 99.4387 73.0991 98.6334 72.3024C97.7808 71.5131 97.2777 70.4746 97.0692 69.147L94.9554 55.6808L88.6491 56.6707L90.9639 71.4171C91.1648 72.6974 91.5406 73.853 92.1385 74.8766C92.6965 75.955 93.4218 76.8615 94.3069 77.5485C95.1921 78.2354 96.2447 78.7504 97.4097 79.0534C98.5821 79.4038 99.8521 79.4473 101.275 79.2241C102.507 79.0305 103.703 78.5999 104.854 77.8848C105.965 77.2246 106.787 76.2697 107.232 75.0823C107.306 75.5565 107.381 76.0307 107.503 76.4974C107.625 76.9641 107.732 77.336 107.816 77.5656ZM130.176 56.5653L129.179 50.2115C128.934 50.2013 128.697 50.2385 128.453 50.2283C128.216 50.2655 127.931 50.3102 127.694 50.3474C127.172 50.4293 126.658 50.5585 126.057 50.7501C125.455 50.9417 124.869 51.2282 124.289 51.562C123.71 51.8958 123.153 52.3719 122.706 52.928C122.219 53.5389 121.842 54.2297 121.629 55.0405L121.085 51.5791L114.969 52.5392L118.631 75.868L124.937 74.8781L123.262 64.2094C123.061 62.9292 123.087 61.8563 123.285 60.9507C123.491 60.0925 123.813 59.3617 124.253 58.7582C124.693 58.1548 125.304 57.7187 125.978 57.3699C126.652 57.0212 127.444 56.7999 128.25 56.6733C128.866 56.5766 129.537 56.5198 130.176 56.5653ZM156.426 69.9352L161.821 45.1848L155.182 46.2268L152.091 62.745L143.85 48.0057L136.927 49.0924L150.12 70.9251L156.426 69.9352ZM177.219 61.5213C176.46 61.6404 175.679 61.6173 174.923 61.4444C174.168 61.2716 173.437 60.949 172.826 60.4619C172.222 60.0222 171.684 59.3779 171.226 58.624C170.767 57.87 170.421 56.904 170.25 55.8134C170.079 54.7229 170.112 53.6974 170.318 52.8392C170.523 51.981 170.838 51.2028 171.278 50.5993C171.71 49.9484 172.307 49.4175 172.973 49.0214C173.64 48.6252 174.376 48.3639 175.135 48.2448C175.894 48.1257 176.675 48.1489 177.431 48.3217C178.186 48.4946 178.917 48.8171 179.528 49.3042C180.132 49.7439 180.67 50.3882 181.128 51.1422C181.587 51.8961 181.933 52.8621 182.104 53.9527C182.275 55.0433 182.242 56.0688 182.036 56.927C181.831 57.7851 181.516 58.5634 181.076 59.1668C180.644 59.8177 180.047 60.3486 179.381 60.7448C178.714 61.1409 177.978 61.4023 177.219 61.5213ZM174.234 42.5074C172.48 42.7828 170.912 43.3204 169.492 44.175C168.119 45.0221 166.925 46.084 166.006 47.3458C165.086 48.6075 164.441 50.0692 164.063 51.6832C163.685 53.2973 163.661 55.0015 163.944 56.8034C164.226 58.6052 164.771 60.2201 165.619 61.5932C166.473 63.0138 167.535 64.2075 168.797 65.1269C170.059 66.0463 171.52 66.6913 173.087 67.077C174.708 67.5027 176.365 67.5341 178.12 67.2587C179.874 66.9833 181.442 66.4458 182.855 65.5438C184.228 64.6966 185.421 63.6347 186.341 62.373C187.26 61.1112 187.905 59.6496 188.284 58.0355C188.669 56.4688 188.693 54.7646 188.41 52.9628C188.128 51.161 187.583 49.546 186.728 48.1255C185.873 46.7049 184.811 45.5112 183.55 44.5918C182.288 43.6725 180.826 43.0274 179.26 42.6417C177.646 42.2635 175.989 42.232 174.234 42.5074ZM193.835 64.063L200.142 63.0731L196.48 39.7443L190.173 40.7342L193.835 64.063ZM188.216 33.2193C188.38 34.2624 188.901 35.1038 189.779 35.7434C190.656 36.3829 191.617 36.6209 192.707 36.4497C193.798 36.2785 194.687 35.7503 195.326 34.8725C195.918 34.0022 196.156 33.0418 195.993 31.9986C195.821 30.908 195.293 30.0193 194.463 29.3723C193.585 28.7327 192.577 28.5022 191.487 28.6734C190.396 28.8446 189.555 29.3653 188.915 30.2431C188.276 31.1208 188.045 32.1287 188.216 33.2193ZM213.099 42.3826C214.664 42.137 215.917 42.3777 216.849 43.0572C217.782 43.7367 218.445 44.5558 218.886 45.5069L224.23 42.7245C223.837 41.766 223.261 40.8846 222.544 40.0256C221.826 39.1666 220.933 38.4322 219.921 37.8624C218.908 37.2925 217.721 36.8473 216.413 36.5667C215.066 36.3409 213.606 36.3271 212.042 36.5727C210.335 36.8407 208.815 37.3708 207.442 38.2179C206.068 39.0651 204.922 40.1195 204.003 41.3813C203.083 42.6431 202.438 44.1047 202.06 45.7188C201.682 47.3329 201.61 49.0445 201.893 50.8463C202.176 52.6482 202.768 54.2556 203.616 55.6288C204.47 57.0493 205.58 58.2356 206.841 59.155C208.103 60.0743 209.565 60.7194 211.179 61.0977C212.753 61.5308 214.41 61.5622 216.117 61.2943C217.681 61.0486 219.019 60.5957 220.185 59.9754C221.343 59.3078 222.337 58.5202 223.119 57.6201C223.908 56.7674 224.533 55.7948 225.001 54.7498C225.428 53.7595 225.706 52.7442 225.787 51.7113L219.949 50.7329C219.874 51.1819 219.758 51.6859 219.548 52.2047C219.386 52.7161 219.073 53.2024 218.706 53.6487C218.339 54.095 217.815 54.4688 217.235 54.8026C216.656 55.1365 216.015 55.3829 215.209 55.5095C214.403 55.636 213.574 55.6203 212.818 55.4474C212.062 55.2746 211.379 54.9446 210.721 54.4649C210.11 53.9778 209.571 53.3335 209.113 52.5796C208.654 51.8256 208.363 50.8996 208.2 49.8564C208.036 48.8133 208.029 47.8426 208.235 46.9844C208.44 46.1263 208.755 45.348 209.187 44.6972C209.627 44.0937 210.176 43.5702 210.843 43.1741C211.51 42.7779 212.293 42.5091 213.099 42.3826ZM243.187 41.6437L232.755 43.2811C232.721 42.7521 232.774 42.1608 232.929 41.602C233.084 41.0432 233.334 40.4695 233.694 39.9758C234.054 39.4821 234.563 39.0134 235.135 38.6322C235.707 38.2509 236.443 37.9896 237.249 37.863C238.15 37.7216 238.931 37.7448 239.592 37.9325C240.293 38.0654 240.874 38.3629 241.368 38.7226C241.862 39.0824 242.268 39.5044 242.547 40.0437C242.866 40.528 243.05 41.0821 243.187 41.6437ZM250.265 48.3548L244.756 47.6162C244.54 48.7189 244.058 49.6692 243.309 50.467C242.607 51.2573 241.473 51.7753 240.003 52.006C239.197 52.1326 238.464 52.102 237.715 51.9765C236.959 51.8037 236.284 51.5211 235.687 51.1288C235.091 50.7365 234.575 50.2345 234.147 49.6702C233.711 49.0585 233.457 48.3696 233.29 47.6184L249.981 44.9984C249.973 44.951 249.936 44.7139 249.924 44.3271C249.904 43.893 249.837 43.4662 249.77 43.0395C249.182 39.2936 247.718 36.4627 245.344 34.649C242.97 32.8353 240.001 32.1839 236.35 32.757C234.88 32.9877 233.455 33.5029 232.177 34.3352C230.891 35.12 229.785 36.1196 228.865 37.3814C227.986 38.5883 227.333 40.0025 226.955 41.6166C226.577 43.2307 226.513 44.9898 226.803 46.839C227.108 48.7831 227.716 50.4854 228.625 51.9459C229.487 53.4139 230.589 54.5527 231.851 55.4721C233.113 56.3915 234.519 56.9966 236.079 57.3348C237.63 57.6257 239.192 57.672 240.805 57.4189C242.227 57.1957 243.525 56.7976 244.651 56.2322C245.769 55.6194 246.683 54.9415 247.48 54.1362C248.276 53.331 248.916 52.4532 249.391 51.4556C249.866 50.4579 250.136 49.3952 250.265 48.3548Z" fill="white"/>
	<rect width="305.017" height="70.5921" rx="35.296" transform="matrix(0.999957 0.00925435 -0.00858721 0.999963 281.606 22.8389)" fill="#FFFB1F"/>
	<path d="M317.406 81.5654L324.173 81.6257L339.298 48.8313L332.483 48.7705L326.552 62.5422L320.387 48.6627L313.235 48.5989L323.083 69.3275L317.406 81.5654ZM351.464 67.4684C350.696 67.4616 349.929 67.3108 349.212 67.0163C348.494 66.7219 347.826 66.284 347.303 65.7033C346.78 65.1706 346.354 64.4468 346.026 63.6278C345.697 62.8089 345.514 61.7992 345.524 60.6952C345.534 59.5913 345.735 58.585 346.078 57.772C346.421 56.9591 346.86 56.243 347.392 55.7197C347.925 55.1484 348.601 54.7224 349.324 54.4409C350.046 54.1593 350.816 54.0221 351.584 54.029C352.352 54.0358 353.118 54.1867 353.836 54.4811C354.553 54.7755 355.221 55.2135 355.744 55.7941C356.267 56.3268 356.693 57.0506 357.022 57.8696C357.35 58.6886 357.533 59.6982 357.523 60.8022C357.514 61.9062 357.313 62.9124 356.969 63.7254C356.626 64.5383 356.188 65.2545 355.655 65.7777C355.122 66.349 354.446 66.775 353.723 67.0566C353.001 67.3381 352.232 67.4753 351.464 67.4684ZM351.635 48.2212C349.859 48.2054 348.225 48.4788 346.683 49.0891C345.19 49.6998 343.838 50.5518 342.724 51.6459C341.611 52.74 340.735 54.0763 340.097 55.6066C339.459 57.137 339.156 58.8144 339.14 60.6383C339.124 62.4622 339.397 64.1447 340.008 65.6382C340.618 67.1797 341.47 68.5314 342.564 69.6452C343.658 70.759 344.994 71.6349 346.477 72.2722C348.007 72.9578 349.636 73.2604 351.412 73.2762C353.188 73.292 354.822 73.0186 356.364 72.3603C357.858 71.7496 359.209 70.8976 360.323 69.8035C361.437 68.7094 362.313 67.3732 362.951 65.8428C363.588 64.3604 363.891 62.683 363.907 60.8591C363.923 59.0352 363.65 57.3527 363.04 55.8112C362.43 54.2697 361.578 52.918 360.484 51.8042C359.39 50.6904 358.053 49.8145 356.571 49.1772C355.041 48.5396 353.411 48.237 351.635 48.2212ZM382.895 72.8369L388.991 72.8912C388.947 72.4588 388.904 71.8824 388.863 71.114C388.821 70.3936 388.781 69.5292 388.789 68.6172L388.962 49.274L382.578 49.2171L382.456 62.9445C382.443 64.3365 382.049 65.437 381.274 66.2941C380.498 67.1513 379.39 67.5734 377.95 67.5606C376.462 67.5473 375.363 67.0575 374.699 66.1395C373.987 65.2211 373.661 64.1142 373.673 62.7702L373.794 49.1388L367.411 49.0819L367.277 64.0093C367.266 65.3052 367.447 66.5069 367.869 67.6147C368.243 68.7701 368.81 69.7832 369.571 70.606C370.331 71.4288 371.285 72.1093 372.385 72.5991C373.484 73.137 374.73 73.3881 376.17 73.4009C377.418 73.412 378.668 73.1832 379.921 72.6663C381.125 72.197 382.092 71.3896 382.726 70.2912C382.722 70.7712 382.717 71.2512 382.761 71.7316C382.805 72.212 382.85 72.5964 382.895 72.8369ZM408.396 55.7835L408.453 49.3518C408.214 49.3016 407.974 49.2995 407.734 49.2494C407.494 49.2472 407.206 49.2446 406.966 49.2425C406.438 49.2378 405.91 49.2811 405.285 49.3715C404.66 49.462 404.035 49.6484 403.409 49.8828C402.782 50.1172 402.155 50.4957 401.623 50.9709C401.042 51.4938 400.557 52.1135 400.214 52.8785L400.245 49.3746L394.053 49.3194L393.843 72.9344L400.226 72.9914L400.323 62.1918C400.334 60.8958 400.536 59.8416 400.879 58.9806C401.223 58.1677 401.661 57.4995 402.193 56.9763C402.726 56.453 403.401 56.123 404.123 55.8894C404.845 55.6558 405.662 55.5671 406.478 55.5744C407.102 55.58 407.773 55.634 408.396 55.7835ZM431.132 54.8342C432.716 54.8483 433.912 55.291 434.721 56.1142C435.529 56.9374 436.049 57.8541 436.328 58.8646L442.057 56.9956C441.826 55.9855 441.403 55.0217 440.835 54.0566C440.268 53.0915 439.508 52.2207 438.602 51.4926C437.697 50.7645 436.598 50.1307 435.354 49.6396C434.062 49.1961 432.625 48.9432 431.041 48.9291C429.313 48.9137 427.726 49.1876 426.233 49.7983C424.739 50.409 423.436 51.2614 422.322 52.3555C421.208 53.4496 420.332 54.7859 419.694 56.3162C419.057 57.8466 418.706 59.5236 418.689 61.3475C418.673 63.1714 418.994 64.8543 419.605 66.3478C420.215 67.8893 421.115 69.2414 422.209 70.3552C423.303 71.469 424.64 72.345 426.17 72.9826C427.652 73.6679 429.281 73.9704 431.009 73.9858C432.593 73.9999 433.987 73.7724 435.239 73.3515C436.491 72.8826 437.601 72.2685 438.52 71.5087C439.438 70.7968 440.214 69.9397 440.846 68.9853C441.43 68.0785 441.871 67.1224 442.12 66.1165L436.521 64.1946C436.373 64.6253 436.177 65.1035 435.884 65.5809C435.64 66.0588 435.252 66.4873 434.817 66.8675C434.381 67.2476 433.803 67.5305 433.177 67.7649C432.551 67.9993 431.877 68.1373 431.061 68.13C430.246 68.1228 429.431 67.9715 428.713 67.6771C427.996 67.3827 427.376 66.9451 426.805 66.364C426.282 65.7833 425.857 65.0595 425.528 64.2406C425.199 63.4216 425.064 62.4604 425.073 61.4044C425.083 60.3484 425.235 59.3898 425.578 58.5768C425.922 57.7638 426.36 57.0477 426.893 56.4764C427.426 55.9532 428.054 55.5267 428.776 55.2452C429.499 54.9636 430.316 54.8269 431.132 54.8342ZM451.639 73.4497L451.762 59.5782C451.822 58.2827 452.264 57.1826 453.039 56.3255C453.816 55.4204 454.875 54.9978 456.219 55.0098C457.755 55.0235 458.855 55.4653 459.567 56.3837C460.231 57.3017 460.557 58.4086 460.545 59.7526L460.422 73.528L466.806 73.5849L466.939 58.7055C466.95 57.4096 466.769 56.2079 466.443 55.0529C466.118 53.898 465.599 52.8853 464.886 52.0629C464.173 51.2406 463.267 50.5605 462.168 50.0706C461.068 49.5328 459.727 49.2808 458.239 49.2676C457.135 49.2577 455.981 49.4395 454.777 49.8607C453.574 50.234 452.608 50.8974 451.832 51.8026L451.949 38.6991L445.565 38.6422L445.255 73.3928L451.639 73.4497ZM482.647 68.6379C481.879 68.6311 481.112 68.4802 480.395 68.1858C479.677 67.8914 479.009 67.4534 478.486 66.8728C477.963 66.3401 477.537 65.6163 477.209 64.7973C476.88 63.9783 476.697 62.9687 476.707 61.8647C476.717 60.7607 476.918 59.7545 477.261 58.9415C477.604 58.1286 478.042 57.4124 478.575 56.8892C479.108 56.3179 479.784 55.8919 480.507 55.6103C481.229 55.3288 481.998 55.1916 482.766 55.1985C483.534 55.2053 484.301 55.3561 485.018 55.6506C485.736 55.945 486.404 56.3829 486.927 56.9636C487.45 57.4963 487.876 58.2201 488.204 59.0391C488.533 59.8581 488.716 60.8677 488.706 61.9717C488.696 63.0756 488.495 64.0819 488.152 64.8949C487.809 65.7078 487.371 66.4239 486.838 66.9472C486.305 67.5185 485.629 67.9445 484.906 68.2261C484.184 68.5076 483.415 68.6448 482.647 68.6379ZM482.818 49.3907C481.042 49.3749 479.408 49.6483 477.866 50.2586C476.373 50.8693 475.021 51.7213 473.907 52.8154C472.794 53.9095 471.918 55.2458 471.28 56.7761C470.642 58.3065 470.339 59.9839 470.323 61.8078C470.307 63.6317 470.58 65.3142 471.19 66.8077C471.801 68.3492 472.653 69.7009 473.747 70.8147C474.841 71.9285 476.177 72.8044 477.66 73.4417C479.19 74.1273 480.819 74.4299 482.595 74.4457C484.371 74.4615 486.005 74.1881 487.547 73.5298C489.041 72.9191 490.392 72.0671 491.506 70.973C492.62 69.8789 493.496 68.5426 494.134 67.0123C494.771 65.5299 495.074 63.8525 495.09 62.0286C495.106 60.2047 494.833 58.5222 494.223 56.9807C493.613 55.4392 492.761 54.0875 491.667 52.9737C490.572 51.8599 489.236 50.984 487.754 50.3467C486.223 49.7091 484.594 49.4065 482.818 49.3907ZM498.623 73.8686L505.007 73.9255L505.217 50.3104L498.833 50.2535L498.623 73.8686ZM498.134 42.519C498.125 43.5749 498.501 44.4903 499.262 45.2651C500.023 46.0399 500.932 46.432 502.035 46.4419C503.139 46.4517 504.103 46.0763 504.878 45.3152C505.604 44.5536 505.997 43.6451 506.006 42.5891C506.016 41.4852 505.64 40.5218 504.927 39.7474C504.166 38.9726 503.21 38.58 502.106 38.5702C501.002 38.5604 500.086 38.9362 499.312 39.6973C498.537 40.4585 498.144 41.415 498.134 42.519ZM514.03 66.2296L508.548 67.3808C508.59 68.0532 508.823 68.8233 509.2 69.6427C509.528 70.5096 510.097 71.3307 510.858 72.0576C511.62 72.7844 512.622 73.4173 513.817 73.956C515.013 74.4947 516.546 74.7484 518.322 74.7642C519.858 74.7779 521.204 74.5499 522.36 74.1282C523.516 73.7065 524.481 73.091 525.256 72.3779C526.03 71.6648 526.614 70.806 526.958 69.897C527.35 68.9884 527.551 68.0302 527.559 67.0702C527.575 65.3423 527.012 63.8012 525.824 62.4946C524.684 61.1884 522.964 60.261 520.616 59.7601L517.263 59.0101C516.64 58.8606 516.114 58.6159 515.733 58.2765C515.304 57.9366 515.116 57.4549 515.122 56.879C515.128 56.207 515.421 55.6336 516.049 55.2072C516.628 54.7803 517.35 54.5467 518.166 54.554C518.838 54.56 519.414 54.6611 519.844 54.857C520.322 55.0532 520.704 55.2967 521.037 55.6356C521.37 55.9746 521.607 56.3128 521.747 56.698C521.888 57.0353 521.981 57.4201 522.026 57.7565L527.365 56.6041C527.322 55.9797 527.089 55.2576 526.759 54.4866C526.431 53.6676 525.909 52.943 525.196 52.2166C524.482 51.4902 523.527 50.9057 522.379 50.4634C521.231 49.9732 519.842 49.7208 518.162 49.7058C516.866 49.6942 515.712 49.8759 514.652 50.2985C513.544 50.7207 512.628 51.2405 511.853 51.9536C511.031 52.6183 510.4 53.4287 509.96 54.3848C509.519 55.293 509.271 56.2988 509.261 57.3547C509.246 59.0347 509.761 60.4793 510.806 61.7847C511.851 63.042 513.523 63.921 515.822 64.4695L518.935 65.2173C519.846 65.4174 520.515 65.7114 520.895 66.1468C521.276 66.5342 521.463 67.0159 521.459 67.5439C521.453 68.1678 521.208 68.7417 520.676 69.217C520.144 69.6442 519.374 69.8774 518.318 69.868C516.926 69.8556 515.873 69.4622 515.16 68.7358C514.446 68.0094 514.07 67.142 514.03 66.2296ZM546.907 59.8024L536.347 59.7083C536.4 59.1807 536.549 58.606 536.793 58.0802C537.038 57.5544 537.379 57.0294 537.815 56.6012C538.251 56.1731 538.83 55.7943 539.456 55.5118C540.083 55.2294 540.852 55.0923 541.668 55.0995C542.58 55.1077 543.347 55.2585 543.968 55.5521C544.638 55.798 545.163 56.1867 545.591 56.6226C546.019 57.0584 546.351 57.5414 546.538 58.1191C546.773 58.6492 546.864 59.226 546.907 59.8024ZM552.789 67.5832L547.476 65.9517C547.082 67.0043 546.451 67.8627 545.581 68.5269C544.759 69.1916 543.556 69.5169 542.068 69.5037C541.252 69.4964 540.533 69.346 539.815 69.0996C539.098 68.8052 538.477 68.4156 537.954 67.9309C537.43 67.4462 537.003 66.8664 536.673 66.2394C536.343 65.5645 536.205 64.8432 536.164 64.0748L553.059 64.2254C553.06 64.1774 553.062 63.9375 553.113 63.5539C553.165 63.1223 553.169 62.6904 553.173 62.2584C553.207 58.4665 552.226 55.4337 550.181 53.2554C548.136 51.077 545.314 49.9478 541.618 49.9149C540.131 49.9016 538.64 50.1764 537.243 50.7879C535.845 51.3515 534.59 52.1563 533.476 53.2504C532.411 54.297 531.536 55.5852 530.898 57.1156C530.26 58.646 529.909 60.3709 529.892 62.2428C529.875 64.2108 530.195 65.9897 530.853 67.5796C531.462 69.1691 532.363 70.4732 533.457 71.587C534.551 72.7008 535.84 73.5283 537.323 74.1176C538.806 74.6588 540.339 74.9605 541.971 74.975C543.411 74.9879 544.757 74.8079 545.96 74.4346C547.164 74.0133 548.177 73.4943 549.094 72.8304C550.012 72.1666 550.787 71.4055 551.419 70.4991C552.051 69.5927 552.492 68.5886 552.789 67.5832Z" fill="#191B20"/>
	<rect width="349.169" height="70.5605" rx="35.2802" transform="matrix(0.993255 0.11595 -0.107692 0.994184 112.178 64.3635)" fill="#5CEE9C"/>
	<path d="M142.026 127.753L148.752 128.509L167.17 97.4457L160.397 96.6841L153.081 109.772L148.377 95.3324L141.27 94.5332L148.932 116.164L142.026 127.753ZM177.353 117.235C176.59 117.149 175.843 116.92 175.159 116.554C174.476 116.187 173.857 115.683 173.396 115.051C172.931 114.468 172.582 113.704 172.339 112.855C172.096 112.007 172.018 110.984 172.142 109.887C172.265 108.79 172.568 107.81 172.993 107.036C173.418 106.263 173.928 105.596 174.512 105.13C175.101 104.617 175.817 104.263 176.565 104.057C177.312 103.851 178.091 103.794 178.855 103.88C179.618 103.965 180.365 104.194 181.048 104.561C181.731 104.928 182.351 105.432 182.811 106.063C183.277 106.647 183.626 107.411 183.868 108.259C184.111 109.108 184.189 110.131 184.066 111.228C183.943 112.325 183.639 113.305 183.214 114.078C182.789 114.852 182.279 115.519 181.696 115.984C181.107 116.498 180.391 116.852 179.643 117.058C178.895 117.263 178.116 117.321 177.353 117.235ZM179.504 98.1082C177.739 97.9097 176.085 98.0135 174.489 98.462C172.941 98.9158 171.508 99.6241 170.288 100.598C169.068 101.572 168.059 102.81 167.267 104.267C166.475 105.724 166.002 107.361 165.798 109.173C165.594 110.986 165.692 112.688 166.146 114.236C166.595 115.832 167.303 117.264 168.277 118.484C169.25 119.705 170.489 120.714 171.898 121.5C173.349 122.339 174.939 122.808 176.704 123.006C178.469 123.205 180.123 123.101 181.724 122.605C183.272 122.151 184.704 121.443 185.925 120.469C187.145 119.495 188.154 118.256 188.946 116.8C189.732 115.391 190.206 113.754 190.41 111.941C190.614 110.129 190.515 108.427 190.067 106.831C189.618 105.235 188.91 103.803 187.936 102.582C186.962 101.362 185.724 100.353 184.315 99.5669C182.858 98.7752 181.268 98.3066 179.504 98.1082ZM208.064 125.808L214.122 126.49C214.122 126.055 214.139 125.477 214.177 124.709C214.21 123.988 214.259 123.124 214.361 122.218L216.522 102.995L210.179 102.282L208.645 115.924C208.489 117.307 207.984 118.361 207.124 119.134C206.265 119.907 205.119 120.212 203.688 120.052C202.21 119.885 201.166 119.285 200.6 118.304C199.987 117.317 199.776 116.182 199.927 114.847L201.45 101.301L195.106 100.587L193.438 115.421C193.293 116.709 193.35 117.923 193.656 119.068C193.909 120.256 194.368 121.322 195.04 122.219C195.712 123.115 196.591 123.89 197.635 124.491C198.673 125.139 199.886 125.517 201.317 125.678C202.557 125.817 203.824 125.718 205.123 125.333C206.369 124.99 207.414 124.286 208.158 123.259C208.104 123.736 208.05 124.213 208.045 124.695C208.039 125.178 208.043 125.565 208.064 125.808ZM235.183 111.47L235.902 105.078C235.669 105.004 235.43 104.977 235.197 104.902C234.959 104.875 234.673 104.843 234.434 104.816C233.909 104.757 233.379 104.746 232.749 104.772C232.118 104.797 231.476 104.919 230.829 105.087C230.183 105.256 229.52 105.568 228.941 105.986C228.31 106.446 227.763 107.013 227.343 107.738L227.735 104.256L221.582 103.564L218.943 127.032L225.287 127.745L226.494 117.013C226.638 115.725 226.947 114.697 227.378 113.876C227.803 113.103 228.307 112.484 228.891 112.018C229.475 111.552 230.18 111.293 230.922 111.135C231.664 110.977 232.486 110.973 233.297 111.064C233.917 111.134 234.579 111.257 235.183 111.47ZM260.035 101.996C260.56 102.055 260.989 102.103 261.318 102.188C261.646 102.274 261.874 102.396 262.012 102.46L262.612 97.1174C262.39 96.9475 261.972 96.8039 261.41 96.6441C260.801 96.479 260.186 96.3616 259.518 96.2865C258.23 96.1416 257.016 96.1983 255.919 96.5096C254.821 96.8209 253.85 97.2914 253.049 97.9741C252.2 98.6514 251.526 99.4933 251.026 100.5C250.474 101.549 250.149 102.72 249.999 104.055L249.698 106.726L245.787 106.286L245.176 111.724L249.087 112.164L247.059 130.193L253.451 130.912L255.478 112.882L260.773 113.478L261.384 108.04L256.09 107.445L256.379 104.869C256.455 104.201 256.609 103.687 256.896 103.285C257.135 102.877 257.411 102.57 257.771 102.369C258.132 102.168 258.482 102.063 258.922 102.016C259.314 101.963 259.701 101.958 260.035 101.996ZM277.703 116.251L278.422 109.86C278.189 109.785 277.95 109.758 277.717 109.684C277.479 109.657 277.192 109.625 276.954 109.598C276.429 109.539 275.899 109.528 275.268 109.553C274.638 109.579 273.996 109.7 273.349 109.869C272.702 110.037 272.039 110.349 271.461 110.767C270.83 111.228 270.283 111.794 269.863 112.52L270.255 109.038L264.102 108.346L261.463 131.813L267.807 132.526L269.014 121.794C269.158 120.507 269.467 119.479 269.898 118.658C270.323 117.884 270.827 117.265 271.411 116.799C271.994 116.334 272.7 116.075 273.442 115.917C274.184 115.759 275.006 115.755 275.817 115.846C276.437 115.915 277.099 116.038 277.703 116.251ZM295.319 121.033L284.825 119.853C284.932 119.334 285.139 118.778 285.437 118.28C285.734 117.782 286.127 117.295 286.605 116.914C287.082 116.533 287.697 116.216 288.35 115.999C289.002 115.783 289.781 115.725 290.592 115.817C291.498 115.919 292.245 116.147 292.833 116.503C293.474 116.817 293.956 117.258 294.337 117.735C294.718 118.213 294.998 118.727 295.125 119.321C295.304 119.873 295.335 120.456 295.319 121.033ZM300.37 129.378L295.252 127.208C294.753 128.215 294.036 129.004 293.102 129.575C292.216 130.151 290.986 130.351 289.508 130.185C288.697 130.094 287.997 129.87 287.309 129.551C286.626 129.185 286.048 128.733 285.577 128.197C285.106 127.661 284.741 127.041 284.477 126.383C284.218 125.678 284.156 124.946 284.194 124.178L300.983 126.066C300.989 126.018 301.016 125.78 301.106 125.403C301.202 124.979 301.251 124.55 301.299 124.121C301.723 120.353 301.059 117.235 299.249 114.858C297.44 112.481 294.749 111.068 291.076 110.655C289.597 110.488 288.087 110.608 286.634 111.073C285.186 111.49 283.855 112.161 282.634 113.135C281.467 114.066 280.464 115.257 279.672 116.714C278.88 118.171 278.353 119.85 278.144 121.71C277.924 123.666 278.059 125.468 278.55 127.117C278.993 128.761 279.755 130.151 280.728 131.371C281.702 132.592 282.899 133.547 284.313 134.286C285.733 134.977 287.227 135.435 288.849 135.617C290.279 135.778 291.636 135.737 292.872 135.49C294.113 135.195 295.173 134.783 296.155 134.217C297.136 133.651 297.985 132.974 298.707 132.137C299.429 131.301 299.971 130.347 300.37 129.378ZM320.671 123.884L310.178 122.704C310.284 122.185 310.492 121.629 310.789 121.131C311.087 120.633 311.48 120.146 311.957 119.765C312.435 119.384 313.05 119.067 313.702 118.85C314.354 118.634 315.134 118.576 315.945 118.668C316.851 118.769 317.598 118.998 318.186 119.354C318.827 119.668 319.308 120.108 319.689 120.586C320.07 121.064 320.351 121.578 320.477 122.172C320.657 122.723 320.688 123.307 320.671 123.884ZM325.722 132.229L320.605 130.059C320.105 131.066 319.388 131.855 318.455 132.426C317.569 133.002 316.339 133.202 314.86 133.036C314.049 132.945 313.35 132.721 312.661 132.402C311.978 132.036 311.401 131.584 310.93 131.048C310.459 130.512 310.094 129.892 309.83 129.234C309.571 128.529 309.508 127.797 309.546 127.029L326.336 128.917C326.341 128.869 326.368 128.63 326.459 128.254C326.555 127.83 326.603 127.401 326.651 126.972C327.075 123.204 326.411 120.086 324.602 117.709C322.792 115.332 320.101 113.918 316.428 113.505C314.95 113.339 313.439 113.459 311.986 113.924C310.538 114.34 309.207 115.012 307.987 115.986C306.819 116.917 305.816 118.108 305.024 119.565C304.233 121.021 303.706 122.701 303.496 124.561C303.276 126.517 303.412 128.319 303.903 129.968C304.346 131.612 305.107 133.002 306.081 134.222C307.055 135.443 308.251 136.398 309.665 137.137C311.085 137.828 312.579 138.286 314.201 138.468C315.632 138.629 316.989 138.588 318.224 138.341C319.465 138.046 320.526 137.634 321.507 137.068C322.488 136.502 323.337 135.825 324.059 134.988C324.781 134.152 325.323 133.198 325.722 132.229ZM352.131 137.71L355.537 107.422L349.289 106.719L347.781 120.122C347.676 119.772 347.475 119.412 347.179 119.04C346.882 118.669 346.437 118.329 345.945 117.984C345.452 117.639 344.811 117.325 344.117 117.054C343.376 116.777 342.48 116.58 341.479 116.467C339.809 116.28 338.293 116.447 336.84 116.912C335.387 117.376 334.098 118.101 332.973 119.085C331.848 120.07 330.935 121.319 330.196 122.734C329.505 124.153 329.037 125.743 328.843 127.46C328.645 129.225 328.743 130.926 329.15 132.469C329.55 134.06 330.169 135.434 331.047 136.643C331.925 137.853 333.069 138.851 334.382 139.627C335.69 140.45 337.232 140.913 338.902 141.101C340.476 141.278 341.897 141.099 343.063 140.603C344.278 140.111 345.228 139.397 345.854 138.55C345.795 139.075 345.736 139.599 345.725 140.129C345.713 140.659 345.766 141.052 345.787 141.295L351.844 141.977C351.85 141.494 351.872 140.869 351.911 140.1C351.954 139.284 352.04 138.521 352.131 137.71ZM335.235 128.179C335.471 126.08 336.226 124.522 337.451 123.501C338.725 122.485 340.173 122.068 341.794 122.251C343.416 122.433 344.735 123.161 345.703 124.429C346.677 125.649 347.067 127.336 346.831 129.434C346.589 131.581 345.835 133.138 344.604 134.207C343.372 135.276 341.925 135.693 340.303 135.511C338.634 135.323 337.267 134.59 336.304 133.274C335.341 131.958 334.999 130.277 335.235 128.179ZM368.168 138.692C367.405 138.606 366.658 138.378 365.974 138.011C365.291 137.644 364.671 137.14 364.211 136.509C363.746 135.925 363.397 135.161 363.154 134.313C362.911 133.464 362.833 132.441 362.956 131.344C363.08 130.247 363.383 129.267 363.808 128.494C364.233 127.72 364.743 127.053 365.327 126.587C365.916 126.074 366.632 125.72 367.38 125.514C368.127 125.308 368.906 125.251 369.67 125.337C370.433 125.423 371.18 125.652 371.863 126.018C372.546 126.385 373.166 126.889 373.626 127.521C374.092 128.104 374.441 128.868 374.683 129.717C374.926 130.565 375.004 131.588 374.881 132.685C374.758 133.782 374.454 134.762 374.029 135.536C373.604 136.309 373.094 136.976 372.511 137.442C371.922 137.955 371.205 138.309 370.458 138.515C369.71 138.721 368.931 138.778 368.168 138.692ZM370.319 119.566C368.554 119.367 366.9 119.471 365.304 119.919C363.755 120.373 362.323 121.081 361.103 122.055C359.883 123.029 358.874 124.268 358.082 125.724C357.29 127.181 356.817 128.818 356.613 130.631C356.409 132.443 356.507 134.145 356.961 135.693C357.41 137.289 358.118 138.721 359.092 139.942C360.065 141.162 361.304 142.171 362.713 142.957C364.164 143.797 365.754 144.265 367.519 144.464C369.284 144.662 370.938 144.558 372.539 144.062C374.087 143.608 375.519 142.9 376.74 141.926C377.96 140.953 378.969 139.714 379.761 138.257C380.547 136.848 381.021 135.211 381.225 133.398C381.429 131.586 381.33 129.884 380.882 128.288C380.433 126.692 379.725 125.26 378.751 124.04C377.777 122.819 376.538 121.811 375.13 121.024C373.673 120.233 372.083 119.764 370.319 119.566ZM383.521 145.539L389.864 146.252L391.409 132.515C391.554 131.227 392.059 130.173 392.924 129.353C393.789 128.532 394.934 128.226 396.318 128.382C397.748 128.543 398.75 129.09 399.326 129.976C399.897 130.91 400.113 131.997 399.968 133.284L398.402 147.212L404.698 147.92L406.243 134.183C406.388 132.895 406.887 131.889 407.753 131.068C408.618 130.248 409.721 129.889 411.104 130.045C412.582 130.211 413.584 130.758 414.155 131.692C414.684 132.572 414.9 133.659 414.755 134.947L413.189 148.875L419.342 149.567L421.053 134.351C421.23 132.777 421.141 131.415 420.788 130.264C420.439 129.066 419.927 128.042 419.196 127.235C418.466 126.429 417.619 125.802 416.654 125.356C415.69 124.909 414.662 124.6 413.565 124.477C411.991 124.3 410.576 124.431 409.266 124.911C407.962 125.344 406.752 126.222 405.685 127.551C405.209 126.194 404.41 125.138 403.293 124.336C402.176 123.534 400.782 123.039 399.161 122.857C398.541 122.787 397.862 122.808 397.178 122.876C396.447 122.938 395.8 123.107 395.148 123.324C394.495 123.54 393.88 123.857 393.307 124.228C392.734 124.598 392.294 125.08 391.895 125.614L392.217 122.753L386.159 122.071L383.521 145.539Z" fill="#191B20"/>
</svg>
