<svg width="22" height="22" viewBox="0 0 22 22" fill="none" xmlns="http://www.w3.org/2000/svg">
	<circle cx="11" cy="11" r="11" fill="#FF8724"/>
	<path fill-rule="evenodd" clip-rule="evenodd" d="M14.6444 9.9222C14.8097 8.76637 13.9684 8.14502 12.818 7.73051L13.1912 6.16478L12.28 5.92726L11.9167 7.45173C11.6772 7.3893 11.4312 7.33039 11.1868 7.27203L11.5527 5.73752L10.6421 5.5L10.2686 7.06519C10.0704 7.01795 9.87575 6.97126 9.68683 6.92213L9.68787 6.91724L8.43135 6.58906L8.18897 7.607C8.18897 7.607 8.86498 7.76906 8.85071 7.7791C9.21972 7.87547 9.28641 8.1309 9.27526 8.3334L8.85019 10.1171C8.87562 10.1239 8.90858 10.1337 8.94491 10.1489L8.91403 10.1408C8.8929 10.1353 8.871 10.1295 8.84863 10.1239L8.25281 12.6226C8.20766 12.7399 8.09322 12.9158 7.83527 12.849C7.84435 12.8628 7.17302 12.6761 7.17302 12.6761L6.7207 13.767L7.90637 14.0762C8.03872 14.1109 8.16947 14.1466 8.29886 14.1819L8.29902 14.1819C8.38523 14.2054 8.47084 14.2288 8.55591 14.2516L8.17885 15.8352L9.08893 16.0727L9.46236 14.5059C9.71096 14.5765 9.9523 14.6416 10.1884 14.703L9.81632 16.2625L10.7274 16.5L11.1045 14.9193C12.6581 15.2269 13.8264 15.1028 14.3182 13.6329C14.7145 12.4494 14.2985 11.7667 13.481 11.3215C14.0763 11.1779 14.5248 10.7683 14.6444 9.9222ZM12.799 12.7358C12.5205 13.835 10.7685 13.3806 9.96691 13.1727C9.89479 13.154 9.83036 13.1372 9.77539 13.1238L10.3149 11C10.3818 11.0164 10.4636 11.0344 10.5562 11.0548C11.3853 11.2375 13.0844 11.612 12.799 12.7358ZM10.5418 10.7546C11.1769 10.9503 12.5621 11.3773 12.8034 10.2609C13.0498 9.11894 11.7034 8.77471 11.0459 8.6066C10.972 8.58769 10.9067 8.571 10.8534 8.55566L10.3887 10.7083C10.4326 10.7209 10.4841 10.7368 10.5418 10.7546Z" fill="white"/>
</svg>
