<svg width="22" height="22" viewBox="0 0 22 22" fill="none" xmlns="http://www.w3.org/2000/svg">
	<circle cx="11" cy="11" r="11" fill="#005FBB"/>
	<path d="M8.9375 18.6485C8.9375 18.9063 8.73125 19.0524 8.49062 18.975C5.15625 17.9094 2.75 14.7985 2.75 11.1118C2.75 7.43364 5.15625 4.31411 8.49062 3.24848C8.73984 3.17114 8.9375 3.31723 8.9375 3.57505V4.21958C8.9375 4.39145 8.80859 4.58911 8.64531 4.64926C6.00703 5.62036 4.125 8.15551 4.125 11.1118C4.125 14.0766 6.00703 16.6032 8.64531 17.5657C8.80859 17.6258 8.9375 17.8235 8.9375 17.9954V18.6485Z" fill="white"/>
	<path d="M11.6868 16.2678C11.6868 16.4569 11.5321 16.6116 11.3431 16.6116H10.6556C10.4665 16.6116 10.3118 16.4569 10.3118 16.2678V15.185C8.80793 14.9788 8.07746 14.1452 7.8798 12.9936C7.84543 12.7959 8.00012 12.6241 8.19777 12.6241H8.9798C9.14308 12.6241 9.28058 12.7444 9.31496 12.8991C9.46105 13.578 9.85637 14.1022 11.0595 14.1022C11.9446 14.1022 12.5806 13.6038 12.5806 12.8647C12.5806 12.1256 12.2111 11.842 10.9048 11.6272C8.9798 11.3694 8.06887 10.785 8.06887 9.2811C8.06887 8.12095 8.95402 7.21001 10.3118 7.02095V5.95532C10.3118 5.76626 10.4665 5.61157 10.6556 5.61157H11.3431C11.5321 5.61157 11.6868 5.76626 11.6868 5.95532V7.04673C12.7954 7.24438 13.5001 7.87173 13.7321 8.92017C13.7751 9.11782 13.6204 9.29829 13.4142 9.29829H12.6923C12.5376 9.29829 12.4087 9.19517 12.3657 9.04907C12.1681 8.38735 11.6954 8.09517 10.8704 8.09517C9.95949 8.09517 9.48683 8.53345 9.48683 9.1522C9.48683 9.80532 9.75324 10.1319 11.154 10.3295C13.0446 10.5874 14.0243 11.1288 14.0243 12.7358C14.0243 13.9561 13.1134 14.9444 11.6954 15.1678V16.2678H11.6868Z" fill="white"/>
	<path d="M13.5094 18.9749C13.2602 19.0523 13.0625 18.9062 13.0625 18.6484V18.0039C13.0625 17.8148 13.1742 17.6343 13.3547 17.5742C15.9844 16.6117 17.875 14.0765 17.875 11.1203C17.875 8.15542 15.993 5.62885 13.3547 4.66635C13.1914 4.6062 13.0625 4.40854 13.0625 4.23667V3.59214C13.0625 3.33432 13.2687 3.18823 13.5094 3.26557C16.8437 4.31401 19.25 7.43354 19.25 11.1117C19.25 14.7984 16.8437 17.9093 13.5094 18.9749Z" fill="white"/>
</svg>
