<svg width="22" height="22" viewBox="0 0 22 22" fill="none" xmlns="http://www.w3.org/2000/svg">
	<circle cx="11" cy="11" r="11" fill="#1BA27A"/>
	<path d="M14.7671 5.7417H7.14648V7.82677H10.0369V10.8914H11.8767V7.82677H14.7671V5.7417Z" fill="white"/>
	<path fill-rule="evenodd" clip-rule="evenodd" d="M10.9748 9.18433C13.6596 9.18433 15.8361 9.73734 15.8361 10.4196C15.8361 11.0235 14.1308 11.5262 11.8771 11.6336V16.0313H10.0375V11.6319C7.80103 11.521 6.11328 11.0204 6.11328 10.4196C6.11328 9.73734 8.28994 9.18433 10.9748 9.18433ZM6.64527 10.2599C6.64527 10.789 8.58379 11.2178 10.9749 11.2178C13.3659 11.2178 15.3044 10.789 15.3044 10.2599C15.3044 9.73083 13.3659 9.30187 10.9749 9.30187C8.58371 9.30187 6.64527 9.73083 6.64527 10.2599Z" fill="white"/>
</svg>
