<svg width="153" height="34" viewBox="0 0 153 34" fill="none" xmlns="http://www.w3.org/2000/svg">
	<g clip-path="url(#clip0_11059_78809)">
		<path d="M151.975 18.8786C151.409 18.8863 150.95 18.4253 150.942 17.8567V17.849V3.11955C150.942 1.39842 149.55 0 147.836 0H144.738V3.63435H145.763C146.322 3.62667 146.781 4.08768 146.788 4.64859V4.66395V8.45198C145.465 6.8 143.476 5.83186 141.365 5.79345C137.234 5.79345 133.883 9.63525 133.883 14.3684C133.883 19.1015 137.234 22.9356 141.365 22.9356C143.529 22.8972 145.557 21.8676 146.88 20.1388C147.224 21.5449 148.494 22.5284 149.94 22.513H153V18.8786H151.975ZM142.413 18.725C139.995 18.7327 138.029 16.758 138.021 14.3299C138.014 11.9019 139.98 9.92723 142.397 9.91955C144.815 9.91186 146.781 11.8866 146.788 14.3146V14.3299C146.781 16.758 144.83 18.7173 142.413 18.725Z" fill="#80889C"/>
		<path d="M57.2294 6.14677C55.7835 6.13141 54.5136 7.12259 54.1694 8.53638C52.8459 6.82293 50.8187 5.81638 48.6614 5.78564C44.5304 5.78564 41.1797 9.62745 41.1797 14.3529C41.1797 19.0783 44.5304 22.9201 48.6614 22.9201C50.7728 22.8971 52.7694 21.9212 54.0929 20.2616V22.3592C54.0929 24.8026 52.1574 26.808 49.7247 26.8925H48.7532V30.8265H49.7247C51.27 30.8573 52.7924 30.4577 54.1235 29.6817C56.6939 28.1373 58.2774 25.3481 58.2774 22.3362V10.8107C58.2698 10.2498 58.7288 9.78881 59.2872 9.78112H59.3025H60.3276V6.14677H57.2294ZM49.7247 18.7249C47.3073 18.7325 45.3413 16.7578 45.3336 14.3298C45.326 11.9018 47.292 9.92711 49.7094 9.91943C52.1268 9.91175 54.0929 11.8864 54.1005 14.3145V14.3298C54.0929 16.7578 52.1421 18.7172 49.7247 18.7249Z" fill="#80889C"/>
		<path d="M11.6356 5.75503C9.5166 5.79345 7.5276 6.78463 6.2118 8.45198V3.11955C6.2118 1.39842 4.8195 0 3.1059 0H0V3.63435H1.0251C1.5912 3.62667 2.0502 4.08768 2.05785 4.65627V4.66396V22.4976H6.2118V20.1925C7.53525 21.8445 9.52425 22.8203 11.6356 22.8511C15.7667 22.8511 19.1173 19.0093 19.1173 14.2838C19.1173 9.55842 15.7667 5.75503 11.6356 5.75503ZM10.6105 18.748C8.19315 18.7557 6.2271 16.781 6.21945 14.353C6.2118 11.925 8.17785 9.95028 10.5953 9.9426C13.0127 9.93492 14.9787 11.9096 14.9864 14.3376V14.3453C14.9864 16.7733 13.0279 18.7403 10.6105 18.748Z" fill="#80889C"/>
		<path d="M99.9243 5.586C95.2119 5.586 91.3945 9.42012 91.3945 14.1532C91.3945 18.8863 95.2119 22.7205 99.9243 22.7205C104.637 22.7205 108.454 18.8863 108.454 14.1532C108.454 9.42012 104.637 5.586 99.9243 5.586ZM99.9243 18.5559C97.5069 18.5559 95.5408 16.5813 95.5408 14.1532C95.5408 11.7252 97.5069 9.75052 99.9243 9.75052C102.342 9.75052 104.308 11.7252 104.308 14.1532C104.3 16.5813 102.342 18.5483 99.9243 18.5559Z" fill="#80889C"/>
		<path d="M69.6616 9.79664C71.2375 9.77359 72.7063 10.6188 73.4866 11.9942L77.0821 9.90422C74.7259 5.80885 69.5086 4.40275 65.4311 6.77698C61.3537 9.15122 59.9537 14.3838 62.3176 18.4791C64.6814 22.5745 69.8911 23.9806 73.9685 21.6064C75.2614 20.8534 76.34 19.7777 77.0821 18.4791L73.4407 16.3892C72.232 18.4945 69.5545 19.2091 67.466 17.9951C65.3699 16.7811 64.6585 14.0918 65.8672 11.9942C66.6398 10.6418 68.0704 9.81201 69.6233 9.79664H69.6616Z" fill="#80889C"/>
		<path d="M84.9149 8.52881C84.5936 7.12271 83.339 6.13152 81.9085 6.14689H78.7949V9.78124H79.8277C80.3938 9.78124 80.8528 10.2423 80.8528 10.8108V10.8185V22.4976H84.9838V14.2147C84.9914 11.7867 86.9498 9.81966 89.3672 9.81198H90.3923V5.77808C88.2427 5.81649 86.2307 6.82305 84.9149 8.52881Z" fill="#80889C"/>
		<path d="M127.211 8.28295L125.214 15.7591L122.644 6.20069H119.523L116.952 15.7822L114.948 8.29831C114.527 7.01515 113.334 6.15459 111.995 6.1469H109.195V9.78125H110.419C110.871 9.78125 111.268 10.0732 111.406 10.5035C111.406 10.5419 114.604 22.5207 114.604 22.5207H118.781L121.076 13.9074L123.371 22.5207H127.54C127.54 22.5207 130.745 10.5419 130.745 10.5035C130.883 10.0732 131.281 9.78125 131.732 9.78125H132.949V6.1469H130.149C128.81 6.13922 127.617 6.99978 127.211 8.28295Z" fill="#80889C"/>
		<path d="M40.0482 18.8787V22.513H36.9499C35.5117 22.5284 34.2648 21.5449 33.9358 20.1388C32.7042 21.7293 30.8682 22.7282 28.8715 22.8972C28.818 22.8895 28.7568 22.8895 28.7032 22.8972H28.1448C28.0912 22.9049 28.03 22.9049 27.9765 22.8972C24.8859 22.659 22.4914 20.0696 22.4914 16.9501V10.7571C22.4991 10.1885 22.0401 9.7275 21.474 9.71981H21.4663H20.4336V6.10083H23.5395C25.2531 6.10083 26.6454 7.49925 26.6454 9.22038V15.1291C26.5536 17.1268 28.0912 18.8172 30.0802 18.9094C32.0692 19.0016 33.7522 17.4572 33.844 15.4595C33.8517 15.3519 33.8517 15.2366 33.844 15.1291V6.10083H37.9903V17.826C37.9827 18.3946 38.4417 18.8556 39.0078 18.8633H39.0154L40.0482 18.8787Z" fill="#80889C"/>
		<path d="M149.16 29.2208H149.037V28.3603H148.762V28.245H149.427V28.3603H149.152V29.2208H149.16ZM150.414 28.414L150.085 29.2208H150.047L149.718 28.414V29.2208H149.596V28.245H149.787L150.07 28.9519L150.353 28.245H150.544V29.2208H150.422V28.414H150.414Z" fill="#A2A8B7"/>
		<path d="M63.6864 31.0495C64.0383 31.426 64.5967 31.764 65.3158 31.764C66.0579 31.764 66.3486 31.4029 66.3486 31.0571C66.3486 30.5884 65.7978 30.4501 65.1781 30.2888C64.3366 30.0813 63.3498 29.8278 63.3498 28.7367C63.3498 27.8838 64.0995 27.223 65.224 27.223C66.0273 27.223 66.6775 27.4766 67.1518 27.9453L66.6316 28.6214C66.2262 28.2142 65.683 28.0298 65.1399 28.0298C64.6044 28.0298 64.2678 28.2834 64.2678 28.6752C64.2678 29.0825 64.7956 29.2131 65.4 29.3668C66.2491 29.5819 67.2589 29.8508 67.2589 30.9726C67.2589 31.8332 66.6546 32.5708 65.2699 32.5708C64.3213 32.5708 63.6328 32.2404 63.1738 31.7487L63.6864 31.0495Z" fill="#A2A8B7"/>
		<path d="M69.8913 28.6368C71.0082 28.6368 71.7273 29.4974 71.7273 30.6807V30.8728H68.8509C68.9121 31.4414 69.3405 31.9024 70.0367 31.9024C70.3962 31.9024 70.8323 31.7564 71.0924 31.4875L71.4596 32.0253C71.0924 32.3788 70.5416 32.5709 69.9449 32.5709C68.828 32.5709 67.9941 31.7871 67.9941 30.6038C68.0018 29.5128 68.7897 28.6368 69.8913 28.6368ZM68.8433 30.2965H70.947C70.9317 29.8509 70.6334 29.3053 69.899 29.3053C69.1952 29.3053 68.8815 29.8432 68.8433 30.2965Z" fill="#A2A8B7"/>
		<path d="M74.3269 28.6368C75.4438 28.6368 76.1629 29.4973 76.1629 30.6806V30.8727H73.2865C73.3477 31.4413 73.7761 31.9023 74.4722 31.9023C74.8318 31.9023 75.2678 31.7563 75.5279 31.4874L75.8951 32.0253C75.5279 32.3787 74.9771 32.5708 74.3804 32.5708C73.2635 32.5708 72.4297 31.7871 72.4297 30.6038C72.4373 29.5127 73.2253 28.6368 74.3269 28.6368ZM73.2788 30.2964H75.3826C75.3673 29.8508 75.0689 29.3053 74.3345 29.3053C73.6307 29.3053 73.3171 29.8431 73.2788 30.2964Z" fill="#A2A8B7"/>
		<path d="M79.1473 31.0494C79.4992 31.4259 80.0577 31.764 80.7768 31.764C81.5188 31.764 81.8095 31.4028 81.8095 31.0571C81.8095 30.5884 81.2587 30.4501 80.6391 30.2887C79.7976 30.0813 78.8107 29.8277 78.8107 28.7366C78.8107 27.8838 79.5604 27.223 80.685 27.223C81.4882 27.223 82.1385 27.4765 82.6128 27.9452L82.0926 28.6214C81.6871 28.2141 81.144 28.0297 80.6008 28.0297C80.0653 28.0297 79.7287 28.2833 79.7287 28.6752C79.7287 29.0824 80.2566 29.213 80.8609 29.3667C81.7101 29.5818 82.7199 29.8508 82.7199 30.9726C82.7199 31.8331 82.1155 32.5708 80.7309 32.5708C79.7823 32.5708 79.0938 32.2404 78.6348 31.7486L79.1473 31.0494Z" fill="#A2A8B7"/>
		<path d="M85.3521 28.6368C86.469 28.6368 87.1881 29.4974 87.1881 30.6807V30.8728H84.3041C84.3653 31.4414 84.7937 31.9024 85.4898 31.9024C85.8494 31.9024 86.2854 31.7564 86.5455 31.4875L86.9127 32.0253C86.5455 32.3788 85.9947 32.5709 85.398 32.5709C84.2811 32.5709 83.4473 31.7871 83.4473 30.6038C83.4626 29.5128 84.2505 28.6368 85.3521 28.6368ZM84.3041 30.2965H86.4078C86.3925 29.8509 86.0942 29.3053 85.3598 29.3053C84.656 29.3053 84.3423 29.8432 84.3041 30.2965Z" fill="#A2A8B7"/>
		<path d="M89.8262 28.6368C90.553 28.6368 90.989 28.9442 91.2568 29.3053L90.7213 29.8048C90.5147 29.5128 90.224 29.3591 89.8645 29.3591C89.1836 29.3591 88.7399 29.8739 88.7399 30.6038C88.7399 31.3338 89.1913 31.8563 89.8645 31.8563C90.224 31.8563 90.5147 31.7026 90.7213 31.4106L91.2568 31.9101C90.9967 32.2635 90.553 32.5785 89.8262 32.5785C88.694 32.5785 87.8984 31.7487 87.8984 30.6115C87.8984 29.4667 88.694 28.6368 89.8262 28.6368Z" fill="#A2A8B7"/>
		<path d="M94.5618 31.9792C94.294 32.2788 93.8274 32.5708 93.2383 32.5708C92.4351 32.5708 92.0449 32.1482 92.0449 31.3875V28.7367H92.8558V31.0956C92.8558 31.6795 93.1465 31.8562 93.6055 31.8562C94.0186 31.8562 94.3705 31.6257 94.5618 31.3645V28.7367H95.3727V32.4863H94.5618V31.9792Z" fill="#A2A8B7"/>
		<path d="M96.5273 28.7291H97.3382V29.2823C97.6136 28.9289 98.065 28.6446 98.5546 28.6446V29.4514C98.4857 29.436 98.4016 29.4283 98.3021 29.4283C97.9655 29.4283 97.5065 29.6588 97.3459 29.9278V32.4787H96.535V28.7291H96.5273Z" fill="#A2A8B7"/>
		<path d="M99.1973 27.6073C99.1973 27.3307 99.4268 27.1002 99.7022 27.1002C99.9776 27.1002 100.207 27.323 100.207 27.6073C100.207 27.8916 99.9852 28.1144 99.7022 28.1144C99.4344 28.1144 99.1973 27.8839 99.1973 27.6073ZM99.2967 28.7291H100.108V32.4787H99.2967V28.7291Z" fill="#A2A8B7"/>
		<path d="M101.44 31.6104V29.4436H100.82V28.729H101.44V27.7071H102.251V28.729H103.008V29.4436H102.251V31.4029C102.251 31.6565 102.373 31.8486 102.603 31.8486C102.756 31.8486 102.901 31.7871 102.962 31.7179L103.154 32.3326C103.008 32.4709 102.771 32.5708 102.389 32.5708C101.777 32.5708 101.44 32.2327 101.44 31.6104Z" fill="#A2A8B7"/>
		<path d="M104.33 33.2778C104.583 33.2778 104.759 33.2009 104.866 32.9551L105.05 32.5248L103.52 28.7291H104.384L105.47 31.5336L106.557 28.7291H107.429L105.631 33.1471C105.378 33.7849 104.927 33.9847 104.346 33.9923C104.231 33.9923 104.009 33.9693 103.887 33.9386L104.009 33.2086C104.101 33.2547 104.231 33.2778 104.33 33.2778Z" fill="#A2A8B7"/>
		<path d="M109.869 27.3074H112.034C113.656 27.3074 114.819 28.2833 114.819 29.8891C114.819 31.495 113.656 32.4785 112.042 32.4785H109.869V27.3074ZM112.026 31.3183C112.929 31.3183 113.457 30.6575 113.457 29.8891C113.457 29.09 112.975 28.4677 112.034 28.4677H111.193V31.3183H112.026Z" fill="#A2A8B7"/>
		<path d="M115.5 27.5765C115.5 27.2 115.798 26.8926 116.181 26.8926C116.563 26.8926 116.862 27.1923 116.862 27.5765C116.862 27.9607 116.563 28.2603 116.181 28.2603C115.798 28.2603 115.5 27.953 115.5 27.5765ZM115.584 28.729H116.77V32.4786H115.584V28.729Z" fill="#A2A8B7"/>
		<path d="M121.919 28.5753C121.919 28.291 122.08 28.1297 122.332 28.1297C122.439 28.1297 122.546 28.1527 122.638 28.2065L122.852 27.3921C122.669 27.2922 122.386 27.223 122.064 27.223C121.292 27.223 120.726 27.7455 120.726 28.5446V28.729H120.328H120.114H119.188V28.5753C119.188 28.291 119.349 28.1297 119.601 28.1297C119.708 28.1297 119.815 28.1527 119.907 28.2065L120.121 27.3921C119.938 27.2922 119.655 27.223 119.333 27.223C118.561 27.223 117.995 27.7455 117.995 28.5446V28.729H117.375V29.7663H117.995V32.4709H119.18V29.7663H120.106H120.32H120.718V32.4709H121.904V29.7663H122.661V28.729H121.904V28.5753H121.919Z" fill="#A2A8B7"/>
		<path d="M125.016 28.6368C126.118 28.6368 126.921 29.4513 126.921 30.7268V30.9803H124.267C124.335 31.3261 124.657 31.6488 125.215 31.6488C125.544 31.6488 125.919 31.5182 126.126 31.3338L126.63 32.0791C126.263 32.4095 125.644 32.5785 125.07 32.5785C123.922 32.5785 123.027 31.8255 123.027 30.6115C123.027 29.5128 123.846 28.6368 125.016 28.6368ZM124.251 30.2043H125.789C125.758 29.9431 125.567 29.5589 125.016 29.5589C124.496 29.5589 124.297 29.9354 124.251 30.2043Z" fill="#A2A8B7"/>
		<path d="M127.633 28.729H128.819V29.2054C129.063 28.9058 129.538 28.6368 129.981 28.6368V29.7894C129.913 29.7663 129.813 29.751 129.691 29.751C129.385 29.751 128.972 29.8816 128.819 30.0967V32.471H127.633V28.729Z" fill="#A2A8B7"/>
		<path d="M132.368 28.6368C133.47 28.6368 134.273 29.4513 134.273 30.7268V30.9803H131.618C131.687 31.3261 132.008 31.6488 132.567 31.6488C132.896 31.6488 133.271 31.5182 133.477 31.3338L133.982 32.0791C133.615 32.4095 132.995 32.5785 132.421 32.5785C131.274 32.5785 130.379 31.8255 130.379 30.6115C130.379 29.5128 131.197 28.6368 132.368 28.6368ZM131.603 30.2043H133.141C133.11 29.9431 132.919 29.5589 132.368 29.5589C131.848 29.5589 131.649 29.9354 131.603 30.2043Z" fill="#A2A8B7"/>
		<path d="M137.509 30.3119C137.509 29.8508 137.272 29.6895 136.897 29.6895C136.545 29.6895 136.308 29.8816 136.17 30.0506V32.471H134.984V28.7214H136.17V29.1824C136.392 28.9211 136.836 28.6292 137.463 28.6292C138.312 28.6292 138.702 29.1286 138.702 29.8124V32.4633H137.517V30.3119H137.509Z" fill="#A2A8B7"/>
		<path d="M139.887 31.4721V29.774H139.268V28.7367H139.887V27.7148H141.065V28.7367H141.823V29.774H141.065V31.1417C141.065 31.3568 141.188 31.5182 141.394 31.5182C141.524 31.5182 141.654 31.4721 141.693 31.426L141.922 32.325C141.777 32.4633 141.478 32.5708 141.042 32.5708C140.3 32.5708 139.887 32.1943 139.887 31.4721Z" fill="#A2A8B7"/>
		<path d="M142.58 27.3076H143.766V32.4786H142.58V27.3076Z" fill="#A2A8B7"/>
		<path d="M145.151 32.9473C145.419 32.9473 145.595 32.8935 145.656 32.7398L145.74 32.54L144.256 28.7366H145.51L146.352 31.1109L147.201 28.7366H148.463L146.78 33.0164C146.482 33.8078 145.916 33.9845 145.204 33.9999C145.097 33.9999 144.822 33.9769 144.692 33.9384L144.86 32.8781C144.937 32.9242 145.051 32.9473 145.151 32.9473Z" fill="#A2A8B7"/>
	</g>
	<defs>
		<clipPath id="clip0_11059_78809">
			<rect width="153" height="34" fill="white"/>
		</clipPath>
	</defs>
</svg>
