<svg width="13" height="19" viewBox="0 0 13 19" fill="none" xmlns="http://www.w3.org/2000/svg">
	<path d="M6.49956 0.791626C5.40978 0.792992 4.34459 1.11565 3.43722 1.71923C2.52985 2.32282 1.82059 3.18054 1.39815 4.18511C0.975702 5.18969 0.858828 6.29652 1.06214 7.36717C1.26546 8.43782 1.77994 9.42476 2.54123 10.2045V17.4166C2.54164 17.5516 2.57654 17.6842 2.64261 17.8019C2.70869 17.9195 2.80375 18.0183 2.91876 18.0889C3.03378 18.1595 3.16493 18.1996 3.29976 18.2052C3.43459 18.2109 3.56863 18.1819 3.68915 18.1212L6.49956 16.72L9.30998 18.1212C9.42028 18.1777 9.5423 18.2076 9.66623 18.2083C9.81445 18.2088 9.95983 18.1676 10.0858 18.0895C10.1999 18.0182 10.2939 17.919 10.359 17.8013C10.4241 17.6836 10.4582 17.5512 10.4579 17.4166V10.2045C11.2192 9.42476 11.7337 8.43782 11.937 7.36717C12.1403 6.29652 12.0234 5.18969 11.601 4.18511C11.1785 3.18054 10.4693 2.32282 9.56191 1.71923C8.65454 1.11565 7.58935 0.792992 6.49956 0.791626V0.791626ZM8.87456 16.1341L6.85581 15.1287C6.74531 15.073 6.6233 15.044 6.49956 15.044C6.37583 15.044 6.25381 15.073 6.14331 15.1287L4.12456 16.1341V11.3366C4.62563 11.5732 5.15934 11.7333 5.7079 11.8116V12.6666C5.7079 12.8766 5.79131 13.078 5.93977 13.2264C6.08824 13.3749 6.2896 13.4583 6.49956 13.4583C6.70953 13.4583 6.91089 13.3749 7.05936 13.2264C7.20782 13.078 7.29123 12.8766 7.29123 12.6666V11.8116C7.83979 11.7333 8.3735 11.5732 8.87456 11.3366V16.1341ZM6.49956 10.2916C5.71668 10.2916 4.95138 10.0595 4.30043 9.62453C3.64949 9.18958 3.14214 8.57137 2.84254 7.84808C2.54294 7.12479 2.46456 6.3289 2.61729 5.56106C2.77002 4.79322 3.14702 4.08791 3.7006 3.53433C4.25418 2.98075 4.95949 2.60375 5.72733 2.45102C6.49517 2.29828 7.29106 2.37667 8.01435 2.67627C8.73764 2.97587 9.35585 3.48322 9.7908 4.13416C10.2257 4.78511 10.4579 5.55041 10.4579 6.33329C10.4579 7.38311 10.0409 8.38993 9.29853 9.13226C8.5562 9.87459 7.54938 10.2916 6.49956 10.2916V10.2916Z" fill="white"/>
</svg>
