<svg width="131" height="30" viewBox="0 0 131 30" fill="none" xmlns="http://www.w3.org/2000/svg">
	<path d="M41.602 22H49.486V19.984H43.762V16.6H48.946V14.638H43.762V11.254H49.486V9.238H41.602V22ZM56.1294 22.27C56.7954 22.27 57.4254 22.162 58.0014 21.964C58.5954 21.766 59.0994 21.46 59.5134 21.064C59.9454 20.668 60.2874 20.182 60.5394 19.588C60.7734 18.994 60.8994 18.328 60.8994 17.554V9.238H58.7394V17.428C58.7394 18.328 58.5054 19.012 58.0554 19.498C57.6054 19.984 56.9574 20.218 56.1294 20.218C55.3194 20.218 54.6714 19.984 54.2214 19.498C53.7534 19.012 53.5194 18.328 53.5194 17.428V9.238H51.3774V17.554C51.3774 18.328 51.5034 18.994 51.7554 19.588C51.9894 20.182 52.3314 20.668 52.7634 21.064C53.1774 21.46 53.6814 21.766 54.2574 21.964C54.8334 22.162 55.4634 22.27 56.1294 22.27ZM66.9572 22H69.0452V8.968H66.9572V22ZM71.093 22H73.163V13.234H71.093V22ZM70.769 10.156C70.769 10.534 70.895 10.858 71.165 11.11C71.435 11.38 71.741 11.506 72.119 11.506C72.497 11.506 72.821 11.38 73.091 11.11C73.361 10.858 73.487 10.534 73.487 10.156C73.487 9.778 73.361 9.454 73.091 9.184C72.821 8.914 72.497 8.788 72.119 8.788C71.741 8.788 71.435 8.914 71.165 9.184C70.895 9.454 70.769 9.778 70.769 10.156ZM79.1532 14.89C79.4952 14.89 79.7832 14.944 80.0172 15.034C80.2512 15.124 80.4672 15.25 80.6472 15.412C80.8092 15.574 80.9532 15.736 81.0612 15.934C81.1512 16.132 81.2232 16.33 81.2772 16.528L83.1492 15.844C83.0592 15.502 82.8972 15.142 82.6992 14.8C82.5012 14.458 82.2312 14.152 81.8892 13.882C81.5472 13.612 81.1512 13.378 80.7012 13.216C80.2512 13.054 79.7292 12.964 79.1352 12.964C78.5052 12.964 77.9112 13.072 77.3712 13.306C76.8312 13.54 76.3632 13.864 75.9492 14.278C75.5352 14.692 75.2292 15.178 74.9952 15.754C74.7612 16.312 74.6532 16.942 74.6532 17.608C74.6532 18.274 74.7792 18.904 75.0132 19.462C75.2472 20.02 75.5532 20.524 75.9672 20.938C76.3632 21.352 76.8312 21.676 77.3892 21.91C77.9472 22.144 78.5412 22.27 79.1892 22.27C79.7652 22.27 80.2872 22.18 80.7372 22.018C81.1872 21.856 81.5832 21.622 81.9252 21.352C82.2492 21.082 82.5192 20.776 82.7352 20.434C82.9512 20.092 83.1132 19.75 83.2212 19.408L81.3852 18.742C81.3312 18.904 81.2592 19.084 81.1512 19.264C81.0432 19.462 80.8992 19.624 80.7372 19.786C80.5572 19.948 80.3412 20.092 80.0892 20.2C79.8192 20.308 79.5312 20.362 79.1892 20.362C78.8652 20.362 78.5592 20.308 78.2532 20.182C77.9472 20.056 77.6952 19.876 77.4792 19.642C77.2452 19.408 77.0652 19.12 76.9392 18.778C76.8132 18.436 76.7412 18.058 76.7412 17.608C76.7412 17.158 76.8132 16.78 76.9392 16.438C77.0652 16.096 77.2452 15.826 77.4792 15.592C77.6952 15.358 77.9472 15.196 78.2352 15.07C78.5232 14.944 78.8292 14.89 79.1532 14.89ZM90.4361 16.654H86.1341C86.1521 16.42 86.2061 16.186 86.3141 15.952C86.4221 15.718 86.5661 15.52 86.7461 15.322C86.9261 15.142 87.1421 14.998 87.4121 14.89C87.6641 14.764 87.9521 14.71 88.2761 14.71C88.6361 14.71 88.9421 14.764 89.2121 14.872C89.4821 14.98 89.6981 15.124 89.8781 15.304C90.0581 15.484 90.2021 15.7 90.2921 15.934C90.3821 16.168 90.4181 16.402 90.4361 16.654ZM92.4341 19.498L90.6701 18.94C90.5261 19.372 90.2921 19.732 89.9501 20.038C89.6081 20.326 89.1041 20.47 88.4741 20.47C88.1501 20.47 87.8441 20.416 87.5741 20.308C87.2861 20.182 87.0341 20.02 86.8181 19.822C86.6021 19.624 86.4221 19.372 86.2961 19.102C86.1701 18.832 86.0981 18.526 86.0801 18.184H92.4881C92.5061 18.166 92.5061 18.094 92.5241 17.968C92.5421 17.842 92.5421 17.68 92.5421 17.518C92.5421 16.816 92.4521 16.204 92.2541 15.646C92.0561 15.088 91.7861 14.602 91.4261 14.206C91.0481 13.81 90.5981 13.504 90.0761 13.288C89.5361 13.072 88.9241 12.964 88.2581 12.964C87.7001 12.964 87.1781 13.072 86.6561 13.306C86.1341 13.522 85.6841 13.828 85.2881 14.242C84.8921 14.638 84.5861 15.124 84.3521 15.682C84.1181 16.24 83.9921 16.87 83.9921 17.572C83.9921 18.31 84.1181 18.976 84.3701 19.552C84.6041 20.146 84.9281 20.632 85.3421 21.028C85.7561 21.442 86.2241 21.748 86.7641 21.946C87.3041 22.162 87.8801 22.27 88.4741 22.27C88.9961 22.27 89.4821 22.198 89.9141 22.054C90.3461 21.91 90.7241 21.712 91.0661 21.46C91.4081 21.208 91.6781 20.92 91.9121 20.578C92.1461 20.236 92.3081 19.876 92.4341 19.498ZM96.1177 22V16.942C96.1177 16.366 96.2797 15.88 96.5857 15.466C96.8917 15.07 97.3417 14.872 97.9357 14.872C98.6017 14.872 99.0697 15.052 99.3397 15.43C99.6097 15.808 99.7357 16.276 99.7357 16.816V22H101.824V16.456C101.824 15.97 101.752 15.52 101.626 15.106C101.5 14.692 101.302 14.314 101.05 13.99C100.78 13.684 100.456 13.432 100.06 13.252C99.6637 13.072 99.1957 12.982 98.6557 12.982C98.1697 12.982 97.6837 13.09 97.2157 13.306C96.7297 13.54 96.3517 13.9 96.0637 14.404V13.234H94.0297V22H96.1177ZM104.996 19.12L103.178 19.624C103.196 19.876 103.286 20.146 103.43 20.452C103.574 20.758 103.79 21.046 104.078 21.316C104.366 21.586 104.726 21.82 105.176 22C105.626 22.18 106.166 22.27 106.796 22.27C107.354 22.27 107.84 22.18 108.254 22.018C108.668 21.856 109.028 21.622 109.298 21.352C109.568 21.082 109.766 20.794 109.91 20.452C110.036 20.128 110.108 19.804 110.108 19.462C110.108 18.814 109.892 18.256 109.478 17.77C109.046 17.302 108.416 16.978 107.588 16.798L106.256 16.528C105.986 16.474 105.77 16.366 105.608 16.204C105.446 16.042 105.374 15.844 105.374 15.61C105.374 15.34 105.5 15.088 105.734 14.89C105.968 14.692 106.256 14.602 106.634 14.602C106.922 14.602 107.174 14.638 107.372 14.728C107.57 14.818 107.732 14.944 107.858 15.07C107.984 15.196 108.074 15.34 108.128 15.502C108.182 15.664 108.236 15.79 108.254 15.916L110.018 15.412C109.982 15.196 109.892 14.944 109.766 14.674C109.64 14.386 109.46 14.116 109.19 13.864C108.92 13.612 108.578 13.396 108.164 13.234C107.75 13.054 107.246 12.964 106.634 12.964C106.184 12.964 105.752 13.036 105.356 13.198C104.978 13.342 104.636 13.54 104.348 13.792C104.06 14.062 103.826 14.35 103.664 14.692C103.502 15.034 103.412 15.412 103.412 15.79C103.412 16.402 103.61 16.942 104.006 17.392C104.402 17.86 104.996 18.184 105.77 18.346L107.066 18.634C107.408 18.706 107.678 18.832 107.84 18.994C108.002 19.156 108.092 19.372 108.092 19.606C108.092 19.876 107.984 20.11 107.75 20.308C107.534 20.506 107.21 20.614 106.778 20.614C106.22 20.614 105.788 20.47 105.482 20.164C105.194 19.858 105.032 19.516 104.996 19.12ZM117.504 16.654H113.202C113.22 16.42 113.274 16.186 113.382 15.952C113.49 15.718 113.634 15.52 113.814 15.322C113.994 15.142 114.21 14.998 114.48 14.89C114.732 14.764 115.02 14.71 115.344 14.71C115.704 14.71 116.01 14.764 116.28 14.872C116.55 14.98 116.766 15.124 116.946 15.304C117.126 15.484 117.27 15.7 117.36 15.934C117.45 16.168 117.486 16.402 117.504 16.654ZM119.502 19.498L117.738 18.94C117.594 19.372 117.36 19.732 117.018 20.038C116.676 20.326 116.172 20.47 115.542 20.47C115.218 20.47 114.912 20.416 114.642 20.308C114.354 20.182 114.102 20.02 113.886 19.822C113.67 19.624 113.49 19.372 113.364 19.102C113.238 18.832 113.166 18.526 113.148 18.184H119.556C119.574 18.166 119.574 18.094 119.592 17.968C119.61 17.842 119.61 17.68 119.61 17.518C119.61 16.816 119.52 16.204 119.322 15.646C119.124 15.088 118.854 14.602 118.494 14.206C118.116 13.81 117.666 13.504 117.144 13.288C116.604 13.072 115.992 12.964 115.326 12.964C114.768 12.964 114.246 13.072 113.724 13.306C113.202 13.522 112.752 13.828 112.356 14.242C111.96 14.638 111.654 15.124 111.42 15.682C111.186 16.24 111.06 16.87 111.06 17.572C111.06 18.31 111.186 18.976 111.438 19.552C111.672 20.146 111.996 20.632 112.41 21.028C112.824 21.442 113.292 21.748 113.832 21.946C114.372 22.162 114.948 22.27 115.542 22.27C116.064 22.27 116.55 22.198 116.982 22.054C117.414 21.91 117.792 21.712 118.134 21.46C118.476 21.208 118.746 20.92 118.98 20.578C119.214 20.236 119.376 19.876 119.502 19.498ZM122.627 17.59C122.627 16.744 122.861 16.078 123.311 15.592C123.761 15.106 124.319 14.854 125.003 14.854C125.687 14.854 126.245 15.088 126.677 15.574C127.091 16.06 127.307 16.726 127.307 17.572C127.307 17.986 127.253 18.364 127.145 18.706C127.019 19.048 126.857 19.354 126.659 19.588C126.461 19.84 126.209 20.038 125.921 20.182C125.633 20.308 125.327 20.38 124.985 20.38C124.265 20.38 123.689 20.128 123.275 19.624C122.843 19.102 122.627 18.436 122.627 17.59ZM129.323 20.398V8.968H127.289V14.26C127.217 14.116 127.109 13.972 126.983 13.828C126.857 13.684 126.677 13.558 126.479 13.432C126.263 13.306 126.011 13.198 125.723 13.126C125.435 13.036 125.093 13 124.715 13C124.103 13 123.545 13.126 123.023 13.36C122.501 13.594 122.069 13.936 121.709 14.35C121.331 14.764 121.043 15.25 120.845 15.808C120.647 16.366 120.539 16.96 120.539 17.59C120.539 18.256 120.647 18.868 120.845 19.426C121.043 19.984 121.331 20.47 121.709 20.884C122.069 21.298 122.501 21.622 123.023 21.856C123.545 22.108 124.121 22.216 124.751 22.216C125.381 22.216 125.903 22.09 126.353 21.82C126.803 21.55 127.127 21.244 127.325 20.866C127.325 21.046 127.343 21.262 127.361 21.496C127.379 21.73 127.397 21.91 127.415 22H129.413C129.395 21.928 129.377 21.748 129.359 21.442C129.341 21.136 129.323 20.794 129.323 20.398Z" fill="#DDDFE4"/>
	<circle cx="15" cy="15" r="15" fill="#FFFB1F"/>
	<path d="M15.0031 8L15.3755 9.14601H16.5804L15.6056 9.85427L15.978 11.0003L15.0031 10.292L14.0282 11.0003L14.4006 9.85427L13.4258 9.14601H14.6307L15.0031 8Z" fill="#191B20"/>
	<path d="M10.051 10.0508L11.1247 10.5978L11.9768 9.74585L11.7882 10.9359L12.8619 11.483L11.6718 11.6715L11.4832 12.8617L10.9362 11.788L9.74609 11.9766L10.5981 11.1245L10.051 10.0508Z" fill="#191B20"/>
	<path d="M8 15L9.14601 14.6276V13.4226L9.85422 14.3975L11.0003 14.0251L10.2919 15L11.0003 15.9748L9.85422 15.6025L9.14601 16.5773V15.3723L8 15Z" fill="#191B20"/>
	<path d="M10.051 19.9512L10.5981 18.8775L9.74609 18.0255L10.9362 18.2141L11.4832 17.1404L11.6718 18.3305L12.8618 18.519L11.7883 19.0661L11.9768 20.2562L11.1247 19.4042L10.051 19.9512Z" fill="#191B20"/>
	<path d="M15.0031 22.0007L14.6307 20.8547H13.4258L14.4007 20.1464L14.0282 19.0005L15.0031 19.7087L15.978 19.0005L15.6056 20.1464L16.5804 20.8547H15.3755L15.0031 22.0007Z" fill="#191B20"/>
	<path d="M19.9514 19.9512L18.8777 19.4042L18.0257 20.2562L18.2142 19.066L17.1406 18.519L18.3307 18.3305L18.5192 17.1404L19.0662 18.2141L20.2563 18.0255L19.4043 18.8776L19.9514 19.9512Z" fill="#191B20"/>
	<path d="M22.0021 15L20.8561 15.3723V16.5773L20.1479 15.6024L19.002 15.9748L19.7102 15L19.002 14.0251L20.1479 14.3975L20.8561 13.4226V14.6276L22.0021 15Z" fill="#191B20"/>
	<path d="M19.9514 10.0508L19.4043 11.1245L20.2564 11.9765L19.0662 11.7879L18.5192 12.8616L18.3307 11.6715L17.1406 11.4829L18.2142 10.9359L18.0257 9.74585L18.8778 10.5978L19.9514 10.0508Z" fill="#191B20"/>
</svg>
