<svg width="163" height="29" viewBox="0 0 163 29" fill="none" xmlns="http://www.w3.org/2000/svg">
	<g clip-path="url(#clip0_10928_77533)">
		<path d="M36.9208 24.9316L35.8403 22.1451L34.7599 24.9316H36.9208ZM37.0698 25.2615H34.6108L34.1265 26.4714H33.7539L35.654 21.6685H36.0266L37.9268 26.4714H37.5542L37.0698 25.2615Z" fill="#A2A8B7"/>
		<path d="M42.4736 26.1415V26.4714H39.791V21.6685H40.1636V26.1415H42.4736Z" fill="#A2A8B7"/>
		<path d="M47.0554 26.1415V26.4714H44.4102V21.6685H44.7455V26.1415H47.0554Z" fill="#A2A8B7"/>
		<path d="M49.3667 21.6685H48.9941V26.4714H49.3667V21.6685Z" fill="#A2A8B7"/>
		<path d="M54.3954 24.9316L53.3149 22.1451L52.2345 24.9316H54.3954ZM54.5444 25.2615H52.0854L51.6011 26.4714H51.2285L53.1287 21.6685H53.5012L55.4014 26.4714H55.0288L54.5444 25.2615Z" fill="#A2A8B7"/>
		<path d="M60.8402 21.6685V26.4714H60.5422L57.6361 22.3651V26.4714H57.3008V21.6685H57.5988L60.4677 25.8115V21.6685H60.8402Z" fill="#A2A8B7"/>
		<mask id="mask0_10928_77533" style="mask-type:luminance" maskUnits="userSpaceOnUse" x="0" y="0" width="102" height="29">
			<path d="M101.452 0H0V28.6713H101.452V0Z" fill="white"/>
		</mask>
		<g mask="url(#mask0_10928_77533)">
			<path d="M62.7051 24.0883C62.7051 22.7318 63.7483 21.6318 65.2386 21.6318C66.1328 21.6318 66.9152 22.0718 67.325 22.7684L66.9897 22.9517C66.6544 22.3651 65.9837 21.9618 65.2386 21.9618C63.9718 21.9618 63.0777 22.9151 63.0777 24.0883C63.0777 25.2616 63.9718 26.2148 65.2386 26.2148C66.021 26.2148 66.6916 25.8115 67.0269 25.2249L67.3623 25.4082C66.9524 26.1049 66.17 26.5815 65.2758 26.5815C63.7483 26.5448 62.7051 25.4449 62.7051 24.0883Z" fill="#A2A8B7"/>
		</g>
		<path d="M71.9076 26.1415V26.4714H69.1133V21.6685H71.9076V22.0351H69.4859V23.905H71.7213V24.2349H69.4859V26.1415H71.9076Z" fill="#A2A8B7"/>
		<mask id="mask1_10928_77533" style="mask-type:luminance" maskUnits="userSpaceOnUse" x="0" y="0" width="102" height="29">
			<path d="M101.452 0H0V28.6713H101.452V0Z" fill="white"/>
		</mask>
		<g mask="url(#mask1_10928_77533)">
			<path d="M43.4418 4.43633C43.4418 5.27961 42.7712 5.93956 41.9143 5.93956C41.0574 5.93956 40.3867 5.27961 40.3867 4.43633C40.3867 3.59306 41.0574 2.93311 41.9143 2.93311C42.7712 2.93311 43.4418 3.62972 43.4418 4.43633Z" fill="#A2A8B7"/>
		</g>
		<mask id="mask2_10928_77533" style="mask-type:luminance" maskUnits="userSpaceOnUse" x="0" y="0" width="102" height="29">
			<path d="M101.452 0H0V28.6713H101.452V0Z" fill="white"/>
		</mask>
		<g mask="url(#mask2_10928_77533)">
			<path d="M33.7547 18.4053H36.9961V9.75255H39.3061V6.70943H36.9961V6.48945C36.9961 5.82949 37.1824 5.35286 37.555 5.02288C37.9276 4.65624 38.5237 4.50959 39.3061 4.54625V1.46647C37.4805 1.39314 36.0647 1.79645 35.1332 2.67638C34.2018 3.51966 33.7547 4.8029 33.7547 6.45278V6.67277H32.0781V9.71588H33.7547V18.4053Z" fill="#A2A8B7"/>
		</g>
		<path d="M43.5168 6.74609H40.2754V18.4419H43.5168V6.74609Z" fill="#A2A8B7"/>
		<mask id="mask3_10928_77533" style="mask-type:luminance" maskUnits="userSpaceOnUse" x="0" y="0" width="102" height="29">
			<path d="M101.452 0H0V28.6713H101.452V0Z" fill="white"/>
		</mask>
		<g mask="url(#mask3_10928_77533)">
			<path d="M52.7942 18.4419H56.0356V11.1824C56.0356 7.84596 53.8374 6.37939 51.6392 6.37939C50.1489 6.37939 48.9566 6.89269 48.286 7.77263L47.8762 8.32259V6.70937H44.6348V18.4052H47.8762V12.0257C47.8762 10.3024 48.8076 9.27586 50.4097 9.27586C51.8627 9.27586 52.7942 10.2291 52.7942 11.7323V18.4419Z" fill="#A2A8B7"/>
		</g>
		<mask id="mask4_10928_77533" style="mask-type:luminance" maskUnits="userSpaceOnUse" x="0" y="0" width="102" height="29">
			<path d="M101.452 0H0V28.6713H101.452V0Z" fill="white"/>
		</mask>
		<g mask="url(#mask4_10928_77533)">
			<path d="M56.4824 9.78922H58.4571V14.2989C58.4571 15.9121 58.7924 16.9754 59.5375 17.6353C60.3945 18.4053 61.922 18.6619 64.2692 18.4419V15.5821C63.1888 15.6188 62.4809 15.5821 62.0711 15.1788C61.8475 14.9588 61.7357 14.6655 61.7357 14.2622V9.78922H64.2692V6.7461H61.7357V3.40967L58.4943 4.36293V6.7461H56.5197L56.4824 9.78922Z" fill="#A2A8B7"/>
		</g>
		<mask id="mask5_10928_77533" style="mask-type:luminance" maskUnits="userSpaceOnUse" x="0" y="0" width="102" height="29">
			<path d="M101.452 0H0V28.6713H101.452V0Z" fill="white"/>
		</mask>
		<g mask="url(#mask5_10928_77533)">
			<path d="M73.9565 11.5493H68.0326L68.1071 11.256C68.4797 9.89939 69.5229 9.16611 71.0132 9.16611C72.4662 9.16611 73.4722 9.93605 73.8447 11.256L73.9565 11.5493ZM71.0877 6.37964C67.3992 6.37964 64.7539 8.98279 64.7539 12.5759C64.7539 16.2423 67.4737 18.7721 71.3857 18.7721C73.5839 18.7721 75.2605 18.0388 76.4155 16.5722L73.8447 15.1057C73.2486 15.6556 72.3544 15.9856 71.423 15.9856C69.7464 15.9856 68.7032 15.3623 68.2561 14.1524L68.1443 13.8591H77.0489C77.1234 13.4558 77.1607 13.0525 77.1607 12.6125C77.1234 9.05612 74.5154 6.37964 71.0877 6.37964Z" fill="#A2A8B7"/>
		</g>
		<mask id="mask6_10928_77533" style="mask-type:luminance" maskUnits="userSpaceOnUse" x="0" y="0" width="102" height="29">
			<path d="M101.452 0H0V28.6713H101.452V0Z" fill="white"/>
		</mask>
		<g mask="url(#mask6_10928_77533)">
			<path d="M84.24 6.37939C80.6261 6.37939 77.9062 9.05587 77.9062 12.5756C77.9062 16.0954 80.6261 18.7718 84.24 18.7718C86.4382 18.7718 88.4129 17.7086 89.4933 15.9487L86.6618 14.3722C86.1774 15.1788 85.246 15.6554 84.1655 15.6554C82.4144 15.6554 81.1477 14.3722 81.1477 12.6123C81.1477 10.8524 82.4144 9.56917 84.1655 9.56917C85.246 9.56917 86.1402 10.0458 86.6618 10.8524L89.4933 9.23919C88.4501 7.44265 86.4382 6.37939 84.24 6.37939Z" fill="#A2A8B7"/>
		</g>
		<mask id="mask7_10928_77533" style="mask-type:luminance" maskUnits="userSpaceOnUse" x="0" y="0" width="102" height="29">
			<path d="M101.452 0H0V28.6713H101.452V0Z" fill="white"/>
		</mask>
		<g mask="url(#mask7_10928_77533)">
			<path d="M98.2102 18.3319H101.452V11.0724C101.452 7.73601 99.2534 6.26945 97.0552 6.26945C95.5649 6.26945 94.3727 6.78274 93.702 7.66268L93.2922 8.21264V1.75977H90.0508V18.3319H93.2922V11.9157C93.2922 10.1925 94.2236 9.16591 95.8257 9.16591C97.2787 9.16591 98.2102 10.1192 98.2102 11.6224V18.3319Z" fill="#A2A8B7"/>
		</g>
		<mask id="mask8_10928_77533" style="mask-type:luminance" maskUnits="userSpaceOnUse" x="0" y="0" width="102" height="29">
			<path d="M101.452 0H0V28.6713H101.452V0Z" fill="white"/>
		</mask>
		<g mask="url(#mask8_10928_77533)">
			<path d="M43.4418 4.36309C43.4418 5.20636 42.7712 5.86632 41.9143 5.86632C41.0574 5.86632 40.3867 5.20636 40.3867 4.36309C40.3867 3.51982 41.0574 2.85986 41.9143 2.85986C42.7712 2.85986 43.4418 3.51982 43.4418 4.36309Z" fill="#A2A8B7"/>
		</g>
		<path d="M20.8649 25.7016C14.0096 29.2213 5.70113 26.2882 2.57149 19.3954C2.49698 19.2121 2.42246 19.0287 2.34795 18.8088C2.34795 18.7721 2.34795 18.7354 2.31069 18.6988C2.1244 18.1855 1.97537 17.6722 1.8636 17.1589C1.8636 17.1222 1.8636 17.1222 1.82634 17.0855C1.56554 15.8756 1.49102 14.6291 1.56554 13.3458C1.64005 12.3925 0.112495 12.3925 0.0379795 13.3458C-0.0365356 14.7757 0.0752371 16.1323 0.373297 17.4888C0.373297 17.5255 0.373297 17.5255 0.373297 17.5622C0.373297 17.5988 0.373297 17.6355 0.410555 17.6355V17.6722C0.48507 17.9288 0.522328 18.1488 0.596843 18.4054C0.78313 18.9921 0.969418 19.5787 1.19296 20.1287C4.69517 27.7914 14.0841 30.8712 21.6101 26.9848C22.467 26.5449 21.7219 25.2616 20.8649 25.7016Z" fill="#A2A8B7"/>
		<path d="M11.3642 0.330011C10.3955 0.513332 10.8053 1.97989 11.7368 1.79657C18.9275 0.330011 25.8946 4.76636 27.4594 11.8425C27.683 12.7958 29.136 12.3925 28.9497 11.4759C27.1986 3.55645 19.3373 -1.31987 11.3642 0.330011Z" fill="#A2A8B7"/>
		<path d="M27.7206 14.3723C27.6833 16.6822 27.0872 18.8453 25.9322 20.8985C25.4479 21.7418 26.7519 22.4751 27.2363 21.6318C28.5403 19.3953 29.1736 16.9388 29.2109 14.3723C29.2482 13.3824 27.7579 13.3824 27.7206 14.3723Z" fill="#A2A8B7"/>
		<path d="M23.8455 18.662C21.9453 22.4017 17.996 24.7482 13.6742 24.3816C9.79939 24.0516 6.37169 21.4851 4.99316 17.892C3.65189 14.3356 4.47156 10.2292 7.11684 7.47942C9.79939 4.65629 13.9722 3.59303 17.698 4.76628C21.9453 6.08619 24.7397 10.0459 24.8142 14.3356C24.8142 15.3255 26.379 15.3255 26.379 14.3356C26.3045 9.93591 23.8082 5.82954 19.7099 3.88634C15.6488 1.97981 10.7681 2.49311 7.26587 5.24291C3.72641 8.02938 2.08708 12.6491 3.09303 16.9754C4.09898 21.2284 7.60119 24.6749 11.9231 25.6648C17.2882 26.8747 22.765 24.2349 25.1868 19.4319C25.6711 18.5153 24.2926 17.782 23.8455 18.662Z" fill="#A2A8B7"/>
		<path d="M24.4785 16.6821C24.4785 17.1221 24.8511 17.4521 25.2609 17.4521C25.708 17.4521 26.0433 17.0854 26.0433 16.6821C26.0433 16.2422 25.6708 15.9122 25.2609 15.9122C24.8511 15.8755 24.4785 16.2422 24.4785 16.6821Z" fill="#A2A8B7"/>
		<path d="M14.6412 5.46305C13.6352 5.42638 13.6352 6.96627 14.6412 7.00294C20.7887 7.14959 24.3281 14.1158 20.4906 18.9554C19.8945 19.7254 20.975 20.8253 21.6083 20.0553C23.8438 17.2322 24.3654 13.4558 22.6516 10.2294C21.0867 7.25959 17.9571 5.53637 14.6412 5.46305Z" fill="#A2A8B7"/>
		<path d="M13.1898 6.45281C13.1898 6.01284 12.8172 5.68286 12.4074 5.68286C11.9603 5.68286 11.625 6.0495 11.625 6.45281C11.625 6.89278 11.9976 7.22275 12.4074 7.22275C12.8545 7.22275 13.1898 6.85611 13.1898 6.45281Z" fill="#A2A8B7"/>
	</g>
	<rect x="128.506" y="2.16138" width="34.4938" height="24.3485" rx="1.3527" fill="white"/>
	<mask id="mask9_10928_77533" style="mask-type:luminance" maskUnits="userSpaceOnUse" x="128" y="2" width="35" height="25">
		<rect x="128.506" y="2.16138" width="34.4938" height="24.3485" rx="1.3527" fill="white"/>
	</mask>
	<g mask="url(#mask9_10928_77533)">
		<rect x="128.506" y="2.16138" width="34.4938" height="24.3485" fill="#0A17A7"/>
		<path fill-rule="evenodd" clip-rule="evenodd" d="M136.728 18.3939L125.09 26.1517L126.927 28.8432L141.647 19.0311V28.1333H149.86V19.031L164.58 28.8432L166.417 26.1518L154.779 18.3939H163.001V10.2777H154.779L166.418 2.51982L164.581 -0.171631L149.86 9.64069V0.538254H141.647V9.6406L126.927 -0.171615L125.09 2.51983L136.728 10.2777H128.507V18.3939H136.728Z" fill="white"/>
		<path d="M151.504 9.8704L167.107 -0.273438" stroke="#DB1F35" stroke-width="0.450899" stroke-linecap="round"/>
		<path d="M153.16 18.837L167.147 28.1538" stroke="#DB1F35" stroke-width="0.450899" stroke-linecap="round"/>
		<path d="M138.369 9.84378L123.779 0.126953" stroke="#DB1F35" stroke-width="0.450899" stroke-linecap="round"/>
		<path d="M139.951 18.7244L123.779 29.3228" stroke="#DB1F35" stroke-width="0.450899" stroke-linecap="round"/>
		<path fill-rule="evenodd" clip-rule="evenodd" d="M128.506 16.7705H143.289V26.5099H148.217V16.7705H163V11.9008H148.217V2.16138H143.289V11.9008H128.506V16.7705Z" fill="#E6273E"/>
	</g>
	<defs>
		<clipPath id="clip0_10928_77533">
			<rect width="101.452" height="28.6713" fill="white"/>
		</clipPath>
	</defs>
</svg>
