<svg width="42" height="42" viewBox="0 0 42 42" fill="none" xmlns="http://www.w3.org/2000/svg">
	<circle cx="21" cy="21" r="21" fill="#FFFB1F"/>
	<path d="M14.4004 20.25C13.9862 20.25 13.6504 20.5858 13.6504 21C13.6504 21.4142 13.9862 21.75 14.4004 21.75L14.4004 20.25ZM28.1307 21.5303C28.4236 21.2374 28.4236 20.7626 28.1307 20.4697L23.3578 15.6967C23.0649 15.4038 22.59 15.4038 22.2971 15.6967C22.0042 15.9896 22.0042 16.4645 22.2971 16.7574L26.5397 21L22.2971 25.2426C22.0042 25.5355 22.0042 26.0104 22.2971 26.3033C22.59 26.5962 23.0649 26.5962 23.3578 26.3033L28.1307 21.5303ZM14.4004 21.75L27.6004 21.75L27.6004 20.25L14.4004 20.25L14.4004 21.75Z" fill="#191B20"/>
</svg>
