<svg width="42" height="42" viewBox="0 0 42 42" fill="none" xmlns="http://www.w3.org/2000/svg">
    <circle cx="21" cy="21" r="21" fill="#2F3035"/>
    <path d="M29.1551 21.0664C28.6208 20.3754 27.8145 19.9008 26.7362 19.6429C28.1093 18.9425 28.7127 17.7537 28.547 16.0765C28.4917 15.4682 28.3236 14.9411 28.0424 14.4943C27.761 14.0474 27.3813 13.6881 26.9018 13.4163C26.4227 13.1442 25.9016 12.937 25.3398 12.7942C24.7778 12.6514 24.1326 12.5477 23.4046 12.4833V9H21.2762V12.3865C20.9076 12.3865 20.3455 12.3957 19.59 12.4141V9H17.4612V12.4833C17.157 12.4925 16.7102 12.4972 16.1205 12.4972L13.1902 12.4833V14.7502H14.7244C15.4247 14.7502 15.8348 15.0636 15.9545 15.6901V19.6572C16.0468 19.6572 16.1205 19.6619 16.1758 19.6711H15.9545V25.2275C15.8809 25.6973 15.6137 25.9325 15.1529 25.9325H13.6188L13.1903 28.462H15.9548C16.1299 28.462 16.3832 28.4644 16.715 28.4685C17.0467 28.4732 17.2954 28.4755 17.4613 28.4755V32.0001H19.5904V28.5169C19.9773 28.5264 20.5394 28.5309 21.2766 28.5309V32.0001H23.4051V28.4755C24.1609 28.4387 24.8312 28.37 25.4161 28.2682C26.0013 28.1665 26.5612 28.0078 27.0956 27.7911C27.6299 27.5747 28.0767 27.305 28.436 26.9825C28.7956 26.6602 29.0925 26.25 29.3279 25.7523C29.5625 25.2546 29.7124 24.6787 29.7767 24.0243C29.897 22.7437 29.6896 21.7576 29.1551 21.0664ZM19.6314 14.9018C19.6959 14.9018 19.8779 14.8995 20.1774 14.8948C20.477 14.8901 20.7257 14.8855 20.9238 14.8809C21.122 14.8763 21.3892 14.8879 21.7257 14.9155C22.062 14.9431 22.3453 14.9801 22.5756 15.0261C22.8059 15.0721 23.0596 15.1481 23.3358 15.2541C23.6125 15.36 23.8335 15.4891 23.9991 15.6411C24.1651 15.7931 24.3056 15.9867 24.4206 16.2217C24.5359 16.4566 24.5935 16.7262 24.5935 17.0302C24.5935 17.2882 24.5522 17.5233 24.4693 17.7353C24.3866 17.9473 24.2619 18.1247 24.0962 18.2675C23.9305 18.4104 23.7597 18.5349 23.5846 18.6408C23.4097 18.7467 23.186 18.832 22.9143 18.8964C22.6426 18.9609 22.4053 19.0116 22.2027 19.0484C21.9999 19.0853 21.7466 19.1107 21.4425 19.1245C21.1383 19.1382 20.9078 19.1476 20.7513 19.1522C20.5945 19.1567 20.3804 19.1567 20.1084 19.1522C19.8364 19.1476 19.6777 19.1452 19.6315 19.1452V14.9018H19.6314V14.9018ZM25.4439 24.3147C25.3561 24.5267 25.2434 24.7112 25.1053 24.8679C24.9669 25.0243 24.7848 25.1627 24.5592 25.2823C24.3336 25.4023 24.1145 25.4988 23.9027 25.5726C23.6907 25.6466 23.4349 25.7107 23.1357 25.7662C22.8358 25.8216 22.5734 25.8605 22.3474 25.8837C22.1217 25.9068 21.8523 25.9251 21.5389 25.9391C21.2257 25.9526 20.9813 25.9596 20.8063 25.9596C20.6312 25.9596 20.41 25.9571 20.1428 25.9526C19.8754 25.9483 19.705 25.946 19.6313 25.946V21.2738C19.7049 21.2738 19.9238 21.2693 20.2878 21.2599C20.652 21.2507 20.949 21.2463 21.1794 21.2463C21.4097 21.2463 21.7278 21.2599 22.1334 21.2878C22.5386 21.3152 22.8796 21.3565 23.1563 21.4118C23.4326 21.4672 23.7342 21.5523 24.0615 21.6676C24.3886 21.7828 24.6536 21.9233 24.8564 22.0891C25.0592 22.2553 25.2296 22.4669 25.3677 22.725C25.5062 22.9829 25.5753 23.2779 25.5753 23.6097C25.5753 23.868 25.5316 24.1026 25.4439 24.3147Z" fill="white"/>
</svg>
