<svg width="38" height="38" viewBox="0 0 38 38" fill="none" xmlns="http://www.w3.org/2000/svg">
    <path d="M19 38C29.4934 38 38 29.4934 38 19C38 8.50659 29.4934 0 19 0C8.50659 0 0 8.50659 0 19C0 29.4934 8.50659 38 19 38Z" fill="#2992FA"/>
    <path d="M19.4189 8.15479C22.4693 12.4122 25.4912 16.6926 28.5416 20.9558C25.495 23.4767 22.4579 26.0054 19.4303 28.5417C16.3456 26.015 13.2781 23.4767 10.1934 20.9558C13.2781 16.6984 16.3532 12.4314 19.4189 8.15479V8.15479ZM14.0035 20.4596C15.3459 21.5557 16.6769 22.6691 18.0251 23.7536C18.0308 20.7942 18.0365 17.8291 18.0194 14.8697C16.6998 16.7445 15.3345 18.5905 14.0035 20.4596ZM20.8184 14.9158C20.8127 17.8579 20.8127 20.8 20.8184 23.7421C22.1209 22.6287 23.4461 21.5557 24.7543 20.4481C23.4404 18.6079 22.1209 16.7676 20.8184 14.9158V14.9158Z" fill="white"/>
</svg>
