<svg width="38" height="38" viewBox="0 0 38 38" fill="none" xmlns="http://www.w3.org/2000/svg">
    <path d="M19 38C29.4934 38 38 29.4934 38 19C38 8.50659 29.4934 0 19 0C8.50659 0 0 8.50659 0 19C0 29.4934 8.50659 38 19 38Z" fill="#2992FA"/>
    <path fill-rule="evenodd" clip-rule="evenodd" d="M4.08584 17.9396C4.08022 18.1106 4.07739 18.2822 4.07739 18.4544C4.07739 18.4545 4.07739 18.4545 4.07739 18.4546C4.07739 18.4612 4.0774 18.4678 4.07741 18.4744C4.0774 18.4677 4.07739 18.4611 4.07739 18.4544C4.07739 18.2822 4.08022 18.1106 4.08584 17.9396ZM4.08584 17.9396C4.34656 10.0074 10.6101 3.59174 18.4789 3.08974C10.6089 3.5917 4.34653 10.0064 4.08584 17.9396ZM19.4738 3.05811C19.4738 3.05811 19.4737 3.05811 19.4736 3.05811C19.1394 3.05811 18.8078 3.06876 18.4789 3.08974C18.8078 3.06876 19.1396 3.05811 19.4738 3.05811ZM34.7605 20.3025C34.833 19.6966 34.8703 19.08 34.8703 18.4546C34.8703 9.95133 27.9771 3.05811 19.4738 3.05811C27.9758 3.05823 34.8703 9.95219 34.8704 18.4543C34.8704 19.0798 34.8331 19.6966 34.7605 20.3025ZM4.07745 18.4982C4.08215 20.1818 4.35722 21.8014 4.86141 23.3176H9.46615V10.3634L19.4738 20.3711L29.4813 10.3634V23.3174H34.086C34.4076 22.3511 34.636 21.3427 34.7605 20.3025C33.8476 27.9345 27.3517 33.851 19.4738 33.851C10.9852 33.851 4.10101 26.9814 4.07745 18.4982ZM17.1724 22.6719L12.8048 18.3042V26.4553H6.31738C9.02018 30.8894 13.9015 33.8504 19.4733 33.8504C25.0451 33.8504 29.9269 30.8894 32.6293 26.4553H26.142V18.3041L21.7745 22.6716L19.4734 24.9725L17.1726 22.6717H17.1724V22.6719Z" fill="white"/>
    <rect x="32.6191" y="21.4062" width="3.05804" height="6.11608" fill="#2992FA"/>
    <rect x="4.07739" y="21.4062" width="3.05804" height="6.11608" fill="#2992FA"/>
</svg>
