<svg width="38" height="38" viewBox="0 0 38 38" fill="none" xmlns="http://www.w3.org/2000/svg">
    <path d="M19 38C29.4934 38 38 29.4934 38 19C38 8.50659 29.4934 0 19 0C8.50659 0 0 8.50659 0 19C0 29.4934 8.50659 38 19 38Z" fill="#2992FA"/>
    <path d="M25.7221 23.23C25.5769 23.4512 25.4272 23.6695 25.2733 23.8849C25.1988 23.0147 24.9463 22.1802 24.5182 21.3953L24.5175 21.394C23.9697 20.3969 23.2031 19.6002 22.2277 19.0016C22.1746 18.9649 22.122 18.9343 22.0866 18.9137L22.081 18.9104C22.0349 18.8836 22.013 18.8704 21.9962 18.8583L21.9833 18.8492L21.97 18.8408C20.8369 18.134 20.1548 17.1501 19.9115 15.8563C19.4787 13.5406 20.9498 11.2991 23.271 10.7461C24.1007 10.5546 24.8974 10.5752 25.6982 10.8245L25.6982 10.8245L25.7003 10.8251C26.3987 11.039 27.0734 11.3273 27.7623 11.6468L27.7623 11.6468C28.2032 11.8513 28.6281 12.0738 29.06 12.3105C29.0541 12.8257 29.023 13.3519 28.9843 13.8775C28.9079 14.7222 28.7765 15.5699 28.5998 16.3957C28.06 18.8521 27.1068 21.1226 25.7222 23.2298L25.7221 23.23Z" fill="white" stroke="#2992FA"/>
    <path d="M19.2988 9.67801C19.7114 9.68648 20.2414 9.7187 20.7452 9.7616C19.321 10.7036 18.3289 12.1726 17.9946 13.8831L17.9945 13.8831L17.9928 13.8927C17.9319 14.2398 17.8977 14.5857 17.8856 14.9299L17.8856 14.9299L17.8854 14.9369C17.8755 15.4054 17.8316 15.8429 17.7044 16.2584L17.7043 16.2583L17.702 16.2666C17.2567 17.8165 15.9728 19.0281 14.3816 19.3913C12.2883 19.8605 10.1822 18.8382 9.27179 16.9263C9.22749 16.8295 9.19944 16.7461 9.18465 16.6718L9.18298 16.6635L9.18104 16.6552C9.01611 15.9528 8.8973 15.2478 8.80757 14.525C8.7162 13.7831 8.66221 13.0424 8.6555 12.3053C9.98945 11.5642 11.3821 10.9792 12.8428 10.5488C14.9554 9.92854 17.0983 9.63612 19.2988 9.67801Z" fill="white" stroke="#2992FA"/>
    <path d="M17.8978 29.1726L17.8978 29.1726C16.7001 28.3804 15.5903 27.4658 14.5786 26.4441C13.5683 25.4193 12.6681 24.3018 11.8975 23.0966L11.8975 23.0966L11.8961 23.0943C11.4282 22.371 11.0112 21.6263 10.6442 20.8559C10.6841 20.8736 10.7242 20.8909 10.7646 20.9076C11.3769 21.1689 12.0231 21.3524 12.7125 21.412C14.0854 21.5446 15.3784 21.2653 16.5904 20.5942C17.1219 20.3014 17.6928 20.1106 18.2935 20.0283C20.4175 19.7696 22.5197 21.0161 23.1758 23.1729C23.51 24.2813 23.4116 25.3519 22.8909 26.4129C22.8597 26.4747 22.8331 26.529 22.8086 26.579C22.7629 26.6723 22.7243 26.7511 22.676 26.8372L22.6759 26.8371L22.6698 26.8487C22.6496 26.8869 22.636 26.9101 22.6245 26.9266C22.6182 26.9356 22.6144 26.9399 22.6132 26.9412L22.6014 26.9508L22.5889 26.9626C21.4495 28.0316 20.2008 28.9712 18.8489 29.7664C18.7917 29.734 18.7228 29.6938 18.6426 29.6454C18.4306 29.5178 18.1695 29.3524 17.8978 29.1726Z" fill="white" stroke="#2992FA"/>
</svg>
