<svg width="38" height="38" viewBox="0 0 38 38" fill="none" xmlns="http://www.w3.org/2000/svg">
    <path d="M19 38C29.4934 38 38 29.4934 38 19C38 8.50659 29.4934 0 19 0C8.50659 0 0 8.50659 0 19C0 29.4934 8.50659 38 19 38Z" fill="#2992FA"/>
    <path d="M14.6339 19.663C12.1844 19.663 10.1987 21.6506 10.1987 24.1023C10.1987 26.5541 12.1846 28.5416 14.6341 28.5416C17.0836 28.5416 19.0695 26.5541 19.0695 24.1023C19.0695 21.6506 17.0838 19.663 14.6341 19.663H14.6339ZM14.6339 27.1988C12.9269 27.1988 11.5419 25.8133 11.5419 24.1039C11.5419 22.3945 12.9263 21.0089 14.6339 21.0089C16.3415 21.0089 17.7261 22.3945 17.7261 24.1039C17.7232 25.8117 16.3405 27.1967 14.6339 27.1988ZM24.1062 10.1936C21.6567 10.1936 19.6708 12.1811 19.6708 14.6328C19.6708 17.0846 21.6567 19.0721 24.1062 19.0721C26.5557 19.0721 28.5416 17.0846 28.5416 14.6328C28.5416 12.1811 26.5561 10.1934 24.1064 10.1934L24.1062 10.1936ZM24.1062 17.7293C22.3992 17.7293 21.0142 16.3438 21.0142 14.6344C21.0142 12.925 22.398 11.5394 24.1064 11.5394C25.8148 11.5394 27.1986 12.925 27.1986 14.6344C27.1957 16.343 25.8121 17.7262 24.1064 17.7291L24.1062 17.7293ZM14.6339 10.1934C12.5224 10.192 10.702 11.6805 10.2823 13.7519C9.86265 15.8233 10.9596 17.9037 12.9039 18.7262C13.8497 19.1227 14.9038 19.1806 15.8875 18.8902C16.8712 18.5998 17.7241 17.9788 18.3016 17.1326C18.8791 16.2864 19.1457 15.2669 19.0562 14.247C18.9667 13.227 18.5266 12.2694 17.8105 11.5362H19.0682V10.1934H14.6339ZM17.7263 14.6326C17.7263 16.3419 16.3419 17.7276 14.6341 17.7276C12.9263 17.7276 11.5421 16.3419 11.5421 14.6326C11.5421 12.9234 12.9263 11.5383 14.6339 11.5383C16.3415 11.5383 17.7248 12.9244 17.7278 14.6332H17.7263V14.6326Z" fill="white"/>
</svg>
