<svg width="38" height="38" viewBox="0 0 38 38" fill="none" xmlns="http://www.w3.org/2000/svg">
    <path d="M19 38C29.4934 38 38 29.4934 38 19C38 8.50659 29.4934 0 19 0C8.50659 0 0 8.50659 0 19C0 29.4934 8.50659 38 19 38Z" fill="#2992FA"/>
    <path d="M29.2944 25.5875C29.1526 25.5875 29.0255 25.6138 28.9159 25.6563C28.7949 25.7035 28.687 25.7671 28.5977 25.848L26.6971 24.1857L28.1585 19.6124C28.1617 19.6124 28.1744 19.6124 28.1896 19.6124C28.1928 19.6124 28.2007 19.6124 28.2104 19.6124C28.4015 19.6124 28.5739 19.5414 28.7255 19.398C28.8714 19.2562 28.9451 19.0745 28.9451 18.8542C28.9451 18.6457 28.8713 18.4671 28.7255 18.318C28.5738 18.1761 28.402 18.1037 28.2104 18.1037C28.1993 18.1037 28.1896 18.1037 28.1896 18.1037C28.1738 18.1037 28.1636 18.1037 28.1585 18.1037L26.8788 14.1048C26.9791 14.0455 27.0626 13.9572 27.1286 13.8443C27.1873 13.7429 27.2215 13.62 27.2272 13.4766C27.2272 13.2681 27.1535 13.0895 27.0076 12.9404C26.8602 12.7927 26.6837 12.7182 26.4776 12.7182C26.3867 12.723 26.2995 12.7392 26.2201 12.7655C26.1328 12.797 26.0591 12.8439 26.0004 12.9032L22.6233 10.4289C22.6392 10.3868 22.6544 10.3448 22.6701 10.2986C22.6733 10.2565 22.6749 10.2029 22.6749 10.1451C22.6749 9.93662 22.6011 9.75802 22.4553 9.60891C22.3036 9.46126 22.1318 9.38672 21.9402 9.38672C21.7585 9.39795 21.6012 9.45187 21.4709 9.54744C21.3292 9.65465 21.2419 9.79433 21.2134 9.96135H17.1169C17.0805 9.81001 16.9938 9.67404 16.8593 9.55533C16.7228 9.44394 16.5696 9.38672 16.4051 9.38672C16.1932 9.38672 16.0151 9.46134 15.875 9.60891C15.7275 9.758 15.6554 9.93667 15.6554 10.1451C15.6554 10.2024 15.6586 10.2544 15.6713 10.2986C15.6824 10.3458 15.692 10.3885 15.7076 10.4289L12.3305 12.9032C12.2584 12.8439 12.1885 12.796 12.1184 12.7655C12.0313 12.7392 11.9423 12.7235 11.8534 12.7182C11.6413 12.7182 11.4634 12.7928 11.3233 12.9404C11.1756 13.0896 11.1038 13.2681 11.1038 13.4766C11.1038 13.6199 11.136 13.7429 11.2021 13.8443C11.2608 13.9573 11.346 14.0455 11.452 14.1048H11.4663L10.1866 18.0806C10.1752 18.0806 10.1679 18.0806 10.1638 18.0806C10.1487 18.0806 10.1373 18.0806 10.1336 18.0806C9.92161 18.0806 9.74369 18.1553 9.60361 18.3028C9.45595 18.4521 9.38403 18.6301 9.38403 18.8391C9.38403 19.0534 9.456 19.2336 9.60361 19.3753C9.74368 19.5246 9.92161 19.5975 10.1336 19.5975C10.1336 19.5975 10.1375 19.5975 10.1487 19.5975C10.1581 19.5975 10.1659 19.5975 10.1716 19.5975L11.4664 23.6116C11.349 23.6789 11.2601 23.7667 11.2013 23.8722C11.135 23.9794 11.103 24.1038 11.103 24.2399C11.103 24.4542 11.1748 24.6343 11.3225 24.7761C11.4626 24.9254 11.6406 24.9983 11.8526 24.9983C11.9416 24.9983 12.0305 24.9822 12.1176 24.9511C12.1878 24.9248 12.2577 24.8859 12.3297 24.8286L15.7068 27.2876C15.691 27.335 15.6808 27.3833 15.6705 27.4258C15.6594 27.473 15.6546 27.5256 15.6546 27.5712C15.6546 27.784 15.7268 27.9636 15.8742 28.1075C16.0145 28.2551 16.1925 28.3297 16.4043 28.3297C16.5689 28.3297 16.7226 28.274 16.8586 28.1689C16.9931 28.0712 17.0803 27.9336 17.1161 27.755H21.2126C21.2386 27.9331 21.3278 28.0712 21.4701 28.1689C21.601 28.274 21.7577 28.3297 21.9395 28.3297C22.1305 28.3297 22.3029 28.255 22.4545 28.1075C22.6005 27.9642 22.6741 27.7839 22.6741 27.5712C22.6741 27.524 22.671 27.4756 22.6694 27.4258C22.6535 27.3838 22.6383 27.3376 22.6226 27.2876L26.4768 24.4763L28.3622 26.1233C28.3103 26.2 28.2733 26.2882 28.2484 26.3838C28.2173 26.491 28.2069 26.5923 28.2121 26.6826C28.2073 26.9852 28.3124 27.2381 28.5304 27.4488C28.7365 27.6615 28.9924 27.7707 29.2951 27.7707C29.5869 27.7707 29.8403 27.6614 30.0523 27.4488C30.2585 27.2381 30.3649 26.9855 30.3706 26.6826C30.3658 26.3822 30.2589 26.1216 30.0523 25.9013C29.8405 25.6928 29.5866 25.5872 29.2951 25.5872L29.2944 25.5875ZM26.6064 14.4414L27.8103 18.2257C27.7231 18.2782 27.655 18.3424 27.6058 18.4174C27.5491 18.4904 27.5092 18.5745 27.4847 18.6701H26.8638C26.8327 18.5383 26.775 18.4248 26.6894 18.3328C26.5928 18.243 26.4869 18.17 26.3711 18.1185L26.6064 14.4414ZM26.258 14.1961L26.0005 18.103C25.9894 18.103 25.9797 18.103 25.9797 18.103C25.9638 18.1078 25.9537 18.1142 25.9486 18.1191L24.4115 15.1621C24.4852 15.1064 24.5497 15.0239 24.601 14.9168C24.6425 14.8211 24.6633 14.7156 24.669 14.6027C24.669 14.5995 24.6658 14.5817 24.6643 14.5491C24.6532 14.528 24.6484 14.5019 24.6595 14.4724L25.9014 13.9361C25.9429 13.9934 25.9959 14.0454 26.068 14.0895C26.1148 14.1468 26.1776 14.1778 26.2497 14.1815L26.258 14.1961ZM22.0706 18.1183C22.0595 18.1231 22.0446 18.1215 22.0177 18.1135C21.9866 18.1103 21.961 18.1087 21.9418 18.1087C21.9055 18.1087 21.8696 18.1119 21.8359 18.1135C21.7995 18.1247 21.7621 18.1345 21.7221 18.1345L19.6776 14.5341C19.7139 14.5078 19.7457 14.4631 19.7763 14.4118C19.8023 14.3697 19.8293 14.3198 19.8594 14.2736L23.1684 14.6949C23.1716 14.8021 23.2047 14.8924 23.2593 14.9633C23.3009 15.0515 23.3653 15.1225 23.441 15.1776L22.0706 18.1183ZM23.7744 15.3452C23.7902 15.3452 23.8159 15.3484 23.8502 15.35C23.8661 15.3613 23.8865 15.3661 23.9182 15.3548C23.9443 15.3597 23.9712 15.3581 24.0014 15.35C24.0274 15.3468 24.058 15.334 24.1 15.3186L25.6372 18.2832C25.5707 18.3405 25.5218 18.3997 25.4933 18.4597C25.4465 18.5269 25.4211 18.5958 25.4175 18.6666H22.6612C22.6301 18.5957 22.5989 18.5269 22.5703 18.4597C22.5288 18.4003 22.4773 18.3409 22.4187 18.2832L23.7744 15.3452ZM21.4119 18.3175C21.36 18.37 21.323 18.4226 21.2981 18.4782C21.267 18.5355 21.2394 18.5991 21.215 18.67H17.1185C17.1074 18.599 17.0822 18.5359 17.0427 18.4782C17.0011 18.4225 16.9611 18.369 16.9216 18.3175L18.9813 14.717C19.0073 14.717 19.0343 14.7203 19.0644 14.7219C19.0904 14.7331 19.1252 14.7379 19.1704 14.7267C19.2067 14.7315 19.2384 14.7299 19.269 14.7219C19.2951 14.7187 19.3257 14.717 19.3677 14.717L21.4119 18.3175ZM16.6112 18.1337C16.5644 18.1305 16.5297 18.1224 16.5052 18.1126C16.4741 18.1094 16.4408 18.1078 16.4066 18.1078C16.3755 18.1078 16.3499 18.111 16.3307 18.1126C16.2996 18.1239 16.2757 18.1287 16.2627 18.1175L14.8922 15.1758C14.9623 15.1201 15.0224 15.0491 15.0739 14.9615C15.1154 14.8905 15.144 14.8007 15.1648 14.6931L18.4738 14.2487C18.4998 14.3217 18.5268 14.3753 18.5569 14.4094C18.5777 14.4619 18.6099 14.5035 18.6556 14.5319L16.6112 18.1337ZM15.9297 18.2871C15.8632 18.3343 15.8123 18.3885 15.778 18.4478C15.7262 18.5204 15.6986 18.5955 15.6949 18.67H12.9538C12.9237 18.6049 12.8913 18.5381 12.8629 18.4709C12.8214 18.4116 12.7701 18.3543 12.7114 18.3023L14.2486 15.3454C14.2746 15.3454 14.3015 15.3486 14.3317 15.3502C14.3577 15.3614 14.3883 15.3662 14.4304 15.355C14.4511 15.3598 14.4771 15.3582 14.5062 15.3502C14.527 15.347 14.553 15.3454 14.582 15.3454L15.9297 18.2871ZM12.9539 19.0455H15.6722C15.693 19.1338 15.7273 19.2083 15.7782 19.2677C15.8145 19.3349 15.8634 19.3886 15.9299 19.4284L14.5593 22.3701C14.5482 22.3701 14.5333 22.3701 14.5064 22.3701C14.4753 22.3701 14.4497 22.3701 14.4305 22.3701C14.389 22.3701 14.3568 22.3701 14.3319 22.3701C14.3008 22.3749 14.2732 22.3861 14.2487 22.3911L12.7116 19.4111C12.7703 19.3691 12.8214 19.3097 12.8631 19.2425C12.8917 19.1831 12.9237 19.1159 12.954 19.0434L12.9539 19.0455ZM16.2629 19.597C16.2787 19.597 16.2992 19.6003 16.3309 19.6019C16.3517 19.6179 16.3776 19.6229 16.4067 19.6067C16.4431 19.6179 16.4769 19.6115 16.5127 19.6019C16.5491 19.5987 16.5808 19.5906 16.6114 19.5808L18.6558 23.1659C18.6092 23.208 18.5763 23.2521 18.5572 23.2963C18.5261 23.3536 18.4984 23.4019 18.474 23.4417L15.165 23.0204C15.1443 22.9305 15.1132 22.8403 15.0742 22.7525C15.0223 22.6779 14.9625 22.6049 14.8924 22.5382L16.2629 19.597ZM16.9216 19.398C16.9632 19.3559 17.0011 19.2981 17.0427 19.2372C17.0842 19.1815 17.1071 19.1185 17.1185 19.0455H21.215C21.2182 19.1181 21.2461 19.1816 21.2908 19.2372C21.3271 19.2987 21.3666 19.3539 21.4119 19.398L19.3674 22.9831C19.3363 22.9879 19.3051 22.9863 19.2765 22.9783C19.2402 22.9671 19.2048 22.9623 19.1705 22.9623C19.1239 22.9623 19.089 22.9671 19.0646 22.9783C19.0335 22.9895 19.0002 22.9993 18.9659 22.9993V22.9833L16.9216 19.398ZM21.7224 19.5818C21.7639 19.593 21.7982 19.6028 21.8283 19.6028C21.8544 19.6189 21.885 19.6239 21.927 19.6076C21.953 19.6189 21.9878 19.6125 22.0179 19.6028C22.0387 19.5996 22.0647 19.598 22.0937 19.598H22.073L23.4435 22.5397C23.3713 22.6069 23.3127 22.6795 23.2691 22.754C23.2223 22.8423 23.1969 22.9321 23.1932 23.0219L19.8615 23.4431C19.8304 23.4011 19.8065 23.3549 19.7935 23.2976C19.7624 23.2555 19.7311 23.2093 19.7026 23.1672L21.7224 19.5818ZM22.4038 19.4284C22.4588 19.3863 22.5098 19.3343 22.5555 19.2676C22.597 19.2083 22.6313 19.1336 22.6614 19.0455H25.4177C25.4437 19.118 25.4727 19.1853 25.5086 19.2445C25.5346 19.3118 25.5881 19.3633 25.6602 19.398L24.0852 22.3933C24.0541 22.382 24.0265 22.3772 24.0021 22.3722C23.971 22.3722 23.9434 22.3722 23.9189 22.3722C23.8879 22.3722 23.8639 22.3722 23.8509 22.3722C23.8146 22.3722 23.7886 22.3722 23.7751 22.3722L22.4038 19.4284ZM22.4197 10.7184L25.7817 13.2004C25.7658 13.2424 25.7557 13.2865 25.7506 13.3307C25.7347 13.388 25.7298 13.4363 25.7298 13.4762C25.725 13.5077 25.7266 13.5287 25.7346 13.5377C25.7457 13.5587 25.7504 13.5798 25.7504 13.6066V13.5855L24.501 14.1448C24.4288 14.0644 24.3459 13.9914 24.2513 13.9305C24.1453 13.8748 24.0338 13.8464 23.918 13.8464C23.8869 13.8464 23.8629 13.8464 23.8499 13.8464C23.8136 13.8512 23.7876 13.8624 23.7741 13.8674H23.7899L22.4042 10.7419C22.4042 10.7467 22.4042 10.7451 22.4042 10.7371C22.4042 10.7259 22.4074 10.721 22.4201 10.721L22.4197 10.7184ZM21.6549 10.8487C21.6965 10.8697 21.7401 10.8854 21.7915 10.8854C21.8331 10.8967 21.8767 10.9015 21.9281 10.9015C21.9489 10.9127 21.9747 10.9063 22.0039 10.8967C22.0198 10.8935 22.0402 10.8918 22.072 10.8918L23.4652 14.0173C23.3988 14.0541 23.3499 14.0998 23.3213 14.1555C23.2798 14.2128 23.2476 14.2722 23.2227 14.3315L19.8986 13.8871C19.8938 13.822 19.8778 13.7547 19.8518 13.688C19.8207 13.6229 19.7874 13.5656 19.7536 13.5194L21.6549 10.8487ZM17.1192 10.3355H21.2157C21.2189 10.388 21.2365 10.4369 21.2687 10.4811C21.2947 10.5384 21.3238 10.5862 21.3596 10.6266L19.4212 13.2695C19.3848 13.2663 19.3474 13.2583 19.3074 13.2485C19.2555 13.2453 19.2108 13.2436 19.1708 13.2436C19.1142 13.2436 19.0628 13.2469 19.0192 13.2485C18.9724 13.2597 18.9303 13.2748 18.8903 13.2957V13.2746L16.9746 10.6317C17.0006 10.5897 17.0354 10.5455 17.0655 10.4935C17.0915 10.4568 17.1071 10.4073 17.1185 10.3401L17.1192 10.3355ZM16.4075 10.9023C16.449 10.9023 16.4947 10.8991 16.5513 10.8863C16.5929 10.8831 16.6386 10.8702 16.6801 10.8495L18.6034 13.5154C18.5515 13.5626 18.5145 13.6189 18.4896 13.684C18.4585 13.7513 18.4429 13.818 18.4367 13.8831L15.1125 14.3275C15.0814 14.2681 15.0502 14.2087 15.0216 14.1515C14.9748 14.0958 14.9328 14.0501 14.8928 14.0133L16.2785 10.8878C16.2817 10.8878 16.2993 10.891 16.3315 10.8926C16.3522 10.9087 16.3783 10.9137 16.4073 10.8974L16.4075 10.9023ZM15.9303 10.7185C15.9303 10.7185 15.9303 10.7233 15.9303 10.7346C15.9303 10.7458 15.9351 10.7506 15.9511 10.7394L14.5578 13.8649C14.5268 13.8536 14.506 13.8488 14.4971 13.8438C14.4763 13.8438 14.4555 13.8438 14.429 13.8438C14.3023 13.8438 14.1907 13.8701 14.0957 13.9279C13.9897 13.9894 13.9046 14.0619 13.846 14.1422L12.5815 13.583C12.591 13.5798 12.5986 13.562 12.6043 13.5294C12.6043 13.5133 12.6043 13.4926 12.6043 13.4605C12.598 13.4185 12.59 13.3665 12.5815 13.315C12.5672 13.2729 12.555 13.2367 12.5513 13.1999L15.9303 10.7185ZM12.4396 13.9359L13.7041 14.4722C13.6882 14.5036 13.6833 14.5295 13.6833 14.5489C13.6833 14.5804 13.6833 14.6062 13.6833 14.6256C13.6786 14.7291 13.6992 14.8268 13.7514 14.9166C13.7929 15.0238 13.8537 15.1062 13.9409 15.1619L12.4037 18.1189C12.3926 18.1189 12.385 18.1189 12.3809 18.1189C12.365 18.1189 12.3601 18.1189 12.365 18.1189L12.0925 14.1813C12.1626 14.1603 12.2306 14.1257 12.2969 14.0741C12.3556 14.0321 12.4048 13.988 12.4408 13.9366L12.4396 13.9359ZM11.743 23.2741L10.5239 19.4898C10.5977 19.4478 10.6678 19.3805 10.7283 19.2981C10.7777 19.2329 10.8192 19.1488 10.8495 19.0454H11.5083C11.5426 19.1677 11.603 19.2771 11.69 19.3674C11.7695 19.4651 11.8679 19.5376 11.9853 19.5817H11.9996L11.743 23.2741ZM11.5082 18.6701H10.8495C10.8384 18.5803 10.8022 18.49 10.7435 18.4022C10.6715 18.3276 10.6034 18.2625 10.5391 18.2105L11.743 14.4415L12.0005 18.1339C11.8736 18.1864 11.7695 18.2584 11.69 18.3482C11.6029 18.4459 11.5423 18.5531 11.5083 18.6702L11.5082 18.6701ZM12.0913 23.5346L12.3639 19.5971C12.3575 19.5971 12.3639 19.5971 12.3782 19.5971C12.3813 19.5971 12.3893 19.5971 12.401 19.5971L13.9381 22.554C13.8509 22.627 13.7885 22.7089 13.7486 22.7993C13.6967 22.9028 13.6748 23.0078 13.6806 23.1134C13.6806 23.1449 13.6806 23.1659 13.6806 23.1749C13.6806 23.1959 13.6853 23.2169 13.7013 23.2437L12.4368 23.78C12.3859 23.7206 12.3346 23.6686 12.2853 23.6266C12.2285 23.6002 12.1622 23.5651 12.0884 23.5346L12.0913 23.5346ZM15.9303 26.9972L12.5532 24.5381C12.5564 24.4961 12.5675 24.454 12.5833 24.4078C12.5929 24.3658 12.6005 24.3122 12.6062 24.2544C12.6062 24.2383 12.6062 24.2176 12.6062 24.1855C12.5998 24.1645 12.5919 24.1382 12.5833 24.1088V24.1298L13.8328 23.5706C13.8972 23.6589 13.9803 23.7298 14.0825 23.7849C14.1827 23.8422 14.2943 23.869 14.4158 23.869C14.4317 23.869 14.4574 23.869 14.4916 23.869C14.5075 23.869 14.528 23.8642 14.5597 23.848L15.9529 26.9734C15.9371 26.9895 15.9322 26.9945 15.9322 26.9945L15.9303 26.9972ZM16.68 26.8668C16.6384 26.8636 16.5948 26.8508 16.5512 26.8301C16.4945 26.8269 16.4472 26.8188 16.4073 26.814C16.3762 26.814 16.3506 26.8172 16.3314 26.8188C16.3004 26.8301 16.2764 26.8349 16.2634 26.8236H16.2793L14.8936 23.6982C14.9351 23.6614 14.9767 23.6178 15.0224 23.56C15.0484 23.5127 15.0831 23.4507 15.1133 23.384H15.1291L18.4381 23.8053C18.4413 23.882 18.4589 23.953 18.4911 24.0123C18.5171 24.0795 18.5535 24.1405 18.6049 24.1961L18.2715 24.6405L16.68 26.8668ZM21.2156 27.38H17.1191C17.108 27.338 17.0931 27.286 17.0661 27.2266C17.035 27.1693 17.0038 27.1252 16.9752 27.0884L18.891 24.4072C18.9325 24.4387 18.9741 24.4544 19.0198 24.4544C19.0613 24.4656 19.1143 24.4704 19.1714 24.4592C19.213 24.464 19.2587 24.4624 19.3153 24.4544C19.3569 24.4544 19.4026 24.4383 19.4592 24.4072H19.4433L21.3591 27.0884C21.3227 27.1441 21.2926 27.1919 21.2681 27.2338C21.2371 27.2895 21.2214 27.3373 21.2152 27.3794L21.2156 27.38ZM22.0712 26.8284C22.0401 26.8332 22.0162 26.8316 22.0032 26.8236C21.9721 26.8204 21.9465 26.8188 21.9274 26.8188C21.8755 26.8236 21.8307 26.83 21.7908 26.8349C21.7389 26.8559 21.6941 26.8716 21.6542 26.8716L19.7309 24.2057C19.7724 24.1501 19.8161 24.0891 19.8519 24.0219C19.8779 23.9625 19.8935 23.8916 19.8987 23.815L23.2228 23.3937C23.2488 23.4609 23.2794 23.5182 23.3215 23.5623C23.3578 23.6196 23.3973 23.6673 23.4425 23.7079L22.1098 26.7185L22.0712 26.8284ZM22.4196 26.9971C22.4085 26.9971 22.4038 26.9971 22.4038 26.9971C22.4038 26.9971 22.4038 26.9922 22.4038 26.976L22.4401 26.8841L23.7879 23.8505C23.7911 23.8666 23.8139 23.8715 23.8487 23.8715C23.8645 23.8715 23.885 23.8715 23.9167 23.8715C24.0319 23.8715 24.1441 23.8452 24.25 23.7948C24.3446 23.7528 24.4281 23.6855 24.4998 23.5879V23.5718L26.1126 24.2766L22.4196 26.9971ZM24.6534 23.2434C24.6487 23.217 24.6502 23.1962 24.6582 23.1745C24.6613 23.1633 24.6629 23.1431 24.6629 23.113C24.6582 23.0017 24.6369 22.8988 24.5949 22.8068C24.543 22.717 24.4795 22.6309 24.4054 22.5542L25.9652 19.5819C25.9684 19.5819 25.9763 19.5819 25.986 19.5819C25.9891 19.5819 25.9907 19.5819 25.9907 19.5819L26.2711 23.9637L24.6534 23.2434ZM26.3722 19.5587C26.4876 19.5166 26.5919 19.4515 26.6827 19.3596C26.7565 19.2792 26.8116 19.1736 26.8416 19.0455H27.4852C27.5113 19.149 27.5497 19.233 27.6063 19.2981C27.6529 19.3806 27.7237 19.4458 27.8109 19.4899L26.6069 23.2742L26.3722 19.5587Z" fill="white"/>
</svg>
