<svg width="38" height="38" viewBox="0 0 38 38" fill="none" xmlns="http://www.w3.org/2000/svg">
    <path d="M19 38C29.4934 38 38 29.4934 38 19C38 8.50659 29.4934 0 19 0C8.50659 0 0 8.50659 0 19C0 29.4934 8.50659 38 19 38Z" fill="#2992FA"/>
    <path d="M23.957 15.8015V20.8952L28.5417 18.3531V13.25L23.957 15.8015Z" fill="white"/>
    <path d="M28.5417 23.447L23.957 20.8955V25.9986L28.5417 28.5407V23.447Z" fill="white"/>
    <path d="M19.3723 13.2495V8.15576L10.1934 13.2495L14.778 15.801L19.3723 13.2495Z" fill="white"/>
    <path d="M19.3723 23.447L14.778 20.8955L10.1934 23.447L14.778 25.9986L19.3723 28.5407V23.447Z" fill="white"/>
    <path d="M10.1934 13.25V23.4468L14.778 20.8952V15.8015L10.1934 13.25Z" fill="white"/>
    <path d="M23.9572 20.8955L19.3726 23.447V28.5407L23.9572 25.9986V20.8955Z" fill="white"/>
    <path d="M23.9572 15.802L28.5418 13.2505L23.9572 10.7083L19.3726 8.15674V13.2505L23.9572 15.802Z" fill="white"/>
</svg>
