<svg width="38" height="38" viewBox="0 0 38 38" fill="none" xmlns="http://www.w3.org/2000/svg">
    <path d="M19 38.0005C29.4934 38.0005 38 29.4939 38 19.0005C38 8.50708 29.4934 0.000488281 19 0.000488281C8.50659 0.000488281 0 8.50708 0 19.0005C0 29.4939 8.50659 38.0005 19 38.0005Z" fill="#2992FA"/>
    <path d="M27.497 12.1958L27.4972 12.1956L30.0805 10.8881V11.7767L27.0172 13.3256L27.0171 13.3257L25.4024 14.1414L25.4023 14.1415L11.0314 21.4061L11.0313 21.4062L10.2309 21.8106L10.2306 21.8108L9.41843 22.222L9.41819 22.2222L7.6355 23.1236V22.2336L8.21313 21.9414C8.21317 21.9414 8.21322 21.9414 8.21326 21.9413C8.61792 21.7367 8.9532 21.4176 9.17638 21.0236C9.39962 20.6296 9.50055 20.1784 9.46612 19.7271L9.46609 19.7267C9.44791 19.4909 9.43881 19.2541 9.43881 19.0162V19.0161C9.43863 17.2945 9.91821 15.6062 10.8249 14.1375C11.7317 12.6689 13.0304 11.477 14.5779 10.6941C16.1255 9.91126 17.8614 9.56802 19.5937 9.70262C21.0442 9.81532 22.4445 10.2593 23.6869 10.995L22.8339 11.4262C21.5826 10.7827 20.1902 10.4529 18.7786 10.4674C17.2775 10.4828 15.8064 10.8871 14.5108 11.6403C13.2151 12.3936 12.1398 13.4699 11.3918 14.763C10.6438 16.0562 10.2491 17.5211 10.2471 19.0126L10.2471 19.0135C10.2472 19.3871 10.2719 19.7603 10.3208 20.1308L10.4131 20.8293L11.042 20.5115L24.674 13.6227L24.674 13.6227L27.497 12.1958Z" fill="white" stroke="white"/>
    <path d="M7.6355 27.1383V26.2502L10.684 24.709L10.6843 24.7089L12.2987 23.8913L12.2992 23.8911L30.0805 14.9087V15.792L29.5019 16.0844L29.5014 16.0846C29.0971 16.2895 28.7622 16.6087 28.5392 17.0026C28.3163 17.3966 28.2155 17.8476 28.2499 18.2987C28.2498 18.2986 28.2498 18.2984 28.2498 18.2983L7.6355 27.1383ZM7.6355 27.1383L10.2101 25.8369L13.033 24.41L13.0331 24.41L26.6788 17.5114L27.3083 17.1932L27.4002 17.8925C27.4491 18.2651 27.4737 18.6405 27.4739 19.0163V19.0168C27.4729 20.5101 27.0783 21.9769 26.3296 23.2716C25.5808 24.5663 24.504 25.6436 23.2065 26.3972C21.909 27.1507 20.4358 27.5542 18.933 27.5681C17.5205 27.5811 16.1277 27.2494 14.8766 26.6038L14.0281 27.0329C15.2701 27.7686 16.6701 28.2128 18.1204 28.3257C19.8524 28.4607 21.5882 28.1179 23.1358 27.3355C24.6833 26.5532 25.9822 25.3619 26.8893 23.8938C27.7964 22.4257 28.2766 20.7378 28.2772 19.0165L7.6355 27.1383Z" fill="white" stroke="white"/>
</svg>
