<svg width="38" height="38" viewBox="0 0 38 38" fill="none" xmlns="http://www.w3.org/2000/svg">
    <path d="M19 38C29.4934 38 38 29.4934 38 19C38 8.50659 29.4934 0 19 0C8.50659 0 0 8.50659 0 19C0 29.4934 8.50659 38 19 38Z" fill="#2992FA"/>
    <path d="M20.7356 30.0547C19.1502 30.0547 17.9954 29.6613 17.27 28.8745C16.5452 28.0881 16.1825 27.2399 16.1825 26.3309C16.1825 25.9986 16.2456 25.719 16.372 25.4918C16.4954 25.2676 16.6746 25.0818 16.8909 24.9538C17.11 24.8227 17.3797 24.7573 17.7003 24.7573C18.0209 24.7573 18.2902 24.8227 18.5097 24.9538C18.7289 25.085 18.9017 25.2645 19.0282 25.4918C19.1547 25.719 19.2178 25.9986 19.2178 26.3309C19.2178 26.733 19.1251 27.0607 18.9397 27.3143C18.754 27.5679 18.5348 27.7337 18.2818 27.8128C18.5014 28.1271 18.847 28.35 19.3192 28.4811C19.7913 28.6213 20.2634 28.691 20.7356 28.691C21.3931 28.691 21.9875 28.5075 22.5189 28.1405C23.0499 27.7731 23.4423 27.2312 23.6952 26.5145C23.9482 25.7977 24.0747 24.9846 24.0747 24.0753C24.0747 23.0876 23.9353 22.2437 23.6573 21.5447C23.3872 20.8367 22.9869 20.3121 22.4555 19.9711C21.9405 19.6351 21.344 19.4578 20.7356 19.4599C20.3307 19.4599 19.8251 19.6348 19.2178 19.9845L18.1048 20.5614V19.9845L23.1133 13.0611H16.1825V20.2464C16.1825 20.841 16.309 21.3305 16.5619 21.7152C16.8149 22.1 17.2027 22.2921 17.7257 22.2921C18.1299 22.2921 18.5181 22.1523 18.8892 21.8724C19.2627 21.59 19.5875 21.2444 19.8502 20.85C19.884 20.7709 19.9261 20.7142 19.9767 20.6792C20.0221 20.6376 20.0805 20.6143 20.1411 20.6138C20.2338 20.6138 20.3432 20.6618 20.4701 20.7583C20.5882 20.8977 20.6471 21.0596 20.6471 21.2431C20.6326 21.3667 20.6114 21.4893 20.5837 21.6105C20.2972 22.2748 19.9007 22.7816 19.3948 23.1313C18.9022 23.4768 18.3204 23.6596 17.7257 23.6559C16.2247 23.6559 15.1873 23.3499 14.6142 22.7383C14.041 22.126 13.7542 21.2955 13.7542 20.2467V13.0611H10.2126V11.7234H13.7542V8.68163L12.9448 7.84172V7.1604H15.2971L16.1821 7.6322V11.7234L25.3392 11.6974L26.25 12.6413L20.6345 18.4632C20.9745 18.3228 21.3324 18.2344 21.6969 18.201C22.3039 18.201 22.9869 18.4022 23.7458 18.8043C24.513 19.1977 25.1033 19.7399 25.5162 20.4299C25.9294 21.1119 26.195 21.7676 26.3131 22.3969C26.4396 23.0266 26.503 23.5858 26.503 24.0753C26.503 25.1944 26.2751 26.2345 25.82 27.1965C25.3646 28.1578 24.6733 28.8745 23.7458 29.3467C22.8182 29.8188 21.8147 30.0547 20.7356 30.0547Z" fill="white"/>
</svg>
