<svg width="38" height="38" viewBox="0 0 38 38" fill="none" xmlns="http://www.w3.org/2000/svg">
    <path d="M19 38C29.4934 38 38 29.4934 38 19C38 8.50659 29.4934 0 19 0C8.50659 0 0 8.50659 0 19C0 29.4934 8.50659 38 19 38Z" fill="#2992FA"/>
    <path d="M17.5921 27.6733L9.21715 10.7815C9.08086 10.5115 9.28529 10.1934 9.58723 10.1934H12.4892C12.645 10.1934 12.7911 10.2806 12.8593 10.4151L18.975 22.6694C19.5203 23.7686 21.0979 23.7686 21.6433 22.6694L27.7394 10.4248C27.8079 10.2898 27.9536 10.2031 28.1095 10.2031H28.4698C28.684 10.2031 28.8204 10.4248 28.723 10.608L20.2604 27.6733C19.7151 28.7721 18.1375 28.7721 17.5921 27.6733Z" fill="white"/>
</svg>
