<svg width="31" height="30" viewBox="0 0 31 30" fill="none" xmlns="http://www.w3.org/2000/svg">
	<circle cx="15.5" cy="15" r="15" fill="#1BA27A"/>
	<path d="M20.6368 7.82983H10.245V10.6731H14.1865V14.8522H16.6953V10.6731H20.6368V7.82983Z" fill="white"/>
	<path fill-rule="evenodd" clip-rule="evenodd" d="M15.4647 12.5244C19.1259 12.5244 22.0939 13.2785 22.0939 14.2089C22.0939 15.0324 19.7684 15.7178 16.6952 15.8643V21.8612H14.1866V15.862C11.1369 15.7107 8.83545 15.0281 8.83545 14.2089C8.83545 13.2785 11.8036 12.5244 15.4647 12.5244ZM9.56076 13.9911C9.56076 14.7126 12.2042 15.2974 15.4647 15.2974C18.7253 15.2974 21.3686 14.7126 21.3686 13.9911C21.3686 13.2697 18.7253 12.6847 15.4647 12.6847C12.2041 12.6847 9.56076 13.2697 9.56076 13.9911Z" fill="white"/>
</svg>
