<svg width="30" height="30" viewBox="0 0 30 30" fill="none" xmlns="http://www.w3.org/2000/svg">
	<circle cx="15" cy="15" r="15" fill="#005FBB"/>
	<path d="M12.1875 25.4296C12.1875 25.7812 11.9062 25.9804 11.5781 25.8749C7.03125 24.4218 3.75 20.1796 3.75 15.1523C3.75 10.1366 7.03125 5.88272 11.5781 4.42959C11.918 4.32413 12.1875 4.52334 12.1875 4.87491V5.75381C12.1875 5.98819 12.0117 6.25772 11.7891 6.33975C8.19141 7.66397 5.625 11.121 5.625 15.1523C5.625 19.1952 8.19141 22.6405 11.7891 23.953C12.0117 24.0351 12.1875 24.3046 12.1875 24.539V25.4296Z" fill="white"/>
	<path d="M15.9375 22.1836C15.9375 22.4414 15.7265 22.6523 15.4687 22.6523H14.5312C14.2734 22.6523 14.0625 22.4414 14.0625 22.1836V20.707C12.0117 20.4258 11.0156 19.2891 10.7461 17.7187C10.6992 17.4492 10.9101 17.2148 11.1796 17.2148H12.2461C12.4687 17.2148 12.6562 17.3789 12.7031 17.5898C12.9023 18.5156 13.4414 19.2305 15.082 19.2305C16.289 19.2305 17.1562 18.5508 17.1562 17.543C17.1562 16.5352 16.6523 16.1484 14.8711 15.8555C12.2461 15.5039 11.0039 14.707 11.0039 12.6562C11.0039 11.0742 12.2109 9.83203 14.0625 9.57422V8.12109C14.0625 7.86328 14.2734 7.65234 14.5312 7.65234H15.4687C15.7265 7.65234 15.9375 7.86328 15.9375 8.12109V9.60937C17.4492 9.87891 18.4101 10.7344 18.7265 12.1641C18.7851 12.4336 18.5742 12.6797 18.2929 12.6797H17.3086C17.0976 12.6797 16.9218 12.5391 16.8632 12.3398C16.5937 11.4375 15.9492 11.0391 14.8242 11.0391C13.582 11.0391 12.9375 11.6367 12.9375 12.4805C12.9375 13.3711 13.3007 13.8164 15.2109 14.0859C17.789 14.4375 19.125 15.1758 19.125 17.3672C19.125 19.0312 17.8828 20.3789 15.9492 20.6836V22.1836H15.9375Z" fill="white"/>
	<path d="M18.4219 25.8749C18.082 25.9804 17.8125 25.7812 17.8125 25.4296V24.5507C17.8125 24.2929 17.9648 24.0468 18.2109 23.9648C21.7969 22.6523 24.375 19.1952 24.375 15.164C24.375 11.121 21.8086 7.67569 18.2109 6.36319C17.9883 6.28116 17.8125 6.01163 17.8125 5.77725V4.89834C17.8125 4.54678 18.0937 4.34756 18.4219 4.45303C22.9688 5.88272 26.25 10.1366 26.25 15.1523C26.25 20.1796 22.9688 24.4218 18.4219 25.8749Z" fill="white"/>
</svg>
