<svg width="21" height="21" viewBox="0 0 21 21" fill="none" xmlns="http://www.w3.org/2000/svg">
	<path fill-rule="evenodd" clip-rule="evenodd" d="M3.11523 5.75244C2.85002 5.75244 2.59566 5.8578 2.40813 6.04533C2.22059 6.23287 2.11523 6.48722 2.11523 6.75244V17.7524C2.11523 18.0177 2.22059 18.272 2.40813 18.4595C2.59566 18.6471 2.85002 18.7524 3.11523 18.7524H14.1152C14.3805 18.7524 14.6348 18.6471 14.8223 18.4595C15.0099 18.272 15.1152 18.0177 15.1152 17.7524V11.7524C15.1152 11.2002 15.5629 10.7524 16.1152 10.7524C16.6675 10.7524 17.1152 11.2002 17.1152 11.7524V17.7524C17.1152 18.5481 16.7992 19.3112 16.2366 19.8738C15.6739 20.4364 14.9109 20.7524 14.1152 20.7524H3.11523C2.31958 20.7524 1.55652 20.4364 0.993914 19.8738C0.431305 19.3112 0.115234 18.5481 0.115234 17.7524V6.75244C0.115234 5.95679 0.431305 5.19373 0.993914 4.63112C1.55652 4.06851 2.31959 3.75244 3.11523 3.75244H9.11523C9.66752 3.75244 10.1152 4.20016 10.1152 4.75244C10.1152 5.30473 9.66752 5.75244 9.11523 5.75244H3.11523Z" fill="#94939A"/>
	<path fill-rule="evenodd" clip-rule="evenodd" d="M12.1152 1.75244C12.1152 1.20016 12.5629 0.752441 13.1152 0.752441H19.1152C19.6675 0.752441 20.1152 1.20016 20.1152 1.75244V7.75244C20.1152 8.30473 19.6675 8.75244 19.1152 8.75244C18.5629 8.75244 18.1152 8.30473 18.1152 7.75244V2.75244H13.1152C12.5629 2.75244 12.1152 2.30473 12.1152 1.75244Z" fill="#94939A"/>
	<path fill-rule="evenodd" clip-rule="evenodd" d="M19.8223 1.04533C20.2129 1.43586 20.2129 2.06902 19.8223 2.45955L8.82234 13.4595C8.43182 13.8501 7.79865 13.8501 7.40813 13.4595C7.0176 13.069 7.0176 12.4359 7.40813 12.0453L18.4081 1.04533C18.7987 0.65481 19.4318 0.65481 19.8223 1.04533Z" fill="#94939A"/>
</svg>
