<?xml version="1.0" standalone="no"?>
<!DOCTYPE svg PUBLIC "-//W3C//DTD SVG 1.1//EN" "http://www.w3.org/Graphics/SVG/1.1/DTD/svg11.dtd" >
<svg xmlns="http://www.w3.org/2000/svg" xmlns:xlink="http://www.w3.org/1999/xlink" version="1.1">
<metadata>
Created by FontForge 20201107 at Mon Aug  9 17:42:53 2021
 By Jimmy Wärting
\(c\) 2020, Copyright by Lineto. All rights reserved.
</metadata>
<defs>
<font id="Circular-Book" horiz-adv-x="573" >
  <font-face 
    font-family="Circular"
    font-weight="450"
    font-stretch="normal"
    units-per-em="1000"
    panose-1="2 11 5 4 1 1 1 1 1 4"
    ascent="800"
    descent="-200"
    x-height="481"
    cap-height="709"
    bbox="-199 -232 1100 905"
    underline-thickness="50"
    underline-position="-175"
    stemh="83"
    stemv="78"
    unicode-range="U+000D-FEFF"
  />
<missing-glyph horiz-adv-x="559" 
d="M76 709h407v-709h-407v709zM404 79v551h-249v-551h249z" />
    <glyph glyph-name="f_f" unicode="ff" horiz-adv-x="665" 
d="M603 639c-8 0 -16 -1 -25 -3c-9 -3 -18 -7 -25 -13c-8 -6 -14 -14 -19 -25s-7 -24 -7 -41v-76h116v-85h-116v-396h-97v396h-219v-396h-97v396h-89v85h89v81c0 27 4 50 13 71c8 21 19 38 34 52c14 14 31 25 50 32s39 10 61 10c16 0 29 -1 39 -4c9 -3 15 -5 17 -6v-84
c-3 1 -7 3 -13 4c-7 1 -16 2 -28 2c-8 0 -16 -1 -25 -3c-9 -3 -18 -7 -25 -13c-8 -6 -14 -14 -19 -25s-7 -24 -7 -41v-76h219v81c0 27 4 50 13 71c8 21 19 38 34 52c14 14 31 25 50 32s39 10 61 10c16 0 29 -1 39 -4c9 -3 15 -5 17 -6v-84c-3 1 -7 3 -13 4c-7 1 -16 2 -28 2
z" />
    <glyph glyph-name="f_f_i" unicode="ffi" horiz-adv-x="921" 
d="M114 562c0 27 4 50 13 71c8 21 19 38 34 52c14 14 31 25 50 32s39 10 61 10c16 0 29 -1 39 -4c9 -3 15 -5 17 -6v-84c-3 1 -7 3 -13 4c-7 1 -16 2 -28 2c-8 0 -16 -1 -25 -3c-9 -3 -18 -7 -25 -13c-8 -6 -14 -14 -19 -25s-7 -24 -7 -41v-76h219v81c0 27 4 50 13 71
c8 21 19 38 34 52c14 14 31 25 50 32s39 10 61 10c16 0 29 -1 39 -4c9 -3 15 -5 17 -6v-84c-3 1 -7 3 -13 4c-7 1 -16 2 -28 2c-8 0 -16 -1 -25 -3c-9 -3 -18 -7 -25 -13c-8 -6 -14 -14 -19 -25s-7 -24 -7 -41v-76h318v-481h-93v396h-225v-396h-97v396h-219v-396h-97v396
h-89v85h89v81zM731 665c0 19 7 36 20 49s28 19 47 19s36 -6 49 -19s19 -30 19 -49s-6 -34 -19 -47s-30 -20 -49 -20s-34 7 -47 20s-20 28 -20 47z" />
    <glyph glyph-name="f_f_l" unicode="ffl" horiz-adv-x="921" 
d="M114 562c0 27 4 50 13 71c8 21 19 38 34 52c14 14 31 25 50 32s39 10 61 10c16 0 29 -1 39 -4c9 -3 15 -5 17 -6v-84c-3 1 -7 3 -13 4c-7 1 -16 2 -28 2c-8 0 -16 -1 -25 -3c-9 -3 -18 -7 -25 -13c-8 -6 -14 -14 -19 -25s-7 -24 -7 -41v-76h219v81c0 27 4 50 13 71
c8 21 19 38 34 52c14 14 31 25 50 32s39 10 61 10c16 0 29 -1 39 -4c9 -3 15 -5 17 -6v-84c-3 1 -7 3 -13 4c-7 1 -16 2 -28 2c-8 0 -16 -1 -25 -3c-9 -3 -18 -7 -25 -13c-8 -6 -14 -14 -19 -25s-7 -24 -7 -41v-76h225v243h93v-724h-93v396h-225v-396h-97v396h-219v-396h-97
v396h-89v85h89v81z" />
    <glyph glyph-name="f_i" unicode="fi" horiz-adv-x="605" 
d="M272 727c16 0 29 -1 39 -4c9 -3 15 -5 17 -6v-84c-3 1 -7 3 -13 4c-7 1 -16 2 -28 2c-8 0 -16 -1 -25 -4c-9 -2 -18 -6 -25 -12c-8 -6 -14 -14 -19 -25c-5 -10 -7 -23 -7 -40v-77h318v-481h-93v396h-225v-396h-97v396h-89v85h89v81c0 27 4 50 13 71c8 21 19 38 34 52
c14 14 31 25 50 32s39 10 61 10zM415 665c0 19 7 36 20 49s28 19 47 19s36 -6 49 -19s19 -30 19 -49s-6 -34 -19 -47s-30 -20 -49 -20s-34 7 -47 20s-20 28 -20 47z" />
    <glyph glyph-name="f_l" unicode="fl" horiz-adv-x="603" 
d="M287 639c-8 0 -16 -1 -25 -3c-9 -3 -18 -7 -25 -13c-8 -6 -14 -14 -19 -25s-7 -24 -7 -41v-76h222v243h94v-724h-94v396h-222v-396h-97v396h-89v85h89v81c0 27 4 50 13 71c8 21 19 38 34 52c14 14 31 25 50 32s39 10 61 10c16 0 29 -1 39 -4c9 -3 15 -5 17 -6v-84
c-3 1 -7 3 -13 4c-7 1 -16 2 -28 2z" />
    <glyph glyph-name=".notdef" horiz-adv-x="559" 
d="M76 709h407v-709h-407v709zM404 79v551h-249v-551h249z" />
    <glyph glyph-name="NULL" horiz-adv-x="0" 
 />
    <glyph glyph-name="NULL" horiz-adv-x="0" 
 />
    <glyph glyph-name="CR" unicode="&#xd;" horiz-adv-x="252" 
 />
    <glyph glyph-name="space" unicode=" " horiz-adv-x="252" 
 />
    <glyph glyph-name="exclam" unicode="!" horiz-adv-x="254" 
d="M161 203h-67l-26 506h118zM62 60c0 18 6 34 19 47s28 19 46 19s34 -6 47 -19s19 -29 19 -47s-6 -33 -19 -46s-29 -19 -47 -19s-33 6 -46 19s-19 28 -19 46z" />
    <glyph glyph-name="quotedbl" unicode="&#x22;" horiz-adv-x="386" 
d="M47 660c0 18 6 33 17 44s26 17 44 17c17 0 32 -6 43 -17s17 -26 17 -44c0 -5 -1 -11 -2 -18l-42 -188h-34l-41 187c-1 7 -2 13 -2 19zM220 660c0 18 6 33 17 44s26 17 44 17c17 0 32 -6 43 -17s17 -26 17 -44c0 -5 -1 -11 -2 -18l-42 -188h-34l-41 187c-1 7 -2 13 -2 19z
" />
    <glyph glyph-name="numbersign" unicode="#" horiz-adv-x="730" 
d="M403 186h-147l-37 -186h-84l37 186h-134v76h147l36 174h-134v76h146l41 197h84l-40 -197h147l40 197h85l-39 -197h141v-76h-155l-35 -174h140v-76h-154l-37 -186h-85zM270 262h146l37 174h-148z" />
    <glyph glyph-name="dollar" unicode="$" horiz-adv-x="570" 
d="M253 -114v116c-35 4 -66 13 -92 26s-48 30 -66 49s-32 40 -42 63s-16 47 -19 70l85 25c2 -17 6 -34 13 -50c6 -17 15 -32 26 -45s24 -25 40 -34s35 -16 56 -20v231l-29 7c-50 11 -90 32 -120 63s-45 72 -45 121c0 26 5 50 15 73s24 43 41 61c17 17 38 32 61 43
s49 19 76 22v117h78v-118c29 -4 54 -11 76 -22c21 -11 40 -25 55 -40c15 -16 27 -33 36 -52s16 -38 20 -57l-84 -27c-5 23 -15 46 -31 67c-17 21 -41 36 -73 44v-224l18 -4c57 -12 102 -35 133 -68s47 -74 47 -123c0 -24 -4 -47 -13 -69c-9 -23 -22 -43 -39 -60
c-17 -18 -37 -33 -62 -45s-52 -20 -83 -24v-116h-78zM434 193c0 28 -9 51 -27 69s-44 31 -77 38v-214c34 6 60 19 78 39c17 19 26 42 26 68zM152 515c0 -25 8 -47 23 -65s38 -30 69 -37l10 -2v210c-30 -5 -54 -18 -73 -37s-29 -42 -29 -69z" />
    <glyph glyph-name="percent" unicode="%" horiz-adv-x="823" 
d="M789 149c0 -22 -4 -43 -13 -62s-20 -36 -35 -50c-15 -15 -32 -26 -52 -34c-19 -8 -40 -12 -61 -12s-42 4 -61 12s-36 19 -51 34c-15 14 -26 31 -35 50s-13 40 -13 62s4 43 13 62s20 35 35 50c15 14 32 25 51 33s40 12 61 12s42 -4 61 -12c20 -8 37 -19 52 -33
c15 -15 26 -31 35 -50s13 -40 13 -62zM551 149c0 -23 8 -42 23 -57s33 -22 54 -22c22 0 40 7 55 22s22 34 22 57s-7 41 -22 56s-33 22 -55 22c-21 0 -39 -7 -54 -22s-23 -33 -23 -56zM194 403c-21 0 -42 4 -61 12s-36 19 -51 34c-15 14 -26 31 -35 50s-13 40 -13 62
s4 42 13 61s20 36 35 50c15 15 32 26 51 34s40 12 61 12s42 -4 62 -12c19 -8 36 -19 51 -34c15 -14 26 -31 35 -50s13 -39 13 -61s-4 -43 -13 -62s-20 -36 -35 -50c-15 -15 -32 -26 -51 -34c-20 -8 -41 -12 -62 -12zM117 561c0 -23 8 -42 23 -57s33 -22 54 -22
c22 0 40 7 55 22s22 34 22 57s-7 41 -22 56s-33 22 -55 22c-21 0 -39 -7 -54 -22s-23 -33 -23 -56zM132 0l466 709h91l-465 -709h-92z" />
    <glyph glyph-name="ampersand" unicode="&#x26;" horiz-adv-x="689" 
d="M454 94c-29 -33 -60 -58 -92 -77c-31 -20 -67 -29 -107 -29c-33 0 -63 5 -89 16c-25 10 -47 24 -64 41s-30 36 -39 58c-9 21 -13 43 -13 66s3 43 9 62c6 18 14 35 25 51c11 15 25 30 40 44c15 13 32 27 51 41l10 8l-13 14c-8 9 -17 19 -27 30s-19 23 -28 36
s-16 28 -22 43c-5 15 -8 32 -8 49c0 29 5 54 16 76s25 41 42 56c18 15 38 26 59 34c22 7 44 11 66 11c27 0 51 -4 74 -12s43 -19 60 -34s30 -34 40 -55c9 -21 14 -45 14 -72c0 -17 -3 -33 -8 -48c-6 -15 -14 -29 -23 -42s-20 -25 -32 -36s-24 -22 -37 -31l-36 -27l132 -137
l158 176v-129l-96 -111l161 -166h-133zM256 78c27 0 51 8 72 23s41 34 60 55l3 4l-144 151l-36 -27c-17 -13 -32 -28 -43 -45s-17 -37 -17 -62c0 -12 2 -24 7 -35c5 -12 12 -23 21 -32c9 -10 20 -18 33 -23c13 -6 28 -9 44 -9zM184 553c0 -10 2 -20 5 -29s8 -18 13 -26
c5 -9 11 -17 17 -24c7 -7 13 -14 19 -20l22 -24l48 36c21 15 35 30 42 44s11 29 11 44c0 23 -9 44 -26 61s-38 25 -64 25c-10 0 -20 -2 -31 -5c-10 -4 -19 -10 -28 -17c-8 -8 -15 -17 -20 -28s-8 -23 -8 -37z" />
    <glyph glyph-name="quotesingle" unicode="'" horiz-adv-x="213" 
d="M47 660c0 18 6 33 17 44s26 17 44 17c17 0 32 -6 43 -17s17 -26 17 -44c0 -5 -1 -11 -2 -18l-42 -188h-34l-41 187c-1 7 -2 13 -2 19z" />
    <glyph glyph-name="parenleft" unicode="(" horiz-adv-x="311" 
d="M48 317c0 55 5 105 15 152c9 46 23 89 40 128s37 74 60 107s48 63 75 90l57 -50c-51 -57 -92 -121 -121 -190c-30 -70 -45 -149 -45 -237s15 -167 45 -237c29 -70 70 -133 121 -190l-57 -50c-27 27 -52 57 -75 90s-43 68 -60 108c-17 39 -31 81 -40 128
c-10 46 -15 96 -15 151z" />
    <glyph glyph-name="parenright" unicode=")" horiz-adv-x="311" 
d="M263 317c0 -55 -5 -105 -14 -151c-10 -47 -23 -89 -40 -128s-38 -75 -61 -108s-48 -63 -75 -90l-57 50c51 57 91 120 121 190s45 149 45 237c0 44 -4 86 -11 125c-8 39 -19 77 -33 112c-15 35 -32 69 -53 100s-44 61 -69 90l57 50c27 -27 52 -57 75 -90s44 -68 61 -107
s30 -82 40 -128c9 -47 14 -97 14 -152z" />
    <glyph glyph-name="asterisk" unicode="*" horiz-adv-x="451" 
d="M264 575l123 42l23 -72l-124 -41l82 -105l-61 -46l-83 109l-78 -108l-61 46l79 104l-124 41l23 72l122 -43v135h79v-134z" />
    <glyph glyph-name="plus" unicode="+" horiz-adv-x="545" 
d="M231 388v195h82v-195h188v-79h-188v-197h-82v197h-187v79h187z" />
    <glyph glyph-name="comma" unicode="," horiz-adv-x="268" 
d="M57 64c0 18 7 34 21 47c13 13 31 20 52 20s40 -8 57 -24c16 -15 24 -39 24 -71c0 -33 -5 -62 -14 -86c-10 -23 -22 -43 -37 -58s-31 -27 -48 -36c-17 -8 -34 -13 -49 -15v52c12 3 23 7 34 14c10 7 19 16 26 26s12 21 17 32c4 12 6 24 6 36c-1 -1 -4 -3 -8 -4
s-9 -1 -14 -1c-19 0 -34 6 -47 18s-20 29 -20 50z" />
    <glyph glyph-name="hyphen" unicode="-" horiz-adv-x="407" 
d="M68 246v82h271v-82h-271z" />
    <glyph glyph-name="period" unicode="." horiz-adv-x="252" 
d="M57 64c0 19 7 36 20 50c13 13 30 20 49 20s36 -7 49 -20c14 -14 21 -31 21 -50s-7 -36 -21 -49c-13 -13 -30 -20 -49 -20s-36 7 -49 20s-20 30 -20 49z" />
    <glyph glyph-name="slash" unicode="/" horiz-adv-x="489" 
d="M119 0h-91l343 709h91z" />
    <glyph glyph-name="zero" unicode="0" horiz-adv-x="658" 
d="M55 354c0 42 4 85 13 129c8 43 22 83 43 118s49 64 84 87s80 34 134 34s99 -11 134 -34s63 -52 84 -87s35 -75 44 -118c8 -44 12 -87 12 -129c0 -41 -4 -84 -12 -127c-8 -44 -22 -84 -43 -119s-49 -64 -84 -87s-80 -34 -135 -34s-100 11 -135 34s-63 52 -84 88
c-21 35 -35 75 -43 118s-12 86 -12 127zM506 354c0 35 -3 70 -8 104c-5 33 -15 63 -28 89c-14 26 -32 47 -55 63s-51 24 -86 24s-64 -8 -87 -23c-23 -16 -41 -37 -54 -63s-22 -56 -27 -89c-5 -34 -8 -69 -8 -105c0 -35 3 -70 8 -103c5 -34 15 -64 28 -90s31 -47 54 -63
s51 -24 86 -24s63 8 86 24s41 37 55 63c13 26 23 56 28 90c5 33 8 68 8 103z" />
    <glyph glyph-name="one" unicode="1" horiz-adv-x="355" 
d="M183 0v518h-157v69c45 1 83 13 112 36c29 22 48 51 55 86h86v-709h-96z" />
    <glyph glyph-name="two" unicode="2" horiz-adv-x="592" 
d="M51 0c1 26 4 52 9 77s14 50 25 73c12 23 27 45 46 65c19 21 43 40 71 57l129 81c35 22 61 45 78 68c18 24 27 52 27 84c0 18 -3 35 -10 51c-6 16 -15 30 -27 41c-11 12 -26 21 -43 28s-35 11 -56 11c-47 0 -84 -14 -111 -42s-41 -65 -41 -111c0 -5 0 -11 1 -18
c1 -6 2 -12 3 -19l-93 4c-1 5 -2 12 -3 21s-1 16 -1 23c0 31 5 60 16 87c11 28 26 52 47 73s46 37 76 49c30 13 64 19 103 19c37 0 70 -6 99 -17s54 -27 74 -47c20 -19 35 -42 46 -68s16 -54 16 -83c0 -46 -12 -87 -37 -122c-24 -35 -57 -66 -99 -92l-146 -90
c-21 -13 -38 -30 -53 -49c-14 -19 -24 -41 -29 -64h371v-90h-488z" />
    <glyph glyph-name="three" unicode="3" horiz-adv-x="607" 
d="M346 428c28 -1 55 -6 80 -17c25 -10 47 -24 66 -43c19 -18 35 -40 46 -67c11 -26 17 -55 17 -88c0 -31 -6 -60 -18 -87s-29 -51 -52 -72c-22 -21 -49 -37 -80 -49s-65 -18 -103 -18s-72 6 -103 17s-57 27 -80 47c-22 20 -39 43 -52 70s-20 56 -22 87l93 21
c1 -23 5 -45 14 -64s21 -36 35 -49c15 -14 32 -25 51 -32c20 -7 41 -11 63 -11c23 0 45 4 64 11s36 16 49 29c14 13 25 28 32 45c8 17 12 36 12 57c0 22 -4 42 -12 60c-7 17 -18 32 -31 44s-29 21 -48 28c-18 6 -38 9 -60 9c-11 0 -23 -1 -35 -4c-11 -3 -22 -6 -31 -10
l-43 71l214 206h-348v90h472v-81l-213 -204c3 1 7 2 12 3s8 1 11 1z" />
    <glyph glyph-name="four" unicode="4" horiz-adv-x="621" 
d="M31 270l312 439h124v-459h122v-91h-122v-159h-96v159h-340v111zM371 602l-248 -352h248v352z" />
    <glyph glyph-name="five" unicode="5" horiz-adv-x="589" 
d="M128 219c2 -20 7 -39 16 -57c8 -18 19 -33 33 -46s30 -24 49 -31c19 -8 40 -12 63 -12s45 4 64 11s36 18 49 32c14 13 25 29 33 48c7 19 11 39 11 61c0 25 -4 47 -12 66s-19 35 -33 48s-30 24 -49 31s-40 10 -63 10c-30 0 -57 -6 -81 -18c-25 -13 -45 -29 -60 -49l-89 33
l77 363h374v-90h-307l-46 -217c9 10 19 19 31 26s25 14 38 19s27 8 41 11c14 2 28 3 41 3c35 0 68 -5 97 -16s53 -27 74 -47c20 -21 36 -45 47 -74s17 -62 17 -98c0 -33 -6 -63 -17 -92c-12 -29 -29 -55 -51 -76c-22 -22 -49 -39 -80 -52s-67 -19 -106 -19
c-35 0 -68 6 -97 17c-30 11 -56 27 -77 46c-22 19 -39 41 -52 66s-21 52 -24 81z" />
    <glyph glyph-name="six" unicode="6" horiz-adv-x="629" 
d="M146 349c14 34 39 62 74 84c35 23 78 34 129 34c34 0 65 -6 94 -17c28 -11 52 -28 72 -49c21 -21 37 -46 48 -75c12 -29 18 -62 18 -97s-7 -68 -20 -97c-13 -30 -32 -56 -55 -77s-50 -38 -81 -50s-65 -18 -100 -18c-39 0 -75 7 -108 22c-33 14 -62 35 -86 63
c-25 27 -44 61 -57 102c-14 40 -21 86 -21 138c0 67 9 127 28 178s45 93 78 128s71 61 115 78s92 26 143 26c33 0 63 -3 88 -10s46 -16 62 -27l-28 -82c-15 9 -34 16 -55 23c-21 6 -45 9 -72 9c-41 0 -78 -7 -109 -22c-32 -15 -59 -35 -81 -60c-23 -25 -40 -55 -53 -90
s-20 -73 -23 -114zM165 227c0 -23 4 -44 13 -63s20 -36 35 -49c14 -14 31 -25 50 -32c19 -8 40 -12 61 -12c22 0 43 4 62 11c20 7 37 18 51 32c15 13 26 30 35 49s13 41 13 64c0 24 -4 46 -13 66c-8 19 -19 36 -33 49c-15 13 -32 24 -51 31s-40 11 -62 11s-43 -4 -62 -12
c-20 -7 -37 -18 -52 -32s-26 -31 -34 -50c-9 -19 -13 -40 -13 -63z" />
    <glyph glyph-name="seven" unicode="7" horiz-adv-x="556" 
d="M542 624c-29 -27 -59 -59 -91 -96c-33 -38 -63 -82 -92 -133s-54 -109 -75 -174c-22 -65 -37 -139 -45 -221h-101c8 87 24 165 48 234c23 68 50 128 79 179s59 93 89 127c29 34 54 60 73 79h-401v90h516v-85z" />
    <glyph glyph-name="eight" unicode="8" horiz-adv-x="608" 
d="M304 324c-25 0 -47 -3 -66 -10s-35 -16 -48 -28c-13 -11 -23 -25 -30 -41c-7 -15 -10 -32 -10 -49s4 -34 11 -49s17 -29 30 -41c13 -11 29 -20 48 -27s40 -10 65 -10s47 3 66 10s35 16 48 27c13 12 23 26 30 41s10 32 10 49s-3 34 -10 49c-7 16 -16 30 -29 41
c-13 12 -29 21 -48 28s-42 10 -67 10zM304 -13c-38 0 -72 5 -103 15s-58 24 -79 42s-38 39 -49 64c-12 24 -18 50 -18 79c0 21 3 40 10 59s16 36 29 52c12 15 27 29 44 40s36 19 57 25c-19 6 -37 15 -52 26s-28 23 -39 38s-20 31 -26 48s-9 35 -9 53c0 28 6 54 17 78
c11 23 27 44 48 61s45 31 74 41c29 9 61 14 96 14s67 -5 96 -14c29 -10 53 -24 74 -41s37 -38 48 -61c11 -24 17 -50 17 -78c0 -18 -3 -36 -9 -53s-14 -33 -25 -48s-25 -27 -40 -38c-16 -11 -34 -20 -53 -26c21 -6 41 -14 58 -25s32 -25 45 -40c12 -16 21 -33 28 -52
s10 -38 10 -59c0 -29 -6 -55 -17 -79c-12 -25 -29 -46 -50 -64s-47 -32 -78 -42s-66 -15 -104 -15zM304 401c43 1 77 12 102 35s37 51 37 86c0 33 -12 61 -36 84c-25 22 -59 33 -103 33s-78 -11 -102 -33c-25 -23 -37 -51 -37 -84c0 -35 13 -63 38 -86s58 -34 101 -35z" />
    <glyph glyph-name="nine" unicode="9" horiz-adv-x="619" 
d="M471 344c-8 -13 -18 -26 -31 -38s-28 -22 -44 -31c-17 -9 -34 -15 -53 -20s-38 -8 -58 -8c-32 0 -62 5 -91 16s-54 26 -75 46c-22 20 -39 45 -52 74s-19 61 -19 98c0 35 6 68 18 98c13 29 30 55 52 76c23 21 49 37 80 49s64 18 101 18c39 0 75 -7 108 -22s61 -36 84 -65
s41 -64 54 -106c13 -43 20 -92 20 -147c0 -131 -28 -230 -83 -296s-134 -99 -237 -99c-17 0 -35 2 -52 5s-34 7 -50 12s-31 12 -44 19c-14 7 -25 16 -34 25l31 77c15 -15 35 -27 62 -37s55 -15 85 -15c69 0 124 23 164 69c40 45 61 113 64 202zM450 487c0 23 -4 43 -12 62
c-9 19 -20 35 -34 48s-30 23 -49 30s-39 10 -60 10s-41 -3 -60 -10s-35 -18 -49 -31s-25 -29 -33 -48s-12 -40 -12 -63c0 -24 4 -45 12 -64s19 -36 33 -49c14 -14 30 -24 49 -31s39 -11 61 -11s42 4 61 11s35 18 49 32c14 13 25 30 33 49c7 19 11 41 11 65z" />
    <glyph glyph-name="colon" unicode=":" horiz-adv-x="276" 
d="M69 64c0 19 7 36 20 50c13 13 30 20 49 20s36 -7 49 -20c14 -14 21 -31 21 -50s-7 -36 -21 -49c-13 -13 -30 -20 -49 -20s-36 7 -49 20s-20 30 -20 49zM68 416c0 19 7 36 20 50c13 13 30 20 49 20s36 -7 49 -20c14 -14 21 -31 21 -50s-7 -36 -21 -49
c-13 -13 -30 -20 -49 -20s-36 7 -49 20s-20 30 -20 49z" />
    <glyph glyph-name="semicolon" unicode=";" horiz-adv-x="291" 
d="M72 62c0 17 7 32 20 45c13 12 30 18 50 18c21 0 39 -7 54 -22s23 -38 23 -68c0 -31 -4 -58 -13 -80c-9 -23 -21 -41 -35 -56s-29 -27 -46 -34c-17 -8 -32 -13 -47 -15v49c12 3 23 7 32 14s18 15 25 24s12 20 16 31s6 23 6 34c-1 -1 -4 -3 -7 -4c-4 -1 -9 -1 -14 -1
c-17 0 -32 6 -45 17s-19 27 -19 48zM73 416c0 19 7 36 20 50c13 13 30 20 49 20s36 -7 50 -20c13 -14 20 -31 20 -50s-7 -36 -20 -49c-14 -13 -31 -20 -50 -20s-36 7 -49 20s-20 30 -20 49z" />
    <glyph glyph-name="less" unicode="&#x3c;" horiz-adv-x="525" 
d="M38 390l412 206v-95l-310 -153l310 -153v-95l-412 205v85z" />
    <glyph glyph-name="equal" unicode="=" horiz-adv-x="601" 
d="M69 407v77h463v-77h-463zM69 212v79h463v-79h-463z" />
    <glyph glyph-name="greater" unicode="&#x3e;" horiz-adv-x="525" 
d="M487 305l-412 -205v95l312 153l-312 153v95l412 -206v-85z" />
    <glyph glyph-name="question" unicode="?" horiz-adv-x="510" 
d="M196 203c-1 6 -1 12 -1 17v18c0 33 6 63 19 88s34 48 64 68l44 30c17 11 30 26 39 43s14 36 14 55c0 15 -3 29 -8 42c-5 14 -12 26 -22 37c-9 11 -22 19 -37 25c-15 7 -32 10 -52 10c-22 0 -41 -4 -57 -11c-15 -7 -28 -17 -38 -29s-18 -26 -23 -41s-7 -31 -7 -47
c0 -9 1 -18 2 -27s3 -17 5 -22l-97 12c-4 14 -6 30 -6 48c0 23 4 46 13 70c9 25 22 47 40 67s41 36 68 49c28 13 61 19 100 19c35 0 66 -6 93 -17s50 -26 69 -45s33 -40 42 -65c10 -24 15 -49 15 -74c0 -40 -10 -74 -29 -103c-19 -28 -44 -52 -73 -71l-46 -31
c-15 -11 -26 -25 -33 -42s-11 -35 -11 -54v-8c0 -2 0 -6 1 -11h-88zM174 60c0 18 6 33 19 46s28 20 46 20s33 -7 46 -20s20 -28 20 -46s-7 -33 -20 -46s-28 -19 -46 -19s-33 6 -46 19s-19 28 -19 46z" />
    <glyph glyph-name="at" unicode="@" horiz-adv-x="831" 
d="M605 137c-23 0 -44 5 -63 15c-19 11 -31 27 -36 49c-15 -21 -34 -38 -55 -49s-43 -17 -64 -17c-23 0 -43 4 -62 12s-35 19 -49 34c-13 15 -24 33 -31 54s-11 45 -11 71c0 33 5 64 16 93s25 53 43 74c19 21 40 37 64 48c24 12 50 18 77 18c11 0 21 -1 32 -4s22 -7 31 -12
c10 -5 19 -12 27 -21c7 -8 13 -18 17 -29l9 53h79l-54 -251c-2 -10 -3 -19 -3 -28c0 -11 3 -21 9 -29c5 -8 15 -12 29 -12s28 5 41 15c13 11 24 25 34 42c10 18 18 38 24 61s9 47 9 72c0 37 -7 70 -20 101s-32 58 -56 81c-25 23 -54 40 -89 53s-73 20 -115 20
c-44 0 -85 -8 -122 -23s-70 -37 -97 -65c-28 -28 -50 -62 -65 -101s-23 -82 -23 -130c0 -44 7 -85 22 -122c14 -37 35 -70 62 -97s61 -49 100 -64s84 -23 134 -23c37 0 72 6 107 17s68 29 98 53l41 -54c-15 -14 -32 -26 -51 -37c-19 -12 -40 -21 -62 -29
c-21 -7 -44 -13 -67 -17s-45 -6 -66 -6c-59 0 -113 9 -162 27c-49 19 -91 45 -126 78s-63 73 -83 120c-19 47 -29 98 -29 155c0 58 10 111 31 159s49 89 84 124c35 34 76 61 123 80s97 28 150 28c51 0 98 -8 142 -25c43 -17 81 -39 113 -68s57 -64 76 -104
c18 -40 27 -83 27 -130c0 -37 -5 -72 -15 -103c-10 -32 -24 -60 -41 -83s-37 -41 -60 -54s-48 -20 -74 -20zM519 370c0 30 -7 53 -22 69c-14 17 -35 25 -62 25c-18 0 -34 -4 -49 -13c-15 -8 -27 -19 -38 -33c-10 -13 -18 -29 -24 -47c-5 -17 -8 -35 -8 -54
c0 -15 1 -30 4 -43s7 -25 14 -35c7 -9 16 -17 27 -23c11 -5 24 -8 40 -8c17 0 32 4 47 12c14 8 26 19 36 33c11 15 19 32 25 52s9 42 10 65z" />
    <glyph glyph-name="A" unicode="A" horiz-adv-x="711" 
d="M511 198h-314l-75 -198h-105l282 709h113l282 -709h-106zM232 289h244l-123 318z" />
    <glyph glyph-name="B" unicode="B" horiz-adv-x="616" 
d="M326 709c34 0 64 -5 91 -15c26 -9 48 -23 67 -40c18 -17 32 -37 42 -60c9 -23 14 -49 14 -77c0 -38 -10 -70 -29 -97c-20 -26 -46 -45 -77 -56c20 -5 38 -13 54 -24s30 -24 41 -39s19 -32 25 -50c5 -19 8 -38 8 -58c0 -28 -5 -54 -16 -77c-11 -24 -26 -44 -45 -61
s-42 -31 -69 -40c-27 -10 -56 -15 -89 -15h-248v709h231zM315 399c40 0 71 10 93 31s33 49 33 82c0 34 -11 61 -34 81s-55 30 -96 30h-118v-224h122zM329 86c40 0 72 10 97 30c24 21 36 48 36 83c0 34 -11 62 -32 83c-21 22 -54 33 -97 33h-140v-229h136z" />
    <glyph glyph-name="C" unicode="C" horiz-adv-x="748" 
d="M401 -15c-46 0 -90 8 -132 25c-43 16 -80 40 -112 71c-33 31 -59 70 -78 116c-20 46 -30 99 -30 158s10 112 30 158c20 45 47 84 80 115s70 55 113 72c42 16 85 24 129 24c41 0 78 -5 112 -16s64 -26 91 -45s49 -43 68 -71c18 -28 32 -59 41 -93l-91 -32
c-13 54 -39 95 -76 124c-38 29 -86 43 -145 43c-32 0 -63 -6 -94 -17c-30 -12 -57 -30 -81 -53c-23 -23 -42 -52 -56 -87s-21 -76 -21 -122s7 -86 21 -121s33 -65 56 -88c24 -24 51 -42 81 -53c31 -12 62 -18 94 -18c30 0 57 4 82 13s46 21 65 36s35 33 48 54s24 43 31 67
l87 -32c-9 -33 -23 -64 -42 -92s-41 -52 -68 -72c-26 -20 -56 -36 -90 -47c-35 -11 -72 -17 -113 -17z" />
    <glyph glyph-name="D" unicode="D" horiz-adv-x="730" 
d="M338 87c33 0 64 6 93 17s55 27 77 49s39 50 52 83s19 72 19 117s-6 84 -19 118c-13 33 -30 61 -51 84c-22 22 -47 39 -76 50s-60 17 -93 17h-147v-535h145zM95 0v709h248c45 0 88 -8 129 -23s76 -38 107 -68s55 -67 74 -111c18 -45 27 -96 27 -154s-9 -109 -27 -153
c-19 -44 -44 -81 -75 -110c-31 -30 -67 -52 -108 -67s-84 -23 -129 -23h-246z" />
    <glyph glyph-name="E" unicode="E" horiz-adv-x="580" 
d="M95 0v709h431v-91h-333v-218h302v-92h-302v-217h333v-91h-431z" />
    <glyph glyph-name="F" unicode="F" horiz-adv-x="571" 
d="M95 0v709h431v-91h-333v-228h302v-92h-302v-298h-98z" />
    <glyph glyph-name="G" unicode="G" horiz-adv-x="772" 
d="M629 0l-9 100c-8 -14 -19 -28 -32 -42c-13 -13 -30 -26 -49 -37s-40 -19 -65 -26c-24 -7 -51 -10 -81 -10c-45 0 -88 8 -129 24s-78 40 -110 71s-58 70 -77 116s-28 99 -28 159s10 113 30 159s46 84 79 115s71 55 113 71s85 24 129 24c39 0 75 -5 109 -16
c33 -10 64 -24 91 -43s50 -41 70 -68c19 -26 34 -55 44 -87l-89 -38c-16 51 -44 91 -83 119c-39 29 -87 43 -142 43c-32 0 -63 -6 -93 -17s-57 -29 -80 -52s-42 -53 -56 -88c-15 -35 -22 -75 -22 -122s7 -89 21 -124c13 -35 32 -64 55 -87s49 -41 79 -53
c29 -11 60 -17 92 -17c39 0 73 6 100 18c27 13 50 28 67 47s30 39 38 61c8 21 13 41 14 59h-246v88h339v-347h-79z" />
    <glyph glyph-name="H" unicode="H" horiz-adv-x="748" 
d="M555 0v315h-362v-315h-98v709h98v-303h362v303h98v-709h-98z" />
    <glyph glyph-name="I" unicode="I" horiz-adv-x="290" 
d="M95 0v709h100v-709h-100z" />
    <glyph glyph-name="J" unicode="J" horiz-adv-x="551" 
d="M29 257l98 22v-67c0 -47 11 -82 34 -103c23 -22 52 -33 88 -33s64 11 85 34c21 22 31 54 31 95v504h98v-497c0 -31 -5 -61 -14 -88c-10 -27 -24 -51 -43 -72s-41 -37 -67 -49c-27 -12 -56 -18 -89 -18c-35 0 -66 5 -93 16s-50 26 -69 46s-34 44 -44 72
c-10 27 -15 58 -15 92v46z" />
    <glyph glyph-name="K" unicode="K" horiz-adv-x="663" 
d="M294 322l-101 -108v-214h-98v709h98v-365l332 365h129l-295 -316l299 -393h-124z" />
    <glyph glyph-name="L" unicode="L" horiz-adv-x="547" 
d="M95 0v709h98v-617h335v-92h-433z" />
    <glyph glyph-name="M" unicode="M" horiz-adv-x="956" 
d="M764 0v552l-242 -552h-90l-240 552v-552h-97v709h133l250 -577l252 577h131v-709h-97z" />
    <glyph glyph-name="N" unicode="N" horiz-adv-x="773" 
d="M576 0l-383 578v-578h-98v709h131l354 -544v544h98v-709h-102z" />
    <glyph glyph-name="O" unicode="O" horiz-adv-x="808" 
d="M148 355c0 -46 7 -86 22 -121c14 -35 33 -65 57 -88c23 -24 50 -42 81 -54c31 -11 63 -17 96 -17s65 6 96 17c31 12 58 30 82 54c23 23 42 53 57 88c14 35 21 75 21 121s-7 87 -21 122c-15 35 -34 64 -57 87c-24 23 -51 41 -82 53c-31 11 -63 17 -96 17s-65 -6 -96 -17
c-31 -12 -58 -30 -81 -53c-24 -23 -43 -52 -57 -87c-15 -35 -22 -76 -22 -122zM48 355c0 59 10 112 31 158c20 45 47 84 80 115s71 55 114 71c43 17 86 25 131 25s88 -8 131 -25c43 -16 81 -40 114 -71s60 -70 81 -115c20 -46 30 -99 30 -158s-10 -112 -30 -158
c-21 -46 -48 -85 -81 -116s-71 -55 -114 -71c-43 -17 -86 -25 -131 -25s-88 8 -131 25c-43 16 -81 40 -114 71s-60 70 -80 116c-21 46 -31 99 -31 158z" />
    <glyph glyph-name="P" unicode="P" horiz-adv-x="602" 
d="M335 378c43 0 76 11 101 32c24 22 36 51 36 88c0 38 -12 68 -36 90c-25 22 -58 33 -101 33h-142v-243h142zM193 290v-290h-98v709h258c33 0 63 -5 90 -16s50 -26 69 -45s33 -41 44 -66s16 -53 16 -83s-5 -58 -16 -84c-11 -25 -25 -47 -44 -66c-19 -18 -42 -32 -69 -43
s-57 -16 -90 -16h-160z" />
    <glyph glyph-name="Q" unicode="Q" horiz-adv-x="808" 
d="M48 355c0 59 10 112 31 157c20 46 47 85 80 116s71 55 114 71c43 17 86 25 131 25s88 -8 131 -25c43 -16 81 -40 114 -71s60 -70 81 -116c20 -45 30 -98 30 -157c0 -57 -9 -107 -27 -150c-19 -43 -43 -81 -73 -112l83 -93l-67 -59l-86 95c-28 -17 -58 -30 -89 -38
c-32 -9 -64 -13 -97 -13c-45 0 -88 8 -131 25c-43 16 -81 40 -114 71s-60 70 -80 116c-21 46 -31 99 -31 158zM148 355c0 -46 7 -86 22 -121c14 -35 33 -65 57 -88c23 -24 50 -42 81 -54c31 -11 63 -17 96 -17c45 0 87 10 124 31l-123 138l68 59l124 -140c19 23 35 51 46 82
c11 32 17 69 17 110c0 46 -7 86 -21 121c-15 35 -34 65 -57 88c-24 23 -51 41 -82 52c-31 12 -63 18 -96 18s-65 -6 -96 -18c-31 -11 -58 -29 -81 -52c-24 -23 -43 -53 -57 -88c-15 -35 -22 -75 -22 -121z" />
    <glyph glyph-name="R" unicode="R" horiz-adv-x="629" 
d="M300 290h-106v-290h-99v709h267c33 0 64 -6 91 -17s49 -26 68 -45s33 -41 43 -67c10 -25 15 -53 15 -82c0 -51 -15 -95 -45 -131c-31 -37 -73 -60 -127 -70l169 -297h-114zM344 378c40 0 72 11 97 32c25 22 37 51 37 88c0 38 -12 68 -37 90s-57 33 -97 33h-150v-243h150z
" />
    <glyph glyph-name="S" unicode="S" horiz-adv-x="594" 
d="M452 517c-2 13 -6 26 -13 41c-7 14 -16 27 -28 39s-27 22 -45 30c-18 7 -39 11 -64 11c-20 0 -38 -3 -55 -9s-31 -14 -43 -25c-13 -11 -22 -23 -29 -37c-7 -15 -10 -30 -10 -47c0 -25 8 -47 23 -65c15 -19 38 -31 68 -38l106 -23c59 -13 105 -37 137 -72
c31 -35 47 -77 47 -127c0 -27 -6 -54 -17 -79s-28 -48 -49 -67s-47 -35 -77 -46c-30 -12 -64 -18 -102 -18c-43 0 -80 6 -111 19c-32 13 -59 29 -80 49c-22 20 -39 43 -51 68s-20 50 -23 75l94 30c2 -20 7 -39 15 -57c7 -19 18 -35 33 -49c14 -14 31 -25 51 -33
c21 -9 44 -13 71 -13c49 0 85 11 109 33c25 22 37 49 37 80c0 25 -9 48 -26 69c-17 20 -44 34 -80 41l-101 22c-51 11 -92 33 -125 66c-32 32 -48 75 -48 128c0 28 6 55 18 80s28 48 49 67s46 35 75 47c29 11 59 17 92 17c40 0 74 -5 103 -16c28 -11 52 -26 71 -43
s33 -36 44 -57s18 -41 22 -60z" />
    <glyph glyph-name="T" unicode="T" horiz-adv-x="608" 
d="M353 618v-618h-98v618h-237v91h572v-91h-237z" />
    <glyph glyph-name="U" unicode="U" horiz-adv-x="686" 
d="M343 -15c-36 0 -69 5 -100 17c-31 11 -58 27 -81 49c-23 21 -41 48 -54 80s-20 69 -20 111v467h97v-464c0 -54 14 -96 42 -125c27 -29 66 -44 116 -44s89 15 116 44s41 71 41 125v464h98v-467c0 -42 -6 -79 -19 -111s-31 -59 -54 -80c-23 -22 -50 -38 -81 -49
c-31 -12 -65 -17 -101 -17z" />
    <glyph glyph-name="V" unicode="V" horiz-adv-x="676" 
d="M555 709h103l-273 -709h-97l-267 709h104l214 -583z" />
    <glyph glyph-name="W" unicode="W" horiz-adv-x="1020" 
d="M895 709h101l-202 -709h-101l-185 575l-183 -575h-98l-205 709h101l156 -555l178 555h103l182 -561z" />
    <glyph glyph-name="X" unicode="X" horiz-adv-x="625" 
d="M370 355l238 -355h-117l-179 277l-183 -277h-115l242 355l-240 354h118l179 -278l182 278h116z" />
    <glyph glyph-name="Y" unicode="Y" horiz-adv-x="642" 
d="M22 709h118l184 -316l184 316h112l-250 -406v-303h-98v303z" />
    <glyph glyph-name="Z" unicode="Z" horiz-adv-x="633" 
d="M42 0v98l423 520h-413v91h532v-95l-425 -522h430v-92h-547z" />
    <glyph glyph-name="bracketleft" unicode="[" horiz-adv-x="297" 
d="M74 -148v933h193v-76h-111v-782h111v-75h-193z" />
    <glyph glyph-name="backslash" unicode="\" horiz-adv-x="489" 
d="M27 709h93l341 -709h-93z" />
    <glyph glyph-name="bracketright" unicode="]" horiz-adv-x="297" 
d="M30 -148v75h111v782h-111v76h193v-933h-193z" />
    <glyph glyph-name="asciicircum" unicode="^" horiz-adv-x="551" 
d="M412 354l-136 258l-137 -258h-99l194 356h83l194 -356h-99z" />
    <glyph glyph-name="underscore" unicode="_" horiz-adv-x="522" 
d="M5 -79v79h512v-79h-512z" />
    <glyph glyph-name="grave" unicode="`" horiz-adv-x="272" 
d="M34 689h118l86 -146h-78z" />
    <glyph glyph-name="a" unicode="a" horiz-adv-x="523" 
d="M44 129c0 21 4 40 11 57s18 32 31 44s28 22 46 29s37 13 58 16l130 19c15 2 25 6 30 13s7 14 7 23c0 23 -8 43 -24 60c-17 17 -43 26 -80 26c-33 0 -59 -9 -77 -28c-18 -18 -29 -41 -32 -69l-90 21c3 23 10 44 21 63s25 36 42 49c17 14 38 25 61 33c23 7 47 11 73 11
c36 0 67 -5 92 -14c25 -10 46 -23 62 -39s28 -35 35 -56s11 -44 11 -67v-241c0 -21 1 -38 2 -51s3 -22 4 -28h-92c-1 6 -2 14 -3 24s-2 24 -2 41c-5 -9 -12 -18 -21 -27s-19 -18 -32 -26s-27 -14 -44 -19s-37 -8 -58 -8c-25 0 -47 4 -66 12c-20 8 -37 19 -51 32
s-25 28 -32 45c-8 17 -12 36 -12 55zM218 64c19 0 38 2 55 7s31 13 44 24c12 11 22 26 29 44c7 19 11 41 11 67v22l-147 -22c-20 -3 -37 -11 -50 -23c-13 -11 -20 -28 -20 -49c0 -18 7 -34 21 -49c14 -14 33 -21 57 -21z" />
    <glyph glyph-name="b" unicode="b" horiz-adv-x="594" 
d="M76 0v724h93v-311c11 21 31 40 58 57s61 25 101 25c37 0 69 -6 96 -19s50 -31 69 -54s33 -50 42 -81s14 -63 14 -98c0 -36 -5 -69 -15 -100s-25 -58 -44 -81s-42 -42 -70 -55c-27 -13 -59 -20 -95 -20s-67 7 -94 22c-26 15 -47 35 -62 61v-70h-93zM453 243
c0 52 -13 93 -38 124c-25 30 -60 45 -104 45c-21 0 -40 -4 -58 -12c-17 -8 -32 -19 -45 -33c-13 -15 -23 -32 -30 -53s-10 -45 -10 -71s3 -50 10 -71s17 -39 30 -54s28 -27 45 -35c18 -8 37 -12 58 -12c43 0 78 16 104 47c25 31 38 73 38 125z" />
    <glyph glyph-name="c" unicode="c" horiz-adv-x="539" 
d="M286 409c-19 0 -38 -3 -55 -10s-33 -18 -47 -32c-13 -14 -24 -31 -32 -52s-12 -46 -12 -74c0 -27 4 -51 12 -72s19 -39 32 -53c13 -15 29 -26 47 -33s37 -11 56 -11c23 0 42 3 57 10c16 7 29 15 39 25c11 10 19 21 25 33c6 11 10 22 13 31l83 -36c-6 -17 -15 -35 -26 -52
c-11 -18 -26 -34 -44 -49s-39 -26 -64 -35c-24 -9 -52 -14 -83 -14c-35 0 -68 7 -98 20c-29 13 -55 31 -76 54s-38 50 -51 81c-12 31 -18 64 -18 101s6 72 18 103c13 31 30 58 51 81c22 22 48 39 78 52c29 13 61 19 95 19c32 0 60 -4 85 -13c24 -9 45 -21 63 -36
c17 -15 31 -31 42 -49c11 -19 19 -37 24 -55l-85 -36c-3 12 -8 24 -14 36s-14 23 -24 33c-11 9 -23 17 -38 24c-15 6 -32 9 -53 9z" />
    <glyph glyph-name="d" unicode="d" horiz-adv-x="589" 
d="M140 242c0 -25 3 -47 10 -68c6 -21 15 -40 27 -55s27 -27 44 -36s37 -13 60 -13c21 0 41 5 58 14s32 21 44 36s21 34 27 55c7 21 10 44 10 69c0 50 -12 90 -37 121c-24 31 -58 46 -101 46c-21 0 -41 -4 -58 -12c-18 -9 -33 -20 -45 -35c-13 -15 -22 -33 -29 -54
s-10 -43 -10 -68zM421 73c-11 -23 -29 -43 -54 -60s-57 -26 -95 -26c-35 0 -67 7 -95 20s-52 31 -71 54c-20 23 -35 50 -46 81s-16 64 -16 100c0 34 6 66 17 97c11 30 26 57 46 80s44 41 72 55c28 13 59 20 93 20c21 0 40 -2 57 -7c16 -5 30 -11 42 -18c12 -8 22 -17 30 -26
c8 -10 14 -20 18 -30v311h93v-635c0 -23 1 -43 2 -59s2 -26 3 -30h-91c-1 5 -2 14 -3 26c-1 11 -2 24 -2 39v8z" />
    <glyph glyph-name="e" unicode="e" horiz-adv-x="547" 
d="M407 290c-1 35 -13 64 -35 88c-22 23 -54 35 -97 35c-20 0 -38 -3 -53 -10c-16 -7 -29 -17 -40 -28c-11 -12 -20 -25 -27 -40s-10 -30 -11 -45h263zM502 137c-7 -21 -16 -41 -29 -59c-13 -19 -29 -35 -47 -48c-19 -14 -40 -25 -63 -33s-49 -12 -77 -12
c-32 0 -63 6 -92 17s-55 28 -77 50c-23 22 -40 49 -53 81s-20 68 -20 109c0 38 6 73 19 104s30 57 51 80c21 22 45 39 73 51c28 13 57 19 87 19c37 0 70 -6 99 -19c29 -12 53 -29 72 -51s34 -49 45 -80c10 -31 15 -65 15 -102v-17c-1 -5 -1 -10 -2 -13h-362
c1 -21 5 -41 12 -59s18 -33 31 -46s28 -23 46 -30c17 -7 36 -11 56 -11c39 0 69 9 90 28s36 42 45 69z" />
    <glyph glyph-name="f" unicode="f" horiz-adv-x="349" 
d="M211 396v-396h-97v396h-89v85h89v81c0 27 4 50 13 71c8 21 19 38 34 52c14 14 31 25 50 32s39 10 61 10c16 0 29 -1 39 -4c9 -3 15 -5 17 -6v-84c-3 1 -7 3 -13 4c-7 1 -16 2 -28 2c-8 0 -16 -1 -25 -3c-9 -3 -18 -7 -25 -13c-8 -6 -14 -14 -19 -25s-7 -24 -7 -41v-76
h116v-85h-116z" />
    <glyph glyph-name="g" unicode="g" horiz-adv-x="583" 
d="M135 -5c3 -34 17 -62 40 -85c24 -22 54 -33 91 -33c51 0 88 13 112 39c23 26 35 65 35 117v69c-11 -22 -30 -41 -55 -56s-56 -23 -92 -23c-32 0 -61 6 -88 18c-27 11 -51 27 -70 48c-20 20 -35 44 -46 73s-17 60 -17 94c0 33 5 63 16 92c11 28 26 53 45 74s43 37 70 50
c27 12 57 18 90 18c37 0 68 -7 93 -20s43 -32 55 -56v67h93v-445c0 -31 -4 -61 -12 -90s-21 -54 -40 -77c-19 -22 -44 -40 -75 -54c-31 -13 -69 -20 -114 -20c-30 0 -58 4 -83 13c-26 9 -49 22 -68 38c-20 16 -36 35 -48 56c-13 22 -20 46 -23 72zM280 102c41 0 74 14 99 42
s38 65 38 112s-13 84 -38 112s-58 42 -99 42c-42 0 -76 -14 -101 -42s-38 -65 -38 -112s12 -85 37 -112c25 -28 59 -42 102 -42z" />
    <glyph glyph-name="h" unicode="h" horiz-adv-x="559" 
d="M170 0h-94v724h94v-299c17 25 39 43 65 54s53 16 81 16c29 0 54 -5 76 -15c21 -9 39 -23 54 -40c14 -17 25 -37 32 -60s10 -48 10 -75v-305h-94v289c0 17 -2 32 -5 47c-4 15 -10 27 -19 38s-21 20 -35 26c-15 7 -32 10 -53 10c-18 0 -34 -3 -47 -10
c-14 -7 -26 -16 -35 -27s-16 -25 -21 -40s-8 -32 -9 -50v-283z" />
    <glyph glyph-name="i" unicode="i" horiz-adv-x="245" 
d="M76 0v481h93v-481h-93zM55 663c0 19 7 36 20 49s28 19 47 19s36 -6 49 -19s19 -30 19 -49s-6 -34 -19 -47s-30 -20 -49 -20s-34 7 -47 20s-20 28 -20 47z" />
    <glyph glyph-name="j" unicode="j" horiz-adv-x="246" 
d="M76 481h94v-537c0 -44 -12 -80 -35 -107c-23 -28 -56 -42 -98 -42c-18 0 -31 1 -39 3c-8 1 -14 3 -17 4v79c3 -1 6 -1 11 -2s12 -1 19 -1c25 0 42 6 51 18c9 13 14 30 14 52v533zM55 665c0 19 7 36 20 49s28 19 47 19s36 -6 49 -19s19 -30 19 -49s-6 -34 -19 -47
s-30 -20 -49 -20s-34 7 -47 20s-20 28 -20 47z" />
    <glyph glyph-name="k" unicode="k" horiz-adv-x="526" 
d="M302 278l209 -278h-118l-157 212l-67 -67v-145h-93v724h93v-456l208 213h130z" />
    <glyph glyph-name="l" unicode="l" horiz-adv-x="246" 
d="M76 0v724h94v-724h-94z" />
    <glyph glyph-name="m" unicode="m" horiz-adv-x="854" 
d="M76 0v481h90v-64c15 27 36 46 63 59s55 19 83 19c30 0 58 -7 84 -22c27 -15 47 -38 60 -69c19 35 43 59 72 72s58 19 89 19c21 0 41 -4 61 -11s38 -18 53 -33c16 -15 29 -34 38 -57s14 -51 14 -82v-312h-93v302c0 31 -8 58 -25 79c-16 21 -42 31 -77 31
c-33 0 -60 -11 -80 -34c-21 -23 -31 -52 -31 -87v-291h-94v302c0 31 -8 58 -24 79s-42 31 -78 31c-34 0 -61 -11 -81 -34c-21 -23 -31 -52 -31 -88v-290h-93z" />
    <glyph glyph-name="n" unicode="n" horiz-adv-x="559" 
d="M170 0h-94v481h92v-69c17 30 39 51 66 64s54 19 82 19c29 0 54 -5 76 -15c21 -9 39 -23 54 -40c14 -17 25 -37 32 -60s10 -48 10 -75v-305h-94v289c0 17 -2 32 -5 47c-4 15 -10 28 -19 39s-21 19 -35 26c-15 6 -32 9 -53 9c-19 0 -35 -3 -49 -10s-26 -17 -35 -29
s-16 -26 -21 -42s-7 -33 -7 -51v-278z" />
    <glyph glyph-name="o" unicode="o" horiz-adv-x="580" 
d="M290 69c20 0 39 4 57 11s34 18 48 33s25 33 33 54s12 46 12 74s-4 53 -12 74s-19 38 -33 53s-30 26 -48 33s-37 11 -57 11s-39 -4 -57 -11s-34 -18 -48 -33s-25 -32 -33 -53s-12 -46 -12 -74s4 -53 12 -74s19 -39 33 -54s30 -26 48 -33s37 -11 57 -11zM290 496
c36 0 69 -6 99 -19s56 -31 78 -54s39 -49 51 -80s18 -65 18 -102s-6 -71 -18 -102s-29 -58 -51 -81s-48 -40 -78 -53c-30 -14 -63 -20 -99 -20s-69 6 -99 20c-30 13 -56 30 -78 53s-39 50 -51 81s-18 65 -18 102s6 71 18 102s29 57 51 80s48 41 78 54s63 19 99 19z" />
    <glyph glyph-name="p" unicode="p" horiz-adv-x="594" 
d="M76 -190v671h91v-75c13 24 34 44 61 61s61 25 100 25c36 0 68 -6 96 -19c27 -13 50 -31 69 -54c18 -23 32 -49 42 -80c9 -31 14 -63 14 -98c0 -36 -5 -69 -15 -100s-25 -57 -44 -80s-43 -41 -70 -54c-28 -13 -60 -20 -95 -20c-37 0 -69 8 -96 23s-47 34 -60 55v-255h-93z
M453 241c0 24 -3 46 -10 67c-7 20 -16 38 -28 53s-27 26 -44 35c-18 9 -38 13 -60 13c-21 0 -41 -4 -58 -13c-18 -9 -33 -20 -46 -35s-22 -33 -29 -53c-7 -21 -10 -43 -10 -67c0 -25 3 -47 10 -68s16 -39 29 -54s28 -27 46 -35c17 -9 37 -13 58 -13c22 0 42 4 59 13
c17 8 32 20 45 35c12 15 21 33 28 54s10 43 10 68z" />
    <glyph glyph-name="q" unicode="q" horiz-adv-x="592" 
d="M423 -190v258c-13 -25 -32 -44 -57 -59c-26 -15 -57 -22 -93 -22c-35 0 -66 7 -94 20s-52 32 -72 55s-35 50 -46 81s-16 64 -16 99c0 34 5 66 16 97c10 30 25 57 44 80s43 41 71 54s60 20 95 20c21 0 39 -2 56 -7s32 -12 45 -20s23 -17 32 -27c9 -11 16 -21 21 -32v74h91
v-671h-93zM141 242c0 -25 3 -47 10 -68s16 -40 29 -55c12 -15 27 -27 44 -36s37 -13 58 -13s41 4 58 13s32 21 45 36s22 34 29 55s10 43 10 68s-3 47 -10 68s-16 38 -29 53s-28 26 -45 35c-17 8 -37 12 -58 12c-44 0 -78 -15 -103 -46s-38 -72 -38 -122z" />
    <glyph glyph-name="r" unicode="r" horiz-adv-x="363" 
d="M343 386c-14 2 -28 3 -41 3c-39 0 -71 -11 -96 -34c-24 -23 -36 -61 -36 -114v-241h-94v481h92v-84c9 19 19 34 30 46c12 11 24 21 37 28s26 11 39 14s26 4 38 4c7 0 13 0 18 -1c6 -1 10 -1 13 -2v-100z" />
    <glyph glyph-name="s" unicode="s" horiz-adv-x="455" 
d="M123 155c3 -25 14 -47 33 -64s45 -26 79 -26c27 0 47 6 61 19s21 28 21 45c0 15 -5 28 -16 39s-26 18 -46 23l-82 18c-38 8 -68 24 -89 48s-31 53 -31 87c0 21 4 40 13 59c9 18 22 34 37 48s33 25 54 33s44 12 67 12c33 0 60 -5 82 -14c23 -9 41 -21 55 -34
c14 -14 24 -28 31 -43s12 -27 15 -38l-83 -31c-1 6 -4 14 -7 23s-9 18 -16 26c-7 9 -17 16 -30 22s-28 9 -47 9c-24 0 -43 -7 -58 -20s-22 -27 -22 -44c0 -31 18 -50 55 -58l78 -17c44 -9 77 -27 100 -52c22 -25 33 -55 33 -91c0 -17 -4 -35 -11 -52s-18 -33 -32 -48
c-15 -15 -33 -26 -55 -36c-22 -9 -48 -13 -78 -13c-33 0 -62 5 -85 14c-24 9 -44 21 -59 35c-16 14 -28 29 -36 46c-9 16 -14 31 -16 45z" />
    <glyph glyph-name="t" unicode="t" horiz-adv-x="347" 
d="M207 481h104v-85h-104v-250c0 -22 5 -39 15 -50s27 -16 52 -16c6 0 13 0 20 1s13 2 17 3v-80c-4 -1 -12 -3 -23 -6c-11 -2 -25 -3 -41 -3c-41 0 -74 12 -98 36c-24 23 -36 57 -36 101v264h-92v85h26c26 0 45 7 57 21c11 14 17 32 17 53v78h86v-152z" />
    <glyph glyph-name="u" unicode="u" horiz-adv-x="559" 
d="M393 58c-13 -25 -33 -44 -60 -55c-27 -12 -54 -18 -82 -18s-53 5 -76 15c-22 10 -41 24 -56 41s-27 38 -36 61c-8 23 -12 49 -12 76v303h94v-289c0 -17 2 -32 6 -47s10 -29 19 -40s20 -20 34 -27c13 -7 30 -10 50 -10c38 0 67 11 86 34s28 52 28 89v290h94v-392
c0 -19 1 -37 2 -52c1 -16 2 -28 3 -37h-90c-1 5 -2 14 -3 26c-1 11 -1 22 -1 32z" />
    <glyph glyph-name="v" unicode="v" horiz-adv-x="528" 
d="M312 0h-95l-195 481h106l137 -371l138 371h101z" />
    <glyph glyph-name="w" unicode="w" horiz-adv-x="816" 
d="M459 481l125 -362l106 362h99l-156 -481h-97l-128 366l-125 -366h-99l-158 481h103l108 -362l125 362h97z" />
    <glyph glyph-name="x" unicode="x" horiz-adv-x="507" 
d="M197 245l-173 236h114l118 -169l116 169h111l-171 -236c5 -7 12 -16 21 -29s20 -27 32 -43c11 -16 23 -33 36 -50c12 -18 24 -35 36 -51c11 -16 22 -30 31 -43s16 -22 21 -29h-113l-124 177l-122 -177h-112z" />
    <glyph glyph-name="y" unicode="y" horiz-adv-x="538" 
d="M107 -201l120 254l-207 428h108l150 -332l144 332h101l-313 -682h-103z" />
    <glyph glyph-name="z" unicode="z" horiz-adv-x="477" 
d="M46 0v82l264 314h-260v85h377v-82l-264 -314h269v-85h-386z" />
    <glyph glyph-name="braceleft" unicode="{" horiz-adv-x="346" 
d="M14 361c15 0 29 2 42 5c13 4 25 10 35 18s18 18 24 31s9 28 9 47v137c0 63 15 109 46 140s75 46 134 46h13v-75h-13c-37 0 -63 -8 -77 -25s-21 -43 -21 -80v-164c0 -34 -9 -62 -28 -83s-44 -34 -76 -40c32 -6 57 -20 76 -41s28 -48 28 -82v-163c0 -37 7 -63 21 -80
s40 -25 77 -25h13v-75h-13c-59 0 -103 15 -134 46s-46 77 -46 140v136c0 19 -3 34 -9 47s-14 23 -24 31s-22 14 -35 18c-13 3 -27 5 -42 5v86z" />
    <glyph glyph-name="bar" unicode="|" horiz-adv-x="230" 
d="M74 -148v933h82v-933h-82z" />
    <glyph glyph-name="braceright" unicode="}" horiz-adv-x="346" 
d="M332 275c-15 0 -29 -2 -42 -5c-13 -4 -25 -10 -35 -18s-18 -18 -24 -31s-9 -28 -9 -47v-136c0 -63 -15 -109 -46 -140s-75 -46 -134 -46h-13v75h13c37 0 63 8 77 25s21 43 21 80v163c0 34 9 62 28 83s44 34 76 40c-32 6 -57 20 -76 41s-28 48 -28 82v164
c0 37 -7 63 -21 80s-40 25 -77 25h-13v75h13c59 0 103 -15 134 -46s46 -77 46 -140v-137c0 -19 3 -34 9 -47s14 -23 24 -31s22 -14 35 -17c13 -4 27 -6 42 -6v-86z" />
    <glyph glyph-name="asciitilde" unicode="~" horiz-adv-x="634" 
d="M275 264c-19 10 -37 15 -54 15c-19 0 -36 -5 -52 -15c-16 -11 -31 -25 -44 -42l-57 46c19 31 41 54 67 71c26 16 54 24 85 24c15 0 31 -2 47 -6s32 -11 48 -20l46 -25c19 -11 38 -16 57 -16s36 5 52 15c16 9 30 23 41 40l57 -46c-19 -31 -41 -54 -66 -69
c-26 -16 -54 -24 -84 -24c-32 0 -64 9 -97 27z" />
    <glyph glyph-name="uni00A0" unicode="&#xa0;" horiz-adv-x="252" 
 />
    <glyph glyph-name="exclamdown" unicode="&#xa1;" horiz-adv-x="242" 
d="M180 -217h-118l26 505h67zM56 430c0 18 6 34 19 47s28 19 46 19s34 -6 47 -19s19 -29 19 -47s-6 -33 -19 -46s-29 -19 -47 -19s-33 6 -46 19s-19 28 -19 46z" />
    <glyph glyph-name="cent" unicode="&#xa2;" horiz-adv-x="553" 
d="M427 416c-5 20 -16 40 -31 59s-37 31 -65 38v-326c29 7 51 20 67 39s27 38 34 58l81 -30c-10 -37 -30 -71 -61 -101s-71 -49 -120 -56v-97h-78v98c-30 4 -57 13 -82 27s-47 32 -65 54c-19 22 -33 48 -43 77c-11 29 -16 60 -16 94s5 66 16 95c10 29 24 54 43 76
c18 22 40 40 65 55c25 14 52 23 82 27v106h78v-107c49 -7 88 -24 118 -53s50 -63 60 -102zM141 350c0 -43 10 -79 31 -107c21 -29 49 -47 83 -56v326c-34 -8 -62 -26 -83 -55s-31 -65 -31 -108z" />
    <glyph glyph-name="sterling" unicode="&#xa3;" horiz-adv-x="604" 
d="M254 304c1 -7 3 -14 4 -21s2 -15 2 -24c0 -38 -8 -72 -24 -102c-16 -29 -36 -53 -61 -71h195c35 0 62 11 81 33s30 50 31 85l86 -14c-2 -57 -19 -103 -51 -138s-76 -52 -133 -52h-329v82c30 16 56 38 78 67c21 29 32 64 32 104c0 9 -1 18 -2 26s-3 16 -5 25h-96v80h73
c-9 21 -16 43 -23 64s-11 45 -11 71c0 29 5 55 15 80s24 46 43 64c19 19 41 33 68 43c27 11 57 16 90 16c34 0 64 -5 89 -16s46 -25 63 -42s30 -37 39 -60c9 -22 14 -45 15 -68l-84 -21c-2 36 -14 65 -35 88c-22 22 -51 33 -87 33c-35 0 -64 -10 -86 -30s-33 -51 -33 -92
c0 -25 4 -47 13 -67c8 -20 16 -41 23 -63h190v-80h-170z" />
    <glyph glyph-name="currency" unicode="&#xa4;" horiz-adv-x="614" 
d="M97 347c0 23 3 44 10 65c7 20 16 39 27 56l-75 77l60 59l75 -78c17 11 36 20 55 26s40 9 61 9c40 0 77 -10 111 -31l72 74l60 -59l-70 -73c13 -17 23 -37 30 -58s11 -44 11 -67s-3 -45 -10 -66s-17 -40 -30 -57l69 -71l-59 -59l-70 72c-17 -11 -35 -19 -54 -24
c-19 -6 -39 -9 -60 -9c-22 0 -43 3 -63 10s-39 16 -56 27l-73 -76l-59 59l73 76c-11 17 -20 36 -26 56c-6 19 -9 40 -9 62zM180 347c0 -19 3 -37 10 -53c7 -17 16 -31 28 -42c12 -12 26 -21 42 -27c15 -7 32 -10 50 -10s35 3 51 10c15 6 29 15 40 27c11 11 20 25 27 42
c7 16 10 34 10 53s-3 37 -10 53s-16 30 -27 42c-11 11 -25 20 -40 27c-16 6 -33 9 -51 9s-35 -3 -50 -9c-16 -7 -30 -16 -42 -27c-12 -12 -21 -26 -28 -42s-10 -34 -10 -53z" />
    <glyph glyph-name="yen" unicode="&#xa5;" horiz-adv-x="641" 
d="M233 374l-201 335h111l180 -307l179 307h107l-203 -335h149v-72h-186v-75h186v-72h-186v-155h-98v155h-185v72h185v75h-185v72h147z" />
    <glyph glyph-name="brokenbar" unicode="&#xa6;" horiz-adv-x="240" 
d="M161 785v-399h-82v399h82zM161 251v-399h-82v399h82z" />
    <glyph glyph-name="section" unicode="&#xa7;" horiz-adv-x="516" 
d="M453 244c0 -15 -3 -30 -8 -43s-12 -24 -20 -35s-17 -20 -26 -28c-10 -7 -20 -13 -29 -17c27 -17 49 -39 64 -64s23 -52 23 -80c0 -27 -6 -52 -17 -75c-11 -22 -25 -41 -44 -57c-19 -15 -40 -27 -65 -36s-50 -13 -77 -13c-63 0 -111 17 -144 51c-32 34 -49 78 -50 132
l88 18c0 -36 9 -66 26 -89c18 -23 45 -34 82 -34c31 0 57 8 76 24s29 39 29 69c0 19 -5 35 -16 50s-25 27 -42 36l-103 54c-18 9 -35 19 -52 29c-17 11 -31 22 -44 35s-23 28 -30 45s-11 36 -11 58c0 15 3 30 8 43c5 14 12 26 20 37s17 20 27 27c10 8 20 14 29 17
c-28 17 -50 39 -65 64c-15 26 -23 53 -23 81c0 27 5 52 16 74c11 23 26 42 45 57c19 16 40 28 64 37c25 9 50 13 77 13c32 0 60 -5 84 -15c24 -9 44 -22 61 -39c17 -16 29 -35 37 -58c9 -22 13 -46 13 -71l-89 -18c0 37 -9 66 -27 88c-17 23 -44 34 -81 34
c-31 0 -57 -9 -76 -26s-29 -39 -29 -67c0 -36 20 -64 59 -85l102 -54c18 -10 35 -20 52 -31c17 -10 31 -22 44 -35s23 -28 31 -45c7 -17 11 -36 11 -58zM200 370c-11 -5 -22 -15 -32 -30s-15 -31 -15 -49c0 -19 5 -36 14 -49c10 -13 26 -26 49 -38l99 -54c11 5 21 15 32 29
c10 15 15 31 15 50s-5 35 -15 48c-10 14 -26 27 -48 39z" />
    <glyph glyph-name="dieresis" unicode="&#xa8;" horiz-adv-x="379" 
d="M38 621c0 16 6 30 17 41s24 17 40 17c17 0 31 -6 42 -17s17 -25 17 -41c0 -17 -6 -30 -17 -41s-25 -17 -42 -17c-16 0 -29 6 -40 17s-17 24 -17 41zM225 621c0 16 6 30 17 41s24 17 41 17c16 0 30 -6 41 -17s17 -25 17 -41c0 -17 -6 -30 -17 -41s-25 -17 -41 -17
c-17 0 -30 6 -41 17s-17 24 -17 41z" />
    <glyph glyph-name="copyright" unicode="&#xa9;" horiz-adv-x="829" 
d="M127 355c0 -42 7 -81 22 -117c15 -37 35 -68 61 -94c26 -27 56 -48 91 -63s72 -23 112 -23s77 8 112 23s65 36 91 63c26 26 46 57 61 94c15 36 22 75 22 117s-7 81 -22 117s-35 67 -61 94s-56 48 -91 63s-72 22 -112 22s-77 -7 -112 -22s-65 -36 -91 -63s-46 -58 -61 -94
s-22 -75 -22 -117zM49 355c0 51 10 98 29 143s45 84 78 118c33 33 71 60 115 79s91 29 142 29s98 -10 143 -29s84 -46 117 -79c33 -34 59 -73 78 -118s29 -92 29 -143s-10 -98 -29 -143s-45 -85 -78 -118s-72 -60 -117 -79c-45 -20 -92 -30 -143 -30s-98 10 -142 30
c-44 19 -82 46 -115 79s-59 73 -78 118s-29 92 -29 143zM415 494c-15 0 -30 -3 -44 -8c-15 -6 -27 -15 -38 -26c-11 -12 -20 -26 -27 -43s-10 -37 -10 -60s3 -42 10 -59c6 -17 15 -32 26 -43c11 -12 23 -21 38 -27s30 -9 46 -9c18 0 34 3 47 9c13 5 23 12 32 20
c8 8 15 17 20 26s8 18 10 26l68 -30c-5 -14 -12 -28 -22 -42c-9 -15 -21 -28 -36 -40c-14 -12 -31 -22 -51 -29s-43 -11 -68 -11c-29 0 -55 5 -79 16s-45 25 -63 44c-17 19 -31 41 -41 66s-15 53 -15 83c0 31 5 59 15 84s24 47 41 66c18 18 39 32 63 43c24 10 50 15 78 15
c26 0 49 -4 69 -11s37 -17 51 -29c15 -12 26 -25 35 -40s16 -30 20 -45l-70 -29c-2 9 -6 19 -11 29s-11 19 -20 27c-8 8 -18 15 -30 20c-13 5 -27 7 -44 7z" />
    <glyph glyph-name="guillemotleft" unicode="&#xab;" horiz-adv-x="512" 
d="M175 99l-133 191l133 191h93l-131 -191l131 -191h-93zM370 99l-133 191l133 191h93l-131 -191l131 -191h-93z" />
    <glyph glyph-name="logicalnot" unicode="&#xac;" horiz-adv-x="586" 
d="M429 210v195h-379v82h463v-277h-84z" />
    <glyph glyph-name="uni00AD" unicode="&#xad;" horiz-adv-x="407" 
d="M68 246v82h271v-82h-271z" />
    <glyph glyph-name="registered" unicode="&#xae;" horiz-adv-x="829" 
d="M49 355c0 51 10 98 29 143s45 84 78 118c33 33 71 60 115 79s91 29 142 29s98 -10 143 -29s84 -46 117 -79c33 -34 59 -73 78 -118s29 -92 29 -143s-10 -98 -29 -143s-45 -85 -78 -118s-72 -60 -117 -79c-45 -20 -92 -30 -143 -30s-98 10 -142 30c-44 19 -82 46 -115 79
s-59 73 -78 118s-29 92 -29 143zM127 355c0 -42 7 -81 22 -117c15 -37 35 -68 61 -94c26 -27 56 -48 91 -63s72 -23 112 -23s77 8 112 23s65 36 91 63c26 26 46 57 61 94c15 36 22 75 22 117s-7 81 -22 117s-35 67 -61 94s-56 48 -91 63s-72 22 -112 22s-77 -7 -112 -22
s-65 -36 -91 -63s-46 -58 -61 -94s-22 -75 -22 -117zM419 373c23 0 40 5 52 16c12 10 18 24 18 43c0 41 -23 61 -70 61h-52v-120h52zM367 157h-76v402h139c19 0 37 -3 54 -10c17 -6 31 -15 43 -26s22 -25 29 -40s10 -32 10 -50c0 -28 -8 -53 -24 -74
c-17 -21 -38 -36 -64 -45l90 -157h-87l-84 150h-30v-150z" />
    <glyph glyph-name="macron" unicode="&#xaf;" horiz-adv-x="343" 
d="M35 577v81h273v-81h-273z" />
    <glyph glyph-name="degree" unicode="&#xb0;" horiz-adv-x="401" 
d="M124 563c0 -23 8 -42 23 -57s33 -22 54 -22c22 0 40 7 55 22s22 34 22 57s-7 41 -22 56s-33 22 -55 22c-21 0 -39 -7 -54 -22s-23 -33 -23 -56zM41 563c0 22 4 43 13 62s20 35 35 50c15 14 32 25 51 33s40 12 61 12s42 -4 62 -12c19 -8 36 -19 51 -33
c15 -15 26 -31 35 -50s13 -40 13 -62s-4 -43 -13 -62s-20 -36 -35 -50c-15 -15 -32 -26 -51 -34c-20 -8 -41 -12 -62 -12s-42 4 -61 12s-36 19 -51 34c-15 14 -26 31 -35 50s-13 40 -13 62z" />
    <glyph glyph-name="plusminus" unicode="&#xb1;" horiz-adv-x="591" 
d="M254 447v136h82v-136h178v-77h-178v-134h-82v134h-177v77h177zM514 191v-79h-437v79h437z" />
    <glyph glyph-name="twosuperior" unicode="&#xb2;" horiz-adv-x="345" 
d="M44 568c-1 5 -2 11 -2 16c-1 6 -1 11 -1 15c0 16 3 31 9 45s15 26 26 37s25 19 41 25c17 7 35 10 56 10s39 -3 55 -10c16 -6 30 -14 41 -25c11 -10 20 -22 26 -36s9 -29 9 -44c0 -23 -6 -44 -19 -63c-13 -18 -30 -34 -51 -47l-72 -45c-7 -5 -14 -11 -20 -17
s-10 -13 -11 -20h175v-65h-268v13c0 30 7 57 20 82c13 24 35 45 65 63l60 37c29 17 43 38 43 63c0 13 -5 25 -14 35s-23 15 -40 15s-31 -5 -41 -16c-11 -11 -16 -25 -16 -42c0 -2 0 -6 1 -11c0 -5 1 -10 2 -15h-74z" />
    <glyph glyph-name="threesuperior" unicode="&#xb3;" horiz-adv-x="362" 
d="M120 565l95 79h-171v65h271v-63l-100 -80c14 -1 28 -4 41 -9s24 -12 34 -21s18 -21 24 -34s9 -28 9 -45s-3 -32 -10 -47s-17 -27 -30 -38s-28 -20 -45 -26c-18 -7 -38 -10 -60 -10s-41 3 -58 9s-31 14 -43 23c-13 9 -23 20 -30 33c-8 12 -13 25 -16 38l67 27
c3 -19 12 -35 27 -46c14 -12 31 -18 52 -18s37 5 50 16c12 11 18 24 18 39c0 21 -7 35 -21 44c-15 8 -30 12 -47 12c-5 0 -10 0 -15 -1s-10 -2 -13 -3z" />
    <glyph glyph-name="acute" unicode="&#xb4;" horiz-adv-x="274" 
d="M114 543h-79l87 146h118z" />
    <glyph glyph-name="mu" unicode="&#xb5;" horiz-adv-x="550" 
d="M391 58c-13 -25 -33 -44 -60 -55c-27 -12 -54 -18 -82 -18c-18 0 -34 2 -48 5c-13 4 -26 9 -38 15v-195h-94v671h94v-289c0 -17 2 -32 6 -47s10 -29 19 -40s20 -20 34 -27c13 -7 30 -10 50 -10c38 0 67 11 86 34s28 52 28 89v290h94v-392c0 -19 1 -37 2 -54s2 -28 3 -35
h-90c-1 5 -2 14 -3 26c-1 11 -1 22 -1 32z" />
    <glyph glyph-name="paragraph" unicode="&#xb6;" horiz-adv-x="639" 
d="M325 -190h-83v511h-16c-26 0 -51 5 -74 14c-24 10 -45 23 -62 40c-18 17 -32 38 -42 61c-11 23 -16 48 -16 75c0 32 6 60 18 85s28 45 49 62s45 29 72 38s56 13 87 13h340v-81h-97v-818h-83v818h-93v-818z" />
    <glyph glyph-name="periodcentered" unicode="&#xb7;" horiz-adv-x="267" 
d="M64 284c0 19 7 36 20 50c13 13 30 20 49 20s36 -7 49 -20c14 -14 21 -31 21 -50s-7 -36 -21 -49c-13 -13 -30 -20 -49 -20s-36 7 -49 20s-20 30 -20 49z" />
    <glyph glyph-name="cedilla" unicode="&#xb8;" horiz-adv-x="294" 
d="M82 -62l48 76h71l-39 -60c28 0 51 -7 70 -22c18 -15 27 -35 27 -60c0 -12 -2 -23 -7 -34s-12 -20 -21 -28c-9 -9 -21 -15 -36 -20s-33 -8 -53 -8c-25 0 -47 5 -66 14s-34 20 -44 32l37 45c6 -7 15 -14 28 -22c12 -8 27 -12 44 -12c12 0 23 3 33 8c9 5 14 14 14 25
c0 9 -4 17 -11 23c-8 6 -19 9 -33 9c-11 0 -20 -2 -29 -5z" />
    <glyph glyph-name="onesuperior" unicode="&#xb9;" horiz-adv-x="239" 
d="M112 344v245h-86v52c25 1 45 8 62 21s27 28 30 47h71v-365h-77z" />
    <glyph glyph-name="guillemotright" unicode="&#xbb;" horiz-adv-x="512" 
d="M244 99l131 191l-131 191h93l133 -191l-133 -191h-93zM49 99l131 191l-131 191h93l133 -191l-133 -191h-93z" />
    <glyph glyph-name="onequarter" unicode="&#xbc;" horiz-adv-x="770" 
d="M101 0l466 709h83l-465 -709h-84zM121 344v245h-86v52c25 1 45 8 62 21s27 28 30 47h71v-365h-77zM408 145l177 220h85v-228h64v-65h-64v-72h-77v72h-185v73zM593 276l-111 -139h111v139z" />
    <glyph glyph-name="onehalf" unicode="&#xbd;" horiz-adv-x="790" 
d="M83 0l466 709h83l-465 -709h-84zM121 344v245h-86v52c25 1 45 8 62 21s27 28 30 47h71v-365h-77zM485 224c-1 5 -2 11 -3 16v15c0 16 3 31 9 45s15 26 26 37s25 19 41 25c17 7 35 10 56 10s39 -3 55 -10c16 -6 30 -14 41 -25c11 -10 20 -22 26 -36s9 -29 9 -44
c0 -23 -6 -44 -19 -63c-13 -18 -30 -34 -51 -47l-72 -45c-7 -5 -14 -11 -20 -17s-10 -13 -11 -20h175v-65h-268v13c0 30 7 57 20 82c13 24 35 45 65 63l60 37c29 17 43 38 43 63c0 13 -5 25 -14 35s-23 15 -40 15s-31 -5 -41 -16c-11 -11 -16 -25 -16 -42c0 -2 0 -6 1 -11
c0 -5 1 -10 2 -15h-74z" />
    <glyph glyph-name="threequarters" unicode="&#xbe;" horiz-adv-x="843" 
d="M175 0l466 709h83l-465 -709h-84zM482 145l177 220h85v-228h64v-65h-64v-72h-77v72h-185v73zM667 276l-111 -139h111v139zM125 565l95 79h-171v65h271v-63l-100 -80c14 -1 28 -4 41 -9s24 -12 34 -21s18 -21 24 -34s9 -28 9 -45s-3 -32 -10 -47s-17 -27 -30 -38
s-28 -20 -45 -26c-18 -7 -38 -10 -60 -10s-41 3 -58 9s-31 14 -43 23c-13 9 -23 20 -30 33c-8 12 -13 25 -16 38l67 27c3 -19 12 -35 27 -46c14 -12 31 -18 52 -18s37 5 50 16c12 11 18 24 18 39c0 21 -7 35 -21 44c-15 8 -30 12 -47 12c-5 0 -10 0 -15 -1s-10 -2 -13 -3z
" />
    <glyph glyph-name="questiondown" unicode="&#xbf;" horiz-adv-x="503" 
d="M311 289c1 -6 1 -12 1 -17v-18c0 -33 -6 -63 -19 -88s-34 -48 -64 -68l-44 -30c-17 -11 -30 -26 -39 -43s-14 -36 -14 -55c0 -15 3 -29 8 -42c5 -14 12 -26 22 -37c9 -11 22 -19 37 -25c15 -7 32 -10 52 -10c22 0 41 4 57 11c15 7 28 17 38 29s18 26 23 41s7 31 7 47
c0 9 -1 18 -2 27s-3 17 -5 22l97 -12c4 -14 6 -30 6 -48c0 -23 -4 -47 -13 -71s-22 -46 -40 -66s-41 -36 -68 -49c-28 -13 -61 -19 -100 -19c-35 0 -66 6 -93 17s-50 26 -69 45s-33 40 -42 65c-10 24 -15 49 -15 74c0 40 10 74 29 103c19 28 44 52 73 71l46 31
c15 11 27 25 34 42s10 35 10 54v10c0 3 0 6 -1 9h88zM332 431c0 -18 -6 -33 -19 -46s-28 -20 -46 -20s-33 7 -46 20s-20 28 -20 46s7 33 20 46s28 19 46 19s33 -6 46 -19s19 -28 19 -46z" />
    <glyph glyph-name="Eacute" unicode="&#xc9;" horiz-adv-x="580" 
d="M95 0v709h431v-91h-333v-218h302v-92h-302v-217h333v-91h-431zM333 759h-94l101 119h130z" />
    <glyph glyph-name="Ntilde" unicode="&#xd1;" horiz-adv-x="773" 
d="M576 0l-383 578v-578h-98v709h131l354 -544v544h98v-709h-102zM548 865c0 -37 -9 -65 -27 -83c-18 -19 -41 -28 -69 -28c-15 0 -28 2 -39 6s-22 10 -32 17l-15 10c-7 4 -13 7 -18 10c-6 3 -12 4 -19 4c-11 0 -19 -3 -26 -10c-6 -7 -9 -19 -9 -34h-68v16c0 37 9 65 27 84
c19 18 42 27 70 27c14 0 27 -2 39 -7c13 -5 24 -10 34 -16l15 -9c7 -4 14 -7 19 -10c6 -3 12 -4 19 -4c9 0 16 3 23 8c6 5 9 14 9 27v8h67v-16z" />
    <glyph glyph-name="Odieresis" unicode="&#xd6;" horiz-adv-x="808" 
d="M190 819c0 17 6 31 17 42s25 17 42 17s31 -6 42 -17s17 -25 17 -42s-6 -31 -17 -42s-25 -17 -42 -17s-31 6 -42 17s-17 25 -17 42zM501 819c0 17 6 31 17 42s25 17 42 17s31 -6 42 -17s17 -25 17 -42s-6 -31 -17 -42s-25 -17 -42 -17s-31 6 -42 17s-17 25 -17 42z
M148 355c0 -46 7 -86 22 -121c14 -35 33 -65 57 -88c23 -24 50 -42 81 -54c31 -11 63 -17 96 -17s65 6 96 17c31 12 58 30 82 54c23 23 42 53 57 88c14 35 21 75 21 121s-7 87 -21 122c-15 35 -34 64 -57 87c-24 23 -51 41 -82 53c-31 11 -63 17 -96 17s-65 -6 -96 -17
c-31 -12 -58 -30 -81 -53c-24 -23 -43 -52 -57 -87c-15 -35 -22 -76 -22 -122zM48 355c0 59 10 112 31 158c20 45 47 84 80 115s71 55 114 71c43 17 86 25 131 25s88 -8 131 -25c43 -16 81 -40 114 -71s60 -70 81 -115c20 -46 30 -99 30 -158s-10 -112 -30 -158
c-21 -46 -48 -85 -81 -116s-71 -55 -114 -71c-43 -17 -86 -25 -131 -25s-88 8 -131 25c-43 16 -81 40 -114 71s-60 70 -80 116c-21 46 -31 99 -31 158z" />
    <glyph glyph-name="multiply" unicode="&#xd7;" horiz-adv-x="572" 
d="M285 291l-168 -174l-56 56l169 176l-168 174l57 57l167 -174l167 174l57 -56l-169 -175l170 -176l-56 -57z" />
    <glyph glyph-name="Udieresis" unicode="&#xdc;" horiz-adv-x="686" 
d="M343 -15c-36 0 -69 5 -100 17c-31 11 -58 27 -81 49c-23 21 -41 48 -54 80s-20 69 -20 111v467h97v-464c0 -54 14 -96 42 -125c27 -29 66 -44 116 -44s89 15 116 44s41 71 41 125v464h98v-467c0 -42 -6 -79 -19 -111s-31 -59 -54 -80c-23 -22 -50 -38 -81 -49
c-31 -12 -65 -17 -101 -17zM174 819c0 17 6 31 17 42s25 17 42 17s31 -6 42 -17s17 -25 17 -42s-6 -31 -17 -42s-25 -17 -42 -17s-31 6 -42 17s-17 25 -17 42zM405 819c0 17 6 31 17 42s25 17 42 17s31 -6 42 -17s17 -25 17 -42s-6 -31 -17 -42s-25 -17 -42 -17
s-31 6 -42 17s-17 25 -17 42z" />
    <glyph glyph-name="germandbls" unicode="&#xdf;" horiz-adv-x="570" 
d="M353 343c0 -13 4 -23 13 -29c8 -6 19 -12 33 -19l35 -17c28 -13 52 -33 73 -58s31 -55 31 -90c0 -17 -3 -34 -9 -51c-7 -17 -17 -33 -30 -47c-14 -14 -31 -25 -51 -34c-21 -9 -45 -13 -73 -13c-30 0 -55 5 -76 14s-38 21 -51 35s-23 29 -28 45c-6 17 -9 32 -9 47l83 22
c0 -8 1 -17 4 -27s7 -19 14 -28c6 -9 14 -16 24 -22c11 -5 24 -8 39 -8c24 0 42 7 53 20s17 26 17 39c0 17 -4 32 -13 43s-22 21 -39 30l-34 16c-11 5 -23 11 -36 18c-12 7 -23 15 -33 25c-11 10 -19 22 -26 35c-7 14 -10 30 -10 49c0 24 6 45 17 62c11 18 27 33 46 46
l32 21c17 11 30 23 41 36c11 14 16 30 16 49c0 24 -9 45 -28 62c-19 18 -47 27 -82 27c-17 0 -33 -3 -48 -10c-15 -6 -29 -15 -40 -28c-12 -13 -21 -29 -28 -48s-10 -42 -10 -67v-488h-94v493c0 37 6 69 17 98s27 53 47 72c20 20 43 35 70 45c27 11 55 16 86 16
s59 -4 84 -13s46 -21 64 -36s32 -33 42 -54c10 -20 15 -42 15 -66c0 -19 -2 -37 -7 -52s-12 -29 -20 -41s-17 -22 -28 -31s-22 -17 -33 -24l-29 -18c-9 -5 -17 -11 -22 -18c-6 -7 -9 -17 -9 -28z" />
    <glyph glyph-name="agrave" unicode="&#xe0;" horiz-adv-x="523" 
d="M44 129c0 21 4 40 11 57s18 32 31 44s28 22 46 29s37 13 58 16l130 19c15 2 25 6 30 13s7 14 7 23c0 23 -8 43 -24 60c-17 17 -43 26 -80 26c-33 0 -59 -9 -77 -28c-18 -18 -29 -41 -32 -69l-90 21c3 23 10 44 21 63s25 36 42 49c17 14 38 25 61 33c23 7 47 11 73 11
c36 0 67 -5 92 -14c25 -10 46 -23 62 -39s28 -35 35 -56s11 -44 11 -67v-241c0 -21 1 -38 2 -51s3 -22 4 -28h-92c-1 6 -2 14 -3 24s-2 24 -2 41c-5 -9 -12 -18 -21 -27s-19 -18 -32 -26s-27 -14 -44 -19s-37 -8 -58 -8c-25 0 -47 4 -66 12c-20 8 -37 19 -51 32
s-25 28 -32 45c-8 17 -12 36 -12 55zM218 64c19 0 38 2 55 7s31 13 44 24c12 11 22 26 29 44c7 19 11 41 11 67v22l-147 -22c-20 -3 -37 -11 -50 -23c-13 -11 -20 -28 -20 -49c0 -18 7 -34 21 -49c14 -14 33 -21 57 -21zM103 689h118l86 -146h-78z" />
    <glyph glyph-name="aacute" unicode="&#xe1;" horiz-adv-x="523" 
d="M44 129c0 21 4 40 11 57s18 32 31 44s28 22 46 29s37 13 58 16l130 19c15 2 25 6 30 13s7 14 7 23c0 23 -8 43 -24 60c-17 17 -43 26 -80 26c-33 0 -59 -9 -77 -28c-18 -18 -29 -41 -32 -69l-90 21c3 23 10 44 21 63s25 36 42 49c17 14 38 25 61 33c23 7 47 11 73 11
c36 0 67 -5 92 -14c25 -10 46 -23 62 -39s28 -35 35 -56s11 -44 11 -67v-241c0 -21 1 -38 2 -51s3 -22 4 -28h-92c-1 6 -2 14 -3 24s-2 24 -2 41c-5 -9 -12 -18 -21 -27s-19 -18 -32 -26s-27 -14 -44 -19s-37 -8 -58 -8c-25 0 -47 4 -66 12c-20 8 -37 19 -51 32
s-25 28 -32 45c-8 17 -12 36 -12 55zM218 64c19 0 38 2 55 7s31 13 44 24c12 11 22 26 29 44c7 19 11 41 11 67v22l-147 -22c-20 -3 -37 -11 -50 -23c-13 -11 -20 -28 -20 -49c0 -18 7 -34 21 -49c14 -14 33 -21 57 -21zM293 543h-79l87 146h118z" />
    <glyph glyph-name="acircumflex" unicode="&#xe2;" horiz-adv-x="523" 
d="M44 129c0 21 4 40 11 57s18 32 31 44s28 22 46 29s37 13 58 16l130 19c15 2 25 6 30 13s7 14 7 23c0 23 -8 43 -24 60c-17 17 -43 26 -80 26c-33 0 -59 -9 -77 -28c-18 -18 -29 -41 -32 -69l-90 21c3 23 10 44 21 63s25 36 42 49c17 14 38 25 61 33c23 7 47 11 73 11
c36 0 67 -5 92 -14c25 -10 46 -23 62 -39s28 -35 35 -56s11 -44 11 -67v-241c0 -21 1 -38 2 -51s3 -22 4 -28h-92c-1 6 -2 14 -3 24s-2 24 -2 41c-5 -9 -12 -18 -21 -27s-19 -18 -32 -26s-27 -14 -44 -19s-37 -8 -58 -8c-25 0 -47 4 -66 12c-20 8 -37 19 -51 32
s-25 28 -32 45c-8 17 -12 36 -12 55zM218 64c19 0 38 2 55 7s31 13 44 24c12 11 22 26 29 44c7 19 11 41 11 67v22l-147 -22c-20 -3 -37 -11 -50 -23c-13 -11 -20 -28 -20 -49c0 -18 7 -34 21 -49c14 -14 33 -21 57 -21zM102 545l104 139h107l104 -139h-88l-70 81l-70 -81
h-87z" />
    <glyph glyph-name="atilde" unicode="&#xe3;" horiz-adv-x="523" 
d="M44 129c0 21 4 40 11 57s18 32 31 44s28 22 46 29s37 13 58 16l130 19c15 2 25 6 30 13s7 14 7 23c0 23 -8 43 -24 60c-17 17 -43 26 -80 26c-33 0 -59 -9 -77 -28c-18 -18 -29 -41 -32 -69l-90 21c3 23 10 44 21 63s25 36 42 49c17 14 38 25 61 33c23 7 47 11 73 11
c36 0 67 -5 92 -14c25 -10 46 -23 62 -39s28 -35 35 -56s11 -44 11 -67v-241c0 -21 1 -38 2 -51s3 -22 4 -28h-92c-1 6 -2 14 -3 24s-2 24 -2 41c-5 -9 -12 -18 -21 -27s-19 -18 -32 -26s-27 -14 -44 -19s-37 -8 -58 -8c-25 0 -47 4 -66 12c-20 8 -37 19 -51 32
s-25 28 -32 45c-8 17 -12 36 -12 55zM218 64c19 0 38 2 55 7s31 13 44 24c12 11 22 26 29 44c7 19 11 41 11 67v22l-147 -22c-20 -3 -37 -11 -50 -23c-13 -11 -20 -28 -20 -49c0 -18 7 -34 21 -49c14 -14 33 -21 57 -21zM416 662c0 -37 -9 -65 -27 -83
c-19 -17 -42 -26 -70 -26c-13 0 -25 2 -36 6c-11 5 -21 10 -30 16l-14 9c-7 4 -13 7 -18 10c-6 3 -12 4 -19 4c-9 0 -16 -3 -21 -9s-8 -17 -8 -34h-72v15c0 37 9 65 28 82c19 18 42 27 70 27c13 0 26 -2 37 -7c11 -4 21 -9 30 -15l14 -9c7 -4 13 -7 18 -10s11 -4 18 -4
c10 0 17 3 22 9c5 7 7 18 7 34h71v-15z" />
    <glyph glyph-name="adieresis" unicode="&#xe4;" horiz-adv-x="523" 
d="M44 129c0 21 4 40 11 57s18 32 31 44s28 22 46 29s37 13 58 16l130 19c15 2 25 6 30 13s7 14 7 23c0 23 -8 43 -24 60c-17 17 -43 26 -80 26c-33 0 -59 -9 -77 -28c-18 -18 -29 -41 -32 -69l-90 21c3 23 10 44 21 63s25 36 42 49c17 14 38 25 61 33c23 7 47 11 73 11
c36 0 67 -5 92 -14c25 -10 46 -23 62 -39s28 -35 35 -56s11 -44 11 -67v-241c0 -21 1 -38 2 -51s3 -22 4 -28h-92c-1 6 -2 14 -3 24s-2 24 -2 41c-5 -9 -12 -18 -21 -27s-19 -18 -32 -26s-27 -14 -44 -19s-37 -8 -58 -8c-25 0 -47 4 -66 12c-20 8 -37 19 -51 32
s-25 28 -32 45c-8 17 -12 36 -12 55zM218 64c19 0 38 2 55 7s31 13 44 24c12 11 22 26 29 44c7 19 11 41 11 67v22l-147 -22c-20 -3 -37 -11 -50 -23c-13 -11 -20 -28 -20 -49c0 -18 7 -34 21 -49c14 -14 33 -21 57 -21zM104 621c0 16 6 30 17 41s24 17 40 17
c17 0 31 -6 42 -17s17 -25 17 -41c0 -17 -6 -31 -17 -42s-25 -16 -42 -16c-16 0 -29 5 -40 16s-17 25 -17 42zM291 621c0 16 6 30 17 41s24 17 41 17c16 0 30 -6 41 -17s17 -25 17 -41c0 -17 -6 -31 -17 -42s-25 -16 -41 -16c-17 0 -30 5 -41 16s-17 25 -17 42z" />
    <glyph glyph-name="aring" unicode="&#xe5;" horiz-adv-x="523" 
d="M44 129c0 21 4 40 11 57s18 32 31 44s28 22 46 29s37 13 58 16l130 19c15 2 25 6 30 13s7 14 7 23c0 23 -8 43 -24 60c-17 17 -43 26 -80 26c-33 0 -59 -9 -77 -28c-18 -18 -29 -41 -32 -69l-90 21c3 23 10 44 21 63s25 36 42 49c17 14 38 25 61 33c23 7 47 11 73 11
c36 0 67 -5 92 -14c25 -10 46 -23 62 -39s28 -35 35 -56s11 -44 11 -67v-241c0 -21 1 -38 2 -51s3 -22 4 -28h-92c-1 6 -2 14 -3 24s-2 24 -2 41c-5 -9 -12 -18 -21 -27s-19 -18 -32 -26s-27 -14 -44 -19s-37 -8 -58 -8c-25 0 -47 4 -66 12c-20 8 -37 19 -51 32
s-25 28 -32 45c-8 17 -12 36 -12 55zM218 64c19 0 38 2 55 7s31 13 44 24c12 11 22 26 29 44c7 19 11 41 11 67v22l-147 -22c-20 -3 -37 -11 -50 -23c-13 -11 -20 -28 -20 -49c0 -18 7 -34 21 -49c14 -14 33 -21 57 -21zM367 641c0 -15 -3 -30 -9 -43s-14 -25 -24 -34
c-10 -10 -22 -18 -35 -24c-14 -5 -29 -8 -44 -8s-29 3 -42 8c-13 6 -25 14 -35 24c-11 9 -19 21 -25 34s-9 28 -9 43s3 30 9 43s14 25 25 35c10 10 22 18 35 23c13 6 27 9 42 9s30 -3 44 -9c13 -5 25 -13 35 -23s18 -22 24 -35s9 -28 9 -43zM303 641c0 13 -5 25 -14 34
c-9 10 -21 15 -35 15c-13 0 -24 -5 -33 -15c-9 -9 -14 -21 -14 -34s5 -25 14 -34s20 -14 33 -14c14 0 26 5 35 14s14 21 14 34z" />
    <glyph glyph-name="ccedilla" unicode="&#xe7;" horiz-adv-x="539" 
d="M224 -63l32 50c-31 4 -60 13 -85 28c-26 14 -48 32 -67 55c-19 22 -34 48 -44 77c-11 29 -16 61 -16 94c0 37 6 71 19 102c12 31 29 58 51 81c21 23 47 40 77 53c29 13 61 19 95 19c32 0 60 -4 85 -13c24 -9 45 -21 63 -36c17 -15 31 -31 42 -49c11 -19 19 -37 24 -55
l-85 -36c-3 12 -8 24 -14 36s-14 23 -24 33c-11 9 -23 17 -38 24c-15 6 -32 9 -53 9c-19 0 -38 -4 -55 -11s-33 -18 -46 -32c-14 -14 -25 -31 -33 -52s-12 -46 -12 -73s4 -51 12 -72s19 -39 32 -53c13 -15 29 -26 47 -33s37 -11 56 -11c22 0 41 3 57 10c15 7 28 15 39 25
c10 10 18 21 25 33c6 11 10 22 13 31l83 -36c-5 -15 -13 -31 -22 -47c-10 -16 -22 -31 -36 -44c-15 -13 -32 -25 -51 -35c-20 -10 -43 -17 -68 -21l-23 -35c28 0 51 -7 70 -22c18 -15 27 -35 27 -60c0 -23 -9 -44 -28 -61c-19 -18 -48 -27 -89 -27c-25 0 -47 4 -66 13
s-34 19 -44 31l37 45c6 -7 15 -14 28 -22c12 -8 27 -12 44 -12c12 0 23 3 33 8c9 5 14 14 14 25c0 9 -4 17 -11 23c-8 6 -19 9 -33 9c-11 0 -20 -2 -29 -5z" />
    <glyph glyph-name="egrave" unicode="&#xe8;" horiz-adv-x="547" 
d="M407 290c-1 35 -13 64 -35 88c-22 23 -54 35 -97 35c-20 0 -38 -3 -53 -10c-16 -7 -29 -17 -40 -28c-11 -12 -20 -25 -27 -40s-10 -30 -11 -45h263zM502 137c-7 -21 -16 -41 -29 -59c-13 -19 -29 -35 -47 -48c-19 -14 -40 -25 -63 -33s-49 -12 -77 -12
c-32 0 -63 6 -92 17s-55 28 -77 50c-23 22 -40 49 -53 81s-20 68 -20 109c0 38 6 73 19 104s30 57 51 80c21 22 45 39 73 51c28 13 57 19 87 19c37 0 70 -6 99 -19c29 -12 53 -29 72 -51s34 -49 45 -80c10 -31 15 -65 15 -102v-17c-1 -5 -1 -10 -2 -13h-362
c1 -21 5 -41 12 -59s18 -33 31 -46s28 -23 46 -30c17 -7 36 -11 56 -11c39 0 69 9 90 28s36 42 45 69zM127 689h118l86 -146h-78z" />
    <glyph glyph-name="eacute" unicode="&#xe9;" horiz-adv-x="547" 
d="M407 290c-1 35 -13 64 -35 88c-22 23 -54 35 -97 35c-20 0 -38 -3 -53 -10c-16 -7 -29 -17 -40 -28c-11 -12 -20 -25 -27 -40s-10 -30 -11 -45h263zM502 137c-7 -21 -16 -41 -29 -59c-13 -19 -29 -35 -47 -48c-19 -14 -40 -25 -63 -33s-49 -12 -77 -12
c-32 0 -63 6 -92 17s-55 28 -77 50c-23 22 -40 49 -53 81s-20 68 -20 109c0 38 6 73 19 104s30 57 51 80c21 22 45 39 73 51c28 13 57 19 87 19c37 0 70 -6 99 -19c29 -12 53 -29 72 -51s34 -49 45 -80c10 -31 15 -65 15 -102v-17c-1 -5 -1 -10 -2 -13h-362
c1 -21 5 -41 12 -59s18 -33 31 -46s28 -23 46 -30c17 -7 36 -11 56 -11c39 0 69 9 90 28s36 42 45 69zM312 543h-79l87 146h118z" />
    <glyph glyph-name="ecircumflex" unicode="&#xea;" horiz-adv-x="547" 
d="M407 290c-1 35 -13 64 -35 88c-22 23 -54 35 -97 35c-20 0 -38 -3 -53 -10c-16 -7 -29 -17 -40 -28c-11 -12 -20 -25 -27 -40s-10 -30 -11 -45h263zM502 137c-7 -21 -16 -41 -29 -59c-13 -19 -29 -35 -47 -48c-19 -14 -40 -25 -63 -33s-49 -12 -77 -12
c-32 0 -63 6 -92 17s-55 28 -77 50c-23 22 -40 49 -53 81s-20 68 -20 109c0 38 6 73 19 104s30 57 51 80c21 22 45 39 73 51c28 13 57 19 87 19c37 0 70 -6 99 -19c29 -12 53 -29 72 -51s34 -49 45 -80c10 -31 15 -65 15 -102v-17c-1 -5 -1 -10 -2 -13h-362
c1 -21 5 -41 12 -59s18 -33 31 -46s28 -23 46 -30c17 -7 36 -11 56 -11c39 0 69 9 90 28s36 42 45 69zM125 545l104 139h107l104 -139h-88l-70 81l-70 -81h-87z" />
    <glyph glyph-name="edieresis" unicode="&#xeb;" horiz-adv-x="547" 
d="M407 290c-1 35 -13 64 -35 88c-22 23 -54 35 -97 35c-20 0 -38 -3 -53 -10c-16 -7 -29 -17 -40 -28c-11 -12 -20 -25 -27 -40s-10 -30 -11 -45h263zM502 137c-7 -21 -16 -41 -29 -59c-13 -19 -29 -35 -47 -48c-19 -14 -40 -25 -63 -33s-49 -12 -77 -12
c-32 0 -63 6 -92 17s-55 28 -77 50c-23 22 -40 49 -53 81s-20 68 -20 109c0 38 6 73 19 104s30 57 51 80c21 22 45 39 73 51c28 13 57 19 87 19c37 0 70 -6 99 -19c29 -12 53 -29 72 -51s34 -49 45 -80c10 -31 15 -65 15 -102v-17c-1 -5 -1 -10 -2 -13h-362
c1 -21 5 -41 12 -59s18 -33 31 -46s28 -23 46 -30c17 -7 36 -11 56 -11c39 0 69 9 90 28s36 42 45 69zM129 621c0 16 6 30 17 41s24 17 40 17c17 0 31 -6 42 -17s17 -25 17 -41c0 -17 -6 -31 -17 -42s-25 -16 -42 -16c-16 0 -29 5 -40 16s-17 25 -17 42zM316 621
c0 16 6 30 17 41s24 17 41 17c16 0 30 -6 41 -17s17 -25 17 -41c0 -17 -6 -31 -17 -42s-25 -16 -41 -16c-17 0 -30 5 -41 16s-17 25 -17 42z" />
    <glyph glyph-name="igrave" unicode="&#xec;" horiz-adv-x="245" 
d="M76 0v481h93v-481h-93zM-36 689h118l86 -146h-78z" />
    <glyph glyph-name="iacute" unicode="&#xed;" horiz-adv-x="245" 
d="M76 0v481h93v-481h-93zM160 543h-79l87 146h118z" />
    <glyph glyph-name="icircumflex" unicode="&#xee;" horiz-adv-x="245" 
d="M76 0v481h93v-481h-93zM-33 545l104 139h107l104 -139h-88l-70 81l-70 -81h-87z" />
    <glyph glyph-name="idieresis" unicode="&#xef;" horiz-adv-x="245" 
d="M76 0v481h93v-481h-93zM0 621c0 15 5 28 15 38c10 11 23 16 38 16s28 -5 38 -16c11 -10 16 -23 16 -38s-5 -28 -16 -38c-10 -10 -23 -15 -38 -15s-28 5 -38 15s-15 23 -15 38zM141 621c0 15 5 28 15 38c10 11 23 16 38 16s28 -5 38 -16c11 -10 16 -23 16 -38
s-5 -28 -16 -38c-10 -10 -23 -15 -38 -15s-28 5 -38 15s-15 23 -15 38z" />
    <glyph glyph-name="ntilde" unicode="&#xf1;" horiz-adv-x="559" 
d="M170 0h-94v481h92v-69c17 30 39 51 66 64s54 19 82 19c29 0 54 -5 76 -15c21 -9 39 -23 54 -40c14 -17 25 -37 32 -60s10 -48 10 -75v-305h-94v289c0 17 -2 32 -5 47c-4 15 -10 28 -19 39s-21 19 -35 26c-15 6 -32 9 -53 9c-19 0 -35 -3 -49 -10s-26 -17 -35 -29
s-16 -26 -21 -42s-7 -33 -7 -51v-278zM448 662c0 -37 -9 -65 -27 -83c-19 -17 -42 -26 -70 -26c-13 0 -25 2 -36 6c-11 5 -21 10 -30 16l-14 9c-7 4 -13 7 -18 10c-6 3 -12 4 -19 4c-9 0 -17 -3 -22 -9s-7 -17 -7 -34h-72v15c0 37 9 65 28 82c19 18 42 27 70 27
c13 0 25 -2 36 -7c11 -4 22 -9 31 -15l14 -9c7 -4 13 -7 18 -10s11 -4 18 -4c10 0 17 3 22 9c5 7 7 18 7 34h71v-15z" />
    <glyph glyph-name="ograve" unicode="&#xf2;" horiz-adv-x="580" 
d="M290 69c20 0 39 4 57 11s34 18 48 33s25 33 33 54s12 46 12 74s-4 53 -12 74s-19 38 -33 53s-30 26 -48 33s-37 11 -57 11s-39 -4 -57 -11s-34 -18 -48 -33s-25 -32 -33 -53s-12 -46 -12 -74s4 -53 12 -74s19 -39 33 -54s30 -26 48 -33s37 -11 57 -11zM290 496
c36 0 69 -6 99 -19s56 -31 78 -54s39 -49 51 -80s18 -65 18 -102s-6 -71 -18 -102s-29 -58 -51 -81s-48 -40 -78 -53c-30 -14 -63 -20 -99 -20s-69 6 -99 20c-30 13 -56 30 -78 53s-39 50 -51 81s-18 65 -18 102s6 71 18 102s29 57 51 80s48 41 78 54s63 19 99 19zM129 689
h118l86 -146h-78z" />
    <glyph glyph-name="oacute" unicode="&#xf3;" horiz-adv-x="580" 
d="M290 69c20 0 39 4 57 11s34 18 48 33s25 33 33 54s12 46 12 74s-4 53 -12 74s-19 38 -33 53s-30 26 -48 33s-37 11 -57 11s-39 -4 -57 -11s-34 -18 -48 -33s-25 -32 -33 -53s-12 -46 -12 -74s4 -53 12 -74s19 -39 33 -54s30 -26 48 -33s37 -11 57 -11zM290 496
c36 0 69 -6 99 -19s56 -31 78 -54s39 -49 51 -80s18 -65 18 -102s-6 -71 -18 -102s-29 -58 -51 -81s-48 -40 -78 -53c-30 -14 -63 -20 -99 -20s-69 6 -99 20c-30 13 -56 30 -78 53s-39 50 -51 81s-18 65 -18 102s6 71 18 102s29 57 51 80s48 41 78 54s63 19 99 19zM313 543
h-79l87 146h118z" />
    <glyph glyph-name="ocircumflex" unicode="&#xf4;" horiz-adv-x="580" 
d="M290 69c20 0 39 4 57 11s34 18 48 33s25 33 33 54s12 46 12 74s-4 53 -12 74s-19 38 -33 53s-30 26 -48 33s-37 11 -57 11s-39 -4 -57 -11s-34 -18 -48 -33s-25 -32 -33 -53s-12 -46 -12 -74s4 -53 12 -74s19 -39 33 -54s30 -26 48 -33s37 -11 57 -11zM290 496
c36 0 69 -6 99 -19s56 -31 78 -54s39 -49 51 -80s18 -65 18 -102s-6 -71 -18 -102s-29 -58 -51 -81s-48 -40 -78 -53c-30 -14 -63 -20 -99 -20s-69 6 -99 20c-30 13 -56 30 -78 53s-39 50 -51 81s-18 65 -18 102s6 71 18 102s29 57 51 80s48 41 78 54s63 19 99 19zM133 545
l104 139h107l104 -139h-88l-70 81l-70 -81h-87z" />
    <glyph glyph-name="otilde" unicode="&#xf5;" horiz-adv-x="580" 
d="M290 69c20 0 39 4 57 11s34 18 48 33s25 33 33 54s12 46 12 74s-4 53 -12 74s-19 38 -33 53s-30 26 -48 33s-37 11 -57 11s-39 -4 -57 -11s-34 -18 -48 -33s-25 -32 -33 -53s-12 -46 -12 -74s4 -53 12 -74s19 -39 33 -54s30 -26 48 -33s37 -11 57 -11zM290 496
c36 0 69 -6 99 -19s56 -31 78 -54s39 -49 51 -80s18 -65 18 -102s-6 -71 -18 -102s-29 -58 -51 -81s-48 -40 -78 -53c-30 -14 -63 -20 -99 -20s-69 6 -99 20c-30 13 -56 30 -78 53s-39 50 -51 81s-18 65 -18 102s6 71 18 102s29 57 51 80s48 41 78 54s63 19 99 19zM449 662
c0 -37 -9 -65 -27 -82c-19 -18 -42 -27 -70 -27c-13 0 -25 2 -36 7c-11 4 -21 9 -30 15l-14 9c-7 4 -13 7 -18 10c-6 3 -12 4 -19 4c-9 0 -16 -3 -21 -9s-8 -17 -8 -34h-72v15c0 37 9 65 28 83c19 17 42 26 70 26c13 0 26 -2 37 -6c11 -5 21 -10 30 -16l14 -9
c7 -4 13 -7 18 -10s11 -4 18 -4c10 0 17 3 22 10c5 6 7 17 7 33h71v-15z" />
    <glyph glyph-name="odieresis" unicode="&#xf6;" horiz-adv-x="580" 
d="M290 69c20 0 39 4 57 11s34 18 48 33s25 33 33 54s12 46 12 74s-4 53 -12 74s-19 38 -33 53s-30 26 -48 33s-37 11 -57 11s-39 -4 -57 -11s-34 -18 -48 -33s-25 -32 -33 -53s-12 -46 -12 -74s4 -53 12 -74s19 -39 33 -54s30 -26 48 -33s37 -11 57 -11zM290 496
c36 0 69 -6 99 -19s56 -31 78 -54s39 -49 51 -80s18 -65 18 -102s-6 -71 -18 -102s-29 -58 -51 -81s-48 -40 -78 -53c-30 -14 -63 -20 -99 -20s-69 6 -99 20c-30 13 -56 30 -78 53s-39 50 -51 81s-18 65 -18 102s6 71 18 102s29 57 51 80s48 41 78 54s63 19 99 19zM138 621
c0 16 6 30 17 41s24 17 40 17c17 0 31 -6 42 -17s17 -25 17 -41c0 -17 -6 -30 -17 -41s-25 -17 -42 -17c-16 0 -29 6 -40 17s-17 24 -17 41zM325 621c0 16 6 30 17 41s24 17 41 17c16 0 30 -6 41 -17s17 -25 17 -41c0 -17 -6 -30 -17 -41s-25 -17 -41 -17
c-17 0 -30 6 -41 17s-17 24 -17 41z" />
    <glyph glyph-name="divide" unicode="&#xf7;" 
d="M221 171c0 17 7 32 20 45s28 19 45 19s32 -6 45 -19s19 -28 19 -45s-6 -32 -19 -45s-28 -20 -45 -20s-32 7 -45 20s-20 28 -20 45zM221 526c0 17 7 32 20 45s28 19 45 19s32 -6 45 -19s19 -28 19 -45s-6 -32 -19 -45s-28 -20 -45 -20s-32 7 -45 20s-20 28 -20 45zM58 390
h457v-83h-457v83z" />
    <glyph glyph-name="ugrave" unicode="&#xf9;" horiz-adv-x="559" 
d="M393 58c-13 -25 -33 -44 -60 -55c-27 -12 -54 -18 -82 -18s-53 5 -76 15c-22 10 -41 24 -56 41s-27 38 -36 61c-8 23 -12 49 -12 76v303h94v-289c0 -17 2 -32 6 -47s10 -29 19 -40s20 -20 34 -27c13 -7 30 -10 50 -10c38 0 67 11 86 34s28 52 28 89v290h94v-392
c0 -19 1 -37 2 -52c1 -16 2 -28 3 -37h-90c-1 5 -2 14 -3 26c-1 11 -1 22 -1 32zM126 689h118l86 -146h-78z" />
    <glyph glyph-name="uacute" unicode="&#xfa;" horiz-adv-x="559" 
d="M393 58c-13 -25 -33 -44 -60 -55c-27 -12 -54 -18 -82 -18s-53 5 -76 15c-22 10 -41 24 -56 41s-27 38 -36 61c-8 23 -12 49 -12 76v303h94v-289c0 -17 2 -32 6 -47s10 -29 19 -40s20 -20 34 -27c13 -7 30 -10 50 -10c38 0 67 11 86 34s28 52 28 89v290h94v-392
c0 -19 1 -37 2 -52c1 -16 2 -28 3 -37h-90c-1 5 -2 14 -3 26c-1 11 -1 22 -1 32zM293 543h-79l87 146h118z" />
    <glyph glyph-name="ucircumflex" unicode="&#xfb;" horiz-adv-x="559" 
d="M393 58c-13 -25 -33 -44 -60 -55c-27 -12 -54 -18 -82 -18s-53 5 -76 15c-22 10 -41 24 -56 41s-27 38 -36 61c-8 23 -12 49 -12 76v303h94v-289c0 -17 2 -32 6 -47s10 -29 19 -40s20 -20 34 -27c13 -7 30 -10 50 -10c38 0 67 11 86 34s28 52 28 89v290h94v-392
c0 -19 1 -37 2 -52c1 -16 2 -28 3 -37h-90c-1 5 -2 14 -3 26c-1 11 -1 22 -1 32zM119 545l104 139h107l104 -139h-88l-70 81l-70 -81h-87z" />
    <glyph glyph-name="udieresis" unicode="&#xfc;" horiz-adv-x="559" 
d="M393 58c-13 -25 -33 -44 -60 -55c-27 -12 -54 -18 -82 -18s-53 5 -76 15c-22 10 -41 24 -56 41s-27 38 -36 61c-8 23 -12 49 -12 76v303h94v-289c0 -17 2 -32 6 -47s10 -29 19 -40s20 -20 34 -27c13 -7 30 -10 50 -10c38 0 67 11 86 34s28 52 28 89v290h94v-392
c0 -19 1 -37 2 -52c1 -16 2 -28 3 -37h-90c-1 5 -2 14 -3 26c-1 11 -1 22 -1 32zM124 621c0 16 5 30 16 41s25 17 41 17c17 0 31 -6 42 -17s17 -25 17 -41c0 -17 -6 -30 -17 -41s-25 -17 -42 -17c-16 0 -30 6 -41 17s-16 24 -16 41zM311 621c0 16 5 30 16 41s25 17 42 17
c16 0 30 -6 41 -17s17 -25 17 -41c0 -17 -6 -30 -17 -41s-25 -17 -41 -17c-17 0 -31 6 -42 17s-16 24 -16 41z" />
    <glyph glyph-name="OE" unicode="&#x152;" horiz-adv-x="1145" 
d="M148 355c0 -46 7 -86 22 -121c14 -35 33 -65 57 -88c23 -24 50 -42 81 -54c31 -11 63 -17 96 -17s65 6 96 17c31 12 58 30 82 54c23 23 42 53 57 88c14 35 21 75 21 121s-7 87 -21 122c-15 35 -34 64 -57 87c-24 23 -51 41 -82 53c-31 11 -63 17 -96 17s-65 -6 -96 -17
c-31 -12 -58 -30 -81 -53c-24 -23 -43 -52 -57 -87c-15 -35 -22 -76 -22 -122zM660 0v93c-34 -36 -73 -63 -118 -81s-91 -27 -138 -27c-45 0 -88 8 -131 25c-43 16 -81 40 -114 71s-60 70 -80 116c-21 46 -31 99 -31 158s10 112 31 158c20 45 47 84 80 115s71 55 114 72
c43 16 86 24 131 24c47 0 93 -9 138 -27s84 -45 118 -81v93h431v-91h-333v-218h302v-92h-302v-217h333v-91h-431z" />
    <glyph glyph-name="oe" unicode="&#x153;" horiz-adv-x="943" 
d="M290 69c20 0 39 4 57 11s34 18 48 33s25 33 33 54s12 46 12 74s-4 53 -12 74s-19 38 -33 53s-30 26 -48 33s-37 11 -57 11s-39 -4 -57 -11s-34 -18 -48 -33s-25 -32 -33 -53s-12 -46 -12 -74s4 -53 12 -74s19 -39 33 -54s30 -26 48 -33s37 -11 57 -11zM803 290
c-1 35 -13 64 -35 88c-23 23 -55 35 -97 35c-20 0 -38 -3 -53 -10c-16 -7 -29 -17 -40 -28c-11 -12 -20 -25 -27 -40s-10 -30 -11 -45h263zM898 137c-7 -21 -16 -41 -29 -59c-13 -19 -29 -35 -47 -48c-19 -14 -40 -25 -63 -33s-49 -12 -77 -12c-39 0 -76 8 -110 25
c-34 16 -62 40 -85 72c-21 -30 -49 -54 -83 -71s-72 -26 -114 -26c-36 0 -69 6 -99 20c-30 13 -56 30 -78 53s-39 50 -51 81s-18 65 -18 102s6 71 18 102s29 57 51 80s48 41 78 54s63 19 99 19c42 0 80 -9 114 -26c34 -18 62 -42 83 -72c21 31 48 55 81 72
c32 17 66 26 102 26c37 0 70 -6 99 -18c29 -13 53 -30 72 -52s34 -48 44 -79c11 -31 16 -66 16 -103c0 -5 0 -11 -1 -16c0 -6 0 -11 -1 -14h-362c1 -21 5 -41 13 -58c7 -18 18 -33 31 -46s28 -24 45 -31s36 -11 56 -11c39 0 69 9 90 28s36 42 45 69z" />
    <glyph glyph-name="florin" unicode="&#x192;" horiz-adv-x="407" 
d="M149 398h-110v83h127l23 113c5 25 13 47 24 65c11 19 24 34 39 45c15 12 31 21 49 26c17 6 35 9 53 9c19 0 34 -1 45 -3c10 -1 20 -4 29 -7v-83c-7 2 -15 4 -24 5s-18 2 -29 2c-9 0 -18 -1 -27 -3c-10 -1 -19 -5 -28 -12c-9 -6 -17 -15 -24 -27c-7 -13 -13 -29 -17 -50
l-16 -80h129v-83h-146l-82 -411c-5 -25 -13 -47 -24 -65c-11 -19 -24 -34 -39 -45c-15 -12 -31 -21 -49 -27c-17 -5 -35 -8 -53 -8c-21 0 -36 1 -47 2c-11 2 -21 5 -30 8v83c7 -2 15 -4 24 -5s20 -2 32 -2c9 0 18 1 27 3c10 2 19 6 28 12c9 7 17 16 24 28s13 28 17 49z" />
    <glyph glyph-name="uni02BB" unicode="&#x2bb;" horiz-adv-x="218" 
d="M170 586c0 -16 -6 -29 -17 -38s-25 -14 -42 -14c-7 0 -15 1 -22 4s-14 7 -21 13c-7 5 -12 13 -16 22s-6 21 -6 34c0 18 3 34 10 48s15 26 26 35s24 16 37 21c14 5 28 8 41 8v-40c-17 0 -32 -5 -45 -15c-12 -10 -19 -21 -20 -33c1 1 3 2 7 4c3 1 8 2 14 2
c16 0 29 -4 39 -13s15 -22 15 -38z" />
    <glyph glyph-name="uni02BC" unicode="&#x2bc;" horiz-adv-x="220" 
d="M54 659c0 16 6 29 18 38s26 14 41 14c7 0 15 -1 23 -4c7 -3 14 -7 21 -12c6 -6 11 -14 15 -23s6 -21 6 -34c0 -19 -3 -36 -10 -50s-15 -26 -26 -35s-24 -16 -37 -20c-14 -5 -28 -7 -41 -7v40c17 0 32 5 45 15c12 10 19 21 20 33c-1 -1 -3 -2 -6 -3c-3 -2 -8 -3 -15 -3
c-15 0 -28 4 -38 13c-11 8 -16 21 -16 38z" />
    <glyph glyph-name="circumflex" unicode="&#x2c6;" horiz-adv-x="385" 
d="M35 545l104 139h107l104 -139h-88l-70 81l-70 -81h-87z" />
    <glyph glyph-name="caron" unicode="&#x2c7;" horiz-adv-x="385" 
d="M122 687l70 -81l70 81h88l-102 -142h-111l-102 142h87z" />
    <glyph glyph-name="uni02C9" unicode="&#x2c9;" horiz-adv-x="343" 
d="M35 577v81h273v-81h-273z" />
    <glyph glyph-name="breve" unicode="&#x2d8;" horiz-adv-x="362" 
d="M181 545c-23 0 -44 4 -62 12s-33 19 -45 32c-13 13 -22 29 -29 46s-10 34 -10 52h73c1 -15 7 -30 18 -44s30 -21 55 -21s44 7 55 21s17 29 18 44h73c0 -18 -3 -35 -9 -52c-7 -17 -16 -33 -28 -46s-27 -24 -45 -32c-19 -8 -40 -12 -64 -12z" />
    <glyph glyph-name="dotaccent" unicode="&#x2d9;" horiz-adv-x="174" 
d="M25 616c0 17 6 32 18 44s27 18 44 18s32 -6 44 -18s18 -27 18 -44s-6 -32 -18 -44s-27 -18 -44 -18s-32 6 -44 18s-18 27 -18 44z" />
    <glyph glyph-name="ring" unicode="&#x2da;" horiz-adv-x="293" 
d="M258 641c0 -15 -3 -30 -9 -43s-14 -25 -24 -34c-10 -10 -22 -18 -35 -23c-14 -6 -29 -9 -44 -9s-29 3 -42 9c-13 5 -25 13 -35 23c-11 9 -19 21 -25 34s-9 28 -9 43s3 30 9 43s14 25 25 35c10 10 22 18 35 23c13 6 27 9 42 9s30 -3 44 -9c13 -5 25 -13 35 -23
s18 -22 24 -35s9 -28 9 -43zM194 641c0 13 -5 25 -14 35c-9 9 -21 14 -35 14c-13 0 -24 -5 -33 -14c-9 -10 -14 -22 -14 -35s5 -25 14 -34s20 -14 33 -14c14 0 26 5 35 14s14 21 14 34z" />
    <glyph glyph-name="ogonek" unicode="&#x2db;" horiz-adv-x="233" 
d="M33 -115c0 18 3 34 9 49c7 14 15 26 25 37c10 10 21 19 33 26s24 14 35 19l63 -16c-9 -5 -19 -10 -29 -16s-19 -13 -28 -21c-8 -8 -15 -17 -20 -27s-8 -21 -8 -33c0 -17 6 -30 17 -37s23 -10 36 -10c8 0 14 0 19 1s9 2 13 3v-68c-7 -3 -13 -5 -20 -6s-17 -2 -30 -2
c-15 0 -30 2 -44 7s-26 11 -37 19c-11 9 -19 19 -25 32s-9 27 -9 43z" />
    <glyph glyph-name="tilde" unicode="&#x2dc;" horiz-adv-x="377" 
d="M346 662c0 -37 -9 -65 -27 -82c-19 -18 -42 -27 -70 -27c-13 0 -25 2 -36 7c-11 4 -21 9 -30 15l-14 9c-7 4 -13 7 -18 10c-6 3 -12 4 -19 4c-9 0 -16 -3 -21 -9s-8 -17 -8 -34h-72v15c0 37 9 65 28 83c19 17 42 26 70 26c13 0 26 -2 37 -6c11 -5 21 -10 30 -16l14 -9
c7 -4 13 -7 18 -10s11 -4 18 -4c10 0 17 3 22 10c5 6 7 17 7 33h71v-15z" />
    <glyph glyph-name="hungarumlaut" unicode="&#x2dd;" horiz-adv-x="367" 
d="M101 543h-66l51 146h105zM232 543h-66l61 146h105z" />
    <glyph glyph-name="uni0394" unicode="&#x394;" horiz-adv-x="698" 
d="M296 709h105l279 -709h-662zM157 90h383l-193 507z" />
    <glyph glyph-name="uni03A9" unicode="&#x3a9;" horiz-adv-x="818" 
d="M409 636c-31 0 -61 -5 -91 -16c-31 -11 -58 -26 -82 -47s-43 -47 -58 -78s-22 -66 -22 -107c0 -36 6 -69 19 -98s29 -55 49 -77c20 -21 43 -39 68 -53c25 -13 49 -23 74 -28v-132h-305v88h202c-25 9 -50 23 -75 40c-25 18 -48 40 -67 65c-19 26 -35 55 -47 87
c-12 33 -18 68 -18 107c0 53 10 100 30 142c19 42 45 77 78 106c32 29 69 51 112 66s87 23 133 23s90 -8 133 -23s80 -37 113 -66c32 -29 58 -64 78 -106c19 -42 29 -89 29 -142c0 -39 -6 -74 -18 -107c-12 -32 -28 -61 -47 -87c-20 -25 -42 -47 -67 -65
c-25 -17 -50 -31 -76 -40h203v-88h-305v132c25 5 50 15 75 28c25 14 47 32 67 53c20 22 36 48 49 77s19 62 19 98c0 41 -7 76 -22 107s-34 57 -58 78s-51 36 -81 47c-31 11 -61 16 -92 16z" />
    <glyph glyph-name="uni03BC" unicode="&#x3bc;" horiz-adv-x="564" 
d="M398 58c-13 -25 -33 -44 -60 -55c-27 -12 -54 -18 -82 -18c-18 0 -34 2 -48 5c-13 4 -26 9 -38 15v-195h-94v671h94v-289c0 -17 2 -32 6 -47s10 -29 19 -40s20 -20 34 -27c13 -7 30 -10 50 -10c38 0 67 11 86 34s28 52 28 89v290h94v-392c0 -19 1 -37 2 -54s2 -28 3 -35
h-90c-1 5 -2 14 -3 26c-1 11 -1 22 -1 32z" />
    <glyph glyph-name="pi" unicode="&#x3c0;" horiz-adv-x="597" 
d="M551 5c-6 -3 -14 -5 -23 -8c-10 -3 -23 -4 -38 -4c-21 0 -38 3 -53 10s-27 16 -36 27c-10 11 -17 23 -22 38c-5 14 -7 29 -7 44v287h-165v-399h-94v399h-82v82h518v-82h-83v-277c0 -18 5 -31 16 -38c10 -7 23 -11 38 -11c5 0 11 0 16 1l15 3v-72z" />
    <glyph glyph-name="uni0400" unicode="&#x400;" horiz-adv-x="584" 
d="M95 0v709h431v-91h-333v-218h302v-92h-302v-217h333v-91h-431zM302 759l-126 146h118l86 -146h-78z" />
    <glyph glyph-name="uni0401" unicode="&#x401;" horiz-adv-x="584" 
d="M95 0v709h431v-91h-333v-218h302v-92h-302v-217h333v-91h-431zM492 819c0 -17 -6 -31 -17 -42s-25 -17 -42 -17s-31 6 -42 17s-17 25 -17 42s6 31 17 42s25 17 42 17s31 -6 42 -17s17 -25 17 -42zM261 819c0 -17 -6 -31 -17 -42s-25 -17 -42 -17s-31 6 -42 17
s-17 25 -17 42s6 31 17 42s25 17 42 17s31 -6 42 -17s17 -25 17 -42z" />
    <glyph glyph-name="uni0402" unicode="&#x402;" horiz-adv-x="809" 
d="M771 225c0 -32 -5 -62 -16 -90c-10 -28 -25 -52 -45 -73c-19 -21 -43 -37 -70 -49s-58 -18 -92 -18c-23 0 -43 2 -60 7v86c15 -3 32 -4 49 -4c19 0 36 3 52 10c17 7 31 16 43 28s21 26 28 43s11 35 11 56c0 44 -14 79 -42 105c-27 25 -63 38 -107 38
c-22 0 -43 -4 -64 -11s-39 -18 -54 -33s-28 -33 -37 -56s-14 -49 -14 -80v-184h-98v618h-237v91h572v-91h-237v-241c19 24 43 43 72 58c29 14 66 21 110 21c35 0 66 -5 95 -16s54 -27 75 -47s37 -44 49 -73c11 -29 17 -60 17 -95z" />
    <glyph glyph-name="uni0403" unicode="&#x403;" horiz-adv-x="529" 
d="M239 759l101 119h130l-137 -119h-94zM95 709h416v-91h-318v-618h-98v709z" />
    <glyph glyph-name="uni0404" unicode="&#x404;" horiz-adv-x="749" 
d="M401 -15c-46 0 -90 8 -133 25c-42 16 -79 40 -111 71c-33 31 -59 70 -78 116c-20 46 -30 99 -30 158s10 112 30 158c20 45 47 84 80 115s70 55 113 72c42 16 85 24 129 24c41 0 78 -5 112 -15c34 -11 64 -25 91 -44s49 -43 68 -70c18 -27 32 -58 41 -91l-91 -32
c-13 50 -39 90 -77 119c-37 29 -85 43 -144 43c-30 0 -59 -5 -87 -15s-53 -25 -76 -44s-42 -44 -57 -73s-24 -63 -29 -102h373v-92h-373c5 -39 15 -72 30 -101c16 -29 35 -54 57 -73c23 -20 48 -35 76 -44c28 -10 57 -15 86 -15c32 0 60 4 85 13c25 8 46 19 64 34
c19 15 34 32 47 53c13 20 23 42 30 65l87 -32c-9 -33 -23 -63 -42 -90s-41 -51 -68 -70c-26 -20 -56 -35 -90 -46c-35 -12 -72 -17 -113 -17z" />
    <glyph glyph-name="uni0405" unicode="&#x405;" horiz-adv-x="594" 
d="M546 195c0 -27 -6 -54 -17 -79s-28 -48 -49 -67s-47 -35 -77 -46c-30 -12 -64 -18 -102 -18c-43 0 -80 6 -111 19c-32 13 -59 29 -80 49c-22 20 -39 43 -51 68s-20 50 -23 75l94 30c2 -20 7 -39 15 -57c7 -19 18 -35 33 -49c14 -14 31 -25 51 -33c21 -9 44 -13 71 -13
c49 0 85 11 109 33c25 22 37 49 37 80c0 25 -9 48 -26 69c-17 20 -44 34 -80 41l-101 22c-51 11 -92 33 -125 66c-32 32 -48 75 -48 128c0 28 6 55 18 80s28 48 49 67s46 35 75 46c29 12 59 18 92 18c40 0 74 -6 103 -17c28 -11 52 -25 71 -42s33 -36 44 -57s18 -41 22 -60
l-88 -31c-2 13 -6 26 -13 40c-7 15 -16 28 -28 40s-27 22 -45 29c-18 8 -39 12 -64 12c-20 0 -38 -3 -55 -9s-31 -14 -43 -25c-13 -11 -22 -23 -29 -38c-7 -14 -10 -29 -10 -46c0 -25 8 -47 23 -65c15 -19 38 -31 68 -38l106 -23c59 -13 105 -37 137 -72
c31 -35 47 -77 47 -127z" />
    <glyph glyph-name="uni0406" unicode="&#x406;" horiz-adv-x="290" 
d="M95 0v709h100v-709h-100z" />
    <glyph glyph-name="uni0407" unicode="&#x407;" horiz-adv-x="290" 
d="M95 0v709h100v-709h-100zM276 819c0 -15 -5 -28 -15 -38c-10 -11 -23 -16 -38 -16s-28 5 -38 16c-11 10 -16 23 -16 38s5 28 16 38c10 10 23 15 38 15s28 -5 38 -15s15 -23 15 -38zM123 819c0 -15 -5 -28 -15 -38c-11 -11 -24 -16 -39 -16s-28 5 -38 16
c-10 10 -15 23 -15 38s5 28 15 38s23 15 38 15s28 -5 39 -15c10 -10 15 -23 15 -38z" />
    <glyph glyph-name="uni0408" unicode="&#x408;" horiz-adv-x="551" 
d="M463 212c0 -31 -5 -61 -14 -88c-10 -27 -24 -51 -43 -72s-41 -37 -67 -49c-27 -12 -56 -18 -89 -18c-35 0 -66 5 -93 16s-50 26 -69 46s-34 44 -44 72c-10 27 -15 58 -15 92v46l98 22v-67c0 -47 11 -82 34 -103c23 -22 52 -33 88 -33s64 11 85 34c21 22 31 54 31 95v504
h98v-497z" />
    <glyph glyph-name="uni0409" unicode="&#x409;" horiz-adv-x="991" 
d="M482 0v618h-238l-6 -254c-1 -59 -4 -111 -8 -157c-5 -46 -13 -85 -25 -116s-29 -55 -51 -72s-51 -25 -88 -25c-15 0 -26 1 -34 3c-5 1 -9 2 -12 3v83l8 -2c3 -1 6 -1 9 -1h11c2 0 4 0 6 1h6c15 1 28 7 39 17c10 9 18 25 25 46c6 21 11 50 14 85s6 78 7 130l9 350h426
v-264h146c34 0 65 -5 93 -15c29 -10 53 -24 74 -43s38 -43 49 -70c12 -28 18 -60 18 -95c0 -31 -6 -60 -17 -87s-27 -51 -47 -71c-21 -20 -45 -36 -73 -47s-59 -17 -92 -17h-249zM580 88h135c22 0 42 3 60 10c17 7 32 16 45 28s23 26 30 43c7 16 10 33 10 52
c0 18 -3 35 -9 52c-7 17 -16 31 -29 44c-13 12 -28 22 -46 29c-19 7 -40 11 -65 11h-131v-269z" />
    <glyph glyph-name="uni040A" unicode="&#x40a;" horiz-adv-x="1006" 
d="M95 0v709h98v-284h304v284h98v-284h152c35 0 66 -5 94 -14c28 -10 52 -24 72 -42s35 -40 46 -66c11 -27 16 -57 16 -91c0 -30 -5 -58 -16 -83c-11 -26 -27 -48 -47 -67s-44 -34 -71 -45c-28 -11 -59 -17 -93 -17h-251v334h-304v-334h-98zM595 88h142c21 0 39 3 56 9
c17 7 32 15 44 26s21 24 28 39s10 32 10 49s-3 33 -8 48s-14 29 -25 40c-11 12 -26 21 -43 28s-38 10 -62 10h-142v-249z" />
    <glyph glyph-name="uni040B" unicode="&#x40b;" horiz-adv-x="806" 
d="M255 0v618h-237v91h572v-91h-237v-246c20 28 46 49 78 63s68 21 108 21c66 0 119 -20 158 -60s58 -97 58 -172v-224h-98v213c0 50 -12 88 -37 113s-60 38 -104 38c-23 0 -45 -4 -64 -11c-20 -7 -37 -18 -52 -33c-15 -14 -26 -32 -34 -53c-9 -21 -13 -46 -13 -73v-194h-98
z" />
    <glyph glyph-name="uni040C" unicode="&#x40c;" horiz-adv-x="647" 
d="M290 759l101 119h130l-137 -119h-94zM95 709h98v-309h64l257 309h126l-299 -349l298 -360h-128l-251 308h-67v-308h-98v709z" />
    <glyph glyph-name="uni040D" unicode="&#x40d;" horiz-adv-x="748" 
d="M95 709h98v-565l352 565h108v-709h-98v565l-352 -565h-108v709zM336 759l-126 146h118l86 -146h-78z" />
    <glyph glyph-name="uni040E" unicode="&#x40e;" horiz-adv-x="629" 
d="M393 206c-17 -37 -34 -69 -49 -96s-31 -49 -48 -66c-17 -18 -36 -31 -57 -39c-21 -9 -47 -13 -77 -13c-9 0 -17 0 -24 1s-13 2 -18 3c-6 1 -11 3 -16 4v86c3 -1 7 -3 12 -4c8 -2 20 -3 36 -3c18 0 34 3 47 8s24 13 33 22s17 19 24 31s13 25 19 38l-270 531h115l208 -422
l194 422h110zM331 754c-28 0 -52 4 -72 11c-20 8 -36 18 -49 31s-22 26 -29 41c-6 15 -9 31 -10 46h85c0 -7 1 -15 4 -22s8 -14 14 -21s14 -12 23 -16s21 -6 34 -6s23 2 32 7c9 4 16 9 21 16c6 7 10 14 13 22c3 7 4 14 4 20h85c-1 -14 -4 -29 -10 -44
c-5 -15 -14 -29 -26 -42s-28 -23 -48 -31c-19 -8 -43 -12 -71 -12z" />
    <glyph glyph-name="uni040F" unicode="&#x40f;" horiz-adv-x="739" 
d="M323 0h-228v709h98v-618h353v618h98v-709h-229v-150h-92v150z" />
    <glyph glyph-name="uni0410" unicode="&#x410;" horiz-adv-x="711" 
d="M17 0l282 709h113l282 -709h-106l-77 198h-314l-75 -198h-105zM232 289h244l-124 317z" />
    <glyph glyph-name="uni0411" unicode="&#x411;" horiz-adv-x="610" 
d="M95 709h417v-91h-319v-193h148c35 0 66 -5 95 -14c29 -10 53 -24 73 -42c21 -18 36 -40 47 -66c11 -27 17 -57 17 -91c0 -30 -6 -58 -17 -83c-11 -26 -26 -48 -47 -67c-20 -19 -44 -34 -72 -45c-29 -11 -60 -17 -95 -17h-247v709zM330 88c45 0 80 12 105 35
c25 24 38 53 38 88c0 17 -3 33 -8 48s-14 29 -26 40c-11 12 -26 21 -44 28s-40 10 -65 10h-137v-249h137z" />
    <glyph glyph-name="uni0412" unicode="&#x412;" horiz-adv-x="615" 
d="M95 0v709h231c34 0 64 -5 91 -15c26 -9 48 -23 67 -40c18 -17 32 -37 42 -60c9 -23 14 -49 14 -77c0 -38 -10 -70 -29 -97c-20 -26 -46 -45 -77 -56c20 -5 38 -13 54 -24s30 -24 41 -39s19 -32 25 -50c5 -19 8 -38 8 -58c0 -28 -5 -54 -16 -77c-11 -24 -26 -44 -45 -61
s-42 -31 -69 -40c-27 -10 -56 -15 -89 -15h-248zM193 86h136c40 0 72 10 97 30c24 21 36 48 36 83c0 34 -11 62 -32 83c-21 22 -54 33 -97 33h-140v-229zM193 399h122c40 0 71 10 93 31s33 49 33 82c0 34 -11 61 -34 81s-55 30 -96 30h-118v-224z" />
    <glyph glyph-name="uni0413" unicode="&#x413;" horiz-adv-x="529" 
d="M95 709h416v-91h-318v-618h-98v709z" />
    <glyph glyph-name="uni0414" unicode="&#x414;" horiz-adv-x="755" 
d="M10 91h55c9 9 19 20 29 35c10 14 19 33 28 57c9 23 16 53 22 88s10 79 12 130l10 308h457v-618h98v-241h-92v150h-527v-150h-92v241zM249 395c-1 -47 -4 -87 -9 -120c-5 -34 -10 -63 -17 -87s-15 -44 -22 -59c-8 -15 -16 -28 -23 -38h347v527h-270z" />
    <glyph glyph-name="uni0415" unicode="&#x415;" horiz-adv-x="584" 
d="M95 0v709h431v-91h-333v-218h302v-92h-302v-217h333v-91h-431z" />
    <glyph glyph-name="uni0416" unicode="&#x416;" horiz-adv-x="961" 
d="M292 354l-278 355h121l236 -309h63v309h96v-309h63l236 309h119l-276 -352l282 -357h-122l-242 308h-60v-308h-96v308h-60l-248 -308h-121z" />
    <glyph glyph-name="uni0417" unicode="&#x417;" horiz-adv-x="604" 
d="M553 196c0 -28 -5 -55 -16 -80s-26 -48 -47 -67s-48 -35 -79 -46c-31 -12 -68 -18 -109 -18c-42 0 -79 6 -110 19c-31 12 -58 28 -79 48c-22 20 -39 42 -51 67c-13 25 -21 49 -24 73l96 28c2 -19 7 -38 15 -55c8 -18 19 -34 34 -47c14 -13 31 -24 51 -32s43 -12 68 -12
c28 0 52 4 71 11s35 17 47 29c12 11 21 24 26 39c5 14 8 28 8 43s-2 30 -7 45c-5 14 -14 27 -26 38s-28 19 -47 26c-20 7 -45 10 -75 10h-85v91h86c47 0 81 11 103 33s33 51 33 86c0 17 -3 33 -10 48c-7 14 -17 26 -29 37c-12 10 -26 18 -43 24c-17 5 -34 8 -53 8
c-25 0 -47 -4 -66 -11c-19 -8 -34 -18 -47 -30s-23 -26 -30 -41c-7 -16 -12 -32 -14 -48l-89 24c2 21 9 43 21 65c11 23 28 43 49 61s46 33 76 44c30 12 64 18 102 18c40 0 75 -6 104 -17s53 -25 72 -43s33 -39 42 -62s13 -46 13 -69c0 -42 -11 -78 -32 -107
s-49 -50 -84 -61c18 -4 35 -11 51 -20s30 -21 43 -35s23 -30 30 -49s11 -41 11 -65z" />
    <glyph glyph-name="uni0418" unicode="&#x418;" horiz-adv-x="748" 
d="M95 709h98v-565l352 565h108v-709h-98v565l-352 -565h-108v709z" />
    <glyph glyph-name="uni0419" unicode="&#x419;" horiz-adv-x="748" 
d="M95 709h98v-565l352 565h108v-709h-98v565l-352 -565h-108v709zM382 754c-28 0 -52 4 -72 11c-20 8 -36 18 -49 31s-22 26 -29 41c-6 15 -9 31 -10 46h85c0 -7 1 -15 4 -22s8 -14 14 -21s14 -12 23 -16s21 -6 34 -6s23 2 32 6c9 5 16 10 22 17c5 7 9 14 12 22
c3 7 4 14 4 20h85c-1 -14 -4 -29 -9 -44c-6 -15 -15 -29 -27 -42s-28 -23 -47 -31c-20 -8 -44 -12 -72 -12z" />
    <glyph glyph-name="uni041A" unicode="&#x41a;" horiz-adv-x="647" 
d="M95 709h98v-309h64l257 309h126l-299 -349l298 -360h-128l-251 308h-67v-308h-98v709z" />
    <glyph glyph-name="uni041B" unicode="&#x41b;" horiz-adv-x="704" 
d="M511 618h-267l-6 -254c-1 -59 -4 -111 -8 -157c-5 -46 -13 -85 -25 -116s-29 -55 -51 -72s-51 -25 -88 -25c-15 0 -26 1 -34 3c-5 1 -9 2 -12 3v83l8 -2c3 -1 6 -1 9 -1h11c2 0 4 0 6 1h6c15 1 28 7 39 17c10 9 18 25 25 46c6 21 11 50 14 85s6 78 7 130l9 350h455v-709
h-98v618z" />
    <glyph glyph-name="uni041C" unicode="&#x41c;" horiz-adv-x="956" 
d="M95 0v709h133l250 -577l252 577h131v-709h-97v552l-242 -552h-90l-240 552v-552h-97z" />
    <glyph glyph-name="uni041D" unicode="&#x41d;" horiz-adv-x="748" 
d="M95 0v709h98v-303h362v303h98v-709h-98v315h-362v-315h-98z" />
    <glyph glyph-name="uni041E" unicode="&#x41e;" horiz-adv-x="808" 
d="M760 355c0 -59 -10 -112 -30 -158c-21 -46 -48 -85 -81 -116s-71 -55 -114 -71c-43 -17 -86 -25 -131 -25s-88 8 -131 25c-43 16 -81 40 -114 71s-60 70 -80 116c-21 46 -31 99 -31 158s10 112 31 158c20 45 47 84 80 115s71 55 114 71c43 17 86 25 131 25s88 -8 131 -25
c43 -16 81 -40 114 -71s60 -70 81 -115c20 -46 30 -99 30 -158zM148 355c0 -46 7 -86 22 -121c14 -35 33 -65 57 -88c23 -24 50 -42 81 -54c31 -11 63 -17 96 -17s65 6 96 17c31 12 58 30 82 54c23 23 42 53 57 88c14 35 21 75 21 121s-7 87 -21 122c-15 35 -34 64 -57 87
c-24 23 -51 41 -82 53c-31 11 -63 17 -96 17s-65 -6 -96 -17c-31 -12 -58 -30 -81 -53c-24 -23 -43 -52 -57 -87c-15 -35 -22 -76 -22 -122z" />
    <glyph glyph-name="uni041F" unicode="&#x41f;" horiz-adv-x="730" 
d="M95 709h540v-709h-98v618h-344v-618h-98v709z" />
    <glyph glyph-name="uni0420" unicode="&#x420;" horiz-adv-x="602" 
d="M95 0v709h258c33 0 63 -5 90 -16s50 -25 69 -44s33 -42 44 -67s16 -53 16 -83s-5 -58 -16 -83c-11 -26 -25 -48 -44 -66c-19 -19 -42 -33 -69 -44s-57 -16 -90 -16h-160v-290h-98zM193 378h142c43 0 76 11 101 32c24 22 36 51 36 88c0 38 -12 68 -36 90
c-25 22 -58 33 -101 33h-142v-243z" />
    <glyph glyph-name="uni0421" unicode="&#x421;" horiz-adv-x="748" 
d="M714 213c-9 -33 -23 -64 -42 -92s-41 -52 -67 -72c-27 -20 -57 -36 -91 -47c-35 -11 -72 -17 -113 -17c-46 0 -90 8 -132 25c-43 16 -80 40 -112 71c-33 31 -59 70 -78 116c-20 46 -30 99 -30 158s10 112 30 158c20 45 47 84 80 115s70 55 113 72c42 16 85 24 129 24
c41 0 78 -5 112 -16s64 -26 91 -45s49 -43 68 -71c18 -28 32 -59 41 -93l-91 -32c-13 54 -39 95 -76 124c-38 29 -86 43 -145 43c-32 0 -63 -6 -93 -17c-31 -12 -58 -30 -81 -53c-24 -23 -43 -52 -57 -87s-21 -76 -21 -122s7 -86 21 -121s33 -65 57 -88
c23 -24 50 -42 81 -53c30 -12 61 -18 93 -18c30 0 57 4 82 13s47 21 66 36s35 33 48 54s23 43 30 67z" />
    <glyph glyph-name="uni0422" unicode="&#x422;" horiz-adv-x="608" 
d="M255 0v618h-237v91h572v-91h-237v-618h-98z" />
    <glyph glyph-name="uni0423" unicode="&#x423;" horiz-adv-x="629" 
d="M393 206c-17 -37 -34 -69 -49 -96s-31 -49 -48 -66c-17 -18 -36 -31 -57 -39c-21 -9 -47 -13 -77 -13c-9 0 -17 0 -24 1s-13 2 -18 3c-6 1 -11 3 -16 4v86c3 -1 7 -3 12 -4c8 -2 20 -3 36 -3c18 0 34 3 47 8s24 13 33 22s17 19 24 31s13 25 19 38l-270 531h115l208 -422
l194 422h110z" />
    <glyph glyph-name="uni0424" unicode="&#x424;" horiz-adv-x="844" 
d="M373 -10v76c-49 1 -93 9 -134 24c-40 15 -75 35 -104 62c-29 26 -51 57 -67 93s-24 76 -24 119c0 41 8 80 23 115c16 35 38 65 67 90s64 45 104 60c41 15 86 23 135 24v66h98v-66c51 -1 96 -8 137 -23s75 -36 104 -62c29 -27 50 -58 65 -94s23 -76 23 -119
c0 -42 -8 -80 -24 -115c-15 -35 -38 -65 -67 -90c-29 -26 -63 -46 -104 -61c-40 -15 -85 -22 -134 -23v-76h-98zM144 364c0 -34 6 -64 17 -89c12 -26 28 -47 48 -64c21 -17 45 -31 73 -40s58 -14 91 -15v407c-33 -1 -63 -5 -91 -14s-52 -22 -73 -39c-20 -17 -36 -37 -48 -61
c-11 -25 -17 -53 -17 -85zM471 156c33 1 63 5 90 14c28 9 52 21 73 38s37 37 49 62c11 24 17 52 17 84c0 34 -6 64 -17 90c-12 25 -28 47 -49 64s-45 31 -73 40c-27 9 -57 14 -90 15v-407z" />
    <glyph glyph-name="uni0425" unicode="&#x425;" horiz-adv-x="625" 
d="M14 0l242 355l-240 354h118l179 -278l182 278h116l-241 -354l238 -355h-117l-179 277l-183 -277h-115z" />
    <glyph glyph-name="uni0426" unicode="&#x426;" horiz-adv-x="746" 
d="M620 0h-525v709h98v-618h323v618h98v-618h98v-241h-92v150z" />
    <glyph glyph-name="uni0427" unicode="&#x427;" horiz-adv-x="667" 
d="M474 300c-20 -16 -45 -29 -76 -38s-63 -14 -94 -14c-33 0 -64 4 -95 12c-31 9 -58 23 -81 42c-23 20 -42 46 -56 78c-15 33 -22 73 -22 122v207h98v-197c0 -35 5 -64 15 -86c9 -23 22 -40 37 -53s33 -22 52 -27s39 -7 58 -7c37 0 70 6 100 18c29 11 51 25 64 41v311h98
v-709h-98v300z" />
    <glyph glyph-name="uni0428" unicode="&#x428;" horiz-adv-x="970" 
d="M95 709h98v-618h243v618h98v-618h243v618h98v-709h-780v709z" />
    <glyph glyph-name="uni0429" unicode="&#x429;" horiz-adv-x="1007" 
d="M881 0h-786v709h98v-618h243v618h98v-618h243v618h98v-618h98v-241h-92v150z" />
    <glyph glyph-name="uni042A" unicode="&#x42a;" horiz-adv-x="704" 
d="M195 0v618h-175v91h273v-264h146c34 0 65 -5 93 -15c29 -10 53 -24 74 -43s38 -43 49 -70c12 -28 18 -60 18 -95c0 -31 -6 -60 -17 -87s-27 -51 -47 -71c-21 -20 -45 -36 -73 -47s-59 -17 -92 -17h-249zM293 88h135c22 0 42 3 59 10c18 7 33 16 46 28s22 26 29 43
c7 16 11 33 11 52c0 18 -3 35 -10 52c-6 17 -15 31 -28 44c-13 12 -28 22 -47 29c-18 7 -39 11 -64 11h-131v-269z" />
    <glyph glyph-name="uni042B" unicode="&#x42b;" horiz-adv-x="858" 
d="M663 0v709h100v-709h-100zM95 0v709h98v-264h146c34 0 65 -5 93 -15c29 -10 53 -24 74 -43s38 -43 49 -70c12 -28 18 -60 18 -95c0 -31 -6 -60 -17 -87s-27 -51 -47 -71c-21 -20 -45 -36 -73 -47s-59 -17 -92 -17h-249zM193 88h135c22 0 42 3 59 10c18 7 33 16 46 28
s22 26 29 43c7 16 11 33 11 52c0 18 -3 35 -10 52c-6 17 -15 31 -28 44c-13 12 -28 22 -47 29c-18 7 -39 11 -64 11h-131v-269z" />
    <glyph glyph-name="uni042C" unicode="&#x42c;" horiz-adv-x="604" 
d="M95 0v709h98v-264h146c34 0 65 -5 93 -15c29 -10 53 -24 74 -43s38 -43 49 -70c12 -28 18 -60 18 -95c0 -31 -6 -60 -17 -87s-27 -51 -47 -71c-21 -20 -45 -36 -73 -47s-59 -17 -92 -17h-249zM193 88h135c22 0 42 3 59 10c18 7 33 16 46 28s22 26 29 43c7 16 11 33 11 52
c0 18 -3 35 -10 52c-6 17 -15 31 -28 44c-13 12 -28 22 -47 29c-18 7 -39 11 -64 11h-131v-269z" />
    <glyph glyph-name="uni042D" unicode="&#x42d;" horiz-adv-x="754" 
d="M360 -15c-42 0 -81 6 -117 17s-68 26 -96 46s-52 44 -71 72c-20 27 -35 58 -44 91l86 35c7 -24 18 -46 32 -67s31 -40 52 -55s44 -27 71 -36c26 -9 55 -13 87 -13c29 0 58 5 86 15c27 9 52 24 74 44c22 19 40 44 55 73s24 63 27 102h-378v91h378c-3 39 -12 74 -27 103
s-33 54 -55 73s-47 34 -74 44c-28 9 -57 14 -86 14c-30 0 -58 -4 -84 -12c-26 -9 -49 -20 -69 -34s-37 -30 -51 -49c-15 -19 -25 -40 -32 -62l-88 32c10 33 26 63 47 90s47 49 77 68c29 18 62 32 97 42s70 15 107 15c47 0 91 -8 132 -24s77 -39 108 -70s55 -70 73 -116
s27 -99 27 -159c0 -61 -9 -114 -28 -160s-44 -84 -75 -115c-32 -31 -69 -55 -110 -71s-85 -24 -131 -24z" />
    <glyph glyph-name="uni042E" unicode="&#x42e;" horiz-adv-x="1039" 
d="M644 -15c-41 0 -81 7 -120 22c-39 14 -75 35 -106 63s-57 63 -78 104s-34 88 -39 141h-108v-315h-98v709h98v-303h109c6 51 20 97 41 136s48 73 79 100s66 47 105 61c38 14 77 21 117 21c43 0 86 -8 127 -24s78 -40 111 -71s59 -70 79 -115c19 -46 29 -99 29 -159
s-10 -113 -29 -159c-20 -46 -46 -85 -79 -116s-70 -55 -111 -71s-84 -24 -127 -24zM644 75c32 0 63 6 92 18c29 11 56 29 79 53c23 23 41 53 55 88c13 35 20 75 20 121s-7 87 -20 122c-14 35 -32 64 -55 87s-50 41 -79 53c-29 11 -60 17 -92 17s-63 -6 -92 -17
c-29 -12 -55 -30 -78 -53s-42 -52 -55 -87c-14 -35 -21 -76 -21 -122s7 -86 21 -121c13 -35 32 -65 55 -88c23 -24 49 -42 78 -53c29 -12 60 -18 92 -18z" />
    <glyph glyph-name="uni042F" unicode="&#x42f;" horiz-adv-x="629" 
d="M39 0l179 286c-26 7 -49 17 -69 30c-20 14 -37 30 -50 48c-13 17 -23 37 -30 58s-10 42 -10 65c0 32 6 62 17 89s27 51 48 71c21 19 45 35 73 46s59 16 93 16h244v-709h-98v273h-115l-168 -273h-114zM159 490c0 -20 4 -38 11 -54c8 -15 19 -29 32 -40s29 -20 47 -26
s37 -9 58 -9h129v260h-132c-23 0 -44 -4 -62 -11s-33 -16 -46 -28c-12 -11 -21 -25 -27 -41c-7 -16 -10 -33 -10 -51z" />
    <glyph glyph-name="uni0430" unicode="&#x430;" horiz-adv-x="526" 
d="M364 65c-5 -9 -12 -18 -21 -27s-19 -18 -32 -26s-27 -14 -44 -19s-37 -8 -58 -8c-25 0 -47 4 -66 12c-20 8 -37 19 -51 32s-25 28 -32 45c-8 17 -12 36 -12 55c0 21 4 41 11 58s18 31 31 43s28 22 46 29s37 13 58 16l130 19c15 2 25 6 30 13s7 14 7 23c0 23 -8 43 -24 60
c-17 17 -43 25 -80 25c-33 0 -59 -9 -77 -27s-29 -41 -32 -69l-90 21c3 23 10 44 21 63s25 36 42 49s38 24 61 31c23 8 47 12 73 12c36 0 67 -5 92 -14s46 -22 62 -38s28 -35 35 -56s11 -44 11 -67v-241c0 -21 1 -38 2 -51s3 -22 4 -28h-92c-1 6 -2 14 -3 24s-2 24 -2 41z
M144 134c0 -18 7 -34 21 -48c14 -15 33 -22 57 -22c19 0 38 3 55 8s31 13 44 24c12 11 22 25 29 44c7 18 11 40 11 66v22l-28 -4l-119 -18c-20 -3 -37 -11 -50 -22c-13 -12 -20 -29 -20 -50z" />
    <glyph glyph-name="uni0431" unicode="&#x431;" horiz-adv-x="598" 
d="M553 236c0 -36 -6 -69 -18 -99c-12 -31 -29 -57 -51 -80s-48 -40 -78 -53s-63 -19 -99 -19s-68 6 -95 18c-28 11 -53 28 -74 49c-28 29 -48 65 -61 108s-19 91 -19 145c0 59 5 111 15 156s26 84 49 116c22 33 51 59 87 78c35 20 79 34 130 41c28 4 52 7 72 10
c19 3 36 6 49 9s25 5 34 7c9 3 16 5 22 7v-84c-7 -3 -14 -5 -22 -8c-9 -2 -19 -4 -32 -6c-13 -3 -28 -5 -45 -8c-18 -3 -39 -6 -64 -9c-37 -5 -68 -14 -93 -27s-46 -29 -62 -50s-28 -45 -37 -74c-8 -28 -14 -60 -17 -95c11 31 34 57 67 77s71 30 115 30c35 0 67 -6 95 -18
s52 -29 72 -50c19 -21 34 -46 45 -75c10 -29 15 -61 15 -96zM160 231c0 -25 4 -48 12 -68s19 -37 32 -51s29 -25 47 -32s37 -11 57 -11s39 4 57 11s34 17 48 31c14 13 25 30 33 51c8 20 12 43 12 69s-4 49 -12 70c-8 20 -19 37 -33 50s-30 24 -48 31s-37 10 -57 10
s-39 -3 -57 -10s-34 -18 -47 -31s-24 -30 -32 -50c-8 -21 -12 -44 -12 -70z" />
    <glyph glyph-name="uni0432" unicode="&#x432;" horiz-adv-x="523" 
d="M76 0v481h229c53 0 93 -12 118 -37s37 -55 37 -91c0 -49 -24 -84 -71 -105c27 -7 48 -21 63 -41s23 -43 23 -69c0 -42 -14 -75 -42 -100s-69 -38 -124 -38h-233zM168 80h133c23 0 43 5 58 16c15 10 22 26 22 48c0 21 -7 37 -22 48c-15 10 -34 15 -55 15h-136v-127z
M168 282h127c23 0 41 5 54 16s19 25 19 43c0 22 -7 38 -22 47c-14 9 -33 13 -56 13h-122v-119z" />
    <glyph glyph-name="uni0433" unicode="&#x433;" horiz-adv-x="413" 
d="M76 481h316v-85h-222v-396h-94v481z" />
    <glyph glyph-name="uni0434" unicode="&#x434;" horiz-adv-x="600" 
d="M19 85h39c17 11 32 33 43 68c11 34 17 85 20 152l7 176h357v-396h90v-215h-90v130h-376v-130h-90v215zM391 85v311h-178l-4 -109c-4 -101 -20 -169 -47 -202h229z" />
    <glyph glyph-name="uni0435" unicode="&#x435;" horiz-adv-x="552" 
d="M503 137c-7 -21 -17 -41 -30 -59c-13 -19 -28 -35 -47 -48c-18 -14 -39 -25 -62 -33s-49 -12 -77 -12c-32 0 -63 6 -92 17s-55 28 -77 50c-23 22 -40 49 -53 81s-20 68 -20 109c0 38 6 73 19 104s30 57 51 80c21 22 45 39 73 51c28 13 57 19 87 19c37 0 70 -6 99 -19
c29 -12 53 -29 72 -51s34 -49 45 -80c10 -31 15 -65 15 -102v-17c-1 -5 -1 -10 -2 -13h-362c1 -21 5 -41 12 -59s18 -33 31 -46s28 -23 46 -30c17 -7 36 -11 56 -11c39 0 69 9 90 28s36 42 45 69zM276 413c-20 0 -38 -4 -53 -11c-16 -7 -29 -16 -40 -28
c-11 -11 -20 -24 -27 -39s-10 -30 -11 -45h263c-1 35 -13 64 -35 87c-22 24 -54 36 -97 36z" />
    <glyph glyph-name="uni0436" unicode="&#x436;" horiz-adv-x="778" 
d="M210 246l-193 235h116l160 -200h50v200h92v-200h53l158 200h115l-193 -233l188 -248h-116l-150 200h-55v-200h-92v200h-56l-153 -200h-114z" />
    <glyph glyph-name="uni0437" unicode="&#x437;" horiz-adv-x="486" 
d="M244 -15c-35 0 -66 5 -92 16c-25 10 -46 22 -63 37s-29 30 -38 46s-13 30 -14 42l85 25c1 -9 4 -18 9 -28s13 -19 23 -28s22 -16 37 -21c15 -6 33 -9 53 -9c11 0 22 1 34 4c12 2 23 6 33 11s18 13 25 22s10 20 10 34c0 24 -9 41 -27 52s-42 16 -71 16h-75v80h77
c29 0 50 6 64 18c15 12 22 27 22 44c0 23 -9 41 -28 53c-18 11 -41 17 -68 17c-34 0 -61 -8 -80 -24s-31 -35 -34 -56l-87 17c3 19 9 38 20 55s26 33 43 46c18 13 39 23 63 31c24 7 50 11 78 11c25 0 49 -3 72 -8c23 -6 42 -15 59 -26s30 -26 39 -43c10 -17 15 -37 15 -60
s-8 -46 -23 -68s-37 -36 -68 -43c32 -5 57 -17 75 -38c19 -21 28 -47 28 -77c0 -20 -4 -39 -13 -56c-8 -18 -20 -34 -36 -47c-17 -14 -37 -25 -62 -33s-53 -12 -85 -12z" />
    <glyph glyph-name="uni0438" unicode="&#x438;" horiz-adv-x="568" 
d="M76 481h93v-339l229 339h94v-481h-93v339l-229 -339h-94v481z" />
    <glyph glyph-name="uni0439" unicode="&#x439;" horiz-adv-x="568" 
d="M76 481h93v-339l229 339h94v-481h-93v339l-229 -339h-94v481zM289 550c-24 0 -45 4 -64 11s-35 17 -48 29c-14 13 -25 27 -32 44s-11 34 -12 53h85c1 -21 7 -38 20 -51c12 -13 29 -19 51 -19c20 0 36 6 47 19s16 30 17 51h84c-1 -19 -4 -36 -11 -53s-17 -31 -30 -44
c-13 -12 -28 -22 -46 -29s-38 -11 -61 -11z" />
    <glyph glyph-name="uni043A" unicode="&#x43a;" horiz-adv-x="523" 
d="M76 481h92v-202h56l164 202h117l-198 -236l197 -245h-123l-155 202h-58v-202h-92v481z" />
    <glyph glyph-name="uni043B" unicode="&#x43b;" horiz-adv-x="543" 
d="M373 396h-162l-5 -121c-2 -46 -5 -87 -10 -122s-12 -65 -23 -88c-10 -23 -23 -41 -40 -53s-38 -18 -63 -18c-16 0 -28 1 -36 3c-7 2 -11 3 -10 3v77c1 -1 2 -1 4 -1c2 -1 7 -1 16 -1h8c23 1 39 18 48 50c9 31 14 82 17 152l8 204h342v-481h-94v396z" />
    <glyph glyph-name="uni043C" unicode="&#x43c;" horiz-adv-x="736" 
d="M76 0v481h134l161 -377l162 377h127v-481h-91v369l-159 -369h-83l-160 367v-367h-91z" />
    <glyph glyph-name="uni043D" unicode="&#x43d;" horiz-adv-x="558" 
d="M76 481h94v-192h218v192h94v-481h-94v204h-218v-204h-94v481z" />
    <glyph glyph-name="uni043E" unicode="&#x43e;" horiz-adv-x="580" 
d="M536 241c0 -37 -6 -71 -18 -102s-29 -58 -51 -81s-48 -40 -78 -53c-30 -14 -63 -20 -99 -20s-69 6 -99 20c-30 13 -56 30 -78 53s-39 50 -51 81s-18 65 -18 102s6 71 18 102s29 57 51 80s48 41 78 54s63 19 99 19s69 -6 99 -19s56 -31 78 -54s39 -49 51 -80
s18 -65 18 -102zM140 241c0 -28 4 -53 12 -74s19 -39 33 -54s30 -26 48 -33s37 -11 57 -11s39 4 57 11s34 18 48 33s25 33 33 54s12 46 12 74s-4 53 -12 74s-19 38 -33 53s-30 26 -48 33s-37 11 -57 11s-39 -4 -57 -11s-34 -18 -48 -33s-25 -32 -33 -53s-12 -46 -12 -74z
" />
    <glyph glyph-name="uni043F" unicode="&#x43f;" horiz-adv-x="550" 
d="M76 481h398v-481h-96v396h-206v-396h-96v481z" />
    <glyph glyph-name="uni0440" unicode="&#x440;" horiz-adv-x="594" 
d="M76 -190v671h91v-75c13 24 34 44 61 61s61 25 100 25c36 0 68 -6 96 -19c27 -13 50 -31 69 -54c18 -23 32 -49 42 -80c9 -31 14 -63 14 -98c0 -36 -5 -69 -15 -100s-25 -57 -44 -80s-43 -41 -70 -54c-28 -13 -60 -20 -95 -20c-37 0 -69 8 -96 23s-47 34 -60 55v-255h-93z
M168 241c0 -25 3 -47 10 -68s16 -39 29 -54s28 -27 46 -35c17 -9 37 -13 58 -13c22 0 42 4 59 13c17 8 32 20 45 35c12 15 21 33 28 54s10 43 10 68c0 24 -3 46 -10 67c-7 20 -16 38 -28 53s-27 26 -44 35c-18 9 -38 13 -60 13c-21 0 -41 -4 -58 -13c-18 -9 -33 -20 -46 -35
s-22 -33 -29 -53c-7 -21 -10 -43 -10 -67z" />
    <glyph glyph-name="uni0441" unicode="&#x441;" horiz-adv-x="539" 
d="M504 135c-6 -17 -15 -35 -26 -52c-11 -18 -26 -34 -44 -49s-39 -26 -64 -35c-24 -9 -52 -14 -83 -14c-35 0 -68 7 -98 20c-29 13 -55 31 -76 54s-38 50 -51 81c-12 31 -18 64 -18 101s6 72 18 103c13 31 30 58 51 80c22 23 48 40 77 53c30 13 62 19 96 19
c32 0 60 -5 84 -14c25 -9 46 -20 63 -35c18 -15 32 -31 43 -50c11 -18 19 -36 24 -54l-85 -36c-3 12 -8 24 -14 36s-14 23 -25 32c-10 10 -22 18 -37 24c-15 7 -32 10 -53 10c-19 0 -38 -4 -55 -11s-33 -17 -47 -31c-13 -14 -24 -32 -32 -53s-12 -45 -12 -73
c0 -27 4 -52 12 -73s19 -38 32 -53c13 -14 29 -25 47 -32s37 -11 56 -11c23 0 42 3 58 10c15 7 28 15 39 25c10 10 18 21 24 33c6 11 10 22 13 31z" />
    <glyph glyph-name="uni0442" unicode="&#x442;" horiz-adv-x="480" 
d="M193 396h-171v85h436v-85h-171v-396h-94v396z" />
    <glyph glyph-name="uni0443" unicode="&#x443;" horiz-adv-x="540" 
d="M109 -201l120 254l-207 428h108l150 -332l144 332h101l-313 -682h-103z" />
    <glyph glyph-name="uni0444" unicode="&#x444;" horiz-adv-x="732" 
d="M318 -191v178c-39 1 -76 7 -109 20c-34 12 -63 29 -87 51c-25 22 -44 48 -58 79s-21 65 -21 102c0 39 7 74 21 105s33 57 58 80c25 22 54 39 87 52c33 12 70 18 109 19v194h94v-194c42 -1 80 -7 114 -20s63 -30 87 -53c24 -22 43 -49 56 -80s19 -66 19 -104
s-6 -72 -19 -102c-13 -31 -32 -57 -56 -79s-53 -39 -87 -51s-72 -18 -114 -19v-178h-94zM139 239c0 -29 5 -54 15 -75s23 -39 40 -52s36 -23 57 -30c22 -7 44 -10 67 -11v340c-23 -1 -46 -4 -67 -11s-40 -17 -57 -30c-17 -14 -30 -32 -40 -53s-15 -47 -15 -78zM412 71
c25 1 49 4 71 11c22 6 41 16 57 29s29 31 38 52s14 46 14 75c0 30 -5 56 -14 78c-9 21 -21 39 -37 53s-35 24 -57 31s-46 10 -72 11v-340z" />
    <glyph glyph-name="uni0445" unicode="&#x445;" horiz-adv-x="507" 
d="M18 0l179 245l-173 236h114l118 -169l116 169h111l-171 -236l177 -245h-113l-124 177l-122 -177h-112z" />
    <glyph glyph-name="uni0446" unicode="&#x446;" horiz-adv-x="585" 
d="M470 0h-394v481h94v-396h206v396h94v-396h90v-215h-90v130z" />
    <glyph glyph-name="uni0447" unicode="&#x447;" horiz-adv-x="515" 
d="M345 195c-13 -9 -30 -17 -50 -24c-19 -7 -43 -10 -71 -10c-24 0 -47 4 -69 11s-42 18 -59 34c-17 15 -30 35 -40 60c-10 24 -15 54 -15 89v126h94v-120c0 -35 8 -62 25 -83s44 -31 83 -31c27 0 49 4 64 11s27 15 38 22v201h94v-481h-94v195z" />
    <glyph glyph-name="uni0448" unicode="&#x448;" horiz-adv-x="796" 
d="M76 481h94v-396h181v396h94v-396h181v396h94v-481h-644v481z" />
    <glyph glyph-name="uni0449" unicode="&#x449;" horiz-adv-x="831" 
d="M709 0h-633v481h94v-396h181v396h94v-396h181v396h94v-396h79v-215h-90v130z" />
    <glyph glyph-name="uni044A" unicode="&#x44a;" horiz-adv-x="567" 
d="M153 399h-131v82h225v-155h106c55 0 100 -14 133 -43s49 -69 49 -120s-17 -90 -50 -119s-77 -44 -132 -44h-200v399zM338 83c35 0 61 7 77 22c16 14 24 33 24 57c0 25 -8 45 -24 60c-16 14 -42 21 -77 21h-91v-160h91z" />
    <glyph glyph-name="uni044B" unicode="&#x44b;" horiz-adv-x="689" 
d="M519 481h94v-481h-94v481zM76 481h94v-155h106c55 0 100 -14 133 -43s49 -69 49 -120s-17 -90 -50 -119s-77 -44 -132 -44h-200v481zM261 83c35 0 61 7 77 22c16 14 24 33 24 57c0 25 -8 45 -24 60c-16 14 -42 21 -77 21h-91v-160h91z" />
    <glyph glyph-name="uni044C" unicode="&#x44c;" horiz-adv-x="490" 
d="M76 481h94v-155h106c55 0 100 -14 133 -43s49 -69 49 -120s-17 -90 -50 -119s-77 -44 -132 -44h-200v481zM261 83c35 0 61 7 77 22c16 14 24 33 24 57c0 25 -8 45 -24 60c-16 14 -42 21 -77 21h-91v-160h91z" />
    <glyph glyph-name="uni044D" unicode="&#x44d;" horiz-adv-x="542" 
d="M259 -15c-31 0 -59 4 -84 13s-47 21 -66 35c-19 15 -34 31 -46 48c-13 18 -22 36 -28 53l81 37c3 -9 7 -19 14 -30c6 -11 15 -22 26 -33c11 -10 25 -19 42 -26s38 -10 62 -10c37 0 69 12 95 35c27 23 41 56 44 99h-202v80h200c-4 41 -19 71 -45 92s-56 31 -91 31
c-22 0 -41 -3 -58 -10c-16 -6 -30 -14 -41 -24s-20 -21 -27 -33c-7 -11 -11 -22 -14 -33l-82 37c5 17 13 35 24 52c12 18 27 34 46 49s41 26 66 35s53 14 85 14c36 0 69 -6 98 -18s53 -29 74 -52c21 -22 37 -49 48 -80s17 -66 17 -105c0 -37 -6 -71 -17 -102
s-27 -58 -48 -81s-46 -41 -75 -54s-62 -19 -98 -19z" />
    <glyph glyph-name="uni044E" unicode="&#x44e;" horiz-adv-x="760" 
d="M480 -15c-31 0 -60 5 -87 16s-51 26 -71 46c-21 19 -37 42 -50 69s-21 56 -25 88h-77v-204h-94v481h94v-192h79c5 30 14 58 27 83s30 47 50 66c20 18 43 32 69 43c26 10 54 15 85 15c35 0 66 -6 95 -19s54 -31 75 -54s37 -49 49 -80c11 -31 17 -65 17 -102
s-6 -71 -17 -102c-12 -31 -28 -58 -49 -81s-46 -40 -75 -53c-29 -14 -60 -20 -95 -20zM480 69c19 0 37 4 54 11s31 18 44 32c13 15 23 33 31 54c7 21 11 46 11 75c0 28 -4 53 -11 74c-8 21 -18 39 -31 53c-13 15 -27 26 -44 33s-35 11 -54 11s-36 -4 -53 -11
s-32 -18 -45 -33c-13 -14 -23 -32 -31 -53c-7 -21 -11 -46 -11 -74c0 -29 4 -54 11 -75c8 -21 18 -39 31 -54c13 -14 28 -25 45 -32s34 -11 53 -11z" />
    <glyph glyph-name="uni044F" unicode="&#x44f;" horiz-adv-x="517" 
d="M162 174c-14 4 -28 10 -41 17c-13 8 -25 18 -35 29c-10 12 -18 26 -24 42c-7 16 -10 34 -10 55c0 28 5 52 16 72c11 21 25 38 42 51c17 14 38 24 61 31s46 10 71 10h199v-481h-94v161h-92l-107 -161h-110zM347 238v162h-104c-17 0 -32 -2 -44 -7s-22 -11 -29 -19
s-13 -17 -16 -27c-4 -10 -6 -20 -6 -30c0 -23 8 -42 23 -57s40 -22 74 -22h102z" />
    <glyph glyph-name="uni0450" unicode="&#x450;" horiz-adv-x="552" 
d="M503 137c-7 -21 -17 -41 -30 -59c-13 -19 -28 -35 -47 -48c-18 -14 -39 -25 -62 -33s-49 -12 -77 -12c-32 0 -63 6 -92 17s-55 28 -77 50c-23 22 -40 49 -53 81s-20 68 -20 109c0 38 6 73 19 104s30 57 51 80c21 22 45 39 73 51c28 13 57 19 87 19c37 0 70 -6 99 -19
c29 -12 53 -29 72 -51s34 -49 45 -80c10 -31 15 -65 15 -102v-17c-1 -5 -1 -10 -2 -13h-362c1 -21 5 -41 12 -59s18 -33 31 -46s28 -23 46 -30c17 -7 36 -11 56 -11c39 0 69 9 90 28s36 42 45 69zM276 413c-20 0 -38 -4 -53 -11c-16 -7 -29 -16 -40 -28
c-11 -11 -20 -24 -27 -39s-10 -30 -11 -45h263c-1 35 -13 64 -35 87c-22 24 -54 36 -97 36zM256 543l-126 146h118l86 -146h-78z" />
    <glyph glyph-name="uni0451" unicode="&#x451;" horiz-adv-x="552" 
d="M503 137c-7 -21 -17 -41 -30 -59c-13 -19 -28 -35 -47 -48c-18 -14 -39 -25 -62 -33s-49 -12 -77 -12c-32 0 -63 6 -92 17s-55 28 -77 50c-23 22 -40 49 -53 81s-20 68 -20 109c0 38 6 73 19 104s30 57 51 80c21 22 45 39 73 51c28 13 57 19 87 19c37 0 70 -6 99 -19
c29 -12 53 -29 72 -51s34 -49 45 -80c10 -31 15 -65 15 -102v-17c-1 -5 -1 -10 -2 -13h-362c1 -21 5 -41 12 -59s18 -33 31 -46s28 -23 46 -30c17 -7 36 -11 56 -11c39 0 69 9 90 28s36 42 45 69zM276 413c-20 0 -38 -4 -53 -11c-16 -7 -29 -16 -40 -28
c-11 -11 -20 -24 -27 -39s-10 -30 -11 -45h263c-1 35 -13 64 -35 87c-22 24 -54 36 -97 36zM436 621c0 -17 -6 -31 -17 -42s-25 -16 -41 -16c-17 0 -30 5 -41 16s-17 25 -17 42c0 16 6 30 17 41s24 17 41 17c16 0 30 -6 41 -17s17 -25 17 -41zM249 621c0 -17 -6 -31 -17 -42
s-25 -16 -42 -16c-16 0 -29 5 -40 16s-17 25 -17 42c0 16 6 30 17 41s24 17 40 17c17 0 31 -6 42 -17s17 -25 17 -41z" />
    <glyph glyph-name="uni0452" unicode="&#x452;" horiz-adv-x="559" 
d="M76 0v557h-86v76h86v91h94v-91h121v-76h-121v-132c17 25 39 43 65 54s53 16 81 16c29 0 54 -5 76 -15c21 -9 39 -23 54 -40c14 -17 25 -37 32 -60s10 -48 10 -75v-361c0 -44 -12 -80 -35 -108c-23 -27 -56 -41 -98 -41c-18 0 -31 1 -39 2c-8 2 -14 4 -17 5v79
c3 -1 7 -1 12 -2s11 -1 18 -1c25 0 42 6 51 18c9 13 14 30 14 52v341c0 17 -2 32 -5 47c-4 15 -10 27 -19 38s-21 20 -35 26c-15 7 -32 10 -53 10c-18 0 -34 -3 -47 -10c-14 -7 -26 -16 -35 -27s-16 -25 -21 -40s-8 -32 -9 -50v-283h-94z" />
    <glyph glyph-name="uni0453" unicode="&#x453;" horiz-adv-x="413" 
d="M179 543l87 146h118l-126 -146h-79zM76 481h316v-85h-222v-396h-94v481z" />
    <glyph glyph-name="uni0454" unicode="&#x454;" horiz-adv-x="544" 
d="M287 -15c-35 0 -68 7 -98 20c-29 13 -55 31 -76 54s-38 50 -51 81c-12 31 -18 64 -18 101s6 72 18 103c13 31 30 58 51 80c22 23 48 40 77 53c30 13 62 19 96 19c33 0 61 -5 86 -14s47 -20 65 -35s32 -31 43 -50c11 -18 20 -36 25 -54l-85 -36c-3 12 -8 24 -14 36
c-7 12 -15 23 -26 32c-11 10 -24 18 -39 24c-15 7 -34 10 -55 10c-17 0 -33 -3 -48 -8s-29 -13 -42 -23c-13 -11 -23 -24 -32 -40s-16 -34 -20 -55h212v-80h-213c3 -21 10 -40 19 -56c9 -17 20 -30 33 -41s27 -20 43 -25c15 -6 32 -9 49 -9c23 0 43 3 60 10
c16 7 30 15 41 25s19 21 25 33c6 11 10 22 13 31l83 -36c-6 -17 -15 -35 -27 -52c-12 -18 -27 -34 -45 -49s-39 -26 -64 -36c-25 -9 -54 -13 -86 -13z" />
    <glyph glyph-name="uni0455" unicode="&#x455;" horiz-adv-x="455" 
d="M410 134c0 -17 -4 -35 -11 -52s-18 -33 -32 -48c-15 -15 -33 -26 -55 -35s-48 -14 -78 -14c-33 0 -62 5 -85 14c-24 9 -44 21 -60 35c-15 14 -27 29 -36 46c-8 16 -13 31 -15 45l85 30c3 -25 14 -47 33 -64s45 -26 79 -26c27 0 47 6 61 19s21 28 21 45c0 15 -5 28 -16 39
s-26 18 -46 23l-82 18c-38 8 -68 24 -89 48s-31 53 -31 87c0 21 4 40 13 59c9 18 22 34 37 48s33 25 54 33s44 12 67 12c33 0 60 -5 82 -14c23 -9 41 -21 55 -34c14 -14 24 -28 31 -43s12 -27 15 -38l-83 -31c-1 6 -4 14 -7 23s-9 18 -16 27c-7 8 -17 15 -30 21s-28 9 -47 9
c-24 0 -43 -6 -58 -19s-22 -28 -22 -45c0 -31 18 -50 55 -58l78 -17c44 -9 77 -26 100 -51c22 -25 33 -56 33 -92z" />
    <glyph glyph-name="uni0456" unicode="&#x456;" horiz-adv-x="245" 
d="M76 0v481h93v-481h-93zM190 663c0 -19 -6 -34 -19 -47s-30 -20 -49 -20s-34 7 -47 20s-20 28 -20 47s7 36 20 49s28 19 47 19s36 -6 49 -19s19 -30 19 -49z" />
    <glyph glyph-name="uni0457" unicode="&#x457;" horiz-adv-x="245" 
d="M48 599c-17 0 -32 6 -43 19c-11 12 -17 27 -17 45s6 33 17 46s26 19 43 19s32 -6 44 -19c11 -13 17 -28 17 -46s-6 -33 -17 -45c-12 -13 -27 -19 -44 -19zM76 481h93v-481h-93v481zM197 599c-17 0 -32 6 -43 19c-11 12 -17 27 -17 45s6 33 17 46s26 19 43 19
s32 -6 44 -19c11 -13 17 -28 17 -46s-6 -33 -17 -45c-12 -13 -27 -19 -44 -19z" />
    <glyph glyph-name="uni0458" unicode="&#x458;" horiz-adv-x="246" 
d="M170 -56c0 -44 -12 -80 -35 -107c-23 -28 -56 -42 -98 -42c-18 0 -31 1 -39 3c-8 1 -14 3 -17 4v79c3 -1 6 -1 11 -2s12 -1 19 -1c25 0 42 6 51 18c9 13 14 30 14 52v533h94v-537zM190 665c0 -19 -6 -34 -19 -47s-30 -20 -49 -20s-34 7 -47 20s-20 28 -20 47s7 36 20 49
s28 19 47 19s36 -6 49 -19s19 -30 19 -49z" />
    <glyph glyph-name="uni0459" unicode="&#x459;" horiz-adv-x="771" 
d="M451 326h106c55 0 99 -14 132 -43s50 -69 50 -120s-17 -91 -50 -120s-77 -43 -132 -43h-200v396h-146l-5 -121c-2 -46 -5 -87 -10 -122s-12 -65 -23 -88c-10 -23 -23 -41 -40 -53s-38 -18 -63 -18c-16 0 -28 1 -36 3c-7 2 -11 3 -10 3v77c1 -1 2 -1 4 -1c2 -1 7 -1 16 -1
h8c23 1 39 18 48 50c9 31 14 82 17 152l8 204h326v-155zM542 83c35 0 61 7 77 22c16 14 24 33 24 57c0 25 -8 45 -24 59c-16 15 -42 22 -77 22h-91v-160h91z" />
    <glyph glyph-name="uni045A" unicode="&#x45a;" horiz-adv-x="780" 
d="M76 481h94v-175h208v175h94v-175h99c55 0 99 -13 131 -40s48 -65 48 -113s-16 -85 -48 -112c-33 -27 -76 -41 -131 -41h-193v221h-208v-221h-94v481zM558 81c35 0 60 7 74 20c15 13 22 30 22 51c0 23 -7 41 -22 54c-14 13 -39 19 -74 19h-86v-144h86z" />
    <glyph glyph-name="uni045B" unicode="&#x45b;" horiz-adv-x="559" 
d="M76 0v557h-86v76h86v91h94v-91h121v-76h-121v-132c17 25 39 43 65 54s53 16 81 16c29 0 54 -5 76 -15c21 -9 39 -23 54 -40c14 -17 25 -37 32 -60s10 -48 10 -75v-305h-94v289c0 17 -2 32 -5 47c-4 15 -10 27 -19 38s-21 20 -35 26c-15 7 -32 10 -53 10
c-18 0 -34 -3 -47 -10c-14 -7 -26 -16 -35 -27s-16 -25 -21 -40s-8 -32 -9 -50v-283h-94z" />
    <glyph glyph-name="uni045C" unicode="&#x45c;" horiz-adv-x="523" 
d="M76 481h92v-202h56l164 202h117l-198 -236l197 -245h-123l-155 202h-58v-202h-92v481zM231 543l87 146h118l-126 -146h-79z" />
    <glyph glyph-name="uni045D" unicode="&#x45d;" horiz-adv-x="568" 
d="M76 481h93v-339l229 339h94v-481h-93v339l-229 -339h-94v481zM250 543l-126 146h118l86 -146h-78z" />
    <glyph glyph-name="uni045E" unicode="&#x45e;" horiz-adv-x="540" 
d="M109 -201l120 254l-207 428h108l150 -332l144 332h101l-313 -682h-103zM294 550c-24 0 -45 4 -64 11s-35 17 -48 29c-14 13 -25 27 -32 44s-11 34 -12 53h85c1 -21 7 -38 20 -51c12 -13 29 -19 51 -19c20 0 36 6 47 19s16 30 17 51h84c-1 -19 -4 -36 -11 -53
s-17 -31 -30 -44c-13 -12 -28 -22 -46 -29s-38 -11 -61 -11z" />
    <glyph glyph-name="uni045F" unicode="&#x45f;" horiz-adv-x="548" 
d="M229 0h-153v481h94v-396h208v396h94v-481h-153v-130h-90v130z" />
    <glyph glyph-name="uni0462" unicode="&#x462;" horiz-adv-x="726" 
d="M551 527h-237v-102h146c34 0 65 -5 93 -14c29 -10 53 -24 74 -42s38 -40 49 -66c12 -27 18 -57 18 -91c0 -30 -6 -58 -17 -83c-11 -26 -27 -48 -47 -67c-21 -19 -45 -34 -73 -45s-59 -17 -92 -17h-249v527h-187v82h187v100h98v-100h237v-82zM314 88h135
c44 0 79 11 105 32c27 21 40 51 40 91c0 39 -13 70 -38 93c-25 22 -62 33 -111 33h-131v-249z" />
    <glyph glyph-name="uni0463" unicode="&#x463;" horiz-adv-x="578" 
d="M161 405h-141v76h141v243h94v-243h181v-76h-181v-99h116c52 0 94 -13 125 -40s47 -65 47 -113s-16 -85 -47 -112s-73 -41 -125 -41h-210v405zM356 83c32 0 55 6 70 19c14 12 21 29 21 50c0 23 -7 40 -21 53c-15 12 -38 18 -70 18h-101v-140h101z" />
    <glyph glyph-name="uni0472" unicode="&#x472;" horiz-adv-x="808" 
d="M760 355c0 -59 -10 -112 -30 -158c-21 -46 -48 -85 -81 -116s-71 -55 -114 -71c-43 -17 -86 -25 -131 -25s-88 8 -131 25c-43 16 -81 40 -114 71s-60 70 -80 116c-21 46 -31 99 -31 158s10 112 31 158c20 45 47 84 80 115s71 55 114 71c43 17 86 25 131 25s88 -8 131 -25
c43 -16 81 -40 114 -71s60 -70 81 -115c20 -46 30 -99 30 -158zM267 341c-25 0 -47 -3 -66 -9c-19 -7 -36 -19 -49 -36c6 -37 17 -69 33 -96c16 -28 35 -51 58 -69c23 -19 48 -33 76 -42c27 -9 56 -14 85 -14c32 0 63 6 93 17c29 11 56 27 79 49c23 21 43 48 58 81
c15 32 23 70 25 113c-29 -31 -71 -47 -128 -47c-29 0 -54 3 -75 9c-21 5 -41 11 -60 18c-19 6 -39 12 -59 18c-20 5 -43 8 -70 8zM545 379c24 0 45 3 64 8c18 5 33 15 46 30c-6 36 -17 68 -33 95c-17 27 -36 49 -58 68c-23 18 -48 32 -75 41c-28 9 -56 13 -85 13
c-31 0 -62 -5 -91 -16c-30 -11 -57 -26 -80 -47s-42 -48 -57 -79c-15 -32 -24 -69 -27 -111c13 15 31 28 53 37c23 9 48 13 76 13c27 0 51 -3 73 -8c21 -5 42 -11 62 -18s41 -13 62 -18s44 -8 70 -8z" />
    <glyph glyph-name="uni0473" unicode="&#x473;" horiz-adv-x="580" 
d="M290 -15c-36 0 -69 6 -99 20c-30 13 -56 30 -78 53s-39 50 -51 81s-18 65 -18 102s6 71 18 102s29 57 51 80s48 41 78 54s63 19 99 19s69 -6 99 -19s56 -31 78 -54s39 -49 51 -80s18 -65 18 -102s-6 -71 -18 -102s-29 -58 -51 -81s-48 -40 -78 -53
c-30 -14 -63 -20 -99 -20zM290 69c19 0 37 3 54 9c17 7 32 16 46 29c13 13 24 28 33 47s14 41 16 66c-18 -19 -44 -29 -77 -29c-16 0 -29 1 -40 4s-22 6 -32 9l-30 9s-21 4 -34 4c-18 0 -34 -2 -48 -7s-25 -12 -32 -21c9 -39 27 -69 54 -89c26 -21 56 -31 90 -31zM141 262
c9 13 20 22 35 29c15 6 31 9 50 9c13 0 26 -1 37 -4s21 -6 32 -9c10 -3 20 -6 31 -9s23 -4 36 -4c31 0 55 7 72 20c-9 39 -27 68 -54 88s-57 30 -90 30c-19 0 -36 -3 -53 -10s-33 -16 -46 -29c-14 -13 -25 -28 -34 -47s-14 -40 -16 -64z" />
    <glyph glyph-name="uni0474" unicode="&#x474;" horiz-adv-x="709" 
d="M521 621c12 32 29 56 51 73s52 25 89 25c7 0 14 0 20 -1c5 -1 10 -1 14 -2l12 -3v-83c-3 0 -5 0 -8 1c-7 1 -13 2 -20 2h-6c-2 -1 -4 -1 -6 -1c-13 -1 -25 -6 -35 -13c-10 -8 -18 -21 -25 -38l-224 -581h-97l-267 709h104l214 -583z" />
    <glyph glyph-name="uni0475" unicode="&#x475;" horiz-adv-x="544" 
d="M373 398c11 30 25 53 42 69s41 24 70 24c16 0 28 -1 35 -3c8 -2 12 -3 11 -3v-77c-1 0 -2 0 -4 1c-1 0 -4 0 -7 1h-9h-8c-11 -1 -20 -4 -26 -11c-7 -7 -13 -18 -19 -33l-145 -366h-95l-195 481h106l137 -371z" />
    <glyph glyph-name="uni0490" unicode="&#x490;" horiz-adv-x="529" 
d="M95 709h324v150h92v-241h-318v-618h-98v709z" />
    <glyph glyph-name="uni0491" unicode="&#x491;" horiz-adv-x="413" 
d="M76 481h222v130h94v-215h-222v-396h-94v481z" />
    <glyph glyph-name="uni0492" unicode="&#x492;" horiz-adv-x="543" 
d="M107 325h-86v82h86v302h416v-91h-318v-211h142v-82h-142v-325h-98v325z" />
    <glyph glyph-name="uni0493" unicode="&#x493;" horiz-adv-x="447" 
d="M110 203h-89v76h89v202h316v-85h-222v-117h116v-76h-116v-203h-94v203z" />
    <glyph glyph-name="uni049A" unicode="&#x49a;" horiz-adv-x="673" 
d="M95 709h98v-309h64l257 309h126l-299 -349l222 -269h92v-241h-92v150h-52l-251 308h-67v-308h-98v709z" />
    <glyph glyph-name="uni049B" unicode="&#x49b;" horiz-adv-x="551" 
d="M76 481h92v-202h56l164 202h117l-198 -236l128 -160h89v-215h-90v130h-53l-155 202h-58v-202h-92v481z" />
    <glyph glyph-name="uni04A2" unicode="&#x4a2;" horiz-adv-x="785" 
d="M95 0v709h98v-303h362v303h98v-618h98v-241h-92v150h-104v315h-362v-315h-98z" />
    <glyph glyph-name="uni04A3" unicode="&#x4a3;" horiz-adv-x="597" 
d="M482 0h-94v204h-218v-204h-94v481h94v-192h218v192h94v-396h90v-215h-90v130z" />
    <glyph glyph-name="uni04AE" unicode="&#x4ae;" horiz-adv-x="650" 
d="M276 0v303l-250 406h118l184 -316l184 316h112l-250 -406v-303h-98z" />
    <glyph glyph-name="uni04AF" unicode="&#x4af;" horiz-adv-x="527" 
d="M217 0l-195 481h106l137 -371l138 371h101l-192 -481v-191h-95v191z" />
    <glyph glyph-name="uni04B0" unicode="&#x4b0;" horiz-adv-x="650" 
d="M276 0v235h-141v82h132l-241 392h118l184 -316l184 316h112l-242 -392h133v-82h-141v-235h-98z" />
    <glyph glyph-name="uni04B1" unicode="&#x4b1;" horiz-adv-x="528" 
d="M218 -76h-135v76h135l-195 481h106l137 -371l138 371h101l-192 -481h135v-76h-135v-115h-95v115z" />
    <glyph glyph-name="uni04B2" unicode="&#x4b2;" horiz-adv-x="664" 
d="M14 0l242 355l-240 354h118l179 -278l182 278h116l-241 -354l177 -264h99v-241h-92v150h-65l1 2l-178 275l-183 -277h-115z" />
    <glyph glyph-name="uni04B3" unicode="&#x4b3;" horiz-adv-x="545" 
d="M18 0l179 245l-173 236h114l118 -169l116 169h111l-171 -236l115 -160h93v-215h-90v130h-54l-124 177l-122 -177h-112z" />
    <glyph glyph-name="uni04BA" unicode="&#x4ba;" horiz-adv-x="667" 
d="M193 409c20 16 45 29 76 38s63 14 94 14c33 0 64 -4 95 -12c31 -9 58 -23 81 -42c23 -20 42 -46 56 -78c15 -33 22 -73 22 -122v-207h-98v197c0 35 -5 64 -15 87c-9 22 -22 40 -37 53s-33 21 -52 26s-39 7 -58 7c-37 0 -70 -6 -99 -17c-30 -12 -52 -26 -65 -42v-311h-98
v709h98v-300z" />
    <glyph glyph-name="uni04BB" unicode="&#x4bb;" horiz-adv-x="559" 
d="M76 0v724h94v-299c17 25 39 43 65 54s53 16 81 16c29 0 54 -5 76 -15c21 -9 39 -23 54 -40c14 -17 25 -37 32 -60s10 -48 10 -75v-305h-94v289c0 17 -2 32 -5 47c-4 15 -10 27 -19 38s-21 20 -35 26c-15 7 -32 10 -53 10c-18 0 -34 -3 -48 -10s-26 -16 -35 -27
s-16 -25 -21 -40s-8 -32 -8 -50v-283h-94z" />
    <glyph glyph-name="uni04D8" unicode="&#x4d8;" horiz-adv-x="771" 
d="M721 362c0 -62 -9 -117 -28 -164c-18 -47 -43 -87 -74 -118s-68 -55 -109 -71s-84 -24 -130 -24c-43 0 -85 8 -125 23s-75 38 -106 69c-30 31 -54 69 -73 115c-18 46 -27 100 -27 161v13c1 4 1 8 1 12h570c-1 44 -8 82 -22 114c-13 32 -31 59 -53 80s-47 36 -75 47
c-28 10 -56 15 -85 15c-63 0 -114 -14 -155 -42c-40 -29 -68 -66 -83 -113l-91 32c10 30 25 58 44 84c19 25 43 48 71 67s60 35 96 46s76 16 119 16c46 0 89 -7 129 -22c41 -15 76 -38 107 -68s55 -68 73 -113c17 -45 26 -98 26 -159zM158 289c2 -36 10 -67 23 -94
c14 -27 31 -49 51 -67c21 -17 44 -31 69 -40c26 -9 52 -13 79 -13c29 0 56 4 82 12c27 8 50 21 71 38s39 39 53 66c15 27 25 60 30 98h-458z" />
    <glyph glyph-name="uni04D9" unicode="&#x4d9;" horiz-adv-x="552" 
d="M507 239c0 -38 -6 -73 -19 -104c-12 -31 -29 -58 -50 -80c-21 -23 -45 -40 -72 -52s-56 -18 -86 -18c-37 0 -71 6 -100 19c-29 12 -53 29 -73 51s-35 49 -46 80c-10 31 -15 65 -15 102v17c1 5 1 10 2 13h363c0 21 -3 41 -10 59s-16 34 -29 47c-12 13 -27 23 -44 30
s-36 10 -56 10c-39 0 -70 -9 -93 -28s-40 -41 -49 -67l-81 28c7 21 17 41 30 60c13 18 30 34 49 47s40 24 65 32c25 7 52 11 81 11c33 0 63 -6 92 -17c28 -11 53 -28 74 -49c21 -22 37 -49 49 -81s18 -69 18 -110zM144 193c1 -17 4 -32 10 -47s15 -29 27 -40
c11 -12 25 -21 42 -28c16 -7 35 -10 56 -10c20 0 38 4 53 11c16 7 29 16 40 28c11 11 20 25 25 40c6 15 10 30 11 46h-264z" />
    <glyph glyph-name="uni04E8" unicode="&#x4e8;" horiz-adv-x="808" 
d="M760 355c0 -59 -10 -112 -30 -158c-21 -46 -48 -85 -81 -116s-71 -55 -114 -71c-43 -17 -86 -25 -131 -25s-88 8 -131 25c-43 16 -81 40 -114 71s-60 70 -80 116c-21 46 -31 99 -31 158s10 112 31 158c20 45 47 84 80 115s71 55 114 71c43 17 86 25 131 25s88 -8 131 -25
c43 -16 81 -40 114 -71s60 -70 81 -115c20 -46 30 -99 30 -158zM150 315c4 -40 14 -75 29 -105c16 -30 35 -55 58 -75s49 -35 78 -45s58 -15 89 -15s60 5 89 15s55 25 78 45s42 45 58 75c15 30 25 65 29 105h-508zM404 634c-30 0 -59 -5 -87 -14c-28 -10 -54 -24 -77 -43
s-42 -43 -58 -71c-15 -29 -26 -62 -31 -100h506c-5 38 -16 71 -32 100c-15 28 -35 52 -58 71s-48 33 -76 43c-28 9 -57 14 -87 14z" />
    <glyph glyph-name="uni04E9" unicode="&#x4e9;" horiz-adv-x="580" 
d="M290 -15c-36 0 -69 6 -99 20c-30 13 -56 30 -78 53s-39 50 -51 81s-18 65 -18 102s6 71 18 102s29 57 51 80s48 41 78 54s63 19 99 19s69 -6 99 -19s56 -31 78 -54s39 -49 51 -80s18 -65 18 -102s-6 -71 -18 -102s-29 -58 -51 -81s-48 -40 -78 -53
c-30 -14 -63 -20 -99 -20zM290 69c35 0 67 11 95 34c27 23 45 56 52 100h-294c7 -44 25 -77 53 -100c27 -23 59 -34 94 -34zM437 279c-7 44 -25 77 -52 100c-28 22 -60 33 -95 33s-67 -11 -94 -33c-28 -23 -46 -56 -53 -100h294z" />
    <glyph glyph-name="uni2007" unicode="&#x2007;" horiz-adv-x="620" 
 />
    <glyph glyph-name="uni2008" unicode="&#x2008;" horiz-adv-x="251" 
 />
    <glyph glyph-name="uni200B" unicode="&#x200b;" horiz-adv-x="0" 
 />
    <glyph glyph-name="endash" unicode="&#x2013;" horiz-adv-x="648" 
d="M68 246v82h512v-82h-512z" />
    <glyph glyph-name="emdash" unicode="&#x2014;" horiz-adv-x="1089" 
d="M68 246v82h953v-82h-953z" />
    <glyph glyph-name="quoteleft" unicode="&#x2018;" horiz-adv-x="239" 
d="M186 515c0 -17 -6 -31 -18 -42c-13 -12 -28 -18 -47 -18s-36 7 -51 21s-22 35 -22 64s4 55 13 76s20 39 33 54c13 14 27 25 43 32c15 7 30 12 44 13v-47c-22 -5 -40 -18 -53 -37c-14 -19 -21 -39 -22 -60c1 1 4 3 7 4s8 1 13 1c17 0 31 -5 43 -16c11 -11 17 -26 17 -45z
" />
    <glyph glyph-name="quoteright" unicode="&#x2019;" horiz-adv-x="245" 
d="M59 656c0 17 6 31 19 43c13 13 30 19 49 19c20 0 38 -7 53 -22s23 -37 23 -66c0 -31 -5 -58 -14 -80s-20 -40 -34 -55c-13 -15 -28 -26 -44 -33s-31 -12 -46 -14v48c23 5 41 18 55 37c14 20 21 41 22 64c-1 -1 -4 -2 -7 -3s-8 -2 -13 -2c-17 0 -32 6 -44 17
c-13 11 -19 27 -19 47z" />
    <glyph glyph-name="quotesinglbase" unicode="&#x201a;" horiz-adv-x="260" 
d="M58 61c0 17 6 31 19 43c13 13 30 19 49 19c20 0 38 -7 53 -22s23 -37 23 -66c0 -31 -5 -58 -14 -80s-20 -40 -34 -55c-13 -15 -28 -26 -44 -33s-31 -12 -46 -14v48c23 5 41 18 55 37c14 20 21 41 22 64c-1 -1 -4 -3 -7 -4s-8 -1 -13 -1c-17 0 -32 6 -44 17
c-13 11 -19 27 -19 47z" />
    <glyph glyph-name="quotedblleft" unicode="&#x201c;" horiz-adv-x="409" 
d="M357 520c0 -17 -6 -31 -18 -42c-13 -12 -28 -18 -47 -18s-36 7 -51 21s-22 35 -22 64s4 55 13 76s20 39 33 54c13 14 27 25 43 32c15 7 30 12 44 13v-47c-22 -5 -40 -18 -53 -37c-14 -19 -21 -39 -22 -60c1 1 4 3 7 4s8 1 13 1c17 0 31 -5 43 -16c11 -11 17 -26 17 -45z
M186 520c0 -17 -6 -31 -18 -42c-13 -12 -28 -18 -47 -18s-36 7 -51 21s-22 35 -22 64s4 55 13 76s20 39 33 54c13 14 27 25 43 32c15 7 30 12 44 13v-47c-22 -5 -40 -18 -53 -37c-14 -19 -21 -39 -22 -60c1 1 4 3 7 4s8 1 13 1c17 0 31 -5 43 -16c11 -11 17 -26 17 -45z" />
    <glyph glyph-name="quotedblright" unicode="&#x201d;" horiz-adv-x="411" 
d="M60 655c0 17 6 31 19 42c12 12 27 18 46 18s36 -7 51 -21s22 -35 22 -64s-4 -55 -13 -76s-19 -39 -32 -53s-28 -25 -43 -32c-16 -7 -31 -12 -45 -14v47c11 3 21 7 30 13c9 7 17 14 23 23c7 9 12 18 16 29s6 21 6 32c-1 -1 -4 -2 -7 -3s-8 -2 -13 -2c-17 0 -31 5 -42 16
c-12 11 -18 26 -18 45zM231 655c0 17 6 31 19 42c12 12 27 18 46 18s36 -7 51 -21s22 -35 22 -64s-4 -55 -13 -76s-19 -39 -32 -53s-28 -25 -43 -32c-16 -7 -31 -12 -45 -14v47c11 3 21 7 30 13c9 7 17 14 23 23c7 9 12 18 16 29s6 21 6 32c-1 -1 -4 -3 -7 -4s-8 -1 -13 -1
c-17 0 -31 5 -42 16c-12 11 -18 26 -18 45z" />
    <glyph glyph-name="quotedblbase" unicode="&#x201e;" horiz-adv-x="424" 
d="M58 58c0 17 6 31 19 42c12 12 27 18 46 18s36 -7 51 -21s22 -35 22 -64s-4 -55 -13 -76s-19 -39 -32 -53s-28 -25 -43 -32c-16 -7 -31 -12 -45 -14v47c11 3 21 7 30 13c9 7 17 14 23 23c7 9 12 18 16 29s6 21 6 32c-1 -1 -4 -3 -7 -4s-8 -1 -13 -1c-17 0 -31 5 -42 16
c-12 11 -18 26 -18 45zM229 58c0 17 6 31 19 42c12 12 27 18 46 18s36 -7 51 -21s22 -35 22 -64s-4 -55 -13 -76s-19 -39 -32 -53s-28 -25 -43 -32c-16 -7 -31 -12 -45 -14v47c11 3 21 7 30 13c9 7 17 14 23 23c7 9 12 18 16 29s6 21 6 32c-1 -1 -4 -3 -7 -4s-8 -1 -13 -1
c-17 0 -31 5 -42 16c-12 11 -18 26 -18 45z" />
    <glyph glyph-name="dagger" unicode="&#x2020;" horiz-adv-x="414" 
d="M166 162v317h-127v81h127v149h82v-149h127v-81h-127v-317h-82z" />
    <glyph glyph-name="daggerdbl" unicode="&#x2021;" horiz-adv-x="440" 
d="M179 230v249h-127v81h127v149h82v-149h127v-81h-127v-249h127v-81h-127v-149h-82v149h-127v81h127z" />
    <glyph glyph-name="bullet" unicode="&#x2022;" horiz-adv-x="558" 
d="M72 289c0 29 6 56 17 81s25 47 44 66s41 34 66 45s51 16 80 16s56 -5 81 -16s46 -26 65 -45s34 -41 45 -66s16 -52 16 -81c0 -28 -5 -55 -16 -80s-26 -47 -45 -66s-40 -33 -65 -44s-52 -17 -81 -17s-55 6 -80 17s-47 25 -66 44s-33 41 -44 66s-17 52 -17 80z" />
    <glyph glyph-name="ellipsis" unicode="&#x2026;" horiz-adv-x="866" 
d="M809 59c0 -18 -6 -33 -18 -45c-13 -13 -28 -19 -46 -19s-33 6 -46 19c-13 12 -19 27 -19 45s6 33 19 46s28 19 46 19s33 -6 46 -19c12 -13 18 -28 18 -46zM497 59c0 -18 -6 -33 -18 -45c-13 -13 -28 -19 -46 -19s-33 6 -46 19c-13 12 -19 27 -19 45s6 33 19 46
s28 19 46 19s33 -6 46 -19c12 -13 18 -28 18 -46zM186 59c0 -18 -6 -33 -18 -45c-13 -13 -28 -19 -46 -19s-33 6 -46 19c-13 12 -19 27 -19 45s6 33 19 46s28 19 46 19s33 -6 46 -19c12 -13 18 -28 18 -46z" />
    <glyph glyph-name="perthousand" unicode="&#x2030;" horiz-adv-x="1069" 
d="M194 403c-21 0 -42 4 -61 12s-36 19 -51 34c-15 14 -26 31 -35 50s-13 40 -13 62s4 42 13 61s20 36 35 50c15 15 32 26 51 34s40 12 61 12s42 -4 62 -12c19 -8 36 -19 51 -34c15 -14 26 -31 35 -50s13 -39 13 -61s-4 -43 -13 -62s-20 -36 -35 -50
c-15 -15 -32 -26 -51 -34c-20 -8 -41 -12 -62 -12zM132 0l466 709h91l-465 -709h-92zM117 561c0 -23 8 -42 23 -57s33 -22 54 -22c22 0 40 7 55 22s22 34 22 57s-7 41 -22 56s-33 22 -55 22c-21 0 -39 -7 -54 -22s-23 -33 -23 -56zM876 -9c-25 0 -48 5 -69 16
c-21 10 -40 24 -55 42c-15 -18 -34 -32 -55 -42c-21 -11 -44 -16 -69 -16c-21 0 -42 4 -61 12s-36 19 -51 34c-15 14 -26 31 -35 50s-13 40 -13 62s4 42 13 61s20 36 35 50c15 15 32 26 51 34s40 12 61 12c25 0 48 -5 69 -16c21 -10 40 -24 55 -42c15 18 34 32 55 42
c21 11 44 16 69 16c21 0 42 -4 62 -12c19 -8 36 -19 51 -34c15 -14 26 -31 35 -50s13 -39 13 -61s-4 -43 -13 -62s-20 -36 -35 -50c-15 -15 -32 -26 -51 -34c-20 -8 -41 -12 -62 -12zM799 149c0 -23 8 -42 23 -57s33 -22 54 -22c22 0 40 7 55 22s22 34 22 57s-7 41 -22 56
s-33 22 -55 22c-21 0 -39 -7 -54 -22s-23 -33 -23 -56zM551 149c0 -23 8 -42 23 -57s33 -22 54 -22c22 0 40 7 55 22s22 34 22 57s-7 41 -22 56s-33 22 -55 22c-21 0 -39 -7 -54 -22s-23 -33 -23 -56z" />
    <glyph glyph-name="guilsinglleft" unicode="&#x2039;" horiz-adv-x="317" 
d="M175 99l-133 191l133 191h93l-131 -191l131 -191h-93z" />
    <glyph glyph-name="guilsinglright" unicode="&#x203a;" horiz-adv-x="317" 
d="M49 99l131 191l-131 191h93l133 -191l-133 -191h-93z" />
    <glyph glyph-name="uni2042" unicode="&#x2042;" horiz-adv-x="831" 
d="M451 588l111 38l20 -65l-111 -36l74 -95l-55 -41l-75 98l-70 -97l-55 41l71 94l-112 36l21 65l110 -38v121h71v-121zM235 191l111 38l20 -65l-111 -36l74 -95l-55 -41l-75 98l-70 -97l-55 41l71 94l-112 36l21 65l110 -38v121h71v-121zM667 191l111 38l20 -65l-111 -36
l74 -95l-55 -41l-75 98l-70 -97l-55 41l71 94l-112 36l21 65l110 -38v121h71v-121z" />
    <glyph glyph-name="fraction" unicode="&#x2044;" horiz-adv-x="149" 
d="M-199 0l466 709h83l-465 -709h-84z" />
    <glyph glyph-name="uni2051" unicode="&#x2051;" horiz-adv-x="444" 
d="M257 588l111 38l20 -65l-111 -36l74 -95l-55 -41l-75 98l-70 -97l-55 41l71 94l-112 36l21 65l110 -38v121h71v-121zM257 191l111 38l20 -65l-111 -36l74 -95l-55 -41l-75 98l-70 -97l-55 41l71 94l-112 36l21 65l110 -38v121h71v-121z" />
    <glyph glyph-name="uni2070" unicode="&#x2070;" horiz-adv-x="382" 
d="M116 526c0 -13 1 -27 3 -42c1 -15 5 -28 10 -40s13 -22 23 -29c9 -8 22 -12 39 -12s30 4 40 12c9 7 17 17 22 29s9 25 11 40c1 15 2 29 2 42s-1 27 -2 42c-2 15 -6 28 -11 40s-13 22 -22 30c-10 8 -23 12 -40 12s-30 -4 -39 -11c-10 -8 -18 -18 -23 -30s-9 -25 -10 -40
c-2 -15 -3 -29 -3 -43zM38 526c0 24 3 48 8 71s14 43 27 61c11 15 26 29 44 41c19 11 43 17 74 17s55 -6 73 -17c19 -12 34 -26 45 -41c13 -18 22 -38 27 -61s8 -47 8 -71s-3 -47 -8 -70s-14 -43 -27 -61c-11 -15 -26 -29 -45 -40c-18 -12 -42 -18 -73 -18s-55 6 -74 18
c-18 11 -33 25 -44 40c-13 18 -22 38 -27 61s-8 46 -8 70z" />
    <glyph glyph-name="uni2074" unicode="&#x2074;" horiz-adv-x="383" 
d="M28 489l177 220h85v-228h64v-65h-64v-72h-77v72h-185v73zM213 620l-111 -139h111v139z" />
    <glyph glyph-name="uni2075" unicode="&#x2075;" horiz-adv-x="347" 
d="M95 459c5 -17 13 -31 26 -41c13 -11 29 -16 47 -16c19 0 35 5 48 16s19 26 19 45c0 21 -6 36 -19 47c-13 10 -29 15 -48 15c-13 0 -25 -2 -36 -7s-20 -12 -28 -20l-64 24l49 187h204v-66h-154l-23 -86c9 10 20 17 33 22c13 4 27 6 40 6c37 0 67 -11 90 -32s34 -50 34 -87
c0 -18 -3 -35 -10 -50c-6 -16 -15 -30 -27 -41c-13 -12 -28 -21 -46 -28s-39 -10 -62 -10c-18 0 -35 3 -50 8c-16 5 -30 12 -42 21c-12 8 -22 18 -30 29s-14 22 -17 34z" />
    <glyph glyph-name="uni2076" unicode="&#x2076;" horiz-adv-x="368" 
d="M299 641c-19 9 -40 13 -62 13c-32 0 -59 -9 -82 -27c-22 -17 -36 -43 -41 -78c9 13 21 23 38 31s34 12 53 12c39 0 70 -11 94 -33s36 -53 36 -93c0 -19 -4 -37 -11 -53c-8 -15 -18 -29 -31 -40s-29 -20 -47 -27c-18 -6 -37 -9 -58 -9c-19 0 -37 3 -55 10s-34 17 -48 31
c-15 13 -26 31 -35 52s-13 45 -13 74c0 33 5 62 15 88c9 26 23 48 40 67s38 33 62 43c23 10 49 15 77 15c17 0 33 -2 48 -5s28 -8 38 -14zM120 465c0 -21 7 -36 21 -47c15 -11 31 -16 48 -16s33 5 47 16s21 26 21 47s-7 36 -21 47s-30 16 -47 16s-33 -5 -48 -16
c-14 -11 -21 -26 -21 -47z" />
    <glyph glyph-name="uni2077" unicode="&#x2077;" horiz-adv-x="343" 
d="M322 640c-9 -6 -21 -16 -36 -30s-31 -33 -47 -57c-16 -23 -31 -52 -44 -87c-13 -34 -22 -75 -27 -122h-82c5 50 14 94 29 131s30 68 46 93c19 29 39 54 61 75h-197v66h297v-69z" />
    <glyph glyph-name="uni2078" unicode="&#x2078;" horiz-adv-x="364" 
d="M182 561c17 0 31 4 42 13c10 9 15 20 15 35c0 13 -5 24 -15 33c-10 8 -24 12 -42 12s-32 -4 -42 -12c-10 -9 -15 -20 -15 -33c0 -15 5 -26 16 -35c10 -9 24 -13 41 -13zM182 401c22 0 39 5 50 14s17 21 17 36s-6 27 -17 36c-12 9 -29 14 -50 14s-38 -5 -49 -14
c-12 -9 -18 -21 -18 -36s6 -27 17 -36s28 -14 50 -14zM182 337c-47 0 -82 10 -107 31s-38 46 -38 77c0 18 6 35 18 51c12 15 29 27 50 35c-18 7 -32 18 -41 33c-10 15 -15 30 -15 47c0 31 13 57 38 76s56 29 95 29s71 -10 96 -29s37 -45 37 -76c0 -17 -5 -32 -14 -47
c-10 -15 -24 -26 -42 -33c21 -8 38 -20 50 -35c12 -16 18 -33 18 -51c0 -31 -12 -56 -37 -77s-61 -31 -108 -31z" />
    <glyph glyph-name="uni2079" unicode="&#x2079;" horiz-adv-x="367" 
d="M69 415c19 -9 40 -13 62 -13c32 0 60 8 83 25c23 16 36 42 40 78c-9 -13 -21 -23 -38 -31s-34 -12 -53 -12c-38 0 -69 11 -94 34c-24 22 -36 53 -36 92c0 19 4 36 11 52c8 16 18 30 31 41s29 20 47 27c18 6 37 9 58 9c19 0 37 -3 55 -10c17 -7 33 -17 47 -30
c14 -14 25 -31 34 -52s13 -46 13 -75c0 -35 -5 -65 -14 -91c-10 -27 -23 -49 -40 -67s-38 -32 -61 -41s-49 -14 -77 -14c-17 0 -33 2 -48 5s-28 8 -38 14zM246 588c0 21 -7 37 -21 48s-30 16 -48 16s-34 -5 -47 -16c-14 -11 -21 -27 -21 -48s7 -36 21 -47
c13 -11 29 -17 47 -17s34 6 48 17s21 26 21 47z" />
    <glyph glyph-name="uni2080" unicode="&#x2080;" horiz-adv-x="386" 
d="M118 110c0 -13 1 -27 3 -42c1 -15 5 -28 10 -40s13 -22 23 -30c9 -7 22 -11 39 -11s30 4 40 11c9 8 17 18 22 30s9 25 11 40c1 15 2 29 2 42s-1 27 -2 42c-2 15 -6 28 -11 40s-13 22 -22 30c-10 8 -23 12 -40 12s-30 -4 -39 -11c-10 -8 -18 -18 -23 -30s-9 -25 -10 -40
c-2 -15 -3 -29 -3 -43zM40 110c0 24 3 48 8 71s14 43 27 61c11 15 26 29 44 41c19 11 43 17 74 17s55 -6 73 -17c19 -12 34 -26 45 -41c13 -18 22 -38 27 -61s8 -47 8 -71s-3 -47 -8 -70s-14 -43 -27 -61c-11 -15 -26 -29 -45 -41c-18 -11 -42 -17 -73 -17s-55 6 -74 17
c-18 12 -33 26 -44 41c-13 18 -22 38 -27 61s-8 46 -8 70z" />
    <glyph glyph-name="uni2081" unicode="&#x2081;" horiz-adv-x="241" 
d="M112 -72v245h-86v52c25 1 45 8 62 21s27 28 30 47h71v-365h-77z" />
    <glyph glyph-name="uni2082" unicode="&#x2082;" horiz-adv-x="352" 
d="M47 152c-1 5 -2 11 -2 16c-1 6 -1 11 -1 15c0 16 3 31 9 45s15 26 26 37s25 19 41 25c17 7 35 10 56 10s39 -3 55 -10c16 -6 30 -14 41 -25c11 -10 20 -22 26 -36s9 -29 9 -44c0 -23 -6 -44 -19 -63c-13 -18 -30 -34 -51 -47l-72 -45c-7 -5 -14 -11 -20 -17
s-10 -13 -11 -20h175v-65h-268v13c0 30 7 57 20 82c13 24 35 45 65 63l60 37c29 17 43 38 43 63c0 13 -5 25 -14 35s-23 15 -40 15s-31 -5 -41 -16c-11 -11 -16 -25 -16 -42c0 -2 0 -6 1 -11c0 -5 1 -10 2 -15h-74z" />
    <glyph glyph-name="uni2083" unicode="&#x2083;" horiz-adv-x="365" 
d="M121 150l95 79h-171v65h271v-63l-100 -80c14 -1 28 -4 41 -9s24 -12 34 -21s18 -21 24 -34s9 -28 9 -45s-3 -32 -10 -47s-17 -27 -30 -38s-28 -20 -45 -26c-18 -7 -38 -10 -60 -10s-41 3 -58 9s-31 14 -43 23c-13 9 -23 20 -30 33c-8 12 -13 25 -16 38l67 27
c3 -19 12 -35 27 -46c14 -12 31 -18 52 -18s37 5 50 16c12 11 18 24 18 39c0 21 -7 35 -21 44c-15 8 -30 12 -47 12c-5 0 -10 0 -15 -1s-10 -2 -13 -3z" />
    <glyph glyph-name="uni2084" unicode="&#x2084;" horiz-adv-x="385" 
d="M29 73l177 220h85v-228h64v-65h-64v-72h-77v72h-185v73zM214 204l-111 -139h111v139z" />
    <glyph glyph-name="uni2085" unicode="&#x2085;" horiz-adv-x="349" 
d="M96 43c5 -17 13 -31 26 -41c13 -11 29 -16 47 -16c19 0 35 5 48 16s19 26 19 45c0 21 -6 36 -19 47c-13 10 -29 15 -48 15c-13 0 -25 -2 -36 -7s-20 -12 -28 -20l-64 24l49 187h204v-66h-154l-23 -86c9 10 20 17 33 22c13 4 27 6 40 6c37 0 67 -11 90 -32s34 -50 34 -87
c0 -18 -3 -35 -10 -50c-6 -16 -15 -30 -27 -41c-13 -12 -28 -21 -46 -28s-39 -10 -62 -10c-18 0 -35 3 -50 8c-16 5 -30 12 -42 20c-12 9 -22 18 -30 29s-14 23 -17 35z" />
    <glyph glyph-name="uni2086" unicode="&#x2086;" horiz-adv-x="370" 
d="M300 225c-19 9 -40 13 -62 13c-32 0 -59 -9 -82 -27c-22 -17 -36 -43 -41 -78c9 13 21 23 38 31s34 12 53 12c39 0 70 -11 94 -33s36 -53 36 -93c0 -19 -4 -37 -11 -53c-8 -15 -18 -29 -31 -40s-29 -20 -47 -27c-18 -6 -37 -9 -58 -9c-19 0 -37 3 -55 10s-34 17 -48 30
c-15 14 -26 31 -35 53c-9 21 -13 45 -13 74c0 33 5 62 15 88c9 26 23 48 40 67s38 33 62 43c23 10 49 15 77 15c17 0 33 -2 48 -5s28 -8 38 -14zM121 49c0 -21 7 -36 21 -47c15 -11 31 -16 48 -16s33 5 47 16s21 26 21 47s-7 36 -21 47s-30 16 -47 16s-33 -5 -48 -16
c-14 -11 -21 -26 -21 -47z" />
    <glyph glyph-name="uni2087" unicode="&#x2087;" horiz-adv-x="344" 
d="M323 224c-9 -6 -21 -16 -36 -30s-31 -33 -47 -57c-16 -23 -31 -52 -44 -87c-13 -34 -22 -75 -27 -122h-82c5 50 14 94 29 131s30 68 46 93c19 29 39 54 61 75h-197v66h297v-69z" />
    <glyph glyph-name="uni2088" unicode="&#x2088;" horiz-adv-x="366" 
d="M183 145c17 0 31 4 42 13c10 9 15 20 15 35c0 13 -5 24 -15 33c-10 8 -24 12 -42 12s-32 -4 -42 -12c-10 -9 -15 -20 -15 -33c0 -15 5 -26 16 -35c10 -9 24 -13 41 -13zM183 -15c22 0 39 4 50 13c11 10 17 22 17 37s-6 27 -17 36c-12 9 -29 14 -50 14s-38 -5 -49 -14
c-12 -9 -18 -21 -18 -36s6 -27 17 -37c11 -9 28 -13 50 -13zM183 -79c-47 0 -82 10 -107 31s-38 46 -38 77c0 18 6 35 18 51c12 15 29 27 50 35c-18 7 -32 18 -41 33c-10 15 -15 30 -15 47c0 31 13 57 38 76s56 29 95 29s71 -10 96 -29s37 -45 37 -76c0 -17 -5 -32 -14 -47
c-10 -15 -24 -26 -42 -33c21 -8 38 -20 50 -35c12 -16 18 -33 18 -51c0 -31 -12 -56 -37 -77s-61 -31 -108 -31z" />
    <glyph glyph-name="uni2089" unicode="&#x2089;" horiz-adv-x="369" 
d="M70 -1c19 -9 40 -13 62 -13c32 0 60 8 83 25c23 16 36 42 40 78c-9 -13 -21 -23 -38 -31s-34 -12 -53 -12c-38 0 -69 11 -94 34c-24 22 -36 53 -36 92c0 19 4 36 11 52c8 16 18 30 31 41s29 20 47 27c18 6 37 9 58 9c19 0 37 -3 55 -10c17 -7 33 -17 47 -30
c14 -14 25 -31 34 -52s13 -46 13 -75c0 -35 -5 -65 -14 -91c-10 -27 -23 -49 -40 -67s-38 -32 -61 -41s-49 -14 -77 -14c-17 0 -33 2 -48 5s-28 8 -38 14zM247 172c0 21 -7 37 -21 48s-30 16 -48 16s-34 -5 -47 -16c-14 -11 -21 -27 -21 -48s7 -36 21 -47
c13 -11 29 -17 47 -17s34 6 48 17s21 26 21 47z" />
    <glyph glyph-name="Euro" unicode="&#x20ac;" horiz-adv-x="735" 
d="M225 388c-1 -6 -1 -11 -2 -16v-18v-20c1 -7 1 -13 2 -18h274l-34 -75h-222c9 -29 21 -53 38 -74s36 -38 58 -51c22 -14 46 -24 71 -31s51 -10 76 -10c35 0 68 6 97 17s53 24 71 41l46 -72c-23 -20 -53 -37 -90 -52s-78 -23 -123 -23c-40 0 -79 6 -116 17s-70 27 -101 48
s-57 48 -79 80s-38 69 -49 110h-98v75h84c-1 8 -2 14 -2 19v20v16c0 4 0 10 1 17h-83v75h97c11 42 27 79 50 112c23 32 51 59 82 81c31 21 66 38 103 49c38 11 77 17 117 17c39 0 74 -5 105 -14s56 -21 77 -36l-37 -76c-37 26 -85 39 -144 39c-27 0 -54 -3 -80 -10
c-27 -7 -51 -17 -73 -31c-23 -14 -43 -32 -60 -53c-18 -22 -31 -48 -40 -78h324l-33 -75h-307z" />
    <glyph glyph-name="uni20B4" unicode="&#x20b4;" horiz-adv-x="642" 
d="M326 -15c-37 0 -70 5 -100 15c-29 10 -54 24 -75 41s-37 37 -48 60s-16 47 -16 72c0 17 3 34 8 50c6 16 15 31 26 44h-68v72h531v-72h-366c-21 -21 -31 -47 -31 -80c0 -15 3 -30 8 -43c6 -14 15 -26 26 -36c12 -11 26 -19 43 -25s37 -9 60 -9c26 0 48 4 67 13
c19 8 35 19 48 33c13 13 23 29 30 47s12 37 14 57l94 -28c-3 -25 -11 -50 -22 -75s-26 -48 -46 -68s-45 -36 -76 -49c-30 -13 -66 -19 -107 -19zM53 469h378c11 15 17 34 17 56c0 32 -10 59 -30 81c-20 21 -49 32 -87 32c-25 0 -46 -4 -64 -11c-18 -8 -33 -18 -45 -29
c-12 -12 -21 -25 -28 -39s-11 -27 -13 -40l-88 29c4 19 12 39 23 60c12 21 28 40 48 57s44 32 72 43s60 16 97 16c33 0 62 -4 89 -13s49 -22 68 -39c18 -17 32 -36 42 -59s15 -48 15 -76c0 -13 -1 -25 -3 -36c-2 -12 -6 -23 -11 -32h51v-72h-531v72z" />
    <glyph glyph-name="uni20B8" unicode="&#x20b8;" horiz-adv-x="656" 
d="M279 468h-237v88h572v-88h-237v-468h-98v468zM42 709h572v-88h-572v88z" />
    <glyph glyph-name="uni20BD" unicode="&#x20bd;" horiz-adv-x="663" 
d="M152 148h-96v88h96v64h-96v88h96v321h258c33 0 63 -5 90 -15c27 -11 50 -25 69 -44s33 -40 44 -65s16 -52 16 -81s-5 -56 -16 -81s-25 -47 -44 -65s-42 -32 -69 -42c-27 -11 -57 -16 -90 -16h-160v-64h196v-88h-196v-148h-98v148zM392 388c43 0 76 10 101 31
c24 21 36 49 36 84c0 36 -12 65 -36 86c-25 21 -58 32 -101 32h-142v-233h142z" />
    <glyph glyph-name="uni2113" unicode="&#x2113;" horiz-adv-x="403" 
d="M356 20c-11 -7 -24 -13 -40 -18c-15 -5 -34 -7 -56 -7c-44 0 -80 12 -107 37s-40 60 -40 106v127c-11 -5 -23 -9 -35 -13c-11 -4 -23 -7 -35 -10v82c11 3 22 7 34 12c11 5 23 10 36 15v213c0 51 13 91 38 118s56 40 93 40c42 0 74 -13 96 -39s33 -61 33 -105
c0 -29 -4 -56 -13 -82c-9 -27 -21 -52 -36 -75c-16 -24 -35 -46 -56 -66s-45 -38 -70 -54v-141c0 -29 7 -50 22 -63c14 -14 32 -21 54 -21c17 0 33 2 46 6s25 9 36 15v-77zM198 401c25 21 47 47 64 77s26 64 26 103c0 19 -3 34 -10 45s-18 17 -32 17s-25 -6 -34 -17
s-14 -31 -14 -58v-167z" />
    <glyph glyph-name="uni2116" unicode="&#x2116;" horiz-adv-x="1147" 
d="M103 0v709h131l344 -544v544h98v-709h-103l-372 578v-578h-98zM925 372c-25 0 -49 4 -70 13c-21 8 -40 20 -55 35c-16 15 -28 34 -37 55c-9 22 -14 46 -14 73s5 51 14 73c9 21 21 40 37 55s35 27 56 36c21 8 44 12 69 12s48 -4 69 -12c21 -9 40 -21 56 -36
c15 -15 28 -34 37 -55c9 -22 13 -46 13 -73s-4 -51 -13 -73c-9 -21 -22 -40 -37 -55c-16 -15 -35 -27 -56 -35c-21 -9 -44 -13 -69 -13zM768 311h315v-81h-315v81zM925 447c27 0 50 9 68 28s27 43 27 73s-9 54 -27 73s-41 28 -68 28s-50 -9 -68 -28c-19 -19 -28 -43 -28 -73
s9 -54 28 -73c18 -19 41 -28 68 -28z" />
    <glyph glyph-name="trademark" unicode="&#x2122;" horiz-adv-x="879" 
d="M223 641v-297h-76v297h-112v68h300v-68h-112zM732 344v233l-101 -233h-59l-98 230v-230h-76v365h99l107 -254l107 254h93v-365h-72z" />
    <glyph glyph-name="Omega" unicode="&#x2126;" horiz-adv-x="822" 
d="M411 636c-31 0 -61 -5 -91 -16c-31 -11 -58 -26 -82 -47s-43 -47 -58 -78s-22 -66 -22 -107c0 -36 6 -69 19 -98s29 -55 49 -77c20 -21 43 -39 68 -53c25 -13 49 -23 74 -28v-132h-305v88h202c-25 9 -50 23 -75 40c-25 18 -48 40 -67 65c-19 26 -35 55 -47 87
c-12 33 -18 68 -18 107c0 53 10 100 30 142c19 42 45 77 78 106c32 29 69 51 112 66s87 23 133 23s90 -8 133 -23s80 -37 113 -66c32 -29 58 -64 78 -106c19 -42 29 -89 29 -142c0 -39 -6 -74 -18 -107c-12 -32 -28 -61 -47 -87c-20 -25 -42 -47 -67 -65
c-25 -17 -50 -31 -76 -40h203v-88h-305v132c25 5 50 15 75 28c25 14 47 32 67 53c20 22 36 48 49 77s19 62 19 98c0 41 -7 76 -22 107s-34 57 -58 78s-51 36 -81 47c-31 11 -61 16 -92 16z" />
    <glyph glyph-name="arrowleft" unicode="&#x2190;" horiz-adv-x="1039" 
d="M37 287l252 212v-171h696v-83h-696v-169z" />
    <glyph glyph-name="arrowup" unicode="&#x2191;" horiz-adv-x="455" 
d="M427 555h-158v-703h-83v703h-158l200 245z" />
    <glyph glyph-name="arrowright" unicode="&#x2192;" horiz-adv-x="1039" 
d="M750 76v169h-696v83h696v171l252 -212z" />
    <glyph glyph-name="arrowdown" unicode="&#x2193;" horiz-adv-x="477" 
d="M238 -162l-211 252h169v696h83v-696h171z" />
    <glyph glyph-name="uni2196" unicode="&#x2196;" horiz-adv-x="801" 
d="M348 709l-116 -117l543 -542l-59 -58l-543 541l-117 -118v294h292z" />
    <glyph glyph-name="uni2197" unicode="&#x2197;" horiz-adv-x="801" 
d="M745 709v-294l-118 118l-542 -541l-59 58l543 542l-116 117h292z" />
    <glyph glyph-name="uni2198" unicode="&#x2198;" horiz-adv-x="801" 
d="M454 0l116 117l-543 542l59 58l542 -542l118 119v-294h-292z" />
    <glyph glyph-name="uni2199" unicode="&#x2199;" horiz-adv-x="801" 
d="M55 0v294l117 -119l543 542l59 -58l-543 -542l116 -117h-292z" />
    <glyph glyph-name="uni21A9" unicode="&#x21a9;" horiz-adv-x="884" 
d="M430 663h192c30 0 58 -5 85 -16c26 -11 49 -25 69 -44c19 -19 35 -41 46 -67c11 -25 17 -53 17 -82c0 -31 -6 -60 -18 -86c-12 -25 -28 -47 -49 -66c-21 -18 -44 -32 -71 -42s-54 -15 -83 -15h-367v-144l-221 185l221 186v-144h362c19 0 37 3 54 8c17 6 33 14 46 25
s24 24 32 39c8 16 12 34 12 54s-4 38 -11 53c-8 16 -19 29 -32 40s-29 19 -47 25c-18 5 -37 8 -57 8h-180v83z" />
    <glyph glyph-name="uni21B0" unicode="&#x21b0;" horiz-adv-x="742" 
d="M27 538l221 186v-144h414v-580h-83v497h-331v-144z" />
    <glyph glyph-name="uni21B1" unicode="&#x21b1;" horiz-adv-x="792" 
d="M80 0v580h464v144l221 -186l-221 -185v144h-381v-497h-83z" />
    <glyph glyph-name="uni21B2" unicode="&#x21b2;" horiz-adv-x="794" 
d="M714 709v-580h-464v-144l-221 186l221 185v-144h381v497h83z" />
    <glyph glyph-name="uni21B3" unicode="&#x21b3;" horiz-adv-x="794" 
d="M765 171l-221 -186v144h-464v580h83v-497h381v144z" />
    <glyph glyph-name="uni21B4" unicode="&#x21b4;" horiz-adv-x="786" 
d="M32 709h580v-504h144l-186 -221l-185 221h144v421h-497v83z" />
    <glyph glyph-name="uni21B5" unicode="&#x21b5;" horiz-adv-x="1060" 
d="M27 355h131c0 51 10 99 30 144c19 45 46 84 79 117s72 60 117 79s92 29 143 29c33 0 65 -4 96 -12c30 -8 59 -20 86 -35l-37 -74c-21 12 -44 21 -68 28c-25 7 -50 10 -76 10c-40 0 -77 -7 -112 -22s-65 -36 -91 -61c-26 -26 -46 -56 -61 -91s-22 -72 -22 -112h143
l-179 -210zM896 354c0 -51 -10 -99 -29 -144c-20 -45 -47 -84 -80 -117s-72 -60 -117 -79s-92 -29 -143 -29c-33 0 -65 4 -95 12c-31 8 -60 20 -87 35l37 74c21 -12 44 -21 69 -28c24 -7 49 -10 75 -10c40 0 77 8 112 23s65 35 91 61c26 25 46 55 61 90s22 72 22 112h-138
l179 210l179 -210h-136z" />
    <glyph glyph-name="uni21C6" unicode="&#x21c6;" horiz-adv-x="1082" 
d="M43 539l221 186v-144h755v-83h-755v-144zM818 -15v144h-755v83h755v144l221 -186z" />
    <glyph glyph-name="partialdiff" unicode="&#x2202;" horiz-adv-x="614" 
d="M246 638c-16 0 -37 -2 -62 -6c-26 -4 -52 -12 -78 -25l-32 74c28 16 58 27 90 33c32 7 62 10 90 10c30 0 63 -5 99 -15c35 -10 69 -29 100 -57c31 -27 56 -65 77 -114s31 -112 31 -190c0 -56 -6 -106 -17 -151c-12 -45 -30 -83 -53 -114s-52 -56 -86 -73
c-35 -17 -74 -25 -119 -25c-31 0 -60 5 -89 14c-29 10 -55 25 -77 44c-23 20 -41 45 -54 75c-14 29 -21 64 -21 103c0 36 7 68 20 97c13 28 30 52 53 72s49 35 79 46c29 11 61 16 94 16c40 0 75 -6 104 -17s52 -25 67 -40c-3 43 -11 80 -23 111s-27 56 -46 75s-40 34 -65 43
s-52 14 -82 14zM305 369c-27 0 -51 -4 -72 -12c-20 -9 -37 -20 -51 -34c-13 -14 -24 -30 -31 -49s-10 -38 -10 -59c0 -23 4 -44 12 -62c9 -17 20 -32 34 -44s30 -21 48 -28c18 -6 37 -9 56 -9c31 0 58 7 79 20c22 14 40 32 53 53c14 21 24 45 30 72c7 27 10 53 10 79
c-17 24 -40 42 -69 54c-28 13 -58 19 -89 19z" />
    <glyph glyph-name="Delta" unicode="&#x2206;" horiz-adv-x="718" 
d="M306 709h105l279 -709h-662zM167 90h383l-193 507z" />
    <glyph glyph-name="product" unicode="&#x220f;" horiz-adv-x="659" 
d="M488 0v622h-314v-622h-98v709h507v-709h-95z" />
    <glyph glyph-name="summation" unicode="&#x2211;" horiz-adv-x="600" 
d="M49 86l273 271l-273 266v86h497v-90h-365l269 -262l-278 -267h374v-90h-497v86z" />
    <glyph glyph-name="minus" unicode="&#x2212;" horiz-adv-x="561" 
d="M69 309v79h423v-79h-423z" />
    <glyph glyph-name="uni2215" unicode="&#x2215;" horiz-adv-x="397" 
d="M82 0h-91l313 648h91z" />
    <glyph glyph-name="uni2219" unicode="&#x2219;" horiz-adv-x="267" 
d="M64 284c0 19 7 36 20 50c13 13 30 20 49 20s36 -7 49 -20c14 -14 21 -31 21 -50s-7 -36 -21 -49c-13 -13 -30 -20 -49 -20s-36 7 -49 20s-20 30 -20 49z" />
    <glyph glyph-name="radical" unicode="&#x221a;" horiz-adv-x="689" 
d="M561 780l-266 -780h-91l-189 529h108l127 -374l235 713h195v-88h-119z" />
    <glyph glyph-name="infinity" unicode="&#x221e;" horiz-adv-x="807" 
d="M403 289c-31 -34 -60 -60 -88 -78c-28 -19 -59 -28 -92 -28c-25 0 -49 4 -70 13c-21 8 -40 20 -55 35s-27 32 -36 53s-13 43 -13 67s4 46 13 67s21 39 36 54s34 26 55 35s45 13 70 13c33 0 65 -9 96 -27c30 -18 59 -45 87 -80c30 35 59 62 88 80c28 18 59 27 92 27
c25 0 49 -4 70 -13s40 -20 55 -35s27 -33 36 -54s13 -43 13 -67s-4 -46 -13 -67s-21 -38 -36 -53s-34 -27 -55 -35c-21 -9 -45 -13 -70 -13c-66 0 -127 35 -183 106zM225 440c-29 0 -51 -9 -68 -26s-25 -39 -25 -64s8 -46 25 -63s39 -26 68 -26c25 0 47 8 68 25
c20 16 40 37 61 62c-21 26 -42 48 -61 66c-20 17 -43 26 -68 26zM584 261c29 0 51 9 68 26s25 38 25 63s-8 47 -25 64s-39 26 -68 26c-25 0 -48 -9 -67 -26s-40 -38 -62 -63c21 -25 42 -47 62 -64c19 -17 42 -26 67 -26z" />
    <glyph glyph-name="integral" unicode="&#x222b;" horiz-adv-x="349" 
d="M128 551c0 49 14 88 42 116s67 42 117 42h37v-86h-30c-22 0 -39 -7 -52 -20s-20 -32 -20 -59v-575c0 -49 -13 -88 -40 -117c-27 -28 -66 -42 -115 -42h-43v86h31c21 0 39 7 53 20c13 14 20 34 20 61v574z" />
    <glyph glyph-name="approxequal" unicode="&#x2248;" horiz-adv-x="626" 
d="M564 445c-19 -27 -40 -47 -65 -61c-25 -15 -52 -22 -81 -22c-32 0 -65 10 -100 30l-47 26c-21 11 -42 17 -62 17c-35 0 -65 -15 -91 -45l-53 47c19 28 41 49 65 64c24 14 50 21 78 21c17 0 34 -3 51 -8c16 -5 33 -13 52 -23l46 -25c23 -13 47 -20 70 -20
c33 0 61 15 86 44zM564 251c-19 -27 -40 -47 -65 -61c-25 -15 -52 -22 -81 -22c-32 0 -65 10 -100 30l-47 26c-21 11 -42 17 -62 17c-35 0 -65 -15 -91 -45l-53 47c19 28 41 49 65 64c24 14 50 21 78 21c17 0 34 -3 51 -8c16 -5 33 -13 52 -23l46 -25c23 -13 47 -20 70 -20
c33 0 61 15 86 44z" />
    <glyph glyph-name="notequal" unicode="&#x2260;" horiz-adv-x="610" 
d="M255 212l-74 -100h-96l74 100h-85v79h143l85 116h-228v77h285l73 99h96l-73 -99h82v-77h-139l-85 -116h224v-79h-282z" />
    <glyph glyph-name="lessequal" unicode="&#x2264;" horiz-adv-x="568" 
d="M485 191v-79h-412v79h412zM73 450l412 146v-84l-307 -104l307 -104v-84l-412 145v85z" />
    <glyph glyph-name="greaterequal" unicode="&#x2265;" horiz-adv-x="568" 
d="M495 191v-79h-412v79h412zM495 365l-412 -145v84l307 104l-307 104v84l412 -146v-85z" />
    <glyph glyph-name="dotmath" unicode="&#x22c5;" horiz-adv-x="267" 
d="M64 284c0 19 7 36 20 50c13 13 30 20 49 20s36 -7 49 -20c14 -14 21 -31 21 -50s-7 -36 -21 -49c-13 -13 -30 -20 -49 -20s-36 7 -49 20s-20 30 -20 49z" />
    <glyph glyph-name="uni24C5" unicode="&#x24c5;" horiz-adv-x="823" 
d="M124 355c0 -42 7 -81 22 -117c15 -37 35 -68 61 -94c26 -27 56 -48 91 -63s72 -23 112 -23s77 8 112 23s65 36 91 63c26 26 46 57 61 94c15 36 22 75 22 117s-7 81 -22 117s-35 67 -61 94s-56 48 -91 63s-72 22 -112 22s-77 -7 -112 -22s-65 -36 -91 -63s-46 -58 -61 -94
s-22 -75 -22 -117zM46 355c0 51 10 98 29 143s45 84 78 118c33 33 71 60 115 79s91 29 142 29s98 -10 143 -29s84 -46 117 -79c33 -34 59 -73 78 -118s29 -92 29 -143s-10 -98 -29 -143s-45 -85 -78 -118s-72 -60 -117 -79c-45 -20 -92 -30 -143 -30s-98 10 -142 30
c-44 19 -82 46 -115 79s-59 73 -78 118s-29 92 -29 143zM434 367c23 0 40 6 53 17s19 26 19 45s-6 35 -19 47c-13 11 -30 17 -53 17h-70v-126h70zM364 301v-144h-76v402h159c19 0 37 -3 54 -10s31 -16 43 -27c12 -12 22 -26 29 -41c7 -16 10 -33 10 -51s-3 -35 -10 -50
c-7 -16 -17 -30 -29 -41c-12 -12 -26 -21 -43 -28s-35 -10 -54 -10h-83z" />
    <glyph glyph-name="filledbox" unicode="&#x25a0;" horiz-adv-x="847" 
d="M73 709h701v-709h-701v709z" />
    <glyph glyph-name="H22073" unicode="&#x25a1;" horiz-adv-x="847" 
d="M73 0v709h701v-709h-701zM155 75h537v558h-537v-558z" />
    <glyph glyph-name="uni25AF" unicode="&#x25af;" horiz-adv-x="548" 
d="M73 709h402v-709h-402v709zM396 79v551h-244v-551h244z" />
    <glyph glyph-name="triagup" unicode="&#x25b2;" horiz-adv-x="885" 
d="M861 0h-837l420 724z" />
    <glyph glyph-name="uni25B3" unicode="&#x25b3;" horiz-adv-x="885" 
d="M861 0h-837l420 724zM443 561l-279 -486h556z" />
    <glyph glyph-name="lozenge" unicode="&#x25ca;" horiz-adv-x="548" 
d="M274 112l140 242l-140 243l-141 -243zM233 709h82l202 -355l-202 -354h-82l-202 354z" />
    <glyph glyph-name="circle" unicode="&#x25cb;" horiz-adv-x="835" 
d="M47 354c0 51 10 100 29 145s46 84 79 118c33 33 72 60 117 79s94 29 145 29s99 -10 144 -29s85 -46 118 -79c34 -34 61 -73 80 -118s29 -94 29 -145s-10 -99 -29 -144s-46 -85 -80 -118c-33 -33 -73 -60 -118 -79s-93 -29 -144 -29s-100 10 -145 29s-84 46 -117 79
s-60 73 -79 118s-29 93 -29 144zM131 354c0 -41 7 -79 22 -114s35 -66 61 -92c26 -27 56 -47 91 -62s72 -23 112 -23s77 8 112 23s65 35 91 62c26 26 46 57 61 92s22 73 22 114s-7 79 -22 114s-35 66 -61 92c-26 27 -56 47 -91 62s-72 23 -112 23s-77 -8 -112 -23
s-65 -35 -91 -62c-26 -26 -46 -57 -61 -92s-22 -73 -22 -114z" />
    <glyph glyph-name="H18533" unicode="&#x25cf;" horiz-adv-x="835" 
d="M47 354c0 51 10 100 29 145s46 84 79 118c33 33 72 60 117 79s94 29 145 29s99 -10 144 -29s85 -46 118 -79c34 -34 61 -73 80 -118s29 -94 29 -145s-10 -99 -29 -144s-46 -85 -80 -118c-33 -33 -73 -60 -118 -79s-93 -29 -144 -29s-100 10 -145 29s-84 46 -117 79
s-60 73 -79 118s-29 93 -29 144z" />
    <glyph glyph-name="uni262E" unicode="&#x262e;" horiz-adv-x="824" 
d="M778 355c0 -51 -10 -98 -29 -143s-45 -85 -78 -118s-72 -60 -117 -79c-45 -20 -92 -30 -143 -30s-98 10 -142 30c-44 19 -83 46 -116 79s-59 73 -78 118s-28 92 -28 143s9 98 28 143s45 84 78 118c33 33 72 60 116 79s91 29 142 29s98 -10 143 -29s84 -46 117 -79
c33 -34 59 -73 78 -118s29 -92 29 -143zM697 355c0 38 -6 74 -19 107c-13 34 -30 64 -52 89c-22 26 -48 47 -78 64s-62 28 -97 33v-240l206 -207c13 23 23 47 30 72c7 26 10 53 10 82zM125 355c0 -28 3 -55 10 -81c7 -25 16 -49 29 -71l205 205v240c-35 -5 -68 -16 -97 -33
c-30 -17 -56 -38 -77 -64c-22 -25 -39 -55 -51 -89c-13 -33 -19 -69 -19 -107zM451 61c30 4 58 12 84 25s50 30 71 50l-155 156v-231zM214 137c21 -21 44 -38 71 -51c26 -13 54 -21 84 -25v231z" />
    <glyph glyph-name="uni2713" unicode="&#x2713;" horiz-adv-x="971" 
d="M310 -17l-282 315l60 57l226 -247l574 621l60 -59z" />
    <glyph glyph-name="uni2715" unicode="&#x2715;" horiz-adv-x="774" 
d="M387 295l-294 -300l-59 59l294 301l-293 300l60 59l292 -299l292 299l60 -59l-294 -300l295 -301l-59 -59z" />
    <glyph glyph-name="uni2780" unicode="&#x2780;" horiz-adv-x="824" 
d="M125 355c0 -42 7 -81 22 -117c15 -37 35 -68 61 -94c26 -27 56 -48 91 -63s72 -23 112 -23s77 8 112 23s65 36 91 63c26 26 46 57 61 94c15 36 22 75 22 117s-7 81 -22 117s-35 67 -61 94s-56 48 -91 63s-72 22 -112 22s-77 -7 -112 -22s-65 -36 -91 -63s-46 -58 -61 -94
s-22 -75 -22 -117zM47 355c0 51 10 98 29 143s45 84 78 118c33 33 71 60 115 79s91 29 142 29s98 -10 143 -29s84 -46 117 -79c33 -34 59 -73 78 -118s29 -92 29 -143s-10 -98 -29 -143s-45 -85 -78 -118s-72 -60 -117 -79c-45 -20 -92 -30 -143 -30s-98 10 -142 30
c-44 19 -82 46 -115 79s-59 73 -78 118s-29 92 -29 143zM387 173v245h-86v52c25 1 45 8 62 21s27 28 30 47h71v-365h-77z" />
    <glyph glyph-name="uni2781" unicode="&#x2781;" horiz-adv-x="824" 
d="M125 355c0 -42 7 -81 22 -117c15 -37 35 -68 61 -94c26 -27 56 -48 91 -63s72 -23 112 -23s77 8 112 23s65 36 91 63c26 26 46 57 61 94c15 36 22 75 22 117s-7 81 -22 117s-35 67 -61 94s-56 48 -91 63s-72 22 -112 22s-77 -7 -112 -22s-65 -36 -91 -63s-46 -58 -61 -94
s-22 -75 -22 -117zM47 355c0 51 10 98 29 143s45 84 78 118c33 33 71 60 115 79s91 29 142 29s98 -10 143 -29s84 -46 117 -79c33 -34 59 -73 78 -118s29 -92 29 -143s-10 -98 -29 -143s-45 -85 -78 -118s-72 -60 -117 -79c-45 -20 -92 -30 -143 -30s-98 10 -142 30
c-44 19 -82 46 -115 79s-59 73 -78 118s-29 92 -29 143zM278 402c-1 5 -2 11 -2 16c-1 6 -1 11 -1 15c0 16 3 31 9 45s15 26 26 37s25 19 41 25c17 7 35 10 56 10s39 -3 55 -10c16 -6 30 -14 41 -25c11 -10 20 -22 26 -36s9 -29 9 -44c0 -23 -6 -44 -19 -63
c-13 -18 -30 -34 -51 -47l-72 -45c-7 -5 -14 -11 -20 -17s-10 -13 -11 -20h175v-65h-268v13c0 30 7 57 20 82c13 24 35 45 65 63l60 37c29 17 43 38 43 63c0 13 -5 25 -14 35s-23 15 -40 15s-31 -5 -41 -16c-11 -11 -16 -25 -16 -42c0 -2 0 -6 1 -11c0 -5 1 -10 2 -15h-74z
" />
    <glyph glyph-name="uni2782" unicode="&#x2782;" horiz-adv-x="824" 
d="M47 355c0 51 10 98 29 143s45 84 78 118c33 33 71 60 115 79s91 29 142 29s98 -10 143 -29s84 -46 117 -79c33 -34 59 -73 78 -118s29 -92 29 -143s-10 -98 -29 -143s-45 -85 -78 -118s-72 -60 -117 -79c-45 -20 -92 -30 -143 -30s-98 10 -142 30c-44 19 -82 46 -115 79
s-59 73 -78 118s-29 92 -29 143zM125 355c0 -42 7 -81 22 -117c15 -37 35 -68 61 -94c26 -27 56 -48 91 -63s72 -23 112 -23s77 8 112 23s65 36 91 63c26 26 46 57 61 94c15 36 22 75 22 117s-7 81 -22 117s-35 67 -61 94s-56 48 -91 63s-72 22 -112 22s-77 -7 -112 -22
s-65 -36 -91 -63s-46 -58 -61 -94s-22 -75 -22 -117zM347 393l95 79h-171v65h271v-63l-100 -80c14 -1 28 -4 41 -9s24 -12 34 -21s18 -21 24 -34s9 -28 9 -45s-3 -32 -10 -47s-17 -27 -30 -38s-28 -20 -45 -26c-18 -7 -38 -10 -60 -10s-41 3 -58 9s-31 14 -43 23
c-13 9 -23 20 -30 33c-8 12 -13 25 -16 38l67 27c3 -19 12 -35 27 -46c14 -12 31 -18 52 -18s37 5 50 16c12 11 18 24 18 39c0 21 -7 35 -21 44c-15 8 -30 12 -47 12c-5 0 -10 0 -15 -1s-10 -2 -13 -3z" />
    <glyph glyph-name="uni2783" unicode="&#x2783;" horiz-adv-x="824" 
d="M125 355c0 -42 7 -81 22 -117c15 -37 35 -68 61 -94c26 -27 56 -48 91 -63s72 -23 112 -23s77 8 112 23s65 36 91 63c26 26 46 57 61 94c15 36 22 75 22 117s-7 81 -22 117s-35 67 -61 94s-56 48 -91 63s-72 22 -112 22s-77 -7 -112 -22s-65 -36 -91 -63s-46 -58 -61 -94
s-22 -75 -22 -117zM47 355c0 51 10 98 29 143s45 84 78 118c33 33 71 60 115 79s91 29 142 29s98 -10 143 -29s84 -46 117 -79c33 -34 59 -73 78 -118s29 -92 29 -143s-10 -98 -29 -143s-45 -85 -78 -118s-72 -60 -117 -79c-45 -20 -92 -30 -143 -30s-98 10 -142 30
c-44 19 -82 46 -115 79s-59 73 -78 118s-29 92 -29 143zM237 323l177 220h85v-228h64v-65h-64v-72h-77v72h-185v73zM422 454l-111 -139h111v139z" />
    <glyph glyph-name="uni2784" unicode="&#x2784;" horiz-adv-x="824" 
d="M125 355c0 -42 7 -81 22 -117c15 -37 35 -68 61 -94c26 -27 56 -48 91 -63s72 -23 112 -23s77 8 112 23s65 36 91 63c26 26 46 57 61 94c15 36 22 75 22 117s-7 81 -22 117s-35 67 -61 94s-56 48 -91 63s-72 22 -112 22s-77 -7 -112 -22s-65 -36 -91 -63s-46 -58 -61 -94
s-22 -75 -22 -117zM47 355c0 51 10 98 29 143s45 84 78 118c33 33 71 60 115 79s91 29 142 29s98 -10 143 -29s84 -46 117 -79c33 -34 59 -73 78 -118s29 -92 29 -143s-10 -98 -29 -143s-45 -85 -78 -118s-72 -60 -117 -79c-45 -20 -92 -30 -143 -30s-98 10 -142 30
c-44 19 -82 46 -115 79s-59 73 -78 118s-29 92 -29 143zM325 285c5 -17 13 -31 26 -41c13 -11 29 -16 47 -16c19 0 35 5 48 16s19 26 19 45c0 21 -6 36 -19 47c-13 10 -29 15 -48 15c-13 0 -25 -2 -36 -7s-20 -12 -28 -20l-64 24l49 187h204v-66h-154l-23 -86
c9 10 20 17 33 22c13 4 27 6 40 6c37 0 67 -11 90 -32s34 -50 34 -87c0 -18 -3 -35 -10 -50c-6 -16 -15 -30 -27 -41c-13 -12 -28 -21 -46 -28s-39 -10 -62 -10c-18 0 -35 3 -50 8c-16 5 -30 12 -42 21c-12 8 -22 18 -30 29s-14 22 -17 34z" />
    <glyph glyph-name="uni2785" unicode="&#x2785;" horiz-adv-x="824" 
d="M125 355c0 -42 7 -81 22 -117c15 -37 35 -68 61 -94c26 -27 56 -48 91 -63s72 -23 112 -23s77 8 112 23s65 36 91 63c26 26 46 57 61 94c15 36 22 75 22 117s-7 81 -22 117s-35 67 -61 94s-56 48 -91 63s-72 22 -112 22s-77 -7 -112 -22s-65 -36 -91 -63s-46 -58 -61 -94
s-22 -75 -22 -117zM47 355c0 51 10 98 29 143s45 84 78 118c33 33 71 60 115 79s91 29 142 29s98 -10 143 -29s84 -46 117 -79c33 -34 59 -73 78 -118s29 -92 29 -143s-10 -98 -29 -143s-45 -85 -78 -118s-72 -60 -117 -79c-45 -20 -92 -30 -143 -30s-98 10 -142 30
c-44 19 -82 46 -115 79s-59 73 -78 118s-29 92 -29 143zM512 470c-19 9 -40 13 -62 13c-32 0 -59 -9 -82 -27c-22 -17 -36 -43 -41 -78c9 13 21 23 38 31s34 12 53 12c39 0 70 -11 94 -33s36 -53 36 -93c0 -19 -4 -37 -11 -53c-8 -15 -18 -29 -31 -40s-29 -20 -47 -27
c-18 -6 -37 -9 -58 -9c-19 0 -37 3 -55 10s-34 17 -48 31c-15 13 -26 31 -35 52s-13 45 -13 74c0 33 5 62 15 88c9 26 23 48 40 67s38 33 62 43c23 10 49 15 77 15c17 0 33 -2 48 -5s28 -8 38 -14zM333 294c0 -21 7 -36 21 -47c15 -11 31 -16 48 -16s33 5 47 16s21 26 21 47
s-7 36 -21 47s-30 16 -47 16s-33 -5 -48 -16c-14 -11 -21 -26 -21 -47z" />
    <glyph glyph-name="uni2786" unicode="&#x2786;" horiz-adv-x="824" 
d="M125 355c0 -42 7 -81 22 -117c15 -37 35 -68 61 -94c26 -27 56 -48 91 -63s72 -23 112 -23s77 8 112 23s65 36 91 63c26 26 46 57 61 94c15 36 22 75 22 117s-7 81 -22 117s-35 67 -61 94s-56 48 -91 63s-72 22 -112 22s-77 -7 -112 -22s-65 -36 -91 -63s-46 -58 -61 -94
s-22 -75 -22 -117zM47 355c0 51 10 98 29 143s45 84 78 118c33 33 71 60 115 79s91 29 142 29s98 -10 143 -29s84 -46 117 -79c33 -34 59 -73 78 -118s29 -92 29 -143s-10 -98 -29 -143s-45 -85 -78 -118s-72 -60 -117 -79c-45 -20 -92 -30 -143 -30s-98 10 -142 30
c-44 19 -82 46 -115 79s-59 73 -78 118s-29 92 -29 143zM561 464c-9 -6 -21 -16 -36 -30s-31 -33 -47 -57c-16 -23 -31 -52 -44 -87c-13 -34 -22 -75 -27 -122h-82c5 50 14 94 29 131s30 68 46 93c19 29 39 54 61 75h-197v66h297v-69z" />
    <glyph glyph-name="uni2787" unicode="&#x2787;" horiz-adv-x="824" 
d="M125 355c0 -42 7 -81 22 -117c15 -37 35 -68 61 -94c26 -27 56 -48 91 -63s72 -23 112 -23s77 8 112 23s65 36 91 63c26 26 46 57 61 94c15 36 22 75 22 117s-7 81 -22 117s-35 67 -61 94s-56 48 -91 63s-72 22 -112 22s-77 -7 -112 -22s-65 -36 -91 -63s-46 -58 -61 -94
s-22 -75 -22 -117zM47 355c0 51 10 98 29 143s45 84 78 118c33 33 71 60 115 79s91 29 142 29s98 -10 143 -29s84 -46 117 -79c33 -34 59 -73 78 -118s29 -92 29 -143s-10 -98 -29 -143s-45 -85 -78 -118s-72 -60 -117 -79c-45 -20 -92 -30 -143 -30s-98 10 -142 30
c-44 19 -82 46 -115 79s-59 73 -78 118s-29 92 -29 143zM410 390c17 0 31 4 42 13c10 9 15 20 15 35c0 13 -5 24 -15 33c-10 8 -24 12 -42 12s-32 -4 -42 -12c-10 -9 -15 -20 -15 -33c0 -15 5 -26 16 -35c10 -9 24 -13 41 -13zM410 230c22 0 39 5 50 14s17 21 17 36
s-6 27 -17 36c-12 9 -29 14 -50 14s-38 -5 -49 -14c-12 -9 -18 -21 -18 -36s6 -27 17 -36s28 -14 50 -14zM410 166c-47 0 -82 10 -107 31s-38 46 -38 77c0 18 6 35 18 51c12 15 29 27 50 35c-18 7 -32 18 -41 33c-10 15 -15 30 -15 47c0 31 13 57 38 76s56 29 95 29
s71 -10 96 -29s37 -45 37 -76c0 -17 -5 -32 -14 -47c-10 -15 -24 -26 -42 -33c21 -8 38 -20 50 -35c12 -16 18 -33 18 -51c0 -31 -12 -56 -37 -77s-61 -31 -108 -31z" />
    <glyph glyph-name="uni2788" unicode="&#x2788;" horiz-adv-x="824" 
d="M125 355c0 -42 7 -81 22 -117c15 -37 35 -68 61 -94c26 -27 56 -48 91 -63s72 -23 112 -23s77 8 112 23s65 36 91 63c26 26 46 57 61 94c15 36 22 75 22 117s-7 81 -22 117s-35 67 -61 94s-56 48 -91 63s-72 22 -112 22s-77 -7 -112 -22s-65 -36 -91 -63s-46 -58 -61 -94
s-22 -75 -22 -117zM47 355c0 51 10 98 29 143s45 84 78 118c33 33 71 60 115 79s91 29 142 29s98 -10 143 -29s84 -46 117 -79c33 -34 59 -73 78 -118s29 -92 29 -143s-10 -98 -29 -143s-45 -85 -78 -118s-72 -60 -117 -79c-45 -20 -92 -30 -143 -30s-98 10 -142 30
c-44 19 -82 46 -115 79s-59 73 -78 118s-29 92 -29 143zM301 242c19 -9 40 -13 62 -13c32 0 60 8 83 25c23 16 36 42 40 78c-9 -13 -21 -23 -38 -31s-34 -12 -53 -12c-38 0 -69 11 -94 34c-24 22 -36 53 -36 92c0 19 4 36 11 52c8 16 18 30 31 41s29 20 47 27
c18 6 37 9 58 9c19 0 37 -3 55 -10c17 -7 33 -17 47 -30c14 -14 25 -31 34 -52s13 -46 13 -75c0 -35 -5 -65 -14 -91c-10 -27 -23 -49 -40 -67s-38 -32 -61 -41s-49 -14 -77 -14c-17 0 -33 2 -48 5s-28 8 -38 14zM478 415c0 21 -7 37 -21 48s-30 16 -48 16s-34 -5 -47 -16
c-14 -11 -21 -27 -21 -48s7 -36 21 -47c13 -11 29 -17 47 -17s34 6 48 17s21 26 21 47z" />
    <glyph glyph-name="uniE000" unicode="&#xe000;" horiz-adv-x="786" 
d="M30 205h144v504h580v-83h-497v-421h144l-185 -221z" />
    <glyph glyph-name="uniE002" unicode="&#xe002;" horiz-adv-x="956" 
d="M749 564l179 -210h-130c0 -51 -10 -99 -29 -144s-46 -84 -79 -117s-73 -60 -118 -79s-93 -29 -144 -29s-99 10 -144 29s-84 46 -117 79s-60 72 -79 117s-29 93 -29 144s10 100 29 145s46 84 79 117s72 60 117 79s93 29 144 29c33 0 65 -4 95 -12c31 -8 60 -20 87 -35
l-37 -74c-21 12 -44 21 -69 28c-24 7 -49 10 -75 10c-40 0 -77 -7 -112 -22s-65 -36 -91 -61c-26 -26 -46 -56 -61 -91s-22 -73 -22 -113s7 -77 22 -112s35 -66 61 -92s56 -46 91 -61s72 -23 112 -23s77 8 112 23s65 35 90 61c26 26 46 57 61 92s22 72 22 112h-144z" />
    <glyph glyph-name="uniF4D2" unicode="&#xf4d2;" horiz-adv-x="802" 
d="M757 355c0 -59 -10 -112 -30 -158c-21 -46 -48 -85 -81 -116s-71 -55 -114 -71c-43 -17 -86 -25 -131 -25s-88 8 -131 25c-43 16 -81 40 -114 71s-60 70 -80 116c-21 46 -31 99 -31 158s10 112 31 158c20 45 47 84 80 115s71 55 114 71c43 17 86 25 131 25s88 -8 131 -25
c43 -16 81 -40 114 -71s60 -70 81 -115c20 -46 30 -99 30 -158zM145 355c0 -46 7 -86 22 -121c14 -35 33 -65 57 -88c23 -24 50 -42 81 -54c31 -11 63 -17 96 -17s65 6 96 17c31 12 58 30 82 54c23 23 42 53 57 88c14 35 21 75 21 121s-7 87 -21 122c-15 35 -34 64 -57 87
c-24 23 -51 41 -82 53c-31 11 -63 17 -96 17s-65 -6 -96 -17c-31 -12 -58 -30 -81 -53c-24 -23 -43 -52 -57 -87c-15 -35 -22 -76 -22 -122zM377 759l-126 146h118l86 -146h-78z" />
    <glyph glyph-name="uniF4D3" unicode="&#xf4d3;" horiz-adv-x="572" 
d="M532 241c0 -37 -6 -71 -18 -102s-29 -58 -51 -81s-48 -40 -78 -53c-30 -14 -63 -20 -99 -20s-69 6 -99 20c-30 13 -56 30 -78 53s-39 50 -51 81s-18 65 -18 102s6 71 18 102s29 57 51 80s48 41 78 54s63 19 99 19s69 -6 99 -19s56 -31 78 -54s39 -49 51 -80
s18 -65 18 -102zM136 241c0 -28 4 -53 12 -74s19 -39 33 -54s30 -26 48 -33s37 -11 57 -11s39 4 57 11s34 18 48 33s25 33 33 54s12 46 12 74s-4 53 -12 74s-19 38 -33 53s-30 26 -48 33s-37 11 -57 11s-39 -4 -57 -11s-34 -18 -48 -33s-25 -32 -33 -53s-12 -46 -12 -74z
M254 543l-126 146h118l86 -146h-78z" />
    <glyph glyph-name="uniFEFF" unicode="&#xfeff;" horiz-adv-x="0" 
 />
    <glyph glyph-name="Euro.ss08" horiz-adv-x="677" 
d="M125 282c-1 5 -1 12 -1 21c-1 8 -1 15 -1 22s0 14 1 21c0 7 0 14 1 19h-79v78h94c12 37 29 69 51 96c21 27 46 50 74 69c27 18 57 32 89 41s64 14 96 14c34 0 65 -4 94 -11c29 -8 54 -20 77 -36l-40 -77c-18 13 -38 23 -60 29c-22 5 -46 8 -71 8c-45 0 -86 -11 -123 -33
c-38 -22 -66 -55 -85 -100h293l-39 -78h-273c-2 -12 -3 -25 -3 -40c0 -19 1 -33 3 -43h237l-39 -80h-177c19 -44 46 -77 83 -98c36 -21 76 -32 120 -32c30 0 58 5 84 14c25 9 47 22 65 40l49 -70c-25 -21 -54 -38 -88 -51c-33 -14 -70 -20 -110 -20c-32 0 -64 5 -95 14
s-60 23 -87 41s-52 41 -73 68s-38 58 -50 94h-96v80h79z" />
    <glyph glyph-name="Euro.tf" 
d="M193 388c-1 -6 -1 -12 -1 -18v-19v-18c0 -6 0 -12 1 -17h244l-22 -75h-207c16 -51 43 -92 82 -121c39 -30 88 -45 147 -45c18 0 35 1 50 4s29 6 40 9l21 -80c-17 -5 -34 -10 -52 -14s-40 -6 -65 -6c-41 0 -80 6 -115 18s-67 29 -94 51c-28 22 -52 49 -71 80
s-34 65 -43 104h-88v75h76c-1 5 -1 11 -1 17v18v19c0 6 0 12 1 18h-76v75h88c10 40 25 76 46 108s45 59 74 81c28 22 60 39 95 51s73 18 112 18c29 0 54 -2 75 -7c20 -5 36 -11 47 -16l-28 -81c-7 3 -19 6 -34 10c-16 4 -36 6 -59 6c-57 0 -105 -15 -144 -45
c-39 -31 -67 -72 -84 -125h270l-21 -75h-264z" />
    <glyph glyph-name="Euro.tf.ss08" 
d="M106 325c0 7 0 15 1 23c0 9 0 14 1 17h-74v78h89c12 37 29 69 51 96c21 28 46 51 74 69c27 19 57 32 89 41s64 14 96 14c27 0 48 -2 63 -5s30 -7 45 -12l-23 -82c-7 2 -18 4 -31 7c-14 3 -32 5 -54 5c-45 0 -87 -11 -124 -33c-37 -21 -65 -55 -84 -100h257l-24 -78h-252
c-2 -11 -3 -25 -3 -40c0 -9 0 -18 1 -25c0 -7 1 -13 2 -18h235l-24 -80h-190c19 -44 48 -76 85 -97s77 -31 121 -31c22 0 40 2 54 5s24 5 31 7l23 -82c-15 -5 -30 -10 -45 -13s-36 -4 -63 -4c-32 0 -64 4 -95 14c-31 9 -61 22 -88 40c-28 17 -53 40 -74 67
c-22 27 -39 58 -51 94h-91v80h74c-1 3 -1 10 -1 19c-1 9 -1 17 -1 24z" />
    <glyph glyph-name="G.ss01" horiz-adv-x="773" 
d="M404 -15c-45 0 -88 8 -131 25c-43 16 -81 40 -114 71s-60 70 -81 116c-20 46 -30 99 -30 158s10 112 30 158c21 45 48 84 81 115s71 55 114 71c43 17 86 25 131 25c39 0 76 -5 110 -16c35 -11 66 -26 93 -45s50 -43 69 -71s34 -59 43 -93l-91 -31c-15 55 -42 96 -81 124
c-38 28 -86 42 -143 42c-33 0 -65 -6 -96 -17s-58 -29 -82 -52c-23 -23 -42 -52 -57 -87c-14 -35 -21 -76 -21 -123s7 -88 21 -123c15 -35 34 -65 57 -88c24 -23 51 -41 82 -52c31 -12 63 -18 96 -18s62 5 89 14s50 22 69 38s34 35 46 57c11 21 19 44 22 68h-286v88h385
c1 -4 1 -8 1 -12v-13c0 -45 -7 -88 -20 -127c-14 -40 -35 -75 -62 -105s-61 -54 -102 -71s-88 -26 -142 -26z" />
    <glyph glyph-name="Ldot.latn_CAT" horiz-adv-x="553" 
d="M295 372c0 17 6 32 19 45c12 13 27 19 44 19s32 -6 45 -19s19 -28 19 -45s-6 -32 -19 -44c-13 -13 -28 -19 -45 -19s-32 6 -44 19c-13 12 -19 27 -19 44zM95 0v709h98v-617h335v-92h-433z" />
    <glyph glyph-name="a.ordn" horiz-adv-x="382" 
d="M37 461c0 30 10 54 30 71s44 28 73 32l88 12c10 1 17 4 21 9c3 5 5 10 5 16c0 15 -5 29 -16 40s-28 16 -52 16c-22 0 -39 -6 -51 -18c-13 -13 -20 -28 -22 -47l-69 16c1 15 6 30 13 43s17 25 29 35c13 10 27 18 44 24s35 9 55 9c26 0 48 -3 66 -10s33 -17 44 -28
c12 -11 20 -25 25 -40s8 -31 8 -48v-169c0 -11 0 -23 1 -34c1 -12 2 -19 3 -21h-71c-1 4 -2 10 -3 17s-1 16 -1 27c-7 -13 -20 -25 -37 -36c-17 -12 -40 -18 -68 -18c-18 0 -34 3 -48 9c-14 5 -26 13 -36 22s-18 20 -23 33c-5 12 -8 25 -8 38zM164 419c12 0 24 2 35 5
s20 8 29 15c8 7 14 17 19 29s7 27 7 44v15l-95 -15c-13 -2 -24 -7 -33 -14s-14 -18 -14 -33c0 -12 5 -23 14 -32s21 -14 38 -14z" />
    <glyph glyph-name="a.ordn.ss08" horiz-adv-x="383" 
d="M37 401c0 30 10 54 30 71s44 28 73 32l88 12c10 1 17 4 21 9c3 5 5 10 5 16c0 15 -5 29 -16 40s-28 16 -52 16c-22 0 -39 -6 -51 -18c-13 -13 -20 -28 -22 -47l-69 16c1 15 6 30 13 43s17 25 29 35c13 10 27 18 44 24s35 9 55 9c26 0 48 -3 66 -10s33 -17 44 -28
c12 -11 20 -25 25 -40s8 -31 8 -48v-169c0 -11 0 -23 1 -34c1 -12 2 -19 3 -21h-71c-1 4 -2 10 -3 17s-1 16 -1 27c-7 -13 -20 -25 -37 -36c-17 -12 -40 -18 -68 -18c-18 0 -34 3 -48 9c-14 5 -26 13 -36 22s-18 20 -23 33c-5 12 -8 25 -8 38zM164 359c12 0 24 2 35 5
s20 8 29 15c8 7 14 17 19 29s7 27 7 44v15l-95 -15c-13 -2 -24 -7 -33 -14s-14 -18 -14 -33c0 -12 5 -23 14 -32s21 -14 38 -14z" />
    <glyph glyph-name="a.ss02" horiz-adv-x="589" 
d="M140 244c0 -25 3 -48 10 -69c6 -21 15 -40 27 -55s27 -27 44 -36s37 -14 60 -14c21 0 41 5 58 14s32 21 44 36s21 34 27 55c7 21 10 44 10 69c0 50 -12 90 -37 121c-24 31 -58 46 -101 46s-78 -15 -103 -46c-26 -31 -39 -71 -39 -121zM421 73c-11 -23 -29 -43 -54 -60
s-57 -26 -95 -26c-35 0 -67 7 -95 20s-52 32 -71 55c-20 23 -35 51 -46 82s-16 64 -16 100c0 34 6 66 17 97c11 30 26 56 46 79s44 41 72 54s59 20 93 20c21 0 40 -2 57 -7c16 -5 30 -11 42 -18c12 -8 22 -17 30 -26c8 -10 14 -20 18 -30v68h93v-392c0 -21 1 -40 2 -57
s2 -27 3 -32h-91c-1 5 -2 14 -3 25c-1 12 -2 25 -2 40v8z" />
    <glyph glyph-name="aacute.ss02" horiz-adv-x="589" 
d="M140 244c0 -25 3 -48 10 -69c6 -21 15 -40 27 -55s27 -27 44 -36s37 -14 60 -14c21 0 41 5 58 14s32 21 44 36s21 34 27 55c7 21 10 44 10 69c0 50 -12 90 -37 121c-24 31 -58 46 -101 46s-78 -15 -103 -46c-26 -31 -39 -71 -39 -121zM421 73c-11 -23 -29 -43 -54 -60
s-57 -26 -95 -26c-35 0 -67 7 -95 20s-52 32 -71 55c-20 23 -35 51 -46 82s-16 64 -16 100c0 34 6 66 17 97c11 30 26 56 46 79s44 41 72 54s59 20 93 20c21 0 40 -2 57 -7c16 -5 30 -11 42 -18c12 -8 22 -17 30 -26c8 -10 14 -20 18 -30v68h93v-392c0 -21 1 -40 2 -57
s2 -27 3 -32h-91c-1 5 -2 14 -3 25c-1 12 -2 25 -2 40v8zM296 543h-79l87 146h118z" />
    <glyph glyph-name="acircumflex.ss02" horiz-adv-x="589" 
d="M140 244c0 -25 3 -48 10 -69c6 -21 15 -40 27 -55s27 -27 44 -36s37 -14 60 -14c21 0 41 5 58 14s32 21 44 36s21 34 27 55c7 21 10 44 10 69c0 50 -12 90 -37 121c-24 31 -58 46 -101 46s-78 -15 -103 -46c-26 -31 -39 -71 -39 -121zM421 73c-11 -23 -29 -43 -54 -60
s-57 -26 -95 -26c-35 0 -67 7 -95 20s-52 32 -71 55c-20 23 -35 51 -46 82s-16 64 -16 100c0 34 6 66 17 97c11 30 26 56 46 79s44 41 72 54s59 20 93 20c21 0 40 -2 57 -7c16 -5 30 -11 42 -18c12 -8 22 -17 30 -26c8 -10 14 -20 18 -30v68h93v-392c0 -21 1 -40 2 -57
s2 -27 3 -32h-91c-1 5 -2 14 -3 25c-1 12 -2 25 -2 40v8zM131 545l104 139h107l104 -139h-88l-70 81l-70 -81h-87z" />
    <glyph glyph-name="acute.uc" horiz-adv-x="273" 
d="M118 759h-94l101 119h130z" />
    <glyph glyph-name="adieresis.ss02" horiz-adv-x="589" 
d="M140 244c0 -25 3 -48 10 -69c6 -21 15 -40 27 -55s27 -27 44 -36s37 -14 60 -14c21 0 41 5 58 14s32 21 44 36s21 34 27 55c7 21 10 44 10 69c0 50 -12 90 -37 121c-24 31 -58 46 -101 46s-78 -15 -103 -46c-26 -31 -39 -71 -39 -121zM421 73c-11 -23 -29 -43 -54 -60
s-57 -26 -95 -26c-35 0 -67 7 -95 20s-52 32 -71 55c-20 23 -35 51 -46 82s-16 64 -16 100c0 34 6 66 17 97c11 30 26 56 46 79s44 41 72 54s59 20 93 20c21 0 40 -2 57 -7c16 -5 30 -11 42 -18c12 -8 22 -17 30 -26c8 -10 14 -20 18 -30v68h93v-392c0 -21 1 -40 2 -57
s2 -27 3 -32h-91c-1 5 -2 14 -3 25c-1 12 -2 25 -2 40v8zM134 621c0 16 6 30 17 41s24 17 40 17c17 0 31 -6 42 -17s17 -25 17 -41c0 -17 -6 -30 -17 -41s-25 -17 -42 -17c-16 0 -29 6 -40 17s-17 24 -17 41zM321 621c0 16 6 30 17 41s24 17 41 17c16 0 30 -6 41 -17
s17 -25 17 -41c0 -17 -6 -30 -17 -41s-25 -17 -41 -17c-17 0 -30 6 -41 17s-17 24 -17 41z" />
    <glyph glyph-name="agrave.ss02" horiz-adv-x="589" 
d="M140 244c0 -25 3 -48 10 -69c6 -21 15 -40 27 -55s27 -27 44 -36s37 -14 60 -14c21 0 41 5 58 14s32 21 44 36s21 34 27 55c7 21 10 44 10 69c0 50 -12 90 -37 121c-24 31 -58 46 -101 46s-78 -15 -103 -46c-26 -31 -39 -71 -39 -121zM421 73c-11 -23 -29 -43 -54 -60
s-57 -26 -95 -26c-35 0 -67 7 -95 20s-52 32 -71 55c-20 23 -35 51 -46 82s-16 64 -16 100c0 34 6 66 17 97c11 30 26 56 46 79s44 41 72 54s59 20 93 20c21 0 40 -2 57 -7c16 -5 30 -11 42 -18c12 -8 22 -17 30 -26c8 -10 14 -20 18 -30v68h93v-392c0 -21 1 -40 2 -57
s2 -27 3 -32h-91c-1 5 -2 14 -3 25c-1 12 -2 25 -2 40v8zM116 689h118l86 -146h-78z" />
    <glyph glyph-name="ampersand.ss04" horiz-adv-x="676" 
d="M372 332h275v-89h-86v-10c0 -34 -6 -66 -17 -96s-27 -56 -49 -78c-21 -23 -48 -41 -80 -54c-31 -13 -68 -20 -109 -20c-39 0 -74 5 -105 16c-31 10 -58 24 -81 43c-22 18 -39 40 -52 66c-12 25 -18 53 -18 84c0 26 4 50 12 71c9 21 20 40 33 56s29 30 46 41
c18 11 36 19 55 24c-31 11 -58 30 -79 56c-21 25 -32 58 -32 99c0 25 5 49 16 72c11 22 25 41 43 58c19 16 41 29 66 39c25 9 53 14 83 14c38 0 70 -5 97 -16s50 -26 67 -44c18 -18 31 -38 40 -61s14 -47 16 -72l-96 -17c-3 38 -14 68 -34 90c-20 21 -50 32 -89 32
c-15 0 -29 -2 -42 -7s-25 -12 -35 -21s-18 -19 -24 -31c-5 -13 -8 -26 -8 -41c0 -17 3 -32 10 -45s16 -24 27 -33s22 -15 35 -19s25 -6 36 -6h13v-90c-17 0 -34 -2 -53 -7c-18 -5 -35 -12 -50 -23s-28 -26 -38 -44s-15 -40 -15 -67c0 -16 3 -32 10 -47s17 -29 30 -40
c13 -12 29 -22 49 -29c19 -7 42 -11 68 -11c49 0 87 14 114 43c27 28 41 66 41 115v10h-90v89z" />
    <glyph glyph-name="approxequal.ss08" horiz-adv-x="624" 
d="M562 384c-19 -27 -40 -47 -65 -61c-25 -15 -52 -22 -81 -22c-32 0 -65 10 -100 30l-47 26c-21 11 -42 17 -62 17c-35 0 -65 -15 -91 -45l-53 47c19 28 41 49 65 64c24 14 50 21 78 21c17 0 34 -3 51 -8c16 -5 33 -13 52 -23l46 -25c23 -13 47 -20 70 -20
c33 0 61 15 86 44zM562 190c-19 -27 -40 -47 -65 -61c-25 -15 -52 -22 -81 -22c-32 0 -65 10 -100 30l-47 26c-21 11 -42 17 -62 17c-35 0 -65 -15 -91 -45l-53 47c19 28 41 49 65 64c24 14 50 21 78 21c17 0 34 -3 51 -8c16 -5 33 -13 52 -23l46 -25c23 -13 47 -20 70 -20
c33 0 61 15 86 44z" />
    <glyph glyph-name="approxequal.tf" 
d="M538 445c-19 -27 -40 -47 -65 -61c-25 -15 -52 -22 -81 -22c-32 0 -65 10 -100 30l-47 26c-21 11 -42 17 -62 17c-35 0 -65 -15 -91 -45l-53 47c19 28 41 49 65 64c24 14 50 21 78 21c17 0 34 -3 51 -8c16 -5 33 -13 52 -23l46 -25c23 -13 47 -20 70 -20
c33 0 61 15 86 44zM538 251c-19 -27 -40 -47 -65 -61c-25 -15 -52 -22 -81 -22c-32 0 -65 10 -100 30l-47 26c-21 11 -42 17 -62 17c-35 0 -65 -15 -91 -45l-53 47c19 28 41 49 65 64c24 14 50 21 78 21c17 0 34 -3 51 -8c16 -5 33 -13 52 -23l46 -25c23 -13 47 -20 70 -20
c33 0 61 15 86 44z" />
    <glyph glyph-name="approxequal.tf.ss08" 
d="M537 384c-19 -27 -40 -47 -65 -61c-25 -15 -52 -22 -81 -22c-32 0 -65 10 -100 30l-47 26c-21 11 -42 17 -62 17c-35 0 -65 -15 -91 -45l-53 47c19 28 41 49 65 64c24 14 50 21 78 21c17 0 34 -3 51 -8c16 -5 33 -13 52 -23l46 -25c23 -13 47 -20 70 -20
c33 0 61 15 86 44zM537 190c-19 -27 -40 -47 -65 -61c-25 -15 -52 -22 -81 -22c-32 0 -65 10 -100 30l-47 26c-21 11 -42 17 -62 17c-35 0 -65 -15 -91 -45l-53 47c19 28 41 49 65 64c24 14 50 21 78 21c17 0 34 -3 51 -8c16 -5 33 -13 52 -23l46 -25c23 -13 47 -20 70 -20
c33 0 61 15 86 44z" />
    <glyph glyph-name="aring.ss02" horiz-adv-x="589" 
d="M140 244c0 -25 3 -48 10 -69c6 -21 15 -40 27 -55s27 -27 44 -36s37 -14 60 -14c21 0 41 5 58 14s32 21 44 36s21 34 27 55c7 21 10 44 10 69c0 50 -12 90 -37 121c-24 31 -58 46 -101 46s-78 -15 -103 -46c-26 -31 -39 -71 -39 -121zM421 73c-11 -23 -29 -43 -54 -60
s-57 -26 -95 -26c-35 0 -67 7 -95 20s-52 32 -71 55c-20 23 -35 51 -46 82s-16 64 -16 100c0 34 6 66 17 97c11 30 26 56 46 79s44 41 72 54s59 20 93 20c21 0 40 -2 57 -7c16 -5 30 -11 42 -18c12 -8 22 -17 30 -26c8 -10 14 -20 18 -30v68h93v-392c0 -21 1 -40 2 -57
s2 -27 3 -32h-91c-1 5 -2 14 -3 25c-1 12 -2 25 -2 40v8zM390 641c0 -15 -3 -30 -9 -43s-14 -25 -24 -34c-10 -10 -22 -18 -35 -23c-14 -6 -29 -9 -44 -9s-29 3 -42 9c-13 5 -25 13 -35 23c-11 9 -19 21 -25 34s-9 28 -9 43s3 30 9 43s14 25 25 35c10 10 22 18 35 24
c13 5 27 8 42 8s30 -3 44 -8c13 -6 25 -14 35 -24s18 -22 24 -35s9 -28 9 -43zM326 641c0 13 -5 25 -14 35c-9 9 -21 14 -35 14c-13 0 -24 -5 -33 -14c-9 -10 -14 -22 -14 -35s5 -25 14 -34s20 -14 33 -14c14 0 26 5 35 14s14 21 14 34z" />
    <glyph glyph-name="atilde.ss02" horiz-adv-x="589" 
d="M140 244c0 -25 3 -48 10 -69c6 -21 15 -40 27 -55s27 -27 44 -36s37 -14 60 -14c21 0 41 5 58 14s32 21 44 36s21 34 27 55c7 21 10 44 10 69c0 50 -12 90 -37 121c-24 31 -58 46 -101 46s-78 -15 -103 -46c-26 -31 -39 -71 -39 -121zM421 73c-11 -23 -29 -43 -54 -60
s-57 -26 -95 -26c-35 0 -67 7 -95 20s-52 32 -71 55c-20 23 -35 51 -46 82s-16 64 -16 100c0 34 6 66 17 97c11 30 26 56 46 79s44 41 72 54s59 20 93 20c21 0 40 -2 57 -7c16 -5 30 -11 42 -18c12 -8 22 -17 30 -26c8 -10 14 -20 18 -30v68h93v-392c0 -21 1 -40 2 -57
s2 -27 3 -32h-91c-1 5 -2 14 -3 25c-1 12 -2 25 -2 40v8zM440 662c0 -37 -9 -65 -27 -82c-19 -18 -42 -27 -70 -27c-13 0 -25 2 -36 7c-11 4 -21 9 -30 15l-14 9c-7 4 -13 7 -18 10c-6 3 -12 4 -19 4c-9 0 -16 -3 -21 -9s-8 -17 -8 -34h-72v15c0 37 9 65 28 83
c19 17 42 26 70 26c13 0 26 -2 37 -6c11 -5 21 -10 30 -16l14 -9c7 -4 13 -7 18 -10s11 -4 18 -4c10 0 17 3 22 10c5 6 7 17 7 33h71v-15z" />
    <glyph glyph-name="b.ordn" horiz-adv-x="434" 
d="M58 370v507h74v-212c7 14 20 27 39 38s43 16 70 16c25 0 48 -5 67 -14c20 -9 36 -22 49 -38s23 -35 30 -56c7 -22 10 -45 10 -70s-4 -49 -11 -71s-18 -41 -31 -57s-30 -29 -50 -38s-42 -14 -67 -14s-46 5 -64 15s-32 24 -43 41v-47h-73zM321 541c0 35 -9 63 -26 82
s-40 29 -68 29s-51 -10 -69 -29s-27 -47 -27 -82s9 -63 27 -83s41 -30 69 -30s51 10 68 30s26 48 26 83z" />
    <glyph glyph-name="b.ordn.ss08" horiz-adv-x="434" 
d="M58 309v507h74v-212c7 14 20 27 39 38s43 16 70 16c25 0 48 -5 67 -14c20 -9 36 -22 49 -38s23 -35 30 -56c7 -22 10 -45 10 -70s-4 -49 -11 -71s-18 -41 -31 -57s-30 -29 -50 -38s-42 -14 -67 -14s-46 5 -64 15s-32 24 -43 41v-47h-73zM321 480c0 35 -9 63 -26 82
s-40 29 -68 29s-51 -10 -69 -29s-27 -47 -27 -82s9 -63 27 -83s41 -30 69 -30s51 10 68 30s26 48 26 83z" />
    <glyph glyph-name="braceleft.case" horiz-adv-x="367" 
d="M24 397c15 0 29 2 42 5c13 4 25 10 35 18s18 18 24 31s9 28 9 47v116c0 63 15 109 46 140s75 46 134 46h13v-75h-13c-37 0 -63 -8 -77 -25s-21 -43 -21 -80v-143c0 -34 -9 -62 -28 -83s-44 -34 -76 -40c32 -6 57 -20 76 -41s28 -48 28 -82v-141c0 -37 7 -63 21 -80
s40 -25 77 -25h13v-75h-13c-59 0 -103 15 -134 46s-46 77 -46 140v114c0 19 -3 34 -9 47s-14 23 -24 31s-22 14 -35 18c-13 3 -27 5 -42 5v86z" />
    <glyph glyph-name="braceright.case" horiz-adv-x="367" 
d="M343 311c-15 0 -29 -2 -42 -5c-13 -4 -25 -10 -35 -18s-18 -18 -24 -31s-9 -28 -9 -47v-114c0 -63 -15 -109 -46 -140s-75 -46 -134 -46h-13v75h13c37 0 63 8 77 25s21 43 21 80v141c0 34 9 62 28 83s44 34 76 40c-32 6 -57 20 -76 41s-28 48 -28 82v143
c0 37 -7 63 -21 80s-40 25 -77 25h-13v75h13c59 0 103 -15 134 -46s46 -77 46 -140v-116c0 -19 3 -34 9 -47s14 -23 24 -31s22 -14 35 -17c13 -4 27 -6 42 -6v-86z" />
    <glyph glyph-name="bracketleft.case" horiz-adv-x="310" 
d="M76 -90v890h193v-76h-111v-739h111v-75h-193z" />
    <glyph glyph-name="bracketright.case" horiz-adv-x="310" 
d="M41 -90v75h111v739h-111v76h193v-890h-193z" />
    <glyph glyph-name="c.ordn" horiz-adv-x="395" 
d="M208 651c-13 0 -25 -3 -36 -8c-12 -5 -22 -12 -31 -21s-17 -21 -22 -35c-5 -13 -8 -29 -8 -47c0 -36 10 -64 30 -83c19 -19 42 -28 68 -28c14 0 26 2 37 6c10 5 19 10 26 16c7 7 12 14 17 21c4 8 7 15 9 22l67 -26c-4 -13 -10 -26 -19 -39s-19 -24 -32 -35
c-13 -10 -28 -18 -46 -25c-17 -6 -37 -9 -59 -9c-25 0 -48 4 -69 13s-39 22 -55 38c-15 16 -27 35 -36 57s-13 46 -13 72s4 50 13 72s21 41 36 57s33 28 54 37s44 14 69 14c23 0 43 -3 60 -10c18 -7 33 -15 46 -26c13 -10 23 -22 31 -35s14 -27 17 -40l-67 -26
c-2 8 -5 16 -9 24c-5 8 -10 15 -17 22s-16 12 -26 16s-22 6 -35 6z" />
    <glyph glyph-name="c.ordn.ss08" horiz-adv-x="395" 
d="M208 590c-13 0 -25 -3 -36 -8c-12 -5 -22 -12 -31 -21s-17 -21 -22 -35c-5 -13 -8 -29 -8 -47c0 -36 10 -64 30 -83c19 -19 42 -28 68 -28c14 0 26 2 37 6c10 5 19 10 26 16c7 7 12 14 17 21c4 8 7 15 9 22l67 -26c-4 -13 -10 -26 -19 -39s-19 -24 -32 -35
c-13 -10 -28 -18 -46 -25c-17 -6 -37 -9 -59 -9c-25 0 -48 4 -69 13s-39 22 -55 38c-15 16 -27 35 -36 57s-13 46 -13 72s4 50 13 72s21 41 36 57s33 28 54 37s44 14 69 14c23 0 43 -3 60 -10c18 -7 33 -15 46 -26c13 -10 23 -22 31 -35s14 -27 17 -40l-67 -26
c-2 8 -5 16 -9 24c-5 8 -10 15 -17 22s-16 12 -26 16s-22 6 -35 6z" />
    <glyph glyph-name="cent.ss08" horiz-adv-x="526" 
d="M235 0v94c-28 5 -54 14 -77 28s-43 31 -60 52c-16 21 -29 44 -38 70s-14 54 -14 84c0 31 5 59 14 85s22 49 39 70c17 20 37 37 60 50s48 23 76 28v88h76v-86c25 -3 48 -8 68 -17c19 -9 36 -20 50 -33s26 -28 35 -43c9 -16 15 -32 20 -47l-81 -33c-3 9 -6 18 -11 28
c-5 9 -11 18 -18 27c-7 8 -16 15 -26 22c-11 6 -23 11 -37 14v-307c15 3 29 8 40 15s20 14 28 23c8 8 14 17 19 26s8 17 10 25l80 -33c-5 -15 -13 -30 -22 -45c-10 -15 -22 -29 -36 -42c-15 -13 -32 -24 -52 -33s-42 -15 -67 -18v-92h-76zM139 328c0 -40 9 -73 27 -98
s41 -43 69 -52v299c-27 -9 -50 -26 -69 -51c-18 -25 -27 -57 -27 -98z" />
    <glyph glyph-name="cent.tf" 
d="M437 416c-5 20 -16 40 -31 59s-37 31 -65 38v-326c29 7 51 20 67 39s27 38 34 58l81 -30c-10 -37 -30 -71 -61 -101s-71 -49 -120 -56v-97h-78v98c-30 4 -57 13 -82 27s-47 32 -65 54c-19 22 -33 48 -43 77c-11 29 -16 60 -16 94s5 66 16 95c10 29 24 54 43 76
c18 22 40 40 65 55c25 14 52 23 82 27v106h78v-107c49 -7 88 -24 118 -53s50 -63 60 -102zM151 350c0 -43 10 -79 31 -107c21 -29 49 -47 83 -56v326c-34 -8 -62 -26 -83 -55s-31 -65 -31 -108z" />
    <glyph glyph-name="cent.tf.ss08" 
d="M259 0v94c-28 5 -54 14 -77 28s-43 31 -59 52c-17 21 -30 44 -39 70s-14 54 -14 84c0 31 5 59 14 85s22 49 39 70c17 20 37 37 60 50s49 23 76 28v88h76v-86c25 -3 48 -8 68 -17c19 -9 36 -20 50 -33s26 -28 35 -43c9 -16 15 -32 20 -47l-81 -33c-3 9 -6 18 -11 28
c-5 9 -11 18 -18 27c-7 8 -16 15 -26 22c-11 6 -23 11 -37 14v-307c15 3 29 8 40 15s20 14 28 23c8 8 14 17 19 26s8 17 10 25l80 -33c-5 -15 -13 -30 -22 -45c-10 -15 -22 -29 -37 -42s-32 -24 -51 -33c-20 -9 -42 -15 -67 -18v-92h-76zM163 328c0 -40 9 -73 27 -98
s41 -43 69 -52v299c-27 -9 -50 -26 -68 -51c-19 -25 -28 -58 -28 -98z" />
    <glyph glyph-name="colon.tf" 
d="M210 412c0 21 7 40 22 55s33 22 54 22s40 -7 55 -22s22 -34 22 -55s-7 -39 -22 -54s-34 -22 -55 -22s-39 7 -54 22s-22 33 -22 54zM210 65c0 21 7 40 22 55s33 22 54 22s40 -7 55 -22s22 -34 22 -55s-7 -39 -22 -54s-34 -22 -55 -22s-39 7 -54 22s-22 33 -22 54z" />
    <glyph glyph-name="comma.tf" 
d="M198 74c0 21 8 39 24 54s36 23 60 23c25 0 47 -9 66 -27c19 -19 28 -46 28 -83c0 -38 -6 -71 -17 -98s-25 -49 -42 -67s-35 -32 -55 -42c-20 -9 -39 -15 -57 -17v60c14 3 27 9 38 17c12 8 22 18 31 29s15 24 20 37s7 27 7 41c-2 -1 -5 -3 -10 -4c-4 -1 -9 -2 -15 -2
c-21 0 -40 7 -55 21c-15 13 -23 33 -23 58z" />
    <glyph glyph-name="currency.ss08" horiz-adv-x="589" 
d="M85 239c0 23 3 44 10 65c7 20 16 39 27 56l-75 77l60 59l75 -78c17 11 36 20 55 26s40 9 61 9c40 0 77 -10 111 -31l72 74l60 -59l-70 -73c13 -17 23 -37 30 -58s11 -44 11 -67s-3 -45 -10 -66s-17 -40 -30 -57l69 -71l-59 -59l-70 72c-17 -11 -35 -19 -54 -24
c-19 -6 -39 -9 -60 -9c-22 0 -43 3 -63 10s-39 16 -56 27l-73 -76l-59 59l73 76c-11 17 -20 36 -26 56c-6 19 -9 40 -9 62zM168 239c0 -19 3 -37 10 -53c7 -17 16 -31 28 -42c12 -12 26 -21 42 -27c15 -7 32 -10 50 -10s35 3 51 10c15 6 29 15 40 27c11 11 20 25 27 42
c7 16 10 34 10 53s-3 37 -10 53s-16 30 -27 42c-11 11 -25 20 -40 27c-16 6 -33 9 -51 9s-35 -3 -50 -9c-16 -7 -30 -16 -42 -27c-12 -12 -21 -26 -28 -42s-10 -34 -10 -53z" />
    <glyph glyph-name="currency.tf" 
d="M77 347c0 23 3 44 10 65c7 20 16 39 27 56l-75 77l60 59l75 -78c17 11 36 20 55 26s40 9 61 9c40 0 77 -10 111 -31l72 74l60 -59l-70 -73c13 -17 23 -37 30 -58s11 -44 11 -67s-3 -45 -10 -66s-17 -40 -30 -57l69 -71l-59 -59l-70 72c-17 -11 -35 -19 -54 -24
c-19 -6 -39 -9 -60 -9c-22 0 -43 3 -63 10s-39 16 -56 27l-73 -76l-59 59l73 76c-11 17 -20 36 -26 56c-6 19 -9 40 -9 62zM160 347c0 -19 3 -37 10 -53c7 -17 16 -31 28 -42c12 -12 26 -21 42 -27c15 -7 32 -10 50 -10s35 3 51 10c15 6 29 15 40 27c11 11 20 25 27 42
c7 16 10 34 10 53s-3 37 -10 53s-16 30 -27 42c-11 11 -25 20 -40 27c-16 6 -33 9 -51 9s-35 -3 -50 -9c-16 -7 -30 -16 -42 -27c-12 -12 -21 -26 -28 -42s-10 -34 -10 -53z" />
    <glyph glyph-name="currency.tf.ss08" 
d="M77 239c0 23 3 44 10 65c7 20 16 39 27 56l-75 77l60 59l75 -78c17 11 36 20 55 26s40 9 61 9c40 0 77 -10 111 -31l72 74l60 -59l-70 -73c13 -17 23 -37 30 -58s11 -44 11 -67s-3 -45 -10 -66s-17 -40 -30 -57l69 -71l-59 -59l-70 72c-17 -11 -35 -19 -54 -24
c-19 -6 -39 -9 -60 -9c-22 0 -43 3 -63 10s-39 16 -56 27l-73 -76l-59 59l73 76c-11 17 -20 36 -26 56c-6 19 -9 40 -9 62zM160 239c0 -19 3 -37 10 -53c7 -17 16 -31 28 -42c12 -12 26 -21 42 -27c15 -7 32 -10 50 -10s35 3 51 10c15 6 29 15 40 27c11 11 20 25 27 42
c7 16 10 34 10 53s-3 37 -10 53s-16 30 -27 42c-11 11 -25 20 -40 27c-16 6 -33 9 -51 9s-35 -3 -50 -9c-16 -7 -30 -16 -42 -27c-12 -12 -21 -26 -28 -42s-10 -34 -10 -53z" />
    <glyph glyph-name="d.ordn" horiz-adv-x="431" 
d="M113 541c0 -34 8 -61 25 -82s40 -32 69 -32c28 0 51 11 68 32s25 49 25 82c0 34 -8 61 -25 81c-17 19 -40 29 -68 29s-51 -10 -68 -30s-26 -47 -26 -80zM373 432c0 -13 0 -26 1 -38c1 -13 1 -21 2 -24h-72c-1 4 -2 10 -3 19c-1 8 -1 17 -1 27c-7 -14 -20 -27 -37 -38
s-39 -17 -64 -17s-47 5 -67 14s-37 22 -51 38s-25 35 -32 57c-8 22 -12 46 -12 71c0 24 4 47 12 68c7 21 18 40 33 57c14 16 31 29 51 38c19 9 41 14 65 14c30 0 53 -5 69 -16s27 -23 32 -36v211h74v-445z" />
    <glyph glyph-name="d.ordn.ss08" horiz-adv-x="431" 
d="M113 480c0 -34 8 -61 25 -82s40 -32 69 -32c28 0 51 11 68 32s25 49 25 82c0 34 -8 61 -25 81c-17 19 -40 29 -68 29s-51 -10 -68 -30s-26 -47 -26 -80zM373 371c0 -13 0 -26 1 -38c1 -13 1 -21 2 -24h-72c-1 4 -2 10 -3 19c-1 8 -1 17 -1 27c-7 -14 -20 -27 -37 -38
s-39 -17 -64 -17s-47 5 -67 14s-37 22 -51 38s-25 35 -32 57c-8 22 -12 46 -12 71c0 24 4 47 12 68c7 21 18 40 33 57c14 16 31 29 51 38c19 9 41 14 65 14c30 0 53 -5 69 -16s27 -23 32 -36v211h74v-445z" />
    <glyph glyph-name="degree.ss08" horiz-adv-x="407" 
d="M126 502c0 -23 8 -42 23 -57s33 -22 54 -22c22 0 40 7 55 22s22 34 22 57s-7 41 -22 56s-33 22 -55 22c-21 0 -39 -7 -54 -22s-23 -33 -23 -56zM43 502c0 22 4 43 13 62s20 35 35 50c15 14 32 25 51 33s40 12 61 12s42 -4 62 -12c19 -8 36 -19 51 -33
c15 -15 26 -31 35 -50s13 -40 13 -62s-4 -43 -13 -62s-20 -36 -35 -50c-15 -15 -32 -26 -51 -34c-20 -8 -41 -12 -62 -12s-42 4 -61 12s-36 19 -51 34c-15 14 -26 31 -35 50s-13 40 -13 62z" />
    <glyph glyph-name="dieresis.narrow" horiz-adv-x="294" 
d="M23 621c0 15 5 28 15 38c10 11 23 16 38 16s28 -5 38 -16c11 -10 16 -23 16 -38s-5 -28 -16 -38c-10 -10 -23 -15 -38 -15s-28 5 -38 15s-15 23 -15 38zM164 621c0 15 5 28 15 38c10 11 23 16 38 16s28 -5 38 -16c11 -10 16 -23 16 -38s-5 -28 -16 -38
c-10 -10 -23 -15 -38 -15s-28 5 -38 15s-15 23 -15 38z" />
    <glyph glyph-name="dieresis.uc" horiz-adv-x="407" 
d="M29 819c0 17 6 31 17 42s25 17 42 17s31 -6 42 -17s17 -25 17 -42s-6 -31 -17 -42s-25 -17 -42 -17s-31 6 -42 17s-17 25 -17 42zM260 819c0 17 6 31 17 42s25 17 42 17s31 -6 42 -17s17 -25 17 -42s-6 -31 -17 -42s-25 -17 -42 -17s-31 6 -42 17s-17 25 -17 42z" />
    <glyph glyph-name="divide.ss08" horiz-adv-x="559" 
d="M214 110c0 17 7 32 20 45s28 19 45 19s32 -6 45 -19s19 -28 19 -45s-6 -32 -19 -45s-28 -20 -45 -20s-32 7 -45 20s-20 28 -20 45zM214 465c0 17 7 32 20 45s28 19 45 19s32 -6 45 -19s19 -28 19 -45s-6 -32 -19 -45s-28 -20 -45 -20s-32 7 -45 20s-20 28 -20 45zM51 329
h457v-83h-457v83z" />
    <glyph glyph-name="divide.tf" 
d="M221 526c0 17 7 32 20 45s28 19 45 19s32 -6 45 -19s19 -28 19 -45s-6 -32 -19 -45s-28 -20 -45 -20s-32 7 -45 20s-20 28 -20 45zM58 390h457v-83h-457v83zM221 171c0 17 7 32 20 45s28 19 45 19s32 -6 45 -19s19 -28 19 -45s-6 -32 -19 -45s-28 -20 -45 -20
s-32 7 -45 20s-20 28 -20 45z" />
    <glyph glyph-name="divide.tf.ss08" 
d="M221 465c0 17 7 32 20 45s28 19 45 19s32 -6 45 -19s19 -28 19 -45s-6 -32 -19 -45s-28 -20 -45 -20s-32 7 -45 20s-20 28 -20 45zM58 329h457v-83h-457v83zM221 110c0 17 7 32 20 45s28 19 45 19s32 -6 45 -19s19 -28 19 -45s-6 -32 -19 -45s-28 -20 -45 -20
s-32 7 -45 20s-20 28 -20 45z" />
    <glyph glyph-name="dollar.ss08" horiz-adv-x="561" 
d="M249 -117v104c-35 3 -65 11 -91 24s-48 29 -66 47c-18 19 -32 39 -42 61s-16 44 -19 66l95 30c1 -16 5 -32 10 -47c6 -15 14 -29 24 -42s22 -24 37 -33s32 -15 52 -18v209l-25 5c-51 11 -92 31 -122 62c-29 31 -44 71 -44 120c0 24 5 47 14 68s22 40 39 57s38 32 61 43
s49 19 77 22v105h78v-106c31 -4 57 -12 79 -23s40 -25 55 -40s26 -32 34 -50c9 -17 15 -34 19 -50l-90 -33c-1 9 -4 19 -9 30s-11 21 -19 31s-18 19 -29 27c-11 9 -25 15 -40 19v-205l15 -3c56 -11 100 -34 131 -68c31 -33 47 -73 47 -118c0 -22 -4 -44 -12 -65
c-9 -21 -21 -41 -37 -58s-36 -32 -60 -43c-24 -12 -52 -20 -84 -24v-104h-78zM422 172c0 21 -8 41 -23 58c-15 18 -39 31 -72 38v-193c33 6 57 18 72 35c15 18 23 39 23 62zM157 475c0 -21 7 -40 20 -57c14 -16 38 -27 72 -34v190c-29 -5 -52 -17 -68 -35s-24 -39 -24 -64z
" />
    <glyph glyph-name="dollar.tf" 
d="M254 -114v116c-35 4 -66 13 -92 26s-48 29 -66 48s-32 41 -42 64s-16 47 -19 70l85 25c2 -17 6 -34 13 -51c6 -16 15 -31 26 -44s24 -25 40 -34s35 -16 56 -20v231l-29 7c-50 11 -90 33 -120 64s-45 71 -45 120c0 26 5 50 15 73s24 43 41 61c17 17 38 32 61 43
s49 19 76 22v117h78v-118c29 -4 54 -11 76 -22c21 -11 40 -25 55 -40c15 -16 27 -33 36 -52s16 -38 20 -57l-84 -27c-5 23 -15 46 -31 67c-17 21 -41 36 -73 44v-224l18 -4c57 -12 102 -35 133 -68s47 -74 47 -123c0 -24 -4 -47 -13 -69c-9 -23 -22 -43 -39 -60
c-17 -18 -37 -33 -62 -45s-52 -20 -83 -24v-116h-78zM435 193c0 28 -9 51 -27 69s-44 31 -77 38v-214c34 6 60 19 78 38c17 20 26 43 26 69zM153 515c0 -25 8 -47 23 -65s38 -30 69 -37l10 -2v210c-30 -5 -54 -18 -73 -37s-29 -42 -29 -69z" />
    <glyph glyph-name="dollar.tf.ss08" 
d="M256 -104v100c-34 3 -63 11 -88 24s-47 28 -64 46c-17 17 -31 37 -40 58c-10 21 -16 43 -19 64l92 30c1 -16 5 -31 10 -46s13 -28 23 -40c9 -13 21 -23 36 -32c14 -9 31 -15 50 -18v202l-24 5c-50 11 -89 31 -118 61c-29 29 -43 68 -43 116c0 23 5 45 14 66s21 39 38 56
c16 16 35 30 58 41s48 18 75 21v102h76v-103c30 -4 56 -11 77 -22s38 -24 52 -39s25 -30 34 -47c8 -17 14 -34 18 -50l-87 -32c-1 9 -4 19 -9 30c-5 10 -11 20 -18 30c-8 9 -17 18 -28 26s-24 14 -39 18v-199l14 -3c54 -11 96 -32 127 -65s46 -71 46 -115
c0 -22 -4 -43 -12 -63c-8 -21 -20 -39 -35 -56c-16 -17 -36 -32 -59 -43s-50 -19 -81 -23v-100h-76zM424 176c0 21 -7 40 -22 57s-38 29 -70 36v-187c32 5 55 17 70 34s22 37 22 60zM167 470c0 -21 7 -39 20 -55s36 -27 69 -34v185c-28 -5 -50 -17 -65 -34
c-16 -18 -24 -39 -24 -62z" />
    <glyph glyph-name="dotlessi" horiz-adv-x="245" 
d="M76 0v481h93v-481h-93z" />
    <glyph glyph-name="e.ordn" horiz-adv-x="400" 
d="M288 576c-1 21 -8 40 -23 56s-36 24 -64 24c-13 0 -25 -2 -36 -7c-10 -5 -19 -11 -26 -18c-7 -8 -13 -17 -17 -26c-5 -9 -7 -19 -8 -29h174zM361 467c-9 -30 -27 -55 -53 -76s-59 -31 -100 -31c-23 0 -44 4 -65 12s-39 20 -55 36c-16 15 -29 34 -38 57
c-9 22 -14 47 -14 76c0 27 5 51 14 74c9 22 21 41 36 56s33 27 52 36c20 9 41 13 62 13c52 0 92 -16 121 -48c29 -33 44 -76 44 -129c0 -7 0 -12 -1 -16c-1 -5 -1 -7 -1 -8h-251c1 -27 10 -50 29 -67c19 -18 41 -27 67 -27s46 6 59 18c14 12 24 27 30 45z" />
    <glyph glyph-name="e.ordn.ss08" horiz-adv-x="400" 
d="M288 515c-1 21 -8 40 -23 56s-36 24 -64 24c-13 0 -25 -2 -36 -7c-10 -5 -19 -11 -26 -18c-7 -8 -13 -17 -17 -26c-5 -9 -7 -19 -8 -29h174zM361 406c-9 -30 -27 -55 -53 -76s-59 -31 -100 -31c-23 0 -44 4 -65 12s-39 20 -55 36c-16 15 -29 34 -38 57
c-9 22 -14 47 -14 76c0 27 5 51 14 74c9 22 21 41 36 56s33 27 52 36c20 9 41 13 62 13c52 0 92 -16 121 -48c29 -33 44 -76 44 -129c0 -7 0 -12 -1 -16c-1 -5 -1 -7 -1 -8h-251c1 -27 10 -50 29 -67c19 -18 41 -27 67 -27s46 6 59 18c14 12 24 27 30 45z" />
    <glyph glyph-name="eight.dnom" horiz-adv-x="366" 
d="M183 217c17 0 31 4 42 13c10 9 15 20 15 35c0 13 -5 24 -15 33c-10 8 -24 12 -42 12s-32 -4 -42 -12c-10 -9 -15 -20 -15 -33c0 -15 5 -26 16 -35c10 -9 24 -13 41 -13zM183 57c22 0 39 5 50 14s17 21 17 36s-6 27 -17 36c-12 9 -29 14 -50 14s-38 -5 -49 -14
c-12 -9 -18 -21 -18 -36s6 -27 17 -36s28 -14 50 -14zM183 -7c-47 0 -82 10 -107 31s-38 46 -38 77c0 18 6 35 18 51c12 15 29 27 50 35c-18 7 -32 18 -41 33c-10 15 -15 30 -15 47c0 31 13 57 38 76s56 29 95 29s71 -10 96 -29s37 -45 37 -76c0 -17 -5 -32 -14 -47
c-10 -15 -24 -26 -42 -33c21 -8 38 -20 50 -35c12 -16 18 -33 18 -51c0 -31 -12 -56 -37 -77s-61 -31 -108 -31z" />
    <glyph glyph-name="eight.numr" horiz-adv-x="364" 
d="M183 561c17 0 31 4 42 13c10 9 15 20 15 35c0 13 -5 24 -15 33c-10 8 -24 12 -42 12s-32 -4 -42 -12c-10 -9 -15 -20 -15 -33c0 -15 5 -26 16 -35c10 -9 24 -13 41 -13zM183 401c22 0 39 5 50 14s17 21 17 36s-6 27 -17 36c-12 9 -29 14 -50 14s-38 -5 -49 -14
c-12 -9 -18 -21 -18 -36s6 -27 17 -36s28 -14 50 -14zM183 337c-47 0 -82 10 -107 31s-38 46 -38 77c0 18 6 35 18 51c12 15 29 27 50 35c-18 7 -32 18 -41 33c-10 15 -15 30 -15 47c0 31 13 57 38 76s56 29 95 29s71 -10 96 -29s37 -45 37 -76c0 -17 -5 -32 -14 -47
c-10 -15 -24 -26 -42 -33c21 -8 38 -20 50 -35c12 -16 18 -33 18 -51c0 -31 -12 -56 -37 -77s-61 -31 -108 -31z" />
    <glyph glyph-name="eight.numr.ss08" horiz-adv-x="366" 
d="M183 500c17 0 31 4 42 13c10 9 15 20 15 35c0 13 -5 24 -15 33c-10 8 -24 12 -42 12s-32 -4 -42 -12c-10 -9 -15 -20 -15 -33c0 -15 5 -26 16 -35c10 -9 24 -13 41 -13zM183 340c22 0 39 5 50 14s17 21 17 36s-6 27 -17 36c-12 9 -29 14 -50 14s-38 -5 -49 -14
c-12 -9 -18 -21 -18 -36s6 -27 17 -36s28 -14 50 -14zM183 276c-47 0 -82 10 -107 31s-38 46 -38 77c0 18 6 35 18 51c12 15 29 27 50 35c-18 7 -32 18 -41 33c-10 15 -15 30 -15 47c0 31 13 57 38 76s56 29 95 29s71 -10 96 -29s37 -45 37 -76c0 -17 -5 -32 -14 -47
c-10 -15 -24 -26 -42 -33c21 -8 38 -20 50 -35c12 -16 18 -33 18 -51c0 -31 -12 -56 -37 -77s-61 -31 -108 -31z" />
    <glyph glyph-name="eight.ss08" horiz-adv-x="572" 
d="M286 372c35 1 63 11 86 30s34 44 34 76c0 29 -11 54 -32 74c-22 20 -51 30 -88 30s-66 -10 -88 -30c-21 -20 -32 -45 -32 -74c0 -32 11 -57 34 -76s51 -29 86 -30zM286 70c44 0 78 11 101 32s35 46 35 77s-12 58 -35 79c-24 21 -58 32 -101 32s-77 -11 -100 -32
c-24 -21 -36 -48 -36 -79s12 -56 35 -77s57 -32 101 -32zM286 -15c-37 0 -71 5 -100 14c-29 10 -53 23 -73 40s-35 36 -46 59s-16 47 -16 73c0 40 12 74 35 102c24 27 53 47 88 58c-15 5 -29 13 -42 23s-24 22 -33 35s-17 27 -23 43c-5 16 -8 33 -8 51c0 27 5 51 16 73
s27 41 46 57c20 16 43 28 69 37c27 9 56 13 87 13s59 -4 86 -13s50 -21 69 -37c20 -16 35 -35 46 -57s17 -46 17 -73c0 -35 -10 -67 -31 -94c-20 -27 -45 -47 -75 -58c35 -11 64 -31 88 -58c23 -28 35 -62 35 -102c0 -26 -5 -50 -16 -73s-26 -42 -46 -59s-44 -30 -73 -40
c-29 -9 -63 -14 -100 -14z" />
    <glyph glyph-name="eight.tf" 
d="M287 325c-25 0 -47 -3 -66 -10s-35 -16 -48 -28c-13 -11 -23 -25 -30 -41c-7 -15 -10 -32 -10 -49s4 -34 11 -49s17 -29 30 -41c13 -11 29 -20 48 -27s40 -10 65 -10s47 3 66 10s35 16 48 27c13 12 23 26 30 41s10 32 10 49s-3 34 -10 49c-7 16 -16 30 -29 41
c-13 12 -29 21 -48 28s-42 10 -67 10zM287 -12c-38 0 -72 5 -103 15s-58 24 -79 42s-38 39 -49 64c-12 24 -18 50 -18 79c0 21 3 40 10 59s16 36 29 52c12 15 27 29 44 40s36 19 57 25c-19 6 -37 15 -52 26s-28 23 -39 38s-20 31 -26 48s-9 35 -9 53c0 28 6 54 17 78
c11 23 27 44 48 61s45 31 74 41c29 9 61 14 96 14s67 -5 96 -14c29 -10 53 -24 74 -41s37 -38 48 -61c11 -24 17 -50 17 -78c0 -18 -3 -36 -9 -53s-14 -33 -25 -48s-25 -27 -40 -38c-16 -11 -34 -20 -53 -26c21 -6 41 -14 58 -25s32 -25 45 -40c12 -16 21 -33 28 -52
s10 -38 10 -59c0 -29 -6 -55 -17 -79c-12 -25 -29 -46 -50 -64s-47 -32 -78 -42s-66 -15 -104 -15zM287 402c43 1 77 12 102 35s37 51 37 86c0 33 -12 61 -36 84c-25 22 -59 33 -103 33s-78 -11 -102 -33c-25 -23 -37 -51 -37 -84c0 -35 13 -63 38 -86s58 -34 101 -35z" />
    <glyph glyph-name="eight.tf.ss08" 
d="M286 372c35 1 63 11 86 30s34 44 34 76c0 29 -11 54 -32 74c-22 20 -51 30 -88 30s-66 -10 -88 -30c-21 -20 -32 -45 -32 -74c0 -32 11 -57 34 -76s51 -29 86 -30zM286 70c44 0 78 11 101 32s35 46 35 77s-12 58 -35 79c-24 21 -58 32 -101 32s-77 -11 -100 -32
c-24 -21 -36 -48 -36 -79s12 -56 35 -77s57 -32 101 -32zM286 -15c-37 0 -71 5 -100 14c-29 10 -53 23 -73 40s-35 36 -46 59s-16 47 -16 73c0 40 12 74 35 102c24 27 53 47 88 58c-15 5 -29 13 -42 23s-24 22 -33 35s-17 27 -23 43c-5 16 -8 33 -8 51c0 27 5 51 16 73
s27 41 46 57c20 16 43 28 69 37c27 9 56 13 87 13s59 -4 86 -13s50 -21 69 -37c20 -16 35 -35 46 -57s17 -46 17 -73c0 -35 -10 -67 -31 -94c-20 -27 -45 -47 -75 -58c35 -11 64 -31 88 -58c23 -28 35 -62 35 -102c0 -26 -5 -50 -16 -73s-26 -42 -46 -59s-44 -30 -73 -40
c-29 -9 -63 -14 -100 -14z" />
    <glyph glyph-name="emdash.case" horiz-adv-x="1093" 
d="M70 296v82h953v-82h-953z" />
    <glyph glyph-name="endash.case" horiz-adv-x="652" 
d="M70 296v82h512v-82h-512z" />
    <glyph glyph-name="equal.ss08" horiz-adv-x="597" 
d="M67 346v77h463v-77h-463zM67 151v79h463v-79h-463z" />
    <glyph glyph-name="equal.tf" 
d="M55 407v77h463v-77h-463zM55 212v79h463v-79h-463z" />
    <glyph glyph-name="equal.tf.ss08" 
d="M55 346v77h463v-77h-463zM55 151v79h463v-79h-463z" />
    <glyph glyph-name="exclamdown.case" horiz-adv-x="261" 
d="M189 0h-118l26 505h67zM65 647c0 18 6 34 19 47s28 19 46 19s34 -6 47 -19s19 -29 19 -47s-6 -33 -19 -46s-29 -19 -47 -19s-33 6 -46 19s-19 28 -19 46z" />
    <glyph glyph-name="f.ordn" horiz-adv-x="262" 
d="M163 642v-274h-76v274h-61v67h61v50c0 39 11 68 32 89c22 21 50 31 84 31c11 0 20 -1 27 -2c7 -2 12 -4 14 -5v-65c-3 1 -7 2 -11 3s-10 1 -18 1c-5 0 -11 -1 -17 -2c-7 -2 -12 -5 -17 -9s-10 -9 -13 -16s-5 -17 -5 -28v-47h80v-67h-80z" />
    <glyph glyph-name="f.ordn.ss08" horiz-adv-x="263" 
d="M163 581v-274h-76v274h-61v67h61v50c0 39 11 68 32 89c22 21 50 31 84 31c11 0 20 -1 27 -2c7 -2 12 -4 14 -5v-65c-3 1 -7 2 -11 3s-10 1 -18 1c-5 0 -11 -1 -17 -2c-7 -2 -12 -5 -17 -9s-10 -9 -13 -16s-5 -17 -5 -28v-47h80v-67h-80z" />
    <glyph glyph-name="fi" horiz-adv-x="605" 
d="M272 727c16 0 29 -1 39 -4c9 -3 15 -5 17 -6v-84c-3 1 -7 3 -13 4c-7 1 -16 2 -28 2c-8 0 -16 -1 -25 -4c-9 -2 -18 -6 -25 -12c-8 -6 -14 -14 -19 -25c-5 -10 -7 -23 -7 -40v-77h318v-481h-93v396h-225v-396h-97v396h-89v85h89v81c0 27 4 50 13 71c8 21 19 38 34 52
c14 14 31 25 50 32s39 10 61 10zM415 665c0 19 7 36 20 49s28 19 47 19s36 -6 49 -19s19 -30 19 -49s-6 -34 -19 -47s-30 -20 -49 -20s-34 7 -47 20s-20 28 -20 47z" />
    <glyph glyph-name="five.dnom" horiz-adv-x="349" 
d="M96 115c5 -17 13 -31 26 -41c13 -11 29 -16 47 -16c19 0 35 5 48 16s19 26 19 45c0 21 -6 36 -19 47c-13 10 -29 15 -48 15c-13 0 -25 -2 -36 -7s-20 -12 -28 -20l-64 24l49 187h204v-66h-154l-23 -86c9 10 20 17 33 22c13 4 27 6 40 6c37 0 67 -11 90 -32s34 -50 34 -87
c0 -18 -3 -35 -10 -50c-6 -16 -15 -30 -27 -41c-13 -12 -28 -21 -46 -28s-39 -10 -62 -10c-18 0 -35 3 -50 8c-16 5 -30 12 -42 21c-12 8 -22 18 -30 29s-14 22 -17 34z" />
    <glyph glyph-name="five.numr" horiz-adv-x="347" 
d="M95 459c5 -17 13 -31 26 -41c13 -11 29 -16 47 -16c19 0 35 5 48 16s19 26 19 45c0 21 -6 36 -19 47c-13 10 -29 15 -48 15c-13 0 -25 -2 -36 -7s-20 -12 -28 -20l-64 24l49 187h204v-66h-154l-23 -86c9 10 20 17 33 22c13 4 27 6 40 6c37 0 67 -11 90 -32s34 -50 34 -87
c0 -18 -3 -35 -10 -50c-6 -16 -15 -30 -27 -41c-13 -12 -28 -21 -46 -28s-39 -10 -62 -10c-18 0 -35 3 -50 8c-16 5 -30 12 -42 21c-12 8 -22 18 -30 29s-14 22 -17 34z" />
    <glyph glyph-name="five.numr.ss08" horiz-adv-x="346" 
d="M94 398c5 -17 13 -31 26 -41c13 -11 29 -16 47 -16c19 0 35 5 48 16s19 26 19 45c0 21 -6 36 -19 47c-13 10 -29 15 -48 15c-13 0 -25 -2 -36 -7s-20 -12 -28 -20l-64 24l49 187h204v-66h-154l-23 -86c9 10 20 17 33 22c13 4 27 6 40 6c37 0 67 -11 90 -32s34 -50 34 -87
c0 -18 -3 -35 -10 -50c-6 -16 -15 -30 -27 -41c-13 -12 -28 -21 -46 -28s-39 -10 -62 -10c-18 0 -35 3 -50 8c-16 5 -30 12 -42 21c-12 8 -22 18 -30 29s-14 22 -17 34z" />
    <glyph glyph-name="five.ss08" horiz-adv-x="559" 
d="M128 204c3 -40 18 -72 45 -97s60 -37 101 -37c19 0 38 3 55 9s31 15 44 27c12 11 22 25 29 41s11 34 11 54c0 22 -4 42 -11 59c-8 17 -18 31 -31 42s-28 19 -45 25c-17 5 -34 8 -53 8c-23 0 -45 -4 -66 -12c-21 -9 -38 -20 -52 -35c-17 7 -34 13 -49 20
c-15 6 -30 12 -47 18l84 322h342v-90h-277l-48 -186c15 16 34 28 58 36s49 12 74 12c32 0 61 -5 88 -15s50 -24 70 -42c19 -19 35 -41 46 -68s16 -57 16 -90c0 -31 -6 -59 -17 -86s-27 -50 -48 -70s-46 -36 -75 -47c-29 -12 -62 -18 -98 -18c-35 0 -66 5 -94 16
c-29 10 -53 24 -74 42c-21 17 -38 38 -50 61c-13 23 -20 48 -22 73z" />
    <glyph glyph-name="five.tf" 
d="M120 219c2 -20 7 -39 16 -57c8 -18 19 -33 33 -46s30 -24 49 -31c19 -8 40 -12 63 -12s45 4 64 11s36 18 49 32c14 13 25 29 33 48c7 19 11 39 11 61c0 25 -4 47 -12 66s-19 35 -33 48s-30 24 -49 31s-40 10 -63 10c-30 0 -57 -6 -81 -18c-25 -13 -45 -29 -60 -49l-89 33
l77 363h374v-90h-307l-46 -217c9 10 19 19 31 26s25 14 38 19s27 8 41 11c14 2 28 3 41 3c35 0 68 -5 97 -16s53 -27 74 -47c20 -21 36 -45 47 -74s17 -62 17 -98c0 -33 -6 -63 -17 -92c-12 -29 -29 -55 -51 -76c-22 -22 -49 -39 -80 -52s-67 -19 -106 -19
c-35 0 -68 6 -97 17c-30 11 -56 27 -77 46c-22 19 -39 41 -52 66s-21 52 -24 81z" />
    <glyph glyph-name="five.tf.ss08" 
d="M135 204c3 -40 18 -72 45 -97s60 -37 101 -37c19 0 38 3 55 9s31 15 44 27c12 11 22 25 29 41s11 34 11 54c0 22 -4 42 -11 59c-8 17 -18 31 -31 42s-28 19 -45 25c-17 5 -34 8 -53 8c-23 0 -45 -4 -66 -12c-21 -9 -38 -20 -52 -35c-17 7 -34 13 -49 20
c-15 6 -30 12 -47 18l84 322h342v-90h-277l-48 -186c15 16 34 28 58 36s49 12 74 12c32 0 61 -5 88 -15s50 -24 70 -42c19 -19 35 -41 46 -68s16 -57 16 -90c0 -31 -6 -59 -17 -86s-27 -50 -48 -70s-46 -36 -75 -47c-29 -12 -62 -18 -98 -18c-35 0 -66 5 -94 16
c-29 10 -53 24 -74 42c-21 17 -38 38 -50 61c-13 23 -20 48 -22 73z" />
    <glyph glyph-name="fl" horiz-adv-x="603" 
d="M287 639c-8 0 -16 -1 -25 -3c-9 -3 -18 -7 -25 -13c-8 -6 -14 -14 -19 -25s-7 -24 -7 -41v-76h222v243h94v-724h-94v396h-222v-396h-97v396h-89v85h89v81c0 27 4 50 13 71c8 21 19 38 34 52c14 14 31 25 50 32s39 10 61 10c16 0 29 -1 39 -4c9 -3 15 -5 17 -6v-84
c-3 1 -7 3 -13 4c-7 1 -16 2 -28 2z" />
    <glyph glyph-name="florin.tf" 
d="M230 398h-110v83h127l23 113c5 25 13 47 24 65c11 19 24 34 39 45c15 12 31 21 49 26c17 6 35 9 53 9c19 0 34 -1 45 -3c10 -1 20 -4 29 -7v-83c-7 2 -15 4 -24 5s-18 2 -29 2c-9 0 -18 -1 -27 -3c-10 -1 -19 -5 -28 -12c-9 -6 -17 -15 -24 -27c-7 -13 -13 -29 -17 -50
l-16 -80h129v-83h-146l-82 -411c-5 -25 -13 -47 -24 -65c-11 -19 -24 -34 -39 -45c-15 -12 -31 -21 -49 -27c-17 -5 -35 -8 -53 -8c-21 0 -36 1 -47 2c-11 2 -21 5 -30 8v83c7 -2 15 -4 24 -5s20 -2 32 -2c9 0 18 1 27 3c10 2 19 6 28 12c9 7 17 16 24 28s13 28 17 49z" />
    <glyph glyph-name="four.dnom" horiz-adv-x="384" 
d="M28 145l177 220h85v-228h64v-65h-64v-72h-77v72h-185v73zM213 276l-111 -139h111v139z" />
    <glyph glyph-name="four.numr" horiz-adv-x="383" 
d="M28 489l177 220h85v-228h64v-65h-64v-72h-77v72h-185v73zM213 620l-111 -139h111v139z" />
    <glyph glyph-name="four.numr.ss08" horiz-adv-x="383" 
d="M28 428l177 220h85v-228h64v-65h-64v-72h-77v72h-185v73zM213 559l-111 -139h111v139z" />
    <glyph glyph-name="four.ss08" horiz-adv-x="588" 
d="M32 259l278 389h135v-411h111v-91h-111v-146h-95v146h-318v113zM350 554l-228 -317h228v317z" />
    <glyph glyph-name="four.tf" 
d="M7 270l312 439h124v-459h122v-91h-122v-159h-96v159h-340v111zM347 602l-248 -352h248v352z" />
    <glyph glyph-name="four.tf.ss08" 
d="M28 259l278 389h135v-411h101v-91h-101v-146h-95v146h-318v113zM346 554l-228 -317h228v317z" />
    <glyph glyph-name="fraction.ss08" horiz-adv-x="180" 
d="M-195 0l466 648h90l-464 -648h-92z" />
    </font>
</defs>
</svg>
