<svg width="32" height="38" viewBox="0 0 32 38" fill="none" xmlns="http://www.w3.org/2000/svg">
	<path fill-rule="evenodd" clip-rule="evenodd" d="M0.655159 0.826608C4.83451 5.98903 9.42334 12.4746 10.1656 13.5236C10.2051 13.5795 10.2338 13.62 10.2508 13.644C10.6465 14.2006 10.9731 14.6143 11.2212 14.9285C11.7718 15.626 11.9352 15.833 11.6067 16.0231C11.3416 16.1764 11.0682 16.2269 10.7954 16.2269C10.4868 16.2269 10.1392 16.0757 9.88605 15.8313C9.70713 15.6586 8.48283 13.849 6.81571 11.2164C5.54014 9.20204 4.47264 7.53102 4.44352 7.50305C4.37619 7.43834 4.37734 7.44053 6.68566 11.6439C8.13508 14.2834 9.12654 16.2338 9.12654 16.3586C9.12654 16.6125 9.05848 16.7459 8.75082 17.0951C8.23793 17.6776 8.00863 18.3319 7.84313 19.686C7.65759 21.2039 7.13584 22.2763 5.68993 24.1114C4.84354 25.1858 4.70505 25.3826 4.49148 25.8157C4.22249 26.3609 4.1485 26.6663 4.11852 27.3549C4.08684 28.0829 4.14855 28.5532 4.36709 29.2491C4.55842 29.8585 4.75812 30.261 5.26866 31.0658C5.70925 31.7601 5.96295 32.2762 5.96295 32.4782C5.96295 32.6388 5.99308 32.639 6.67581 32.4822C8.30968 32.1066 9.63637 31.4463 10.3825 30.6369C10.8443 30.1359 10.9527 29.8594 10.9562 29.1729C10.9586 28.7239 10.943 28.6299 10.8238 28.3716C10.6296 27.951 10.2762 27.6016 9.49728 27.0597C8.47665 26.3495 8.04072 25.7779 7.92031 24.9917C7.82154 24.3467 7.93613 23.8916 8.50075 22.6872C9.08515 21.4406 9.22998 20.9094 9.32795 19.6528C9.39121 18.841 9.47885 18.5208 9.70803 18.2639C9.94707 17.9959 10.1622 17.9051 10.7538 17.8228C11.7182 17.6888 12.3322 17.4349 12.837 16.9615C13.2749 16.5508 13.4581 16.1551 13.4863 15.5594L13.5076 15.1079L13.2629 14.8176C12.3767 13.766 0.0617074 0 0.00717323 0C-0.00447682 0 0.287128 0.371999 0.655159 0.826608ZM6.46039 28.1786C6.66075 27.8174 6.5543 27.3533 6.21915 27.1264C5.90249 26.9122 5.41058 27.0131 5.41058 27.2923C5.41058 27.3775 5.45687 27.4395 5.56123 27.4943C5.73693 27.5863 5.74969 27.6897 5.61144 27.9012C5.47144 28.1154 5.48273 28.3037 5.64332 28.4315C5.90214 28.6378 6.26851 28.5244 6.46039 28.1786ZM12.491 8.48608C12.0956 8.42367 12.079 8.41634 12.265 8.38724C12.6215 8.33144 13.4634 8.40749 14.0436 8.54789C15.3979 8.87552 16.6303 9.71484 17.9458 11.2055L18.2952 11.6015L18.7953 11.5197C20.9015 11.1752 23.0442 11.449 24.8364 12.2916C25.3294 12.5234 26.1068 12.9848 26.2038 13.1034C26.2347 13.1412 26.2917 13.3844 26.33 13.644C26.4632 14.542 26.3966 15.2304 26.1266 15.7445C25.9799 16.0243 25.9717 16.1129 26.0703 16.3524C26.1491 16.5434 26.3689 16.6848 26.5866 16.6845C27.0319 16.6839 27.5112 15.9512 27.7334 14.9317L27.8216 14.5268L27.9964 14.7283C28.955 15.8337 29.708 17.3412 29.8374 18.4142L29.871 18.694L29.71 18.4397C29.4325 18.0021 29.154 17.7041 28.797 17.4638C28.1539 17.0306 27.4737 16.8832 25.6726 16.7866C24.0458 16.6994 23.1252 16.558 22.2123 16.255C20.6589 15.7396 19.876 15.0532 18.0308 12.5895C17.2114 11.4953 16.7048 10.8898 16.201 10.4023C15.0561 9.29443 13.9311 8.71342 12.491 8.48608ZM26.5707 10.9293C26.6117 10.1961 26.7094 9.7124 26.9059 9.27072C26.9836 9.09589 27.0564 8.95278 27.0676 8.95278C27.0789 8.95278 27.0451 9.08184 26.9925 9.23953C26.8497 9.6682 26.8262 10.2545 26.9247 10.9366C27.0495 11.8022 27.1206 11.9271 28.0194 12.862C28.441 13.3005 28.9314 13.8536 29.1092 14.0911L29.4325 14.5229L29.1092 14.2143C28.7139 13.8369 27.8048 13.101 27.6041 12.9958C27.4693 12.9253 27.4493 12.9265 27.3663 13.0106C27.2898 13.0882 27.2736 13.2046 27.263 13.7553C27.2464 14.6137 27.1316 15.1645 26.8541 15.7154C26.704 16.0133 26.6803 15.9498 26.8161 15.6135C26.9175 15.3624 26.9278 15.252 26.9271 14.4211C26.9256 12.7517 26.7307 12.3503 25.5886 11.6628C25.2995 11.4886 24.8226 11.2374 24.5293 11.1046C24.2361 10.9717 24.0031 10.856 24.0115 10.8473C24.0439 10.8146 25.1578 11.1454 25.606 11.3209C26.2729 11.582 26.3828 11.6158 26.4639 11.5843C26.5181 11.5632 26.5444 11.4023 26.5707 10.9293ZM12.0673 9.64766C11.9598 10.9366 12.4563 12.6607 13.2589 13.7853C13.8811 14.657 14.8455 15.3344 15.5576 15.3998C16.0238 15.4427 16.1639 15.2941 15.9529 14.9807C15.6601 14.5454 15.3 13.8753 15.2047 13.5884C15.1455 13.4102 15.0168 12.8837 14.9188 12.4184C14.584 10.8301 14.2549 10.2115 13.4948 9.74171C13.2178 9.57048 12.6263 9.3464 12.2832 9.28273L12.1005 9.24879L12.0673 9.64766ZM25.5973 22.1546C21.8465 20.6177 20.5254 19.2837 20.5254 17.0327C20.5254 16.7014 20.5367 16.4304 20.5503 16.4304C20.5641 16.4304 20.7091 16.5397 20.8728 16.6734C21.6333 17.2942 22.4851 17.5594 24.843 17.9094C26.2303 18.1155 27.0111 18.2818 27.7315 18.525C30.0207 19.2977 31.4371 20.8657 31.7749 23.0016C31.873 23.6222 31.8155 24.7859 31.6564 25.3993C31.5307 25.8838 31.1473 26.7569 31.0457 26.7905C31.0175 26.7998 30.9897 26.6898 30.9826 26.5402C30.9441 25.7382 30.5458 24.9575 29.8771 24.3725C29.1167 23.7075 28.095 23.1782 25.5973 22.1546ZM22.7829 21.9855C22.8356 22.1452 22.9171 22.5085 22.964 22.7931C23.2645 24.6128 22.326 26.0829 20.5003 26.6526C20.307 26.7128 19.5457 26.8646 18.8085 26.9894C17.3162 27.2423 16.6501 27.4214 15.981 27.7494C15.5064 27.9821 14.9319 28.3305 14.9661 28.3651C14.9771 28.3764 15.0854 28.35 15.2067 28.3066C16.0505 28.0051 16.9896 27.849 18.4164 27.7735C18.9826 27.7437 19.6266 27.6959 19.8476 27.6676C21.1187 27.5047 21.9997 27.1116 22.6848 26.402C23.066 26.0071 23.2933 25.6392 23.4764 25.1204C23.5925 24.7914 23.6082 24.6691 23.6091 24.0861C23.6101 23.4921 23.596 23.3834 23.4702 23.0179C23.3055 22.5389 23.1111 22.1794 22.865 21.8983L22.6873 21.6952L22.7829 21.9855ZM24.6835 25.9008C24.1851 24.8105 24.0707 23.7579 24.3437 22.7763C24.373 22.6713 24.4198 22.5854 24.4482 22.5854C24.4765 22.5854 24.594 22.6502 24.7095 22.7292C24.939 22.8866 25.3997 23.1516 26.6267 23.8324C28.1579 24.682 29.0309 25.3398 29.6246 26.0915C30.1445 26.7497 30.4662 27.4994 30.621 28.4136C30.7088 28.9314 30.6574 30.1776 30.5268 30.6989C30.1152 32.3431 29.1583 33.6345 27.7937 34.3882C27.5938 34.4985 27.4143 34.5891 27.3947 34.5897C27.3754 34.59 27.4482 34.4016 27.5566 34.1707C28.0157 33.1939 28.068 32.2439 27.721 31.1866C27.5084 30.5391 27.0751 29.7491 26.2002 28.4138C25.183 26.8614 24.9336 26.4482 24.6835 25.9008ZM15.2965 29.4769C13.719 29.7377 11.9872 30.5872 10.5953 31.7833L10.1809 32.1394L10.5451 32.1974C12.4455 32.4992 12.9572 32.767 14.2755 34.1491C15.0341 34.9442 15.2903 35.1212 15.9195 35.2847C16.8436 35.5248 17.7546 35.0836 18.0671 34.2446C18.2067 33.8697 18.188 33.2489 18.0279 32.9372C17.6469 32.1949 16.5369 31.955 16.0002 32.4987C15.5531 32.9516 15.6833 33.6338 16.2394 33.7511C16.3667 33.7782 16.3631 33.7724 16.207 33.7006C15.9636 33.5885 15.8579 33.4333 15.8565 33.1862C15.8534 32.6069 16.5048 32.2817 17.1108 32.5598C17.5545 32.7637 17.7307 33.0299 17.7307 33.4967C17.7307 34.2154 17.1297 34.757 16.4301 34.6685C16.0562 34.6211 15.599 34.3777 15.3538 34.0957C14.7368 33.3857 14.9772 32.2653 15.8386 31.8354C16.4943 31.5083 17.366 31.5889 18.042 32.0393C18.8186 32.557 19.1489 33.0301 19.8178 34.5828C20.0357 35.0884 20.3159 35.6575 20.4405 35.8475C21.0742 36.8128 21.8334 37.2863 22.7479 37.2863C23.2523 37.2863 23.6317 37.1925 24.1091 36.95C24.4638 36.7696 24.9666 36.427 24.9303 36.3903C24.92 36.38 24.7729 36.4265 24.6034 36.4937C23.6049 36.8901 22.5898 36.8629 22.0004 36.4237C21.6292 36.1473 21.3297 35.5966 21.1758 34.9079C21.1492 34.7886 21.0613 34.2621 20.9805 33.7378C20.7755 32.4088 20.5787 31.8114 20.1198 31.1258C19.6503 30.4245 18.7477 29.8358 17.7386 29.5729C17.109 29.4089 15.9764 29.3643 15.2965 29.4769ZM13.0871 19.2016C13.2234 18.6896 13.6635 18.2012 14.1162 18.0597C14.4041 17.9698 14.9992 18.0272 15.279 18.1719C15.8212 18.4525 16.2148 19.0915 16.1294 19.5529C16.0252 20.1153 15.1289 20.5654 14.0979 20.5728C13.5713 20.5765 13.3768 20.5045 13.1757 20.2312C13.0512 20.0619 13.004 19.514 13.0871 19.2016ZM15.1405 18.3724C15.4109 18.5405 15.4805 18.789 15.3215 19.0188C15.212 19.1772 14.8729 19.3277 14.6251 19.3277C14.2529 19.3277 13.8468 19.0587 13.8468 18.8123C13.8468 18.3173 14.6255 18.0523 15.1405 18.3724Z" fill="#A2A8B7"/>
</svg>
