<svg width="160" height="39" viewBox="0 0 160 39" fill="none" xmlns="http://www.w3.org/2000/svg">
	<g opacity="0.5">
		<path fill-rule="evenodd" clip-rule="evenodd" d="M0.625924 0.764915C4.61839 5.54205 9.00203 11.5436 9.71105 12.5143C9.74887 12.566 9.77622 12.6035 9.79252 12.6257C10.1705 13.1407 10.4825 13.5236 10.7195 13.8143L10.7195 13.8144C11.2455 14.4598 11.4016 14.6513 11.0877 14.8272C10.8345 14.9691 10.5734 15.0159 10.3127 15.0159C10.018 15.0159 9.68586 14.8759 9.44405 14.6498C9.27313 14.49 8.10358 12.8154 6.511 10.3793C5.29247 8.51526 4.2727 6.96896 4.24488 6.94307C4.18057 6.88319 4.18166 6.88522 6.38677 10.7749C7.77138 13.2173 8.7185 15.0223 8.7185 15.1377C8.7185 15.3726 8.65349 15.4961 8.35958 15.8193C7.86962 16.3582 7.65058 16.9637 7.49248 18.2167C7.31523 19.6214 6.81682 20.6138 5.43556 22.3119C4.62702 23.3061 4.49472 23.4882 4.2907 23.889C4.03374 24.3935 3.96306 24.6761 3.93442 25.3133C3.90415 25.987 3.96311 26.4222 4.17188 27.0662C4.35465 27.63 4.54542 28.0025 5.03313 28.7472C5.45402 29.3897 5.69637 29.8673 5.69637 30.0542C5.69637 30.2029 5.72516 30.2031 6.37736 30.0579C7.93817 29.7104 9.20553 29.0994 9.91832 28.3504C10.3595 27.8868 10.463 27.6308 10.4664 26.9956C10.4686 26.5801 10.4538 26.4932 10.3398 26.2541C10.1544 25.865 9.81678 25.5416 9.07267 25.0401C8.09767 24.383 7.68124 23.854 7.56621 23.1265C7.47185 22.5296 7.58132 22.1084 8.12069 20.994C8.67896 19.8404 8.81732 19.3489 8.9109 18.186C8.97134 17.4348 9.05505 17.1385 9.27399 16.9008C9.50234 16.6528 9.70789 16.5688 10.273 16.4926C11.1942 16.3686 11.7809 16.1336 12.2631 15.6956C12.6814 15.3156 12.8564 14.9494 12.8833 14.3982L12.9037 13.9804L12.6699 13.7117C11.8234 12.7386 0.0590096 0 0.00691401 0C-0.0042151 0 0.274351 0.344235 0.625924 0.764915ZM6.17158 26.0756C6.36298 25.7413 6.26128 25.3118 5.94112 25.1019C5.63861 24.9036 5.1687 24.997 5.1687 25.2554C5.1687 25.3342 5.21292 25.3916 5.31262 25.4423C5.48046 25.5274 5.49265 25.6232 5.36059 25.8188C5.22684 26.0171 5.23763 26.1913 5.39104 26.3096C5.63828 26.5005 5.98827 26.3955 6.17158 26.0756ZM11.9325 7.85273C11.5548 7.79498 11.5389 7.7882 11.7166 7.76128C12.0572 7.70963 12.8614 7.78001 13.4156 7.90993C14.7094 8.21311 15.8867 8.98979 17.1434 10.3692L17.4772 10.7356L17.9549 10.66C19.967 10.3412 22.0138 10.5945 23.7259 11.3742C24.1969 11.5887 24.9394 12.0157 25.0322 12.1254C25.0616 12.1604 25.1161 12.3855 25.1527 12.6257C25.2799 13.4567 25.2163 14.0937 24.9584 14.5694C24.8182 14.8283 24.8104 14.9104 24.9046 15.132C24.9799 15.3088 25.1898 15.4396 25.3978 15.4393C25.8232 15.4388 26.281 14.7607 26.4933 13.8173L26.5776 13.4426L26.7446 13.629C27.6603 14.652 28.3797 16.047 28.5032 17.0399L28.5354 17.2988L28.3815 17.0635C28.1165 16.6585 27.8504 16.3828 27.5094 16.1604C26.8951 15.7596 26.2452 15.6232 24.5247 15.5338C22.9707 15.4531 22.0912 15.3222 21.2191 15.0418C19.7352 14.5649 18.9873 13.9297 17.2246 11.65C16.4418 10.6373 15.9579 10.0771 15.4766 9.62591C14.3829 8.60075 13.3082 8.0631 11.9325 7.85273ZM25.3826 10.1136C25.4218 9.43509 25.5152 8.98753 25.7028 8.57881C25.7771 8.41703 25.8467 8.28461 25.8573 8.28461C25.8681 8.28461 25.8358 8.40403 25.7856 8.54995C25.6492 8.94663 25.6267 9.48917 25.7208 10.1204C25.84 10.9213 25.9079 11.0369 26.7665 11.9021C27.1693 12.3079 27.6378 12.8197 27.8076 13.0394L28.1165 13.439L27.8076 13.1534C27.43 12.8043 26.5616 12.1233 26.3698 12.0259C26.2411 11.9606 26.2219 11.9618 26.1427 12.0396C26.0696 12.1114 26.0541 12.2191 26.044 12.7287C26.0281 13.523 25.9184 14.0328 25.6534 14.5425C25.51 14.8182 25.4874 14.7594 25.6171 14.4482C25.714 14.2158 25.7238 14.1137 25.7231 13.3448C25.7216 11.8 25.5355 11.4286 24.4445 10.7924C24.1682 10.6312 23.7127 10.3987 23.4325 10.2758C23.1525 10.1528 22.9299 10.0457 22.9379 10.0378C22.9688 10.0074 24.0329 10.3136 24.4611 10.476C25.0981 10.7176 25.2032 10.7489 25.2806 10.7197C25.3324 10.7002 25.3575 10.5513 25.3826 10.1136ZM11.5277 8.92762C11.425 10.1203 11.8994 11.7158 12.6661 12.7564C13.2605 13.5631 14.1818 14.1899 14.862 14.2505C15.3073 14.2901 15.4412 14.1527 15.2397 13.8626C14.96 13.4599 14.6159 12.8397 14.5249 12.5742C14.4683 12.4093 14.3454 11.9221 14.2517 11.4916C13.9319 10.0218 13.6175 9.44941 12.8914 9.01466C12.6268 8.8562 12.0617 8.64885 11.734 8.58993L11.5595 8.55852L11.5277 8.92762ZM24.4528 20.5012C20.8697 19.079 19.6077 17.8444 19.6077 15.7615C19.6077 15.455 19.6185 15.2042 19.6315 15.2042C19.6446 15.2042 19.7831 15.3053 19.9395 15.429C20.6661 16.0035 21.4797 16.2489 23.7322 16.5727C25.0575 16.7635 25.8034 16.9174 26.4915 17.1424C28.6784 17.8574 30.0315 19.3084 30.3541 21.2849C30.4479 21.8592 30.3929 22.9361 30.2409 23.5037C30.1209 23.952 29.7546 24.76 29.6575 24.791C29.6306 24.7996 29.6041 24.6979 29.5973 24.5594C29.5605 23.8173 29.18 23.0948 28.5412 22.5535C27.8148 21.9381 26.8388 21.4484 24.4528 20.5012ZM21.7642 20.3447C21.8145 20.4924 21.8924 20.8286 21.9372 21.092C22.2243 22.7758 21.3277 24.1363 19.5837 24.6634C19.399 24.7192 18.6718 24.8596 17.9675 24.9751C16.5419 25.2091 15.9056 25.3749 15.2664 25.6784C14.8131 25.8937 14.2643 26.2161 14.2969 26.2481C14.3074 26.2585 14.4109 26.2342 14.5268 26.194C15.3329 25.915 16.23 25.7705 17.5929 25.7007C18.1339 25.673 18.7491 25.6288 18.9602 25.6027C20.1744 25.4519 21.016 25.0882 21.6705 24.4316C22.0346 24.0661 22.2517 23.7256 22.4267 23.2456C22.5376 22.9411 22.5526 22.828 22.5534 22.2885C22.5544 21.7388 22.5409 21.6382 22.4207 21.3C22.2634 20.8567 22.0778 20.5241 21.8427 20.2639L21.6728 20.0761L21.7642 20.3447ZM23.5799 23.9678C23.1037 22.9588 22.9945 21.9848 23.2552 21.0764C23.2832 20.9792 23.328 20.8998 23.3551 20.8998C23.3821 20.8998 23.4943 20.9597 23.6047 21.0329C23.8239 21.1785 24.264 21.4237 25.4361 22.0537C26.8989 22.8399 27.7329 23.4486 28.2999 24.1442C28.7966 24.7533 29.1039 25.447 29.2518 26.293C29.3357 26.7722 29.2866 27.9253 29.1619 28.4078C28.7686 29.9292 27.8546 31.1243 26.5509 31.8217C26.36 31.9238 26.1885 32.0076 26.1698 32.0081C26.1513 32.0084 26.2209 31.8341 26.3245 31.6204C26.763 30.7166 26.813 29.8374 26.4815 28.859C26.2784 28.2599 25.8645 27.5288 25.0287 26.2931C24.057 24.8566 23.8188 24.4743 23.5799 23.9678ZM14.6126 27.2769C13.1056 27.5182 11.4512 28.3044 10.1216 29.4112L9.72572 29.7407L10.0736 29.7944C11.8891 30.0737 12.3779 30.3215 13.6372 31.6004C14.3619 32.3362 14.6066 32.5 15.2077 32.6513C16.0905 32.8734 16.9608 32.4652 17.2593 31.6888C17.3926 31.3419 17.3748 30.7674 17.2218 30.479C16.8579 29.7921 15.7975 29.5701 15.2848 30.0732C14.8577 30.4923 14.9821 31.1236 15.5133 31.2322C15.6349 31.2572 15.6314 31.2518 15.4823 31.1854C15.2498 31.0817 15.1489 30.938 15.1476 30.7094C15.1446 30.1733 15.7669 29.8724 16.3458 30.1298C16.7696 30.3184 16.9379 30.5648 16.9379 30.9967C16.9379 31.6618 16.3638 32.163 15.6955 32.0811C15.3383 32.0372 14.9015 31.812 14.6673 31.551C14.0779 30.894 14.3075 29.8573 15.1304 29.4595C15.7568 29.1567 16.5896 29.2313 17.2353 29.6481C17.9772 30.1272 18.2927 30.5649 18.9317 32.0018C19.1398 32.4696 19.4075 32.9963 19.5266 33.1721C20.1319 34.0654 20.8572 34.5035 21.7308 34.5035C22.2126 34.5035 22.5751 34.4167 23.0311 34.1923C23.3699 34.0254 23.8502 33.7084 23.8156 33.6744C23.8058 33.6648 23.6653 33.7079 23.5033 33.7701C22.5494 34.1369 21.5798 34.1117 21.0167 33.7053C20.6621 33.4495 20.376 32.9399 20.229 32.3026C20.2035 32.1922 20.1196 31.705 20.0424 31.2198C19.8466 29.99 19.6586 29.4372 19.2202 28.8028C18.7717 28.1538 17.9094 27.6091 16.9454 27.3658C16.344 27.214 15.2621 27.1728 14.6126 27.2769ZM12.502 17.7686C12.6321 17.2947 13.0526 16.8428 13.4851 16.7118C13.7601 16.6286 14.3285 16.6818 14.5958 16.8157C15.1138 17.0753 15.4898 17.6667 15.4082 18.0936C15.3087 18.614 14.4525 19.0305 13.4676 19.0374C12.9645 19.0408 12.7787 18.9741 12.5866 18.7213C12.4677 18.5646 12.4226 18.0576 12.502 17.7686ZM14.4636 17.0012C14.7219 17.1567 14.7883 17.3867 14.6364 17.5994C14.5318 17.746 14.2079 17.8852 13.9712 17.8852C13.6156 17.8852 13.2277 17.6363 13.2277 17.4083C13.2277 16.9502 13.9716 16.705 14.4636 17.0012ZM91.6664 18.3129C90.8629 15.7044 92.188 13.5407 95.0154 12.8454C95.8262 12.6459 99.4979 12.7359 100.127 12.9708C100.358 13.0569 100.459 13.3873 100.461 14.0662C100.462 14.6009 100.522 15.2503 100.593 15.5093C100.702 15.9018 100.638 15.9791 100.214 15.9728C99.8299 15.9669 99.5978 15.7474 99.2737 15.0831C98.756 14.022 98.1292 13.6845 96.6685 13.6806C94.8038 13.6753 93.4394 14.9007 93.6615 16.3813C93.8062 17.3448 94.7925 18.2928 97.0059 19.596C99.1118 20.8358 100.341 21.8553 100.831 22.7687C102.14 25.2107 101.022 27.8241 98.1042 29.1408C96.6064 29.8166 94.0962 29.8865 92.3314 29.3015L91.2012 28.9268V27.1643C91.2012 25.5681 91.2402 25.4015 91.613 25.4015C91.9248 25.4015 92.0595 25.6027 92.1689 26.2329C92.4413 27.7998 93.6613 28.7511 95.399 28.7511C97.1013 28.7511 98.2912 27.8434 98.747 26.1974C98.9412 25.4962 98.9077 25.2377 98.5226 24.4642C98.0611 23.5368 97.2664 22.9214 94.5674 21.4017C93.0698 20.5584 92.0107 19.4308 91.6664 18.3129ZM38.7582 13.8868C38.3899 13.8868 38.2462 13.7693 38.2462 13.468C38.2462 13.0692 38.3899 13.0493 41.2758 13.0493C43.9543 13.0493 44.2971 13.0887 44.2357 13.3887C44.1972 13.5754 43.8271 13.8344 43.4127 13.9645L42.6591 14.2008L42.5949 19.5395C42.5518 23.1018 42.6124 25.1568 42.7767 25.7155C43.2653 27.377 44.756 28.3325 46.8591 28.3325C48.3232 28.3325 49.1785 27.9984 50.2531 27.0062C51.4089 25.9395 51.5932 24.926 51.5895 19.6584C51.586 14.4625 51.4933 14.0337 50.35 13.9259C49.8297 13.8767 49.6554 13.7584 49.6554 13.4549C49.6554 13.0763 49.827 13.0493 52.2385 13.0493C54.6781 13.0493 54.8216 13.0726 54.8216 13.468C54.8216 13.726 54.677 13.888 54.4449 13.8899C53.4479 13.8985 53.4296 13.9911 53.2954 19.6885C53.1562 25.6051 53.0262 26.3057 51.7976 27.755C51.4433 28.1731 50.5984 28.7802 49.9201 29.1042C48.8147 29.6322 48.4631 29.6928 46.5339 29.6894C44.7556 29.6858 44.1942 29.602 43.305 29.2069C42.007 28.6302 41.1629 27.8839 40.5405 26.7623C40.1061 25.9794 40.069 25.5557 39.9684 20.2512C39.8532 14.1795 39.7975 13.8868 38.7582 13.8868ZM58.9016 13.8868C58.4094 13.8868 58.2659 13.7921 58.2659 13.468C58.2659 13.0755 58.4034 13.0504 60.4723 13.0665L62.6788 13.0837L63.7345 14.2703C64.3148 14.9229 66.2068 16.9643 67.9385 18.8066C69.6703 20.649 71.6586 22.7922 72.3567 23.5695C73.055 24.3469 73.7121 24.9827 73.8172 24.9827C73.9251 24.9827 73.9789 22.787 73.9404 19.9397L73.8725 14.8967L73.2684 14.3917C72.9363 14.1139 72.428 13.8868 72.1384 13.8868C71.7533 13.8868 71.6123 13.7729 71.6123 13.4622C71.6123 13.0533 71.7222 13.0397 74.5721 13.0958C76.9954 13.1435 77.532 13.2095 77.532 13.4595C77.532 13.6376 77.2323 13.8246 76.8124 13.9081C76.4168 13.9869 75.9808 14.1602 75.8437 14.2934C75.6669 14.4652 75.5769 16.6876 75.5331 21.9573L75.4713 29.3792H74.8474C74.3103 29.3792 73.671 28.7893 70.2529 25.1397C68.069 22.8078 65.5198 20.0366 64.5881 18.9813C63.6563 17.9259 62.8213 17.0544 62.7326 17.0448C62.4827 17.0175 62.5431 26.4467 62.7987 27.3418C62.998 28.0392 63.135 28.1593 63.9816 28.3796C64.6634 28.5569 64.9391 28.7368 64.9391 29.004C64.9391 29.347 64.6792 29.3792 61.9254 29.3792C59.1222 29.3792 58.9117 29.3519 58.9117 28.9867C58.9117 28.7194 59.1145 28.5548 59.5477 28.4705C60.8622 28.2149 60.9494 27.8091 61.0232 21.6065C61.0645 18.1326 61.0039 15.7019 60.8628 15.193C60.6151 14.298 59.9977 13.8868 58.9016 13.8868ZM81.4734 13.8868C81.0122 13.8868 80.8687 13.7873 80.8687 13.468C80.8687 13.068 81.0122 13.0493 84.0976 13.0493C87.1829 13.0493 87.3266 13.068 87.3266 13.468C87.3266 13.7752 87.1829 13.8868 86.7883 13.8868C86.4925 13.8868 86.0526 14.079 85.811 14.3139C85.3846 14.7286 85.3736 14.9348 85.4344 21.3445C85.4935 27.6016 85.5188 27.9636 85.9146 28.2449C86.1445 28.4082 86.5561 28.5418 86.8295 28.5418C87.1829 28.5418 87.3266 28.6626 87.3266 28.9606C87.3266 29.3607 87.1829 29.3792 84.0976 29.3792C81.0856 29.3792 80.8687 29.3529 80.8687 28.9874C80.8687 28.6926 81.0799 28.5625 81.7214 28.4627C82.9953 28.2646 83.0604 27.859 82.981 20.6214C82.9175 14.8253 82.8902 14.464 82.4958 14.1836C82.2659 14.0203 81.8059 13.8868 81.4734 13.8868ZM103.997 13.8868C103.703 13.8868 103.479 13.7274 103.409 13.468C103.3 13.0632 103.403 13.0493 106.505 13.0493C109.57 13.0493 109.714 13.068 109.714 13.468C109.714 13.7898 109.57 13.8868 109.094 13.8868C107.739 13.8868 107.77 14.1263 109.821 19.6014C110.865 22.3884 111.878 25.0359 112.073 25.4846L112.427 26.3005L114.071 22.0301C116.007 17.0035 116.258 16.0739 115.93 15.1572C115.701 14.5182 114.81 13.8868 114.138 13.8868C113.948 13.8868 113.804 13.7067 113.804 13.468C113.804 13.0673 113.948 13.0493 117.141 13.0493C120.334 13.0493 120.477 13.0673 120.477 13.468C120.477 13.766 120.334 13.8868 119.98 13.8868C119.075 13.8868 118.676 14.3562 118.806 15.2681C118.94 16.2069 122.642 26.2964 122.798 26.1454C123.05 25.8999 127.15 15.0384 127.15 14.6151C127.15 14.1079 126.785 13.8868 125.949 13.8868C125.572 13.8868 125.428 13.7714 125.428 13.468C125.428 13.0726 125.572 13.0493 128.012 13.0493C130.203 13.0493 130.595 13.0988 130.595 13.3743C130.595 13.5531 130.326 13.7903 129.998 13.9014C129.26 14.1516 129.075 14.4372 128.149 16.7503C127.743 17.7661 126.471 20.9453 125.322 23.8147C124.174 26.6845 123.184 29.1575 123.124 29.3104C123.064 29.4635 122.708 29.5886 122.333 29.5886H121.652L120.105 25.6631C119.255 23.5043 118.25 20.9466 117.873 19.9794C117.226 18.322 117.171 18.25 116.928 18.7231C116.786 18.9995 115.764 21.5618 114.657 24.4172L112.645 29.6091L111.894 29.5466L111.143 29.484L108.278 22.1728C106.678 18.088 105.206 14.6463 104.943 14.3742C104.684 14.106 104.259 13.8868 103.997 13.8868ZM147.04 13.9756C147.004 13.896 147.004 13.6102 147.004 13.6102C147.004 13.6102 146.996 13.5071 147.04 13.4521C147.084 13.3973 147.1 13.3959 147.258 13.3812L147.26 13.381C147.841 13.3271 149.007 13.2363 149.98 13.1948C150.069 13.191 150.168 13.1866 150.276 13.1819L150.278 13.1818L150.279 13.1817L150.28 13.1817C151.351 13.1343 153.268 13.0708 154.585 13.1351C157.112 13.2583 158.91 14.4507 159.523 16.4211C160.135 18.3914 159.811 20.241 158.976 21.4183C158.141 22.5956 156.737 23.6093 154.403 23.5433C152.477 23.4889 151.961 23.1367 151.549 22.8555C151.462 22.796 151.38 22.7396 151.289 22.69V25.2028C151.31 26.9165 151.324 27.7396 151.46 28.0442C151.644 28.4544 152.058 28.7071 152.865 28.9008C152.865 28.9008 153.229 28.9843 153.324 29.0734C153.418 29.1624 153.418 29.3602 153.418 29.3602C153.418 29.3602 153.437 29.5451 153.361 29.6393C153.286 29.7336 153.14 29.7147 153.14 29.7147L149.567 29.6866L147.413 29.6811C147.413 29.6811 147.186 29.7234 147.102 29.6346C147.017 29.5457 147.025 29.3607 147.025 29.3607C147.025 29.3607 147.043 29.1613 147.142 29.0721C147.241 28.9827 147.609 28.8829 147.609 28.8829C148.44 28.6552 148.8 28.4144 148.988 27.9607C149.14 27.5949 149.141 26.9167 149.14 21.3814C149.138 16.1322 149.13 15.153 149.007 14.8714C148.824 14.4545 148.367 14.3441 147.717 14.1868L147.716 14.1868C147.587 14.1556 147.451 14.1225 147.307 14.0849C147.307 14.0849 147.076 14.0551 147.04 13.9756ZM157.443 18.2588C157.443 19.1196 157.428 20.4672 156.489 21.3286C155.55 22.19 153.701 22.4258 152.446 22.186C152.051 22.1104 151.825 21.9939 151.65 21.904L151.633 21.8951L151.312 21.73L151.293 18.7057C151.281 16.8108 151.302 15.5762 151.348 15.3997C151.389 14.4006 152.899 14.2763 153.637 14.3133C156.794 14.3133 157.351 16.9091 157.443 18.2588ZM137.127 13.1666C137.127 13.1666 136.973 13.2243 136.739 13.3108L135.897 13.7357L135.29 15.2146C134.956 16.028 134.345 17.5211 133.933 18.5326C133.182 20.3751 132.686 21.5855 132.163 22.849C132.01 23.2206 131.546 24.3523 131.133 25.3638C130.72 26.3752 130.307 27.3379 130.215 27.503C130.2 27.5304 130.184 27.56 130.167 27.5912C129.936 28.015 129.535 28.7511 128.826 28.8624C128.826 28.8624 128.436 28.8998 128.292 29.0389C128.148 29.1782 128.162 29.2919 128.162 29.2919V29.4673C128.162 29.4673 128.175 29.5522 128.256 29.5945C128.338 29.6369 128.449 29.6393 128.449 29.6393L131.041 29.6106H133.721C133.721 29.6106 133.91 29.6322 133.983 29.573C134.057 29.5139 134.077 29.4261 134.077 29.4261V29.2415C134.077 29.2415 134.039 29.0413 133.933 28.9632C133.827 28.8852 133.43 28.8317 133.43 28.8317C132.357 28.6941 132.172 27.9022 132.305 27.1901C132.37 26.8403 132.801 25.5461 133.286 24.2432L133.454 23.7929L136.262 23.772C137.806 23.7604 139.139 23.7682 139.225 23.7893C139.346 23.8194 139.517 24.1576 140.018 25.362C140.777 27.1869 140.838 27.4092 140.67 27.7506C140.659 27.7714 140.649 27.7943 140.637 27.819C140.479 28.1492 140.173 28.7908 139.401 28.8561C139.401 28.8561 138.992 28.8699 138.89 28.9893C138.788 29.1089 138.81 29.2464 138.81 29.2464V29.4291C138.81 29.4291 138.838 29.5362 138.89 29.5786C138.943 29.621 139.032 29.6103 139.032 29.6103L141.58 29.5924L145.163 29.5922C145.163 29.5922 145.303 29.6068 145.341 29.5542C145.38 29.5014 145.388 29.4393 145.388 29.4393V29.1967C145.388 29.1967 145.372 29.0677 145.303 28.9965C145.234 28.9255 144.77 28.8504 144.77 28.8504C144.176 28.757 143.881 28.2789 143.661 27.9229C143.604 27.832 143.553 27.7491 143.503 27.6827C143.401 27.547 143.037 26.8034 142.752 26.0882C142.466 25.3731 141.823 23.7575 141.321 22.4983C140.82 21.2391 140.12 19.4824 139.766 18.5949C139.413 17.7071 138.74 16.0181 138.272 14.8414C138.195 14.6483 138.127 14.4748 138.065 14.3195L138.065 14.3188C137.751 13.5286 137.624 13.2098 137.59 13.1666C137.477 13.0265 137.127 13.1666 137.127 13.1666ZM136.961 17.9751C136.848 17.7068 136.648 17.2255 136.518 16.9055C136.282 16.3239 136.192 16.19 136.119 16.3101C136.098 16.3452 135.949 16.7427 135.788 17.1935C134.749 20.112 134.279 21.4261 134.184 21.6738C134.125 21.8294 134.077 21.9898 134.077 22.0303C134.077 22.0768 134.922 22.1039 136.37 22.1039C137.631 22.1039 138.662 22.0886 138.662 22.0699C138.662 22.0513 138.55 21.7727 138.413 21.4506C138.275 21.1286 137.938 20.3247 137.664 19.6641C137.391 19.0036 137.074 18.2435 136.961 17.9751Z" fill="#191B20"/>
	</g>
</svg>
