<svg width="36" height="30" viewBox="0 0 36 30" fill="none" xmlns="http://www.w3.org/2000/svg">
	<path d="M30.4954 2.51251C28.1652 1.33875 25.6735 0.485723 23.0684 0C22.7485 0.62268 22.3747 1.4602 22.1169 2.12643C19.3479 1.67813 16.6041 1.67813 13.8858 2.12643C13.6281 1.4602 13.2459 0.62268 12.9231 0C10.3152 0.485723 7.82066 1.34188 5.49031 2.51872C0.789963 10.1651 -0.484218 17.6215 0.152875 24.972C3.27038 27.4783 6.29163 29.0008 9.26188 29.9971C9.99526 28.9105 10.6493 27.7553 11.2128 26.5381C10.1397 26.0991 9.11181 25.5575 8.14062 24.9285C8.39827 24.723 8.6503 24.5081 8.89379 24.2872C14.8173 27.2697 21.2535 27.2697 27.1062 24.2872C27.3526 24.5081 27.6045 24.723 27.8594 24.9285C26.8852 25.5604 25.8547 26.1022 24.7816 26.5412C25.345 27.7553 25.9963 28.9136 26.7324 30C29.7056 29.0039 32.7295 27.4815 35.8471 24.972C36.5946 16.4509 34.5701 9.06293 30.4954 2.51251ZM12.0198 20.4515C10.2416 20.4515 8.78335 18.6644 8.78335 16.4882C8.78335 14.312 10.2105 12.5219 12.0198 12.5219C13.8292 12.5219 15.2874 14.3089 15.2562 16.4882C15.2591 18.6644 13.8292 20.4515 12.0198 20.4515ZM23.9802 20.4515C22.202 20.4515 20.7438 18.6644 20.7438 16.4882C20.7438 14.312 22.1708 12.5219 23.9802 12.5219C25.7894 12.5219 27.2478 14.3089 27.2167 16.4882C27.2167 18.6644 25.7894 20.4515 23.9802 20.4515Z" fill="#5865F2"/>
</svg>
