<svg width="30" height="30" viewBox="0 0 30 30" fill="none" xmlns="http://www.w3.org/2000/svg">
	<path d="M7.60722 29.8939C5.8231 29.8128 4.85392 29.5159 4.20929 29.2644C3.35513 28.9319 2.74616 28.536 2.10509 27.8958C1.46402 27.2556 1.06726 26.6467 0.73647 25.7925C0.485036 25.1479 0.18813 24.1787 0.106993 22.3946C0.0178322 20.466 0 19.8874 0 15.0013C0 10.1153 0.0196154 9.53755 0.106102 7.60722C0.187238 5.8231 0.485927 4.85571 0.735578 4.20929C1.06815 3.35513 1.46492 2.74616 2.1042 2.1042C2.74438 1.46402 3.35335 1.06637 4.2084 0.735578C4.85303 0.484144 5.82221 0.187238 7.60632 0.106102C9.53577 0.0178322 10.1153 0 14.9996 0C19.8856 0 20.4633 0.0196154 22.3937 0.106102C24.1778 0.187238 25.1452 0.485927 25.7916 0.735578C26.6458 1.06637 27.2547 1.46402 27.8958 2.1042C28.5369 2.74438 28.9319 3.35424 29.2644 4.2084C29.5159 4.85303 29.8128 5.82221 29.8939 7.60632C29.9822 9.53666 30 10.1144 30 15.0004C30 19.8847 29.9822 20.4642 29.8939 22.3946C29.8128 24.1787 29.5141 25.1479 29.2644 25.7925C28.9319 26.6467 28.536 27.2556 27.8958 27.8958C27.2556 28.536 26.6458 28.9319 25.7916 29.2644C25.147 29.5159 24.1778 29.8128 22.3937 29.8939C20.4651 29.9822 19.8856 30 14.9996 30C10.1153 30 9.53577 29.9831 7.60722 29.8939Z" fill="url(#paint0_radial_6717_40875)"/>
	<path d="M7.60722 29.8939C5.8231 29.8128 4.85392 29.5159 4.20929 29.2644C3.35513 28.9319 2.74616 28.536 2.10509 27.8958C1.46402 27.2556 1.06726 26.6467 0.73647 25.7925C0.485036 25.1479 0.18813 24.1787 0.106993 22.3946C0.0178322 20.466 0 19.8874 0 15.0013C0 10.1153 0.0196154 9.53755 0.106102 7.60722C0.187238 5.8231 0.485927 4.85571 0.735578 4.20929C1.06815 3.35513 1.46492 2.74616 2.1042 2.1042C2.74438 1.46402 3.35335 1.06637 4.2084 0.735578C4.85303 0.484144 5.82221 0.187238 7.60632 0.106102C9.53577 0.0178322 10.1153 0 14.9996 0C19.8856 0 20.4633 0.0196154 22.3937 0.106102C24.1778 0.187238 25.1452 0.485927 25.7916 0.735578C26.6458 1.06637 27.2547 1.46402 27.8958 2.1042C28.5369 2.74438 28.9319 3.35424 29.2644 4.2084C29.5159 4.85303 29.8128 5.82221 29.8939 7.60632C29.9822 9.53666 30 10.1144 30 15.0004C30 19.8847 29.9822 20.4642 29.8939 22.3946C29.8128 24.1787 29.5141 25.1479 29.2644 25.7925C28.9319 26.6467 28.536 27.2556 27.8958 27.8958C27.2556 28.536 26.6458 28.9319 25.7916 29.2644C25.147 29.5159 24.1778 29.8128 22.3937 29.8939C20.4651 29.9822 19.8856 30 14.9996 30C10.1153 30 9.53577 29.9831 7.60722 29.8939Z" fill="url(#paint1_radial_6717_40875)"/>
	<path d="M11.3169 15.0639C11.3169 13.0123 12.9797 11.3486 15.0314 11.3486C17.083 11.3486 18.7467 13.0123 18.7467 15.0639C18.7467 17.1156 17.083 18.7793 15.0314 18.7793C12.9797 18.7793 11.3169 17.1156 11.3169 15.0639ZM9.30847 15.0639C9.30847 18.2247 11.8706 20.7868 15.0314 20.7868C18.1921 20.7868 20.7542 18.2247 20.7542 15.0639C20.7542 11.9032 18.1921 9.34106 15.0314 9.34106C11.8706 9.34106 9.30856 11.903 9.30856 15.0639M19.6435 9.11415C19.6434 9.37866 19.7217 9.63727 19.8686 9.85726C20.0154 10.0773 20.2243 10.2488 20.4686 10.3501C20.7129 10.4514 20.9818 10.478 21.2413 10.4265C21.5007 10.375 21.7391 10.2477 21.9262 10.0608C22.1133 9.87379 22.2408 9.63553 22.2925 9.37612C22.3442 9.11671 22.3178 8.84779 22.2167 8.60337C22.1156 8.35895 21.9442 8.15 21.7244 8.00296C21.5045 7.85591 21.2459 7.77737 20.9814 7.77727H20.9809C20.6263 7.77743 20.2863 7.91832 20.0356 8.16898C19.7848 8.41964 19.6438 8.75959 19.6435 9.11415ZM10.5287 24.1359C9.44212 24.0864 8.85152 23.9054 8.45903 23.7525C7.93869 23.5499 7.56742 23.3087 7.17707 22.9189C6.78673 22.529 6.5451 22.1581 6.34342 21.6378C6.19042 21.2455 6.00942 20.6547 5.96003 19.5681C5.90599 18.3933 5.89521 18.0404 5.89521 15.0641C5.89521 12.0878 5.90689 11.7359 5.96003 10.5602C6.00951 9.47355 6.19184 8.88393 6.34342 8.49046C6.54599 7.97012 6.78726 7.59885 7.17707 7.20851C7.56689 6.81816 7.9378 6.57653 8.45903 6.37485C8.85134 6.22185 9.44212 6.04086 10.5287 5.99146C11.7035 5.93743 12.0564 5.92664 15.0314 5.92664C18.0063 5.92664 18.3596 5.93814 19.5353 5.99164C20.6219 6.04112 21.2116 6.22346 21.605 6.37503C22.1254 6.57671 22.4966 6.81887 22.887 7.20869C23.2773 7.5985 23.5181 7.9703 23.7206 8.49064C23.8736 8.88295 24.0546 9.47373 24.104 10.5603C24.1581 11.7361 24.1688 12.088 24.1688 15.0643C24.1688 18.0406 24.1581 18.3925 24.104 19.5683C24.0545 20.6549 23.8726 21.2455 23.7206 21.638C23.5181 22.1583 23.2768 22.5296 22.887 22.919C22.4972 23.3085 22.1254 23.5501 21.605 23.7527C21.2127 23.9057 20.6219 24.0867 19.5353 24.1361C18.3605 24.1901 18.0076 24.2009 15.0314 24.2009C12.0551 24.2009 11.7032 24.1901 10.5287 24.1361M10.4364 3.98632C9.24998 4.04035 8.43924 4.22848 7.73121 4.50399C6.9984 4.7885 6.37721 5.1702 5.75692 5.78951C5.13662 6.40882 4.75591 7.0301 4.47139 7.7638C4.19589 8.47228 4.00776 9.28257 3.95373 10.469C3.8988 11.6574 3.88623 12.0373 3.88623 15.0639C3.88623 18.0906 3.8988 18.4705 3.95373 19.6589C4.00776 20.8454 4.19589 21.6556 4.47139 22.3641C4.75591 23.0969 5.13671 23.7193 5.75692 24.3384C6.37712 24.9574 6.9975 25.3386 7.73121 25.6239C8.44057 25.8994 9.24998 26.0875 10.4364 26.1416C11.6254 26.1956 12.0047 26.2091 15.0314 26.2091C18.058 26.2091 18.4379 26.1965 19.6263 26.1416C20.8128 26.0875 21.623 25.8994 22.3315 25.6239C23.0643 25.3386 23.6855 24.9577 24.3058 24.3384C24.9261 23.7191 25.306 23.0969 25.5913 22.3641C25.8668 21.6556 26.0558 20.8453 26.109 19.6589C26.163 18.4696 26.1756 18.0906 26.1756 15.0639C26.1756 12.0373 26.163 11.6574 26.109 10.469C26.055 9.28248 25.8668 8.47183 25.5913 7.7638C25.306 7.03099 24.9251 6.4098 24.3058 5.78951C23.6865 5.16922 23.0643 4.7885 22.3324 4.50399C21.623 4.22848 20.8127 4.03946 19.6272 3.98632C18.4386 3.93202 18.0589 3.91882 15.0327 3.91882C12.0065 3.91882 11.6259 3.9314 10.4369 3.98632" fill="white"/>
	<defs>
		<radialGradient id="paint0_radial_6717_40875" cx="0" cy="0" r="1" gradientUnits="userSpaceOnUse" gradientTransform="translate(1.94157 29.3428) scale(38.0889)">
			<stop offset="0.09" stop-color="#FA8F21"/>
			<stop offset="0.78" stop-color="#D82D7E"/>
		</radialGradient>
		<radialGradient id="paint1_radial_6717_40875" cx="0" cy="0" r="1" gradientUnits="userSpaceOnUse" gradientTransform="translate(20.78 28.3795) scale(33.5186)">
			<stop offset="0.64" stop-color="#8C3AAA" stop-opacity="0"/>
			<stop offset="1" stop-color="#8C3AAA"/>
		</radialGradient>
	</defs>
</svg>
