<svg width="36" height="30" viewBox="0 0 36 30" fill="none" xmlns="http://www.w3.org/2000/svg">
	<path fill-rule="evenodd" clip-rule="evenodd" d="M35.2174 3.55372C33.9197 4.15428 32.5274 4.56199 31.0668 4.74381C32.5588 3.80717 33.7043 2.31956 34.2401 0.550964C32.8426 1.42149 31.2979 2.04959 29.6535 2.39119C28.3347 0.92012 26.459 0 24.3785 0C20.3908 0 17.1543 3.39395 17.1543 7.57577C17.1543 8.17082 17.2173 8.74933 17.3434 9.30029C11.3381 8.98624 6.0158 5.96696 2.4536 1.38292C1.83365 2.50137 1.47638 3.80166 1.47638 5.19009C1.47638 7.8182 2.75309 10.1378 4.69181 11.4931C3.50966 11.4546 2.39582 11.113 1.41857 10.5455C1.41857 10.5785 1.41857 10.6061 1.41857 10.6391C1.41857 14.3086 3.90897 17.3719 7.21372 18.0661C6.60951 18.2369 5.96853 18.3306 5.31177 18.3306C4.84418 18.3306 4.39233 18.281 3.95099 18.1929C4.87045 21.2011 7.53946 23.3939 10.6971 23.4545C8.22248 25.4876 5.11213 26.6998 1.7233 26.6998C1.14011 26.6998 0.56743 26.6613 0 26.5952C3.19443 28.7438 6.99305 30 11.0754 30C24.3626 30 31.629 18.4573 31.629 8.4463C31.629 8.11571 31.6237 7.79065 31.608 7.46558C33.0212 6.39669 34.2454 5.06336 35.2123 3.54271L35.2174 3.55372Z" fill="#00A2F3"/>
</svg>
