<svg width="43" height="30" viewBox="0 0 43 30" fill="none" xmlns="http://www.w3.org/2000/svg">
	<path fill-rule="evenodd" clip-rule="evenodd" d="M17.1181 20.5417V8.51635C21.3871 10.5251 24.6934 12.4656 28.6038 14.5578C25.3786 16.3464 21.3871 18.3534 17.1181 20.5417ZM40.9093 2.53561C40.1729 1.56541 38.9178 0.81019 37.5816 0.560162C33.6541 -0.185659 9.15211 -0.187781 5.22675 0.560162C4.15523 0.761033 3.20108 1.24657 2.38143 2.00094C-1.0722 5.20644 0.00999895 22.3965 0.842458 25.181C1.19251 26.3863 1.64505 27.2555 2.21496 27.8261C2.94923 28.5805 3.95457 29.0999 5.10934 29.3328C8.34311 30.0017 25.0029 30.3757 37.5133 29.4333C38.6659 29.2324 39.6862 28.6963 40.4909 27.9098C43.6841 24.7171 43.4664 6.56171 40.9093 2.53561Z" fill="#FF2C1A"/>
</svg>
