<svg width="267" height="379" viewBox="0 0 267 379" fill="none" xmlns="http://www.w3.org/2000/svg">
	<mask id="mask0_939_7474" style="mask-type:alpha" maskUnits="userSpaceOnUse" x="0" y="0" width="267" height="379">
		<path d="M267 24C267 10.7452 256.255 0 243 0H24C10.7452 0 5.48363e-06 10.7452 5.48363e-06 24V355C5.48363e-06 368.255 10.7452 379 24 379H243C256.255 379 267 368.255 267 355V24Z" fill="#F7F7F7"/>
	</mask>
	<g mask="url(#mask0_939_7474)">
		<path d="M157.912 363.912L10.7772 363.912C-39.7924 363.912 -80.7873 322.917 -80.7873 272.347C-80.7873 221.778 -39.7925 180.783 10.7772 180.783L157.912 180.783C208.482 180.783 249.477 221.778 249.477 272.347C249.477 322.917 208.482 363.912 157.912 363.912Z" stroke="#5DF97F"/>
		<path d="M-97.5014 270.605C-97.5014 269.068 -97.4683 267.537 -97.403 266.016L-97.9025 265.994C-97.7694 262.897 -97.503 259.835 -97.1087 256.812L-96.613 256.877C-96.2146 253.823 -95.6853 250.811 -95.0307 247.846L-95.519 247.738C-94.853 244.722 -94.0581 241.753 -93.1402 238.84L-92.6633 238.99C-91.7404 236.06 -90.6925 233.185 -89.5261 230.372L-89.988 230.181C-88.807 227.333 -87.5049 224.548 -86.0883 221.832L-85.645 222.063C-84.2274 219.346 -82.6945 216.698 -81.0528 214.126L-81.4742 213.857C-79.8185 211.264 -78.0526 208.747 -76.1832 206.314L-75.7867 206.619C-73.9221 204.193 -71.9538 201.85 -69.8887 199.597L-70.2572 199.259C-68.1808 196.995 -66.0068 194.821 -63.7419 192.744L-63.404 193.113C-61.1515 191.047 -58.8087 189.079 -56.3822 187.215L-56.6868 186.818C-54.2541 184.949 -51.7377 183.183 -49.1441 181.527L-48.8751 181.949C-46.3033 180.307 -43.6555 178.774 -40.9379 177.356L-41.1691 176.913C-38.4533 175.496 -35.6683 174.194 -32.8204 173.013L-32.6289 173.475C-29.816 172.309 -26.9414 171.261 -24.0115 170.338L-24.1618 169.861C-21.248 168.943 -18.2798 168.148 -15.2631 167.482L-15.1553 167.971C-12.1901 167.316 -9.17783 166.787 -6.12433 166.388L-6.189 165.893C-3.16663 165.498 -0.104095 165.232 2.99298 165.099L3.01443 165.598C4.5361 165.533 6.06622 165.5 7.60406 165.5L11.872 165.5L11.872 165L20.4079 165L20.4079 165.5L28.9438 165.5L28.9438 165L37.4796 165L37.4796 165.5L46.0155 165.5L46.0155 165L54.5514 165L54.5514 165.5L63.0873 165.5L63.0873 165L71.6232 165L71.6232 165.5L80.1591 165.5L80.1591 165L88.6949 165L88.6949 165.5L97.2308 165.5L97.2308 165L105.767 165L105.767 165.5L114.303 165.5L114.303 165L122.838 165L122.838 165.5L131.374 165.5L131.374 165L139.91 165L139.91 165.5L148.446 165.5L148.446 165L156.982 165L156.982 165.5L161.25 165.5C162.788 165.5 164.318 165.533 165.84 165.598L165.861 165.099C168.958 165.232 172.021 165.498 175.043 165.893L174.978 166.388C178.032 166.787 181.044 167.316 184.009 167.971L184.117 167.482C187.134 168.148 190.102 168.943 193.016 169.861L192.866 170.338C195.795 171.261 198.67 172.309 201.483 173.475L201.674 173.013C204.522 174.194 207.307 175.496 210.023 176.913L209.792 177.356C212.509 178.774 215.157 180.307 217.729 181.949L217.998 181.527C220.592 183.183 223.108 184.949 225.541 186.818L225.236 187.215C227.663 189.079 230.006 191.047 232.258 193.113L232.596 192.744C234.861 194.821 237.035 196.995 239.111 199.259L238.743 199.597C240.808 201.85 242.776 204.193 244.641 206.619L245.037 206.314C246.907 208.747 248.673 211.264 250.328 213.857L249.907 214.126C251.549 216.698 253.082 219.346 254.499 222.063L254.942 221.832C256.359 224.548 257.661 227.333 258.842 230.181L258.38 230.372C259.547 233.185 260.594 236.06 261.517 238.99L261.994 238.84C262.912 241.753 263.707 244.722 264.373 247.738L263.885 247.846C264.539 250.811 265.069 253.823 265.467 256.877L265.963 256.812C266.357 259.835 266.624 262.897 266.757 265.994L266.257 266.016C266.322 267.537 266.355 269.068 266.355 270.605C266.355 272.143 266.322 273.673 266.257 275.195L266.757 275.216C266.624 278.314 266.357 281.376 265.963 284.398L265.467 284.334C265.069 287.387 264.539 290.399 263.885 293.365L264.373 293.472C263.707 296.489 262.912 299.457 261.994 302.371L261.517 302.221C260.594 305.151 259.547 308.025 258.38 310.838L258.842 311.03C257.661 313.878 256.359 316.663 254.942 319.379L254.499 319.147C253.082 321.865 251.549 324.513 249.907 327.084L250.328 327.354C248.673 329.947 246.907 332.464 245.037 334.896L244.641 334.592C242.776 337.018 240.808 339.361 238.743 341.613L239.111 341.951C237.035 344.216 234.861 346.39 232.596 348.467L232.258 348.098C230.006 350.163 227.663 352.131 225.236 353.996L225.541 354.393C223.108 356.262 220.592 358.028 217.998 359.684L217.729 359.262C215.157 360.904 212.51 362.437 209.792 363.854L210.023 364.298C207.307 365.714 204.522 367.016 201.675 368.197L201.483 367.735C198.67 368.902 195.796 369.95 192.866 370.873L193.016 371.35C190.102 372.267 187.134 373.062 184.117 373.728L184.009 373.24C181.044 373.895 178.032 374.424 174.978 374.822L175.043 375.318C172.021 375.712 168.958 375.979 165.861 376.112L165.84 375.612C164.318 375.678 162.788 375.711 161.25 375.711L156.982 375.711L156.982 376.211L148.446 376.211L148.446 375.711L139.91 375.711L139.91 376.211L131.374 376.211L131.374 375.711L122.839 375.711L122.839 376.211L114.303 376.211L114.303 375.711L105.767 375.711L105.767 376.211L97.2309 376.211L97.2309 375.711L88.695 375.711L88.695 376.211L80.1592 376.211L80.1592 375.711L71.6233 375.711L71.6233 376.211L63.0874 376.211L63.0874 375.711L54.5515 375.711L54.5515 376.211L46.0156 376.211L46.0156 375.711L37.4798 375.711L37.4798 376.211L28.9439 376.211L28.9439 375.711L20.408 375.711L20.408 376.211L11.8721 376.211L11.8721 375.711L7.60417 375.711C6.06633 375.711 4.53624 375.678 3.01457 375.612L2.99309 376.112C-0.10402 375.979 -3.16652 375.712 -6.18889 375.318L-6.12422 374.822C-9.17772 374.424 -12.19 373.895 -15.1552 373.24L-15.263 373.728C-18.2796 373.062 -21.2479 372.267 -24.1617 371.35L-24.0115 370.873C-26.9414 369.95 -29.8159 368.902 -32.6288 367.735L-32.8203 368.197C-35.6682 367.016 -38.4533 365.714 -41.169 364.298L-40.9378 363.854C-43.6554 362.437 -46.3033 360.904 -48.875 359.262L-49.1441 359.684C-51.7376 358.028 -54.254 356.262 -56.6868 354.393L-56.3821 353.996C-58.8086 352.131 -61.1514 350.163 -63.404 348.098L-63.7419 348.467C-66.0067 346.39 -68.1807 344.216 -70.2572 341.951L-69.8887 341.613C-71.9538 339.361 -73.922 337.018 -75.7867 334.592L-76.1832 334.896C-78.0526 332.464 -79.8185 329.947 -81.4742 327.354L-81.0527 327.084C-82.6945 324.513 -84.2274 321.865 -85.645 319.147L-86.0883 319.379C-87.5049 316.663 -88.8069 313.878 -89.9879 311.03L-89.5261 310.838C-90.6925 308.025 -91.7404 305.151 -92.6633 302.221L-93.1402 302.371C-94.0581 299.457 -94.853 296.489 -95.519 293.472L-95.0307 293.365C-95.6853 290.399 -96.2146 287.387 -96.613 284.334L-97.1087 284.398C-97.503 281.376 -97.7694 278.314 -97.9025 275.216L-97.403 275.195C-97.4683 273.673 -97.5014 272.143 -97.5014 270.605Z" stroke="#5DF97F" stroke-dasharray="9 9"/>
		<path d="M255.912 152.912L108.777 152.912C58.2076 152.912 17.2127 111.917 17.2127 61.3472C17.2127 10.7775 58.2075 -30.2173 108.777 -30.2173L255.912 -30.2173C306.482 -30.2173 347.477 10.7775 347.477 61.3472C347.477 111.917 306.482 152.912 255.912 152.912Z" stroke="#5DF97F"/>
		<path d="M0.498649 59.6054C0.498649 58.0675 0.531669 56.5374 0.597038 55.0158L0.0974959 54.9943C0.230553 51.8972 0.497002 48.8347 0.891259 45.8123L1.38705 45.877C1.78536 42.8235 2.31472 39.8112 2.96929 36.846L2.48104 36.7383C3.147 33.7216 3.94192 30.7533 4.85977 27.8395L5.33666 27.9898C6.25961 25.0599 7.30746 22.1853 8.4739 19.3724L8.01205 19.1809C9.19302 16.333 10.4951 13.5479 11.9117 10.8322L12.355 11.0634C13.7726 8.34584 15.3055 5.69794 16.9472 3.12622L16.5258 2.85718C18.1815 0.263609 19.9474 -2.25282 21.8168 -4.68553L22.2133 -4.38087C24.0779 -6.80738 26.0462 -9.15021 28.1113 -11.4027L27.7428 -11.7406C29.8192 -14.0055 31.9932 -16.1795 34.2581 -18.2559L34.596 -17.8874C36.8485 -19.9525 39.1913 -21.9207 41.6178 -23.7854L41.3132 -24.1819C43.7459 -26.0513 46.2623 -27.8172 48.8559 -29.4729L49.1249 -29.0514C51.6967 -30.6932 54.3445 -32.2261 57.0621 -33.6437L56.8309 -34.087C59.5467 -35.5036 62.3317 -36.8056 65.1796 -37.9866L65.3711 -37.5248C68.184 -38.6912 71.0586 -39.739 73.9885 -40.662L73.8382 -41.1389C76.752 -42.0567 79.7202 -42.8517 82.7369 -43.5176L82.8447 -43.0294C85.8099 -43.6839 88.8222 -44.2133 91.8757 -44.6116L91.811 -45.1074C94.8334 -45.5016 97.8959 -45.7681 100.993 -45.9011L101.014 -45.4016C102.536 -45.467 104.066 -45.5 105.604 -45.5L109.872 -45.5L109.872 -46L118.408 -46L118.408 -45.5L126.944 -45.5L126.944 -46L135.48 -46L135.48 -45.5L144.016 -45.5L144.016 -46L152.551 -46L152.551 -45.5L161.087 -45.5L161.087 -46L169.623 -46L169.623 -45.5L178.159 -45.5L178.159 -46L186.695 -46L186.695 -45.5L195.231 -45.5L195.231 -46L203.767 -46L203.767 -45.5L212.303 -45.5L212.303 -46L220.838 -46L220.838 -45.5L229.374 -45.5L229.374 -46L237.91 -46L237.91 -45.5L246.446 -45.5L246.446 -46L254.982 -46L254.982 -45.5L259.25 -45.5C260.788 -45.5 262.318 -45.467 263.84 -45.4016L263.861 -45.9011C266.958 -45.7681 270.021 -45.5016 273.043 -45.1074L272.978 -44.6116C276.032 -44.2133 279.044 -43.6839 282.009 -43.0294L282.117 -43.5176C285.134 -42.8517 288.102 -42.0567 291.016 -41.1389L290.866 -40.662C293.795 -39.739 296.67 -38.6912 299.483 -37.5248L299.674 -37.9866C302.522 -36.8056 305.307 -35.5036 308.023 -34.087L307.792 -33.6437C310.509 -32.2261 313.157 -30.6932 315.729 -29.0514L315.998 -29.4729C318.592 -27.8172 321.108 -26.0513 323.541 -24.1819L323.236 -23.7854C325.663 -21.9207 328.006 -19.9525 330.258 -17.8874L330.596 -18.2559C332.861 -16.1795 335.035 -14.0055 337.111 -11.7406L336.743 -11.4027C338.808 -9.1502 340.776 -6.80737 342.641 -4.38086L343.037 -4.68552C344.907 -2.25282 346.673 0.263607 348.328 2.85718L347.907 3.12622C349.549 5.69794 351.082 8.34584 352.499 11.0634L352.942 10.8322C354.359 13.5479 355.661 16.333 356.842 19.1809L356.38 19.3724C357.547 22.1853 358.594 25.0599 359.517 27.9898L359.994 27.8395C360.912 30.7533 361.707 33.7215 362.373 36.7382L361.885 36.846C362.539 39.8112 363.069 42.8235 363.467 45.877L363.963 45.8123C364.357 48.8347 364.624 51.8972 364.757 54.9943L364.257 55.0157C364.322 56.5374 364.355 58.0675 364.355 59.6054C364.355 61.1432 364.322 62.6733 364.257 64.1949L364.757 64.2164C364.624 67.3135 364.357 70.376 363.963 73.3984L363.467 73.3337C363.069 76.3872 362.539 79.3995 361.885 82.3647L362.373 82.4725C361.707 85.4892 360.912 88.4574 359.994 91.3712L359.517 91.221C358.594 94.1509 357.547 97.0254 356.38 99.8383L356.842 100.03C355.661 102.878 354.359 105.663 352.942 108.379L352.499 108.147C351.082 110.865 349.549 113.513 347.907 116.084L348.328 116.354C346.673 118.947 344.907 121.464 343.037 123.896L342.641 123.592C340.776 126.018 338.808 128.361 336.743 130.613L337.111 130.951C335.035 133.216 332.861 135.39 330.596 137.467L330.258 137.098C328.006 139.163 325.663 141.131 323.236 142.996L323.541 143.393C321.108 145.262 318.592 147.028 315.998 148.684L315.729 148.262C313.157 149.904 310.51 151.437 307.792 152.854L308.023 153.298C305.307 154.714 302.522 156.016 299.675 157.197L299.483 156.735C296.67 157.902 293.796 158.95 290.866 159.873L291.016 160.35C288.102 161.267 285.134 162.062 282.117 162.728L282.009 162.24C279.044 162.895 276.032 163.424 272.978 163.822L273.043 164.318C270.021 164.712 266.958 164.979 263.861 165.112L263.84 164.612C262.318 164.678 260.788 164.711 259.25 164.711L254.982 164.711L254.982 165.211L246.446 165.211L246.446 164.711L237.91 164.711L237.91 165.211L229.374 165.211L229.374 164.711L220.839 164.711L220.839 165.211L212.303 165.211L212.303 164.711L203.767 164.711L203.767 165.211L195.231 165.211L195.231 164.711L186.695 164.711L186.695 165.211L178.159 165.211L178.159 164.711L169.623 164.711L169.623 165.211L161.087 165.211L161.087 164.711L152.552 164.711L152.552 165.211L144.016 165.211L144.016 164.711L135.48 164.711L135.48 165.211L126.944 165.211L126.944 164.711L118.408 164.711L118.408 165.211L109.872 165.211L109.872 164.711L105.604 164.711C104.066 164.711 102.536 164.678 101.015 164.612L100.993 165.112C97.896 164.979 94.8335 164.712 91.8111 164.318L91.8758 163.822C88.8223 163.424 85.81 162.895 82.8448 162.24L82.737 162.728C79.7204 162.062 76.7521 161.267 73.8383 160.35L73.9885 159.873C71.0586 158.95 68.1841 157.902 65.3712 156.735L65.1797 157.197C62.3318 156.016 59.5467 154.714 56.831 153.298L57.0622 152.854C54.3446 151.437 51.6967 149.904 49.125 148.262L48.8559 148.684C46.2624 147.028 43.746 145.262 41.3132 143.393L41.6179 142.996C39.1914 141.131 36.8486 139.163 34.596 137.098L34.2581 137.467C31.9933 135.39 29.8193 133.216 27.7428 130.951L28.1113 130.613C26.0462 128.361 24.078 126.018 22.2133 123.592L21.8168 123.896C19.9474 121.464 18.1815 118.947 16.5258 116.354L16.9473 116.084C15.3055 113.513 13.7726 110.865 12.355 108.147L11.9117 108.379C10.4951 105.663 9.19307 102.878 8.01207 100.03L8.47393 99.8383C7.30745 97.0254 6.25963 94.1509 5.33669 91.2209L4.85979 91.3712C3.94195 88.4574 3.14699 85.4892 2.48104 82.4725L2.96929 82.3647C2.31472 79.3995 1.78536 76.3872 1.38705 73.3337L0.891257 73.3984C0.497 70.3761 0.230552 67.3135 0.0974951 64.2164L0.597037 64.195C0.531669 62.6733 0.498649 61.1432 0.498649 59.6054Z" stroke="#5DF97F" stroke-dasharray="9 9"/>
	</g>
</svg>
