<svg width="267" height="87" viewBox="0 0 267 87" fill="none" xmlns="http://www.w3.org/2000/svg">
	<mask id="mask0_939_7482" style="mask-type:alpha" maskUnits="userSpaceOnUse" x="0" y="0" width="267" height="87">
		<path d="M267 24C267 10.7452 256.255 0 243 0H24C10.7452 0 5.48363e-06 10.7452 5.48363e-06 24V63C5.48363e-06 76.2548 10.7452 87 24 87H243C256.255 87 267 76.2548 267 63V24Z" fill="#F7F7F7"/>
	</mask>
	<g mask="url(#mask0_939_7482)">
		<path d="M332.23 -23.0576L332.23 124.077C332.23 174.647 291.236 215.642 240.666 215.642C190.096 215.642 149.102 174.647 149.102 124.077L149.102 -23.0576C149.102 -73.6272 190.096 -114.622 240.666 -114.622C291.236 -114.622 332.23 -73.6273 332.23 -23.0576Z" stroke="#B06BF5"/>
		<path d="M238.926 232.357C237.388 232.357 235.858 232.324 234.336 232.258L234.315 232.758C231.218 232.625 228.155 232.358 225.133 231.964L225.197 231.468C222.144 231.07 219.132 230.541 216.166 229.886L216.059 230.374C213.042 229.708 210.074 228.914 207.16 227.996L207.31 227.519C204.38 226.596 201.506 225.548 198.693 224.382L198.501 224.843C195.653 223.662 192.868 222.36 190.153 220.944L190.384 220.5C187.666 219.083 185.018 217.55 182.447 215.908L182.178 216.33C179.584 214.674 177.068 212.908 174.635 211.039L174.939 210.642C172.513 208.778 170.17 206.809 167.918 204.744L167.58 205.113C165.315 203.036 163.141 200.862 161.064 198.597L161.433 198.259C159.368 196.007 157.4 193.664 155.535 191.238L155.138 191.542C153.269 189.11 151.503 186.593 149.847 184L150.269 183.731C148.627 181.159 147.094 178.511 145.677 175.793L145.233 176.025C143.817 173.309 142.515 170.524 141.334 167.676L141.796 167.484C140.629 164.671 139.581 161.797 138.658 158.867L138.181 159.017C137.264 156.103 136.469 153.135 135.803 150.119L136.291 150.011C135.636 147.046 135.107 144.033 134.709 140.98L134.213 141.044C133.819 138.022 133.552 134.96 133.419 131.862L133.919 131.841C133.853 130.319 133.82 128.789 133.82 127.251L133.82 122.983L133.32 122.983L133.32 114.448L133.82 114.448L133.82 105.912L133.32 105.912L133.32 97.3758L133.82 97.3758L133.82 88.8399L133.32 88.8399L133.32 80.304L133.82 80.304L133.82 71.7682L133.32 71.7682L133.32 63.2323L133.82 63.2323L133.82 54.6964L133.32 54.6964L133.32 46.1605L133.82 46.1605L133.82 37.6246L133.32 37.6246L133.32 29.0888L133.82 29.0888L133.82 20.5529L133.32 20.5529L133.32 12.017L133.82 12.017L133.82 3.48112L133.32 3.48112L133.32 -5.05476L133.82 -5.05476L133.82 -13.5907L133.32 -13.5907L133.32 -22.1265L133.82 -22.1265L133.82 -26.3945C133.82 -27.9323 133.853 -29.4624 133.919 -30.9841L133.419 -31.0055C133.552 -34.1026 133.819 -37.1652 134.213 -40.1875L134.709 -40.1229C135.107 -43.1764 135.636 -46.1886 136.291 -49.1538L135.803 -49.2616C136.469 -52.2783 137.264 -55.2466 138.181 -58.1603L138.658 -58.0101C139.581 -60.94 140.629 -63.8145 141.796 -66.6274L141.334 -66.819C142.515 -69.6669 143.817 -72.4519 145.233 -75.1677L145.677 -74.9364C147.094 -77.654 148.627 -80.3019 150.269 -82.8736L149.847 -83.1427C151.503 -85.7363 153.269 -88.2527 155.138 -90.6854L155.535 -90.3807C157.4 -92.8073 159.368 -95.1501 161.433 -97.4026L161.064 -97.7405C163.141 -100.005 165.315 -102.179 167.58 -104.256L167.918 -103.887C170.17 -105.952 172.513 -107.921 174.939 -109.785L174.635 -110.182C177.067 -112.051 179.584 -113.817 182.177 -115.473L182.447 -115.051C185.018 -116.693 187.666 -118.226 190.384 -119.644L190.153 -120.087C192.868 -121.504 195.653 -122.806 198.501 -123.987L198.693 -123.525C201.506 -124.691 204.38 -125.739 207.31 -126.662L207.16 -127.139C210.074 -128.057 213.042 -128.852 216.059 -129.518L216.166 -129.029C219.132 -129.684 222.144 -130.213 225.197 -130.612L225.133 -131.107C228.155 -131.502 231.217 -131.768 234.315 -131.901L234.336 -131.402C235.858 -131.467 237.388 -131.5 238.926 -131.5C240.464 -131.5 241.994 -131.467 243.515 -131.402L243.537 -131.901C246.634 -131.768 249.696 -131.502 252.719 -131.107L252.654 -130.612C255.708 -130.213 258.72 -129.684 261.685 -129.029L261.793 -129.518C264.809 -128.852 267.778 -128.057 270.691 -127.139L270.541 -126.662C273.471 -125.739 276.346 -124.691 279.159 -123.525L279.35 -123.987C282.198 -122.806 284.983 -121.504 287.699 -120.087L287.468 -119.644C290.185 -118.226 292.833 -116.693 295.405 -115.051L295.674 -115.473C298.267 -113.817 300.784 -112.051 303.217 -110.182L302.912 -109.785C305.338 -107.921 307.681 -105.952 309.934 -103.887L310.272 -104.256C312.537 -102.179 314.71 -100.005 316.787 -97.7406L316.418 -97.4027C318.484 -95.1502 320.452 -92.8073 322.316 -90.3808L322.713 -90.6855C324.582 -88.2528 326.348 -85.7363 328.004 -83.1428L327.582 -82.8737C329.224 -80.302 330.757 -77.6541 332.175 -74.9365L332.618 -75.1678C334.035 -72.452 335.337 -69.667 336.518 -66.819L336.056 -66.6275C337.222 -63.8146 338.27 -60.9401 339.193 -58.0102L339.67 -58.1604C340.588 -55.2467 341.383 -52.2784 342.049 -49.2617L341.56 -49.1539C342.215 -46.1887 342.744 -43.1765 343.143 -40.123L343.638 -40.1877C344.033 -37.1653 344.299 -34.1028 344.432 -31.0057L343.933 -30.9842C343.998 -29.4625 344.031 -27.9324 344.031 -26.3946L344.031 -22.1267L344.531 -22.1267L344.531 -13.5908L344.031 -13.5908L344.031 -5.05489L344.531 -5.05489L344.531 3.48099L344.031 3.48099L344.031 12.0169L344.531 12.0169L344.531 20.5528L344.031 20.5528L344.031 29.0887L344.531 29.0887L344.531 37.6245L344.031 37.6245L344.031 46.1604L344.531 46.1604L344.531 54.6963L344.031 54.6963L344.031 63.2322L344.531 63.2322L344.531 71.7681L344.031 71.7681L344.031 80.3039L344.531 80.3039L344.531 88.8398L344.031 88.8398L344.031 97.3757L344.531 97.3757L344.531 105.912L344.031 105.912L344.031 114.447L344.531 114.447L344.531 122.983L344.031 122.983L344.031 127.251C344.031 128.789 343.998 130.319 343.933 131.841L344.432 131.862C344.299 134.959 344.033 138.022 343.638 141.044L343.143 140.98C342.744 144.033 342.215 147.045 341.56 150.011L342.049 150.118C341.383 153.135 340.588 156.103 339.67 159.017L339.193 158.867C338.27 161.797 337.222 164.671 336.056 167.484L336.518 167.676C335.337 170.524 334.035 173.309 332.618 176.024L332.175 175.793C330.757 178.511 329.224 181.159 327.582 183.73L328.004 184C326.348 186.593 324.582 189.11 322.713 191.542L322.316 191.238C320.452 193.664 318.484 196.007 316.418 198.259L316.787 198.597C314.711 200.862 312.537 203.036 310.272 205.113L309.934 204.744C307.681 206.809 305.338 208.778 302.912 210.642L303.217 211.039C300.784 212.908 298.267 214.674 295.674 216.33L295.405 215.908C292.833 217.55 290.185 219.083 287.468 220.5L287.699 220.944C284.983 222.36 282.198 223.662 279.35 224.843L279.159 224.382C276.346 225.548 273.471 226.596 270.541 227.519L270.692 227.996C267.778 228.914 264.809 229.708 261.793 230.374L261.685 229.886C258.72 230.541 255.708 231.07 252.654 231.468L252.719 231.964C249.696 232.358 246.634 232.625 243.537 232.758L243.515 232.258C241.994 232.324 240.464 232.357 238.926 232.357Z" stroke="#B06BF5" stroke-dasharray="9 9"/>
		<path d="M121.23 -121.058L121.23 26.0773C121.23 76.6469 80.2357 117.642 29.666 117.642C-20.9036 117.642 -61.8984 76.647 -61.8984 26.0773L-61.8984 -121.058C-61.8984 -171.627 -20.9036 -212.622 29.666 -212.622C80.2357 -212.622 121.23 -171.627 121.23 -121.058Z" stroke="#B06BF5"/>
		<path d="M27.9257 134.357C26.3879 134.357 24.8578 134.324 23.3361 134.258L23.3146 134.758C20.2175 134.625 17.155 134.358 14.1326 133.964L14.1973 133.468C11.1438 133.07 8.13156 132.541 5.16636 131.886L5.05858 132.374C2.04188 131.708 -0.926389 130.914 -3.84014 129.996L-3.68992 129.519C-6.61982 128.596 -9.49434 127.548 -12.3072 126.382L-12.4988 126.843C-15.3467 125.662 -18.1317 124.36 -20.8475 122.944L-20.6162 122.5C-23.3338 121.083 -25.9817 119.55 -28.5534 117.908L-28.8225 118.33C-31.4161 116.674 -33.9325 114.908 -36.3652 113.039L-36.0605 112.642C-38.4871 110.778 -40.8299 108.809 -43.0824 106.744L-43.4203 107.113C-45.6852 105.036 -47.8591 102.862 -49.9356 100.597L-49.5671 100.259C-51.6322 98.007 -53.6004 95.6642 -55.4651 93.2376L-55.8616 93.5423C-57.731 91.1096 -59.4968 88.5932 -61.1525 85.9996L-60.7311 85.7306C-62.3729 83.1588 -63.9058 80.5109 -65.3234 77.7933L-65.7667 78.0246C-67.1833 75.3088 -68.4853 72.5238 -69.6663 69.6759L-69.2044 69.4843C-70.3709 66.6714 -71.4187 63.7969 -72.3417 60.867L-72.8185 61.0172C-73.7364 58.1035 -74.5313 55.1352 -75.1973 52.1185L-74.709 52.0107C-75.3636 49.0456 -75.893 46.0333 -76.2913 42.9798L-76.7871 43.0445C-77.1813 40.0221 -77.4478 36.9596 -77.5808 33.8625L-77.0813 33.841C-77.1467 32.3194 -77.1797 30.7892 -77.1797 29.2514L-77.1797 24.9835L-77.6797 24.9835L-77.6797 16.4476L-77.1797 16.4476L-77.1797 7.91171L-77.6797 7.91171L-77.6797 -0.624176L-77.1797 -0.624176L-77.1797 -9.16006L-77.6797 -9.16006L-77.6797 -17.696L-77.1797 -17.696L-77.1797 -26.2318L-77.6797 -26.2318L-77.6797 -34.7677L-77.1797 -34.7677L-77.1797 -43.3036L-77.6797 -43.3036L-77.6797 -51.8395L-77.1797 -51.8395L-77.1797 -60.3754L-77.6797 -60.3754L-77.6797 -68.9112L-77.1797 -68.9112L-77.1797 -77.4471L-77.6797 -77.4471L-77.6797 -85.983L-77.1797 -85.983L-77.1797 -94.5189L-77.6797 -94.5189L-77.6797 -103.055L-77.1797 -103.055L-77.1797 -111.591L-77.6797 -111.591L-77.6797 -120.127L-77.1797 -120.127L-77.1797 -124.394C-77.1797 -125.932 -77.1467 -127.462 -77.0813 -128.984L-77.5808 -129.006C-77.4478 -132.103 -77.1813 -135.165 -76.7871 -138.188L-76.2913 -138.123C-75.893 -141.176 -75.3636 -144.189 -74.709 -147.154L-75.1973 -147.262C-74.5314 -150.278 -73.7364 -153.247 -72.8186 -156.16L-72.3417 -156.01C-71.4187 -158.94 -70.3709 -161.815 -69.2044 -164.627L-69.6663 -164.819C-68.4853 -167.667 -67.1833 -170.452 -65.7667 -173.168L-65.3234 -172.936C-63.9058 -175.654 -62.3729 -178.302 -60.7311 -180.874L-61.1526 -181.143C-59.4969 -183.736 -57.731 -186.253 -55.8616 -188.685L-55.4651 -188.381C-53.6004 -190.807 -51.6322 -193.15 -49.5671 -195.403L-49.9356 -195.741C-47.8592 -198.005 -45.6852 -200.179 -43.4203 -202.256L-43.0824 -201.887C-40.8299 -203.952 -38.4871 -205.921 -36.0605 -207.785L-36.3652 -208.182C-33.9325 -210.051 -31.4161 -211.817 -28.8225 -213.473L-28.5535 -213.051C-25.9817 -214.693 -23.3338 -216.226 -20.6163 -217.644L-20.8475 -218.087C-18.1317 -219.504 -15.3467 -220.806 -12.4988 -221.987L-12.3073 -221.525C-9.49435 -222.691 -6.61983 -223.739 -3.68993 -224.662L-3.84016 -225.139C-0.926407 -226.057 2.04186 -226.852 5.05856 -227.518L5.16634 -227.029C8.13153 -227.684 11.1438 -228.213 14.1973 -228.612L14.1326 -229.107C17.155 -229.502 20.2175 -229.768 23.3146 -229.901L23.336 -229.402C24.8577 -229.467 26.3878 -229.5 27.9257 -229.5C29.4635 -229.5 30.9936 -229.467 32.5153 -229.402L32.5367 -229.901C35.6338 -229.768 38.6964 -229.502 41.7187 -229.107L41.654 -228.612C44.7075 -228.213 47.7198 -227.684 50.685 -227.029L50.7928 -227.518C53.8095 -226.852 56.7778 -226.057 59.6915 -225.139L59.5413 -224.662C62.4712 -223.739 65.3457 -222.691 68.1586 -221.525L68.3501 -221.987C71.198 -220.806 73.9831 -219.504 76.6988 -218.087L76.4676 -217.644C79.1852 -216.226 81.8331 -214.693 84.4048 -213.051L84.6738 -213.473C87.2674 -211.817 89.7839 -210.051 92.2166 -208.182L91.9119 -207.785C94.3384 -205.921 96.6812 -203.952 98.9337 -201.887L99.2717 -202.256C101.537 -200.179 103.71 -198.005 105.787 -195.741L105.418 -195.403C107.484 -193.15 109.452 -190.807 111.316 -188.381L111.713 -188.685C113.582 -186.253 115.348 -183.736 117.004 -181.143L116.582 -180.874C118.224 -178.302 119.757 -175.654 121.175 -172.937L121.618 -173.168C123.035 -170.452 124.337 -167.667 125.518 -164.819L125.056 -164.628C126.222 -161.815 127.27 -158.94 128.193 -156.01L128.67 -156.16C129.588 -153.247 130.383 -150.278 131.049 -147.262L130.56 -147.154C131.215 -144.189 131.744 -141.176 132.143 -138.123L132.638 -138.188C133.033 -135.165 133.299 -132.103 133.432 -129.006L132.933 -128.984C132.998 -127.463 133.031 -125.932 133.031 -124.395L133.031 -120.127L133.531 -120.127L133.531 -111.591L133.031 -111.591L133.031 -103.055L133.531 -103.055L133.531 -94.519L133.031 -94.519L133.031 -85.9831L133.531 -85.9831L133.531 -77.4472L133.031 -77.4472L133.031 -68.9113L133.531 -68.9113L133.531 -60.3755L133.031 -60.3755L133.031 -51.8396L133.531 -51.8396L133.531 -43.3037L133.031 -43.3037L133.031 -34.7678L133.531 -34.7678L133.531 -26.2319L133.031 -26.2319L133.031 -17.6961L133.531 -17.6961L133.531 -9.16018L133.031 -9.16018L133.031 -0.624306L133.531 -0.624306L133.531 7.91158L133.031 7.91158L133.031 16.4475L133.531 16.4475L133.531 24.9834L133.031 24.9834L133.031 29.2513C133.031 30.7891 132.998 32.3192 132.933 33.8409L133.432 33.8624C133.299 36.9595 133.033 40.022 132.638 43.0443L132.143 42.9797C131.744 46.0332 131.215 49.0454 130.56 52.0106L131.049 52.1184C130.383 55.1351 129.588 58.1034 128.67 61.0171L128.193 60.8669C127.27 63.7968 126.222 66.6713 125.056 69.4843L125.518 69.6758C124.337 72.5237 123.035 75.3087 121.618 78.0245L121.175 77.7933C119.757 80.5108 118.224 83.1588 116.582 85.7305L117.004 85.9995C115.348 88.5931 113.582 91.1095 111.713 93.5422L111.316 93.2376C109.452 95.6641 107.484 98.0069 105.418 100.259L105.787 100.597C103.711 102.862 101.537 105.036 99.2717 107.113L98.9338 106.744C96.6812 108.809 94.3384 110.778 91.9119 112.642L92.2166 113.039C89.7839 114.908 87.2674 116.674 84.6739 118.33L84.4048 117.908C81.8331 119.55 79.1852 121.083 76.4676 122.5L76.6989 122.944C73.9831 124.36 71.1981 125.662 68.3501 126.843L68.1586 126.382C65.3457 127.548 62.4712 128.596 59.5413 129.519L59.6915 129.996C56.7778 130.914 53.8095 131.708 50.7928 132.374L50.685 131.886C47.7198 132.541 44.7076 133.07 41.6541 133.468L41.7187 133.964C38.6964 134.358 35.6339 134.625 32.5368 134.758L32.5153 134.258C30.9936 134.324 29.4635 134.357 27.9257 134.357Z" stroke="#B06BF5" stroke-dasharray="9 9"/>
	</g>
</svg>
