<svg width="267" height="87" viewBox="0 0 267 87" fill="none" xmlns="http://www.w3.org/2000/svg">
	<mask id="mask0_939_7497" style="mask-type:alpha" maskUnits="userSpaceOnUse" x="0" y="0" width="267" height="87">
		<path d="M267 24C267 10.7452 256.255 0 243 0H24C10.7452 0 5.48363e-06 10.7452 5.48363e-06 24V63C5.48363e-06 76.2548 10.7452 87 24 87H243C256.255 87 267 76.2548 267 63V24Z" fill="#F7F7F7"/>
	</mask>
	<g mask="url(#mask0_939_7497)">
		<path d="M132.912 242.912L-14.2228 242.912C-64.7924 242.912 -105.787 201.917 -105.787 151.347C-105.787 100.778 -64.7925 59.7827 -14.2228 59.7827L132.912 59.7827C183.482 59.7827 224.477 100.778 224.477 151.347C224.477 201.917 183.482 242.912 132.912 242.912Z" stroke="#B06BF5"/>
		<path d="M-122.501 149.605C-122.501 148.068 -122.468 146.537 -122.403 145.016L-122.903 144.994C-122.769 141.897 -122.503 138.835 -122.109 135.812L-121.613 135.877C-121.215 132.823 -120.685 129.811 -120.031 126.846L-120.519 126.738C-119.853 123.722 -119.058 120.753 -118.14 117.84L-117.663 117.99C-116.74 115.06 -115.693 112.185 -114.526 109.372L-114.988 109.181C-113.807 106.333 -112.505 103.548 -111.088 100.832L-110.645 101.063C-109.227 98.3458 -107.695 95.6979 -106.053 93.1262L-106.474 92.8572C-104.819 90.2636 -103.053 87.7472 -101.183 85.3145L-100.787 85.6191C-98.9221 83.1926 -96.9538 80.8498 -94.8887 78.5973L-95.2572 78.2594C-93.1808 75.9945 -91.0068 73.8205 -88.7419 71.7441L-88.404 72.1126C-86.1515 70.0475 -83.8087 68.0793 -81.3822 66.2146L-81.6868 65.8181C-79.2541 63.9487 -76.7377 62.1828 -74.1441 60.5271L-73.8751 60.9486C-71.3033 59.3068 -68.6555 57.7739 -65.9379 56.3563L-66.1691 55.913C-63.4533 54.4964 -60.6683 53.1944 -57.8204 52.0134L-57.6289 52.4752C-54.816 51.3088 -51.9414 50.261 -49.0115 49.338L-49.1618 48.8611C-46.248 47.9433 -43.2798 47.1483 -40.2631 46.4824L-40.1553 46.9706C-37.1901 46.3161 -34.1778 45.7867 -31.1243 45.3884L-31.189 44.8926C-28.1666 44.4984 -25.1041 44.2319 -22.007 44.0989L-21.9856 44.5984C-20.4639 44.533 -18.9338 44.5 -17.3959 44.5L-13.128 44.5L-13.128 44L-4.59212 44L-4.59212 44.5L3.94376 44.5L3.94376 44L12.4796 44L12.4796 44.5L21.0155 44.5L21.0155 44L29.5514 44L29.5514 44.5L38.0873 44.5L38.0873 44L46.6232 44L46.6232 44.5L55.1591 44.5L55.1591 44L63.6949 44L63.6949 44.5L72.2308 44.5L72.2308 44L80.7667 44L80.7667 44.5L89.3026 44.5L89.3026 44L97.8385 44L97.8385 44.5L106.374 44.5L106.374 44L114.91 44L114.91 44.5L123.446 44.5L123.446 44L131.982 44L131.982 44.5L136.25 44.5C137.788 44.5 139.318 44.533 140.84 44.5984L140.861 44.0989C143.958 44.2319 147.021 44.4984 150.043 44.8926L149.978 45.3884C153.032 45.7867 156.044 46.3161 159.009 46.9706L159.117 46.4824C162.134 47.1483 165.102 47.9433 168.016 48.8611L167.866 49.338C170.795 50.261 173.67 51.3088 176.483 52.4752L176.674 52.0134C179.522 53.1944 182.307 54.4964 185.023 55.913L184.792 56.3563C187.509 57.7739 190.157 59.3068 192.729 60.9486L192.998 60.5271C195.592 62.1828 198.108 63.9487 200.541 65.8181L200.236 66.2146C202.663 68.0793 205.006 70.0475 207.258 72.1126L207.596 71.7441C209.861 73.8205 212.035 75.9945 214.111 78.2594L213.743 78.5973C215.808 80.8498 217.776 83.1926 219.641 85.6191L220.037 85.3145C221.907 87.7472 223.673 90.2636 225.328 92.8572L224.907 93.1262C226.549 95.6979 228.082 98.3458 229.499 101.063L229.942 100.832C231.359 103.548 232.661 106.333 233.842 109.181L233.38 109.372C234.547 112.185 235.594 115.06 236.517 117.99L236.994 117.84C237.912 120.753 238.707 123.722 239.373 126.738L238.885 126.846C239.539 129.811 240.069 132.823 240.467 135.877L240.963 135.812C241.357 138.835 241.624 141.897 241.757 144.994L241.257 145.016C241.322 146.537 241.355 148.068 241.355 149.605C241.355 151.143 241.322 152.673 241.257 154.195L241.757 154.216C241.624 157.314 241.357 160.376 240.963 163.398L240.467 163.334C240.069 166.387 239.539 169.399 238.885 172.365L239.373 172.472C238.707 175.489 237.912 178.457 236.994 181.371L236.517 181.221C235.594 184.151 234.547 187.025 233.38 189.838L233.842 190.03C232.661 192.878 231.359 195.663 229.942 198.379L229.499 198.147C228.082 200.865 226.549 203.513 224.907 206.084L225.328 206.354C223.673 208.947 221.907 211.464 220.037 213.896L219.641 213.592C217.776 216.018 215.808 218.361 213.743 220.613L214.111 220.951C212.035 223.216 209.861 225.39 207.596 227.467L207.258 227.098C205.006 229.163 202.663 231.131 200.236 232.996L200.541 233.393C198.108 235.262 195.592 237.028 192.998 238.684L192.729 238.262C190.157 239.904 187.51 241.437 184.792 242.854L185.023 243.298C182.307 244.714 179.522 246.016 176.675 247.197L176.483 246.735C173.67 247.902 170.796 248.95 167.866 249.873L168.016 250.35C165.102 251.267 162.134 252.062 159.117 252.728L159.009 252.24C156.044 252.895 153.032 253.424 149.978 253.822L150.043 254.318C147.021 254.712 143.958 254.979 140.861 255.112L140.84 254.612C139.318 254.678 137.788 254.711 136.25 254.711L131.982 254.711L131.982 255.211L123.446 255.211L123.446 254.711L114.91 254.711L114.91 255.211L106.374 255.211L106.374 254.711L97.8386 254.711L97.8386 255.211L89.3027 255.211L89.3027 254.711L80.7668 254.711L80.7668 255.211L72.2309 255.211L72.2309 254.711L63.695 254.711L63.695 255.211L55.1592 255.211L55.1592 254.711L46.6233 254.711L46.6233 255.211L38.0874 255.211L38.0874 254.711L29.5515 254.711L29.5515 255.211L21.0156 255.211L21.0156 254.711L12.4798 254.711L12.4798 255.211L3.94388 255.211L3.94388 254.711L-4.59201 254.711L-4.59201 255.211L-13.1279 255.211L-13.1279 254.711L-17.3958 254.711C-18.9337 254.711 -20.4638 254.678 -21.9854 254.612L-22.0069 255.112C-25.104 254.979 -28.1665 254.712 -31.1889 254.318L-31.1242 253.822C-34.1777 253.424 -37.19 252.895 -40.1552 252.24L-40.263 252.728C-43.2796 252.062 -46.2479 251.267 -49.1617 250.35L-49.0115 249.873C-51.9414 248.95 -54.8159 247.902 -57.6288 246.735L-57.8203 247.197C-60.6682 246.016 -63.4533 244.714 -66.169 243.298L-65.9378 242.854C-68.6554 241.437 -71.3033 239.904 -73.875 238.262L-74.1441 238.684C-76.7376 237.028 -79.254 235.262 -81.6868 233.393L-81.3821 232.996C-83.8086 231.131 -86.1514 229.163 -88.404 227.098L-88.7419 227.467C-91.0067 225.39 -93.1807 223.216 -95.2572 220.951L-94.8887 220.613C-96.9538 218.361 -98.922 216.018 -100.787 213.592L-101.183 213.896C-103.053 211.464 -104.818 208.947 -106.474 206.354L-106.053 206.084C-107.695 203.513 -109.227 200.865 -110.645 198.147L-111.088 198.379C-112.505 195.663 -113.807 192.878 -114.988 190.03L-114.526 189.838C-115.693 187.025 -116.74 184.151 -117.663 181.221L-118.14 181.371C-119.058 178.457 -119.853 175.489 -120.519 172.472L-120.031 172.365C-120.685 169.399 -121.215 166.387 -121.613 163.334L-122.109 163.398C-122.503 160.376 -122.769 157.314 -122.903 154.216L-122.403 154.195C-122.468 152.673 -122.501 151.143 -122.501 149.605Z" stroke="#B06BF5" stroke-dasharray="9 9"/>
		<path d="M230.912 31.9116L83.7772 31.9116C33.2076 31.9116 -7.78727 -9.08319 -7.78727 -59.6528C-7.78727 -110.222 33.2075 -151.217 83.7772 -151.217L230.912 -151.217C281.482 -151.217 322.477 -110.222 322.477 -59.6528C322.477 -9.08319 281.482 31.9116 230.912 31.9116Z" stroke="#B06BF5"/>
		<path d="M-24.5014 -61.3946C-24.5014 -62.9325 -24.4683 -64.4626 -24.403 -65.9842L-24.9025 -66.0057C-24.7694 -69.1028 -24.503 -72.1653 -24.1087 -75.1877L-23.613 -75.123C-23.2146 -78.1765 -22.6853 -81.1888 -22.0307 -84.154L-22.519 -84.2617C-21.853 -87.2784 -21.0581 -90.2467 -20.1402 -93.1605L-19.6633 -93.0102C-18.7404 -95.9401 -17.6925 -98.8147 -16.5261 -101.628L-16.988 -101.819C-15.807 -104.667 -14.5049 -107.452 -13.0883 -110.168L-12.645 -109.937C-11.2274 -112.654 -9.69452 -115.302 -8.05277 -117.874L-8.47422 -118.143C-6.81852 -120.736 -5.05265 -123.253 -3.1832 -125.686L-2.78675 -125.381C-0.922061 -127.807 1.04617 -130.15 3.11133 -132.403L2.74276 -132.741C4.81924 -135.005 6.99322 -137.179 9.25809 -139.256L9.59598 -138.887C11.8485 -140.953 14.1913 -142.921 16.6178 -144.785L16.3132 -145.182C18.7459 -147.051 21.2623 -148.817 23.8559 -150.473L24.1249 -150.051C26.6967 -151.693 29.3445 -153.226 32.0621 -154.644L31.8309 -155.087C34.5467 -156.504 37.3317 -157.806 40.1796 -158.987L40.3711 -158.525C43.184 -159.691 46.0586 -160.739 48.9885 -161.662L48.8382 -162.139C51.752 -163.057 54.7202 -163.852 57.7369 -164.518L57.8447 -164.029C60.8099 -164.684 63.8222 -165.213 66.8757 -165.612L66.811 -166.107C69.8334 -166.502 72.8959 -166.768 75.993 -166.901L76.0144 -166.402C77.5361 -166.467 79.0662 -166.5 80.6041 -166.5L84.872 -166.5L84.872 -167L93.4079 -167L93.4079 -166.5L101.944 -166.5L101.944 -167L110.48 -167L110.48 -166.5L119.016 -166.5L119.016 -167L127.551 -167L127.551 -166.5L136.087 -166.5L136.087 -167L144.623 -167L144.623 -166.5L153.159 -166.5L153.159 -167L161.695 -167L161.695 -166.5L170.231 -166.5L170.231 -167L178.767 -167L178.767 -166.5L187.303 -166.5L187.303 -167L195.838 -167L195.838 -166.5L204.374 -166.5L204.374 -167L212.91 -167L212.91 -166.5L221.446 -166.5L221.446 -167L229.982 -167L229.982 -166.5L234.25 -166.5C235.788 -166.5 237.318 -166.467 238.84 -166.402L238.861 -166.901C241.958 -166.768 245.021 -166.502 248.043 -166.107L247.978 -165.612C251.032 -165.213 254.044 -164.684 257.009 -164.029L257.117 -164.518C260.134 -163.852 263.102 -163.057 266.016 -162.139L265.866 -161.662C268.795 -160.739 271.67 -159.691 274.483 -158.525L274.674 -158.987C277.522 -157.806 280.307 -156.504 283.023 -155.087L282.792 -154.644C285.509 -153.226 288.157 -151.693 290.729 -150.051L290.998 -150.473C293.592 -148.817 296.108 -147.051 298.541 -145.182L298.236 -144.785C300.663 -142.921 303.006 -140.953 305.258 -138.887L305.596 -139.256C307.861 -137.179 310.035 -135.005 312.111 -132.741L311.743 -132.403C313.808 -130.15 315.776 -127.807 317.641 -125.381L318.037 -125.686C319.907 -123.253 321.673 -120.736 323.328 -118.143L322.907 -117.874C324.549 -115.302 326.082 -112.654 327.499 -109.937L327.942 -110.168C329.359 -107.452 330.661 -104.667 331.842 -101.819L331.38 -101.628C332.547 -98.8147 333.594 -95.9401 334.517 -93.0102L334.994 -93.1605C335.912 -90.2467 336.707 -87.2785 337.373 -84.2618L336.885 -84.154C337.539 -81.1888 338.069 -78.1765 338.467 -75.123L338.963 -75.1877C339.357 -72.1653 339.624 -69.1028 339.757 -66.0057L339.257 -65.9843C339.322 -64.4626 339.355 -62.9325 339.355 -61.3946C339.355 -59.8568 339.322 -58.3267 339.257 -56.8051L339.757 -56.7836C339.624 -53.6865 339.357 -50.624 338.963 -47.6016L338.467 -47.6663C338.069 -44.6128 337.539 -41.6005 336.885 -38.6353L337.373 -38.5275C336.707 -35.5108 335.912 -32.5426 334.994 -29.6288L334.517 -29.779C333.594 -26.8491 332.547 -23.9746 331.38 -21.1617L331.842 -20.9702C330.661 -18.1223 329.359 -15.3372 327.942 -12.6215L327.499 -12.8527C326.082 -10.1351 324.549 -7.48723 322.907 -4.91551L323.328 -4.64647C321.673 -2.0529 319.907 0.463547 318.037 2.89624L317.641 2.59157C315.776 5.0181 313.808 7.36092 311.743 9.61343L312.111 9.95134C310.035 12.2162 307.861 14.3902 305.596 16.4666L305.258 16.0981C303.006 18.1632 300.663 20.1315 298.236 21.9961L298.541 22.3926C296.108 24.262 293.592 26.0279 290.998 27.6836L290.729 27.2621C288.157 28.9039 285.51 30.4368 282.792 31.8544L283.023 32.2977C280.307 33.7143 277.522 35.0163 274.675 36.1973L274.483 35.7355C271.67 36.9019 268.796 37.9498 265.866 38.8727L266.016 39.3496C263.102 40.2674 260.134 41.0624 257.117 41.7283L257.009 41.2401C254.044 41.8946 251.032 42.424 247.978 42.8223L248.043 43.3181C245.021 43.7123 241.958 43.9788 238.861 44.1118L238.84 43.6123C237.318 43.6777 235.788 43.7107 234.25 43.7107L229.982 43.7107L229.982 44.2107L221.446 44.2107L221.446 43.7107L212.91 43.7107L212.91 44.2107L204.374 44.2107L204.374 43.7107L195.839 43.7107L195.839 44.2107L187.303 44.2107L187.303 43.7107L178.767 43.7107L178.767 44.2107L170.231 44.2107L170.231 43.7107L161.695 43.7107L161.695 44.2107L153.159 44.2107L153.159 43.7107L144.623 43.7107L144.623 44.2107L136.087 44.2107L136.087 43.7107L127.552 43.7107L127.552 44.2107L119.016 44.2107L119.016 43.7107L110.48 43.7107L110.48 44.2107L101.944 44.2107L101.944 43.7107L93.408 43.7107L93.408 44.2107L84.8721 44.2107L84.8721 43.7107L80.6042 43.7107C79.0663 43.7107 77.5362 43.6777 76.0146 43.6123L75.9931 44.1118C72.896 43.9788 69.8335 43.7123 66.8111 43.3181L66.8758 42.8223C63.8223 42.424 60.81 41.8946 57.8448 41.2401L57.737 41.7283C54.7204 41.0624 51.7521 40.2674 48.8383 39.3496L48.9885 38.8727C46.0586 37.9498 43.1841 36.9019 40.3712 35.7355L40.1797 36.1973C37.3318 35.0163 34.5467 33.7143 31.831 32.2977L32.0622 31.8544C29.3446 30.4368 26.6967 28.9039 24.125 27.2621L23.8559 27.6836C21.2624 26.0279 18.746 24.262 16.3132 22.3926L16.6179 21.9961C14.1914 20.1315 11.8486 18.1632 9.59602 16.0981L9.25813 16.4666C6.99327 14.3902 4.81929 12.2162 2.74281 9.95133L3.11134 9.61344C1.04619 7.3609 -0.922041 5.01808 -2.78673 2.59157L-3.18318 2.89623C-5.05263 0.463534 -6.81849 -2.0529 -8.47419 -4.64647L-8.05275 -4.91551C-9.6945 -7.48723 -11.2274 -10.1351 -12.645 -12.8527L-13.0883 -12.6215C-14.5049 -15.3372 -15.8069 -18.1223 -16.9879 -20.9702L-16.5261 -21.1617C-17.6925 -23.9746 -18.7404 -26.8491 -19.6633 -29.7791L-20.1402 -29.6288C-21.0581 -32.5426 -21.853 -35.5108 -22.519 -38.5275L-22.0307 -38.6353C-22.6853 -41.6005 -23.2146 -44.6128 -23.613 -47.6663L-24.1087 -47.6016C-24.503 -50.6239 -24.7694 -53.6865 -24.9025 -56.7836L-24.403 -56.805C-24.4683 -58.3267 -24.5014 -59.8568 -24.5014 -61.3946Z" stroke="#B06BF5" stroke-dasharray="9 9"/>
	</g>
</svg>
