<svg width="267" height="87" viewBox="0 0 267 87" fill="none" xmlns="http://www.w3.org/2000/svg">
	<mask id="mask0_939_7512" style="mask-type:alpha" maskUnits="userSpaceOnUse" x="0" y="0" width="267" height="87">
		<path d="M267 24C267 10.7452 256.255 0 243 0H24C10.7452 0 0 10.7452 0 24V63C0 76.2548 10.7452 87 24 87H243C256.255 87 267 76.2548 267 63V24Z" fill="#F7F7F7"/>
	</mask>
	<g mask="url(#mask0_939_7512)">
		<path d="M254.912 84.9116L107.777 84.9116C57.2076 84.9116 16.2127 43.9168 16.2127 -6.65284C16.2127 -57.2225 57.2075 -98.2173 107.777 -98.2173L254.912 -98.2173C305.482 -98.2173 346.477 -57.2225 346.477 -6.65284C346.477 43.9168 305.482 84.9116 254.912 84.9116Z" stroke="#B06BF5"/>
		<path d="M-0.501351 -8.39464C-0.501351 -9.93248 -0.468331 -11.4626 -0.402962 -12.9842L-0.902504 -13.0057C-0.769447 -16.1028 -0.502998 -19.1653 -0.108741 -22.1877L0.387047 -22.123C0.785363 -25.1765 1.31472 -28.1888 1.96929 -31.154L1.48104 -31.2617C2.147 -34.2784 2.94192 -37.2467 3.85977 -40.1605L4.33666 -40.0102C5.25961 -42.9401 6.30746 -45.8147 7.4739 -48.6276L7.01205 -48.8191C8.19302 -51.667 9.49505 -54.4521 10.9117 -57.1678L11.355 -56.9366C12.7726 -59.6542 14.3055 -62.3021 15.9472 -64.8738L15.5258 -65.1428C17.1815 -67.7364 18.9474 -70.2528 20.8168 -72.6855L21.2133 -72.3809C23.0779 -74.8074 25.0462 -77.1502 27.1113 -79.4027L26.7428 -79.7406C28.8192 -82.0055 30.9932 -84.1795 33.2581 -86.2559L33.596 -85.8874C35.8485 -87.9525 38.1913 -89.9207 40.6178 -91.7854L40.3132 -92.1819C42.7459 -94.0513 45.2623 -95.8172 47.8559 -97.4729L48.1249 -97.0514C50.6967 -98.6932 53.3445 -100.226 56.0621 -101.644L55.8309 -102.087C58.5467 -103.504 61.3317 -104.806 64.1796 -105.987L64.3711 -105.525C67.184 -106.691 70.0586 -107.739 72.9885 -108.662L72.8382 -109.139C75.752 -110.057 78.7202 -110.852 81.7369 -111.518L81.8447 -111.029C84.8099 -111.684 87.8222 -112.213 90.8757 -112.612L90.811 -113.107C93.8334 -113.502 96.8959 -113.768 99.993 -113.901L100.014 -113.402C101.536 -113.467 103.066 -113.5 104.604 -113.5L108.872 -113.5L108.872 -114L117.408 -114L117.408 -113.5L125.944 -113.5L125.944 -114L134.48 -114L134.48 -113.5L143.016 -113.5L143.016 -114L151.551 -114L151.551 -113.5L160.087 -113.5L160.087 -114L168.623 -114L168.623 -113.5L177.159 -113.5L177.159 -114L185.695 -114L185.695 -113.5L194.231 -113.5L194.231 -114L202.767 -114L202.767 -113.5L211.303 -113.5L211.303 -114L219.838 -114L219.838 -113.5L228.374 -113.5L228.374 -114L236.91 -114L236.91 -113.5L245.446 -113.5L245.446 -114L253.982 -114L253.982 -113.5L258.25 -113.5C259.788 -113.5 261.318 -113.467 262.84 -113.402L262.861 -113.901C265.958 -113.768 269.021 -113.502 272.043 -113.107L271.978 -112.612C275.032 -112.213 278.044 -111.684 281.009 -111.029L281.117 -111.518C284.134 -110.852 287.102 -110.057 290.016 -109.139L289.866 -108.662C292.795 -107.739 295.67 -106.691 298.483 -105.525L298.674 -105.987C301.522 -104.806 304.307 -103.504 307.023 -102.087L306.792 -101.644C309.509 -100.226 312.157 -98.6932 314.729 -97.0514L314.998 -97.4729C317.592 -95.8172 320.108 -94.0513 322.541 -92.1819L322.236 -91.7854C324.663 -89.9207 327.006 -87.9525 329.258 -85.8874L329.596 -86.2559C331.861 -84.1795 334.035 -82.0055 336.111 -79.7406L335.743 -79.4027C337.808 -77.1502 339.776 -74.8074 341.641 -72.3809L342.037 -72.6855C343.907 -70.2528 345.673 -67.7364 347.328 -65.1428L346.907 -64.8738C348.549 -62.3021 350.082 -59.6542 351.499 -56.9366L351.942 -57.1678C353.359 -54.4521 354.661 -51.667 355.842 -48.8191L355.38 -48.6276C356.547 -45.8147 357.594 -42.9401 358.517 -40.0102L358.994 -40.1605C359.912 -37.2467 360.707 -34.2785 361.373 -31.2618L360.885 -31.154C361.539 -28.1888 362.069 -25.1765 362.467 -22.123L362.963 -22.1877C363.357 -19.1653 363.624 -16.1028 363.757 -13.0057L363.257 -12.9843C363.322 -11.4626 363.355 -9.93249 363.355 -8.39465C363.355 -6.85681 363.322 -5.32672 363.257 -3.80505L363.757 -3.78359C363.624 -0.686493 363.357 2.37604 362.963 5.3984L362.467 5.33372C362.069 8.38723 361.539 11.3995 360.885 14.3647L361.373 14.4725C360.707 17.4892 359.912 20.4574 358.994 23.3712L358.517 23.221C357.594 26.1509 356.547 29.0254 355.38 31.8383L355.842 32.0298C354.661 34.8777 353.359 37.6628 351.942 40.3785L351.499 40.1473C350.082 42.8649 348.549 45.5128 346.907 48.0845L347.328 48.3535C345.673 50.9471 343.907 53.4635 342.037 55.8962L341.641 55.5916C339.776 58.0181 337.808 60.3609 335.743 62.6134L336.111 62.9513C334.035 65.2162 331.861 67.3902 329.596 69.4666L329.258 69.0981C327.006 71.1632 324.663 73.1315 322.236 74.9961L322.541 75.3926C320.108 77.262 317.592 79.0279 314.998 80.6836L314.729 80.2621C312.157 81.9039 309.51 83.4368 306.792 84.8544L307.023 85.2977C304.307 86.7143 301.522 88.0163 298.675 89.1973L298.483 88.7355C295.67 89.9019 292.796 90.9498 289.866 91.8727L290.016 92.3496C287.102 93.2674 284.134 94.0624 281.117 94.7283L281.009 94.2401C278.044 94.8946 275.032 95.424 271.978 95.8223L272.043 96.3181C269.021 96.7123 265.958 96.9788 262.861 97.1118L262.84 96.6123C261.318 96.6777 259.788 96.7107 258.25 96.7107L253.982 96.7107L253.982 97.2107L245.446 97.2107L245.446 96.7107L236.91 96.7107L236.91 97.2107L228.374 97.2107L228.374 96.7107L219.839 96.7107L219.839 97.2107L211.303 97.2107L211.303 96.7107L202.767 96.7107L202.767 97.2107L194.231 97.2107L194.231 96.7107L185.695 96.7107L185.695 97.2107L177.159 97.2107L177.159 96.7107L168.623 96.7107L168.623 97.2107L160.087 97.2107L160.087 96.7107L151.552 96.7107L151.552 97.2107L143.016 97.2107L143.016 96.7107L134.48 96.7107L134.48 97.2107L125.944 97.2107L125.944 96.7107L117.408 96.7107L117.408 97.2107L108.872 97.2107L108.872 96.7107L104.604 96.7107C103.066 96.7107 101.536 96.6777 100.015 96.6123L99.9931 97.1118C96.896 96.9788 93.8335 96.7123 90.8111 96.3181L90.8758 95.8223C87.8223 95.424 84.81 94.8946 81.8448 94.2401L81.737 94.7283C78.7204 94.0624 75.7521 93.2674 72.8383 92.3496L72.9885 91.8727C70.0586 90.9498 67.1841 89.9019 64.3712 88.7355L64.1797 89.1973C61.3318 88.0163 58.5467 86.7143 55.831 85.2977L56.0622 84.8544C53.3446 83.4368 50.6967 81.9039 48.125 80.2621L47.8559 80.6836C45.2624 79.0279 42.746 77.262 40.3132 75.3926L40.6179 74.9961C38.1914 73.1315 35.8486 71.1632 33.596 69.0981L33.2581 69.4666C30.9933 67.3902 28.8193 65.2162 26.7428 62.9513L27.1113 62.6134C25.0462 60.3609 23.078 58.0181 21.2133 55.5916L20.8168 55.8962C18.9474 53.4635 17.1815 50.9471 15.5258 48.3535L15.9473 48.0845C14.3055 45.5128 12.7726 42.8649 11.355 40.1473L10.9117 40.3785C9.49507 37.6628 8.19307 34.8777 7.01207 32.0298L7.47393 31.8383C6.30745 29.0254 5.25963 26.1509 4.33669 23.2209L3.85979 23.3712C2.94195 20.4574 2.14699 17.4892 1.48104 14.4725L1.96929 14.3647C1.31472 11.3995 0.78536 8.38724 0.387045 5.33374L-0.108743 5.39842C-0.503 2.37605 -0.769448 -0.686468 -0.902505 -3.78356L-0.402963 -3.80502C-0.468331 -5.3267 -0.501351 -6.8568 -0.501351 -8.39464Z" stroke="#B06BF5" stroke-dasharray="9 9"/>
		<path d="M313.912 58.9116L166.777 58.9116C116.208 58.9116 75.2127 17.9168 75.2127 -32.6528C75.2127 -83.2225 116.208 -124.217 166.777 -124.217L313.912 -124.217C364.482 -124.217 405.477 -83.2225 405.477 -32.6528C405.477 17.9168 364.482 58.9116 313.912 58.9116Z" stroke="#B06BF5"/>
		<path d="M58.4986 -34.3946C58.4986 -35.9325 58.5317 -37.4626 58.597 -38.9842L58.0975 -39.0057C58.2306 -42.1028 58.497 -45.1653 58.8913 -48.1877L59.387 -48.123C59.7854 -51.1765 60.3147 -54.1888 60.9693 -57.154L60.481 -57.2617C61.147 -60.2784 61.9419 -63.2467 62.8598 -66.1605L63.3367 -66.0102C64.2596 -68.9401 65.3075 -71.8147 66.4739 -74.6276L66.012 -74.8191C67.193 -77.667 68.4951 -80.4521 69.9117 -83.1678L70.355 -82.9366C71.7726 -85.6542 73.3055 -88.3021 74.9472 -90.8738L74.5258 -91.1428C76.1815 -93.7364 77.9474 -96.2528 79.8168 -98.6855L80.2133 -98.3809C82.0779 -100.807 84.0462 -103.15 86.1113 -105.403L85.7428 -105.741C87.8192 -108.005 89.9932 -110.179 92.2581 -112.256L92.596 -111.887C94.8485 -113.953 97.1913 -115.921 99.6178 -117.785L99.3132 -118.182C101.746 -120.051 104.262 -121.817 106.856 -123.473L107.125 -123.051C109.697 -124.693 112.345 -126.226 115.062 -127.644L114.831 -128.087C117.547 -129.504 120.332 -130.806 123.18 -131.987L123.371 -131.525C126.184 -132.691 129.059 -133.739 131.988 -134.662L131.838 -135.139C134.752 -136.057 137.72 -136.852 140.737 -137.518L140.845 -137.029C143.81 -137.684 146.822 -138.213 149.876 -138.612L149.811 -139.107C152.833 -139.502 155.896 -139.768 158.993 -139.901L159.014 -139.402C160.536 -139.467 162.066 -139.5 163.604 -139.5L167.872 -139.5L167.872 -140L176.408 -140L176.408 -139.5L184.944 -139.5L184.944 -140L193.48 -140L193.48 -139.5L202.016 -139.5L202.016 -140L210.551 -140L210.551 -139.5L219.087 -139.5L219.087 -140L227.623 -140L227.623 -139.5L236.159 -139.5L236.159 -140L244.695 -140L244.695 -139.5L253.231 -139.5L253.231 -140L261.767 -140L261.767 -139.5L270.303 -139.5L270.303 -140L278.838 -140L278.838 -139.5L287.374 -139.5L287.374 -140L295.91 -140L295.91 -139.5L304.446 -139.5L304.446 -140L312.982 -140L312.982 -139.5L317.25 -139.5C318.788 -139.5 320.318 -139.467 321.84 -139.402L321.861 -139.901C324.958 -139.768 328.021 -139.502 331.043 -139.107L330.978 -138.612C334.032 -138.213 337.044 -137.684 340.009 -137.029L340.117 -137.518C343.134 -136.852 346.102 -136.057 349.016 -135.139L348.866 -134.662C351.795 -133.739 354.67 -132.691 357.483 -131.525L357.674 -131.987C360.522 -130.806 363.307 -129.504 366.023 -128.087L365.792 -127.644C368.509 -126.226 371.157 -124.693 373.729 -123.051L373.998 -123.473C376.592 -121.817 379.108 -120.051 381.541 -118.182L381.236 -117.785C383.663 -115.921 386.006 -113.953 388.258 -111.887L388.596 -112.256C390.861 -110.179 393.035 -108.005 395.111 -105.741L394.743 -105.403C396.808 -103.15 398.776 -100.807 400.641 -98.3809L401.037 -98.6855C402.907 -96.2528 404.673 -93.7364 406.328 -91.1428L405.907 -90.8738C407.549 -88.3021 409.082 -85.6542 410.499 -82.9366L410.942 -83.1678C412.359 -80.4521 413.661 -77.667 414.842 -74.8191L414.38 -74.6276C415.547 -71.8147 416.594 -68.9401 417.517 -66.0102L417.994 -66.1605C418.912 -63.2467 419.707 -60.2785 420.373 -57.2618L419.885 -57.154C420.539 -54.1888 421.069 -51.1765 421.467 -48.123L421.963 -48.1877C422.357 -45.1653 422.624 -42.1028 422.757 -39.0057L422.257 -38.9843C422.322 -37.4626 422.355 -35.9325 422.355 -34.3946C422.355 -32.8568 422.322 -31.3267 422.257 -29.8051L422.757 -29.7836C422.624 -26.6865 422.357 -23.624 421.963 -20.6016L421.467 -20.6663C421.069 -17.6128 420.539 -14.6005 419.885 -11.6353L420.373 -11.5275C419.707 -8.51083 418.912 -5.54256 417.994 -2.62881L417.517 -2.77904C416.594 0.150864 415.547 3.02539 414.38 5.83829L414.842 6.02982C413.661 8.87773 412.359 11.6628 410.942 14.3785L410.499 14.1473C409.082 16.8649 407.549 19.5128 405.907 22.0845L406.328 22.3535C404.673 24.9471 402.907 27.4635 401.037 29.8962L400.641 29.5916C398.776 32.0181 396.808 34.3609 394.743 36.6134L395.111 36.9513C393.035 39.2162 390.861 41.3902 388.596 43.4666L388.258 43.0981C386.006 45.1632 383.663 47.1315 381.236 48.9961L381.541 49.3926C379.108 51.262 376.592 53.0279 373.998 54.6836L373.729 54.2621C371.157 55.9039 368.51 57.4368 365.792 58.8544L366.023 59.2977C363.307 60.7143 360.522 62.0163 357.675 63.1973L357.483 62.7355C354.67 63.9019 351.796 64.9498 348.866 65.8727L349.016 66.3496C346.102 67.2674 343.134 68.0624 340.117 68.7283L340.009 68.2401C337.044 68.8946 334.032 69.424 330.978 69.8223L331.043 70.3181C328.021 70.7123 324.958 70.9788 321.861 71.1118L321.84 70.6123C320.318 70.6777 318.788 70.7107 317.25 70.7107L312.982 70.7107L312.982 71.2107L304.446 71.2107L304.446 70.7107L295.91 70.7107L295.91 71.2107L287.374 71.2107L287.374 70.7107L278.839 70.7107L278.839 71.2107L270.303 71.2107L270.303 70.7107L261.767 70.7107L261.767 71.2107L253.231 71.2107L253.231 70.7107L244.695 70.7107L244.695 71.2107L236.159 71.2107L236.159 70.7107L227.623 70.7107L227.623 71.2107L219.087 71.2107L219.087 70.7107L210.552 70.7107L210.552 71.2107L202.016 71.2107L202.016 70.7107L193.48 70.7107L193.48 71.2107L184.944 71.2107L184.944 70.7107L176.408 70.7107L176.408 71.2107L167.872 71.2107L167.872 70.7107L163.604 70.7107C162.066 70.7107 160.536 70.6777 159.015 70.6123L158.993 71.1118C155.896 70.9788 152.833 70.7123 149.811 70.3181L149.876 69.8223C146.822 69.424 143.81 68.8946 140.845 68.2401L140.737 68.7283C137.72 68.0624 134.752 67.2674 131.838 66.3496L131.989 65.8727C129.059 64.9498 126.184 63.9019 123.371 62.7355L123.18 63.1973C120.332 62.0163 117.547 60.7143 114.831 59.2977L115.062 58.8544C112.345 57.4368 109.697 55.9039 107.125 54.2621L106.856 54.6836C104.262 53.0279 101.746 51.262 99.3132 49.3926L99.6179 48.9961C97.1914 47.1315 94.8486 45.1632 92.596 43.0981L92.2581 43.4666C89.9933 41.3902 87.8193 39.2162 85.7428 36.9513L86.1113 36.6134C84.0462 34.3609 82.078 32.0181 80.2133 29.5916L79.8168 29.8962C77.9474 27.4635 76.1815 24.9471 74.5258 22.3535L74.9473 22.0845C73.3055 19.5128 71.7726 16.8649 70.355 14.1473L69.9117 14.3785C68.4951 11.6628 67.1931 8.87773 66.0121 6.02982L66.4739 5.83829C65.3075 3.02538 64.2596 0.15085 63.3367 -2.77905L62.8598 -2.62881C61.9419 -5.54255 61.147 -8.51083 60.481 -11.5275L60.9693 -11.6353C60.3147 -14.6005 59.7854 -17.6128 59.387 -20.6663L58.8913 -20.6016C58.497 -23.6239 58.2306 -26.6865 58.0975 -29.7836L58.597 -29.805C58.5317 -31.3267 58.4986 -32.8568 58.4986 -34.3946Z" stroke="#B06BF5" stroke-dasharray="9 9"/>
	</g>
</svg>
