<svg width="267" height="87" viewBox="0 0 267 87" fill="none" xmlns="http://www.w3.org/2000/svg">
	<mask id="mask0_939_7524" style="mask-type:alpha" maskUnits="userSpaceOnUse" x="0" y="0" width="267" height="87">
		<path d="M267 24C267 10.7452 256.255 0 243 0H24C10.7452 0 0 10.7452 0 24V63C0 76.2548 10.7452 87 24 87H243C256.255 87 267 76.2548 267 63V24Z" fill="#F7F7F7"/>
	</mask>
	<g mask="url(#mask0_939_7524)">
		<path d="M254.912 84.9116L107.777 84.9116C57.2076 84.9116 16.2127 43.9168 16.2127 -6.65284C16.2127 -57.2225 57.2075 -98.2173 107.777 -98.2173L254.912 -98.2173C305.482 -98.2173 346.477 -57.2225 346.477 -6.65284C346.477 43.9168 305.482 84.9116 254.912 84.9116Z" stroke="#B06BF5"/>
		<path d="M-0.501351 -8.39464C-0.501351 -9.93248 -0.468331 -11.4626 -0.402962 -12.9842L-0.902504 -13.0057C-0.769447 -16.1028 -0.502998 -19.1653 -0.108741 -22.1877L0.387047 -22.123C0.785363 -25.1765 1.31472 -28.1888 1.96929 -31.154L1.48104 -31.2617C2.147 -34.2784 2.94192 -37.2467 3.85977 -40.1605L4.33666 -40.0102C5.25961 -42.9401 6.30746 -45.8147 7.4739 -48.6276L7.01205 -48.8191C8.19302 -51.667 9.49505 -54.4521 10.9117 -57.1678L11.355 -56.9366C12.7726 -59.6542 14.3055 -62.3021 15.9472 -64.8738L15.5258 -65.1428C17.1815 -67.7364 18.9474 -70.2528 20.8168 -72.6855L21.2133 -72.3809C23.0779 -74.8074 25.0462 -77.1502 27.1113 -79.4027L26.7428 -79.7406C28.8192 -82.0055 30.9932 -84.1795 33.2581 -86.2559L33.596 -85.8874C35.8485 -87.9525 38.1913 -89.9207 40.6178 -91.7854L40.3132 -92.1819C42.7459 -94.0513 45.2623 -95.8172 47.8559 -97.4729L48.1249 -97.0514C50.6967 -98.6932 53.3445 -100.226 56.0621 -101.644L55.8309 -102.087C58.5467 -103.504 61.3317 -104.806 64.1796 -105.987L64.3711 -105.525C67.184 -106.691 70.0586 -107.739 72.9885 -108.662L72.8382 -109.139C75.752 -110.057 78.7202 -110.852 81.7369 -111.518L81.8447 -111.029C84.8099 -111.684 87.8222 -112.213 90.8757 -112.612L90.811 -113.107C93.8334 -113.502 96.8959 -113.768 99.993 -113.901L100.014 -113.402C101.536 -113.467 103.066 -113.5 104.604 -113.5L108.872 -113.5L108.872 -114L117.408 -114L117.408 -113.5L125.944 -113.5L125.944 -114L134.48 -114L134.48 -113.5L143.016 -113.5L143.016 -114L151.551 -114L151.551 -113.5L160.087 -113.5L160.087 -114L168.623 -114L168.623 -113.5L177.159 -113.5L177.159 -114L185.695 -114L185.695 -113.5L194.231 -113.5L194.231 -114L202.767 -114L202.767 -113.5L211.303 -113.5L211.303 -114L219.838 -114L219.838 -113.5L228.374 -113.5L228.374 -114L236.91 -114L236.91 -113.5L245.446 -113.5L245.446 -114L253.982 -114L253.982 -113.5L258.25 -113.5C259.788 -113.5 261.318 -113.467 262.84 -113.402L262.861 -113.901C265.958 -113.768 269.021 -113.502 272.043 -113.107L271.978 -112.612C275.032 -112.213 278.044 -111.684 281.009 -111.029L281.117 -111.518C284.134 -110.852 287.102 -110.057 290.016 -109.139L289.866 -108.662C292.795 -107.739 295.67 -106.691 298.483 -105.525L298.674 -105.987C301.522 -104.806 304.307 -103.504 307.023 -102.087L306.792 -101.644C309.509 -100.226 312.157 -98.6932 314.729 -97.0514L314.998 -97.4729C317.592 -95.8172 320.108 -94.0513 322.541 -92.1819L322.236 -91.7854C324.663 -89.9207 327.006 -87.9525 329.258 -85.8874L329.596 -86.2559C331.861 -84.1795 334.035 -82.0055 336.111 -79.7406L335.743 -79.4027C337.808 -77.1502 339.776 -74.8074 341.641 -72.3809L342.037 -72.6855C343.907 -70.2528 345.673 -67.7364 347.328 -65.1428L346.907 -64.8738C348.549 -62.3021 350.082 -59.6542 351.499 -56.9366L351.942 -57.1678C353.359 -54.4521 354.661 -51.667 355.842 -48.8191L355.38 -48.6276C356.547 -45.8147 357.594 -42.9401 358.517 -40.0102L358.994 -40.1605C359.912 -37.2467 360.707 -34.2785 361.373 -31.2618L360.885 -31.154C361.539 -28.1888 362.069 -25.1765 362.467 -22.123L362.963 -22.1877C363.357 -19.1653 363.624 -16.1028 363.757 -13.0057L363.257 -12.9843C363.322 -11.4626 363.355 -9.93249 363.355 -8.39465C363.355 -6.85681 363.322 -5.32672 363.257 -3.80505L363.757 -3.78359C363.624 -0.686493 363.357 2.37604 362.963 5.3984L362.467 5.33372C362.069 8.38723 361.539 11.3995 360.885 14.3647L361.373 14.4725C360.707 17.4892 359.912 20.4574 358.994 23.3712L358.517 23.221C357.594 26.1509 356.547 29.0254 355.38 31.8383L355.842 32.0298C354.661 34.8777 353.359 37.6628 351.942 40.3785L351.499 40.1473C350.082 42.8649 348.549 45.5128 346.907 48.0845L347.328 48.3535C345.673 50.9471 343.907 53.4635 342.037 55.8962L341.641 55.5916C339.776 58.0181 337.808 60.3609 335.743 62.6134L336.111 62.9513C334.035 65.2162 331.861 67.3902 329.596 69.4666L329.258 69.0981C327.006 71.1632 324.663 73.1315 322.236 74.9961L322.541 75.3926C320.108 77.262 317.592 79.0279 314.998 80.6836L314.729 80.2621C312.157 81.9039 309.51 83.4368 306.792 84.8544L307.023 85.2977C304.307 86.7143 301.522 88.0163 298.675 89.1973L298.483 88.7355C295.67 89.9019 292.796 90.9498 289.866 91.8727L290.016 92.3496C287.102 93.2674 284.134 94.0624 281.117 94.7283L281.009 94.2401C278.044 94.8946 275.032 95.424 271.978 95.8223L272.043 96.3181C269.021 96.7123 265.958 96.9788 262.861 97.1118L262.84 96.6123C261.318 96.6777 259.788 96.7107 258.25 96.7107L253.982 96.7107L253.982 97.2107L245.446 97.2107L245.446 96.7107L236.91 96.7107L236.91 97.2107L228.374 97.2107L228.374 96.7107L219.839 96.7107L219.839 97.2107L211.303 97.2107L211.303 96.7107L202.767 96.7107L202.767 97.2107L194.231 97.2107L194.231 96.7107L185.695 96.7107L185.695 97.2107L177.159 97.2107L177.159 96.7107L168.623 96.7107L168.623 97.2107L160.087 97.2107L160.087 96.7107L151.552 96.7107L151.552 97.2107L143.016 97.2107L143.016 96.7107L134.48 96.7107L134.48 97.2107L125.944 97.2107L125.944 96.7107L117.408 96.7107L117.408 97.2107L108.872 97.2107L108.872 96.7107L104.604 96.7107C103.066 96.7107 101.536 96.6777 100.015 96.6123L99.9931 97.1118C96.896 96.9788 93.8335 96.7123 90.8111 96.3181L90.8758 95.8223C87.8223 95.424 84.81 94.8946 81.8448 94.2401L81.737 94.7283C78.7204 94.0624 75.7521 93.2674 72.8383 92.3496L72.9885 91.8727C70.0586 90.9498 67.1841 89.9019 64.3712 88.7355L64.1797 89.1973C61.3318 88.0163 58.5467 86.7143 55.831 85.2977L56.0622 84.8544C53.3446 83.4368 50.6967 81.9039 48.125 80.2621L47.8559 80.6836C45.2624 79.0279 42.746 77.262 40.3132 75.3926L40.6179 74.9961C38.1914 73.1315 35.8486 71.1632 33.596 69.0981L33.2581 69.4666C30.9933 67.3902 28.8193 65.2162 26.7428 62.9513L27.1113 62.6134C25.0462 60.3609 23.078 58.0181 21.2133 55.5916L20.8168 55.8962C18.9474 53.4635 17.1815 50.9471 15.5258 48.3535L15.9473 48.0845C14.3055 45.5128 12.7726 42.8649 11.355 40.1473L10.9117 40.3785C9.49507 37.6628 8.19307 34.8777 7.01207 32.0298L7.47393 31.8383C6.30745 29.0254 5.25963 26.1509 4.33669 23.2209L3.85979 23.3712C2.94195 20.4574 2.14699 17.4892 1.48104 14.4725L1.96929 14.3647C1.31472 11.3995 0.78536 8.38724 0.387045 5.33374L-0.108743 5.39842C-0.503 2.37605 -0.769448 -0.686468 -0.902505 -3.78356L-0.402963 -3.80502C-0.468331 -5.3267 -0.501351 -6.8568 -0.501351 -8.39464Z" stroke="#B06BF5" stroke-dasharray="9 9"/>
		<path d="M292.912 212.912L145.777 212.912C95.2076 212.912 54.2127 171.917 54.2127 121.347C54.2127 70.7775 95.2075 29.7827 145.777 29.7827L292.912 29.7827C343.482 29.7827 384.477 70.7775 384.477 121.347C384.477 171.917 343.482 212.912 292.912 212.912Z" stroke="#B06BF5"/>
		<path d="M37.4986 119.605C37.4986 118.068 37.5317 116.537 37.597 115.016L37.0975 114.994C37.2306 111.897 37.497 108.835 37.8913 105.812L38.387 105.877C38.7854 102.823 39.3147 99.8112 39.9693 96.846L39.481 96.7383C40.147 93.7216 40.9419 90.7533 41.8598 87.8395L42.3367 87.9898C43.2596 85.0599 44.3075 82.1853 45.4739 79.3724L45.012 79.1809C46.193 76.333 47.4951 73.5479 48.9117 70.8322L49.355 71.0634C50.7726 68.3458 52.3055 65.6979 53.9472 63.1262L53.5258 62.8572C55.1815 60.2636 56.9474 57.7472 58.8168 55.3145L59.2133 55.6191C61.0779 53.1926 63.0462 50.8498 65.1113 48.5973L64.7428 48.2594C66.8192 45.9945 68.9932 43.8205 71.2581 41.7441L71.596 42.1126C73.8485 40.0475 76.1913 38.0793 78.6178 36.2146L78.3132 35.8181C80.7459 33.9487 83.2623 32.1828 85.8559 30.5271L86.1249 30.9486C88.6967 29.3068 91.3445 27.7739 94.0621 26.3563L93.8309 25.913C96.5467 24.4964 99.3317 23.1944 102.18 22.0134L102.371 22.4752C105.184 21.3088 108.059 20.261 110.988 19.338L110.838 18.8611C113.752 17.9433 116.72 17.1483 119.737 16.4824L119.845 16.9706C122.81 16.3161 125.822 15.7867 128.876 15.3884L128.811 14.8926C131.833 14.4984 134.896 14.2319 137.993 14.0989L138.014 14.5984C139.536 14.533 141.066 14.5 142.604 14.5L146.872 14.5L146.872 14L155.408 14L155.408 14.5L163.944 14.5L163.944 14L172.48 14L172.48 14.5L181.016 14.5L181.016 14L189.551 14L189.551 14.5L198.087 14.5L198.087 14L206.623 14L206.623 14.5L215.159 14.5L215.159 14L223.695 14L223.695 14.5L232.231 14.5L232.231 14L240.767 14L240.767 14.5L249.303 14.5L249.303 14L257.838 14L257.838 14.5L266.374 14.5L266.374 14L274.91 14L274.91 14.5L283.446 14.5L283.446 14L291.982 14L291.982 14.5L296.25 14.5C297.788 14.5 299.318 14.533 300.84 14.5984L300.861 14.0989C303.958 14.2319 307.021 14.4984 310.043 14.8926L309.978 15.3884C313.032 15.7867 316.044 16.3161 319.009 16.9706L319.117 16.4824C322.134 17.1483 325.102 17.9433 328.016 18.8611L327.866 19.338C330.795 20.261 333.67 21.3088 336.483 22.4752L336.674 22.0134C339.522 23.1944 342.307 24.4964 345.023 25.913L344.792 26.3563C347.509 27.7739 350.157 29.3068 352.729 30.9486L352.998 30.5271C355.592 32.1828 358.108 33.9487 360.541 35.8181L360.236 36.2146C362.663 38.0793 365.006 40.0475 367.258 42.1126L367.596 41.7441C369.861 43.8205 372.035 45.9945 374.111 48.2594L373.743 48.5973C375.808 50.8498 377.776 53.1926 379.641 55.6191L380.037 55.3145C381.907 57.7472 383.673 60.2636 385.328 62.8572L384.907 63.1262C386.549 65.6979 388.082 68.3458 389.499 71.0634L389.942 70.8322C391.359 73.5479 392.661 76.333 393.842 79.1809L393.38 79.3724C394.547 82.1853 395.594 85.0599 396.517 87.9898L396.994 87.8395C397.912 90.7533 398.707 93.7215 399.373 96.7382L398.885 96.846C399.539 99.8112 400.069 102.823 400.467 105.877L400.963 105.812C401.357 108.835 401.624 111.897 401.757 114.994L401.257 115.016C401.322 116.537 401.355 118.068 401.355 119.605C401.355 121.143 401.322 122.673 401.257 124.195L401.757 124.216C401.624 127.314 401.357 130.376 400.963 133.398L400.467 133.334C400.069 136.387 399.539 139.399 398.885 142.365L399.373 142.472C398.707 145.489 397.912 148.457 396.994 151.371L396.517 151.221C395.594 154.151 394.547 157.025 393.38 159.838L393.842 160.03C392.661 162.878 391.359 165.663 389.942 168.379L389.499 168.147C388.082 170.865 386.549 173.513 384.907 176.084L385.328 176.354C383.673 178.947 381.907 181.464 380.037 183.896L379.641 183.592C377.776 186.018 375.808 188.361 373.743 190.613L374.111 190.951C372.035 193.216 369.861 195.39 367.596 197.467L367.258 197.098C365.006 199.163 362.663 201.131 360.236 202.996L360.541 203.393C358.108 205.262 355.592 207.028 352.998 208.684L352.729 208.262C350.157 209.904 347.51 211.437 344.792 212.854L345.023 213.298C342.307 214.714 339.522 216.016 336.675 217.197L336.483 216.735C333.67 217.902 330.796 218.95 327.866 219.873L328.016 220.35C325.102 221.267 322.134 222.062 319.117 222.728L319.009 222.24C316.044 222.895 313.032 223.424 309.978 223.822L310.043 224.318C307.021 224.712 303.958 224.979 300.861 225.112L300.84 224.612C299.318 224.678 297.788 224.711 296.25 224.711L291.982 224.711L291.982 225.211L283.446 225.211L283.446 224.711L274.91 224.711L274.91 225.211L266.374 225.211L266.374 224.711L257.839 224.711L257.839 225.211L249.303 225.211L249.303 224.711L240.767 224.711L240.767 225.211L232.231 225.211L232.231 224.711L223.695 224.711L223.695 225.211L215.159 225.211L215.159 224.711L206.623 224.711L206.623 225.211L198.087 225.211L198.087 224.711L189.552 224.711L189.552 225.211L181.016 225.211L181.016 224.711L172.48 224.711L172.48 225.211L163.944 225.211L163.944 224.711L155.408 224.711L155.408 225.211L146.872 225.211L146.872 224.711L142.604 224.711C141.066 224.711 139.536 224.678 138.015 224.612L137.993 225.112C134.896 224.979 131.833 224.712 128.811 224.318L128.876 223.822C125.822 223.424 122.81 222.895 119.845 222.24L119.737 222.728C116.72 222.062 113.752 221.267 110.838 220.35L110.989 219.873C108.059 218.95 105.184 217.902 102.371 216.735L102.18 217.197C99.3318 216.016 96.5467 214.714 93.831 213.298L94.0622 212.854C91.3446 211.437 88.6967 209.904 86.125 208.262L85.8559 208.684C83.2624 207.028 80.746 205.262 78.3132 203.393L78.6179 202.996C76.1914 201.131 73.8486 199.163 71.596 197.098L71.2581 197.467C68.9933 195.39 66.8193 193.216 64.7428 190.951L65.1113 190.613C63.0462 188.361 61.078 186.018 59.2133 183.592L58.8168 183.896C56.9474 181.464 55.1815 178.947 53.5258 176.354L53.9473 176.084C52.3055 173.513 50.7726 170.865 49.355 168.147L48.9117 168.379C47.4951 165.663 46.1931 162.878 45.0121 160.03L45.4739 159.838C44.3075 157.025 43.2596 154.151 42.3367 151.221L41.8598 151.371C40.9419 148.457 40.147 145.489 39.481 142.472L39.9693 142.365C39.3147 139.399 38.7854 136.387 38.387 133.334L37.8913 133.398C37.497 130.376 37.2306 127.314 37.0975 124.216L37.597 124.195C37.5317 122.673 37.4986 121.143 37.4986 119.605Z" stroke="#B06BF5" stroke-dasharray="9 9"/>
	</g>
</svg>
