<svg width="267" height="54" viewBox="0 0 267 54" fill="none" xmlns="http://www.w3.org/2000/svg">
	<mask id="mask0_939_7608" style="mask-type:alpha" maskUnits="userSpaceOnUse" x="0" y="0" width="267" height="54">
		<path d="M267 24C267 10.7452 256.255 0 243 0H24C10.7452 0 0 10.7452 0 24V30C0 43.2548 10.7452 54 24 54H243C256.255 54 267 43.2548 267 30V24Z" fill="#F7F7F7"/>
	</mask>
	<g mask="url(#mask0_939_7608)">
		<path d="M215.912 43.9116L68.7772 43.9116C18.2076 43.9116 -22.7873 2.91681 -22.7873 -47.6528C-22.7873 -98.2225 18.2075 -139.217 68.7772 -139.217L215.912 -139.217C266.482 -139.217 307.477 -98.2225 307.477 -47.6528C307.477 2.91681 266.482 43.9116 215.912 43.9116Z" stroke="#E96DFD"/>
		<path d="M-39.5014 -49.3946C-39.5014 -50.9325 -39.4683 -52.4626 -39.403 -53.9842L-39.9025 -54.0057C-39.7694 -57.1028 -39.503 -60.1653 -39.1087 -63.1877L-38.613 -63.123C-38.2146 -66.1765 -37.6853 -69.1888 -37.0307 -72.154L-37.519 -72.2617C-36.853 -75.2784 -36.0581 -78.2467 -35.1402 -81.1605L-34.6633 -81.0102C-33.7404 -83.9401 -32.6925 -86.8147 -31.5261 -89.6276L-31.988 -89.8191C-30.807 -92.667 -29.5049 -95.4521 -28.0883 -98.1678L-27.645 -97.9366C-26.2274 -100.654 -24.6945 -103.302 -23.0528 -105.874L-23.4742 -106.143C-21.8185 -108.736 -20.0526 -111.253 -18.1832 -113.686L-17.7867 -113.381C-15.9221 -115.807 -13.9538 -118.15 -11.8887 -120.403L-12.2572 -120.741C-10.1808 -123.005 -8.00678 -125.179 -5.74191 -127.256L-5.40402 -126.887C-3.15149 -128.953 -0.808687 -130.921 1.61783 -132.785L1.31317 -133.182C3.74588 -135.051 6.2623 -136.817 8.85586 -138.473L9.12491 -138.051C11.6967 -139.693 14.3445 -141.226 17.0621 -142.644L16.8309 -143.087C19.5467 -144.504 22.3317 -145.806 25.1796 -146.987L25.3711 -146.525C28.184 -147.691 31.0586 -148.739 33.9885 -149.662L33.8382 -150.139C36.752 -151.057 39.7202 -151.852 42.7369 -152.518L42.8447 -152.029C45.8099 -152.684 48.8222 -153.213 51.8757 -153.612L51.811 -154.107C54.8334 -154.502 57.8959 -154.768 60.993 -154.901L61.0144 -154.402C62.5361 -154.467 64.0662 -154.5 65.6041 -154.5L69.872 -154.5L69.872 -155L78.4079 -155L78.4079 -154.5L86.9438 -154.5L86.9438 -155L95.4796 -155L95.4796 -154.5L104.016 -154.5L104.016 -155L112.551 -155L112.551 -154.5L121.087 -154.5L121.087 -155L129.623 -155L129.623 -154.5L138.159 -154.5L138.159 -155L146.695 -155L146.695 -154.5L155.231 -154.5L155.231 -155L163.767 -155L163.767 -154.5L172.303 -154.5L172.303 -155L180.838 -155L180.838 -154.5L189.374 -154.5L189.374 -155L197.91 -155L197.91 -154.5L206.446 -154.5L206.446 -155L214.982 -155L214.982 -154.5L219.25 -154.5C220.788 -154.5 222.318 -154.467 223.84 -154.402L223.861 -154.901C226.958 -154.768 230.021 -154.502 233.043 -154.107L232.978 -153.612C236.032 -153.213 239.044 -152.684 242.009 -152.029L242.117 -152.518C245.134 -151.852 248.102 -151.057 251.016 -150.139L250.866 -149.662C253.795 -148.739 256.67 -147.691 259.483 -146.525L259.674 -146.987C262.522 -145.806 265.307 -144.504 268.023 -143.087L267.792 -142.644C270.509 -141.226 273.157 -139.693 275.729 -138.051L275.998 -138.473C278.592 -136.817 281.108 -135.051 283.541 -133.182L283.236 -132.785C285.663 -130.921 288.006 -128.953 290.258 -126.887L290.596 -127.256C292.861 -125.179 295.035 -123.005 297.111 -120.741L296.743 -120.403C298.808 -118.15 300.776 -115.807 302.641 -113.381L303.037 -113.686C304.907 -111.253 306.673 -108.736 308.328 -106.143L307.907 -105.874C309.549 -103.302 311.082 -100.654 312.499 -97.9366L312.942 -98.1678C314.359 -95.4521 315.661 -92.667 316.842 -89.8191L316.38 -89.6276C317.547 -86.8147 318.594 -83.9401 319.517 -81.0102L319.994 -81.1605C320.912 -78.2467 321.707 -75.2785 322.373 -72.2618L321.885 -72.154C322.539 -69.1888 323.069 -66.1765 323.467 -63.123L323.963 -63.1877C324.357 -60.1653 324.624 -57.1028 324.757 -54.0057L324.257 -53.9843C324.322 -52.4626 324.355 -50.9325 324.355 -49.3946C324.355 -47.8568 324.322 -46.3267 324.257 -44.8051L324.757 -44.7836C324.624 -41.6865 324.357 -38.624 323.963 -35.6016L323.467 -35.6663C323.069 -32.6128 322.539 -29.6005 321.885 -26.6353L322.373 -26.5275C321.707 -23.5108 320.912 -20.5426 319.994 -17.6288L319.517 -17.779C318.594 -14.8491 317.547 -11.9746 316.38 -9.16171L316.842 -8.97018C315.661 -6.12227 314.359 -3.33723 312.942 -0.621475L312.499 -0.852722C311.082 1.86487 309.549 4.51277 307.907 7.08449L308.328 7.35353C306.673 9.9471 304.907 12.4635 303.037 14.8962L302.641 14.5916C300.776 17.0181 298.808 19.3609 296.743 21.6134L297.111 21.9513C295.035 24.2162 292.861 26.3902 290.596 28.4666L290.258 28.0981C288.006 30.1632 285.663 32.1315 283.236 33.9961L283.541 34.3926C281.108 36.262 278.592 38.0279 275.998 39.6836L275.729 39.2621C273.157 40.9039 270.51 42.4368 267.792 43.8544L268.023 44.2977C265.307 45.7143 262.522 47.0163 259.675 48.1973L259.483 47.7355C256.67 48.9019 253.796 49.9498 250.866 50.8727L251.016 51.3496C248.102 52.2674 245.134 53.0624 242.117 53.7283L242.009 53.2401C239.044 53.8946 236.032 54.424 232.978 54.8223L233.043 55.3181C230.021 55.7123 226.958 55.9788 223.861 56.1118L223.84 55.6123C222.318 55.6777 220.788 55.7107 219.25 55.7107L214.982 55.7107L214.982 56.2107L206.446 56.2107L206.446 55.7107L197.91 55.7107L197.91 56.2107L189.374 56.2107L189.374 55.7107L180.839 55.7107L180.839 56.2107L172.303 56.2107L172.303 55.7107L163.767 55.7107L163.767 56.2107L155.231 56.2107L155.231 55.7107L146.695 55.7107L146.695 56.2107L138.159 56.2107L138.159 55.7107L129.623 55.7107L129.623 56.2107L121.087 56.2107L121.087 55.7107L112.552 55.7107L112.552 56.2107L104.016 56.2107L104.016 55.7107L95.4798 55.7107L95.4798 56.2107L86.9439 56.2107L86.9439 55.7107L78.408 55.7107L78.408 56.2107L69.8721 56.2107L69.8721 55.7107L65.6042 55.7107C64.0663 55.7107 62.5362 55.6777 61.0146 55.6123L60.9931 56.1118C57.896 55.9788 54.8335 55.7123 51.8111 55.3181L51.8758 54.8223C48.8223 54.424 45.81 53.8946 42.8448 53.2401L42.737 53.7283C39.7204 53.0624 36.7521 52.2674 33.8383 51.3496L33.9885 50.8727C31.0586 49.9498 28.1841 48.9019 25.3712 47.7355L25.1797 48.1973C22.3318 47.0163 19.5467 45.7143 16.831 44.2977L17.0622 43.8544C14.3446 42.4368 11.6967 40.9039 9.12498 39.2621L8.85594 39.6836C6.26238 38.0279 3.74596 36.262 1.31325 34.3926L1.61791 33.9961C-0.808639 32.1315 -3.15144 30.1632 -5.40398 28.0981L-5.74187 28.4666C-8.00673 26.3902 -10.1807 24.2162 -12.2572 21.9513L-11.8887 21.6134C-13.9538 19.3609 -15.922 17.0181 -17.7867 14.5916L-18.1832 14.8962C-20.0526 12.4635 -21.8185 9.9471 -23.4742 7.35353L-23.0527 7.08449C-24.6945 4.51277 -26.2274 1.86487 -27.645 -0.85272L-28.0883 -0.621473C-29.5049 -3.33723 -30.8069 -6.12227 -31.9879 -8.97018L-31.5261 -9.16171C-32.6925 -11.9746 -33.7404 -14.8491 -34.6633 -17.7791L-35.1402 -17.6288C-36.0581 -20.5426 -36.853 -23.5108 -37.519 -26.5275L-37.0307 -26.6353C-37.6853 -29.6005 -38.2146 -32.6128 -38.613 -35.6663L-39.1087 -35.6016C-39.503 -38.6239 -39.7694 -41.6865 -39.9025 -44.7836L-39.403 -44.805C-39.4683 -46.3267 -39.5014 -47.8568 -39.5014 -49.3946Z" stroke="#E96DFD" stroke-dasharray="9 9"/>
		<path d="M292.912 179.912L145.777 179.912C95.2076 179.912 54.2127 138.917 54.2127 88.3472C54.2127 37.7775 95.2075 -3.21728 145.777 -3.21728L292.912 -3.21728C343.482 -3.21728 384.477 37.7775 384.477 88.3472C384.477 138.917 343.482 179.912 292.912 179.912Z" stroke="#E96DFD"/>
		<path d="M37.4986 86.6054C37.4986 85.0675 37.5317 83.5374 37.597 82.0158L37.0975 81.9943C37.2306 78.8972 37.497 75.8347 37.8913 72.8123L38.387 72.877C38.7854 69.8235 39.3147 66.8112 39.9693 63.846L39.481 63.7383C40.147 60.7216 40.9419 57.7533 41.8598 54.8395L42.3367 54.9898C43.2596 52.0599 44.3075 49.1853 45.4739 46.3724L45.012 46.1809C46.193 43.333 47.4951 40.5479 48.9117 37.8322L49.355 38.0634C50.7726 35.3458 52.3055 32.6979 53.9472 30.1262L53.5258 29.8572C55.1815 27.2636 56.9474 24.7472 58.8168 22.3145L59.2133 22.6191C61.0779 20.1926 63.0462 17.8498 65.1113 15.5973L64.7428 15.2594C66.8192 12.9945 68.9932 10.8205 71.2581 8.74407L71.596 9.11262C73.8485 7.04747 76.1913 5.07925 78.6178 3.21457L78.3132 2.81812C80.7459 0.948692 83.2623 -0.817169 85.8559 -2.47287L86.1249 -2.05144C88.6967 -3.69319 91.3445 -5.2261 94.0621 -6.64368L93.8309 -7.08699C96.5467 -8.50362 99.3317 -9.80563 102.18 -10.9866L102.371 -10.5248C105.184 -11.6912 108.059 -12.739 110.988 -13.662L110.838 -14.1389C113.752 -15.0567 116.72 -15.8517 119.737 -16.5176L119.845 -16.0294C122.81 -16.6839 125.822 -17.2133 128.876 -17.6116L128.811 -18.1074C131.833 -18.5016 134.896 -18.7681 137.993 -18.9011L138.014 -18.4016C139.536 -18.467 141.066 -18.5 142.604 -18.5L146.872 -18.5L146.872 -19L155.408 -19L155.408 -18.5L163.944 -18.5L163.944 -19L172.48 -19L172.48 -18.5L181.016 -18.5L181.016 -19L189.551 -19L189.551 -18.5L198.087 -18.5L198.087 -19L206.623 -19L206.623 -18.5L215.159 -18.5L215.159 -19L223.695 -19L223.695 -18.5L232.231 -18.5L232.231 -19L240.767 -19L240.767 -18.5L249.303 -18.5L249.303 -19L257.838 -19L257.838 -18.5L266.374 -18.5L266.374 -19L274.91 -19L274.91 -18.5L283.446 -18.5L283.446 -19L291.982 -19L291.982 -18.5L296.25 -18.5C297.788 -18.5 299.318 -18.467 300.84 -18.4016L300.861 -18.9011C303.958 -18.7681 307.021 -18.5016 310.043 -18.1074L309.978 -17.6116C313.032 -17.2133 316.044 -16.6839 319.009 -16.0294L319.117 -16.5176C322.134 -15.8517 325.102 -15.0567 328.016 -14.1389L327.866 -13.662C330.795 -12.739 333.67 -11.6912 336.483 -10.5248L336.674 -10.9866C339.522 -9.80563 342.307 -8.50362 345.023 -7.087L344.792 -6.64369C347.509 -5.2261 350.157 -3.69319 352.729 -2.05144L352.998 -2.47288C355.592 -0.817182 358.108 0.948683 360.541 2.81811L360.236 3.21457C362.663 5.07925 365.006 7.04747 367.258 9.11262L367.596 8.74407C369.861 10.8205 372.035 12.9945 374.111 15.2594L373.743 15.5973C375.808 17.8498 377.776 20.1926 379.641 22.6191L380.037 22.3145C381.907 24.7472 383.673 27.2636 385.328 29.8572L384.907 30.1262C386.549 32.6979 388.082 35.3458 389.499 38.0634L389.942 37.8322C391.359 40.5479 392.661 43.333 393.842 46.1809L393.38 46.3724C394.547 49.1853 395.594 52.0599 396.517 54.9898L396.994 54.8395C397.912 57.7533 398.707 60.7215 399.373 63.7382L398.885 63.846C399.539 66.8112 400.069 69.8235 400.467 72.877L400.963 72.8123C401.357 75.8347 401.624 78.8972 401.757 81.9943L401.257 82.0157C401.322 83.5374 401.355 85.0675 401.355 86.6054C401.355 88.1432 401.322 89.6733 401.257 91.1949L401.757 91.2164C401.624 94.3135 401.357 97.376 400.963 100.398L400.467 100.334C400.069 103.387 399.539 106.399 398.885 109.365L399.373 109.472C398.707 112.489 397.912 115.457 396.994 118.371L396.517 118.221C395.594 121.151 394.547 124.025 393.38 126.838L393.842 127.03C392.661 129.878 391.359 132.663 389.942 135.379L389.499 135.147C388.082 137.865 386.549 140.513 384.907 143.084L385.328 143.354C383.673 145.947 381.907 148.464 380.037 150.896L379.641 150.592C377.776 153.018 375.808 155.361 373.743 157.613L374.111 157.951C372.035 160.216 369.861 162.39 367.596 164.467L367.258 164.098C365.006 166.163 362.663 168.131 360.236 169.996L360.541 170.393C358.108 172.262 355.592 174.028 352.998 175.684L352.729 175.262C350.157 176.904 347.51 178.437 344.792 179.854L345.023 180.298C342.307 181.714 339.522 183.016 336.675 184.197L336.483 183.735C333.67 184.902 330.796 185.95 327.866 186.873L328.016 187.35C325.102 188.267 322.134 189.062 319.117 189.728L319.009 189.24C316.044 189.895 313.032 190.424 309.978 190.822L310.043 191.318C307.021 191.712 303.958 191.979 300.861 192.112L300.84 191.612C299.318 191.678 297.788 191.711 296.25 191.711L291.982 191.711L291.982 192.211L283.446 192.211L283.446 191.711L274.91 191.711L274.91 192.211L266.374 192.211L266.374 191.711L257.839 191.711L257.839 192.211L249.303 192.211L249.303 191.711L240.767 191.711L240.767 192.211L232.231 192.211L232.231 191.711L223.695 191.711L223.695 192.211L215.159 192.211L215.159 191.711L206.623 191.711L206.623 192.211L198.087 192.211L198.087 191.711L189.552 191.711L189.552 192.211L181.016 192.211L181.016 191.711L172.48 191.711L172.48 192.211L163.944 192.211L163.944 191.711L155.408 191.711L155.408 192.211L146.872 192.211L146.872 191.711L142.604 191.711C141.066 191.711 139.536 191.678 138.015 191.612L137.993 192.112C134.896 191.979 131.833 191.712 128.811 191.318L128.876 190.822C125.822 190.424 122.81 189.895 119.845 189.24L119.737 189.728C116.72 189.062 113.752 188.267 110.838 187.35L110.989 186.873C108.059 185.95 105.184 184.902 102.371 183.735L102.18 184.197C99.3318 183.016 96.5467 181.714 93.831 180.298L94.0622 179.854C91.3446 178.437 88.6967 176.904 86.125 175.262L85.8559 175.684C83.2624 174.028 80.746 172.262 78.3132 170.393L78.6179 169.996C76.1914 168.131 73.8486 166.163 71.596 164.098L71.2581 164.467C68.9933 162.39 66.8193 160.216 64.7428 157.951L65.1113 157.613C63.0462 155.361 61.078 153.018 59.2133 150.592L58.8168 150.896C56.9474 148.464 55.1815 145.947 53.5258 143.354L53.9473 143.084C52.3055 140.513 50.7726 137.865 49.355 135.147L48.9117 135.379C47.4951 132.663 46.1931 129.878 45.0121 127.03L45.4739 126.838C44.3075 124.025 43.2596 121.151 42.3367 118.221L41.8598 118.371C40.9419 115.457 40.147 112.489 39.481 109.472L39.9693 109.365C39.3147 106.399 38.7854 103.387 38.387 100.334L37.8913 100.398C37.497 97.3761 37.2306 94.3135 37.0975 91.2164L37.597 91.195C37.5317 89.6733 37.4986 88.1432 37.4986 86.6054Z" stroke="#E96DFD" stroke-dasharray="9 9"/>
	</g>
</svg>
