<svg width="267" height="54" viewBox="0 0 267 54" fill="none" xmlns="http://www.w3.org/2000/svg">
	<mask id="mask0_939_7620" style="mask-type:alpha" maskUnits="userSpaceOnUse" x="0" y="0" width="267" height="54">
		<path d="M267 24C267 10.7452 256.255 0 243 0H24C10.7452 0 0 10.7452 0 24V30C0 43.2548 10.7452 54 24 54H243C256.255 54 267 43.2548 267 30V24Z" fill="#F7F7F7"/>
	</mask>
	<g mask="url(#mask0_939_7620)">
		<path d="M430.912 71.9116L283.777 71.9116C233.208 71.9116 192.213 30.9168 192.213 -19.6528C192.213 -70.2225 233.208 -111.217 283.777 -111.217L430.912 -111.217C481.482 -111.217 522.477 -70.2225 522.477 -19.6528C522.477 30.9168 481.482 71.9116 430.912 71.9116Z" stroke="#E96DFD"/>
		<path d="M175.499 -21.3946C175.499 -22.9325 175.532 -24.4626 175.597 -25.9842L175.097 -26.0057C175.231 -29.1028 175.497 -32.1653 175.891 -35.1877L176.387 -35.123C176.785 -38.1765 177.315 -41.1888 177.969 -44.154L177.481 -44.2617C178.147 -47.2784 178.942 -50.2467 179.86 -53.1605L180.337 -53.0102C181.26 -55.9401 182.307 -58.8147 183.474 -61.6276L183.012 -61.8191C184.193 -64.667 185.495 -67.4521 186.912 -70.1678L187.355 -69.9366C188.773 -72.6542 190.305 -75.3021 191.947 -77.8738L191.526 -78.1428C193.181 -80.7364 194.947 -83.2528 196.817 -85.6855L197.213 -85.3809C199.078 -87.8074 201.046 -90.1502 203.111 -92.4027L202.743 -92.7406C204.819 -95.0055 206.993 -97.1795 209.258 -99.2559L209.596 -98.8874C211.849 -100.953 214.191 -102.921 216.618 -104.785L216.313 -105.182C218.746 -107.051 221.262 -108.817 223.856 -110.473L224.125 -110.051C226.697 -111.693 229.345 -113.226 232.062 -114.644L231.831 -115.087C234.547 -116.504 237.332 -117.806 240.18 -118.987L240.371 -118.525C243.184 -119.691 246.059 -120.739 248.988 -121.662L248.838 -122.139C251.752 -123.057 254.72 -123.852 257.737 -124.518L257.845 -124.029C260.81 -124.684 263.822 -125.213 266.876 -125.612L266.811 -126.107C269.833 -126.502 272.896 -126.768 275.993 -126.901L276.014 -126.402C277.536 -126.467 279.066 -126.5 280.604 -126.5L284.872 -126.5L284.872 -127L293.408 -127L293.408 -126.5L301.944 -126.5L301.944 -127L310.48 -127L310.48 -126.5L319.016 -126.5L319.016 -127L327.551 -127L327.551 -126.5L336.087 -126.5L336.087 -127L344.623 -127L344.623 -126.5L353.159 -126.5L353.159 -127L361.695 -127L361.695 -126.5L370.231 -126.5L370.231 -127L378.767 -127L378.767 -126.5L387.303 -126.5L387.303 -127L395.838 -127L395.838 -126.5L404.374 -126.5L404.374 -127L412.91 -127L412.91 -126.5L421.446 -126.5L421.446 -127L429.982 -127L429.982 -126.5L434.25 -126.5C435.788 -126.5 437.318 -126.467 438.84 -126.402L438.861 -126.901C441.958 -126.768 445.021 -126.502 448.043 -126.107L447.978 -125.612C451.032 -125.213 454.044 -124.684 457.009 -124.029L457.117 -124.518C460.134 -123.852 463.102 -123.057 466.016 -122.139L465.866 -121.662C468.795 -120.739 471.67 -119.691 474.483 -118.525L474.674 -118.987C477.522 -117.806 480.307 -116.504 483.023 -115.087L482.792 -114.644C485.509 -113.226 488.157 -111.693 490.729 -110.051L490.998 -110.473C493.592 -108.817 496.108 -107.051 498.541 -105.182L498.236 -104.785C500.663 -102.921 503.006 -100.953 505.258 -98.8874L505.596 -99.2559C507.861 -97.1795 510.035 -95.0055 512.111 -92.7406L511.743 -92.4027C513.808 -90.1502 515.776 -87.8074 517.641 -85.3809L518.037 -85.6855C519.907 -83.2528 521.673 -80.7364 523.328 -78.1428L522.907 -77.8738C524.549 -75.3021 526.082 -72.6542 527.499 -69.9366L527.942 -70.1678C529.359 -67.4521 530.661 -64.667 531.842 -61.8191L531.38 -61.6276C532.547 -58.8147 533.594 -55.9401 534.517 -53.0102L534.994 -53.1605C535.912 -50.2467 536.707 -47.2785 537.373 -44.2618L536.885 -44.154C537.539 -41.1888 538.069 -38.1765 538.467 -35.123L538.963 -35.1877C539.357 -32.1653 539.624 -29.1028 539.757 -26.0057L539.257 -25.9843C539.322 -24.4626 539.355 -22.9325 539.355 -21.3946C539.355 -19.8568 539.322 -18.3267 539.257 -16.8051L539.757 -16.7836C539.624 -13.6865 539.357 -10.624 538.963 -7.6016L538.467 -7.66628C538.069 -4.61277 537.539 -1.60052 536.885 1.36469L537.373 1.47246C536.707 4.48917 535.912 7.45744 534.994 10.3712L534.517 10.221C533.594 13.1509 532.547 16.0254 531.38 18.8383L531.842 19.0298C530.661 21.8777 529.359 24.6628 527.942 27.3785L527.499 27.1473C526.082 29.8649 524.549 32.5128 522.907 35.0845L523.328 35.3535C521.673 37.9471 519.907 40.4635 518.037 42.8962L517.641 42.5916C515.776 45.0181 513.808 47.3609 511.743 49.6134L512.111 49.9513C510.035 52.2162 507.861 54.3902 505.596 56.4666L505.258 56.0981C503.006 58.1632 500.663 60.1315 498.236 61.9961L498.541 62.3926C496.108 64.262 493.592 66.0279 490.998 67.6836L490.729 67.2621C488.157 68.9039 485.51 70.4368 482.792 71.8544L483.023 72.2977C480.307 73.7143 477.522 75.0163 474.675 76.1973L474.483 75.7355C471.67 76.9019 468.796 77.9498 465.866 78.8727L466.016 79.3496C463.102 80.2674 460.134 81.0624 457.117 81.7283L457.009 81.2401C454.044 81.8946 451.032 82.424 447.978 82.8223L448.043 83.3181C445.021 83.7123 441.958 83.9788 438.861 84.1118L438.84 83.6123C437.318 83.6777 435.788 83.7107 434.25 83.7107L429.982 83.7107L429.982 84.2107L421.446 84.2107L421.446 83.7107L412.91 83.7107L412.91 84.2107L404.374 84.2107L404.374 83.7107L395.839 83.7107L395.839 84.2107L387.303 84.2107L387.303 83.7107L378.767 83.7107L378.767 84.2107L370.231 84.2107L370.231 83.7107L361.695 83.7107L361.695 84.2107L353.159 84.2107L353.159 83.7107L344.623 83.7107L344.623 84.2107L336.087 84.2107L336.087 83.7107L327.552 83.7107L327.552 84.2107L319.016 84.2107L319.016 83.7107L310.48 83.7107L310.48 84.2107L301.944 84.2107L301.944 83.7107L293.408 83.7107L293.408 84.2107L284.872 84.2107L284.872 83.7107L280.604 83.7107C279.066 83.7107 277.536 83.6777 276.015 83.6123L275.993 84.1118C272.896 83.9788 269.833 83.7123 266.811 83.3181L266.876 82.8223C263.822 82.424 260.81 81.8946 257.845 81.2401L257.737 81.7283C254.72 81.0624 251.752 80.2674 248.838 79.3496L248.989 78.8727C246.059 77.9498 243.184 76.9019 240.371 75.7355L240.18 76.1973C237.332 75.0163 234.547 73.7143 231.831 72.2977L232.062 71.8544C229.345 70.4368 226.697 68.9039 224.125 67.2621L223.856 67.6836C221.262 66.0279 218.746 64.262 216.313 62.3926L216.618 61.9961C214.191 60.1315 211.849 58.1632 209.596 56.0981L209.258 56.4666C206.993 54.3902 204.819 52.2162 202.743 49.9513L203.111 49.6134C201.046 47.3609 199.078 45.0181 197.213 42.5916L196.817 42.8962C194.947 40.4635 193.182 37.9471 191.526 35.3535L191.947 35.0845C190.305 32.5128 188.773 29.8649 187.355 27.1473L186.912 27.3785C185.495 24.6628 184.193 21.8777 183.012 19.0298L183.474 18.8383C182.307 16.0254 181.26 13.1509 180.337 10.2209L179.86 10.3712C178.942 7.45745 178.147 4.48917 177.481 1.47246L177.969 1.36469C177.315 -1.60051 176.785 -4.61276 176.387 -7.66626L175.891 -7.60158C175.497 -10.6239 175.231 -13.6865 175.097 -16.7836L175.597 -16.805C175.532 -18.3267 175.499 -19.8568 175.499 -21.3946Z" stroke="#E96DFD" stroke-dasharray="9 9"/>
		<path d="M224.912 36.9116L77.7772 36.9116C27.2076 36.9116 -13.7873 -4.08319 -13.7873 -54.6528C-13.7873 -105.222 27.2075 -146.217 77.7772 -146.217L224.912 -146.217C275.482 -146.217 316.477 -105.222 316.477 -54.6528C316.477 -4.08319 275.482 36.9116 224.912 36.9116Z" stroke="#E96DFD"/>
		<path d="M-30.5014 -56.3946C-30.5014 -57.9325 -30.4683 -59.4626 -30.403 -60.9842L-30.9025 -61.0057C-30.7694 -64.1028 -30.503 -67.1653 -30.1087 -70.1877L-29.613 -70.123C-29.2146 -73.1765 -28.6853 -76.1888 -28.0307 -79.154L-28.519 -79.2617C-27.853 -82.2784 -27.0581 -85.2467 -26.1402 -88.1605L-25.6633 -88.0102C-24.7404 -90.9401 -23.6925 -93.8147 -22.5261 -96.6276L-22.988 -96.8191C-21.807 -99.667 -20.5049 -102.452 -19.0883 -105.168L-18.645 -104.937C-17.2274 -107.654 -15.6945 -110.302 -14.0528 -112.874L-14.4742 -113.143C-12.8185 -115.736 -11.0526 -118.253 -9.1832 -120.686L-8.78675 -120.381C-6.92206 -122.807 -4.95383 -125.15 -2.88867 -127.403L-3.25724 -127.741C-1.18076 -130.005 0.993223 -132.179 3.25809 -134.256L3.59598 -133.887C5.84851 -135.953 8.19131 -137.921 10.6178 -139.785L10.3132 -140.182C12.7459 -142.051 15.2623 -143.817 17.8559 -145.473L18.1249 -145.051C20.6967 -146.693 23.3445 -148.226 26.0621 -149.644L25.8309 -150.087C28.5467 -151.504 31.3317 -152.806 34.1796 -153.987L34.3711 -153.525C37.184 -154.691 40.0586 -155.739 42.9885 -156.662L42.8382 -157.139C45.752 -158.057 48.7202 -158.852 51.7369 -159.518L51.8447 -159.029C54.8099 -159.684 57.8222 -160.213 60.8757 -160.612L60.811 -161.107C63.8334 -161.502 66.8959 -161.768 69.993 -161.901L70.0144 -161.402C71.5361 -161.467 73.0662 -161.5 74.6041 -161.5L78.872 -161.5L78.872 -162L87.4079 -162L87.4079 -161.5L95.9438 -161.5L95.9438 -162L104.48 -162L104.48 -161.5L113.016 -161.5L113.016 -162L121.551 -162L121.551 -161.5L130.087 -161.5L130.087 -162L138.623 -162L138.623 -161.5L147.159 -161.5L147.159 -162L155.695 -162L155.695 -161.5L164.231 -161.5L164.231 -162L172.767 -162L172.767 -161.5L181.303 -161.5L181.303 -162L189.838 -162L189.838 -161.5L198.374 -161.5L198.374 -162L206.91 -162L206.91 -161.5L215.446 -161.5L215.446 -162L223.982 -162L223.982 -161.5L228.25 -161.5C229.788 -161.5 231.318 -161.467 232.84 -161.402L232.861 -161.901C235.958 -161.768 239.021 -161.502 242.043 -161.107L241.978 -160.612C245.032 -160.213 248.044 -159.684 251.009 -159.029L251.117 -159.518C254.134 -158.852 257.102 -158.057 260.016 -157.139L259.866 -156.662C262.795 -155.739 265.67 -154.691 268.483 -153.525L268.674 -153.987C271.522 -152.806 274.307 -151.504 277.023 -150.087L276.792 -149.644C279.509 -148.226 282.157 -146.693 284.729 -145.051L284.998 -145.473C287.592 -143.817 290.108 -142.051 292.541 -140.182L292.236 -139.785C294.663 -137.921 297.006 -135.953 299.258 -133.887L299.596 -134.256C301.861 -132.179 304.035 -130.005 306.111 -127.741L305.743 -127.403C307.808 -125.15 309.776 -122.807 311.641 -120.381L312.037 -120.686C313.907 -118.253 315.673 -115.736 317.328 -113.143L316.907 -112.874C318.549 -110.302 320.082 -107.654 321.499 -104.937L321.942 -105.168C323.359 -102.452 324.661 -99.667 325.842 -96.8191L325.38 -96.6276C326.547 -93.8147 327.594 -90.9401 328.517 -88.0102L328.994 -88.1605C329.912 -85.2467 330.707 -82.2785 331.373 -79.2618L330.885 -79.154C331.539 -76.1888 332.069 -73.1765 332.467 -70.123L332.963 -70.1877C333.357 -67.1653 333.624 -64.1028 333.757 -61.0057L333.257 -60.9843C333.322 -59.4626 333.355 -57.9325 333.355 -56.3946C333.355 -54.8568 333.322 -53.3267 333.257 -51.8051L333.757 -51.7836C333.624 -48.6865 333.357 -45.624 332.963 -42.6016L332.467 -42.6663C332.069 -39.6128 331.539 -36.6005 330.885 -33.6353L331.373 -33.5275C330.707 -30.5108 329.912 -27.5426 328.994 -24.6288L328.517 -24.779C327.594 -21.8491 326.547 -18.9746 325.38 -16.1617L325.842 -15.9702C324.661 -13.1223 323.359 -10.3372 321.942 -7.62148L321.499 -7.85272C320.082 -5.13513 318.549 -2.48723 316.907 0.084488L317.328 0.353531C315.673 2.9471 313.907 5.46355 312.037 7.89624L311.641 7.59157C309.776 10.0181 307.808 12.3609 305.743 14.6134L306.111 14.9513C304.035 17.2162 301.861 19.3902 299.596 21.4666L299.258 21.0981C297.006 23.1632 294.663 25.1315 292.236 26.9961L292.541 27.3926C290.108 29.262 287.592 31.0279 284.998 32.6836L284.729 32.2621C282.157 33.9039 279.51 35.4368 276.792 36.8544L277.023 37.2977C274.307 38.7143 271.522 40.0163 268.675 41.1973L268.483 40.7355C265.67 41.9019 262.796 42.9498 259.866 43.8727L260.016 44.3496C257.102 45.2674 254.134 46.0624 251.117 46.7283L251.009 46.2401C248.044 46.8946 245.032 47.424 241.978 47.8223L242.043 48.3181C239.021 48.7123 235.958 48.9788 232.861 49.1118L232.84 48.6123C231.318 48.6777 229.788 48.7107 228.25 48.7107L223.982 48.7107L223.982 49.2107L215.446 49.2107L215.446 48.7107L206.91 48.7107L206.91 49.2107L198.374 49.2107L198.374 48.7107L189.839 48.7107L189.839 49.2107L181.303 49.2107L181.303 48.7107L172.767 48.7107L172.767 49.2107L164.231 49.2107L164.231 48.7107L155.695 48.7107L155.695 49.2107L147.159 49.2107L147.159 48.7107L138.623 48.7107L138.623 49.2107L130.087 49.2107L130.087 48.7107L121.552 48.7107L121.552 49.2107L113.016 49.2107L113.016 48.7107L104.48 48.7107L104.48 49.2107L95.9439 49.2107L95.9439 48.7107L87.408 48.7107L87.408 49.2107L78.8721 49.2107L78.8721 48.7107L74.6042 48.7107C73.0663 48.7107 71.5362 48.6777 70.0146 48.6123L69.9931 49.1118C66.896 48.9788 63.8335 48.7123 60.8111 48.3181L60.8758 47.8223C57.8223 47.424 54.81 46.8946 51.8448 46.2401L51.737 46.7283C48.7204 46.0624 45.7521 45.2674 42.8383 44.3496L42.9885 43.8727C40.0586 42.9498 37.1841 41.9019 34.3712 40.7355L34.1797 41.1973C31.3318 40.0163 28.5467 38.7143 25.831 37.2977L26.0622 36.8544C23.3446 35.4368 20.6967 33.9039 18.125 32.2621L17.8559 32.6836C15.2624 31.0279 12.746 29.262 10.3132 27.3926L10.6179 26.9961C8.19136 25.1315 5.84856 23.1632 3.59602 21.0981L3.25813 21.4666C0.993272 19.3902 -1.18071 17.2162 -3.25719 14.9513L-2.88866 14.6134C-4.95381 12.3609 -6.92204 10.0181 -8.78673 7.59157L-9.18318 7.89623C-11.0526 5.46353 -12.8185 2.9471 -14.4742 0.353533L-14.0527 0.0844899C-15.6945 -2.48723 -17.2274 -5.13513 -18.645 -7.85272L-19.0883 -7.62147C-20.5049 -10.3372 -21.8069 -13.1223 -22.9879 -15.9702L-22.5261 -16.1617C-23.6925 -18.9746 -24.7404 -21.8491 -25.6633 -24.7791L-26.1402 -24.6288C-27.0581 -27.5426 -27.853 -30.5108 -28.519 -33.5275L-28.0307 -33.6353C-28.6853 -36.6005 -29.2146 -39.6128 -29.613 -42.6663L-30.1087 -42.6016C-30.503 -45.6239 -30.7694 -48.6865 -30.9025 -51.7836L-30.403 -51.805C-30.4683 -53.3267 -30.5014 -54.8568 -30.5014 -56.3946Z" stroke="#E96DFD" stroke-dasharray="9 9"/>
	</g>
</svg>
