<svg width="267" height="54" viewBox="0 0 267 54" fill="none" xmlns="http://www.w3.org/2000/svg">
	<mask id="mask0_939_7632" style="mask-type:alpha" maskUnits="userSpaceOnUse" x="0" y="0" width="267" height="54">
		<path d="M267 24C267 10.7452 256.255 0 243 0H24C10.7452 0 0 10.7452 0 24V30C0 43.2548 10.7452 54 24 54H243C256.255 54 267 43.2548 267 30V24Z" fill="#F7F7F7"/>
	</mask>
	<g mask="url(#mask0_939_7632)">
		<path d="M414.912 47.9116L267.777 47.9116C217.208 47.9116 176.213 6.91681 176.213 -43.6528C176.213 -94.2225 217.208 -135.217 267.777 -135.217L414.912 -135.217C465.482 -135.217 506.477 -94.2225 506.477 -43.6528C506.477 6.91681 465.482 47.9116 414.912 47.9116Z" stroke="#E96DFD"/>
		<path d="M159.499 -45.3946C159.499 -46.9325 159.532 -48.4626 159.597 -49.9842L159.097 -50.0057C159.231 -53.1028 159.497 -56.1653 159.891 -59.1877L160.387 -59.123C160.785 -62.1765 161.315 -65.1888 161.969 -68.154L161.481 -68.2617C162.147 -71.2784 162.942 -74.2467 163.86 -77.1605L164.337 -77.0102C165.26 -79.9401 166.307 -82.8147 167.474 -85.6276L167.012 -85.8191C168.193 -88.667 169.495 -91.4521 170.912 -94.1678L171.355 -93.9366C172.773 -96.6542 174.305 -99.3021 175.947 -101.874L175.526 -102.143C177.181 -104.736 178.947 -107.253 180.817 -109.686L181.213 -109.381C183.078 -111.807 185.046 -114.15 187.111 -116.403L186.743 -116.741C188.819 -119.005 190.993 -121.179 193.258 -123.256L193.596 -122.887C195.849 -124.953 198.191 -126.921 200.618 -128.785L200.313 -129.182C202.746 -131.051 205.262 -132.817 207.856 -134.473L208.125 -134.051C210.697 -135.693 213.345 -137.226 216.062 -138.644L215.831 -139.087C218.547 -140.504 221.332 -141.806 224.18 -142.987L224.371 -142.525C227.184 -143.691 230.059 -144.739 232.988 -145.662L232.838 -146.139C235.752 -147.057 238.72 -147.852 241.737 -148.518L241.845 -148.029C244.81 -148.684 247.822 -149.213 250.876 -149.612L250.811 -150.107C253.833 -150.502 256.896 -150.768 259.993 -150.901L260.014 -150.402C261.536 -150.467 263.066 -150.5 264.604 -150.5L268.872 -150.5L268.872 -151L277.408 -151L277.408 -150.5L285.944 -150.5L285.944 -151L294.48 -151L294.48 -150.5L303.016 -150.5L303.016 -151L311.551 -151L311.551 -150.5L320.087 -150.5L320.087 -151L328.623 -151L328.623 -150.5L337.159 -150.5L337.159 -151L345.695 -151L345.695 -150.5L354.231 -150.5L354.231 -151L362.767 -151L362.767 -150.5L371.303 -150.5L371.303 -151L379.838 -151L379.838 -150.5L388.374 -150.5L388.374 -151L396.91 -151L396.91 -150.5L405.446 -150.5L405.446 -151L413.982 -151L413.982 -150.5L418.25 -150.5C419.788 -150.5 421.318 -150.467 422.84 -150.402L422.861 -150.901C425.958 -150.768 429.021 -150.502 432.043 -150.107L431.978 -149.612C435.032 -149.213 438.044 -148.684 441.009 -148.029L441.117 -148.518C444.134 -147.852 447.102 -147.057 450.016 -146.139L449.866 -145.662C452.795 -144.739 455.67 -143.691 458.483 -142.525L458.674 -142.987C461.522 -141.806 464.307 -140.504 467.023 -139.087L466.792 -138.644C469.509 -137.226 472.157 -135.693 474.729 -134.051L474.998 -134.473C477.592 -132.817 480.108 -131.051 482.541 -129.182L482.236 -128.785C484.663 -126.921 487.006 -124.953 489.258 -122.887L489.596 -123.256C491.861 -121.179 494.035 -119.005 496.111 -116.741L495.743 -116.403C497.808 -114.15 499.776 -111.807 501.641 -109.381L502.037 -109.686C503.907 -107.253 505.673 -104.736 507.328 -102.143L506.907 -101.874C508.549 -99.3021 510.082 -96.6542 511.499 -93.9366L511.942 -94.1678C513.359 -91.4521 514.661 -88.667 515.842 -85.8191L515.38 -85.6276C516.547 -82.8147 517.594 -79.9401 518.517 -77.0102L518.994 -77.1605C519.912 -74.2467 520.707 -71.2785 521.373 -68.2618L520.885 -68.154C521.539 -65.1888 522.069 -62.1765 522.467 -59.123L522.963 -59.1877C523.357 -56.1653 523.624 -53.1028 523.757 -50.0057L523.257 -49.9843C523.322 -48.4626 523.355 -46.9325 523.355 -45.3946C523.355 -43.8568 523.322 -42.3267 523.257 -40.8051L523.757 -40.7836C523.624 -37.6865 523.357 -34.624 522.963 -31.6016L522.467 -31.6663C522.069 -28.6128 521.539 -25.6005 520.885 -22.6353L521.373 -22.5275C520.707 -19.5108 519.912 -16.5426 518.994 -13.6288L518.517 -13.779C517.594 -10.8491 516.547 -7.97461 515.38 -5.16171L515.842 -4.97018C514.661 -2.12227 513.359 0.662766 511.942 3.37852L511.499 3.14728C510.082 5.86487 508.549 8.51277 506.907 11.0845L507.328 11.3535C505.673 13.9471 503.907 16.4635 502.037 18.8962L501.641 18.5916C499.776 21.0181 497.808 23.3609 495.743 25.6134L496.111 25.9513C494.035 28.2162 491.861 30.3902 489.596 32.4666L489.258 32.0981C487.006 34.1632 484.663 36.1315 482.236 37.9961L482.541 38.3926C480.108 40.262 477.592 42.0279 474.998 43.6836L474.729 43.2621C472.157 44.9039 469.51 46.4368 466.792 47.8544L467.023 48.2977C464.307 49.7143 461.522 51.0163 458.675 52.1973L458.483 51.7355C455.67 52.9019 452.796 53.9498 449.866 54.8727L450.016 55.3496C447.102 56.2674 444.134 57.0624 441.117 57.7283L441.009 57.2401C438.044 57.8946 435.032 58.424 431.978 58.8223L432.043 59.3181C429.021 59.7123 425.958 59.9788 422.861 60.1118L422.84 59.6123C421.318 59.6777 419.788 59.7107 418.25 59.7107L413.982 59.7107L413.982 60.2107L405.446 60.2107L405.446 59.7107L396.91 59.7107L396.91 60.2107L388.374 60.2107L388.374 59.7107L379.839 59.7107L379.839 60.2107L371.303 60.2107L371.303 59.7107L362.767 59.7107L362.767 60.2107L354.231 60.2107L354.231 59.7107L345.695 59.7107L345.695 60.2107L337.159 60.2107L337.159 59.7107L328.623 59.7107L328.623 60.2107L320.087 60.2107L320.087 59.7107L311.552 59.7107L311.552 60.2107L303.016 60.2107L303.016 59.7107L294.48 59.7107L294.48 60.2107L285.944 60.2107L285.944 59.7107L277.408 59.7107L277.408 60.2107L268.872 60.2107L268.872 59.7107L264.604 59.7107C263.066 59.7107 261.536 59.6777 260.015 59.6123L259.993 60.1118C256.896 59.9788 253.833 59.7123 250.811 59.3181L250.876 58.8223C247.822 58.424 244.81 57.8946 241.845 57.2401L241.737 57.7283C238.72 57.0624 235.752 56.2674 232.838 55.3496L232.989 54.8727C230.059 53.9498 227.184 52.9019 224.371 51.7355L224.18 52.1973C221.332 51.0163 218.547 49.7143 215.831 48.2977L216.062 47.8544C213.345 46.4368 210.697 44.9039 208.125 43.2621L207.856 43.6836C205.262 42.0279 202.746 40.262 200.313 38.3926L200.618 37.9961C198.191 36.1315 195.849 34.1632 193.596 32.0981L193.258 32.4666C190.993 30.3902 188.819 28.2162 186.743 25.9513L187.111 25.6134C185.046 23.3609 183.078 21.0181 181.213 18.5916L180.817 18.8962C178.947 16.4635 177.182 13.9471 175.526 11.3535L175.947 11.0845C174.305 8.51277 172.773 5.86487 171.355 3.14728L170.912 3.37853C169.495 0.662768 168.193 -2.12227 167.012 -4.97018L167.474 -5.16171C166.307 -7.97462 165.26 -10.8491 164.337 -13.7791L163.86 -13.6288C162.942 -16.5426 162.147 -19.5108 161.481 -22.5275L161.969 -22.6353C161.315 -25.6005 160.785 -28.6128 160.387 -31.6663L159.891 -31.6016C159.497 -34.6239 159.231 -37.6865 159.097 -40.7836L159.597 -40.805C159.532 -42.3267 159.499 -43.8568 159.499 -45.3946Z" stroke="#E96DFD" stroke-dasharray="9 9"/>
		<path d="M282.912 119.912L135.777 119.912C85.2076 119.912 44.2127 78.9168 44.2127 28.3472C44.2127 -22.2225 85.2075 -63.2173 135.777 -63.2173L282.912 -63.2173C333.482 -63.2173 374.477 -22.2225 374.477 28.3472C374.477 78.9168 333.482 119.912 282.912 119.912Z" stroke="#E96DFD"/>
		<path d="M27.4986 26.6054C27.4986 25.0675 27.5317 23.5374 27.597 22.0158L27.0975 21.9943C27.2306 18.8972 27.497 15.8347 27.8913 12.8123L28.387 12.877C28.7854 9.82348 29.3147 6.81123 29.9693 3.84603L29.481 3.73825C30.147 0.721552 30.9419 -2.24672 31.8598 -5.16047L32.3367 -5.01024C33.2596 -7.94015 34.3075 -10.8147 35.4739 -13.6276L35.012 -13.8191C36.193 -16.667 37.4951 -19.4521 38.9117 -22.1678L39.355 -21.9366C40.7726 -24.6542 42.3055 -27.3021 43.9472 -29.8738L43.5258 -30.1428C45.1815 -32.7364 46.9474 -35.2528 48.8168 -37.6855L49.2133 -37.3809C51.0779 -39.8074 53.0462 -42.1502 55.1113 -44.4027L54.7428 -44.7406C56.8192 -47.0055 58.9932 -49.1795 61.2581 -51.2559L61.596 -50.8874C63.8485 -52.9525 66.1913 -54.9207 68.6178 -56.7854L68.3132 -57.1819C70.7459 -59.0513 73.2623 -60.8172 75.8559 -62.4729L76.1249 -62.0514C78.6967 -63.6932 81.3445 -65.2261 84.0621 -66.6437L83.8309 -67.087C86.5467 -68.5036 89.3317 -69.8056 92.1796 -70.9866L92.3711 -70.5248C95.184 -71.6912 98.0586 -72.739 100.988 -73.662L100.838 -74.1389C103.752 -75.0567 106.72 -75.8517 109.737 -76.5176L109.845 -76.0294C112.81 -76.6839 115.822 -77.2133 118.876 -77.6116L118.811 -78.1074C121.833 -78.5016 124.896 -78.7681 127.993 -78.9011L128.014 -78.4016C129.536 -78.467 131.066 -78.5 132.604 -78.5L136.872 -78.5L136.872 -79L145.408 -79L145.408 -78.5L153.944 -78.5L153.944 -79L162.48 -79L162.48 -78.5L171.016 -78.5L171.016 -79L179.551 -79L179.551 -78.5L188.087 -78.5L188.087 -79L196.623 -79L196.623 -78.5L205.159 -78.5L205.159 -79L213.695 -79L213.695 -78.5L222.231 -78.5L222.231 -79L230.767 -79L230.767 -78.5L239.303 -78.5L239.303 -79L247.838 -79L247.838 -78.5L256.374 -78.5L256.374 -79L264.91 -79L264.91 -78.5L273.446 -78.5L273.446 -79L281.982 -79L281.982 -78.5L286.25 -78.5C287.788 -78.5 289.318 -78.467 290.84 -78.4016L290.861 -78.9011C293.958 -78.7681 297.021 -78.5016 300.043 -78.1074L299.978 -77.6116C303.032 -77.2133 306.044 -76.6839 309.009 -76.0294L309.117 -76.5176C312.134 -75.8517 315.102 -75.0567 318.016 -74.1389L317.866 -73.662C320.795 -72.739 323.67 -71.6912 326.483 -70.5248L326.674 -70.9866C329.522 -69.8056 332.307 -68.5036 335.023 -67.087L334.792 -66.6437C337.509 -65.2261 340.157 -63.6932 342.729 -62.0514L342.998 -62.4729C345.592 -60.8172 348.108 -59.0513 350.541 -57.1819L350.236 -56.7854C352.663 -54.9207 355.006 -52.9525 357.258 -50.8874L357.596 -51.2559C359.861 -49.1795 362.035 -47.0055 364.111 -44.7406L363.743 -44.4027C365.808 -42.1502 367.776 -39.8074 369.641 -37.3809L370.037 -37.6855C371.907 -35.2528 373.673 -32.7364 375.328 -30.1428L374.907 -29.8738C376.549 -27.3021 378.082 -24.6542 379.499 -21.9366L379.942 -22.1678C381.359 -19.4521 382.661 -16.667 383.842 -13.8191L383.38 -13.6276C384.547 -10.8147 385.594 -7.94015 386.517 -5.01025L386.994 -5.16047C387.912 -2.24672 388.707 0.721542 389.373 3.73824L388.885 3.84602C389.539 6.81122 390.069 9.82347 390.467 12.877L390.963 12.8123C391.357 15.8347 391.624 18.8972 391.757 21.9943L391.257 22.0157C391.322 23.5374 391.355 25.0675 391.355 26.6054C391.355 28.1432 391.322 29.6733 391.257 31.1949L391.757 31.2164C391.624 34.3135 391.357 37.376 390.963 40.3984L390.467 40.3337C390.069 43.3872 389.539 46.3995 388.885 49.3647L389.373 49.4725C388.707 52.4892 387.912 55.4574 386.994 58.3712L386.517 58.221C385.594 61.1509 384.547 64.0254 383.38 66.8383L383.842 67.0298C382.661 69.8777 381.359 72.6628 379.942 75.3785L379.499 75.1473C378.082 77.8649 376.549 80.5128 374.907 83.0845L375.328 83.3535C373.673 85.9471 371.907 88.4635 370.037 90.8962L369.641 90.5916C367.776 93.0181 365.808 95.3609 363.743 97.6134L364.111 97.9513C362.035 100.216 359.861 102.39 357.596 104.467L357.258 104.098C355.006 106.163 352.663 108.131 350.236 109.996L350.541 110.393C348.108 112.262 345.592 114.028 342.998 115.684L342.729 115.262C340.157 116.904 337.51 118.437 334.792 119.854L335.023 120.298C332.307 121.714 329.522 123.016 326.675 124.197L326.483 123.735C323.67 124.902 320.796 125.95 317.866 126.873L318.016 127.35C315.102 128.267 312.134 129.062 309.117 129.728L309.009 129.24C306.044 129.895 303.032 130.424 299.978 130.822L300.043 131.318C297.021 131.712 293.958 131.979 290.861 132.112L290.84 131.612C289.318 131.678 287.788 131.711 286.25 131.711L281.982 131.711L281.982 132.211L273.446 132.211L273.446 131.711L264.91 131.711L264.91 132.211L256.374 132.211L256.374 131.711L247.839 131.711L247.839 132.211L239.303 132.211L239.303 131.711L230.767 131.711L230.767 132.211L222.231 132.211L222.231 131.711L213.695 131.711L213.695 132.211L205.159 132.211L205.159 131.711L196.623 131.711L196.623 132.211L188.087 132.211L188.087 131.711L179.552 131.711L179.552 132.211L171.016 132.211L171.016 131.711L162.48 131.711L162.48 132.211L153.944 132.211L153.944 131.711L145.408 131.711L145.408 132.211L136.872 132.211L136.872 131.711L132.604 131.711C131.066 131.711 129.536 131.678 128.015 131.612L127.993 132.112C124.896 131.979 121.833 131.712 118.811 131.318L118.876 130.822C115.822 130.424 112.81 129.895 109.845 129.24L109.737 129.728C106.72 129.062 103.752 128.267 100.838 127.35L100.989 126.873C98.0586 125.95 95.1841 124.902 92.3712 123.735L92.1797 124.197C89.3318 123.016 86.5467 121.714 83.831 120.298L84.0622 119.854C81.3446 118.437 78.6967 116.904 76.125 115.262L75.8559 115.684C73.2624 114.028 70.746 112.262 68.3132 110.393L68.6179 109.996C66.1914 108.131 63.8486 106.163 61.596 104.098L61.2581 104.467C58.9933 102.39 56.8193 100.216 54.7428 97.9513L55.1113 97.6134C53.0462 95.3609 51.078 93.0181 49.2133 90.5916L48.8168 90.8962C46.9474 88.4635 45.1815 85.9471 43.5258 83.3535L43.9473 83.0845C42.3055 80.5128 40.7726 77.8649 39.355 75.1473L38.9117 75.3785C37.4951 72.6628 36.1931 69.8777 35.0121 67.0298L35.4739 66.8383C34.3075 64.0254 33.2596 61.1509 32.3367 58.2209L31.8598 58.3712C30.9419 55.4574 30.147 52.4892 29.481 49.4725L29.9693 49.3647C29.3147 46.3995 28.7854 43.3872 28.387 40.3337L27.8913 40.3984C27.497 37.3761 27.2306 34.3135 27.0975 31.2164L27.597 31.195C27.5317 29.6733 27.4986 28.1432 27.4986 26.6054Z" stroke="#E96DFD" stroke-dasharray="9 9"/>
	</g>
</svg>
