<svg width="267" height="54" viewBox="0 0 267 54" fill="none" xmlns="http://www.w3.org/2000/svg">
	<mask id="mask0_939_7644" style="mask-type:alpha" maskUnits="userSpaceOnUse" x="0" y="0" width="267" height="54">
		<path d="M267 24C267 10.7452 256.255 0 243 0H24C10.7452 0 0 10.7452 0 24V30C0 43.2548 10.7452 54 24 54H243C256.255 54 267 43.2548 267 30V24Z" fill="#F7F7F7"/>
	</mask>
	<g mask="url(#mask0_939_7644)">
		<path d="M206.912 25.9116L59.7772 25.9116C9.20757 25.9116 -31.7873 -15.0832 -31.7873 -65.6528C-31.7873 -116.222 9.20752 -157.217 59.7772 -157.217L206.912 -157.217C257.482 -157.217 298.477 -116.222 298.477 -65.6528C298.477 -15.0832 257.482 25.9116 206.912 25.9116Z" stroke="#E96DFD"/>
		<path d="M-48.5014 -67.3946C-48.5014 -68.9325 -48.4683 -70.4626 -48.403 -71.9842L-48.9025 -72.0057C-48.7694 -75.1028 -48.503 -78.1653 -48.1087 -81.1877L-47.613 -81.123C-47.2146 -84.1765 -46.6853 -87.1888 -46.0307 -90.154L-46.519 -90.2617C-45.853 -93.2784 -45.0581 -96.2467 -44.1402 -99.1605L-43.6633 -99.0102C-42.7404 -101.94 -41.6925 -104.815 -40.5261 -107.628L-40.988 -107.819C-39.807 -110.667 -38.5049 -113.452 -37.0883 -116.168L-36.645 -115.937C-35.2274 -118.654 -33.6945 -121.302 -32.0528 -123.874L-32.4742 -124.143C-30.8185 -126.736 -29.0526 -129.253 -27.1832 -131.686L-26.7867 -131.381C-24.9221 -133.807 -22.9538 -136.15 -20.8887 -138.403L-21.2572 -138.741C-19.1808 -141.005 -17.0068 -143.179 -14.7419 -145.256L-14.404 -144.887C-12.1515 -146.953 -9.80869 -148.921 -7.38217 -150.785L-7.68683 -151.182C-5.25412 -153.051 -2.7377 -154.817 -0.144136 -156.473L0.124907 -156.051C2.69665 -157.693 5.34454 -159.226 8.06213 -160.644L7.8309 -161.087C10.5467 -162.504 13.3317 -163.806 16.1796 -164.987L16.3711 -164.525C19.184 -165.691 22.0586 -166.739 24.9885 -167.662L24.8382 -168.139C27.752 -169.057 30.7202 -169.852 33.7369 -170.518L33.8447 -170.029C36.8099 -170.684 39.8222 -171.213 42.8757 -171.612L42.811 -172.107C45.8334 -172.502 48.8959 -172.768 51.993 -172.901L52.0144 -172.402C53.5361 -172.467 55.0662 -172.5 56.6041 -172.5L60.872 -172.5L60.872 -173L69.4079 -173L69.4079 -172.5L77.9438 -172.5L77.9438 -173L86.4796 -173L86.4796 -172.5L95.0155 -172.5L95.0155 -173L103.551 -173L103.551 -172.5L112.087 -172.5L112.087 -173L120.623 -173L120.623 -172.5L129.159 -172.5L129.159 -173L137.695 -173L137.695 -172.5L146.231 -172.5L146.231 -173L154.767 -173L154.767 -172.5L163.303 -172.5L163.303 -173L171.838 -173L171.838 -172.5L180.374 -172.5L180.374 -173L188.91 -173L188.91 -172.5L197.446 -172.5L197.446 -173L205.982 -173L205.982 -172.5L210.25 -172.5C211.788 -172.5 213.318 -172.467 214.84 -172.402L214.861 -172.901C217.958 -172.768 221.021 -172.502 224.043 -172.107L223.978 -171.612C227.032 -171.213 230.044 -170.684 233.009 -170.029L233.117 -170.518C236.134 -169.852 239.102 -169.057 242.016 -168.139L241.866 -167.662C244.795 -166.739 247.67 -165.691 250.483 -164.525L250.674 -164.987C253.522 -163.806 256.307 -162.504 259.023 -161.087L258.792 -160.644C261.509 -159.226 264.157 -157.693 266.729 -156.051L266.998 -156.473C269.592 -154.817 272.108 -153.051 274.541 -151.182L274.236 -150.785C276.663 -148.921 279.006 -146.953 281.258 -144.887L281.596 -145.256C283.861 -143.179 286.035 -141.005 288.111 -138.741L287.743 -138.403C289.808 -136.15 291.776 -133.807 293.641 -131.381L294.037 -131.686C295.907 -129.253 297.673 -126.736 299.328 -124.143L298.907 -123.874C300.549 -121.302 302.082 -118.654 303.499 -115.937L303.942 -116.168C305.359 -113.452 306.661 -110.667 307.842 -107.819L307.38 -107.628C308.547 -104.815 309.594 -101.94 310.517 -99.0102L310.994 -99.1605C311.912 -96.2467 312.707 -93.2785 313.373 -90.2618L312.885 -90.154C313.539 -87.1888 314.069 -84.1765 314.467 -81.123L314.963 -81.1877C315.357 -78.1653 315.624 -75.1028 315.757 -72.0057L315.257 -71.9843C315.322 -70.4626 315.355 -68.9325 315.355 -67.3946C315.355 -65.8568 315.322 -64.3267 315.257 -62.8051L315.757 -62.7836C315.624 -59.6865 315.357 -56.624 314.963 -53.6016L314.467 -53.6663C314.069 -50.6128 313.539 -47.6005 312.885 -44.6353L313.373 -44.5275C312.707 -41.5108 311.912 -38.5426 310.994 -35.6288L310.517 -35.779C309.594 -32.8491 308.547 -29.9746 307.38 -27.1617L307.842 -26.9702C306.661 -24.1223 305.359 -21.3372 303.942 -18.6215L303.499 -18.8527C302.082 -16.1351 300.549 -13.4872 298.907 -10.9155L299.328 -10.6465C297.673 -8.0529 295.907 -5.53645 294.037 -3.10376L293.641 -3.40843C291.776 -0.981903 289.808 1.36092 287.743 3.61343L288.111 3.95134C286.035 6.2162 283.861 8.39018 281.596 10.4666L281.258 10.0981C279.006 12.1632 276.663 14.1315 274.236 15.9961L274.541 16.3926C272.108 18.262 269.592 20.0279 266.998 21.6836L266.729 21.2621C264.157 22.9039 261.51 24.4368 258.792 25.8544L259.023 26.2977C256.307 27.7143 253.522 29.0163 250.675 30.1973L250.483 29.7355C247.67 30.9019 244.796 31.9498 241.866 32.8727L242.016 33.3496C239.102 34.2674 236.134 35.0624 233.117 35.7283L233.009 35.2401C230.044 35.8946 227.032 36.424 223.978 36.8223L224.043 37.3181C221.021 37.7123 217.958 37.9788 214.861 38.1118L214.84 37.6123C213.318 37.6777 211.788 37.7107 210.25 37.7107L205.982 37.7107L205.982 38.2107L197.446 38.2107L197.446 37.7107L188.91 37.7107L188.91 38.2107L180.374 38.2107L180.374 37.7107L171.839 37.7107L171.839 38.2107L163.303 38.2107L163.303 37.7107L154.767 37.7107L154.767 38.2107L146.231 38.2107L146.231 37.7107L137.695 37.7107L137.695 38.2107L129.159 38.2107L129.159 37.7107L120.623 37.7107L120.623 38.2107L112.087 38.2107L112.087 37.7107L103.552 37.7107L103.552 38.2107L95.0156 38.2107L95.0156 37.7107L86.4798 37.7107L86.4798 38.2107L77.9439 38.2107L77.9439 37.7107L69.408 37.7107L69.408 38.2107L60.8721 38.2107L60.8721 37.7107L56.6042 37.7107C55.0663 37.7107 53.5362 37.6777 52.0146 37.6123L51.9931 38.1118C48.896 37.9788 45.8335 37.7123 42.8111 37.3181L42.8758 36.8223C39.8223 36.424 36.81 35.8946 33.8448 35.2401L33.737 35.7283C30.7204 35.0624 27.7521 34.2674 24.8383 33.3496L24.9885 32.8727C22.0586 31.9498 19.1841 30.9019 16.3712 29.7355L16.1797 30.1973C13.3318 29.0163 10.5467 27.7143 7.83098 26.2977L8.06221 25.8544C5.34462 24.4368 2.6967 22.9039 0.124985 21.2621L-0.144058 21.6836C-2.73762 20.0279 -5.25404 18.262 -7.68675 16.3926L-7.38209 15.9961C-9.80864 14.1315 -12.1514 12.1632 -14.404 10.0981L-14.7419 10.4666C-17.0067 8.39018 -19.1807 6.21619 -21.2572 3.95133L-20.8887 3.61344C-22.9538 1.3609 -24.922 -0.981916 -26.7867 -3.40843L-27.1832 -3.10377C-29.0526 -5.53647 -30.8185 -8.0529 -32.4742 -10.6465L-32.0527 -10.9155C-33.6945 -13.4872 -35.2274 -16.1351 -36.645 -18.8527L-37.0883 -18.6215C-38.5049 -21.3372 -39.8069 -24.1223 -40.9879 -26.9702L-40.5261 -27.1617C-41.6925 -29.9746 -42.7404 -32.8491 -43.6633 -35.7791L-44.1402 -35.6288C-45.0581 -38.5426 -45.853 -41.5108 -46.519 -44.5275L-46.0307 -44.6353C-46.6853 -47.6005 -47.2146 -50.6128 -47.613 -53.6663L-48.1087 -53.6016C-48.503 -56.6239 -48.7694 -59.6865 -48.9025 -62.7836L-48.403 -62.805C-48.4683 -64.3267 -48.5014 -65.8568 -48.5014 -67.3946Z" stroke="#E96DFD" stroke-dasharray="9 9"/>
		<path d="M292.912 179.912L145.777 179.912C95.2076 179.912 54.2127 138.917 54.2127 88.3472C54.2127 37.7775 95.2075 -3.21728 145.777 -3.21728L292.912 -3.21728C343.482 -3.21728 384.477 37.7775 384.477 88.3472C384.477 138.917 343.482 179.912 292.912 179.912Z" stroke="#E96DFD"/>
		<path d="M37.4986 86.6054C37.4986 85.0675 37.5317 83.5374 37.597 82.0158L37.0975 81.9943C37.2306 78.8972 37.497 75.8347 37.8913 72.8123L38.387 72.877C38.7854 69.8235 39.3147 66.8112 39.9693 63.846L39.481 63.7383C40.147 60.7216 40.9419 57.7533 41.8598 54.8395L42.3367 54.9898C43.2596 52.0599 44.3075 49.1853 45.4739 46.3724L45.012 46.1809C46.193 43.333 47.4951 40.5479 48.9117 37.8322L49.355 38.0634C50.7726 35.3458 52.3055 32.6979 53.9472 30.1262L53.5258 29.8572C55.1815 27.2636 56.9474 24.7472 58.8168 22.3145L59.2133 22.6191C61.0779 20.1926 63.0462 17.8498 65.1113 15.5973L64.7428 15.2594C66.8192 12.9945 68.9932 10.8205 71.2581 8.74407L71.596 9.11262C73.8485 7.04747 76.1913 5.07925 78.6178 3.21457L78.3132 2.81812C80.7459 0.948692 83.2623 -0.817169 85.8559 -2.47287L86.1249 -2.05144C88.6967 -3.69319 91.3445 -5.2261 94.0621 -6.64368L93.8309 -7.08699C96.5467 -8.50362 99.3317 -9.80563 102.18 -10.9866L102.371 -10.5248C105.184 -11.6912 108.059 -12.739 110.988 -13.662L110.838 -14.1389C113.752 -15.0567 116.72 -15.8517 119.737 -16.5176L119.845 -16.0294C122.81 -16.6839 125.822 -17.2133 128.876 -17.6116L128.811 -18.1074C131.833 -18.5016 134.896 -18.7681 137.993 -18.9011L138.014 -18.4016C139.536 -18.467 141.066 -18.5 142.604 -18.5L146.872 -18.5L146.872 -19L155.408 -19L155.408 -18.5L163.944 -18.5L163.944 -19L172.48 -19L172.48 -18.5L181.016 -18.5L181.016 -19L189.551 -19L189.551 -18.5L198.087 -18.5L198.087 -19L206.623 -19L206.623 -18.5L215.159 -18.5L215.159 -19L223.695 -19L223.695 -18.5L232.231 -18.5L232.231 -19L240.767 -19L240.767 -18.5L249.303 -18.5L249.303 -19L257.838 -19L257.838 -18.5L266.374 -18.5L266.374 -19L274.91 -19L274.91 -18.5L283.446 -18.5L283.446 -19L291.982 -19L291.982 -18.5L296.25 -18.5C297.788 -18.5 299.318 -18.467 300.84 -18.4016L300.861 -18.9011C303.958 -18.7681 307.021 -18.5016 310.043 -18.1074L309.978 -17.6116C313.032 -17.2133 316.044 -16.6839 319.009 -16.0294L319.117 -16.5176C322.134 -15.8517 325.102 -15.0567 328.016 -14.1389L327.866 -13.662C330.795 -12.739 333.67 -11.6912 336.483 -10.5248L336.674 -10.9866C339.522 -9.80563 342.307 -8.50362 345.023 -7.087L344.792 -6.64369C347.509 -5.2261 350.157 -3.69319 352.729 -2.05144L352.998 -2.47288C355.592 -0.817182 358.108 0.948683 360.541 2.81811L360.236 3.21457C362.663 5.07925 365.006 7.04747 367.258 9.11262L367.596 8.74407C369.861 10.8205 372.035 12.9945 374.111 15.2594L373.743 15.5973C375.808 17.8498 377.776 20.1926 379.641 22.6191L380.037 22.3145C381.907 24.7472 383.673 27.2636 385.328 29.8572L384.907 30.1262C386.549 32.6979 388.082 35.3458 389.499 38.0634L389.942 37.8322C391.359 40.5479 392.661 43.333 393.842 46.1809L393.38 46.3724C394.547 49.1853 395.594 52.0599 396.517 54.9898L396.994 54.8395C397.912 57.7533 398.707 60.7215 399.373 63.7382L398.885 63.846C399.539 66.8112 400.069 69.8235 400.467 72.877L400.963 72.8123C401.357 75.8347 401.624 78.8972 401.757 81.9943L401.257 82.0157C401.322 83.5374 401.355 85.0675 401.355 86.6054C401.355 88.1432 401.322 89.6733 401.257 91.1949L401.757 91.2164C401.624 94.3135 401.357 97.376 400.963 100.398L400.467 100.334C400.069 103.387 399.539 106.399 398.885 109.365L399.373 109.472C398.707 112.489 397.912 115.457 396.994 118.371L396.517 118.221C395.594 121.151 394.547 124.025 393.38 126.838L393.842 127.03C392.661 129.878 391.359 132.663 389.942 135.379L389.499 135.147C388.082 137.865 386.549 140.513 384.907 143.084L385.328 143.354C383.673 145.947 381.907 148.464 380.037 150.896L379.641 150.592C377.776 153.018 375.808 155.361 373.743 157.613L374.111 157.951C372.035 160.216 369.861 162.39 367.596 164.467L367.258 164.098C365.006 166.163 362.663 168.131 360.236 169.996L360.541 170.393C358.108 172.262 355.592 174.028 352.998 175.684L352.729 175.262C350.157 176.904 347.51 178.437 344.792 179.854L345.023 180.298C342.307 181.714 339.522 183.016 336.675 184.197L336.483 183.735C333.67 184.902 330.796 185.95 327.866 186.873L328.016 187.35C325.102 188.267 322.134 189.062 319.117 189.728L319.009 189.24C316.044 189.895 313.032 190.424 309.978 190.822L310.043 191.318C307.021 191.712 303.958 191.979 300.861 192.112L300.84 191.612C299.318 191.678 297.788 191.711 296.25 191.711L291.982 191.711L291.982 192.211L283.446 192.211L283.446 191.711L274.91 191.711L274.91 192.211L266.374 192.211L266.374 191.711L257.839 191.711L257.839 192.211L249.303 192.211L249.303 191.711L240.767 191.711L240.767 192.211L232.231 192.211L232.231 191.711L223.695 191.711L223.695 192.211L215.159 192.211L215.159 191.711L206.623 191.711L206.623 192.211L198.087 192.211L198.087 191.711L189.552 191.711L189.552 192.211L181.016 192.211L181.016 191.711L172.48 191.711L172.48 192.211L163.944 192.211L163.944 191.711L155.408 191.711L155.408 192.211L146.872 192.211L146.872 191.711L142.604 191.711C141.066 191.711 139.536 191.678 138.015 191.612L137.993 192.112C134.896 191.979 131.833 191.712 128.811 191.318L128.876 190.822C125.822 190.424 122.81 189.895 119.845 189.24L119.737 189.728C116.72 189.062 113.752 188.267 110.838 187.35L110.989 186.873C108.059 185.95 105.184 184.902 102.371 183.735L102.18 184.197C99.3318 183.016 96.5467 181.714 93.831 180.298L94.0622 179.854C91.3446 178.437 88.6967 176.904 86.125 175.262L85.8559 175.684C83.2624 174.028 80.746 172.262 78.3132 170.393L78.6179 169.996C76.1914 168.131 73.8486 166.163 71.596 164.098L71.2581 164.467C68.9933 162.39 66.8193 160.216 64.7428 157.951L65.1113 157.613C63.0462 155.361 61.078 153.018 59.2133 150.592L58.8168 150.896C56.9474 148.464 55.1815 145.947 53.5258 143.354L53.9473 143.084C52.3055 140.513 50.7726 137.865 49.355 135.147L48.9117 135.379C47.4951 132.663 46.1931 129.878 45.0121 127.03L45.4739 126.838C44.3075 124.025 43.2596 121.151 42.3367 118.221L41.8598 118.371C40.9419 115.457 40.147 112.489 39.481 109.472L39.9693 109.365C39.3147 106.399 38.7854 103.387 38.387 100.334L37.8913 100.398C37.497 97.3761 37.2306 94.3135 37.0975 91.2164L37.597 91.195C37.5317 89.6733 37.4986 88.1432 37.4986 86.6054Z" stroke="#E96DFD" stroke-dasharray="9 9"/>
	</g>
</svg>
