<svg width="267" height="54" viewBox="0 0 267 54" fill="none" xmlns="http://www.w3.org/2000/svg">
	<mask id="mask0_939_7656" style="mask-type:alpha" maskUnits="userSpaceOnUse" x="0" y="0" width="267" height="54">
		<path d="M267 24C267 10.7452 256.255 0 243 0H24C10.7452 0 0 10.7452 0 24V30C0 43.2548 10.7452 54 24 54H243C256.255 54 267 43.2548 267 30V24Z" fill="#F7F7F7"/>
	</mask>
	<g mask="url(#mask0_939_7656)">
		<path d="M466.912 73.9116L319.777 73.9116C269.208 73.9116 228.213 32.9168 228.213 -17.6528C228.213 -68.2225 269.208 -109.217 319.777 -109.217L466.912 -109.217C517.482 -109.217 558.477 -68.2225 558.477 -17.6528C558.477 32.9168 517.482 73.9116 466.912 73.9116Z" stroke="#E96DFD"/>
		<path d="M211.499 -19.3946C211.499 -20.9325 211.532 -22.4626 211.597 -23.9842L211.097 -24.0057C211.231 -27.1028 211.497 -30.1653 211.891 -33.1877L212.387 -33.123C212.785 -36.1765 213.315 -39.1888 213.969 -42.154L213.481 -42.2617C214.147 -45.2784 214.942 -48.2467 215.86 -51.1605L216.337 -51.0102C217.26 -53.9401 218.307 -56.8147 219.474 -59.6276L219.012 -59.8191C220.193 -62.667 221.495 -65.4521 222.912 -68.1678L223.355 -67.9366C224.773 -70.6542 226.305 -73.3021 227.947 -75.8738L227.526 -76.1428C229.181 -78.7364 230.947 -81.2528 232.817 -83.6855L233.213 -83.3809C235.078 -85.8074 237.046 -88.1502 239.111 -90.4027L238.743 -90.7406C240.819 -93.0055 242.993 -95.1795 245.258 -97.2559L245.596 -96.8874C247.849 -98.9525 250.191 -100.921 252.618 -102.785L252.313 -103.182C254.746 -105.051 257.262 -106.817 259.856 -108.473L260.125 -108.051C262.697 -109.693 265.345 -111.226 268.062 -112.644L267.831 -113.087C270.547 -114.504 273.332 -115.806 276.18 -116.987L276.371 -116.525C279.184 -117.691 282.059 -118.739 284.988 -119.662L284.838 -120.139C287.752 -121.057 290.72 -121.852 293.737 -122.518L293.845 -122.029C296.81 -122.684 299.822 -123.213 302.876 -123.612L302.811 -124.107C305.833 -124.502 308.896 -124.768 311.993 -124.901L312.014 -124.402C313.536 -124.467 315.066 -124.5 316.604 -124.5L320.872 -124.5L320.872 -125L329.408 -125L329.408 -124.5L337.944 -124.5L337.944 -125L346.48 -125L346.48 -124.5L355.016 -124.5L355.016 -125L363.551 -125L363.551 -124.5L372.087 -124.5L372.087 -125L380.623 -125L380.623 -124.5L389.159 -124.5L389.159 -125L397.695 -125L397.695 -124.5L406.231 -124.5L406.231 -125L414.767 -125L414.767 -124.5L423.303 -124.5L423.303 -125L431.838 -125L431.838 -124.5L440.374 -124.5L440.374 -125L448.91 -125L448.91 -124.5L457.446 -124.5L457.446 -125L465.982 -125L465.982 -124.5L470.25 -124.5C471.788 -124.5 473.318 -124.467 474.84 -124.402L474.861 -124.901C477.958 -124.768 481.021 -124.502 484.043 -124.107L483.978 -123.612C487.032 -123.213 490.044 -122.684 493.009 -122.029L493.117 -122.518C496.134 -121.852 499.102 -121.057 502.016 -120.139L501.866 -119.662C504.795 -118.739 507.67 -117.691 510.483 -116.525L510.674 -116.987C513.522 -115.806 516.307 -114.504 519.023 -113.087L518.792 -112.644C521.509 -111.226 524.157 -109.693 526.729 -108.051L526.998 -108.473C529.592 -106.817 532.108 -105.051 534.541 -103.182L534.236 -102.785C536.663 -100.921 539.006 -98.9525 541.258 -96.8874L541.596 -97.2559C543.861 -95.1795 546.035 -93.0055 548.111 -90.7406L547.743 -90.4027C549.808 -88.1502 551.776 -85.8074 553.641 -83.3809L554.037 -83.6855C555.907 -81.2528 557.673 -78.7364 559.328 -76.1428L558.907 -75.8738C560.549 -73.3021 562.082 -70.6542 563.499 -67.9366L563.942 -68.1678C565.359 -65.4521 566.661 -62.667 567.842 -59.8191L567.38 -59.6276C568.547 -56.8147 569.594 -53.9401 570.517 -51.0102L570.994 -51.1605C571.912 -48.2467 572.707 -45.2785 573.373 -42.2618L572.885 -42.154C573.539 -39.1888 574.069 -36.1765 574.467 -33.123L574.963 -33.1877C575.357 -30.1653 575.624 -27.1028 575.757 -24.0057L575.257 -23.9843C575.322 -22.4626 575.355 -20.9325 575.355 -19.3946C575.355 -17.8568 575.322 -16.3267 575.257 -14.8051L575.757 -14.7836C575.624 -11.6865 575.357 -8.62396 574.963 -5.6016L574.467 -5.66628C574.069 -2.61277 573.539 0.399483 572.885 3.36469L573.373 3.47246C572.707 6.48917 571.912 9.45744 570.994 12.3712L570.517 12.221C569.594 15.1509 568.547 18.0254 567.38 20.8383L567.842 21.0298C566.661 23.8777 565.359 26.6628 563.942 29.3785L563.499 29.1473C562.082 31.8649 560.549 34.5128 558.907 37.0845L559.328 37.3535C557.673 39.9471 555.907 42.4635 554.037 44.8962L553.641 44.5916C551.776 47.0181 549.808 49.3609 547.743 51.6134L548.111 51.9513C546.035 54.2162 543.861 56.3902 541.596 58.4666L541.258 58.0981C539.006 60.1632 536.663 62.1315 534.236 63.9961L534.541 64.3926C532.108 66.262 529.592 68.0279 526.998 69.6836L526.729 69.2621C524.157 70.9039 521.51 72.4368 518.792 73.8544L519.023 74.2977C516.307 75.7143 513.522 77.0163 510.675 78.1973L510.483 77.7355C507.67 78.9019 504.796 79.9498 501.866 80.8727L502.016 81.3496C499.102 82.2674 496.134 83.0624 493.117 83.7283L493.009 83.2401C490.044 83.8946 487.032 84.424 483.978 84.8223L484.043 85.3181C481.021 85.7123 477.958 85.9788 474.861 86.1118L474.84 85.6123C473.318 85.6777 471.788 85.7107 470.25 85.7107L465.982 85.7107L465.982 86.2107L457.446 86.2107L457.446 85.7107L448.91 85.7107L448.91 86.2107L440.374 86.2107L440.374 85.7107L431.839 85.7107L431.839 86.2107L423.303 86.2107L423.303 85.7107L414.767 85.7107L414.767 86.2107L406.231 86.2107L406.231 85.7107L397.695 85.7107L397.695 86.2107L389.159 86.2107L389.159 85.7107L380.623 85.7107L380.623 86.2107L372.087 86.2107L372.087 85.7107L363.552 85.7107L363.552 86.2107L355.016 86.2107L355.016 85.7107L346.48 85.7107L346.48 86.2107L337.944 86.2107L337.944 85.7107L329.408 85.7107L329.408 86.2107L320.872 86.2107L320.872 85.7107L316.604 85.7107C315.066 85.7107 313.536 85.6777 312.015 85.6123L311.993 86.1118C308.896 85.9788 305.833 85.7123 302.811 85.3181L302.876 84.8223C299.822 84.424 296.81 83.8946 293.845 83.2401L293.737 83.7283C290.72 83.0624 287.752 82.2674 284.838 81.3496L284.989 80.8727C282.059 79.9498 279.184 78.9019 276.371 77.7355L276.18 78.1973C273.332 77.0163 270.547 75.7143 267.831 74.2977L268.062 73.8544C265.345 72.4368 262.697 70.9039 260.125 69.2621L259.856 69.6836C257.262 68.0279 254.746 66.262 252.313 64.3926L252.618 63.9961C250.191 62.1315 247.849 60.1632 245.596 58.0981L245.258 58.4666C242.993 56.3902 240.819 54.2162 238.743 51.9513L239.111 51.6134C237.046 49.3609 235.078 47.0181 233.213 44.5916L232.817 44.8962C230.947 42.4635 229.182 39.9471 227.526 37.3535L227.947 37.0845C226.305 34.5128 224.773 31.8649 223.355 29.1473L222.912 29.3785C221.495 26.6628 220.193 23.8777 219.012 21.0298L219.474 20.8383C218.307 18.0254 217.26 15.1509 216.337 12.2209L215.86 12.3712C214.942 9.45745 214.147 6.48917 213.481 3.47246L213.969 3.36469C213.315 0.399492 212.785 -2.61276 212.387 -5.66626L211.891 -5.60158C211.497 -8.62395 211.231 -11.6865 211.097 -14.7836L211.597 -14.805C211.532 -16.3267 211.499 -17.8568 211.499 -19.3946Z" stroke="#E96DFD" stroke-dasharray="9 9"/>
		<path d="M167.912 218.912L20.7772 218.912C-29.7924 218.912 -70.7873 177.917 -70.7873 127.347C-70.7873 76.7775 -29.7925 35.7827 20.7772 35.7827L167.912 35.7827C218.482 35.7827 259.477 76.7775 259.477 127.347C259.477 177.917 218.482 218.912 167.912 218.912Z" stroke="#E96DFD"/>
		<path d="M-87.5014 125.605C-87.5014 124.068 -87.4683 122.537 -87.403 121.016L-87.9025 120.994C-87.7694 117.897 -87.503 114.835 -87.1087 111.812L-86.613 111.877C-86.2146 108.823 -85.6853 105.811 -85.0307 102.846L-85.519 102.738C-84.853 99.7216 -84.0581 96.7533 -83.1402 93.8395L-82.6633 93.9898C-81.7404 91.0599 -80.6925 88.1853 -79.5261 85.3724L-79.988 85.1809C-78.807 82.333 -77.5049 79.5479 -76.0883 76.8322L-75.645 77.0634C-74.2274 74.3458 -72.6945 71.6979 -71.0528 69.1262L-71.4742 68.8572C-69.8185 66.2636 -68.0526 63.7472 -66.1832 61.3145L-65.7867 61.6191C-63.9221 59.1926 -61.9538 56.8498 -59.8887 54.5973L-60.2572 54.2594C-58.1808 51.9945 -56.0068 49.8205 -53.7419 47.7441L-53.404 48.1126C-51.1515 46.0475 -48.8087 44.0793 -46.3822 42.2146L-46.6868 41.8181C-44.2541 39.9487 -41.7377 38.1828 -39.1441 36.5271L-38.8751 36.9486C-36.3033 35.3068 -33.6555 33.7739 -30.9379 32.3563L-31.1691 31.913C-28.4533 30.4964 -25.6683 29.1944 -22.8204 28.0134L-22.6289 28.4752C-19.816 27.3088 -16.9414 26.261 -14.0115 25.338L-14.1618 24.8611C-11.248 23.9433 -8.27975 23.1483 -5.26306 22.4824L-5.15527 22.9706C-2.19009 22.3161 0.822174 21.7867 3.87567 21.3884L3.811 20.8926C6.83337 20.4984 9.8959 20.2319 12.993 20.0989L13.0144 20.5984C14.5361 20.533 16.0662 20.5 17.6041 20.5L21.872 20.5L21.872 20L30.4079 20L30.4079 20.5L38.9438 20.5L38.9438 20L47.4796 20L47.4796 20.5L56.0155 20.5L56.0155 20L64.5514 20L64.5514 20.5L73.0873 20.5L73.0873 20L81.6232 20L81.6232 20.5L90.1591 20.5L90.1591 20L98.6949 20L98.6949 20.5L107.231 20.5L107.231 20L115.767 20L115.767 20.5L124.303 20.5L124.303 20L132.838 20L132.838 20.5L141.374 20.5L141.374 20L149.91 20L149.91 20.5L158.446 20.5L158.446 20L166.982 20L166.982 20.5L171.25 20.5C172.788 20.5 174.318 20.533 175.84 20.5984L175.861 20.0989C178.958 20.2319 182.021 20.4984 185.043 20.8926L184.978 21.3884C188.032 21.7867 191.044 22.3161 194.009 22.9706L194.117 22.4824C197.134 23.1483 200.102 23.9433 203.016 24.8611L202.866 25.338C205.795 26.261 208.67 27.3088 211.483 28.4752L211.674 28.0134C214.522 29.1944 217.307 30.4964 220.023 31.913L219.792 32.3563C222.509 33.7739 225.157 35.3068 227.729 36.9486L227.998 36.5271C230.592 38.1828 233.108 39.9487 235.541 41.8181L235.236 42.2146C237.663 44.0793 240.006 46.0475 242.258 48.1126L242.596 47.7441C244.861 49.8205 247.035 51.9945 249.111 54.2594L248.743 54.5973C250.808 56.8498 252.776 59.1926 254.641 61.6191L255.037 61.3145C256.907 63.7472 258.673 66.2636 260.328 68.8572L259.907 69.1262C261.549 71.6979 263.082 74.3458 264.499 77.0634L264.942 76.8322C266.359 79.5479 267.661 82.333 268.842 85.1809L268.38 85.3724C269.547 88.1853 270.594 91.0599 271.517 93.9898L271.994 93.8395C272.912 96.7533 273.707 99.7215 274.373 102.738L273.885 102.846C274.539 105.811 275.069 108.823 275.467 111.877L275.963 111.812C276.357 114.835 276.624 117.897 276.757 120.994L276.257 121.016C276.322 122.537 276.355 124.068 276.355 125.605C276.355 127.143 276.322 128.673 276.257 130.195L276.757 130.216C276.624 133.314 276.357 136.376 275.963 139.398L275.467 139.334C275.069 142.387 274.539 145.399 273.885 148.365L274.373 148.472C273.707 151.489 272.912 154.457 271.994 157.371L271.517 157.221C270.594 160.151 269.547 163.025 268.38 165.838L268.842 166.03C267.661 168.878 266.359 171.663 264.942 174.379L264.499 174.147C263.082 176.865 261.549 179.513 259.907 182.084L260.328 182.354C258.673 184.947 256.907 187.464 255.037 189.896L254.641 189.592C252.776 192.018 250.808 194.361 248.743 196.613L249.111 196.951C247.035 199.216 244.861 201.39 242.596 203.467L242.258 203.098C240.006 205.163 237.663 207.131 235.236 208.996L235.541 209.393C233.108 211.262 230.592 213.028 227.998 214.684L227.729 214.262C225.157 215.904 222.51 217.437 219.792 218.854L220.023 219.298C217.307 220.714 214.522 222.016 211.675 223.197L211.483 222.735C208.67 223.902 205.796 224.95 202.866 225.873L203.016 226.35C200.102 227.267 197.134 228.062 194.117 228.728L194.009 228.24C191.044 228.895 188.032 229.424 184.978 229.822L185.043 230.318C182.021 230.712 178.958 230.979 175.861 231.112L175.84 230.612C174.318 230.678 172.788 230.711 171.25 230.711L166.982 230.711L166.982 231.211L158.446 231.211L158.446 230.711L149.91 230.711L149.91 231.211L141.374 231.211L141.374 230.711L132.839 230.711L132.839 231.211L124.303 231.211L124.303 230.711L115.767 230.711L115.767 231.211L107.231 231.211L107.231 230.711L98.695 230.711L98.695 231.211L90.1592 231.211L90.1592 230.711L81.6233 230.711L81.6233 231.211L73.0874 231.211L73.0874 230.711L64.5515 230.711L64.5515 231.211L56.0156 231.211L56.0156 230.711L47.4798 230.711L47.4798 231.211L38.9439 231.211L38.9439 230.711L30.408 230.711L30.408 231.211L21.8721 231.211L21.8721 230.711L17.6042 230.711C16.0663 230.711 14.5362 230.678 13.0146 230.612L12.9931 231.112C9.89598 230.979 6.83348 230.712 3.81111 230.318L3.87578 229.822C0.82228 229.424 -2.18999 228.895 -5.15517 228.24L-5.26296 228.728C-8.27965 228.062 -11.2479 227.267 -14.1617 226.35L-14.0115 225.873C-16.9414 224.95 -19.8159 223.902 -22.6288 222.735L-22.8203 223.197C-25.6682 222.016 -28.4533 220.714 -31.169 219.298L-30.9378 218.854C-33.6554 217.437 -36.3033 215.904 -38.875 214.262L-39.1441 214.684C-41.7376 213.028 -44.254 211.262 -46.6868 209.393L-46.3821 208.996C-48.8086 207.131 -51.1514 205.163 -53.404 203.098L-53.7419 203.467C-56.0067 201.39 -58.1807 199.216 -60.2572 196.951L-59.8887 196.613C-61.9538 194.361 -63.922 192.018 -65.7867 189.592L-66.1832 189.896C-68.0526 187.464 -69.8185 184.947 -71.4742 182.354L-71.0527 182.084C-72.6945 179.513 -74.2274 176.865 -75.645 174.147L-76.0883 174.379C-77.5049 171.663 -78.8069 168.878 -79.9879 166.03L-79.5261 165.838C-80.6925 163.025 -81.7404 160.151 -82.6633 157.221L-83.1402 157.371C-84.0581 154.457 -84.853 151.489 -85.519 148.472L-85.0307 148.365C-85.6853 145.399 -86.2146 142.387 -86.613 139.334L-87.1087 139.398C-87.503 136.376 -87.7694 133.314 -87.9025 130.216L-87.403 130.195C-87.4683 128.673 -87.5014 127.143 -87.5014 125.605Z" stroke="#E96DFD" stroke-dasharray="9 9"/>
	</g>
</svg>
