<svg width="267" height="54" viewBox="0 0 267 54" fill="none" xmlns="http://www.w3.org/2000/svg">
	<mask id="mask0_939_7667" style="mask-type:alpha" maskUnits="userSpaceOnUse" x="0" y="0" width="267" height="54">
		<path d="M267 24C267 10.7452 256.255 0 243 0H24C10.7452 0 0 10.7452 0 24V30C0 43.2548 10.7452 54 24 54H243C256.255 54 267 43.2548 267 30V24Z" fill="#F7F7F7"/>
	</mask>
	<g mask="url(#mask0_939_7667)">
		<path d="M430.912 71.9116L283.777 71.9116C233.208 71.9116 192.213 30.9168 192.213 -19.6528C192.213 -70.2225 233.208 -111.217 283.777 -111.217L430.912 -111.217C481.482 -111.217 522.477 -70.2225 522.477 -19.6528C522.477 30.9168 481.482 71.9116 430.912 71.9116Z" stroke="#E96DFD"/>
		<path d="M175.499 -21.3946C175.499 -22.9325 175.532 -24.4626 175.597 -25.9842L175.097 -26.0057C175.231 -29.1028 175.497 -32.1653 175.891 -35.1877L176.387 -35.123C176.785 -38.1765 177.315 -41.1888 177.969 -44.154L177.481 -44.2617C178.147 -47.2784 178.942 -50.2467 179.86 -53.1605L180.337 -53.0102C181.26 -55.9401 182.307 -58.8147 183.474 -61.6276L183.012 -61.8191C184.193 -64.667 185.495 -67.4521 186.912 -70.1678L187.355 -69.9366C188.773 -72.6542 190.305 -75.3021 191.947 -77.8738L191.526 -78.1428C193.181 -80.7364 194.947 -83.2528 196.817 -85.6855L197.213 -85.3809C199.078 -87.8074 201.046 -90.1502 203.111 -92.4027L202.743 -92.7406C204.819 -95.0055 206.993 -97.1795 209.258 -99.2559L209.596 -98.8874C211.849 -100.953 214.191 -102.921 216.618 -104.785L216.313 -105.182C218.746 -107.051 221.262 -108.817 223.856 -110.473L224.125 -110.051C226.697 -111.693 229.345 -113.226 232.062 -114.644L231.831 -115.087C234.547 -116.504 237.332 -117.806 240.18 -118.987L240.371 -118.525C243.184 -119.691 246.059 -120.739 248.988 -121.662L248.838 -122.139C251.752 -123.057 254.72 -123.852 257.737 -124.518L257.845 -124.029C260.81 -124.684 263.822 -125.213 266.876 -125.612L266.811 -126.107C269.833 -126.502 272.896 -126.768 275.993 -126.901L276.014 -126.402C277.536 -126.467 279.066 -126.5 280.604 -126.5L284.872 -126.5L284.872 -127L293.408 -127L293.408 -126.5L301.944 -126.5L301.944 -127L310.48 -127L310.48 -126.5L319.016 -126.5L319.016 -127L327.551 -127L327.551 -126.5L336.087 -126.5L336.087 -127L344.623 -127L344.623 -126.5L353.159 -126.5L353.159 -127L361.695 -127L361.695 -126.5L370.231 -126.5L370.231 -127L378.767 -127L378.767 -126.5L387.303 -126.5L387.303 -127L395.838 -127L395.838 -126.5L404.374 -126.5L404.374 -127L412.91 -127L412.91 -126.5L421.446 -126.5L421.446 -127L429.982 -127L429.982 -126.5L434.25 -126.5C435.788 -126.5 437.318 -126.467 438.84 -126.402L438.861 -126.901C441.958 -126.768 445.021 -126.502 448.043 -126.107L447.978 -125.612C451.032 -125.213 454.044 -124.684 457.009 -124.029L457.117 -124.518C460.134 -123.852 463.102 -123.057 466.016 -122.139L465.866 -121.662C468.795 -120.739 471.67 -119.691 474.483 -118.525L474.674 -118.987C477.522 -117.806 480.307 -116.504 483.023 -115.087L482.792 -114.644C485.509 -113.226 488.157 -111.693 490.729 -110.051L490.998 -110.473C493.592 -108.817 496.108 -107.051 498.541 -105.182L498.236 -104.785C500.663 -102.921 503.006 -100.953 505.258 -98.8874L505.596 -99.2559C507.861 -97.1795 510.035 -95.0055 512.111 -92.7406L511.743 -92.4027C513.808 -90.1502 515.776 -87.8074 517.641 -85.3809L518.037 -85.6855C519.907 -83.2528 521.673 -80.7364 523.328 -78.1428L522.907 -77.8738C524.549 -75.3021 526.082 -72.6542 527.499 -69.9366L527.942 -70.1678C529.359 -67.4521 530.661 -64.667 531.842 -61.8191L531.38 -61.6276C532.547 -58.8147 533.594 -55.9401 534.517 -53.0102L534.994 -53.1605C535.912 -50.2467 536.707 -47.2785 537.373 -44.2618L536.885 -44.154C537.539 -41.1888 538.069 -38.1765 538.467 -35.123L538.963 -35.1877C539.357 -32.1653 539.624 -29.1028 539.757 -26.0057L539.257 -25.9843C539.322 -24.4626 539.355 -22.9325 539.355 -21.3946C539.355 -19.8568 539.322 -18.3267 539.257 -16.8051L539.757 -16.7836C539.624 -13.6865 539.357 -10.624 538.963 -7.6016L538.467 -7.66628C538.069 -4.61277 537.539 -1.60052 536.885 1.36469L537.373 1.47246C536.707 4.48917 535.912 7.45744 534.994 10.3712L534.517 10.221C533.594 13.1509 532.547 16.0254 531.38 18.8383L531.842 19.0298C530.661 21.8777 529.359 24.6628 527.942 27.3785L527.499 27.1473C526.082 29.8649 524.549 32.5128 522.907 35.0845L523.328 35.3535C521.673 37.9471 519.907 40.4635 518.037 42.8962L517.641 42.5916C515.776 45.0181 513.808 47.3609 511.743 49.6134L512.111 49.9513C510.035 52.2162 507.861 54.3902 505.596 56.4666L505.258 56.0981C503.006 58.1632 500.663 60.1315 498.236 61.9961L498.541 62.3926C496.108 64.262 493.592 66.0279 490.998 67.6836L490.729 67.2621C488.157 68.9039 485.51 70.4368 482.792 71.8544L483.023 72.2977C480.307 73.7143 477.522 75.0163 474.675 76.1973L474.483 75.7355C471.67 76.9019 468.796 77.9498 465.866 78.8727L466.016 79.3496C463.102 80.2674 460.134 81.0624 457.117 81.7283L457.009 81.2401C454.044 81.8946 451.032 82.424 447.978 82.8223L448.043 83.3181C445.021 83.7123 441.958 83.9788 438.861 84.1118L438.84 83.6123C437.318 83.6777 435.788 83.7107 434.25 83.7107L429.982 83.7107L429.982 84.2107L421.446 84.2107L421.446 83.7107L412.91 83.7107L412.91 84.2107L404.374 84.2107L404.374 83.7107L395.839 83.7107L395.839 84.2107L387.303 84.2107L387.303 83.7107L378.767 83.7107L378.767 84.2107L370.231 84.2107L370.231 83.7107L361.695 83.7107L361.695 84.2107L353.159 84.2107L353.159 83.7107L344.623 83.7107L344.623 84.2107L336.087 84.2107L336.087 83.7107L327.552 83.7107L327.552 84.2107L319.016 84.2107L319.016 83.7107L310.48 83.7107L310.48 84.2107L301.944 84.2107L301.944 83.7107L293.408 83.7107L293.408 84.2107L284.872 84.2107L284.872 83.7107L280.604 83.7107C279.066 83.7107 277.536 83.6777 276.015 83.6123L275.993 84.1118C272.896 83.9788 269.833 83.7123 266.811 83.3181L266.876 82.8223C263.822 82.424 260.81 81.8946 257.845 81.2401L257.737 81.7283C254.72 81.0624 251.752 80.2674 248.838 79.3496L248.989 78.8727C246.059 77.9498 243.184 76.9019 240.371 75.7355L240.18 76.1973C237.332 75.0163 234.547 73.7143 231.831 72.2977L232.062 71.8544C229.345 70.4368 226.697 68.9039 224.125 67.2621L223.856 67.6836C221.262 66.0279 218.746 64.262 216.313 62.3926L216.618 61.9961C214.191 60.1315 211.849 58.1632 209.596 56.0981L209.258 56.4666C206.993 54.3902 204.819 52.2162 202.743 49.9513L203.111 49.6134C201.046 47.3609 199.078 45.0181 197.213 42.5916L196.817 42.8962C194.947 40.4635 193.182 37.9471 191.526 35.3535L191.947 35.0845C190.305 32.5128 188.773 29.8649 187.355 27.1473L186.912 27.3785C185.495 24.6628 184.193 21.8777 183.012 19.0298L183.474 18.8383C182.307 16.0254 181.26 13.1509 180.337 10.2209L179.86 10.3712C178.942 7.45745 178.147 4.48917 177.481 1.47246L177.969 1.36469C177.315 -1.60051 176.785 -4.61276 176.387 -7.66626L175.891 -7.60158C175.497 -10.6239 175.231 -13.6865 175.097 -16.7836L175.597 -16.805C175.532 -18.3267 175.499 -19.8568 175.499 -21.3946Z" stroke="#E96DFD" stroke-dasharray="9 9"/>
		<path d="M292.912 179.912L145.777 179.912C95.2076 179.912 54.2127 138.917 54.2127 88.3472C54.2127 37.7775 95.2075 -3.21728 145.777 -3.21728L292.912 -3.21728C343.482 -3.21728 384.477 37.7775 384.477 88.3472C384.477 138.917 343.482 179.912 292.912 179.912Z" stroke="#E96DFD"/>
		<path d="M37.4986 86.6054C37.4986 85.0675 37.5317 83.5374 37.597 82.0158L37.0975 81.9943C37.2306 78.8972 37.497 75.8347 37.8913 72.8123L38.387 72.877C38.7854 69.8235 39.3147 66.8112 39.9693 63.846L39.481 63.7383C40.147 60.7216 40.9419 57.7533 41.8598 54.8395L42.3367 54.9898C43.2596 52.0599 44.3075 49.1853 45.4739 46.3724L45.012 46.1809C46.193 43.333 47.4951 40.5479 48.9117 37.8322L49.355 38.0634C50.7726 35.3458 52.3055 32.6979 53.9472 30.1262L53.5258 29.8572C55.1815 27.2636 56.9474 24.7472 58.8168 22.3145L59.2133 22.6191C61.0779 20.1926 63.0462 17.8498 65.1113 15.5973L64.7428 15.2594C66.8192 12.9945 68.9932 10.8205 71.2581 8.74407L71.596 9.11262C73.8485 7.04747 76.1913 5.07925 78.6178 3.21457L78.3132 2.81812C80.7459 0.948692 83.2623 -0.817169 85.8559 -2.47287L86.1249 -2.05144C88.6967 -3.69319 91.3445 -5.2261 94.0621 -6.64368L93.8309 -7.08699C96.5467 -8.50362 99.3317 -9.80563 102.18 -10.9866L102.371 -10.5248C105.184 -11.6912 108.059 -12.739 110.988 -13.662L110.838 -14.1389C113.752 -15.0567 116.72 -15.8517 119.737 -16.5176L119.845 -16.0294C122.81 -16.6839 125.822 -17.2133 128.876 -17.6116L128.811 -18.1074C131.833 -18.5016 134.896 -18.7681 137.993 -18.9011L138.014 -18.4016C139.536 -18.467 141.066 -18.5 142.604 -18.5L146.872 -18.5L146.872 -19L155.408 -19L155.408 -18.5L163.944 -18.5L163.944 -19L172.48 -19L172.48 -18.5L181.016 -18.5L181.016 -19L189.551 -19L189.551 -18.5L198.087 -18.5L198.087 -19L206.623 -19L206.623 -18.5L215.159 -18.5L215.159 -19L223.695 -19L223.695 -18.5L232.231 -18.5L232.231 -19L240.767 -19L240.767 -18.5L249.303 -18.5L249.303 -19L257.838 -19L257.838 -18.5L266.374 -18.5L266.374 -19L274.91 -19L274.91 -18.5L283.446 -18.5L283.446 -19L291.982 -19L291.982 -18.5L296.25 -18.5C297.788 -18.5 299.318 -18.467 300.84 -18.4016L300.861 -18.9011C303.958 -18.7681 307.021 -18.5016 310.043 -18.1074L309.978 -17.6116C313.032 -17.2133 316.044 -16.6839 319.009 -16.0294L319.117 -16.5176C322.134 -15.8517 325.102 -15.0567 328.016 -14.1389L327.866 -13.662C330.795 -12.739 333.67 -11.6912 336.483 -10.5248L336.674 -10.9866C339.522 -9.80563 342.307 -8.50362 345.023 -7.087L344.792 -6.64369C347.509 -5.2261 350.157 -3.69319 352.729 -2.05144L352.998 -2.47288C355.592 -0.817182 358.108 0.948683 360.541 2.81811L360.236 3.21457C362.663 5.07925 365.006 7.04747 367.258 9.11262L367.596 8.74407C369.861 10.8205 372.035 12.9945 374.111 15.2594L373.743 15.5973C375.808 17.8498 377.776 20.1926 379.641 22.6191L380.037 22.3145C381.907 24.7472 383.673 27.2636 385.328 29.8572L384.907 30.1262C386.549 32.6979 388.082 35.3458 389.499 38.0634L389.942 37.8322C391.359 40.5479 392.661 43.333 393.842 46.1809L393.38 46.3724C394.547 49.1853 395.594 52.0599 396.517 54.9898L396.994 54.8395C397.912 57.7533 398.707 60.7215 399.373 63.7382L398.885 63.846C399.539 66.8112 400.069 69.8235 400.467 72.877L400.963 72.8123C401.357 75.8347 401.624 78.8972 401.757 81.9943L401.257 82.0157C401.322 83.5374 401.355 85.0675 401.355 86.6054C401.355 88.1432 401.322 89.6733 401.257 91.1949L401.757 91.2164C401.624 94.3135 401.357 97.376 400.963 100.398L400.467 100.334C400.069 103.387 399.539 106.399 398.885 109.365L399.373 109.472C398.707 112.489 397.912 115.457 396.994 118.371L396.517 118.221C395.594 121.151 394.547 124.025 393.38 126.838L393.842 127.03C392.661 129.878 391.359 132.663 389.942 135.379L389.499 135.147C388.082 137.865 386.549 140.513 384.907 143.084L385.328 143.354C383.673 145.947 381.907 148.464 380.037 150.896L379.641 150.592C377.776 153.018 375.808 155.361 373.743 157.613L374.111 157.951C372.035 160.216 369.861 162.39 367.596 164.467L367.258 164.098C365.006 166.163 362.663 168.131 360.236 169.996L360.541 170.393C358.108 172.262 355.592 174.028 352.998 175.684L352.729 175.262C350.157 176.904 347.51 178.437 344.792 179.854L345.023 180.298C342.307 181.714 339.522 183.016 336.675 184.197L336.483 183.735C333.67 184.902 330.796 185.95 327.866 186.873L328.016 187.35C325.102 188.267 322.134 189.062 319.117 189.728L319.009 189.24C316.044 189.895 313.032 190.424 309.978 190.822L310.043 191.318C307.021 191.712 303.958 191.979 300.861 192.112L300.84 191.612C299.318 191.678 297.788 191.711 296.25 191.711L291.982 191.711L291.982 192.211L283.446 192.211L283.446 191.711L274.91 191.711L274.91 192.211L266.374 192.211L266.374 191.711L257.839 191.711L257.839 192.211L249.303 192.211L249.303 191.711L240.767 191.711L240.767 192.211L232.231 192.211L232.231 191.711L223.695 191.711L223.695 192.211L215.159 192.211L215.159 191.711L206.623 191.711L206.623 192.211L198.087 192.211L198.087 191.711L189.552 191.711L189.552 192.211L181.016 192.211L181.016 191.711L172.48 191.711L172.48 192.211L163.944 192.211L163.944 191.711L155.408 191.711L155.408 192.211L146.872 192.211L146.872 191.711L142.604 191.711C141.066 191.711 139.536 191.678 138.015 191.612L137.993 192.112C134.896 191.979 131.833 191.712 128.811 191.318L128.876 190.822C125.822 190.424 122.81 189.895 119.845 189.24L119.737 189.728C116.72 189.062 113.752 188.267 110.838 187.35L110.989 186.873C108.059 185.95 105.184 184.902 102.371 183.735L102.18 184.197C99.3318 183.016 96.5467 181.714 93.831 180.298L94.0622 179.854C91.3446 178.437 88.6967 176.904 86.125 175.262L85.8559 175.684C83.2624 174.028 80.746 172.262 78.3132 170.393L78.6179 169.996C76.1914 168.131 73.8486 166.163 71.596 164.098L71.2581 164.467C68.9933 162.39 66.8193 160.216 64.7428 157.951L65.1113 157.613C63.0462 155.361 61.078 153.018 59.2133 150.592L58.8168 150.896C56.9474 148.464 55.1815 145.947 53.5258 143.354L53.9473 143.084C52.3055 140.513 50.7726 137.865 49.355 135.147L48.9117 135.379C47.4951 132.663 46.1931 129.878 45.0121 127.03L45.4739 126.838C44.3075 124.025 43.2596 121.151 42.3367 118.221L41.8598 118.371C40.9419 115.457 40.147 112.489 39.481 109.472L39.9693 109.365C39.3147 106.399 38.7854 103.387 38.387 100.334L37.8913 100.398C37.497 97.3761 37.2306 94.3135 37.0975 91.2164L37.597 91.195C37.5317 89.6733 37.4986 88.1432 37.4986 86.6054Z" stroke="#E96DFD" stroke-dasharray="9 9"/>
	</g>
</svg>
