<svg width="346" height="56" viewBox="0 0 346 56" fill="none" xmlns="http://www.w3.org/2000/svg">
	<path d="M0.636 6.648L2.232 6.732C2.22 6.66 2.208 6.588 2.196 6.504C2.184 6.432 2.184 6.36 2.184 6.276C2.184 5.856 2.304 5.496 2.532 5.208C2.76 4.92 3.12 4.776 3.6 4.776C3.828 4.776 4.032 4.812 4.2 4.872C4.38 4.944 4.524 5.04 4.632 5.16C4.74 5.268 4.824 5.4 4.884 5.556C4.944 5.712 4.968 5.868 4.968 6.036C4.968 6.336 4.884 6.612 4.716 6.864C4.56 7.116 4.296 7.356 3.924 7.584L2.532 8.448C2.16 8.676 1.836 8.928 1.584 9.192C1.332 9.444 1.116 9.72 0.96 10.02C0.804 10.308 0.696 10.62 0.624 10.956C0.552 11.28 0.516 11.628 0.516 12H6.696V10.548H2.556C2.616 10.344 2.724 10.176 2.868 10.044C3.012 9.912 3.18 9.78 3.36 9.66L5.016 8.64C5.532 8.328 5.928 7.956 6.216 7.512C6.504 7.068 6.648 6.564 6.648 6C6.648 5.64 6.576 5.292 6.444 4.968C6.312 4.644 6.108 4.356 5.844 4.116C5.592 3.864 5.268 3.672 4.896 3.528C4.524 3.384 4.104 3.312 3.636 3.312C3.144 3.312 2.712 3.396 2.34 3.552C1.968 3.708 1.644 3.912 1.38 4.164C1.128 4.416 0.924 4.716 0.792 5.064C0.66 5.4 0.588 5.748 0.588 6.12C0.588 6.216 0.588 6.312 0.6 6.408C0.612 6.504 0.624 6.588 0.636 6.648ZM7.85306 7.752C7.85306 8.304 7.90106 8.832 8.00906 9.348C8.11706 9.864 8.30906 10.344 8.59706 10.776C8.87306 11.196 9.24506 11.544 9.68906 11.796C10.1331 12.048 10.6851 12.18 11.3331 12.18C11.9811 12.18 12.5331 12.048 12.9771 11.796C13.4331 11.544 13.8051 11.196 14.0811 10.776C14.3571 10.344 14.5611 9.864 14.6691 9.348C14.7771 8.832 14.8371 8.304 14.8371 7.752C14.8371 7.2 14.7771 6.66 14.6691 6.144C14.5611 5.628 14.3571 5.148 14.0811 4.716C13.8051 4.296 13.4331 3.948 12.9771 3.696C12.5331 3.444 11.9811 3.312 11.3331 3.312C10.6851 3.312 10.1331 3.444 9.68906 3.696C9.24506 3.948 8.87306 4.296 8.59706 4.716C8.30906 5.148 8.11706 5.628 8.00906 6.144C7.90106 6.66 7.85306 7.2 7.85306 7.752ZM9.50906 7.752C9.50906 7.248 9.55706 6.804 9.64106 6.408C9.72506 6.024 9.85706 5.7 10.0371 5.448C10.1811 5.244 10.3611 5.088 10.5651 4.968C10.7691 4.848 11.0331 4.788 11.3331 4.788C11.6451 4.788 11.9091 4.848 12.1131 4.968C12.3171 5.088 12.4971 5.244 12.6411 5.448C12.8211 5.7 12.9651 6.024 13.0491 6.408C13.1331 6.804 13.1811 7.248 13.1811 7.752C13.1811 8.256 13.1331 8.7 13.0491 9.084C12.9651 9.48 12.8211 9.804 12.6411 10.056C12.4971 10.26 12.3171 10.416 12.1131 10.536C11.9091 10.656 11.6451 10.716 11.3331 10.716C11.0331 10.716 10.7691 10.656 10.5651 10.536C10.3611 10.416 10.1811 10.26 10.0371 10.056C9.85706 9.804 9.72506 9.48 9.64106 9.084C9.55706 8.7 9.50906 8.256 9.50906 7.752ZM17.7024 12H19.3464V3.492H17.9064C17.8704 3.72 17.7864 3.924 17.6664 4.116C17.5344 4.296 17.3784 4.464 17.1864 4.608C16.9824 4.752 16.7544 4.872 16.5024 4.956C16.2504 5.04 15.9624 5.076 15.6624 5.088V6.216H17.7024V12ZM26.8277 4.92V3.492H20.4437V4.932H24.9197C24.3797 5.424 23.8757 6.024 23.4317 6.72C23.2397 7.02 23.0477 7.344 22.8557 7.716C22.6637 8.088 22.4837 8.484 22.3277 8.928C22.1597 9.372 22.0157 9.84 21.9077 10.356C21.7877 10.872 21.7037 11.412 21.6557 12H23.3717C23.4317 11.28 23.5517 10.62 23.7197 10.008C23.8757 9.396 24.0677 8.856 24.2837 8.364C24.4997 7.872 24.7397 7.428 24.9917 7.044C25.2437 6.66 25.4837 6.324 25.7117 6.048C25.9397 5.76 26.1557 5.52 26.3597 5.34C26.5637 5.16 26.7197 5.016 26.8277 4.92Z" fill="white"/>
	<path d="M62.4403 13.9536H66.6533V13.1766H63.4504C63.4936 12.9781 63.5799 12.7881 63.7007 12.6241C63.8302 12.4601 63.977 12.3133 64.1583 12.2011L65.4188 11.4241C65.7814 11.1996 66.0663 10.932 66.2735 10.6298C66.4893 10.3277 66.5929 9.97369 66.5929 9.57656C66.5929 9.3262 66.5497 9.08447 66.4548 8.86C66.3598 8.63554 66.2303 8.43697 66.0576 8.27294C65.885 8.10028 65.6691 7.96214 65.4188 7.86718C65.1684 7.77221 64.8835 7.72041 64.5641 7.72041C64.2274 7.72041 63.9338 7.77221 63.6748 7.88445C63.4159 7.98804 63.2 8.12618 63.0187 8.30747C62.8374 8.48877 62.7079 8.69597 62.613 8.9377C62.518 9.1708 62.4748 9.42116 62.4748 9.68879C62.4748 9.74923 62.4748 9.80966 62.4835 9.88736C62.4921 9.96506 62.5007 10.0255 62.5094 10.0687L63.3123 10.1032C63.3036 10.0428 63.295 9.99096 63.2864 9.93916C63.2777 9.87872 63.2777 9.82692 63.2777 9.78376C63.2777 9.38663 63.3986 9.0672 63.6317 8.82547C63.8648 8.58374 64.1842 8.46287 64.59 8.46287C64.7713 8.46287 64.9267 8.49741 65.0734 8.55784C65.2202 8.61827 65.3497 8.69597 65.4447 8.79957C65.5483 8.89453 65.626 9.0154 65.6778 9.15353C65.7382 9.29166 65.7641 9.43843 65.7641 9.59383C65.7641 9.87009 65.6864 10.1118 65.531 10.319C65.3842 10.5176 65.1598 10.7161 64.8576 10.9061L63.7439 11.6054C63.5022 11.7521 63.295 11.9162 63.131 12.0975C62.9669 12.2701 62.8374 12.4601 62.7338 12.6586C62.6389 12.8572 62.5612 13.073 62.518 13.2889C62.4748 13.5047 62.4489 13.7291 62.4403 13.9536ZM67.584 10.8974C67.584 11.2514 67.6185 11.6226 67.6876 11.9939C67.7566 12.3651 67.8775 12.7104 68.0588 13.0126C68.2401 13.3234 68.4818 13.5738 68.784 13.7723C69.0861 13.9709 69.4746 14.0658 69.9495 14.0658C70.4243 14.0658 70.8128 13.9709 71.1149 13.7723C71.4171 13.5738 71.6588 13.3234 71.8401 13.0212C72.0214 12.7191 72.1423 12.3737 72.2114 11.9939C72.2804 11.6226 72.315 11.2514 72.315 10.8974C72.315 10.5349 72.2804 10.1636 72.2114 9.78376C72.1337 9.41253 72.0128 9.0672 71.8315 8.76504C71.6502 8.46287 71.4085 8.21251 71.1063 8.01394C70.8042 7.81538 70.4157 7.72041 69.9495 7.72041C69.4833 7.72041 69.0948 7.81538 68.7926 8.01394C68.4904 8.21251 68.2487 8.46287 68.0674 8.76504C67.8861 9.0672 67.7653 9.41253 67.6962 9.78376C67.6185 10.1636 67.584 10.5349 67.584 10.8974ZM71.4775 10.8974C71.4775 11.1996 71.4516 11.5018 71.4085 11.7867C71.3653 12.0802 71.279 12.3392 71.1667 12.5637C71.0459 12.7881 70.8905 12.9694 70.6919 13.1076C70.4934 13.2457 70.2516 13.3148 69.9495 13.3148C69.6473 13.3148 69.4056 13.2457 69.207 13.1076C69.0084 12.9694 68.853 12.7881 68.7408 12.5637C68.6286 12.3392 68.5422 12.0802 68.4991 11.7867C68.4559 11.5018 68.43 11.1996 68.43 10.8974C68.43 10.5866 68.4559 10.2845 68.4991 9.99096C68.5422 9.70606 68.6199 9.44706 68.7322 9.2226C68.8444 8.99813 68.9998 8.81684 69.1984 8.6787C69.3969 8.5492 69.6473 8.48014 69.9495 8.48014C70.2516 8.48014 70.4934 8.5492 70.6919 8.68734C70.8905 8.82547 71.0459 9.00677 71.1667 9.23123C71.279 9.4557 71.3653 9.71469 71.4085 9.99959C71.4516 10.2931 71.4775 10.5953 71.4775 10.8974ZM74.3714 13.9536H75.2002V7.83265H74.4578C74.3973 8.13481 74.2333 8.38517 73.9829 8.5751C73.7326 8.77367 73.4045 8.87727 73.016 8.8859V9.4816H74.3714V13.9536ZM78.4849 11.1564C78.7007 11.1564 78.8993 11.1823 79.0633 11.2428C79.2274 11.3032 79.3655 11.3809 79.4777 11.4845C79.59 11.5795 79.6677 11.7003 79.7281 11.8385C79.7885 11.968 79.8144 12.1147 79.8144 12.2615C79.8144 12.4083 79.7885 12.555 79.7281 12.6845C79.6677 12.814 79.5813 12.9349 79.4691 13.0385C79.3569 13.1335 79.2187 13.2112 79.0547 13.2716C78.8907 13.332 78.7007 13.3579 78.4849 13.3579C78.2691 13.3579 78.0878 13.332 77.9237 13.2716C77.7597 13.2112 77.6216 13.1335 77.5093 13.0385C77.3971 12.9349 77.3108 12.814 77.2503 12.6845C77.1899 12.555 77.1554 12.4083 77.1554 12.2615C77.1554 12.1147 77.1813 11.968 77.2417 11.8385C77.3021 11.7003 77.3885 11.5795 77.5007 11.4845C77.6129 11.3809 77.7511 11.3032 77.9151 11.2428C78.0791 11.1823 78.2691 11.1564 78.4849 11.1564ZM78.4849 14.0658C78.813 14.0658 79.1151 14.0227 79.3828 13.9363C79.6504 13.85 79.8749 13.7291 80.0562 13.5738C80.2374 13.4184 80.3842 13.2371 80.4878 13.0212C80.5828 12.814 80.6346 12.5896 80.6346 12.3392C80.6346 12.1579 80.6087 11.9939 80.5482 11.8298C80.4878 11.6658 80.4101 11.519 80.3065 11.3809C80.1943 11.2514 80.0648 11.1305 79.918 11.0356C79.7713 10.9406 79.5986 10.8715 79.4173 10.8197C79.5813 10.7679 79.7367 10.6902 79.8749 10.5953C80.0044 10.5003 80.1252 10.3967 80.2202 10.2672C80.3151 10.1377 80.3842 9.99959 80.436 9.85282C80.4878 9.70606 80.5137 9.55066 80.5137 9.39526C80.5137 9.15353 80.4619 8.92907 80.3669 8.72187C80.272 8.52331 80.1339 8.34201 79.9526 8.19524C79.7713 8.04848 79.5641 7.92761 79.3137 7.84128C79.0633 7.76358 78.7871 7.72041 78.4849 7.72041C78.1827 7.72041 77.9065 7.76358 77.6561 7.84128C77.4057 7.92761 77.1985 8.04848 77.0173 8.19524C76.836 8.34201 76.6978 8.52331 76.6029 8.72187C76.5079 8.92907 76.4561 9.15353 76.4561 9.39526C76.4561 9.55066 76.482 9.70606 76.5338 9.85282C76.5856 9.99959 76.6633 10.1377 76.7583 10.2672C76.8532 10.3967 76.9655 10.5003 77.0949 10.5953C77.2244 10.6902 77.3798 10.7679 77.5439 10.8197C77.3626 10.8715 77.1985 10.9406 77.0518 11.0356C76.905 11.1305 76.7755 11.2514 76.6719 11.3809C76.5597 11.519 76.482 11.6658 76.4216 11.8298C76.3611 11.9939 76.3352 12.1579 76.3352 12.3392C76.3352 12.5896 76.387 12.814 76.4906 13.0212C76.5856 13.2371 76.7324 13.4184 76.9137 13.5738C77.0949 13.7291 77.328 13.85 77.5957 13.9363C77.8633 14.0227 78.1568 14.0658 78.4849 14.0658ZM78.4849 10.4917C78.1137 10.4831 77.8288 10.3881 77.6129 10.1895C77.3971 9.99096 77.2849 9.74923 77.2849 9.44706C77.2849 9.16217 77.3885 8.92043 77.6043 8.72187C77.8115 8.53194 78.105 8.43697 78.4849 8.43697C78.8648 8.43697 79.1583 8.53194 79.3741 8.72187C79.5813 8.92043 79.6849 9.16217 79.6849 9.44706C79.6849 9.74923 79.5813 9.99096 79.3655 10.1895C79.1497 10.3881 78.8561 10.4831 78.4849 10.4917Z" fill="#BFBFBF"/>
	<path d="M121.44 13.9536H125.653V13.1766H122.45C122.494 12.9781 122.58 12.7881 122.701 12.6241C122.83 12.4601 122.977 12.3133 123.158 12.2011L124.419 11.4241C124.781 11.1996 125.066 10.932 125.273 10.6298C125.489 10.3277 125.593 9.97369 125.593 9.57656C125.593 9.3262 125.55 9.08447 125.455 8.86C125.36 8.63554 125.23 8.43697 125.058 8.27294C124.885 8.10028 124.669 7.96214 124.419 7.86718C124.168 7.77221 123.884 7.72041 123.564 7.72041C123.227 7.72041 122.934 7.77221 122.675 7.88445C122.416 7.98804 122.2 8.12618 122.019 8.30747C121.837 8.48877 121.708 8.69597 121.613 8.9377C121.518 9.1708 121.475 9.42116 121.475 9.68879C121.475 9.74923 121.475 9.80966 121.483 9.88736C121.492 9.96506 121.501 10.0255 121.509 10.0687L122.312 10.1032C122.304 10.0428 122.295 9.99096 122.286 9.93916C122.278 9.87872 122.278 9.82692 122.278 9.78376C122.278 9.38663 122.399 9.0672 122.632 8.82547C122.865 8.58374 123.184 8.46287 123.59 8.46287C123.771 8.46287 123.927 8.49741 124.073 8.55784C124.22 8.61827 124.35 8.69597 124.445 8.79957C124.548 8.89453 124.626 9.0154 124.678 9.15353C124.738 9.29166 124.764 9.43843 124.764 9.59383C124.764 9.87009 124.686 10.1118 124.531 10.319C124.384 10.5176 124.16 10.7161 123.858 10.9061L122.744 11.6054C122.502 11.7521 122.295 11.9162 122.131 12.0975C121.967 12.2701 121.837 12.4601 121.734 12.6586C121.639 12.8572 121.561 13.073 121.518 13.2889C121.475 13.5047 121.449 13.7291 121.44 13.9536ZM126.584 10.8974C126.584 11.2514 126.618 11.6226 126.688 11.9939C126.757 12.3651 126.877 12.7104 127.059 13.0126C127.24 13.3234 127.482 13.5738 127.784 13.7723C128.086 13.9709 128.475 14.0658 128.949 14.0658C129.424 14.0658 129.813 13.9709 130.115 13.7723C130.417 13.5738 130.659 13.3234 130.84 13.0212C131.021 12.7191 131.142 12.3737 131.211 11.9939C131.28 11.6226 131.315 11.2514 131.315 10.8974C131.315 10.5349 131.28 10.1636 131.211 9.78376C131.134 9.41253 131.013 9.0672 130.832 8.76504C130.65 8.46287 130.408 8.21251 130.106 8.01394C129.804 7.81538 129.416 7.72041 128.949 7.72041C128.483 7.72041 128.095 7.81538 127.793 8.01394C127.49 8.21251 127.249 8.46287 127.067 8.76504C126.886 9.0672 126.765 9.41253 126.696 9.78376C126.618 10.1636 126.584 10.5349 126.584 10.8974ZM130.478 10.8974C130.478 11.1996 130.452 11.5018 130.408 11.7867C130.365 12.0802 130.279 12.3392 130.167 12.5637C130.046 12.7881 129.89 12.9694 129.692 13.1076C129.493 13.2457 129.252 13.3148 128.949 13.3148C128.647 13.3148 128.406 13.2457 128.207 13.1076C128.008 12.9694 127.853 12.7881 127.741 12.5637C127.629 12.3392 127.542 12.0802 127.499 11.7867C127.456 11.5018 127.43 11.1996 127.43 10.8974C127.43 10.5866 127.456 10.2845 127.499 9.99096C127.542 9.70606 127.62 9.44706 127.732 9.2226C127.844 8.99813 128 8.81684 128.198 8.6787C128.397 8.5492 128.647 8.48014 128.949 8.48014C129.252 8.48014 129.493 8.5492 129.692 8.68734C129.89 8.82547 130.046 9.00677 130.167 9.23123C130.279 9.4557 130.365 9.71469 130.408 9.99959C130.452 10.2931 130.478 10.5953 130.478 10.8974ZM133.371 13.9536H134.2V7.83265H133.458C133.397 8.13481 133.233 8.38517 132.983 8.5751C132.733 8.77367 132.405 8.87727 132.016 8.8859V9.4816H133.371V13.9536ZM138.927 10.9838C138.901 11.7521 138.719 12.3392 138.374 12.7277C138.029 13.1248 137.554 13.3234 136.958 13.3234C136.699 13.3234 136.458 13.2802 136.224 13.1939C135.991 13.1076 135.819 13.004 135.689 12.8745L135.422 13.5392C135.499 13.6169 135.594 13.6946 135.715 13.755C135.827 13.8155 135.957 13.8759 136.095 13.9191C136.233 13.9622 136.38 13.9968 136.527 14.0227C136.673 14.0486 136.829 14.0658 136.976 14.0658C137.865 14.0658 138.547 13.7809 139.022 13.2112C139.496 12.6414 139.738 11.7867 139.738 10.6557C139.738 10.1809 139.678 9.75786 139.566 9.38663C139.453 9.02403 139.298 8.72187 139.099 8.47151C138.901 8.22114 138.659 8.03984 138.374 7.91035C138.089 7.78085 137.778 7.72041 137.442 7.72041C137.122 7.72041 136.837 7.77221 136.57 7.87581C136.302 7.97941 136.078 8.11754 135.879 8.29884C135.689 8.48014 135.542 8.7046 135.43 8.95497C135.327 9.21396 135.275 9.49886 135.275 9.80102C135.275 10.1205 135.327 10.3967 135.439 10.6471C135.551 10.8974 135.698 11.1133 135.888 11.2859C136.069 11.4586 136.285 11.5881 136.535 11.6831C136.786 11.778 137.045 11.8212 137.321 11.8212C137.494 11.8212 137.658 11.7953 137.822 11.7521C137.986 11.709 138.132 11.6572 138.279 11.5795C138.417 11.5018 138.547 11.4154 138.659 11.3118C138.771 11.2082 138.858 11.096 138.927 10.9838ZM138.745 9.74923C138.745 9.95642 138.711 10.1464 138.65 10.3104C138.581 10.4744 138.486 10.6212 138.365 10.7334C138.245 10.8543 138.106 10.9492 137.942 11.0097C137.778 11.0701 137.606 11.1046 137.416 11.1046C137.226 11.1046 137.053 11.0701 136.889 11.0097C136.725 10.9492 136.587 10.8629 136.466 10.742C136.345 10.6298 136.25 10.4831 136.181 10.319C136.112 10.155 136.078 9.97369 136.078 9.76649C136.078 9.56793 136.112 9.38663 136.181 9.2226C136.25 9.05857 136.345 8.92043 136.466 8.8082C136.587 8.69597 136.725 8.601 136.889 8.54057C137.053 8.48014 137.226 8.45424 137.407 8.45424C137.589 8.45424 137.761 8.48014 137.925 8.54057C138.089 8.601 138.227 8.68734 138.348 8.79957C138.469 8.9118 138.564 9.04993 138.642 9.21396C138.711 9.378 138.745 9.55066 138.745 9.74923Z" fill="#BFBFBF"/>
	<path d="M180.44 13.9536H184.653V13.1766H181.45C181.494 12.9781 181.58 12.7881 181.701 12.6241C181.83 12.4601 181.977 12.3133 182.158 12.2011L183.419 11.4241C183.781 11.1996 184.066 10.932 184.273 10.6298C184.489 10.3277 184.593 9.97369 184.593 9.57656C184.593 9.3262 184.55 9.08447 184.455 8.86C184.36 8.63554 184.23 8.43697 184.058 8.27294C183.885 8.10028 183.669 7.96214 183.419 7.86718C183.168 7.77221 182.884 7.72041 182.564 7.72041C182.227 7.72041 181.934 7.77221 181.675 7.88445C181.416 7.98804 181.2 8.12618 181.019 8.30747C180.837 8.48877 180.708 8.69597 180.613 8.9377C180.518 9.1708 180.475 9.42116 180.475 9.68879C180.475 9.74923 180.475 9.80966 180.483 9.88736C180.492 9.96506 180.501 10.0255 180.509 10.0687L181.312 10.1032C181.304 10.0428 181.295 9.99096 181.286 9.93916C181.278 9.87872 181.278 9.82692 181.278 9.78376C181.278 9.38663 181.399 9.0672 181.632 8.82547C181.865 8.58374 182.184 8.46287 182.59 8.46287C182.771 8.46287 182.927 8.49741 183.073 8.55784C183.22 8.61827 183.35 8.69597 183.445 8.79957C183.548 8.89453 183.626 9.0154 183.678 9.15353C183.738 9.29166 183.764 9.43843 183.764 9.59383C183.764 9.87009 183.686 10.1118 183.531 10.319C183.384 10.5176 183.16 10.7161 182.858 10.9061L181.744 11.6054C181.502 11.7521 181.295 11.9162 181.131 12.0975C180.967 12.2701 180.837 12.4601 180.734 12.6586C180.639 12.8572 180.561 13.073 180.518 13.2889C180.475 13.5047 180.449 13.7291 180.44 13.9536ZM185.584 10.8974C185.584 11.2514 185.618 11.6226 185.688 11.9939C185.757 12.3651 185.877 12.7104 186.059 13.0126C186.24 13.3234 186.482 13.5738 186.784 13.7723C187.086 13.9709 187.475 14.0658 187.949 14.0658C188.424 14.0658 188.813 13.9709 189.115 13.7723C189.417 13.5738 189.659 13.3234 189.84 13.0212C190.021 12.7191 190.142 12.3737 190.211 11.9939C190.28 11.6226 190.315 11.2514 190.315 10.8974C190.315 10.5349 190.28 10.1636 190.211 9.78376C190.134 9.41253 190.013 9.0672 189.832 8.76504C189.65 8.46287 189.408 8.21251 189.106 8.01394C188.804 7.81538 188.416 7.72041 187.949 7.72041C187.483 7.72041 187.095 7.81538 186.793 8.01394C186.49 8.21251 186.249 8.46287 186.067 8.76504C185.886 9.0672 185.765 9.41253 185.696 9.78376C185.618 10.1636 185.584 10.5349 185.584 10.8974ZM189.478 10.8974C189.478 11.1996 189.452 11.5018 189.408 11.7867C189.365 12.0802 189.279 12.3392 189.167 12.5637C189.046 12.7881 188.89 12.9694 188.692 13.1076C188.493 13.2457 188.252 13.3148 187.949 13.3148C187.647 13.3148 187.406 13.2457 187.207 13.1076C187.008 12.9694 186.853 12.7881 186.741 12.5637C186.629 12.3392 186.542 12.0802 186.499 11.7867C186.456 11.5018 186.43 11.1996 186.43 10.8974C186.43 10.5866 186.456 10.2845 186.499 9.99096C186.542 9.70606 186.62 9.44706 186.732 9.2226C186.844 8.99813 187 8.81684 187.198 8.6787C187.397 8.5492 187.647 8.48014 187.949 8.48014C188.252 8.48014 188.493 8.5492 188.692 8.68734C188.89 8.82547 189.046 9.00677 189.167 9.23123C189.279 9.4557 189.365 9.71469 189.408 9.99959C189.452 10.2931 189.478 10.5953 189.478 10.8974ZM191.232 13.9536H195.445V13.1766H192.242C192.285 12.9781 192.371 12.7881 192.492 12.6241C192.622 12.4601 192.769 12.3133 192.95 12.2011L194.21 11.4241C194.573 11.1996 194.858 10.932 195.065 10.6298C195.281 10.3277 195.384 9.97369 195.384 9.57656C195.384 9.3262 195.341 9.08447 195.246 8.86C195.151 8.63554 195.022 8.43697 194.849 8.27294C194.677 8.10028 194.461 7.96214 194.21 7.86718C193.96 7.77221 193.675 7.72041 193.356 7.72041C193.019 7.72041 192.725 7.77221 192.466 7.88445C192.207 7.98804 191.992 8.12618 191.81 8.30747C191.629 8.48877 191.499 8.69597 191.405 8.9377C191.31 9.1708 191.266 9.42116 191.266 9.68879C191.266 9.74923 191.266 9.80966 191.275 9.88736C191.284 9.96506 191.292 10.0255 191.301 10.0687L192.104 10.1032C192.095 10.0428 192.087 9.99096 192.078 9.93916C192.069 9.87872 192.069 9.82692 192.069 9.78376C192.069 9.38663 192.19 9.0672 192.423 8.82547C192.656 8.58374 192.976 8.46287 193.382 8.46287C193.563 8.46287 193.718 8.49741 193.865 8.55784C194.012 8.61827 194.141 8.69597 194.236 8.79957C194.34 8.89453 194.418 9.0154 194.469 9.15353C194.53 9.29166 194.556 9.43843 194.556 9.59383C194.556 9.87009 194.478 10.1118 194.323 10.319C194.176 10.5176 193.951 10.7161 193.649 10.9061L192.535 11.6054C192.294 11.7521 192.087 11.9162 191.923 12.0975C191.758 12.2701 191.629 12.4601 191.525 12.6586C191.43 12.8572 191.353 13.073 191.31 13.2889C191.266 13.5047 191.24 13.7291 191.232 13.9536ZM196.376 10.8974C196.376 11.2514 196.41 11.6226 196.479 11.9939C196.548 12.3651 196.669 12.7104 196.85 13.0126C197.032 13.3234 197.273 13.5738 197.576 13.7723C197.878 13.9709 198.266 14.0658 198.741 14.0658C199.216 14.0658 199.604 13.9709 199.906 13.7723C200.209 13.5738 200.45 13.3234 200.632 13.0212C200.813 12.7191 200.934 12.3737 201.003 11.9939C201.072 11.6226 201.107 11.2514 201.107 10.8974C201.107 10.5349 201.072 10.1636 201.003 9.78376C200.925 9.41253 200.804 9.0672 200.623 8.76504C200.442 8.46287 200.2 8.21251 199.898 8.01394C199.596 7.81538 199.207 7.72041 198.741 7.72041C198.275 7.72041 197.886 7.81538 197.584 8.01394C197.282 8.21251 197.04 8.46287 196.859 8.76504C196.678 9.0672 196.557 9.41253 196.488 9.78376C196.41 10.1636 196.376 10.5349 196.376 10.8974ZM200.269 10.8974C200.269 11.1996 200.243 11.5018 200.2 11.7867C200.157 12.0802 200.071 12.3392 199.958 12.5637C199.837 12.7881 199.682 12.9694 199.483 13.1076C199.285 13.2457 199.043 13.3148 198.741 13.3148C198.439 13.3148 198.197 13.2457 197.999 13.1076C197.8 12.9694 197.645 12.7881 197.532 12.5637C197.42 12.3392 197.334 12.0802 197.291 11.7867C197.247 11.5018 197.222 11.1996 197.222 10.8974C197.222 10.5866 197.247 10.2845 197.291 9.99096C197.334 9.70606 197.411 9.44706 197.524 9.2226C197.636 8.99813 197.791 8.81684 197.99 8.6787C198.188 8.5492 198.439 8.48014 198.741 8.48014C199.043 8.48014 199.285 8.5492 199.483 8.68734C199.682 8.82547 199.837 9.00677 199.958 9.23123C200.071 9.4557 200.157 9.71469 200.2 9.99959C200.243 10.2931 200.269 10.5953 200.269 10.8974Z" fill="#BFBFBF"/>
	<path d="M240.44 13.9536H244.653V13.1766H241.45C241.494 12.9781 241.58 12.7881 241.701 12.6241C241.83 12.4601 241.977 12.3133 242.158 12.2011L243.419 11.4241C243.781 11.1996 244.066 10.932 244.273 10.6298C244.489 10.3277 244.593 9.97369 244.593 9.57656C244.593 9.3262 244.55 9.08447 244.455 8.86C244.36 8.63554 244.23 8.43697 244.058 8.27294C243.885 8.10028 243.669 7.96214 243.419 7.86718C243.168 7.77221 242.884 7.72041 242.564 7.72041C242.227 7.72041 241.934 7.77221 241.675 7.88445C241.416 7.98804 241.2 8.12618 241.019 8.30747C240.837 8.48877 240.708 8.69597 240.613 8.9377C240.518 9.1708 240.475 9.42116 240.475 9.68879C240.475 9.74923 240.475 9.80966 240.483 9.88736C240.492 9.96506 240.501 10.0255 240.509 10.0687L241.312 10.1032C241.304 10.0428 241.295 9.99096 241.286 9.93916C241.278 9.87872 241.278 9.82692 241.278 9.78376C241.278 9.38663 241.399 9.0672 241.632 8.82547C241.865 8.58374 242.184 8.46287 242.59 8.46287C242.771 8.46287 242.927 8.49741 243.073 8.55784C243.22 8.61827 243.35 8.69597 243.445 8.79957C243.548 8.89453 243.626 9.0154 243.678 9.15353C243.738 9.29166 243.764 9.43843 243.764 9.59383C243.764 9.87009 243.686 10.1118 243.531 10.319C243.384 10.5176 243.16 10.7161 242.858 10.9061L241.744 11.6054C241.502 11.7521 241.295 11.9162 241.131 12.0975C240.967 12.2701 240.837 12.4601 240.734 12.6586C240.639 12.8572 240.561 13.073 240.518 13.2889C240.475 13.5047 240.449 13.7291 240.44 13.9536ZM245.584 10.8974C245.584 11.2514 245.618 11.6226 245.688 11.9939C245.757 12.3651 245.877 12.7104 246.059 13.0126C246.24 13.3234 246.482 13.5738 246.784 13.7723C247.086 13.9709 247.475 14.0658 247.949 14.0658C248.424 14.0658 248.813 13.9709 249.115 13.7723C249.417 13.5738 249.659 13.3234 249.84 13.0212C250.021 12.7191 250.142 12.3737 250.211 11.9939C250.28 11.6226 250.315 11.2514 250.315 10.8974C250.315 10.5349 250.28 10.1636 250.211 9.78376C250.134 9.41253 250.013 9.0672 249.832 8.76504C249.65 8.46287 249.408 8.21251 249.106 8.01394C248.804 7.81538 248.416 7.72041 247.949 7.72041C247.483 7.72041 247.095 7.81538 246.793 8.01394C246.49 8.21251 246.249 8.46287 246.067 8.76504C245.886 9.0672 245.765 9.41253 245.696 9.78376C245.618 10.1636 245.584 10.5349 245.584 10.8974ZM249.478 10.8974C249.478 11.1996 249.452 11.5018 249.408 11.7867C249.365 12.0802 249.279 12.3392 249.167 12.5637C249.046 12.7881 248.89 12.9694 248.692 13.1076C248.493 13.2457 248.252 13.3148 247.949 13.3148C247.647 13.3148 247.406 13.2457 247.207 13.1076C247.008 12.9694 246.853 12.7881 246.741 12.5637C246.629 12.3392 246.542 12.0802 246.499 11.7867C246.456 11.5018 246.43 11.1996 246.43 10.8974C246.43 10.5866 246.456 10.2845 246.499 9.99096C246.542 9.70606 246.62 9.44706 246.732 9.2226C246.844 8.99813 247 8.81684 247.198 8.6787C247.397 8.5492 247.647 8.48014 247.949 8.48014C248.252 8.48014 248.493 8.5492 248.692 8.68734C248.89 8.82547 249.046 9.00677 249.167 9.23123C249.279 9.4557 249.365 9.71469 249.408 9.99959C249.452 10.2931 249.478 10.5953 249.478 10.8974ZM251.232 13.9536H255.445V13.1766H252.242C252.285 12.9781 252.371 12.7881 252.492 12.6241C252.622 12.4601 252.769 12.3133 252.95 12.2011L254.21 11.4241C254.573 11.1996 254.858 10.932 255.065 10.6298C255.281 10.3277 255.384 9.97369 255.384 9.57656C255.384 9.3262 255.341 9.08447 255.246 8.86C255.151 8.63554 255.022 8.43697 254.849 8.27294C254.677 8.10028 254.461 7.96214 254.21 7.86718C253.96 7.77221 253.675 7.72041 253.356 7.72041C253.019 7.72041 252.725 7.77221 252.466 7.88445C252.207 7.98804 251.992 8.12618 251.81 8.30747C251.629 8.48877 251.499 8.69597 251.405 8.9377C251.31 9.1708 251.266 9.42116 251.266 9.68879C251.266 9.74923 251.266 9.80966 251.275 9.88736C251.284 9.96506 251.292 10.0255 251.301 10.0687L252.104 10.1032C252.095 10.0428 252.087 9.99096 252.078 9.93916C252.069 9.87872 252.069 9.82692 252.069 9.78376C252.069 9.38663 252.19 9.0672 252.423 8.82547C252.656 8.58374 252.976 8.46287 253.382 8.46287C253.563 8.46287 253.718 8.49741 253.865 8.55784C254.012 8.61827 254.141 8.69597 254.236 8.79957C254.34 8.89453 254.418 9.0154 254.469 9.15353C254.53 9.29166 254.556 9.43843 254.556 9.59383C254.556 9.87009 254.478 10.1118 254.323 10.319C254.176 10.5176 253.951 10.7161 253.649 10.9061L252.535 11.6054C252.294 11.7521 252.087 11.9162 251.923 12.0975C251.758 12.2701 251.629 12.4601 251.525 12.6586C251.43 12.8572 251.353 13.073 251.31 13.2889C251.266 13.5047 251.24 13.7291 251.232 13.9536ZM257.481 13.9536H258.309V7.83265H257.567C257.506 8.13481 257.342 8.38517 257.092 8.5751C256.842 8.77367 256.514 8.87727 256.125 8.8859V9.4816H257.481V13.9536Z" fill="#BFBFBF"/>
	<path d="M295.636 6.648L297.232 6.732C297.22 6.66 297.208 6.588 297.196 6.504C297.184 6.432 297.184 6.36 297.184 6.276C297.184 5.856 297.304 5.496 297.532 5.208C297.76 4.92 298.12 4.776 298.6 4.776C298.828 4.776 299.032 4.812 299.2 4.872C299.38 4.944 299.524 5.04 299.632 5.16C299.74 5.268 299.824 5.4 299.884 5.556C299.944 5.712 299.968 5.868 299.968 6.036C299.968 6.336 299.884 6.612 299.716 6.864C299.56 7.116 299.296 7.356 298.924 7.584L297.532 8.448C297.16 8.676 296.836 8.928 296.584 9.192C296.332 9.444 296.116 9.72 295.96 10.02C295.804 10.308 295.696 10.62 295.624 10.956C295.552 11.28 295.516 11.628 295.516 12H301.696V10.548H297.556C297.616 10.344 297.724 10.176 297.868 10.044C298.012 9.912 298.18 9.78 298.36 9.66L300.016 8.64C300.532 8.328 300.928 7.956 301.216 7.512C301.504 7.068 301.648 6.564 301.648 6C301.648 5.64 301.576 5.292 301.444 4.968C301.312 4.644 301.108 4.356 300.844 4.116C300.592 3.864 300.268 3.672 299.896 3.528C299.524 3.384 299.104 3.312 298.636 3.312C298.144 3.312 297.712 3.396 297.34 3.552C296.968 3.708 296.644 3.912 296.38 4.164C296.128 4.416 295.924 4.716 295.792 5.064C295.66 5.4 295.588 5.748 295.588 6.12C295.588 6.216 295.588 6.312 295.6 6.408C295.612 6.504 295.624 6.588 295.636 6.648ZM302.853 7.752C302.853 8.304 302.901 8.832 303.009 9.348C303.117 9.864 303.309 10.344 303.597 10.776C303.873 11.196 304.245 11.544 304.689 11.796C305.133 12.048 305.685 12.18 306.333 12.18C306.981 12.18 307.533 12.048 307.977 11.796C308.433 11.544 308.805 11.196 309.081 10.776C309.357 10.344 309.561 9.864 309.669 9.348C309.777 8.832 309.837 8.304 309.837 7.752C309.837 7.2 309.777 6.66 309.669 6.144C309.561 5.628 309.357 5.148 309.081 4.716C308.805 4.296 308.433 3.948 307.977 3.696C307.533 3.444 306.981 3.312 306.333 3.312C305.685 3.312 305.133 3.444 304.689 3.696C304.245 3.948 303.873 4.296 303.597 4.716C303.309 5.148 303.117 5.628 303.009 6.144C302.901 6.66 302.853 7.2 302.853 7.752ZM304.509 7.752C304.509 7.248 304.557 6.804 304.641 6.408C304.725 6.024 304.857 5.7 305.037 5.448C305.181 5.244 305.361 5.088 305.565 4.968C305.769 4.848 306.033 4.788 306.333 4.788C306.645 4.788 306.909 4.848 307.113 4.968C307.317 5.088 307.497 5.244 307.641 5.448C307.821 5.7 307.965 6.024 308.049 6.408C308.133 6.804 308.181 7.248 308.181 7.752C308.181 8.256 308.133 8.7 308.049 9.084C307.965 9.48 307.821 9.804 307.641 10.056C307.497 10.26 307.317 10.416 307.113 10.536C306.909 10.656 306.645 10.716 306.333 10.716C306.033 10.716 305.769 10.656 305.565 10.536C305.361 10.416 305.181 10.26 305.037 10.056C304.857 9.804 304.725 9.48 304.641 9.084C304.557 8.7 304.509 8.256 304.509 7.752ZM311.034 6.648L312.63 6.732C312.618 6.66 312.606 6.588 312.594 6.504C312.582 6.432 312.582 6.36 312.582 6.276C312.582 5.856 312.702 5.496 312.93 5.208C313.158 4.92 313.518 4.776 313.998 4.776C314.226 4.776 314.43 4.812 314.598 4.872C314.778 4.944 314.922 5.04 315.03 5.16C315.138 5.268 315.222 5.4 315.282 5.556C315.342 5.712 315.366 5.868 315.366 6.036C315.366 6.336 315.282 6.612 315.114 6.864C314.958 7.116 314.694 7.356 314.322 7.584L312.93 8.448C312.558 8.676 312.234 8.928 311.982 9.192C311.73 9.444 311.514 9.72 311.358 10.02C311.202 10.308 311.094 10.62 311.022 10.956C310.95 11.28 310.914 11.628 310.914 12H317.094V10.548H312.954C313.014 10.344 313.122 10.176 313.266 10.044C313.41 9.912 313.578 9.78 313.758 9.66L315.414 8.64C315.93 8.328 316.326 7.956 316.614 7.512C316.902 7.068 317.046 6.564 317.046 6C317.046 5.64 316.974 5.292 316.842 4.968C316.71 4.644 316.506 4.356 316.242 4.116C315.99 3.864 315.666 3.672 315.294 3.528C314.922 3.384 314.502 3.312 314.034 3.312C313.542 3.312 313.11 3.396 312.738 3.552C312.366 3.708 312.042 3.912 311.778 4.164C311.526 4.416 311.322 4.716 311.19 5.064C311.058 5.4 310.986 5.748 310.986 6.12C310.986 6.216 310.986 6.312 310.998 6.408C311.01 6.504 311.022 6.588 311.034 6.648ZM318.324 6.648L319.92 6.732C319.908 6.66 319.896 6.588 319.884 6.504C319.872 6.432 319.872 6.36 319.872 6.276C319.872 5.856 319.992 5.496 320.22 5.208C320.448 4.92 320.808 4.776 321.288 4.776C321.516 4.776 321.72 4.812 321.888 4.872C322.068 4.944 322.212 5.04 322.32 5.16C322.428 5.268 322.512 5.4 322.572 5.556C322.632 5.712 322.656 5.868 322.656 6.036C322.656 6.336 322.572 6.612 322.404 6.864C322.248 7.116 321.984 7.356 321.612 7.584L320.22 8.448C319.848 8.676 319.524 8.928 319.271 9.192C319.02 9.444 318.804 9.72 318.648 10.02C318.492 10.308 318.384 10.62 318.312 10.956C318.24 11.28 318.204 11.628 318.204 12H324.384V10.548H320.244C320.304 10.344 320.412 10.176 320.556 10.044C320.7 9.912 320.868 9.78 321.048 9.66L322.704 8.64C323.22 8.328 323.616 7.956 323.904 7.512C324.192 7.068 324.336 6.564 324.336 6C324.336 5.64 324.264 5.292 324.132 4.968C324 4.644 323.796 4.356 323.532 4.116C323.28 3.864 322.956 3.672 322.584 3.528C322.212 3.384 321.792 3.312 321.324 3.312C320.832 3.312 320.4 3.396 320.028 3.552C319.656 3.708 319.332 3.912 319.068 4.164C318.816 4.416 318.612 4.716 318.479 5.064C318.348 5.4 318.276 5.748 318.276 6.12C318.276 6.216 318.276 6.312 318.288 6.408C318.3 6.504 318.312 6.588 318.324 6.648Z" fill="white"/>
	<path d="M12.4688 55.4251V20.8921" stroke="#C7C7C7" stroke-width="0.996143"/>
	<path d="M131.258 55.4252L131.258 37.4946" stroke="#C7C7C7" stroke-width="0.996143"/>
	<path d="M250.047 55.4252L250.047 37.4946" stroke="#C7C7C7" stroke-width="0.996143"/>
	<path d="M190.828 55.4252L190.828 37.4946" stroke="#C7C7C7" stroke-width="0.996143"/>
	<path d="M72.0313 55.4252L72.0312 37.4946" stroke="#C7C7C7" stroke-width="0.996143"/>
	<path d="M309.609 55.4251V20.8921" stroke="#C7C7C7" stroke-width="0.996143"/>
	<path d="M12.2031 55.0312L309.957 54.7615" stroke="#CECECE" stroke-width="0.996143"/>
</svg>
