<svg width="118" height="21" viewBox="0 0 118 21" fill="none" xmlns="http://www.w3.org/2000/svg">
	<path fill-rule="evenodd" clip-rule="evenodd" d="M7.3446 6.39111C3.28829 6.39111 0 9.59171 0 13.5399C0 17.488 3.28829 20.6886 7.3446 20.6886H19.6835C23.7398 20.6886 27.0281 17.488 27.0281 13.5399C27.0281 9.59171 23.7398 6.39111 19.6835 6.39111H7.3446ZM15.5708 8.05641C12.488 8.05641 9.98893 10.5117 9.98893 13.5404C9.98893 16.5691 12.488 19.0243 15.5708 19.0243H19.0962C22.179 19.0243 24.6781 16.5691 24.6781 13.5404C24.6781 10.5117 22.179 8.05641 19.0962 8.05641H15.5708Z" fill="#1B1B1B"/>
	<path d="M37.0534 9.31568C36.6701 9.46864 36.3223 9.69992 36.0316 9.99502C35.7309 10.3354 35.4909 10.7258 35.3224 11.149C35.1339 11.644 35.0431 12.1713 35.0551 12.7015C35.0375 13.2314 35.1232 13.7596 35.3073 14.2561C35.4702 14.6824 35.7067 15.0761 36.0058 15.4189C36.2996 15.7273 36.6533 15.9712 37.0448 16.1352C37.4513 16.2964 37.8842 16.3792 38.321 16.3791C38.7125 16.3839 39.1016 16.3145 39.4678 16.1744C39.7909 16.0624 40.0921 15.8944 40.3581 15.678C40.5924 15.4803 40.7883 15.2403 40.9358 14.9703C41.0162 14.8371 41.0882 14.6989 41.1514 14.5566C41.1927 14.4637 41.267 14.3898 41.3595 14.3495C41.4521 14.3092 41.5563 14.3054 41.6515 14.3389L43.9602 15.1293C44.0618 15.1636 44.1459 15.2371 44.1939 15.3338C44.242 15.4305 44.2502 15.5425 44.2168 15.6453C44.0732 16.0625 43.8807 16.4609 43.6434 16.832C43.3015 17.3612 42.8762 17.8305 42.3844 18.2211C41.8515 18.6572 41.2505 19.0008 40.606 19.238C39.8643 19.4887 39.0858 19.6102 38.3037 19.5972C37.4014 19.6057 36.5077 19.4194 35.6824 19.0507C34.8755 18.725 34.1422 18.2376 33.5267 17.618C32.9093 16.9907 32.4219 16.2453 32.0932 15.4254C31.7461 14.5545 31.5739 13.6227 31.5866 12.6841C31.585 11.7367 31.7666 10.7981 32.1212 9.92099C32.4396 9.11177 32.9175 8.37638 33.526 7.75953C34.1345 7.14267 34.8608 6.65722 35.6608 6.33269C36.4887 5.99373 37.3761 5.82781 38.2692 5.84495C39.0663 5.84281 39.8584 5.9715 40.6146 6.22599C41.2509 6.47074 41.8469 6.81137 42.3823 7.23629C42.8693 7.62505 43.282 8.10023 43.6002 8.63852C43.8311 9.02278 44.0191 9.43173 44.1607 9.85785C44.1934 9.96035 44.1844 10.0717 44.136 10.1676C44.0875 10.2635 44.0034 10.3361 43.902 10.3695L41.5308 11.1577C41.432 11.1899 41.3249 11.1828 41.2311 11.1379C41.1374 11.093 41.0642 11.0136 41.0264 10.916C40.8517 10.4905 40.5953 10.1042 40.2719 9.77946C39.8407 9.32875 39.1811 9.08924 38.321 9.08488C37.8878 9.08074 37.4578 9.15904 37.0534 9.31568Z" fill="#1B1B1B"/>
	<path d="M45.2188 18.8215L45.3115 0.575143C45.3117 0.521387 45.3225 0.468213 45.3431 0.418658C45.3638 0.369103 45.3938 0.324137 45.4317 0.286328C45.4695 0.248519 45.5143 0.218606 45.5636 0.198299C45.6129 0.177992 45.6657 0.167688 45.7189 0.167975L48.3768 0.181039C48.484 0.182746 48.5862 0.226787 48.6615 0.303718C48.7369 0.380648 48.7794 0.484342 48.78 0.592562L48.7498 6.4388C48.7489 6.5132 48.7682 6.58642 48.8056 6.65052C48.843 6.71462 48.8971 6.76713 48.962 6.80237C49.0268 6.8376 49.1 6.85421 49.1736 6.85038C49.2472 6.84655 49.3183 6.82243 49.3792 6.78065C49.6732 6.57029 49.9985 6.40859 50.3428 6.30163C50.9456 6.08167 51.5816 5.96896 52.2226 5.96849C52.9571 5.95214 53.6861 6.10089 54.3567 6.40397C54.9265 6.6465 55.4334 7.0184 55.8379 7.49079C56.2424 7.96318 56.5337 8.52336 56.6892 9.12786C56.8766 9.77864 56.9702 10.4533 56.9673 11.131L56.9263 18.8847C56.9263 18.9383 56.9158 18.9914 56.8954 19.041C56.875 19.0905 56.8451 19.1355 56.8075 19.1733C56.7698 19.2112 56.7251 19.2411 56.676 19.2615C56.6268 19.2818 56.5741 19.2921 56.521 19.2918L53.8631 19.2788C53.8098 19.2785 53.7572 19.2676 53.7081 19.2468C53.6591 19.2259 53.6146 19.1955 53.5771 19.1573C53.5397 19.1191 53.5101 19.0738 53.49 19.0241C53.4699 18.9743 53.4597 18.921 53.4599 18.8672L53.4966 11.7189C53.5213 11.0605 53.332 10.4121 52.9577 9.87252C52.5697 9.36955 51.9704 9.13004 51.1361 9.12568C50.8126 9.10611 50.4889 9.16168 50.19 9.28812C49.891 9.41457 49.6248 9.60852 49.4116 9.8551C48.9805 10.3492 48.7375 10.9821 48.7261 11.6405L48.6894 18.8433C48.6883 18.9517 48.6449 19.0552 48.5686 19.1315C48.4923 19.2077 48.3893 19.2505 48.282 19.2505L45.6219 19.233C45.5686 19.2328 45.516 19.2219 45.4669 19.201C45.4179 19.1802 45.3734 19.1498 45.3359 19.1116C45.2985 19.0734 45.2689 19.0281 45.2488 18.9783C45.2287 18.9286 45.2185 18.8753 45.2188 18.8215V18.8215Z" fill="#1B1B1B"/>
	<path d="M67.4126 6.49721C68.2087 6.83023 68.9329 7.31688 69.5445 7.92992C70.15 8.55962 70.6249 9.30505 70.9414 10.1225C71.2775 11.0049 71.4407 11.9448 71.4222 12.89C71.4347 13.8274 71.2617 14.7579 70.9134 15.6269C70.5896 16.4418 70.1064 17.1823 69.4928 17.8043C68.5045 18.7394 67.2704 19.3673 65.9382 19.6129C64.606 19.8584 63.2319 19.7113 61.9802 19.1891C61.1848 18.855 60.4614 18.3677 59.8504 17.7542C59.2431 17.126 58.7679 16.3802 58.4535 15.5616C58.1131 14.6895 57.949 13.7575 57.9707 12.8203C57.9615 11.8752 58.135 10.9374 58.4815 10.0594C58.8043 9.24447 59.2867 8.50385 59.9 7.88202C60.5168 7.27467 61.2455 6.79532 62.0449 6.47108C63.7775 5.81382 65.689 5.8239 67.4147 6.49939L67.4126 6.49721ZM65.9036 16.3106C66.3007 16.1589 66.6583 15.9176 66.9491 15.6052C67.2565 15.2795 67.4982 14.8964 67.6605 14.4773C67.8592 13.9663 67.9588 13.4215 67.9537 12.8726C67.9653 12.3238 67.8708 11.7779 67.6756 11.2657C67.518 10.8446 67.2807 10.4586 66.9771 10.1291C66.6886 9.81429 66.3334 9.56941 65.9381 9.41271C65.1534 9.09264 64.2772 9.08796 63.4892 9.39965C63.0935 9.55409 62.7365 9.795 62.4437 10.1051C62.1357 10.4308 61.8947 10.8149 61.7345 11.2352C61.3466 12.2688 61.3405 13.409 61.7172 14.4468C61.8743 14.8671 62.11 15.253 62.4114 15.5834C62.701 15.8968 63.0559 16.1415 63.4504 16.2997C64.2363 16.6181 65.1128 16.622 65.9014 16.3106H65.9036Z" fill="#1B1B1B"/>
	<path d="M72.8451 0.625396C73.0406 0.422076 73.2755 0.261648 73.5352 0.154128C73.7948 0.0466093 74.0736 -0.00569188 74.3541 0.00049067C74.6396 -0.00382004 74.923 0.0507255 75.1869 0.160793C75.4508 0.27086 75.6897 0.434136 75.889 0.640638C76.2797 1.06166 76.4917 1.62049 76.4796 2.19746C76.4812 2.48122 76.4261 2.76239 76.3176 3.02414C76.2092 3.2859 76.0495 3.52286 75.8483 3.72085C75.647 3.91884 75.4083 4.0738 75.1464 4.17644C74.8845 4.27908 74.6047 4.3273 74.3239 4.31822C74.0425 4.32272 73.7631 4.26836 73.5034 4.15858C73.2437 4.04879 73.0093 3.88593 72.815 3.68025C72.6186 3.48432 72.4639 3.25008 72.3601 2.99178C72.2563 2.73349 72.2057 2.45656 72.2114 2.17786C72.2065 1.88911 72.2603 1.60241 72.3693 1.33542C72.4783 1.06843 72.6402 0.8268 72.8451 0.625396V0.625396ZM73.0111 6.41938L75.6691 6.43245C75.7223 6.43273 75.7749 6.4436 75.824 6.46444C75.8731 6.48527 75.9176 6.51567 75.955 6.55388C75.9925 6.59209 76.0221 6.63738 76.0422 6.68715C76.0623 6.73693 76.0725 6.79021 76.0722 6.84397L76.0097 18.9806C76.0074 19.0879 75.9634 19.1899 75.8871 19.2645C75.8108 19.3391 75.7084 19.3803 75.6023 19.3791H72.9465C72.8931 19.3785 72.8405 19.3673 72.7915 19.346C72.7425 19.3248 72.6982 19.2939 72.6611 19.2552C72.624 19.2166 72.5949 19.1708 72.5754 19.1207C72.5559 19.0706 72.5465 19.0171 72.5476 18.9632L72.608 6.82655C72.6086 6.71874 72.6512 6.61551 72.7267 6.53927C72.8022 6.46304 72.9044 6.41995 73.0111 6.41938V6.41938Z" fill="#1B1B1B"/>
	<path d="M80.6877 16.5177C81.0779 16.914 81.6492 17.1274 82.4123 17.1317C82.8655 17.1629 83.3152 17.0336 83.6842 16.7659C83.8178 16.6536 83.9256 16.5132 84.0001 16.3546C84.0745 16.1959 84.1138 16.0227 84.1153 15.8471C84.1176 15.705 84.0915 15.5638 84.0386 15.4321C83.9856 15.3004 83.9068 15.1809 83.807 15.0807C83.5915 14.8433 83.2358 14.6822 82.74 14.5755L81.0391 14.1749C79.7888 13.8788 78.8834 13.4019 78.3079 12.7139C77.747 12.033 77.4464 11.1717 77.4607 10.2861C77.4631 9.7212 77.5905 9.164 77.8336 8.65524C78.0668 8.13489 78.4175 7.677 78.8576 7.31834C79.2973 6.91791 79.8098 6.60736 80.3665 6.40384C80.9735 6.16857 81.6201 6.05541 82.27 6.0707C83.0536 6.05391 83.8328 6.19224 84.5637 6.47787C85.1355 6.68394 85.6578 7.00967 86.0964 7.43374C86.4628 7.7861 86.756 8.20878 86.9586 8.67702C87.0651 8.9188 87.153 9.16848 87.2216 9.42385C87.2344 9.47693 87.2364 9.53203 87.2278 9.58593C87.2191 9.63983 87.1998 9.69143 87.1711 9.73769C87.1424 9.78395 87.1048 9.82394 87.0605 9.8553C87.0162 9.88666 86.9662 9.90876 86.9134 9.92029L84.79 10.3928C84.6902 10.4152 84.5856 10.3984 84.4976 10.3458C84.4095 10.2933 84.3445 10.2089 84.3158 10.1097C84.2949 10.0357 84.2697 9.96302 84.2403 9.89199C84.1558 9.67127 84.0231 9.47259 83.8523 9.31063C83.6685 9.12492 83.4482 8.98027 83.2056 8.88604C82.9157 8.76979 82.6055 8.71423 82.2937 8.72274C81.8815 8.71277 81.4776 8.8406 81.1447 9.08636C80.9886 9.18424 80.8602 9.32135 80.7722 9.4843C80.6841 9.64726 80.6395 9.83049 80.6425 10.0161C80.6338 10.1614 80.6598 10.3067 80.7183 10.4397C80.7768 10.5727 80.8662 10.6895 80.9788 10.7804C81.2217 10.9793 81.5086 11.116 81.8152 11.1788L83.6367 11.5816C84.9129 11.8516 85.8485 12.3568 86.4715 13.0709C87.0991 13.7503 87.4394 14.6503 87.42 15.5793C87.4157 16.1124 87.3065 16.6394 87.0988 17.1296C86.9015 17.6509 86.5863 18.1184 86.1783 18.4948C85.7263 18.9179 85.1959 19.2465 84.6176 19.4615C83.1032 19.9624 81.4659 19.9333 79.9699 19.3788C79.3822 19.1281 78.8402 18.78 78.3661 18.3489C77.971 17.9816 77.6617 17.5301 77.4607 17.0272C77.3361 16.7627 77.2379 16.4862 77.1675 16.202C77.1548 16.1489 77.1528 16.0938 77.1617 16.0399C77.1705 15.986 77.19 15.9345 77.219 15.8884C77.2479 15.8423 77.2858 15.8025 77.3303 15.7715C77.3747 15.7405 77.425 15.7188 77.4779 15.7077L79.6595 15.2418C79.7614 15.2194 79.868 15.2381 79.9565 15.2938C80.045 15.3495 80.1086 15.4378 80.1337 15.5401C80.229 15.91 80.4202 16.2475 80.6877 16.5177V16.5177Z" fill="#1B1B1B"/>
	<path d="M99.5608 17.4064C99.2176 17.9033 98.7925 18.3371 98.304 18.6889C97.7841 19.0671 97.2117 19.3657 96.6053 19.5751C95.9033 19.7898 95.1723 19.8926 94.4389 19.8799C93.5768 19.8752 92.722 19.7197 91.9124 19.4205C91.1222 19.1161 90.405 18.6455 89.8085 18.04C89.1881 17.4173 88.7034 16.6705 88.3857 15.8474C88.0132 14.9186 87.832 13.9229 87.8532 12.921C87.8492 11.9565 88.0308 11.0003 88.3879 10.1057C88.7063 9.31017 89.1799 8.58747 89.7804 7.98057C90.3642 7.39448 91.0584 6.93249 91.8219 6.62189C92.5691 6.29116 93.3774 6.1249 94.1931 6.13416C96.2001 6.13416 97.7371 6.75688 98.8516 7.94791C99.9661 9.13893 100.505 10.8003 100.494 12.8818C100.498 13.1188 100.488 13.3557 100.466 13.5916V13.5916C100.455 13.6911 100.407 13.7828 100.333 13.8491C100.258 13.9154 100.162 13.9516 100.063 13.9509L91.7205 13.9095C91.6613 13.9087 91.6025 13.921 91.5485 13.9457C91.4945 13.9703 91.4465 14.0067 91.408 14.0523C91.3695 14.0978 91.3415 14.1514 91.3258 14.2091C91.3101 14.2669 91.3073 14.3274 91.3174 14.3864C91.3604 14.6316 91.4366 14.8697 91.5438 15.094C91.7235 15.4392 91.9597 15.7514 92.2422 16.0172C92.5352 16.2881 92.874 16.5034 93.2425 16.653L93.2834 16.6683C93.6698 16.8072 94.0762 16.8808 94.4863 16.886C95.2947 16.886 95.9479 16.7096 96.3919 16.3417C96.7683 16.0535 97.0732 15.6808 97.2822 15.253C97.3228 15.1646 97.3934 15.094 97.4813 15.054C97.5692 15.014 97.6684 15.0074 97.7608 15.0352L99.9165 15.6885C99.9692 15.7042 100.018 15.7306 100.061 15.7661C100.103 15.8017 100.137 15.8456 100.162 15.8951C100.187 15.9447 100.202 15.9989 100.205 16.0543C100.208 16.1098 100.2 16.1653 100.182 16.2176C100.026 16.6392 99.8175 17.0388 99.5608 17.4064V17.4064ZM96.8856 10.6239C96.78 10.3114 96.6027 10.0287 96.3682 9.79867C96.1204 9.54 95.8184 9.34061 95.4844 9.21514C95.0901 9.04291 94.6635 8.95969 94.2341 8.97127C93.8195 8.9618 93.4077 9.04275 93.0269 9.2086C92.6984 9.35616 92.3972 9.55941 92.1366 9.80956C91.9069 10.0463 91.7201 10.3219 91.5847 10.6239C91.5285 10.7471 91.4817 10.8745 91.4446 11.0049C91.4284 11.0654 91.4261 11.1289 91.4381 11.1903C91.4501 11.2518 91.476 11.3097 91.5138 11.3594C91.5515 11.4091 91.6001 11.4494 91.6558 11.477C91.7115 11.5047 91.7728 11.519 91.8348 11.5188L96.614 11.5449C96.6753 11.5449 96.7359 11.5309 96.7912 11.5039C96.8464 11.4769 96.8949 11.4377 96.9331 11.3891C96.9712 11.3405 96.998 11.2839 97.0114 11.2234C97.0249 11.1629 97.0246 11.1001 97.0106 11.0398C96.9826 10.8973 96.9407 10.758 96.8856 10.6239V10.6239Z" fill="#1B1B1B"/>
	<path d="M104.388 7.21797C104.271 7.26573 104.166 7.33795 104.077 7.43011C103.986 7.53638 103.913 7.65831 103.862 7.79047C103.805 7.94502 103.777 8.10971 103.781 8.27525C103.775 8.44073 103.801 8.60567 103.857 8.76072C103.907 8.89455 103.978 9.01819 104.069 9.12584C104.159 9.22239 104.266 9.29857 104.385 9.34954C104.509 9.40018 104.64 9.42603 104.773 9.42569C104.892 9.42755 105.01 9.40586 105.121 9.36178C105.22 9.32696 105.311 9.27449 105.392 9.20675C105.463 9.14502 105.523 9.07009 105.567 8.98578C105.592 8.94418 105.614 8.90104 105.633 8.85659C105.646 8.82769 105.668 8.80472 105.696 8.79215C105.724 8.77958 105.756 8.77832 105.785 8.7886L106.486 9.03541C106.516 9.04654 106.541 9.06924 106.555 9.09877C106.569 9.12829 106.572 9.16235 106.562 9.19384C106.519 9.32419 106.46 9.44861 106.388 9.5644C106.284 9.72967 106.155 9.87621 106.006 9.99819C105.843 10.1343 105.661 10.2418 105.465 10.3164C105.24 10.3936 105.005 10.4311 104.768 10.4272C104.494 10.4306 104.222 10.3729 103.971 10.2579C103.726 10.1562 103.503 10.004 103.316 9.81053C103.128 9.61476 102.98 9.38196 102.881 9.12584C102.775 8.85391 102.723 8.56293 102.727 8.26982C102.726 7.97397 102.781 7.68087 102.889 7.40699C102.986 7.15429 103.131 6.92465 103.316 6.73203C103.501 6.5394 103.722 6.38781 103.965 6.28647C104.216 6.18062 104.486 6.12881 104.757 6.13417C104.999 6.13349 105.24 6.17368 105.47 6.25315C105.663 6.32985 105.844 6.4362 106.007 6.56864C106.155 6.69004 106.28 6.83842 106.377 7.00651C106.447 7.12663 106.504 7.2543 106.548 7.38727C106.557 7.41937 106.554 7.45407 106.54 7.48394C106.525 7.5138 106.499 7.53646 106.469 7.54705L105.748 7.79319C105.718 7.80323 105.686 7.80101 105.657 7.78699C105.629 7.77296 105.606 7.74819 105.595 7.71771C105.542 7.58484 105.464 7.4642 105.366 7.36279C105.235 7.22205 105.034 7.14726 104.773 7.1459C104.641 7.1446 104.511 7.16905 104.388 7.21797V7.21797Z" fill="#1B1B1B"/>
	<path d="M109.509 6.31504C109.751 6.41929 109.971 6.57123 110.156 6.76243C110.341 6.95883 110.485 7.19167 110.581 7.44712C110.683 7.72193 110.733 8.01476 110.727 8.30927C110.731 8.602 110.678 8.89257 110.572 9.16393C110.474 9.41833 110.328 9.64957 110.141 9.84386C109.954 10.0332 109.732 10.1829 109.49 10.2845C109.231 10.3968 108.953 10.4515 108.673 10.4449C108.393 10.4501 108.115 10.3943 107.858 10.2811C107.616 10.1768 107.396 10.0249 107.21 9.83366C107.026 9.63624 106.882 9.40219 106.787 9.14558C106.684 8.87321 106.634 8.58215 106.641 8.28955C106.638 7.99387 106.69 7.7003 106.795 7.42536C106.893 7.1711 107.04 6.93991 107.225 6.74543C107.414 6.55615 107.637 6.40654 107.88 6.30484C108.407 6.09981 108.988 6.10296 109.513 6.31368L109.509 6.31504ZM109.051 9.38015C109.172 9.3321 109.28 9.25659 109.369 9.15917C109.462 9.05731 109.535 8.93771 109.585 8.80697C109.645 8.64848 109.675 8.47954 109.674 8.30927C109.677 8.13787 109.648 7.96749 109.589 7.80748C109.541 7.67604 109.469 7.55549 109.377 7.45256C109.289 7.35439 109.181 7.27795 109.061 7.22886C108.823 7.12761 108.556 7.12493 108.317 7.22138C108.196 7.26942 108.087 7.34467 107.998 7.44168C107.905 7.54367 107.832 7.66353 107.783 7.79456C107.722 7.95407 107.692 8.1242 107.693 8.29567C107.69 8.46699 107.719 8.63731 107.778 8.79745C107.826 8.92881 107.898 9.04932 107.99 9.15237C108.078 9.25032 108.186 9.32673 108.306 9.37607C108.424 9.42556 108.55 9.4514 108.678 9.45222C108.805 9.45248 108.931 9.42804 109.05 9.38015H109.051Z" fill="#1B1B1B"/>
	<path d="M111.207 6.29209L111.967 6.29617C111.983 6.29608 111.999 6.29934 112.014 6.30577C112.03 6.3122 112.043 6.32166 112.055 6.33361C112.066 6.34556 112.075 6.35976 112.082 6.37539C112.088 6.39103 112.091 6.40778 112.091 6.42468V6.4342C112.091 6.4585 112.098 6.48226 112.11 6.50267C112.123 6.52308 112.141 6.53929 112.162 6.54938C112.184 6.55947 112.207 6.56301 112.231 6.55959C112.254 6.55616 112.275 6.54592 112.293 6.53007V6.53007C112.381 6.45395 112.478 6.38954 112.581 6.33833C112.685 6.28699 112.795 6.24887 112.908 6.22478C113.016 6.20023 113.126 6.18702 113.236 6.18534C113.481 6.18034 113.724 6.24123 113.94 6.36213C114.083 6.44516 114.206 6.56152 114.299 6.70209C114.309 6.7186 114.324 6.73231 114.34 6.74211C114.357 6.75191 114.375 6.75753 114.395 6.75852C114.414 6.75951 114.433 6.75584 114.45 6.74782C114.468 6.73979 114.483 6.72762 114.495 6.71229C114.611 6.55806 114.76 6.43417 114.93 6.35057C115.147 6.24571 115.384 6.19494 115.623 6.20234C115.801 6.20356 115.978 6.23502 116.147 6.29549C116.313 6.35347 116.466 6.44601 116.597 6.56746C116.736 6.70259 116.844 6.86915 116.911 7.05429C116.995 7.2741 117.035 7.50947 117.027 7.74578L117.015 10.2411C117.015 10.275 117.001 10.3073 116.978 10.3311C116.955 10.3549 116.924 10.3683 116.891 10.3683L116.116 10.3642C116.099 10.3641 116.083 10.3607 116.069 10.3542C116.054 10.3477 116.04 10.3382 116.029 10.3263C116.017 10.3143 116.008 10.3002 116.002 10.2846C115.996 10.2691 115.993 10.2525 115.993 10.2357L116.004 7.96199C116.012 7.76772 115.957 7.57628 115.848 7.41805C115.738 7.26915 115.564 7.19436 115.319 7.193C115.218 7.18744 115.118 7.20582 115.026 7.24672C114.934 7.28763 114.852 7.34997 114.787 7.42893C114.658 7.58396 114.59 7.78278 114.594 7.98715L114.583 10.2309C114.583 10.2477 114.58 10.2643 114.573 10.2798C114.567 10.2952 114.558 10.3093 114.546 10.3211C114.535 10.3329 114.521 10.3422 114.506 10.3486C114.491 10.3549 114.475 10.3581 114.459 10.3581L113.658 10.3499C113.626 10.3497 113.594 10.3362 113.572 10.3122C113.549 10.2883 113.536 10.2559 113.536 10.2221L113.547 7.94839C113.555 7.75038 113.497 7.55561 113.384 7.39629C113.274 7.25623 113.099 7.18144 112.86 7.18008C112.62 7.17872 112.448 7.25215 112.32 7.40717C112.191 7.56528 112.123 7.7667 112.127 7.97355L112.116 10.2173C112.116 10.2341 112.113 10.2507 112.107 10.2662C112.1 10.2816 112.091 10.2957 112.08 10.3075C112.068 10.3193 112.055 10.3286 112.04 10.335C112.025 10.3413 112.009 10.3445 111.993 10.3445L111.185 10.3404C111.169 10.3403 111.153 10.3369 111.138 10.3304C111.123 10.3239 111.109 10.3144 111.098 10.3025C111.087 10.2905 111.078 10.2764 111.072 10.2608C111.066 10.2453 111.062 10.2287 111.063 10.2119L111.081 6.42196C111.081 6.40474 111.084 6.38763 111.09 6.37166C111.097 6.35569 111.106 6.3412 111.118 6.32905C111.129 6.31691 111.143 6.30737 111.159 6.30102C111.174 6.29466 111.191 6.29163 111.207 6.29209V6.29209Z" fill="#1B1B1B"/>
</svg>
