<svg width="16" height="18" viewBox="0 0 16 18" fill="none" xmlns="http://www.w3.org/2000/svg">
	<path d="M13.7724 5.87425L14.6066 5.04925C14.7792 4.87664 14.8762 4.64252 14.8762 4.39842C14.8762 4.15431 14.7792 3.92019 14.6066 3.74758C14.434 3.57497 14.1999 3.478 13.9558 3.478C13.7116 3.478 13.4775 3.57497 13.3049 3.74758L12.4799 4.58175C11.1953 3.58795 9.61703 3.04875 7.99284 3.04875C6.36865 3.04875 4.79041 3.58795 3.50575 4.58175L2.67159 3.73842C2.49776 3.5658 2.26248 3.46931 2.01751 3.47017C1.77254 3.47103 1.53795 3.56917 1.36534 3.743C1.19272 3.91683 1.09624 4.1521 1.0971 4.39707C1.09795 4.64204 1.19609 4.87664 1.36992 5.04925L2.21325 5.88342C1.20768 7.1645 0.662061 8.74648 0.664087 10.3751C0.661093 11.5442 0.937678 12.6971 1.47077 13.7377C2.00387 14.7782 2.77803 15.6762 3.72868 16.3567C4.67933 17.0373 5.77892 17.4807 6.93575 17.6499C8.09257 17.8192 9.2731 17.7094 10.3789 17.3297C11.4846 16.9501 12.4836 16.3115 13.2925 15.4673C14.1013 14.6231 14.6966 13.5978 15.0287 12.4768C15.3608 11.3558 15.42 10.1717 15.2015 9.02313C14.9829 7.87459 14.493 6.79495 13.7724 5.87425V5.87425ZM7.99742 15.8751C6.90962 15.8751 5.84625 15.5525 4.94178 14.9482C4.03731 14.3438 3.33236 13.4848 2.91608 12.4798C2.4998 11.4748 2.39088 10.369 2.6031 9.30209C2.81532 8.23519 3.33914 7.25518 4.10833 6.48599C4.87752 5.71681 5.85753 5.19298 6.92442 4.98076C7.99132 4.76854 9.09719 4.87746 10.1022 5.29374C11.1072 5.71003 11.9662 6.41497 12.5705 7.31945C13.1748 8.22392 13.4974 9.28728 13.4974 10.3751C13.4974 11.8338 12.918 13.2327 11.8865 14.2642C10.8551 15.2956 9.45611 15.8751 7.99742 15.8751ZM6.16409 2.12508H9.83075C10.0739 2.12508 10.307 2.0285 10.4789 1.8566C10.6508 1.68469 10.7474 1.45153 10.7474 1.20841C10.7474 0.9653 10.6508 0.732142 10.4789 0.560233C10.307 0.388325 10.0739 0.291748 9.83075 0.291748H6.16409C5.92097 0.291748 5.68781 0.388325 5.51591 0.560233C5.344 0.732142 5.24742 0.9653 5.24742 1.20841C5.24742 1.45153 5.344 1.68469 5.51591 1.8566C5.68781 2.0285 5.92097 2.12508 6.16409 2.12508V2.12508ZM8.91409 7.62508C8.91409 7.38197 8.81751 7.14881 8.6456 6.9769C8.47369 6.80499 8.24054 6.70842 7.99742 6.70842C7.7543 6.70842 7.52115 6.80499 7.34924 6.9769C7.17733 7.14881 7.08075 7.38197 7.08075 7.62508V9.35758C6.87319 9.54323 6.72689 9.78752 6.66121 10.0581C6.59553 10.3288 6.61357 10.6129 6.71293 10.8731C6.8123 11.1332 6.98831 11.3571 7.21767 11.515C7.44704 11.6729 7.71895 11.7574 7.99742 11.7574C8.27589 11.7574 8.5478 11.6729 8.77717 11.515C9.00653 11.3571 9.18254 11.1332 9.28191 10.8731C9.38127 10.6129 9.39931 10.3288 9.33363 10.0581C9.26795 9.78752 9.12165 9.54323 8.91409 9.35758V7.62508Z" fill="#191B20"/>
</svg>
