<svg width="685" height="124" viewBox="0 0 685 124" fill="none" xmlns="http://www.w3.org/2000/svg">
	<path d="M6 39.9219V39.1719H5.25V39.9219H6ZM5.46967 123.531C5.76256 123.824 6.23744 123.824 6.53033 123.531L11.3033 118.758C11.5962 118.466 11.5962 117.991 11.3033 117.698C11.0104 117.405 10.5355 117.405 10.2426 117.698L6 121.94L1.75736 117.698C1.46447 117.405 0.989593 117.405 0.696699 117.698C0.403806 117.991 0.403806 118.466 0.696699 118.758L5.46967 123.531ZM342.5 39.1719H6V40.6719H342.5V39.1719ZM5.25 39.9219V123.001H6.75V39.9219H5.25Z" fill="#C0A1FE"/>
	<path d="M342 39.9208V40.6708H341.25V39.9208H342ZM678.5 39.9208V39.1708H679.25V39.9208H678.5ZM679.03 123.53C678.737 123.823 678.263 123.823 677.97 123.53L673.197 118.757C672.904 118.464 672.904 117.99 673.197 117.697C673.49 117.404 673.964 117.404 674.257 117.697L678.5 121.939L682.743 117.697C683.036 117.404 683.51 117.404 683.803 117.697C684.096 117.99 684.096 118.464 683.803 118.757L679.03 123.53ZM342 39.1708H678.5V40.6708H342V39.1708ZM679.25 39.9208V123H677.75V39.9208H679.25ZM341.25 39.9208V0H342.75V39.9208H341.25Z" fill="#C0A1FE"/>
</svg>
