<svg width="75" height="75" viewBox="0 0 75 75" fill="none" xmlns="http://www.w3.org/2000/svg">
	<g clip-path="url(#clip0_8862_67898)">
		<path d="M72.0942 50.0973C64.8956 69.4433 43.377 79.2907 24.031 72.0921C4.68505 64.8936 -5.16238 43.375 2.03617 24.029C9.23473 4.68302 30.7533 -5.16442 50.0993 2.03414C69.4453 9.2327 79.2927 30.7513 72.0942 50.0973Z" fill="#00FF66"/>
		<path d="M40.1112 20.2131L37.1466 24.4392L37.379 19.1964L36.0128 18.6881L32.7782 22.792L33.271 17.6678L31.8762 17.1489L31.2379 24.6225L32.6136 25.1344L35.9564 20.8858L35.7089 26.2861L37.0655 26.7909L41.4582 20.7143L40.1112 20.2131Z" fill="black"/>
		<path d="M39.9125 27.8503L41.25 28.3479L43.7703 21.5746L42.4328 21.0769L39.9125 27.8503Z" fill="black"/>
		<path d="M47.2272 30.572L48.6124 31.0875L51.1327 24.3141L49.8144 23.8236L48.1472 28.3041L46.9961 22.7749L45.353 22.1635L42.8326 28.9368L44.151 29.4274L45.939 24.622L47.2272 30.572Z" fill="black"/>
		<path d="M13.8037 25.7461L15.9437 26.5424L16.4094 25.2909L10.8015 23.2043L10.3359 24.4558L12.4758 25.252L10.4212 30.7739L11.7491 31.268L13.8037 25.7461Z" fill="black"/>
		<path d="M19.1065 34.0057L20.4344 34.4998L22.9548 27.7264L21.6269 27.2323L20.6137 29.955L17.6618 28.8566L18.6749 26.1339L17.3565 25.6433L14.8362 32.4167L16.1545 32.9072L17.1996 30.0985L20.1516 31.197L19.1065 34.0057Z" fill="black"/>
		<path d="M22.0199 35.0897L26.2615 36.668L26.7237 35.4261L23.8003 34.3383L24.3833 32.7716L27.0296 33.7562L27.4668 32.5812L24.8206 31.5965L25.3964 30.0488L28.3198 31.1366L28.7819 29.8947L24.5402 28.3164L22.0199 35.0897Z" fill="black"/>
		<path d="M34.8826 39.8758L35.9525 40.274L37.2642 36.7488L33.8824 35.4904L33.4558 36.6368L35.5957 37.4331C35.5304 37.5502 35.4329 37.6661 35.3091 37.7941C35.1758 37.9185 35.0174 38.0227 34.8244 38.1031C34.6313 38.1836 34.3976 38.2271 34.1458 38.2313C33.8906 38.2451 33.6053 38.1933 33.29 38.076C33.0034 37.9694 32.7537 37.8221 32.5349 37.621C32.3125 37.4295 32.1365 37.2009 32.0166 36.9387C31.8906 36.6635 31.8266 36.3678 31.8186 36.0385C31.8046 35.6961 31.8717 35.3404 32.0139 34.9583C32.1632 34.5571 32.358 34.238 32.5889 33.9976C32.8233 33.7477 33.0841 33.5728 33.3523 33.466C33.624 33.3496 33.897 33.288 34.187 33.298C34.4769 33.308 34.7431 33.3527 35.001 33.4486C35.278 33.5517 35.5027 33.6788 35.6808 33.843C35.8626 33.9976 36.005 34.1703 36.1116 34.3513C36.2087 34.5289 36.2831 34.7088 36.3218 34.8972C36.3509 35.0821 36.3609 35.2598 36.3518 35.4304L37.7799 35.4506C37.7899 35.1607 37.7617 34.8566 37.6917 34.5477C37.6217 34.2389 37.4933 33.941 37.31 33.6444C37.1267 33.3478 36.8875 33.0847 36.5862 32.8421C36.2789 32.5864 35.9086 32.3833 35.4596 32.2163C35.001 32.0456 34.5295 31.9681 34.0583 31.9776C33.5775 31.9836 33.1196 32.0743 32.6906 32.2627C32.2521 32.4475 31.8555 32.7241 31.5105 33.0961C31.1594 33.4549 30.879 33.9161 30.6764 34.4606C30.4738 35.0052 30.3845 35.5375 30.4025 36.0445C30.424 36.5419 30.5242 37.0034 30.7257 37.4264C30.9213 37.8363 31.1859 38.2067 31.5362 38.5219C31.8866 38.8372 32.288 39.0736 32.7466 39.2442C33.0045 39.3402 33.2445 39.3968 33.4724 39.4273C33.7004 39.4577 33.9163 39.4619 34.1203 39.4399C34.3147 39.4144 34.4971 39.3626 34.6604 39.3038C34.8272 39.2353 34.9654 39.1562 35.0845 39.07L34.8826 39.8758Z" fill="black"/>
		<path d="M40.2691 38.911L40.6265 42.0132L42.0977 42.5606L41.6765 39.2498C42.1717 39.2927 42.6141 39.1854 42.9964 38.947C43.3788 38.7086 43.6558 38.344 43.8336 37.8663C43.9438 37.5702 43.9955 37.2849 43.9864 36.9879C43.9773 36.6908 43.9158 36.4178 43.7923 36.1652C43.6783 35.9161 43.5059 35.6779 43.2775 35.4733C43.0586 35.2723 42.7838 35.1047 42.4495 34.9803L39.8032 33.9956L37.2828 40.769L38.6108 41.2631L39.5812 38.655L40.2691 38.911ZM41.0742 37.9163L40.0042 37.5182L40.7045 35.6362L41.7745 36.0343C42.1089 36.1587 42.3444 36.3442 42.4619 36.5837C42.5794 36.8232 42.5896 37.0881 42.483 37.3747C42.3799 37.6517 42.1991 37.8454 41.9536 37.9499C41.7081 38.0543 41.4086 38.0407 41.0742 37.9163Z" fill="black"/>
		<path d="M47.7765 42.9117L47.7642 44.6691L49.1972 45.2023L49.1382 37.4692L47.6096 36.9004L42.4908 42.7068L43.8856 43.2258L45.0251 41.8879L47.7765 42.9117ZM45.9124 40.8477L47.8013 38.6358L47.7849 41.5444L45.9124 40.8477Z" fill="black"/>
		<path d="M54.4774 47.167L55.8626 47.6824L58.383 40.9091L57.0646 40.4186L55.3974 44.8991L54.2464 39.3699L52.6032 38.7585L50.0829 45.5318L51.4012 46.0224L53.1893 41.217L54.4774 47.167Z" fill="black"/>
		<path d="M60.2774 47.933L59.2265 47.542L60.8368 43.2143L61.8972 43.6089C62.1743 43.712 62.4144 43.8557 62.6308 44.0341C62.8472 44.2125 63.0172 44.428 63.1312 44.6771C63.2451 44.9261 63.3067 45.1992 63.3122 45.5058C63.3142 45.8219 63.2542 46.1585 63.1156 46.5311C62.977 46.9037 62.8023 47.1976 62.5977 47.426C62.3896 47.664 62.1549 47.8268 61.9059 47.9408C61.6568 48.0548 61.3909 48.0972 61.1105 48.0908C60.8301 48.0843 60.5544 48.0361 60.2774 47.933ZM57.4531 48.2743L59.8701 49.1736C60.3574 49.3549 60.8252 49.442 61.2929 49.442C61.7606 49.442 62.1958 49.3538 62.5986 49.1774C63.0014 49.001 63.3718 48.7364 63.7001 48.38C64.019 48.0201 64.2827 47.5744 64.4817 47.0394C64.6808 46.5045 64.7726 45.9948 64.7666 45.514C64.751 45.0297 64.6533 44.5909 64.4673 44.1845C64.2778 43.7877 64.0061 43.4365 63.6522 43.1308C63.2982 42.8251 62.8872 42.5851 62.4 42.4038L59.9735 41.5009L57.4531 48.2743Z" fill="black"/>
		<path d="M22.6791 45.034L21.6378 44.6466L22.3594 42.7072L23.4007 43.0947C23.7351 43.2191 23.961 43.4011 24.0881 43.6441C24.2056 43.8836 24.2123 44.158 24.0985 44.4637C23.9883 44.7599 23.8075 44.9536 23.562 45.058C23.3034 45.1684 23.0135 45.1584 22.6791 45.034ZM21.2052 45.7799L22.4185 46.2313C22.7528 46.3557 23.0703 46.4086 23.3865 46.4066C23.7026 46.4046 23.9852 46.3466 24.2534 46.2398C24.5216 46.1329 24.7597 45.9605 24.9608 45.7416C25.1618 45.5228 25.3163 45.254 25.43 44.9483C25.5438 44.6426 25.5991 44.3477 25.59 44.0507C25.5809 43.7537 25.5133 43.4675 25.3802 43.2113C25.2507 42.9456 25.0748 42.717 24.8368 42.5088C24.5989 42.3007 24.324 42.1331 23.9897 42.0087L21.458 41.0667L18.9377 47.84L20.2561 48.3306L21.2052 45.7799Z" fill="black"/>
		<path d="M27.7082 48.1343L28.0657 51.2365L29.5369 51.7839L29.1156 48.4731C29.6109 48.516 30.0532 48.4087 30.4356 48.1703C30.8179 47.9319 31.095 47.5674 31.2727 47.0897C31.3829 46.7935 31.4347 46.5083 31.4256 46.2112C31.4165 45.9142 31.3549 45.6411 31.2314 45.3885C31.1174 45.1395 30.945 44.9013 30.7166 44.6967C30.4978 44.4956 30.223 44.3281 29.8886 44.2037L27.2423 43.219L24.722 49.9923L26.0499 50.4865L27.0203 47.8784L27.7082 48.1343ZM28.5133 47.1397L27.4434 46.7415L28.1436 44.8595L29.2136 45.2577C29.548 45.3821 29.7835 45.5676 29.901 45.8071C30.0186 46.0466 30.0288 46.3114 29.9221 46.598C29.819 46.8751 29.6382 47.0688 29.3927 47.1732C29.1472 47.2776 28.8477 47.2641 28.5133 47.1397Z" fill="black"/>
		<path d="M30.7395 52.2314L32.0769 52.7291L34.5973 45.9558L33.2598 45.4581L30.7395 52.2314Z" fill="black"/>
		<path d="M33.2584 53.1687L38.5891 55.1523L39.0584 53.8912L35.4281 52.5404L40.6031 49.5935L41.0617 48.3611L35.9029 46.4416L35.4372 47.6931L38.8382 48.9586L33.7347 51.8885L33.2584 53.1687Z" fill="black"/>
		<path d="M39.7984 55.6022L44.0401 57.1805L44.5022 55.9386L41.5789 54.8508L42.1618 53.2841L44.8081 54.2687L45.2454 53.0937L42.5991 52.109L43.1749 50.5614L46.0983 51.6491L46.5604 50.4072L42.3187 48.8289L39.7984 55.6022Z" fill="black"/>
	</g>
	<defs>
		<clipPath id="clip0_8862_67898">
			<rect width="74.75" height="74.75" fill="white"/>
		</clipPath>
	</defs>
</svg>
