<svg width="627" height="449" viewBox="0 0 627 449" fill="none" xmlns="http://www.w3.org/2000/svg">
	<path fill-rule="evenodd" clip-rule="evenodd" d="M436.97 256.264L393.294 186.899L507.622 85.4213H318.146V0H633.512V82.21L523.68 177.265C539.737 177.907 555.794 181.761 570.567 188.826C585.34 195.249 598.828 204.24 610.389 216.443C621.308 228.004 630.3 242.134 637.365 258.833C643.788 274.89 647 293.515 647 314.71C647 334.62 643.146 353.888 635.439 372.514C627.089 390.497 616.17 406.554 601.397 420.041C586.624 433.529 568.64 444.448 547.445 452.797C526.249 461.146 501.842 465 475.508 465C449.816 465 426.694 461.146 406.783 453.439C386.229 445.732 368.887 435.456 354.114 421.968C339.342 408.481 327.78 393.066 319.431 375.725C311.081 358.384 305.943 340.401 304.016 321.775L400.36 301.865C401.002 324.344 408.709 342.327 422.197 356.457C435.686 371.229 453.028 378.294 474.866 378.294C485.784 378.294 496.061 376.367 505.053 372.514C513.403 369.302 521.111 364.164 526.891 358.384C532.672 352.604 537.168 345.539 540.379 337.189C543.591 328.84 544.875 320.49 544.875 312.141C544.875 289.662 537.81 273.605 524.322 262.686C510.834 251.768 494.777 246.63 476.792 246.63C469.727 246.63 462.662 247.272 455.597 249.199C447.889 251.126 441.466 253.052 436.97 256.264ZM279.148 169L181.979 315.116L280 460H198.173L138.508 365.599L79.2694 460H0L97.5951 314.295L0 169H80.9741L140.639 263.401L200.304 169H279.148Z" fill="#00FF66"/>
</svg>
