<svg width="40" height="40" viewBox="0 0 40 40" fill="none" xmlns="http://www.w3.org/2000/svg">
	<circle cx="20" cy="20" r="20" fill="#FFFB1F"/>
	<path d="M26.6762 12.484C26.5746 12.3994 26.4558 12.3393 26.3286 12.3081C26.2014 12.277 26.0691 12.2755 25.9412 12.3039C25.0063 12.5055 24.041 12.5081 23.1051 12.3115C22.1691 12.1148 21.2821 11.7232 20.4987 11.1606C20.3523 11.056 20.1783 11 20 11C19.8217 11 19.6477 11.056 19.5013 11.1606C18.7179 11.7232 17.8309 12.1148 16.8949 12.3115C15.959 12.5081 14.9937 12.5055 14.0588 12.3039C13.931 12.2755 13.7986 12.277 13.6714 12.3081C13.5442 12.3393 13.4254 12.3994 13.3238 12.484C13.2222 12.5687 13.1405 12.6758 13.0844 12.7973C13.0284 12.9188 12.9996 13.0517 13 13.1862V19.8933C12.9992 21.1841 13.2982 22.4564 13.872 23.6042C14.4458 24.7521 15.2778 25.7423 16.2988 26.4924L19.4925 28.8331C19.6407 28.9417 19.8181 29 20 29C20.1819 29 20.3593 28.9417 20.5075 28.8331L23.7012 26.4924C24.7222 25.7423 25.5542 24.7521 26.128 23.6042C26.7018 22.4564 27.0008 21.1841 27 19.8933V13.1862C27.0004 13.0517 26.9716 12.9188 26.9156 12.7973C26.8595 12.6758 26.7778 12.5687 26.6762 12.484ZM25.25 19.8933C25.2507 20.8969 25.0184 21.8861 24.5724 22.7787C24.1265 23.6713 23.4798 24.4414 22.6862 25.0249L20 26.9965L17.3138 25.0249C16.5202 24.4414 15.8735 23.6713 15.4276 22.7787C14.9816 21.8861 14.7493 20.8969 14.75 19.8933V14.2215C16.5844 14.3831 18.4215 13.9452 20 12.9701C21.5785 13.9452 23.4156 14.3831 25.25 14.2215V19.8933Z" fill="#191B20"/>
</svg>
