<svg width="21" height="24" viewBox="0 0 21 24" fill="none" xmlns="http://www.w3.org/2000/svg">
	<path d="M12.7584 19.5992V22.1784L10.4674 23.5L8.24158 22.1784V19.5992L10.4674 20.9208L12.7584 19.5992ZM0.5 10.6784L2.72584 12V16.4231L6.55863 18.6719V21.2512L0.5 17.7447V10.6784ZM20.4349 10.6784V17.7553L14.3111 21.2618V18.6826L18.1439 16.4337V12.0107L20.4349 10.6784ZM14.3002 7.17192L16.5912 8.49351V11.0728L12.7584 13.3216V17.8086L10.5326 19.1302L8.31759 17.8086V13.3109L4.34365 11.0621V8.48285L6.63464 7.16126L10.4674 9.4101L14.3002 7.17192ZM4.34365 12.9166L6.56949 14.2382V16.8174L4.34365 15.4958V12.9166ZM16.5912 12.9166V15.4958L14.3654 16.8174V14.2382L16.5912 12.9166ZM2.72584 4.92308L5.01683 6.24467L2.72584 7.56626V10.1455L0.5 8.82391V6.24467L2.72584 4.92308ZM18.209 4.92308L20.5 6.24467V8.82391L18.209 10.1455V7.56626L15.9832 6.24467L18.209 4.92308ZM10.4674 4.92308L12.7584 6.24467L10.4674 7.56626L8.24158 6.24467L10.4674 4.92308ZM10.4674 0.5L16.5912 4.00649L14.3654 5.32808L10.5326 3.07924L6.62378 5.32808L4.39794 4.00649L10.4674 0.5Z" fill="#F3BA2F"/>
</svg>
