<svg width="23" height="24" viewBox="0 0 23 24" fill="none" xmlns="http://www.w3.org/2000/svg">
	<path fill-rule="evenodd" clip-rule="evenodd" d="M23 12C23 18.3513 17.8516 23.5 11.5 23.5C5.14844 23.5 0 18.3513 0 12C0 5.64874 5.14844 0.5 11.5 0.5C17.8516 0.5 23 5.64874 23 12ZM18.3164 12.0002C18.3164 15.7661 15.2637 18.8188 11.498 18.8188C7.73242 18.8188 4.67969 15.7661 4.67969 12.0002C4.67969 8.23444 7.73242 5.18164 11.498 5.18164C15.2637 5.18164 18.3164 8.23444 18.3164 12.0002ZM10.1172 9.86279C9.70117 9.86279 9.36328 10.2004 9.36328 10.6169V13.383C9.36328 13.7995 9.70117 14.1371 10.1172 14.1371H12.8828C13.3008 14.1371 13.6367 13.7995 13.6367 13.383V10.6169C13.6367 10.3483 13.4961 10.1124 13.2852 9.97888C13.1699 9.90533 13.0312 9.86279 12.8828 9.86279H10.1172Z" fill="#0052FF"/>
</svg>
