<svg width="22" height="21" viewBox="0 0 22 21" fill="none" xmlns="http://www.w3.org/2000/svg">
	<path d="M20.3679 0.897583L12.248 6.92834L13.7496 3.37028L20.3679 0.897583Z" fill="#E2761B" stroke="#E2761B" stroke-width="0.081607" stroke-linecap="round" stroke-linejoin="round"/>
	<path d="M1.625 0.897156L9.67961 6.98504L8.25149 3.36985L1.625 0.897156Z" fill="#E4761B" stroke="#E4761B" stroke-width="0.081607" stroke-linecap="round" stroke-linejoin="round"/>
	<path d="M17.4477 14.8767L15.2852 18.19L19.9123 19.463L21.2425 14.9502L17.4477 14.8767Z" fill="#E4761B" stroke="#E4761B" stroke-width="0.081607" stroke-linecap="round" stroke-linejoin="round"/>
	<path d="M0.767578 14.9502L2.08961 19.463L6.71673 18.19L4.55414 14.8767L0.767578 14.9502Z" fill="#E4761B" stroke="#E4761B" stroke-width="0.081607" stroke-linecap="round" stroke-linejoin="round"/>
	<path d="M6.45541 9.2781L5.16602 11.2285L9.76049 11.4325L9.59728 6.4953L6.45541 9.2781Z" fill="#E4761B" stroke="#E4761B" stroke-width="0.081607" stroke-linecap="round" stroke-linejoin="round"/>
	<path d="M15.5388 9.27785L12.3561 6.43793L12.25 11.4323L16.8363 11.2283L15.5388 9.27785Z" fill="#E4761B" stroke="#E4761B" stroke-width="0.081607" stroke-linecap="round" stroke-linejoin="round"/>
	<path d="M6.7168 18.1895L9.47511 16.843L7.09219 14.9824L6.7168 18.1895Z" fill="#E4761B" stroke="#E4761B" stroke-width="0.081607" stroke-linecap="round" stroke-linejoin="round"/>
	<path d="M12.5195 16.843L15.286 18.1895L14.9025 14.9824L12.5195 16.843Z" fill="#E4761B" stroke="#E4761B" stroke-width="0.081607" stroke-linecap="round" stroke-linejoin="round"/>
	<path d="M15.286 18.1895L12.5195 16.843L12.7399 18.6465L12.7154 19.4055L15.286 18.1895Z" fill="#D7C1B3" stroke="#D7C1B3" stroke-width="0.081607" stroke-linecap="round" stroke-linejoin="round"/>
	<path d="M6.7168 18.1895L9.28742 19.4055L9.2711 18.6465L9.47511 16.843L6.7168 18.1895Z" fill="#D7C1B3" stroke="#D7C1B3" stroke-width="0.081607" stroke-linecap="round" stroke-linejoin="round"/>
	<path d="M9.32671 13.7911L7.02539 13.1137L8.64937 12.3711L9.32671 13.7911Z" fill="#233447" stroke="#233447" stroke-width="0.081607" stroke-linecap="round" stroke-linejoin="round"/>
	<path d="M12.6641 13.7911L13.3414 12.3711L14.9735 13.1137L12.6641 13.7911Z" fill="#233447" stroke="#233447" stroke-width="0.081607" stroke-linecap="round" stroke-linejoin="round"/>
	<path d="M6.71532 18.1899L7.10703 14.8766L4.55273 14.9501L6.71532 18.1899Z" fill="#CD6116" stroke="#CD6116" stroke-width="0.081607" stroke-linecap="round" stroke-linejoin="round"/>
	<path d="M14.8926 14.8766L15.2843 18.1899L17.4469 14.9501L14.8926 14.8766Z" fill="#CD6116" stroke="#CD6116" stroke-width="0.081607" stroke-linecap="round" stroke-linejoin="round"/>
	<path d="M16.8363 11.2285L12.25 11.4325L12.6744 13.791L13.3517 12.371L14.9838 13.1136L16.8363 11.2285Z" fill="#CD6116" stroke="#CD6116" stroke-width="0.081607" stroke-linecap="round" stroke-linejoin="round"/>
	<path d="M7.0247 13.1136L8.65684 12.371L9.32602 13.791L9.75854 11.4325L5.16406 11.2285L7.0247 13.1136Z" fill="#CD6116" stroke="#CD6116" stroke-width="0.081607" stroke-linecap="round" stroke-linejoin="round"/>
	<path d="M5.16797 11.2285L7.09389 14.9824L7.02861 13.1136L5.16797 11.2285Z" fill="#E4751F" stroke="#E4751F" stroke-width="0.081607" stroke-linecap="round" stroke-linejoin="round"/>
	<path d="M14.9859 13.1136L14.9043 14.9824L16.8384 11.2285L14.9859 13.1136Z" fill="#E4751F" stroke="#E4751F" stroke-width="0.081607" stroke-linecap="round" stroke-linejoin="round"/>
	<path d="M9.7626 11.4332L9.33008 13.7916L9.86868 16.5744L9.99109 12.9103L9.7626 11.4332Z" fill="#E4751F" stroke="#E4751F" stroke-width="0.081607" stroke-linecap="round" stroke-linejoin="round"/>
	<path d="M12.2496 11.4332L12.0293 12.9021L12.1272 16.5744L12.674 13.7916L12.2496 11.4332Z" fill="#E4751F" stroke="#E4751F" stroke-width="0.081607" stroke-linecap="round" stroke-linejoin="round"/>
	<path d="M12.6718 13.7909L12.125 16.5737L12.5167 16.843L14.8996 14.9823L14.9812 13.1135L12.6718 13.7909Z" fill="#F6851B" stroke="#F6851B" stroke-width="0.081607" stroke-linecap="round" stroke-linejoin="round"/>
	<path d="M7.02539 13.1135L7.09068 14.9823L9.4736 16.843L9.86531 16.5737L9.32671 13.7909L7.02539 13.1135Z" fill="#F6851B" stroke="#F6851B" stroke-width="0.081607" stroke-linecap="round" stroke-linejoin="round"/>
	<path d="M12.7149 19.4056L12.7394 18.6466L12.5354 18.4671H9.45879L9.2711 18.6466L9.28742 19.4056L6.7168 18.1896L7.61447 18.9241L9.43431 20.189H12.5599L14.3879 18.9241L15.2855 18.1896L12.7149 19.4056Z" fill="#C0AD9E" stroke="#C0AD9E" stroke-width="0.081607" stroke-linecap="round" stroke-linejoin="round"/>
	<path d="M12.5155 16.843L12.1238 16.5737H9.86331L9.4716 16.843L9.26758 18.6465L9.45527 18.467H12.5319L12.7359 18.6465L12.5155 16.843Z" fill="#161616" stroke="#161616" stroke-width="0.081607" stroke-linecap="round" stroke-linejoin="round"/>
	<path d="M20.7129 7.31963L21.4065 3.99006L20.3701 0.897156L12.5195 6.7239L15.539 9.2782L19.807 10.5268L20.7537 9.42509L20.3456 9.1313L20.9985 8.53557L20.4925 8.14386L21.1454 7.64606L20.7129 7.31963Z" fill="#763D16" stroke="#763D16" stroke-width="0.081607" stroke-linecap="round" stroke-linejoin="round"/>
	<path d="M0.597656 3.99006L1.29132 7.31963L0.850638 7.64606L1.50349 8.14386L1.00569 8.53557L1.65855 9.1313L1.25051 9.42509L2.18899 10.5268L6.45704 9.2782L9.4765 6.7239L1.62591 0.897156L0.597656 3.99006Z" fill="#763D16" stroke="#763D16" stroke-width="0.081607" stroke-linecap="round" stroke-linejoin="round"/>
	<path d="M19.8069 10.5266L15.5389 9.27802L16.8364 11.2284L14.9023 14.9823L17.4485 14.9497H21.2432L19.8069 10.5266Z" fill="#F6851B" stroke="#F6851B" stroke-width="0.081607" stroke-linecap="round" stroke-linejoin="round"/>
	<path d="M6.45363 9.27802L2.18559 10.5266L0.765625 14.9497H4.55219L7.09017 14.9823L5.16424 11.2284L6.45363 9.27802Z" fill="#F6851B" stroke="#F6851B" stroke-width="0.081607" stroke-linecap="round" stroke-linejoin="round"/>
	<path d="M12.2487 11.4324L12.518 6.72368L13.7585 3.36963H8.25L9.47411 6.72368L9.75973 11.4324L9.85766 12.9177L9.86582 16.5736H12.1263L12.1427 12.9177L12.2487 11.4324Z" fill="#F6851B" stroke="#F6851B" stroke-width="0.081607" stroke-linecap="round" stroke-linejoin="round"/>
</svg>
