<svg width="22" height="16" viewBox="0 0 22 16" fill="none" xmlns="http://www.w3.org/2000/svg">
	<path d="M4.71086 3.04471C8.10883 -1.0149 13.6168 -1.0149 17.0192 3.04471L17.428 3.53272C17.5994 3.73651 17.5994 4.06364 17.428 4.26742L16.0301 5.94061C15.9466 6.0425 15.8059 6.0425 15.7224 5.94061L15.1597 5.27026C12.7904 2.43872 8.94404 2.43872 6.57469 5.27026L5.97246 5.98887C5.88894 6.09077 5.74827 6.09077 5.66475 5.98887L4.26248 4.31569C4.09104 4.1119 4.09104 3.78477 4.26248 3.58099L4.71086 3.04471Z" fill="#449DFC"/>
	<path d="M19.9116 6.49834L21.1557 7.98382C21.3271 8.18761 21.3271 8.51474 21.1557 8.71852L15.5422 15.4273C15.3707 15.6311 15.0982 15.6311 14.9268 15.4273L10.9397 10.6652C10.8958 10.6169 10.8299 10.6169 10.7859 10.6652L6.80327 15.4273C6.63183 15.6311 6.35929 15.6311 6.18785 15.4273L0.569984 8.72389C0.398547 8.5201 0.398547 8.19297 0.569984 7.98919L1.814 6.5037C1.98544 6.29991 2.25798 6.29991 2.42942 6.5037L6.41644 11.2658C6.4604 11.3141 6.52633 11.3141 6.57029 11.2658L10.5529 6.5037C10.7244 6.29991 10.9969 6.29991 11.1683 6.5037L15.1553 11.2658C15.1993 11.3141 15.2652 11.3141 15.3092 11.2658L19.2962 6.5037C19.4633 6.29455 19.7402 6.29455 19.9116 6.49834Z" fill="#449DFC"/>
</svg>
