<svg width="725" height="94" viewBox="0 0 725 94" fill="none" xmlns="http://www.w3.org/2000/svg">
	<rect width="612" height="94" rx="47" fill="#0285FD"/>
	<path d="M135.752 67H143.424V27.296H136.704C136.536 28.36 136.144 29.312 135.584 30.208C134.968 31.048 134.24 31.832 133.344 32.504C132.392 33.176 131.328 33.736 130.152 34.128C128.976 34.52 127.632 34.688 126.232 34.744V40.008H135.752V67ZM154.593 54.12L147.312 55.856C147.48 57.424 147.928 58.936 148.712 60.336C149.44 61.792 150.504 63.08 151.793 64.2C153.08 65.32 154.649 66.216 156.44 66.832C158.177 67.504 160.136 67.84 162.321 67.84C164.672 67.84 166.801 67.504 168.649 66.72C170.497 65.992 172.065 65.04 173.353 63.752C174.641 62.52 175.593 61.064 176.321 59.44C176.992 57.816 177.329 56.024 177.329 54.176C177.329 52.104 176.992 50.2 176.321 48.576C175.649 46.952 174.697 45.552 173.521 44.432C172.345 43.312 170.889 42.472 169.265 41.856C167.585 41.24 165.737 40.96 163.776 40.96C162.433 40.96 161.089 41.184 159.689 41.632C158.289 42.024 157.169 42.64 156.329 43.48L158.625 34.016H175.257V27.296H153.361L148.544 47.4C148.824 47.512 149.272 47.68 150 47.96C150.672 48.184 151.401 48.408 152.128 48.688C152.857 48.968 153.584 49.192 154.312 49.472C154.985 49.696 155.489 49.864 155.769 49.976C156.44 49.192 157.337 48.52 158.401 48.016C159.521 47.512 160.809 47.232 162.208 47.232C163.161 47.232 164.057 47.4 164.953 47.68C165.849 47.96 166.633 48.408 167.305 49.024C167.977 49.584 168.537 50.312 168.929 51.208C169.321 52.104 169.545 53.112 169.545 54.288C169.545 55.352 169.377 56.36 168.985 57.2C168.593 58.04 168.089 58.712 167.417 59.328C166.801 59.944 166.017 60.392 165.121 60.728C164.28 61.008 163.329 61.176 162.321 61.176C161.201 61.176 160.193 61.008 159.241 60.672C158.345 60.28 157.561 59.776 156.888 59.16C156.217 58.544 155.656 57.76 155.265 56.92C154.873 56.08 154.649 55.128 154.593 54.12ZM185.309 67H191.917L217.453 27.296H210.845L185.309 67ZM198.077 35.808C198.077 34.52 197.853 33.344 197.349 32.224C196.845 31.104 196.173 30.152 195.333 29.312C194.493 28.472 193.485 27.856 192.365 27.352C191.245 26.904 190.069 26.68 188.781 26.68C187.493 26.68 186.317 26.904 185.197 27.352C184.077 27.856 183.125 28.472 182.285 29.312C181.445 30.152 180.773 31.104 180.269 32.224C179.765 33.344 179.485 34.52 179.485 35.808C179.485 37.096 179.709 38.328 180.213 39.392C180.717 40.512 181.389 41.464 182.229 42.304C183.069 43.144 184.021 43.76 185.141 44.264C186.261 44.712 187.437 44.936 188.725 44.936C190.013 44.936 191.189 44.712 192.365 44.264C193.485 43.816 194.493 43.2 195.333 42.36C196.173 41.52 196.845 40.568 197.349 39.448C197.853 38.328 198.077 37.096 198.077 35.808ZM185.029 35.808C185.029 34.688 185.365 33.792 186.093 33.064C186.821 32.336 187.717 31.944 188.781 31.944C189.845 31.944 190.741 32.336 191.413 33.064C192.085 33.792 192.421 34.688 192.421 35.808C192.421 36.984 192.085 37.936 191.413 38.664C190.741 39.392 189.845 39.728 188.781 39.728C187.717 39.728 186.821 39.392 186.093 38.664C185.365 37.936 185.029 36.984 185.029 35.808ZM204.685 58.488C204.685 59.776 204.909 60.952 205.413 62.072C205.917 63.192 206.589 64.144 207.429 64.984C208.269 65.824 209.221 66.44 210.397 66.944C211.517 67.392 212.693 67.616 213.981 67.616C215.269 67.616 216.445 67.392 217.621 66.944C218.741 66.44 219.749 65.824 220.589 65.04C221.429 64.2 222.101 63.248 222.605 62.128C223.109 61.008 223.333 59.776 223.333 58.488C223.333 57.2 223.109 56.024 222.605 54.904C222.101 53.784 221.429 52.832 220.589 51.992C219.749 51.152 218.741 50.536 217.621 50.088C216.445 49.584 215.269 49.36 213.981 49.36C212.693 49.36 211.517 49.584 210.397 50.088C209.277 50.536 208.325 51.152 207.485 51.992C206.645 52.832 205.973 53.784 205.469 54.904C204.965 56.024 204.685 57.2 204.685 58.488ZM217.677 58.488C217.677 59.664 217.341 60.616 216.669 61.344C215.941 62.072 215.045 62.408 213.981 62.408C212.917 62.408 212.077 62.072 211.349 61.344C210.621 60.616 210.285 59.664 210.285 58.488C210.285 57.312 210.621 56.416 211.349 55.688C212.077 54.96 212.917 54.624 213.981 54.624C215.045 54.624 215.941 54.96 216.669 55.688C217.341 56.416 217.677 57.312 217.677 58.488ZM261.455 57.928L264.759 67H273.159L258.038 27.296H249.078L233.846 67H242.022L245.326 57.928H261.455ZM247.902 50.872L253.39 35.864L258.879 50.872H247.902ZM290.558 45.384H284.454V34.016H290.558C292.518 34.016 294.03 34.52 295.15 35.528C296.214 36.536 296.774 37.936 296.774 39.728C296.774 41.464 296.214 42.808 295.15 43.816C294.03 44.88 292.518 45.384 290.558 45.384ZM284.398 52.048H291.51C293.47 52.048 295.206 51.712 296.83 51.096C298.454 50.48 299.798 49.64 300.974 48.576C302.15 47.512 303.046 46.168 303.662 44.656C304.278 43.144 304.558 41.464 304.558 39.672C304.558 37.88 304.278 36.256 303.662 34.744C303.046 33.232 302.15 31.888 300.974 30.824C299.798 29.704 298.454 28.864 296.83 28.248C295.206 27.632 293.47 27.296 291.51 27.296H276.67V67H284.398V52.048ZM303.718 27.296L317.55 50.312V67H325.278V50.312L339.278 27.296H330.598L321.694 43.032L312.79 27.296H303.718Z" fill="white"/>
	<path d="M369.66 30.4C370.033 30.5467 370.413 30.62 370.8 30.62C371.187 30.62 371.567 30.5467 371.94 30.4C372.3 30.2667 372.62 30.0467 372.9 29.74C373.18 29.4333 373.4 29.0733 373.56 28.66C373.72 28.2467 373.8 27.7533 373.8 27.18C373.8 26.6067 373.72 26.1133 373.56 25.7C373.413 25.3 373.193 24.9467 372.9 24.64C372.62 24.3467 372.3 24.1267 371.94 23.98C371.567 23.8333 371.187 23.76 370.8 23.76C370.413 23.76 370.033 23.8333 369.66 23.98C369.3 24.1267 368.98 24.3467 368.7 24.64C368.407 24.9467 368.187 25.3 368.04 25.7C367.88 26.1133 367.8 26.6067 367.8 27.18C367.8 27.74 367.88 28.2333 368.04 28.66C368.2 29.0733 368.42 29.4333 368.7 29.74C368.98 30.0467 369.3 30.2667 369.66 30.4ZM368.82 22.46C369.407 22.2067 370.067 22.08 370.8 22.08C371.533 22.08 372.193 22.2067 372.78 22.46C373.38 22.7133 373.9 23.0733 374.34 23.54C374.793 24.0067 375.133 24.54 375.36 25.14C375.6 25.7667 375.72 26.4467 375.72 27.18C375.72 27.9133 375.6 28.5933 375.36 29.22C375.12 29.8467 374.78 30.3867 374.34 30.84C373.927 31.28 373.407 31.6333 372.78 31.9C372.207 32.1667 371.547 32.3 370.8 32.3C370.053 32.3 369.393 32.1667 368.82 31.9C368.193 31.6333 367.673 31.28 367.26 30.84C366.82 30.3867 366.48 29.8467 366.24 29.22C366 28.5933 365.88 27.9133 365.88 27.18C365.88 26.4467 366 25.7667 366.24 25.14C366.467 24.54 366.807 24.0067 367.26 23.54C367.7 23.0733 368.22 22.7133 368.82 22.46ZM378.122 35.8V22.38H379.942V23.88C380.195 23.4267 380.602 23.02 381.162 22.66C381.695 22.3267 382.362 22.16 383.162 22.16C383.895 22.16 384.535 22.2867 385.082 22.54C385.615 22.7933 386.075 23.1533 386.462 23.62C386.835 24.0867 387.115 24.62 387.302 25.22C387.488 25.86 387.582 26.5133 387.582 27.18C387.582 27.8867 387.482 28.5533 387.282 29.18C387.095 29.7667 386.802 30.3 386.402 30.78C386.028 31.2333 385.562 31.5933 385.002 31.86C384.428 32.1267 383.795 32.26 383.102 32.26C382.368 32.26 381.728 32.1067 381.182 31.8C380.648 31.5067 380.248 31.14 379.982 30.7V35.8H378.122ZM385.662 27.18C385.662 26.6867 385.595 26.24 385.462 25.84C385.315 25.4133 385.128 25.06 384.902 24.78C384.688 24.5133 384.395 24.28 384.022 24.08C383.675 23.9067 383.275 23.82 382.822 23.82C382.382 23.82 381.995 23.9067 381.662 24.08C381.288 24.2667 380.982 24.5 380.742 24.78C380.502 25.0467 380.308 25.4 380.162 25.84C380.028 26.24 379.962 26.6867 379.962 27.18C379.962 27.6867 380.028 28.14 380.162 28.54C380.308 28.98 380.502 29.34 380.742 29.62C381.022 29.94 381.328 30.1733 381.662 30.32C381.995 30.4933 382.382 30.58 382.822 30.58C383.275 30.58 383.668 30.4933 384.002 30.32C384.335 30.16 384.635 29.9267 384.902 29.62C385.128 29.34 385.315 28.98 385.462 28.54C385.595 28.14 385.662 27.6867 385.662 27.18ZM396.617 26.2C396.603 25.52 396.37 24.9333 395.917 24.44C395.477 23.9733 394.83 23.74 393.977 23.74C393.55 23.74 393.197 23.8067 392.917 23.94C392.637 24.06 392.37 24.2467 392.117 24.5C391.89 24.7533 391.71 25.02 391.577 25.3C391.457 25.5667 391.383 25.8667 391.357 26.2H396.617ZM398.517 29.26C398.357 29.7267 398.163 30.12 397.937 30.44C397.683 30.8133 397.37 31.1333 396.997 31.4C396.623 31.68 396.203 31.9 395.737 32.06C395.27 32.22 394.757 32.3 394.197 32.3C393.57 32.3 392.957 32.1867 392.357 31.96C391.77 31.7333 391.257 31.4 390.817 30.96C390.377 30.5467 390.023 30.0067 389.757 29.34C389.49 28.6867 389.357 27.96 389.357 27.16C389.357 26.3733 389.483 25.68 389.737 25.08C389.99 24.48 390.33 23.9467 390.757 23.48C391.183 23.04 391.67 22.7 392.217 22.46C392.763 22.2067 393.343 22.08 393.957 22.08C394.717 22.08 395.377 22.2067 395.937 22.46C396.51 22.7 396.99 23.04 397.377 23.48C397.75 23.92 398.05 24.4533 398.277 25.08C398.477 25.6933 398.577 26.3733 398.577 27.12V27.46C398.577 27.4867 398.57 27.5333 398.557 27.6C398.557 27.6533 398.55 27.6933 398.537 27.72H391.297C391.323 28.1467 391.403 28.54 391.537 28.9C391.67 29.2333 391.877 29.54 392.157 29.82C392.423 30.0867 392.73 30.2867 393.077 30.42C393.437 30.5667 393.81 30.64 394.197 30.64C394.983 30.64 395.583 30.4533 395.997 30.08C396.423 29.7067 396.723 29.2467 396.897 28.7L398.517 29.26ZM402.814 32H400.934V22.38H402.774V23.76C403.107 23.1733 403.547 22.7467 404.094 22.48C404.614 22.2267 405.161 22.1 405.734 22.1C406.307 22.1 406.814 22.2 407.254 22.4C407.654 22.5733 408.014 22.84 408.334 23.2C408.627 23.5467 408.841 23.9467 408.974 24.4C409.107 24.84 409.174 25.34 409.174 25.9V32H407.294V26.22C407.294 25.9267 407.261 25.6133 407.194 25.28C407.114 24.9733 406.987 24.7133 406.814 24.5C406.654 24.3133 406.421 24.14 406.114 23.98C405.807 23.86 405.454 23.8 405.054 23.8C404.667 23.8 404.341 23.8667 404.074 24C403.794 24.1467 403.561 24.34 403.374 24.58C403.187 24.82 403.047 25.1 402.954 25.42C402.861 25.7133 402.814 26.0533 402.814 26.44V32ZM422.485 32.3C421.738 32.3 421.072 32.1867 420.485 31.96C419.858 31.7333 419.318 31.4067 418.865 30.98C418.412 30.5667 418.052 30.0333 417.785 29.38C417.518 28.7267 417.385 27.9867 417.385 27.16V17.82H419.325V27.1C419.325 28.18 419.605 29.0133 420.165 29.6C420.712 30.1867 421.485 30.48 422.485 30.48C423.485 30.48 424.258 30.1867 424.805 29.6C425.352 29.0133 425.625 28.18 425.625 27.1V17.82H427.585V27.16C427.585 28.0133 427.458 28.7533 427.205 29.38C426.938 30.0333 426.578 30.5667 426.125 30.98C425.672 31.4067 425.132 31.7333 424.505 31.96C423.918 32.1867 423.245 32.3 422.485 32.3ZM438.376 21.66C438.336 21.3933 438.249 21.12 438.116 20.84C437.969 20.5467 437.783 20.2867 437.556 20.06C437.316 19.82 437.016 19.62 436.656 19.46C436.283 19.3133 435.856 19.24 435.376 19.24C434.976 19.24 434.609 19.3 434.276 19.42C433.929 19.54 433.643 19.7067 433.416 19.92C433.176 20.12 432.983 20.3667 432.836 20.66C432.703 20.94 432.636 21.2533 432.636 21.6C432.636 22.0933 432.789 22.5267 433.096 22.9C433.376 23.26 433.829 23.5133 434.456 23.66L436.576 24.12C437.763 24.3867 438.676 24.8667 439.316 25.56C439.943 26.2667 440.256 27.1133 440.256 28.1C440.256 28.6333 440.143 29.16 439.916 29.68C439.689 30.1867 439.363 30.6333 438.936 31.02C438.496 31.42 437.983 31.7267 437.396 31.94C436.796 32.18 436.116 32.3 435.356 32.3C434.476 32.3 433.736 32.1733 433.136 31.92C432.469 31.6533 431.936 31.3267 431.536 30.94C431.096 30.54 430.756 30.0867 430.516 29.58C430.263 29.06 430.109 28.56 430.056 28.08L431.936 27.48C431.976 27.88 432.076 28.26 432.236 28.62C432.369 28.9933 432.589 29.32 432.896 29.6C433.176 29.88 433.516 30.1 433.916 30.26C434.316 30.4333 434.789 30.52 435.336 30.52C436.309 30.52 437.036 30.3 437.516 29.86C438.009 29.42 438.256 28.8867 438.256 28.26C438.256 27.7667 438.083 27.3067 437.736 26.88C437.389 26.48 436.856 26.2067 436.136 26.06L434.116 25.62C433.116 25.4067 432.283 24.9667 431.616 24.3C430.976 23.66 430.656 22.8067 430.656 21.74C430.656 21.1667 430.776 20.6333 431.016 20.14C431.269 19.6067 431.596 19.16 431.996 18.8C432.436 18.4133 432.936 18.1 433.496 17.86C434.096 17.6333 434.709 17.52 435.336 17.52C436.149 17.52 436.836 17.6267 437.396 17.84C437.943 18.0533 438.416 18.34 438.816 18.7C439.176 19.02 439.469 19.4 439.696 19.84C439.909 20.24 440.056 20.64 440.136 21.04L438.376 21.66ZM447.971 30.26C448.611 30.26 449.231 30.1467 449.831 29.92C450.431 29.6933 450.944 29.3667 451.371 28.94C451.798 28.5133 452.144 27.96 452.411 27.28C452.664 26.64 452.791 25.86 452.791 24.94C452.791 24.0333 452.664 23.2467 452.411 22.58C452.144 21.9267 451.804 21.3667 451.391 20.9C450.938 20.4467 450.431 20.1133 449.871 19.9C449.271 19.6733 448.651 19.56 448.011 19.56H445.071V30.26H447.971ZM443.111 32V17.82H448.071C448.951 17.82 449.811 17.9733 450.651 18.28C451.438 18.5733 452.151 19.0267 452.791 19.64C453.391 20.2133 453.884 20.9533 454.271 21.86C454.631 22.7667 454.811 23.7933 454.811 24.94C454.811 26.1 454.631 27.12 454.271 28C453.884 28.8933 453.384 29.6267 452.771 30.2C452.158 30.7867 451.438 31.2333 450.611 31.54C449.771 31.8467 448.911 32 448.031 32H443.111ZM462.353 19.64V32H460.393V19.64H455.653V17.82H467.093V19.64H462.353ZM476.574 30.4C476.947 30.5467 477.327 30.62 477.714 30.62C478.101 30.62 478.481 30.5467 478.854 30.4C479.214 30.2667 479.534 30.0467 479.814 29.74C480.094 29.4333 480.314 29.0733 480.474 28.66C480.634 28.2467 480.714 27.7533 480.714 27.18C480.714 26.6067 480.634 26.1133 480.474 25.7C480.327 25.3 480.107 24.9467 479.814 24.64C479.534 24.3467 479.214 24.1267 478.854 23.98C478.481 23.8333 478.101 23.76 477.714 23.76C477.327 23.76 476.947 23.8333 476.574 23.98C476.214 24.1267 475.894 24.3467 475.614 24.64C475.321 24.9467 475.101 25.3 474.954 25.7C474.794 26.1133 474.714 26.6067 474.714 27.18C474.714 27.74 474.794 28.2333 474.954 28.66C475.114 29.0733 475.334 29.4333 475.614 29.74C475.894 30.0467 476.214 30.2667 476.574 30.4ZM475.734 22.46C476.321 22.2067 476.981 22.08 477.714 22.08C478.447 22.08 479.107 22.2067 479.694 22.46C480.294 22.7133 480.814 23.0733 481.254 23.54C481.707 24.0067 482.047 24.54 482.274 25.14C482.514 25.7667 482.634 26.4467 482.634 27.18C482.634 27.9133 482.514 28.5933 482.274 29.22C482.034 29.8467 481.694 30.3867 481.254 30.84C480.841 31.28 480.321 31.6333 479.694 31.9C479.121 32.1667 478.461 32.3 477.714 32.3C476.967 32.3 476.307 32.1667 475.734 31.9C475.107 31.6333 474.587 31.28 474.174 30.84C473.734 30.3867 473.394 29.8467 473.154 29.22C472.914 28.5933 472.794 27.9133 472.794 27.18C472.794 26.4467 472.914 25.7667 473.154 25.14C473.381 24.54 473.721 24.0067 474.174 23.54C474.614 23.0733 475.134 22.7133 475.734 22.46ZM490.376 24.28C490.096 24.24 489.822 24.22 489.556 24.22C488.769 24.22 488.129 24.4467 487.636 24.9C487.156 25.3667 486.916 26.1267 486.916 27.18V32H485.036V22.38H486.876V24.06C487.049 23.7 487.249 23.3933 487.476 23.14C487.756 22.8733 488.002 22.6867 488.216 22.58C488.429 22.46 488.689 22.3667 488.996 22.3C489.222 22.2467 489.476 22.22 489.756 22.22C489.929 22.22 490.049 22.2267 490.116 22.24C490.142 22.24 490.176 22.2467 490.216 22.26C490.256 22.26 490.289 22.2667 490.316 22.28C490.342 22.28 490.362 22.28 490.376 22.28V24.28ZM502.251 32.3C501.504 32.3 500.837 32.1867 500.251 31.96C499.624 31.7333 499.084 31.4067 498.631 30.98C498.177 30.5667 497.817 30.0333 497.551 29.38C497.284 28.7267 497.151 27.9867 497.151 27.16V17.82H499.091V27.1C499.091 28.18 499.371 29.0133 499.931 29.6C500.477 30.1867 501.251 30.48 502.251 30.48C503.251 30.48 504.024 30.1867 504.571 29.6C505.117 29.0133 505.391 28.18 505.391 27.1V17.82H507.351V27.16C507.351 28.0133 507.224 28.7533 506.971 29.38C506.704 30.0333 506.344 30.5667 505.891 30.98C505.437 31.4067 504.897 31.7333 504.271 31.96C503.684 32.1867 503.011 32.3 502.251 32.3ZM518.142 21.66C518.102 21.3933 518.015 21.12 517.882 20.84C517.735 20.5467 517.548 20.2867 517.322 20.06C517.082 19.82 516.782 19.62 516.422 19.46C516.048 19.3133 515.622 19.24 515.142 19.24C514.742 19.24 514.375 19.3 514.042 19.42C513.695 19.54 513.408 19.7067 513.182 19.92C512.942 20.12 512.748 20.3667 512.602 20.66C512.468 20.94 512.402 21.2533 512.402 21.6C512.402 22.0933 512.555 22.5267 512.862 22.9C513.142 23.26 513.595 23.5133 514.222 23.66L516.342 24.12C517.528 24.3867 518.442 24.8667 519.082 25.56C519.708 26.2667 520.022 27.1133 520.022 28.1C520.022 28.6333 519.908 29.16 519.682 29.68C519.455 30.1867 519.128 30.6333 518.702 31.02C518.262 31.42 517.748 31.7267 517.162 31.94C516.562 32.18 515.882 32.3 515.122 32.3C514.242 32.3 513.502 32.1733 512.902 31.92C512.235 31.6533 511.702 31.3267 511.302 30.94C510.862 30.54 510.522 30.0867 510.282 29.58C510.028 29.06 509.875 28.56 509.822 28.08L511.702 27.48C511.742 27.88 511.842 28.26 512.002 28.62C512.135 28.9933 512.355 29.32 512.662 29.6C512.942 29.88 513.282 30.1 513.682 30.26C514.082 30.4333 514.555 30.52 515.102 30.52C516.075 30.52 516.802 30.3 517.282 29.86C517.775 29.42 518.022 28.8867 518.022 28.26C518.022 27.7667 517.848 27.3067 517.502 26.88C517.155 26.48 516.622 26.2067 515.902 26.06L513.882 25.62C512.882 25.4067 512.048 24.9667 511.382 24.3C510.742 23.66 510.422 22.8067 510.422 21.74C510.422 21.1667 510.542 20.6333 510.782 20.14C511.035 19.6067 511.362 19.16 511.762 18.8C512.202 18.4133 512.702 18.1 513.262 17.86C513.862 17.6333 514.475 17.52 515.102 17.52C515.915 17.52 516.602 17.6267 517.162 17.84C517.708 18.0533 518.182 18.34 518.582 18.7C518.942 19.02 519.235 19.4 519.462 19.84C519.675 20.24 519.822 20.64 519.902 21.04L518.142 21.66ZM527.737 30.26C528.377 30.26 528.997 30.1467 529.597 29.92C530.197 29.6933 530.71 29.3667 531.137 28.94C531.563 28.5133 531.91 27.96 532.177 27.28C532.43 26.64 532.557 25.86 532.557 24.94C532.557 24.0333 532.43 23.2467 532.177 22.58C531.91 21.9267 531.57 21.3667 531.157 20.9C530.703 20.4467 530.197 20.1133 529.637 19.9C529.037 19.6733 528.417 19.56 527.777 19.56H524.837V30.26H527.737ZM522.877 32V17.82H527.837C528.717 17.82 529.577 17.9733 530.417 18.28C531.203 18.5733 531.917 19.0267 532.557 19.64C533.157 20.2133 533.65 20.9533 534.037 21.86C534.397 22.7667 534.577 23.7933 534.577 24.94C534.577 26.1 534.397 27.12 534.037 28C533.65 28.8933 533.15 29.6267 532.537 30.2C531.923 30.7867 531.203 31.2333 530.377 31.54C529.537 31.8467 528.677 32 527.797 32H522.877ZM543.606 32.3C542.673 32.3 541.793 32.1333 540.966 31.8C540.126 31.4933 539.379 31.02 538.726 30.38C538.073 29.7667 537.553 28.9933 537.166 28.06C536.766 27.14 536.566 26.0867 536.566 24.9C536.566 23.7133 536.766 22.66 537.166 21.74C537.566 20.8333 538.099 20.0667 538.766 19.44C539.433 18.8133 540.186 18.3333 541.026 18C541.866 17.68 542.726 17.52 543.606 17.52C544.446 17.52 545.193 17.6267 545.846 17.84C546.513 18.0533 547.119 18.3533 547.666 18.74C548.173 19.1 548.626 19.5733 549.026 20.16C549.399 20.7333 549.673 21.3533 549.846 22.02L548.026 22.66C547.773 21.6067 547.266 20.78 546.506 20.18C545.759 19.6067 544.793 19.32 543.606 19.32C542.993 19.32 542.366 19.4333 541.726 19.66C541.139 19.9 540.599 20.2533 540.106 20.72C539.639 21.1867 539.266 21.7667 538.986 22.46C538.706 23.1667 538.566 23.98 538.566 24.9C538.566 25.82 538.706 26.6267 538.986 27.32C539.266 28.0267 539.639 28.6133 540.106 29.08C540.599 29.5733 541.139 29.9267 541.726 30.14C542.339 30.38 542.966 30.5 543.606 30.5C544.219 30.5 544.766 30.4133 545.246 30.24C545.726 30.0667 546.159 29.8267 546.546 29.52C546.919 29.2267 547.239 28.8667 547.506 28.44C547.799 27.9733 548.006 27.5267 548.126 27.1L549.866 27.74C549.679 28.4067 549.399 29.02 549.026 29.58C548.626 30.1533 548.173 30.6333 547.666 31.02C547.133 31.4333 546.533 31.7467 545.866 31.96C545.146 32.1867 544.393 32.3 543.606 32.3ZM366.52 52V42.38H368.38V52H366.52ZM366.1 38.74C366.1 38.3533 366.233 38.0267 366.5 37.76C366.753 37.5067 367.067 37.38 367.44 37.38C367.84 37.38 368.167 37.5067 368.42 37.76C368.673 38.0133 368.8 38.34 368.8 38.74C368.8 39.1133 368.673 39.4267 368.42 39.68C368.153 39.9467 367.827 40.08 367.44 40.08C367.08 40.08 366.767 39.9467 366.5 39.68C366.233 39.4133 366.1 39.1 366.1 38.74ZM373.302 52H371.422V42.38H373.262V43.76C373.596 43.1733 374.036 42.7467 374.582 42.48C375.102 42.2267 375.649 42.1 376.222 42.1C376.796 42.1 377.302 42.2 377.742 42.4C378.142 42.5733 378.502 42.84 378.822 43.2C379.116 43.5467 379.329 43.9467 379.462 44.4C379.596 44.84 379.662 45.34 379.662 45.9V52H377.782V46.22C377.782 45.9267 377.749 45.6133 377.682 45.28C377.602 44.9733 377.476 44.7133 377.302 44.5C377.142 44.3133 376.909 44.14 376.602 43.98C376.296 43.86 375.942 43.8 375.542 43.8C375.156 43.8 374.829 43.8667 374.562 44C374.282 44.1467 374.049 44.34 373.862 44.58C373.676 44.82 373.536 45.1 373.442 45.42C373.349 45.7133 373.302 46.0533 373.302 46.44V52ZM385.136 42.38H387.216V44.08H385.136V49.08C385.136 49.5333 385.236 49.8667 385.436 50.08C385.636 50.2933 385.983 50.4 386.476 50.4C386.649 50.4 386.783 50.3933 386.876 50.38C387.036 50.3533 387.149 50.3333 387.216 50.32V51.92C387.056 51.96 386.903 52 386.756 52.04C386.543 52.08 386.269 52.1 385.936 52.1C385.109 52.1 384.456 51.86 383.976 51.38C383.496 50.9133 383.256 50.24 383.256 49.36V44.08H381.416V42.38H381.936C382.456 42.38 382.836 42.24 383.076 41.96C383.303 41.6667 383.416 41.3133 383.416 40.9V39.34H385.136V42.38ZM395.992 46.2C395.978 45.52 395.745 44.9333 395.292 44.44C394.852 43.9733 394.205 43.74 393.352 43.74C392.925 43.74 392.572 43.8067 392.292 43.94C392.012 44.06 391.745 44.2467 391.492 44.5C391.265 44.7533 391.085 45.02 390.952 45.3C390.832 45.5667 390.758 45.8667 390.732 46.2H395.992ZM397.892 49.26C397.732 49.7267 397.538 50.12 397.312 50.44C397.058 50.8133 396.745 51.1333 396.372 51.4C395.998 51.68 395.578 51.9 395.112 52.06C394.645 52.22 394.132 52.3 393.572 52.3C392.945 52.3 392.332 52.1867 391.732 51.96C391.145 51.7333 390.632 51.4 390.192 50.96C389.752 50.5467 389.398 50.0067 389.132 49.34C388.865 48.6867 388.732 47.96 388.732 47.16C388.732 46.3733 388.858 45.68 389.112 45.08C389.365 44.48 389.705 43.9467 390.132 43.48C390.558 43.04 391.045 42.7 391.592 42.46C392.138 42.2067 392.718 42.08 393.332 42.08C394.092 42.08 394.752 42.2067 395.312 42.46C395.885 42.7 396.365 43.04 396.752 43.48C397.125 43.92 397.425 44.4533 397.652 45.08C397.852 45.6933 397.952 46.3733 397.952 47.12V47.46C397.952 47.4867 397.945 47.5333 397.932 47.6C397.932 47.6533 397.925 47.6933 397.912 47.72H390.672C390.698 48.1467 390.778 48.54 390.912 48.9C391.045 49.2333 391.252 49.54 391.532 49.82C391.798 50.0867 392.105 50.2867 392.452 50.42C392.812 50.5667 393.185 50.64 393.572 50.64C394.358 50.64 394.958 50.4533 395.372 50.08C395.798 49.7067 396.098 49.2467 396.272 48.7L397.892 49.26ZM405.649 44.28C405.369 44.24 405.096 44.22 404.829 44.22C404.042 44.22 403.402 44.4467 402.909 44.9C402.429 45.3667 402.189 46.1267 402.189 47.18V52H400.309V42.38H402.149V44.06C402.322 43.7 402.522 43.3933 402.749 43.14C403.029 42.8733 403.276 42.6867 403.489 42.58C403.702 42.46 403.962 42.3667 404.269 42.3C404.496 42.2467 404.749 42.22 405.029 42.22C405.202 42.22 405.322 42.2267 405.389 42.24C405.416 42.24 405.449 42.2467 405.489 42.26C405.529 42.26 405.562 42.2667 405.589 42.28C405.616 42.28 405.636 42.28 405.649 42.28V44.28ZM414.019 46.2C414.006 45.52 413.772 44.9333 413.319 44.44C412.879 43.9733 412.232 43.74 411.379 43.74C410.952 43.74 410.599 43.8067 410.319 43.94C410.039 44.06 409.772 44.2467 409.519 44.5C409.292 44.7533 409.112 45.02 408.979 45.3C408.859 45.5667 408.786 45.8667 408.759 46.2H414.019ZM415.919 49.26C415.759 49.7267 415.566 50.12 415.339 50.44C415.086 50.8133 414.772 51.1333 414.399 51.4C414.026 51.68 413.606 51.9 413.139 52.06C412.672 52.22 412.159 52.3 411.599 52.3C410.972 52.3 410.359 52.1867 409.759 51.96C409.172 51.7333 408.659 51.4 408.219 50.96C407.779 50.5467 407.426 50.0067 407.159 49.34C406.892 48.6867 406.759 47.96 406.759 47.16C406.759 46.3733 406.886 45.68 407.139 45.08C407.392 44.48 407.732 43.9467 408.159 43.48C408.586 43.04 409.072 42.7 409.619 42.46C410.166 42.2067 410.746 42.08 411.359 42.08C412.119 42.08 412.779 42.2067 413.339 42.46C413.912 42.7 414.392 43.04 414.779 43.48C415.152 43.92 415.452 44.4533 415.679 45.08C415.879 45.6933 415.979 46.3733 415.979 47.12V47.46C415.979 47.4867 415.972 47.5333 415.959 47.6C415.959 47.6533 415.952 47.6933 415.939 47.72H408.699C408.726 48.1467 408.806 48.54 408.939 48.9C409.072 49.2333 409.279 49.54 409.559 49.82C409.826 50.0867 410.132 50.2867 410.479 50.42C410.839 50.5667 411.212 50.64 411.599 50.64C412.386 50.64 412.986 50.4533 413.399 50.08C413.826 49.7067 414.126 49.2467 414.299 48.7L415.919 49.26ZM419.276 48.9C419.343 49.42 419.563 49.8467 419.936 50.18C420.323 50.5267 420.85 50.7 421.516 50.7C422.063 50.7 422.47 50.5733 422.736 50.32C423.016 50.0533 423.156 49.7533 423.156 49.42C423.156 49.1133 423.05 48.8533 422.836 48.64C422.636 48.44 422.33 48.2867 421.916 48.18L420.276 47.82C419.503 47.66 418.91 47.34 418.496 46.86C418.083 46.3933 417.876 45.8133 417.876 45.12C417.876 44.6933 417.963 44.3 418.136 43.94C418.31 43.6067 418.556 43.2867 418.876 42.98C419.183 42.7 419.543 42.48 419.956 42.32C420.37 42.16 420.816 42.08 421.296 42.08C421.936 42.08 422.483 42.1733 422.936 42.36C423.363 42.52 423.73 42.7467 424.036 43.04C424.316 43.3067 424.523 43.5933 424.656 43.9C424.803 44.22 424.903 44.4733 424.956 44.66L423.296 45.28C423.283 45.2267 423.236 45.0733 423.156 44.82C423.103 44.66 422.996 44.4867 422.836 44.3C422.703 44.1267 422.503 43.98 422.236 43.86C421.983 43.74 421.67 43.68 421.296 43.68C420.83 43.68 420.443 43.8133 420.136 44.08C419.843 44.3333 419.696 44.6267 419.696 44.96C419.696 45.5733 420.063 45.96 420.796 46.12L422.356 46.46C423.21 46.6333 423.876 46.98 424.356 47.5C424.796 47.9933 425.016 48.6 425.016 49.32C425.016 49.6533 424.943 50 424.796 50.36C424.663 50.6933 424.45 51.0133 424.156 51.32C423.89 51.5867 423.523 51.8267 423.056 52.04C422.63 52.2133 422.11 52.3 421.496 52.3C420.843 52.3 420.276 52.2067 419.796 52.02C419.316 51.8467 418.923 51.6133 418.616 51.32C418.296 51.04 418.056 50.7333 417.896 50.4C417.723 50.0933 417.616 49.7933 417.576 49.5L419.276 48.9ZM430.058 42.38H432.138V44.08H430.058V49.08C430.058 49.5333 430.158 49.8667 430.358 50.08C430.558 50.2933 430.905 50.4 431.398 50.4C431.571 50.4 431.705 50.3933 431.798 50.38C431.958 50.3533 432.071 50.3333 432.138 50.32V51.92C431.978 51.96 431.825 52 431.678 52.04C431.465 52.08 431.191 52.1 430.858 52.1C430.031 52.1 429.378 51.86 428.898 51.38C428.418 50.9133 428.178 50.24 428.178 49.36V44.08H426.338V42.38H426.858C427.378 42.38 427.758 42.24 427.998 41.96C428.225 41.6667 428.338 41.3133 428.338 40.9V39.34H430.058V42.38ZM439.011 50.52C438.851 50.1867 438.771 49.82 438.771 49.42C438.771 49.02 438.844 48.64 438.991 48.28C439.124 47.9467 439.331 47.6533 439.611 47.4C439.891 47.1467 440.197 46.9533 440.531 46.82C440.944 46.66 441.331 46.5533 441.691 46.5L444.291 46.12C444.597 46.08 444.797 45.9933 444.891 45.86C444.984 45.7267 445.031 45.5733 445.031 45.4C445.031 44.9467 444.871 44.5467 444.551 44.2C444.204 43.8533 443.671 43.68 442.951 43.68C442.284 43.68 441.771 43.8667 441.411 44.24C441.037 44.6133 440.824 45.0733 440.771 45.62L438.971 45.2C439.024 44.7467 439.164 44.3267 439.391 43.94C439.631 43.54 439.911 43.2133 440.231 42.96C440.564 42.6933 440.971 42.4733 441.451 42.3C441.931 42.1533 442.417 42.08 442.911 42.08C443.617 42.08 444.231 42.1733 444.751 42.36C445.257 42.56 445.671 42.82 445.991 43.14C446.324 43.4733 446.557 43.8467 446.691 44.26C446.837 44.7 446.911 45.1467 446.911 45.6V50.42C446.911 50.7533 446.924 51.0933 446.951 51.44C446.964 51.5333 446.991 51.72 447.031 52H445.191C445.177 51.88 445.157 51.72 445.131 51.52C445.104 51.2533 445.091 50.98 445.091 50.7C444.984 50.8733 444.844 51.0533 444.671 51.24C444.457 51.4533 444.244 51.6267 444.031 51.76C443.777 51.92 443.484 52.0467 443.151 52.14C442.791 52.2467 442.404 52.3 441.991 52.3C441.497 52.3 441.057 52.22 440.671 52.06C440.284 51.9 439.944 51.6867 439.651 51.42C439.357 51.1533 439.144 50.8533 439.011 50.52ZM442.251 50.72C442.664 50.72 443.031 50.6733 443.351 50.58C443.671 50.4867 443.964 50.3267 444.231 50.1C444.471 49.8733 444.664 49.58 444.811 49.22C444.957 48.82 445.031 48.3733 445.031 47.88V47.44L442.091 47.88C441.691 47.9333 441.357 48.0867 441.091 48.34C440.824 48.5667 440.691 48.8933 440.691 49.32C440.691 49.6667 440.831 49.9933 441.111 50.3C441.391 50.58 441.771 50.72 442.251 50.72ZM455.139 44C454.846 43.88 454.493 43.82 454.079 43.82C453.666 43.82 453.299 43.8867 452.979 44.02C452.633 44.1667 452.319 44.38 452.039 44.66C451.759 44.9533 451.546 45.3 451.399 45.7C451.239 46.1133 451.159 46.6067 451.159 47.18C451.159 47.7267 451.239 48.2067 451.399 48.62C451.559 49.0333 451.773 49.3867 452.039 49.68C452.293 49.9733 452.606 50.1933 452.979 50.34C453.353 50.4867 453.726 50.56 454.099 50.56C454.579 50.56 454.959 50.4933 455.239 50.36C455.573 50.2133 455.833 50.0467 456.019 49.86C456.233 49.6733 456.399 49.4533 456.519 49.2C456.613 49.0267 456.699 48.82 456.779 48.58L458.439 49.3C458.319 49.6467 458.146 49.9933 457.919 50.34C457.719 50.6733 457.426 51 457.039 51.32C456.706 51.6 456.279 51.8333 455.759 52.02C455.266 52.2067 454.713 52.3 454.099 52.3C453.406 52.3 452.753 52.1667 452.139 51.9C451.539 51.6333 451.033 51.2733 450.619 50.82C450.206 50.3533 449.866 49.8133 449.599 49.2C449.359 48.5867 449.239 47.9133 449.239 47.18C449.239 46.42 449.359 45.7333 449.599 45.12C449.866 44.5067 450.206 43.9667 450.619 43.5C451.046 43.0733 451.566 42.7267 452.179 42.46C452.739 42.2067 453.373 42.08 454.079 42.08C454.733 42.08 455.299 42.1667 455.779 42.34C456.259 42.5133 456.679 42.7533 457.039 43.06C457.386 43.3667 457.666 43.6933 457.879 44.04C458.106 44.4267 458.266 44.7933 458.359 45.14L456.659 45.86C456.606 45.6467 456.513 45.4067 456.379 45.14C456.259 44.9 456.099 44.68 455.899 44.48C455.659 44.28 455.406 44.12 455.139 44ZM465.921 44C465.627 43.88 465.274 43.82 464.861 43.82C464.447 43.82 464.081 43.8867 463.761 44.02C463.414 44.1667 463.101 44.38 462.821 44.66C462.541 44.9533 462.327 45.3 462.181 45.7C462.021 46.1133 461.941 46.6067 461.941 47.18C461.941 47.7267 462.021 48.2067 462.181 48.62C462.341 49.0333 462.554 49.3867 462.821 49.68C463.074 49.9733 463.387 50.1933 463.761 50.34C464.134 50.4867 464.507 50.56 464.881 50.56C465.361 50.56 465.741 50.4933 466.021 50.36C466.354 50.2133 466.614 50.0467 466.801 49.86C467.014 49.6733 467.181 49.4533 467.301 49.2C467.394 49.0267 467.481 48.82 467.561 48.58L469.221 49.3C469.101 49.6467 468.927 49.9933 468.701 50.34C468.501 50.6733 468.207 51 467.821 51.32C467.487 51.6 467.061 51.8333 466.541 52.02C466.047 52.2067 465.494 52.3 464.881 52.3C464.187 52.3 463.534 52.1667 462.921 51.9C462.321 51.6333 461.814 51.2733 461.401 50.82C460.987 50.3533 460.647 49.8133 460.381 49.2C460.141 48.5867 460.021 47.9133 460.021 47.18C460.021 46.42 460.141 45.7333 460.381 45.12C460.647 44.5067 460.987 43.9667 461.401 43.5C461.827 43.0733 462.347 42.7267 462.961 42.46C463.521 42.2067 464.154 42.08 464.861 42.08C465.514 42.08 466.081 42.1667 466.561 42.34C467.041 42.5133 467.461 42.7533 467.821 43.06C468.167 43.3667 468.447 43.6933 468.661 44.04C468.887 44.4267 469.047 44.7933 469.141 45.14L467.441 45.86C467.387 45.6467 467.294 45.4067 467.161 45.14C467.041 44.9 466.881 44.68 466.681 44.48C466.441 44.28 466.187 44.12 465.921 44ZM474.582 50.4C474.955 50.5467 475.335 50.62 475.722 50.62C476.109 50.62 476.489 50.5467 476.862 50.4C477.222 50.2667 477.542 50.0467 477.822 49.74C478.102 49.4333 478.322 49.0733 478.482 48.66C478.642 48.2467 478.722 47.7533 478.722 47.18C478.722 46.6067 478.642 46.1133 478.482 45.7C478.335 45.3 478.115 44.9467 477.822 44.64C477.542 44.3467 477.222 44.1267 476.862 43.98C476.489 43.8333 476.109 43.76 475.722 43.76C475.335 43.76 474.955 43.8333 474.582 43.98C474.222 44.1267 473.902 44.3467 473.622 44.64C473.329 44.9467 473.109 45.3 472.962 45.7C472.802 46.1133 472.722 46.6067 472.722 47.18C472.722 47.74 472.802 48.2333 472.962 48.66C473.122 49.0733 473.342 49.4333 473.622 49.74C473.902 50.0467 474.222 50.2667 474.582 50.4ZM473.742 42.46C474.329 42.2067 474.989 42.08 475.722 42.08C476.455 42.08 477.115 42.2067 477.702 42.46C478.302 42.7133 478.822 43.0733 479.262 43.54C479.715 44.0067 480.055 44.54 480.282 45.14C480.522 45.7667 480.642 46.4467 480.642 47.18C480.642 47.9133 480.522 48.5933 480.282 49.22C480.042 49.8467 479.702 50.3867 479.262 50.84C478.849 51.28 478.329 51.6333 477.702 51.9C477.129 52.1667 476.469 52.3 475.722 52.3C474.975 52.3 474.315 52.1667 473.742 51.9C473.115 51.6333 472.595 51.28 472.182 50.84C471.742 50.3867 471.402 49.8467 471.162 49.22C470.922 48.5933 470.802 47.9133 470.802 47.18C470.802 46.4467 470.922 45.7667 471.162 45.14C471.389 44.54 471.729 44.0067 472.182 43.54C472.622 43.0733 473.142 42.7133 473.742 42.46ZM489.383 50.84C489.117 51.36 488.717 51.7267 488.183 51.94C487.637 52.18 487.09 52.3 486.543 52.3C485.997 52.3 485.49 52.2 485.023 52C484.583 51.8 484.21 51.5267 483.903 51.18C483.61 50.8467 483.37 50.44 483.183 49.96C483.023 49.5067 482.943 49 482.943 48.44V42.38H484.823V48.16C484.823 48.48 484.863 48.7933 484.943 49.1C485.037 49.4333 485.163 49.7 485.323 49.9C485.51 50.1267 485.737 50.3067 486.003 50.44C486.257 50.5733 486.59 50.64 487.003 50.64C487.777 50.64 488.35 50.4133 488.723 49.96C489.097 49.5067 489.283 48.9133 489.283 48.18V42.38H491.163V50.22C491.163 50.5133 491.177 50.86 491.203 51.26C491.217 51.5667 491.237 51.8133 491.263 52H489.463C489.45 51.9067 489.43 51.7333 489.403 51.48C489.39 51.3333 489.383 51.12 489.383 50.84ZM496.095 52H494.215V42.38H496.055V43.76C496.389 43.1733 496.829 42.7467 497.375 42.48C497.895 42.2267 498.442 42.1 499.015 42.1C499.589 42.1 500.095 42.2 500.535 42.4C500.935 42.5733 501.295 42.84 501.615 43.2C501.909 43.5467 502.122 43.9467 502.255 44.4C502.389 44.84 502.455 45.34 502.455 45.9V52H500.575V46.22C500.575 45.9267 500.542 45.6133 500.475 45.28C500.395 44.9733 500.269 44.7133 500.095 44.5C499.935 44.3133 499.702 44.14 499.395 43.98C499.089 43.86 498.735 43.8 498.335 43.8C497.949 43.8 497.622 43.8667 497.355 44C497.075 44.1467 496.842 44.34 496.655 44.58C496.469 44.82 496.329 45.1 496.235 45.42C496.142 45.7133 496.095 46.0533 496.095 46.44V52ZM507.929 42.38H510.009V44.08H507.929V49.08C507.929 49.5333 508.029 49.8667 508.229 50.08C508.429 50.2933 508.776 50.4 509.269 50.4C509.442 50.4 509.576 50.3933 509.669 50.38C509.829 50.3533 509.942 50.3333 510.009 50.32V51.92C509.849 51.96 509.696 52 509.549 52.04C509.336 52.08 509.062 52.1 508.729 52.1C507.902 52.1 507.249 51.86 506.769 51.38C506.289 50.9133 506.049 50.24 506.049 49.36V44.08H504.209V42.38H504.729C505.249 42.38 505.629 42.24 505.869 41.96C506.096 41.6667 506.209 41.3133 506.209 40.9V39.34H507.929V42.38ZM511.863 50.72C511.863 50.3467 511.996 50.0133 512.263 49.72C512.529 49.4533 512.856 49.32 513.243 49.32C513.629 49.32 513.956 49.4533 514.223 49.72C514.503 50 514.643 50.3333 514.643 50.72C514.643 51.12 514.503 51.4467 514.223 51.7C513.956 51.9667 513.629 52.1 513.243 52.1C512.856 52.1 512.529 51.9667 512.263 51.7C511.996 51.4333 511.863 51.1067 511.863 50.72Z" fill="white"/>
	<path d="M366.9 72V57.82H368.86V70.16H375.56V72H366.9ZM377.458 72V62.38H379.318V72H377.458ZM377.038 58.74C377.038 58.3533 377.171 58.0267 377.438 57.76C377.691 57.5067 378.004 57.38 378.378 57.38C378.778 57.38 379.104 57.5067 379.358 57.76C379.611 58.0133 379.738 58.34 379.738 58.74C379.738 59.1133 379.611 59.4267 379.358 59.68C379.091 59.9467 378.764 60.08 378.378 60.08C378.018 60.08 377.704 59.9467 377.438 59.68C377.171 59.4133 377.038 59.1 377.038 58.74ZM382.36 72V62.38H384.16V63.66C384.453 63.14 384.873 62.7467 385.42 62.48C385.94 62.2267 386.493 62.1 387.08 62.1C387.693 62.1 388.253 62.2467 388.76 62.54C389.293 62.8467 389.693 63.3067 389.96 63.92C390.333 63.2267 390.813 62.7467 391.4 62.48C391.96 62.2267 392.553 62.1 393.18 62.1C393.58 62.1 393.987 62.1733 394.4 62.32C394.813 62.4667 395.167 62.6867 395.46 62.98C395.793 63.2867 396.047 63.6667 396.22 64.12C396.407 64.6 396.5 65.1467 396.5 65.76V72H394.64V65.96C394.64 65.32 394.473 64.7933 394.14 64.38C393.82 63.9667 393.307 63.76 392.6 63.76C391.933 63.76 391.4 63.9867 391 64.44C390.587 64.8933 390.38 65.4733 390.38 66.18V72H388.5V65.96C388.5 65.32 388.34 64.7933 388.02 64.38C387.7 63.9667 387.18 63.76 386.46 63.76C385.78 63.76 385.24 63.9867 384.84 64.44C384.427 64.8933 384.22 65.48 384.22 66.2V72H382.36ZM399.43 72V62.38H401.29V72H399.43ZM399.01 58.74C399.01 58.3533 399.143 58.0267 399.41 57.76C399.663 57.5067 399.977 57.38 400.35 57.38C400.75 57.38 401.077 57.5067 401.33 57.76C401.583 58.0133 401.71 58.34 401.71 58.74C401.71 59.1133 401.583 59.4267 401.33 59.68C401.063 59.9467 400.737 60.08 400.35 60.08C399.99 60.08 399.677 59.9467 399.41 59.68C399.143 59.4133 399.01 59.1 399.01 58.74ZM406.953 62.38H409.033V64.08H406.953V69.08C406.953 69.5333 407.053 69.8667 407.253 70.08C407.453 70.2933 407.799 70.4 408.293 70.4C408.466 70.4 408.599 70.3933 408.692 70.38C408.853 70.3533 408.966 70.3333 409.033 70.32V71.92C408.873 71.96 408.719 72 408.573 72.04C408.359 72.08 408.086 72.1 407.753 72.1C406.926 72.1 406.273 71.86 405.793 71.38C405.313 70.9133 405.073 70.24 405.073 69.36V64.08H403.233V62.38H403.753C404.273 62.38 404.653 62.24 404.893 61.96C405.119 61.6667 405.233 61.3133 405.233 60.9V59.34H406.953V62.38ZM417.808 66.2C417.795 65.52 417.561 64.9333 417.108 64.44C416.668 63.9733 416.021 63.74 415.168 63.74C414.741 63.74 414.388 63.8067 414.108 63.94C413.828 64.06 413.561 64.2467 413.308 64.5C413.081 64.7533 412.901 65.02 412.768 65.3C412.648 65.5667 412.575 65.8667 412.548 66.2H417.808ZM419.708 69.26C419.548 69.7267 419.355 70.12 419.128 70.44C418.875 70.8133 418.561 71.1333 418.188 71.4C417.815 71.68 417.395 71.9 416.928 72.06C416.461 72.22 415.948 72.3 415.388 72.3C414.761 72.3 414.148 72.1867 413.548 71.96C412.961 71.7333 412.448 71.4 412.008 70.96C411.568 70.5467 411.215 70.0067 410.948 69.34C410.681 68.6867 410.548 67.96 410.548 67.16C410.548 66.3733 410.675 65.68 410.928 65.08C411.181 64.48 411.521 63.9467 411.948 63.48C412.375 63.04 412.861 62.7 413.408 62.46C413.955 62.2067 414.535 62.08 415.148 62.08C415.908 62.08 416.568 62.2067 417.128 62.46C417.701 62.7 418.181 63.04 418.568 63.48C418.941 63.92 419.241 64.4533 419.468 65.08C419.668 65.6933 419.768 66.3733 419.768 67.12V67.46C419.768 67.4867 419.761 67.5333 419.748 67.6C419.748 67.6533 419.741 67.6933 419.728 67.72H412.488C412.515 68.1467 412.595 68.54 412.728 68.9C412.861 69.2333 413.068 69.54 413.348 69.82C413.615 70.0867 413.921 70.2867 414.268 70.42C414.628 70.5667 415.001 70.64 415.388 70.64C416.175 70.64 416.775 70.4533 417.188 70.08C417.615 69.7067 417.915 69.2467 418.088 68.7L419.708 69.26ZM423.605 65.8C423.472 66.2 423.405 66.6533 423.405 67.16C423.405 67.6667 423.472 68.12 423.605 68.52C423.725 68.96 423.905 69.3267 424.145 69.62C424.385 69.9133 424.679 70.1533 425.025 70.34C425.359 70.5133 425.759 70.6 426.225 70.6C426.652 70.6 427.039 70.5067 427.385 70.32C427.732 70.1333 428.025 69.8933 428.265 69.6C428.505 69.3067 428.685 68.94 428.805 68.5C428.939 68.1 429.005 67.64 429.005 67.12C429.005 66.12 428.759 65.3133 428.265 64.7C427.785 64.0867 427.112 63.78 426.245 63.78C425.819 63.78 425.432 63.86 425.085 64.02C424.712 64.2067 424.412 64.44 424.185 64.72C423.945 65 423.752 65.36 423.605 65.8ZM429.025 70.54C428.799 71.0067 428.439 71.4067 427.945 71.74C427.439 72.0867 426.805 72.26 426.045 72.26C425.352 72.26 424.719 72.1267 424.145 71.86C423.572 71.5933 423.099 71.2333 422.725 70.78C422.339 70.3267 422.032 69.7867 421.805 69.16C421.592 68.56 421.485 67.8933 421.485 67.16C421.485 66.5067 421.599 65.86 421.825 65.22C422.052 64.5933 422.359 64.06 422.745 63.62C423.132 63.1667 423.612 62.8 424.185 62.52C424.759 62.2533 425.379 62.12 426.045 62.12C426.485 62.12 426.865 62.1667 427.185 62.26C427.505 62.3533 427.785 62.4733 428.025 62.62C428.252 62.7667 428.452 62.94 428.625 63.14C428.785 63.34 428.905 63.54 428.985 63.74V57.52H430.845V70.22C430.845 70.58 430.859 70.9733 430.885 71.4C430.912 71.72 430.932 71.92 430.945 72H429.125C429.112 71.9067 429.092 71.7333 429.065 71.48C429.039 71.1867 429.025 70.9267 429.025 70.7V70.54ZM442.082 70.4C442.455 70.5467 442.835 70.62 443.222 70.62C443.609 70.62 443.989 70.5467 444.362 70.4C444.722 70.2667 445.042 70.0467 445.322 69.74C445.602 69.4333 445.822 69.0733 445.982 68.66C446.142 68.2467 446.222 67.7533 446.222 67.18C446.222 66.6067 446.142 66.1133 445.982 65.7C445.835 65.3 445.615 64.9467 445.322 64.64C445.042 64.3467 444.722 64.1267 444.362 63.98C443.989 63.8333 443.609 63.76 443.222 63.76C442.835 63.76 442.455 63.8333 442.082 63.98C441.722 64.1267 441.402 64.3467 441.122 64.64C440.829 64.9467 440.609 65.3 440.462 65.7C440.302 66.1133 440.222 66.6067 440.222 67.18C440.222 67.74 440.302 68.2333 440.462 68.66C440.622 69.0733 440.842 69.4333 441.122 69.74C441.402 70.0467 441.722 70.2667 442.082 70.4ZM441.242 62.46C441.829 62.2067 442.489 62.08 443.222 62.08C443.955 62.08 444.615 62.2067 445.202 62.46C445.802 62.7133 446.322 63.0733 446.762 63.54C447.215 64.0067 447.555 64.54 447.782 65.14C448.022 65.7667 448.142 66.4467 448.142 67.18C448.142 67.9133 448.022 68.5933 447.782 69.22C447.542 69.8467 447.202 70.3867 446.762 70.84C446.349 71.28 445.829 71.6333 445.202 71.9C444.629 72.1667 443.969 72.3 443.222 72.3C442.475 72.3 441.815 72.1667 441.242 71.9C440.615 71.6333 440.095 71.28 439.682 70.84C439.242 70.3867 438.902 69.8467 438.662 69.22C438.422 68.5933 438.302 67.9133 438.302 67.18C438.302 66.4467 438.422 65.7667 438.662 65.14C438.889 64.54 439.229 64.0067 439.682 63.54C440.122 63.0733 440.642 62.7133 441.242 62.46ZM460.927 59.22C460.781 59.22 460.614 59.24 460.427 59.28C460.214 59.3467 460.047 59.4333 459.927 59.54C459.767 59.66 459.641 59.8267 459.547 60.04C459.454 60.24 459.407 60.5133 459.407 60.86V62.38H461.727V64.08H459.407V72H457.467V64.08H453.087V72H451.147V64.08H449.367V62.38H451.147V60.76C451.147 60.2133 451.234 59.74 451.407 59.34C451.567 58.9267 451.794 58.58 452.087 58.3C452.381 58.0067 452.714 57.7933 453.087 57.66C453.447 57.5267 453.854 57.46 454.307 57.46C454.654 57.46 454.914 57.4867 455.087 57.54C455.287 57.6067 455.401 57.6467 455.427 57.66V59.34C455.281 59.2867 455.194 59.26 455.167 59.26C454.981 59.2333 454.794 59.22 454.607 59.22C454.461 59.22 454.294 59.24 454.107 59.28C453.894 59.3467 453.727 59.4333 453.607 59.54C453.447 59.66 453.321 59.8267 453.227 60.04C453.134 60.24 453.087 60.5133 453.087 60.86V62.38H457.467V60.76C457.467 60.2133 457.554 59.74 457.727 59.34C457.887 58.9267 458.114 58.58 458.407 58.3C458.701 58.0067 459.034 57.7933 459.407 57.66C459.767 57.5267 460.174 57.46 460.627 57.46C460.974 57.46 461.234 57.4867 461.407 57.54C461.607 57.6067 461.721 57.6467 461.747 57.66V59.34C461.601 59.2867 461.514 59.26 461.487 59.26C461.301 59.2333 461.114 59.22 460.927 59.22ZM470.113 66.2C470.099 65.52 469.866 64.9333 469.413 64.44C468.973 63.9733 468.326 63.74 467.473 63.74C467.046 63.74 466.693 63.8067 466.413 63.94C466.133 64.06 465.866 64.2467 465.613 64.5C465.386 64.7533 465.206 65.02 465.073 65.3C464.953 65.5667 464.879 65.8667 464.853 66.2H470.113ZM472.013 69.26C471.853 69.7267 471.659 70.12 471.433 70.44C471.179 70.8133 470.866 71.1333 470.493 71.4C470.119 71.68 469.699 71.9 469.233 72.06C468.766 72.22 468.253 72.3 467.693 72.3C467.066 72.3 466.453 72.1867 465.853 71.96C465.266 71.7333 464.753 71.4 464.313 70.96C463.873 70.5467 463.519 70.0067 463.253 69.34C462.986 68.6867 462.853 67.96 462.853 67.16C462.853 66.3733 462.979 65.68 463.233 65.08C463.486 64.48 463.826 63.9467 464.253 63.48C464.679 63.04 465.166 62.7 465.713 62.46C466.259 62.2067 466.839 62.08 467.453 62.08C468.213 62.08 468.873 62.2067 469.433 62.46C470.006 62.7 470.486 63.04 470.873 63.48C471.246 63.92 471.546 64.4533 471.773 65.08C471.973 65.6933 472.073 66.3733 472.073 67.12V67.46C472.073 67.4867 472.066 67.5333 472.053 67.6C472.053 67.6533 472.046 67.6933 472.033 67.72H464.793C464.819 68.1467 464.899 68.54 465.033 68.9C465.166 69.2333 465.373 69.54 465.653 69.82C465.919 70.0867 466.226 70.2867 466.573 70.42C466.933 70.5667 467.306 70.64 467.693 70.64C468.479 70.64 469.079 70.4533 469.493 70.08C469.919 69.7067 470.219 69.2467 470.393 68.7L472.013 69.26ZM479.77 64.28C479.49 64.24 479.217 64.22 478.95 64.22C478.163 64.22 477.523 64.4467 477.03 64.9C476.55 65.3667 476.31 66.1267 476.31 67.18V72H474.43V62.38H476.27V64.06C476.443 63.7 476.643 63.3933 476.87 63.14C477.15 62.8733 477.397 62.6867 477.61 62.58C477.823 62.46 478.083 62.3667 478.39 62.3C478.617 62.2467 478.87 62.22 479.15 62.22C479.323 62.22 479.443 62.2267 479.51 62.24C479.537 62.24 479.57 62.2467 479.61 62.26C479.65 62.26 479.683 62.2667 479.71 62.28C479.737 62.28 479.757 62.28 479.77 62.28V64.28Z" fill="#FFEF21"/>
	<path d="M52.0306 44.0104L60.6505 44.0591L60.6607 42.2391L54.0009 42.2015L54.0253 37.8616L60.0652 37.8957L60.0756 36.0557L54.0357 36.0216L54.0603 31.6617L60.7202 31.6993L60.7305 29.8793L52.1106 29.8307L52.0306 44.0104ZM64.9953 44.0836L65.0266 38.5237C65.0287 38.1637 65.0706 37.8239 65.1724 37.5045C65.2742 37.1851 65.4158 36.9059 65.5971 36.6669C65.7785 36.4279 66.0196 36.2293 66.3004 36.0908C66.5812 35.9524 66.9015 35.8942 67.2815 35.8964C67.7015 35.8987 68.0411 35.9607 68.3405 36.0823C68.6197 36.2239 68.8588 36.3853 69.0375 36.6063C69.2163 36.8273 69.3348 37.088 69.4131 37.3884C69.4714 37.6887 69.5097 37.989 69.5078 38.329L69.4752 44.1089L71.3552 44.1195L71.3896 38.0196C71.3926 37.4796 71.3354 36.9793 71.198 36.5185C71.0606 36.0577 70.8429 35.6565 70.5648 35.3149C70.2667 34.9732 69.9083 34.6912 69.4893 34.5088C69.0505 34.3063 68.5511 34.2035 67.9711 34.2002C67.4111 34.1971 66.8704 34.314 66.3289 34.571C65.7875 34.8279 65.3451 35.2454 65.0017 35.8435L65.0095 34.4635L63.1696 34.4531L63.1153 44.073L64.9953 44.0836ZM74.3413 34.5162L74.2811 45.176C74.2786 45.616 74.1767 45.9554 73.9953 46.2144C73.8139 46.4534 73.4732 46.5715 72.9732 46.5686C72.8332 46.5679 72.6932 46.5671 72.5934 46.5465C72.4935 46.5259 72.4335 46.5256 72.3736 46.5053L72.3647 48.0852C72.4246 48.1056 72.5443 48.1463 72.7042 48.1672C72.864 48.2081 73.1239 48.2295 73.4839 48.2316C74.3238 48.2363 74.9854 47.96 75.4486 47.4026C75.9116 46.8652 76.1557 46.1466 76.1606 45.2666L76.2212 34.5268L74.3413 34.5162ZM73.942 30.8339C73.9399 31.2139 74.0782 31.5146 74.3367 31.7761C74.5952 32.0376 74.8945 32.1793 75.2744 32.1814C75.6544 32.1835 75.9952 32.0455 76.2567 31.7869C76.5182 31.5284 76.6398 31.2291 76.642 30.8491C76.6441 30.4691 76.526 30.1284 76.2675 29.867C76.009 29.6055 75.6697 29.4836 75.2897 29.4814C74.9097 29.4793 74.609 29.5976 74.3476 29.8561C74.0861 30.1147 73.9442 30.4539 73.942 30.8339ZM83.4965 42.808C83.0965 42.8057 82.717 42.7236 82.3578 42.5815C81.9986 42.4395 81.6798 42.2177 81.4015 41.9161C81.1232 41.6146 80.9052 41.2533 80.7476 40.8324C80.59 40.4115 80.5128 39.9111 80.516 39.3511C80.5191 38.7911 80.6019 38.2916 80.7643 37.8725C80.9267 37.4534 81.1486 37.1146 81.4303 36.8162C81.712 36.5178 82.0332 36.2996 82.394 36.1616C82.7548 36.0237 83.1352 35.9458 83.5352 35.9481C83.9352 35.9503 84.3147 36.0325 84.6739 36.1745C85.0331 36.3165 85.3519 36.5383 85.6302 36.8399C85.9085 37.1415 86.1266 37.4827 86.2842 37.9036C86.4418 38.3245 86.519 38.8249 86.5159 39.3849C86.5127 39.9449 86.4299 40.4445 86.2675 40.8636C86.1051 41.2827 85.8831 41.6414 85.6014 41.9398C85.3197 42.2382 84.9985 42.4564 84.6377 42.5944C84.2769 42.7324 83.8965 42.8102 83.4965 42.808ZM83.5447 34.2681C82.8247 34.264 82.164 34.3803 81.5626 34.6369C80.9611 34.8935 80.4391 35.2506 79.9965 35.7081C79.5539 36.1656 79.211 36.6837 78.9675 37.3023C78.724 37.921 78.6002 38.6003 78.596 39.3403C78.5918 40.0802 78.708 40.7609 78.9445 41.3823C79.181 42.0036 79.5179 42.5455 79.9553 43.008C80.3927 43.4705 80.9108 43.8134 81.5093 44.0768C82.1077 44.3601 82.767 44.4839 83.487 44.4879C84.207 44.492 84.8677 44.3757 85.4692 44.0991C86.0707 43.8425 86.5926 43.5054 87.0352 43.0479C87.4778 42.5904 87.8208 42.0523 88.0643 41.4337C88.3078 40.8151 88.4317 40.1358 88.4358 39.3958C88.44 38.6558 88.3238 37.9751 88.0873 37.3538C87.8508 36.7324 87.5138 36.2105 87.0764 35.748C86.639 35.2856 86.121 34.9226 85.5225 34.6593C84.924 34.3959 84.2647 34.2722 83.5447 34.2681ZM90.9778 48.2503L93.0378 48.2619L99.3746 34.6574L97.3546 34.646L94.4372 41.2697L91.4747 34.6128L89.3148 34.6007L93.4064 43.1839L90.9778 48.2503ZM57.8842 62.8838C57.8831 63.0838 57.8819 63.3038 57.9006 63.5239C57.9193 63.764 57.9382 63.9441 57.9577 64.0442L59.7577 64.0544C59.7387 63.8743 59.72 63.6341 59.7018 63.314C59.6835 63.0139 59.6656 62.6538 59.6677 62.2738L59.7119 54.434L57.832 54.4233L57.7992 60.2233C57.7951 60.9632 57.6118 61.5422 57.2292 62.0001C56.8466 62.4579 56.2654 62.6746 55.5054 62.6704C55.1054 62.6681 54.7657 62.6062 54.5065 62.4647C54.2273 62.3231 54.0084 62.1419 53.8296 61.9209C53.6508 61.6999 53.5324 61.4192 53.4541 61.1188C53.3758 60.8183 53.3375 60.5181 53.3394 60.1781L53.372 54.3982L51.4921 54.3876L51.4579 60.4475C51.4548 60.9875 51.5319 61.5079 51.6893 61.9688C51.8667 62.4298 52.1043 62.8512 52.4024 63.1929C52.7005 63.5345 53.0789 63.8167 53.5178 64.0192C53.9766 64.2218 54.476 64.3246 55.036 64.3277C55.596 64.3309 56.1367 64.2139 56.678 63.977C57.2193 63.76 57.6214 63.3823 57.8842 62.8838ZM62.688 67.871L64.548 67.8815L64.5768 62.7815C64.8344 63.203 65.2323 63.5852 65.7706 63.8883C66.3089 64.1913 66.9479 64.3549 67.6879 64.3591C68.3879 64.3631 69.0287 64.2267 69.5902 63.9698C70.1316 63.7129 70.6136 63.3556 70.9962 62.8978C71.3788 62.4399 71.6818 61.9216 71.8852 61.3027C72.0887 60.6839 72.1925 60.0245 72.1965 59.3045C72.2005 58.6045 72.1041 57.9639 71.9276 57.3429C71.7311 56.7218 71.454 56.2002 71.0966 55.7382C70.7192 55.2761 70.2613 54.9135 69.7227 54.6504C69.1642 54.3873 68.5249 54.2637 67.8049 54.2596C67.0249 54.2552 66.344 54.4114 65.8021 54.7483C65.2602 55.0853 64.838 55.4829 64.5753 55.9614L64.5837 54.4614L62.7638 54.4512L62.688 67.871ZM70.2766 59.2936C70.2737 59.7936 70.2113 60.2333 70.0689 60.6525C69.9265 61.0717 69.7445 61.4307 69.5028 61.7293C69.2411 62.0278 68.9398 62.2661 68.5989 62.4242C68.2579 62.6023 67.8574 62.68 67.4174 62.6776C66.9974 62.6752 66.5979 62.5929 66.2589 62.411C65.8998 62.249 65.6012 62.0073 65.3429 61.7058C65.0846 61.4044 64.9066 61.0434 64.769 60.6226C64.6313 60.2018 64.5738 59.7615 64.5766 59.2615C64.5794 58.7815 64.6418 58.3418 64.7842 57.9226C64.9265 57.5234 65.1085 57.1644 65.3702 56.8659C65.6319 56.5674 65.9331 56.3491 66.2941 56.1711C66.6351 55.993 67.0356 55.9153 67.4556 55.9177C67.8956 55.9201 68.2951 56.0024 68.6541 56.1844C68.9931 56.3663 69.2918 56.588 69.5301 56.8894C69.7684 57.1907 69.9464 57.5517 70.0841 57.9525C70.2217 58.3733 70.2793 58.8136 70.2766 59.2936ZM81.9264 54.5593L81.9436 51.5193L80.2236 51.5096L80.2148 53.0696C80.2124 53.4896 80.0904 53.8489 79.8688 54.1277C79.6272 54.4063 79.2465 54.5442 78.7265 54.5412L78.2065 54.5383L78.1969 56.2383L80.0369 56.2487L80.0071 61.5286C80.0021 62.4086 80.2383 63.0899 80.7157 63.5526C81.1929 64.0353 81.8516 64.279 82.6716 64.2836C82.9916 64.2855 83.2717 64.267 83.4919 64.2283C83.7122 64.1695 83.8725 64.1304 83.9526 64.1109L83.9616 62.5109C83.8815 62.5304 83.7614 62.5498 83.6213 62.569C83.4811 62.5882 83.3411 62.5874 83.2212 62.5867C82.7212 62.5839 82.3817 62.482 82.183 62.2609C81.9842 62.0397 81.8861 61.6992 81.8886 61.2592L81.9168 56.2593L83.9968 56.271L84.0064 54.571L81.9264 54.5593ZM90.3953 62.8472C89.9953 62.8449 89.6157 62.7628 89.2565 62.6208C88.8973 62.4787 88.5786 62.2569 88.3003 61.9554C88.022 61.6538 87.804 61.2926 87.6464 60.8717C87.4887 60.4508 87.4116 59.9503 87.4147 59.3903C87.4179 58.8303 87.5007 58.3308 87.6631 57.9117C87.8254 57.4926 88.0473 57.1539 88.329 56.8554C88.6107 56.557 88.932 56.3388 89.2927 56.2009C89.6535 56.0629 90.034 55.9851 90.434 55.9873C90.834 55.9896 91.2135 56.0717 91.5727 56.2137C91.9319 56.3558 92.2507 56.5776 92.529 56.8791C92.8073 57.1807 93.0254 57.522 93.183 57.9429C93.3406 58.3637 93.4178 58.8642 93.4146 59.4242C93.4115 59.9842 93.3286 60.4837 93.1663 60.9028C93.0039 61.3219 92.7819 61.6806 92.5002 61.9791C92.2185 62.2775 91.8973 62.4957 91.5365 62.6336C91.1757 62.7716 90.7953 62.8495 90.3953 62.8472ZM90.4434 54.3073C89.7235 54.3033 89.0628 54.4196 88.4613 54.6762C87.8599 54.9328 87.3379 55.2898 86.8953 55.7473C86.4527 56.2049 86.1097 56.7229 85.8663 57.3416C85.6228 57.9602 85.4989 58.6395 85.4948 59.3795C85.4906 60.1195 85.6067 60.8002 85.8432 61.4215C86.0797 62.0428 86.4167 62.5848 86.8541 63.0472C87.2915 63.5097 87.8096 63.8526 88.4081 64.116C89.0065 64.3994 89.6658 64.5231 90.3858 64.5272C91.1058 64.5312 91.7664 64.415 92.368 64.1384C92.9695 63.8817 93.4914 63.5447 93.934 63.0872C94.3766 62.6297 94.7196 62.0916 94.9631 61.473C95.2066 60.8543 95.3304 60.175 95.3346 59.435C95.3388 58.695 95.2226 58.0144 94.9861 57.393C94.7496 56.7717 94.4126 56.2498 93.9752 55.7873C93.5378 55.3248 93.0198 54.9619 92.4213 54.6985C91.8227 54.4351 91.1634 54.3114 90.4434 54.3073Z" fill="white"/>
	<circle cx="678.5" cy="46.5" r="46.5" fill="white"/>
	<path fill-rule="evenodd" clip-rule="evenodd" d="M682.93 49.5597C682.723 49.5758 681.653 49.6414 679.266 49.6414C677.368 49.6414 676.02 49.5827 675.547 49.5597C668.212 49.2279 662.736 47.9144 662.736 46.3419C662.736 44.7693 668.212 43.4577 675.547 43.1206V48.2516C676.027 48.2871 677.401 48.3706 679.299 48.3706C681.577 48.3706 682.718 48.2729 682.923 48.2534V43.124C690.243 43.4595 695.707 44.773 695.707 46.3419C695.707 47.9108 690.245 49.2242 682.923 49.5579L682.93 49.5597ZM682.93 42.5933V38.0017H693.146V31H665.331V38.0017H675.546V42.5915C667.244 42.9839 661 44.6753 661 46.7022C661 48.7291 667.244 50.4188 675.546 50.8128V65.5263H682.928V50.8073C691.211 50.4152 697.444 48.7256 697.444 46.7003C697.444 44.6753 691.216 42.9857 682.928 42.5915L682.93 42.5933Z" fill="#1BA27A"/>
</svg>
