<svg width="792" height="94" viewBox="0 0 792 94" fill="none" xmlns="http://www.w3.org/2000/svg">
	<mask id="mask0_4486_41899" style="mask-type:alpha" maskUnits="userSpaceOnUse" x="0" y="0" width="792" height="94">
		<path d="M0 93.9999H792V0H0V93.9999Z" fill="#E1FFAF"/>
	</mask>
	<g mask="url(#mask0_4486_41899)">
		<path d="M551.182 -34.2066L538.324 -41.9321L442.711 117.195L455.569 124.921L551.182 -34.2066Z" fill="#00F294"/>
		<path d="M584.94 -34.2066L572.082 -41.9321L476.469 117.195L489.326 124.921L584.94 -34.2066Z" fill="#00F294"/>
		<path d="M618.697 -34.2066L605.84 -41.9321L510.227 117.195L523.084 124.921L618.697 -34.2066Z" fill="#00F294"/>
		<path d="M652.455 -34.2066L639.598 -41.9321L543.984 117.195L556.842 124.921L652.455 -34.2066Z" fill="#00F294"/>
		<path d="M686.213 -34.2066L673.355 -41.9321L577.742 117.195L590.6 124.921L686.213 -34.2066Z" fill="#00F294"/>
		<path d="M719.967 -34.2066L707.109 -41.9321L611.496 117.195L624.354 124.921L719.967 -34.2066Z" fill="#00F294"/>
		<path d="M753.725 -34.2066L740.867 -41.9321L645.254 117.195L658.111 124.921L753.725 -34.2066Z" fill="#00F294"/>
		<path d="M787.483 -34.2066L774.625 -41.9321L679.012 117.195L691.869 124.921L787.483 -34.2066Z" fill="#00F294"/>
		<path d="M821.236 -34.2066L808.379 -41.9321L712.766 117.195L725.623 124.921L821.236 -34.2066Z" fill="#00F294"/>
		<path d="M854.994 -34.2066L842.137 -41.9321L746.524 117.195L759.381 124.921L854.994 -34.2066Z" fill="#00F294"/>
		<path d="M888.752 -34.2066L875.895 -41.9321L780.281 117.195L793.139 124.921L888.752 -34.2066Z" fill="#00F294"/>
		<path d="M180.33 -34.2066L167.473 -41.9321L71.8594 117.195L84.717 124.921L180.33 -34.2066Z" fill="#00F294"/>
		<path d="M214.084 -34.2066L201.227 -41.9321L105.613 117.195L118.471 124.921L214.084 -34.2066Z" fill="#00F294"/>
		<path d="M247.842 -34.2066L234.984 -41.9321L139.371 117.195L152.229 124.921L247.842 -34.2066Z" fill="#00F294"/>
		<path d="M281.6 -34.2066L268.742 -41.9321L173.129 117.195L185.986 124.921L281.6 -34.2066Z" fill="#00F294"/>
		<path d="M315.354 -34.2066L302.496 -41.9321L206.883 117.195L219.74 124.921L315.354 -34.2066Z" fill="#00F294"/>
		<path d="M349.111 -34.2066L336.254 -41.9321L240.641 117.195L253.498 124.921L349.111 -34.2066Z" fill="#00F294"/>
		<path d="M382.869 -34.2066L370.012 -41.9321L274.399 117.195L287.256 124.921L382.869 -34.2066Z" fill="#00F294"/>
		<path d="M12.0138 -34.2066L-0.843781 -41.9321L-96.457 117.195L-83.5995 124.921L12.0138 -34.2066Z" fill="#00F294"/>
		<path d="M416.627 -34.2066L403.77 -41.9321L308.156 117.195L321.014 124.921L416.627 -34.2066Z" fill="#00F294"/>
		<path d="M45.7677 -34.2066L32.9102 -41.9321L-62.7031 117.195L-49.8455 124.921L45.7677 -34.2066Z" fill="#00F294"/>
		<path d="M450.381 -34.2066L437.523 -41.9321L341.91 117.195L354.768 124.921L450.381 -34.2066Z" fill="#00F294"/>
		<path d="M79.5254 -34.2066L66.6679 -41.9321L-28.9453 117.195L-16.0878 124.921L79.5254 -34.2066Z" fill="#00F294"/>
		<path d="M484.135 -34.2066L471.277 -41.9321L375.664 117.195L388.522 124.921L484.135 -34.2066Z" fill="#00F294"/>
		<path d="M113.283 -34.2066L100.426 -41.9321L4.8125 117.195L17.67 124.921L113.283 -34.2066Z" fill="#00F294"/>
		<path d="M517.893 -34.2066L505.035 -41.9321L409.422 117.195L422.279 124.921L517.893 -34.2066Z" fill="#00F294"/>
		<path d="M147.037 -34.2066L134.18 -41.9321L38.5664 117.195L51.4239 124.921L147.037 -34.2066Z" fill="#00F294"/>
	</g>
</svg>
