<svg width="462" height="174" viewBox="0 0 462 174" fill="none" xmlns="http://www.w3.org/2000/svg">
	<rect x="461.27" y="57.918" width="115.27" height="57.5408" rx="28.7704" transform="rotate(180 461.27 57.918)" fill="#0285FD"/>
	<rect x="115.27" y="57.918" width="115.27" height="57.5408" rx="28.7704" transform="rotate(180 115.27 57.918)" fill="#FFEF21"/>
	<rect x="288.457" y="115.459" width="115.459" height="57.5408" rx="28.7704" transform="rotate(-90 288.457 115.459)" fill="#0285FD"/>
	<rect x="288.457" y="115.553" width="57.7295" height="57.5408" rx="28.7704" transform="rotate(-90 288.457 115.553)" fill="#FFEF21"/>
	<rect x="288.457" y="115.271" width="57.9182" height="57.5408" rx="28.7704" transform="rotate(180 288.457 115.271)" fill="#FFEF21"/>
	<rect x="346.004" y="57.918" width="57.918" height="57.5408" rx="28.7704" transform="rotate(-90 346.004 57.918)" fill="#5CEE9C"/>
	<rect x="403.543" y="173.094" width="115.082" height="57.5408" rx="28.7704" transform="rotate(180 403.543 173.094)" fill="#0285FD"/>
	<rect x="461.27" y="173.094" width="57.7294" height="57.5408" rx="28.7704" transform="rotate(180 461.27 173.094)" fill="#0285FD"/>
	<rect x="173" y="57.8242" width="57.7294" height="57.5408" rx="28.7704" transform="rotate(180 173 57.8242)" fill="#0285FD"/>
	<rect x="461.27" y="115.459" width="115.27" height="57.5408" rx="28.7704" transform="rotate(180 461.27 115.459)" fill="#5CEE9C"/>
	<rect x="346" y="173.188" width="57.7295" height="57.5408" rx="28.7704" transform="rotate(-90 346 173.188)" fill="#FFEF21"/>
	<rect x="57.543" y="57.7266" width="115.459" height="57.5408" rx="28.7704" fill="#5CEE9C"/>
	<circle cx="86.4048" cy="86.5923" r="28.8647" transform="rotate(180 86.4048 86.5923)" fill="#0285FD"/>
	<rect x="115.27" y="172.998" width="57.7294" height="57.5408" rx="28.7704" transform="rotate(180 115.27 172.998)" fill="#5CEE9C"/>
</svg>
