<svg width="608" height="244" viewBox="0 0 608 244" fill="none" xmlns="http://www.w3.org/2000/svg">
	<rect y="38.7598" width="304" height="67" rx="33.5" transform="rotate(-7.32514 0 38.7598)" fill="#FFFB1F"/>
	<path d="M46.8199 84.1608L45.0879 70.6876C44.9104 69.307 45.1444 68.1154 45.7838 67.0654C46.4292 66.0629 47.463 65.446 48.8436 65.2686C50.3671 65.0727 51.5172 65.3604 52.3476 66.1732C53.1304 66.9921 53.6044 68.0442 53.7757 69.3773L55.5322 83.0408L61.8641 82.2269L59.9669 67.4683C59.8016 66.1829 59.5058 65.011 59.0257 63.9113C58.5455 62.8115 57.8933 61.8791 57.0752 61.1615C56.257 60.444 55.3144 59.8876 54.1997 59.4986C53.0435 59.1633 51.7751 59.0843 50.2992 59.2741C49.0138 59.4393 47.8127 59.8841 46.6483 60.6145C45.4363 61.351 44.5529 62.3841 43.9917 63.6661L43.6184 60.762L37.4769 61.5515L40.488 84.9747L46.8199 84.1608ZM80.2531 65.2477L69.7793 66.5941C69.7595 66.0643 69.8289 65.4746 69.9997 64.9203C70.1704 64.366 70.4363 63.7995 70.8097 63.316C71.1831 62.8324 71.7054 62.3781 72.2876 62.0129C72.8698 61.6477 73.6132 61.4069 74.4225 61.3029C75.3271 61.1866 76.1072 61.2315 76.7628 61.4376C77.4599 61.59 78.0326 61.9035 78.5161 62.2769C78.9997 62.6503 79.3941 63.0835 79.658 63.6304C79.9634 64.1235 80.132 64.6825 80.2531 65.2477ZM87.1418 72.1537L81.6553 71.262C81.4091 72.3583 80.9004 73.2948 80.1291 74.0715C79.4054 74.8421 78.2581 75.3283 76.7822 75.518C75.9729 75.6221 75.2404 75.5711 74.4957 75.4248C73.7448 75.231 73.077 74.9297 72.4921 74.5209C71.9072 74.1121 71.4053 73.5959 70.9924 73.0199C70.5735 72.3962 70.3389 71.7004 70.1934 70.9448L86.9515 68.7906C86.9453 68.743 86.9147 68.5049 86.9134 68.1179C86.9059 67.6833 86.8508 67.2549 86.7958 66.8264C86.3123 63.0653 84.9269 60.1945 82.6044 58.3153C80.2818 56.4361 77.3322 55.7022 73.6663 56.1734C72.1905 56.3632 70.7514 56.8385 69.4503 57.6349C68.1431 58.3837 67.0093 59.3522 66.0551 60.5879C65.1423 61.7699 64.4506 63.1655 64.0276 64.7685C63.6045 66.3716 63.4916 68.1283 63.7302 69.985C63.9812 71.937 64.5408 73.6556 65.4093 75.141C66.2302 76.6325 67.3 77.8017 68.5357 78.7559C69.7715 79.7101 71.1609 80.3542 72.7102 80.7358C74.2534 81.0698 75.8136 81.1596 77.4323 80.9515C78.8605 80.7679 80.1691 80.4061 81.3103 79.8723C82.4455 79.2908 83.3779 78.6386 84.1968 77.8558C85.0157 77.073 85.6795 76.2133 86.1821 75.2292C86.6847 74.2451 86.9847 73.1902 87.1418 72.1537ZM108.97 52.3611L102.305 53.2179L99.1447 68.917L92.8784 54.4297L86.2133 55.2865L96.6988 77.7489L103.126 76.9227L106.449 60.2348L113.981 75.5273L120.313 74.7134L124.633 50.3476L118.349 51.1555L115.957 66.8042L108.97 52.3611ZM162.244 65.016L158.357 34.7848L152.121 35.5865L153.841 48.9644C153.655 48.6495 153.374 48.3469 152.998 48.0564C152.622 47.766 152.109 47.5416 151.549 47.3232C150.988 47.1049 150.291 46.9525 149.552 46.8539C148.766 46.7614 147.849 46.7825 146.85 46.911C145.183 47.1252 143.75 47.6482 142.449 48.4445C141.148 49.2409 140.068 50.2509 139.209 51.4744C138.35 52.6979 137.76 54.1289 137.378 55.6782C137.044 57.2213 136.967 58.8767 137.187 60.5906C137.413 62.3521 137.913 63.9817 138.674 65.3841C139.441 66.8341 140.368 68.0216 141.509 68.9881C142.649 69.9546 143.997 70.6524 145.458 71.0938C146.924 71.5829 148.532 71.6666 150.198 71.4524C151.769 71.2504 153.107 70.7397 154.122 69.98C155.185 69.2142 155.938 68.2947 156.346 67.3228C156.413 67.8465 156.48 68.3702 156.595 68.8878C156.71 69.4054 156.854 69.774 156.933 70.0059L162.979 69.2287C162.87 68.7587 162.743 68.1459 162.597 67.3903C162.446 66.5871 162.348 65.8254 162.244 65.016ZM143.566 59.7705C143.297 57.6758 143.66 55.9837 144.609 54.7003C145.604 53.4108 146.911 52.662 148.53 52.454C150.149 52.2459 151.603 52.6397 152.845 53.6415C154.08 54.5958 154.86 56.141 155.129 58.2358C155.405 60.3781 155.041 62.0703 154.099 63.4012C153.157 64.7322 151.85 65.481 150.231 65.6891C148.565 65.9033 147.063 65.5156 145.816 64.4661C144.568 63.4167 143.836 61.8653 143.566 59.7705ZM181.426 52.242L170.952 53.5884C170.933 53.0586 171.002 52.4689 171.173 51.9146C171.343 51.3603 171.609 50.7938 171.983 50.3103C172.356 49.8267 172.879 49.3724 173.461 49.0072C174.043 48.642 174.786 48.4012 175.596 48.2972C176.5 48.1809 177.28 48.2258 177.936 48.4319C178.633 48.5843 179.206 48.8978 179.689 49.2712C180.173 49.6446 180.567 50.0778 180.831 50.6247C181.136 51.1178 181.305 51.6768 181.426 52.242ZM188.315 59.148L182.828 58.2563C182.582 59.3526 182.073 60.2891 181.302 61.0658C180.579 61.8364 179.431 62.3226 177.955 62.5123C177.146 62.6164 176.414 62.5654 175.669 62.4191C174.918 62.2253 174.25 61.924 173.665 61.5152C173.08 61.1064 172.578 60.5902 172.166 60.0142C171.747 59.3905 171.512 58.6947 171.366 57.9391L188.125 55.7849C188.118 55.7373 188.088 55.4992 188.087 55.1122C188.079 54.6776 188.024 54.2492 187.969 53.8207C187.485 50.0596 186.1 47.1888 183.778 45.3096C181.455 43.4304 178.505 42.6965 174.839 43.1677C173.364 43.3575 171.924 43.8328 170.623 44.6292C169.316 45.378 168.182 46.3465 167.228 47.5822C166.315 48.7642 165.624 50.1598 165.201 51.7628C164.778 53.3659 164.665 55.1226 164.903 56.9793C165.154 58.9313 165.714 60.6499 166.582 62.1353C167.403 63.6268 168.473 64.796 169.709 65.7502C170.945 66.7044 172.334 67.3485 173.883 67.7301C175.427 68.0641 176.987 68.1539 178.605 67.9458C180.034 67.7622 181.342 67.4004 182.483 66.8665C183.619 66.2851 184.551 65.6329 185.37 64.8501C186.189 64.0673 186.853 63.2076 187.355 62.2235C187.858 61.2394 188.158 60.1845 188.315 59.148ZM196.019 57.1414L190.745 59.0293C190.878 59.6897 191.214 60.4208 191.699 61.1812C192.142 61.9953 192.818 62.7312 193.671 63.3474C194.525 63.9636 195.604 64.454 196.862 64.8247C198.119 65.1954 199.673 65.2376 201.435 65.0111C202.958 64.8153 204.261 64.4059 205.348 63.8305C206.436 63.2552 207.308 62.5139 207.978 61.7018C208.648 60.8898 209.109 59.9594 209.326 59.012C209.591 58.0585 209.659 57.0818 209.536 56.1297C209.316 54.4158 208.549 52.9658 207.194 51.8333C205.886 50.6948 204.055 50.0105 201.661 49.8343L198.237 49.5486C197.6 49.4854 197.046 49.3146 196.622 49.0303C196.151 48.7522 195.899 48.3006 195.825 47.7293C195.74 47.0627 195.952 46.4547 196.516 45.9467C197.032 45.4448 197.716 45.1149 198.525 45.0109C199.191 44.9252 199.775 44.947 200.228 45.0823C200.728 45.2116 201.14 45.4007 201.516 45.6911C201.892 45.9815 202.173 46.2842 202.365 46.6467C202.55 46.9616 202.695 47.3302 202.785 47.6573L207.917 45.7878C207.789 45.175 207.46 44.4915 207.028 43.7726C206.591 43.0061 205.976 42.3593 205.17 41.737C204.364 41.1146 203.338 40.6657 202.14 40.3841C200.937 40.0549 199.525 39.9944 197.859 40.2086C196.574 40.3738 195.456 40.7111 194.463 41.2742C193.423 41.8435 192.586 42.4834 191.916 43.2955C191.193 44.066 190.678 44.9549 190.372 45.9622C190.059 46.9218 189.95 47.9522 190.085 48.9996C190.299 50.6659 191.006 52.0268 192.219 53.1776C193.425 54.2808 195.202 54.9235 197.554 55.1534L200.74 55.4698C201.67 55.5439 202.373 55.7439 202.809 56.1234C203.239 56.4553 203.49 56.9069 203.557 57.4306C203.637 58.0495 203.472 58.6514 203.01 59.1948C202.541 59.6906 201.81 60.0266 200.763 60.1612C199.382 60.3387 198.286 60.0925 197.48 59.4701C196.674 58.8478 196.183 58.0398 196.019 57.1414ZM214.135 62.6525L220.467 61.8386L217.456 38.4153L211.124 39.2293L214.135 62.6525ZM209.377 31.6623C209.512 32.7097 210.009 33.5653 210.869 34.2291C211.728 34.8929 212.682 35.1575 213.777 35.0167C214.872 34.8759 215.775 34.3727 216.439 33.513C217.055 32.6595 217.32 31.706 217.185 30.6586C217.044 29.5636 216.541 28.6604 215.729 27.9905C214.869 27.3267 213.868 27.0682 212.773 27.2089C211.678 27.3497 210.823 27.8469 210.159 28.7065C209.495 29.5662 209.237 30.5673 209.377 31.6623ZM229.794 60.3976L224.277 62.6555C224.561 63.7321 225.082 64.7782 225.836 65.746C226.583 66.6662 227.461 67.4728 228.565 68.1536C229.663 68.7869 230.885 69.2589 232.279 69.5636C233.62 69.8268 235.126 69.8752 236.745 69.6671C238.935 69.3856 240.749 68.8136 242.234 67.9452C243.713 67.0291 244.835 65.9654 245.694 64.7419C246.547 63.4708 247.096 62.0935 247.382 60.5565C247.621 59.0255 247.657 57.4239 247.449 55.8052L244.762 34.9052L238.668 35.6885L239.023 38.4498C238.491 37.6955 237.685 37.0732 236.504 36.5475C235.323 36.0217 233.805 35.8782 231.948 36.1169C230.329 36.3249 228.89 36.8003 227.637 37.5906C226.383 38.3808 225.345 39.3371 224.527 40.5068C223.71 41.6766 223.101 42.9647 222.755 44.4127C222.409 45.8607 222.313 47.3732 222.515 48.9443C222.729 50.6106 223.204 52.0497 223.953 53.3569C224.654 54.6703 225.575 55.8102 226.703 56.6814C227.784 57.5588 229.031 58.2212 230.437 58.6212C231.843 59.0211 233.308 59.1232 234.88 58.9212C236.593 58.7009 237.931 58.1902 238.947 57.4305C239.962 56.6708 240.638 55.9064 241.016 55.0835L241.237 56.7973C241.53 59.0825 241.221 60.8162 240.261 62.0043C239.294 63.1448 237.838 63.8644 235.838 64.1214C234.315 64.3172 233.022 64.0479 231.966 63.3609C230.91 62.674 230.198 61.6525 229.794 60.3976ZM235.277 53.3531C233.611 53.5673 232.21 53.215 231.028 52.3022C229.84 51.3419 229.133 49.981 228.894 48.1242C228.778 47.2197 228.817 46.392 229.01 45.6411C229.204 44.8903 229.506 44.2224 229.962 43.6314C230.418 43.0404 230.935 42.5385 231.618 42.2086C232.248 41.8373 232.944 41.6027 233.753 41.4987C235.276 41.3028 236.629 41.6613 237.865 42.6155C239.095 43.5221 239.802 44.883 240.034 46.6922C240.267 48.5013 239.927 49.9968 239.068 51.2203C238.161 52.45 236.896 53.145 235.277 53.3531ZM259.128 56.8687L257.397 43.3956C257.219 42.0149 257.453 40.8234 258.092 39.7733C258.738 38.7708 259.772 38.154 261.152 37.9765C262.676 37.7807 263.826 38.0684 264.656 38.8811C265.439 39.7 265.913 40.7522 266.084 42.0852L267.841 55.7488L274.173 54.9348L272.276 40.1762C272.11 38.8908 271.814 37.719 271.334 36.6192C270.854 35.5195 270.202 34.587 269.384 33.8695C268.566 33.1519 267.623 32.5956 266.508 32.2065C265.352 31.8712 264.084 31.7923 262.608 31.982C261.322 32.1472 260.121 32.592 258.957 33.3224C257.745 34.059 256.861 35.092 256.3 36.374L255.927 33.4699L249.786 34.2594L252.797 57.6827L259.128 56.8687Z" fill="#191B20"/>
	<rect x="150" y="83.6675" width="282" height="67" rx="33.5" transform="rotate(-1.15153 150 83.6675)" fill="#5CEE9C"/>
	<path d="M191.663 133.84L191.39 120.259C191.362 118.867 191.723 117.708 192.471 116.732C193.221 115.805 194.315 115.303 195.707 115.275C197.243 115.244 198.355 115.654 199.093 116.551C199.783 117.45 200.141 118.547 200.168 119.89L200.445 133.664L206.828 133.535L206.529 118.658C206.503 117.363 206.335 116.166 205.976 115.021C205.617 113.876 205.069 112.879 204.332 112.077C203.596 111.276 202.719 110.621 201.652 110.115C200.539 109.657 199.286 109.442 197.799 109.472C196.503 109.498 195.261 109.811 194.025 110.412C192.741 111.014 191.751 111.946 191.055 113.16L190.997 110.233L184.806 110.357L185.28 133.968L191.663 133.84ZM226.936 118.632L216.378 118.844C216.416 118.316 216.548 117.737 216.778 117.204C217.007 116.671 217.332 116.137 217.756 115.696C218.179 115.256 218.747 114.86 219.365 114.56C219.983 114.259 220.748 114.1 221.564 114.083C222.476 114.065 223.246 114.193 223.876 114.469C224.553 114.695 225.088 115.069 225.529 115.492C225.97 115.915 226.315 116.388 226.519 116.96C226.769 117.483 226.877 118.057 226.936 118.632ZM233.042 126.239L227.684 124.762C227.321 125.826 226.714 126.702 225.864 127.392C225.062 128.08 223.869 128.44 222.381 128.47C221.565 128.486 220.843 128.357 220.118 128.131C219.392 127.858 218.761 127.486 218.223 127.017C217.686 126.548 217.242 125.981 216.894 125.363C216.544 124.698 216.386 123.981 216.322 123.214L233.215 122.875C233.214 122.827 233.209 122.587 233.249 122.202C233.289 121.769 233.28 121.337 233.271 120.905C233.195 117.114 232.127 114.111 230.02 111.993C227.913 109.875 225.059 108.828 221.364 108.902C219.876 108.932 218.394 109.25 217.015 109.902C215.635 110.506 214.403 111.347 213.322 112.473C212.287 113.55 211.449 114.863 210.856 116.411C210.263 117.959 209.962 119.694 210 121.565C210.039 123.533 210.411 125.302 211.115 126.872C211.77 128.443 212.708 129.72 213.834 130.802C214.96 131.884 216.272 132.673 217.772 133.219C219.27 133.717 220.811 133.974 222.443 133.942C223.883 133.913 225.223 133.694 226.415 133.286C227.606 132.83 228.603 132.282 229.501 131.591C230.4 130.901 231.152 130.118 231.758 129.193C232.363 128.269 232.775 127.253 233.042 126.239ZM256.873 108.909L250.154 109.044L245.324 124.312L240.652 109.235L233.933 109.37L241.942 132.83L248.421 132.699L253.52 116.466L259.363 132.479L265.746 132.351L272.661 108.591L266.327 108.719L262.265 124.019L256.873 108.909ZM292.102 131.821L291.829 118.24C291.801 116.848 292.161 115.689 292.91 114.714C293.659 113.786 294.754 113.284 296.145 113.256C297.681 113.225 298.793 113.635 299.532 114.532C300.222 115.431 300.58 116.528 300.607 117.872L300.884 131.645L307.267 131.516L306.967 116.639C306.941 115.344 306.773 114.147 306.414 113.002C306.055 111.857 305.507 110.86 304.771 110.058C304.035 109.257 303.157 108.602 302.091 108.096C300.977 107.638 299.725 107.423 298.237 107.453C296.941 107.479 295.699 107.792 294.463 108.393C293.179 108.995 292.19 109.927 291.494 111.141L291.435 108.214L285.244 108.338L285.719 131.95L292.102 131.821ZM310.596 125.016C310.615 125.928 310.825 126.836 311.225 127.644C311.579 128.501 312.122 129.258 312.855 129.916C313.588 130.525 314.462 131.036 315.479 131.447C316.494 131.811 317.602 131.981 318.849 131.956C320.625 131.92 322.058 131.555 323.195 130.812C324.285 130.07 325.132 129.237 325.738 128.313C325.746 128.745 325.805 129.271 325.864 129.846C325.923 130.373 325.98 130.804 326.034 131.139L331.889 131.022C331.833 130.591 331.726 130.065 331.664 129.346C331.601 128.627 331.539 127.908 331.526 127.284L331.293 115.67C331.269 114.471 331.054 113.371 330.696 112.274C330.29 111.178 329.696 110.277 328.864 109.478C328.031 108.679 326.914 108.029 325.609 107.575C324.302 107.073 322.714 106.865 320.842 106.903C319.259 106.935 317.824 107.203 316.634 107.707C315.443 108.163 314.399 108.809 313.598 109.545C312.797 110.281 312.142 111.158 311.681 112.08C311.219 113.001 310.95 113.967 310.873 114.881L316.56 115.967C316.635 114.957 317.049 114.036 317.801 113.253C318.506 112.471 319.602 112.065 320.994 112.037C322.337 112.01 323.351 112.277 324.035 112.888C324.672 113.499 325.022 114.212 325.038 115.028C325.047 115.46 324.91 115.799 324.676 116.091C324.443 116.432 323.967 116.634 323.297 116.743L317.507 117.724C316.502 117.888 315.596 118.194 314.787 118.547C313.93 118.9 313.172 119.395 312.561 120.032C311.949 120.668 311.435 121.351 311.115 122.173C310.748 122.997 310.575 123.96 310.596 125.016ZM320.098 127.178C319.09 127.198 318.316 126.925 317.777 126.36C317.238 125.843 316.986 125.224 316.971 124.504C316.953 123.592 317.226 122.867 317.793 122.375C318.312 121.933 319.026 121.63 319.839 121.47L325.149 120.547L325.171 121.603C325.192 122.658 325.065 123.525 324.791 124.203C324.517 124.928 324.144 125.464 323.673 125.906C323.202 126.347 322.68 126.694 322.059 126.85C321.439 127.055 320.77 127.164 320.098 127.178ZM336.5 130.929L342.883 130.801L342.605 116.979C342.579 115.684 342.941 114.572 343.691 113.645C344.44 112.718 345.535 112.264 346.927 112.236C348.367 112.207 349.431 112.617 350.119 113.42C350.809 114.27 351.166 115.319 351.192 116.615L351.473 130.628L357.808 130.501L357.53 116.679C357.504 115.384 357.867 114.32 358.617 113.393C359.366 112.466 360.412 111.964 361.804 111.936C363.292 111.907 364.356 112.317 365.045 113.168C365.686 113.971 366.043 115.02 366.069 116.316L366.35 130.329L372.541 130.204L372.233 114.895C372.202 113.312 371.935 111.973 371.433 110.879C370.93 109.737 370.286 108.789 369.456 108.086C368.626 107.382 367.703 106.873 366.689 106.557C365.674 106.242 364.615 106.071 363.511 106.093C361.927 106.125 360.541 106.441 359.306 107.09C358.07 107.691 356.986 108.721 356.103 110.179C355.454 108.896 354.522 107.954 353.309 107.306C352.096 106.659 350.649 106.352 349.018 106.384C348.394 106.397 347.724 106.506 347.055 106.664C346.338 106.822 345.719 107.075 345.101 107.375C344.483 107.676 343.915 108.071 343.395 108.514C342.876 108.956 342.503 109.492 342.179 110.075L342.121 107.195L336.026 107.318L336.5 130.929ZM392.638 115.302L382.08 115.514C382.117 114.985 382.25 114.406 382.479 113.873C382.708 113.341 383.034 112.806 383.457 112.365C383.88 111.925 384.448 111.529 385.067 111.229C385.685 110.928 386.45 110.769 387.265 110.753C388.177 110.734 388.948 110.863 389.578 111.138C390.254 111.365 390.79 111.738 391.23 112.161C391.671 112.584 392.017 113.058 392.22 113.63C392.471 114.153 392.578 114.727 392.638 115.302ZM398.744 122.908L393.385 121.432C393.023 122.495 392.416 123.372 391.566 124.061C390.763 124.749 389.57 125.109 388.083 125.139C387.267 125.155 386.544 125.026 385.819 124.8C385.094 124.527 384.462 124.156 383.925 123.686C383.387 123.217 382.944 122.65 382.595 122.033C382.246 121.368 382.087 120.651 382.024 119.884L398.916 119.544C398.915 119.496 398.911 119.256 398.951 118.871C398.99 118.438 398.982 118.007 398.973 117.575C398.897 113.783 397.828 110.78 395.721 108.662C393.614 106.544 390.76 105.497 387.065 105.572C385.578 105.601 384.096 105.919 382.716 106.571C381.336 107.175 380.105 108.016 379.023 109.142C377.989 110.219 377.151 111.532 376.558 113.08C375.965 114.628 375.664 116.363 375.701 118.234C375.741 120.202 376.113 121.971 376.816 123.541C377.472 125.112 378.41 126.39 379.536 127.471C380.662 128.553 381.974 129.343 383.473 129.889C384.971 130.387 386.513 130.644 388.145 130.611C389.584 130.582 390.924 130.363 392.116 129.955C393.307 129.499 394.305 128.951 395.203 128.261C396.101 127.57 396.854 126.787 397.459 125.863C398.065 124.938 398.476 123.922 398.744 122.908Z" fill="#191B20"/>
	<path d="M479.107 82.1641C478.876 83.3416 479.096 84.4611 479.787 85.4282C480.421 86.4331 481.374 87.0604 482.552 87.2915C483.164 87.4117 483.748 87.4284 484.312 87.2946C484.877 87.1607 485.403 86.9706 485.863 86.6206C486.361 86.327 486.736 85.9114 487.073 85.4395C487.41 84.9676 487.606 84.468 487.726 83.8557C487.847 83.2434 487.863 82.6597 487.729 82.0953C487.596 81.531 487.396 81.0516 487.055 80.5445C486.753 80.0937 486.337 79.7187 485.865 79.3815C485.393 79.0443 484.847 78.8392 484.234 78.719C483.057 78.4879 481.937 78.7085 480.979 79.3521C479.965 80.0335 479.338 80.9866 479.107 82.1641ZM490.757 84.4504C490.526 85.628 490.747 86.7474 491.437 87.7145C492.072 88.7195 493.025 89.3468 494.202 89.5779C494.814 89.698 495.398 89.7147 495.962 89.5809C496.527 89.4471 497.053 89.2569 497.513 88.907C498.011 88.6133 498.386 88.1978 498.723 87.7259C499.061 87.254 499.256 86.7544 499.377 86.142C499.497 85.5297 499.514 84.946 499.38 84.3817C499.246 83.8173 499.046 83.338 498.706 82.8309C498.403 82.3801 497.987 82.005 497.515 81.6679C497.044 81.3307 496.497 81.1255 495.884 81.0054C494.707 80.7743 493.587 80.9948 492.63 81.6384C491.615 82.3199 490.988 83.2729 490.757 84.4504ZM502.407 86.7368C502.176 87.9143 502.397 89.0338 503.087 90.0009C503.722 91.0058 504.675 91.6331 505.852 91.8642C506.465 91.9844 507.048 92.0011 507.613 91.8673C508.177 91.7334 508.704 91.5433 509.164 91.1933C509.661 90.8997 510.036 90.4841 510.374 90.0122C510.711 89.5403 510.907 89.0407 511.027 88.4284C511.147 87.8161 511.164 87.2324 511.03 86.668C510.896 86.1037 510.697 85.6243 510.356 85.1172C510.053 84.6664 509.638 84.2914 509.166 83.9542C508.694 83.617 508.147 83.4119 507.535 83.2917C506.357 83.0606 505.238 83.2812 504.28 83.9248C503.266 84.6062 502.638 85.5593 502.407 86.7368Z" fill="#191B20"/>
	<rect x="160" y="177.082" width="443" height="67" rx="33.5" transform="rotate(-7.66421 160 177.082)" fill="#0285FD"/>
	<path d="M207.086 222.205L200.759 223.056L197.61 199.651L203.746 198.826L204.137 201.727C204.704 200.424 205.584 199.402 206.775 198.66C207.935 197.923 209.15 197.469 210.418 197.298C211.845 197.106 213.146 197.173 214.32 197.5C215.403 197.87 216.365 198.419 217.205 199.145C218.01 199.844 218.665 200.757 219.172 201.884C219.634 202.919 219.955 204.103 220.134 205.435L222.119 220.182L215.792 221.033L213.954 207.381C213.78 206.08 213.297 205.015 212.507 204.185C211.69 203.391 210.52 203.096 208.998 203.301C207.603 203.489 206.586 204.094 205.949 205.116C205.316 206.17 205.091 207.379 205.275 208.742L207.086 222.205ZM240.407 203.094C240.254 202.437 240.052 201.899 239.802 201.481C239.539 200.967 239.156 200.518 238.652 200.134C238.113 199.722 237.527 199.446 236.894 199.305C236.221 199.105 235.441 199.065 234.553 199.184C233.729 199.295 233.018 199.536 232.422 199.907C231.827 200.278 231.337 200.715 230.952 201.219C230.595 201.686 230.329 202.223 230.152 202.828C229.998 203.365 229.928 203.923 229.941 204.503L240.407 203.094ZM247.336 209.96C247.164 211.08 246.851 212.108 246.395 213.041C245.908 213.978 245.251 214.857 244.425 215.679C243.627 216.464 242.669 217.142 241.551 217.712C240.428 218.251 239.138 218.618 237.679 218.815C236.125 219.024 234.551 218.961 232.956 218.627C231.388 218.257 229.993 217.605 228.77 216.672C227.438 215.656 226.389 214.457 225.622 213.075C224.747 211.611 224.177 209.896 223.912 207.929C223.665 206.09 223.754 204.351 224.179 202.711C224.581 201.14 225.248 199.742 226.182 198.519C227.115 197.295 228.241 196.304 229.559 195.546C230.81 194.764 232.213 194.268 233.767 194.059C237.382 193.573 240.366 194.269 242.717 196.148C245.033 198 246.447 200.829 246.959 204.634C247.036 205.205 247.077 205.635 247.084 205.925C247.087 206.183 247.101 206.407 247.126 206.598L230.381 208.851C230.555 209.667 230.826 210.357 231.192 210.921C231.627 211.509 232.129 212.006 232.701 212.413C233.304 212.817 233.974 213.114 234.71 213.305C235.505 213.457 236.267 213.483 236.997 213.385C238.487 213.185 239.6 212.696 240.335 211.919C241.102 211.138 241.605 210.198 241.845 209.1L247.336 209.96ZM269.047 190.038L276.119 204.44L278.419 188.777L284.698 187.932L280.522 212.323L274.195 213.174L266.573 197.927L263.348 214.634L256.926 215.498L246.308 193.098L252.968 192.202L259.32 206.652L262.387 190.934L269.047 190.038ZM332.193 205.369L329.012 181.727L322.489 206.675L317.018 207.412L304.158 185.265L307.314 208.717L301.034 209.562L296.495 175.834L305.153 174.669L318.564 197.662L325.181 171.974L334.124 170.771L338.663 204.499L332.193 205.369ZM357.436 187.346C357.283 186.688 357.081 186.15 356.831 185.732C356.568 185.219 356.185 184.77 355.681 184.385C355.142 183.974 354.555 183.697 353.923 183.557C353.25 183.356 352.47 183.316 351.582 183.436C350.757 183.547 350.047 183.787 349.451 184.158C348.855 184.529 348.365 184.966 347.981 185.47C347.624 185.938 347.357 186.474 347.181 187.079C347.027 187.617 346.957 188.175 346.97 188.754L357.436 187.346ZM364.365 194.211C364.193 195.332 363.879 196.359 363.424 197.292C362.936 198.23 362.28 199.109 361.454 199.93C360.656 200.716 359.698 201.394 358.58 201.964C357.457 202.502 356.167 202.87 354.708 203.066C353.154 203.275 351.58 203.213 349.985 202.878C348.417 202.508 347.022 201.856 345.799 200.923C344.467 199.908 343.418 198.709 342.651 197.327C341.776 195.863 341.206 194.147 340.941 192.181C340.694 190.341 340.783 188.602 341.208 186.963C341.61 185.391 342.277 183.994 343.21 182.77C344.144 181.547 345.27 180.556 346.588 179.797C347.839 179.015 349.241 178.52 350.795 178.311C354.411 177.824 357.394 178.521 359.746 180.4C362.062 182.251 363.476 185.08 363.988 188.886C364.065 189.457 364.106 189.887 364.113 190.177C364.115 190.435 364.129 190.659 364.155 190.849L347.41 193.102C347.584 193.918 347.855 194.609 348.221 195.173C348.656 195.76 349.158 196.257 349.73 196.665C350.333 197.068 351.003 197.365 351.739 197.557C352.534 197.708 353.296 197.735 354.026 197.637C355.516 197.436 356.629 196.947 357.364 196.17C358.131 195.389 358.634 194.45 358.874 193.352L364.365 194.211ZM374.089 175.903L378.799 175.269L379.554 180.882L374.845 181.516L376.163 191.316C376.3 192.331 376.616 192.998 377.111 193.319C377.61 193.672 378.336 193.784 379.287 193.656C379.795 193.588 380.173 193.521 380.423 193.455C380.826 193.336 381.09 193.252 381.212 193.203L381.916 198.436C381.739 198.557 381.312 198.743 380.635 198.996C380.145 199.191 379.408 199.355 378.425 199.487C376.11 199.799 374.217 199.408 372.746 198.314C371.239 197.193 370.334 195.507 370.031 193.255L368.565 182.361L364.331 182.931L363.576 177.317L364.765 177.157C365.97 176.995 366.841 176.507 367.377 175.692C367.85 174.886 368.018 173.975 367.881 172.96L367.44 169.678L373.148 168.91L374.089 175.903ZM383.369 191.993C383.224 190.914 383.289 189.953 383.563 189.109C383.754 188.373 384.152 187.609 384.756 186.818C385.277 186.134 385.958 185.558 386.799 185.09C387.668 184.585 388.538 184.21 389.409 183.964L395.049 182.333C395.734 182.144 396.166 181.876 396.346 181.529C396.557 181.177 396.637 180.811 396.586 180.431C396.479 179.638 396.066 178.967 395.346 178.418C394.631 177.901 393.591 177.734 392.227 177.918C390.8 178.11 389.789 178.633 389.194 179.488C388.535 180.352 388.226 181.297 388.268 182.325L382.494 181.891C382.462 180.927 382.623 179.969 382.979 179.017C383.359 177.997 383.898 177.085 384.597 176.281C385.351 175.404 386.287 174.681 387.405 174.111C388.546 173.473 389.909 173.047 391.495 172.834C393.398 172.578 395.002 172.62 396.307 172.961C397.671 173.262 398.821 173.769 399.757 174.483C400.656 175.169 401.369 176.026 401.894 177.053C402.397 178.147 402.723 179.25 402.872 180.36L404.421 191.872C404.477 192.284 404.6 192.962 404.792 193.905C404.822 194.127 404.867 194.347 404.929 194.564C404.986 194.75 405.044 194.936 405.101 195.122C405.158 195.308 405.193 195.449 405.206 195.544L399.402 196.325C399.296 196.017 399.191 195.595 399.087 195.06C398.921 194.307 398.821 193.804 398.787 193.55C398.308 194.551 397.561 195.475 396.545 196.322C395.528 197.169 394.132 197.712 392.356 197.951C391.151 198.114 390.016 198.073 388.95 197.829C387.875 197.521 386.948 197.113 386.169 196.604C385.382 196.032 384.756 195.342 384.292 194.532C383.801 193.759 383.493 192.912 383.369 191.993ZM393.055 193.063C393.752 192.969 394.39 192.786 394.967 192.515C395.489 192.315 395.987 191.941 396.462 191.393C396.91 190.881 397.216 190.275 397.38 189.575C397.576 188.87 397.603 187.995 397.463 186.948L397.322 185.902L392.15 187.421C391.315 187.695 390.672 188.072 390.22 188.552C389.713 189.105 389.521 189.841 389.645 190.761C389.743 191.49 390.08 192.074 390.656 192.514C391.24 193.016 392.04 193.199 393.055 193.063ZM410.491 194.833L405.952 161.105L427.264 158.237L428.102 164.469L413.355 166.453L414.476 174.778L427.605 173.012L428.418 179.053L415.336 180.814L417.103 193.943L410.491 194.833ZM435.434 191.476L432.284 168.071L438.611 167.22L441.761 190.625L435.434 191.476ZM430.493 160.515C430.343 159.405 430.598 158.418 431.257 157.554C431.915 156.691 432.784 156.187 433.862 156.041C434.972 155.892 435.959 156.147 436.822 156.805C437.658 157.5 438.149 158.387 438.294 159.465C438.431 160.48 438.188 161.433 437.565 162.324C436.906 163.187 436.022 163.694 434.912 163.843C433.834 163.988 432.863 163.731 431.999 163.073C431.136 162.414 430.633 161.561 430.493 160.515ZM472.921 162.603L479.993 177.004L482.293 161.342L488.572 160.497L484.396 184.888L478.069 185.739L470.447 170.491L467.223 187.199L460.801 188.063L450.182 165.663L456.842 164.767L463.194 179.217L466.261 163.499L472.921 162.603ZM501.789 176.977C502.557 177.165 503.321 177.207 504.083 177.105C504.844 177.002 505.57 176.759 506.261 176.376C506.979 175.956 507.556 175.442 507.991 174.835C508.43 174.259 508.766 173.52 509 172.617C509.234 171.713 509.278 170.723 509.133 169.644C508.988 168.566 508.683 167.622 508.219 166.813C507.755 166.004 507.235 165.379 506.659 164.94C506.079 164.469 505.387 164.127 504.584 163.912C503.847 163.72 503.083 163.678 502.29 163.785C501.529 163.887 500.803 164.13 500.112 164.514C499.393 164.933 498.817 165.447 498.382 166.054C497.943 166.63 497.606 167.369 497.373 168.273C497.139 169.176 497.095 170.166 497.24 171.245C497.385 172.323 497.69 173.267 498.154 174.076C498.618 174.886 499.138 175.51 499.713 175.949C500.293 176.42 500.985 176.763 501.789 176.977ZM496.737 159.592C498.147 158.789 499.74 158.267 501.516 158.028C503.292 157.789 504.965 157.871 506.537 158.273C508.145 158.702 509.56 159.384 510.784 160.317C512.007 161.25 513.04 162.451 513.884 163.92C514.687 165.329 515.212 166.954 515.46 168.793C515.712 170.664 515.632 172.354 515.222 173.862C514.796 175.501 514.117 176.933 513.184 178.156C512.251 179.379 511.066 180.411 509.629 181.25C508.255 182.08 506.665 182.617 504.857 182.861C503.049 183.104 501.374 183.007 499.829 182.569C498.222 182.139 496.806 181.458 495.583 180.525C494.359 179.592 493.326 178.391 492.483 176.922C491.688 175.576 491.165 173.967 490.913 172.096C490.665 170.257 490.743 168.551 491.145 166.98C491.57 165.34 492.249 163.909 493.182 162.685C494.115 161.462 495.3 160.431 496.737 159.592ZM532.607 160.964C532.051 160.91 531.408 160.932 530.679 161.03C529.791 161.149 529.029 161.365 528.392 161.677C527.606 162.073 527.021 162.523 526.637 163.027C526.166 163.607 525.827 164.33 525.621 165.198C525.392 166.133 525.36 167.218 525.527 168.455L526.967 179.159L520.64 180.01L517.491 156.605L523.627 155.779L524.095 159.252C524.318 158.512 524.692 157.816 525.218 157.164C525.693 156.615 526.231 156.172 526.831 155.833C527.495 155.485 528.09 155.227 528.616 155.06C529.206 154.883 529.754 154.761 530.262 154.693L531.023 154.59C531.118 154.578 531.247 154.576 531.41 154.587C531.573 154.597 531.686 154.598 531.749 154.59L532.607 160.964ZM537.656 177.72L533.021 143.279L539.348 142.427L543.983 176.869L537.656 177.72ZM571.079 168.912C571.22 169.959 571.342 170.75 571.446 171.284C571.581 172.041 571.711 172.653 571.839 173.121L565.797 173.934C565.63 173.407 565.515 173.035 565.453 172.817C565.375 172.473 565.288 171.952 565.194 171.254C564.783 172.278 564.048 173.168 562.987 173.924C561.962 174.708 560.657 175.206 559.071 175.42C557.295 175.659 555.715 175.549 554.329 175.089C552.816 174.647 551.496 173.953 550.368 173.007C549.24 172.061 548.288 170.865 547.512 169.42C546.74 168.006 546.235 166.411 545.996 164.635C545.77 162.954 545.824 161.317 546.158 159.722C546.552 158.087 547.154 156.682 547.964 155.507C548.834 154.292 549.908 153.276 551.187 152.458C552.528 151.632 553.992 151.112 555.578 150.899C556.593 150.762 557.493 150.738 558.28 150.826C559.071 150.945 559.738 151.098 560.279 151.283C560.96 151.547 561.445 151.788 561.733 152.008C562.093 152.282 562.375 152.583 562.581 152.911L560.782 139.543L567.014 138.705L571.079 168.912ZM552.371 163.777C552.652 165.871 553.411 167.431 554.648 168.46C555.884 169.488 557.358 169.887 559.071 169.656C560.72 169.434 562.005 168.664 562.925 167.346C563.873 165.991 564.206 164.267 563.924 162.174C563.643 160.081 562.872 158.554 561.613 157.594C560.381 156.597 558.94 156.21 557.291 156.432C555.674 156.649 554.371 157.406 553.383 158.701C552.431 160.024 552.093 161.716 552.371 163.777Z" fill="white"/>
	<rect x="428.605" y="35.5947" width="152.631" height="66" rx="33" transform="rotate(12.2546 428.605 35.5947)" stroke="#80889C"/>
</svg>
