<svg width="14" height="15" viewBox="0 0 14 15" fill="none" xmlns="http://www.w3.org/2000/svg">
	<path d="M3.56255 2.25C3.25188 2.25 3.00004 2.50184 3.00004 2.8125V6.1875C3.00004 6.49816 3.25188 6.75 3.56255 6.75H7.6876C7.99827 6.75 8.25011 6.49816 8.25011 6.1875V2.8125C8.25011 2.50184 7.99827 2.25 7.6876 2.25H3.56255ZM4.12506 5.625V3.375H7.1251V5.625H4.12506ZM2.81254 0C1.67344 0 0.75001 0.923413 0.75001 2.0625V13.125H0.562508C0.251843 13.125 0 13.3768 0 13.6875C0 13.9982 0.251843 14.25 0.562508 14.25H10.6876C10.9983 14.25 11.2502 13.9982 11.2502 13.6875C11.2502 13.3768 10.9983 13.125 10.6876 13.125H10.5001V11.7728C10.7822 11.918 11.1021 12 11.4412 12C12.5783 12 13.5 11.0783 13.5 9.94126V5.56251C13.5 5.11625 13.3553 4.68202 13.0875 4.32501L12.2625 3.22501C12.0761 2.97648 11.7235 2.92611 11.475 3.11251C11.2264 3.29891 11.1761 3.65148 11.3625 3.90001L12.1875 5.00001C12.3092 5.16229 12.375 5.35966 12.375 5.56251V9.94126C12.375 10.457 11.9569 10.875 11.4412 10.875C10.9255 10.875 10.5075 10.457 10.5075 9.94126V8.62501C10.5075 8.59403 10.505 8.56363 10.5001 8.534V2.0625C10.5001 0.923413 9.57672 0 8.43761 0H2.81254ZM9.37513 13.125H1.87503V2.0625C1.87503 1.54473 2.29476 1.125 2.81254 1.125H8.43761C8.95539 1.125 9.37513 1.54473 9.37513 2.0625V13.125Z" fill="white"/>
</svg>
