<svg width="12" height="14" viewBox="0 0 12 14" fill="none" xmlns="http://www.w3.org/2000/svg">
	<path d="M1.0001 8.00006L8.5901 8.00006L5.2901 11.2901C5.1018 11.4784 4.99601 11.7338 4.99601 12.0001C4.99601 12.2664 5.1018 12.5218 5.2901 12.7101C5.47841 12.8984 5.7338 13.0041 6.0001 13.0041C6.26641 13.0041 6.5218 12.8984 6.7101 12.7101L11.7101 7.71006C11.8011 7.61495 11.8725 7.50281 11.9201 7.38006C12.0201 7.1366 12.0201 6.86352 11.9201 6.62006C11.8725 6.49731 11.8011 6.38516 11.7101 6.29006L6.7101 1.29006C6.61714 1.19633 6.50654 1.12194 6.38468 1.07117C6.26282 1.0204 6.13212 0.99426 6.0001 0.99426C5.86809 0.99426 5.73739 1.0204 5.61553 1.07117C5.49367 1.12194 5.38307 1.19633 5.2901 1.29006C5.19638 1.38302 5.12198 1.49362 5.07121 1.61548C5.02044 1.73734 4.99431 1.86805 4.99431 2.00006C4.99431 2.13207 5.02044 2.26278 5.07121 2.38464C5.12198 2.50649 5.19638 2.61709 5.2901 2.71006L8.5901 6.00006L1.0001 6.00006C0.734888 6.00006 0.480533 6.10541 0.292997 6.29295C0.105461 6.48049 0.000104499 6.73484 0.000104475 7.00006C0.000104452 7.26527 0.105461 7.51963 0.292997 7.70716C0.480533 7.8947 0.734888 8.00006 1.0001 8.00006Z" fill="white"/>
</svg>
