<svg width="994" height="151" viewBox="0 0 994 151" fill="none" xmlns="http://www.w3.org/2000/svg">
	<g opacity="0.03">
		<path d="M52.204 71.2C58.804 71.2 63.804 73 67.204 76.4C70.604 79.8 72.804 83.6 74.004 87.8L97.804 79.8C96.804 75.6 95.004 71.6 92.604 67.6C90.204 63.6 87.004 60 83.204 57C79.404 54 74.804 51.4 69.604 49.4C64.204 47.6 58.204 46.6 51.604 46.6C44.404 46.6 37.804 47.8 31.604 50.4C25.404 53 20.004 56.6 15.404 61.2C10.804 65.8 7.204 71.4 4.604 77.8C2.004 84.2 0.604004 91.2 0.604004 98.8C0.604004 106.4 2.004 113.4 4.604 119.6C7.204 126 11.004 131.6 15.604 136.2C20.204 140.8 25.804 144.4 32.204 147C38.404 149.8 45.204 151 52.404 151C59.004 151 64.804 150 70.004 148.2C75.204 146.2 79.804 143.6 83.604 140.4C87.404 137.4 90.604 133.8 93.204 129.8C95.604 126 97.404 122 98.404 117.8L75.004 110C74.404 111.8 73.604 113.8 72.404 115.8C71.404 117.8 69.804 119.6 68.004 121.2C66.204 122.8 63.804 124 61.204 125C58.604 126 55.804 126.6 52.404 126.6C49.004 126.6 45.604 126 42.604 124.8C39.604 123.6 37.004 121.8 34.604 119.4C32.404 117 30.604 114 29.204 110.6C27.804 107.2 27.204 103.2 27.204 98.8C27.204 94.4 27.804 90.4 29.204 87C30.604 83.6 32.404 80.6 34.604 78.2C36.804 76 39.404 74.2 42.404 73C45.404 71.8 48.804 71.2 52.204 71.2Z" fill="#191B20"/>
		<path d="M138.337 148V90.2C138.537 84.8 140.337 80.2 143.537 76.6C146.737 72.8 151.137 71 156.737 71C163.137 71 167.737 72.8 170.737 76.6C173.537 80.4 174.937 85 174.937 90.6V148H201.537L201.537 86C201.537 80.6 200.737 75.6 199.337 70.8C197.937 66 195.737 61.8 192.737 58.4C189.737 55 185.937 52.2 181.337 50.2C176.737 48 171.137 47 164.937 47C160.337 47 155.537 47.8 150.537 49.6C145.537 51.2 141.537 54 138.337 57.8V3.19999L111.737 3.19999L111.737 148H138.337Z" fill="#191B20"/>
		<path d="M267.352 126.8C264.152 126.8 260.952 126.2 257.952 125C254.952 123.8 252.152 122 249.952 119.6C247.752 117.4 245.952 114.4 244.552 111C243.152 107.6 242.352 103.4 242.352 98.8C242.352 94.2 243.152 90 244.552 86.6C245.952 83.2 247.752 80.2 249.952 78C252.152 75.6 254.952 73.8 257.952 72.6C260.952 71.4 264.152 70.8 267.352 70.8C270.552 70.8 273.752 71.4 276.752 72.6C279.752 73.8 282.552 75.6 284.752 78C286.952 80.2 288.752 83.2 290.152 86.6C291.552 90 292.352 94.2 292.352 98.8C292.352 103.4 291.552 107.6 290.152 111C288.752 114.4 286.952 117.4 284.752 119.6C282.552 122 279.752 123.8 276.752 125C273.752 126.2 270.552 126.8 267.352 126.8ZM267.352 46.6C259.952 46.6 253.152 47.8 246.752 50.4C240.552 53 234.952 56.6 230.352 61.2C225.752 65.8 222.152 71.4 219.552 77.8C216.952 84.2 215.752 91.2 215.752 98.8C215.752 106.4 216.952 113.4 219.552 119.6C222.152 126 225.752 131.6 230.352 136.2C234.952 140.8 240.552 144.4 246.752 147C253.152 149.8 259.952 151 267.352 151C274.752 151 281.552 149.8 287.952 147C294.152 144.4 299.752 140.8 304.352 136.2C308.952 131.6 312.552 126 315.152 119.6C317.752 113.4 318.952 106.4 318.952 98.8C318.952 91.2 317.752 84.2 315.152 77.8C312.552 71.4 308.952 65.8 304.352 61.2C299.752 56.6 294.152 53 287.952 50.4C281.552 47.8 274.752 46.6 267.352 46.6Z" fill="#191B20"/>
		<path d="M334.112 148H360.712V49.6H334.112V148ZM330.912 17.4C330.912 21.8 332.512 25.6 335.712 28.8C338.912 32 342.712 33.6 347.312 33.6C351.912 33.6 355.912 32 359.112 28.8C362.112 25.6 363.712 21.8 363.712 17.4C363.712 12.8 362.112 8.79999 359.112 5.6C355.912 2.39999 351.912 0.799988 347.312 0.799988C342.712 0.799988 338.912 2.39999 335.712 5.6C332.512 8.79999 330.912 12.8 330.912 17.4Z" fill="#191B20"/>
		<path d="M398.023 115.6L375.223 120.6C375.423 123.4 376.423 126.6 378.023 130C379.423 133.6 381.823 137 385.023 140C388.223 143 392.423 145.6 397.423 147.8C402.423 150 408.823 151 416.223 151C422.623 151 428.223 150 433.023 148.2C437.823 146.4 441.823 143.8 445.023 140.8C448.223 137.8 450.623 134.2 452.023 130.4C453.623 126.6 454.423 122.6 454.423 118.6C454.423 111.4 452.023 105 447.023 99.6C442.223 94.2 435.023 90.4 425.223 88.4L411.223 85.4C408.623 84.8 406.423 83.8 404.823 82.4C403.023 81 402.223 79 402.223 76.6C402.223 73.8 403.423 71.4 406.023 69.6C408.423 67.8 411.423 66.8 414.823 66.8C417.623 66.8 420.023 67.2 421.823 68C423.823 68.8 425.423 69.8 426.823 71.2C428.223 72.6 429.223 74 429.823 75.6C430.423 77 430.823 78.6 431.023 80L453.223 75C453.023 72.4 452.023 69.4 450.623 66.2C449.223 62.8 447.023 59.8 444.023 56.8C441.023 53.8 437.023 51.4 432.223 49.6C427.423 47.6 421.623 46.6 414.623 46.6C409.223 46.6 404.423 47.4 400.023 49.2C395.423 51 391.623 53.2 388.423 56.2C385.023 59 382.423 62.4 380.623 66.4C378.823 70.2 377.823 74.4 377.823 78.8C377.823 85.8 380.023 91.8 384.423 97.2C388.823 102.4 395.823 106 405.423 108.2L418.423 111.2C422.223 112 425.023 113.2 426.623 115C428.223 116.6 429.023 118.6 429.023 120.8C429.023 123.4 428.023 125.8 425.823 127.8C423.623 129.6 420.423 130.6 416.023 130.6C410.223 130.6 405.823 129 402.823 126C399.823 123 398.223 119.4 398.023 115.6Z" fill="#191B20"/>
		<path d="M534.763 87.6H490.763C490.963 85.4 491.563 83 492.563 80.8C493.563 78.6 494.963 76.4 496.763 74.6C498.563 72.8 500.963 71.2 503.563 70C506.163 68.8 509.363 68.2 512.763 68.2C516.563 68.2 519.763 68.8 522.363 70C525.163 71 527.363 72.6 529.163 74.4C530.963 76.2 532.363 78.2 533.163 80.6C534.163 82.8 534.563 85.2 534.763 87.6ZM559.563 119.8L537.363 113.2C535.763 117.6 533.163 121.2 529.563 124C526.163 126.8 521.163 128.2 514.963 128.2C511.563 128.2 508.563 127.6 505.563 126.6C502.563 125.4 499.963 123.8 497.763 121.8C495.563 119.8 493.763 117.4 492.363 114.8C490.963 112 490.363 109 490.163 105.8H560.563C560.563 105.6 560.563 104.6 560.763 103C560.963 101.2 560.963 99.4 560.963 97.6C560.963 81.8 556.763 69.2 548.163 60.2C539.563 51.2 527.763 46.6 512.363 46.6C506.163 46.6 499.963 47.8 494.163 50.4C488.363 52.8 483.163 56.2 478.563 60.8C474.163 65.2 470.563 70.6 467.963 77C465.363 83.4 463.963 90.6 463.963 98.4C463.963 106.6 465.363 114 468.163 120.6C470.763 127.2 474.563 132.6 479.163 137.2C483.763 141.8 489.163 145.2 495.363 147.6C501.563 149.8 507.963 151 514.763 151C520.763 151 526.363 150.2 531.363 148.6C536.363 146.8 540.563 144.6 544.363 141.8C548.163 139 551.363 135.8 553.963 132C556.563 128.2 558.363 124 559.563 119.8Z" fill="#191B20"/>
		<path d="M572.068 131.2C572.068 136.2 573.868 140.6 577.468 144C580.868 147.6 585.268 149.4 590.268 149.4C592.868 149.4 595.268 149 597.468 148C599.668 147 601.668 145.8 603.268 144C605.068 142.4 606.268 140.4 607.268 138.2C608.268 136 608.668 133.8 608.668 131.2C608.668 128.6 608.268 126.2 607.268 124C606.268 121.8 605.068 120 603.268 118.2C601.668 116.6 599.668 115.4 597.468 114.4C595.268 113.4 592.868 113 590.268 113C585.268 113 580.868 114.8 577.468 118.2C573.868 121.8 572.068 126.2 572.068 131.2Z" fill="#191B20"/>
		<path d="M671.337 71.2C677.937 71.2 682.937 73 686.337 76.4C689.737 79.8 691.937 83.6 693.137 87.8L716.937 79.8C715.937 75.6 714.137 71.6 711.737 67.6C709.337 63.6 706.137 60 702.337 57C698.537 54 693.937 51.4 688.737 49.4C683.337 47.6 677.337 46.6 670.737 46.6C663.537 46.6 656.937 47.8 650.737 50.4C644.537 53 639.137 56.6 634.537 61.2C629.937 65.8 626.337 71.4 623.737 77.8C621.137 84.2 619.737 91.2 619.737 98.8C619.737 106.4 621.137 113.4 623.737 119.6C626.337 126 630.137 131.6 634.737 136.2C639.337 140.8 644.937 144.4 651.337 147C657.537 149.8 664.337 151 671.537 151C678.137 151 683.937 150 689.137 148.2C694.337 146.2 698.937 143.6 702.737 140.4C706.537 137.4 709.737 133.8 712.337 129.8C714.737 126 716.537 122 717.537 117.8L694.137 110C693.537 111.8 692.737 113.8 691.537 115.8C690.537 117.8 688.937 119.6 687.137 121.2C685.337 122.8 682.937 124 680.337 125C677.737 126 674.937 126.6 671.537 126.6C668.137 126.6 664.737 126 661.737 124.8C658.737 123.6 656.137 121.8 653.737 119.4C651.537 117 649.737 114 648.337 110.6C646.937 107.2 646.337 103.2 646.337 98.8C646.337 94.4 646.937 90.4 648.337 87C649.737 83.6 651.537 80.6 653.737 78.2C655.937 76 658.537 74.2 661.537 73C664.537 71.8 667.937 71.2 671.337 71.2Z" fill="#191B20"/>
		<path d="M776.47 126.8C773.27 126.8 770.07 126.2 767.07 125C764.07 123.8 761.27 122 759.07 119.6C756.87 117.4 755.07 114.4 753.67 111C752.27 107.6 751.47 103.4 751.47 98.8C751.47 94.2 752.27 90 753.67 86.6C755.07 83.2 756.87 80.2 759.07 78C761.27 75.6 764.07 73.8 767.07 72.6C770.07 71.4 773.27 70.8 776.47 70.8C779.67 70.8 782.87 71.4 785.87 72.6C788.87 73.8 791.67 75.6 793.87 78C796.07 80.2 797.87 83.2 799.27 86.6C800.67 90 801.47 94.2 801.47 98.8C801.47 103.4 800.67 107.6 799.27 111C797.87 114.4 796.07 117.4 793.87 119.6C791.67 122 788.87 123.8 785.87 125C782.87 126.2 779.67 126.8 776.47 126.8ZM776.47 46.6C769.07 46.6 762.27 47.8 755.87 50.4C749.67 53 744.07 56.6 739.47 61.2C734.87 65.8 731.27 71.4 728.67 77.8C726.07 84.2 724.87 91.2 724.87 98.8C724.87 106.4 726.07 113.4 728.67 119.6C731.27 126 734.87 131.6 739.47 136.2C744.07 140.8 749.67 144.4 755.87 147C762.27 149.8 769.07 151 776.47 151C783.87 151 790.67 149.8 797.07 147C803.27 144.4 808.87 140.8 813.47 136.2C818.07 131.6 821.67 126 824.27 119.6C826.87 113.4 828.07 106.4 828.07 98.8C828.07 91.2 826.87 84.2 824.27 77.8C821.67 71.4 818.07 65.8 813.47 61.2C808.87 56.6 803.27 53 797.07 50.4C790.67 47.8 783.87 46.6 776.47 46.6Z" fill="#191B20"/>
		<path d="M843.229 148H869.829V90.4C869.829 85 871.429 80.4 874.629 76.6C877.829 72.8 882.429 71 888.229 71C894.229 71 898.629 72.8 901.429 76.2C904.229 79.8 905.629 84.2 905.629 89.6V148H932.029V90.4C932.029 85 933.629 80.6 936.829 76.8C940.029 73 944.429 71 950.229 71C956.429 71 960.829 72.8 963.629 76.4C966.229 79.8 967.629 84.2 967.629 89.6V148L993.429 148V84.2C993.429 77.6 992.429 72 990.429 67.4C988.429 62.6 985.829 58.6 982.429 55.6C979.029 52.6 975.229 50.4 971.029 49C966.829 47.6 962.429 46.8 957.829 46.8C951.229 46.8 945.429 48 940.229 50.6C935.029 53 930.429 57.2 926.629 63.2C924.029 57.8 920.229 53.8 915.229 51C910.229 48.2 904.229 46.8 897.429 46.8C894.829 46.8 892.029 47.2 889.229 47.8C886.229 48.4 883.629 49.4 881.029 50.6C878.429 51.8 876.029 53.4 873.829 55.2C871.629 57 870.029 59.2 868.629 61.6V49.6L843.229 49.6V148Z" fill="#191B20"/>
	</g>
</svg>
