<svg width="1000" height="187" viewBox="0 0 1000 187" fill="none" xmlns="http://www.w3.org/2000/svg">
	<path d="M72.9838 151C82.9838 151 91.7838 149.6 99.3838 146.4C106.784 143.4 113.384 139.6 118.784 135C124.184 130.4 128.384 125.2 131.784 119.6C134.984 113.8 137.184 108.2 138.584 102.8L112.784 95C111.784 98.4 110.384 101.8 108.384 105.2C106.384 108.6 103.784 111.6 100.584 114.4C97.3838 117.2 93.5838 119.6 88.9838 121.4C84.3838 123.2 78.9838 124 72.9838 124C67.1838 124 61.7838 123 56.5838 121C51.1838 118.8 46.5838 115.8 42.5838 112C38.3838 108 35.1838 103.2 32.7838 97.4C30.1838 91.6 28.9838 84.8 28.9838 77.2C28.9838 69.2 30.1838 62.2 32.7838 56.2C35.3838 50.2 38.5838 45.2 42.7838 41.4C46.9838 37.6 51.5838 34.6 56.7838 32.8C61.9838 30.8 67.1838 29.8 72.5838 29.8C78.7838 29.8 83.9838 30.6 88.5838 32.4C93.1838 34.2 96.9838 36.4 100.184 39C103.184 41.6 105.784 44.8 107.584 48.2C109.384 51.6 110.784 55 111.584 58.4L137.584 50.2C136.184 44.4 133.784 38.8 130.584 33.2C127.184 27.6 122.984 22.6 117.784 18.2C112.384 13.6 105.984 9.99999 98.5838 7.4C90.9838 4.6 82.3838 3.19999 72.5838 3.19999C63.1838 3.19999 53.9838 4.99999 45.3838 8.39999C36.5838 11.8 28.7838 16.8 22.1838 23.2C15.5838 29.6 10.1838 37.4 6.38379 46.6C2.38379 55.6 0.383789 65.8 0.383789 77.2C0.383789 88.6 2.38379 98.8 6.18379 107.8C9.98379 116.8 15.3838 124.6 21.9838 131C28.5838 137.4 36.1838 142.4 44.9838 145.8C53.7838 149.2 63.1838 151 72.9838 151Z" fill="#DBF8AB"/>
	<path d="M210.956 76V49.2C209.956 49 208.956 49 207.956 48.8C206.956 48.8 205.756 48.8 204.756 48.8C202.556 48.8 200.356 49 197.756 49.4C195.156 49.8 192.556 50.6 189.956 51.6C187.356 52.6 184.756 54.2 182.556 56.2C180.156 58.4 178.156 61 176.756 64.2V49.6L150.956 49.6L150.956 148H177.556V103C177.556 97.6 178.356 93.2 179.756 89.6C181.156 86.2 182.956 83.4 185.156 81.2C187.356 79 190.156 77.6 193.156 76.6C196.156 75.6 199.556 75.2 202.956 75.2C205.556 75.2 208.356 75.4 210.956 76Z" fill="#DBF8AB"/>
	<path d="M229.895 186.8H258.095L319.895 49.6H291.495L267.295 107.2L241.095 49.6H211.295L253.095 135.6L229.895 186.8Z" fill="#DBF8AB"/>
	<path d="M329.19 186H355.79L355.79 138.4C358.19 141.8 361.79 144.6 366.79 147C371.59 149.2 377.39 150.4 384.19 150.4C391.19 150.4 397.39 149.2 403.19 146.6C408.99 144 413.79 140.4 417.99 135.8C421.99 131.2 425.19 125.6 427.39 119.4C429.59 113 430.59 106 430.59 98.6C430.59 91.2 429.59 84.6 427.59 78.4C425.59 72.2 422.59 66.8 418.79 62.2C414.79 57.6 409.99 54 404.39 51.4C398.79 48.8 392.39 47.4 385.19 47.4C377.79 47.4 371.39 48.8 366.19 51.6C360.99 54.4 357.19 57.8 354.99 61.6V49.6L329.19 49.6L329.19 186ZM404.39 98.8C404.39 107.6 401.99 114.4 397.39 119.4C392.59 124.2 386.79 126.6 379.99 126.6C376.59 126.6 373.39 126 370.39 124.8C367.39 123.4 364.79 121.6 362.59 119.2C360.39 116.8 358.59 114 357.39 110.6C355.99 107.2 355.39 103.2 355.39 98.8C355.39 94.4 355.99 90.6 357.39 87.2C358.59 83.8 360.39 80.8 362.59 78.6C364.79 76.2 367.39 74.4 370.39 73.2C373.39 71.8 376.59 71.2 379.99 71.2C386.79 71.2 392.59 73.6 397.39 78.4C401.99 83.2 404.39 90 404.39 98.8Z" fill="#DBF8AB"/>
	<path d="M479.274 49.6V20.2L455.274 20.2V34C455.274 38.4 454.074 42 451.674 45C449.074 48 445.274 49.6 440.074 49.6H435.074V73.2H452.874V119C452.874 128.6 455.674 136 461.274 141.4C466.874 146.8 474.474 149.4 484.074 149.4C487.874 149.4 491.074 149.2 493.474 148.6C496.074 148 497.874 147.6 499.074 147V125C498.474 125.2 497.274 125.4 495.674 125.6C494.074 125.8 492.474 125.8 490.874 125.8C487.074 125.8 484.074 125 482.074 123.2C480.274 121.6 479.274 118.6 479.274 114.4V73.2L499.074 73.2V49.6H479.274Z" fill="#DBF8AB"/>
	<path d="M578.279 87.6L534.279 87.6C534.479 85.4 535.079 83 536.079 80.8C537.079 78.6 538.479 76.4 540.279 74.6C542.079 72.8 544.479 71.2 547.079 70C549.679 68.8 552.879 68.2 556.279 68.2C560.079 68.2 563.279 68.8 565.879 70C568.679 71 570.879 72.6 572.679 74.4C574.479 76.2 575.879 78.2 576.679 80.6C577.679 82.8 578.079 85.2 578.279 87.6ZM603.079 119.8L580.879 113.2C579.279 117.6 576.679 121.2 573.079 124C569.679 126.8 564.679 128.2 558.479 128.2C555.079 128.2 552.079 127.6 549.079 126.6C546.079 125.4 543.479 123.8 541.279 121.8C539.079 119.8 537.279 117.4 535.879 114.8C534.479 112 533.879 109 533.679 105.8L604.079 105.8C604.079 105.6 604.079 104.6 604.279 103C604.479 101.2 604.479 99.4 604.479 97.6C604.479 81.8 600.279 69.2 591.679 60.2C583.079 51.2 571.279 46.6 555.879 46.6C549.679 46.6 543.479 47.8 537.679 50.4C531.879 52.8 526.679 56.2 522.079 60.8C517.679 65.2 514.079 70.6 511.479 77C508.879 83.4 507.479 90.6 507.479 98.4C507.479 106.6 508.879 114 511.679 120.6C514.279 127.2 518.079 132.6 522.679 137.2C527.279 141.8 532.679 145.2 538.879 147.6C545.079 149.8 551.479 151 558.279 151C564.279 151 569.879 150.2 574.879 148.6C579.879 146.8 584.079 144.6 587.879 141.8C591.679 139 594.879 135.8 597.479 132C600.079 128.2 601.879 124 603.079 119.8Z" fill="#DBF8AB"/>
	<path d="M679.784 76V49.2C678.784 49 677.784 49 676.784 48.8C675.784 48.8 674.584 48.8 673.584 48.8C671.384 48.8 669.184 49 666.584 49.4C663.984 49.8 661.384 50.6 658.784 51.6C656.184 52.6 653.584 54.2 651.384 56.2C648.984 58.4 646.984 61 645.584 64.2V49.6L619.784 49.6V148H646.384V103C646.384 97.6 647.184 93.2 648.584 89.6C649.984 86.2 651.784 83.4 653.984 81.2C656.184 79 658.984 77.6 661.984 76.6C664.984 75.6 668.384 75.2 671.784 75.2C674.384 75.2 677.184 75.4 679.784 76Z" fill="#DBF8AB"/>
	<path d="M691.323 148H717.923V49.6H691.323V148ZM688.123 17.4C688.123 21.8 689.723 25.6 692.923 28.8C696.123 32 699.923 33.6 704.523 33.6C709.123 33.6 713.123 32 716.323 28.8C719.323 25.6 720.923 21.8 720.923 17.4C720.923 12.8 719.323 8.79999 716.323 5.6C713.123 2.39999 709.123 0.799988 704.523 0.799988C699.923 0.799988 696.123 2.39999 692.923 5.6C689.723 8.79999 688.123 12.8 688.123 17.4Z" fill="#DBF8AB"/>
	<path d="M803.434 148H828.834C828.634 146.2 828.434 143.8 828.234 140.6C828.034 137.6 827.834 134 827.834 130.2V49.6L801.234 49.6V106.8C801.234 112.6 799.634 117.2 796.434 120.8C793.234 124.4 788.634 126.2 782.634 126.2C776.434 126.2 771.834 124.2 769.034 120.4C766.034 116.6 764.634 112 764.634 106.4V49.6H738.034V111.8C738.034 117.2 738.834 122.2 740.634 126.8C742.234 131.6 744.634 135.8 747.834 139.2C751.034 142.6 755.034 145.4 759.634 147.4C764.234 149.6 769.434 150.6 775.434 150.6C780.634 150.6 785.834 149.6 791.034 147.4C796.034 145.4 800.034 142 802.634 137.4C802.634 139.4 802.634 141.4 802.834 143.4C803.034 145.4 803.234 147 803.434 148Z" fill="#DBF8AB"/>
	<path d="M849.049 148H875.649V90.4C875.649 85 877.249 80.4 880.449 76.6C883.649 72.8 888.249 71 894.049 71C900.049 71 904.449 72.8 907.249 76.2C910.049 79.8 911.449 84.2 911.449 89.6V148H937.849V90.4C937.849 85 939.449 80.6 942.649 76.8C945.849 73 950.249 71 956.049 71C962.249 71 966.649 72.8 969.449 76.4C972.049 79.8 973.449 84.2 973.449 89.6V148H999.249V84.2C999.249 77.6 998.249 72 996.249 67.4C994.249 62.6 991.649 58.6 988.249 55.6C984.849 52.6 981.049 50.4 976.849 49C972.649 47.6 968.249 46.8 963.649 46.8C957.049 46.8 951.249 48 946.049 50.6C940.849 53 936.249 57.2 932.449 63.2C929.849 57.8 926.049 53.8 921.049 51C916.049 48.2 910.049 46.8 903.249 46.8C900.649 46.8 897.849 47.2 895.049 47.8C892.049 48.4 889.449 49.4 886.849 50.6C884.249 51.8 881.849 53.4 879.649 55.2C877.449 57 875.849 59.2 874.449 61.6V49.6L849.049 49.6V148Z" fill="#DBF8AB"/>
</svg>
