<svg width="72" height="55" viewBox="0 0 72 55" fill="none" xmlns="http://www.w3.org/2000/svg">
	<path d="M32.8177 40.7117C32.8177 36.6014 31.6243 33.274 29.2376 30.9253C26.6519 28.3808 23.2707 27.2064 18.6961 27.2064C16.9061 27.2064 15.5138 27.5979 14.5193 28.1851C14.7182 23.6833 16.7072 19.9644 20.0884 17.2242C23.4696 14.2883 27.0497 12.5267 30.8287 11.9395V0C27.6464 0.195727 24.2652 1.17437 20.6851 2.54449C17.105 3.91459 13.7238 5.87188 10.7403 8.80783C7.75691 11.548 5.17127 15.2669 3.18232 19.7687C0.994475 24.2705 0 29.7509 0 36.21C0 41.4947 1.59116 45.8007 4.77348 49.5196C7.7569 53.2384 11.9337 55 17.3039 55C21.8785 55 25.6575 53.6299 28.6409 50.694C31.4254 47.758 32.8177 44.4306 32.8177 40.7117ZM72 40.7117C72 36.6014 70.8066 33.274 68.4199 30.9253C65.8343 28.3808 62.453 27.2064 57.8785 27.2064C56.0884 27.2064 54.6961 27.5979 53.7017 28.1851C53.9006 23.6833 55.8895 19.9644 59.2707 17.2242C62.6519 14.2883 66.232 12.5267 70.0111 11.9395V0C66.8287 0.195727 63.4475 1.17437 59.8674 2.54449C56.2873 3.91459 52.9061 5.87188 49.9227 8.80783C46.9392 11.548 44.3536 15.2669 42.3646 19.7687C40.1768 24.2705 39.1823 29.7509 39.1823 36.21C39.1823 41.4947 40.7735 45.8007 43.9558 49.5196C46.9392 53.2384 51.116 55 56.4862 55C61.0608 55 64.8398 53.6299 67.8232 50.694C70.6077 47.758 72 44.4306 72 40.7117Z" fill="#5CEE9C"/>
</svg>
