<svg width="50" height="50" viewBox="0 0 50 50" fill="none" xmlns="http://www.w3.org/2000/svg">
	<circle cx="25" cy="25" r="25" fill="#2992FA"/>
	<rect x="8.33337" y="8.33325" width="33.3333" height="33.3333" fill="white" fill-opacity="0.01"/>
	<path fill-rule="evenodd" clip-rule="evenodd" d="M35.9267 17.6184C36.43 17.1953 36.495 16.4443 36.0719 15.9411C33.2867 12.6282 29.2686 10.7305 24.9991 10.7305C17.3342 10.7305 10.7386 16.8981 10.7386 25.0231C10.7386 33.1099 17.4018 39.3157 24.9991 39.3157C29.0943 39.3157 32.7884 37.691 36.0398 34.1302C36.4831 33.6447 36.4489 32.8917 35.9634 32.4483C35.4779 32.005 34.7249 32.0392 34.2815 32.5247C31.4818 35.5908 28.4262 36.9347 24.9991 36.9347C18.6805 36.9347 13.1195 31.7556 13.1195 25.0231C13.1195 18.2501 18.6148 13.1114 24.9991 13.1114C28.5608 13.1114 31.9136 14.6949 34.2494 17.4732C34.6725 17.9765 35.4235 18.0415 35.9267 17.6184ZM28.1518 22.9709C28.5628 22.4577 28.48 21.7085 27.9668 21.2975C27.0989 20.6023 26.2248 20.241 25 20.241C22.2652 20.241 20.2301 22.4385 20.2301 24.9997C20.2301 27.5609 22.2652 29.7579 25 29.7579C25.8197 29.7579 26.5472 29.5465 27.2016 29.1903C27.4792 29.0391 27.7097 28.8813 27.894 28.7439C28.4369 28.3731 28.5765 27.6324 28.2057 27.0894C27.8349 26.5465 27.0942 26.4069 26.5512 26.7777C26.3295 26.9382 26.2164 27.0157 26.0632 27.0991C25.7376 27.2763 25.3912 27.377 25 27.377C23.6226 27.377 22.6111 26.285 22.6111 24.9997C22.6111 23.7144 23.6228 22.622 25 22.622C25.6319 22.622 26.0037 22.7756 26.4784 23.1558C26.9915 23.5668 27.7407 23.484 28.1518 22.9709ZM16.6811 25.6301C16.0427 25.7872 15.6524 26.432 15.8095 27.0705C16.6802 30.6101 19.2371 33.1136 22.2924 34.0043C24.6821 34.7009 26.995 34.4874 29.1022 33.4496C29.692 33.1591 29.9347 32.4455 29.6442 31.8556C29.3537 31.2658 28.6401 31.0231 28.0502 31.3136C26.4732 32.0904 24.7729 32.2473 22.9587 31.7184C20.693 31.058 18.782 29.1869 18.1215 26.5018C17.9645 25.8633 17.3196 25.4731 16.6811 25.6301ZM30.3937 29.4866C30.826 28.9913 31.5781 28.9402 32.0734 29.3726C32.5687 29.8049 32.6198 30.557 32.1875 31.0523L31.9678 31.304C31.5354 31.7993 30.7834 31.8504 30.288 31.418C29.7927 30.9857 29.7416 30.2337 30.174 29.7383L30.3937 29.4866ZM15.8095 22.9336C15.6524 23.572 16.0427 24.2169 16.6811 24.374C17.3196 24.531 17.9645 24.1408 18.1215 23.5023C18.782 20.8171 20.693 18.9461 22.9587 18.2856C24.7729 17.7568 26.4732 17.9137 28.0502 18.6905C28.6401 18.9809 29.3537 18.7383 29.6442 18.1485C29.9347 17.5586 29.692 16.845 29.1022 16.5545C26.995 15.5167 24.6821 15.3032 22.2924 15.9998C19.2371 16.8905 16.6802 19.3939 15.8095 22.9336ZM32.0734 20.879C31.5781 21.3113 30.826 21.2603 30.3937 20.7649L30.174 20.5132C29.7416 20.0179 29.7927 19.2659 30.288 18.8335C30.7834 18.4012 31.5354 18.4522 31.9678 18.9476L32.1874 19.1993C32.6198 19.6946 32.5687 20.4466 32.0734 20.879Z" fill="#282F40"/>
	<mask id="mask0_8486_71183" style="mask-type:alpha" maskUnits="userSpaceOnUse" x="10" y="10" width="27" height="30">
		<path fill-rule="evenodd" clip-rule="evenodd" d="M35.9267 17.6184C36.43 17.1953 36.495 16.4443 36.0719 15.9411C33.2867 12.6282 29.2686 10.7305 24.9991 10.7305C17.3342 10.7305 10.7386 16.8981 10.7386 25.0231C10.7386 33.1099 17.4018 39.3157 24.9991 39.3157C29.0943 39.3157 32.7884 37.691 36.0398 34.1302C36.4831 33.6447 36.4489 32.8917 35.9634 32.4483C35.4779 32.005 34.7249 32.0392 34.2815 32.5247C31.4818 35.5908 28.4262 36.9347 24.9991 36.9347C18.6805 36.9347 13.1195 31.7556 13.1195 25.0231C13.1195 18.2501 18.6148 13.1114 24.9991 13.1114C28.5608 13.1114 31.9136 14.6949 34.2494 17.4732C34.6725 17.9765 35.4235 18.0415 35.9267 17.6184ZM28.1518 22.9709C28.5628 22.4577 28.48 21.7085 27.9668 21.2975C27.0989 20.6023 26.2248 20.241 25 20.241C22.2652 20.241 20.2301 22.4385 20.2301 24.9997C20.2301 27.5609 22.2652 29.7579 25 29.7579C25.8197 29.7579 26.5472 29.5465 27.2016 29.1903C27.4792 29.0391 27.7097 28.8813 27.894 28.7439C28.4369 28.3731 28.5765 27.6324 28.2057 27.0894C27.8349 26.5465 27.0942 26.4069 26.5512 26.7777C26.3295 26.9382 26.2164 27.0157 26.0632 27.0991C25.7376 27.2763 25.3912 27.377 25 27.377C23.6226 27.377 22.6111 26.285 22.6111 24.9997C22.6111 23.7144 23.6228 22.622 25 22.622C25.6319 22.622 26.0037 22.7756 26.4784 23.1558C26.9915 23.5668 27.7407 23.484 28.1518 22.9709ZM16.6811 25.6301C16.0427 25.7872 15.6524 26.432 15.8095 27.0705C16.6802 30.6101 19.2371 33.1136 22.2924 34.0043C24.6821 34.7009 26.995 34.4874 29.1022 33.4496C29.692 33.1591 29.9347 32.4455 29.6442 31.8556C29.3537 31.2658 28.6401 31.0231 28.0502 31.3136C26.4732 32.0904 24.7729 32.2473 22.9587 31.7184C20.693 31.058 18.782 29.1869 18.1215 26.5018C17.9645 25.8633 17.3196 25.4731 16.6811 25.6301ZM30.3937 29.4866C30.826 28.9913 31.5781 28.9402 32.0734 29.3726C32.5687 29.8049 32.6198 30.557 32.1875 31.0523L31.9678 31.304C31.5354 31.7993 30.7834 31.8504 30.288 31.418C29.7927 30.9857 29.7416 30.2337 30.174 29.7383L30.3937 29.4866ZM15.8095 22.9336C15.6524 23.572 16.0427 24.2169 16.6811 24.374C17.3196 24.531 17.9645 24.1408 18.1215 23.5023C18.782 20.8171 20.693 18.9461 22.9587 18.2856C24.7729 17.7568 26.4732 17.9137 28.0502 18.6905C28.6401 18.9809 29.3537 18.7383 29.6442 18.1485C29.9347 17.5586 29.692 16.845 29.1022 16.5545C26.995 15.5167 24.6821 15.3032 22.2924 15.9998C19.2371 16.8905 16.6802 19.3939 15.8095 22.9336ZM32.0734 20.879C31.5781 21.3113 30.826 21.2603 30.3937 20.7649L30.174 20.5132C29.7416 20.0179 29.7927 19.2659 30.288 18.8335C30.7834 18.4012 31.5354 18.4522 31.9678 18.9476L32.1874 19.1993C32.6198 19.6946 32.5687 20.4466 32.0734 20.879Z" fill="white"/>
	</mask>
	<g mask="url(#mask0_8486_71183)">
		<rect x="8.33337" y="8.33325" width="33.3333" height="33.3333" fill="white"/>
	</g>
</svg>
