<svg width="420" height="186" viewBox="0 0 420 186" fill="none" xmlns="http://www.w3.org/2000/svg">
	<rect x="41" y="22.0171" width="105.574" height="46" rx="23" transform="rotate(-12.0372 41 22.0171)" fill="#191B20"/>
	<path d="M66.7384 44.843L65.0976 45.8476C65.2016 46.1309 65.3728 46.4218 65.6319 46.7157C65.8745 47.035 66.1918 47.2947 66.5881 47.5157C66.9636 47.7412 67.4345 47.9027 67.9755 47.9837C68.4957 48.0692 69.1234 48.0445 69.8122 47.8976C70.4385 47.7641 70.9634 47.5649 71.3826 47.2791C71.7973 46.9724 72.1241 46.6626 72.3705 46.2827C72.596 45.9073 72.7544 45.5243 72.8248 45.1383C72.8953 44.7523 72.8987 44.3587 72.823 44.0038C72.6627 43.2524 72.2996 42.6751 71.729 42.2511C71.1376 41.8316 70.3686 41.6028 69.4101 41.6107L67.7062 41.6031C66.8982 41.6008 66.4379 41.2843 66.2999 40.6371C66.2242 40.2823 66.308 39.9589 66.5633 39.6207C66.8185 39.2826 67.184 39.0519 67.685 38.945C68.0816 38.8605 68.4081 38.8563 68.7062 38.9237C69.0043 38.9911 69.2442 39.0927 69.4304 39.2494C69.6121 39.3853 69.7774 39.5464 69.8801 39.721C69.9828 39.8955 70.081 40.0491 70.1286 40.1699L71.7232 39.1533C71.6116 38.9371 71.4538 38.7088 71.2409 38.4269C71.0281 38.1449 70.757 37.8972 70.4024 37.6672C70.0523 37.4582 69.6231 37.2878 69.103 37.2023C68.6036 37.1123 68.0178 37.1282 67.3289 37.275C66.8488 37.3774 66.3864 37.5633 65.9837 37.8238C65.5809 38.0843 65.2541 38.394 65.0033 38.753C64.7525 39.112 64.5524 39.5039 64.4446 39.9197C64.3413 40.3564 64.3424 40.7708 64.4359 41.2092C64.5872 41.919 64.925 42.4798 65.4702 42.8873C66.0155 43.2949 66.7129 43.4953 67.5418 43.4932L69.3336 43.5039C69.7734 43.5193 70.1177 43.5986 70.3963 43.7793C70.6749 43.9599 70.8371 44.2091 70.9039 44.5222C70.9795 44.8771 70.9002 45.2213 70.6658 45.555C70.4314 45.8887 70.0406 46.103 69.477 46.2232C68.7673 46.3745 68.1844 46.3024 67.7122 46.0321C67.2399 45.7618 66.9123 45.3515 66.7384 44.843ZM76.5405 35.6382L75.8639 32.4652L74.0687 32.848L74.4159 34.4762C74.5094 34.9146 74.4642 35.3171 74.2969 35.6583C74.1087 36.0039 73.7433 36.2346 73.2005 36.3504L72.6578 36.4661L73.0361 38.2405L74.9566 37.831L76.1318 43.342C76.3276 44.2605 76.7295 44.9168 77.3328 45.2901C77.9407 45.6842 78.683 45.7879 79.5388 45.6054C79.8728 45.5341 80.1606 45.4509 80.3813 45.3602C80.5976 45.2486 80.7557 45.1713 80.8348 45.1326L80.4787 43.4626C80.3996 43.5013 80.2788 43.5489 80.1371 43.6009C79.9955 43.6529 79.8493 43.6841 79.7241 43.7108C79.2022 43.8221 78.8251 43.7934 78.5674 43.6083C78.3097 43.4232 78.1296 43.0905 78.0317 42.6313L76.9189 37.4125L79.0899 36.9496L78.7115 35.1752L76.5405 35.6382ZM81.9417 42.1686C82.0262 42.5652 82.1943 42.944 82.437 43.2633C82.6588 43.587 82.9552 43.8511 83.3053 44.0602C83.6554 44.2693 84.0592 44.4232 84.5124 44.5012C84.9446 44.5836 85.4216 44.5692 85.9435 44.4579C86.3819 44.3644 86.786 44.2128 87.1187 44.0327C87.4513 43.8527 87.7168 43.6651 87.9526 43.4402C88.1883 43.2154 88.357 42.983 88.5048 42.7551C88.6527 42.5271 88.7587 42.3081 88.823 42.098C88.8987 42.4528 88.9819 42.7406 89.0473 42.9449C89.1127 43.1492 89.1692 43.3118 89.2167 43.4326L91.1372 43.0231C91.0897 42.9023 91.0078 42.7233 90.9291 42.4564C90.8504 42.1894 90.7538 41.839 90.6603 41.4006L89.5876 36.3698C89.4852 35.8897 89.2993 35.4273 89.0597 35.0201C88.8201 34.6129 88.4851 34.2697 88.0798 34.0069C87.6746 33.7441 87.1784 33.5662 86.612 33.4688C86.0501 33.3922 85.3807 33.4258 84.6292 33.586C84.0864 33.7018 83.6032 33.8921 83.1543 34.1406C82.7097 34.41 82.3203 34.7331 82.0278 35.101C81.7308 35.448 81.5142 35.8652 81.3691 36.3108C81.2241 36.7564 81.1714 37.2259 81.2112 37.7194L83.1834 37.7572C83.1214 37.1593 83.2487 36.6302 83.5443 36.1744C83.8355 35.6976 84.3381 35.394 85.027 35.2471C85.7994 35.0824 86.3822 35.1546 86.8128 35.4338C87.2224 35.7174 87.4784 36.0993 87.5808 36.5794C87.6209 36.7673 87.6103 36.9223 87.5371 37.0907C87.4639 37.2591 87.2729 37.3871 86.9687 37.4956L84.3395 38.4709C83.9145 38.627 83.5446 38.8369 83.2 39.0631C82.8554 39.2893 82.5868 39.5649 82.3688 39.8732C82.1509 40.1816 81.988 40.5437 81.9176 40.9297C81.8471 41.3158 81.8482 41.7302 81.9417 42.1686ZM85.8632 42.7509C85.3622 42.8577 84.9345 42.7962 84.5799 42.5663C84.2209 42.3154 84.0035 42.0126 83.9234 41.6369C83.8299 41.1985 83.9004 40.8125 84.1228 40.525C84.3408 40.2166 84.66 39.9739 85.0642 39.8223L88.0349 38.7087L88.1328 39.1679C88.2485 39.7107 88.2629 40.1877 88.2014 40.6155C88.1354 41.0224 87.9934 41.3801 87.7919 41.6631C87.5695 41.9506 87.3128 42.1799 86.9802 42.36C86.6476 42.54 86.2599 42.6663 85.8632 42.7509ZM97.5909 35.5798L100.967 30.4297L98.2529 31.0083L94.859 36.3806L92.8293 26.8616L90.8879 27.2756L94.1106 42.389L96.052 41.9751L95.4066 38.9482L96.5069 37.2513L100.728 40.978L103.191 40.4527L97.5909 35.5798ZM105.099 40.046L107.04 39.6321L104.899 29.5912L102.957 30.0052L105.099 40.046ZM101.709 26.2994C101.794 26.696 102.006 26.978 102.336 27.1915C102.665 27.405 103.009 27.4844 103.406 27.3998C103.802 27.3152 104.126 27.0934 104.34 26.7642C104.553 26.4349 104.612 26.0951 104.527 25.6985C104.442 25.3019 104.242 24.9737 103.912 24.7602C103.583 24.5467 103.202 24.4971 102.805 24.5817C102.408 24.6663 102.122 24.8583 101.908 25.1875C101.695 25.5168 101.624 25.9028 101.709 26.2994ZM112.178 38.5365L110.94 32.7333C110.86 32.3575 110.826 31.9938 110.859 31.6375C110.892 31.2813 110.976 30.9578 111.111 30.6673C111.245 30.3767 111.451 30.1146 111.712 29.9061C111.973 29.6977 112.294 29.5638 112.691 29.4793C113.129 29.3858 113.497 29.3727 113.837 29.4312C114.16 29.515 114.446 29.6286 114.683 29.8182C114.92 30.0077 115.103 30.2524 115.254 30.5477C115.383 30.8475 115.491 31.1517 115.567 31.5066L116.854 37.5395L118.816 37.121L117.458 30.7542C117.338 30.1905 117.164 29.682 116.916 29.2331C116.667 28.7841 116.348 28.4156 115.98 28.123C115.592 27.8349 115.154 27.6228 114.675 27.5284C114.171 27.4176 113.627 27.4245 113.022 27.5535C112.437 27.6782 111.901 27.9236 111.395 28.3152C110.889 28.7067 110.523 29.243 110.302 29.945L109.995 28.5046L108.074 28.9141L110.215 38.955L112.178 38.5365ZM123.13 36.3103L121.324 37.1537C121.502 37.6831 121.755 38.1529 122.124 38.5543C122.468 38.9393 122.887 39.2647 123.376 39.5097C123.843 39.7591 124.381 39.9281 124.964 40.0002C125.526 40.0768 126.128 40.0357 126.755 39.9021C127.694 39.7018 128.456 39.3866 129.045 38.9772C129.63 38.547 130.072 38.0599 130.371 37.5161C130.665 36.9514 130.825 36.3717 130.863 35.7307C130.901 35.0897 130.851 34.4456 130.713 33.7985L128.732 24.5092L126.791 24.9231L127.089 26.3217C126.732 25.8742 126.271 25.5577 125.691 25.3976C125.112 25.2375 124.433 25.2293 123.661 25.394C122.972 25.5409 122.373 25.7997 121.862 26.1704C121.357 26.562 120.927 27.0028 120.624 27.5257C120.321 28.0487 120.119 28.6373 120.014 29.2708C119.913 29.9251 119.942 30.5736 120.089 31.2625C120.241 31.9723 120.504 32.5927 120.863 33.1491C121.221 33.7055 121.641 34.1397 122.148 34.4682C122.638 34.822 123.21 35.0492 123.823 35.1586C124.44 35.2889 125.072 35.2851 125.74 35.1426C126.491 34.9824 127.103 34.6774 127.558 34.253C128.013 33.8286 128.325 33.3474 128.457 32.8392L128.764 34.2796C128.995 35.3651 128.918 36.2326 128.554 36.8777C128.169 37.5273 127.454 37.9634 126.39 38.1904C125.617 38.3551 124.942 38.259 124.343 37.9066C123.761 37.5288 123.344 37.0067 123.13 36.3103ZM125.68 33.4312C124.783 33.6226 124.011 33.4817 123.364 33.0085C122.722 32.5561 122.302 31.8163 122.093 30.8352C121.884 29.8541 121.991 29.0238 122.388 28.328C122.785 27.6323 123.433 27.1887 124.309 27.0017C125.165 26.8192 125.916 26.9646 126.563 27.4378C127.209 27.911 127.646 28.6255 127.855 29.6066C128.064 30.5878 127.957 31.418 127.56 32.1138C127.163 32.8096 126.536 33.2487 125.68 33.4312Z" fill="white"/>
	<rect x="154.722" width="161.574" height="46" rx="23" transform="rotate(13.4784 154.722 0)" fill="#191B20"/>
	<path d="M166.014 38.9962L168.152 39.5086L178.042 26.9099L175.945 26.4075L171.305 32.5822L169.843 24.9448L167.601 24.4075L169.769 34.3211L166.014 38.9962ZM177.539 37.3469L179.47 37.8096L181.863 27.8257L179.932 27.3631L177.539 37.3469ZM180.402 23.4809C180.307 23.8753 180.378 24.2215 180.583 24.556C180.788 24.8905 181.065 25.1104 181.459 25.2049C181.854 25.2994 182.241 25.2387 182.576 25.0336C182.91 24.8284 183.109 24.5469 183.204 24.1525C183.299 23.7582 183.259 23.3755 183.053 23.041C182.848 22.7064 182.525 22.4973 182.131 22.4028C181.736 22.3083 181.395 22.3582 181.061 22.5634C180.726 22.7685 180.496 23.0866 180.402 23.4809ZM190.94 34.1937L185.481 32.8853C185.577 32.5789 185.714 32.2825 185.934 32.006C186.153 31.7294 186.405 31.5044 186.693 31.31C186.976 31.1364 187.296 30.9935 187.662 30.9278C188.009 30.8572 188.397 30.8844 188.812 30.9839C189.705 31.1979 190.309 31.6061 190.652 32.193C190.989 32.8006 191.094 33.4622 190.94 34.1937ZM192.151 37.842L190.609 36.8579C190.288 37.3735 189.862 37.7763 189.332 38.0662C188.801 38.3561 188.134 38.3936 187.324 38.1996C186.909 38.1001 186.535 37.9226 186.217 37.6927C185.878 37.4579 185.616 37.1757 185.411 36.8412C185.206 36.5067 185.052 36.1406 184.997 35.7322C184.941 35.3237 184.957 34.8887 185.041 34.4478L192.555 36.2487C192.59 36.1914 192.615 36.0877 192.661 35.9889C192.686 35.8851 192.716 35.7605 192.746 35.636C192.93 34.868 192.995 34.1374 192.942 33.4442C192.868 32.7461 192.691 32.111 192.406 31.5598C192.121 31.0087 191.707 30.5364 191.165 30.1431C190.628 29.729 189.972 29.4403 189.204 29.2562C188.582 29.1069 187.95 29.0872 187.304 29.2177C186.663 29.3275 186.081 29.561 185.535 29.9131C184.985 30.2861 184.503 30.7412 184.079 31.3199C183.655 31.8987 183.356 32.5953 183.167 33.3841C182.963 34.2351 182.929 35.0171 183.04 35.746C183.15 36.4749 183.369 37.1199 183.737 37.691C184.084 38.2571 184.539 38.7393 185.086 39.1119C185.634 39.4844 186.247 39.7632 186.911 39.9224C187.493 40.0617 188.052 40.108 188.569 40.0564C189.087 40.0048 189.577 39.8809 190.041 39.6849C190.479 39.5046 190.891 39.2521 191.255 38.9224C191.615 38.6134 191.901 38.2431 192.151 37.842ZM193.978 41.287L195.929 41.7546L199.531 26.727L197.58 26.2593L193.978 41.287ZM201.619 37.8066C201.743 37.2877 201.915 36.846 202.165 36.4449C202.414 36.0439 202.691 35.715 203.035 35.4684C203.359 35.2167 203.725 35.063 204.143 34.9658C204.536 34.8843 204.971 34.9008 205.407 35.0052C206.299 35.2191 206.93 35.6996 207.274 36.4625C207.639 37.2303 207.689 38.1203 207.44 39.1581C207.316 39.677 207.139 40.1395 206.89 40.5405C206.661 40.9466 206.379 41.2962 206.056 41.5478C205.732 41.7994 205.361 41.9739 204.963 42.0761C204.566 42.1784 204.126 42.1827 203.69 42.0782C203.212 41.9638 202.817 41.7812 202.509 41.5099C202.201 41.2385 201.949 40.9148 201.775 40.5437C201.6 40.1727 201.508 39.7335 201.488 39.2678C201.447 38.7971 201.494 38.3255 201.619 37.8066ZM206.61 42.7124L206.571 42.8784C206.496 43.1898 206.452 43.4646 206.418 43.6979C206.379 43.952 206.355 44.1437 206.351 44.2525L208.24 44.7052C208.239 44.6172 208.268 44.4047 208.327 44.0676C208.386 43.7305 208.464 43.3104 208.579 42.833L211.738 29.6527L209.808 29.19L208.26 35.6453C208.227 35.4178 208.152 35.1804 208.036 34.933C207.915 34.7064 207.752 34.4699 207.543 34.2441C207.328 34.0391 207.068 33.8449 206.76 33.6616C206.432 33.4732 206.048 33.3372 205.612 33.2327C204.906 33.0635 204.228 33.0546 203.582 33.1852C202.932 33.3364 202.344 33.5907 201.814 33.9686C201.285 34.3465 200.839 34.8323 200.461 35.4002C200.079 35.989 199.795 36.6233 199.626 37.329C199.447 38.0763 199.387 38.7861 199.461 39.4843C199.535 40.1824 199.712 40.8175 200.012 41.3944C200.292 41.9663 200.701 42.4593 201.218 42.8684C201.734 43.2776 202.363 43.5821 203.09 43.7562C203.879 43.9452 204.588 43.9176 205.191 43.6891C205.795 43.4607 206.268 43.1351 206.61 42.7124ZM221.108 39.0978L223.516 39.6749L223.939 37.9106L221.531 37.3335L221.909 35.756C221.994 35.4031 222.1 35.1433 222.258 34.9398C222.417 34.7364 222.581 34.6002 222.777 34.5154C222.952 34.4257 223.159 34.3875 223.361 34.37C223.558 34.3732 223.729 34.3923 223.895 34.4321C224.144 34.4918 224.326 34.5573 224.466 34.6129C224.585 34.6635 224.658 34.7249 224.716 34.7606L225.134 33.017C225.097 32.9863 224.983 32.915 224.811 32.8079C224.618 32.6959 224.353 32.6105 224.021 32.5309C223.564 32.4214 223.134 32.3842 222.705 32.435C222.276 32.4857 221.868 32.6295 221.508 32.8504C221.127 33.0664 220.814 33.3645 220.544 33.7606C220.252 34.1517 220.055 34.6092 219.921 35.1696L219.518 36.8509L217.67 36.4081L217.248 38.1724L219.095 38.6152L217.125 46.8347L219.138 47.3173L221.108 39.0978ZM223.55 45.5433C223.455 45.9377 223.444 46.352 223.525 46.7446C223.586 47.1323 223.74 47.4984 223.966 47.8379C224.192 48.1774 224.49 48.4902 224.865 48.7558C225.22 49.0164 225.656 49.2088 226.175 49.3332C226.611 49.4377 227.041 49.4749 227.419 49.4557C227.797 49.4365 228.117 49.3816 228.427 49.2802C228.736 49.1789 228.989 49.0418 229.22 48.8998C229.452 48.7577 229.642 48.6058 229.791 48.4438C229.706 48.7967 229.657 49.0922 229.628 49.3048C229.599 49.5173 229.58 49.6883 229.571 49.8179L231.481 50.2756C231.49 50.146 231.493 49.9493 231.537 49.6745C231.581 49.3997 231.645 49.0418 231.749 48.6059L232.948 43.6037C233.062 43.1263 233.094 42.629 233.053 42.1583C233.012 41.6875 232.858 41.2335 232.605 40.8218C232.353 40.4101 231.981 40.0358 231.512 39.7038C231.038 39.3926 230.42 39.1346 229.672 38.9555C229.133 38.8262 228.615 38.7898 228.102 38.8207C227.585 38.8723 227.095 38.9962 226.672 39.2022C226.255 39.3875 225.879 39.6707 225.557 40.0103C225.234 40.35 224.984 40.751 224.807 41.2135L226.571 42.0971C226.772 41.5309 227.115 41.1082 227.578 40.8241C228.046 40.5193 228.631 40.4618 229.316 40.626C230.084 40.8101 230.579 41.1262 230.847 41.5637C231.095 41.9961 231.161 42.4511 231.047 42.9285C231.002 43.1153 230.926 43.2506 230.787 43.371C230.648 43.4914 230.421 43.5247 230.1 43.4916L227.307 43.2392C226.856 43.197 226.432 43.2271 226.023 43.2828C225.615 43.3385 225.254 43.4715 224.924 43.6559C224.595 43.8403 224.292 44.0969 224.062 44.4149C223.832 44.733 223.654 45.1075 223.55 45.5433ZM226.838 47.7581C226.34 47.6387 225.98 47.3989 225.76 47.0387C225.544 46.6577 225.478 46.2908 225.567 45.9171C225.672 45.4813 225.902 45.1632 226.226 44.9996C226.556 44.8152 226.949 44.7337 227.379 44.7709L230.539 45.0456L230.43 45.5022C230.3 46.0419 230.108 46.4786 229.868 46.8382C229.633 47.177 229.351 47.4386 229.047 47.6072C228.723 47.7709 228.392 47.8673 228.015 47.8865C227.637 47.9057 227.233 47.8527 226.838 47.7581ZM241.899 44.3005L242.397 42.2249C242.34 42.1892 242.257 42.1693 242.137 42.1187C242.038 42.073 241.914 42.0432 241.768 42.0084C241.519 41.9487 241.244 41.9048 240.96 41.9023C240.675 41.8999 240.385 41.9183 240.081 41.9989C239.776 42.0795 239.477 42.2274 239.173 42.396C238.885 42.5904 238.603 42.852 238.322 43.2016L238.74 41.458L236.83 41.0003L234.437 50.9842L236.388 51.4518L237.587 46.4495C237.851 45.3494 238.289 44.6204 238.901 44.2624C239.535 43.9094 240.254 43.8402 241.063 44.0343C241.333 44.0989 241.619 44.1893 241.899 44.3005ZM241.977 52.7915L243.908 53.2541L245.351 47.2348C245.53 46.4875 245.881 45.9354 246.432 45.5624C246.961 45.1845 247.576 45.0905 248.282 45.2597C249.029 45.4388 249.519 45.7757 249.747 46.2912C249.975 46.8067 250.006 47.4069 249.852 48.0503L248.35 54.3188L250.301 54.7864L251.748 48.7463C251.923 48.0198 252.274 47.4676 252.825 47.0947C253.354 46.7168 253.969 46.6228 254.654 46.787C255.381 46.9611 255.871 47.298 256.098 47.8135C256.347 48.3339 256.379 48.9342 256.224 49.5776L254.722 55.8461L256.652 56.3087L258.204 49.8327C258.359 49.1893 258.394 48.5832 258.322 48.061C258.249 47.5389 258.074 47.0798 257.817 46.6889C257.58 46.3029 257.261 45.9851 256.881 45.7403C256.5 45.4955 256.105 45.3129 255.669 45.2085C255.026 45.0542 254.394 45.0345 253.727 45.1601C253.061 45.2856 252.443 45.6644 251.875 46.2963C251.759 45.5882 251.458 45.0113 250.973 44.5657C250.508 44.125 249.961 43.8404 249.339 43.6911C248.757 43.5518 248.146 43.5371 247.521 43.6726C246.896 43.8081 246.366 44.098 245.92 44.5838L246.238 43.2554L244.37 42.8076L241.977 52.7915ZM259.693 57.0376L261.624 57.5003L264.017 47.5165L262.086 47.0538L259.693 57.0376ZM262.556 43.1717C262.461 43.566 262.532 43.9122 262.737 44.2467C262.942 44.5812 263.219 44.8011 263.613 44.8957C264.008 44.9902 264.395 44.9295 264.73 44.7243C265.064 44.5191 265.263 44.2376 265.358 43.8433C265.452 43.4489 265.413 43.0662 265.207 42.7317C265.002 42.3972 264.679 42.1881 264.285 42.0935C263.89 41.999 263.549 42.0489 263.215 42.2541C262.88 42.4593 262.65 42.7773 262.556 43.1717ZM266.732 58.7247L268.115 52.9544C268.205 52.5808 268.331 52.2379 268.514 51.9307C268.698 51.6234 268.913 51.3677 269.159 51.1634C269.406 50.9591 269.704 50.8112 270.03 50.7356C270.355 50.6599 270.702 50.6772 271.097 50.7718C271.533 50.8762 271.87 51.0231 272.152 51.2222C272.408 51.4372 272.617 51.6629 272.749 51.936C272.881 52.2091 272.941 52.5088 272.949 52.8401C272.937 53.1663 272.904 53.4876 272.819 53.8405L271.382 59.8391L273.333 60.3067L274.85 53.976C274.984 53.4156 275.047 52.8818 275.016 52.3695C274.985 51.8573 274.856 51.3875 274.65 50.965C274.423 50.5375 274.119 50.1573 273.728 49.8661C273.321 49.549 272.827 49.3209 272.225 49.1766C271.644 49.0373 271.054 49.0275 270.429 49.163C269.804 49.2986 269.242 49.625 268.74 50.1631L269.084 48.7309L267.174 48.2732L264.781 58.2571L266.732 58.7247ZM277.575 61.4333L275.582 61.4165C275.515 61.9711 275.541 62.504 275.701 63.0254C275.846 63.5209 276.083 63.9949 276.419 64.4265C276.734 64.8531 277.146 65.2374 277.641 65.5536C278.115 65.8647 278.677 66.0871 279.299 66.2363C280.233 66.4602 281.057 66.5039 281.765 66.3883C282.478 66.2519 283.087 66.0027 283.59 65.6406C284.099 65.2577 284.493 64.8035 284.804 64.2413C285.114 63.6792 285.346 63.0764 285.501 62.433L287.714 53.1964L285.784 52.7337L285.451 54.1244C285.321 53.5665 285.042 53.0826 284.588 52.6884C284.134 52.2942 283.525 51.9947 282.757 51.8106C282.072 51.6464 281.419 51.6217 280.799 51.7365C280.174 51.872 279.596 52.0847 279.098 52.4261C278.599 52.7674 278.163 53.2117 277.795 53.7382C277.423 54.2854 277.17 54.8832 277.006 55.5681C276.836 56.2739 276.807 56.9472 276.891 57.6038C276.975 58.2605 277.167 58.8333 277.482 59.3479C277.772 59.8783 278.191 60.3298 278.697 60.6924C279.197 61.0758 279.769 61.3446 280.434 61.5038C281.181 61.6829 281.864 61.6711 282.458 61.4841C283.051 61.2972 283.54 60.9973 283.878 60.5954L283.535 62.0276C283.276 63.1069 282.833 63.8567 282.226 64.282C281.599 64.7022 280.766 64.788 279.707 64.5343C278.939 64.3502 278.371 63.9726 277.983 63.3966C277.62 62.8048 277.468 62.154 277.575 61.4333ZM281.117 59.9337C280.225 59.7198 279.589 59.2601 279.209 58.5545C278.824 57.8697 278.764 57.0213 278.998 56.0457C279.232 55.0702 279.686 54.3669 280.344 53.9101C281.002 53.4533 281.778 53.3318 282.65 53.5408C283.501 53.7447 284.116 54.1995 284.495 54.9051C284.875 55.6106 284.961 56.4433 284.727 57.4188C284.493 58.3944 284.039 59.0977 283.381 59.5545C282.723 60.0113 281.968 60.1377 281.117 59.9337Z" fill="white"/>
	<rect x="314.407" y="11.4482" width="103.574" height="46" rx="23" transform="rotate(22.235 314.407 11.4482)" fill="#191B20"/>
	<path d="M320.642 47.4876L322.479 48.2388L326.364 38.7356L324.527 37.9845L320.642 47.4876ZM325.582 34.2191C325.429 34.5945 325.446 34.9473 325.598 35.3092C325.749 35.671 325.989 35.9305 326.365 36.0839C326.74 36.2374 327.132 36.2364 327.494 36.0846C327.856 35.9327 328.096 35.6848 328.249 35.3094C328.403 34.9341 328.421 34.5497 328.27 34.1879C328.118 33.826 327.83 33.5702 327.455 33.4167C327.08 33.2633 326.735 33.2607 326.373 33.4125C326.011 33.5643 325.735 33.8437 325.582 34.2191ZM327.342 50.2266L329.587 44.7341C329.733 44.3785 329.91 44.0588 330.138 43.7831C330.366 43.5073 330.617 43.2873 330.892 43.1229C331.166 42.9585 331.484 42.8578 331.817 42.8326C332.151 42.8074 332.491 42.8774 332.866 43.0308C333.281 43.2004 333.593 43.397 333.841 43.6367C334.061 43.8881 334.233 44.1431 334.322 44.4331C334.411 44.7231 334.425 45.0284 334.383 45.3571C334.321 45.6776 334.239 45.9902 334.102 46.326L331.768 52.0358L333.625 52.795L336.088 46.7691C336.306 46.2357 336.449 45.7175 336.496 45.2066C336.544 44.6956 336.488 44.2116 336.349 43.7627C336.19 43.3057 335.947 42.8837 335.605 42.5363C335.251 42.161 334.797 41.8603 334.225 41.6261C333.671 41.3999 333.089 41.3004 332.451 41.3392C331.813 41.3779 331.208 41.6151 330.63 42.0705L331.187 40.7073L329.37 39.9642L325.485 49.4674L327.342 50.2266ZM339.74 49.7148C339.942 49.2208 340.179 48.8104 340.487 48.452C340.795 48.0937 341.118 47.8107 341.496 47.6194C341.854 47.42 342.239 47.3238 342.668 47.2913C343.068 47.2706 343.496 47.3531 343.911 47.5227C344.76 47.87 345.311 48.441 345.534 49.2473C345.778 50.0617 345.692 50.9489 345.288 51.9367C345.086 52.4307 344.841 52.8609 344.533 53.2192C344.245 53.5857 343.914 53.8883 343.556 54.0878C343.197 54.2872 342.804 54.4032 342.396 54.4437C341.987 54.4842 341.551 54.4214 341.137 54.2518C340.682 54.066 340.319 53.8255 340.056 53.5104C339.793 53.1952 339.594 52.837 339.478 52.4437C339.362 52.0504 339.337 51.6024 339.388 51.139C339.42 50.6676 339.538 50.2087 339.74 49.7148ZM343.927 55.3233L343.862 55.4813C343.741 55.7777 343.656 56.0426 343.587 56.268C343.51 56.5132 343.457 56.6991 343.436 56.8059L345.234 57.5409C345.246 57.4538 345.307 57.2482 345.417 56.924C345.526 56.5998 345.668 56.1966 345.854 55.7422L350.983 43.1964L349.145 42.4453L346.633 48.5897C346.635 48.3598 346.597 48.1138 346.52 47.8516C346.435 47.6092 346.31 47.3506 346.137 47.0956C345.957 46.8604 345.729 46.6288 345.453 46.4008C345.157 46.1647 344.798 45.9717 344.383 45.8021C343.712 45.5275 343.043 45.4154 342.384 45.4461C341.718 45.4966 341.099 45.6583 340.518 45.9512C339.937 46.2441 339.422 46.6564 338.963 47.1602C338.495 47.6839 338.118 48.2676 337.843 48.9394C337.553 49.6506 337.385 50.343 337.352 51.0443C337.319 51.7456 337.397 52.4002 337.606 53.0162C337.796 53.624 338.125 54.1735 338.573 54.6565C339.021 55.1395 339.597 55.5363 340.288 55.819C341.039 56.1259 341.744 56.2065 342.375 56.0726C343.007 55.9386 343.524 55.6889 343.927 55.3233ZM348.155 58.7352L349.993 59.4864L353.878 49.9832L352.04 49.2321L348.155 58.7352ZM353.095 45.4667C352.942 45.842 352.959 46.1949 353.111 46.5568C353.263 46.9186 353.503 47.1781 353.878 47.3315C354.253 47.485 354.646 47.484 355.008 47.3322C355.369 47.1803 355.609 46.9324 355.763 46.557C355.916 46.1816 355.935 45.7973 355.783 45.4355C355.631 45.0736 355.344 44.8178 354.968 44.6643C354.593 44.5109 354.248 44.5083 353.886 44.6601C353.524 44.8119 353.249 45.0913 353.095 45.4667ZM360.451 54.3305C360.865 54.5001 361.177 54.6967 361.425 54.9364C361.665 55.1958 361.837 55.4508 361.982 55.7174C362.099 55.9958 362.168 56.2777 362.19 56.5633C362.211 56.8488 362.213 57.1263 362.175 57.3876L364.145 57.3629C364.192 56.9669 364.179 56.5466 364.116 56.0824C364.044 55.6379 363.896 55.2087 363.681 54.7751C363.447 54.3333 363.129 53.9266 362.728 53.555C362.306 53.1752 361.785 52.8701 361.153 52.6116C360.481 52.337 359.801 52.1971 359.123 52.2197C358.425 52.2342 357.774 52.3601 357.162 52.6171C356.561 52.9019 356.007 53.298 355.5 53.8055C355.012 54.321 354.611 54.9641 354.312 55.6951C354.014 56.4261 353.866 57.1265 353.852 57.8359C353.859 58.5534 353.977 59.2241 354.206 59.8482C354.435 60.4722 354.803 61.0378 355.271 61.5289C355.759 62.028 356.354 62.4329 357.046 62.7156C357.658 62.9659 358.252 63.0933 358.799 63.1093C359.365 63.1334 359.869 63.0857 360.346 62.9347C360.823 62.7838 361.248 62.5888 361.611 62.322C361.965 62.075 362.289 61.7921 362.545 61.5047L361.195 60.123C361.063 60.2766 360.896 60.4616 360.688 60.6305C360.473 60.8191 360.226 60.9718 359.928 61.0806C359.649 61.1974 359.328 61.2504 358.955 61.2595C358.602 61.2766 358.203 61.1825 357.748 60.9967C357.373 60.8432 357.03 60.6107 356.731 60.3271C356.432 60.0434 356.204 59.6968 356.069 59.2955C355.925 58.9139 355.853 58.4694 355.865 57.9899C355.876 57.5104 355.991 57.0039 356.209 56.4704C356.435 55.9172 356.716 55.4556 357.044 55.1053C357.372 54.7551 357.726 54.508 358.096 54.3364C358.486 54.1729 358.891 54.0848 359.283 54.0838C359.676 54.0828 360.075 54.177 360.451 54.3305ZM372.53 62.0128L367.334 59.8886C367.475 59.6003 367.655 59.3282 367.915 59.0883C368.174 58.8485 368.457 58.6644 368.771 58.5161C369.078 58.3876 369.415 58.2951 369.788 58.286C370.141 58.2689 370.521 58.355 370.916 58.5165C371.765 58.8638 372.301 59.3594 372.55 59.9915C372.79 60.6433 372.793 61.3132 372.53 62.0128ZM373.171 65.8029L371.797 64.5955C371.401 65.0562 370.919 65.3895 370.351 65.5953C369.783 65.801 369.117 65.7365 368.347 65.4215C367.951 65.26 367.608 65.0275 367.329 64.7519C367.03 64.4682 366.814 64.1495 366.663 63.7877C366.511 63.4258 366.415 63.0406 366.422 62.6285C366.429 62.2163 366.511 61.7888 366.661 61.3659L373.813 64.2897C373.857 64.2385 373.897 64.1397 373.958 64.049C373.998 63.9502 374.046 63.8317 374.095 63.7131C374.394 62.9821 374.57 62.27 374.622 61.5767C374.655 60.8754 374.577 60.2208 374.379 59.6327C374.182 59.0446 373.845 58.5149 373.369 58.0436C372.901 57.5525 372.297 57.1674 371.566 56.8686C370.974 56.6263 370.352 56.5106 369.694 56.5413C369.044 56.5522 368.432 56.6943 367.84 56.9593C367.239 57.2441 366.693 57.6205 366.186 58.1279C365.679 58.6354 365.278 59.2785 364.971 60.0292C364.64 60.8393 364.487 61.6071 364.486 62.3443C364.484 63.0815 364.602 63.7523 364.878 64.3727C365.135 64.985 365.512 65.5309 365.996 65.9824C366.48 66.434 367.044 66.8029 367.676 67.0614C368.229 67.2875 368.775 67.4185 369.294 67.4462C369.813 67.4739 370.317 67.4262 370.806 67.3031C371.266 67.1916 371.712 67.0047 372.122 66.7343C372.524 66.4837 372.864 66.1613 373.171 65.8029ZM376.634 66.8032L374.712 66.7093C374.638 67.0021 374.616 67.3388 374.665 67.7276C374.685 68.1281 374.801 68.5214 375.004 68.9272C375.188 69.325 375.486 69.7236 375.887 70.0953C376.269 70.4588 376.802 70.7919 377.454 71.0584C378.046 71.3007 378.592 71.4317 379.1 71.4315C379.615 71.4117 380.059 71.3397 380.477 71.1645C380.875 70.9812 381.221 70.754 381.497 70.4746C381.773 70.1953 381.997 69.872 382.134 69.5361C382.425 68.8249 382.45 68.1433 382.217 67.4717C381.965 66.792 381.458 66.1698 380.662 65.6366L379.258 64.6708C378.591 64.2139 378.389 63.6931 378.64 63.0806C378.777 62.7448 379.028 62.5247 379.43 62.389C379.831 62.2533 380.263 62.2685 380.737 62.4623C381.112 62.6158 381.385 62.7962 381.593 63.0197C381.801 63.2433 381.942 63.4624 382.008 63.6967C382.082 63.9113 382.128 64.1376 382.114 64.3396C382.101 64.5417 382.095 64.724 382.067 64.8506L383.957 64.9085C383.986 64.6669 383.985 64.3895 383.967 64.0366C383.95 63.6837 383.866 63.3263 383.702 62.9366C383.531 62.5667 383.272 62.1842 382.89 61.8207C382.528 61.4652 382.035 61.1483 381.383 60.8818C380.929 60.696 380.442 60.5893 379.963 60.5777C379.483 60.5661 379.039 60.6381 378.629 60.7935C378.22 60.949 377.834 61.1601 377.51 61.443C377.179 61.7457 376.947 62.0888 376.777 62.5037C376.502 63.1754 376.466 63.8292 376.687 64.4729C376.908 65.1167 377.371 65.6751 378.058 66.1401L379.532 67.1581C379.887 67.4184 380.127 67.6778 380.255 67.984C380.384 68.2902 380.378 68.5874 380.256 68.8838C380.119 69.2196 379.86 69.4594 379.478 69.6032C379.096 69.747 378.653 69.704 378.119 69.4859C377.448 69.2113 377.007 68.8235 376.769 68.3342C376.531 67.8448 376.491 67.3213 376.634 66.8032Z" fill="white"/>
	<rect x="11" y="139.506" width="263.574" height="46" rx="23" transform="rotate(-4.46216 11 139.506)" fill="#191B20"/>
	<path d="M32.762 168.902L34.741 168.748L34.2595 162.577C34.1997 161.811 34.3643 161.177 34.773 160.653C35.1604 160.13 35.7167 159.851 36.4402 159.795C37.2063 159.735 37.7761 159.904 38.1515 160.325C38.5268 160.745 38.7419 161.306 38.7934 161.966L39.2949 168.392L41.2952 168.236L40.8119 162.044C40.7538 161.299 40.9184 160.665 41.3271 160.141C41.7145 159.618 42.2708 159.34 42.973 159.285C43.7178 159.227 44.2877 159.396 44.663 159.817C45.0597 160.235 45.2747 160.796 45.3262 161.456L45.8277 167.883L47.8067 167.728L47.2886 161.089C47.2371 160.429 47.0842 159.842 46.8545 159.367C46.6248 158.893 46.3166 158.51 45.9512 158.217C45.6071 157.923 45.2058 157.719 44.7686 157.603C44.3314 157.487 43.8992 157.435 43.4523 157.47C42.7926 157.522 42.1855 157.698 41.59 158.022C40.9944 158.347 40.5236 158.898 40.1774 159.674C39.8493 159.036 39.3855 158.58 38.786 158.305C38.2079 158.029 37.6004 157.927 36.962 157.977C36.3662 158.023 35.7803 158.198 35.2274 158.519C34.6744 158.84 34.2591 159.28 33.9847 159.879L33.8785 158.517L31.9633 158.667L32.762 168.902ZM57.5738 165.724C57.5904 165.937 57.6087 166.171 57.6482 166.403C57.6894 166.657 57.7256 166.847 57.7552 166.952L59.6704 166.802C59.6342 166.612 59.593 166.359 59.5451 166.02C59.4989 165.702 59.4478 165.321 59.4162 164.917L58.7652 156.575L56.765 156.731L57.2465 162.902C57.308 163.69 57.1646 164.322 56.7985 164.843C56.4324 165.364 55.8335 165.646 55.0249 165.709C54.5993 165.742 54.2326 165.707 53.9443 165.579C53.6348 165.453 53.3858 165.28 53.176 165.061C52.9662 164.842 52.8153 164.554 52.7053 164.241C52.5952 163.929 52.5278 163.613 52.4995 163.251L52.0196 157.102L50.0193 157.258L50.5225 163.705C50.5673 164.28 50.6956 164.826 50.9041 165.303C51.1338 165.777 51.424 166.204 51.7714 166.541C52.1189 166.878 52.5464 167.144 53.0312 167.32C53.5372 167.495 54.0775 167.56 54.6733 167.513C55.2692 167.467 55.8337 167.294 56.3884 166.994C56.9446 166.715 57.3387 166.278 57.5738 165.724ZM62.8111 166.557L64.8114 166.401L63.6091 150.995L61.6089 151.151L62.8111 166.557ZM70.0368 155.696L69.7844 152.461L67.9543 152.604L68.0838 154.264C68.1187 154.711 68.0209 155.103 67.8101 155.42C67.578 155.738 67.1853 155.918 66.632 155.961L66.0788 156.004L66.2199 157.813L68.1776 157.66L68.616 163.278C68.6891 164.214 69.0009 164.918 69.5498 165.368C70.1004 165.838 70.8225 166.039 71.695 165.971C72.0355 165.944 72.3317 165.9 72.5625 165.839C72.7916 165.757 72.9585 165.701 73.0419 165.673L72.9091 163.971C72.8256 163.999 72.6996 164.03 72.5523 164.063C72.405 164.096 72.2561 164.107 72.1284 164.117C71.5964 164.159 71.2264 164.081 70.9953 163.863C70.7642 163.646 70.6296 163.292 70.5931 162.824L70.1779 157.504L72.391 157.332L72.2498 155.523L70.0368 155.696ZM75.4251 165.573L77.4041 165.418L76.6053 155.183L74.6263 155.337L75.4251 165.573ZM73.8772 151.499C73.9088 151.904 74.0827 152.211 74.3809 152.466C74.6791 152.721 75.0099 152.845 75.4142 152.814C75.8185 152.782 76.1687 152.605 76.4237 152.307C76.6788 152.009 76.7815 151.679 76.75 151.275C76.7184 150.871 76.5625 150.519 76.2643 150.264C75.9661 150.009 75.5944 149.91 75.19 149.941C74.7857 149.973 74.4765 150.125 74.2215 150.423C73.9664 150.722 73.8457 151.095 73.8772 151.499ZM80.0623 159.944L85.8291 159.494L85.6929 157.749L79.9262 158.199L80.0623 159.944ZM93.0962 155.437C93.5431 155.403 93.9098 155.438 94.239 155.541C94.5698 155.665 94.8384 155.815 95.0874 155.989C95.3168 156.185 95.5053 156.406 95.6529 156.651C95.8006 156.896 95.9269 157.143 96.0106 157.394L97.7596 156.487C97.6233 156.112 97.4232 155.742 97.1576 155.356C96.8936 154.991 96.5691 154.674 96.1825 154.383C95.7745 154.094 95.3077 153.873 94.7821 153.722C94.2351 153.572 93.6327 153.533 92.9517 153.586C92.2282 153.643 91.5572 153.823 90.9617 154.148C90.3449 154.475 89.8199 154.88 89.3883 155.384C88.9796 155.909 88.6627 156.511 88.4375 157.193C88.2336 157.872 88.1641 158.627 88.2255 159.414C88.287 160.202 88.4694 160.894 88.7763 161.534C89.1044 162.172 89.511 162.718 89.996 163.173C90.4811 163.627 91.0643 163.967 91.703 164.195C92.3629 164.422 93.0768 164.516 93.8216 164.458C94.4812 164.407 95.0688 164.254 95.5645 164.023C96.0816 163.79 96.5102 163.521 96.8683 163.172C97.2264 162.822 97.519 162.457 97.7232 162.056C97.9291 161.676 98.0907 161.278 98.1901 160.906L96.3642 160.278C96.3153 160.474 96.2484 160.715 96.139 160.959C96.0313 161.224 95.8793 161.472 95.6618 161.703C95.4656 161.932 95.2023 162.124 94.8734 162.3C94.5659 162.473 94.1665 162.569 93.6771 162.607C93.2728 162.639 92.8618 162.585 92.4672 162.466C92.0725 162.347 91.7138 162.139 91.4122 161.842C91.1124 161.565 90.8484 161.201 90.6433 160.767C90.4382 160.334 90.3132 159.829 90.2684 159.255C90.2219 158.659 90.2655 158.12 90.4008 157.66C90.5362 157.2 90.742 156.82 90.9954 156.501C91.2701 156.179 91.5923 155.919 91.9424 155.742C92.2926 155.564 92.6919 155.469 93.0962 155.437ZM107.427 161.834C107.444 162.047 107.462 162.281 107.501 162.513C107.543 162.767 107.579 162.957 107.608 163.061L109.524 162.912C109.487 162.722 109.446 162.468 109.398 162.13C109.352 161.812 109.301 161.431 109.269 161.026L108.618 152.685L106.618 152.841L107.1 159.012C107.161 159.799 107.018 160.431 106.652 160.952C106.286 161.473 105.687 161.755 104.878 161.819C104.453 161.852 104.086 161.816 103.798 161.689C103.488 161.563 103.239 161.39 103.029 161.171C102.819 160.952 102.668 160.664 102.558 160.351C102.448 160.039 102.381 159.723 102.353 159.361L101.873 153.211L99.8725 153.367L100.376 159.815C100.421 160.389 100.549 160.936 100.757 161.412C100.987 161.887 101.277 162.314 101.625 162.651C101.972 162.987 102.4 163.254 102.884 163.43C103.39 163.605 103.931 163.669 104.527 163.623C105.122 163.576 105.687 163.404 106.242 163.104C106.798 162.825 107.192 162.387 107.427 161.834ZM117.705 154.009L117.539 151.882C117.473 151.865 117.388 151.872 117.259 151.861C117.151 151.848 117.023 151.858 116.874 151.869C116.619 151.889 116.344 151.932 116.072 152.017C115.801 152.103 115.531 152.21 115.266 152.38C115.001 152.551 114.762 152.783 114.525 153.037C114.311 153.311 114.123 153.647 113.963 154.066L113.823 152.279L111.866 152.431L112.664 162.667L114.665 162.511L114.264 157.382C114.176 156.254 114.369 155.426 114.841 154.897C115.335 154.366 115.998 154.078 116.828 154.014C117.104 153.992 117.404 153.99 117.705 154.009ZM125.435 153.406L125.269 151.278C125.204 151.262 125.119 151.269 124.989 151.257C124.881 151.244 124.754 151.254 124.605 151.266C124.349 151.286 124.074 151.329 123.803 151.414C123.531 151.5 123.261 151.606 122.996 151.777C122.731 151.947 122.492 152.18 122.255 152.434C122.041 152.708 121.853 153.043 121.693 153.463L121.554 151.675L119.596 151.828L120.395 162.064L122.395 161.907L121.995 156.779C121.907 155.651 122.099 154.823 122.572 154.293C123.065 153.762 123.728 153.475 124.558 153.41C124.835 153.389 125.134 153.387 125.435 153.406ZM134.5 154.754L128.904 155.191C128.9 154.87 128.939 154.546 129.063 154.215C129.187 153.884 129.357 153.593 129.571 153.319C129.787 153.067 130.047 152.832 130.376 152.657C130.683 152.483 131.061 152.389 131.487 152.356C132.402 152.285 133.103 152.487 133.609 152.94C134.117 153.414 134.421 154.011 134.5 154.754ZM136.776 157.852L135.006 157.391C134.859 157.98 134.578 158.495 134.163 158.934C133.747 159.373 133.124 159.614 132.294 159.679C131.868 159.712 131.457 159.659 131.084 159.538C130.689 159.419 130.354 159.231 130.055 158.976C129.757 158.721 129.498 158.42 129.319 158.049C129.141 157.677 129.022 157.258 128.966 156.813L136.669 156.212C136.686 156.146 136.677 156.04 136.69 155.932C136.682 155.826 136.672 155.698 136.662 155.57C136.601 154.783 136.438 154.068 136.173 153.425C135.888 152.783 135.524 152.234 135.083 151.797C134.642 151.36 134.103 151.038 133.466 150.831C132.827 150.603 132.115 150.53 131.328 150.591C130.69 150.641 130.082 150.817 129.508 151.14C128.932 151.442 128.45 151.844 128.039 152.347C127.631 152.871 127.312 153.452 127.087 154.134C126.862 154.815 126.792 155.57 126.855 156.378C126.924 157.251 127.132 158.005 127.462 158.665C127.792 159.324 128.198 159.87 128.724 160.3C129.229 160.732 129.811 161.05 130.446 161.236C131.081 161.422 131.751 161.498 132.432 161.445C133.028 161.399 133.574 161.271 134.05 161.062C134.527 160.854 134.955 160.585 135.336 160.255C135.698 159.949 136.012 159.582 136.257 159.156C136.503 158.751 136.662 158.311 136.776 157.852ZM141.576 160.411L141.114 154.495C141.084 154.112 141.099 153.747 141.178 153.398C141.258 153.049 141.384 152.74 141.556 152.469C141.727 152.199 141.966 151.966 142.252 151.794C142.538 151.622 142.874 151.532 143.278 151.5C143.725 151.465 144.092 151.501 144.421 151.604C144.731 151.729 144.999 151.88 145.209 152.099C145.419 152.318 145.568 152.584 145.678 152.897C145.767 153.211 145.834 153.527 145.862 153.889L146.342 160.039L148.343 159.883L147.836 153.392C147.791 152.818 147.686 152.291 147.499 151.813C147.312 151.335 147.044 150.928 146.718 150.589C146.371 150.252 145.965 149.984 145.503 149.828C145.018 149.652 144.478 149.587 143.861 149.635C143.265 149.681 142.7 149.854 142.147 150.175C141.594 150.497 141.161 150.98 140.849 151.647L140.734 150.178L138.777 150.331L139.575 160.567L141.576 160.411ZM155.252 150.587C155.699 150.552 156.065 150.588 156.394 150.691C156.725 150.815 156.994 150.965 157.243 151.138C157.472 151.334 157.661 151.555 157.808 151.801C157.956 152.046 158.082 152.293 158.166 152.543L159.915 151.636C159.779 151.261 159.579 150.892 159.313 150.506C159.049 150.141 158.725 149.824 158.338 149.533C157.93 149.243 157.463 149.023 156.938 148.871C156.391 148.721 155.788 148.683 155.107 148.736C154.384 148.792 153.713 148.973 153.117 149.298C152.5 149.624 151.975 150.029 151.544 150.534C151.135 151.058 150.818 151.661 150.593 152.342C150.389 153.022 150.32 153.777 150.381 154.564C150.442 155.351 150.625 156.043 150.932 156.683C151.26 157.321 151.666 157.868 152.151 158.322C152.637 158.777 153.22 159.117 153.858 159.345C154.518 159.572 155.232 159.666 155.977 159.608C156.637 159.556 157.224 159.404 157.72 159.172C158.237 158.939 158.666 158.67 159.024 158.321C159.382 157.972 159.674 157.607 159.879 157.205C160.085 156.825 160.246 156.427 160.346 156.056L158.52 155.427C158.471 155.624 158.404 155.865 158.294 156.109C158.187 156.374 158.035 156.621 157.817 156.852C157.621 157.082 157.358 157.274 157.029 157.449C156.721 157.623 156.322 157.718 155.833 157.757C155.428 157.788 155.017 157.735 154.623 157.616C154.228 157.496 153.869 157.289 153.568 156.991C153.268 156.715 153.004 156.35 152.799 155.917C152.594 155.483 152.469 154.979 152.424 154.404C152.377 153.809 152.421 153.27 152.556 152.81C152.692 152.35 152.897 151.97 153.151 151.65C153.426 151.329 153.748 151.068 154.098 150.891C154.448 150.714 154.847 150.619 155.252 150.587ZM163.656 162.991L165.848 162.82L171.376 147.787L169.227 147.955L166.714 155.259L162.971 148.443L160.673 148.623L165.788 157.386L163.656 162.991ZM179.894 152.239C179.853 151.707 179.88 151.234 179.994 150.776C180.108 150.317 180.27 149.919 180.522 149.578C180.752 149.239 181.053 148.98 181.421 148.759C181.77 148.56 182.189 148.442 182.635 148.407C183.55 148.336 184.299 148.599 184.861 149.218C185.445 149.837 185.766 150.668 185.849 151.732C185.891 152.264 185.865 152.758 185.751 153.217C185.658 153.674 185.498 154.093 185.268 154.432C185.037 154.771 184.738 155.051 184.391 155.271C184.045 155.491 183.627 155.63 183.18 155.665C182.691 155.703 182.259 155.652 181.882 155.488C181.505 155.325 181.166 155.095 180.886 154.795C180.606 154.496 180.383 154.107 180.22 153.67C180.036 153.234 179.936 152.771 179.894 152.239ZM186.155 155.369L186.168 155.539C186.193 155.858 186.236 156.133 186.275 156.366C186.316 156.619 186.353 156.809 186.382 156.914L188.319 156.763C188.291 156.679 188.253 156.468 188.205 156.13C188.157 155.791 188.103 155.367 188.064 154.877L187.01 141.365L185.031 141.519L185.547 148.137C185.446 147.931 185.301 147.728 185.115 147.529C184.929 147.35 184.702 147.176 184.433 147.025C184.166 146.896 183.858 146.792 183.509 146.712C183.139 146.634 182.732 146.623 182.285 146.658C181.561 146.714 180.913 146.915 180.339 147.238C179.766 147.582 179.286 148.005 178.898 148.528C178.511 149.05 178.236 149.65 178.052 150.306C177.87 150.984 177.795 151.675 177.852 152.399C177.911 153.165 178.073 153.859 178.358 154.5C178.644 155.142 179.008 155.691 179.471 156.147C179.914 156.605 180.455 156.948 181.072 157.179C181.689 157.409 182.382 157.505 183.127 157.446C183.935 157.383 184.601 157.139 185.105 156.735C185.609 156.332 185.959 155.877 186.155 155.369ZM198.027 149.797L192.431 150.233C192.427 149.913 192.466 149.588 192.59 149.258C192.714 148.927 192.884 148.635 193.098 148.362C193.314 148.109 193.574 147.875 193.903 147.699C194.21 147.525 194.588 147.432 195.014 147.398C195.929 147.327 196.63 147.529 197.136 147.982C197.644 148.456 197.948 149.054 198.027 149.797ZM200.303 152.895L198.533 152.433C198.386 153.023 198.105 153.537 197.69 153.976C197.274 154.416 196.651 154.657 195.821 154.722C195.395 154.755 194.984 154.701 194.611 154.581C194.216 154.461 193.881 154.274 193.582 154.019C193.284 153.764 193.025 153.463 192.846 153.091C192.668 152.72 192.549 152.301 192.493 151.856L200.196 151.254C200.213 151.189 200.204 151.083 200.217 150.975C200.209 150.868 200.199 150.74 200.189 150.613C200.128 149.825 199.965 149.11 199.7 148.467C199.415 147.826 199.051 147.276 198.61 146.84C198.169 146.403 197.63 146.081 196.993 145.874C196.354 145.645 195.642 145.572 194.855 145.634C194.217 145.684 193.609 145.86 193.035 146.183C192.459 146.485 191.977 146.886 191.566 147.389C191.158 147.913 190.839 148.495 190.614 149.176C190.389 149.857 190.319 150.612 190.382 151.421C190.45 152.293 190.659 153.048 190.989 153.707C191.319 154.366 191.725 154.913 192.251 155.343C192.756 155.774 193.338 156.093 193.973 156.279C194.608 156.465 195.278 156.541 195.959 156.488C196.555 156.441 197.101 156.313 197.577 156.105C198.054 155.896 198.482 155.627 198.863 155.298C199.225 154.991 199.539 154.624 199.784 154.198C200.03 153.794 200.189 153.353 200.303 152.895ZM203.418 159.652L205.397 159.498L204.974 154.072C205.285 154.497 205.742 154.868 206.342 155.142C206.941 155.417 207.635 155.534 208.423 155.472C209.167 155.414 209.837 155.212 210.411 154.889C210.964 154.568 211.445 154.145 211.811 153.624C212.177 153.103 212.453 152.525 212.614 151.848C212.776 151.172 212.827 150.461 212.768 149.695C212.709 148.951 212.55 148.278 212.307 147.633C212.043 146.99 211.701 146.46 211.28 146.001C210.838 145.543 210.318 145.198 209.722 144.966C209.105 144.736 208.414 144.661 207.648 144.721C206.818 144.786 206.108 145.013 205.561 145.419C205.015 145.826 204.601 146.286 204.365 146.819L204.24 145.223L202.304 145.374L203.418 159.652ZM210.725 149.855C210.766 150.387 210.739 150.86 210.625 151.318C210.511 151.777 210.349 152.175 210.119 152.514C209.867 152.855 209.568 153.135 209.219 153.334C208.872 153.553 208.453 153.672 207.985 153.708C207.538 153.743 207.106 153.691 206.729 153.528C206.333 153.387 205.994 153.157 205.692 152.859C205.391 152.562 205.17 152.194 204.986 151.758C204.802 151.323 204.702 150.86 204.66 150.328C204.62 149.817 204.647 149.344 204.762 148.886C204.877 148.449 205.039 148.051 205.291 147.71C205.542 147.369 205.843 147.11 206.211 146.889C206.558 146.669 206.977 146.551 207.424 146.516C207.892 146.479 208.324 146.531 208.722 146.693C209.099 146.856 209.437 147.065 209.717 147.364C209.997 147.664 210.218 148.032 210.401 148.446C210.584 148.881 210.685 149.344 210.725 149.855ZM220.176 152.8C219.751 152.833 219.34 152.779 218.945 152.66C218.551 152.541 218.192 152.334 217.869 152.038C217.546 151.742 217.282 151.377 217.077 150.943C216.872 150.51 216.745 149.984 216.699 149.389C216.652 148.793 216.696 148.254 216.831 147.794C216.967 147.334 217.173 146.954 217.446 146.611C217.719 146.269 218.041 146.008 218.412 145.829C218.784 145.651 219.181 145.534 219.607 145.501C220.032 145.468 220.443 145.521 220.838 145.64C221.233 145.759 221.591 145.967 221.914 146.263C222.237 146.559 222.499 146.902 222.705 147.336C222.91 147.769 223.036 148.295 223.083 148.89C223.129 149.486 223.086 150.025 222.95 150.485C222.815 150.945 222.611 151.346 222.338 151.689C222.065 152.031 221.743 152.292 221.371 152.471C221 152.65 220.602 152.766 220.176 152.8ZM219.467 143.713C218.701 143.773 218.009 143.955 217.392 144.282C216.775 144.608 216.252 145.035 215.822 145.561C215.392 146.087 215.074 146.668 214.87 147.348C214.666 148.027 214.595 148.761 214.656 149.548C214.718 150.335 214.902 151.049 215.208 151.689C215.515 152.328 215.922 152.875 216.428 153.328C216.935 153.781 217.516 154.099 218.176 154.326C218.838 154.574 219.55 154.647 220.316 154.587C221.082 154.527 221.774 154.345 222.389 153.997C223.006 153.671 223.531 153.266 223.961 152.74C224.391 152.214 224.708 151.611 224.912 150.931C225.116 150.252 225.187 149.518 225.126 148.731C225.064 147.944 224.88 147.23 224.573 146.59C224.266 145.951 223.861 145.426 223.355 144.973C222.849 144.52 222.266 144.18 221.606 143.953C220.946 143.726 220.233 143.653 219.467 143.713ZM228.824 150.284L227.065 151.063C227.131 151.358 227.262 151.669 227.48 151.994C227.678 152.343 227.959 152.642 228.322 152.913C228.665 153.186 229.11 153.408 229.636 153.56C230.14 153.713 230.766 153.772 231.468 153.717C232.106 153.667 232.653 153.539 233.106 153.311C233.558 153.061 233.923 152.797 234.217 152.453C234.49 152.111 234.697 151.752 234.818 151.379C234.939 151.005 234.994 150.616 234.966 150.254C234.906 149.488 234.622 148.868 234.113 148.372C233.582 147.878 232.849 147.55 231.898 147.432L230.21 147.2C229.41 147.091 228.995 146.716 228.943 146.057C228.915 145.695 229.041 145.385 229.339 145.084C229.636 144.782 230.029 144.602 230.54 144.562C230.944 144.53 231.268 144.569 231.555 144.675C231.841 144.781 232.066 144.914 232.23 145.094C232.392 145.252 232.534 145.434 232.613 145.62C232.692 145.807 232.769 145.972 232.8 146.098L234.515 145.301C234.433 145.072 234.307 144.825 234.133 144.517C233.959 144.209 233.723 143.928 233.402 143.653C233.082 143.4 232.679 143.175 232.175 143.021C231.692 142.866 231.109 142.805 230.407 142.86C229.917 142.898 229.435 143.021 229.001 143.226C228.567 143.431 228.203 143.695 227.907 144.018C227.611 144.341 227.361 144.703 227.199 145.101C227.039 145.52 226.985 145.931 227.02 146.378C227.077 147.102 227.338 147.702 227.824 148.178C228.311 148.654 228.976 148.944 229.798 149.051L231.573 149.298C232.007 149.372 232.338 149.496 232.59 149.711C232.842 149.927 232.97 150.196 232.995 150.515C233.023 150.876 232.899 151.207 232.623 151.507C232.347 151.807 231.931 151.968 231.357 152.013C230.633 152.069 230.065 151.921 229.632 151.591C229.2 151.26 228.929 150.811 228.824 150.284ZM237.765 152.904L239.744 152.75L238.945 142.514L236.966 142.669L237.765 152.904ZM236.217 138.831C236.249 139.235 236.422 139.543 236.721 139.798C237.019 140.053 237.35 140.177 237.754 140.145C238.158 140.114 238.508 139.937 238.764 139.638C239.019 139.34 239.121 139.011 239.09 138.607C239.058 138.202 238.902 137.851 238.604 137.595C238.306 137.34 237.934 137.241 237.53 137.273C237.126 137.304 236.816 137.457 236.561 137.755C236.306 138.053 236.185 138.426 236.217 138.831ZM244.97 142.044L244.717 138.81L242.887 138.953L243.017 140.612C243.052 141.059 242.954 141.452 242.743 141.768C242.511 142.086 242.118 142.267 241.565 142.31L241.012 142.353L241.153 144.162L243.111 144.009L243.549 149.627C243.622 150.563 243.934 151.267 244.483 151.716C245.033 152.187 245.756 152.388 246.628 152.32C246.968 152.293 247.265 152.249 247.495 152.188C247.725 152.106 247.891 152.05 247.975 152.022L247.842 150.32C247.759 150.347 247.633 150.379 247.485 150.412C247.338 150.444 247.189 150.456 247.061 150.466C246.529 150.508 246.159 150.429 245.928 150.212C245.697 149.994 245.563 149.641 245.526 149.173L245.111 143.853L247.324 143.68L247.183 141.872L244.97 142.044ZM251.101 148.545L249.342 149.325C249.408 149.619 249.539 149.93 249.757 150.256C249.956 150.604 250.236 150.903 250.6 151.175C250.942 151.448 251.387 151.67 251.913 151.822C252.418 151.975 253.043 152.033 253.745 151.978C254.384 151.929 254.93 151.8 255.383 151.572C255.835 151.323 256.2 151.059 256.494 150.715C256.767 150.372 256.974 150.014 257.095 149.64C257.216 149.267 257.271 148.877 257.243 148.515C257.183 147.749 256.899 147.129 256.39 146.634C255.859 146.14 255.127 145.812 254.175 145.693L252.487 145.461C251.687 145.352 251.272 144.978 251.221 144.318C251.192 143.956 251.318 143.647 251.616 143.345C251.913 143.044 252.306 142.863 252.817 142.823C253.221 142.792 253.545 142.831 253.832 142.937C254.118 143.043 254.343 143.175 254.507 143.355C254.669 143.514 254.812 143.695 254.89 143.882C254.969 144.069 255.046 144.234 255.077 144.36L256.792 143.562C256.71 143.333 256.584 143.086 256.41 142.779C256.236 142.471 256 142.19 255.679 141.915C255.359 141.662 254.956 141.436 254.452 141.283C253.969 141.128 253.386 141.066 252.684 141.121C252.194 141.159 251.712 141.283 251.278 141.488C250.844 141.693 250.48 141.957 250.184 142.28C249.888 142.602 249.638 142.965 249.476 143.362C249.316 143.782 249.263 144.193 249.297 144.64C249.354 145.363 249.615 145.964 250.102 146.439C250.588 146.915 251.253 147.206 252.075 147.313L253.85 147.56C254.284 147.633 254.615 147.757 254.867 147.973C255.119 148.189 255.247 148.457 255.272 148.776C255.3 149.138 255.176 149.469 254.9 149.769C254.624 150.069 254.208 150.23 253.634 150.274C252.91 150.331 252.342 150.182 251.909 149.852C251.477 149.522 251.206 149.072 251.101 148.545Z" fill="white"/>
	<rect x="14.4589" y="45" width="151.574" height="46" rx="23" transform="rotate(18.32 14.4589 45)" fill="#191B20"/>
	<path d="M25.0448 81.1602L26.9435 75.4259C27.0845 75.0679 27.2593 74.7436 27.4613 74.4732C27.6632 74.2028 27.899 73.9661 28.1552 73.8036C28.4113 73.6411 28.7149 73.5392 29.0455 73.4913C29.3559 73.4367 29.7002 73.4832 30.0649 73.604C30.4904 73.7449 30.8148 73.9197 31.0717 74.1622C31.3152 74.3777 31.4979 74.6406 31.6065 74.9238C31.7151 75.2071 31.7561 75.4905 31.7365 75.8213C31.6967 76.1453 31.6366 76.4627 31.5225 76.8072L29.5836 82.663L31.4883 83.2937L33.5345 77.1136C33.7157 76.5665 33.8226 76.0398 33.8351 75.5268C33.8476 75.0138 33.7589 74.5348 33.5892 74.0964C33.3993 73.6513 33.1285 73.2469 32.7634 72.9236C32.3847 72.5734 31.9117 72.3044 31.3241 72.1098C30.7568 71.9219 30.1761 71.8421 29.5755 71.8906C28.9749 71.939 28.4083 72.1561 27.8962 72.5487L29.9022 66.4902L27.9975 65.8595L23.1402 80.5295L25.0448 81.1602ZM34.6757 81.4486C34.5482 81.8336 34.5018 82.2454 34.5499 82.6436C34.5776 83.035 34.6999 83.4127 34.8964 83.7701C35.0928 84.1274 35.3635 84.4643 35.715 84.7606C36.0464 85.0502 36.4653 85.2788 36.9719 85.4466C37.3974 85.5874 37.8227 85.6608 38.2008 85.6736C38.5788 85.6863 38.9027 85.6587 39.2198 85.5838C39.5369 85.5089 39.7999 85.3936 40.0426 85.2717C40.2853 85.1497 40.4876 85.0143 40.6493 84.8655C40.5352 85.2099 40.4615 85.5003 40.4147 85.7096C40.3679 85.919 40.3345 86.0878 40.3145 86.2161L42.1786 86.8333C42.1986 86.705 42.2185 86.5092 42.2854 86.2391C42.3524 85.969 42.4462 85.6178 42.5871 85.1923L44.2039 80.309C44.3582 79.843 44.4315 79.3501 44.4306 78.8777C44.4296 78.4052 44.3139 77.9397 44.0971 77.5082C43.8802 77.0766 43.5419 76.6723 43.1025 76.302C42.6563 75.9519 42.0617 75.6426 41.3322 75.4011C40.8054 75.2266 40.2923 75.1467 39.7793 75.1342C39.2596 75.142 38.7603 75.224 38.3219 75.3936C37.8902 75.543 37.4925 75.7935 37.1421 76.1047C36.7917 76.4159 36.509 76.7944 36.2939 77.2403L37.9767 78.2696C38.2253 77.7224 38.6025 77.3302 39.088 77.0862C39.5802 76.822 40.1674 76.8141 40.836 77.0355C41.5857 77.2837 42.0522 77.6405 42.2826 78.099C42.4927 78.5508 42.5207 79.0097 42.3664 79.4758C42.306 79.6581 42.2185 79.7866 42.0702 79.8949C41.9219 80.0031 41.6925 80.0171 41.3751 79.957L38.6135 79.4698C38.1679 79.3897 37.7427 79.3838 37.331 79.4049C36.9193 79.426 36.5483 79.528 36.2043 79.6839C35.8604 79.8398 35.5369 80.07 35.281 80.3675C35.0251 80.665 34.8166 81.0231 34.6757 81.4486ZM37.7653 83.933C37.279 83.772 36.941 83.5027 36.7512 83.1251C36.5682 82.7273 36.5337 82.3561 36.6544 81.9914C36.7953 81.5659 37.0512 81.2684 37.3884 81.1327C37.7324 80.9768 38.1305 80.9287 38.5559 81.0021L41.682 81.5425L41.5344 81.9883C41.36 82.5151 41.1314 82.9341 40.8621 83.2721C40.5995 83.5899 40.2962 83.8267 39.9792 83.9691C39.642 84.1048 39.3047 84.1729 38.9267 84.1602C38.5487 84.1475 38.1503 84.0605 37.7653 83.933ZM47.057 84.9635L45.1334 85.0012C45.08 85.2982 45.0807 85.6357 45.1557 86.0203C45.2038 86.4184 45.3463 86.8029 45.5765 87.1939C45.7866 87.5782 46.1113 87.9555 46.5372 88.2989C46.9429 88.6356 47.4969 88.9315 48.1656 89.1529C48.7735 89.3541 49.3271 89.4475 49.8333 89.4127C50.3461 89.3577 50.7847 89.2556 51.1892 89.0523C51.5736 88.8423 51.9038 88.5919 52.1597 88.2944C52.4156 87.9969 52.6174 87.659 52.7314 87.3145C52.973 86.5851 52.9513 85.9034 52.6733 85.2493C52.375 84.5884 51.8271 84.0023 50.9959 83.5247L49.5295 82.6569C48.8335 82.2466 48.5962 81.7409 48.8042 81.1127C48.9182 80.7683 49.154 80.5316 49.5452 80.3688C49.9363 80.206 50.3683 80.1916 50.8546 80.3527C51.2395 80.4801 51.5233 80.6415 51.7465 80.8503C51.9697 81.0591 52.1253 81.2681 52.2068 81.4974C52.2949 81.7064 52.3561 81.9291 52.3565 82.1316C52.357 82.334 52.3641 82.5163 52.3441 82.6446L54.2338 82.5733C54.2469 82.3302 54.226 82.0536 54.1848 81.7027C54.1436 81.3518 54.0349 81.001 53.8452 80.6234C53.6487 80.2661 53.3645 79.9021 52.9589 79.5655C52.5735 79.2355 52.0599 78.9531 51.3913 78.7317C50.9252 78.5774 50.4324 78.5041 49.9532 78.5253C49.474 78.5465 49.0355 78.6486 48.6376 78.8317C48.2397 79.0147 47.869 79.2517 47.5659 79.556C47.256 79.8806 47.0475 80.2388 46.9066 80.6643C46.6785 81.3532 46.6866 82.0079 46.9511 82.6351C47.2156 83.2623 47.7161 83.7878 48.4324 84.2048L49.9732 85.1197C50.3449 85.3552 50.6018 85.5976 50.7509 85.8943C50.9 86.191 50.9141 86.488 50.8135 86.7919C50.6994 87.1364 50.457 87.3933 50.0861 87.5628C49.7152 87.7323 49.2697 87.7197 48.7226 87.5386C48.0337 87.3105 47.5672 86.9537 47.2963 86.4817C47.0253 86.0098 46.9501 85.4902 47.057 84.9635ZM56.1904 91.4727L58.0891 85.7384C58.2301 85.3804 58.4049 85.056 58.6069 84.7857C58.8088 84.5153 59.0446 84.2786 59.3008 84.116C59.5569 83.9535 59.8605 83.8517 60.1911 83.8038C60.5015 83.7492 60.8458 83.7957 61.2105 83.9165C61.636 84.0574 61.9604 84.2322 62.2173 84.4747C62.4608 84.6902 62.6435 84.953 62.7521 85.2363C62.8607 85.5196 62.9017 85.803 62.8821 86.1338C62.8423 86.4578 62.7822 86.7752 62.6681 87.1196L60.7292 92.9755L62.6339 93.6061L64.6801 87.4261C64.8613 86.879 64.9682 86.3523 64.9807 85.8393C64.9932 85.3263 64.9044 84.8473 64.7348 84.4089C64.5449 83.9638 64.2741 83.5593 63.909 83.2361C63.5303 82.8859 63.0573 82.6168 62.4697 82.4223C61.9024 82.2344 61.3217 82.1546 60.7211 82.203C60.1205 82.2515 59.5539 82.4686 59.0418 82.8611L61.0477 76.8027L59.1431 76.172L54.2858 90.842L56.1904 91.4727ZM70.7094 96.28L72.5938 96.9039L74.5394 91.0278C74.781 90.2984 75.1781 89.7778 75.758 89.4527C76.3175 89.1208 76.9384 89.0791 77.6273 89.3072C78.3568 89.5487 78.8165 89.9258 78.9998 90.4586C79.1831 90.9915 79.1641 91.5923 78.9561 92.2204L76.93 98.3396L78.8347 98.9703L80.787 93.0739C81.0218 92.3647 81.419 91.8442 81.9988 91.5191C82.5584 91.1872 83.1792 91.1455 83.8479 91.3669C84.5571 91.6017 85.0168 91.9787 85.2001 92.5116C85.4037 93.0512 85.3847 93.6519 85.1767 94.28L83.1506 100.399L85.035 101.023L87.1282 94.7014C87.3362 94.0732 87.4227 93.4723 87.3946 92.9459C87.3666 92.4195 87.2306 91.9473 87.0071 91.536C86.8038 91.1314 86.5129 90.7878 86.1546 90.5118C85.7963 90.2358 85.4179 90.0205 84.9924 89.8796C84.3642 89.6717 83.7364 89.5987 83.0615 89.6675C82.3867 89.7364 81.7394 90.0617 81.1196 90.6434C81.0642 89.928 80.8132 89.3278 80.3668 88.8427C79.9406 88.3644 79.4202 88.0347 78.8123 87.8334C78.245 87.6455 77.6374 87.5793 77.0031 87.6615C76.3688 87.7438 75.8158 87.9879 75.3307 88.4344L75.7601 87.1376L73.9365 86.5337L70.7094 96.28ZM88.0037 102.006L89.8881 102.63L93.1152 92.8839L91.2308 92.26L88.0037 102.006ZM92.0263 88.4313C91.8988 88.8163 91.94 89.1672 92.1162 89.5178C92.2924 89.8685 92.5494 90.1109 92.9344 90.2384C93.3194 90.3659 93.7108 90.3381 94.0614 90.1619C94.412 89.9857 94.6343 89.722 94.7617 89.337C94.8892 88.9521 94.8817 88.5673 94.7055 88.2167C94.5293 87.8661 94.2251 87.6305 93.8401 87.503C93.4551 87.3755 93.1109 87.3965 92.7603 87.5726C92.4097 87.7488 92.1538 88.0463 92.0263 88.4313ZM94.8751 104.281L96.7402 98.6484C96.8609 98.2837 97.0155 97.9526 97.2242 97.662C97.4328 97.3713 97.6686 97.1346 97.9315 96.9518C98.1943 96.7691 98.5046 96.647 98.8352 96.599C99.1659 96.5511 99.5102 96.5977 99.8952 96.7252C100.321 96.8661 100.645 97.0409 100.909 97.2631C101.145 97.4989 101.335 97.7415 101.443 98.0247C101.552 98.308 101.586 98.6117 101.567 98.9424C101.527 99.2665 101.467 99.5839 101.353 99.9283L99.4139 105.784L101.319 106.415L103.365 100.235C103.546 99.6877 103.653 99.161 103.665 98.648C103.678 98.135 103.589 97.656 103.419 97.2176C103.23 96.7725 102.959 96.368 102.594 96.0448C102.215 95.6946 101.742 95.4255 101.154 95.231C100.587 95.0431 99.9997 94.9835 99.3654 95.0658C98.7311 95.1481 98.1444 95.426 97.5987 95.9198L98.0616 94.5217L96.1974 93.9045L92.9704 103.651L94.8751 104.281ZM104.289 107.398L106.173 108.022L109.4 98.276L107.516 97.6521L104.289 107.398ZM108.311 93.8234C108.184 94.2084 108.225 94.5593 108.401 94.9099C108.578 95.2606 108.835 95.503 109.22 95.6305C109.605 95.758 109.996 95.7302 110.347 95.554C110.697 95.3778 110.919 95.1141 111.047 94.7291C111.174 94.3442 111.167 93.9594 110.991 93.6088C110.814 93.2582 110.51 93.0226 110.125 92.8951C109.74 92.7676 109.396 92.7886 109.045 92.9647C108.695 93.1409 108.439 93.4384 108.311 93.8234ZM111.16 109.673L113.025 104.04C113.146 103.676 113.301 103.345 113.509 103.054C113.718 102.763 113.954 102.527 114.217 102.344C114.479 102.161 114.79 102.039 115.12 101.991C115.451 101.943 115.795 101.99 116.18 102.117C116.606 102.258 116.93 102.433 117.194 102.655C117.431 102.891 117.62 103.134 117.729 103.417C117.837 103.7 117.872 104.004 117.852 104.335C117.812 104.659 117.752 104.976 117.638 105.32L115.699 111.176L117.604 111.807L119.65 105.627C119.831 105.08 119.938 104.553 119.95 104.04C119.963 103.527 119.874 103.048 119.705 102.61C119.515 102.165 119.244 101.76 118.879 101.437C118.5 101.087 118.027 100.818 117.44 100.623C116.872 100.435 116.285 100.376 115.651 100.458C115.016 100.54 114.43 100.818 113.884 101.312L114.347 99.9138L112.483 99.2966L109.256 109.043L111.16 109.673ZM121.736 113.288L119.751 113.103C119.638 113.65 119.618 114.183 119.734 114.716C119.836 115.222 120.033 115.714 120.331 116.172C120.609 116.624 120.988 117.042 121.454 117.399C121.9 117.749 122.441 118.018 123.049 118.219C123.96 118.521 124.777 118.634 125.493 118.579C126.215 118.503 126.842 118.306 127.375 117.988C127.914 117.649 128.345 117.23 128.702 116.696C129.058 116.162 129.341 115.581 129.549 114.953L132.534 105.936L130.65 105.312L130.2 106.669C130.118 106.103 129.881 105.597 129.462 105.166C129.042 104.735 128.461 104.385 127.711 104.137C127.043 103.915 126.395 103.835 125.767 103.897C125.133 103.98 124.539 104.143 124.013 104.441C123.487 104.739 123.016 105.145 122.605 105.638C122.187 106.152 121.885 106.727 121.663 107.395C121.435 108.084 121.349 108.753 121.377 109.414C121.406 110.075 121.548 110.662 121.82 111.202C122.064 111.755 122.443 112.24 122.916 112.644C123.382 113.068 123.93 113.384 124.578 113.599C125.308 113.841 125.989 113.886 126.597 113.75C127.204 113.614 127.716 113.357 128.087 112.985L127.624 114.383C127.275 115.436 126.77 116.146 126.13 116.519C125.469 116.884 124.632 116.9 123.599 116.557C122.849 116.309 122.315 115.885 121.976 115.278C121.664 114.658 121.569 113.997 121.736 113.288ZM125.392 112.092C124.521 111.804 123.926 111.292 123.607 110.557C123.281 109.842 123.293 108.992 123.609 108.039C123.924 107.087 124.436 106.424 125.13 106.025C125.824 105.625 126.607 105.57 127.458 105.851C128.289 106.127 128.864 106.632 129.182 107.367C129.501 108.102 129.516 108.939 129.201 109.891C128.886 110.843 128.374 111.506 127.68 111.905C126.985 112.305 126.223 112.367 125.392 112.092Z" fill="white"/>
	<rect x="148.288" y="63" width="272.574" height="46" rx="23" transform="rotate(5.34818 148.288 63)" fill="#191B20"/>
	<path d="M175.092 96.6449L180.13 86.805L177.983 86.6041L174.312 94.2138L172.139 86.057L169.886 85.8461L173.073 96.4559L175.092 96.6449ZM180.549 94.3903C180.511 94.7941 180.559 95.2058 180.695 95.583C180.81 95.9582 181.014 96.2989 181.285 96.603C181.557 96.9071 181.896 97.1747 182.305 97.3845C182.693 97.5923 183.153 97.7211 183.684 97.7708C184.13 97.8126 184.561 97.7886 184.933 97.7162C185.304 97.6437 185.613 97.5441 185.905 97.3999C186.198 97.2558 186.428 97.0844 186.637 96.9111C186.846 96.7377 187.013 96.5604 187.137 96.3791C187.103 96.7403 187.097 97.0398 187.098 97.2543C187.1 97.4688 187.105 97.6408 187.114 97.7703L189.069 97.9534C189.06 97.8239 189.035 97.6286 189.04 97.3504C189.045 97.0721 189.057 96.7089 189.099 96.2626L189.578 91.141C189.624 90.6522 189.585 90.1555 189.478 89.6953C189.371 89.2351 189.154 88.8074 188.846 88.4356C188.537 88.0637 188.117 87.7457 187.606 87.4834C187.092 87.2424 186.443 87.0745 185.678 87.0029C185.126 86.9512 184.608 86.9884 184.105 87.0914C183.6 87.2157 183.132 87.4077 182.743 87.6714C182.356 87.9138 182.025 88.2472 181.753 88.6291C181.481 89.011 181.291 89.4434 181.181 89.9262L183.052 90.5515C183.172 89.9624 183.451 89.4955 183.87 89.1488C184.29 88.7809 184.86 88.6413 185.562 88.707C186.348 88.7806 186.883 89.0236 187.21 89.4187C187.516 89.8118 187.646 90.2527 187.601 90.7415C187.583 90.9327 187.526 91.0775 187.406 91.2163C187.286 91.3552 187.065 91.4203 186.743 91.4329L183.942 91.5781C183.49 91.6 183.074 91.6898 182.678 91.8027C182.281 91.9157 181.943 92.0983 181.643 92.3275C181.342 92.5566 181.079 92.8535 180.896 93.2009C180.714 93.5482 180.591 93.944 180.549 94.3903ZM184.118 96.1178C183.608 96.0701 183.218 95.8835 182.948 95.5581C182.68 95.2115 182.563 94.8576 182.599 94.475C182.641 94.0288 182.824 93.6814 183.122 93.4735C183.422 93.2444 183.799 93.1082 184.23 93.0842L187.398 92.9091L187.354 93.3767C187.302 93.9292 187.173 94.3888 186.987 94.7786C186.802 95.1472 186.56 95.4461 186.283 95.656C185.985 95.8639 185.672 96.006 185.3 96.0785C184.929 96.1509 184.521 96.1556 184.118 96.1178ZM198.538 90.5649L198.737 88.4398C198.675 88.4126 198.59 88.4046 198.465 88.3714C198.361 88.3402 198.233 88.3283 198.084 88.3144C197.829 88.2905 197.551 88.2859 197.269 88.3238C196.987 88.3616 196.702 88.4208 196.412 88.5437C196.122 88.6666 195.847 88.8552 195.57 89.0651C195.313 89.2982 195.07 89.5971 194.841 89.983L195.008 88.1979L193.053 88.0149L192.096 98.2367L194.094 98.4238L194.573 93.3022C194.679 92.1759 195.009 91.3922 195.565 90.9511C196.142 90.5121 196.844 90.342 197.673 90.4196C197.949 90.4455 198.245 90.4946 198.538 90.5649ZM199.816 98.9595L201.793 99.1445L202.75 88.9226L200.773 88.7376L199.816 98.9595ZM200.689 84.8281C200.651 85.2318 200.77 85.5645 201.021 85.8667C201.271 86.1688 201.576 86.3474 201.98 86.3852C202.384 86.423 202.759 86.3081 203.061 86.0576C203.363 85.8072 203.52 85.5004 203.558 85.0966C203.596 84.6929 203.502 84.3196 203.252 84.0175C203.001 83.7154 202.652 83.5541 202.248 83.5163C201.845 83.4785 201.514 83.5761 201.212 83.8265C200.91 84.0769 200.727 84.4243 200.689 84.8281ZM212.637 93.9427L207.048 93.4195C207.099 93.1027 207.192 92.7899 207.371 92.4851C207.549 92.1802 207.767 91.9219 208.024 91.6888C208.28 91.4769 208.576 91.2902 208.93 91.1733C209.263 91.0544 209.651 91.0264 210.076 91.0662C210.99 91.1518 211.646 91.4704 212.068 92.003C212.488 92.5568 212.685 93.197 212.637 93.9427ZM214.351 97.3832L212.686 96.627C212.441 97.1829 212.076 97.6418 211.592 98.0038C211.108 98.3658 210.452 98.4974 209.624 98.4198C209.199 98.38 208.803 98.2572 208.455 98.0746C208.087 97.8901 207.788 97.6477 207.538 97.3456C207.287 97.0435 207.083 96.7028 206.97 96.3064C206.857 95.9099 206.812 95.4769 206.833 95.0287L214.526 95.7488C214.553 95.6871 214.563 95.5808 214.594 95.4765C214.604 95.3703 214.616 95.2428 214.628 95.1153C214.701 94.329 214.663 93.5965 214.512 92.9178C214.34 92.2371 214.075 91.6335 213.715 91.1282C213.355 90.6228 212.879 90.2138 212.286 89.9011C211.696 89.5671 211.006 89.374 210.22 89.3004C209.583 89.2407 208.954 89.3105 208.333 89.5311C207.715 89.7304 207.171 90.0439 206.681 90.4697C206.189 90.9167 205.776 91.4354 205.438 92.0683C205.1 92.7012 204.903 93.4331 204.827 94.2406C204.745 95.1119 204.823 95.8909 205.035 96.5968C205.248 97.3027 205.555 97.9103 206 98.4236C206.424 98.9349 206.943 99.3479 207.537 99.6394C208.132 99.9308 208.778 100.12 209.458 100.184C210.054 100.239 210.614 100.206 211.119 100.082C211.623 99.9576 212.092 99.7656 212.523 99.5059C212.932 99.2654 213.303 98.9572 213.618 98.5793C213.93 98.2227 214.161 97.8156 214.351 97.3832ZM220.284 90.5641L220.587 87.3339L218.759 87.1628L218.604 88.8204C218.562 89.2667 218.399 89.6373 218.137 89.9129C217.854 90.1866 217.437 90.2975 216.884 90.2458L216.332 90.1941L216.163 92.0004L218.118 92.1835L217.593 97.7938C217.505 98.7289 217.692 99.4753 218.157 100.012C218.619 100.57 219.296 100.89 220.168 100.972C220.508 101.004 220.807 101.01 221.045 100.99C221.285 100.948 221.459 100.921 221.546 100.908L221.705 99.2078C221.618 99.2211 221.488 99.2304 221.338 99.2377C221.187 99.2451 221.038 99.2311 220.911 99.2192C220.379 99.1695 220.028 99.0294 219.837 98.7757C219.647 98.5221 219.574 98.1508 219.618 97.6833L220.115 92.3705L222.326 92.5774L222.495 90.771L220.284 90.5641ZM224.17 105.548L226.359 105.753L234.367 91.8825L232.221 91.6816L228.5 98.4505L225.973 91.0967L223.678 90.8818L227.225 100.389L224.17 105.548ZM244.846 101.696C244.421 101.656 244.025 101.533 243.656 101.349C243.288 101.164 242.97 100.898 242.702 100.552C242.434 100.205 242.236 99.8007 242.108 99.3386C241.98 98.8764 241.945 98.3371 242 97.7421C242.056 97.147 242.191 96.6237 242.403 96.1934C242.614 95.763 242.882 95.4236 243.209 95.1327C243.537 94.8418 243.899 94.6398 244.295 94.5269C244.692 94.4139 245.103 94.3667 245.528 94.4065C245.953 94.4463 246.349 94.5691 246.718 94.7537C247.086 94.9383 247.404 95.2039 247.672 95.5505C247.94 95.8971 248.14 96.2803 248.268 96.7424C248.396 97.2046 248.431 97.7439 248.376 98.3389C248.32 98.934 248.185 99.4573 247.974 99.8876C247.762 100.318 247.492 100.679 247.165 100.97C246.837 101.26 246.476 101.462 246.079 101.575C245.683 101.688 245.271 101.736 244.846 101.696ZM245.695 92.6214C244.93 92.5498 244.217 92.6116 243.554 92.8282C242.89 93.0448 242.302 93.3756 241.789 93.8206C241.275 94.2656 240.862 94.7843 240.546 95.4193C240.229 96.0542 240.034 96.7648 239.96 97.5511C239.887 98.3374 239.947 99.0719 240.14 99.7545C240.333 100.437 240.641 101.045 241.063 101.577C241.484 102.11 242.003 102.523 242.615 102.859C243.224 103.216 243.914 103.409 244.679 103.481C245.444 103.552 246.157 103.491 246.822 103.253C247.486 103.036 248.072 102.727 248.585 102.282C249.099 101.837 249.514 101.297 249.83 100.662C250.147 100.027 250.342 99.3162 250.416 98.5299C250.49 97.7436 250.43 97.0091 250.236 96.3265C250.043 95.6438 249.733 95.0574 249.312 94.5249C248.89 93.9923 248.373 93.5581 247.761 93.2221C247.15 92.8862 246.46 92.693 245.695 92.6214ZM255.979 95.7279L258.444 95.9586L258.613 94.1523L256.148 93.9215L256.299 92.3064C256.333 91.9451 256.401 91.6728 256.53 91.449C256.658 91.2252 256.801 91.0671 256.983 90.9555C257.144 90.842 257.343 90.7749 257.54 90.729C257.736 90.7044 257.908 90.6991 258.078 90.715C258.333 90.7389 258.522 90.778 258.669 90.8132C258.794 90.8464 258.875 90.8968 258.937 90.9241L259.104 89.139C259.064 89.1137 258.94 89.0593 258.755 88.9776C258.548 88.894 258.274 88.8469 257.934 88.815C257.466 88.7713 257.035 88.7952 256.618 88.9062C256.2 89.0171 255.817 89.2171 255.491 89.4868C255.145 89.7544 254.877 90.0938 254.665 90.5242C254.432 90.9526 254.302 91.4334 254.248 92.0072L254.087 93.7285L252.195 93.5515L252.026 95.3578L253.918 95.5349L253.13 103.95L255.191 104.143L255.979 95.7279ZM269.293 103.984C268.868 103.945 268.472 103.822 268.104 103.637C267.735 103.453 267.417 103.187 267.149 102.84C266.882 102.494 266.684 102.089 266.556 101.627C266.427 101.165 266.392 100.626 266.448 100.031C266.503 99.4357 266.638 98.9124 266.85 98.482C267.062 98.0516 267.329 97.7123 267.657 97.4213C267.984 97.1304 268.346 96.9285 268.742 96.8155C269.139 96.7026 269.551 96.6554 269.976 96.6952C270.401 96.735 270.796 96.8578 271.165 97.0423C271.534 97.2269 271.852 97.4925 272.119 97.8391C272.387 98.1857 272.587 98.5689 272.715 99.0311C272.844 99.4933 272.879 100.033 272.823 100.628C272.767 101.223 272.633 101.746 272.421 102.176C272.209 102.607 271.94 102.967 271.612 103.258C271.285 103.549 270.923 103.751 270.526 103.864C270.13 103.977 269.718 104.024 269.293 103.984ZM270.143 94.9101C269.378 94.8384 268.664 94.9003 268.001 95.1169C267.338 95.3335 266.749 95.6643 266.236 96.1093C265.723 96.5543 265.31 97.073 264.993 97.7079C264.676 98.3428 264.481 99.0534 264.408 99.8397C264.334 100.626 264.394 101.361 264.587 102.043C264.781 102.726 265.088 103.333 265.51 103.866C265.932 104.399 266.45 104.812 267.062 105.148C267.672 105.505 268.361 105.698 269.126 105.769C269.891 105.841 270.604 105.779 271.27 105.541C271.933 105.325 272.52 105.015 273.033 104.57C273.546 104.125 273.961 103.585 274.278 102.95C274.594 102.315 274.79 101.605 274.863 100.819C274.937 100.032 274.877 99.2978 274.684 98.6151C274.49 97.9324 274.181 97.3461 273.759 96.8135C273.337 96.281 272.82 95.8467 272.209 95.5108C271.597 95.1748 270.908 94.9817 270.143 94.9101ZM278.933 106.366L279.486 100.458C279.522 100.076 279.598 99.7183 279.737 99.3883C279.875 99.0582 280.051 98.7746 280.266 98.5375C280.482 98.3004 280.756 98.1117 281.068 97.9908C281.379 97.8699 281.725 97.838 282.129 97.8758C282.575 97.9176 282.931 98.0151 283.237 98.1725C283.521 98.3491 283.76 98.543 283.93 98.7947C284.099 99.0463 284.201 99.3345 284.256 99.6613C284.29 99.986 284.302 100.309 284.268 100.67L283.694 106.812L285.691 106.999L286.298 100.517C286.352 99.9432 286.338 99.406 286.235 98.9033C286.132 98.4006 285.938 97.9537 285.674 97.5645C285.389 97.1734 285.034 96.8401 284.606 96.607C284.158 96.3508 283.637 96.1948 283.021 96.1371C282.426 96.0814 281.84 96.1552 281.24 96.3777C280.641 96.6003 280.131 97.0028 279.71 97.6065L279.848 96.1402L277.893 95.9571L276.936 106.179L278.933 106.366ZM289.126 102.047L294.885 102.586L295.048 100.843L289.289 100.304L289.126 102.047ZM298.374 108.186L307.074 93.8012L305.14 93.6202L296.441 108.005L298.374 108.186ZM311.422 107.928C310.997 107.889 310.602 107.766 310.233 107.581C309.864 107.397 309.546 107.131 309.279 106.784C309.011 106.438 308.813 106.033 308.685 105.571C308.556 105.109 308.521 104.57 308.577 103.975C308.633 103.38 308.767 102.856 308.979 102.426C309.191 101.996 309.458 101.656 309.786 101.365C310.113 101.074 310.475 100.872 310.872 100.759C311.268 100.647 311.68 100.599 312.105 100.639C312.53 100.679 312.926 100.802 313.294 100.986C313.663 101.171 313.981 101.436 314.249 101.783C314.516 102.13 314.716 102.513 314.844 102.975C314.973 103.437 315.008 103.976 314.952 104.572C314.897 105.167 314.762 105.69 314.55 106.12C314.338 106.551 314.069 106.911 313.741 107.202C313.414 107.493 313.052 107.695 312.656 107.808C312.259 107.921 311.847 107.968 311.422 107.928ZM312.272 98.854C311.507 98.7824 310.794 98.8442 310.13 99.0608C309.467 99.2774 308.878 99.6082 308.365 100.053C307.852 100.498 307.439 101.017 307.122 101.652C306.805 102.287 306.61 102.997 306.537 103.784C306.463 104.57 306.523 105.304 306.716 105.987C306.91 106.67 307.217 107.277 307.639 107.81C308.061 108.342 308.579 108.755 309.191 109.091C309.801 109.449 310.49 109.642 311.255 109.713C312.02 109.785 312.734 109.723 313.399 109.485C314.062 109.269 314.649 108.959 315.162 108.514C315.675 108.069 316.09 107.529 316.407 106.894C316.724 106.259 316.919 105.549 316.992 104.762C317.066 103.976 317.006 103.242 316.813 102.559C316.619 101.876 316.31 101.29 315.888 100.757C315.466 100.225 314.95 99.7907 314.338 99.4547C313.726 99.1188 313.037 98.9256 312.272 98.854ZM331.369 97.5762C331.624 97.6001 331.814 97.6393 331.96 97.6745C332.086 97.7076 332.167 97.7581 332.229 97.7853L332.396 96.0002C332.355 95.975 332.232 95.9205 332.047 95.8389C331.84 95.7552 331.566 95.7081 331.226 95.6763C330.758 95.6325 330.327 95.6565 329.91 95.7674C329.492 95.8784 329.109 96.0783 328.783 96.348C328.437 96.6157 328.169 96.9551 327.957 97.3854C327.724 97.8138 327.593 98.2946 327.54 98.8684L327.379 100.59L322.725 100.154L322.876 98.539C322.91 98.1777 322.978 97.9054 323.106 97.6816C323.234 97.4578 323.378 97.2997 323.56 97.1881C323.72 97.0745 323.92 97.0074 324.117 96.9616C324.312 96.937 324.484 96.9317 324.654 96.9476C324.909 96.9715 325.098 97.0106 325.245 97.0458C325.371 97.079 325.452 97.1294 325.513 97.1567L325.68 95.3715C325.64 95.3463 325.516 95.2919 325.331 95.2102C325.125 95.1266 324.85 95.0794 324.51 95.0476C324.043 95.0038 323.612 95.0278 323.194 95.1388C322.776 95.2497 322.393 95.4497 322.068 95.7193C321.721 95.987 321.454 96.3264 321.242 96.7568C321.009 97.1851 320.878 97.666 320.824 98.2398L320.663 99.9611L318.772 99.7841L318.603 101.59L320.494 101.767L319.706 110.183L321.768 110.376L322.555 101.96L327.21 102.396L326.422 110.812L328.483 111.005L329.271 102.589L331.736 102.82L331.905 101.014L329.44 100.783L329.591 99.1677C329.625 98.8064 329.693 98.5341 329.822 98.3103C329.95 98.0865 330.093 97.9284 330.275 97.8168C330.436 97.7032 330.635 97.6361 330.832 97.5903C331.027 97.5657 331.199 97.5603 331.369 97.5762ZM332.936 106.148L338.695 106.687L338.858 104.944L333.099 104.405L332.936 106.148ZM347.713 104.53L347.912 102.405C347.85 102.378 347.765 102.37 347.639 102.336C347.535 102.305 347.408 102.293 347.259 102.279C347.004 102.256 346.726 102.251 346.443 102.289C346.161 102.327 345.877 102.386 345.587 102.509C345.297 102.632 345.022 102.82 344.745 103.03C344.487 103.263 344.245 103.562 344.016 103.948L344.183 102.163L342.228 101.98L341.271 112.202L343.268 112.389L343.748 107.267C343.853 106.141 344.184 105.357 344.74 104.916C345.317 104.477 346.019 104.307 346.847 104.385C347.124 104.41 347.419 104.46 347.713 104.53ZM348.568 110.119C348.53 110.523 348.577 110.935 348.713 111.312C348.828 111.687 349.032 112.028 349.304 112.332C349.575 112.636 349.915 112.904 350.324 113.114C350.712 113.321 351.171 113.45 351.703 113.5C352.149 113.542 352.58 113.518 352.951 113.445C353.322 113.373 353.632 113.273 353.924 113.129C354.216 112.985 354.446 112.814 354.656 112.64C354.865 112.467 355.031 112.289 355.156 112.108C355.122 112.469 355.115 112.769 355.117 112.983C355.118 113.198 355.123 113.37 355.133 113.499L357.088 113.682C357.078 113.553 357.054 113.358 357.058 113.079C357.063 112.801 357.076 112.438 357.117 111.992L357.597 106.87C357.643 106.381 357.603 105.885 357.496 105.424C357.389 104.964 357.172 104.537 356.864 104.165C356.556 103.793 356.135 103.475 355.624 103.213C355.111 102.972 354.462 102.804 353.697 102.732C353.144 102.68 352.626 102.718 352.123 102.821C351.619 102.945 351.151 103.137 350.761 103.4C350.374 103.643 350.043 103.976 349.771 104.358C349.5 104.74 349.309 105.172 349.2 105.655L351.071 106.281C351.19 105.692 351.47 105.225 351.888 104.878C352.308 104.51 352.879 104.37 353.58 104.436C354.366 104.51 354.901 104.753 355.228 105.148C355.535 105.541 355.665 105.982 355.619 106.471C355.601 106.662 355.545 106.807 355.425 106.945C355.304 107.084 355.084 107.149 354.761 107.162L351.961 107.307C351.508 107.329 351.093 107.419 350.696 107.532C350.3 107.645 349.961 107.827 349.661 108.057C349.361 108.286 349.097 108.583 348.915 108.93C348.732 109.277 348.609 109.673 348.568 110.119ZM352.136 111.847C351.626 111.799 351.236 111.613 350.966 111.287C350.699 110.941 350.582 110.587 350.618 110.204C350.659 109.758 350.842 109.411 351.14 109.203C351.44 108.973 351.817 108.837 352.248 108.813L355.416 108.638L355.372 109.106C355.321 109.658 355.192 110.118 355.005 110.508C354.821 110.876 354.578 111.175 354.302 111.385C354.003 111.593 353.69 111.735 353.319 111.808C352.948 111.88 352.54 111.885 352.136 111.847ZM360.115 113.966L362.091 114.151L362.668 107.988C362.74 107.223 363.01 106.627 363.502 106.18C363.973 105.731 364.568 105.551 365.291 105.618C366.056 105.69 366.589 105.954 366.887 106.432C367.185 106.91 367.301 107.5 367.24 108.159L366.639 114.577L368.636 114.764L369.215 108.579C369.285 107.836 369.555 107.239 370.047 106.792C370.518 106.343 371.114 106.163 371.815 106.229C372.559 106.299 373.091 106.563 373.39 107.041C373.709 107.521 373.826 108.111 373.764 108.769L373.163 115.187L375.139 115.372L375.76 108.742C375.822 108.083 375.771 107.478 375.626 106.972C375.48 106.465 375.242 106.035 374.932 105.685C374.643 105.336 374.282 105.066 373.871 104.878C373.46 104.689 373.043 104.565 372.596 104.523C371.938 104.461 371.309 104.531 370.667 104.749C370.025 104.968 369.467 105.43 368.994 106.136C368.779 105.452 368.4 104.923 367.856 104.551C367.333 104.18 366.752 103.976 366.115 103.916C365.52 103.86 364.913 103.932 364.313 104.155C363.713 104.377 363.229 104.739 362.857 105.283L362.984 103.923L361.072 103.744L360.115 113.966ZM377.875 119.702L379.851 119.887L380.359 114.468C380.593 114.94 380.98 115.383 381.524 115.756C382.068 116.128 382.732 116.362 383.519 116.436C384.263 116.505 384.957 116.42 385.577 116.2C386.177 115.977 386.723 115.642 387.172 115.191C387.622 114.74 387.992 114.218 388.267 113.579C388.541 112.94 388.713 112.248 388.784 111.483C388.854 110.74 388.811 110.05 388.682 109.373C388.531 108.694 388.285 108.114 387.948 107.589C387.59 107.063 387.137 106.634 386.59 106.304C386.02 105.972 385.352 105.781 384.587 105.71C383.758 105.632 383.02 105.734 382.412 106.042C381.805 106.349 381.319 106.733 380.995 107.217L381.144 105.623L379.21 105.442L377.875 119.702ZM386.744 111.292C386.695 111.824 386.587 112.285 386.396 112.718C386.206 113.15 385.979 113.515 385.694 113.809C385.388 114.102 385.045 114.327 384.668 114.464C384.289 114.621 383.856 114.666 383.388 114.623C382.942 114.581 382.525 114.456 382.182 114.231C381.815 114.025 381.52 113.74 381.274 113.396C381.027 113.051 380.872 112.651 380.765 112.19C380.658 111.73 380.638 111.257 380.688 110.725C380.735 110.215 380.843 109.754 381.033 109.321C381.222 108.91 381.449 108.546 381.755 108.253C382.061 107.96 382.402 107.756 382.802 107.6C383.182 107.443 383.615 107.398 384.061 107.44C384.528 107.483 384.945 107.608 385.31 107.835C385.653 108.06 385.95 108.324 386.175 108.667C386.401 109.009 386.556 109.41 386.665 109.849C386.772 110.309 386.792 110.782 386.744 111.292ZM392.178 113.645L390.312 114.113C390.327 114.415 390.403 114.743 390.563 115.101C390.699 115.478 390.924 115.821 391.236 116.15C391.527 116.478 391.928 116.773 392.42 117.012C392.891 117.249 393.498 117.413 394.199 117.478C394.836 117.538 395.397 117.505 395.882 117.357C396.37 117.188 396.774 116.99 397.123 116.702C397.45 116.411 397.716 116.092 397.898 115.745C398.081 115.398 398.202 115.023 398.236 114.662C398.307 113.897 398.133 113.237 397.715 112.662C397.276 112.085 396.611 111.637 395.694 111.358L394.07 110.842C393.299 110.598 392.955 110.159 393.016 109.5C393.05 109.139 393.227 108.855 393.571 108.609C393.916 108.362 394.334 108.251 394.844 108.299C395.248 108.337 395.56 108.43 395.825 108.584C396.089 108.737 396.288 108.906 396.419 109.111C396.551 109.295 396.661 109.498 396.707 109.695C396.753 109.893 396.801 110.069 396.81 110.198L398.635 109.704C398.593 109.465 398.511 109.2 398.392 108.867C398.273 108.534 398.089 108.217 397.819 107.892C397.547 107.587 397.189 107.297 396.718 107.06C396.268 106.825 395.704 106.665 395.003 106.599C394.514 106.553 394.017 106.592 393.555 106.721C393.093 106.849 392.689 107.047 392.342 107.314C391.995 107.582 391.687 107.896 391.46 108.261C391.231 108.647 391.108 109.043 391.067 109.489C390.999 110.211 391.154 110.848 391.552 111.399C391.951 111.951 392.557 112.351 393.348 112.597L395.055 113.142C395.47 113.288 395.775 113.467 395.987 113.723C396.199 113.978 396.279 114.264 396.249 114.583C396.215 114.944 396.037 115.249 395.713 115.498C395.39 115.746 394.953 115.834 394.379 115.78C393.657 115.712 393.122 115.469 392.752 115.07C392.382 114.671 392.192 114.182 392.178 113.645Z" fill="white"/>
</svg>
