<svg width="85" height="23" viewBox="0 0 85 23" fill="none" xmlns="http://www.w3.org/2000/svg">
	<g clip-path="url(#clip0_12321_83587)">
		<path d="M17.3331 17.8126H14.0928L16.1195 5.22827H19.3596L17.3331 17.8126Z" fill="#656D81"/>
		<path d="M29.0793 5.53577C28.4402 5.28114 27.4265 5 26.1731 5C22.9732 5 20.7198 6.71352 20.706 9.16335C20.6794 10.9708 22.3193 11.9747 23.5459 12.5774C24.7995 13.1932 25.2256 13.5952 25.2256 14.1441C25.2129 14.9872 24.2126 15.3758 23.2797 15.3758C21.986 15.3758 21.2929 15.1754 20.2395 14.7064L19.8128 14.5053L19.3594 17.3303C20.1193 17.6779 21.5195 17.9865 22.9732 18C26.3731 18 28.5866 16.313 28.6128 13.7023C28.6257 12.2698 27.7598 11.1721 25.8929 10.2751C24.7596 9.69929 24.0656 9.31103 24.0656 8.72189C24.0788 8.1863 24.6526 7.63772 25.9319 7.63772C26.9853 7.61085 27.7593 7.86513 28.3456 8.11957L28.6387 8.2532L29.0793 5.53577Z" fill="#656D81"/>
		<path d="M33.3863 13.3544C33.6531 12.6315 34.68 9.83343 34.68 9.83343C34.6665 9.8603 34.9463 9.09713 35.1063 8.62863L35.3327 9.71297C35.3327 9.71297 35.9463 12.7252 36.0796 13.3544C35.5732 13.3544 34.0263 13.3544 33.3863 13.3544ZM37.386 5.22827H34.8797C34.1067 5.22827 33.5195 5.45567 33.1861 6.2724L28.373 17.8124H31.773C31.773 17.8124 32.3327 16.2592 32.453 15.9247C32.826 15.9247 36.1335 15.9247 36.6133 15.9247C36.7063 16.3665 36.9999 17.8124 36.9999 17.8124H40.0001L37.386 5.22827Z" fill="#656D81"/>
		<path d="M11.3867 5.22827L8.21339 13.8096L7.86662 12.0692C7.27995 10.061 5.44 7.87916 3.38672 6.79429L6.29335 17.7993H9.71986L14.813 5.22827H11.3867Z" fill="#656D81"/>
		<path d="M5.26663 5.22827H0.0533341L0 5.48254C4.0667 6.52685 6.75999 9.04411 7.86654 12.0697L6.73323 6.2861C6.54665 5.48236 5.97326 5.25478 5.26663 5.22827Z" fill="#656D81"/>
	</g>
	<g clip-path="url(#clip1_12321_83587)">
		<path d="M60.4373 22.9495V21.4231C60.4373 20.8392 60.077 20.4569 59.4585 20.4569C59.1492 20.4569 58.813 20.5576 58.5818 20.8896C58.4016 20.611 58.1434 20.4569 57.7561 20.4569C57.4979 20.4569 57.2397 20.5339 57.0355 20.8125V20.5073H56.4951V22.9495H57.0355V21.6009C57.0355 21.1682 57.2667 20.9637 57.627 20.9637C57.9873 20.9637 58.1675 21.1919 58.1675 21.6009V22.9495H58.7079V21.6009C58.7079 21.1682 58.9661 20.9637 59.2994 20.9637C59.6596 20.9637 59.8398 21.1919 59.8398 21.6009V22.9495H60.4373ZM68.4537 20.5073H67.577V19.7692H67.0366V20.5073H66.5472V20.9904H67.0366V22.1107C67.0366 22.6709 67.2677 22.9999 67.8862 22.9999C68.1174 22.9999 68.3756 22.9228 68.5558 22.8221L68.3996 22.3627C68.2435 22.4634 68.0634 22.4901 67.9343 22.4901C67.6761 22.4901 67.574 22.336 67.574 22.0841V20.9904H68.4507V20.5073H68.4537ZM73.0414 20.4539C72.7321 20.4539 72.5249 20.608 72.3958 20.8096V20.5043H71.8554V22.9466H72.3958V21.5713C72.3958 21.1652 72.576 20.9341 72.9123 20.9341C73.0143 20.9341 73.1434 20.9607 73.2485 20.9844L73.4046 20.4746C73.2966 20.4539 73.1434 20.4539 73.0414 20.4539ZM66.1088 20.7088C65.8506 20.531 65.4903 20.4539 65.103 20.4539C64.4845 20.4539 64.0732 20.7592 64.0732 21.2423C64.0732 21.6484 64.3824 21.8795 64.9229 21.9536L65.1811 21.9803C65.4633 22.0307 65.6194 22.1078 65.6194 22.2352C65.6194 22.4131 65.4123 22.5405 65.052 22.5405C64.6917 22.5405 64.4064 22.4131 64.2263 22.2856L63.9681 22.6917C64.2503 22.8962 64.6376 22.9969 65.0249 22.9969C65.7455 22.9969 66.1599 22.665 66.1599 22.2085C66.1599 21.7758 65.8236 21.5476 65.3102 21.4705L65.052 21.4439C64.8208 21.4172 64.6406 21.3668 64.6406 21.2156C64.6406 21.0378 64.8208 20.937 65.106 20.937C65.4153 20.937 65.7245 21.0645 65.8806 21.1415L66.1088 20.7088ZM80.4873 20.4539C80.1781 20.4539 79.9709 20.608 79.8418 20.8096V20.5043H79.3014V22.9466H79.8418V21.5713C79.8418 21.1652 80.0219 20.9341 80.3582 20.9341C80.4603 20.9341 80.5894 20.9607 80.6945 20.9844L80.8506 20.4806C80.7455 20.4539 80.5924 20.4539 80.4873 20.4539ZM73.5818 21.7284C73.5818 22.4664 74.0982 22.9999 74.8968 22.9999C75.2571 22.9999 75.5153 22.9228 75.7735 22.7213L75.5153 22.2886C75.3082 22.4427 75.104 22.5168 74.8698 22.5168C74.4315 22.5168 74.1222 22.2115 74.1222 21.7284C74.1222 21.269 74.4315 20.9637 74.8698 20.94C75.101 20.94 75.3082 21.017 75.5153 21.1682L75.7735 20.7355C75.5153 20.531 75.2571 20.4569 74.8968 20.4569C74.0982 20.4539 73.5818 20.9904 73.5818 21.7284ZM78.5808 21.7284V20.5073H78.0404V20.8125C77.8602 20.5843 77.602 20.4569 77.2657 20.4569C76.5692 20.4569 76.0287 20.9904 76.0287 21.7284C76.0287 22.4664 76.5692 22.9999 77.2657 22.9999C77.626 22.9999 77.8842 22.8725 78.0404 22.6442V22.9495H78.5808V21.7284ZM76.5962 21.7284C76.5962 21.2957 76.8784 20.94 77.3438 20.94C77.7822 20.94 78.0914 21.2719 78.0914 21.7284C78.0914 22.1611 77.7822 22.5168 77.3438 22.5168C76.8814 22.4901 76.5962 22.1582 76.5962 21.7284ZM70.129 20.4539C69.4084 20.4539 68.892 20.9637 68.892 21.7254C68.892 22.4901 69.4084 22.9969 70.156 22.9969C70.5163 22.9969 70.8766 22.8962 71.1619 22.665L70.9036 22.2826C70.6965 22.4368 70.4383 22.5375 70.1831 22.5375C69.8468 22.5375 69.5135 22.3834 69.4355 21.9536H71.2639C71.2639 21.8766 71.2639 21.8262 71.2639 21.7491C71.288 20.9637 70.8226 20.4539 70.129 20.4539ZM70.129 20.9133C70.4653 20.9133 70.6965 21.1178 70.7475 21.4972H69.4595C69.5105 21.1682 69.7417 20.9133 70.129 20.9133ZM83.5558 21.7284V19.541H83.0153V20.8125C82.8352 20.5843 82.577 20.4569 82.2407 20.4569C81.5442 20.4569 81.0037 20.9904 81.0037 21.7284C81.0037 22.4664 81.5442 22.9999 82.2407 22.9999C82.601 22.9999 82.8592 22.8725 83.0153 22.6442V22.9495H83.5558V21.7284ZM81.5712 21.7284C81.5712 21.2957 81.8534 20.94 82.3188 20.94C82.7571 20.94 83.0664 21.2719 83.0664 21.7284C83.0664 22.1611 82.7571 22.5168 82.3188 22.5168C81.8534 22.4901 81.5712 22.1582 81.5712 21.7284ZM63.4787 21.7284V20.5073H62.9383V20.8125C62.7581 20.5843 62.4999 20.4569 62.1637 20.4569C61.4671 20.4569 60.9267 20.9904 60.9267 21.7284C60.9267 22.4664 61.4671 22.9999 62.1637 22.9999C62.5239 22.9999 62.7821 22.8725 62.9383 22.6442V22.9495H63.4787V21.7284ZM61.4701 21.7284C61.4701 21.2957 61.7523 20.94 62.2177 20.94C62.656 20.94 62.9653 21.2719 62.9653 21.7284C62.9653 22.1611 62.656 22.5168 62.2177 22.5168C61.7523 22.4901 61.4701 22.1582 61.4701 21.7284Z" fill="#80889C"/>
		<path d="M74.0472 1.95923H65.9287V16.3579H74.0472V1.95923Z" fill="#A2A8B7"/>
		<path d="M66.4692 9.15851C66.4692 6.23312 67.8623 3.63673 70 1.95915C68.4267 0.738015 66.4422 0 64.2774 0C59.1493 0 55 4.09613 55 9.15851C55 14.2209 59.1493 18.317 64.2774 18.317C66.4422 18.317 68.4267 17.579 70 16.3579C67.8593 14.704 66.4692 12.0839 66.4692 9.15851Z" fill="#656D81"/>
		<path d="M85 9.15851C85 14.2209 80.8507 18.317 75.7226 18.317C73.5578 18.317 71.5733 17.579 70 16.3579C72.1647 14.6773 73.5308 12.0839 73.5308 9.15851C73.5308 6.23312 72.1377 3.63673 70 1.95915C71.5703 0.738015 73.5548 0 75.7196 0C80.8507 0 85 4.12281 85 9.15851Z" fill="#80889C"/>
	</g>
	<defs>
		<clipPath id="clip0_12321_83587">
			<rect width="40" height="13" fill="white" transform="translate(0 5)"/>
		</clipPath>
		<clipPath id="clip1_12321_83587">
			<rect width="30" height="23" fill="white" transform="translate(55)"/>
		</clipPath>
	</defs>
</svg>
