<svg width="283" height="48" viewBox="0 0 283 48" fill="none" xmlns="http://www.w3.org/2000/svg">
	<path fill-rule="evenodd" clip-rule="evenodd" d="M16.8362 13.9893C7.53781 13.9893 0 21.3261 0 30.3765C0 39.4269 7.53781 46.7637 16.8362 46.7637H45.121C54.4193 46.7637 61.9571 39.4269 61.9571 30.3765C61.9571 21.3261 54.4193 13.9893 45.121 13.9893H16.8362ZM35.694 17.8053C28.6273 17.8053 22.8986 23.4335 22.8986 30.3763C22.8986 37.3191 28.6273 42.9473 35.694 42.9473H43.7754C50.8422 42.9473 56.5709 37.3191 56.5709 30.3763C56.5709 23.4335 50.8422 17.8053 43.7754 17.8053H35.694Z" fill="url(#paint0_linear_12098_81030)"/>
	<path d="M89.5767 22.3009C88.6502 22.6671 87.8093 23.2207 87.1068 23.9272C86.3799 24.7419 85.7998 25.6767 85.3924 26.6898C84.9367 27.8747 84.7172 29.1372 84.7462 30.4064C84.7038 31.6749 84.911 32.9394 85.3559 34.1281C85.7496 35.1485 86.3212 36.091 87.0442 36.9116C87.7545 37.6501 88.6096 38.2339 89.5559 38.6265C90.5386 39.0125 91.585 39.2105 92.6407 39.2103C93.5873 39.2219 94.5276 39.0557 95.4129 38.7203C96.1938 38.4522 96.9221 38.05 97.565 37.5319C98.1314 37.0586 98.605 36.4842 98.9615 35.8378C99.1558 35.5189 99.3299 35.1881 99.4826 34.8474C99.5825 34.6251 99.762 34.4482 99.9858 34.3517C100.21 34.2552 100.461 34.2461 100.692 34.3262L106.272 36.2183C106.518 36.3004 106.721 36.4765 106.837 36.708C106.954 36.9395 106.973 37.2076 106.893 37.4537C106.545 38.4525 106.08 39.4063 105.506 40.2945C104.68 41.5616 103.652 42.6849 102.463 43.6201C101.175 44.664 99.7221 45.4866 98.1643 46.0543C96.3714 46.6545 94.4894 46.9454 92.599 46.9144C90.4179 46.9346 88.2575 46.4886 86.2626 45.606C84.312 44.8263 82.5394 43.6596 81.0517 42.1762C79.5592 40.6744 78.3812 38.8899 77.5865 36.9272C76.7476 34.8425 76.3313 32.6117 76.3619 30.3647C76.358 28.0966 76.797 25.8497 77.6542 23.75C78.4238 21.8127 79.5792 20.0523 81.0501 18.5755C82.521 17.0988 84.2767 15.9367 86.2105 15.1597C88.2117 14.3483 90.3567 13.9511 92.5157 13.9921C94.4424 13.987 96.3572 14.2951 98.1851 14.9043C99.7233 15.4903 101.164 16.3057 102.458 17.3229C103.635 18.2536 104.633 19.3912 105.402 20.6798C105.96 21.5997 106.415 22.5787 106.757 23.5988C106.836 23.8442 106.814 24.1108 106.697 24.3404C106.58 24.57 106.377 24.7438 106.132 24.8237L100.4 26.7107C100.161 26.7877 99.902 26.7707 99.6754 26.6631C99.4488 26.5556 99.2718 26.3657 99.1804 26.1321C98.7583 25.1134 98.1384 24.1886 97.3566 23.4112C96.3144 22.3322 94.7199 21.7588 92.6407 21.7484C91.5938 21.7385 90.5543 21.9259 89.5767 22.3009Z" fill="white"/>
	<path d="M109.313 45.0585L109.538 1.37759C109.538 1.2489 109.564 1.1216 109.614 1.00297C109.664 0.884337 109.737 0.776691 109.828 0.686178C109.92 0.595664 110.028 0.524056 110.147 0.475442C110.266 0.426828 110.394 0.40216 110.522 0.402846L116.947 0.434121C117.206 0.438208 117.453 0.54364 117.636 0.727808C117.818 0.911975 117.921 1.16021 117.922 1.41929L117.849 15.4149C117.847 15.593 117.893 15.7683 117.984 15.9217C118.074 16.0752 118.205 16.2009 118.362 16.2852C118.519 16.3696 118.696 16.4093 118.873 16.4002C119.051 16.391 119.223 16.3333 119.37 16.2333C120.081 15.7297 120.867 15.3425 121.7 15.0865C123.157 14.5599 124.694 14.2901 126.244 14.289C128.019 14.2498 129.781 14.6059 131.402 15.3315C132.78 15.9121 134.005 16.8024 134.983 17.9333C135.961 19.0642 136.665 20.4052 137.041 21.8523C137.494 23.4103 137.72 25.0254 137.713 26.6479L137.614 45.2096C137.614 45.3381 137.588 45.4652 137.539 45.5838C137.49 45.7024 137.418 45.8101 137.327 45.9007C137.236 45.9913 137.127 46.063 137.009 46.1117C136.89 46.1603 136.763 46.185 136.634 46.1844L130.209 46.1531C130.08 46.1524 129.953 46.1264 129.835 46.0765C129.716 46.0266 129.608 45.9539 129.518 45.8624C129.427 45.7709 129.356 45.6625 129.307 45.5433C129.259 45.4242 129.234 45.2966 129.235 45.1679L129.323 28.0552C129.383 26.4791 128.926 24.9267 128.021 23.635C127.083 22.4309 125.634 21.8576 123.617 21.8471C122.835 21.8003 122.053 21.9333 121.33 22.236C120.608 22.5387 119.964 23.003 119.449 23.5933C118.407 24.7761 117.819 26.2912 117.792 27.8676L117.703 45.1106C117.7 45.3701 117.595 45.618 117.411 45.8005C117.226 45.983 116.978 46.0853 116.718 46.0853L110.288 46.0436C110.159 46.0429 110.032 46.0169 109.913 45.967C109.795 45.9172 109.687 45.8444 109.597 45.7529C109.506 45.6614 109.435 45.553 109.386 45.4339C109.337 45.3147 109.313 45.1871 109.313 45.0585Z" fill="white"/>
	<path d="M162.966 15.5501C164.89 16.3473 166.641 17.5123 168.12 18.9799C169.583 20.4874 170.731 22.2719 171.496 24.2289C172.308 26.3413 172.703 28.5912 172.658 30.854C172.689 33.0982 172.27 35.3258 171.428 37.4061C170.646 39.3569 169.478 41.1297 167.994 42.6187C165.605 44.8573 162.622 46.3604 159.402 46.9483C156.182 47.5362 152.86 47.184 149.835 45.9338C147.912 45.1341 146.163 43.9674 144.686 42.4988C143.218 40.995 142.069 39.2094 141.31 37.2498C140.487 35.162 140.09 32.9307 140.142 30.6872C140.12 28.4247 140.54 26.1795 141.377 24.0777C142.157 22.1269 143.324 20.3539 144.806 18.8652C146.297 17.4113 148.059 16.2637 149.991 15.4875C154.179 13.9141 158.8 13.9382 162.971 15.5553L162.966 15.5501ZM159.318 39.0429C160.278 38.6797 161.143 38.102 161.846 37.354C162.589 36.5743 163.173 35.6572 163.565 34.6539C164.046 33.4307 164.286 32.1265 164.274 30.8123C164.302 29.4985 164.074 28.1918 163.602 26.9655C163.221 25.9575 162.647 25.0333 161.913 24.2445C161.216 23.491 160.357 22.9048 159.402 22.5296C157.505 21.7634 155.387 21.7522 153.482 22.4984C152.526 22.8681 151.663 23.4448 150.955 24.1872C150.21 24.9669 149.628 25.8863 149.24 26.8925C148.303 29.3669 148.288 32.0965 149.199 34.581C149.579 35.5872 150.148 36.5109 150.877 37.3019C151.577 38.0522 152.435 38.6379 153.388 39.0168C155.288 39.7791 157.407 39.7884 159.313 39.0429H159.318Z" fill="white"/>
	<path d="M176.087 1.49717C176.559 1.01043 177.127 0.626371 177.755 0.368976C178.382 0.11158 179.056 -0.0136261 179.734 0.00117464C180.424 -0.00914497 181.109 0.121434 181.747 0.384929C182.385 0.648424 182.963 1.0393 183.444 1.53365C184.389 2.54157 184.902 3.87937 184.872 5.2606C184.876 5.93991 184.743 6.61301 184.481 7.23964C184.218 7.86627 183.833 8.43354 183.346 8.90753C182.86 9.38151 182.283 9.75246 181.649 9.99817C181.016 10.2439 180.34 10.3593 179.661 10.3376C178.981 10.3484 178.306 10.2182 177.678 9.95541C177.05 9.69258 176.484 9.30272 176.014 8.81033C175.539 8.34129 175.165 7.78052 174.914 7.16217C174.663 6.54383 174.541 5.88087 174.555 5.21369C174.543 4.52243 174.673 3.83609 174.936 3.19693C175.2 2.55777 175.591 1.97932 176.087 1.49717ZM176.488 15.3677L182.913 15.3989C183.042 15.3996 183.169 15.4257 183.287 15.4755C183.406 15.5254 183.514 15.5982 183.604 15.6896C183.695 15.7811 183.766 15.8895 183.815 16.0087C183.863 16.1279 183.888 16.2554 183.887 16.3841L183.736 45.4387C183.731 45.6954 183.624 45.9395 183.44 46.1182C183.256 46.2968 183.008 46.3954 182.751 46.3926H176.332C176.203 46.3912 176.075 46.3643 175.957 46.3134C175.839 46.2625 175.732 46.1886 175.642 46.096C175.552 46.0034 175.482 45.894 175.435 45.774C175.388 45.654 175.365 45.5258 175.368 45.397L175.514 16.3424C175.515 16.0843 175.618 15.8372 175.8 15.6547C175.983 15.4722 176.23 15.369 176.488 15.3677Z" fill="white"/>
	<path d="M195.051 39.5437C195.994 40.4924 197.375 41.0032 199.22 41.0136C200.315 41.0882 201.403 40.7785 202.294 40.1379C202.617 39.869 202.878 39.5329 203.058 39.1531C203.238 38.7732 203.333 38.3586 203.337 37.9382C203.342 37.598 203.279 37.2601 203.151 36.9448C203.023 36.6295 202.833 36.3433 202.591 36.1034C202.07 35.5353 201.21 35.1495 200.012 34.8941L195.901 33.935C192.878 33.2261 190.69 32.0846 189.298 30.4374C187.943 28.8076 187.216 26.7455 187.251 24.6255C187.256 23.2731 187.564 21.9392 188.152 20.7213C188.716 19.4756 189.563 18.3794 190.627 17.5208C191.69 16.5622 192.929 15.8188 194.275 15.3316C195.742 14.7683 197.305 14.4974 198.876 14.534C200.77 14.4938 202.654 14.825 204.42 15.5088C205.803 16.0021 207.065 16.7819 208.125 17.7971C209.011 18.6406 209.72 19.6525 210.21 20.7734C210.467 21.3522 210.68 21.95 210.845 22.5613C210.876 22.6884 210.881 22.8203 210.86 22.9493C210.839 23.0783 210.793 23.2019 210.723 23.3126C210.654 23.4234 210.563 23.5191 210.456 23.5942C210.349 23.6692 210.228 23.7221 210.1 23.7498L204.968 24.8809C204.726 24.9345 204.473 24.8943 204.261 24.7685C204.048 24.6427 203.891 24.4406 203.821 24.2033C203.771 24.0261 203.71 23.852 203.639 23.682C203.434 23.1536 203.114 22.678 202.701 22.2903C202.257 21.8457 201.724 21.4994 201.138 21.2738C200.437 20.9955 199.687 20.8625 198.933 20.8829C197.937 20.859 196.961 21.165 196.156 21.7534C195.778 21.9877 195.468 22.3159 195.255 22.706C195.043 23.0961 194.934 23.5348 194.942 23.9791C194.921 24.3269 194.984 24.6747 195.125 24.9931C195.267 25.3115 195.482 25.5912 195.755 25.8087C196.342 26.285 197.036 26.6123 197.776 26.7626L202.18 27.7269C205.265 28.3733 207.526 29.5826 209.032 31.2923C210.549 32.9187 211.372 35.0731 211.325 37.2971C211.315 38.5734 211.051 39.835 210.548 41.0084C210.072 42.2564 209.31 43.3756 208.323 44.2766C207.231 45.2896 205.949 46.0762 204.551 46.591C200.89 47.7901 196.932 47.7204 193.316 46.3929C191.895 45.7928 190.585 44.9595 189.439 43.9274C188.484 43.0481 187.737 41.9673 187.251 40.7634C186.949 40.13 186.712 39.4683 186.542 38.7879C186.511 38.6608 186.506 38.5288 186.528 38.3998C186.549 38.2709 186.596 38.1475 186.666 38.0371C186.736 37.9267 186.828 37.8315 186.935 37.7572C187.043 37.6829 187.164 37.631 187.292 37.6046L192.566 36.4891C192.812 36.4356 193.07 36.4803 193.284 36.6136C193.498 36.7469 193.651 36.9585 193.712 37.2033C193.942 38.0887 194.405 38.8967 195.051 39.5437Z" fill="white"/>
	<path d="M240.667 41.6706C239.837 42.8603 238.809 43.8987 237.629 44.7408C236.372 45.6463 234.988 46.3612 233.523 46.8623C231.825 47.3763 230.059 47.6225 228.286 47.5921C226.202 47.5807 224.135 47.2086 222.178 46.4922C220.268 45.7635 218.535 44.637 217.093 43.1875C215.593 41.6968 214.421 39.9088 213.653 37.9385C212.753 35.715 212.315 33.3313 212.366 30.9329C212.357 28.6237 212.796 26.3347 213.659 24.1931C214.428 22.2887 215.573 20.5586 217.025 19.1057C218.436 17.7026 220.114 16.5966 221.96 15.8531C223.766 15.0613 225.72 14.6633 227.692 14.6854C232.543 14.6854 236.258 16.1762 238.952 19.0275C241.646 21.8787 242.949 25.8559 242.923 30.839C242.932 31.4063 242.909 31.9736 242.855 32.5383C242.827 32.7765 242.712 32.9959 242.532 33.1546C242.353 33.3132 242.121 33.4 241.881 33.3984L221.715 33.2993C221.571 33.2972 221.429 33.3267 221.299 33.3858C221.168 33.4449 221.052 33.532 220.959 33.641C220.866 33.75 220.798 33.8782 220.76 34.0165C220.723 34.1547 220.716 34.2996 220.74 34.4409C220.844 35.028 221.028 35.598 221.287 36.1349C221.722 36.9614 222.293 37.7085 222.976 38.3451C223.684 38.9934 224.503 39.509 225.394 39.8671L225.493 39.9036C226.427 40.2362 227.409 40.4123 228.4 40.4248C230.354 40.4248 231.933 40.0026 233.007 39.1217C233.917 38.4319 234.653 37.5396 235.159 36.5155C235.257 36.304 235.428 36.1349 235.64 36.0392C235.853 35.9435 236.092 35.9275 236.316 35.9942L241.526 37.558C241.654 37.5955 241.772 37.6588 241.875 37.7439C241.977 37.829 242.06 37.9341 242.121 38.0528C242.181 38.1714 242.216 38.3011 242.224 38.4338C242.232 38.5666 242.213 38.6996 242.167 38.8246C241.792 39.834 241.287 40.7905 240.667 41.6706ZM234.2 25.4337C233.945 24.6857 233.516 24.0087 232.949 23.4581C232.35 22.8389 231.62 22.3615 230.813 22.0612C229.86 21.6489 228.828 21.4496 227.791 21.4774C226.788 21.4547 225.793 21.6485 224.872 22.0455C224.078 22.3988 223.35 22.8853 222.72 23.4842C222.165 24.0509 221.714 24.7107 221.386 25.4337C221.251 25.7287 221.137 26.0336 221.048 26.3458C221.008 26.4906 221.003 26.6425 221.032 26.7897C221.061 26.9369 221.124 27.0754 221.215 27.1945C221.306 27.3135 221.424 27.4099 221.558 27.476C221.693 27.5422 221.841 27.5764 221.991 27.576L233.543 27.6385C233.692 27.6385 233.838 27.6049 233.972 27.5404C234.105 27.4758 234.223 27.3818 234.315 27.2656C234.407 27.1493 234.472 27.0137 234.504 26.8689C234.537 26.724 234.536 26.5738 234.502 26.4292C234.435 26.0882 234.333 25.7547 234.2 25.4337Z" fill="white"/>
	<path d="M252.331 17.2805C252.05 17.3949 251.794 17.5678 251.581 17.7884C251.36 18.0428 251.183 18.3347 251.06 18.6511C250.921 19.021 250.855 19.4153 250.863 19.8116C250.85 20.2077 250.913 20.6026 251.049 20.9738C251.168 21.2942 251.341 21.5902 251.562 21.8479C251.777 22.079 252.037 22.2614 252.325 22.3834C252.623 22.5046 252.941 22.5665 253.262 22.5657C253.55 22.5701 253.836 22.5182 254.104 22.4127C254.342 22.3293 254.563 22.2037 254.758 22.0416C254.93 21.8938 255.074 21.7144 255.182 21.5126C255.241 21.413 255.294 21.3097 255.341 21.2033C255.371 21.1341 255.426 21.0791 255.494 21.049C255.562 21.0189 255.638 21.0159 255.708 21.0405L257.404 21.6314C257.476 21.658 257.536 21.7124 257.57 21.7831C257.604 21.8537 257.61 21.9353 257.587 22.0107C257.482 22.3227 257.341 22.6206 257.166 22.8978C256.915 23.2934 256.603 23.6442 256.242 23.9362C255.85 24.2621 255.409 24.5195 254.935 24.698C254.392 24.8829 253.822 24.9726 253.249 24.9633C252.587 24.9715 251.93 24.8333 251.324 24.558C250.731 24.3145 250.193 23.9502 249.741 23.487C249.287 23.0183 248.929 22.461 248.688 21.8479C248.433 21.1969 248.307 20.5003 248.316 19.7986C248.315 19.0904 248.448 18.3887 248.709 17.733C248.942 17.1281 249.293 16.5783 249.74 16.1172C250.187 15.6561 250.721 15.2932 251.308 15.0506C251.916 14.7972 252.568 14.6731 253.224 14.686C253.809 14.6844 254.391 14.7806 254.947 14.9708C255.414 15.1544 255.851 15.409 256.245 15.7261C256.602 16.0167 256.906 16.3719 257.139 16.7743C257.309 17.0619 257.447 17.3675 257.553 17.6858C257.576 17.7627 257.568 17.8457 257.533 17.9172C257.497 17.9887 257.435 18.043 257.361 18.0683L255.619 18.6576C255.547 18.6816 255.468 18.6763 255.399 18.6427C255.331 18.6092 255.277 18.5498 255.249 18.4769C255.121 18.1588 254.932 17.87 254.695 17.6272C254.378 17.2903 253.894 17.1112 253.262 17.108C252.944 17.1049 252.628 17.1634 252.331 17.2805Z" fill="white"/>
	<path d="M264.713 15.121C265.297 15.3706 265.828 15.7344 266.277 16.1921C266.722 16.6622 267.071 17.2196 267.303 17.8312C267.55 18.4891 267.67 19.1901 267.656 19.8951C267.665 20.5959 267.538 21.2915 267.282 21.9411C267.045 22.5502 266.691 23.1037 266.241 23.5689C265.787 24.0222 265.252 24.3804 264.665 24.6236C264.041 24.8926 263.368 25.0235 262.691 25.0077C262.015 25.0203 261.343 24.8866 260.72 24.6155C260.136 24.3659 259.605 24.0022 259.156 23.5444C258.71 23.0718 258.362 22.5115 258.133 21.8972C257.883 21.2452 257.763 20.5484 257.78 19.8479C257.771 19.1401 257.897 18.4373 258.15 17.7791C258.388 17.1704 258.743 16.6169 259.192 16.1514C259.649 15.6982 260.186 15.3401 260.775 15.0966C262.048 14.6058 263.453 14.6133 264.721 15.1178L264.713 15.121ZM263.605 22.4588C263.896 22.3437 264.159 22.163 264.374 21.9297C264.599 21.6859 264.776 21.3996 264.895 21.0866C265.04 20.7072 265.113 20.3027 265.11 19.8951C265.118 19.4848 265.048 19.0769 264.904 18.6939C264.789 18.3792 264.616 18.0906 264.393 17.8442C264.18 17.6092 263.919 17.4262 263.628 17.3087C263.053 17.0663 262.409 17.0599 261.83 17.2908C261.538 17.4058 261.276 17.5859 261.06 17.8182C260.835 18.0623 260.658 18.3493 260.539 18.6629C260.393 19.0448 260.319 19.4521 260.323 19.8626C260.316 20.2727 260.385 20.6804 260.527 21.0638C260.643 21.3783 260.817 21.6668 261.04 21.9135C261.252 22.1479 261.513 22.3309 261.803 22.449C262.089 22.5675 262.394 22.6293 262.702 22.6313C263.01 22.6319 263.316 22.5734 263.603 22.4588H263.605Z" fill="white"/>
	<path d="M268.821 15.0639L270.657 15.0736C270.697 15.0734 270.736 15.0812 270.772 15.0966C270.808 15.112 270.841 15.1346 270.869 15.1632C270.897 15.1919 270.919 15.2259 270.934 15.2633C270.949 15.3007 270.957 15.3408 270.956 15.3813V15.404C270.957 15.4622 270.973 15.5191 271.004 15.568C271.034 15.6168 271.078 15.6556 271.13 15.6798C271.181 15.7039 271.238 15.7124 271.294 15.7042C271.35 15.696 271.403 15.6715 271.446 15.6335C271.658 15.4513 271.891 15.2971 272.141 15.1745C272.393 15.0516 272.659 14.9604 272.932 14.9027C273.192 14.8439 273.458 14.8123 273.724 14.8083C274.317 14.7963 274.904 14.9421 275.426 15.2315C275.772 15.4303 276.069 15.7089 276.294 16.0454C276.319 16.0849 276.354 16.1177 276.394 16.1412C276.434 16.1646 276.479 16.1781 276.525 16.1804C276.571 16.1828 276.617 16.174 276.66 16.1548C276.702 16.1356 276.739 16.1065 276.769 16.0698C277.048 15.7006 277.408 15.404 277.82 15.2038C278.344 14.9528 278.917 14.8313 279.495 14.849C279.926 14.8519 280.354 14.9272 280.761 15.072C281.163 15.2108 281.533 15.4323 281.849 15.7231C282.186 16.0466 282.446 16.4453 282.609 16.8885C282.812 17.4147 282.907 17.9782 282.889 18.5439L282.859 24.5176C282.858 24.5986 282.827 24.676 282.771 24.733C282.715 24.79 282.639 24.822 282.56 24.822L280.685 24.8122C280.646 24.812 280.608 24.8039 280.572 24.7883C280.536 24.7727 280.503 24.75 280.475 24.7214C280.448 24.6929 280.426 24.659 280.411 24.6218C280.397 24.5846 280.389 24.5448 280.389 24.5046L280.416 19.0615C280.435 18.5964 280.303 18.1381 280.04 17.7593C279.774 17.4029 279.352 17.2238 278.759 17.2206C278.517 17.2073 278.275 17.2513 278.052 17.3492C277.829 17.4471 277.631 17.5963 277.473 17.7854C277.163 18.1565 276.997 18.6325 277.008 19.1217L276.981 24.4932C276.98 24.5334 276.973 24.5731 276.957 24.6102C276.942 24.6472 276.92 24.6808 276.892 24.7091C276.865 24.7373 276.832 24.7597 276.795 24.7749C276.759 24.7901 276.721 24.7978 276.681 24.7976L274.745 24.778C274.666 24.7776 274.591 24.7452 274.536 24.6878C274.48 24.6305 274.449 24.5529 274.449 24.472L274.478 19.029C274.496 18.5549 274.356 18.0886 274.082 17.7073C273.816 17.3719 273.395 17.1929 272.815 17.1896C272.236 17.1864 271.819 17.3622 271.511 17.7333C271.2 18.1118 271.034 18.594 271.045 19.0892L271.018 24.4606C271.018 24.5008 271.01 24.5406 270.995 24.5776C270.98 24.6146 270.958 24.6483 270.93 24.6765C270.902 24.7048 270.869 24.7272 270.833 24.7423C270.797 24.7575 270.758 24.7652 270.719 24.765L268.767 24.7552C268.728 24.755 268.689 24.7469 268.653 24.7313C268.617 24.7157 268.584 24.693 268.557 24.6645C268.529 24.6359 268.508 24.602 268.493 24.5648C268.478 24.5276 268.47 24.4878 268.471 24.4476L268.517 15.3747C268.516 15.3335 268.523 15.2926 268.538 15.2543C268.553 15.2161 268.575 15.1814 268.604 15.1523C268.632 15.1233 268.666 15.1004 268.703 15.0852C268.741 15.07 268.781 15.0627 268.821 15.0639Z" fill="white"/>
	<defs>
		<linearGradient id="paint0_linear_12098_81030" x1="26.6428" y1="1.26228" x2="84.5537" y2="12.65" gradientUnits="userSpaceOnUse">
			<stop stop-color="#FFFB1F"/>
			<stop offset="1" stop-color="#3AFA65"/>
		</linearGradient>
	</defs>
</svg>
