<svg width="12" height="13" viewBox="0 0 12 13" fill="none" xmlns="http://www.w3.org/2000/svg">
	<path d="M5.98021 5.2L10.2232 0.957001C10.6137 0.566536 11.2467 0.566535 11.6372 0.957C12.0277 1.34747 12.0277 1.98053 11.6372 2.371L7.39421 6.614L11.6372 10.857C12.0277 11.2475 12.0277 11.8805 11.6372 12.271C11.2467 12.6615 10.6137 12.6615 10.2232 12.271L5.98021 8.028L1.73721 12.271C1.34675 12.6615 0.713676 12.6615 0.323211 12.271C-0.0672545 11.8805 -0.0672543 11.2475 0.323211 10.857L4.56621 6.614L0.323212 2.371C-0.0672536 1.98054 -0.0672545 1.34747 0.323211 0.957C0.713676 0.566535 1.34675 0.566535 1.73721 0.957L5.98021 5.2Z" fill="white"/>
</svg>
