<svg width="254" height="30" viewBox="0 0 254 30" fill="none" xmlns="http://www.w3.org/2000/svg">
	<circle cx="15" cy="15" r="15" fill="#1BA27A"/>
	<path d="M20.1359 7.82983H9.74414V10.6731H13.6856V14.8522H16.1944V10.6731H20.1359V7.82983Z" fill="white"/>
	<path fill-rule="evenodd" clip-rule="evenodd" d="M14.9642 12.5244C18.6255 12.5244 21.5934 13.2785 21.5934 14.2089C21.5934 15.0324 19.2679 15.7178 16.1947 15.8643V21.8612H13.6861V15.862C10.6364 15.7107 8.33496 15.0281 8.33496 14.2089C8.33496 13.2785 11.3031 12.5244 14.9642 12.5244ZM9.06027 13.9911C9.06027 14.7126 11.7037 15.2974 14.9642 15.2974C18.2248 15.2974 20.8681 14.7126 20.8681 13.9911C20.8681 13.2697 18.2248 12.6847 14.9642 12.6847C11.7036 12.6847 9.06027 13.2697 9.06027 13.9911Z" fill="white"/>
	<circle cx="47" cy="15" r="15" fill="#005FBB"/>
	<path d="M44.1875 25.4296C44.1875 25.7812 43.9062 25.9804 43.5781 25.8749C39.0312 24.4218 35.75 20.1796 35.75 15.1523C35.75 10.1366 39.0312 5.88272 43.5781 4.42959C43.918 4.32413 44.1875 4.52334 44.1875 4.87491V5.75381C44.1875 5.98819 44.0117 6.25772 43.7891 6.33975C40.1914 7.66397 37.625 11.121 37.625 15.1523C37.625 19.1952 40.1914 22.6405 43.7891 23.953C44.0117 24.0351 44.1875 24.3046 44.1875 24.539V25.4296Z" fill="white"/>
	<path d="M47.9372 22.1836C47.9372 22.4414 47.7263 22.6523 47.4685 22.6523H46.531C46.2732 22.6523 46.0622 22.4414 46.0622 22.1836V20.707C44.0114 20.4258 43.0153 19.2891 42.7458 17.7187C42.6989 17.4492 42.9099 17.2148 43.1794 17.2148H44.2458C44.4685 17.2148 44.656 17.3789 44.7028 17.5898C44.9021 18.5156 45.4411 19.2305 47.0817 19.2305C48.2888 19.2305 49.156 18.5508 49.156 17.543C49.156 16.5352 48.6521 16.1484 46.8708 15.8555C44.2458 15.5039 43.0036 14.707 43.0036 12.6562C43.0036 11.0742 44.2107 9.83203 46.0622 9.57422V8.12109C46.0622 7.86328 46.2732 7.65234 46.531 7.65234H47.4685C47.7263 7.65234 47.9372 7.86328 47.9372 8.12109V9.60938C49.4489 9.87891 50.4099 10.7344 50.7263 12.1641C50.7849 12.4336 50.5739 12.6797 50.2927 12.6797H49.3083C49.0974 12.6797 48.9216 12.5391 48.863 12.3398C48.5935 11.4375 47.9489 11.0391 46.8239 11.0391C45.5817 11.0391 44.9372 11.6367 44.9372 12.4805C44.9372 13.3711 45.3005 13.8164 47.2107 14.0859C49.7888 14.4375 51.1247 15.1758 51.1247 17.3672C51.1247 19.0312 49.8825 20.3789 47.9489 20.6836V22.1836H47.9372Z" fill="white"/>
	<path d="M50.4219 25.8749C50.082 25.9804 49.8125 25.7812 49.8125 25.4296V24.5507C49.8125 24.2929 49.9648 24.0468 50.2109 23.9648C53.7969 22.6523 56.375 19.1952 56.375 15.164C56.375 11.121 53.8086 7.67569 50.2109 6.36319C49.9883 6.28116 49.8125 6.01163 49.8125 5.77725V4.89834C49.8125 4.54678 50.0937 4.34756 50.4219 4.45303C54.9688 5.88272 58.25 10.1366 58.25 15.1523C58.25 20.1796 54.9688 24.4218 50.4219 25.8749Z" fill="white"/>
	<path d="M78.9811 0C87.2557 0 93.9622 6.70787 93.9622 14.9811C93.9622 23.2557 87.2557 29.9622 78.9811 29.9622C70.7079 29.9622 64 23.2551 64 14.9811C64 6.70787 70.7079 0 78.9811 0Z" fill="#F5AC37"/>
	<path fill-rule="evenodd" clip-rule="evenodd" d="M71.8465 23.2395V23.2955L71.8438 23.2975V23.3069H78.342C79.0775 23.317 79.8104 23.2584 80.5331 23.1289C81.2942 22.98 82.0357 22.7453 82.7429 22.4271C83.0496 22.2851 83.3438 22.1135 83.6406 21.9403C83.7157 21.8965 83.791 21.8525 83.8668 21.8089C84.216 21.5602 84.5504 21.2905 84.8686 21.004C85.7396 20.2166 86.4137 19.2343 86.8351 18.1388C86.8634 18.0161 86.9834 17.9373 87.1068 17.9609H88.8764C89.0173 17.9609 89.0638 17.9137 89.0638 17.7546V16.6213C89.0733 16.5128 89.0733 16.4029 89.0638 16.2943C89.0638 16.266 89.0711 16.2377 89.0784 16.2094C89.0929 16.1531 89.1074 16.097 89.0638 16.0409H87.5854C87.4068 16.0409 87.4068 16.022 87.4068 15.8629C87.458 15.2925 87.458 14.7202 87.4068 14.1498C87.3973 13.9813 87.4351 13.9813 87.5659 13.9813H88.8582C89.0086 13.9813 89.0645 13.9436 89.0645 13.7939V12.2582C89.0599 12.1564 89.0575 12.1049 89.0305 12.0787C89.0028 12.0519 88.949 12.0519 88.84 12.0519H87.1641C87.0333 12.0741 86.9079 11.9858 86.8843 11.855C86.6922 11.3528 86.4474 10.8721 86.1528 10.4224C85.8562 9.97883 85.5218 9.5622 85.151 9.17726C84.6582 8.68512 84.1047 8.25771 83.5034 7.90378C82.5966 7.37726 81.605 7.0085 80.5728 6.81771C80.0719 6.72535 79.5656 6.66939 79.056 6.64917H72.0339C71.8465 6.64917 71.8465 6.68692 71.8465 6.83659V11.8833C71.8465 12.0613 71.8088 12.0613 71.6686 12.0613H69.6555C69.5059 12.0613 69.5059 12.0889 69.5059 12.1921V13.8397C69.5059 13.9894 69.5524 13.9894 69.665 13.9894H71.6969C71.8465 13.9894 71.8465 14.017 71.8465 14.1296V15.8898C71.8465 16.0489 71.7993 16.0489 71.678 16.0489H69.5059V17.828C69.5059 17.9777 69.5524 17.9777 69.665 17.9777H71.6969C71.8465 17.9777 71.8465 17.9959 71.8465 18.1179V20.3184V21.0579V23.2395ZM84.7775 11.9009C84.7937 11.9427 84.7937 11.9892 84.7775 12.0316H84.8227C84.8038 12.0876 84.7101 12.1065 84.7101 12.1065H73.9054C73.7274 12.1065 73.7274 12.0687 73.7274 11.9285V8.6049C73.7274 8.48288 73.7463 8.42692 73.8865 8.42692H78.9144C79.4497 8.4222 79.9836 8.47816 80.5061 8.59546C81.5416 8.84086 82.505 9.32894 83.3153 10.0186C83.4771 10.1393 83.6214 10.2815 83.7461 10.44C84.0104 10.7022 84.2423 10.9941 84.4391 11.311C84.5699 11.4964 84.6825 11.6939 84.7775 11.9009ZM85.2259 16.0388H79.5333H73.9526C73.8387 16.0388 73.7826 16.0388 73.755 16.0108C73.7281 15.9835 73.7281 15.9298 73.7281 15.8238V14.1573C73.7281 14.0258 73.7659 13.9793 73.9061 13.9793H85.2353C85.3573 13.9793 85.4133 14.0258 85.4133 14.1384C85.4598 14.7182 85.4598 15.3006 85.4133 15.8797C85.4045 16.0388 85.3472 16.0388 85.2259 16.0388ZM84.7775 17.9865C84.6184 17.9689 84.458 17.9689 84.2989 17.9865H73.9155C73.7753 17.9865 73.7281 17.9865 73.7281 18.1739V21.4233C73.7281 21.573 73.7281 21.6107 73.9155 21.6107H78.7095C78.9387 21.6283 79.1679 21.6121 79.3924 21.5642C80.0881 21.5143 80.7724 21.3633 81.425 21.1146C81.6623 21.0323 81.8915 20.9251 82.1079 20.7964H82.1733C83.2971 20.2119 84.2099 19.2937 84.7856 18.1665C84.7856 18.1665 84.851 18.0249 84.7775 17.9878V17.9865Z" fill="#FEFEFD"/>
	<circle cx="111" cy="15" r="15" fill="#F0B90B"/>
	<path d="M111.38 6.6665L113.539 8.87073L108.103 14.2905L105.944 12.1382L111.38 6.6665Z" fill="white"/>
	<path d="M114.658 9.93384L116.816 12.1381L108.103 20.8253L105.944 18.6729L114.658 9.93384Z" fill="white"/>
	<path d="M104.825 13.2014L106.984 15.4056L104.825 17.558L102.666 15.4056L104.825 13.2014Z" fill="white"/>
	<path d="M117.934 13.2014L120.093 15.4056L111.38 24.0929L109.221 21.9405L117.934 13.2014Z" fill="white"/>
	<circle cx="143" cy="15" r="15" fill="#FF8724"/>
	<path fill-rule="evenodd" clip-rule="evenodd" d="M147.972 13.5303C148.197 11.9541 147.05 11.1068 145.481 10.5416L145.99 8.40652L144.748 8.08263L144.253 10.1615C143.926 10.0763 143.59 9.99599 143.257 9.91641L143.756 7.82389L142.514 7.5L142.005 9.63434C141.735 9.56994 141.469 9.50627 141.212 9.43927L141.213 9.43261L139.5 8.98508L139.169 10.3732C139.169 10.3732 140.091 10.5942 140.072 10.6079C140.575 10.7393 140.666 11.0876 140.65 11.3637L140.071 13.7961C140.106 13.8053 140.15 13.8186 140.2 13.8394L140.158 13.8284C140.129 13.8208 140.099 13.813 140.069 13.8053L139.256 17.2126C139.195 17.3725 139.039 17.6124 138.687 17.5213C138.699 17.5402 137.784 17.2856 137.784 17.2856L137.167 18.7732L138.784 19.1948C138.964 19.2422 139.143 19.2908 139.319 19.339L139.319 19.339C139.437 19.3711 139.554 19.4029 139.67 19.434L139.155 21.5935L140.396 21.9174L140.906 19.7808C141.245 19.877 141.574 19.9659 141.896 20.0495L141.388 22.1761L142.631 22.5L143.145 20.3446C145.264 20.7639 146.857 20.5948 147.527 18.5904C148.068 16.9765 147.5 16.0455 146.386 15.4385C147.197 15.2426 147.809 14.6841 147.972 13.5303ZM145.457 17.3671C145.077 18.8659 142.688 18.2463 141.595 17.9627C141.496 17.9372 141.409 17.9144 141.334 17.8962L142.069 15C142.161 15.0224 142.272 15.0469 142.398 15.0748C143.529 15.3239 145.846 15.8345 145.457 17.3671ZM142.376 14.6652C143.242 14.9321 145.131 15.5143 145.46 13.9919C145.796 12.4348 143.96 11.9654 143.063 11.7361C142.962 11.7103 142.873 11.6876 142.801 11.6667L142.167 14.6021C142.227 14.6193 142.297 14.6409 142.376 14.6652Z" fill="white"/>
	<circle cx="175" cy="15" r="15" fill="#2992FA"/>
	<path fill-rule="evenodd" clip-rule="evenodd" d="M175.067 5V11.943L181.133 14.5652L175.067 5ZM175.067 19.0809V24.1304L181.133 15.4348L175.067 19.0809ZM175.067 18.0435L169 14.6028L175.067 11.9565V18.0435Z" fill="white" fill-opacity="0.602"/>
	<path fill-rule="evenodd" clip-rule="evenodd" d="M169 14.5652L175.067 5V11.943L169 14.5652ZM175.067 19.0801V24.1304L169 15.4348L175.067 19.0801Z" fill="white"/>
	<path d="M175.066 18.0435L181.133 14.6028L175.066 11.9565V18.0435Z" fill="white" fill-opacity="0.2"/>
	<rect x="192" width="30" height="30" rx="15" fill="url(#paint0_linear_11980_80312)"/>
	<mask id="mask0_11980_80312" style="mask-type:luminance" maskUnits="userSpaceOnUse" x="192" y="0" width="30" height="30">
		<rect x="192" width="30" height="30" rx="15" fill="white"/>
	</mask>
	<g mask="url(#mask0_11980_80312)">
		<path d="M210.439 1.17363L210.116 1.30087C205.849 3.03346 202.952 6.20535 201.446 10.7894L201.429 10.842L197.587 10.8421L196.167 14.2212L200.858 14.2212L200.821 14.4469L200.81 14.7289C200.804 15.0063 200.811 15.27 200.833 15.5236L200.857 15.7562L197.897 15.7566L196.316 19.0693L201.446 19.0687L201.698 19.9222C202.049 20.901 202.501 21.8412 203.062 22.7649C204.842 25.6654 207.381 27.7327 210.67 28.9604L212.053 29.4091C213.237 29.7474 214.447 29.9371 215.694 29.9826C219.621 30.1645 223.065 28.9617 225.999 26.3814L226.141 26.257V21.8925L225.429 22.6092C222.45 25.6061 219.015 26.8954 215.091 26.4952C213.869 26.3663 212.667 26.0794 211.486 25.6344L210.08 24.9821L209.776 24.8094C208.173 23.8659 206.882 22.5612 205.918 20.9006L205.106 19.0687L215.891 19.0693L217.442 15.7566L204.302 15.7562L204.289 15.7007C204.243 15.4693 204.225 15.1519 204.244 14.7533L204.31 14.2212L218.17 14.2212L219.711 10.8421L205.12 10.842L205.151 10.7719C206.357 8.14497 208.194 6.17565 210.67 4.85232C212.023 4.12318 213.246 3.70523 214.34 3.59324C217.389 3.13313 220.126 3.67407 222.59 5.21446C223.825 5.97233 224.756 6.77908 225.39 7.63301L225.839 8.23857L227.28 4.53986L227.091 4.34762C226.396 3.64126 225.459 2.93444 224.277 2.22398C221.909 0.799632 219.425 0.0627175 216.832 0.017134C214.981 -0.082331 212.987 0.251375 210.865 1.01522L210.439 1.17363Z" fill="white"/>
	</g>
	<circle cx="239" cy="15" r="15" fill="#3ED68D"/>
	<path d="M238.42 24.82H240.48V22.42C241.1 22.32 241.66 22.14 242.14 21.88C242.62 21.62 243.02 21.3 243.36 20.92C243.7 20.54 243.94 20.14 244.12 19.68C244.28 19.24 244.36 18.78 244.36 18.3C244.36 17.34 244.04 16.5 243.4 15.76C242.74 15.02 241.8 14.54 240.54 14.3L238.64 13.94C238.12 13.84 237.74 13.64 237.5 13.36C237.26 13.1 237.14 12.76 237.14 12.38C237.14 11.92 237.34 11.54 237.72 11.2C238.1 10.86 238.62 10.7 239.26 10.7C239.68 10.7 240.06 10.76 240.36 10.88C240.66 11 240.9 11.16 241.1 11.34C241.3 11.54 241.46 11.74 241.56 11.96C241.66 12.18 241.72 12.4 241.74 12.6L244.12 11.9C244.06 11.56 243.94 11.2 243.78 10.82C243.6 10.44 243.38 10.1 243.1 9.78C242.8 9.46 242.44 9.18 242.02 8.94C241.58 8.7 241.06 8.52 240.48 8.42V6H238.42V8.38C237.88 8.48 237.36 8.64 236.88 8.88C236.4 9.12 235.98 9.42 235.64 9.78C235.3 10.16 235.02 10.58 234.82 11.04C234.62 11.52 234.52 12.04 234.52 12.58C234.52 13.58 234.84 14.42 235.48 15.1C236.1 15.8 236.98 16.26 238.08 16.48L240.02 16.86C240.54 16.96 240.94 17.16 241.24 17.44C241.54 17.72 241.68 18.06 241.68 18.48C241.68 18.96 241.48 19.36 241.1 19.68C240.72 20 240.16 20.16 239.46 20.16C238.96 20.16 238.54 20.08 238.18 19.94C237.82 19.8 237.52 19.62 237.26 19.38C237 19.14 236.82 18.86 236.68 18.54C236.54 18.24 236.46 17.92 236.44 17.58L234 18.2C234.06 18.64 234.18 19.08 234.38 19.54C234.56 20 234.84 20.44 235.2 20.82C235.54 21.22 235.98 21.56 236.52 21.86C237.06 22.16 237.68 22.34 238.42 22.44V24.82Z" fill="white"/>
	<defs>
		<linearGradient id="paint0_linear_11980_80312" x1="209.407" y1="35.4973" x2="231.19" y2="13.4847" gradientUnits="userSpaceOnUse">
			<stop stop-color="#00BEFF"/>
			<stop offset="1" stop-color="#C100F5"/>
		</linearGradient>
	</defs>
</svg>
