<svg width="156" height="23" viewBox="0 0 156 23" fill="none" xmlns="http://www.w3.org/2000/svg">
	<circle cx="11.3889" cy="11.3889" r="11.3889" fill="#656D81"/>
	<path d="M15.2895 5.94482H7.39941V8.10361H10.392V11.2766H12.2969V8.10361H15.2895V5.94482Z" fill="white"/>
	<path fill-rule="evenodd" clip-rule="evenodd" d="M11.3624 9.50928C14.1423 9.50928 16.3957 10.0818 16.3957 10.7882C16.3957 11.4135 14.63 11.9339 12.2967 12.0451V16.5983H10.392V12.0434C8.07651 11.9285 6.3291 11.4103 6.3291 10.7882C6.3291 10.0818 8.58271 9.50928 11.3624 9.50928ZM6.88005 10.6229C6.88005 11.1707 8.8871 11.6148 11.3627 11.6148C13.8383 11.6148 15.8453 11.1707 15.8453 10.6229C15.8453 10.0752 13.8383 9.63106 11.3627 9.63106C8.88702 9.63106 6.88005 10.0752 6.88005 10.6229Z" fill="white"/>
	<circle cx="30.3889" cy="11.3889" r="11.3889" fill="#F6F7F8"/>
	<path d="M28.2539 19.3077C28.2539 19.5746 28.0404 19.7259 27.7912 19.6458C24.339 18.5425 21.8477 15.3216 21.8477 11.5045C21.8477 7.69634 24.339 4.46653 27.7912 3.36323C28.0493 3.28315 28.2539 3.43441 28.2539 3.70134V4.36865C28.2539 4.54661 28.1204 4.75125 27.9514 4.81353C25.2198 5.81896 23.2713 8.44374 23.2713 11.5045C23.2713 14.5742 25.2198 17.1901 27.9514 18.1866C28.1204 18.2489 28.2539 18.4535 28.2539 18.6315V19.3077Z" fill="#656D81"/>
	<path d="M31.1009 16.843C31.1009 17.0388 30.9407 17.1989 30.745 17.1989H30.0332C29.8374 17.1989 29.6773 17.0388 29.6773 16.843V15.7219C28.1202 15.5084 27.3639 14.6453 27.1593 13.4531C27.1237 13.2484 27.2838 13.0705 27.4885 13.0705H28.2982C28.4672 13.0705 28.6096 13.195 28.6452 13.3552C28.7964 14.0581 29.2057 14.6009 30.4514 14.6009C31.3678 14.6009 32.0262 14.0848 32.0262 13.3196C32.0262 12.5544 31.6436 12.2608 30.2912 12.0384C28.2982 11.7714 27.355 11.1664 27.355 9.60932C27.355 8.40815 28.2715 7.46501 29.6773 7.26926V6.16596C29.6773 5.97021 29.8374 5.81006 30.0332 5.81006H30.745C30.9407 5.81006 31.1009 5.97021 31.1009 6.16596V7.29595C32.2487 7.5006 32.9783 8.15012 33.2185 9.23562C33.263 9.44027 33.1028 9.62712 32.8893 9.62712H32.1419C31.9818 9.62712 31.8483 9.52034 31.8038 9.36909C31.5992 8.68397 31.1098 8.38146 30.2556 8.38146C29.3125 8.38146 28.8231 8.83523 28.8231 9.47586C28.8231 10.1521 29.0989 10.4902 30.5492 10.6948C32.5067 10.9618 33.521 11.5223 33.521 13.1861C33.521 14.4496 32.5779 15.4728 31.1098 15.7042V16.843H31.1009Z" fill="#656D81"/>
	<path d="M32.9871 19.6458C32.7291 19.7259 32.5244 19.5746 32.5244 19.3077V18.6404C32.5244 18.4446 32.6401 18.2578 32.8269 18.1955C35.5496 17.199 37.5071 14.5742 37.5071 11.5134C37.5071 8.44377 35.5585 5.82788 32.8269 4.83135C32.6579 4.76907 32.5244 4.56443 32.5244 4.38648V3.71916C32.5244 3.45223 32.738 3.30097 32.9871 3.38105C36.4393 4.46655 38.9307 7.69637 38.9307 11.5045C38.9307 15.3216 36.4393 18.5425 32.9871 19.6458Z" fill="#656D81"/>
	<path d="M49.3746 0C55.6571 0 60.7491 5.09301 60.7491 11.3746C60.7491 17.6571 55.6571 22.7491 49.3746 22.7491C43.093 22.7491 38 17.6566 38 11.3746C38 5.09301 43.093 0 49.3746 0Z" fill="#656D81"/>
	<path fill-rule="evenodd" clip-rule="evenodd" d="M43.9569 17.6449V17.6874L43.9548 17.689V17.6961H48.8886C49.4471 17.7038 50.0035 17.6593 50.5522 17.561C51.1301 17.4479 51.6931 17.2698 52.2301 17.0282C52.4629 16.9203 52.6862 16.79 52.9116 16.6585C52.9687 16.6252 53.0258 16.5919 53.0833 16.5588C53.3485 16.3699 53.6024 16.1652 53.844 15.9476C54.5053 15.3498 55.0171 14.604 55.3371 13.7722C55.3586 13.6791 55.4497 13.6192 55.5433 13.6371H56.887C56.9939 13.6371 57.0293 13.6013 57.0293 13.4805V12.62C57.0364 12.5376 57.0364 12.4542 57.0293 12.3718C57.0293 12.3502 57.0348 12.3288 57.0403 12.3073C57.0513 12.2645 57.0623 12.2219 57.0293 12.1793H55.9068C55.7711 12.1793 55.7711 12.165 55.7711 12.0442C55.81 11.6111 55.81 11.1766 55.7711 10.7435C55.7639 10.6156 55.7926 10.6156 55.8919 10.6156H56.8731C56.9873 10.6156 57.0298 10.5869 57.0298 10.4733V9.30726C57.0226 9.15063 57.0226 9.15063 56.8593 9.15063H55.5868C55.4875 9.16752 55.3923 9.10047 55.3744 9.00117C55.2285 8.61983 55.0427 8.25488 54.8191 7.91347C54.5938 7.57666 54.3399 7.26033 54.0584 6.96806C53.6843 6.5944 53.264 6.26988 52.8074 6.00116C52.119 5.60139 51.366 5.32141 50.5824 5.17655C50.2021 5.10642 49.8177 5.06394 49.4307 5.04858H44.0992C43.9569 5.04858 43.9569 5.07725 43.9569 5.19088V9.02267C43.9569 9.1578 43.9282 9.1578 43.8217 9.1578H42.2933C42.1797 9.1578 42.1797 9.17878 42.1797 9.2571V10.5081C42.1797 10.6217 42.215 10.6217 42.3005 10.6217H43.8432C43.9569 10.6217 43.9569 10.6427 43.9569 10.7282V12.0647C43.9569 12.1854 43.921 12.1855 43.8289 12.1855H42.1797V13.5362C42.1797 13.6499 42.215 13.6499 42.3005 13.6499H43.8432C43.9569 13.6499 43.9569 13.6637 43.9569 13.7563V15.4271V15.9886V17.6449ZM53.7749 9.03606C53.7872 9.06779 53.7872 9.10311 53.7749 9.13536H53.8092C53.7949 9.17784 53.7238 9.19218 53.7238 9.19218H45.5202C45.385 9.19218 45.385 9.16351 45.385 9.05704V6.53357C45.385 6.44093 45.3994 6.39844 45.5058 6.39844H49.3233C49.7297 6.39486 50.1351 6.43734 50.5318 6.52641C51.318 6.71273 52.0495 7.08331 52.6647 7.60694C52.7876 7.69857 52.8971 7.80657 52.9918 7.92686C53.1924 8.12597 53.3685 8.34761 53.518 8.58818C53.6173 8.72894 53.7028 8.87892 53.7749 9.03606ZM54.1156 12.1777H49.7934H45.5562C45.4698 12.1777 45.4272 12.1777 45.4062 12.1564C45.3858 12.1357 45.3858 12.0949 45.3858 12.0145V10.7491C45.3858 10.6493 45.4144 10.614 45.5209 10.614H54.1227C54.2154 10.614 54.2579 10.6493 54.2579 10.7348C54.2932 11.175 54.2932 11.6173 54.2579 12.0569C54.2512 12.1777 54.2077 12.1777 54.1156 12.1777ZM53.7752 13.6566C53.6544 13.6433 53.5325 13.6433 53.4117 13.6566H45.5281C45.4216 13.6566 45.3858 13.6566 45.3858 13.7989V16.266C45.3858 16.3797 45.3858 16.4083 45.5281 16.4083H49.1679C49.3419 16.4217 49.516 16.4094 49.6864 16.373C50.2147 16.3351 50.7342 16.2205 51.2297 16.0316C51.4099 15.9692 51.5839 15.8878 51.7482 15.79H51.7979C52.6511 15.3462 53.3442 14.6491 53.7813 13.7933C53.7813 13.7933 53.831 13.6858 53.7752 13.6576V13.6566Z" fill="#FEFEFD"/>
	<circle cx="68.3889" cy="11.3889" r="11.3889" fill="white"/>
	<path d="M68.6791 5.06177L70.3183 6.73535L66.1909 10.8504L64.5518 9.21618L68.6791 5.06177Z" fill="#656D81"/>
	<path d="M71.1674 7.54248L72.8065 9.21606L66.1909 15.8119L64.5518 14.1777L71.1674 7.54248Z" fill="#656D81"/>
	<path d="M63.7016 10.0234L65.3407 11.697L63.7016 13.3312L62.0625 11.697L63.7016 10.0234Z" fill="#656D81"/>
	<path d="M73.6547 10.0234L75.2938 11.697L68.6782 18.2929L67.0391 16.6587L73.6547 10.0234Z" fill="#656D81"/>
	<circle cx="87.3889" cy="11.3889" r="11.3889" fill="#656D81"/>
	<path fill-rule="evenodd" clip-rule="evenodd" d="M91.1638 10.2729C91.3349 9.07618 90.4639 8.43286 89.2728 8.0037L89.6592 6.38262L88.7158 6.1367L88.3397 7.71507C88.0917 7.65043 87.837 7.58944 87.5839 7.52901L87.9627 5.94025L87.02 5.69434L86.6333 7.31486C86.4281 7.26595 86.2265 7.21761 86.0309 7.16674L86.032 7.16168L84.7311 6.8219L84.4801 7.87583C84.4801 7.87583 85.18 8.04361 85.1653 8.05401C85.5473 8.15378 85.6164 8.41825 85.6048 8.62791L85.1647 10.4747C85.1911 10.4817 85.2252 10.4918 85.2628 10.5076L85.2308 10.4992C85.2089 10.4935 85.1863 10.4875 85.1631 10.4817L84.5462 13.0687C84.4995 13.1902 84.381 13.3723 84.1139 13.3031C84.1233 13.3175 83.4283 13.1241 83.4283 13.1241L82.96 14.2536L84.1876 14.5738C84.3246 14.6097 84.46 14.6466 84.594 14.6832L84.5941 14.6832C84.6834 14.7075 84.772 14.7317 84.8601 14.7553L84.4697 16.3949L85.4119 16.6409L85.7985 15.0186C86.0559 15.0917 86.3058 15.1592 86.5503 15.2227L86.165 16.8373L87.1083 17.0832L87.4987 15.4467C89.1073 15.7651 90.3169 15.6367 90.826 14.1148C91.2363 12.8894 90.8056 12.1826 89.9593 11.7217C90.5756 11.573 91.0399 11.1489 91.1638 10.2729ZM89.2545 13.1861C88.9661 14.3241 87.1522 13.8536 86.3222 13.6384C86.2476 13.619 86.1809 13.6017 86.124 13.5878L86.6825 11.3889C86.7518 11.4059 86.8365 11.4245 86.9324 11.4457C87.7908 11.6348 89.55 12.0225 89.2545 13.1861ZM86.915 11.1347C87.5725 11.3374 89.0067 11.7795 89.2565 10.6236C89.5116 9.44128 88.1177 9.08488 87.4369 8.91082C87.3603 8.89124 87.2928 8.87397 87.2376 8.85809L86.7564 11.0868C86.8019 11.0999 86.8552 11.1163 86.915 11.1347Z" fill="white"/>
	<circle cx="106.389" cy="11.3889" r="11.3889" fill="white"/>
	<path fill-rule="evenodd" clip-rule="evenodd" d="M106.439 3.7959V9.06744L111.045 11.0584L106.439 3.7959ZM106.439 14.487V18.3209L111.045 11.7186L106.439 14.487ZM106.439 13.6993L101.833 11.0869L106.439 9.07772V13.6993Z" fill="#656D81"/>
	<path fill-rule="evenodd" clip-rule="evenodd" d="M101.833 11.0584L106.439 3.7959V9.06744L101.833 11.0584ZM106.439 14.4864V18.3209L101.833 11.7186L106.439 14.4864Z" fill="#656D81"/>
	<path d="M106.438 13.6995L111.045 11.0871L106.438 9.07788V13.6995Z" fill="#656D81"/>
	<rect x="114" width="22.7778" height="22.7778" rx="11.3889" fill="#656D81"/>
	<mask id="mask0_11980_80312" style="mask-type:luminance" maskUnits="userSpaceOnUse" x="114" y="0" width="23" height="23">
		<rect x="114" width="22.7778" height="22.7778" rx="11.3889" fill="white"/>
	</mask>
	<g mask="url(#mask0_11980_80312)">
		<path d="M128 0.891089L127.755 0.987701C124.515 2.30318 122.316 4.71147 121.172 8.19196L121.159 8.23193L118.242 8.23198L117.164 10.7976L120.726 10.7976L120.698 10.9689L120.689 11.1831C120.685 11.3937 120.69 11.5939 120.707 11.7864L120.725 11.9631L118.478 11.9633L117.277 14.4785L121.172 14.4781L121.364 15.1261C121.63 15.8693 121.973 16.5831 122.399 17.2844C123.75 19.4867 125.679 21.0563 128.175 21.9884L129.225 22.3292C130.125 22.586 131.043 22.73 131.99 22.7646C134.972 22.9027 137.587 21.9895 139.815 20.0303L139.922 19.9358V16.6221L139.381 17.1663C137.12 19.4417 134.512 20.4206 131.532 20.1167C130.604 20.0189 129.692 19.801 128.795 19.4631L127.728 18.9679L127.497 18.8368C126.28 18.1204 125.299 17.1298 124.567 15.869L123.951 14.4781L132.139 14.4785L133.317 11.9633L123.341 11.9631L123.331 11.9209C123.296 11.7452 123.283 11.5042 123.296 11.2016L123.347 10.7976L133.87 10.7976L135.04 8.23198L123.962 8.23193L123.985 8.17865C124.901 6.18415 126.296 4.68892 128.176 3.68417C129.203 3.13057 130.132 2.81323 130.962 2.7282C133.277 2.37886 135.355 2.78957 137.226 3.95913C138.164 4.53455 138.871 5.14708 139.352 5.79543L139.693 6.25521L140.787 3.44693L140.643 3.30097C140.116 2.76466 139.404 2.228 138.507 1.68858C136.709 0.607128 134.823 0.0476189 132.854 0.0130092C131.449 -0.0625106 129.935 0.190858 128.323 0.770813L128 0.891089Z" fill="white"/>
	</g>
	<circle cx="144.5" cy="11.5" r="11.5" fill="white"/>
	<path d="M144.056 19.0288H145.635V17.1888C146.11 17.1121 146.54 16.9741 146.908 16.7748C147.276 16.5754 147.582 16.3301 147.843 16.0388C148.104 15.7474 148.288 15.4408 148.426 15.0881C148.548 14.7508 148.61 14.3981 148.61 14.0301C148.61 13.2941 148.364 12.6501 147.874 12.0828C147.368 11.5154 146.647 11.1474 145.681 10.9634L144.224 10.6874C143.826 10.6108 143.534 10.4574 143.35 10.2428C143.166 10.0434 143.074 9.78276 143.074 9.49143C143.074 9.13876 143.228 8.84743 143.519 8.58676C143.81 8.3261 144.209 8.20343 144.7 8.20343C145.022 8.20343 145.313 8.24943 145.543 8.34143C145.773 8.43343 145.957 8.5561 146.11 8.6941C146.264 8.84743 146.386 9.00076 146.463 9.16943C146.54 9.3381 146.586 9.50676 146.601 9.6601L148.426 9.12343C148.38 8.86276 148.288 8.58676 148.165 8.29543C148.027 8.0041 147.858 7.74343 147.644 7.4981C147.414 7.25276 147.138 7.0381 146.816 6.8541C146.478 6.6701 146.08 6.5321 145.635 6.45543V4.6001H144.056V6.42476C143.642 6.50143 143.243 6.6241 142.875 6.8081C142.507 6.9921 142.185 7.2221 141.924 7.4981C141.664 7.78943 141.449 8.11143 141.296 8.4641C141.142 8.8321 141.066 9.23077 141.066 9.64476C141.066 10.4114 141.311 11.0554 141.802 11.5768C142.277 12.1134 142.952 12.4661 143.795 12.6348L145.282 12.9261C145.681 13.0028 145.988 13.1561 146.218 13.3708C146.448 13.5854 146.555 13.8461 146.555 14.1681C146.555 14.5361 146.402 14.8428 146.11 15.0881C145.819 15.3334 145.39 15.4561 144.853 15.4561C144.47 15.4561 144.148 15.3948 143.872 15.2874C143.596 15.1801 143.366 15.0421 143.166 14.8581C142.967 14.6741 142.829 14.4594 142.722 14.2141C142.614 13.9841 142.553 13.7388 142.538 13.4781L140.667 13.9534C140.713 14.2908 140.805 14.6281 140.958 14.9808C141.096 15.3334 141.311 15.6708 141.587 15.9621C141.848 16.2688 142.185 16.5294 142.599 16.7594C143.013 16.9894 143.488 17.1274 144.056 17.2041V19.0288Z" fill="#656D81"/>
</svg>
