<svg width="283" height="65" viewBox="0 0 283 65" fill="none" xmlns="http://www.w3.org/2000/svg">
	<path fill-rule="evenodd" clip-rule="evenodd" d="M16.3914 32.7829C25.4233 32.7829 32.7829 25.4235 32.7829 16.3914C32.7829 7.35935 25.4233 0 16.3914 0C7.35958 0 0 7.35935 0 16.3914C0 25.4235 7.35958 32.7829 16.3914 32.7829ZM16.3914 4.96625C22.6965 4.96625 27.8169 10.0869 27.8169 16.3914C27.8169 22.696 22.6965 27.8167 16.3914 27.8167C10.0864 27.8167 4.96602 22.67 4.96602 16.3914C4.96602 10.1128 10.0864 4.96625 16.3914 4.96625ZM19.171 52.5709L14.3595 50.0234V60.1879H4.91518V43.4876L0.0772115 40.9401V64.9996H4.14306H4.91518H32.6793V60.1879H19.171V52.5709ZM16.8811 45.7521L1.20902 36.6943L0.0772115 36.025V30.467L1.33896 31.1876L16.8811 40.1681L29.67 32.7829L32.6793 31.0588V56.0706H27.8433V39.4219L16.8811 45.7521Z" fill="white"/>
	<path d="M77.2844 37.4872C77.2844 40.3504 76.7484 42.7863 75.6764 44.7949C74.6129 46.8034 73.161 48.3376 71.3209 49.3974C69.4893 50.4487 67.4297 50.9744 65.1422 50.9744C62.8378 50.9744 60.7698 50.4444 58.9382 49.3846C57.1065 48.3248 55.6589 46.7906 54.5953 44.7821C53.5318 42.7735 53 40.3419 53 37.4872C53 34.6239 53.5318 32.188 54.5953 30.1795C55.6589 28.1709 57.1065 26.641 58.9382 25.5897C60.7698 24.5299 62.8378 24 65.1422 24C67.4297 24 69.4893 24.5299 71.3209 25.5897C73.161 26.641 74.6129 28.1709 75.6764 30.1795C76.7484 32.188 77.2844 34.6239 77.2844 37.4872ZM71.7261 37.4872C71.7261 35.6325 71.4518 34.0684 70.9031 32.7949C70.3629 31.5214 69.599 30.5556 68.6114 29.8974C67.6238 29.2393 66.4674 28.9103 65.1422 28.9103C63.817 28.9103 62.6606 29.2393 61.673 29.8974C60.6854 30.5556 59.9173 31.5214 59.3686 32.7949C58.8284 34.0684 58.5583 35.6325 58.5583 37.4872C58.5583 39.3419 58.8284 40.906 59.3686 42.1795C59.9173 43.453 60.6854 44.4188 61.673 45.0769C62.6606 45.735 63.817 46.0641 65.1422 46.0641C66.4674 46.0641 67.6238 45.735 68.6114 45.0769C69.599 44.4188 70.3629 43.453 70.9031 42.1795C71.4518 40.906 71.7261 39.3419 71.7261 37.4872Z" fill="white"/>
	<path d="M84.1422 39.2308V50.6154H78.7484V30.9231H83.8889V34.3974H84.1168C84.5473 33.2521 85.269 32.3462 86.2819 31.6795C87.2948 31.0043 88.523 30.6667 89.9664 30.6667C91.3169 30.6667 92.4944 30.9658 93.4989 31.5641C94.5034 32.1624 95.2841 33.0171 95.8412 34.1282C96.3983 35.2308 96.6769 36.547 96.6769 38.0769V50.6154H91.2832V39.0513C91.2916 37.8462 90.9877 36.906 90.3715 36.2308C89.7554 35.547 88.907 35.2051 87.8266 35.2051C87.1007 35.2051 86.4592 35.3632 85.9021 35.6795C85.3534 35.9957 84.9229 36.4573 84.6106 37.0641C84.3068 37.6624 84.1506 38.3846 84.1422 39.2308Z" fill="white"/>
	<path d="M107.295 51C105.295 51 103.573 50.5897 102.129 49.7692C100.694 48.9402 99.5885 47.7692 98.812 46.2564C98.0354 44.735 97.6471 42.9359 97.6471 40.859C97.6471 38.8333 98.0354 37.0556 98.812 35.5256C99.5885 33.9957 100.682 32.8034 102.091 31.9487C103.509 31.094 105.172 30.6667 107.08 30.6667C108.363 30.6667 109.557 30.8761 110.663 31.2949C111.777 31.7051 112.748 32.3248 113.575 33.1538C114.411 33.9829 115.061 35.0256 115.525 36.282C115.989 37.5299 116.221 38.9915 116.221 40.6667V42.1667H99.7995V38.782H111.144C111.144 37.9957 110.975 37.2991 110.638 36.6923C110.3 36.0855 109.832 35.6111 109.232 35.2692C108.641 34.9188 107.953 34.7436 107.168 34.7436C106.35 34.7436 105.624 34.9359 104.991 35.3205C104.366 35.6966 103.876 36.2051 103.522 36.8461C103.167 37.4786 102.986 38.1838 102.978 38.9615V42.1795C102.978 43.1538 103.155 43.9957 103.509 44.7051C103.872 45.4145 104.383 45.9615 105.041 46.3462C105.7 46.7308 106.48 46.9231 107.384 46.9231C107.983 46.9231 108.532 46.8376 109.03 46.6667C109.528 46.4957 109.954 46.2393 110.308 45.8974C110.663 45.5556 110.933 45.1368 111.119 44.641L116.107 44.9744C115.854 46.188 115.335 47.2479 114.55 48.1538C113.773 49.0513 112.769 49.7521 111.537 50.2564C110.313 50.7521 108.899 51 107.295 51Z" fill="white"/>
	<path d="M123.103 24.359H129.864L137.005 42H137.309L144.45 24.359H151.211V50.6154H145.893V33.5256H145.678L138.967 50.4872H135.346L128.636 33.4615H128.421V50.6154H123.103V24.359Z" fill="white"/>
	<path d="M161.918 51C159.951 51 158.25 50.5769 156.815 49.7308C155.389 48.8761 154.287 47.688 153.511 46.1667C152.734 44.6368 152.346 42.8632 152.346 40.8462C152.346 38.812 152.734 37.0342 153.511 35.5128C154.287 33.9829 155.389 32.7949 156.815 31.9487C158.25 31.094 159.951 30.6667 161.918 30.6667C163.884 30.6667 165.581 31.094 167.008 31.9487C168.443 32.7949 169.548 33.9829 170.325 35.5128C171.101 37.0342 171.49 38.812 171.49 40.8462C171.49 42.8632 171.101 44.6368 170.325 46.1667C169.548 47.688 168.443 48.8761 167.008 49.7308C165.581 50.5769 163.884 51 161.918 51ZM161.943 46.7692C162.838 46.7692 163.585 46.5128 164.184 46C164.783 45.4786 165.235 44.7692 165.539 43.8718C165.851 42.9744 166.007 41.953 166.007 40.8077C166.007 39.6624 165.851 38.641 165.539 37.7436C165.235 36.8462 164.783 36.1367 164.184 35.6154C163.585 35.094 162.838 34.8333 161.943 34.8333C161.04 34.8333 160.28 35.094 159.664 35.6154C159.056 36.1367 158.596 36.8462 158.284 37.7436C157.98 38.641 157.828 39.6624 157.828 40.8077C157.828 41.953 157.98 42.9744 158.284 43.8718C158.596 44.7692 159.056 45.4786 159.664 46C160.28 46.5128 161.04 46.7692 161.943 46.7692Z" fill="white"/>
	<path d="M172.501 50.6154V30.9231H177.73V34.359H177.933C178.287 33.1368 178.882 32.2137 179.718 31.5897C180.554 30.9573 181.516 30.641 182.605 30.641C182.875 30.641 183.166 30.6581 183.478 30.6923C183.791 30.7265 184.065 30.7735 184.301 30.8333V35.6795C184.048 35.6026 183.698 35.5342 183.251 35.4744C182.803 35.4145 182.394 35.3846 182.022 35.3846C181.229 35.3846 180.52 35.5598 179.895 35.9103C179.279 36.2521 178.79 36.7308 178.427 37.3462C178.072 37.9615 177.895 38.6709 177.895 39.4744V50.6154H172.501Z" fill="white"/>
	<path d="M192.552 51C190.551 51 188.83 50.5897 187.386 49.7692C185.951 48.9402 184.845 47.7692 184.069 46.2564C183.292 44.735 182.904 42.9359 182.904 40.859C182.904 38.8333 183.292 37.0556 184.069 35.5256C184.845 33.9957 185.939 32.8034 187.348 31.9487C188.766 31.094 190.429 30.6667 192.337 30.6667C193.62 30.6667 194.814 30.8761 195.92 31.2949C197.034 31.7051 198.005 32.3248 198.832 33.1538C199.668 33.9829 200.318 35.0256 200.782 36.282C201.246 37.5299 201.478 38.9915 201.478 40.6667V42.1667H185.056V38.782H196.401C196.401 37.9957 196.232 37.2991 195.895 36.6923C195.557 36.0855 195.088 35.6111 194.489 35.2692C193.898 34.9188 193.21 34.7436 192.425 34.7436C191.607 34.7436 190.881 34.9359 190.248 35.3205C189.623 35.6966 189.133 36.2051 188.779 36.8461C188.424 37.4786 188.243 38.1838 188.234 38.9615V42.1795C188.234 43.1538 188.412 43.9957 188.766 44.7051C189.129 45.4145 189.64 45.9615 190.298 46.3462C190.957 46.7308 191.737 46.9231 192.641 46.9231C193.24 46.9231 193.789 46.8376 194.287 46.6667C194.785 46.4957 195.211 46.2393 195.565 45.8974C195.92 45.5556 196.19 45.1368 196.376 44.641L201.364 44.9744C201.111 46.188 200.592 47.2479 199.807 48.1538C199.03 49.0513 198.026 49.7521 196.793 50.2564C195.57 50.7521 194.156 51 192.552 51Z" fill="white"/>
	<path d="M208.36 50.6154V24.359H225.529V28.9359H213.842V35.1923H224.389V39.7692H213.842V50.6154H208.36Z" fill="white"/>
	<path d="M237.872 42.2308V30.9231H243.265V50.6154H238.087V47.0385H237.884C237.445 48.1923 236.715 49.1197 235.694 49.8205C234.681 50.5214 233.445 50.8718 231.984 50.8718C230.684 50.8718 229.541 50.5727 228.553 49.9744C227.565 49.3761 226.793 48.5256 226.236 47.4231C225.687 46.3205 225.409 45 225.4 43.4615V30.9231H230.794V42.4872C230.803 43.6496 231.111 44.5684 231.718 45.2436C232.326 45.9188 233.141 46.2564 234.162 46.2564C234.812 46.2564 235.42 46.1068 235.985 45.8077C236.551 45.5 237.007 45.047 237.353 44.4487C237.707 43.8504 237.88 43.1111 237.872 42.2308Z" fill="white"/>
	<path d="M250.478 39.2308V50.6154H245.084V30.9231H250.225V34.3974H250.452C250.883 33.2521 251.605 32.3462 252.618 31.6795C253.63 31.0043 254.859 30.6667 256.302 30.6667C257.652 30.6667 258.83 30.9658 259.834 31.5641C260.839 32.1624 261.62 33.0171 262.177 34.1282C262.734 35.2308 263.012 36.547 263.012 38.0769V50.6154H257.619V39.0513C257.627 37.8462 257.323 36.906 256.707 36.2308C256.091 35.547 255.243 35.2051 254.162 35.2051C253.436 35.2051 252.795 35.3632 252.238 35.6795C251.689 35.9957 251.259 36.4573 250.946 37.0641C250.642 37.6624 250.486 38.3846 250.478 39.2308Z" fill="white"/>
	<path d="M271.934 50.9359C270.457 50.9359 269.119 50.5513 267.92 49.782C266.73 49.0043 265.785 47.8632 265.084 46.359C264.392 44.8462 264.046 42.9914 264.046 40.7949C264.046 38.5385 264.405 36.6624 265.122 35.1667C265.84 33.6624 266.794 32.5385 267.984 31.7949C269.182 31.0427 270.495 30.6667 271.921 30.6667C273.01 30.6667 273.918 30.8547 274.644 31.2308C275.378 31.5983 275.969 32.0598 276.416 32.6154C276.872 33.1624 277.218 33.7009 277.454 34.2308H277.619V24.359H283V50.6154H277.682V47.4615H277.454C277.201 48.0086 276.842 48.5513 276.378 49.0897C275.922 49.6197 275.327 50.0598 274.593 50.4103C273.867 50.7607 272.981 50.9359 271.934 50.9359ZM273.643 46.5897C274.513 46.5897 275.247 46.3504 275.846 45.8718C276.454 45.3846 276.918 44.7051 277.239 43.8333C277.568 42.9615 277.733 41.9402 277.733 40.7692C277.733 39.5983 277.573 38.5812 277.252 37.7179C276.931 36.8547 276.467 36.188 275.859 35.7179C275.251 35.2479 274.513 35.0128 273.643 35.0128C272.757 35.0128 272.01 35.2564 271.402 35.7436C270.794 36.2308 270.334 36.906 270.022 37.7692C269.71 38.6325 269.554 39.6325 269.554 40.7692C269.554 41.9145 269.71 42.9274 270.022 43.8077C270.343 44.6795 270.803 45.3632 271.402 45.859C272.01 46.3462 272.757 46.5897 273.643 46.5897Z" fill="white"/>
</svg>
