<svg width="18" height="22" viewBox="0 0 18 22" fill="none" xmlns="http://www.w3.org/2000/svg">
	<path d="M7.59375 1.00002C7.59375 0.623466 7.36844 0.283447 7.02167 0.136672C6.67489 -0.0101031 6.27395 0.0648533 6.00361 0.326992L0.847363 5.32699C0.665273 5.50357 0.5625 5.74638 0.5625 6.00002C0.5625 6.25367 0.665273 6.49648 0.847363 6.67306L6.00361 11.6731C6.27395 11.9352 6.67489 12.0101 7.02167 11.8634C7.36844 11.7166 7.59375 11.3766 7.59375 11V6.93753L16.5 6.93752C17.0178 6.93752 17.4375 6.51779 17.4375 6.00002C17.4375 5.48226 17.0178 5.06252 16.5 5.06252L7.59375 5.06252V1.00002Z" fill="#7EE3B3"/>
	<path opacity="0.5" d="M10.4062 11C10.4062 10.6235 10.6316 10.2834 10.9783 10.1367C11.3251 9.9899 11.7261 10.0649 11.9964 10.327L17.1526 15.327C17.3347 15.5036 17.4375 15.7464 17.4375 16C17.4375 16.2537 17.3347 16.4965 17.1526 16.6731L11.9964 21.6731C11.7261 21.9352 11.3251 22.0101 10.9783 21.8634C10.6316 21.7166 10.4063 21.3766 10.4063 21V16.9375H1.5C0.982234 16.9375 0.5625 16.5178 0.5625 16C0.5625 15.4823 0.982234 15.0625 1.5 15.0625L10.4062 15.0625L10.4062 11Z" fill="#7EE3B3"/>
</svg>
