<svg width="40" height="40" viewBox="0 0 40 40" fill="none" xmlns="http://www.w3.org/2000/svg">
	<circle cx="20" cy="20" r="20" transform="rotate(-90 20 20)" fill="#393D49"/>
	<path d="M20 -8.74228e-07C23.5622 -1.02994e-06 27.0598 0.951405 30.1311 2.75586C33.2025 4.56032 35.7362 7.15235 37.4703 10.264C39.2043 13.3756 40.0759 16.8939 39.9948 20.4552C39.9137 24.0165 38.883 27.4915 37.0091 30.521C35.1352 33.5505 32.4862 36.0245 29.3359 37.6873C26.1856 39.3501 22.6483 40.1414 19.0898 39.9793C15.5313 39.8172 12.0807 38.7076 9.0946 36.7652C6.10854 34.8228 3.69544 32.1182 2.10476 28.9309L20 20L20 -8.74228e-07Z" fill="white"/>
	<circle cx="20" cy="20" r="15" fill="#272A32"/>
</svg>
