<svg width="73" height="34" viewBox="0 0 73 34" fill="none" xmlns="http://www.w3.org/2000/svg">
	<rect width="34" height="34" rx="17" fill="#393D49"/>
	<path d="M11.841 11.0506C11.6813 11.2136 11.5889 11.4674 11.5889 11.7961V23.5188C11.5889 23.8475 11.6813 24.1013 11.841 24.2643L11.8804 24.3L18.6179 17.7337V17.5786L11.8804 11.0122L11.841 11.0506Z" fill="white"/>
	<path d="M21.676 19.9229L19.4326 17.7329V17.5779L21.6787 15.388L21.729 15.4165L24.3889 16.8921C25.148 17.3109 25.148 18 24.3889 18.4214L21.729 19.8944L21.676 19.9229Z" fill="white"/>
	<path d="M21.3223 20.3025L19.0259 18.0636L12.249 24.6718C12.5012 24.9302 12.9123 24.9613 13.3799 24.7029L21.3223 20.3025Z" fill="white"/>
	<path d="M21.3223 15.0086L13.3799 10.6083C12.9123 10.3525 12.5012 10.3837 12.249 10.6421L19.0259 17.2476L21.3223 15.0086Z" fill="white"/>
	<rect x="39" width="34" height="34" rx="17" fill="#393D49"/>
	<path d="M60.1229 17.0346C60.106 15.209 61.656 14.3209 61.7268 14.2796C60.849 13.0318 59.4885 12.8613 59.0104 12.8477C57.8677 12.7304 56.7593 13.5143 56.1772 13.5143C55.5835 13.5143 54.6871 12.859 53.721 12.8783C52.4778 12.897 51.3148 13.5987 50.6769 14.6885C49.3605 16.9105 50.3423 20.1759 51.6035 21.972C52.2344 22.8516 52.9716 23.8338 53.9365 23.7992C54.8805 23.7613 55.2332 23.2124 56.3724 23.2124C57.5011 23.2124 57.8323 23.7992 58.8164 23.7771C59.8295 23.7613 60.4674 22.8935 61.0762 22.006C61.8053 20.9977 62.098 20.0048 62.1097 19.9539C62.0858 19.9459 60.142 19.2226 60.1229 17.0346Z" fill="white"/>
	<path d="M58.2639 11.6661C58.7716 11.0471 59.119 10.2048 59.0226 9.3501C58.2877 9.38182 57.3687 9.84571 56.8394 10.4512C56.3712 10.9848 55.9529 11.8593 56.061 12.6817C56.8865 12.7418 57.7341 12.2756 58.2639 11.6661Z" fill="white"/>
</svg>
