<svg width="422" height="71" viewBox="0 0 422 71" fill="none" xmlns="http://www.w3.org/2000/svg">
<path d="M30.974 14.838L32.918 14.226C32.846 13.866 32.72 13.488 32.522 13.11C32.324 12.732 32.054 12.372 31.694 12.048C31.352 11.742 30.902 11.472 30.38 11.274C29.858 11.076 29.21 10.968 28.454 10.968C27.86 10.968 27.284 11.076 26.762 11.274C26.24 11.472 25.79 11.76 25.394 12.102C24.998 12.462 24.692 12.876 24.458 13.344C24.224 13.83 24.116 14.334 24.116 14.874C24.116 15.828 24.404 16.62 24.998 17.232C25.592 17.844 26.384 18.258 27.356 18.456L29.156 18.834C29.714 18.96 30.128 19.158 30.416 19.464C30.722 19.77 30.866 20.148 30.866 20.562C30.866 21.066 30.668 21.48 30.272 21.822C29.894 22.164 29.318 22.326 28.544 22.326C28.094 22.326 27.68 22.254 27.338 22.11C26.996 21.966 26.69 21.768 26.438 21.534C26.204 21.3 26.006 21.03 25.88 20.724C25.754 20.418 25.664 20.112 25.628 19.77L23.612 20.346C23.666 20.796 23.792 21.264 24.008 21.732C24.224 22.2 24.53 22.614 24.926 22.992C25.34 23.37 25.826 23.676 26.42 23.91C27.014 24.162 27.734 24.27 28.544 24.27C29.282 24.27 29.912 24.162 30.47 23.946C31.028 23.73 31.514 23.442 31.892 23.082C32.27 22.722 32.558 22.308 32.756 21.84C32.954 21.372 33.062 20.886 33.062 20.4C33.062 19.5 32.774 18.726 32.18 18.06C31.586 17.394 30.74 16.962 29.606 16.728L27.77 16.35C27.266 16.242 26.888 16.044 26.636 15.756C26.402 15.468 26.276 15.126 26.276 14.712C26.276 14.478 26.33 14.244 26.438 14.01C26.546 13.794 26.69 13.596 26.888 13.434C27.086 13.272 27.302 13.128 27.572 13.038C27.842 12.93 28.148 12.876 28.472 12.876C28.904 12.876 29.264 12.948 29.57 13.074C29.876 13.2 30.11 13.362 30.308 13.56C30.506 13.758 30.668 13.974 30.758 14.208C30.866 14.442 30.938 14.64 30.974 14.838ZM37.1272 15.234V12.552H35.2372V13.866C35.2372 14.244 35.1292 14.568 34.9132 14.838C34.6972 15.108 34.3552 15.234 33.8872 15.234H33.4372V17.088H35.0572V21.498C35.0572 22.326 35.2912 22.974 35.7592 23.424C36.2272 23.874 36.8752 24.108 37.6852 24.108C38.0632 24.108 38.3692 24.09 38.5672 24.036C38.7652 23.964 38.9092 23.928 38.9632 23.91V22.182C38.9092 22.2 38.8192 22.2 38.6752 22.218C38.5312 22.236 38.3872 22.254 38.2432 22.254C37.8652 22.254 37.5772 22.164 37.3972 21.984C37.2172 21.822 37.1272 21.534 37.1272 21.156V17.088H38.9452V15.234H37.1272ZM45.5374 17.304V15.18C45.4834 15.162 45.4114 15.162 45.3214 15.144C45.2314 15.126 45.1054 15.126 44.9794 15.126C44.4034 15.126 43.8814 15.252 43.4314 15.522C42.9814 15.792 42.6394 16.152 42.4414 16.638V15.234H40.4074V24H42.4954V19.824C42.4954 18.996 42.6934 18.366 43.0714 17.916C43.4494 17.466 44.0434 17.25 44.8534 17.25C45.0694 17.25 45.3034 17.268 45.5374 17.304ZM50.5075 22.398C50.1835 22.398 49.8775 22.344 49.5895 22.218C49.2835 22.092 49.0315 21.912 48.8155 21.678C48.5815 21.444 48.4015 21.156 48.2755 20.814C48.1315 20.472 48.0595 20.058 48.0595 19.608C48.0595 19.158 48.1315 18.762 48.2755 18.42C48.4015 18.078 48.5815 17.79 48.8155 17.556C49.0315 17.322 49.2835 17.142 49.5895 17.034C49.8775 16.908 50.1835 16.854 50.5075 16.854C50.8315 16.854 51.1375 16.908 51.4435 17.034C51.7315 17.142 51.9835 17.322 52.2175 17.556C52.4515 17.79 52.6315 18.078 52.7575 18.42C52.8835 18.762 52.9555 19.158 52.9555 19.608C52.9555 20.058 52.8835 20.472 52.7575 20.814C52.6315 21.156 52.4515 21.444 52.2175 21.678C51.9835 21.912 51.7315 22.092 51.4435 22.218C51.1375 22.344 50.8315 22.398 50.5075 22.398ZM50.5075 14.964C49.8595 14.964 49.2655 15.072 48.7075 15.306C48.1495 15.54 47.6635 15.864 47.2675 16.278C46.8535 16.692 46.5475 17.196 46.3135 17.754C46.0795 18.312 45.9715 18.942 45.9715 19.608C45.9715 20.274 46.0795 20.904 46.3135 21.462C46.5475 22.038 46.8535 22.524 47.2675 22.938C47.6635 23.352 48.1495 23.676 48.7075 23.91C49.2655 24.144 49.8595 24.27 50.5075 24.27C51.1735 24.27 51.7675 24.144 52.3255 23.91C52.8835 23.676 53.3515 23.352 53.7655 22.938C54.1795 22.524 54.4855 22.038 54.7195 21.462C54.9535 20.904 55.0615 20.274 55.0615 19.608C55.0615 18.942 54.9535 18.312 54.7195 17.754C54.4855 17.196 54.1795 16.692 53.7655 16.278C53.3515 15.864 52.8835 15.54 52.3255 15.306C51.7675 15.072 51.1735 14.964 50.5075 14.964ZM58.642 24V18.942C58.642 18.366 58.804 17.88 59.11 17.466C59.416 17.07 59.866 16.872 60.46 16.872C61.126 16.872 61.594 17.052 61.864 17.43C62.134 17.808 62.26 18.276 62.26 18.816V24H64.348V18.456C64.348 17.97 64.276 17.52 64.15 17.106C64.024 16.692 63.826 16.314 63.574 15.99C63.304 15.684 62.98 15.432 62.584 15.252C62.188 15.072 61.72 14.982 61.18 14.982C60.694 14.982 60.208 15.09 59.74 15.306C59.254 15.54 58.876 15.9 58.588 16.404V15.234H56.554V24H58.642ZM67.6827 23.982L65.7567 24.486C65.8107 24.936 65.9547 25.35 66.1707 25.746C66.4047 26.124 66.6927 26.466 67.0527 26.754C67.4307 27.042 67.8447 27.276 68.3307 27.438C68.8167 27.6 69.3567 27.69 69.9327 27.69C70.7607 27.69 71.4627 27.564 72.0207 27.312C72.5967 27.06 73.0647 26.718 73.4067 26.304C73.7667 25.89 74.0187 25.404 74.1807 24.864C74.3427 24.324 74.4327 23.766 74.4327 23.172V15.234H72.4167V16.35C72.2187 15.99 71.9127 15.684 71.4807 15.45C71.0667 15.198 70.5087 15.072 69.8247 15.072C69.2307 15.072 68.6727 15.18 68.1687 15.414C67.6827 15.648 67.2507 15.954 66.8907 16.332C66.5487 16.71 66.2607 17.16 66.0627 17.682C65.8647 18.204 65.7747 18.744 65.7747 19.338C65.7747 19.95 65.8827 20.526 66.0807 21.048C66.2787 21.57 66.5667 22.02 66.9267 22.398C67.2867 22.776 67.7187 23.064 68.2047 23.28C68.6907 23.496 69.2307 23.604 69.8247 23.604C70.4727 23.604 71.0127 23.478 71.4267 23.226C71.8587 22.974 72.1647 22.668 72.3627 22.326V23.244C72.3627 24.99 71.5347 25.872 69.8787 25.872C69.2667 25.872 68.7627 25.692 68.3667 25.332C67.9887 24.972 67.7547 24.522 67.6827 23.982ZM70.1667 21.822C69.4827 21.822 68.9247 21.606 68.5107 21.156C68.0967 20.706 67.8807 20.112 67.8807 19.338C67.8807 18.582 68.0967 17.988 68.5107 17.538C68.9427 17.088 69.5007 16.872 70.1667 16.872C70.4907 16.872 70.7967 16.926 71.0667 17.052C71.3367 17.16 71.5707 17.322 71.7687 17.538C71.9667 17.754 72.1287 18.024 72.2367 18.33C72.3627 18.636 72.4167 18.96 72.4167 19.338C72.4167 20.094 72.2007 20.706 71.7867 21.156C71.3727 21.606 70.8327 21.822 70.1667 21.822ZM81.5052 21.12L79.6872 21.624C79.7052 21.876 79.7952 22.146 79.9392 22.452C80.0832 22.758 80.2992 23.046 80.5872 23.316C80.8752 23.586 81.2352 23.82 81.6852 24C82.1352 24.18 82.6752 24.27 83.3052 24.27C83.8632 24.27 84.3492 24.18 84.7632 24.018C85.1772 23.856 85.5372 23.622 85.8072 23.352C86.0772 23.082 86.2752 22.794 86.4192 22.452C86.5452 22.128 86.6172 21.804 86.6172 21.462C86.6172 20.814 86.4012 20.256 85.9872 19.77C85.5552 19.302 84.9252 18.978 84.0972 18.798L82.7652 18.528C82.4952 18.474 82.2792 18.366 82.1172 18.204C81.9552 18.042 81.8832 17.844 81.8832 17.61C81.8832 17.34 82.0092 17.088 82.2432 16.89C82.4772 16.692 82.7652 16.602 83.1432 16.602C83.4312 16.602 83.6832 16.638 83.8812 16.728C84.0792 16.818 84.2412 16.944 84.3672 17.07C84.4932 17.196 84.5832 17.34 84.6372 17.502C84.6912 17.664 84.7452 17.79 84.7632 17.916L86.5272 17.412C86.4912 17.196 86.4012 16.944 86.2752 16.674C86.1492 16.386 85.9692 16.116 85.6992 15.864C85.4292 15.612 85.0872 15.396 84.6732 15.234C84.2592 15.054 83.7552 14.964 83.1432 14.964C82.6932 14.964 82.2612 15.036 81.8652 15.198C81.4872 15.342 81.1452 15.54 80.8572 15.792C80.5692 16.062 80.3352 16.35 80.1732 16.692C80.0112 17.034 79.9212 17.412 79.9212 17.79C79.9212 18.402 80.1192 18.942 80.5152 19.392C80.9112 19.86 81.5052 20.184 82.2792 20.346L83.5752 20.634C83.9172 20.706 84.1872 20.832 84.3492 20.994C84.5112 21.156 84.6012 21.372 84.6012 21.606C84.6012 21.876 84.4932 22.11 84.2592 22.308C84.0432 22.506 83.7192 22.614 83.2872 22.614C82.7292 22.614 82.2972 22.47 81.9912 22.164C81.7032 21.858 81.5412 21.516 81.5052 21.12ZM94.0124 18.654H89.7104C89.7284 18.42 89.7824 18.186 89.8904 17.952C89.9984 17.718 90.1424 17.52 90.3224 17.322C90.5024 17.142 90.7184 16.998 90.9884 16.89C91.2404 16.764 91.5284 16.71 91.8524 16.71C92.2124 16.71 92.5184 16.764 92.7884 16.872C93.0584 16.98 93.2744 17.124 93.4544 17.304C93.6344 17.484 93.7784 17.7 93.8684 17.934C93.9584 18.168 93.9944 18.402 94.0124 18.654ZM96.0104 21.498L94.2464 20.94C94.1024 21.372 93.8684 21.732 93.5264 22.038C93.1844 22.326 92.6804 22.47 92.0504 22.47C91.7264 22.47 91.4204 22.416 91.1504 22.308C90.8624 22.182 90.6104 22.02 90.3944 21.822C90.1784 21.624 89.9984 21.372 89.8724 21.102C89.7464 20.832 89.6744 20.526 89.6564 20.184H96.0644C96.0824 20.166 96.0824 20.094 96.1004 19.968C96.1184 19.842 96.1184 19.68 96.1184 19.518C96.1184 18.816 96.0284 18.204 95.8304 17.646C95.6324 17.088 95.3624 16.602 95.0024 16.206C94.6244 15.81 94.1744 15.504 93.6524 15.288C93.1124 15.072 92.5004 14.964 91.8344 14.964C91.2764 14.964 90.7544 15.072 90.2324 15.306C89.7104 15.522 89.2604 15.828 88.8644 16.242C88.4684 16.638 88.1624 17.124 87.9284 17.682C87.6944 18.24 87.5684 18.87 87.5684 19.572C87.5684 20.31 87.6944 20.976 87.9464 21.552C88.1804 22.146 88.5044 22.632 88.9184 23.028C89.3324 23.442 89.8004 23.748 90.3404 23.946C90.8804 24.162 91.4564 24.27 92.0504 24.27C92.5724 24.27 93.0584 24.198 93.4904 24.054C93.9224 23.91 94.3004 23.712 94.6424 23.46C94.9844 23.208 95.2544 22.92 95.4884 22.578C95.7224 22.236 95.8844 21.876 96.0104 21.498ZM97.6059 24H99.6939V10.968H97.6059V24ZM101.742 24H103.83V10.968H101.742V24Z" fill="#2F3035"/>
<path d="M317.974 14.838L319.918 14.226C319.846 13.866 319.72 13.488 319.522 13.11C319.324 12.732 319.054 12.372 318.694 12.048C318.352 11.742 317.902 11.472 317.38 11.274C316.858 11.076 316.21 10.968 315.454 10.968C314.86 10.968 314.284 11.076 313.762 11.274C313.24 11.472 312.79 11.76 312.394 12.102C311.998 12.462 311.692 12.876 311.458 13.344C311.224 13.83 311.116 14.334 311.116 14.874C311.116 15.828 311.404 16.62 311.998 17.232C312.592 17.844 313.384 18.258 314.356 18.456L316.156 18.834C316.714 18.96 317.128 19.158 317.416 19.464C317.722 19.77 317.866 20.148 317.866 20.562C317.866 21.066 317.668 21.48 317.272 21.822C316.894 22.164 316.318 22.326 315.544 22.326C315.094 22.326 314.68 22.254 314.338 22.11C313.996 21.966 313.69 21.768 313.438 21.534C313.204 21.3 313.006 21.03 312.88 20.724C312.754 20.418 312.664 20.112 312.628 19.77L310.612 20.346C310.666 20.796 310.792 21.264 311.008 21.732C311.224 22.2 311.53 22.614 311.926 22.992C312.34 23.37 312.826 23.676 313.42 23.91C314.014 24.162 314.734 24.27 315.544 24.27C316.282 24.27 316.912 24.162 317.47 23.946C318.028 23.73 318.514 23.442 318.892 23.082C319.27 22.722 319.558 22.308 319.756 21.84C319.954 21.372 320.062 20.886 320.062 20.4C320.062 19.5 319.774 18.726 319.18 18.06C318.586 17.394 317.74 16.962 316.606 16.728L314.77 16.35C314.266 16.242 313.888 16.044 313.636 15.756C313.402 15.468 313.276 15.126 313.276 14.712C313.276 14.478 313.33 14.244 313.438 14.01C313.546 13.794 313.69 13.596 313.888 13.434C314.086 13.272 314.302 13.128 314.572 13.038C314.842 12.93 315.148 12.876 315.472 12.876C315.904 12.876 316.264 12.948 316.57 13.074C316.876 13.2 317.11 13.362 317.308 13.56C317.506 13.758 317.668 13.974 317.758 14.208C317.866 14.442 317.938 14.64 317.974 14.838ZM324.127 15.234V12.552H322.237V13.866C322.237 14.244 322.129 14.568 321.913 14.838C321.697 15.108 321.355 15.234 320.887 15.234H320.437V17.088H322.057V21.498C322.057 22.326 322.291 22.974 322.759 23.424C323.227 23.874 323.875 24.108 324.685 24.108C325.063 24.108 325.369 24.09 325.567 24.036C325.765 23.964 325.909 23.928 325.963 23.91V22.182C325.909 22.2 325.819 22.2 325.675 22.218C325.531 22.236 325.387 22.254 325.243 22.254C324.865 22.254 324.577 22.164 324.397 21.984C324.217 21.822 324.127 21.534 324.127 21.156V17.088H325.945V15.234H324.127ZM332.537 17.304V15.18C332.483 15.162 332.411 15.162 332.321 15.144C332.231 15.126 332.105 15.126 331.979 15.126C331.403 15.126 330.881 15.252 330.431 15.522C329.981 15.792 329.639 16.152 329.441 16.638V15.234H327.407V24H329.495V19.824C329.495 18.996 329.693 18.366 330.071 17.916C330.449 17.466 331.043 17.25 331.853 17.25C332.069 17.25 332.303 17.268 332.537 17.304ZM337.508 22.398C337.184 22.398 336.878 22.344 336.59 22.218C336.284 22.092 336.032 21.912 335.816 21.678C335.582 21.444 335.402 21.156 335.276 20.814C335.132 20.472 335.06 20.058 335.06 19.608C335.06 19.158 335.132 18.762 335.276 18.42C335.402 18.078 335.582 17.79 335.816 17.556C336.032 17.322 336.284 17.142 336.59 17.034C336.878 16.908 337.184 16.854 337.508 16.854C337.832 16.854 338.138 16.908 338.444 17.034C338.732 17.142 338.984 17.322 339.218 17.556C339.452 17.79 339.632 18.078 339.758 18.42C339.884 18.762 339.956 19.158 339.956 19.608C339.956 20.058 339.884 20.472 339.758 20.814C339.632 21.156 339.452 21.444 339.218 21.678C338.984 21.912 338.732 22.092 338.444 22.218C338.138 22.344 337.832 22.398 337.508 22.398ZM337.508 14.964C336.86 14.964 336.266 15.072 335.708 15.306C335.15 15.54 334.664 15.864 334.268 16.278C333.854 16.692 333.548 17.196 333.314 17.754C333.08 18.312 332.972 18.942 332.972 19.608C332.972 20.274 333.08 20.904 333.314 21.462C333.548 22.038 333.854 22.524 334.268 22.938C334.664 23.352 335.15 23.676 335.708 23.91C336.266 24.144 336.86 24.27 337.508 24.27C338.174 24.27 338.768 24.144 339.326 23.91C339.884 23.676 340.352 23.352 340.766 22.938C341.18 22.524 341.486 22.038 341.72 21.462C341.954 20.904 342.062 20.274 342.062 19.608C342.062 18.942 341.954 18.312 341.72 17.754C341.486 17.196 341.18 16.692 340.766 16.278C340.352 15.864 339.884 15.54 339.326 15.306C338.768 15.072 338.174 14.964 337.508 14.964ZM345.642 24V18.942C345.642 18.366 345.804 17.88 346.11 17.466C346.416 17.07 346.866 16.872 347.46 16.872C348.126 16.872 348.594 17.052 348.864 17.43C349.134 17.808 349.26 18.276 349.26 18.816V24H351.348V18.456C351.348 17.97 351.276 17.52 351.15 17.106C351.024 16.692 350.826 16.314 350.574 15.99C350.304 15.684 349.98 15.432 349.584 15.252C349.188 15.072 348.72 14.982 348.18 14.982C347.694 14.982 347.208 15.09 346.74 15.306C346.254 15.54 345.876 15.9 345.588 16.404V15.234H343.554V24H345.642ZM354.683 23.982L352.757 24.486C352.811 24.936 352.955 25.35 353.171 25.746C353.405 26.124 353.693 26.466 354.053 26.754C354.431 27.042 354.845 27.276 355.331 27.438C355.817 27.6 356.357 27.69 356.933 27.69C357.761 27.69 358.463 27.564 359.021 27.312C359.597 27.06 360.065 26.718 360.407 26.304C360.767 25.89 361.019 25.404 361.181 24.864C361.343 24.324 361.433 23.766 361.433 23.172V15.234H359.417V16.35C359.219 15.99 358.913 15.684 358.481 15.45C358.067 15.198 357.509 15.072 356.825 15.072C356.231 15.072 355.673 15.18 355.169 15.414C354.683 15.648 354.251 15.954 353.891 16.332C353.549 16.71 353.261 17.16 353.063 17.682C352.865 18.204 352.775 18.744 352.775 19.338C352.775 19.95 352.883 20.526 353.081 21.048C353.279 21.57 353.567 22.02 353.927 22.398C354.287 22.776 354.719 23.064 355.205 23.28C355.691 23.496 356.231 23.604 356.825 23.604C357.473 23.604 358.013 23.478 358.427 23.226C358.859 22.974 359.165 22.668 359.363 22.326V23.244C359.363 24.99 358.535 25.872 356.879 25.872C356.267 25.872 355.763 25.692 355.367 25.332C354.989 24.972 354.755 24.522 354.683 23.982ZM357.167 21.822C356.483 21.822 355.925 21.606 355.511 21.156C355.097 20.706 354.881 20.112 354.881 19.338C354.881 18.582 355.097 17.988 355.511 17.538C355.943 17.088 356.501 16.872 357.167 16.872C357.491 16.872 357.797 16.926 358.067 17.052C358.337 17.16 358.571 17.322 358.769 17.538C358.967 17.754 359.129 18.024 359.237 18.33C359.363 18.636 359.417 18.96 359.417 19.338C359.417 20.094 359.201 20.706 358.787 21.156C358.373 21.606 357.833 21.822 357.167 21.822ZM367.299 24H369.333V22.83C369.585 23.244 369.945 23.586 370.413 23.838C370.863 24.09 371.403 24.216 372.033 24.216C372.663 24.216 373.239 24.108 373.761 23.856C374.265 23.622 374.697 23.298 375.057 22.884C375.399 22.47 375.669 21.984 375.867 21.408C376.065 20.85 376.155 20.238 376.155 19.572C376.155 18.924 376.065 18.33 375.903 17.772C375.723 17.214 375.471 16.728 375.129 16.314C374.787 15.9 374.355 15.576 373.851 15.342C373.347 15.108 372.771 15 372.105 15C371.421 15 370.845 15.126 370.377 15.396C369.891 15.666 369.549 15.972 369.351 16.314V10.968H367.299V24ZM374.049 19.59C374.049 20.454 373.833 21.138 373.383 21.624C372.933 22.11 372.375 22.362 371.691 22.362C371.349 22.362 371.043 22.29 370.755 22.164C370.467 22.038 370.215 21.858 370.017 21.624C369.801 21.39 369.639 21.084 369.513 20.742C369.387 20.4 369.333 20.022 369.333 19.59C369.333 18.708 369.567 18.042 370.017 17.556C370.467 17.088 371.025 16.854 371.691 16.854C372.393 16.854 372.951 17.088 373.401 17.556C373.833 18.042 374.049 18.708 374.049 19.59ZM383.381 23.028C383.381 23.208 383.381 23.388 383.399 23.568C383.417 23.766 383.435 23.91 383.453 24H385.451C385.433 23.838 385.415 23.604 385.397 23.334C385.379 23.064 385.361 22.758 385.361 22.398V15.234H383.273V20.418C383.273 20.994 383.129 21.462 382.823 21.822C382.517 22.2 382.049 22.38 381.437 22.38C381.131 22.38 380.861 22.326 380.645 22.218C380.411 22.11 380.231 21.966 380.087 21.786C379.943 21.606 379.835 21.39 379.781 21.156C379.709 20.922 379.673 20.652 379.673 20.382V15.234H377.585V20.76C377.585 21.246 377.657 21.714 377.819 22.128C377.963 22.542 378.179 22.92 378.467 23.226C378.737 23.55 379.079 23.802 379.493 23.982C379.907 24.162 380.375 24.252 380.897 24.252C381.419 24.252 381.905 24.144 382.373 23.928C382.823 23.73 383.165 23.424 383.381 23.028ZM388.03 27.546H390.262L395.842 15.234H393.628L391.27 20.778L388.75 15.234H386.392L390.136 22.956L388.03 27.546Z" fill="#2F3035"/>
<circle cx="6.5" cy="18.5" r="6.5" fill="#FF6464"/>
<circle cx="415.5" cy="18.5" r="6.5" fill="#28D180"/>
<path d="M0 66C0 63.2386 2.23858 61 5 61H58V71H5C2.23858 71 0 68.7614 0 66V66Z" fill="#EEEFF2"/>
<rect x="60" y="61" width="59" height="10" fill="#EEEFF2"/>
<rect x="121" y="61" width="58" height="10" fill="#EEEFF2"/>
<rect x="181" y="61" width="62" height="10" fill="#EEEFF2"/>
<rect x="303" y="61" width="59" height="10" fill="#EEEFF2"/>
<path d="M303 61H336C338.761 61 341 63.2386 341 66V66C341 68.7614 338.761 71 336 71H303V61Z" fill="#28D180"/>
<rect x="211" y="61" width="90" height="10" fill="#28D180"/>
<path d="M422 66C422 68.7614 419.761 71 417 71L364 71L364 61L417 61C419.761 61 422 63.2386 422 66V66Z" fill="#EEEFF2"/>
<circle cx="211" cy="66" r="5" fill="black"/>
<path d="M188.638 19.378V22.634H196.052V26H199.066V22.634H201.64V19.972H199.066V10.402H195.216L188.638 19.378ZM196.052 13.504V19.972H191.344L196.052 13.504ZM214.168 13.306L215.026 10.842C214.696 10.622 214.234 10.446 213.662 10.292C213.09 10.138 212.452 10.072 211.726 10.072C210.494 10.072 209.35 10.27 208.316 10.688C207.282 11.106 206.38 11.722 205.632 12.492C204.884 13.284 204.312 14.23 203.894 15.352C203.476 16.474 203.256 17.75 203.256 19.158C203.256 20.368 203.432 21.402 203.762 22.304C204.092 23.206 204.554 23.954 205.126 24.548C205.698 25.142 206.358 25.604 207.128 25.89C207.876 26.176 208.668 26.33 209.504 26.33C210.34 26.33 211.132 26.198 211.858 25.934C212.584 25.692 213.2 25.318 213.75 24.834C214.278 24.372 214.696 23.8 215.004 23.118C215.312 22.458 215.466 21.71 215.466 20.896C215.466 20.104 215.334 19.378 215.092 18.74C214.828 18.102 214.476 17.552 214.014 17.09C213.552 16.628 212.98 16.276 212.342 16.034C211.682 15.792 210.956 15.682 210.186 15.682C209.196 15.682 208.382 15.858 207.722 16.232C207.062 16.606 206.578 17.024 206.292 17.508C206.358 16.782 206.556 16.1 206.842 15.506C207.128 14.912 207.48 14.406 207.942 13.988C208.404 13.57 208.932 13.262 209.548 13.042C210.142 12.822 210.824 12.712 211.55 12.712C212.056 12.712 212.54 12.778 213.002 12.888C213.442 13.02 213.838 13.152 214.168 13.306ZM206.6 20.984C206.6 20.544 206.666 20.148 206.82 19.818C206.974 19.466 207.194 19.18 207.458 18.938C207.722 18.696 208.03 18.498 208.382 18.366C208.734 18.234 209.108 18.168 209.504 18.168C209.9 18.168 210.274 18.234 210.626 18.366C210.978 18.498 211.286 18.696 211.55 18.938C211.814 19.18 212.034 19.466 212.188 19.818C212.342 20.148 212.43 20.544 212.43 20.984C212.43 21.402 212.342 21.798 212.188 22.15C212.034 22.48 211.836 22.788 211.55 23.03C211.286 23.272 210.978 23.448 210.626 23.58C210.274 23.69 209.9 23.756 209.504 23.756C209.13 23.756 208.756 23.69 208.404 23.558C208.052 23.426 207.744 23.25 207.48 23.008C207.216 22.766 206.996 22.458 206.842 22.128C206.688 21.798 206.6 21.402 206.6 20.984ZM219.286 26H221.882L231.914 10.402H229.318L219.286 26ZM224.302 13.746C224.302 13.24 224.214 12.778 224.016 12.338C223.818 11.898 223.554 11.524 223.224 11.194C222.894 10.864 222.498 10.622 222.058 10.424C221.618 10.248 221.156 10.16 220.65 10.16C220.144 10.16 219.682 10.248 219.242 10.424C218.802 10.622 218.428 10.864 218.098 11.194C217.768 11.524 217.504 11.898 217.306 12.338C217.108 12.778 216.998 13.24 216.998 13.746C216.998 14.252 217.086 14.736 217.284 15.154C217.482 15.594 217.746 15.968 218.076 16.298C218.406 16.628 218.78 16.87 219.22 17.068C219.66 17.244 220.122 17.332 220.628 17.332C221.134 17.332 221.596 17.244 222.058 17.068C222.498 16.892 222.894 16.65 223.224 16.32C223.554 15.99 223.818 15.616 224.016 15.176C224.214 14.736 224.302 14.252 224.302 13.746ZM219.176 13.746C219.176 13.306 219.308 12.954 219.594 12.668C219.88 12.382 220.232 12.228 220.65 12.228C221.068 12.228 221.42 12.382 221.684 12.668C221.948 12.954 222.08 13.306 222.08 13.746C222.08 14.208 221.948 14.582 221.684 14.868C221.42 15.154 221.068 15.286 220.65 15.286C220.232 15.286 219.88 15.154 219.594 14.868C219.308 14.582 219.176 14.208 219.176 13.746ZM226.898 22.656C226.898 23.162 226.986 23.624 227.184 24.064C227.382 24.504 227.646 24.878 227.976 25.208C228.306 25.538 228.68 25.78 229.142 25.978C229.582 26.154 230.044 26.242 230.55 26.242C231.056 26.242 231.518 26.154 231.98 25.978C232.42 25.78 232.816 25.538 233.146 25.23C233.476 24.9 233.74 24.526 233.938 24.086C234.136 23.646 234.224 23.162 234.224 22.656C234.224 22.15 234.136 21.688 233.938 21.248C233.74 20.808 233.476 20.434 233.146 20.104C232.816 19.774 232.42 19.532 231.98 19.356C231.518 19.158 231.056 19.07 230.55 19.07C230.044 19.07 229.582 19.158 229.142 19.356C228.702 19.532 228.328 19.774 227.998 20.104C227.668 20.434 227.404 20.808 227.206 21.248C227.008 21.688 226.898 22.15 226.898 22.656ZM232.002 22.656C232.002 23.118 231.87 23.492 231.606 23.778C231.32 24.064 230.968 24.196 230.55 24.196C230.132 24.196 229.802 24.064 229.516 23.778C229.23 23.492 229.098 23.118 229.098 22.656C229.098 22.194 229.23 21.842 229.516 21.556C229.802 21.27 230.132 21.138 230.55 21.138C230.968 21.138 231.32 21.27 231.606 21.556C231.87 21.842 232.002 22.194 232.002 22.656Z" fill="#28D180"/>
<rect x="155.5" y="0.5" width="111" height="35" rx="7.5" stroke="#28D180"/>
</svg>
