<svg width="390" height="90" viewBox="0 0 390 90" fill="none" xmlns="http://www.w3.org/2000/svg">
<rect width="390" height="90" rx="10" fill="#F6F7F8"/>
<path d="M30.236 16.584H33.08V15.492H26.216V16.584H29.06V24H30.236V16.584ZM35.0863 23.172C34.8462 23.172 34.6183 23.124 34.4022 23.04C34.1862 22.956 33.9942 22.824 33.8262 22.644C33.6582 22.464 33.5262 22.248 33.4302 21.996C33.3342 21.744 33.2862 21.444 33.2862 21.108C33.2862 20.772 33.3342 20.472 33.4302 20.22C33.5262 19.968 33.6582 19.764 33.8262 19.584C33.9942 19.404 34.1862 19.272 34.4022 19.188C34.6183 19.104 34.8462 19.056 35.0863 19.056C35.3262 19.056 35.5543 19.104 35.7702 19.188C35.9862 19.272 36.1782 19.404 36.3462 19.584C36.5142 19.764 36.6463 19.968 36.7423 20.22C36.8383 20.472 36.8863 20.772 36.8863 21.108C36.8863 21.444 36.8383 21.744 36.7423 21.996C36.6463 22.248 36.5142 22.464 36.3462 22.644C36.1782 22.824 35.9862 22.956 35.7702 23.04C35.5543 23.124 35.3262 23.172 35.0863 23.172ZM35.0863 18.048C34.6542 18.048 34.2582 18.12 33.8982 18.276C33.5382 18.432 33.2262 18.648 32.9622 18.924C32.6982 19.2 32.4942 19.512 32.3502 19.884C32.2062 20.256 32.1342 20.664 32.1342 21.108C32.1342 21.552 32.2062 21.96 32.3502 22.332C32.4942 22.704 32.6982 23.028 32.9622 23.304C33.2262 23.58 33.5382 23.784 33.8982 23.94C34.2582 24.108 34.6542 24.18 35.0863 24.18C35.5182 24.18 35.9143 24.108 36.2743 23.94C36.6343 23.784 36.9463 23.58 37.2102 23.304C37.4743 23.028 37.6783 22.704 37.8222 22.332C37.9663 21.96 38.0382 21.552 38.0382 21.108C38.0382 20.664 37.9663 20.256 37.8222 19.884C37.6783 19.512 37.4743 19.2 37.2102 18.924C36.9463 18.648 36.6343 18.432 36.2743 18.276C35.9143 18.12 35.5182 18.048 35.0863 18.048ZM40.6574 18.228V16.404H39.6254V17.34C39.6254 17.592 39.5534 17.808 39.4214 17.976C39.2774 18.144 39.0494 18.228 38.7374 18.228H38.4254V19.248H39.5294V22.416C39.5294 22.944 39.6734 23.352 39.9614 23.628C40.2494 23.916 40.6454 24.06 41.1374 24.06C41.3294 24.06 41.4974 24.048 41.6294 24.024C41.7614 23.988 41.8574 23.964 41.9054 23.952V22.992C41.8574 23.004 41.7854 23.016 41.7014 23.028C41.6174 23.04 41.5334 23.04 41.4614 23.04C41.1614 23.04 40.9574 22.98 40.8374 22.848C40.7174 22.716 40.6574 22.512 40.6574 22.248V19.248H41.9054V18.228H40.6574ZM42.5616 22.452C42.5616 22.68 42.6096 22.908 42.7056 23.112C42.7896 23.316 42.9216 23.496 43.0896 23.652C43.2576 23.808 43.4616 23.94 43.7016 24.036C43.9296 24.132 44.1936 24.18 44.4936 24.18C44.7456 24.18 44.9856 24.144 45.1896 24.084C45.3936 24.024 45.5616 23.952 45.7176 23.856C45.8736 23.76 45.9936 23.652 46.1016 23.544C46.2096 23.436 46.2936 23.328 46.3536 23.22C46.3536 23.424 46.3656 23.592 46.3776 23.712C46.3896 23.832 46.4016 23.928 46.4136 24H47.5176C47.5056 23.928 47.4816 23.82 47.4696 23.664C47.4576 23.508 47.4456 23.304 47.4456 23.052V20.16C47.4456 19.884 47.3976 19.608 47.3136 19.356C47.2296 19.104 47.0856 18.876 46.8936 18.684C46.7016 18.492 46.4496 18.336 46.1496 18.216C45.8496 18.108 45.4776 18.048 45.0456 18.048C44.7336 18.048 44.4456 18.096 44.1696 18.18C43.8936 18.276 43.6416 18.408 43.4376 18.576C43.2336 18.732 43.0656 18.936 42.9336 19.164C42.8016 19.392 42.7176 19.644 42.6816 19.92L43.7616 20.172C43.7976 19.836 43.9296 19.56 44.1456 19.344C44.3616 19.116 44.6736 19.008 45.0696 19.008C45.5136 19.008 45.8256 19.116 46.0296 19.32C46.2216 19.524 46.3176 19.764 46.3176 20.04C46.3176 20.148 46.2936 20.232 46.2336 20.316C46.1736 20.4 46.0536 20.448 45.8736 20.472L44.3136 20.7C44.0616 20.736 43.8336 20.808 43.6176 20.892C43.4016 20.976 43.2216 21.096 43.0656 21.24C42.9096 21.384 42.7776 21.564 42.6936 21.768C42.6096 21.972 42.5616 22.2 42.5616 22.452ZM44.6496 23.232C44.3616 23.232 44.1336 23.148 43.9656 22.98C43.7976 22.8 43.7136 22.608 43.7136 22.392C43.7136 22.14 43.7976 21.936 43.9536 21.804C44.1096 21.66 44.3136 21.564 44.5536 21.528L46.3176 21.264V21.528C46.3176 21.84 46.2696 22.104 46.1856 22.332C46.1016 22.548 45.9816 22.728 45.8376 22.86C45.6816 22.992 45.5136 23.088 45.3096 23.148C45.1056 23.208 44.8776 23.232 44.6496 23.232ZM48.9268 24H50.0548V15.312H48.9268V24ZM54.3034 26.28H55.4194V23.22C55.5754 23.472 55.8154 23.7 56.1394 23.88C56.4634 24.06 56.8474 24.156 57.2914 24.156C57.7114 24.156 58.0954 24.072 58.4314 23.916C58.7554 23.76 59.0434 23.544 59.2714 23.268C59.4994 22.992 59.6794 22.68 59.7994 22.308C59.9194 21.936 59.9794 21.54 59.9794 21.108C59.9794 20.688 59.9194 20.304 59.8114 19.932C59.6914 19.56 59.5234 19.248 59.3074 18.972C59.0794 18.696 58.8034 18.48 58.4794 18.324C58.1434 18.168 57.7594 18.096 57.3274 18.096C56.8594 18.096 56.4514 18.192 56.1274 18.396C55.8034 18.6 55.5514 18.84 55.3954 19.128V18.228H54.3034V26.28ZM58.8274 21.108C58.8274 21.408 58.7914 21.672 58.7074 21.924C58.6234 22.176 58.5154 22.392 58.3714 22.572C58.2154 22.752 58.0354 22.896 57.8314 22.992C57.6274 23.1 57.3874 23.148 57.1234 23.148C56.8714 23.148 56.6314 23.1 56.4274 22.992C56.2114 22.896 56.0314 22.752 55.8754 22.572C55.7194 22.392 55.6114 22.176 55.5274 21.924C55.4434 21.672 55.4074 21.408 55.4074 21.108C55.4074 20.82 55.4434 20.556 55.5274 20.304C55.6114 20.064 55.7194 19.848 55.8754 19.668C56.0314 19.488 56.2114 19.356 56.4274 19.248C56.6314 19.14 56.8714 19.092 57.1234 19.092C57.3874 19.092 57.6274 19.14 57.8434 19.248C58.0474 19.356 58.2274 19.488 58.3714 19.668C58.5154 19.848 58.6234 20.064 58.7074 20.304C58.7914 20.556 58.8274 20.82 58.8274 21.108ZM64.3324 19.368V18.168C64.2964 18.156 64.2484 18.156 64.1764 18.144C64.1164 18.132 64.0444 18.132 63.9604 18.132C63.8164 18.132 63.6604 18.144 63.5044 18.18C63.3484 18.216 63.1924 18.264 63.0364 18.348C62.8804 18.432 62.7364 18.552 62.5924 18.684C62.4604 18.828 62.3404 19.008 62.2324 19.236V18.228H61.1284V24H62.2564V21.108C62.2564 20.472 62.4004 20.016 62.6884 19.74C62.9884 19.464 63.3724 19.332 63.8404 19.332C63.9964 19.332 64.1644 19.344 64.3324 19.368ZM69.0543 20.52H65.8983C65.9103 20.34 65.9463 20.16 66.0303 19.98C66.1143 19.8 66.2223 19.644 66.3543 19.5C66.4863 19.368 66.6423 19.248 66.8343 19.164C67.0143 19.08 67.2303 19.044 67.4703 19.044C67.9863 19.044 68.3703 19.188 68.6343 19.464C68.8983 19.752 69.0423 20.1 69.0543 20.52ZM70.1943 22.356L69.2223 22.02C69.1143 22.344 68.9343 22.62 68.6823 22.848C68.4303 23.076 68.0703 23.184 67.6023 23.184C67.3623 23.184 67.1343 23.136 66.9303 23.052C66.7143 22.968 66.5343 22.848 66.3783 22.692C66.2223 22.536 66.0903 22.356 66.0063 22.14C65.9223 21.924 65.8743 21.684 65.8623 21.432H70.2063C70.2183 21.396 70.2183 21.336 70.2303 21.276C70.2303 21.216 70.2303 21.144 70.2303 21.072C70.2303 20.628 70.1703 20.22 70.0503 19.848C69.9183 19.476 69.7383 19.152 69.5103 18.888C69.2823 18.624 68.9943 18.42 68.6463 18.276C68.2983 18.12 67.9023 18.048 67.4583 18.048C67.0983 18.048 66.7503 18.12 66.4143 18.276C66.0783 18.42 65.7903 18.624 65.5383 18.888C65.2863 19.164 65.0823 19.476 64.9263 19.848C64.7703 20.22 64.6983 20.64 64.6983 21.096C64.6983 21.588 64.7823 22.02 64.9383 22.404C65.0943 22.788 65.2983 23.112 65.5743 23.376C65.8383 23.64 66.1503 23.844 66.4983 23.976C66.8463 24.108 67.2183 24.18 67.6023 24.18C67.9383 24.18 68.2503 24.132 68.5263 24.036C68.8023 23.94 69.0543 23.808 69.2823 23.64C69.4983 23.484 69.6903 23.292 69.8463 23.064C70.0023 22.848 70.1103 22.608 70.1943 22.356ZM72.1128 21.096C72.1128 20.796 72.1488 20.532 72.2328 20.28C72.3168 20.028 72.4248 19.812 72.5808 19.632C72.7248 19.452 72.9048 19.32 73.1208 19.212C73.3248 19.116 73.5648 19.068 73.8168 19.068C74.3328 19.068 74.7408 19.248 75.0288 19.62C75.3288 19.992 75.4728 20.472 75.4728 21.072C75.4728 21.372 75.4368 21.648 75.3528 21.9C75.2808 22.152 75.1728 22.38 75.0288 22.56C74.8848 22.74 74.7048 22.884 74.5008 22.992C74.2968 23.1 74.0568 23.16 73.8048 23.16C73.5288 23.16 73.2888 23.112 73.0848 23.004C72.8808 22.896 72.7008 22.752 72.5568 22.572C72.4128 22.392 72.3048 22.164 72.2328 21.912C72.1488 21.66 72.1128 21.396 72.1128 21.096ZM75.4848 23.124V23.22C75.4848 23.4 75.4968 23.556 75.5088 23.688C75.5208 23.832 75.5328 23.94 75.5448 24H76.6368C76.6248 23.952 76.6128 23.832 76.6008 23.64C76.5888 23.448 76.5768 23.208 76.5768 22.932V15.312H75.4608V19.044C75.4128 18.924 75.3408 18.804 75.2448 18.684C75.1488 18.576 75.0288 18.468 74.8848 18.372C74.7408 18.288 74.5728 18.216 74.3808 18.156C74.1768 18.096 73.9488 18.072 73.6968 18.072C73.2888 18.072 72.9168 18.156 72.5808 18.312C72.2448 18.48 71.9568 18.696 71.7168 18.972C71.4768 19.248 71.2968 19.572 71.1648 19.932C71.0328 20.304 70.9608 20.688 70.9608 21.096C70.9608 21.528 71.0208 21.924 71.1528 22.296C71.2848 22.668 71.4648 22.992 71.7048 23.268C71.9328 23.544 72.2208 23.76 72.5568 23.916C72.8928 24.072 73.2768 24.156 73.6968 24.156C74.1528 24.156 74.5368 24.048 74.8368 23.844C75.1368 23.64 75.3528 23.4 75.4848 23.124ZM78.1112 24H79.2272V18.228H78.1112V24ZM77.8592 16.044C77.8592 16.272 77.9432 16.452 78.0992 16.608C78.2552 16.764 78.4352 16.848 78.6632 16.848C78.8912 16.848 79.0952 16.764 79.2512 16.608C79.4072 16.452 79.4792 16.272 79.4792 16.044C79.4792 15.816 79.4072 15.612 79.2512 15.456C79.0952 15.3 78.8912 15.228 78.6632 15.228C78.4352 15.228 78.2552 15.3 78.0992 15.456C77.9432 15.612 77.8592 15.816 77.8592 16.044ZM83.2726 19.092C83.5246 19.092 83.7286 19.128 83.9086 19.2C84.0886 19.284 84.2326 19.38 84.3646 19.488C84.4846 19.608 84.5806 19.74 84.6526 19.884C84.7246 20.028 84.7846 20.172 84.8206 20.316L85.8406 19.884C85.7806 19.668 85.6846 19.452 85.5526 19.224C85.4206 19.008 85.2526 18.816 85.0486 18.636C84.8326 18.456 84.5806 18.312 84.2926 18.204C83.9926 18.096 83.6566 18.048 83.2726 18.048C82.8646 18.048 82.4806 18.12 82.1326 18.276C81.7726 18.432 81.4606 18.636 81.1966 18.9C80.9446 19.176 80.7406 19.5 80.5846 19.872C80.4406 20.244 80.3686 20.664 80.3686 21.108C80.3686 21.552 80.4406 21.948 80.5846 22.32C80.7406 22.692 80.9446 23.016 81.1966 23.292C81.4486 23.568 81.7606 23.784 82.1086 23.94C82.4686 24.096 82.8646 24.18 83.2846 24.18C83.6566 24.18 83.9926 24.12 84.2806 24.012C84.5806 23.904 84.8326 23.772 85.0486 23.592C85.2646 23.412 85.4446 23.22 85.5766 23.004C85.7086 22.8 85.8166 22.584 85.8886 22.38L84.8926 21.948C84.8566 22.056 84.8086 22.188 84.7366 22.32C84.6646 22.464 84.5686 22.596 84.4366 22.716C84.3166 22.836 84.1606 22.932 83.9686 23.016C83.7886 23.1 83.5606 23.136 83.2846 23.136C83.0566 23.136 82.8286 23.088 82.6126 23.004C82.3966 22.92 82.2046 22.788 82.0486 22.608C81.8926 22.44 81.7606 22.224 81.6646 21.972C81.5686 21.72 81.5206 21.432 81.5206 21.108C81.5206 20.772 81.5686 20.472 81.6646 20.22C81.7606 19.968 81.8926 19.764 82.0486 19.596C82.2166 19.428 82.4086 19.296 82.6126 19.212C82.8166 19.128 83.0446 19.092 83.2726 19.092ZM88.4934 18.228V16.404H87.4614V17.34C87.4614 17.592 87.3894 17.808 87.2574 17.976C87.1134 18.144 86.8854 18.228 86.5734 18.228H86.2614V19.248H87.3654V22.416C87.3654 22.944 87.5094 23.352 87.7974 23.628C88.0854 23.916 88.4814 24.06 88.9734 24.06C89.1654 24.06 89.3334 24.048 89.4654 24.024C89.5974 23.988 89.6934 23.964 89.7414 23.952V22.992C89.6934 23.004 89.6214 23.016 89.5374 23.028C89.4534 23.04 89.3694 23.04 89.2974 23.04C88.9974 23.04 88.7934 22.98 88.6734 22.848C88.5534 22.716 88.4934 22.512 88.4934 22.248V19.248H89.7414V18.228H88.4934ZM90.7815 24H91.8975V18.228H90.7815V24ZM90.5295 16.044C90.5295 16.272 90.6135 16.452 90.7695 16.608C90.9255 16.764 91.1055 16.848 91.3335 16.848C91.5615 16.848 91.7655 16.764 91.9215 16.608C92.0775 16.452 92.1495 16.272 92.1495 16.044C92.1495 15.816 92.0775 15.612 91.9215 15.456C91.7655 15.3 91.5615 15.228 91.3335 15.228C91.1055 15.228 90.9255 15.3 90.7695 15.456C90.6135 15.612 90.5295 15.816 90.5295 16.044ZM95.9909 23.172C95.7509 23.172 95.5229 23.124 95.3069 23.04C95.0909 22.956 94.8989 22.824 94.7309 22.644C94.5629 22.464 94.4309 22.248 94.3349 21.996C94.2389 21.744 94.1909 21.444 94.1909 21.108C94.1909 20.772 94.2389 20.472 94.3349 20.22C94.4309 19.968 94.5629 19.764 94.7309 19.584C94.8989 19.404 95.0909 19.272 95.3069 19.188C95.5229 19.104 95.7509 19.056 95.9909 19.056C96.2309 19.056 96.4589 19.104 96.6749 19.188C96.8909 19.272 97.0829 19.404 97.2509 19.584C97.4189 19.764 97.5509 19.968 97.6469 20.22C97.7429 20.472 97.7909 20.772 97.7909 21.108C97.7909 21.444 97.7429 21.744 97.6469 21.996C97.5509 22.248 97.4189 22.464 97.2509 22.644C97.0829 22.824 96.8909 22.956 96.6749 23.04C96.4589 23.124 96.2309 23.172 95.9909 23.172ZM95.9909 18.048C95.5589 18.048 95.1629 18.12 94.8029 18.276C94.4429 18.432 94.1309 18.648 93.8669 18.924C93.6029 19.2 93.3989 19.512 93.2549 19.884C93.1109 20.256 93.0389 20.664 93.0389 21.108C93.0389 21.552 93.1109 21.96 93.2549 22.332C93.3989 22.704 93.6029 23.028 93.8669 23.304C94.1309 23.58 94.4429 23.784 94.8029 23.94C95.1629 24.108 95.5589 24.18 95.9909 24.18C96.4229 24.18 96.8189 24.108 97.1789 23.94C97.5389 23.784 97.8509 23.58 98.1149 23.304C98.3789 23.028 98.5829 22.704 98.7269 22.332C98.8709 21.96 98.9429 21.552 98.9429 21.108C98.9429 20.664 98.8709 20.256 98.7269 19.884C98.5829 19.512 98.3789 19.2 98.1149 18.924C97.8509 18.648 97.5389 18.432 97.1789 18.276C96.8189 18.12 96.4229 18.048 95.9909 18.048ZM101.212 24V20.664C101.212 20.448 101.236 20.244 101.296 20.052C101.356 19.86 101.44 19.692 101.548 19.548C101.656 19.404 101.8 19.284 101.968 19.2C102.136 19.116 102.328 19.08 102.556 19.08C102.808 19.08 103.012 19.116 103.192 19.188C103.36 19.272 103.504 19.368 103.612 19.5C103.72 19.632 103.792 19.788 103.84 19.968C103.876 20.148 103.9 20.328 103.9 20.532V24H105.028V20.34C105.028 20.016 104.992 19.716 104.908 19.44C104.824 19.164 104.692 18.924 104.524 18.72C104.344 18.516 104.128 18.348 103.876 18.24C103.612 18.12 103.312 18.06 102.964 18.06C102.628 18.06 102.304 18.132 101.98 18.288C101.656 18.444 101.392 18.696 101.188 19.056V18.228H100.084V24H101.212ZM107.051 22.14L106.031 22.5C106.055 22.668 106.115 22.848 106.223 23.04C106.319 23.244 106.463 23.424 106.655 23.592C106.835 23.76 107.075 23.904 107.363 24.012C107.639 24.12 107.987 24.18 108.383 24.18C108.743 24.18 109.055 24.132 109.319 24.024C109.583 23.904 109.799 23.772 109.979 23.592C110.147 23.412 110.279 23.22 110.363 23.016C110.447 22.812 110.495 22.596 110.495 22.392C110.495 21.96 110.363 21.6 110.099 21.3C109.823 21 109.427 20.784 108.899 20.676L107.963 20.472C107.519 20.376 107.303 20.148 107.303 19.776C107.303 19.572 107.387 19.404 107.567 19.248C107.747 19.092 107.975 19.008 108.263 19.008C108.491 19.008 108.671 19.044 108.827 19.116C108.983 19.188 109.103 19.272 109.187 19.38C109.271 19.476 109.343 19.584 109.379 19.692C109.415 19.8 109.451 19.896 109.463 19.968L110.459 19.596C110.423 19.464 110.363 19.32 110.279 19.14C110.195 18.96 110.075 18.792 109.907 18.624C109.739 18.468 109.523 18.324 109.247 18.216C108.983 18.108 108.659 18.048 108.263 18.048C107.987 18.048 107.711 18.096 107.459 18.192C107.207 18.288 106.991 18.42 106.811 18.588C106.631 18.756 106.475 18.948 106.367 19.164C106.259 19.392 106.211 19.62 106.211 19.872C106.211 20.28 106.331 20.628 106.583 20.916C106.835 21.204 107.195 21.396 107.651 21.492L108.635 21.708C108.875 21.768 109.055 21.852 109.187 21.984C109.319 22.116 109.379 22.272 109.379 22.452C109.379 22.656 109.295 22.836 109.127 22.992C108.959 23.148 108.719 23.22 108.395 23.22C107.987 23.22 107.675 23.112 107.447 22.908C107.219 22.704 107.087 22.44 107.051 22.14ZM114.371 26.28H115.487V23.22C115.643 23.472 115.883 23.7 116.207 23.88C116.531 24.06 116.915 24.156 117.359 24.156C117.779 24.156 118.163 24.072 118.499 23.916C118.823 23.76 119.111 23.544 119.339 23.268C119.567 22.992 119.747 22.68 119.867 22.308C119.987 21.936 120.047 21.54 120.047 21.108C120.047 20.688 119.987 20.304 119.879 19.932C119.759 19.56 119.591 19.248 119.375 18.972C119.147 18.696 118.871 18.48 118.547 18.324C118.211 18.168 117.827 18.096 117.395 18.096C116.927 18.096 116.519 18.192 116.195 18.396C115.871 18.6 115.619 18.84 115.463 19.128V18.228H114.371V26.28ZM118.895 21.108C118.895 21.408 118.859 21.672 118.775 21.924C118.691 22.176 118.583 22.392 118.439 22.572C118.283 22.752 118.103 22.896 117.899 22.992C117.695 23.1 117.455 23.148 117.191 23.148C116.939 23.148 116.699 23.1 116.495 22.992C116.279 22.896 116.099 22.752 115.943 22.572C115.787 22.392 115.679 22.176 115.595 21.924C115.511 21.672 115.475 21.408 115.475 21.108C115.475 20.82 115.511 20.556 115.595 20.304C115.679 20.064 115.787 19.848 115.943 19.668C116.099 19.488 116.279 19.356 116.495 19.248C116.699 19.14 116.939 19.092 117.191 19.092C117.455 19.092 117.695 19.14 117.911 19.248C118.115 19.356 118.295 19.488 118.439 19.668C118.583 19.848 118.691 20.064 118.775 20.304C118.859 20.556 118.895 20.82 118.895 21.108ZM124.4 19.368V18.168C124.364 18.156 124.316 18.156 124.244 18.144C124.184 18.132 124.112 18.132 124.028 18.132C123.884 18.132 123.728 18.144 123.572 18.18C123.416 18.216 123.26 18.264 123.104 18.348C122.948 18.432 122.804 18.552 122.66 18.684C122.528 18.828 122.408 19.008 122.3 19.236V18.228H121.196V24H122.324V21.108C122.324 20.472 122.468 20.016 122.756 19.74C123.056 19.464 123.44 19.332 123.908 19.332C124.064 19.332 124.232 19.344 124.4 19.368ZM127.718 23.172C127.478 23.172 127.25 23.124 127.034 23.04C126.818 22.956 126.626 22.824 126.458 22.644C126.29 22.464 126.158 22.248 126.062 21.996C125.966 21.744 125.918 21.444 125.918 21.108C125.918 20.772 125.966 20.472 126.062 20.22C126.158 19.968 126.29 19.764 126.458 19.584C126.626 19.404 126.818 19.272 127.034 19.188C127.25 19.104 127.478 19.056 127.718 19.056C127.958 19.056 128.186 19.104 128.402 19.188C128.618 19.272 128.81 19.404 128.978 19.584C129.146 19.764 129.278 19.968 129.374 20.22C129.47 20.472 129.518 20.772 129.518 21.108C129.518 21.444 129.47 21.744 129.374 21.996C129.278 22.248 129.146 22.464 128.978 22.644C128.81 22.824 128.618 22.956 128.402 23.04C128.186 23.124 127.958 23.172 127.718 23.172ZM127.718 18.048C127.286 18.048 126.89 18.12 126.53 18.276C126.17 18.432 125.858 18.648 125.594 18.924C125.33 19.2 125.126 19.512 124.982 19.884C124.838 20.256 124.766 20.664 124.766 21.108C124.766 21.552 124.838 21.96 124.982 22.332C125.126 22.704 125.33 23.028 125.594 23.304C125.858 23.58 126.17 23.784 126.53 23.94C126.89 24.108 127.286 24.18 127.718 24.18C128.15 24.18 128.546 24.108 128.906 23.94C129.266 23.784 129.578 23.58 129.842 23.304C130.106 23.028 130.31 22.704 130.454 22.332C130.598 21.96 130.67 21.552 130.67 21.108C130.67 20.664 130.598 20.256 130.454 19.884C130.31 19.512 130.106 19.2 129.842 18.924C129.578 18.648 129.266 18.432 128.906 18.276C128.546 18.12 128.15 18.048 127.718 18.048ZM134.069 15.276C133.805 15.276 133.565 15.312 133.337 15.396C133.109 15.48 132.905 15.612 132.737 15.78C132.557 15.948 132.425 16.152 132.329 16.404C132.221 16.656 132.173 16.932 132.173 17.256V18.228H131.105V19.248H132.173V24H133.337V19.248H136.037V24H137.153V18.228H133.337V17.304C133.337 17.1 133.361 16.944 133.421 16.824C133.481 16.692 133.553 16.596 133.649 16.524C133.733 16.452 133.841 16.404 133.949 16.38C134.057 16.344 134.153 16.332 134.249 16.332C134.393 16.332 134.501 16.344 134.585 16.356C134.657 16.368 134.705 16.392 134.741 16.404V15.396C134.717 15.384 134.645 15.36 134.537 15.324C134.417 15.288 134.261 15.276 134.069 15.276ZM135.785 16.02C135.785 16.248 135.869 16.428 136.025 16.584C136.181 16.74 136.361 16.824 136.589 16.824C136.817 16.824 137.021 16.74 137.177 16.584C137.333 16.428 137.405 16.248 137.405 16.02C137.405 15.792 137.333 15.588 137.177 15.432C137.021 15.276 136.817 15.204 136.589 15.204C136.361 15.204 136.181 15.276 136.025 15.432C135.869 15.588 135.785 15.792 135.785 16.02ZM140.255 18.228V16.404H139.223V17.34C139.223 17.592 139.151 17.808 139.019 17.976C138.875 18.144 138.647 18.228 138.335 18.228H138.023V19.248H139.127V22.416C139.127 22.944 139.271 23.352 139.559 23.628C139.847 23.916 140.243 24.06 140.735 24.06C140.927 24.06 141.095 24.048 141.227 24.024C141.359 23.988 141.455 23.964 141.503 23.952V22.992C141.455 23.004 141.383 23.016 141.299 23.028C141.215 23.04 141.131 23.04 141.059 23.04C140.759 23.04 140.555 22.98 140.435 22.848C140.315 22.716 140.255 22.512 140.255 22.248V19.248H141.503V18.228H140.255ZM146.77 19.248H148.162V18.228H146.77V17.316C146.77 17.112 146.794 16.956 146.854 16.824C146.914 16.692 146.986 16.596 147.082 16.524C147.166 16.452 147.274 16.404 147.382 16.368C147.49 16.344 147.586 16.332 147.682 16.332C147.826 16.332 147.934 16.344 148.018 16.356C148.09 16.368 148.138 16.392 148.174 16.404V15.396C148.15 15.384 148.078 15.36 147.97 15.324C147.85 15.288 147.694 15.276 147.502 15.276C147.238 15.276 146.998 15.312 146.77 15.396C146.542 15.48 146.338 15.612 146.17 15.78C145.99 15.948 145.858 16.152 145.762 16.404C145.654 16.656 145.606 16.932 145.606 17.256V18.228H144.538V19.248H145.606V24H146.77V19.248ZM151.484 23.172C151.244 23.172 151.016 23.124 150.8 23.04C150.584 22.956 150.392 22.824 150.224 22.644C150.056 22.464 149.924 22.248 149.828 21.996C149.732 21.744 149.684 21.444 149.684 21.108C149.684 20.772 149.732 20.472 149.828 20.22C149.924 19.968 150.056 19.764 150.224 19.584C150.392 19.404 150.584 19.272 150.8 19.188C151.016 19.104 151.244 19.056 151.484 19.056C151.724 19.056 151.952 19.104 152.168 19.188C152.384 19.272 152.576 19.404 152.744 19.584C152.912 19.764 153.044 19.968 153.14 20.22C153.236 20.472 153.284 20.772 153.284 21.108C153.284 21.444 153.236 21.744 153.14 21.996C153.044 22.248 152.912 22.464 152.744 22.644C152.576 22.824 152.384 22.956 152.168 23.04C151.952 23.124 151.724 23.172 151.484 23.172ZM151.484 18.048C151.052 18.048 150.656 18.12 150.296 18.276C149.936 18.432 149.624 18.648 149.36 18.924C149.096 19.2 148.892 19.512 148.748 19.884C148.604 20.256 148.532 20.664 148.532 21.108C148.532 21.552 148.604 21.96 148.748 22.332C148.892 22.704 149.096 23.028 149.36 23.304C149.624 23.58 149.936 23.784 150.296 23.94C150.656 24.108 151.052 24.18 151.484 24.18C151.916 24.18 152.312 24.108 152.672 23.94C153.032 23.784 153.344 23.58 153.608 23.304C153.872 23.028 154.076 22.704 154.22 22.332C154.364 21.96 154.436 21.552 154.436 21.108C154.436 20.664 154.364 20.256 154.22 19.884C154.076 19.512 153.872 19.2 153.608 18.924C153.344 18.648 153.032 18.432 152.672 18.276C152.312 18.12 151.916 18.048 151.484 18.048ZM158.781 19.368V18.168C158.745 18.156 158.697 18.156 158.625 18.144C158.565 18.132 158.493 18.132 158.409 18.132C158.265 18.132 158.109 18.144 157.953 18.18C157.797 18.216 157.641 18.264 157.485 18.348C157.329 18.432 157.185 18.552 157.041 18.684C156.909 18.828 156.789 19.008 156.681 19.236V18.228H155.577V24H156.705V21.108C156.705 20.472 156.849 20.016 157.137 19.74C157.437 19.464 157.821 19.332 158.289 19.332C158.445 19.332 158.613 19.344 158.781 19.368ZM163.451 18.228V16.404H162.419V17.34C162.419 17.592 162.347 17.808 162.215 17.976C162.071 18.144 161.843 18.228 161.531 18.228H161.219V19.248H162.323V22.416C162.323 22.944 162.467 23.352 162.755 23.628C163.043 23.916 163.439 24.06 163.931 24.06C164.123 24.06 164.291 24.048 164.423 24.024C164.555 23.988 164.651 23.964 164.699 23.952V22.992C164.651 23.004 164.579 23.016 164.495 23.028C164.411 23.04 164.327 23.04 164.255 23.04C163.955 23.04 163.751 22.98 163.631 22.848C163.511 22.716 163.451 22.512 163.451 22.248V19.248H164.699V18.228H163.451ZM168.26 23.172C168.02 23.172 167.792 23.124 167.576 23.04C167.36 22.956 167.168 22.824 167 22.644C166.832 22.464 166.7 22.248 166.604 21.996C166.508 21.744 166.46 21.444 166.46 21.108C166.46 20.772 166.508 20.472 166.604 20.22C166.7 19.968 166.832 19.764 167 19.584C167.168 19.404 167.36 19.272 167.576 19.188C167.792 19.104 168.02 19.056 168.26 19.056C168.5 19.056 168.728 19.104 168.944 19.188C169.16 19.272 169.352 19.404 169.52 19.584C169.688 19.764 169.82 19.968 169.916 20.22C170.012 20.472 170.06 20.772 170.06 21.108C170.06 21.444 170.012 21.744 169.916 21.996C169.82 22.248 169.688 22.464 169.52 22.644C169.352 22.824 169.16 22.956 168.944 23.04C168.728 23.124 168.5 23.172 168.26 23.172ZM168.26 18.048C167.828 18.048 167.432 18.12 167.072 18.276C166.712 18.432 166.4 18.648 166.136 18.924C165.872 19.2 165.668 19.512 165.524 19.884C165.38 20.256 165.308 20.664 165.308 21.108C165.308 21.552 165.38 21.96 165.524 22.332C165.668 22.704 165.872 23.028 166.136 23.304C166.4 23.58 166.712 23.784 167.072 23.94C167.432 24.108 167.828 24.18 168.26 24.18C168.692 24.18 169.088 24.108 169.448 23.94C169.808 23.784 170.12 23.58 170.384 23.304C170.648 23.028 170.852 22.704 170.996 22.332C171.14 21.96 171.212 21.552 171.212 21.108C171.212 20.664 171.14 20.256 170.996 19.884C170.852 19.512 170.648 19.2 170.384 18.924C170.12 18.648 169.808 18.432 169.448 18.276C169.088 18.12 168.692 18.048 168.26 18.048ZM173.121 21.096C173.121 20.796 173.157 20.532 173.241 20.28C173.325 20.028 173.433 19.812 173.589 19.632C173.733 19.452 173.913 19.32 174.129 19.212C174.333 19.116 174.573 19.068 174.825 19.068C175.341 19.068 175.749 19.248 176.037 19.62C176.337 19.992 176.481 20.472 176.481 21.072C176.481 21.372 176.445 21.648 176.361 21.9C176.289 22.152 176.181 22.38 176.037 22.56C175.893 22.74 175.713 22.884 175.509 22.992C175.305 23.1 175.065 23.16 174.813 23.16C174.537 23.16 174.297 23.112 174.093 23.004C173.889 22.896 173.709 22.752 173.565 22.572C173.421 22.392 173.313 22.164 173.241 21.912C173.157 21.66 173.121 21.396 173.121 21.096ZM176.493 23.124V23.22C176.493 23.4 176.505 23.556 176.517 23.688C176.529 23.832 176.541 23.94 176.553 24H177.645C177.633 23.952 177.621 23.832 177.609 23.64C177.597 23.448 177.585 23.208 177.585 22.932V15.312H176.469V19.044C176.421 18.924 176.349 18.804 176.253 18.684C176.157 18.576 176.037 18.468 175.893 18.372C175.749 18.288 175.581 18.216 175.389 18.156C175.185 18.096 174.957 18.072 174.705 18.072C174.297 18.072 173.925 18.156 173.589 18.312C173.253 18.48 172.965 18.696 172.725 18.972C172.485 19.248 172.305 19.572 172.173 19.932C172.041 20.304 171.969 20.688 171.969 21.096C171.969 21.528 172.029 21.924 172.161 22.296C172.293 22.668 172.473 22.992 172.713 23.268C172.941 23.544 173.229 23.76 173.565 23.916C173.901 24.072 174.285 24.156 174.705 24.156C175.161 24.156 175.545 24.048 175.845 23.844C176.145 23.64 176.361 23.4 176.493 23.124ZM178.736 22.452C178.736 22.68 178.784 22.908 178.88 23.112C178.964 23.316 179.096 23.496 179.264 23.652C179.432 23.808 179.636 23.94 179.876 24.036C180.104 24.132 180.368 24.18 180.668 24.18C180.92 24.18 181.16 24.144 181.364 24.084C181.568 24.024 181.736 23.952 181.892 23.856C182.048 23.76 182.168 23.652 182.276 23.544C182.384 23.436 182.468 23.328 182.528 23.22C182.528 23.424 182.54 23.592 182.552 23.712C182.564 23.832 182.576 23.928 182.588 24H183.692C183.68 23.928 183.656 23.82 183.644 23.664C183.632 23.508 183.62 23.304 183.62 23.052V20.16C183.62 19.884 183.572 19.608 183.488 19.356C183.404 19.104 183.26 18.876 183.068 18.684C182.876 18.492 182.624 18.336 182.324 18.216C182.024 18.108 181.652 18.048 181.22 18.048C180.908 18.048 180.62 18.096 180.344 18.18C180.068 18.276 179.816 18.408 179.612 18.576C179.408 18.732 179.24 18.936 179.108 19.164C178.976 19.392 178.892 19.644 178.856 19.92L179.936 20.172C179.972 19.836 180.104 19.56 180.32 19.344C180.536 19.116 180.848 19.008 181.244 19.008C181.688 19.008 182 19.116 182.204 19.32C182.396 19.524 182.492 19.764 182.492 20.04C182.492 20.148 182.468 20.232 182.408 20.316C182.348 20.4 182.228 20.448 182.048 20.472L180.488 20.7C180.236 20.736 180.008 20.808 179.792 20.892C179.576 20.976 179.396 21.096 179.24 21.24C179.084 21.384 178.952 21.564 178.868 21.768C178.784 21.972 178.736 22.2 178.736 22.452ZM180.824 23.232C180.536 23.232 180.308 23.148 180.14 22.98C179.972 22.8 179.888 22.608 179.888 22.392C179.888 22.14 179.972 21.936 180.128 21.804C180.284 21.66 180.488 21.564 180.728 21.528L182.492 21.264V21.528C182.492 21.84 182.444 22.104 182.36 22.332C182.276 22.548 182.156 22.728 182.012 22.86C181.856 22.992 181.688 23.088 181.484 23.148C181.28 23.208 181.052 23.232 180.824 23.232ZM185.297 26.412H186.533L190.289 18.228H189.077L187.349 22.212L185.549 18.228H184.253L186.737 23.364L185.297 26.412Z" fill="#7B8199"/>
<path d="M51.908 53.0451L56.696 53.2971C56.66 53.0811 56.624 52.8651 56.588 52.6131C56.552 52.3971 56.552 52.1811 56.552 51.9291C56.552 50.6691 56.912 49.5891 57.596 48.7251C58.28 47.8611 59.36 47.4291 60.8 47.4291C61.484 47.4291 62.096 47.5371 62.6 47.7171C63.14 47.9331 63.572 48.2211 63.896 48.5811C64.22 48.9051 64.472 49.3011 64.652 49.7691C64.832 50.2371 64.904 50.7051 64.904 51.2091C64.904 52.1091 64.652 52.9371 64.148 53.6931C63.68 54.4491 62.888 55.1691 61.772 55.8531L57.596 58.4451C56.48 59.1291 55.508 59.8851 54.752 60.6771C53.996 61.4331 53.348 62.2611 52.88 63.1611C52.412 64.0251 52.088 64.9611 51.872 65.9691C51.656 66.9411 51.548 67.9851 51.548 69.1011H70.088V64.7451H57.668C57.848 64.1331 58.172 63.6291 58.604 63.2331C59.036 62.8371 59.54 62.4411 60.08 62.0811L65.048 59.0211C66.596 58.0851 67.784 56.9691 68.648 55.6371C69.512 54.3051 69.944 52.7931 69.944 51.1011C69.944 50.0211 69.728 48.9771 69.332 48.0051C68.936 47.0331 68.324 46.1691 67.532 45.4491C66.776 44.6931 65.804 44.1171 64.688 43.6851C63.572 43.2531 62.312 43.0371 60.908 43.0371C59.432 43.0371 58.136 43.2891 57.02 43.7571C55.904 44.2251 54.932 44.8371 54.14 45.5931C53.384 46.3491 52.772 47.2491 52.376 48.2931C51.98 49.3011 51.764 50.3451 51.764 51.4611C51.764 51.7491 51.764 52.0371 51.8 52.3251C51.836 52.6131 51.872 52.8651 51.908 53.0451ZM77.6992 69.1011H82.6312V43.5771H78.3112C78.2032 44.2611 77.9512 44.8731 77.5912 45.4491C77.1952 45.9891 76.7272 46.4931 76.1512 46.9251C75.5392 47.3571 74.8552 47.7171 74.0992 47.9691C73.3432 48.2211 72.4792 48.3291 71.5792 48.3651V51.7491H77.6992V69.1011ZM103.527 48.3291L104.931 44.2971C104.391 43.9371 103.635 43.6491 102.699 43.3971C101.763 43.1451 100.719 43.0371 99.5309 43.0371C97.5149 43.0371 95.6429 43.3611 93.9509 44.0451C92.2589 44.7291 90.7829 45.7371 89.5589 46.9971C88.3349 48.2931 87.3989 49.8411 86.7149 51.6771C86.0309 53.5131 85.6709 55.6011 85.6709 57.9051C85.6709 59.8851 85.9589 61.5771 86.4989 63.0531C87.0389 64.5291 87.7949 65.7531 88.7309 66.7251C89.6669 67.6971 90.7469 68.4531 92.0069 68.9211C93.2309 69.3891 94.5269 69.6411 95.8949 69.6411C97.2629 69.6411 98.5589 69.4251 99.7469 68.9931C100.935 68.5971 101.943 67.9851 102.843 67.1931C103.707 66.4371 104.391 65.5011 104.895 64.3851C105.399 63.3051 105.651 62.0811 105.651 60.7491C105.651 59.4531 105.435 58.2651 105.039 57.2211C104.607 56.1771 104.031 55.2771 103.275 54.5211C102.519 53.7651 101.583 53.1891 100.539 52.7931C99.4589 52.3971 98.2709 52.2171 97.0109 52.2171C95.3909 52.2171 94.0589 52.5051 92.9789 53.1171C91.8989 53.7291 91.1069 54.4131 90.6389 55.2051C90.7469 54.0171 91.0709 52.9011 91.5389 51.9291C92.0069 50.9571 92.5829 50.1291 93.3389 49.4451C94.0949 48.7611 94.9589 48.2571 95.9669 47.8971C96.9389 47.5371 98.0549 47.3571 99.2429 47.3571C100.071 47.3571 100.863 47.4651 101.619 47.6451C102.339 47.8611 102.987 48.0771 103.527 48.3291ZM91.1429 60.8931C91.1429 60.1731 91.2509 59.5251 91.5029 58.9851C91.7549 58.4091 92.1149 57.9411 92.5469 57.5451C92.9789 57.1491 93.4829 56.8251 94.0589 56.6091C94.6349 56.3931 95.2469 56.2851 95.8949 56.2851C96.5429 56.2851 97.1549 56.3931 97.7309 56.6091C98.3069 56.8251 98.8109 57.1491 99.2429 57.5451C99.6749 57.9411 100.035 58.4091 100.287 58.9851C100.539 59.5251 100.683 60.1731 100.683 60.8931C100.683 61.5771 100.539 62.2251 100.287 62.8011C100.035 63.3411 99.7109 63.8451 99.2429 64.2411C98.8109 64.6371 98.3069 64.9251 97.7309 65.1411C97.1549 65.3211 96.5429 65.4291 95.8949 65.4291C95.2829 65.4291 94.6709 65.3211 94.0949 65.1051C93.5189 64.8891 93.0149 64.6011 92.5829 64.2051C92.1509 63.8091 91.7909 63.3051 91.5389 62.7651C91.2869 62.2251 91.1429 61.5771 91.1429 60.8931ZM107.655 66.0771C107.655 66.9771 107.979 67.7691 108.627 68.3811C109.239 69.0291 110.031 69.3531 110.931 69.3531C111.399 69.3531 111.831 69.2811 112.227 69.1011C112.623 68.9211 112.983 68.7051 113.271 68.3811C113.595 68.0931 113.811 67.7331 113.991 67.3371C114.171 66.9411 114.243 66.5451 114.243 66.0771C114.243 65.6091 114.171 65.1771 113.991 64.7811C113.811 64.3851 113.595 64.0611 113.271 63.7371C112.983 63.4491 112.623 63.2331 112.227 63.0531C111.831 62.8731 111.399 62.8011 110.931 62.8011C110.031 62.8011 109.239 63.1251 108.627 63.7371C107.979 64.3851 107.655 65.1771 107.655 66.0771ZM116.776 53.0451L121.564 53.2971C121.528 53.0811 121.492 52.8651 121.456 52.6131C121.42 52.3971 121.42 52.1811 121.42 51.9291C121.42 50.6691 121.78 49.5891 122.464 48.7251C123.148 47.8611 124.228 47.4291 125.668 47.4291C126.352 47.4291 126.964 47.5371 127.468 47.7171C128.008 47.9331 128.44 48.2211 128.764 48.5811C129.088 48.9051 129.34 49.3011 129.52 49.7691C129.7 50.2371 129.772 50.7051 129.772 51.2091C129.772 52.1091 129.52 52.9371 129.016 53.6931C128.548 54.4491 127.756 55.1691 126.64 55.8531L122.464 58.4451C121.348 59.1291 120.376 59.8851 119.62 60.6771C118.864 61.4331 118.216 62.2611 117.748 63.1611C117.28 64.0251 116.956 64.9611 116.74 65.9691C116.524 66.9411 116.416 67.9851 116.416 69.1011H134.956V64.7451H122.536C122.716 64.1331 123.04 63.6291 123.472 63.2331C123.904 62.8371 124.408 62.4411 124.948 62.0811L129.916 59.0211C131.464 58.0851 132.652 56.9691 133.516 55.6371C134.38 54.3051 134.812 52.7931 134.812 51.1011C134.812 50.0211 134.596 48.9771 134.2 48.0051C133.804 47.0331 133.192 46.1691 132.4 45.4491C131.644 44.6931 130.672 44.1171 129.556 43.6851C128.44 43.2531 127.18 43.0371 125.776 43.0371C124.3 43.0371 123.004 43.2891 121.888 43.7571C120.772 44.2251 119.8 44.8371 119.008 45.5931C118.252 46.3491 117.64 47.2491 117.244 48.2931C116.848 49.3011 116.632 50.3451 116.632 51.4611C116.632 51.7491 116.632 52.0371 116.668 52.3251C116.704 52.6131 116.74 52.8651 116.776 53.0451ZM137.347 56.3571C137.347 58.0131 137.491 59.5971 137.815 61.1451C138.139 62.6931 138.715 64.1331 139.579 65.4291C140.407 66.6891 141.523 67.7331 142.855 68.4891C144.187 69.2451 145.843 69.6411 147.787 69.6411C149.731 69.6411 151.387 69.2451 152.719 68.4891C154.087 67.7331 155.203 66.6891 156.031 65.4291C156.859 64.1331 157.471 62.6931 157.795 61.1451C158.119 59.5971 158.299 58.0131 158.299 56.3571C158.299 54.7011 158.119 53.0811 157.795 51.5331C157.471 49.9851 156.859 48.5451 156.031 47.2491C155.203 45.9891 154.087 44.9451 152.719 44.1891C151.387 43.4331 149.731 43.0371 147.787 43.0371C145.843 43.0371 144.187 43.4331 142.855 44.1891C141.523 44.9451 140.407 45.9891 139.579 47.2491C138.715 48.5451 138.139 49.9851 137.815 51.5331C137.491 53.0811 137.347 54.7011 137.347 56.3571ZM142.315 56.3571C142.315 54.8451 142.459 53.5131 142.711 52.3251C142.963 51.1731 143.359 50.2011 143.899 49.4451C144.331 48.8331 144.871 48.3651 145.483 48.0051C146.095 47.6451 146.887 47.4651 147.787 47.4651C148.723 47.4651 149.515 47.6451 150.127 48.0051C150.739 48.3651 151.279 48.8331 151.711 49.4451C152.251 50.2011 152.683 51.1731 152.935 52.3251C153.187 53.5131 153.331 54.8451 153.331 56.3571C153.331 57.8691 153.187 59.2011 152.935 60.3531C152.683 61.5411 152.251 62.5131 151.711 63.2691C151.279 63.8811 150.739 64.3491 150.127 64.7091C149.515 65.0691 148.723 65.2491 147.787 65.2491C146.887 65.2491 146.095 65.0691 145.483 64.7091C144.871 64.3491 144.331 63.8811 143.899 63.2691C143.359 62.5131 142.963 61.5411 142.711 60.3531C142.459 59.2011 142.315 57.8691 142.315 56.3571ZM163.763 69.1011H168.011L184.427 43.5771H180.179L163.763 69.1011ZM171.971 49.0491C171.971 48.2211 171.827 47.4651 171.503 46.7451C171.179 46.0251 170.747 45.4131 170.207 44.8731C169.667 44.3331 169.019 43.9371 168.299 43.6131C167.579 43.3251 166.823 43.1811 165.995 43.1811C165.167 43.1811 164.411 43.3251 163.691 43.6131C162.971 43.9371 162.359 44.3331 161.819 44.8731C161.279 45.4131 160.847 46.0251 160.523 46.7451C160.199 47.4651 160.019 48.2211 160.019 49.0491C160.019 49.8771 160.163 50.6691 160.487 51.3531C160.811 52.0731 161.243 52.6851 161.783 53.2251C162.323 53.7651 162.935 54.1611 163.655 54.4851C164.375 54.7731 165.131 54.9171 165.959 54.9171C166.787 54.9171 167.543 54.7731 168.299 54.4851C169.019 54.1971 169.667 53.8011 170.207 53.2611C170.747 52.7211 171.179 52.1091 171.503 51.3891C171.827 50.6691 171.971 49.8771 171.971 49.0491ZM163.583 49.0491C163.583 48.3291 163.799 47.7531 164.267 47.2851C164.735 46.8171 165.311 46.5651 165.995 46.5651C166.679 46.5651 167.255 46.8171 167.687 47.2851C168.119 47.7531 168.335 48.3291 168.335 49.0491C168.335 49.8051 168.119 50.4171 167.687 50.8851C167.255 51.3531 166.679 51.5691 165.995 51.5691C165.311 51.5691 164.735 51.3531 164.267 50.8851C163.799 50.4171 163.583 49.8051 163.583 49.0491ZM176.219 63.6291C176.219 64.4571 176.363 65.2131 176.687 65.9331C177.011 66.6531 177.443 67.2651 177.983 67.8051C178.523 68.3451 179.135 68.7411 179.891 69.0651C180.611 69.3531 181.367 69.4971 182.195 69.4971C183.023 69.4971 183.779 69.3531 184.535 69.0651C185.255 68.7411 185.903 68.3451 186.443 67.8411C186.983 67.3011 187.415 66.6891 187.739 65.9691C188.063 65.2491 188.207 64.4571 188.207 63.6291C188.207 62.8011 188.063 62.0451 187.739 61.3251C187.415 60.6051 186.983 59.9931 186.443 59.4531C185.903 58.9131 185.255 58.5171 184.535 58.2291C183.779 57.9051 183.023 57.7611 182.195 57.7611C181.367 57.7611 180.611 57.9051 179.891 58.2291C179.171 58.5171 178.559 58.9131 178.019 59.4531C177.479 59.9931 177.047 60.6051 176.723 61.3251C176.399 62.0451 176.219 62.8011 176.219 63.6291ZM184.571 63.6291C184.571 64.3851 184.355 64.9971 183.923 65.4651C183.455 65.9331 182.879 66.1491 182.195 66.1491C181.511 66.1491 180.971 65.9331 180.503 65.4651C180.035 64.9971 179.819 64.3851 179.819 63.6291C179.819 62.8731 180.035 62.2971 180.503 61.8291C180.971 61.3611 181.511 61.1451 182.195 61.1451C182.879 61.1451 183.455 61.3611 183.923 61.8291C184.355 62.2971 184.571 62.8731 184.571 63.6291Z" fill="#191B20"/>
<g clip-path="url(#clip0_4198_41300)">
<path d="M291.375 73.0806H238.411C227.343 73.0806 218.371 64.1082 218.371 53.0402V53.0402C218.371 41.9723 227.343 32.9999 238.411 32.9999L291.375 32.9999V73.0806Z" fill="#FFFB1F"/>
<path d="M241.882 52.0226L243.754 52.1986L243.722 51.9106C243.706 51.8146 243.706 51.7186 243.706 51.6386C243.706 51.3346 243.754 51.0626 243.834 50.7906C243.914 50.5186 244.042 50.2946 244.202 50.0866C244.378 49.8786 244.586 49.7186 244.842 49.6066C245.114 49.4946 245.418 49.4466 245.77 49.4466C246.106 49.4466 246.394 49.4946 246.634 49.5906C246.89 49.7026 247.098 49.8306 247.274 50.0066C247.45 50.1826 247.578 50.3906 247.658 50.6146C247.738 50.8386 247.77 51.0786 247.77 51.3186C247.77 51.7506 247.658 52.1506 247.418 52.5186C247.178 52.8866 246.794 53.2386 246.282 53.5586L244.41 54.7586C243.914 55.0626 243.514 55.3826 243.178 55.7186C242.842 56.0546 242.554 56.4226 242.346 56.7906C242.138 57.1746 241.978 57.5746 241.882 57.9906C241.786 58.4226 241.738 58.8706 241.722 59.3506H249.77V57.6226H244.09C244.17 57.3186 244.33 57.0466 244.554 56.8066C244.778 56.5826 245.034 56.3746 245.338 56.1986L247.562 54.7906C248.218 54.3906 248.746 53.8786 249.13 53.2866C249.514 52.6946 249.706 52.0386 249.706 51.2866C249.706 50.8066 249.626 50.3586 249.45 49.9266C249.274 49.4946 249.018 49.1266 248.682 48.8066C248.346 48.4866 247.946 48.2306 247.466 48.0386C246.97 47.8626 246.426 47.7666 245.818 47.7666C245.194 47.7666 244.634 47.8626 244.138 48.0706C243.642 48.2786 243.21 48.5506 242.874 48.8866C242.538 49.2226 242.282 49.6226 242.106 50.0546C241.93 50.5026 241.834 50.9666 241.834 51.4626C241.834 51.6706 241.85 51.8626 241.882 52.0226ZM250.744 54.7106V56.8386H256.232V59.3506H258.104V56.8386H260.008V55.1266H258.104V48.0066H255.56L250.744 54.7106ZM256.232 49.8946V55.1266H252.472L256.232 49.8946ZM268.84 59.3506H270.776V48.0066H268.84V52.6946H263.512V48.0066H261.592V59.3506H263.512V54.5026H268.84V59.3506Z" fill="#191B20"/>
</g>
<path fill-rule="evenodd" clip-rule="evenodd" d="M32.5272 45.3258C32.9201 44.7083 33.8216 44.7083 34.2145 45.3258L39.3928 53.4631C39.8165 54.1288 39.3383 55 38.5492 55H28.1925C27.4034 55 26.9252 54.1288 27.3489 53.4631L32.5272 45.3258Z" fill="#7EE3B3"/>
<g clip-path="url(#clip1_4198_41300)">
<path d="M291.375 33H344.339C355.407 33 364.379 41.9724 364.379 53.0403V53.0403C364.379 64.1083 355.407 73.0807 344.339 73.0807H291.375V33Z" fill="#DDDFE4"/>
<path d="M317.136 59.3506H319.024V48.0066H317.344C317.28 48.3106 317.168 48.5826 317.008 48.8386C316.848 49.0946 316.64 49.3186 316.384 49.4946C316.128 49.6866 315.84 49.8306 315.504 49.9426C315.168 50.0546 314.8 50.1186 314.4 50.1346V51.4626H317.136V59.3506ZM331.857 59.3506H333.761V48.0066H331.153L327.521 56.6626L323.841 48.0066H321.281V59.3506H323.153V51.0306L326.657 59.3506H328.321L331.857 50.9986V59.3506Z" fill="#80889C"/>
</g>
<defs>
<clipPath id="clip0_4198_41300">
<rect width="73.0041" height="40.0807" fill="white" transform="translate(218.371 33)"/>
</clipPath>
<clipPath id="clip1_4198_41300">
<rect width="73.0041" height="40.0807" fill="white" transform="translate(291.375 33)"/>
</clipPath>
</defs>
</svg>
