<svg width="394" height="52" viewBox="0 0 394 52" fill="none" xmlns="http://www.w3.org/2000/svg">
<circle cx="29" cy="26" r="19" fill="#FFFB1F"/>
<g opacity="0.6">
<path opacity="0.6" d="M29.0019 26.3608L19.5 30.6822L29.0019 36.296L38.5 30.6822L29.0019 26.3608Z" fill="#191B20"/>
</g>
<path opacity="0.45" d="M19.5 30.6822L29.0019 36.2959V14.9167L19.5 30.6822Z" fill="#191B20"/>
<path opacity="0.8" d="M29.0017 14.9167V36.2959L38.4998 30.6822L29.0017 14.9167Z" fill="#191B20"/>
<circle cx="77" cy="26" r="19" fill="#FFFB1F"/>
<path d="M77 14.9167L74.9894 16.0728L69.5106 19.2395L67.5 20.3956V31.3533L69.5106 32.5093L75.0397 35.676L77.0503 36.8321L79.0608 35.676L84.4894 32.5093L86.5 31.3533V20.3956L84.4894 19.2395L79.0106 16.0728L77 14.9167ZM71.5212 29.0411V22.7078L77 19.5411L82.4788 22.7078V29.0411L77 32.2078L71.5212 29.0411Z" fill="#191B20"/>
<circle cx="125" cy="26" r="19" fill="#FFFB1F"/>
<path d="M115.644 31.0354V22.1136L122.41 27.2057V31.0354H124.137V26.8462C124.137 26.6905 124.1 26.5371 124.031 26.3978C123.961 26.2586 123.86 26.1374 123.736 26.0438L115.53 19.8661C115.38 19.7547 115.202 19.687 115.016 19.6706C114.83 19.6543 114.643 19.6899 114.475 19.7735C114.308 19.8571 114.167 19.9854 114.069 20.1442C113.97 20.303 113.917 20.4861 113.917 20.673V31.0354H115.644ZM134.356 31.0354V22.1136L127.59 27.2057V31.0354H125.863V26.8462C125.863 26.6905 125.9 26.5371 125.969 26.3978C126.039 26.2586 126.14 26.1374 126.264 26.0438L134.47 19.8686C134.619 19.7573 134.797 19.6897 134.983 19.6732C135.169 19.6567 135.356 19.6921 135.523 19.7754C135.69 19.8587 135.831 19.9867 135.93 20.1451C136.029 20.3036 136.082 20.4863 136.083 20.673V31.0354H134.356Z" fill="#191B20"/>
<circle cx="173" cy="26" r="19" fill="#FFFB1F"/>
<path d="M168.481 27.1442C165.734 27.1442 163.506 29.3783 163.506 32.1341C163.506 34.89 165.734 37.124 168.482 37.124C171.23 37.124 173.457 34.89 173.457 32.1341C173.457 29.3783 171.23 27.1442 168.482 27.1442H168.481ZM168.481 35.6146C166.566 35.6146 165.013 34.0573 165.013 32.1359C165.013 30.2144 166.566 28.6571 168.481 28.6571C170.397 28.6571 171.95 30.2144 171.95 32.1359C171.947 34.0556 170.396 35.6123 168.481 35.6146V35.6146ZM179.108 16.5002C176.36 16.5002 174.132 18.7343 174.132 21.4901C174.132 24.246 176.36 26.48 179.108 26.48C181.856 26.48 184.083 24.246 184.083 21.4901C184.083 18.7343 181.856 16.5 179.108 16.5L179.108 16.5002ZM179.108 24.9706C177.193 24.9706 175.639 23.4133 175.639 21.4918C175.639 19.5704 177.191 18.013 179.108 18.013C181.024 18.013 182.577 19.5704 182.577 21.4918C182.574 23.4124 181.021 24.9672 179.108 24.9704L179.108 24.9706ZM168.481 16.5C166.113 16.4985 164.071 18.1716 163.6 20.4999C163.129 22.8282 164.36 25.1666 166.541 26.0912C167.602 26.5369 168.784 26.602 169.888 26.2755C170.991 25.9491 171.948 25.2511 172.596 24.3C173.244 23.3488 173.543 22.2029 173.442 21.0564C173.342 19.91 172.848 18.8335 172.045 18.0094H173.456V16.5H168.481ZM171.951 21.4899C171.951 23.4111 170.398 24.9687 168.482 24.9687C166.566 24.9687 165.013 23.4111 165.013 21.4899C165.013 19.5687 166.566 18.0118 168.481 18.0118C170.397 18.0118 171.949 19.5698 171.952 21.4905H171.951V21.4899Z" fill="#191B20"/>
<circle cx="221" cy="26" r="19" fill="#FFFB1F"/>
<path d="M227.047 29.8346C227.848 30.9097 228.674 32.0097 229.5 33.1097C227.848 35.0598 225.795 36.3098 223.316 36.8348C220.562 37.4099 217.958 36.9848 215.429 35.5848C217.683 33.9097 219.886 32.2597 222.114 30.6096C222.615 31.0847 223.091 31.5597 223.567 32.0097C224.092 32.5097 223.892 32.5347 224.568 32.1597C225.494 31.6347 226.271 30.9097 226.872 30.0346C226.897 29.9846 226.947 29.9346 226.972 29.8846C226.947 29.8846 226.972 29.8846 227.047 29.8346V29.8346ZM217.207 32.0347C216.581 32.5097 216.005 32.9347 215.429 33.3847C215.004 33.7097 214.578 34.0098 214.153 34.3348C213.977 34.4848 213.852 34.4848 213.652 34.3098C211.749 32.6097 210.547 30.5096 210.097 28.0096C209.646 25.4845 210.046 23.0844 211.248 20.8093C211.273 20.7593 211.323 20.6843 211.348 20.6343C211.348 20.6093 211.373 20.6093 211.423 20.5843C213.076 22.7594 214.753 24.9345 216.406 27.1095C216.356 27.1845 216.331 27.2345 216.281 27.2845C215.78 27.8096 215.279 28.3346 214.753 28.8346C214.603 28.9846 214.578 29.1096 214.678 29.2846C215.204 30.2846 215.93 31.1097 216.832 31.7847C216.957 31.8597 217.057 31.9347 217.207 32.0347V32.0347ZM226.546 16.5092C225.745 17.0842 224.944 17.6592 224.142 18.2092C222.765 19.1843 221.388 20.1843 220.036 21.1593C219.861 21.2843 219.736 21.3093 219.586 21.1343C219.135 20.6593 218.659 20.2343 218.209 19.7593C218.083 19.6343 217.958 19.6093 217.783 19.6843C216.706 20.2343 215.855 21.0093 215.154 21.9844C215.104 22.0344 215.054 22.1094 215.004 22.1844C214.603 21.6594 214.228 21.1843 213.852 20.6843C213.452 20.1593 213.076 19.6343 212.7 19.1343C212.575 18.9593 212.55 18.8343 212.725 18.6593C214.653 16.5342 217.032 15.2842 219.886 14.9841C222.139 14.7341 224.293 15.1842 226.296 16.2592C226.371 16.3092 226.446 16.3342 226.521 16.3842C226.521 16.4592 226.521 16.4842 226.546 16.5092V16.5092ZM230.627 31.5097C230.101 30.8347 229.626 30.2096 229.15 29.5846C228.048 28.1346 226.947 26.6595 225.82 25.2095C225.67 25.0095 225.67 24.8845 225.845 24.7095C226.321 24.2344 226.771 23.7594 227.247 23.2844C227.372 23.1594 227.422 23.0344 227.322 22.8594C226.771 21.8094 226.02 20.9343 225.044 20.2343C224.969 20.1843 224.894 20.1093 224.793 20.0593C224.869 19.9843 224.944 19.9343 224.994 19.8843C225.945 19.1593 226.897 18.4593 227.848 17.7342C227.998 17.6092 228.123 17.5592 228.299 17.7342C230.677 19.8843 231.954 22.5594 232.079 25.7845C232.129 27.6596 231.704 29.4346 230.852 31.1097C230.777 31.2097 230.702 31.3347 230.627 31.5097V31.5097Z" fill="#191B20"/>
<circle cx="269" cy="26" r="19" fill="#FFFB1F"/>
<path d="M276.836 17.45H280.04L273.373 23.8273C270.958 26.1355 267.043 26.1355 264.627 23.8273L257.957 17.45H261.164L266.229 22.2944C266.967 22.9971 267.962 23.391 268.998 23.391C270.034 23.391 271.029 22.9971 271.767 22.2944L276.836 17.45Z" fill="#191B20"/>
<path d="M261.123 35.1837H257.917L264.627 28.7671C267.042 26.4588 270.956 26.4588 273.373 28.7671L280.083 35.1837H276.88L271.771 30.2999C271.033 29.5973 270.038 29.2033 269.002 29.2033C267.966 29.2033 266.971 29.5973 266.233 30.2999L261.123 35.1837Z" fill="#191B20"/>
<circle cx="317" cy="26" r="19" fill="#FFFB1F"/>
<path d="M322.945 23.3704C322.25 23.0855 321.445 23.0788 320.531 23.3503C321.253 22.2383 321.191 21.0935 320.347 19.9156C320.044 19.4864 319.692 19.1661 319.29 18.9542C318.889 18.7424 318.451 18.6381 317.977 18.6418C317.504 18.6452 317.026 18.7149 316.547 18.8502C316.067 18.9854 315.542 19.1856 314.972 19.4507L313.474 16.8565L311.889 17.7717L313.345 20.2938C313.07 20.4523 312.656 20.7008 312.101 21.0394L310.633 18.4967L309.048 19.4121L310.545 22.0062C310.323 22.1439 309.992 22.3395 309.553 22.5931L307.364 23.8427L308.339 25.531L309.482 24.8713C310.003 24.5702 310.443 24.6273 310.802 25.0424L312.508 27.9969C312.577 27.9572 312.633 27.9291 312.679 27.9121L312.514 28.0073L314.903 32.1454C315.05 32.527 314.952 32.817 314.609 33.0151L313.467 33.6748L314.235 35.7429L316.294 34.5542C316.424 34.4789 316.614 34.3718 316.863 34.2322C317.112 34.093 317.298 33.9878 317.422 33.9165L318.937 36.5415L320.523 35.626L319.025 33.0319C319.317 32.8725 319.738 32.6342 320.287 32.3172L321.779 34.901L323.364 33.9857L321.848 31.3607C322.395 31.0084 322.865 30.6689 323.257 30.3417C323.649 30.0143 323.998 29.6554 324.303 29.2642C324.608 28.8733 324.824 28.4803 324.953 28.0856C325.082 27.691 325.127 27.2578 325.089 26.7859C325.049 26.3144 324.913 25.821 324.68 25.306C324.219 24.3006 323.64 23.6554 322.945 23.3704ZM313.201 22.8743C313.25 22.8466 313.384 22.7666 313.605 22.6344C313.826 22.502 314.009 22.3917 314.155 22.303C314.301 22.2144 314.505 22.1081 314.767 21.984C315.029 21.86 315.256 21.7657 315.448 21.7009C315.639 21.6361 315.861 21.5837 316.112 21.5439C316.363 21.5038 316.584 21.5048 316.772 21.5468C316.961 21.5887 317.149 21.6724 317.336 21.798C317.523 21.9234 317.682 22.0994 317.812 22.3258C317.923 22.518 317.993 22.7108 318.023 22.9044C318.052 23.0977 318.036 23.2835 317.974 23.4611C317.912 23.6388 317.838 23.805 317.753 23.9591C317.669 24.1132 317.539 24.2729 317.364 24.4377C317.189 24.6026 317.035 24.7424 316.899 24.8569C316.764 24.9716 316.587 25.0994 316.366 25.2404C316.145 25.3815 315.978 25.4875 315.863 25.5583C315.748 25.629 315.589 25.7211 315.384 25.8347C315.18 25.9482 315.061 26.0147 315.026 26.0345L313.202 22.8742L313.201 22.8743L313.201 22.8743ZM321.578 27.3853C321.604 27.581 321.599 27.7668 321.563 27.9429C321.528 28.1189 321.452 28.3002 321.335 28.4863C321.218 28.6727 321.097 28.8388 320.971 28.9848C320.845 29.1311 320.682 29.2889 320.483 29.4588C320.283 29.629 320.105 29.7708 319.946 29.8853C319.788 29.9995 319.595 30.129 319.368 30.2742C319.141 30.4189 318.962 30.5292 318.831 30.6045C318.701 30.6798 318.535 30.773 318.334 30.8846C318.133 30.9963 318.005 31.0678 317.95 31.0996L315.941 27.62C315.996 27.5883 316.157 27.4908 316.424 27.3273C316.691 27.1638 316.911 27.0329 317.082 26.9338C317.254 26.8348 317.497 26.7082 317.811 26.5545C318.124 26.4007 318.396 26.2848 318.626 26.207C318.855 26.1295 319.117 26.0632 319.41 26.0083C319.703 25.9534 319.961 25.9441 320.183 25.9804C320.406 26.017 320.624 26.1013 320.837 26.2341C321.052 26.3667 321.23 26.5566 321.373 26.8038C321.484 26.9961 321.552 27.1897 321.578 27.3853Z" fill="#191B20"/>
<circle cx="365" cy="26" r="19" fill="#7EE3B3"/>
<path d="M367.226 24.8617V19H363.774V24.8617H358V28.1383H363.774V34H367.226V28.1383H373V24.8617H367.226Z" fill="white"/>
<rect x="0.5" y="0.5" width="393" height="51" rx="25.5" stroke="#DDDFE4"/>
</svg>
