<svg width="182" height="30" viewBox="0 0 182 30" fill="none" xmlns="http://www.w3.org/2000/svg">
	<circle cx="53" cy="15" r="15" fill="#DDDFE4"/>
	<path d="M53 6.25L51.4127 7.1627L47.0873 9.6627L45.5 10.5754V19.2262L47.0873 20.1389L51.4524 22.6389L53.0397 23.5516L54.627 22.6389L58.9127 20.1389L60.5 19.2262V10.5754L58.9127 9.6627L54.5873 7.1627L53 6.25ZM48.6746 17.4008V12.4008L53 9.90079L57.3254 12.4008V17.4008L53 19.9008L48.6746 17.4008Z" fill="#191B20"/>
	<circle cx="90.8948" cy="15" r="15" fill="#DDDFE4"/>
	<path d="M83.5086 18.9753V11.9317L88.8501 15.9518V18.9753H90.2134V15.668C90.2131 15.5451 90.1844 15.4239 90.1294 15.314C90.0745 15.2041 89.9948 15.1084 89.8966 15.0345L83.4188 10.1574C83.3003 10.0694 83.1597 10.016 83.0127 10.0031C82.8657 9.99015 82.718 10.0183 82.586 10.0843C82.454 10.1503 82.3428 10.2516 82.2649 10.3769C82.1871 10.5023 82.1455 10.6468 82.1448 10.7944V18.9753H83.5086ZM98.281 18.9753V11.9317L92.9395 15.9518V18.9753H91.5762V15.668C91.5764 15.5451 91.6052 15.4239 91.6601 15.314C91.7151 15.2041 91.7948 15.1084 91.8929 15.0345L98.3708 10.1594C98.4891 10.0715 98.6295 10.0181 98.7763 10.0051C98.9232 9.9921 99.0708 10.02 99.2027 10.0858C99.3346 10.1516 99.4458 10.2526 99.5238 10.3777C99.6019 10.5027 99.6437 10.647 99.6448 10.7944V18.9753H98.281Z" fill="#191B20"/>
	<circle cx="128.684" cy="15" r="15" fill="#DDDFE4"/>
	<path d="M125.117 15.9034C122.947 15.9034 121.189 17.6671 121.189 19.8428C121.189 22.0185 122.948 23.7822 125.117 23.7822C127.286 23.7822 129.045 22.0185 129.045 19.8428C129.045 17.6671 127.287 15.9034 125.117 15.9034H125.117ZM125.117 22.5906C123.605 22.5906 122.378 21.3611 122.378 19.8442C122.378 18.3272 123.604 17.0977 125.117 17.0977C126.629 17.0977 127.855 18.3272 127.855 19.8442C127.853 21.3597 126.628 22.5887 125.117 22.5906ZM133.506 7.50023C131.337 7.50023 129.578 9.26396 129.578 11.4396C129.578 13.6153 131.337 15.379 133.506 15.379C135.675 15.379 137.434 13.6153 137.434 11.4396C137.434 9.26396 135.676 7.50006 133.506 7.50006L133.506 7.50023ZM133.506 14.1874C131.994 14.1874 130.767 12.9579 130.767 11.441C130.767 9.92407 131.993 8.69457 133.506 8.69457C135.019 8.69457 136.245 9.92407 136.245 11.441C136.242 12.9572 135.017 14.1847 133.506 14.1872L133.506 14.1874ZM125.117 7.50006C123.247 7.49887 121.635 8.81976 121.263 10.6579C120.891 12.496 121.863 14.3422 123.585 15.0721C124.422 15.4239 125.356 15.4753 126.227 15.2176C127.098 14.9599 127.854 14.4089 128.365 13.6579C128.877 12.907 129.113 12.0023 129.033 11.0972C128.954 10.1921 128.564 9.34229 127.93 8.69168H129.044V7.50006H125.117ZM127.856 11.4395C127.856 12.9562 126.629 14.1859 125.117 14.1859C123.604 14.1859 122.379 12.9562 122.379 11.4395C122.379 9.92271 123.604 8.69355 125.117 8.69355C126.629 8.69355 127.854 9.92356 127.857 11.44H127.856V11.4395Z" fill="#191B20"/>
	<circle cx="166.579" cy="15" r="15" fill="#DDDFE4"/>
	<path d="M171.353 18.0273C171.985 18.876 172.638 19.7444 173.29 20.6129C171.985 22.1524 170.365 23.1393 168.408 23.5538C166.233 24.0077 164.178 23.6722 162.181 22.5669C163.96 21.2445 165.7 19.9418 167.459 18.6391C167.854 19.0141 168.23 19.3892 168.605 19.7444C169.021 20.1392 168.862 20.1589 169.396 19.8629C170.127 19.4484 170.74 18.876 171.215 18.1852C171.234 18.1457 171.274 18.1062 171.294 18.0667C171.274 18.0667 171.294 18.0667 171.353 18.0273ZM163.585 19.7642C163.091 20.1392 162.636 20.4747 162.181 20.83C161.845 21.0866 161.509 21.3234 161.173 21.58C161.035 21.6984 160.936 21.6984 160.778 21.5603C159.276 20.2181 158.327 18.5602 157.971 16.5864C157.615 14.5929 157.932 12.6982 158.88 10.902C158.9 10.8626 158.94 10.8034 158.959 10.7639C158.959 10.7441 158.979 10.7441 159.019 10.7244C160.323 12.4416 161.648 14.1587 162.952 15.8759C162.913 15.9351 162.893 15.9746 162.853 16.014C162.458 16.4285 162.063 16.843 161.648 17.2378C161.529 17.3562 161.509 17.4549 161.588 17.593C162.003 18.3825 162.577 19.0339 163.288 19.5668C163.387 19.626 163.466 19.6852 163.585 19.7642ZM170.958 7.5072C170.325 7.96116 169.693 8.41512 169.06 8.84934C167.973 9.6191 166.886 10.4086 165.818 11.1784C165.68 11.2771 165.581 11.2968 165.463 11.1586C165.107 10.7836 164.731 10.4481 164.375 10.0731C164.277 9.97438 164.178 9.95464 164.039 10.0139C163.189 10.4481 162.517 11.0599 161.964 11.8297C161.924 11.8692 161.885 11.9284 161.845 11.9876C161.529 11.5731 161.233 11.1981 160.936 10.8034C160.62 10.3889 160.323 9.97438 160.027 9.57963C159.928 9.44147 159.908 9.34278 160.047 9.20462C161.569 7.52693 163.446 6.54006 165.7 6.30321C167.479 6.10584 169.179 6.46111 170.76 7.30982C170.819 7.3493 170.879 7.36903 170.938 7.40851C170.938 7.46772 170.938 7.48746 170.958 7.5072ZM174.18 19.3497C173.764 18.8168 173.389 18.3233 173.013 17.8299C172.144 16.6851 171.274 15.5206 170.384 14.3758C170.266 14.2179 170.266 14.1192 170.404 13.9811C170.78 13.6061 171.136 13.2311 171.511 12.856C171.61 12.7574 171.649 12.6587 171.57 12.5205C171.136 11.6915 170.543 11.0007 169.772 10.4481C169.712 10.4086 169.653 10.3494 169.574 10.3099C169.633 10.2507 169.693 10.2112 169.732 10.1718C170.483 9.59937 171.234 9.04672 171.985 8.47433C172.104 8.37564 172.203 8.33617 172.341 8.47433C174.219 10.1718 175.227 12.2837 175.326 14.8298C175.366 16.3101 175.029 17.7115 174.357 19.0339C174.298 19.1128 174.239 19.2115 174.18 19.3497Z" fill="#191B20"/>
	<circle cx="15" cy="15" r="15" fill="#DDDFE4"/>
	<path fill-rule="evenodd" clip-rule="evenodd" d="M15.3945 7.10522V12.9784L20.5263 15.1965L15.3945 7.10522ZM15.3945 19.0164V23.2878L20.5263 15.9321L15.3945 19.0164ZM15.395 18.1386L10.2632 15.2281L15.395 12.9896V18.1386Z" fill="#191B20"/>
	<path fill-rule="evenodd" clip-rule="evenodd" d="M10.2632 15.1965L15.395 7.10522V12.9784L10.2632 15.1965ZM15.395 19.0157V23.2878L10.2632 15.9321L15.395 19.0157Z" fill="#585F71"/>
	<path d="M15.3945 18.1386L20.5264 15.2281L15.3945 12.9896V18.1386Z" fill="#191B20"/>
</svg>
