<svg width="187" height="33" viewBox="0 0 187 33" fill="none" xmlns="http://www.w3.org/2000/svg">
	<path fill-rule="evenodd" clip-rule="evenodd" d="M27.482 19.7195C26.9225 20.0833 26.2637 20.1284 25.763 19.8378C25.1269 19.4684 24.7771 18.6031 24.7771 17.3999V13.7996C24.7771 12.0611 24.1089 10.824 22.9916 10.49C21.0981 9.92254 19.6741 12.3058 19.1389 13.2008L15.7995 18.7706V11.9629C15.762 10.3966 15.2675 9.45973 14.3286 9.17722C13.7073 8.99049 12.7778 9.06534 11.8749 10.4868L4.39333 22.8449C3.39172 20.8888 2.86959 18.7108 2.87229 16.5C2.87229 9.05568 8.67164 2.99978 15.7995 2.99978C22.9275 2.99978 28.726 9.05568 28.726 16.5C28.726 16.5129 28.7291 16.5241 28.7299 16.5362C28.7299 16.5491 28.7276 16.5604 28.7284 16.5732C28.7957 18.0148 28.3418 19.1617 27.482 19.7203V19.7195ZM31.5983 16.5008V16.5V16.463L31.5975 16.426C31.5576 7.35981 24.4868 0 15.7988 0C7.088 0 0 7.40166 0 16.5C0 25.5975 7.08801 33 15.7995 33C19.797 33 23.6121 31.4369 26.5407 28.5997C27.1228 28.0363 27.1573 27.0874 26.6174 26.4805C26.4903 26.3363 26.3366 26.2197 26.1651 26.1375C25.9937 26.0553 25.808 26.009 25.619 26.0015C25.43 25.994 25.2414 26.0254 25.0643 26.0938C24.8873 26.1623 24.7252 26.2663 24.5878 26.4C22.2139 28.7124 19.0688 30.0008 15.7995 30.0002C11.9829 30.0002 8.54879 28.2625 6.18039 25.5066L12.9273 14.3622V19.4998C12.9273 21.9675 13.8576 22.7652 14.6376 22.9986C15.4185 23.232 16.6117 23.0726 17.8644 20.98L21.5754 14.7912C21.6943 14.5916 21.8039 14.4194 21.904 14.2705V17.3999C21.904 19.7066 22.8023 21.5514 24.3679 22.4601C25.7794 23.2795 27.5539 23.2054 28.9999 22.267C30.7525 21.128 31.6969 19.0297 31.5983 16.5008ZM53.5947 10.8634C53.9741 11.1009 54.3028 11.6289 54.3028 12.1046C54.3028 12.87 53.6706 13.5034 52.9625 13.5034C52.7856 13.5034 52.6088 13.4511 52.457 13.398C51.6222 12.7646 50.5604 12.342 49.4478 12.342C46.8189 12.342 44.9981 14.5594 44.9981 17.3049C44.9981 20.0511 46.8189 22.242 49.4478 22.242C50.7623 22.242 51.9258 21.6874 52.8107 20.8431C53.0393 20.6741 53.3131 20.5819 53.5947 20.5791C54.3028 20.5791 54.8591 21.1594 54.8591 21.8991C54.8591 22.374 54.5805 22.7966 54.2269 23.034C52.9625 24.1431 51.2435 24.882 49.4736 24.882C45.4285 24.882 42.1407 21.45 42.1407 17.226C42.1407 13.002 45.4277 9.57 49.4736 9.57C50.9908 9.57 52.4312 10.0449 53.5947 10.8634ZM60.9917 14.058C63.7474 14.058 66.0736 16.4606 66.0736 19.4169C66.0736 22.374 63.7474 24.882 60.9917 24.882C58.1093 24.882 55.7072 22.374 55.7072 19.4169C55.7072 16.4606 58.1093 14.058 60.9917 14.058ZM60.9659 22.242C62.1802 22.242 63.2162 21.054 63.2162 19.4434C63.2162 17.8337 62.1802 16.83 60.9659 16.83C59.6514 16.83 58.5639 17.8071 58.5639 19.4434C58.5639 21.054 59.6514 22.242 60.9659 22.242ZM67.8067 23.2449V15.6951C67.8067 14.8766 68.4389 14.19 69.2229 14.19C70.0069 14.19 70.6641 14.8766 70.6641 15.6951V23.2449C70.6641 24.0634 70.0069 24.75 69.2229 24.75C68.4389 24.75 67.8067 24.0634 67.8067 23.2449ZM67.5798 11.3391C67.5798 10.362 68.3121 9.57 69.2229 9.57C70.1579 9.57 70.9168 10.362 70.9168 11.3391C70.9168 12.2889 70.1579 13.0551 69.2229 13.0551C68.3121 13.0551 67.5798 12.2889 67.5798 11.3391ZM76.1395 19.1529V23.2449C76.1395 24.0634 75.4823 24.75 74.6975 24.75C73.9143 24.75 73.2813 24.0634 73.2813 23.2449V15.3514C73.2813 14.718 73.7875 14.19 74.3947 14.19C75.0011 14.19 75.4823 14.718 75.4823 15.3514C76.645 14.2431 77.6559 14.058 78.6167 14.058C81.4741 14.058 82.7385 16.2754 82.7385 18.7834V23.2449C82.7385 24.0634 82.0813 24.75 81.2973 24.75C80.5133 24.75 79.8811 24.0634 79.8811 23.2449V19.1529C79.8811 17.8594 79.7293 16.7769 77.9344 16.7769C76.67 16.7769 76.1387 17.8594 76.1387 19.1529H76.1395ZM92.0314 20.7111C91.7028 20.7111 91.4759 20.5526 91.2982 20.3409L87.9604 16.6191V23.2449C87.9604 24.0634 87.3032 24.75 86.5192 24.75C85.7352 24.75 85.103 24.0634 85.103 23.2449V10.1254C85.1439 10.0148 85.2169 9.91997 85.3121 9.85371C85.4073 9.78745 85.5201 9.75302 85.635 9.75512C85.887 9.75512 86.0889 9.9668 86.2414 10.1254L91.551 16.2762C91.7028 16.4614 91.9046 16.5668 92.0063 16.5668C92.1073 16.5668 92.3091 16.4614 92.4609 16.277L97.7713 10.1254C97.9231 9.9668 98.1249 9.75512 98.3776 9.75512C98.6304 9.75512 98.833 9.91368 98.9089 10.1254V23.2449C98.9089 24.0634 98.2767 24.75 97.4927 24.75C96.7087 24.75 96.0515 24.0634 96.0515 23.2449V16.6191L92.7144 20.3409C92.5368 20.5526 92.3091 20.7111 92.0314 20.7111ZM105.775 22.242C107.064 22.242 108.151 21.054 108.151 19.4434C108.151 17.8337 107.039 16.7769 105.775 16.7769C104.51 16.7769 103.499 17.8594 103.499 19.4434C103.499 21.0009 104.51 22.242 105.775 22.242ZM108.809 23.5886L108.757 23.2449C108.202 24.3798 106.431 24.882 105.294 24.882C102.613 24.882 100.641 22.374 100.641 19.4169C100.641 16.4606 102.664 14.058 105.445 14.058C105.926 14.058 107.519 14.19 108.757 15.6951L108.808 15.3514C108.808 14.718 109.289 14.19 109.896 14.19C110.502 14.19 111.008 14.718 111.008 15.3514V23.5886C111.008 24.222 110.502 24.75 109.895 24.75C109.289 24.75 108.807 24.222 108.807 23.5886H108.809ZM118.936 16.7769H118.633C116.837 16.8831 116.484 17.9391 116.484 19.1529V23.2449C116.484 24.0634 115.827 24.75 115.043 24.75C114.259 24.75 113.626 24.0634 113.626 23.2449V15.3514C113.626 14.718 114.132 14.19 114.739 14.19C115.346 14.19 115.827 14.718 115.827 15.3514C116.888 14.322 117.748 14.1111 118.633 14.058H118.911C119.594 14.058 120.225 14.6649 120.225 15.4311C120.225 16.1434 119.619 16.7769 118.936 16.7769ZM129.949 22.5591C130.075 22.77 130.151 23.0074 130.151 23.2714C130.151 24.0369 129.468 24.75 128.735 24.75C128.23 24.75 127.799 24.354 127.471 23.9314L124.184 19.998V23.2449C124.184 24.0634 123.526 24.75 122.742 24.75C121.958 24.75 121.326 24.0634 121.326 23.2449V11.2602C121.326 10.4409 121.958 9.75512 122.742 9.75512C123.526 9.75512 124.184 10.4409 124.184 11.2602V18.7311L127.471 14.982C127.799 14.586 128.204 14.19 128.71 14.19C129.418 14.19 130.075 14.8766 130.075 15.642C130.075 15.8794 130.024 16.1169 129.898 16.3286L127.294 19.2583L129.949 22.5583V22.5591ZM135.551 16.83C134.767 16.83 133.502 17.2526 133.502 18.4929H137.623C137.623 17.226 136.309 16.83 135.55 16.83H135.551ZM139.292 20.3674H133.502C133.502 22.1366 135.145 22.4006 135.879 22.4006C136.411 22.4006 137.169 22.2951 137.75 22.0303C137.927 21.8991 138.231 21.7929 138.483 21.7929C139.115 21.7929 139.646 22.3482 139.646 23.0082C139.646 23.4566 139.368 23.8526 139.015 24.0634C138.13 24.7234 136.991 24.882 135.904 24.882C133.022 24.882 130.62 23.2722 130.62 19.5489C130.62 16.6191 132.086 14.058 135.5 14.058C138.256 14.058 140.354 15.906 140.405 19.206C140.405 19.8394 139.899 20.3674 139.292 20.3674ZM147.246 24.882H146.462C144.287 24.882 143.023 23.9049 143.023 20.394V16.7769H142.29C141.607 16.7769 141 16.1434 141 15.4311C141 14.6649 141.607 14.058 142.29 14.058H143.023V11.2594C143.023 10.4409 143.655 9.75432 144.439 9.75432C145.222 9.75432 145.88 10.4409 145.88 11.2594V14.058H147.068C147.751 14.058 148.358 14.6649 148.358 15.4311C148.358 16.1434 147.751 16.7769 147.068 16.7769H145.88V19.8129C145.88 21.8194 145.981 22.242 146.841 22.242H147.246C147.928 22.242 148.509 22.8231 148.509 23.562C148.509 24.2751 147.928 24.882 147.246 24.882ZM161.09 10.8634C161.469 11.1009 161.798 11.6289 161.798 12.1046C161.798 12.87 161.166 13.5034 160.458 13.5034C160.281 13.5034 160.103 13.4511 159.952 13.398C159.117 12.7646 158.056 12.342 156.943 12.342C154.314 12.342 152.493 14.5594 152.493 17.3049C152.493 20.0511 154.313 22.242 156.943 22.242C158.258 22.242 159.421 21.6874 160.306 20.8431C160.535 20.6741 160.808 20.5819 161.09 20.5791C161.798 20.5791 162.354 21.1594 162.354 21.8991C162.354 22.374 162.076 22.7966 161.722 23.034C160.458 24.1431 158.738 24.882 156.968 24.882C152.923 24.882 149.636 21.45 149.636 17.226C149.636 13.002 152.922 9.57 156.968 9.57C158.486 9.57 159.926 10.0449 161.09 10.8634ZM168.335 22.242C169.625 22.242 170.711 21.054 170.711 19.4434C170.711 17.8337 169.599 16.7769 168.334 16.7769C167.071 16.7769 166.059 17.8594 166.059 19.4434C166.059 21.0009 167.071 22.242 168.334 22.242H168.335ZM171.369 23.5886L171.319 23.2449C170.762 24.3798 168.992 24.882 167.854 24.882C165.174 24.882 163.202 22.374 163.202 19.4169C163.202 16.4606 165.225 14.058 168.006 14.058C168.486 14.058 170.079 14.19 171.319 15.6951L171.369 15.3514C171.369 14.718 171.849 14.19 172.456 14.19C173.063 14.19 173.569 14.718 173.569 15.3514V23.5886C173.569 24.222 173.063 24.75 172.456 24.75C171.849 24.75 171.369 24.222 171.369 23.5886ZM181.421 22.242C182.685 22.242 183.696 21.0009 183.696 19.4434C183.696 17.8594 182.685 16.7769 181.421 16.7769C180.156 16.7769 179.044 17.8329 179.044 19.4434C179.044 21.054 180.131 22.242 181.421 22.242ZM179.044 24.0111V27.7594C179.044 28.578 178.386 29.2646 177.602 29.2646C176.819 29.2646 176.186 28.578 176.186 27.7594V15.3514C176.186 14.718 176.692 14.19 177.299 14.19C177.906 14.19 178.387 14.718 178.387 15.4569C179.448 14.322 180.763 14.058 181.749 14.058C184.531 14.058 186.553 16.4606 186.553 19.4169C186.553 22.374 184.582 24.882 181.901 24.882C181.067 24.882 179.827 24.618 179.044 24.0111Z" fill="white"/>
</svg>
