<svg width="152" height="41" viewBox="0 0 152 41" fill="none" xmlns="http://www.w3.org/2000/svg">
	<path d="M62.7037 17.779C62.2992 16.1607 61.2625 14.9976 59.2143 14.9976C56.2054 14.9976 54.9664 17.6525 54.9664 20.3328C54.9664 23.0131 56.2306 25.668 59.2143 25.668C61.3889 25.668 62.5773 24.0498 62.7796 22.0016H65.1817C64.9794 25.3646 62.6026 27.6656 59.2143 27.6656C55.0169 27.6656 52.5137 24.3279 52.5137 20.3328C52.5137 16.3377 55.0169 13 59.2143 13C62.375 13.0253 64.853 14.77 65.1564 17.779H62.7037ZM66.6483 22.2545C66.6483 19.1444 68.5194 16.9193 71.756 16.9193C74.9925 16.9193 76.8636 19.1444 76.8636 22.2545C76.8636 25.3646 74.9925 27.615 71.756 27.615C68.5194 27.615 66.6483 25.3646 66.6483 22.2545ZM74.6385 22.2545C74.6385 20.5098 73.7535 18.6892 71.756 18.6892C69.7584 18.6892 68.8734 20.5098 68.8734 22.2545C68.8734 23.9992 69.7584 25.845 71.756 25.845C73.7535 25.845 74.6385 24.0245 74.6385 22.2545ZM78.7853 13.3287H81.0105V15.4527H78.7853V13.3287ZM78.7853 17.1974H81.0105V27.3369H78.7853V17.1974ZM83.4631 17.1974H85.5871V18.6892L85.6377 18.7398C86.2951 17.6273 87.4835 16.9193 88.7984 16.9445C90.9982 16.9445 92.3889 18.133 92.3889 20.3834V27.3369H90.1638V20.9649C90.1132 19.372 89.5064 18.6892 88.1915 18.6892C86.6997 18.6892 85.7388 19.8524 85.7388 21.3442V27.3369H83.5137V17.1974H83.4631ZM107.257 27.3369H105.689L105.31 25.6933C103.995 27.1852 102.807 27.6656 101.087 27.6656C96.8898 27.6656 94.3865 24.3279 94.3865 20.3328C94.3865 16.3377 96.8898 13 101.087 13C104.147 13 106.726 14.6183 107.08 17.779H104.678C104.45 15.9331 102.832 14.9976 101.062 14.9976C98.0529 14.9976 96.8139 17.6525 96.8139 20.3328C96.8139 23.0131 98.0782 25.668 101.062 25.668C103.565 25.7186 104.956 24.2015 104.981 21.8247H101.264V19.9535H107.232L107.257 27.3369ZM111.353 22.8361C111.353 24.4291 112.213 25.845 114.084 25.845C115.373 25.845 116.157 25.2888 116.562 24.1509H118.686C118.205 26.376 116.309 27.615 114.084 27.615C110.898 27.615 109.128 25.3899 109.128 22.2798C109.128 19.3972 111.024 16.9193 114.033 16.9193C117.219 16.9193 119.192 19.8018 118.812 22.8361H111.353ZM116.562 21.3695C116.486 19.9535 115.525 18.6892 114.008 18.6892C112.466 18.6892 111.404 19.8524 111.328 21.3695H116.562ZM127.359 20.5857C127.182 19.3467 126.272 18.6892 125.033 18.6892C123.869 18.6892 122.251 19.2961 122.251 22.3809C122.251 24.0751 122.984 25.845 124.931 25.845C126.221 25.845 127.131 24.9853 127.334 23.5188H129.559C129.154 26.1485 127.536 27.5897 124.906 27.5897C121.72 27.5897 119.975 25.3393 119.975 22.3556C119.975 19.2961 121.644 16.894 124.982 16.894C127.334 16.894 129.331 18.0824 129.559 20.5604H127.359V20.5857ZM131.48 13.3287H133.705V21.2937L137.751 17.1974H140.507L136.613 20.9144L140.861 27.3369H138.13L135.02 22.4062L133.68 23.6958V27.3369H131.455V13.3287H131.48ZM141.468 22.2545C141.468 19.1444 143.339 16.9193 146.576 16.9193C149.838 16.9193 151.683 19.1444 151.683 22.2545C151.683 25.3646 149.812 27.615 146.576 27.615C143.339 27.615 141.468 25.3646 141.468 22.2545ZM149.484 22.2545C149.484 20.5098 148.599 18.6892 146.601 18.6892C144.604 18.6892 143.719 20.5098 143.719 22.2545C143.719 23.9992 144.604 25.845 146.601 25.845C148.599 25.845 149.484 24.0245 149.484 22.2545Z" fill="white"/>
	<path d="M40.0987 19.9756C40.124 28.0923 35.2944 35.4251 27.8099 38.5605C20.3254 41.6959 11.703 40.027 5.93794 34.3125C0.172838 28.598 -1.57186 19.9756 1.48768 12.4658C4.54723 4.95602 11.8547 0.0506246 19.9461 5.35902e-05C31.0465 -0.0252319 40.0481 8.90056 40.0987 19.9756Z" fill="#8DC63F"/>
	<path d="M38.6066 19.9759C38.6319 27.4857 34.1564 34.2622 27.2281 37.17C20.2999 40.0778 12.335 38.5101 6.99972 33.2507C1.66448 27.9661 0.0462027 20.0011 2.87818 13.0729C5.71016 6.11939 12.4614 1.59328 19.9459 1.54271C30.2118 1.49214 38.556 9.73522 38.6066 19.9759Z" fill="#F9E988"/>
	<path d="M20.4014 2.73081C21.5898 2.52853 22.7782 2.52853 23.9666 2.73081C25.155 2.90781 26.3182 3.31238 27.3802 3.86866C28.4422 4.45023 29.3524 5.23408 30.2627 5.96736C31.173 6.70064 32.0833 7.45921 32.943 8.29363C33.828 9.10277 34.5865 10.0383 35.2187 11.0498C35.8761 12.0612 36.4071 13.1484 36.8117 14.261C37.5955 16.5367 37.8484 18.9894 37.4691 21.3157H37.3427C36.9634 18.9894 36.4324 16.7896 35.598 14.6909C35.2187 13.6289 34.7383 12.5922 34.2325 11.606C33.6763 10.6199 33.0947 9.63376 32.4373 8.72348C31.7799 7.78792 30.9454 6.9535 30.0099 6.27079C29.0743 5.58808 27.987 5.15823 26.9503 4.75366C25.9136 4.34909 24.8516 3.91924 23.7643 3.59052C22.6771 3.2871 21.5645 3.03424 20.4014 2.80667V2.73081Z" fill="white"/>
	<path d="M29.453 13.4267C28.1129 13.0474 26.7222 12.4911 25.3062 11.9349C25.2304 11.5809 24.9017 11.151 24.2695 10.5947C23.3592 9.78558 21.6145 9.81087 20.1227 10.1649C18.4791 9.78559 16.8356 9.63387 15.2679 10.0132C2.44812 13.5531 9.70506 22.1502 5.00195 30.8231C5.65938 32.2391 12.891 40.5328 23.334 38.3076C23.334 38.3076 19.7687 29.7359 27.8348 25.6143C34.3837 22.2766 39.0868 16.0564 29.453 13.4267Z" fill="#8BC53F"/>
	<path d="M20.123 10.1648C21.0586 10.2407 24.4469 11.328 25.3066 11.9348C24.5733 9.8361 22.1459 9.55796 20.123 10.1648Z" fill="#009345"/>
	<path d="M31.0466 19.0654C31.0466 19.7481 30.2122 20.1021 29.7318 19.6216C29.2514 19.1412 29.5801 18.3068 30.2628 18.2815C30.6926 18.3068 31.0466 18.6355 31.0466 19.0654ZM21.0083 15.5001C21.0083 16.9414 20.1233 18.2562 18.7832 18.8125C17.443 19.3688 15.9006 19.0654 14.8639 18.0287C13.8272 16.992 13.5238 15.4495 14.0801 14.1094C14.6363 12.7693 15.9512 11.8843 17.3925 11.8843C18.3533 11.8843 19.2636 12.2636 19.921 12.921C20.629 13.629 21.0083 14.5393 21.0083 15.5001Z" fill="white"/>
	<path d="M19.9463 15.5255C19.9463 16.5369 19.3395 17.4725 18.3786 17.8518C17.4431 18.2311 16.3558 18.0288 15.6225 17.2955C14.8892 16.5622 14.6869 15.5002 15.0662 14.5394C15.4455 13.6038 16.3811 12.9717 17.3925 12.9717C18.8085 12.997 19.9463 14.1348 19.9463 15.5255Z" fill="#58595B"/>
	<path d="M33.954 20.6585C31.0462 22.7067 27.7338 24.2491 23.0559 24.2491C20.8561 24.2491 20.4263 21.9228 18.9597 23.0606C18.2011 23.6422 15.5714 24.9571 13.4727 24.8812C11.374 24.7801 7.98578 23.5411 7.05022 19.0908C6.67093 23.5664 6.49393 26.8535 4.7998 30.621C8.13749 35.9815 16.1024 40.1031 23.3341 38.3331C22.5502 32.8967 27.3039 27.5868 29.9589 24.8812C30.9956 23.8192 32.9426 22.1504 33.954 20.6585Z" fill="#8BC53F"/>
	<path d="M33.8276 20.7847C32.9173 21.6191 31.8553 22.2259 30.768 22.7569C29.6554 23.2879 28.5176 23.6925 27.3292 24.0212C26.1408 24.3246 24.9018 24.5522 23.6628 24.4511C22.3985 24.3499 21.1342 23.9201 20.2998 22.9845L20.3504 22.9339C21.3618 23.5914 22.5502 23.8189 23.7133 23.8695C24.9018 23.8948 26.0902 23.8189 27.2533 23.5914C28.4165 23.3385 29.5796 22.9845 30.6922 22.5294C31.8047 22.0742 32.892 21.5432 33.8528 20.7847H33.8276Z" fill="#58595B"/>
</svg>
