<svg width="152" height="30" viewBox="0 0 152 30" fill="none" xmlns="http://www.w3.org/2000/svg">
	<path fill-rule="evenodd" clip-rule="evenodd" d="M0 14.6281C0 6.51615 6.36148 0 14.2809 0C22.0704 0 28.4319 6.51615 28.5617 14.6281C28.5617 22.74 22.2003 29.2562 14.2809 29.2562C6.36148 29.2562 0 22.74 0 14.6281ZM16.2283 18.4846C16.2283 17.8197 15.9686 17.4207 15.5791 17.0218C14.93 16.3569 14.6704 15.559 14.6704 14.6281C14.6704 13.5642 15.0598 12.7663 15.5791 12.1014C15.9686 11.7025 16.2283 11.1705 16.2283 10.6386C16.2283 9.57476 15.3195 8.64388 14.2809 8.64388C13.2423 8.64388 12.3335 9.57476 12.3335 10.6386C12.3335 11.3035 12.5931 11.8355 12.9826 12.2344C13.6317 12.8993 13.8914 13.6972 13.8914 14.6281C13.8914 15.559 13.5019 16.3569 12.9826 17.0218C12.933 17.0726 12.8834 17.104 12.8411 17.1308C12.7725 17.1742 12.723 17.2056 12.723 17.2878C12.0738 17.9527 11.2949 18.2186 10.3861 18.2186C9.47731 18.2186 8.69835 17.8197 8.04922 17.2878L7.91939 17.1548C7.40009 16.4899 7.01061 15.559 7.01061 14.6281C7.01061 13.6972 7.40009 12.7663 7.91939 12.1014C8.30887 11.7025 8.56852 11.1705 8.56852 10.6386C8.56852 9.57476 7.78957 8.64388 6.75096 8.64388C5.71235 8.64388 4.80357 9.57476 4.80357 10.6386C4.80357 11.3035 5.06322 11.8355 5.32287 12.2344C5.972 12.8993 6.23165 13.6972 6.23165 14.6281C6.23165 15.559 5.84218 16.3569 5.32287 17.0218L5.19304 17.1548C5.19304 17.2878 5.19304 17.2878 4.93339 17.2878V17.4207C4.80357 17.4207 4.80357 17.5537 4.80357 17.5537C4.80357 17.6202 4.77111 17.6867 4.73865 17.7532C4.7062 17.8197 4.67374 17.8862 4.67374 17.9527C4.54391 18.0856 4.54391 18.2186 4.54391 18.4846C4.54391 18.5511 4.57637 18.6508 4.60883 18.7506C4.64128 18.8503 4.67374 18.95 4.67374 19.0165C4.67374 19.083 4.7062 19.1495 4.73865 19.216C4.77111 19.2825 4.80357 19.349 4.80357 19.4155L4.93339 19.5485V19.6814L5.19304 19.9474C5.58252 20.3464 5.972 20.4793 6.49131 20.4793C7.01061 20.4793 7.40009 20.2134 7.78957 19.9474L7.91939 19.8144C8.56852 19.2825 9.34748 18.8835 10.3861 18.8835C11.4247 18.8835 12.2037 19.2825 12.8528 19.8144C13.2423 20.2134 13.7616 20.4793 14.2809 20.4793C15.3195 20.4793 16.2283 19.5485 16.2283 18.4846ZM16.0984 14.4951C16.0984 15.559 17.0072 16.4899 18.0458 16.4899C19.0844 16.4899 19.9932 15.692 19.9932 14.4951C19.9932 13.4313 19.0844 12.5004 18.0458 12.5004C17.0072 12.5004 16.0984 13.4313 16.0984 14.4951ZM23.3687 17.2878C23.3687 17.2878 23.2389 17.2878 23.109 17.0218C22.5897 16.3569 22.2003 15.559 22.2003 14.7611C22.2003 13.6972 22.5897 12.8993 23.109 12.2344C23.4985 11.8355 23.7582 11.3035 23.7582 10.7716C23.7582 9.70774 22.8494 8.77686 21.8108 8.77686C20.7722 8.77686 19.8634 9.70774 19.8634 10.7716C19.8634 11.3035 20.123 11.8355 20.5125 12.2344C21.1617 12.8993 21.4213 13.6972 21.4213 14.6281C21.4213 15.559 21.0318 16.3569 20.5125 17.0218L20.3827 17.1548L20.2529 17.2878V17.4207C20.123 17.4207 20.123 17.5537 20.123 17.5537C20.123 17.6202 20.0906 17.6867 20.0581 17.7532C20.0257 17.8197 19.9932 17.8862 19.9932 17.9527C19.8634 18.0856 19.8634 18.2186 19.8634 18.4846C19.8634 18.5511 19.8959 18.6508 19.9283 18.7506C19.9608 18.8503 19.9932 18.95 19.9932 19.0165C19.9932 19.083 20.0257 19.1495 20.0581 19.216C20.0906 19.2825 20.123 19.349 20.123 19.4155L20.2529 19.5485V19.6814L20.5125 19.9474C20.902 20.3464 21.2915 20.4793 21.8108 20.4793C22.3301 20.4793 22.7196 20.2134 23.109 19.9474L23.3687 19.6814V19.5485C23.4985 19.5485 23.4985 19.4155 23.4985 19.4155C23.4985 19.349 23.531 19.2825 23.5634 19.216C23.5959 19.1495 23.6284 19.083 23.6284 19.0165C23.7582 18.8835 23.7582 18.7506 23.7582 18.4846C23.7582 18.4181 23.7257 18.3184 23.6933 18.2187L23.6933 18.2187L23.6933 18.2186C23.6608 18.1189 23.6284 18.0192 23.6284 17.9527C23.6284 17.8862 23.5959 17.8197 23.5634 17.7532C23.531 17.6867 23.4985 17.6202 23.4985 17.5537L23.3687 17.4207V17.2878ZM40.8955 3.59062V25.5328H55.9553V21.1443H46.3482V3.59062H40.8955ZM151.117 25.5328L140.471 14.6282L151.117 3.7236H143.328L136.577 10.6387V3.59062H131.124V25.5328H136.577V18.6177L143.328 25.5328H151.117ZM87.6332 25.5327L88.9315 21.2773L90.0999 17.1548L92.9561 7.97901L95.6825 17.1548L96.9807 21.2773L98.279 25.5327H103.991L96.5913 3.59058H89.321L81.9209 25.5327H87.6332ZM112.819 11.1706V25.5327H107.626V3.59058H114.377L122.426 18.6176V3.59058H127.619V25.5327H120.868L112.819 11.1706ZM76.8576 15.2931C77.2471 15.825 77.6366 16.3569 77.8962 17.0218C78.1559 17.8197 78.2857 18.6176 78.1559 19.5485C78.1559 21.4103 77.6366 22.8731 76.4682 23.9369C75.2997 25.0008 73.7418 25.5327 71.5348 25.5327H64.9136H61.9276H59.4609V3.59058H61.9276H64.9136H70.7558C72.0541 3.59058 73.0927 3.72356 74.0015 3.98952C74.9102 4.25549 75.5594 4.65444 76.0787 5.18637C76.7278 5.7183 76.9875 6.25023 77.2471 6.91514L77.2471 6.91526C77.377 7.58014 77.5068 8.24501 77.5068 8.90988C77.5068 9.5748 77.5068 10.2397 77.2471 10.7716C77.1173 11.4366 76.8576 11.8355 76.4682 12.2345C76.0787 12.6334 75.6892 12.8994 75.1699 13.1653C74.6506 13.4313 74.1313 13.5643 73.612 13.6973C73.6963 13.7188 73.784 13.7404 73.8739 13.7626C74.3385 13.8769 74.8647 14.0064 75.2997 14.2292C75.9489 14.4952 76.4682 14.8941 76.8576 15.2931ZM70.7558 7.18111H65.0435V12.1015H70.7558C71.7944 12.1015 72.5734 11.9685 72.9629 11.4366C73.3523 11.0376 73.612 10.3727 73.612 9.70778C73.612 9.30883 73.612 9.04287 73.4822 8.7769C73.3523 8.51094 73.2225 8.24497 72.9629 7.97901C72.7032 7.71304 72.4436 7.58006 72.0541 7.44707C71.6646 7.31409 71.2751 7.18111 70.7558 7.18111ZM71.4049 21.5432C72.4436 21.5432 73.2225 21.4103 73.612 20.8783C74.1313 20.4794 74.2611 19.8145 74.2611 19.1496C74.2611 18.7506 74.2611 18.4846 74.1313 18.2187C74.0015 17.9527 73.8716 17.6867 73.612 17.4208C73.3523 17.1548 73.0927 17.0218 72.7032 16.8888C72.3137 16.7559 71.9242 16.6229 71.4049 16.6229H65.0435V21.5432H71.4049Z" fill="#191B20"/>
</svg>
