<svg width="206" height="26" viewBox="0 0 206 26" fill="none" xmlns="http://www.w3.org/2000/svg">
	<path d="M40.2962 17.7947L31.4398 2.40643C29.4982 -0.800874 24.7634 -0.834996 22.8899 2.5429L13.5908 18.5453C11.8535 21.4797 13.9995 25.1646 17.474 25.1646H36.1064C39.6149 25.1646 42.2378 21.3772 40.2962 17.7947Z" fill="#00B897"/>
	<path d="M27.5231 18.989L26.9781 18.0336C26.4672 17.1464 25.3431 15.2357 25.3431 15.2357L17.8492 2.20183C15.9076 -0.698397 11.3092 -0.93724 9.36757 2.71363L0.647452 17.8289C-1.15789 21.002 0.988081 25.1306 4.90533 25.1648H23.4355H31.3382H36.0389C31.236 25.1989 29.7032 22.708 27.5231 18.989Z" fill="#76FCB2"/>
	<path d="M204.535 23.9702C203.274 23.9702 202.286 23.6973 201.538 23.2196C200.753 22.7078 200.345 21.957 200.345 20.9335V6.05707H202.321C203.036 6.05707 203.649 6.63711 203.649 7.38775V20.4899C203.649 20.5241 203.649 21.1382 204.16 21.65C204.466 21.957 204.841 22.1277 205.352 22.1277H205.727C205.864 22.1277 205.999 22.2642 205.999 22.4006V24.0043L204.535 23.9702Z" fill="#00B897"/>
	<path d="M161.957 23.9699C159.913 23.9699 158.244 23.424 156.983 22.3321C156.337 21.7862 155.894 21.172 155.621 20.4895C155.349 19.8072 155.212 18.8176 155.212 17.487C155.212 16.1905 155.349 15.1668 155.621 14.4844C155.86 13.8362 156.302 13.256 156.95 12.7101C158.209 11.6183 159.878 11.0724 161.922 11.0724C163.966 11.0724 165.635 11.6183 166.896 12.7101C167.544 13.256 167.986 13.8703 168.224 14.4844C168.497 15.2009 168.633 16.1905 168.633 17.487C168.633 18.8176 168.497 19.8072 168.224 20.4895C167.952 21.172 167.509 21.7862 166.861 22.3321C165.67 23.424 164.001 23.9699 161.957 23.9699ZM161.957 12.949C159.708 12.949 158.584 14.4844 158.584 17.5211C158.584 20.592 159.708 22.1273 161.957 22.1273C164.204 22.1273 165.329 20.592 165.329 17.5552C165.329 14.4844 164.171 12.949 161.957 12.949Z" fill="#00B897"/>
	<path d="M176.058 23.9702C174.287 23.9702 172.652 23.4925 171.256 22.5712C171.119 22.4347 170.846 22.2642 170.506 22.0594C170.438 22.0253 170.37 21.9229 170.37 21.8206V6.05701H172.38C173.095 6.05701 173.708 6.67117 173.708 7.38769V11.9939L174.321 11.6527C175.037 11.2774 175.99 11.1068 177.216 11.1068C179.363 11.1068 180.997 11.7551 182.087 13.0175C183.041 14.1435 183.518 15.6448 183.518 17.4873C183.518 19.3298 182.973 20.8311 181.883 21.9229C180.622 23.2877 178.647 23.9702 176.058 23.9702ZM176.398 12.9493C175.65 12.9493 174.797 13.2222 173.844 13.8023L173.708 13.8706V21.2747L173.844 21.377C174.594 21.8547 175.479 22.0935 176.398 22.0935C177.625 22.0935 178.579 21.5817 179.226 20.5581C179.771 19.7392 180.078 18.6815 180.078 17.4873C180.078 14.4846 178.817 12.9493 176.398 12.9493Z" fill="#00B897"/>
	<path d="M191.387 23.9358C187.64 23.9358 185.29 21.4791 185.29 17.487C185.29 13.5291 187.605 11.0724 191.318 11.0724C192.749 11.0724 193.975 11.4477 194.963 12.1642L195.168 12.3007V11.3112H197.791C197.961 11.3112 198.063 11.4477 198.063 11.5842V23.6969H195.134V22.605L194.929 22.7756C194.112 23.5263 192.817 23.9358 191.387 23.9358ZM192.068 13.256C189.717 13.256 188.321 15.0645 188.321 17.487C188.321 19.9095 189.717 21.7862 192.068 21.7862C192.817 21.7862 194.112 21.718 195.134 20.6943L195.168 20.6602V14.4503L195.134 14.4161C194.418 13.5973 193.362 13.256 192.068 13.256Z" fill="#00B897"/>
	<path d="M70.3613 23.7993V6.02264H85.1106V7.14862C85.1106 8.03573 84.3952 8.75226 83.5097 8.75226H74.0401V13.5291H83.5097V16.2588H74.0401V21.0355H83.5097C84.3952 21.0355 85.1106 21.752 85.1106 22.6392V23.7652L70.3613 23.7993Z" fill="#191B20"/>
	<path d="M106.298 6.02252H102.823C102.176 6.02252 101.597 6.29548 101.188 6.80728L96.9985 12.0959L92.8086 6.84141C92.4 6.32961 91.8208 6.05664 91.1737 6.05664H87.6992L94.7502 14.9279L87.6992 23.7992H91.1737C91.8208 23.7992 92.4 23.5262 92.8086 23.0144L96.9985 17.7599L101.222 23.0485C101.631 23.5262 102.21 23.8333 102.857 23.8333H106.332L99.2806 14.962L106.298 6.02252Z" fill="#191B20"/>
	<path d="M58.8145 21.924L63.6514 13.4622V23.7665H67.3303V5.98987H65.048C64.3327 5.98987 63.6514 6.36518 63.3108 7.01347L57.5201 17.5907L51.7294 7.01347C51.3887 6.36518 50.7074 5.98987 49.9921 5.98987H47.71V23.7665H51.3887V13.4622L56.2257 21.924H58.8145Z" fill="#191B20"/>
	<path d="M115.903 24.0044C110.793 24.0726 106.638 20.0464 106.604 14.9283C106.604 12.1305 107.455 9.81031 109.056 8.20666C110.657 6.63713 112.973 5.78412 115.732 5.78412C118.968 5.78412 121.523 6.91009 123.362 9.09379L122.204 10.0833C121.489 10.6974 120.433 10.7316 119.65 10.1515C118.628 9.36675 117.333 8.99142 115.869 8.99142C112.258 8.99142 110.112 11.1751 110.112 14.8601C110.112 18.5792 112.326 20.8653 115.869 20.8653C117.367 20.8653 118.628 20.4558 119.65 19.7052C120.399 19.1251 121.455 19.1593 122.204 19.7734L123.362 20.7629C121.523 22.9125 119.071 24.0044 115.903 24.0044Z" fill="#191B20"/>
	<path d="M138.555 24.0042C132.833 24.0042 129.29 20.5239 129.29 14.9281C129.29 9.33246 132.833 5.8522 138.487 5.8522C141.212 5.8522 143.494 6.63696 145.266 8.24062L144.414 9.19599C144.039 9.60543 143.494 9.84428 142.949 9.84428C142.643 9.84428 142.336 9.77603 142.063 9.63955C141.007 9.09362 139.781 8.82066 138.487 8.82066C134.808 8.82066 132.526 11.175 132.526 14.9624C132.526 18.7837 134.91 21.138 138.725 21.138C140.565 21.138 141.995 20.7969 143.051 20.0463L143.119 20.0122V16.3612H139.066V15.167C139.066 14.2799 139.781 13.5634 140.667 13.5634H145.674C145.811 13.5634 145.946 13.6998 145.946 13.8363V21.7182C144.21 23.2194 141.723 24.0042 138.555 24.0042Z" fill="#00B897"/>
	<path d="M152.521 23.9703C151.261 23.9703 150.273 23.6973 149.524 23.2196C148.741 22.7079 148.331 21.9571 148.331 20.9335V6.05713H150.307C151.023 6.05713 151.636 6.63717 151.636 7.38782V20.4899C151.636 20.5242 151.636 21.1383 152.146 21.6501C152.454 21.9571 152.827 22.1277 153.338 22.1277H153.713C153.85 22.1277 153.986 22.2643 153.986 22.4007V24.0044L152.521 23.9703Z" fill="#00B897"/>
</svg>
