<svg width="161" height="37" viewBox="0 0 161 37" fill="none" xmlns="http://www.w3.org/2000/svg">
	<mask id="mask0_7242_72354" style="mask-type:alpha" maskUnits="userSpaceOnUse" x="0" y="0" width="161" height="37">
		<path d="M0 0H160.292V36.7068H0V0Z" fill="white"/>
	</mask>
	<g mask="url(#mask0_7242_72354)">
		<path fill-rule="evenodd" clip-rule="evenodd" d="M132.7 10.9088H137.253V6.35547H132.7V10.9088ZM108.504 18.4915C109.374 16.1844 111.602 14.5417 114.214 14.5417C116.825 14.5417 119.053 16.1844 119.923 18.4915H108.504ZM114.214 10.3083C108.508 10.3083 103.88 14.9358 103.88 20.6444C103.88 26.353 108.508 30.9797 114.214 30.9797C118.129 30.9797 121.536 28.8021 123.289 25.5922L119.471 23.7393C118.41 25.5385 116.453 26.7463 114.214 26.7463C111.384 26.7463 109.005 24.8196 108.315 22.2063H120.112C120.111 22.2082 120.11 22.2109 120.11 22.2132H124.43C124.509 21.7014 124.549 21.1775 124.549 20.6444C124.549 14.9358 119.922 10.3083 114.214 10.3083ZM125.749 30.4288H130.301V25.8755H125.749V30.4288ZM132.7 30.4288H137.253V12.9105H132.7V30.4288ZM149.959 26.7463C146.589 26.7463 143.858 24.0142 143.858 20.6444C143.858 17.2738 146.589 14.5417 149.959 14.5417C153.328 14.5417 156.059 17.2738 156.059 20.6444C156.059 24.0142 153.328 26.7463 149.959 26.7463ZM149.957 10.3083C144.251 10.3083 139.623 14.9358 139.623 20.6444C139.623 26.353 144.251 30.9797 149.957 30.9797C155.665 30.9797 160.292 26.353 160.292 20.6444C160.292 14.9358 155.665 10.3083 149.957 10.3083ZM54.7802 16.8344V21.5423H61.1453C60.8129 22.8875 60.1559 24.0931 59.2137 25.056C57.7926 26.5087 55.8221 27.3091 53.6648 27.3091C49.1883 27.3091 45.5459 23.6662 45.5459 19.1883C45.5459 14.7104 49.1883 11.0672 53.6648 11.0672C56.0627 11.0672 58.2669 12.0937 59.795 13.8643L63.4393 10.8859C61.0231 8.05372 57.4382 6.3589 53.6648 6.3589C46.5928 6.3589 40.8391 12.1143 40.8391 19.1883C40.8391 26.2623 46.5928 32.0174 53.6648 32.0174C57.0986 32.0174 60.264 30.7798 62.5782 28.4145C64.5201 26.4291 65.8072 23.6597 66.0546 20.8854C66.1753 19.5322 66.1863 18.188 66.1151 16.8344H54.7802ZM77.967 26.7474C74.5976 26.7474 71.8658 24.0146 71.8658 20.6444C71.8658 17.2734 74.5976 14.5413 77.967 14.5413C81.3368 14.5413 84.0686 17.2734 84.0686 20.6444C84.0686 24.0146 81.3368 26.7474 77.967 26.7474ZM84.0694 12.3226C82.359 11.0683 80.25 10.3258 77.967 10.3258C72.2609 10.3258 67.6352 14.953 67.6352 20.6604C67.6352 26.3686 72.2609 30.995 77.967 30.995C80.25 30.995 82.359 30.2528 84.0694 28.9986V30.4288H88.2992V10.8924H84.0694V12.3226ZM97.3793 6.35585H93.1491V10.9088H90.6138V14.9019H93.1491V25.3519C93.1491 26.431 93.2847 27.3388 93.5534 28.0512C93.8184 28.756 94.2234 29.3078 94.705 29.7388C95.193 30.1763 95.7656 30.5171 96.4444 30.7105C97.1342 30.9047 97.8952 30.9797 98.6995 30.9797C99.5321 30.9797 100.274 30.8933 100.908 30.7223C101.496 30.5643 102.06 30.3408 102.584 30.0567V26.8392C101.75 27.2002 100.97 27.3308 100.08 27.3723C99.1404 27.4165 98.5846 27.148 98.122 26.7071C97.6374 26.2452 97.3793 25.6432 97.3793 24.6334V14.9019H102.584V10.9088H97.3793V6.35585Z" fill="black"/>
		<path fill-rule="evenodd" clip-rule="evenodd" d="M18.3494 28.4476C12.7758 28.4476 8.25746 23.9286 8.25746 18.3533C8.25746 12.7783 12.7758 8.25856 18.3494 8.25856V-0.000427246C8.2152 -0.000427246 0 8.21667 0 18.3533C0 28.4895 8.2152 36.7066 18.3494 36.7066C28.4833 36.7066 36.6989 28.4895 36.6989 18.3533H28.4414C28.4414 23.9286 23.9231 28.4476 18.3494 28.4476Z" fill="#2354E6"/>
		<path fill-rule="evenodd" clip-rule="evenodd" d="M18.3496 18.3532H28.4416V8.25885H18.3496V18.3532Z" fill="#17E6A1"/>
	</g>
</svg>
