<svg width="156" height="29" viewBox="0 0 156 29" fill="none" xmlns="http://www.w3.org/2000/svg">
	<path fill-rule="evenodd" clip-rule="evenodd" d="M18.2007 0.276917C20.459 0.276917 22.8304 0.933366 24.8629 2.13686C22.6045 3.9968 21.4754 6.6226 21.2496 9.46722C21.0237 12.3118 22.04 15.1564 23.9596 17.2352C20.3462 20.2986 14.9261 20.2986 11.3127 17.2352C13.2323 15.1564 14.2486 12.3118 14.0227 9.46722C13.9098 6.6226 12.5548 3.9968 10.2964 2.13686C12.329 1.04277 14.7002 0.386325 17.0716 0.276917V5.74732H18.2007V0.276917ZM2.95678 8.37313C1.37591 7.60728 0.472567 5.96615 0.698404 4.21562C0.92424 2.46509 2.05342 1.04278 3.7472 0.605144C5.44097 0.0581028 7.24767 0.605144 8.37685 1.91805C6.00556 3.55916 4.08595 5.74734 2.95678 8.37313ZM34.2351 4.21562C34.4609 5.96615 33.5575 7.60728 31.9767 8.37313C30.8475 5.74734 28.928 3.55916 26.5567 1.91805C27.6859 0.605144 29.4925 0.0581028 31.1863 0.605144C32.8801 1.04278 34.0092 2.46509 34.2351 4.21562ZM25.7663 2.9027C23.8466 4.32501 22.4917 6.51318 22.1528 8.92015H30.8476C29.8313 6.51318 28.0246 4.43442 25.7663 2.9027ZM22.1529 10.0142H31.2993C31.9767 12.093 32.2026 14.2812 31.9767 16.3599H31.8639C30.1701 16.3599 28.4763 15.7035 27.3472 14.5C27.2342 14.8282 27.0084 15.1564 26.7825 15.4847C28.1376 16.6881 29.9442 17.3446 31.751 17.3446C31.638 18.001 31.4122 18.7669 31.0735 19.4233C26.1051 19.0951 22.04 15.047 22.04 10.1236C22.0967 10.1236 22.1249 10.1236 22.1389 10.1098C22.1529 10.0961 22.1529 10.0687 22.1529 10.0142ZM24.637 18.1105C22.7175 19.6422 20.459 20.6268 17.9748 20.7363C17.9748 23.581 19.3299 26.3161 21.8141 28.1761C25.6534 26.9726 28.928 24.3467 30.7346 20.7363C28.4763 20.5174 26.3308 19.5328 24.637 18.1105ZM9.05433 2.9027C10.9739 4.32501 12.329 6.51318 12.6677 8.92015H3.973C4.98926 6.51318 6.79597 4.43442 9.05433 2.9027ZM12.7806 10.0142H3.63424C2.95674 12.093 2.73091 14.2812 2.95674 16.3599H3.06965C4.76343 16.3599 6.45721 15.7035 7.58639 14.5C7.69931 14.8282 7.92514 15.1564 8.15099 15.4847C6.79597 16.6881 4.98926 17.3446 3.18257 17.3446C3.2955 18.001 3.52133 18.7669 3.86009 19.4233C8.82849 19.0951 12.8936 15.047 12.8936 10.1236C12.8369 10.1236 12.8086 10.1236 12.7946 10.1098C12.7806 10.0961 12.7806 10.0687 12.7806 10.0142ZM10.2965 18.1105C12.2161 19.6422 14.4745 20.6268 16.9587 20.7363C16.9587 23.581 15.6036 26.3161 13.1194 28.1761C9.28023 26.9726 6.0056 24.3467 4.19891 20.7363C6.45727 20.5174 8.60272 19.5328 10.2965 18.1105ZM17.4103 24.0184C16.8457 25.6597 15.8295 27.1914 14.4744 28.3949C16.394 28.8325 18.3137 28.8325 20.2333 28.3949C19.1041 27.1914 18.0878 25.7691 17.4103 24.0184Z" fill="url(#paint0_linear_7242_72386)"/>
	<path d="M53.4136 20.3078C52.5687 20.7107 51.265 20.9715 49.9614 20.9715C46.0262 20.9715 43.7328 18.4825 43.7328 14.5711C43.7328 10.399 46.2677 8.00477 50.0821 8.00477C51.434 8.00477 52.5687 8.28923 53.3412 8.66851L53.8723 6.96174C53.3171 6.70098 52.0134 6.27429 50.0096 6.27429C44.964 6.27429 41.5117 9.64042 41.5117 14.6422C41.5117 19.8811 44.9399 22.7257 49.5268 22.7257C51.5064 22.7257 53.0757 22.3464 53.8241 21.9671L53.4136 20.3078Z" fill="#191B20"/>
	<path d="M62.3372 22.7494C66.4654 22.7494 69.8694 19.81 69.8694 14.3341C69.8694 9.59303 66.9965 6.25061 62.5303 6.25061C58.1848 6.25061 54.998 9.56933 54.998 14.6422C54.998 19.4781 57.9916 22.7494 62.313 22.7494H62.3372ZM62.4096 21.0663C59.1022 21.0663 57.2191 17.961 57.2191 14.5948C57.2191 11.1339 58.9573 7.93367 62.4579 7.93367C65.9584 7.93367 67.6484 11.2524 67.6484 14.4289C67.6484 18.0558 65.7653 21.0663 62.4337 21.0663H62.4096Z" fill="#191B20"/>
	<path d="M72.584 6.51129V22.4886H74.7085V6.51129H72.584Z" fill="#191B20"/>
	<path d="M80.3634 22.4886V15.6616C80.3634 13.0066 80.3393 11.0864 80.2186 9.07151L80.291 9.0478C81.0877 10.7783 82.1741 12.6036 83.3087 14.3815L88.4751 22.4886H90.5996V6.51135H88.6199V13.2199C88.6199 15.6853 88.6682 17.6291 88.8613 19.7625L88.7889 19.7862C88.0405 18.1506 87.0749 16.4675 85.8919 14.5948L80.7014 6.51135H78.3838V22.4886H80.3634Z" fill="#191B20"/>
	<path d="M97.1956 22.4886H100.865V9.54561H105.307V6.51135H92.8018V9.54561H97.1956V22.4886Z" fill="#191B20"/>
	<path d="M107.283 6.51135V22.4886H110.953V6.51135H107.283Z" fill="#191B20"/>
	<path d="M127.735 13.3384H121.676V16.1593H124.187V19.5255C123.897 19.644 123.221 19.7388 122.4 19.7388C119.383 19.7388 117.258 17.8187 117.258 14.5C117.258 11.039 119.6 9.33224 122.666 9.33224C124.452 9.33224 125.538 9.61671 126.432 10.0197L127.204 7.10396C126.408 6.74839 124.79 6.3454 122.69 6.3454C117.355 6.3454 113.42 9.37965 113.396 14.6896C113.396 17.0364 114.216 19.1225 115.689 20.5211C117.186 21.9197 119.334 22.6545 122.303 22.6545C124.452 22.6545 126.601 22.133 127.735 21.7538V13.3384Z" fill="#191B20"/>
	<path d="M140.28 12.7932H134.293V9.47449H140.642V6.51135H130.623V22.4886H140.98V19.5255H134.293V15.7327H140.28V12.7932Z" fill="#191B20"/>
	<path d="M143.495 22.4886H147.141V16.2068H148.227C149.748 16.2305 150.448 16.752 150.907 18.7669C151.365 20.7345 151.776 22.0145 152.017 22.4886H155.783C155.469 21.8723 154.987 19.7862 154.48 17.9609C154.069 16.4912 153.442 15.4482 152.307 14.9978V14.9267C153.707 14.4289 155.18 13.0303 155.18 11.0153C155.18 9.54561 154.649 8.43146 153.659 7.6729C152.5 6.7484 150.81 6.39282 148.396 6.39282C146.416 6.39282 144.678 6.53505 143.495 6.7484V22.4886ZM147.141 9.21373C147.406 9.14262 147.913 9.09521 148.806 9.09521C150.496 9.09521 151.51 9.85377 151.51 11.2998C151.51 12.6984 150.424 13.5992 148.589 13.5992H147.141V9.21373Z" fill="#191B20"/>
	<defs>
		<linearGradient id="paint0_linear_7242_72386" x1="-8.72476" y1="13.4028" x2="11.3649" y2="45.5422" gradientUnits="userSpaceOnUse">
			<stop stop-color="#DA396C"/>
			<stop offset="0.04" stop-color="#D23B70"/>
			<stop offset="0.39" stop-color="#7C5E94"/>
			<stop offset="0.69" stop-color="#3B78AE"/>
			<stop offset="0.89" stop-color="#2088BC"/>
			<stop offset="1" stop-color="#1B8EC1"/>
		</linearGradient>
	</defs>
</svg>
