<svg width="158" height="38" viewBox="0 0 158 38" fill="none" xmlns="http://www.w3.org/2000/svg">
	<g clip-path="url(#clip0_7242_72344)">
		<path fill-rule="evenodd" clip-rule="evenodd" d="M0.611984 0.748776C4.55866 5.42511 8.89201 11.3 9.5929 12.2502C9.63028 12.3009 9.65732 12.3376 9.67343 12.3593C10.0471 12.8635 10.3555 13.2382 10.5897 13.5228L10.5898 13.5229C11.1098 14.1547 11.264 14.3422 10.9538 14.5144C10.7035 14.6532 10.4453 14.699 10.1877 14.699C9.89629 14.699 9.568 14.562 9.32896 14.3407C9.16 14.1842 8.00387 12.545 6.42956 10.1603C5.22501 8.33559 4.21693 6.82192 4.18943 6.79658C4.12585 6.73796 4.12694 6.73995 6.30675 10.5475C7.67547 12.9385 8.61174 14.7053 8.61174 14.8183C8.61174 15.0483 8.54747 15.1691 8.25693 15.4855C7.77259 16.0131 7.55607 16.6058 7.39978 17.8324C7.22456 19.2074 6.73187 20.1788 5.36645 21.8411C4.56718 22.8143 4.4364 22.9926 4.23472 23.3849C3.98071 23.8788 3.91084 24.1555 3.88253 24.7792C3.85261 25.4387 3.91089 25.8647 4.11726 26.4951C4.29794 27.0471 4.48652 27.4116 4.96863 28.1407C5.3847 28.7696 5.62427 29.2372 5.62427 29.4201C5.62427 29.5656 5.65273 29.5658 6.29745 29.4237C7.84035 29.0835 9.09318 28.4854 9.79779 27.7522C10.2339 27.2984 10.3363 27.0479 10.3396 26.426C10.3418 26.0193 10.3271 25.9342 10.2145 25.7002C10.0312 25.3192 9.69741 25.0027 8.96184 24.5118C7.99802 23.8685 7.58637 23.3507 7.47266 22.6386C7.37939 22.0543 7.4876 21.642 8.02078 20.5511C8.57265 19.4218 8.70942 18.9406 8.80193 17.8023C8.86167 17.0669 8.94443 16.7769 9.16085 16.5442C9.38658 16.3015 9.58977 16.2192 10.1484 16.1446C11.0591 16.0233 11.639 15.7932 12.1156 15.3644C12.5291 14.9924 12.7022 14.634 12.7287 14.0944L12.7489 13.6854L12.5178 13.4224C11.681 12.4699 0.0515724 0 7.4373e-05 0C-0.0109271 0 0.264443 0.336972 0.611984 0.748776ZM6.09402 25.5254C6.28323 25.1982 6.1827 24.7777 5.86621 24.5722C5.56717 24.3782 5.10265 24.4696 5.10265 24.7225C5.10265 24.7997 5.14637 24.8558 5.24492 24.9055C5.41084 24.9888 5.42288 25.0825 5.29234 25.274C5.16013 25.4681 5.17079 25.6386 5.32244 25.7544C5.56685 25.9414 5.91282 25.8386 6.09402 25.5254ZM11.7889 7.68704C11.4155 7.63051 11.3998 7.62388 11.5755 7.59752C11.9122 7.54696 12.7071 7.61586 13.255 7.74304C14.534 8.03981 15.6977 8.80011 16.94 10.1504L17.27 10.5091L17.7422 10.435C19.7312 10.123 21.7545 10.371 23.447 11.1342C23.9126 11.3442 24.6466 11.7622 24.7383 11.8696C24.7674 11.9038 24.8212 12.1242 24.8574 12.3593C24.9832 13.1728 24.9203 13.7963 24.6654 14.262C24.5268 14.5155 24.5191 14.5958 24.6122 14.8127C24.6866 14.9857 24.8941 15.1138 25.0997 15.1136C25.5202 15.113 25.9728 14.4493 26.1827 13.5258L26.2659 13.159L26.431 13.3415C27.3362 14.3428 28.0474 15.7084 28.1695 16.6804L28.2013 16.9338L28.0492 16.7034C27.7872 16.307 27.5242 16.0371 27.1871 15.8194C26.5798 15.4271 25.9374 15.2935 24.2366 15.206C22.7004 15.127 21.8311 14.9989 20.969 14.7245C19.5021 14.2576 18.7627 13.6358 17.0203 11.4041C16.2464 10.4129 15.7681 9.86447 15.2923 9.42281C14.2111 8.41928 13.1488 7.89298 11.7889 7.68704ZM25.0847 9.90023C25.1234 9.23602 25.2157 8.7979 25.4012 8.39781C25.4746 8.23943 25.5434 8.10981 25.554 8.10981C25.5647 8.10981 25.5327 8.22671 25.483 8.36955C25.3482 8.75786 25.326 9.28895 25.419 9.90687C25.5368 10.6909 25.604 10.804 26.4527 11.6509C26.8509 12.0482 27.314 12.5492 27.4819 12.7643L27.7872 13.1554L27.4819 12.8759C27.1086 12.5341 26.2501 11.8675 26.0605 11.7722C25.9333 11.7083 25.9144 11.7094 25.836 11.7856C25.7638 11.8558 25.7485 11.9613 25.7385 12.4602C25.7228 13.2377 25.6144 13.7367 25.3523 14.2357C25.2106 14.5056 25.1882 14.448 25.3165 14.1433C25.4122 13.9159 25.422 13.8159 25.4213 13.0633C25.4198 11.551 25.2358 11.1874 24.1573 10.5646C23.8843 10.4069 23.434 10.1793 23.157 10.059C22.8801 9.93862 22.6601 9.83379 22.668 9.82596C22.6986 9.79628 23.7505 10.096 24.1738 10.2549C24.8035 10.4914 24.9073 10.5221 24.9838 10.4935C25.035 10.4744 25.0599 10.3287 25.0847 9.90023ZM11.3887 8.73925C11.2872 9.90679 11.7562 11.4686 12.5141 12.4873C13.1016 13.2769 14.0123 13.8905 14.6847 13.9498C15.125 13.9886 15.2573 13.854 15.0581 13.5701C14.7816 13.1759 14.4415 12.5688 14.3515 12.3089C14.2956 12.1475 14.1741 11.6706 14.0815 11.2491C13.7653 9.81034 13.4546 9.25003 12.7368 8.82445C12.4752 8.66934 11.9166 8.46636 11.5927 8.40869L11.4201 8.37794L11.3887 8.73925ZM24.1655 20.0686C20.6235 18.6764 19.376 17.4679 19.376 15.4289C19.376 15.1289 19.3867 14.8834 19.3995 14.8834C19.4125 14.8834 19.5495 14.9824 19.704 15.1034C20.4222 15.6658 21.2266 15.906 23.4532 16.223C24.7633 16.4098 25.5006 16.5604 26.1809 16.7808C28.3427 17.4807 29.6802 18.901 29.9992 20.8358C30.0918 21.398 30.0375 22.4521 29.8873 23.0078C29.7686 23.4466 29.4065 24.2375 29.3106 24.2679C29.2839 24.2764 29.2577 24.1768 29.251 24.0412C29.2146 23.3148 28.8385 22.6075 28.207 22.0777C27.489 21.4753 26.5242 20.9958 24.1655 20.0686ZM21.5078 19.9154C21.5575 20.06 21.6346 20.3891 21.6788 20.647C21.9626 22.2953 21.0763 23.627 19.3523 24.143C19.1698 24.1976 18.4509 24.335 17.7547 24.4481C16.3454 24.6772 15.7164 24.8395 15.0846 25.1366C14.6364 25.3474 14.0939 25.663 14.1262 25.6943C14.1365 25.7045 14.2388 25.6806 14.3534 25.6413C15.1502 25.3682 16.037 25.2268 17.3844 25.1584C17.9191 25.1314 18.5272 25.0881 18.7359 25.0625C19.9362 24.9149 20.7682 24.5589 21.4152 23.9161C21.7751 23.5583 21.9897 23.2251 22.1627 22.7552C22.2723 22.4571 22.2871 22.3463 22.288 21.8182C22.2889 21.2801 22.2756 21.1816 22.1568 20.8506C22.0013 20.4166 21.8177 20.091 21.5854 19.8364L21.4175 19.6525L21.5078 19.9154ZM23.3026 23.4621C22.8319 22.4744 22.7239 21.5209 22.9817 20.6317C23.0093 20.5366 23.0536 20.4588 23.0804 20.4588C23.1071 20.4588 23.218 20.5175 23.3271 20.5891C23.5439 20.7316 23.9789 20.9716 25.1376 21.5884C26.5836 22.358 27.408 22.9538 27.9686 23.6348C28.4595 24.231 28.7633 24.9101 28.9095 25.7382C28.9924 26.2073 28.9439 27.3361 28.8206 27.8084C28.4319 29.2978 27.5283 30.4676 26.2396 31.1503C26.0508 31.2502 25.8813 31.3323 25.8629 31.3328C25.8446 31.3331 25.9134 31.1624 26.0158 30.9532C26.4493 30.0685 26.4987 29.2079 26.171 28.2501C25.9702 27.6636 25.561 26.948 24.7348 25.7384C23.7743 24.3322 23.5388 23.9579 23.3026 23.4621ZM14.4382 26.7014C12.9485 26.9376 11.3131 27.7072 9.99871 28.7906L9.6074 29.1132L9.9513 29.1657C11.7459 29.4392 12.2292 29.6818 13.474 30.9336C14.1904 31.6539 14.4323 31.8143 15.0265 31.9624C15.8992 32.1798 16.7594 31.7802 17.0545 31.0202C17.1864 30.6806 17.1688 30.1182 17.0175 29.8359C16.6577 29.1635 15.6095 28.9462 15.1027 29.4387C14.6805 29.8489 14.8035 30.4669 15.3286 30.5732C15.4488 30.5977 15.4454 30.5924 15.298 30.5274C15.0681 30.4259 14.9683 30.2853 14.967 30.0615C14.9641 29.5367 15.5792 29.2421 16.1515 29.4941C16.5705 29.6787 16.7369 29.9199 16.7369 30.3427C16.7369 30.9938 16.1693 31.4844 15.5087 31.4042C15.1556 31.3612 14.7238 31.1408 14.4923 30.8853C13.9097 30.2422 14.1366 29.2273 14.9501 28.8379C15.5693 28.5415 16.3925 28.6145 17.0308 29.0226C17.7642 29.4915 18.0761 29.92 18.7078 31.3266C18.9135 31.7845 19.1782 32.3001 19.2958 32.4722C19.8943 33.3466 20.6112 33.7755 21.4748 33.7755C21.9511 33.7755 22.3094 33.6905 22.7602 33.4708C23.0951 33.3075 23.5699 32.9971 23.5357 32.9639C23.526 32.9545 23.387 32.9966 23.2269 33.0576C22.284 33.4166 21.3255 33.3919 20.7689 32.9941C20.4183 32.7437 20.1355 32.2449 19.9902 31.621C19.965 31.513 19.8821 31.0361 19.8057 30.5611C19.6122 29.3572 19.4263 28.8161 18.993 28.1951C18.5496 27.5597 17.6972 27.0265 16.7443 26.7884C16.1498 26.6398 15.0802 26.5994 14.4382 26.7014ZM12.3518 17.3937C12.4805 16.9298 12.8961 16.4874 13.3236 16.3592C13.5955 16.2778 14.1574 16.3298 14.4216 16.4609C14.9337 16.7151 15.3054 17.2939 15.2247 17.7118C15.1263 18.2213 14.2799 18.629 13.3063 18.6357C12.809 18.639 12.6254 18.5738 12.4354 18.3263C12.3179 18.1729 12.2734 17.6766 12.3518 17.3937ZM14.2909 16.6425C14.5462 16.7948 14.6119 17.0198 14.4618 17.2281C14.3584 17.3715 14.0382 17.5079 13.8042 17.5079C13.4527 17.5079 13.0692 17.2642 13.0692 17.041C13.0692 16.5926 13.8046 16.3525 14.2909 16.6425ZM90.6082 17.9265C89.8139 15.3731 91.1238 13.255 93.9188 12.5744C94.7203 12.3791 98.3499 12.4672 98.9717 12.6971C99.2001 12.7814 99.2995 13.1048 99.3016 13.7694C99.3031 14.2928 99.3622 14.9285 99.4326 15.1821C99.5396 15.5663 99.4771 15.6419 99.0576 15.6358C98.678 15.63 98.4486 15.4151 98.1282 14.7648C97.6165 13.7262 96.9968 13.3958 95.5529 13.3919C93.7096 13.3868 92.3608 14.5863 92.5804 16.0357C92.7234 16.9788 93.6984 17.9068 95.8864 19.1826C97.9682 20.3961 99.1833 21.3941 99.6673 22.2883C100.962 24.6788 99.8564 27.237 96.9721 28.5259C95.4915 29.1875 93.0101 29.2559 91.2655 28.6833L90.1483 28.3164V26.5912C90.1483 25.0286 90.1868 24.8656 90.5554 24.8656C90.8636 24.8656 90.9968 25.0625 91.1049 25.6794C91.3742 27.2133 92.5802 28.1445 94.298 28.1445C95.9807 28.1445 97.157 27.2559 97.6076 25.6447C97.7995 24.9583 97.7664 24.7052 97.3857 23.948C96.9295 23.0402 96.1439 22.4378 93.4759 20.9502C91.9955 20.1246 90.9485 19.0208 90.6082 17.9265ZM38.3069 13.5938C37.9428 13.5938 37.8008 13.4788 37.8008 13.1839C37.8008 12.7935 37.9428 12.774 40.7955 12.774C43.4433 12.774 43.7822 12.8125 43.7215 13.1062C43.6835 13.289 43.3176 13.5425 42.908 13.6698L42.1631 13.9012L42.0995 19.1272C42.0569 22.6144 42.1168 24.626 42.2793 25.1729C42.7623 26.7994 44.2358 27.7347 46.3148 27.7347C47.7622 27.7347 48.6076 27.4077 49.6699 26.4364C50.8124 25.3922 50.9946 24.4001 50.991 19.2437C50.9875 14.1574 50.8959 13.7376 49.7657 13.6321C49.2513 13.5839 49.079 13.4681 49.079 13.171C49.079 12.8004 49.2487 12.774 51.6325 12.774C54.0442 12.774 54.186 12.7967 54.186 13.1839C54.186 13.4364 54.043 13.595 53.8136 13.5968C52.8281 13.6052 52.81 13.6959 52.6773 19.2731C52.5397 25.0649 52.4112 25.7506 51.1967 27.1694C50.8465 27.5787 50.0112 28.173 49.3407 28.4902C48.248 29.007 47.9004 29.0663 45.9934 29.063C44.2355 29.0595 43.6805 28.9774 42.8015 28.5907C41.5184 28.0261 40.6839 27.2955 40.0687 26.1976C39.6393 25.4312 39.6026 25.0165 39.5032 19.8239C39.3893 13.8803 39.3342 13.5938 38.3069 13.5938ZM58.2192 13.5938C57.7326 13.5938 57.5908 13.5011 57.5908 13.1839C57.5908 12.7996 57.7267 12.775 59.7718 12.7908L61.9531 12.8076L62.9967 13.9692C63.5703 14.608 65.4406 16.6064 67.1524 18.4098C68.8644 20.2134 70.8299 22.3113 71.52 23.0722C72.2102 23.8332 72.8598 24.4556 72.9637 24.4556C73.0703 24.4556 73.1235 22.3063 73.0855 19.519L73.0183 14.5824L72.4212 14.0881C72.0929 13.8161 71.5904 13.5938 71.3042 13.5938C70.9235 13.5938 70.7841 13.4823 70.7841 13.1781C70.7841 12.7779 70.8927 12.7646 73.7099 12.8195C76.1054 12.8662 76.6359 12.9308 76.6359 13.1755C76.6359 13.3499 76.3396 13.5329 75.9245 13.6147C75.5335 13.6917 75.1025 13.8614 74.967 13.9918C74.7922 14.16 74.7032 16.3355 74.6599 21.494L74.5988 28.7593H73.9821C73.4512 28.7593 72.8192 28.1819 69.4403 24.6093C67.2814 22.3266 64.7615 19.6138 63.8405 18.5808C62.9193 17.5476 62.0939 16.6945 62.0062 16.6852C61.7592 16.6584 61.8189 25.8887 62.0716 26.7649C62.2686 27.4476 62.404 27.5652 63.2409 27.7809C63.9149 27.9544 64.1874 28.1305 64.1874 28.392C64.1874 28.7278 63.9305 28.7593 61.2083 28.7593C58.4372 28.7593 58.2292 28.7326 58.2292 28.3751C58.2292 28.1135 58.4297 27.9523 58.8579 27.8698C60.1573 27.6196 60.2435 27.2224 60.3164 21.1506C60.3573 17.75 60.2973 15.3706 60.1579 14.8724C59.913 13.9963 59.3028 13.5938 58.2192 13.5938ZM80.5321 13.5938C80.0762 13.5938 79.9343 13.4964 79.9343 13.1839C79.9343 12.7922 80.0762 12.774 83.1262 12.774C86.1761 12.774 86.3182 12.7922 86.3182 13.1839C86.3182 13.4845 86.1761 13.5938 85.786 13.5938C85.4936 13.5938 85.0588 13.7819 84.8199 14.0119C84.3984 14.4178 84.3876 14.6197 84.4477 20.8942C84.5061 27.0192 84.5311 27.3736 84.9223 27.649C85.1496 27.8088 85.5565 27.9396 85.8267 27.9396C86.1761 27.9396 86.3182 28.0578 86.3182 28.3495C86.3182 28.7412 86.1761 28.7593 83.1262 28.7593C80.1487 28.7593 79.9343 28.7335 79.9343 28.3758C79.9343 28.0872 80.1431 27.9598 80.7773 27.8621C82.0365 27.6682 82.1009 27.2712 82.0224 20.1863C81.9597 14.5125 81.9327 14.1588 81.5428 13.8844C81.3155 13.7245 80.8607 13.5938 80.5321 13.5938ZM102.797 13.5938C102.506 13.5938 102.285 13.4378 102.216 13.1839C102.109 12.7875 102.21 12.774 105.277 12.774C108.307 12.774 108.449 12.7922 108.449 13.1839C108.449 13.4989 108.307 13.5938 107.836 13.5938C106.497 13.5938 106.527 13.8282 108.554 19.1878C109.586 21.9161 110.588 24.5076 110.781 24.9468L111.131 25.7455L112.756 21.5653C114.669 16.6447 114.918 15.7348 114.593 14.8373C114.367 14.2119 113.486 13.5938 112.822 13.5938C112.634 13.5938 112.492 13.4175 112.492 13.1839C112.492 12.7916 112.634 12.774 115.79 12.774C118.947 12.774 119.089 12.7916 119.089 13.1839C119.089 13.4755 118.947 13.5938 118.597 13.5938C117.703 13.5938 117.308 14.0533 117.437 14.946C117.569 15.8649 121.229 25.7416 121.382 25.5938C121.632 25.3534 125.685 14.7211 125.685 14.3067C125.685 13.8102 125.324 13.5938 124.497 13.5938C124.125 13.5938 123.983 13.4808 123.983 13.1839C123.983 12.7967 124.125 12.774 126.536 12.774C128.702 12.774 129.09 12.8224 129.09 13.0921C129.09 13.2671 128.825 13.4993 128.5 13.6081C127.771 13.853 127.588 14.1325 126.673 16.3969C126.271 17.3913 125.013 20.5033 123.878 23.3122C122.742 26.1214 121.765 28.5423 121.705 28.692C121.645 28.8419 121.293 28.9643 120.923 28.9643H120.249L118.721 25.1217C117.88 23.0084 116.887 20.5046 116.514 19.5578C115.874 17.9355 115.821 17.865 115.58 18.328C115.44 18.5986 114.43 21.1069 113.335 23.9021L111.346 28.9844L110.604 28.9231L109.861 28.8619L107.03 21.705C105.448 17.7064 103.993 14.3373 103.733 14.0709C103.477 13.8083 103.056 13.5938 102.797 13.5938ZM145.346 13.6807C145.311 13.6028 145.311 13.3231 145.311 13.3231C145.311 13.3231 145.303 13.2221 145.346 13.1683C145.39 13.1147 145.406 13.1132 145.562 13.0988L145.564 13.0987C146.138 13.0459 147.291 12.957 148.253 12.9164C148.341 12.9127 148.439 12.9084 148.545 12.9038L148.547 12.9037L148.549 12.9036L148.55 12.9036C149.608 12.8571 151.503 12.795 152.805 12.8579C155.303 12.9786 157.08 14.1458 157.686 16.0746C158.292 18.0034 157.971 19.8139 157.146 20.9664C156.32 22.1189 154.932 23.1112 152.625 23.0466C150.721 22.9933 150.211 22.6486 149.804 22.3732C149.718 22.315 149.636 22.2598 149.547 22.2113V24.671C149.567 26.3486 149.582 27.1543 149.716 27.4525C149.897 27.854 150.307 28.1014 151.104 28.291C151.104 28.291 151.465 28.3728 151.558 28.4599C151.651 28.5471 151.651 28.7407 151.651 28.7407C151.651 28.7407 151.67 28.9217 151.596 29.014C151.521 29.1062 151.376 29.0878 151.376 29.0878L147.844 29.0603L145.715 29.0549C145.715 29.0549 145.491 29.0962 145.408 29.0094C145.324 28.9223 145.332 28.7412 145.332 28.7412C145.332 28.7412 145.35 28.546 145.448 28.4587C145.545 28.3712 145.909 28.2735 145.909 28.2735C146.73 28.0506 147.086 27.8149 147.273 27.3708C147.423 27.0127 147.424 26.3487 147.422 20.9303C147.421 15.7918 147.413 14.8333 147.291 14.5576C147.11 14.1495 146.659 14.0414 146.016 13.8875L146.015 13.8874C145.888 13.8569 145.753 13.8246 145.611 13.7878C145.611 13.7878 145.382 13.7585 145.346 13.6807ZM155.63 17.8736C155.63 18.7162 155.615 20.0354 154.687 20.8786C153.759 21.7218 151.931 21.9526 150.691 21.7179C150.3 21.6439 150.076 21.5298 149.904 21.4419L149.887 21.4331L149.569 21.2715L149.551 18.311C149.539 16.4561 149.559 15.2476 149.605 15.0748C149.646 14.0967 151.139 13.975 151.868 14.0113C154.988 14.0113 155.539 16.5523 155.63 17.8736ZM135.548 12.8888C135.548 12.8888 135.395 12.9453 135.164 13.03L134.331 13.4459L133.731 14.8936C133.401 15.6898 132.797 17.1514 132.39 18.1416C131.647 19.9452 131.157 21.1301 130.641 22.3669C130.489 22.7307 130.031 23.8384 129.622 24.8286C129.214 25.8187 128.806 26.761 128.715 26.9227C128.7 26.9495 128.684 26.9785 128.667 27.009C128.439 27.4239 128.042 28.1445 127.341 28.2535C127.341 28.2535 126.956 28.29 126.814 28.4262C126.671 28.5625 126.685 28.6739 126.685 28.6739V28.8455C126.685 28.8455 126.698 28.9287 126.779 28.9701C126.859 29.0116 126.969 29.014 126.969 29.014L129.532 28.9858H132.18C132.18 28.9858 132.368 29.007 132.44 28.9491C132.512 28.8912 132.532 28.8053 132.532 28.8053V28.6246C132.532 28.6246 132.495 28.4286 132.39 28.3521C132.285 28.2757 131.892 28.2234 131.892 28.2234C130.832 28.0887 130.649 27.3135 130.78 26.6165C130.845 26.274 131.271 25.0071 131.751 23.7317L131.917 23.2909L134.692 23.2704C136.219 23.2591 137.537 23.2667 137.621 23.2874C137.741 23.3168 137.91 23.6479 138.405 24.8269C139.156 26.6133 139.215 26.8309 139.049 27.1651C139.039 27.1854 139.028 27.2079 139.017 27.2321C138.861 27.5553 138.558 28.1833 137.796 28.2473C137.796 28.2473 137.391 28.2608 137.29 28.3777C137.19 28.4948 137.211 28.6293 137.211 28.6293V28.8081C137.211 28.8081 137.238 28.913 137.29 28.9545C137.342 28.996 137.43 28.9855 137.43 28.9855L139.949 28.968L143.491 28.9678C143.491 28.9678 143.63 28.9822 143.668 28.9306C143.705 28.8789 143.713 28.8182 143.713 28.8182V28.5807C143.713 28.5807 143.698 28.4544 143.63 28.3847C143.562 28.3152 143.102 28.2417 143.102 28.2417C142.516 28.1502 142.224 27.6822 142.006 27.3337C141.95 27.2448 141.9 27.1637 141.85 27.0986C141.75 26.9658 141.389 26.2379 141.107 25.5378C140.825 24.8377 140.189 23.2562 139.694 22.0236C139.198 20.7909 138.506 19.0714 138.156 18.2025C137.807 17.3335 137.142 15.6801 136.679 14.5283C136.603 14.3392 136.535 14.1694 136.474 14.0174L136.474 14.0167C136.164 13.2432 136.039 12.931 136.005 12.8888C135.893 12.7516 135.548 12.8888 135.548 12.8888ZM135.383 17.5958C135.271 17.3332 135.074 16.862 134.946 16.5488C134.712 15.9795 134.623 15.8484 134.551 15.966C134.53 16.0003 134.383 16.3894 134.224 16.8307C133.197 19.6876 132.732 20.974 132.639 21.2165C132.58 21.3688 132.532 21.5258 132.532 21.5655C132.532 21.611 133.367 21.6375 134.799 21.6375C136.045 21.6375 137.065 21.6226 137.065 21.6043C137.065 21.586 136.954 21.3133 136.818 20.9981C136.682 20.6828 136.349 19.8958 136.079 19.2492C135.808 18.6026 135.495 17.8586 135.383 17.5958Z" fill="#191B20"/>
	</g>
	<defs>
		<clipPath id="clip0_7242_72344">
			<rect width="158" height="38" fill="white"/>
		</clipPath>
	</defs>
</svg>
