<svg width="115" height="31" viewBox="0 0 115 31" fill="none" xmlns="http://www.w3.org/2000/svg">
	<path d="M54.9504 5.73271H54.6848C52.6543 5.73271 50.6153 5.73271 48.5849 5.72396C48.1051 5.72396 47.7367 5.33886 47.7281 4.83998C47.7196 3.52715 47.7281 2.21431 47.7281 0.910232C47.7281 0.420107 48.088 0.0350089 48.5677 0H60.3135C60.6476 0 60.9389 0.0962745 61.1274 0.385098C61.213 0.525134 61.2473 0.700178 61.2987 0.86647C61.3158 0.910232 61.2987 0.971497 61.2987 1.01526V29.8363C61.2987 30.3615 61.0417 30.7291 60.5962 30.8253C60.5105 30.8428 60.4163 30.8428 60.322 30.8428H48.6962C48.0794 30.8428 47.7196 30.4753 47.7196 29.8538V26.0991C47.7196 25.4865 48.0708 25.1189 48.6705 25.1189H54.9418C54.9504 18.6597 54.9504 12.2094 54.9504 5.73271V5.73271ZM28.6745 5.73271V25.1189H28.9401C30.9192 25.1189 32.8896 25.1364 34.8687 25.1101C35.5883 25.1014 35.9396 25.6003 35.9224 26.1867C35.9053 27.4032 35.9224 28.6198 35.9139 29.8363C35.9139 30.3615 35.6483 30.7291 35.2114 30.8253C35.1257 30.8428 35.0314 30.8516 34.9372 30.8516H23.3114C22.686 30.8516 22.3262 30.4928 22.3262 29.8538V1.01526C22.3262 0.367594 22.686 0 23.3114 0H34.9372C35.5455 0 35.9139 0.367594 35.9224 0.989002C35.931 2.24932 35.9224 3.50964 35.9224 4.76996C35.9224 5.36512 35.4512 5.74146 35.0057 5.73271C32.9839 5.7152 30.9706 5.73271 28.9487 5.73271H28.6745V5.73271Z" fill="#80889C"/>
	<path d="M45.9892 16.0778V19.7887C45.9892 20.2001 45.8692 20.3139 45.4665 20.3139H43.0677C42.7422 20.3139 42.5965 20.1651 42.5965 19.8325V10.7652C42.5965 10.4151 42.7336 10.2751 43.0763 10.2751H45.1753C45.4666 10.2751 45.6893 10.3801 45.8692 10.6339C46.8116 11.9642 47.754 13.2858 48.6964 14.6074C48.7393 14.6687 48.7821 14.7212 48.8592 14.8262C48.8678 14.7037 48.8678 14.6249 48.8678 14.5549V10.844C48.8678 10.4063 48.9877 10.2838 49.4161 10.2838H51.7292C52.1405 10.2838 52.2775 10.4239 52.2775 10.8527V19.7625C52.2775 20.1913 52.149 20.3226 51.7292 20.3226C51.061 20.3226 50.3842 20.3139 49.7159 20.3226C49.4075 20.3314 49.1848 20.2088 49.0048 19.9638C48.0367 18.7035 47.0686 17.4431 46.1005 16.1916C46.0748 16.1566 46.0491 16.1391 45.9892 16.0778V16.0778ZM34.0635 13.2333H31.6475C31.2534 13.2333 31.1249 13.102 31.1249 12.6907V10.7652C31.1249 10.4151 31.2706 10.2663 31.6047 10.2663H40.3605C40.686 10.2663 40.8231 10.4151 40.8317 10.7477V12.7344C40.8317 13.0845 40.686 13.2246 40.3433 13.2246H37.9102V17.3469H40.1463C40.2491 17.3469 40.3433 17.3556 40.4461 17.3644C40.7031 17.3906 40.8231 17.5044 40.8317 17.7582C40.8402 18.4671 40.8402 19.1673 40.8317 19.8763C40.8317 20.1651 40.6689 20.2964 40.3519 20.2964H31.6218C31.2877 20.2964 31.1421 20.1476 31.1421 19.8062V17.837C31.1421 17.4781 31.2877 17.3381 31.639 17.3381H34.0806C34.0635 15.9728 34.0635 14.6162 34.0635 13.2333V13.2333ZM1.44787 6.02148V11.7017C1.52498 11.6579 1.58495 11.6229 1.63635 11.5879C3.61539 10.1788 7.71912 10.6864 8.49874 14.5724C8.76433 15.8765 8.67009 17.1631 8.02754 18.3446C7.33359 19.6224 6.21985 20.3401 4.84051 20.6202C3.17846 20.9528 1.62778 20.5939 0.154211 19.7975C0.00856728 19.7187 0.00856728 19.6137 0.00856728 19.4824V14.0385C0.00856728 11.6229 0.00856728 9.19854 0 6.78293C0 6.59038 0.0428364 6.50286 0.231317 6.44159C0.642546 6.32781 1.02807 6.17027 1.44787 6.02148V6.02148ZM1.44787 16.0253C1.44787 16.9268 1.45644 17.8282 1.44787 18.7297C1.44787 18.896 1.49071 18.9748 1.64492 19.0273C2.56162 19.3511 3.49545 19.4999 4.46355 19.3511C5.80862 19.1323 6.72531 18.3184 7.0423 17.0143C7.17938 16.4454 7.20508 15.859 7.14511 15.2813C7.03374 14.2573 6.64821 13.3734 5.79148 12.7694C5.05469 12.2531 4.23224 12.1655 3.37551 12.2968C2.72439 12.3931 2.11612 12.5944 1.59351 13.032C1.49071 13.1195 1.44787 13.2071 1.44787 13.3471V16.0253V16.0253ZM88.9798 10.9752H90.3762V11.9817C90.5133 11.8592 90.6247 11.7542 90.7361 11.6579C92.1154 10.4589 94.0516 10.2838 95.5166 11.2378C96.1506 11.6492 96.6475 12.2006 96.9473 12.9007C97.6413 14.5024 97.667 16.1303 96.9473 17.7232C96.0992 19.5787 94.2486 20.5502 92.2696 20.2526C91.6099 20.1563 90.9931 19.9725 90.3934 19.5787V23.4209C90.3934 23.6135 90.3505 23.6747 90.1535 23.666C89.7679 23.6485 89.3824 23.666 88.9883 23.666C88.9798 19.4299 88.9798 15.2113 88.9798 10.9752V10.9752ZM90.3762 15.8152C90.3762 16.5592 90.3848 17.3031 90.3677 18.0383C90.3677 18.2046 90.4191 18.3009 90.5561 18.3884C91.3272 18.8873 92.1839 19.0973 93.0835 19.0448C94.2829 18.9748 95.1653 18.3709 95.6365 17.2331C96.0906 16.1391 96.1163 14.9925 95.765 13.8635C95.5252 13.0933 95.0197 12.5331 94.2743 12.2268C92.9807 11.6929 91.4985 12.0868 90.5133 13.2158C90.4362 13.3033 90.3848 13.4434 90.3848 13.5571C90.3762 14.3186 90.3762 15.0713 90.3762 15.8152V15.8152ZM18.9937 15.859H11.3602C11.3688 16.6029 11.4887 17.3031 11.8657 17.942C12.4054 18.8347 13.2193 19.2811 14.2045 19.3949C15.541 19.5524 16.809 19.2636 18.0084 18.6422C18.0598 18.6159 18.1112 18.5897 18.1712 18.5634V19.9988C17.3059 20.3926 16.3978 20.6289 15.4468 20.7077C14.5815 20.7777 13.7248 20.7427 12.8938 20.4451C11.2403 19.8675 10.2722 18.6684 9.96375 16.9268C9.80097 16.0253 9.8181 15.1238 10.058 14.2398C10.5463 12.4456 11.7286 11.3953 13.4935 11.0015C14.4787 10.7827 15.4554 10.8002 16.3892 11.2378C17.7 11.8592 18.4454 12.9532 18.7709 14.3536C18.8909 14.835 18.9251 15.3338 18.9937 15.859V15.859ZM17.443 14.7475C17.4515 14.7212 17.4601 14.7124 17.4601 14.6949V14.6337C17.3573 13.7497 16.9803 13.0233 16.2179 12.5506C15.1641 11.903 13.6134 12.0168 12.5596 12.8045C11.9171 13.2858 11.5573 13.9422 11.4202 14.7475H17.443V14.7475ZM110.201 10.6164C111.623 10.6514 112.857 11.0715 113.816 12.1218C114.459 12.822 114.81 13.6709 114.939 14.6249C115.093 15.7977 114.973 16.9355 114.39 17.9858C113.722 19.2023 112.668 19.8938 111.349 20.1826C110.252 20.4189 109.173 20.3314 108.145 19.8763C106.551 19.1586 105.703 17.8807 105.506 16.1391C105.386 15.0888 105.506 14.056 105.986 13.102C106.688 11.7104 107.853 10.9665 109.336 10.6952C109.447 10.6777 109.558 10.6602 109.678 10.6514C109.867 10.6427 110.055 10.6339 110.201 10.6164V10.6164ZM109.961 11.868C109.404 11.868 108.659 12.1218 108.016 12.6732C106.645 13.8547 106.594 16.2878 107.459 17.5832C108.248 18.7735 109.396 19.1936 110.749 19.0185C111.932 18.861 112.797 18.2221 113.285 17.093C113.568 16.4279 113.628 15.7189 113.568 15.0013C113.405 13.1458 112.06 11.868 109.961 11.868V11.868ZM83.1968 18.082C84.1992 15.6752 85.1759 13.3208 86.1526 10.9752H87.5662C87.4634 11.2378 87.3605 11.4916 87.2577 11.7367C85.6557 15.5527 84.045 19.3599 82.4601 23.1846C82.2973 23.5784 82.1174 23.736 81.7061 23.6835C81.4234 23.6485 81.1407 23.6747 80.8237 23.6747C80.9779 23.2984 81.1236 22.957 81.2692 22.6157C81.6376 21.7405 82.0146 20.874 82.3744 19.99C82.4087 19.9025 82.4087 19.7712 82.3744 19.6837L78.8018 11.1503C78.7761 11.0978 78.759 11.0453 78.7333 10.9665C79.2388 10.9665 79.7185 10.9577 80.1983 10.9752C80.2497 10.9752 80.3097 11.0715 80.3354 11.1328C81.0465 12.8482 81.749 14.5637 82.4515 16.2791C82.6914 16.8567 82.9313 17.4344 83.1968 18.082V18.082ZM71.5882 12.3931C70.9713 12.2531 70.3802 12.0868 69.7805 11.9993C68.5982 11.8155 67.4845 12.0255 66.6106 12.9182C65.5654 13.9773 65.3598 15.2901 65.7967 16.6729C66.2165 18.012 67.1846 18.756 68.5297 18.966C69.5063 19.1148 70.4402 18.9048 71.3654 18.5809C71.4168 18.5634 71.4682 18.5459 71.5282 18.5197H71.5882V19.8237C71.5882 19.8587 71.5453 19.9113 71.5025 19.9288C69.6177 20.4889 67.7672 20.5677 66.0452 19.4211C64.82 18.6072 64.246 17.3906 64.1432 15.929C64.0661 14.87 64.2203 13.846 64.7601 12.9182C65.4626 11.7192 66.5335 11.0453 67.8443 10.7652C69.0608 10.5026 70.2688 10.6252 71.4511 11.019C71.5111 11.0365 71.5796 11.1328 71.5796 11.194C71.5968 11.5967 71.5882 12.008 71.5882 12.3931V12.3931ZM99.9373 12.183H98.3609C98.4123 12.0605 98.4295 11.9555 98.4894 11.8767C99.3633 10.844 100.237 9.81995 101.12 8.80469C101.171 8.74343 101.257 8.71717 101.325 8.67341C101.342 8.75218 101.385 8.83095 101.385 8.90972C101.394 9.50487 101.385 10.1 101.385 10.7039V10.9577H104.341V12.183H101.385V17.3906C101.385 17.6269 101.402 17.872 101.437 18.1083C101.522 18.5897 101.754 18.7735 102.242 18.7647C102.893 18.7472 103.51 18.6072 104.118 18.3796C104.195 18.3534 104.281 18.3184 104.384 18.2833C104.384 18.6947 104.384 19.0798 104.375 19.4737C104.375 19.5174 104.324 19.5787 104.281 19.5962C103.373 20.0163 102.43 20.2351 101.437 20.0776C100.76 19.9725 100.306 19.5524 100.126 18.8873C100.014 18.4671 99.9544 18.012 99.9544 17.5744C99.9373 15.8677 99.9459 14.1698 99.9459 12.4631C99.9373 12.3756 99.9373 12.2968 99.9373 12.183V12.183ZM73.4644 10.9752H74.8695V13.067C74.8866 13.0758 74.9037 13.0933 74.9209 13.102C75.5291 11.5004 76.7286 10.7914 78.3392 10.6777V12.2443C78.0308 12.2881 77.7052 12.3056 77.3968 12.3756C75.9832 12.6994 75.2464 13.6622 74.9808 15.0538C74.9037 15.4651 74.878 15.894 74.8695 16.3141C74.8523 17.4344 74.8609 18.5547 74.8609 19.675V19.9463H73.4559C73.4644 16.9705 73.4644 13.9773 73.4644 10.9752V10.9752Z" fill="#80889C"/>
</svg>
