<svg width="181" height="44" viewBox="0 0 181 44" fill="none" xmlns="http://www.w3.org/2000/svg">
	<path fill-rule="evenodd" clip-rule="evenodd" d="M25.9583 32.0442C23.4216 34.6716 19.0751 36.4424 14.304 36.4141C6.5936 36.4141 0.478605 32.2876 0.20752 27.2271V10.5096V10.1783C0.20752 4.99736 6.47247 0.689991 14.3652 0.720128C19.5157 0.720128 24.1842 2.79854 26.5039 5.9613H44.9078L42.5879 15.5699H33.3111L31.3235 20.8715L41.5947 16.5641L23.3709 43.0409L25.9583 32.0442ZM18.5294 34.5477L19.5377 30.3058C17.9595 30.7029 16.122 30.9555 14.3352 30.8717C8.61117 30.9622 3.85276 28.673 1.53295 25.2993V26.9259C1.62293 31.3237 7.22575 35.0587 14.3352 35.119C15.7089 35.0365 17.1832 34.8537 18.5294 34.5477ZM19.901 28.7776L20.9865 24.2128C18.9817 24.9985 16.6953 25.4365 14.3352 25.2993C8.61117 25.4499 3.85276 23.1908 1.53295 20.0582V21.3835C1.62293 25.8716 7.22575 29.5766 14.3352 29.5766C16.2051 29.5766 18.1234 29.2682 19.901 28.7776ZM21.3672 22.6071L22.432 18.1291C20.0625 19.2338 17.2871 19.9469 14.3652 20.0281C8.64116 19.9377 3.88275 17.6484 1.56295 14.4556V15.7809C1.65292 20.3594 7.25574 24.0644 14.3652 23.9739C16.9064 24.0568 19.3727 23.5315 21.3672 22.6071ZM24.8475 5.9613H16.4426L14.1239 15.5699H23.0398L22.8806 16.2402C20.6335 17.6683 17.5858 18.5964 14.3652 18.7329C7.25574 18.5822 1.65292 14.8471 1.56295 10.2084C1.62293 5.78063 7.25574 2.07555 14.3652 2.01543C18.5814 2.07555 22.5276 3.55153 24.8475 5.9613ZM26.684 36.1129L28.0093 29.4862L20.389 32.7995L24.6963 14.2748H15.7505L17.407 7.31674H43.2513L41.5947 14.2748H32.649L28.6727 23.5523L37.6185 19.5761L26.684 36.1129ZM63.795 12.4374C63.8249 13.4917 63.4927 14.3049 62.8305 14.9074C62.1684 15.5098 61.264 15.811 60.0897 15.811C58.9142 15.811 57.951 15.4194 57.2277 14.6665C56.5045 13.9134 56.1434 12.9193 56.1434 11.7145V9.75665C56.1434 8.55176 56.5045 7.55769 57.1978 6.80469C57.921 6.05157 58.8542 5.66008 59.9986 5.66008C61.204 5.66008 62.1372 5.9613 62.8305 6.53361C63.5239 7.13605 63.8549 7.94931 63.8249 9.00351V9.03366H61.8973C61.8973 8.40107 61.7462 7.91918 61.4451 7.61795C61.144 7.31674 60.6618 7.16619 60.0298 7.16619C59.5383 7.16619 59.1473 7.32639 58.8392 7.64679C58.77 7.71933 58.7043 7.80008 58.6431 7.88904C58.3121 8.37093 58.1321 8.97338 58.1321 9.7265V11.7145C58.1321 12.4675 58.3121 13.1001 58.6431 13.582C59.0054 14.064 59.4876 14.3049 60.1197 14.3049C60.7219 14.3049 61.144 14.1543 61.4451 13.8531C61.7462 13.5518 61.8973 13.07 61.8973 12.4374H63.795ZM74.6983 11.6241C74.6983 12.829 74.3073 13.8531 73.554 14.6363C72.8008 15.4194 71.8064 15.811 70.5721 15.811C69.3366 15.811 68.3733 15.4194 67.5901 14.6363C66.8368 13.8531 66.4446 12.829 66.4446 11.6241V9.84691C66.4446 8.64202 66.8368 7.64809 67.5901 6.83484C68.3423 6.05157 69.3366 5.62995 70.5421 5.62995C71.7764 5.62995 72.7707 6.02158 73.524 6.83484C74.3073 7.61795 74.6683 8.64202 74.6683 9.84691V11.6241H74.6983ZM72.7107 9.81677C72.7107 9.42384 72.6646 9.07633 72.5701 8.76286C72.4766 8.45168 72.3336 8.17426 72.1385 7.91918C71.9321 7.66553 71.6922 7.47044 71.4107 7.34239C71.1569 7.22705 70.8697 7.16619 70.5421 7.16619C69.8787 7.16619 69.3366 7.40714 68.9755 7.91918C68.6134 8.40107 68.4033 9.03366 68.4033 9.81677V11.594C68.4033 12.3771 68.5834 13.0097 68.9755 13.5219C69.1808 13.7958 69.4451 14.0017 69.7554 14.1283C69.9918 14.2244 70.256 14.2748 70.5421 14.2748C71.2342 14.2748 71.7464 14.0338 72.1385 13.5219C72.3082 13.3123 72.4385 13.0688 72.5319 12.796C72.6035 12.5873 72.6519 12.3617 72.6807 12.1211C72.7003 11.9524 72.7107 11.7765 72.7107 11.594V9.81677ZM79.819 15.6604H77.8314V5.78049H79.819V15.6604ZM91.2356 15.6604H89.2469L85.2706 9.00351H85.2406V15.6604H83.2531V5.78049H85.2406L89.2169 12.4374H89.2469V5.78049H91.2356V15.6604ZM101.206 7.31674H98.3739V15.6604H96.3863V7.31674H93.6143V5.78049H101.206V7.31674ZM109.398 11.3229H105.723V14.1543H110.092V15.6604H103.766V5.78049H110.092V7.31674H105.754V9.78664H109.428V11.3229H109.398ZM114.911 14.1543H119.339V15.6604H112.923V5.78049H114.911V14.1543ZM127.772 11.3229H124.098V14.1543H128.465V15.6604H122.14V5.78049H128.465V7.31674H124.128V9.78664H127.803V11.3229H127.772ZM138.676 14.5804C138.573 14.6855 138.459 14.7877 138.332 14.8865C138.098 15.0671 137.823 15.2359 137.502 15.3893C136.899 15.6905 136.116 15.841 135.152 15.841C133.948 15.841 132.984 15.4797 132.231 14.7266C131.478 13.9736 131.087 13.0097 131.087 11.8049V9.7265C131.087 8.52163 131.448 7.55769 132.2 6.80469C132.923 6.05157 133.887 5.66008 135.032 5.66008C136.237 5.66008 137.17 5.9613 137.803 6.53361C138.436 7.10592 138.767 7.8589 138.736 8.82284V8.85297H136.869C136.869 8.61001 136.836 8.38738 136.767 8.18824C136.693 7.96777 136.576 7.77627 136.417 7.61795C136.116 7.31674 135.665 7.16619 135.092 7.16619C134.49 7.16619 134.008 7.40714 133.616 7.8589C133.255 8.34094 133.073 8.94324 133.073 9.66623V11.7447C133.073 12.4976 133.255 13.1001 133.646 13.582C134.038 14.064 134.55 14.2748 135.183 14.2748C135.665 14.2748 136.025 14.2146 136.297 14.1241C136.441 14.076 136.569 14.0192 136.68 13.9539C136.775 13.8967 136.859 13.833 136.929 13.7628V11.8349H135.032V10.4494H138.918V14.3351H138.887C138.825 14.4183 138.754 14.5002 138.676 14.5804ZM144.008 11.7748V15.6604H142.02V5.78049H145.454C146.568 5.78049 147.473 6.05157 148.105 6.56374C148.737 7.07579 149.069 7.79862 149.069 8.7023C149.069 8.99097 149.03 9.25096 148.948 9.49305C148.916 9.58736 148.877 9.67892 148.832 9.76833C148.787 9.85657 148.735 9.9428 148.676 10.0277C148.552 10.1944 148.401 10.3483 148.225 10.4894C148.02 10.6543 147.779 10.8015 147.502 10.9314C148.075 11.1121 148.496 11.3832 148.767 11.8049C149.008 12.1964 149.16 12.7085 149.16 13.3109V14.0338C149.16 14.3049 149.189 14.6062 149.279 14.9074C149.307 15.0442 149.352 15.1622 149.411 15.2646C149.482 15.3875 149.572 15.4878 149.671 15.5699V15.7207H147.623C147.442 15.5699 147.322 15.3291 147.261 14.9976C147.225 14.7967 147.199 14.5955 147.184 14.4011C147.175 14.2753 147.17 14.1522 147.17 14.0338V13.341C147.17 12.8591 147.05 12.4675 146.779 12.1964C146.642 12.0588 146.473 11.9523 146.277 11.8808C146.171 11.842 146.059 11.8134 145.937 11.7958C145.841 11.782 145.74 11.7748 145.635 11.7748H144.008ZM144.008 10.2084H145.424C145.967 10.2084 146.388 10.0879 146.659 9.84691C146.931 9.60596 147.081 9.27461 147.081 8.79271C147.081 8.34094 146.931 7.97945 146.659 7.70836C146.388 7.43728 145.996 7.31674 145.454 7.31674H144.008V10.2084ZM154.28 13.5518L153.616 15.6905H151.539L154.881 5.81062H156.9L160.214 15.6905H158.135L157.473 13.5518H154.28ZM156.991 11.9856L155.907 8.49148H155.876L154.762 11.9856H156.991ZM164.611 12.106V15.6604H162.623V5.78049H166.419C167.563 5.78049 168.436 6.0817 169.1 6.65401C169.762 7.22632 170.064 8.00958 170.064 8.94324C170.064 9.87705 169.732 10.6602 169.1 11.2325C168.436 11.8049 167.563 12.106 166.419 12.106H164.611ZM164.611 10.5699H166.419C166.961 10.5699 167.383 10.4192 167.684 10.118C167.955 9.81677 168.105 9.42529 168.105 8.97338C168.105 8.73056 168.066 8.51066 167.994 8.31369C167.922 8.11976 167.82 7.94801 167.684 7.79862C167.56 7.66049 167.404 7.55407 167.216 7.47924C166.994 7.39099 166.729 7.34687 166.419 7.34687H164.611V10.5699ZM180.937 15.6604H178.949V11.5638H174.913V15.6604H172.925V5.78049H174.913V10.0277H178.949V5.78049H180.937V15.6604ZM58.522 31.8056H59.7575V25.2992H61.9861V24.245H56.2934V25.2992H58.522V31.8056ZM66.8057 31.8056H68.0412V28.0705C68.0412 26.6548 67.3479 25.9619 65.9624 25.9619C65.756 25.9619 65.5657 25.9872 65.3892 26.0329C65.2299 26.074 65.0799 26.1316 64.9381 26.2029C64.637 26.3536 64.3959 26.5643 64.2448 26.8354H64.1548C64.1848 26.444 64.2148 26.1126 64.2148 25.7813V23.733H63.0105V31.7754H64.2148V28.9441C64.2148 28.221 64.336 27.7089 64.5771 27.4077C64.8182 27.1065 65.1792 26.956 65.6913 26.956C66.0824 26.956 66.3535 27.0764 66.5346 27.2874C66.7157 27.4982 66.8057 27.8296 66.8057 28.2813V31.8056ZM71.3807 31.8038C71.6391 31.8648 71.9217 31.896 72.2274 31.896C72.6197 31.896 72.9807 31.8658 73.2517 31.8056C73.5528 31.7452 73.8539 31.6549 74.155 31.5043V30.5103C73.8239 30.661 73.5228 30.7814 73.2217 30.8416C72.9506 30.9018 72.6197 30.932 72.2874 30.932C71.7752 30.932 71.3542 30.7814 71.0831 30.4803C70.812 30.209 70.6609 29.7572 70.6309 29.2151H74.456V28.5524C74.456 28.1262 74.3984 27.7497 74.2785 27.4226C74.17 27.1258 74.0096 26.8698 73.7939 26.6548C73.4963 26.3368 73.1111 26.1233 72.6449 26.0246C72.4489 25.9832 72.239 25.9619 72.0163 25.9619C71.203 25.9619 70.5409 26.233 70.0887 26.7752C69.6366 27.3174 69.3965 28.0404 69.3965 28.9742C69.3965 29.8778 69.6366 30.6006 70.1487 31.1127C70.4671 31.4514 70.8777 31.6848 71.3807 31.8038ZM71.0831 27.2572C71.3242 27.0163 71.6253 26.8958 72.0163 26.8958C72.2897 26.8958 72.5181 26.9541 72.7027 27.0711C72.7834 27.122 72.8561 27.1841 72.9206 27.2572C73.1307 27.4982 73.2517 27.8597 73.2517 28.3416H70.6609C70.722 27.8597 70.842 27.4982 71.0831 27.2572ZM80.0589 26.9861H81.4144V26.0524H80.0289V25.6908C80.0289 25.3595 80.0889 25.1185 80.21 24.9379C80.33 24.7871 80.5411 24.6969 80.8121 24.6969C80.9772 24.6969 81.1329 24.715 81.2897 24.746C81.419 24.7718 81.5492 24.8065 81.6854 24.8474L82.0164 23.9136C81.5954 23.7631 81.1733 23.7029 80.7521 23.7029C80.1189 23.7029 79.6379 23.8535 79.3056 24.1847C78.9745 24.5161 78.8246 25.0281 78.8246 25.6908V26.0524L77.8902 26.4138V26.9861H78.8246V31.8056H80.0589V26.9861ZM86.2938 31.0526L86.4749 31.8056H87.4394V26.0825H86.2039V28.9441C86.2039 29.4013 86.1554 29.7742 86.0585 30.0629C86.0031 30.2305 85.9316 30.3697 85.8428 30.4803C85.6017 30.7814 85.2396 30.932 84.7284 30.932C84.3363 30.932 84.0652 30.8115 83.8841 30.6006C83.763 30.4386 83.6822 30.2491 83.643 30.005C83.6234 29.8862 83.613 29.7545 83.613 29.6067V26.0825H82.3787V29.8477C82.3787 30.5404 82.5286 31.0826 82.8909 31.4139C83.2519 31.7452 83.7641 31.9261 84.4573 31.9261C84.8484 31.9261 85.2096 31.8357 85.5105 31.685C85.8128 31.5345 86.0527 31.3237 86.2338 31.0526H86.2938ZM92.1978 30.7513C91.8967 30.8416 91.5956 30.9018 91.2945 30.9018C91.0534 30.9018 90.8423 30.8416 90.7523 30.7212C90.6012 30.5705 90.5412 30.3598 90.5412 30.0584V26.9861H92.1678V26.0524H90.5412V24.7871H89.7879L89.3669 25.992L88.5236 26.444V26.9861H89.3069V30.0584C89.3069 31.2634 89.8791 31.8658 91.0234 31.8658C91.2645 31.8658 91.4756 31.8357 91.6856 31.8056C91.8967 31.7754 92.0778 31.7151 92.1978 31.6549V30.7513ZM97.1684 31.0526L97.3483 31.8056H98.3127V26.0825H97.0772V28.9441C97.0772 29.6669 96.9573 30.179 96.7163 30.4803C96.4752 30.7814 96.1141 30.932 95.6019 30.932C95.2109 30.932 94.9398 30.8115 94.7586 30.6006C94.5775 30.3598 94.4876 30.0584 94.4876 29.6067V26.0825H93.2521V29.8477C93.2521 30.5404 93.4332 31.0826 93.7642 31.4139C94.1253 31.7452 94.6375 31.9261 95.3308 31.9261C95.7219 31.9261 96.0841 31.8357 96.3851 31.685C96.6862 31.5345 96.9273 31.3237 97.1084 31.0526H97.1684ZM103.554 26.0223C103.403 25.992 103.192 25.9619 102.951 25.9619C102.59 25.9619 102.259 26.0825 101.988 26.2631C101.687 26.474 101.416 26.7451 101.235 27.0764H101.175L101.024 26.0825H100.06V31.8056H101.265V28.8234C101.265 28.3114 101.416 27.9198 101.717 27.5886C102.018 27.2572 102.409 27.1065 102.891 27.1065C103.072 27.1065 103.252 27.1366 103.433 27.1668L103.554 26.0223ZM104.819 31.1127C105.301 31.6249 105.994 31.896 106.897 31.896C107.289 31.896 107.621 31.8658 107.922 31.8056C108.223 31.7452 108.524 31.6549 108.825 31.5043V30.5103C108.725 30.556 108.627 30.599 108.531 30.6383C108.312 30.7286 108.102 30.7997 107.892 30.8416C107.621 30.9018 107.289 30.932 106.957 30.932C106.445 30.932 106.024 30.7814 105.753 30.4803C105.482 30.209 105.331 29.7572 105.301 29.2151H109.126V28.5524C109.126 27.7391 108.915 27.1065 108.464 26.6548C108.042 26.2029 107.44 25.9619 106.686 25.9619C105.873 25.9619 105.211 26.233 104.759 26.7752C104.466 27.1259 104.262 27.5522 104.154 28.0623C104.095 28.3408 104.066 28.6444 104.066 28.9742C104.066 29.8778 104.307 30.6006 104.819 31.1127ZM105.753 27.2572C105.994 27.0163 106.295 26.8958 106.686 26.8958C107.049 26.8958 107.35 27.0163 107.591 27.2572C107.801 27.4982 107.922 27.8597 107.922 28.3416H105.331C105.391 27.8597 105.512 27.4982 105.753 27.2572ZM117.591 31.1127C118.072 30.5705 118.313 29.8477 118.313 28.9139C118.313 28.0102 118.103 27.3174 117.621 26.7752C117.139 26.233 116.477 25.9619 115.663 25.9619C114.789 25.9619 114.127 26.233 113.645 26.7452C113.162 27.2572 112.921 27.98 112.921 28.9139C112.921 29.5164 113.043 30.0283 113.254 30.4803C113.464 30.932 113.765 31.2935 114.187 31.5345C114.609 31.7754 115.06 31.896 115.602 31.896C116.154 31.896 116.628 31.7803 117.025 31.5572C117.235 31.4388 117.424 31.2902 117.591 31.1127ZM115.632 30.9018C114.639 30.9018 114.157 30.2392 114.157 28.9139C114.157 28.2813 114.277 27.7994 114.518 27.4681C114.759 27.1366 115.121 26.956 115.632 26.956C116.597 26.956 117.079 27.6186 117.079 28.9139C117.079 30.2392 116.597 30.9018 115.632 30.9018ZM121.205 26.9861H122.56V26.0524H121.175V25.6908C121.175 25.3595 121.235 25.0884 121.357 24.9379C121.476 24.7871 121.687 24.6969 121.958 24.6969C122.155 24.6969 122.341 24.7229 122.53 24.7662C122.628 24.7889 122.728 24.8164 122.832 24.8474L123.163 23.9136C122.741 23.7631 122.319 23.7029 121.899 23.7029C121.544 23.7029 121.239 23.7498 120.979 23.849C120.773 23.9274 120.598 24.0385 120.452 24.1847C120.121 24.5161 119.971 25.0281 119.971 25.6908V26.0524L119.037 26.4138V26.9861H119.971V31.8056H121.205V26.9861ZM129.91 31.8056H131.146H131.235V28.7632C131.235 28.1609 131.356 27.7089 131.567 27.4077C131.778 27.1065 132.11 26.956 132.59 26.956C132.953 26.956 133.194 27.0764 133.373 27.2874C133.444 27.3991 133.501 27.5238 133.541 27.6707C133.588 27.8402 133.614 28.0391 133.614 28.2813V31.8056H134.82V28.0705C134.82 27.3776 134.64 26.8354 134.339 26.5041C134.008 26.1727 133.525 25.992 132.831 25.992C132.44 25.992 132.08 26.0825 131.778 26.233C131.476 26.3837 131.235 26.6247 131.055 26.8958H130.964C130.693 26.2932 130.091 25.992 129.218 25.992C128.856 25.992 128.524 26.0524 128.223 26.2029C127.922 26.3536 127.681 26.5643 127.531 26.8354H127.47L127.29 26.0825H126.326V31.8056H127.531V28.9441C127.531 28.444 127.589 28.0451 127.694 27.7469C127.741 27.6139 127.798 27.5008 127.862 27.4077C128.073 27.1065 128.404 26.956 128.887 26.956C129.247 26.956 129.519 27.0764 129.67 27.2874C129.732 27.3881 129.785 27.4996 129.824 27.6283C129.879 27.8068 129.91 28.0186 129.91 28.2813V31.8056ZM140.785 31.1127C141.266 30.5705 141.507 29.8477 141.507 28.9139C141.507 28.404 141.431 27.9614 141.283 27.5749C141.168 27.2764 141.011 27.0115 140.814 26.7752C140.332 26.233 139.669 25.9619 138.857 25.9619C137.983 25.9619 137.32 26.233 136.838 26.7452C136.356 27.2572 136.116 27.98 136.116 28.9139C136.116 29.5164 136.236 30.0283 136.447 30.4803C136.658 30.932 136.96 31.2935 137.38 31.5345C137.686 31.709 138.006 31.8203 138.365 31.8684C138.502 31.8868 138.645 31.896 138.795 31.896C139.64 31.896 140.303 31.6249 140.785 31.1127ZM138.827 30.9018C137.833 30.9018 137.351 30.2392 137.351 28.9139C137.351 28.2813 137.471 27.7994 137.711 27.4681C137.952 27.1366 138.315 26.956 138.827 26.956C139.79 26.956 140.272 27.6186 140.272 28.9139C140.272 30.2392 139.79 30.9018 138.827 30.9018ZM146.718 31.8056H147.953V28.1006C147.953 26.6849 147.291 25.992 145.905 25.992C145.513 25.992 145.152 26.0524 144.85 26.2029C144.549 26.3536 144.308 26.5643 144.127 26.8354H144.067L143.886 26.0825H142.923V31.8056H144.127V28.9441C144.127 28.221 144.279 27.7089 144.49 27.4077C144.699 27.1065 145.091 26.956 145.604 26.956C145.858 26.956 146.061 27.0068 146.221 27.0999C146.309 27.1503 146.384 27.2133 146.447 27.2874C146.628 27.4982 146.718 27.8296 146.718 28.2813V31.8056ZM150.061 31.1127C150.544 31.6249 151.236 31.896 152.14 31.896C152.532 31.896 152.863 31.8658 153.164 31.8056C153.465 31.7452 153.766 31.6549 154.068 31.5043V30.5103C153.894 30.5889 153.721 30.6594 153.556 30.7176C153.406 30.7705 153.263 30.8129 153.134 30.8416C152.863 30.9018 152.532 30.932 152.2 30.932C151.687 30.932 151.267 30.7814 150.995 30.4803C150.822 30.306 150.696 30.0574 150.622 29.7582C150.581 29.5915 150.553 29.409 150.544 29.2151H154.369V28.5524C154.369 27.7391 154.159 27.1065 153.706 26.6548C153.284 26.2029 152.682 25.9619 151.928 25.9619C151.116 25.9619 150.453 26.233 150.002 26.7752C149.549 27.3174 149.31 28.0404 149.31 28.9742C149.31 29.8778 149.549 30.6006 150.061 31.1127ZM151.433 26.9652C151.574 26.9189 151.726 26.8958 151.899 26.8958C152.07 26.8958 152.222 26.9187 152.36 26.9644C152.537 27.0236 152.684 27.1213 152.804 27.2572C153.013 27.4982 153.134 27.8597 153.134 28.3416H150.544C150.591 27.9615 150.676 27.6564 150.829 27.426C150.869 27.3644 150.915 27.3082 150.966 27.2572C151.1 27.122 151.255 27.0247 151.433 26.9652ZM155.995 26.0825H154.67L157.02 31.7754L156.808 32.3176C156.568 33.0105 156.147 33.3418 155.574 33.3418C155.333 33.3418 155.122 33.3117 154.941 33.2816V34.2453C155.121 34.2901 155.317 34.3185 155.516 34.3298C155.585 34.3337 155.655 34.3357 155.724 34.3357C156.779 34.3357 157.501 33.7333 157.954 32.5585L160.393 26.0825H159.068C158.42 27.9088 158.02 29.1025 157.838 29.6483L157.742 29.9379C157.653 30.209 157.591 30.4501 157.562 30.6307H157.532C157.472 30.2392 157.35 29.7875 157.171 29.3355L155.995 26.0825Z" fill="#80889C"/>
</svg>
