<svg width="160" height="32" viewBox="0 0 160 32" fill="none" xmlns="http://www.w3.org/2000/svg">
	<path d="M14.3584 15.8659C14.3584 16.712 15.0294 17.3731 15.8882 17.3731C16.747 17.3731 17.4179 16.712 17.4179 15.8659C17.4179 15.0197 16.747 14.3586 15.8882 14.3586C15.0294 14.3851 14.3584 15.0462 14.3584 15.8659ZM27.187 14.3851C26.3282 14.3851 25.6572 15.0462 25.6572 15.8923C25.6572 16.7385 26.3282 17.3995 27.187 17.3995C28.0458 17.3995 28.7167 16.7385 28.7167 15.8923C28.7167 15.0462 28.0458 14.3851 27.187 14.3851ZM27.187 25.7025C26.3282 25.7025 25.6572 26.3636 25.6572 27.2098C25.6572 28.0559 26.3282 28.717 27.187 28.717C28.0458 28.717 28.7167 28.0559 28.7167 27.2098C28.7167 26.3636 28.0458 25.7025 27.187 25.7025Z" fill="#80889C"/>
	<path fill-rule="evenodd" clip-rule="evenodd" d="M24.1846 1.07821C25.7827 -0.431285 28.4994 -0.350422 30.0176 1.56341C31.1363 2.99204 31.1363 5.09455 30.1242 6.84665C28.606 8.84134 25.6761 8.94917 24.078 7.03534C22.5865 5.41802 20.1361 5.41802 18.6179 7.03534L18.5113 7.14316C18.2183 7.41271 17.8454 7.70922 17.4726 7.8979C17.391 7.93327 17.3298 7.9738 17.2779 8.00821C17.2111 8.05246 17.1596 8.08659 17.0997 8.08659H16.9931C16.9399 8.08659 16.8932 8.11355 16.8466 8.1405C16.8 8.16746 16.7534 8.19441 16.7001 8.19441H16.5137C16.4072 8.30224 16.3273 8.30223 16.2207 8.30223H14.6226C14.5427 8.19441 14.5427 8.19441 14.4362 8.19441C14.3563 8.08659 14.3296 8.08659 14.2497 8.08659C14.2098 8.08659 14.1831 8.05964 14.1565 8.03269C14.1299 8.00573 14.1032 7.97878 14.0633 7.97878C14.0233 7.97878 13.9967 7.95182 13.9701 7.92487C13.9434 7.89791 13.9168 7.87096 13.8768 7.87096C13.8369 7.87096 13.8102 7.844 13.7836 7.81704C13.757 7.79008 13.7303 7.76313 13.6904 7.76313C13.6504 7.76313 13.6238 7.73617 13.5972 7.70922C13.5705 7.68226 13.5439 7.65531 13.5039 7.65531C13.464 7.65531 13.4374 7.62835 13.4107 7.6014C13.3841 7.57444 13.3575 7.54749 13.3175 7.54749C13.2804 7.54749 13.2605 7.52426 13.2392 7.49937C13.2146 7.47063 13.1881 7.43967 13.1311 7.43967L12.9446 7.25098L12.8381 7.14316L12.7315 7.03534C11.24 5.41802 8.78955 5.41802 7.27135 7.03534L7.16481 7.14316L7.05827 7.25098C5.64662 8.67961 5.54008 10.9708 6.76529 12.5073L7.05827 12.8846C7.05827 12.9222 7.08122 12.9423 7.10582 12.9638C7.13422 12.9887 7.16481 13.0155 7.16481 13.0733C7.91059 13.7472 8.28348 14.7176 8.28348 15.661V15.9576C8.28348 17.0088 7.91059 18.0601 7.05827 18.8148C5.64662 20.2434 5.54008 22.5346 6.76529 24.0711L7.05827 24.4485L7.24472 24.6372C8.65637 26.0658 10.9203 26.1736 12.4385 24.9337L12.8114 24.6372L12.9979 24.4485C14.596 22.939 17.3127 23.0198 18.8309 24.9337C19.9496 26.4701 19.9496 28.5726 18.8309 30.0013C17.2328 32.0229 14.4095 32.1038 12.7049 30.2978C11.2133 28.6805 8.76291 28.6805 7.24472 30.2978L7.13818 30.4056L6.84519 30.7021C6.71024 30.7606 6.51947 30.8757 6.35369 30.9756C6.29043 31.0138 6.23081 31.0497 6.17932 31.0795H6.07278C6.01951 31.0795 5.9729 31.1064 5.92629 31.1334C5.87968 31.1603 5.83306 31.1873 5.77979 31.1873H5.72652C5.67325 31.1873 5.62664 31.2143 5.58003 31.2412C5.53342 31.2682 5.48681 31.2951 5.43354 31.2951H5.327C5.197 31.2951 5.08603 31.3208 4.97242 31.3471C4.85327 31.3747 4.7312 31.4029 4.58122 31.4029H3.7289C3.62236 31.2951 3.54245 31.2951 3.43591 31.2951H3.32937C3.29229 31.2951 3.23226 31.2719 3.16792 31.247C3.09362 31.2183 3.01358 31.1873 2.95648 31.1873C2.77004 31.1873 2.69014 31.1873 2.5836 31.0795H2.53032C2.4859 31.0458 2.4461 31.0261 2.40708 31.0068C2.35251 30.9799 2.29945 30.9537 2.23734 30.8908C2.23734 30.783 2.1308 30.783 2.1308 30.783C2.02426 30.783 1.94436 30.7021 1.83783 30.5943L1.83782 30.5943C1.83782 30.4865 1.73127 30.4865 1.73127 30.4865L1.62473 30.3786C1.62473 30.3301 1.59597 30.3107 1.54994 30.2797C1.51926 30.259 1.48091 30.2331 1.43829 30.19L1.33175 30.0821C1.33175 30.0821 1.22521 30.0821 1.22521 29.9743C1.11867 29.9743 1.11867 29.8665 1.11867 29.8665C1.01213 29.8665 1.01213 29.7587 1.01213 29.7587C0.90559 29.6778 0.825685 29.57 0.719145 29.3813C0.612605 29.3813 0.612605 29.2735 0.612605 29.2735C0.612605 29.2196 0.58597 29.1724 0.559335 29.1252C0.5327 29.078 0.506065 29.0309 0.506065 28.977C0.399525 28.977 0.399525 28.8691 0.399525 28.8691C0.399525 28.8691 0.292985 28.7883 0.292985 28.6805C0.167265 28.5532 0.126318 28.3892 0.0803176 28.205C0.0580984 28.116 0.0347001 28.0223 0 27.9257V27.171C0 26.7936 0.10654 26.3084 0.292985 25.931C0.399525 25.8502 0.399525 25.8501 0.399525 25.7423C0.399525 25.7019 0.42616 25.6749 0.452795 25.648C0.47943 25.621 0.506065 25.5941 0.506065 25.5536C0.506065 25.5161 0.529013 25.496 0.553608 25.4744C0.582008 25.4496 0.612605 25.4227 0.612605 25.365L0.719145 25.2571C0.752465 25.2122 0.771891 25.1719 0.790941 25.1324C0.817576 25.0772 0.843477 25.0235 0.90559 24.9606C1.01213 24.9606 1.01213 24.8528 1.01213 24.8528C1.01213 24.745 1.09203 24.6641 1.19857 24.5563V24.4485L1.38502 24.2598L1.49156 24.152C3.00975 22.6425 3.00975 20.1626 1.49156 18.6261C0.932225 18.0601 0.559335 17.3862 0.37289 16.7123V16.6045C0.26635 16.4967 0.26635 16.4158 0.26635 16.308V14.8793C0.37289 14.7715 0.37289 14.6906 0.37289 14.5828V14.475C0.37289 14.4211 0.399525 14.3739 0.42616 14.3268C0.452795 14.2796 0.47943 14.2324 0.47943 14.1785V14.0707C0.51275 14.0257 0.532176 13.9854 0.551226 13.9459C0.577861 13.8907 0.603762 13.837 0.665875 13.7742V13.6663C0.689756 13.61 0.706499 13.5632 0.721083 13.5225C0.755296 13.4269 0.777621 13.3646 0.85232 13.289C0.932224 13.1003 1.22521 12.8038 1.41165 12.6151L1.41166 12.6151C2.92985 11.0786 2.92985 8.59875 1.5182 7.17012L1.33175 6.98143L1.14531 6.79274C1.11122 6.76687 1.06895 6.72996 1.02112 6.68819C0.91946 6.59941 0.792668 6.48869 0.665875 6.41536C0.641995 6.35897 0.625252 6.31221 0.610668 6.27148C0.576455 6.17593 0.55413 6.11359 0.47943 6.03799C0.47943 5.98408 0.452795 5.93691 0.42616 5.88973C0.399525 5.84256 0.37289 5.79539 0.37289 5.74148V5.63366C0.37289 5.57975 0.346255 5.53258 0.31962 5.4854C0.292985 5.43823 0.26635 5.39106 0.26635 5.33715C0.05327 4.69022 0.0532701 4.01634 0.15981 3.34246C0.15981 3.235 0.194364 3.16251 0.224115 3.1001C0.246605 3.05292 0.26635 3.0115 0.26635 2.96508C0.26635 2.91117 0.292985 2.864 0.31962 2.81683C0.346255 2.76966 0.37289 2.72249 0.37289 2.66857C0.405738 2.60209 0.438585 2.53226 0.472452 2.46026C0.630817 2.12359 0.811475 1.73952 1.11867 1.42863L1.41166 1.13213L1.5182 1.0243C1.91772 0.646924 2.37051 0.45824 2.84994 0.269553H2.87658C2.90555 0.240236 2.93802 0.221547 2.96764 0.204496C3.01973 0.174514 3.06302 0.149595 3.06302 0.0808627H4.76766C5.51344 0.161729 6.17932 0.539103 6.73865 1.0243L6.9251 1.21299C6.9251 1.32081 7.03164 1.32081 7.03164 1.32081C8.33675 2.74944 10.6007 2.85726 12.1189 1.61732L12.4918 1.32081L12.6783 1.13213L12.7848 1.0243C12.8292 0.990577 12.869 0.970919 12.908 0.95164C12.9626 0.924687 13.0157 0.898476 13.0778 0.835616C13.0778 0.727795 13.1843 0.727797 13.1843 0.727797C13.2288 0.694077 13.2685 0.674417 13.3076 0.655137C13.3621 0.628181 13.4152 0.601967 13.4773 0.539106C13.4773 0.431285 13.5838 0.431287 13.5838 0.431287C13.6371 0.431287 13.6837 0.404332 13.7303 0.377377C13.777 0.350422 13.8236 0.323467 13.8768 0.323467C13.8768 0.215646 13.9834 0.215639 13.9834 0.215639C14.0366 0.215639 14.0833 0.188684 14.1299 0.161729C14.1765 0.134775 14.2231 0.10782 14.2764 0.10782H14.4628C14.5693 0 14.6492 0 14.7558 0H16.274C16.3111 0 16.3711 0.0232237 16.4354 0.0481146C16.5097 0.0768556 16.5898 0.10782 16.6469 0.10782C17.3127 0.296507 17.952 0.67388 18.4314 1.15908V1.2669C19.8431 2.69553 22.107 2.80335 23.6252 1.56341L23.9981 1.2669L24.1846 1.07821ZM49.8943 12.2131C50.5562 12.5096 51.0328 12.8871 51.5889 13.4533L53.6806 11.5121C52.9392 10.7572 52.0919 10.0832 51.0593 9.70575C50.1061 9.32831 49.0735 9.13959 47.9615 9.13959C46.8494 9.13959 45.7109 9.32831 44.7842 9.70575C43.8575 10.0832 43.0102 10.6494 42.3483 11.3234C41.6863 12.1052 41.1303 12.968 40.7596 13.9116C40.389 14.8552 40.2036 16.0145 40.2036 17.1468C40.2036 18.2792 40.389 19.4385 40.7596 20.3821C41.1303 21.3257 41.6863 22.1884 42.3483 22.8624C43.0102 23.5365 43.8575 24.1026 44.7842 24.4801C45.7109 24.8575 46.8494 25.0462 47.9615 25.0462C49.1 25.0462 50.1326 24.8575 51.0593 24.4801C52.0125 24.1026 52.8598 23.5365 53.6011 22.6737L51.6418 20.5708C51.1652 21.137 50.6092 21.5144 50.0532 21.811C49.4971 22.1076 48.8352 22.2963 47.9879 22.2963C47.2466 22.2963 46.5846 22.2154 46.0286 21.9188C45.4461 21.6492 44.8901 21.2718 44.5194 20.7865C44.4988 20.7595 44.4782 20.7326 44.4576 20.7057C44.1081 20.2495 43.7677 19.8054 43.5927 19.1689C43.3279 18.5218 43.222 17.8208 43.222 17.1738C43.222 16.5267 43.3279 15.8527 43.5133 15.1787C43.6986 14.5047 43.9899 13.9385 44.3605 13.4533C44.7312 12.8871 45.2078 12.5096 45.7638 12.2131C46.3199 11.9165 47.0877 11.7278 47.8291 11.7278C48.6763 11.7278 49.3383 11.9165 49.8943 12.2131ZM58.3141 19.088C58.0493 18.5218 57.9434 17.74 57.9434 16.9851C57.9434 16.2302 58.1287 15.5562 58.3141 14.8822L58.3141 14.8822C58.4994 14.2081 58.8701 13.642 59.2408 13.1567C59.638 12.7792 60.194 12.4018 60.75 12.1052C61.4119 11.8356 62.0739 11.7278 62.8152 11.7278C63.5566 11.7278 64.3244 11.8087 64.8805 12.1052C65.463 12.294 66.019 12.6714 66.3897 13.1567C66.7603 13.642 67.131 14.2081 67.3164 14.8822C67.5811 15.4483 67.687 16.2302 67.687 16.9851C67.687 17.74 67.5017 18.414 67.3164 19.088C67.131 19.762 66.7603 20.3282 66.3897 20.8134C65.9925 21.1909 65.4365 21.5683 64.8805 21.8649C64.2185 22.1345 63.5566 22.2423 62.8152 22.2423C62.0739 22.2423 61.306 22.1615 60.75 21.8649C60.1675 21.6762 59.6115 21.2987 59.2408 20.8134C58.8701 20.3282 58.4994 19.762 58.3141 19.088ZM55.5075 13.8307C55.1368 14.8013 54.9515 15.8527 54.9515 16.9851C54.9515 18.1017 55.2347 19.1397 55.4965 20.099L55.5075 20.1394C55.9841 21.1909 56.4607 21.9727 57.202 22.7276C57.9699 23.5095 58.8172 24.0757 59.7439 24.4531C60.697 24.9384 61.7297 25.1271 62.8417 25.1271C63.9802 25.1271 65.0128 24.8306 65.9395 24.4531C66.9722 23.9678 67.74 23.4825 68.4814 22.7276C69.2492 21.9458 69.8052 21.0831 70.1759 20.1394C70.5466 19.1689 70.7319 18.1174 70.7319 16.9851C70.7319 15.8258 70.5466 14.7743 70.1759 13.8307C69.6993 12.8601 69.2227 11.9974 68.4814 11.2425C67.7135 10.4606 66.8662 9.89448 65.9395 9.51703C64.9864 9.03175 63.9802 8.84302 62.8417 8.84302C61.7032 8.84302 60.6706 9.13959 59.7439 9.51703C58.7112 9.89448 57.9434 10.4876 57.202 11.2425C56.4342 12.0244 55.8782 12.8871 55.5075 13.8307ZM76.4246 24.7227H73.618V9.46311H76.4246V24.7227ZM73.5121 2.37252C73.1414 2.85781 72.956 3.34309 72.956 3.90926C72.956 4.47543 73.1414 5.0416 73.5121 5.44601C73.8827 5.9313 74.3593 6.12002 74.9154 6.12002C75.4714 6.12002 75.948 5.82345 76.3186 5.44601C76.6893 4.96072 76.8747 4.50239 76.8747 3.90926C76.8747 3.31613 76.6893 2.74997 76.3186 2.37252C75.948 1.88723 75.4714 1.69851 74.9154 1.69851C74.3593 1.69851 73.8827 1.99508 73.5121 2.37252ZM83.1763 9.43615H80.3432L80.5285 9.46311V24.9114H83.3351V16.9851C83.3351 16.1223 83.441 15.3674 83.6264 14.6934C83.8117 14.0194 84.103 13.4533 84.4737 13.0758C84.8708 12.6175 85.3209 12.3209 85.7975 12.1322C86.2741 11.9435 86.8301 11.8356 87.3862 11.8356C87.8627 11.8356 88.3393 11.9165 88.71 12.0244C89.1601 12.1322 89.5308 12.4018 89.8221 12.6984C90.0868 12.9949 90.3781 13.4533 90.5634 13.9385C90.7488 14.3969 90.8547 15.0709 90.8547 15.7449V24.8036H93.7142V14.963C93.7142 13.9116 93.5289 13.0488 93.2376 12.294C92.867 11.5391 92.4963 10.9729 92.0197 10.4876C91.5431 10.0023 90.9871 9.62487 90.3251 9.43615C89.6632 9.16654 89.0013 9.0587 88.2599 9.0587C87.042 9.0587 86.0093 9.32831 85.1621 9.8136C84.2089 10.2719 83.6529 10.9459 83.2822 11.8087H83.1763V9.43615ZM106.132 21.9458C105.47 22.2154 104.808 22.3232 104.067 22.3232C103.325 22.3232 102.558 22.1345 102.002 21.9458C101.34 21.6762 100.784 21.2987 100.413 20.8134C100.042 20.3282 99.6716 19.762 99.4863 19.088C99.2215 18.4409 99.1156 17.6591 99.1156 16.9042C99.1156 16.0684 99.3009 15.3944 99.4863 14.7204C99.6716 14.0464 100.042 13.4802 100.413 12.9949C100.89 12.5366 101.34 12.1592 102.002 11.8626C102.664 11.593 103.325 11.4851 104.067 11.4851C104.808 11.4851 105.47 11.566 106.132 11.8626C106.794 12.1322 107.244 12.5096 107.721 12.9949C108.091 13.4802 108.462 14.0464 108.647 14.7204C108.912 15.3674 109.018 16.1493 109.018 16.9042C109.018 17.7399 108.833 18.4139 108.647 19.0879L108.647 19.088C108.462 19.762 108.091 20.3282 107.721 20.8134C107.244 21.2718 106.794 21.6492 106.132 21.9458ZM109.045 24.6149H111.745V0H108.939V11.4582H108.833C108.383 10.6763 107.615 10.0293 106.688 9.544C105.761 9.05871 104.729 8.86999 103.696 8.86999C102.478 8.86999 101.446 9.0587 100.519 9.43615C99.5922 9.81359 98.7449 10.4067 98.083 11.1616C97.4211 11.9435 96.9445 12.8062 96.5738 13.7498C96.2031 14.8013 96.0178 15.8258 96.0178 16.9851C96.0178 18.1444 96.2031 19.1958 96.5738 20.1394C96.865 21.11 97.4211 21.9727 98.083 22.7276C98.7449 23.5095 99.5922 24.0757 100.519 24.4531C101.446 24.8306 102.584 25.0193 103.696 25.0193C104.729 25.0193 105.761 24.8306 106.688 24.3453C107.615 23.86 108.383 23.2938 108.939 22.4311H109.045V24.6149ZM125.884 13.9385C126.069 14.5047 126.175 15.0709 126.175 15.7449L126.149 15.5831H117.147C117.147 15.1595 117.288 14.7359 117.447 14.2584C117.47 14.1889 117.494 14.1183 117.517 14.0464C117.703 13.4802 118.073 12.9949 118.444 12.6175C118.921 12.1322 119.397 11.8626 119.953 11.566C120.509 11.2964 121.171 11.1886 121.833 11.1886C122.601 11.1886 123.157 11.3773 123.713 11.566C124.19 11.8356 124.666 12.1322 125.037 12.5096C125.408 12.8871 125.699 13.3724 125.884 13.9385ZM117.676 19.9238C117.385 19.3576 117.2 18.7914 117.2 18.1174H129.167V17.066C129.167 16.0145 129.088 15.0439 128.797 14.1003C128.505 13.1297 128.029 12.267 127.473 11.5121C126.917 10.7572 126.149 10.191 125.222 9.70575C124.296 9.22046 123.183 9.03174 121.86 9.03174C120.721 9.03174 119.688 9.22047 118.762 9.59791C117.835 10.0832 116.988 10.5685 116.326 11.3234C115.664 12.1052 115.108 12.968 114.737 13.9116C114.367 14.8822 114.181 15.9336 114.181 17.066C114.181 18.2253 114.367 19.2767 114.737 20.2203C115.028 21.2718 115.584 22.0536 116.246 22.8085C116.908 23.5904 117.756 24.1565 118.682 24.534C119.609 24.9114 120.642 25.1002 121.86 25.1002C124.666 25.1002 126.917 24.0487 128.505 21.9458L126.361 20.2203C125.805 20.8943 125.249 21.4605 124.587 21.8379C123.951 22.3232 123.104 22.512 122.257 22.512C121.595 22.512 121.039 22.4041 120.377 22.2154C119.821 22.0267 119.265 21.7301 118.788 21.3527C118.338 20.9752 117.967 20.4899 117.676 19.9238ZM139.017 12.2131C139.493 12.5096 139.864 12.8871 140.235 13.2645L142.565 11.6199C142.009 10.7572 141.241 10.0832 140.314 9.70575C139.361 9.32831 138.434 9.13959 137.402 9.13959C136.74 9.13959 135.998 9.24743 135.337 9.43615C134.675 9.62487 134.119 9.92144 133.563 10.2989C132.98 10.6763 132.53 11.1616 132.239 11.7278C131.947 12.294 131.762 13.0758 131.762 13.8307C131.762 14.5047 131.842 15.1518 132.133 15.637C132.424 16.1223 132.795 16.5807 133.165 16.8772C133.536 17.1468 134.013 17.4434 134.569 17.6321C134.827 17.7345 135.14 17.8131 135.461 17.8937C135.732 17.9616 136.009 18.0311 136.263 18.1174L137.375 18.414C137.746 18.4949 138.117 18.6027 138.487 18.7914C138.858 18.9801 139.123 19.1689 139.414 19.4654C139.679 19.762 139.785 20.1394 139.785 20.5169C139.785 20.8134 139.679 21.0831 139.493 21.3796L139.493 21.3797C139.308 21.5684 139.123 21.7571 138.832 21.9458C138.575 22.1284 138.294 22.21 137.941 22.3128L137.905 22.3232C137.534 22.4311 137.163 22.4311 136.793 22.4311C135.946 22.4311 135.31 22.2424 134.728 21.8649C134.145 21.4875 133.695 21.11 133.218 20.6247L131.074 22.4311C131.842 23.4825 132.689 24.1565 133.616 24.534C134.569 24.9114 135.681 25.1002 136.899 25.1002C137.534 25.1002 138.302 24.9923 139.043 24.8036C139.785 24.6149 140.447 24.3453 141.003 23.9409C141.559 23.5365 142.035 22.9703 142.406 22.4041C142.777 21.8379 142.962 21.0831 142.962 20.2203C142.962 19.4654 142.777 18.8993 142.591 18.414C142.327 17.9287 142.035 17.5512 141.665 17.1738C141.294 16.7963 140.817 16.4998 140.261 16.3111C139.947 16.1333 139.552 16.0259 139.161 15.9193C138.958 15.8641 138.756 15.8092 138.567 15.7449C138.302 15.7449 137.931 15.664 137.455 15.5562C137.084 15.4753 136.607 15.3674 136.237 15.1787C135.866 14.99 135.495 14.8013 135.204 14.5047C134.913 14.316 134.728 13.9385 134.728 13.4533C134.728 12.8871 134.992 12.5096 135.469 12.2131C136.025 11.9165 136.581 11.7278 137.243 11.7278C137.905 11.7278 138.54 11.9165 139.017 12.2131ZM148.496 0.377453H145.716V24.3992H148.522V16.5807L155.353 24.3992H159.378L151.885 16.2032L158.716 9.32831H154.877L148.496 15.8258V0.377453Z" fill="#80889C"/>
</svg>
