<svg width="105" height="29" viewBox="0 0 105 29" fill="none" xmlns="http://www.w3.org/2000/svg">
	<path fill-rule="evenodd" clip-rule="evenodd" d="M59.5143 9.53625V0.751609L59.4132 0.748097C59.3917 0.747816 59.3716 0.748659 59.3514 0.752312L58.8287 0.848837C56.493 1.27863 54.1561 1.70871 51.8215 2.15059C51.7799 2.1586 51.7316 2.19218 51.69 2.23602C51.6371 2.29123 51.5944 2.36276 51.5855 2.4205C51.5135 2.85451 51.5911 2.93614 52.043 2.99066C53.1332 3.12146 53.6997 3.59791 53.9268 4.67767C54.0549 5.28717 54.1347 5.91634 54.1505 6.53947C54.2033 8.50018 54.2471 10.4626 54.2348 12.4233C54.2191 15.0291 54.1943 17.6347 54.1651 20.2401C54.1415 22.3749 54.1145 24.5099 54.0865 26.645C54.083 26.9019 54.1292 27.0576 54.2809 27.1478C54.309 27.1647 54.3415 27.1793 54.3776 27.1918C54.4281 27.2093 54.4865 27.223 54.5528 27.2333C54.808 27.2718 55.062 27.3129 55.3161 27.3552L56.1052 27.4887L56.6885 27.5882C57.2483 27.6825 57.8081 27.7726 58.37 27.8458C60.0561 28.065 61.75 28.0938 63.4247 27.7421C66.1887 27.163 68.339 25.7081 69.7035 23.1922C70.4623 21.7932 70.8309 20.2809 70.9658 18.7004C71.121 16.8879 70.9972 15.1109 70.3352 13.4026C69.5035 11.2557 68.1378 9.57783 65.901 8.82306C63.8362 8.12673 61.8197 8.44426 59.883 9.38197C59.8032 9.42047 59.7212 9.45307 59.6368 9.48693L59.5143 9.53625ZM59.4705 17.5488L59.4738 16.6648V15.5562V14.9227C59.4738 13.656 59.4738 12.3893 59.4693 11.1227C59.4682 10.9019 59.5289 10.7937 59.7526 10.7211C60.8868 10.3551 61.9916 10.2697 63.028 10.9956C63.717 11.4788 64.1577 12.1601 64.5072 12.9096C65.0726 14.1217 65.3142 15.4162 65.3828 16.7343C65.5031 19.046 65.2839 21.3206 64.4308 23.4999C64.1127 24.312 63.6923 25.0622 63.0864 25.702C62.303 26.53 61.3341 26.7819 60.2382 26.6427C59.9504 26.6059 59.7852 26.583 59.6896 26.5172C59.5592 26.4283 59.557 26.2607 59.5502 25.8736V25.863C59.5255 24.3294 59.4862 22.7968 59.4727 21.2639C59.4615 20.0257 59.466 18.787 59.4705 17.5488ZM21.2234 1.9182L21.2256 1.21583H20.5772C13.9646 1.21583 7.35305 1.21442 0.740434 1.21892L0.468421 1.21527C0.295323 1.21147 0.18854 1.20909 0.122223 1.23367C0.0671461 1.25405 0.0401696 1.29297 0.0266815 1.3649C0.0131932 1.43543 0.0143172 1.53786 0.0154413 1.68581L0.0143172 1.97061L0.0120692 2.00658L0.00982115 2.04058C0.00869713 2.05041 0.00982115 2.05955 0.0120692 2.06727L0.0188133 2.08104C0.0896266 2.16268 0.162688 2.28295 0.252609 2.30107C0.33691 2.31807 0.422336 2.33057 0.508885 2.34069L0.679737 2.35783L0.830355 2.3702L1.03718 2.38804C2.01057 2.48022 2.7558 2.91576 3.14359 3.84295C3.22227 4.03248 3.30207 4.22792 3.36277 4.42631C3.41335 4.58874 3.45044 4.75298 3.46506 4.91737L3.52351 5.55174L3.57297 6.07693C3.69772 7.40356 3.82249 8.73145 3.82587 10.0588C3.83823 13.62 3.77529 17.1812 3.71234 20.7423L3.70897 20.897L3.68874 21.9415C3.67187 22.9184 3.54711 23.8939 3.17506 24.8157C2.86259 25.5901 2.33655 26.1119 1.47891 26.2456C1.12148 26.3017 0.766286 26.378 0.409972 26.4484C0.000829019 26.5293 -0.0216514 26.6033 0.00982115 27.203C0.0255574 27.5039 0.202029 27.4867 0.36726 27.4708C0.404352 27.4673 0.44032 27.4638 0.474041 27.4639C2.10724 27.4676 3.74157 27.4678 5.37477 27.4676L8.5445 27.4669L13.2587 27.4677C13.4429 27.4677 13.6521 27.4684 13.5993 27.2068C13.5509 26.9641 13.8207 26.5919 13.3509 26.5006C13.1226 26.4566 12.8945 26.4054 12.6651 26.364C12.5122 26.3365 12.3594 26.3132 12.2054 26.2994C11.7839 26.2611 11.4231 26.1487 11.1208 25.964C10.6756 25.692 10.3553 25.263 10.153 24.6834C10.0979 24.5266 10.0496 24.3688 10.0057 24.2102C9.95852 24.0351 9.91805 23.859 9.88321 23.6822C9.74383 22.9777 9.69774 22.2591 9.67752 21.5362C9.61794 19.5141 9.55162 17.492 9.47744 15.4701C9.46508 15.1508 9.58422 15.0518 9.89445 15.0723C10.7959 15.132 11.6996 15.1752 12.6023 15.216C13.307 15.2477 13.8858 15.5313 14.3389 16.0667C14.9526 16.7896 15.1987 17.6676 15.3999 18.5673C15.4133 18.6247 15.455 18.696 15.5044 18.7499C15.5258 18.7733 15.5494 18.7934 15.5718 18.8076C15.5909 18.8193 15.61 18.8269 15.627 18.829C15.8945 18.8638 16.1687 18.8418 16.4475 18.8418V9.98458L16.2261 9.98739L16.1171 9.98922L15.9765 9.98951C15.9124 9.98881 15.8496 9.98655 15.7866 9.98164C15.6888 9.97391 15.6168 9.98178 15.5595 10.0089C15.4662 10.0537 15.4156 10.1511 15.3684 10.3173C15.3178 10.4945 15.2661 10.6724 15.2121 10.8497C15.1402 11.0828 15.0638 11.3149 14.9784 11.5426C14.8828 11.7968 14.7772 12.0456 14.6547 12.2849C14.2422 13.0918 13.5351 13.5584 12.6023 13.6105L12.0424 13.6397L11.5018 13.6649C10.9656 13.6895 10.4295 13.7141 9.89333 13.7505C9.64717 13.7674 9.52577 13.7109 9.48756 13.5379C9.47631 13.4876 9.47294 13.4274 9.4752 13.3565C9.49318 12.8248 9.50216 12.2928 9.51117 11.7605L9.51454 11.6012L9.52464 10.982L9.555 9.25131C9.5786 7.90445 9.60221 6.55773 9.6303 5.21087C9.63592 4.93521 9.64829 4.65968 9.66066 4.38416L9.66514 4.26614C9.67752 3.99075 9.68988 3.71537 9.69774 3.43985C9.70449 3.16994 9.7798 3.04279 10.0934 3.04742C11.5141 3.06779 12.9349 3.04587 14.3545 3.06709C15.89 3.08971 17.132 3.73926 18.1178 4.90388C18.917 5.84834 19.4172 6.9538 19.8454 8.09877L19.8488 8.10888C20.0017 8.5117 20.0758 8.71178 20.2152 8.78077C20.2602 8.80325 20.313 8.81181 20.377 8.809C20.4253 8.8069 20.4805 8.79832 20.5446 8.78428L20.6322 8.7632L20.7199 8.73903L20.9537 8.67074L20.984 8.66204C21.2347 8.58715 21.3145 8.47082 21.3089 8.21215C21.2718 6.57797 21.2482 4.94392 21.2268 3.30974C21.2211 2.8524 21.2223 2.39506 21.2234 1.9182ZM18.7 18.5613C18.6933 15.8693 19.2104 13.7536 20.5355 11.8873C22.0226 9.79407 24.0785 8.63787 26.6109 8.32413C28.2339 8.12293 29.8425 8.19473 31.4003 8.73468C33.6236 9.50519 35.2389 10.9806 36.11 13.1584C37.5082 16.6489 37.533 20.1494 35.7278 23.5129C34.3082 26.1595 31.986 27.56 29.0219 27.9094C27.4595 28.0931 25.914 28.0077 24.4156 27.5002C21.9136 26.6525 20.2916 24.9065 19.3946 22.4542C18.8854 21.0605 18.6854 19.6139 18.7 18.5613ZM31.4891 17.7136C31.47 17.5143 31.4498 17.2717 31.4273 16.9979L31.4239 16.9727C31.3621 16.2233 31.2812 15.245 31.1395 14.2746C30.9518 12.9807 30.5798 11.7277 29.8076 10.6357C28.8488 9.27997 27.2459 9.02805 26.0949 10.0655C25.5284 10.5768 25.2295 11.2588 25.0012 11.9705C24.6045 13.2091 24.4573 14.4878 24.3842 15.7809C24.2571 17.9935 24.2571 20.1977 24.6989 22.3816C24.7203 22.4851 24.7416 22.5883 24.7652 22.6913L24.8034 22.8593C24.8585 23.0953 24.9192 23.3291 24.9878 23.5598C25.0395 23.7314 25.0957 23.9013 25.1576 24.069C25.1991 24.1828 25.243 24.2957 25.2901 24.4076C25.4745 24.8508 25.7027 25.2773 25.9916 25.6801C26.9841 27.064 28.7465 27.1592 29.8682 25.8858C30.3696 25.3164 30.6506 24.6328 30.8529 23.9167C31.3688 22.0866 31.4228 20.2046 31.4891 17.7136ZM89.0322 24.4385C89.0063 24.3126 88.8681 24.1856 88.6084 23.9559C88.4792 24.0328 88.351 24.1128 88.2229 24.1929C87.9498 24.3638 87.6755 24.5355 87.3866 24.6796C86.2772 25.2332 85.0936 25.3481 83.8707 25.243C82.1397 25.0939 80.7133 24.39 79.6624 22.9879C78.5124 21.453 78.1933 19.6637 78.118 17.8066C78.1044 17.4816 78.1022 17.3298 78.1944 17.259C78.2742 17.1973 78.4259 17.1972 78.7025 17.1972L81.0561 17.1966L83.5178 17.196C85.3196 17.1961 87.1202 17.1975 88.9209 17.2031C89.2447 17.2038 89.3739 17.1314 89.3469 16.7858C89.2525 15.5842 89.1367 14.3893 88.7523 13.2354C88.0341 11.0849 86.755 9.45152 84.5676 8.65374C83.2525 8.17435 81.8913 8.15159 80.5212 8.3195C77.8111 8.65066 75.6946 9.96421 74.2615 12.2834C72.6215 14.934 72.2798 17.8301 72.9294 20.8374C73.524 23.5869 75.0314 25.705 77.5649 27.0034C79.5589 28.0242 81.6845 28.2284 83.8605 27.7837C85.7837 27.3906 87.4316 26.4793 88.7242 24.9761C88.9523 24.7111 89.0591 24.5754 89.0322 24.4385ZM83.8066 15.618L83.7864 15.7226L83.4706 15.7455L83.2176 15.7642L83.0726 15.7734L82.8489 15.7832C81.6699 15.8119 80.4896 15.8358 79.3105 15.8597L79.1992 15.8618L78.6664 15.8724C78.4147 15.8773 78.2832 15.8794 78.2192 15.8247C78.1483 15.765 78.1562 15.6376 78.1742 15.3725L78.1764 15.3467C78.2664 13.9969 78.5405 12.6909 79.0969 11.4538C79.387 10.8074 79.749 10.2069 80.3469 9.78803C81.2203 9.17698 82.2071 9.36834 82.795 10.2583C83.3131 11.0433 83.5256 11.9379 83.6402 12.8452C83.6999 13.3154 83.7313 13.7895 83.756 14.2644C83.7785 14.6794 83.7942 15.095 83.819 15.5093C83.8212 15.5433 83.8145 15.5777 83.8066 15.618ZM102.993 14.3032L102.802 13.8168C102.659 13.4438 102.517 13.0773 102.354 12.7213C101.848 11.6241 101.237 10.6017 100.121 10.0096C99.7969 9.8379 99.4643 9.70991 99.1237 9.63404C98.6583 9.53034 98.1772 9.52387 97.6826 9.63614C96.6531 9.8698 95.9123 10.7485 95.7526 11.8025C95.5752 12.9792 96.0068 13.8578 96.942 14.5362C97.2015 14.7247 97.4713 14.8957 97.7467 15.0538C98.076 15.2427 98.4143 15.413 98.7583 15.5729C99.2056 15.7814 99.6632 15.972 100.12 16.1625L100.325 16.2482C101.489 16.7345 102.615 17.2767 103.507 18.2067C104.333 19.0672 104.686 20.11 104.734 21.2792C104.799 22.8815 104.419 24.3386 103.353 25.578C102.318 26.7834 100.967 27.4284 99.4473 27.7528C97.7298 28.1195 96 28.0643 94.287 27.768C93.1821 27.5766 92.0985 27.2614 91.0048 26.9997C90.8835 26.9705 90.7946 26.9219 90.7396 26.8404C90.6969 26.7759 90.6755 26.6907 90.6743 26.5785C90.6677 25.8838 90.6609 25.1892 90.6507 24.4947C90.6441 24.0261 90.6351 23.5577 90.625 23.0892C90.6148 22.6307 90.6035 22.1722 90.5889 21.7139C90.5766 21.3208 90.8104 21.2817 91.0375 21.2436C91.1004 21.2329 91.1633 21.2224 91.2206 21.2042C91.2432 21.1972 91.2791 21.2167 91.3196 21.2504C91.3972 21.3147 91.4882 21.4314 91.5219 21.5173C91.9861 22.7046 92.5065 23.8624 93.3855 24.809C94.5556 26.071 95.9967 26.5687 97.677 26.1309C98.765 25.8471 99.4181 25.0805 99.6565 23.9772C99.9049 22.8232 99.5631 21.8456 98.5841 21.2179C97.7669 20.6946 96.8654 20.2893 95.9685 19.9104C95.5796 19.7465 95.1873 19.592 94.7995 19.4275C94.6523 19.365 94.5061 19.3008 94.3612 19.2343C93.8666 19.0073 93.3855 18.7511 92.9393 18.423C91.3972 17.2895 90.8385 15.7226 90.9587 13.8737C91.115 11.4729 92.7369 9.48932 95.1042 8.69997C96.6519 8.18348 98.23 8.1752 99.8273 8.30741C101.02 8.40646 102.178 8.65684 103.305 9.06219C103.586 9.16349 103.685 9.30258 103.686 9.60579C103.692 10.4335 103.71 11.2612 103.728 12.0889L103.755 13.3762C103.769 14.1135 103.764 14.1135 102.993 14.3032ZM45.1909 12.4445V8.25304L45.0998 8.26189C45.0526 8.2661 45.0144 8.26947 44.9774 8.27721C42.5383 8.77093 40.1014 9.26999 37.6611 9.75698C37.3768 9.81374 37.2239 9.89761 37.2317 10.2334C37.2407 10.5805 37.4284 10.5963 37.6893 10.6274C39.0695 10.7892 39.5056 11.1734 39.6832 12.573C39.8215 13.6665 39.8901 14.775 39.8957 15.8769C39.9012 17.0125 39.8979 18.1483 39.8856 19.284C39.8732 20.4238 39.8507 21.5636 39.8203 22.7031C39.7979 23.5363 39.6944 24.3787 39.518 25.1931C39.373 25.8637 38.8851 26.2858 38.1681 26.3811C38.0377 26.3987 37.9073 26.4218 37.778 26.4475L37.4667 26.5126C37.3992 26.5269 37.2846 26.5671 37.2812 26.6026C37.2688 26.7613 37.2508 26.9247 37.2542 27.0831C37.2565 27.1723 37.2655 27.26 37.2857 27.3443C37.3048 27.4193 37.5813 27.4669 37.7409 27.4669C41.0331 27.4737 44.3254 27.4767 47.6188 27.4684C48.4933 27.4662 48.3865 27.6529 48.3787 26.6541C48.3787 26.6208 48.3506 26.5875 48.3258 26.533C47.983 26.5027 47.6357 26.4605 47.2872 26.4446C46.125 26.3901 45.5191 25.9244 45.3798 24.7742C45.2191 23.4561 45.1088 22.1253 45.0887 20.7981C45.0561 18.6748 45.1437 16.5492 45.1179 14.425C45.11 13.7868 45.3977 13.4744 45.9047 13.2566C47.4772 12.5822 48.9856 12.8029 50.4524 13.5902C50.5671 13.6521 50.6852 13.7096 50.8222 13.7807L51.3 12.5011C51.7237 11.3635 52.1407 10.2441 52.5758 9.13159C52.632 8.98717 52.6544 8.87504 52.6386 8.78399C52.6162 8.65107 52.5105 8.56313 52.3071 8.48515C50.693 7.86651 49.2059 8.14864 47.8166 9.10743C46.7432 9.84858 46.0204 10.8823 45.4371 12.0271C45.3966 12.1079 45.3483 12.1854 45.2899 12.2806L45.1909 12.4445Z" fill="#80889C"/>
</svg>
