<svg width="171" height="28" viewBox="0 0 171 28" fill="none" xmlns="http://www.w3.org/2000/svg">
	<g clip-path="url(#clip0_1573_13358)">
		<path fill-rule="evenodd" clip-rule="evenodd" d="M85.6261 6.13603V1.67629L90.8605 0.115479V4.59983L85.6261 6.13603ZM0.243164 22.2486H6.11448V0.432301L0.243164 2.00751V22.2486ZM80.903 6.12452H84.7946L83.816 9.56466H80.9225C80.8998 9.85989 80.8674 10.0869 80.8674 10.313C80.863 12.4048 80.8653 14.4968 80.8653 16.5885V16.6408C80.8653 16.7282 80.8653 16.8157 80.8685 16.9027C80.9193 17.936 81.2783 18.3404 82.3292 18.4017C82.7866 18.4285 83.2472 18.397 83.7078 18.3655L83.7176 18.3648L83.8214 18.3577C83.9717 18.3476 84.121 18.3381 84.2701 18.331C84.3524 18.3269 84.4356 18.3133 84.5545 18.2938L84.7837 18.2572L83.6701 22.2478C81.847 22.5124 80.0759 22.5618 78.3144 22.1504C76.9272 21.8269 76.0189 21.0055 75.701 19.6518C75.5464 18.9938 75.4167 18.3121 75.4134 17.6407C75.3853 12.9341 75.3939 8.22733 75.3918 3.52067C75.3918 3.41777 75.4134 3.315 75.4329 3.13433L80.809 1.68715C80.8792 2.46953 80.8728 3.23462 80.8663 4.00612C80.8598 4.7013 80.8533 5.40172 80.903 6.12452ZM116.18 22.3656L111.394 23.6464L111.455 23.8737C111.491 24.0056 111.52 24.1172 111.565 24.2227C112.195 25.7139 113.324 26.7432 114.867 27.2694C117.748 28.2509 120.656 28.2777 123.5 27.1422C125.627 26.2925 127.026 24.7496 127.58 22.5744C127.77 21.8222 127.848 21.026 127.852 20.2495C127.871 16.8239 127.869 13.398 127.866 9.97221L127.864 6.44893V5.57099L122.679 6.95925L122.571 7.95816L122.34 7.69684L122.121 7.44692L121.97 7.28196C121.039 6.27847 119.866 5.74301 118.482 5.67231C115.071 5.49872 112.359 7.26311 111.28 10.3963C110.486 12.7065 110.549 15.0347 111.392 17.319C112.231 19.5945 113.913 20.9837 116.373 21.4453C118.688 21.8788 120.728 21.4594 122.275 19.5867C122.311 19.5417 122.365 19.5093 122.426 19.4724C122.457 19.4532 122.49 19.4327 122.524 19.4084C122.688 20.5542 122.602 21.7438 122.3 22.5479C121.913 23.5836 121.2 24.2816 120.054 24.4778C118.44 24.7543 117.126 24.097 116.38 22.6742C116.348 22.6144 116.31 22.5583 116.262 22.4875L116.18 22.3656ZM122.091 11.1862C122.552 11.9817 122.696 12.854 122.786 13.783C122.615 14.4606 122.525 15.172 122.254 15.8089C121.732 17.0299 120.674 17.5584 119.346 17.5474C118.022 17.5364 117.081 16.9028 116.607 15.7061C116.028 14.251 116.082 12.7795 116.716 11.3581C117.184 10.3091 118.052 9.75947 119.258 9.72176C120.5 9.68249 121.473 10.1215 122.091 11.1862ZM8.08457 22.2492H13.4813L13.4985 21.9387L13.5018 21.8915L13.5137 21.6711C13.518 21.5901 13.5212 21.5106 13.5223 21.4311C13.5244 20.7513 13.5233 20.0711 13.5233 19.391V18.7112L13.5244 16.806C13.5256 15.6297 13.5277 14.4542 13.5331 13.2779C13.5331 13.2147 13.5342 13.1518 13.5374 13.089C13.5407 13.0014 13.5471 12.9143 13.5569 12.828C13.5666 12.7361 13.5796 12.6449 13.5959 12.5546L13.6272 12.3968L13.6521 12.2908C13.73 11.9828 13.85 11.6849 14.0197 11.3996C14.6566 10.3294 15.9411 9.81746 17.3133 10.0868C18.3686 10.294 18.9449 10.9912 19.1082 12.3137C19.1763 12.857 19.213 13.4067 19.2153 13.9541L19.2217 16.3201V17.7321C19.2228 18.2783 19.2217 18.8244 19.2206 19.3706L19.2196 21.4021V22.2594H24.6237C24.6454 22.031 24.6822 21.8275 24.6822 21.6243C24.6854 18.3577 24.6886 15.0911 24.6779 11.8244C24.6745 10.8556 24.5805 9.89275 24.2518 8.96702C23.8009 7.6941 22.9889 6.71181 21.6848 6.19586C21.1171 5.97133 20.5009 5.81031 19.8921 5.7366C17.4571 5.43968 15.3421 6.05068 13.718 7.92111C13.6531 7.99574 13.6445 8.11578 13.6099 8.21476L13.3915 8.08986L13.3223 5.57242L8.08457 6.97483V22.2492ZM109.463 22.2634H104.121L104.095 21.9186C104.081 21.7508 104.069 21.5871 104.069 21.4233L104.068 18.5696C104.068 17.09 104.069 15.6105 104.064 14.1307C104.063 13.5567 104.037 12.9804 103.984 12.4087C103.862 11.0753 103.257 10.3081 102.19 10.0883C100.799 9.80254 99.4524 10.3341 98.8523 11.4546C98.7257 11.6922 98.6273 11.9508 98.5549 12.2143L98.5149 12.3689L98.4802 12.5254L98.4586 12.6379C98.3754 13.0981 98.3645 13.5741 98.3624 14.0435C98.3559 15.7993 98.357 17.5546 98.3581 19.3101L98.3592 21.3361V22.2374H93.0457C92.8706 21.7193 92.809 8.13778 92.9895 6.95911L98.1981 5.57242V8.24304C98.4219 8.04195 98.5203 7.97452 98.5938 7.88655C100.583 5.49073 104.227 5.11696 106.801 6.30741C107.848 6.79193 108.599 7.59132 108.963 8.64273C109.235 9.42563 109.469 10.2634 109.483 11.0808C109.544 14.6867 109.518 18.2941 109.521 21.9014C109.521 21.9995 109.49 22.0993 109.463 22.2634ZM46.5077 17.1461L58.0147 14.0585C58.0147 13.9305 58.0179 13.8221 58.019 13.7238C58.0211 13.6179 58.0211 13.5241 58.0125 13.4312C57.9919 13.2072 57.9703 12.9829 57.9455 12.7591L57.926 12.5968L57.914 12.4971L57.9022 12.4095L57.8697 12.1843C57.3778 8.93887 55.1298 6.5839 51.8276 5.87956C50.4933 5.59455 49.1417 5.54978 47.7998 5.82457C44.3354 6.53377 41.9847 8.46455 40.9294 11.7745C40.5575 12.9412 40.5542 14.1419 40.658 15.3496C40.9467 18.7041 43.0941 21.3558 46.4363 22.28C50.1861 23.3174 53.7111 22.6805 57.0003 20.7049C57.1507 20.6137 57.288 20.5006 57.4318 20.3822L57.5389 20.2947L57.6383 20.2157L56.2251 16.5196L56.0175 16.4073C55.9872 16.458 55.9591 16.5117 55.9321 16.5653C55.8737 16.679 55.8153 16.7926 55.7288 16.8792C54.0204 18.5706 51.9368 19.3267 49.5007 19.1651C48.641 19.1077 47.8614 18.8298 47.217 18.2628C46.8839 17.9699 46.5833 17.6456 46.5077 17.1461ZM47.59 9.87493C49.6347 8.36571 52.4471 9.69348 52.6839 11.9251L46.0027 13.7162C45.98 12.1466 46.3282 10.8069 47.59 9.87493ZM73.9645 9.78696L69.2783 11.0432L69.2091 10.912L69.2025 10.8994L69.1582 10.816L69.1312 10.7599C69.1172 10.729 69.1053 10.6985 69.0956 10.6671C69.0296 10.4468 68.9388 10.2515 68.8252 10.0802C68.7333 9.94118 68.6262 9.81798 68.5052 9.71011C68.2078 9.4433 67.8261 9.27022 67.3774 9.18225C67.1157 9.13106 66.8519 9.09231 66.588 9.07385C66.0755 9.03785 65.562 9.07843 65.057 9.25373C64.6018 9.4124 64.2395 9.66207 64.1811 10.178C64.1238 10.6978 64.418 11.0543 64.8505 11.2436C65.4851 11.5215 66.1458 11.7704 66.8217 11.9283C67.1546 12.0063 67.491 12.0745 67.8282 12.1384C68.0846 12.1869 68.3419 12.2331 68.5992 12.2793L69.2512 12.398C69.554 12.4544 69.8557 12.5137 70.1552 12.58C70.7564 12.7127 71.3706 12.8768 71.9166 13.1454C75.3485 14.832 74.9236 18.6184 73.2563 20.4134C72.6108 21.1084 71.8366 21.6322 70.9413 21.9549C67.9396 23.0353 64.912 23.0668 61.9061 21.9958C60.1631 21.3747 58.9391 20.2141 58.4233 18.4387C58.3941 18.3389 58.3768 18.2345 58.3639 18.1316V18.121C58.3628 18.1159 58.3617 18.1108 58.3628 18.1052L58.3639 18.0774L58.3703 18.0051L58.3855 17.8607L62.9323 16.6334C62.9668 16.73 62.9972 16.8222 63.0263 16.9111L63.036 16.9359C63.102 17.129 63.1615 17.3066 63.2339 17.4799C63.7022 18.6082 64.5791 19.2442 65.8214 19.3126C66.1361 19.3296 66.4562 19.3119 66.7752 19.2735C67.0713 19.2376 67.3676 19.1835 67.6564 19.1226C67.9807 19.0543 68.303 18.8438 68.556 18.6216C69.2578 18.0053 69.1907 17.0369 68.3916 16.5502C68.1667 16.4133 67.9191 16.3024 67.6628 16.2117C67.4606 16.1399 67.253 16.0807 67.0476 16.0312C66.6291 15.9305 66.2085 15.8358 65.7879 15.7434L65.071 15.5875C64.3357 15.4279 63.5994 15.2683 62.8684 15.0881C62.2446 14.935 61.6347 14.7065 61.0476 14.4488C57.9735 13.103 58.0243 8.85874 60.3361 7.23732C61.2985 6.56269 62.3635 6.15907 63.515 5.93141C65.6993 5.4995 67.8661 5.56392 70.0125 6.14886C70.2752 6.22047 70.5325 6.30334 70.7845 6.39918C71.3608 6.61847 71.9036 6.90583 72.3966 7.28275C73.2055 7.90003 73.7655 8.67035 73.9645 9.78696ZM36.2626 6.17008L33.2285 16.6074L33.0685 16.6098L30.0647 6.16143H24.3686L29.9209 22.2611H36.2496L41.8301 6.17008H36.2626ZM90.9773 5.58277V22.2517H85.6314V7.01266L90.9773 5.58277ZM169.404 22.2698H170.636L170.663 22.0434L170.673 21.9567C170.678 21.9106 170.683 21.8676 170.684 21.8245V20.7513L170.686 18.8122C170.687 18.1361 170.686 17.4601 170.684 16.784L170.68 15.5799L170.675 14.8454C170.672 14.4315 170.601 14.0091 170.497 13.607C170.274 12.7583 169.796 12.0752 168.941 11.71C167.515 11.1006 165.335 11.2058 164.138 12.8532C164.079 12.9348 164.015 13.0139 163.948 13.1005L163.91 13.1472L163.776 13.315C163.161 11.9259 162.06 11.3464 160.599 11.3778C159.171 11.4092 158.108 12.0971 157.241 13.2043L157.163 11.5537L156.017 11.845V22.236H157.31V21.3338V20.1577V19.4518C157.31 18.5109 157.31 17.5695 157.312 16.6286C157.313 16.1973 157.33 15.7679 157.395 15.3461C157.453 14.9725 157.55 14.6049 157.711 14.2471C158.033 13.5232 158.521 12.9451 159.308 12.6711C160.799 12.152 162.448 12.5493 162.623 14.591L162.637 14.7581L162.653 15.0447C162.66 15.2063 162.663 15.3683 162.663 15.5301C162.665 16.601 162.665 17.6722 162.665 18.7434C162.665 19.6327 162.665 20.5222 162.668 21.4116C162.668 21.6031 162.682 21.7951 162.696 21.9812L162.712 22.2226H164.007V21.3809L164.005 19.9607C164.001 18.7351 163.997 17.5092 164.018 16.2839C164.025 15.9168 164.047 15.5432 164.102 15.1765C164.136 14.9486 164.181 14.7233 164.241 14.5038C164.676 12.9294 165.918 12.233 167.585 12.5384C168.45 12.697 168.997 13.1878 169.199 13.9949C169.268 14.2721 169.31 14.5585 169.333 14.8465C169.349 15.0284 169.355 15.2109 169.358 15.392C169.369 16.7159 169.367 18.0405 169.366 19.3647V21.4304C169.367 21.5979 169.379 21.7655 169.39 21.9366V21.948V21.9594V21.9708V21.9822L169.404 22.2698ZM154.152 17.0173C154.165 18.1889 153.907 19.2992 153.297 20.3161C151.478 23.344 146.934 23.4092 145.123 20.3774C143.796 18.1575 143.796 15.8065 145.117 13.585C146.917 10.5564 151.478 10.6184 153.296 13.6401C153.537 14.0411 153.724 14.4564 153.86 14.884C154.077 15.5667 154.166 16.2805 154.152 17.0173ZM152.836 16.9764C152.819 15.914 152.592 14.9042 151.99 14.0004C150.624 11.9532 147.764 11.9423 146.384 13.9722C145.24 15.6557 145.243 18.3223 146.391 19.9942C147.789 22.0271 150.625 22.0098 151.992 19.9533C152.592 19.0495 152.82 18.0405 152.836 16.9764ZM141.551 14.9772L142.792 14.6789C142.497 13.2372 141.773 12.196 140.399 11.6872C138.485 10.9773 135.81 11.3447 134.502 13.6566C133.259 15.8528 133.264 18.1316 134.514 20.3255C135.448 21.9651 137.001 22.679 138.915 22.5831C141.007 22.4779 142.731 20.7763 142.764 18.7943L141.678 18.5101C141.618 18.6759 141.565 18.8322 141.515 18.9805C141.416 19.2767 141.327 19.5417 141.202 19.7891C140.27 21.6244 138.096 22.0656 136.512 20.7566C134.439 19.0424 134.437 14.9019 136.508 13.1979C136.61 13.113 136.72 13.0339 136.832 12.9632C138.485 11.9235 140.523 12.5195 141.282 14.2666C141.375 14.4795 141.445 14.7001 141.551 14.9772ZM132.065 22.2454H130.42V20.1551H132.065V22.2454Z" fill="#80889C"/>
	</g>
	<defs>
		<clipPath id="clip0_1573_13358">
			<rect width="170.513" height="27.8846" fill="white" transform="translate(0.243164 0.115479)"/>
		</clipPath>
	</defs>
</svg>
