<svg width="172" height="42" viewBox="0 0 172 42" fill="none" xmlns="http://www.w3.org/2000/svg">
	<path d="M18.3684 41.2495C17.1791 40.595 7.28292 35.2174 5.56445 34.287C8.69043 29.8238 11.8055 25.3877 15.0569 20.7514C15.1933 23.781 15.0569 26.6156 15.1443 29.4992C17.7574 29.4992 20.3324 29.4992 23.0546 29.4992C23.5947 28.7093 36.475 10.9757 36.7969 10.5537C36.7205 11.3597 36.8024 24.9061 36.8024 29.9482C36.2241 31.2087 18.7066 41.2495 18.3684 41.2495Z" fill="#80889C"/>
	<path d="M21.3089 20.6702C21.3089 17.619 21.3089 14.7084 21.3089 11.7168C18.6849 11.7168 16.1154 11.7168 13.3604 11.7168C12.7167 12.7013 0.643742 29.6398 0 30.408L0.00545545 10.3372C5.62456 6.60974 11.4674 3.27181 17.5665 0.166504C18.8213 0.52897 29.7103 6.0417 31.0579 6.83155C29.3775 9.20109 27.7355 11.5111 26.0989 13.8266C24.5277 16.0609 22.9674 18.3061 21.3089 20.6702Z" fill="#80889C"/>
	<path d="M82.6064 12.4044C83.4248 12.4044 84.074 12.4044 84.9141 12.4044C86.2616 16.7649 87.7455 21.4012 89.1312 25.886C89.4366 25.2097 92.5791 15.2338 93.1955 13.1564C93.2719 12.8968 93.3264 12.6803 93.4301 12.4099C94.112 12.4099 94.9249 12.3991 95.7105 12.3991C97.0798 16.8568 98.4654 21.3633 99.8569 25.8752C100.282 24.7446 104.15 12.9833 104.385 12.3828C105.159 12.3828 105.803 12.3828 106.61 12.3828C104.756 17.8902 102.911 23.3703 101.073 28.8345C100.396 28.8345 99.5674 28.8345 98.8364 28.8345C98.6455 28.4341 94.7994 15.9912 94.5811 15.4448C93.1464 19.9946 91.6298 24.4361 90.2441 28.8345C89.524 28.8345 88.8857 28.8345 88.2528 28.8345H87.9364C86.4253 23.5273 84.2049 17.7982 82.6064 12.4044Z" fill="#80889C"/>
	<path d="M50.2389 12.3853C51.0626 12.3853 51.8318 12.3853 52.481 12.3853C55.5524 16.5833 58.7165 20.8626 61.7389 24.9957C61.7443 24.9904 61.7389 24.7198 61.7389 24.655C61.7389 24.655 61.7389 24.7037 61.7389 24.655C61.7443 20.6029 61.7443 16.5455 61.7443 12.4231C62.4644 12.4231 63.1518 12.4231 63.8773 12.4231C63.8773 17.8763 63.8773 23.2917 63.8773 28.7719C63.2282 28.7719 62.579 28.7719 61.7607 28.7719C58.7602 24.6821 55.6724 20.4731 52.3555 15.9558C52.3555 20.4785 52.3555 24.6279 52.3555 28.8044C51.5863 28.8044 50.9426 28.8044 50.2334 28.8044C50.2389 23.3674 50.2389 17.9521 50.2389 12.3853Z" fill="#80889C"/>
	<path d="M79.8112 26.7444C79.8112 27.4639 79.8112 28.0644 79.8112 28.6649C79.8112 28.7244 79.8112 28.838 79.8112 28.838C79.8112 28.838 79.5767 28.838 79.5276 28.838C75.927 28.838 71.7263 28.838 68.2566 28.838C68.2566 28.1996 68.2402 28.0212 68.2402 27.5343C68.2511 24.0718 68.2457 20.6095 68.2457 17.1472C68.2457 15.5999 68.2457 14.0527 68.2457 12.4243C72.0918 12.4243 75.9543 12.4243 79.8112 12.4243C79.8112 12.9653 79.8112 13.4846 79.8112 14.004C79.8112 14.188 79.8112 14.2312 79.8112 14.4476C77.0617 14.4476 73.7612 14.4476 70.8589 14.4476C70.8589 16.141 70.8589 17.7802 70.8589 19.4789C73.4229 19.4789 75.9925 19.4789 78.6438 19.4789C78.6438 20.101 78.6438 20.6636 78.6438 21.2857C76.0579 21.2857 73.483 21.2857 70.8425 21.2857C70.8425 23.1035 70.8425 24.8564 70.8425 26.739C73.8649 26.7444 76.838 26.7444 79.8112 26.7444Z" fill="#80889C"/>
	<path d="M109.092 15.2421C109.67 13.6894 110.968 12.7535 112.425 12.3585C115.306 11.7472 117.575 12.1259 119.943 13.6949C119.627 14.2087 119.561 14.2954 118.814 15.3718C117.537 14.4955 116.086 14.2087 114.531 14.2034C113.647 14.2628 111.612 14.0789 111.247 16.4972C111.236 17.7793 112.322 18.488 113.707 18.8396C114.88 19.1372 115.813 19.5646 117.128 20.138C119.736 21.2795 120.27 23.6166 120.303 23.9683C120.466 25.9213 119.452 27.7012 116.985 28.491C115.104 29.0969 113.222 28.9995 111.367 28.4045C110.456 28.1123 109.517 27.6038 108.797 27.0952C108.475 26.868 108.143 26.6786 107.794 26.3703C108.246 25.6724 108.53 25.2018 108.939 24.4498C109.229 24.6987 109.506 24.9259 109.774 25.1151C111.04 26.0025 112.333 26.6895 113.942 26.7003C114.242 26.7003 116.751 26.9871 117.755 25.4289C118.17 24.7473 118.066 23.898 117.755 23.3191C116.839 22.0965 115.393 21.8259 114.084 21.3445C113.194 21.0144 112.322 20.6682 111.443 20.3274C110.347 19.9054 109.332 19.1805 108.983 18.0336C108.704 16.7947 108.852 16.1293 109.092 15.2421Z" fill="#80889C"/>
	<path d="M137.933 20.4274C139.385 21.2606 140.116 22.5103 140.116 24.1874C140.116 25.5831 139.619 26.7246 138.62 27.6172C137.628 28.5099 136.401 28.9589 134.949 28.9589H127.912V12.5073H134.453C135.876 12.5073 137.071 12.9401 138.042 13.811C139.013 14.6821 139.499 15.7911 139.499 17.1382C139.499 18.5015 138.975 19.5997 137.933 20.4274ZM134.453 15.5423H131.185V19.1615H134.453C134.96 19.1615 135.38 18.9883 135.719 18.6421C136.057 18.2959 136.226 17.8685 136.226 17.3491C136.226 16.8298 136.062 16.4024 135.729 16.0562C135.402 15.7154 134.971 15.5423 134.453 15.5423ZM134.949 25.9293C135.5 25.9293 135.958 25.7454 136.324 25.3775C136.689 25.0097 136.87 24.5444 136.87 23.9817C136.87 23.4354 136.689 22.9755 136.324 22.6076C135.958 22.2397 135.5 22.0558 134.949 22.0558H131.18V25.9347H134.949V25.9293Z" fill="#80889C"/>
	<path d="M153.837 12.5073V15.6072H149.358V28.9535H146.09V15.6127H141.633V12.5128H153.837V12.5073Z" fill="#80889C"/>
	<path d="M164.164 29.2869C161.666 29.2869 159.61 28.4646 157.978 26.8199C156.353 25.1753 155.54 23.1466 155.54 20.7338C155.54 18.3047 156.353 16.2706 157.978 14.6367C159.604 12.9976 161.666 12.1807 164.164 12.1807C165.665 12.1807 167.05 12.5269 168.321 13.2247C169.593 13.9227 170.586 14.8639 171.295 16.0541L168.475 17.6771C168.066 16.9414 167.482 16.3679 166.723 15.9513C165.965 15.5348 165.114 15.3292 164.164 15.3292C162.555 15.3292 161.252 15.8324 160.264 16.8332C159.277 17.8341 158.786 19.1378 158.786 20.7338C158.786 22.3188 159.277 23.6064 160.264 24.6127C161.252 25.6135 162.55 26.1166 164.164 26.1166C165.114 26.1166 165.971 25.9111 166.734 25.4945C167.499 25.0779 168.082 24.5099 168.475 23.7903L171.295 25.4134C170.586 26.6035 169.598 27.5503 168.332 28.2427C167.072 28.9352 165.681 29.2869 164.164 29.2869Z" fill="#80889C"/>
</svg>
