<?xml version="1.0" standalone="no"?>
<!DOCTYPE svg PUBLIC "-//W3C//DTD SVG 1.1//EN" "http://www.w3.org/Graphics/SVG/1.1/DTD/svg11.dtd" >
<svg xmlns="http://www.w3.org/2000/svg" xmlns:xlink="http://www.w3.org/1999/xlink" version="1.1">
<metadata>
Created by FontForge 20170731 at Wed Feb  8 14:36:55 2023
 By Aleksey,,,
Chendolle (c) Rometheme 2019
</metadata>
<defs>
<font id="ChendolleRegular" horiz-adv-x="0" >
  <font-face 
    font-family="Chendolle"
    font-weight="400"
    font-stretch="normal"
    units-per-em="2048"
    panose-1="0 0 0 0 0 0 0 0 0 0"
    ascent="1638"
    descent="-410"
    x-height="1031"
    cap-height="1293"
    bbox="15.184 -350.407 1630.31 1730.21"
    underline-thickness="102"
    underline-position="-307"
    unicode-range="U+000A-00AD"
  />
<missing-glyph horiz-adv-x="1079" 
d="M102 1434h875v-1434h-875v1434zM160 1393l379 -633l381 633h-760zM514 717l-369 614v-1231zM541 674l-379 -631h758zM565 717l371 -621v1239z" />
    <glyph glyph-name=".notdef" horiz-adv-x="1079" 
d="M102 1434h875v-1434h-875v1434zM160 1393l379 -633l381 633h-760zM514 717l-369 614v-1231zM541 674l-379 -631h758zM565 717l371 -621v1239z" />
    <glyph glyph-name=".null" 
 />
    <glyph glyph-name=".null" 
 />
    <glyph glyph-name="nonmarkingreturn" horiz-adv-x="682" 
 />
    <glyph glyph-name="controlLF" unicode="&#xa;" 
 />
    <glyph glyph-name="controlCR" unicode="&#xd;" 
 />
    <glyph glyph-name="space" unicode=" " horiz-adv-x="612" 
 />
    <glyph glyph-name="exclam" unicode="!" horiz-adv-x="374" 
d="M237 401q-51 -11 -98 11t-71 69q-16 31 -19 61q-14 123 -13 161q3 107 -13 250q-15 128 2 238q6 43 25 81q24 48 65 72q52 31 107.5 17t85.5 -67q24 -42 24 -97v-98q-6 -95 9 -189q5 -33 5 -100q-2 -139 8 -208q4 -30 3 -60q-2 -51 -35.5 -90.5t-84.5 -50.5zM96 285
q36 41 88.5 48t97.5 -20t62 -79q11 -32 13 -78q1 -50 -25 -89.5t-70 -56.5q-45 -17 -91 -5t-78 50q-41 49 -40.5 115.5t43.5 114.5z" />
    <glyph glyph-name="quotedbl" unicode="&#x22;" horiz-adv-x="645" 
d="M257 1636q61 -131 91 -233q20 -65 -18 -119q-51 -73 -136 -59q-91 14 -112 99q-9 36 -38 112q-25 65 -28 136q2 50 16 78q22 46 68.5 61.5t92.5 -8.5q44 -23 64 -67zM624 1398q1 -4 4 -22q-2 -65 -54 -88q-53 -24 -100 15q-23 20 -48 66q-12 24 -42 68q-42 58 -60 112
q-13 36 -9 69q8 62 64 88.5t110 -6.5q31 -19 54 -57q31 -52 46 -106q7 -26 19 -74.5t16 -64.5z" />
    <glyph glyph-name="quotedbl" unicode="&#x201d;" horiz-adv-x="645" 
d="M257 1636q61 -131 91 -233q20 -65 -18 -119q-51 -73 -136 -59q-91 14 -112 99q-9 36 -38 112q-25 65 -28 136q2 50 16 78q22 46 68.5 61.5t92.5 -8.5q44 -23 64 -67zM624 1398q1 -4 4 -22q-2 -65 -54 -88q-53 -24 -100 15q-23 20 -48 66q-12 24 -42 68q-42 58 -60 112
q-13 36 -9 69q8 62 64 88.5t110 -6.5q31 -19 54 -57q31 -52 46 -106q7 -26 19 -74.5t16 -64.5z" />
    <glyph glyph-name="quotedbl" unicode="&#x201c;" horiz-adv-x="645" 
d="M257 1636q61 -131 91 -233q20 -65 -18 -119q-51 -73 -136 -59q-91 14 -112 99q-9 36 -38 112q-25 65 -28 136q2 50 16 78q22 46 68.5 61.5t92.5 -8.5q44 -23 64 -67zM624 1398q1 -4 4 -22q-2 -65 -54 -88q-53 -24 -100 15q-23 20 -48 66q-12 24 -42 68q-42 58 -60 112
q-13 36 -9 69q8 62 64 88.5t110 -6.5q31 -19 54 -57q31 -52 46 -106q7 -26 19 -74.5t16 -64.5z" />
    <glyph glyph-name="numbersign" unicode="#" horiz-adv-x="1097" 
d="M486 289q1 2 4.5 11.5t5.5 15.5q-40 10 -49.5 5.5t-25.5 -39.5q-11 -26 -35 -78q-8 -18 -25 -42q-42 -58 -106 -45q-61 13 -79 81q-9 34 0 88q7 41 19 74q6 17 -12 22q-6 2 -82 24q-32 9 -50 22q-35 26 -34.5 64.5t35.5 64.5q33 23 81 25q27 1 97 -8q10 -1 30 -5
q22 -5 30 15q2 4 6 12.5t6 12.5q-7 8 -31 10q-58 7 -99 18q-33 8 -55 26q-43 33 -43 83.5t43 82.5q39 31 91 29q88 -2 132 -4q10 0 23 -1t17 -1.5t11 1t8 2t5.5 6t5.5 9.5t6.5 15.5t10.5 20.5q3 6 8 18.5t8 18.5q20 37 58 51t75 -2t53 -51.5t5 -75.5q0 -2 -2 -5.5t-2 -5.5
t-2 -6.5t-2.5 -7t1.5 -6t8 -5.5q14 -5 21 -2t11 17q7 20 19.5 58.5t18.5 57.5q9 26 13 34q18 34 52 50t72 8q35 -8 59.5 -36.5t26.5 -65.5q1 -28 -11 -63q-20 -56 -29 -84q-4 -11 -5 -14t1 -7t6 -5t15 -3q7 -1 39 -6.5t48 -10.5q76 -21 86 -92q7 -50 -25 -86.5t-83 -37.5
q-9 0 -100 8q-5 1 -17 1t-17 1q-18 1 -23 -15q-10 -26 -7 -31.5t31 -10.5q77 -14 96 -20q61 -18 76 -78t-29 -103q-47 -47 -113 -26q-54 16 -74 19q-9 2 -27 4q-22 2 -27 -1.5t-12 -24.5q-35 -105 -71 -172q-19 -39 -42 -60q-46 -44 -99 -28.5t-68 78.5q-11 45 5 109
q5 20 34 98zM531 559q-2 -4 -5 -13.5t-5 -14.5q24 -8 32 -8.5t12.5 5t12.5 26.5l6 18q2 7 -7 10q-19 5 -29 0t-17 -23z" />
    <glyph glyph-name="dollar" unicode="$" horiz-adv-x="819" 
d="M132 59q-100 82 -114 216q0 58 30.5 96t80.5 46q47 7 86.5 -19.5t53.5 -73.5q10 -34 25.5 -45.5t50.5 -13.5q49 -3 107 19q30 11 51.5 43.5t17.5 62.5q-4 27 -38 54q-20 16 -44 20q-31 6 -86 20t-71 18q-181 42 -246 222q-48 132 18 268q36 75 116 117q34 18 52 26
q20 9 15 28q-12 45 -9 82q5 51 40 83.5t84 30.5q38 -2 67 -25t41 -61q12 -36 12 -75q0 -21 21 -27l75 -27q89 -33 145 -118q8 -11 23 -32.5t22 -32.5q33 -48 41 -95q10 -56 -19 -105q-22 -37 -62 -51.5t-81 -0.5t-63 51.5t-14 79.5q6 32 -23 48q-43 24 -60 29
q-66 22 -117 -10l-44 -22q-21 -11 -27.5 -35.5t6.5 -44.5q26 -37 67 -44q133 -24 261 -100q90 -53 145 -154q45 -83 21 -202q-38 -183 -190 -268q-15 -9 -11 -27q10 -42 13 -63q10 -78 -49.5 -124t-130.5 -17q-66 27 -82 103q-4 23 -6 49q0 19 -21 22q-99 12 -180 79z" />
    <glyph glyph-name="percent" unicode="%" horiz-adv-x="962" 
d="M925 414q36 -96 8 -190t-105 -145q-12 -8 -17 -13q-69 -72 -172 -65q-78 -6 -140 40t-78 110l-6 30q0 8 -0.5 29.5t0 32t1.5 28t3.5 32.5t7.5 29q5 15 14 44t13 44q19 66 84 99q106 52 217 36q123 -18 170 -141zM640 202q58 32 64 95q0 22 -7 31.5t-25 11.5
q-24 3 -74 -14q-9 -3 -17.5 -25.5t-3.5 -30.5q18 -34 34 -61q10 -18 29 -7zM622 746q-16 -30 -38 -64.5t-38.5 -58.5t-44 -63.5t-40.5 -59.5q-90 -131 -144 -258q-11 -25 -22 -40q-23 -30 -57.5 -38.5t-67.5 7.5q-33 17 -46.5 50t-0.5 69q5 14 17.5 39t13.5 28
q65 143 152 264q93 129 171 272q33 59 57 93q63 92 103 156q11 18 33 47q16 21 34 30q38 20 69 0t30 -65q-1 -12 -17 -61q-42 -124 -164 -347zM274 832q-63 -8 -113 19t-99 80q-40 44 -44 102q-5 82 13 136q16 49 49.5 81t72.5 42.5t77.5 7.5t69.5 -19q20 -11 34 -7
q40 10 84 -17q57 -37 75 -94q46 -144 -37 -265q-47 -70 -133 -67h-40v1h-9zM204 1112q-13 -39 15 -76t62 -29q29 1 35 5t15 30q2 6 4.5 18t3.5 15q6 25 -14 43q-24 21 -29 28q-13 18 -34 9q-5 -2 -14 -5t-14 -5q-23 -11 -30 -33z" />
    <glyph glyph-name="ampersand" unicode="&#x26;" horiz-adv-x="931" 
d="M612 709q4 17 0 24q8 0 19 13q34 43 93 45t98 -36q45 -42 65 -105q30 -95 8 -215q-17 -95 -51 -156q-9 -16 3 -30q34 -39 47 -67q27 -55 17 -101q-12 -53 -55.5 -73t-90.5 6q-38 21 -74 54q-15 14 -32 2q-73 -53 -171 -59q-122 -7 -204 0q-36 4 -57 13q-186 83 -207 259
q-10 88 5 192q12 77 73 159q18 25 35 43q13 14 2 32q-29 42 -50 81q-63 116 -49 248q14 137 157 203q69 32 166 37q73 4 139 -47q124 -98 141 -262q8 -77 -8 -183q-6 -40 -18 -54q-1 -8 -17 -28q-21 -28 -68 -67q-11 -10 -11.5 -13.5t9.5 -14.5q23 -25 68 -75.5t67 -75.5
q9 -12 17 -10q29 40 5 81q-11 19 -30 38q-63 61 -41 142zM486 285q-35 35 -93 108.5t-85 102.5q-32 -35 -35 -78v-22v-26.5v-22.5q2 -66 68 -68q43 -1 128 -1q12 0 17 7zM391 834q38 13 27 48q5 45 -29 91q-37 49 -85 32q-22 -8 -26.5 -14.5t-2.5 -28.5q5 -53 53 -124
q16 -23 21.5 -24t25.5 12q10 6 16 8z" />
    <glyph glyph-name="quotesingle" unicode="'" horiz-adv-x="346" 
d="M327 997q1 -5 2 -12.5t1 -8.5q-2 -65 -54 -88q-53 -23 -99 15q-25 21 -49 66q-10 20 -42 67q-41 57 -60 113q-13 36 -9 69q8 62 64.5 88.5t110.5 -6.5q30 -18 54 -58q30 -49 45 -106q8 -27 21 -79z" />
    <glyph glyph-name="quotesingle" unicode="&#x2019;" horiz-adv-x="346" 
d="M327 997q1 -5 2 -12.5t1 -8.5q-2 -65 -54 -88q-53 -23 -99 15q-25 21 -49 66q-10 20 -42 67q-41 57 -60 113q-13 36 -9 69q8 62 64.5 88.5t110.5 -6.5q30 -18 54 -58q30 -49 45 -106q8 -27 21 -79z" />
    <glyph glyph-name="quotesingle" unicode="&#x2018;" horiz-adv-x="346" 
d="M327 997q1 -5 2 -12.5t1 -8.5q-2 -65 -54 -88q-53 -23 -99 15q-25 21 -49 66q-10 20 -42 67q-41 57 -60 113q-13 36 -9 69q8 62 64.5 88.5t110.5 -6.5q30 -18 54 -58q30 -49 45 -106q8 -27 21 -79z" />
    <glyph glyph-name="parenleft" unicode="(" horiz-adv-x="638" 
d="M21 524q-4 28 -4 104q1 139 37 281q25 102 96 200q48 66 119 104q47 25 91 21q55 -5 82.5 -46.5t8.5 -93.5q-10 -26 -40 -64q-79 -103 -97 -199q-4 -21 -5.5 -45t-2 -53.5t-1.5 -45.5q-1 -28 1 -85q2 -32 12 -60q58 -157 134 -235q29 -29 56 -41q34 -15 58 -34
q39 -30 50.5 -74.5t-8.5 -86.5t-62 -60.5t-90 -5.5q-29 8 -85 26q-66 22 -124 76q-88 82 -123 147q-85 154 -103 270z" />
    <glyph glyph-name="parenright" unicode=")" horiz-adv-x="614" 
d="M579 671q16 -85 17 -167q1 -68 -19 -139q-18 -64 -29 -96q-51 -139 -144 -224q-25 -22 -45 -31q-43 -20 -88.5 -10.5t-75.5 44.5t-32.5 81.5t24.5 85.5q13 21 33 36q40 32 63 96q6 17 15 49t13 44q11 35 7 91q-9 115 -67 224q-73 137 -153 191q-37 26 -56 56
q-48 76 -7 141q42 68 133 58q25 -2 64 -19q60 -27 96 -64q137 -140 191 -274q4 -10 13.5 -33t14.5 -36t12 -32.5t12 -37t8 -34.5z" />
    <glyph glyph-name="asterisk" unicode="*" horiz-adv-x="749" 
d="M373 1117q-2 2 -5 8t-7 10.5t-10 7.5q-18 -33 -52 -95q-16 -30 -28 -43q-26 -29 -63 -37t-71 9t-49 52t-6 73q8 30 38 76q28 40 35 49q-3 4 -7 6.5t-10 3.5t-8 2q-50 16 -77 42q-46 44 -35 101t70 81q43 18 99 11q28 -2 42 -4q20 -3 20 18q1 23 3.5 70t3.5 71q0 12 1 18
q5 31 26.5 51.5t51.5 21.5q29 1 52 -17t30 -48q1 -6 4 -33q1 -21 4 -62.5t5 -62.5q1 -20 5.5 -23.5t25.5 -4.5q103 -4 155 -11q30 -4 48 -11q32 -12 50 -38t17 -58t-18.5 -57t-48.5 -36q-19 -7 -86 -16q-4 -8 4 -20q16 -25 44 -59q20 -24 27 -37q20 -36 14 -75.5t-35 -67.5
q-30 -28 -70.5 -30.5t-75.5 21.5q-30 21 -55 57q-20 28 -58 86z" />
    <glyph glyph-name="plus" unicode="+" horiz-adv-x="899" 
d="M793 559q-45 -20 -95 -17q-63 -2 -68.5 -10t2.5 -60q8 -93 8 -103q0 -28 -4 -49q-10 -51 -50.5 -83.5t-92.5 -31.5t-91 34t-48 85q-4 25 -13 75t-13 75l-3 18q-1 16 -18 15q-12 -2 -40 -4q-79 -7 -128 3q-52 11 -87 47q-35 38 -35.5 87t35.5 87q37 39 94 48
q23 4 68.5 10.5t49.5 7.5q17 3 19.5 6.5t1.5 21.5q-5 56 -4 95q2 51 26 93q33 55 93 63t106 -36q32 -29 49 -80q10 -30 25 -113q3 -16 7 -19t19 -2q13 1 53.5 2.5t62.5 4.5q55 7 98 -22.5t57 -81.5q13 -51 -10.5 -97.5t-73.5 -68.5z" />
    <glyph glyph-name="comma" unicode="," horiz-adv-x="385" 
d="M355 113q8 -36 13 -110q1 -49 -23 -125q-29 -96 -86 -161q-32 -36 -60 -51q-39 -22 -81.5 -14.5t-71.5 40.5q-28 33 -29 76t26 79q1 1 3 3.5t3 3.5q24 23 40.5 56.5t22.5 58t14 67.5q1 10 3.5 29t3.5 29q4 29 12 47q30 68 95 71q66 3 102 -65q8 -15 13 -34z" />
    <glyph glyph-name="hyphen" unicode="-" horiz-adv-x="628" 
d="M137 722q17 1 104 1q94 -4 125 -3q91 3 163 -17q45 -13 67 -48t11 -77q-15 -53 -70 -72q-35 -12 -83 -15q-47 -4 -79 -12t-60 -8q-14 0 -70.5 -1.5t-70.5 1.5q-44 5 -79 20q-43 19 -63.5 56t-12.5 79q7 40 40 67t78 29z" />
    <glyph glyph-name="period" unicode="." horiz-adv-x="321" 
d="M296 155q10 -28 8 -78q-8 -85 -14 -110q-13 -55 -56 -86.5t-97 -24.5q-60 7 -94.5 55.5t-23.5 107.5q5 26 17 49q34 64 52 96q7 15 19 28q44 52 106 40q61 -11 83 -77z" />
    <glyph glyph-name="slash" unicode="/" horiz-adv-x="665" 
d="M76 9q-58 27 -60 94q0 34 16 80q17 46 42 95l132 255q16 31 70 119q74 118 171 293q20 36 31 53q21 32 52.5 43t63.5 -3t45.5 -46t2.5 -70q-13 -43 -37 -110q-113 -309 -302 -627q-26 -44 -77 -114q-18 -26 -34 -39q-57 -50 -116 -23z" />
    <glyph glyph-name="zero" unicode="0" horiz-adv-x="1132" 
d="M394 1114q25 4 67 4.5t53 1.5q122 9 256 -29q156 -45 269 -210q91 -132 73 -312q-13 -131 -69 -240q-37 -72 -129 -145q-52 -41 -126 -80q-81 -43 -170 -43h-83q-113 -3 -236 57q-71 34 -123 103q-69 90 -120 192q-50 100 -36 253q11 112 68 231q87 180 306 217zM431 356
q60 -16 122 -12h51q33 0 61 16q50 29 105 68q45 33 60 89q20 79 19 152q0 13 -5 23q-65 133 -175 168q-32 10 -68 16t-83.5 11.5t-68.5 8.5q-9 2 -18 -2q-108 -47 -135 -128q-22 -67 -27 -110q-8 -72 10 -108q37 -76 102 -159q18 -23 50 -33z" />
    <glyph glyph-name="one" unicode="1" horiz-adv-x="477" 
d="M447 588q5 -50 4 -97q-1 -14 6 -92q3 -32 3 -69t-1.5 -82t-1.5 -69q0 -49 -29.5 -85t-76.5 -47q-46 -10 -87 10.5t-63 63.5q-22 41 -22 82q0 40 -9.5 112t-11.5 101q-2 34 -11.5 148.5t-8.5 177.5v14t-1.5 10t-1.5 6.5t-3.5 4t-5 3t-8 3t-9.5 3.5q-71 27 -89 99t34 129
q49 54 96 94q65 57 145 37t112 -101q14 -37 20 -114q6 -94 9 -189q3 -68 11 -153z" />
    <glyph glyph-name="two" unicode="2" horiz-adv-x="978" 
d="M635 207l-20 -25q102 -11 158 -1q3 1 8.5 2.5t10 2.5t8.5 1q55 8 100.5 -23t58.5 -85t-14 -102t-80 -66q-26 -9 -60 -9q-17 0 -70 -1t-89 0t-70 4q-43 4 -181 -1q-67 -2 -161 8q-50 6 -88 34q-57 43 -60 109.5t50 113.5q47 42 94 79q67 53 164 151q21 21 39 54
q32 58 48 86q10 17 6 37q-7 28 -17 84q-4 29 -30 50t-56 23q-28 1 -97 -10q-18 -2 -37 -21q-40 -36 -70 -68q-50 -52 -101 -33q-57 20 -62 93q-3 40 13 81q90 225 317 260q197 31 323 -113q37 -42 62 -79q43 -61 46 -144q4 -110 -27 -239q-16 -65 -37 -120q-31 -79 -79 -133
z" />
    <glyph glyph-name="three" unicode="3" horiz-adv-x="958" 
d="M815 55q-122 -153 -302 -142q-120 -8 -244 64q-94 54 -136 168q-18 50 -0.5 98t61.5 76q43 28 94.5 23t88.5 -42q17 -17 26 -31q21 -35 82 -46q80 -14 123 63q34 59 41 146q2 29 -16 51q-15 19 -33 36q-32 30 -76 20q-56 -14 -100 -7q-87 13 -107 91q-22 80 46 137
q19 17 60 30q4 1 47 12q4 1 14 2t16.5 3t10.5 7q17 21 17 54q0 12 -5 64q-2 14 -10 22q-42 42 -64 61q-27 23 -75 16q-98 -14 -165 -74l-15 -15t-18 -17q-41 -33 -86 -21t-64 61q-15 39 -5 96q11 57 44 97q114 136 275 171q176 38 317 -81q51 -44 95 -95q70 -81 73 -184
q4 -146 -37 -227q-8 -15 5 -26q32 -28 63 -67q104 -128 81 -301q-23 -169 -122 -293z" />
    <glyph glyph-name="four" unicode="4" horiz-adv-x="874" 
d="M529 361q-72 -4 -116 -6q-118 7 -165 17q-104 22 -182 106q-69 75 -42 185q31 126 122 279q36 62 84 124q19 24 60.5 83t66.5 89q2 3 4 6.5t4.5 8t3.5 7.5q20 38 44 62q46 47 105 56t116 -23q114 -63 130 -188q23 -183 34 -381q3 -45 8.5 -95t13 -111.5t11.5 -94.5
q5 -53 13 -146q13 -144 11 -195q0 -5 -0.5 -15t-1 -18.5t-1.5 -15.5q-8 -50 -46 -84t-89 -36q-52 -2 -93 29t-54 81q-6 24 -5 45q2 41 -5 117t-8 94q-1 21 -23 20zM491 936q-15 -28 -45 -81t-52 -96t-38 -84q21 -6 44.5 -8t52 -2t42.5 -1q17 -2 20.5 1t2.5 21q-1 34 -4 71.5
t-8.5 85.5t-7.5 71q-3 18 -7 22z" />
    <glyph glyph-name="five" unicode="5" horiz-adv-x="923" 
d="M432 1038v-2h-86q-16 -1 -19 -4.5t-1 -19.5q2 -17 6.5 -55t6.5 -58q2 -12 6.5 -16t16.5 -2q155 25 339 -57q76 -34 140 -130.5t65 -186.5q2 -151 -83 -263q-47 -63 -89 -101q-53 -48 -126 -65q-60 -13 -175 -29q-73 -9 -140 21q-66 30 -90 99q-19 54 4.5 103t77.5 69
q35 13 72 12q18 -1 38.5 0.5t35 3.5t39 6t35.5 6q24 3 39 22q31 42 36 49q20 33 10 64.5t-40 48.5q-111 64 -208 1q-14 -9 -37 -20q-68 -34 -136.5 -11t-102.5 91q-25 48 -28 118l-18 171q-12 117 16 196q5 17 5 21q3 64 61 108q79 60 192 84q79 17 225 9q55 -3 101 -47
q38 -38 40 -90t-35 -92q-47 -51 -119 -54h-23.5h-27.5h-23z" />
    <glyph glyph-name="six" unicode="6" horiz-adv-x="905" 
d="M371 855q-7 -11 -4 -17q4 -2 20 0q60 10 140 -7q7 -2 20.5 -5t20.5 -5q165 -31 283 -202q34 -49 37 -112q8 -142 -56 -253q-115 -196 -336 -197q-132 -2 -239 47q-196 90 -226 301q-15 102 -15 204q1 266 209 463q99 94 255 118q34 6 69 -3q53 -15 63 -61q10 -48 -32 -77
q-69 -50 -143 -114q-40 -34 -66 -80zM397 371q44 -20 94 -17q46 -10 77 32q22 30 30 67q4 18 -11 33q-35 34 -73 40q-62 13 -75 12.5t-75 -26.5q-17 -8 -29 -10q-13 -3 -12 -17q5 -83 74 -114z" />
    <glyph glyph-name="seven" unicode="7" horiz-adv-x="782" 
d="M304 1123q35 3 83 -1q109 -8 158 -11q57 -3 114 -23q95 -34 104 -137q2 -27 -1 -49q-14 -115 -49 -301q-25 -130 -69 -392q-2 -10 -4 -30t-4 -30q-7 -36 -22 -64q-24 -42 -65.5 -61t-87.5 -10q-46 10 -76.5 44t-34.5 82q-5 73 1 125q35 283 86 512l9 45q3 20 -14 20
q-15 1 -53 4t-53 3t-53 -4q-16 -3 -34.5 -5t-40.5 -4t-34 -3q-31 -3 -58 4q-56 14 -79 62t2 100q24 49 77 76q31 16 111 35q41 10 87 13z" />
    <glyph glyph-name="eight" unicode="8" horiz-adv-x="825" 
d="M729 54q-91 -138 -244 -129q-106 4 -158 16q-92 20 -155 76.5t-89.5 123.5t-27.5 140q0 163 88 256q14 14 0 29q-72 80 -116 223q-38 128 60 223q101 98 241.5 116t262.5 -52q91 -52 138.5 -145t19.5 -214q-15 -63 -39 -112q-7 -16 1 -25q121 -129 89 -336
q-15 -105 -71 -190zM482 832q-5 8 -11 14.5t-14 11.5t-13.5 8.5t-15.5 7t-14 4.5t-15.5 4t-13.5 4q-40 0 -96 -25q-18 -8 -15 -28q9 -56 10 -73q2 -38 34 -76q10 -14 27 -8q44 14 67 19q50 11 59.5 21t18.5 61q0 1 1 4t1 5q4 24 -10 46zM387 392q-47 -33 -45 -84
q-1 -40 14.5 -60t51.5 -28q10 -2 21.5 -4t25.5 -4.5t22 -3.5q19 -4 27 8q37 59 37 114q0 36 -27 52q-13 8 -29 22q-22 20 -29.5 21t-34.5 -12q-16 -8 -34 -21z" />
    <glyph glyph-name="nine" unicode="9" horiz-adv-x="946" 
d="M587 528q4 9 1 14q-2 2 -12 0q-137 -45 -307 3q-83 24 -137 91q-153 189 -103 443q8 43 28 97q46 125 163 181q20 9 55.5 29.5t49.5 27.5q211 108 400 -16q114 -75 148 -216q61 -254 54 -460q-2 -70 -14 -118q-32 -124 -41 -154q-53 -168 -174 -264q-132 -105 -272 -102
q-76 1 -186 30q-25 7 -52 25q-76 52 -112 80q-37 28 -47.5 71.5t9.5 84.5q19 42 60.5 61t87.5 8q27 -7 91 -44q52 -30 70 -35q79 -25 151 34q61 49 89 129zM369 822q56 -10 81 -9q42 -1 59.5 3.5t52.5 22.5q38 21 43 24q23 11 20 42q-8 68 -46 219q-3 14 -13 24
q-66 62 -131 49q-3 -1 -9 -1t-9 -1q-58 -5 -99 -45t-48 -99q-11 -90 40 -185q19 -37 59 -44z" />
    <glyph glyph-name="colon" unicode=":" horiz-adv-x="344" 
d="M172 797q-65 0 -110.5 45.5t-45.5 109.5q0 65 46.5 111t112.5 45q65 -1 109 -47.5t43 -111.5q-1 -64 -46 -108t-109 -44zM191 582q54 -1 91.5 -39.5t36.5 -92.5t-39.5 -91.5t-92.5 -36.5q-53 2 -90.5 39.5t-37.5 90.5q0 54 39 92.5t93 37.5z" />
    <glyph glyph-name="semicolon" unicode=";" horiz-adv-x="436" 
d="M270 1099q64 -1 108 -47.5t42 -112.5q-2 -64 -47 -108.5t-109 -43.5q-65 1 -110.5 47t-44.5 110q1 65 48 110.5t113 44.5zM343 497q6 -12 12 -34q8 -36 13 -110q1 -49 -23 -125q-29 -94 -86 -160q-34 -38 -60 -52q-39 -22 -81.5 -14.5t-71.5 40.5q-28 33 -29 76t26 79
q1 1 3 3.5t3 3.5q24 23 40.5 56.5t22.5 58t14 67.5q1 10 3.5 29.5t3.5 28.5q4 29 12 47q30 68 95 71q67 3 103 -65z" />
    <glyph glyph-name="less" unicode="&#x3c;" horiz-adv-x="587" 
d="M374 840q-26 -19 -72 -55q15 -11 66 -48.5t79 -55.5q30 -20 75 -52q17 -12 27 -25q35 -44 11 -91q-24 -46 -77 -46q-16 0 -39 7q-170 51 -348 175q-36 25 -54 49q-25 33 -25.5 70.5t23.5 71.5q20 29 37 45q103 100 249 150q46 15 88 2q49 -16 59.5 -59t-25.5 -79
q-10 -10 -21.5 -19.5t-29.5 -22.5t-23 -17z" />
    <glyph glyph-name="equal" unicode="=" horiz-adv-x="720" 
d="M701 607q8 -43 -14 -83.5t-62 -59.5q-26 -12 -47 -12q-45 -1 -133 -7.5t-127 -6.5q-105 2 -140 7q-50 8 -86 30q-34 21 -50 53.5t-10 70.5q6 36 33 62.5t66 33.5q17 3 52 5q13 0 38.5 1t37.5 1q133 2 171 7q45 5 153 -1q47 -2 78.5 -30t39.5 -71zM75 819
q-59 37 -58.5 101.5t59.5 101.5q31 20 77 28q30 6 45 6q50 1 141 11.5t121 12.5q46 4 76 -1q54 -8 87.5 -46t32.5 -90q-2 -52 -37.5 -89t-89.5 -41q-3 0 -79 -9q-66 -7 -206 -21q-68 2 -110 12q-36 9 -59 24z" />
    <glyph glyph-name="greater" unicode="&#x3e;" horiz-adv-x="587" 
d="M284 756q-27 21 -73 55q-61 46 -73 59q-36 36 -25.5 79t59.5 59q41 13 87 -2q147 -50 250 -150q19 -17 37 -44q24 -34 23.5 -71.5t-25.5 -70.5q-19 -26 -54 -50q-176 -122 -348 -174q-26 -8 -39 -8q-53 0 -77 46q-24 48 11 92q10 13 26 24q35 25 76 52q28 18 79 55.5
t66 48.5z" />
    <glyph glyph-name="question" unicode="?" horiz-adv-x="919" 
d="M902 1197v-92q-4 -9 -5 -18.5t-1 -23.5v-18q-2 -50 -18 -87q-82 -194 -240 -279q-57 -31 -141 -50q-10 -2 -15 -3.5t-9 -3.5t-5 -4.5t-2 -6.5t0 -9t0 -13q-2 -48 -5 -61q-10 -48 -45.5 -78.5t-83.5 -29.5t-84 32t-43 79q-17 109 24 213q36 90 140 104q47 6 139 24
q55 11 77 57q8 16 23.5 43.5t19.5 34.5q13 26 13 43q0 69 -6 113q-3 18 -4 21q-38 85 -111 131t-168 17q-48 -15 -92 -54q-29 -26 -32 -66q-3 -48 3 -95l3 -33q-1 -44 -37 -66t-77 -3q-22 10 -41 32q-17 20 -25 39q-76 179 2 330q25 49 69 85q115 94 261 100q125 6 193 -19
q226 -84 307 -311q5 -12 8.5 -37t7.5 -37zM443 300q42 -21 64 -54.5t22 -70.5q0 -79 -49 -128.5t-119 -46.5q-111 5 -158 102q-2 5 -6.5 15.5t-7.5 15.5q-31 68 3 127.5t109 66.5q73 7 142 -27z" />
    <glyph glyph-name="at" unicode="@" horiz-adv-x="1243" 
d="M17 555h1v67q3 120 73 217q42 58 64 86q75 94 203 158q66 33 165 21q91 -12 115 -17q187 -42 286 -163q37 -45 74 -109q40 -67 32 -153q-10 -112 -66 -257q-51 -130 -185 -163q-106 -25 -169 28q-35 29 -90 34q-82 8 -181 78q-51 36 -58 113q-10 117 52 219q47 77 145 93
q45 8 104 -1q87 -14 110 -97q27 -98 46 -209q2 -14 4 -21q9 -40 40 -12q20 18 32 49q20 56 28 84q20 69 -27 119q-30 32 -47 56q-26 37 -73 58q-85 36 -125 38q-30 1 -75 12q-36 9 -73 -5q-90 -34 -131 -95q-8 -12 -13 -17q-69 -73 -64 -188q5 -101 15 -130t69 -107
q8 -10 10 -12q11 -9 43 -36.5t55 -44t49 -27.5q22 -10 28 -11q15 -3 48.5 -10.5t52.5 -11t47 -8t53 -6t50 -0.5q76 4 154 60q84 61 130 167q15 34 18 54q9 68 74 83q30 6 57.5 -5.5t43.5 -36.5q35 -56 -7 -111q-18 -23 -22 -46q-1 -8 -7 -20q-58 -115 -127 -186
q-3 -4 -10.5 -9.5t-10.5 -8.5q-77 -87 -227 -108q-95 -13 -201 -2q-54 5 -152 21q-76 13 -159 73q-65 47 -86 65q-84 70 -152 185q-31 54 -33 133v23v27v23zM480 547q-2 -21 2 -26.5t29 -18.5q-1 17 -2.5 52t-2.5 53q-22 -20 -26 -60z" />
    <glyph glyph-name="A" unicode="A" horiz-adv-x="1122" 
d="M1105 168q5 -52 -23.5 -93.5t-77.5 -55.5q-50 -14 -95.5 4t-72.5 64q-7 11 -12.5 24t-12 29.5t-9.5 24.5q-8 19 -23 20q-18 2 -96 11.5t-120 11.5q-120 6 -180 13q-10 3 -15.5 1.5t-6.5 -5t-2 -15.5q-2 -26 -10 -73t-10 -69q-12 -107 -117 -138q-97 -28 -168 53
q-40 46 -37 146q7 51 13.5 82t23 78.5t41.5 83.5q33 49 32 107q-1 64 31 130q34 69 65 209q9 43 52 258q36 174 105 312q36 70 74 100q61 48 133.5 32t107.5 -85q12 -22 20 -54q41 -170 81 -269q32 -78 52 -167q3 -12 22 -60q18 -44 42 -127.5t32 -108.5q8 -24 24 -74
t24 -74q16 -51 39 -83q59 -85 74 -243zM622 528q1 0 4 -0.5t4.5 -0.5t4 0.5t4.5 2.5t4 5q-51 171 -92 270l-8 -8q-59 -153 -81 -247q-3 -13 -0.5 -16t16.5 -3q16 0 45.5 -1t53.5 -1.5t45 -0.5z" />
    <glyph glyph-name="A" unicode="&#xc5;" horiz-adv-x="1122" 
d="M1105 168q5 -52 -23.5 -93.5t-77.5 -55.5q-50 -14 -95.5 4t-72.5 64q-7 11 -12.5 24t-12 29.5t-9.5 24.5q-8 19 -23 20q-18 2 -96 11.5t-120 11.5q-120 6 -180 13q-10 3 -15.5 1.5t-6.5 -5t-2 -15.5q-2 -26 -10 -73t-10 -69q-12 -107 -117 -138q-97 -28 -168 53
q-40 46 -37 146q7 51 13.5 82t23 78.5t41.5 83.5q33 49 32 107q-1 64 31 130q34 69 65 209q9 43 52 258q36 174 105 312q36 70 74 100q61 48 133.5 32t107.5 -85q12 -22 20 -54q41 -170 81 -269q32 -78 52 -167q3 -12 22 -60q18 -44 42 -127.5t32 -108.5q8 -24 24 -74
t24 -74q16 -51 39 -83q59 -85 74 -243zM622 528q1 0 4 -0.5t4.5 -0.5t4 0.5t4.5 2.5t4 5q-51 171 -92 270l-8 -8q-59 -153 -81 -247q-3 -13 -0.5 -16t16.5 -3q16 0 45.5 -1t53.5 -1.5t45 -0.5z" />
    <glyph glyph-name="A" unicode="&#xc4;" horiz-adv-x="1122" 
d="M1105 168q5 -52 -23.5 -93.5t-77.5 -55.5q-50 -14 -95.5 4t-72.5 64q-7 11 -12.5 24t-12 29.5t-9.5 24.5q-8 19 -23 20q-18 2 -96 11.5t-120 11.5q-120 6 -180 13q-10 3 -15.5 1.5t-6.5 -5t-2 -15.5q-2 -26 -10 -73t-10 -69q-12 -107 -117 -138q-97 -28 -168 53
q-40 46 -37 146q7 51 13.5 82t23 78.5t41.5 83.5q33 49 32 107q-1 64 31 130q34 69 65 209q9 43 52 258q36 174 105 312q36 70 74 100q61 48 133.5 32t107.5 -85q12 -22 20 -54q41 -170 81 -269q32 -78 52 -167q3 -12 22 -60q18 -44 42 -127.5t32 -108.5q8 -24 24 -74
t24 -74q16 -51 39 -83q59 -85 74 -243zM622 528q1 0 4 -0.5t4.5 -0.5t4 0.5t4.5 2.5t4 5q-51 171 -92 270l-8 -8q-59 -153 -81 -247q-3 -13 -0.5 -16t16.5 -3q16 0 45.5 -1t53.5 -1.5t45 -0.5z" />
    <glyph glyph-name="A" unicode="&#xc3;" horiz-adv-x="1122" 
d="M1105 168q5 -52 -23.5 -93.5t-77.5 -55.5q-50 -14 -95.5 4t-72.5 64q-7 11 -12.5 24t-12 29.5t-9.5 24.5q-8 19 -23 20q-18 2 -96 11.5t-120 11.5q-120 6 -180 13q-10 3 -15.5 1.5t-6.5 -5t-2 -15.5q-2 -26 -10 -73t-10 -69q-12 -107 -117 -138q-97 -28 -168 53
q-40 46 -37 146q7 51 13.5 82t23 78.5t41.5 83.5q33 49 32 107q-1 64 31 130q34 69 65 209q9 43 52 258q36 174 105 312q36 70 74 100q61 48 133.5 32t107.5 -85q12 -22 20 -54q41 -170 81 -269q32 -78 52 -167q3 -12 22 -60q18 -44 42 -127.5t32 -108.5q8 -24 24 -74
t24 -74q16 -51 39 -83q59 -85 74 -243zM622 528q1 0 4 -0.5t4.5 -0.5t4 0.5t4.5 2.5t4 5q-51 171 -92 270l-8 -8q-59 -153 -81 -247q-3 -13 -0.5 -16t16.5 -3q16 0 45.5 -1t53.5 -1.5t45 -0.5z" />
    <glyph glyph-name="A" unicode="&#xc2;" horiz-adv-x="1122" 
d="M1105 168q5 -52 -23.5 -93.5t-77.5 -55.5q-50 -14 -95.5 4t-72.5 64q-7 11 -12.5 24t-12 29.5t-9.5 24.5q-8 19 -23 20q-18 2 -96 11.5t-120 11.5q-120 6 -180 13q-10 3 -15.5 1.5t-6.5 -5t-2 -15.5q-2 -26 -10 -73t-10 -69q-12 -107 -117 -138q-97 -28 -168 53
q-40 46 -37 146q7 51 13.5 82t23 78.5t41.5 83.5q33 49 32 107q-1 64 31 130q34 69 65 209q9 43 52 258q36 174 105 312q36 70 74 100q61 48 133.5 32t107.5 -85q12 -22 20 -54q41 -170 81 -269q32 -78 52 -167q3 -12 22 -60q18 -44 42 -127.5t32 -108.5q8 -24 24 -74
t24 -74q16 -51 39 -83q59 -85 74 -243zM622 528q1 0 4 -0.5t4.5 -0.5t4 0.5t4.5 2.5t4 5q-51 171 -92 270l-8 -8q-59 -153 -81 -247q-3 -13 -0.5 -16t16.5 -3q16 0 45.5 -1t53.5 -1.5t45 -0.5z" />
    <glyph glyph-name="A" unicode="&#xc1;" horiz-adv-x="1122" 
d="M1105 168q5 -52 -23.5 -93.5t-77.5 -55.5q-50 -14 -95.5 4t-72.5 64q-7 11 -12.5 24t-12 29.5t-9.5 24.5q-8 19 -23 20q-18 2 -96 11.5t-120 11.5q-120 6 -180 13q-10 3 -15.5 1.5t-6.5 -5t-2 -15.5q-2 -26 -10 -73t-10 -69q-12 -107 -117 -138q-97 -28 -168 53
q-40 46 -37 146q7 51 13.5 82t23 78.5t41.5 83.5q33 49 32 107q-1 64 31 130q34 69 65 209q9 43 52 258q36 174 105 312q36 70 74 100q61 48 133.5 32t107.5 -85q12 -22 20 -54q41 -170 81 -269q32 -78 52 -167q3 -12 22 -60q18 -44 42 -127.5t32 -108.5q8 -24 24 -74
t24 -74q16 -51 39 -83q59 -85 74 -243zM622 528q1 0 4 -0.5t4.5 -0.5t4 0.5t4.5 2.5t4 5q-51 171 -92 270l-8 -8q-59 -153 -81 -247q-3 -13 -0.5 -16t16.5 -3q16 0 45.5 -1t53.5 -1.5t45 -0.5z" />
    <glyph glyph-name="A" unicode="&#xc0;" horiz-adv-x="1122" 
d="M1105 168q5 -52 -23.5 -93.5t-77.5 -55.5q-50 -14 -95.5 4t-72.5 64q-7 11 -12.5 24t-12 29.5t-9.5 24.5q-8 19 -23 20q-18 2 -96 11.5t-120 11.5q-120 6 -180 13q-10 3 -15.5 1.5t-6.5 -5t-2 -15.5q-2 -26 -10 -73t-10 -69q-12 -107 -117 -138q-97 -28 -168 53
q-40 46 -37 146q7 51 13.5 82t23 78.5t41.5 83.5q33 49 32 107q-1 64 31 130q34 69 65 209q9 43 52 258q36 174 105 312q36 70 74 100q61 48 133.5 32t107.5 -85q12 -22 20 -54q41 -170 81 -269q32 -78 52 -167q3 -12 22 -60q18 -44 42 -127.5t32 -108.5q8 -24 24 -74
t24 -74q16 -51 39 -83q59 -85 74 -243zM622 528q1 0 4 -0.5t4.5 -0.5t4 0.5t4.5 2.5t4 5q-51 171 -92 270l-8 -8q-59 -153 -81 -247q-3 -13 -0.5 -16t16.5 -3q16 0 45.5 -1t53.5 -1.5t45 -0.5z" />
    <glyph glyph-name="B" unicode="B" horiz-adv-x="1013" 
d="M964 584q48 -138 24 -299q-19 -125 -100 -208q-59 -61 -108 -94q-131 -90 -259 -103q-47 -6 -76 -1q-88 13 -182 41q-48 15 -85 46q-75 63 -55 159q5 25 -3 41q-29 59 -27 136q1 26 1 80q5 142 7 171q9 125 -5 317q-4 43 0 65q7 44 -5 143q-4 33 -1 70q0 5 0.5 15t1 18.5
t1.5 15.5q6 42 -32 71q-38 30 -43.5 79t23.5 89q31 43 77 64q188 85 369 36q14 -4 107.5 -49t106.5 -54q56 -40 113 -139q62 -109 50 -284q-8 -110 -52 -204q-9 -19 8 -32q106 -79 144 -190zM378 1004q-3 -28 6 -51q14 -33 24 -103q2 -24 9 -32q60 32 90 49q11 6 20 22
q31 53 26 105q-5 40 -4 70q1 41 -26 89q-9 16 -27 22q-38 12 -80 39q-20 13 -32 9q1 -20 -2.5 -58t-2.5 -57q4 -64 -1 -104zM669 330q2 10 4 30t4 30q-2 49 -19 90q-19 46 -65 55q-47 9 -82 -3q-49 -15 -71 -15q-18 0 -18 -19q-2 -42 -2 -64q2 -109 -13 -183q-2 -14 -4 -21
q-3 -14 10 -18q76 -21 120 -1q70 31 114 79q19 19 22 40z" />
    <glyph glyph-name="C" unicode="C" horiz-adv-x="995" 
d="M869 352q68 -17 95.5 -77.5t-3.5 -124.5q-36 -73 -126 -121q-128 -68 -279 -42q-70 12 -105 19q-105 19 -176 79q-32 28 -101 90q-71 66 -105 186q-2 7 -14 51t-19 67q-22 72 -19 160q4 110 30 218q32 134 135 224q156 137 360 138q62 1 124 -17q13 -4 30 -4q51 2 97 -23
q5 -3 21.5 -10.5t24.5 -11.5t20 -12t21 -16q45 -40 50 -99t-33 -105q-38 -47 -97.5 -53t-107.5 33q-22 17 -50 16q-116 -6 -171 -28q-39 -15 -88 -60q-15 -15 -22 -40q-22 -83 -24 -181v-3q15 -74 52 -186q2 -8 26 -29q61 -56 72.5 -61.5t89.5 -18.5q3 0 7.5 -1t6.5 -2
q63 -16 122 14q39 20 74 29q39 12 82 2z" />
    <glyph glyph-name="C" unicode="&#xc7;" horiz-adv-x="995" 
d="M869 352q68 -17 95.5 -77.5t-3.5 -124.5q-36 -73 -126 -121q-128 -68 -279 -42q-70 12 -105 19q-105 19 -176 79q-32 28 -101 90q-71 66 -105 186q-2 7 -14 51t-19 67q-22 72 -19 160q4 110 30 218q32 134 135 224q156 137 360 138q62 1 124 -17q13 -4 30 -4q51 2 97 -23
q5 -3 21.5 -10.5t24.5 -11.5t20 -12t21 -16q45 -40 50 -99t-33 -105q-38 -47 -97.5 -53t-107.5 33q-22 17 -50 16q-116 -6 -171 -28q-39 -15 -88 -60q-15 -15 -22 -40q-22 -83 -24 -181v-3q15 -74 52 -186q2 -8 26 -29q61 -56 72.5 -61.5t89.5 -18.5q3 0 7.5 -1t6.5 -2
q63 -16 122 14q39 20 74 29q39 12 82 2z" />
    <glyph glyph-name="D" unicode="D" horiz-adv-x="1079" 
d="M1057 777q15 -133 -10 -216q-53 -179 -116 -295q-72 -131 -203 -206q-57 -33 -128 -50q-90 -22 -185 -39q-41 -7 -108 -9q-65 2 -90 8q-60 14 -94 61t-29 108q3 29 -4 54q-10 38 -12 104q-7 161 -5 363q0 54 -3 109.5t-10.5 136t-9.5 108.5q-2 23 -6.5 61.5t-7.5 71.5
t-2 62q0 13 -8 33q-26 67 10.5 129t107.5 80q139 33 264 5q21 -5 62.5 -15t62.5 -15q87 -20 185 -98q11 -9 33.5 -29t33.5 -29q23 -18 44 -41.5t45.5 -54.5t38.5 -47q121 -136 144 -350zM740 647q3 10 3 54q0 4 -2 29t-4 39q-14 86 -52 132q-6 7 -28 35t-31.5 39t-28.5 32
t-35.5 36t-34.5 28q-5 3 -16 12t-17 13t-16.5 9.5t-19.5 8.5q-30 9 -92 23q-12 3 -15 0.5t-2 -14.5q6 -72 12 -107q31 -190 26 -331q-2 -40 -2 -173.5t-7 -205.5q-2 -20 14 -16q10 3 71.5 15t92.5 25q59 25 89 76q45 75 95 241z" />
    <glyph glyph-name="E" unicode="E" horiz-adv-x="905" 
d="M798 332q49 -21 73 -64.5t15.5 -92.5t-47.5 -85q-46 -41 -94 -50q-88 -18 -132 -26q-87 -16 -180 -5q-66 7 -140 7q-31 0 -46 1q-66 4 -108 48.5t-52 103.5q-4 24 -4 55q-1 82 -1 244q0 87 -12 257q-3 39 -2 70q4 96 -20 243q-7 48 -12 100q-3 34 -14 72q-23 74 42 131
q41 36 112 55q44 12 103 15q25 2 84 7t102.5 7.5t84.5 0.5q78 -4 124 -16q11 -3 41 -9t46 -10q50 -15 80.5 -57t29.5 -90t-31 -93q-46 -61 -124 -61q-18 0 -106 15q-25 5 -45 5q-114 0 -171 -1q-22 0 -26 -4.5t1 -27.5q18 -96 21 -145q1 -14 1 -92q136 22 224 32q11 1 32 7
t28 7q99 18 158 -62q57 -78 10 -165q-28 -54 -90 -73q-55 -16 -92 -20q-180 -16 -232 -15q-18 1 -21.5 -2.5t-3.5 -20.5v-171q0 -18 3 -21t22 -6q79 -14 201 10q36 6 54 8q61 8 114 -16z" />
    <glyph glyph-name="E" unicode="&#xcb;" horiz-adv-x="905" 
d="M798 332q49 -21 73 -64.5t15.5 -92.5t-47.5 -85q-46 -41 -94 -50q-88 -18 -132 -26q-87 -16 -180 -5q-66 7 -140 7q-31 0 -46 1q-66 4 -108 48.5t-52 103.5q-4 24 -4 55q-1 82 -1 244q0 87 -12 257q-3 39 -2 70q4 96 -20 243q-7 48 -12 100q-3 34 -14 72q-23 74 42 131
q41 36 112 55q44 12 103 15q25 2 84 7t102.5 7.5t84.5 0.5q78 -4 124 -16q11 -3 41 -9t46 -10q50 -15 80.5 -57t29.5 -90t-31 -93q-46 -61 -124 -61q-18 0 -106 15q-25 5 -45 5q-114 0 -171 -1q-22 0 -26 -4.5t1 -27.5q18 -96 21 -145q1 -14 1 -92q136 22 224 32q11 1 32 7
t28 7q99 18 158 -62q57 -78 10 -165q-28 -54 -90 -73q-55 -16 -92 -20q-180 -16 -232 -15q-18 1 -21.5 -2.5t-3.5 -20.5v-171q0 -18 3 -21t22 -6q79 -14 201 10q36 6 54 8q61 8 114 -16z" />
    <glyph glyph-name="E" unicode="&#xca;" horiz-adv-x="905" 
d="M798 332q49 -21 73 -64.5t15.5 -92.5t-47.5 -85q-46 -41 -94 -50q-88 -18 -132 -26q-87 -16 -180 -5q-66 7 -140 7q-31 0 -46 1q-66 4 -108 48.5t-52 103.5q-4 24 -4 55q-1 82 -1 244q0 87 -12 257q-3 39 -2 70q4 96 -20 243q-7 48 -12 100q-3 34 -14 72q-23 74 42 131
q41 36 112 55q44 12 103 15q25 2 84 7t102.5 7.5t84.5 0.5q78 -4 124 -16q11 -3 41 -9t46 -10q50 -15 80.5 -57t29.5 -90t-31 -93q-46 -61 -124 -61q-18 0 -106 15q-25 5 -45 5q-114 0 -171 -1q-22 0 -26 -4.5t1 -27.5q18 -96 21 -145q1 -14 1 -92q136 22 224 32q11 1 32 7
t28 7q99 18 158 -62q57 -78 10 -165q-28 -54 -90 -73q-55 -16 -92 -20q-180 -16 -232 -15q-18 1 -21.5 -2.5t-3.5 -20.5v-171q0 -18 3 -21t22 -6q79 -14 201 10q36 6 54 8q61 8 114 -16z" />
    <glyph glyph-name="E" unicode="&#xc9;" horiz-adv-x="905" 
d="M798 332q49 -21 73 -64.5t15.5 -92.5t-47.5 -85q-46 -41 -94 -50q-88 -18 -132 -26q-87 -16 -180 -5q-66 7 -140 7q-31 0 -46 1q-66 4 -108 48.5t-52 103.5q-4 24 -4 55q-1 82 -1 244q0 87 -12 257q-3 39 -2 70q4 96 -20 243q-7 48 -12 100q-3 34 -14 72q-23 74 42 131
q41 36 112 55q44 12 103 15q25 2 84 7t102.5 7.5t84.5 0.5q78 -4 124 -16q11 -3 41 -9t46 -10q50 -15 80.5 -57t29.5 -90t-31 -93q-46 -61 -124 -61q-18 0 -106 15q-25 5 -45 5q-114 0 -171 -1q-22 0 -26 -4.5t1 -27.5q18 -96 21 -145q1 -14 1 -92q136 22 224 32q11 1 32 7
t28 7q99 18 158 -62q57 -78 10 -165q-28 -54 -90 -73q-55 -16 -92 -20q-180 -16 -232 -15q-18 1 -21.5 -2.5t-3.5 -20.5v-171q0 -18 3 -21t22 -6q79 -14 201 10q36 6 54 8q61 8 114 -16z" />
    <glyph glyph-name="E" unicode="&#xc8;" horiz-adv-x="905" 
d="M798 332q49 -21 73 -64.5t15.5 -92.5t-47.5 -85q-46 -41 -94 -50q-88 -18 -132 -26q-87 -16 -180 -5q-66 7 -140 7q-31 0 -46 1q-66 4 -108 48.5t-52 103.5q-4 24 -4 55q-1 82 -1 244q0 87 -12 257q-3 39 -2 70q4 96 -20 243q-7 48 -12 100q-3 34 -14 72q-23 74 42 131
q41 36 112 55q44 12 103 15q25 2 84 7t102.5 7.5t84.5 0.5q78 -4 124 -16q11 -3 41 -9t46 -10q50 -15 80.5 -57t29.5 -90t-31 -93q-46 -61 -124 -61q-18 0 -106 15q-25 5 -45 5q-114 0 -171 -1q-22 0 -26 -4.5t1 -27.5q18 -96 21 -145q1 -14 1 -92q136 22 224 32q11 1 32 7
t28 7q99 18 158 -62q57 -78 10 -165q-28 -54 -90 -73q-55 -16 -92 -20q-180 -16 -232 -15q-18 1 -21.5 -2.5t-3.5 -20.5v-171q0 -18 3 -21t22 -6q79 -14 201 10q36 6 54 8q61 8 114 -16z" />
    <glyph glyph-name="F" unicode="F" horiz-adv-x="866" 
d="M668 819q47 7 87 -15t62 -65q20 -39 15 -83t-34 -80q-30 -36 -83 -49q-40 -10 -94 -12q-37 -1 -110 -4t-110 -4q-20 -1 -23.5 -4.5t-3.5 -23.5q0 -57 5 -98q11 -94 -4 -158q-8 -37 -27 -68q-31 -49 -85.5 -54.5t-95.5 35.5q-34 34 -47 74q-44 137 -48 236q-2 60 -9 171.5
t-9 158.5q-3 80 -32 220q-10 48 -2 103q15 95 105 132q46 19 127 36q130 26 220 51q73 19 148 12q10 -1 42.5 -3.5t49.5 -4.5q97 -11 128 -99q29 -86 -39 -154q-36 -36 -93 -41q-39 -4 -98 2q-39 3 -75 -7q-108 -32 -181 -43q-22 -3 -17 -24q10 -43 16 -131q1 -18 4.5 -21
t23.5 -2q19 1 58 3t63 3q100 2 166 11z" />
    <glyph glyph-name="G" unicode="G" horiz-adv-x="1095" 
d="M1039 690q51 -120 36 -282q-18 -188 -189 -288q-97 -56 -174 -63q-195 -17 -325 50q-157 81 -255 200q-94 112 -110 232q-4 31 -4 132q-10 130 66 333q82 217 259 314q195 107 392 26q77 -31 126 -95q25 -33 30 -75q4 -43 -20 -78t-66 -46q-49 -13 -114 10q-4 1 -23 8.5
t-31 11t-25 4.5q-99 12 -169 -52q-67 -61 -93 -149q-37 -132 -33 -260q3 -77 55 -135q79 -87 176 -125q27 -10 50 -10h18.5h19.5t17 0.5t19 1.5t17.5 3t19 5.5t17.5 7.5q55 27 61 85q2 22 2 34q0 18 -2.5 21t-20.5 5q-25 3 -123 3q-52 0 -92 18q-44 19 -68.5 55.5
t-22.5 80.5t29 79t71 51q30 10 63 12q98 2 131 0q103 -8 122 -8q114 -3 163 -117z" />
    <glyph glyph-name="H" unicode="H" horiz-adv-x="966" 
d="M944 495q0 -3 1.5 -36t2 -40.5t1.5 -35t0.5 -40.5t-1 -35t-2.5 -40l-4 -36q-8 -63 -33 -104q-35 -60 -99.5 -71t-115.5 35q-38 34 -46 91q-4 25 -2 61q7 108 -3 297q-1 19 -21 19q-91 -2 -124 -11q-11 -3 -66 -13q-18 -3 -20.5 -6.5t-0.5 -20.5q15 -98 20 -182
q12 -157 10 -199q-2 -40 -6 -54q-14 -50 -54 -80.5t-91 -29.5q-52 1 -91.5 33t-51.5 83q-5 21 -5 51q-4 166 -45 463q-26 186 -29 218q-26 244 -30 307q-1 23 -7 67q-2 16 -10 48q-6 24 -4 51q3 84 68 118q69 36 142 -11q39 -25 62 -74q31 -69 41 -160q4 -34 8 -72
t8.5 -84.5t7.5 -71.5q1 -14 5.5 -42t6.5 -42q1 -19 20 -16q3 0 7.5 0.5t8.5 1t8 1.5q97 27 196 23q19 -1 22.5 2.5t2.5 22.5q-5 188 -30 414q-8 85 40 132q55 53 128.5 37.5t100.5 -87.5q13 -35 21 -108q3 -26 11 -85t11 -91q19 -221 22 -286q7 -125 9 -312z" />
    <glyph glyph-name="I" unicode="I" horiz-adv-x="385" 
d="M366 358q0 -10 1 -30.5t1 -30.5q0 -102 -82 -143q-80 -40 -158 16q-41 30 -53 83q-8 32 -8 49q-1 78 -14 219t-16 195q0 4 -0.5 14t-0.5 14q4 89 -17 311q-6 66 3 122q8 48 40 79.5t77 36.5q43 5 81 -17.5t58 -65.5q14 -30 32 -121q30 -156 28 -335q0 -87 13 -189
q13 -103 15 -207z" />
    <glyph glyph-name="I" unicode="&#xcf;" horiz-adv-x="385" 
d="M366 358q0 -10 1 -30.5t1 -30.5q0 -102 -82 -143q-80 -40 -158 16q-41 30 -53 83q-8 32 -8 49q-1 78 -14 219t-16 195q0 4 -0.5 14t-0.5 14q4 89 -17 311q-6 66 3 122q8 48 40 79.5t77 36.5q43 5 81 -17.5t58 -65.5q14 -30 32 -121q30 -156 28 -335q0 -87 13 -189
q13 -103 15 -207z" />
    <glyph glyph-name="I" unicode="&#xce;" horiz-adv-x="385" 
d="M366 358q0 -10 1 -30.5t1 -30.5q0 -102 -82 -143q-80 -40 -158 16q-41 30 -53 83q-8 32 -8 49q-1 78 -14 219t-16 195q0 4 -0.5 14t-0.5 14q4 89 -17 311q-6 66 3 122q8 48 40 79.5t77 36.5q43 5 81 -17.5t58 -65.5q14 -30 32 -121q30 -156 28 -335q0 -87 13 -189
q13 -103 15 -207z" />
    <glyph glyph-name="I" unicode="&#xcd;" horiz-adv-x="385" 
d="M366 358q0 -10 1 -30.5t1 -30.5q0 -102 -82 -143q-80 -40 -158 16q-41 30 -53 83q-8 32 -8 49q-1 78 -14 219t-16 195q0 4 -0.5 14t-0.5 14q4 89 -17 311q-6 66 3 122q8 48 40 79.5t77 36.5q43 5 81 -17.5t58 -65.5q14 -30 32 -121q30 -156 28 -335q0 -87 13 -189
q13 -103 15 -207z" />
    <glyph glyph-name="I" unicode="&#xcc;" horiz-adv-x="385" 
d="M366 358q0 -10 1 -30.5t1 -30.5q0 -102 -82 -143q-80 -40 -158 16q-41 30 -53 83q-8 32 -8 49q-1 78 -14 219t-16 195q0 4 -0.5 14t-0.5 14q4 89 -17 311q-6 66 3 122q8 48 40 79.5t77 36.5q43 5 81 -17.5t58 -65.5q14 -30 32 -121q30 -156 28 -335q0 -87 13 -189
q13 -103 15 -207z" />
    <glyph glyph-name="J" unicode="J" horiz-adv-x="827" 
d="M808 551q5 -67 -7 -159q-20 -158 -136 -278q-42 -43 -104 -84q-66 -43 -141 -46q-143 -6 -271 36q-71 24 -108 81q-26 40 -25 85t30 83q28 38 70 51.5t88 -0.5q103 -33 170 -33q28 0 48 16q73 59 80 146q10 132 -4 232q-14 99 -23 262q-2 29 -11.5 88t-11.5 90
q-3 48 -3 49q1 36 -9 82q-5 21 -7 48q-2 52 28 92.5t80 52.5t95 -9.5t67 -68.5q31 -65 32 -121q1 -41 6.5 -85t14.5 -101t13 -84q23 -175 38 -322q1 -8 1 -103z" />
    <glyph glyph-name="K" unicode="K" horiz-adv-x="1013" 
d="M980 240q24 -49 13.5 -99t-50.5 -84q-41 -35 -92.5 -36.5t-96.5 31.5q-1 1 -3 2t-3.5 2t-3 2.5l-2.5 2.5q-24 26 -81 79t-84 84q-65 73 -108 109q-10 8 -15 7q0 -60 5 -104q3 -23 8 -70t8 -70q6 -52 -13 -95q-18 -38 -53.5 -60t-74.5 -19q-42 3 -75.5 30.5t-45.5 70.5
q-7 23 -13 75q-7 52 -16 93q-8 34 -11 64q-9 112 -61 361q-20 95 -17 176q2 41 7 61q11 42 -13 89q-28 55 -30 123q0 9 -0.5 26t-1 31t-1.5 26q-6 45 -20 82q-32 84 -13 163q14 61 62.5 94t106.5 20q65 -14 96 -78q20 -39 21 -76q6 -102 39 -198q6 -16 11.5 -35t12.5 -42.5
t11 -36.5q30 62 46 93q19 36 56.5 101t52.5 93q7 13 22 42.5t23 44.5q46 80 130 84q77 5 126 -53.5t31 -134.5q-17 -74 -65 -171q-59 -122 -186 -330q-9 -15 -25.5 -44t-25.5 -43q-12 -20 6 -37q109 -101 165 -155q64 -61 207 -237q20 -25 34 -54z" />
    <glyph glyph-name="L" unicode="L" horiz-adv-x="849" 
d="M826 225q22 -78 -40 -136q-29 -27 -65 -39q-107 -35 -214 -22q-89 12 -156 3t-143 22t-100 104q-27 81 -34 195q-7 117 -16 208q-21 235 -22 297q1 14 2 42t2 42q2 18 -3 30q-13 36 -15 75q-8 141 -3 211q3 43 21 76q37 70 110 74t119 -61q27 -38 37 -99q25 -161 7 -256
q-2 -10 1 -18q17 -60 27 -200q5 -64 21 -186t21 -181q1 -12 3 -36.5t3 -36.5q1 -19 22 -19q18 -1 51 3t38 4q142 10 219 -3q85 -14 107 -93z" />
    <glyph glyph-name="M" unicode="M" horiz-adv-x="1118" 
d="M1101 150q2 -39 -2 -67q-7 -59 -49 -97.5t-99 -38.5q-56 0 -97 38t-48 96q-8 79 -29 166q-5 23 -9 69q-5 50 -39 263q-2 16 -7 20q-4 0 -6.5 -2.5t-4.5 -7t-3 -5.5q-9 -12 -25.5 -36.5t-24.5 -36.5q-24 -35 -56 -56q-37 -23 -80.5 -20.5t-78.5 30.5q-22 19 -51 28
q-15 5 -40.5 17.5t-35.5 16.5q-5 -9 -5 -45q-2 -139 -25 -268q-7 -39 -26 -78q-39 -77 -109 -82q-69 -6 -108 57q-20 34 -22 76q-5 195 -4 226q3 90 5 269v146q0 58 19 118q23 74 92 99t134 -17q31 -21 64 -57q66 -73 153 -187q1 -2 5.5 -7.5t7.5 -9.5q50 63 86 131
q56 107 147 190q39 36 83 43q54 9 99.5 -19t62.5 -82q11 -37 19 -99q10 -93 36.5 -261.5t34.5 -225.5q3 -26 13 -90.5t15.5 -112t7.5 -91.5z" />
    <glyph glyph-name="N" unicode="N" horiz-adv-x="1042" 
d="M1023 268q-1 -19 1 -55t2 -55q-3 -80 -70 -118.5t-138 -1.5q-49 25 -69 67q-18 39 -68 85q-115 106 -195 238q-71 118 -129 177q-1 1 -3.5 5t-4.5 5.5t-5.5 3.5t-7.5 2q-3 -8 -3 -35q-9 -208 -36 -350q-17 -91 -58 -170q-8 -16 -10 -19q-33 -56 -83.5 -56t-83.5 56
q-25 40 -35 84q-11 45 -11 100q0 89 11 226q20 260 31 390q3 30 10.5 85t10.5 79q5 49 41 82t82.5 37t95.5 -20q29 -16 61 -52q90 -103 195 -247q43 -59 131 -177q4 -4 12 -10q0 78 -5 168q-2 33 -10 103t-10 107q-2 56 27 96t80 49q47 8 87.5 -14t58.5 -66q10 -24 18 -74
q6 -37 15.5 -101t17.5 -118t15 -101q35 -250 32 -405z" />
    <glyph glyph-name="N" unicode="&#xd1;" horiz-adv-x="1042" 
d="M1023 268q-1 -19 1 -55t2 -55q-3 -80 -70 -118.5t-138 -1.5q-49 25 -69 67q-18 39 -68 85q-115 106 -195 238q-71 118 -129 177q-1 1 -3.5 5t-4.5 5.5t-5.5 3.5t-7.5 2q-3 -8 -3 -35q-9 -208 -36 -350q-17 -91 -58 -170q-8 -16 -10 -19q-33 -56 -83.5 -56t-83.5 56
q-25 40 -35 84q-11 45 -11 100q0 89 11 226q20 260 31 390q3 30 10.5 85t10.5 79q5 49 41 82t82.5 37t95.5 -20q29 -16 61 -52q90 -103 195 -247q43 -59 131 -177q4 -4 12 -10q0 78 -5 168q-2 33 -10 103t-10 107q-2 56 27 96t80 49q47 8 87.5 -14t58.5 -66q10 -24 18 -74
q6 -37 15.5 -101t17.5 -118t15 -101q35 -250 32 -405z" />
    <glyph glyph-name="O" unicode="O" horiz-adv-x="1097" 
d="M1074 802v-10t1 -12.5t5 -9.5v-55q-4 -7 -5 -14.5t-1 -18.5v-15q-14 -198 -30 -298q-17 -110 -123 -225q-17 -19 -42 -28q-16 -6 -24 -23q-82 -160 -265 -165q-121 -3 -207 47q-100 60 -179 122q-63 50 -104 134q-72 152 -81 252q-2 12 -2 18q-2 229 24 363
q30 151 132 275q73 88 185 112q169 37 291 4q11 -3 33 -1q78 9 153 -36q95 -57 151 -148q76 -122 88 -268zM798 470q31 100 22 159q-6 37 -2 61q5 35 -11 105q-3 13 -9.5 28t-9.5 21.5t-15 27t-13 22.5q-34 60 -111 125q-10 8 -19 8q-118 -2 -186 -29q-20 -9 -29 -22
q-75 -121 -86 -214q-3 -26 -13 -143q1 -11 1.5 -43t3 -54t9.5 -42q12 -34 40 -100q18 -40 61 -57q49 -18 79 -32q36 -16 113 -24q10 -1 30 5q13 4 16 16q13 51 64 95q53 47 65 87z" />
    <glyph glyph-name="O" unicode="&#xd8;" horiz-adv-x="1097" 
d="M1074 802v-10t1 -12.5t5 -9.5v-55q-4 -7 -5 -14.5t-1 -18.5v-15q-14 -198 -30 -298q-17 -110 -123 -225q-17 -19 -42 -28q-16 -6 -24 -23q-82 -160 -265 -165q-121 -3 -207 47q-100 60 -179 122q-63 50 -104 134q-72 152 -81 252q-2 12 -2 18q-2 229 24 363
q30 151 132 275q73 88 185 112q169 37 291 4q11 -3 33 -1q78 9 153 -36q95 -57 151 -148q76 -122 88 -268zM798 470q31 100 22 159q-6 37 -2 61q5 35 -11 105q-3 13 -9.5 28t-9.5 21.5t-15 27t-13 22.5q-34 60 -111 125q-10 8 -19 8q-118 -2 -186 -29q-20 -9 -29 -22
q-75 -121 -86 -214q-3 -26 -13 -143q1 -11 1.5 -43t3 -54t9.5 -42q12 -34 40 -100q18 -40 61 -57q49 -18 79 -32q36 -16 113 -24q10 -1 30 5q13 4 16 16q13 51 64 95q53 47 65 87z" />
    <glyph glyph-name="O" unicode="&#xd6;" horiz-adv-x="1097" 
d="M1074 802v-10t1 -12.5t5 -9.5v-55q-4 -7 -5 -14.5t-1 -18.5v-15q-14 -198 -30 -298q-17 -110 -123 -225q-17 -19 -42 -28q-16 -6 -24 -23q-82 -160 -265 -165q-121 -3 -207 47q-100 60 -179 122q-63 50 -104 134q-72 152 -81 252q-2 12 -2 18q-2 229 24 363
q30 151 132 275q73 88 185 112q169 37 291 4q11 -3 33 -1q78 9 153 -36q95 -57 151 -148q76 -122 88 -268zM798 470q31 100 22 159q-6 37 -2 61q5 35 -11 105q-3 13 -9.5 28t-9.5 21.5t-15 27t-13 22.5q-34 60 -111 125q-10 8 -19 8q-118 -2 -186 -29q-20 -9 -29 -22
q-75 -121 -86 -214q-3 -26 -13 -143q1 -11 1.5 -43t3 -54t9.5 -42q12 -34 40 -100q18 -40 61 -57q49 -18 79 -32q36 -16 113 -24q10 -1 30 5q13 4 16 16q13 51 64 95q53 47 65 87z" />
    <glyph glyph-name="O" unicode="&#xd5;" horiz-adv-x="1097" 
d="M1074 802v-10t1 -12.5t5 -9.5v-55q-4 -7 -5 -14.5t-1 -18.5v-15q-14 -198 -30 -298q-17 -110 -123 -225q-17 -19 -42 -28q-16 -6 -24 -23q-82 -160 -265 -165q-121 -3 -207 47q-100 60 -179 122q-63 50 -104 134q-72 152 -81 252q-2 12 -2 18q-2 229 24 363
q30 151 132 275q73 88 185 112q169 37 291 4q11 -3 33 -1q78 9 153 -36q95 -57 151 -148q76 -122 88 -268zM798 470q31 100 22 159q-6 37 -2 61q5 35 -11 105q-3 13 -9.5 28t-9.5 21.5t-15 27t-13 22.5q-34 60 -111 125q-10 8 -19 8q-118 -2 -186 -29q-20 -9 -29 -22
q-75 -121 -86 -214q-3 -26 -13 -143q1 -11 1.5 -43t3 -54t9.5 -42q12 -34 40 -100q18 -40 61 -57q49 -18 79 -32q36 -16 113 -24q10 -1 30 5q13 4 16 16q13 51 64 95q53 47 65 87z" />
    <glyph glyph-name="O" unicode="&#xd4;" horiz-adv-x="1097" 
d="M1074 802v-10t1 -12.5t5 -9.5v-55q-4 -7 -5 -14.5t-1 -18.5v-15q-14 -198 -30 -298q-17 -110 -123 -225q-17 -19 -42 -28q-16 -6 -24 -23q-82 -160 -265 -165q-121 -3 -207 47q-100 60 -179 122q-63 50 -104 134q-72 152 -81 252q-2 12 -2 18q-2 229 24 363
q30 151 132 275q73 88 185 112q169 37 291 4q11 -3 33 -1q78 9 153 -36q95 -57 151 -148q76 -122 88 -268zM798 470q31 100 22 159q-6 37 -2 61q5 35 -11 105q-3 13 -9.5 28t-9.5 21.5t-15 27t-13 22.5q-34 60 -111 125q-10 8 -19 8q-118 -2 -186 -29q-20 -9 -29 -22
q-75 -121 -86 -214q-3 -26 -13 -143q1 -11 1.5 -43t3 -54t9.5 -42q12 -34 40 -100q18 -40 61 -57q49 -18 79 -32q36 -16 113 -24q10 -1 30 5q13 4 16 16q13 51 64 95q53 47 65 87z" />
    <glyph glyph-name="O" unicode="&#xd3;" horiz-adv-x="1097" 
d="M1074 802v-10t1 -12.5t5 -9.5v-55q-4 -7 -5 -14.5t-1 -18.5v-15q-14 -198 -30 -298q-17 -110 -123 -225q-17 -19 -42 -28q-16 -6 -24 -23q-82 -160 -265 -165q-121 -3 -207 47q-100 60 -179 122q-63 50 -104 134q-72 152 -81 252q-2 12 -2 18q-2 229 24 363
q30 151 132 275q73 88 185 112q169 37 291 4q11 -3 33 -1q78 9 153 -36q95 -57 151 -148q76 -122 88 -268zM798 470q31 100 22 159q-6 37 -2 61q5 35 -11 105q-3 13 -9.5 28t-9.5 21.5t-15 27t-13 22.5q-34 60 -111 125q-10 8 -19 8q-118 -2 -186 -29q-20 -9 -29 -22
q-75 -121 -86 -214q-3 -26 -13 -143q1 -11 1.5 -43t3 -54t9.5 -42q12 -34 40 -100q18 -40 61 -57q49 -18 79 -32q36 -16 113 -24q10 -1 30 5q13 4 16 16q13 51 64 95q53 47 65 87z" />
    <glyph glyph-name="O" unicode="&#xd2;" horiz-adv-x="1097" 
d="M1074 802v-10t1 -12.5t5 -9.5v-55q-4 -7 -5 -14.5t-1 -18.5v-15q-14 -198 -30 -298q-17 -110 -123 -225q-17 -19 -42 -28q-16 -6 -24 -23q-82 -160 -265 -165q-121 -3 -207 47q-100 60 -179 122q-63 50 -104 134q-72 152 -81 252q-2 12 -2 18q-2 229 24 363
q30 151 132 275q73 88 185 112q169 37 291 4q11 -3 33 -1q78 9 153 -36q95 -57 151 -148q76 -122 88 -268zM798 470q31 100 22 159q-6 37 -2 61q5 35 -11 105q-3 13 -9.5 28t-9.5 21.5t-15 27t-13 22.5q-34 60 -111 125q-10 8 -19 8q-118 -2 -186 -29q-20 -9 -29 -22
q-75 -121 -86 -214q-3 -26 -13 -143q1 -11 1.5 -43t3 -54t9.5 -42q12 -34 40 -100q18 -40 61 -57q49 -18 79 -32q36 -16 113 -24q10 -1 30 5q13 4 16 16q13 51 64 95q53 47 65 87z" />
    <glyph glyph-name="P" unicode="P" horiz-adv-x="1134" 
d="M1114 1050q28 -317 -214 -563q-59 -61 -165 -104q-48 -20 -123 -46q-21 -6 -18 -28q4 -24 9 -70t6 -52q10 -88 3 -161q-8 -89 -81 -121q-52 -23 -103.5 -1t-72.5 76q-8 22 -9 35q-3 44 -12 93t-21.5 107t-18.5 91q-23 128 -26 250q-2 62 -14 105q-13 47 -20 127
q-2 24 -5 36q-25 86 -38 167q-2 11 -15 40q-27 60 -28 112q0 20 -19 21q-71 6 -101.5 74t21.5 141q38 51 116 93q87 47 207 60q58 6 110 5l119 -3q71 -8 120 -42q46 -32 102 -55q68 -29 123 -84q18 -18 38 -35q116 -97 130 -268zM765 905q8 45 2 125q-1 20 -17 37
q-3 3 -19.5 21t-21.5 22.5t-20 18.5t-24.5 19.5t-24 13.5t-28.5 12q-7 2 -11 6q-35 33 -102 28h-9q-20 -1 -23 -4.5t0 -23.5q4 -18 7 -27q12 -39 17 -90t15 -100q20 -94 17 -143q-2 -94 3 -121q3 -16 6.5 -18t19.5 2q35 10 60 20q125 49 153 202z" />
    <glyph glyph-name="Q" unicode="Q" horiz-adv-x="1316" 
d="M1272 492q-24 -91 -103 -197q-20 -27 -20.5 -35.5t15.5 -36.5q28 -48 51 -76q24 -29 34 -62q13 -43 -0.5 -86.5t-47.5 -70.5q-76 -59 -164 -17q-27 12 -46 34q-11 12 -46 47.5t-52 57.5q-13 17 -30 8q-70 -35 -166 -35q-7 0 -85.5 -2.5t-85.5 1.5q-149 17 -277 91
q-70 40 -137 142q-55 83 -75.5 160.5t-19.5 201.5q-7 141 70 317q32 73 81 130q87 101 159 151q114 80 223 68q4 0 36 5q165 31 273 2q174 -47 298 -217q3 -5 9 -13.5t11 -15.5t10 -13q82 -107 105 -264q19 -128 -20 -275zM1006 596q37 91 -4 212q-5 16 -13.5 31.5t-16 27
t-21.5 27t-21 23t-24 24.5l-23 23t-10 7q-67 22 -82 24q-97 10 -168 4q-26 -2 -88.5 -12t-96.5 -11q-14 0 -27 -17q-47 -58 -73 -130q-37 -108 -9 -245q39 -189 204 -219l9 -3q47 -11 132 -11q-15 49 -16 52q-13 62 26.5 103.5t102.5 33.5q33 -4 72 -24q17 -9 69 -49
q6 2 18 16q31 41 60 113z" />
    <glyph glyph-name="R" unicode="R" horiz-adv-x="1024" 
d="M999 136q16 -45 3 -88.5t-50 -70.5q-38 -29 -82.5 -28.5t-84.5 29.5q-83 61 -241 193q-20 17 -31 21q-1 -10 -2 -29t-2.5 -33.5t-4.5 -27.5q-11 -46 -27 -75q-34 -62 -97.5 -63t-100.5 60q-34 55 -37 134q-4 76 -18 221t-18 214q-2 22 -4 31q-11 44 -27 136t-28 139
q-11 41 -28.5 119.5t-19.5 89.5q-3 12 -7.5 24t-10.5 26.5t-9 23.5q-2 4 -14 16q-63 62 -31 143q24 61 93 97q40 21 93 29q146 22 237 13q54 -6 102 -30q68 -34 142 -79q36 -21 72 -61q31 -34 48.5 -55t38.5 -54.5t32 -66.5q19 -57 26 -138q15 -192 -46 -330
q-42 -96 -126 -171q-24 -21 -24 -29t24 -28q75 -64 154 -162q18 -22 57 -63q36 -38 49 -77zM546 772q39 67 36 155v11.5v14v11.5q-2 48 -32 86q-55 70 -104 97q-16 9 -25 18q-21 23 -64 19q-21 -1 -18 -22l9 -51q4 -20 12.5 -55.5t15.5 -65t11 -55.5q11 -66 53 -216
q5 -21 26 -14q50 17 80 67z" />
    <glyph glyph-name="S" unicode="S" horiz-adv-x="882" 
d="M862 440q6 -74 3 -110q-17 -192 -171 -300q-78 -54 -145 -70q-50 -12 -97 -11q-143 3 -235 82q-16 14 -48.5 40t-48.5 39q-78 64 -101 177q-13 67 39 112t118 25q59 -18 102 -83q20 -30 70 -57t84 -23q60 6 92 39t29 93q-1 41 -37 72q-51 43 -145 61q-98 20 -181 69
q-126 76 -135 227q-9 134 53 251q54 101 144 146t200 22q39 -8 115 -30q41 -12 75 -41q46 -40 37 -95t-66 -75q-106 -39 -187 -39q-37 0 -58 -22t-21 -59q0 -18 15 -25q12 -6 19 -9q16 -6 45 -18.5t52.5 -21.5t45.5 -14q88 -22 201 -106q124 -93 137 -246z" />
    <glyph glyph-name="T" unicode="T" horiz-adv-x="1216" 
d="M1135 1529q74 -54 63 -144q-10 -88 -96 -124q-34 -14 -98 -24q-123 -19 -277 -27q-33 -2 -36.5 -6t-1.5 -36q1 -17 2.5 -49t2.5 -58t1 -49q0 -82 8 -278.5t6 -302.5q-1 -47 4 -158.5t2 -171.5q-3 -71 -4 -79q-10 -68 -59 -111t-116 -41t-114.5 46.5t-53.5 112.5
q-3 29 -3 88q-1 49 -5 162t-4 162.5t2 164.5q-11 173 -2 432q0 19 2 57.5t3 58.5q1 24 -3 28t-27 5q-16 1 -49 1t-58.5 1.5t-48.5 4.5q-46 7 -77 26q-88 56 -81 154q7 100 102 140q38 15 84 17q104 4 156 4q87 0 183 11q12 2 143 7q271 10 343 7q66 -2 107 -31z" />
    <glyph glyph-name="U" unicode="U" horiz-adv-x="991" 
d="M974 354q9 -103 -81 -212q-30 -38 -84 -70q-161 -94 -312 -83q-132 10 -240 98q-174 140 -216 338q-11 52 -12 88q-12 248 -12 269q-3 118 27 267q13 67 45 103q47 53 111 47.5t101 -65.5q22 -34 29 -87q6 -47 7 -73q5 -120 29 -445q7 -109 130 -185q20 -13 51 -6
q7 1 69 23q19 6 20 29q1 34 -13 167q-5 50 -9 143.5t-7 131.5q-2 27 -3.5 57.5t-3 68t-2.5 57.5q-1 32 2 71q6 53 41.5 87.5t86.5 36.5q53 2 93 -30t47 -85q4 -27 18.5 -119t22 -152.5t12.5 -119.5q5 -62 30 -168q12 -53 23 -182z" />
    <glyph glyph-name="U" unicode="&#xdc;" horiz-adv-x="991" 
d="M974 354q9 -103 -81 -212q-30 -38 -84 -70q-161 -94 -312 -83q-132 10 -240 98q-174 140 -216 338q-11 52 -12 88q-12 248 -12 269q-3 118 27 267q13 67 45 103q47 53 111 47.5t101 -65.5q22 -34 29 -87q6 -47 7 -73q5 -120 29 -445q7 -109 130 -185q20 -13 51 -6
q7 1 69 23q19 6 20 29q1 34 -13 167q-5 50 -9 143.5t-7 131.5q-2 27 -3.5 57.5t-3 68t-2.5 57.5q-1 32 2 71q6 53 41.5 87.5t86.5 36.5q53 2 93 -30t47 -85q4 -27 18.5 -119t22 -152.5t12.5 -119.5q5 -62 30 -168q12 -53 23 -182z" />
    <glyph glyph-name="U" unicode="&#xdb;" horiz-adv-x="991" 
d="M974 354q9 -103 -81 -212q-30 -38 -84 -70q-161 -94 -312 -83q-132 10 -240 98q-174 140 -216 338q-11 52 -12 88q-12 248 -12 269q-3 118 27 267q13 67 45 103q47 53 111 47.5t101 -65.5q22 -34 29 -87q6 -47 7 -73q5 -120 29 -445q7 -109 130 -185q20 -13 51 -6
q7 1 69 23q19 6 20 29q1 34 -13 167q-5 50 -9 143.5t-7 131.5q-2 27 -3.5 57.5t-3 68t-2.5 57.5q-1 32 2 71q6 53 41.5 87.5t86.5 36.5q53 2 93 -30t47 -85q4 -27 18.5 -119t22 -152.5t12.5 -119.5q5 -62 30 -168q12 -53 23 -182z" />
    <glyph glyph-name="U" unicode="&#xda;" horiz-adv-x="991" 
d="M974 354q9 -103 -81 -212q-30 -38 -84 -70q-161 -94 -312 -83q-132 10 -240 98q-174 140 -216 338q-11 52 -12 88q-12 248 -12 269q-3 118 27 267q13 67 45 103q47 53 111 47.5t101 -65.5q22 -34 29 -87q6 -47 7 -73q5 -120 29 -445q7 -109 130 -185q20 -13 51 -6
q7 1 69 23q19 6 20 29q1 34 -13 167q-5 50 -9 143.5t-7 131.5q-2 27 -3.5 57.5t-3 68t-2.5 57.5q-1 32 2 71q6 53 41.5 87.5t86.5 36.5q53 2 93 -30t47 -85q4 -27 18.5 -119t22 -152.5t12.5 -119.5q5 -62 30 -168q12 -53 23 -182z" />
    <glyph glyph-name="U" unicode="&#xd9;" horiz-adv-x="991" 
d="M974 354q9 -103 -81 -212q-30 -38 -84 -70q-161 -94 -312 -83q-132 10 -240 98q-174 140 -216 338q-11 52 -12 88q-12 248 -12 269q-3 118 27 267q13 67 45 103q47 53 111 47.5t101 -65.5q22 -34 29 -87q6 -47 7 -73q5 -120 29 -445q7 -109 130 -185q20 -13 51 -6
q7 1 69 23q19 6 20 29q1 34 -13 167q-5 50 -9 143.5t-7 131.5q-2 27 -3.5 57.5t-3 68t-2.5 57.5q-1 32 2 71q6 53 41.5 87.5t86.5 36.5q53 2 93 -30t47 -85q4 -27 18.5 -119t22 -152.5t12.5 -119.5q5 -62 30 -168q12 -53 23 -182z" />
    <glyph glyph-name="V" unicode="V" horiz-adv-x="876" 
d="M855 1139q4 -21 4 -64q1 -155 -37 -463q-29 -230 -46 -340q-8 -52 -34 -136q-18 -58 -59 -99q-55 -58 -132.5 -55t-124.5 67q-4 5 -26 35.5t-28.5 39.5t-24.5 35t-27 41t-21.5 37t-22.5 42q-38 83 -85 210q-25 68 -67.5 193t-54.5 159q-34 95 -50 217q-5 45 2 76
q14 56 64 77t100 -9q35 -21 58 -55q32 -49 50 -90q28 -60 82.5 -181t81.5 -181q1 -2 4 -9.5t5.5 -12t7.5 -7.5q5 2 7 13q5 35 19.5 123.5t21.5 136.5q5 34 10.5 97t9.5 91q8 71 56 109q73 58 155 27q85 -33 102 -124z" />
    <glyph glyph-name="W" unicode="W" horiz-adv-x="1646" 
d="M1624 1276q-8 -30 -8 -57q-2 -138 4 -226q0 -60 0.5 -65.5t-5 -65.5t-5.5 -65q-21 -247 -73 -446q-24 -92 -83 -259q-9 -22 -19 -38q-38 -59 -100 -78.5t-127 8.5q-113 50 -191 144q-38 47 -122 133q-45 46 -77 99q-1 2 -4.5 8.5t-7 10.5t-8.5 7q-5 -6 -13 -32
q-31 -105 -68 -187q-13 -28 -25 -49q-77 -142 -251 -113q-125 20 -195 139q-30 53 -56 132q-53 158 -103 399q-4 18 -24 106.5t-28 135.5q-17 99 -18 161q-2 57 9 94q17 59 60 86q40 26 87.5 18t81.5 -45q30 -34 51 -83q13 -31 57 -168q36 -114 115 -438q4 -20 10 -28
q2 1 5 4q10 27 44.5 104.5t48.5 121.5q5 14 1 36q-8 39 4 75q29 96 119 115t160 -56q15 -16 37 -56q68 -119 133 -201q25 -33 79 -116q11 -16 24.5 -31.5t33 -35.5t28.5 -30q5 5 13 31q43 169 75 368q11 64 18.5 136.5t14.5 161.5t12 137v9.5v12v9.5q-2 96 79 137
q85 43 158 -16q74 -60 49 -154z" />
    <glyph glyph-name="X" unicode="X" horiz-adv-x="1064" 
d="M1001 288q74 -92 28 -192q-45 -96 -157 -101q-58 -3 -110 38q-33 26 -43 39q-49 61 -136 153q-66 -142 -137 -265q-8 -13 -22.5 -41t-22.5 -41q-78 -134 -194 -140q-113 -6 -148 115q-18 61 10 142q14 40 30 68q38 66 74.5 136.5t86 172t68.5 138.5q-63 79 -202 222
q-60 64 -87 114t-21 102.5t44 90.5q37 37 88 43.5t101 -18.5q41 -21 118 -88q65 -56 141 -137q25 47 125 249q48 99 97 161q46 58 102 81t106 3q48 -19 69.5 -72t8.5 -122q-10 -50 -62 -178q-78 -194 -199 -406l32 -32q96 -94 165 -181q7 -9 23 -27z" />
    <glyph glyph-name="Y" unicode="Y" horiz-adv-x="1173" 
d="M1138 1514q13 -45 19 -154q-12 -163 -59 -284q-33 -85 -103 -255q-1 -3 -3 -7t-3 -7q-60 -158 -218 -247q-28 -16 -25 -48q7 -75 8.5 -154t-0.5 -193.5t-2 -154.5q0 -69 -39 -126q-55 -79 -148 -78.5t-148 79.5q-39 56 -39 133q-1 70 -1 211q0 132 -9 330q-1 19 -14 36
q-21 31 -58.5 85t-68 99.5t-55.5 86.5q-45 72 -66 154q-42 158 -66 236q-20 66 -23 120q-3 64 20 109q32 61 92 78.5t119 -17.5q44 -27 82 -90q50 -87 87 -195q4 -10 42 -134q12 -40 35 -71q37 -51 68 -98q15 -23 55 -41q13 -5 20 7q3 5 8.5 14.5t7.5 14.5q32 70 47 106
q40 95 79 169q44 84 50 169q3 42 11 91q9 65 55 103q63 53 141.5 28t101.5 -105z" />
    <glyph glyph-name="Y" unicode="&#xdd;" horiz-adv-x="1173" 
d="M1138 1514q13 -45 19 -154q-12 -163 -59 -284q-33 -85 -103 -255q-1 -3 -3 -7t-3 -7q-60 -158 -218 -247q-28 -16 -25 -48q7 -75 8.5 -154t-0.5 -193.5t-2 -154.5q0 -69 -39 -126q-55 -79 -148 -78.5t-148 79.5q-39 56 -39 133q-1 70 -1 211q0 132 -9 330q-1 19 -14 36
q-21 31 -58.5 85t-68 99.5t-55.5 86.5q-45 72 -66 154q-42 158 -66 236q-20 66 -23 120q-3 64 20 109q32 61 92 78.5t119 -17.5q44 -27 82 -90q50 -87 87 -195q4 -10 42 -134q12 -40 35 -71q37 -51 68 -98q15 -23 55 -41q13 -5 20 7q3 5 8.5 14.5t7.5 14.5q32 70 47 106
q40 95 79 169q44 84 50 169q3 42 11 91q9 65 55 103q63 53 141.5 28t101.5 -105z" />
    <glyph glyph-name="Z" unicode="Z" horiz-adv-x="1638" 
d="M1614 273q19 -69 -12 -132t-97 -92q-70 -29 -134 -28q-109 3 -340 -34q-193 -30 -252 -33q-3 0 -8 -2t-7 -2h-410q-5 4 -23 6q-115 19 -153 121q-39 104 35 192q135 164 181 223q53 68 80 112q39 62 95 131q44 55 124 171q10 15 10 22q-15 5 -49 7q-57 3 -196.5 13.5
t-215.5 12.5q-73 2 -130 31q-93 48 -96 142q-2 60 37 104.5t101 51.5q204 23 370 11q66 -5 113 -4q54 1 116 -5q43 -5 97 3q64 10 159 8q81 -1 145 -56q78 -66 66 -169q-7 -56 -38 -113q-36 -68 -107 -174q-141 -209 -212 -296q-40 -50 -101 -145q-5 -7 -2 -15q18 -2 58 4
q27 4 121 18t145 23q144 25 246 20q17 -1 61 8q78 14 141 -24t82 -111z" />
    <glyph glyph-name="bracketleft" unicode="[" horiz-adv-x="497" 
d="M336 1h-49q-53 -2 -79 4q-60 14 -93.5 53.5t-34.5 99.5q-2 38 -10 63q-8 24 -17 105q-34 279 -37 571q-2 96 16 173q19 87 109 92q57 2 97 -11q17 -5 31 -13q49 -28 43 -81q-6 -51 -60 -70q-1 -1 -3 -1t-3 -1q-16 -5 -18 -8.5t-1 -20.5q1 -14 4 -42.5t4 -42.5
q3 -50 8.5 -140.5t10.5 -165t11 -140.5q9 -101 16 -137q4 -19 8 -22t23 -5q49 -5 66 -9q30 -8 50 -23q52 -36 52.5 -97.5t-49.5 -98.5q-36 -27 -95 -32z" />
    <glyph glyph-name="bracketright" unicode="]" horiz-adv-x="499" 
d="M475 421q7 -75 7 -121q-2 -117 1 -147q6 -56 -45 -92q-97 -68 -211 -60q-56 4 -94.5 44.5t-38.5 94.5q0 53 39 93.5t95 44.5q21 2 43 0q17 -1 19.5 1.5t1.5 18.5q-1 30 -18 137q-5 30 -18.5 103.5t-21 127t-10.5 104.5q-2 29 -4 88t-4 89q-2 24 -6 71t-6 70q-1 20 -20 18
q-33 -4 -71 -1q-30 4 -47 13q-50 25 -50 78q0 55 52 80q25 12 80 18q16 1 45 2.5t53 3.5t45 6q36 6 68 -17.5t44 -63.5q8 -24 12 -85q2 -33 11 -173.5t15 -216.5q5 -64 18 -182t16 -147z" />
    <glyph glyph-name="asciicircum" unicode="^" horiz-adv-x="712" 
d="M353 1325q-14 22 -24 39q-5 -12 -13.5 -32t-14.5 -35.5t-12 -28.5q-26 -60 -40 -82q-31 -47 -78 -62q-63 -20 -111 19t-43 105q3 28 12 53q38 109 117 272q19 39 69 105q35 46 94.5 51.5t108.5 -31.5q20 -14 48 -51q82 -107 129 -197q40 -80 73 -127q26 -38 27 -73
q5 -76 -59 -117q-63 -41 -131 -4q-24 13 -54 49q-33 40 -98 147z" />
    <glyph glyph-name="underscore" unicode="_" horiz-adv-x="882" 
d="M362 2q-24 -3 -84 -1q-21 -2 -46 0.5t-59 7.5t-51 7q-23 3 -46 15q-54 28 -59 84t44 91q65 46 143 51q215 14 283 13q29 0 120.5 -3t141.5 -2q42 1 72.5 -21t39.5 -60q10 -38 -7 -72.5t-55 -53.5q-46 -23 -103 -26q-8 0 -23.5 -0.5t-28.5 -1t-24 -1.5q-38 -4 -81 -8.5
t-95.5 -10t-81.5 -8.5z" />
    <glyph glyph-name="a" unicode="a" horiz-adv-x="774" 
d="M741 334q-5 -33 3 -52q15 -35 -3 -75q-34 -75 -100 -119q-49 -32 -117 -38q-7 -1 -28 -3t-30 -2.5t-27.5 -1.5t-30.5 0t-27.5 2.5t-28.5 5.5q-175 45 -224 191q-22 68 -7 159q19 109 101 193q69 70 175 78q59 3 102 -7q9 -2 10 7q5 52 6 101q0 11 -18 34q-43 51 -95 70
q-17 7 -40 5q-21 -1 -44 -7t-39.5 -12t-42 -16t-39.5 -15q-8 -3 -22.5 -10.5t-22.5 -9.5q-43 -13 -79.5 6.5t-50.5 61.5l-6 18v28q3 7 6.5 23t7.5 24q39 85 145 127q161 64 333 -15q80 -37 113 -63q70 -57 97 -127q23 -59 26 -136q1 -31 5.5 -88.5t5.5 -79.5
q6 -134 -14 -257zM512 296q12 88 9 132v22q1 18 -16 21q-34 7 -43 8q-51 5 -75 -35q-27 -45 -20 -112q1 -14 17 -22q13 -7 29 -11.5t28 -6t31.5 -4t29.5 -3.5q5 -1 7 2t3 9z" />
    <glyph glyph-name="a" unicode="&#xe5;" horiz-adv-x="774" 
d="M741 334q-5 -33 3 -52q15 -35 -3 -75q-34 -75 -100 -119q-49 -32 -117 -38q-7 -1 -28 -3t-30 -2.5t-27.5 -1.5t-30.5 0t-27.5 2.5t-28.5 5.5q-175 45 -224 191q-22 68 -7 159q19 109 101 193q69 70 175 78q59 3 102 -7q9 -2 10 7q5 52 6 101q0 11 -18 34q-43 51 -95 70
q-17 7 -40 5q-21 -1 -44 -7t-39.5 -12t-42 -16t-39.5 -15q-8 -3 -22.5 -10.5t-22.5 -9.5q-43 -13 -79.5 6.5t-50.5 61.5l-6 18v28q3 7 6.5 23t7.5 24q39 85 145 127q161 64 333 -15q80 -37 113 -63q70 -57 97 -127q23 -59 26 -136q1 -31 5.5 -88.5t5.5 -79.5
q6 -134 -14 -257zM512 296q12 88 9 132v22q1 18 -16 21q-34 7 -43 8q-51 5 -75 -35q-27 -45 -20 -112q1 -14 17 -22q13 -7 29 -11.5t28 -6t31.5 -4t29.5 -3.5q5 -1 7 2t3 9z" />
    <glyph glyph-name="a" unicode="&#xe4;" horiz-adv-x="774" 
d="M741 334q-5 -33 3 -52q15 -35 -3 -75q-34 -75 -100 -119q-49 -32 -117 -38q-7 -1 -28 -3t-30 -2.5t-27.5 -1.5t-30.5 0t-27.5 2.5t-28.5 5.5q-175 45 -224 191q-22 68 -7 159q19 109 101 193q69 70 175 78q59 3 102 -7q9 -2 10 7q5 52 6 101q0 11 -18 34q-43 51 -95 70
q-17 7 -40 5q-21 -1 -44 -7t-39.5 -12t-42 -16t-39.5 -15q-8 -3 -22.5 -10.5t-22.5 -9.5q-43 -13 -79.5 6.5t-50.5 61.5l-6 18v28q3 7 6.5 23t7.5 24q39 85 145 127q161 64 333 -15q80 -37 113 -63q70 -57 97 -127q23 -59 26 -136q1 -31 5.5 -88.5t5.5 -79.5
q6 -134 -14 -257zM512 296q12 88 9 132v22q1 18 -16 21q-34 7 -43 8q-51 5 -75 -35q-27 -45 -20 -112q1 -14 17 -22q13 -7 29 -11.5t28 -6t31.5 -4t29.5 -3.5q5 -1 7 2t3 9z" />
    <glyph glyph-name="a" unicode="&#xe3;" horiz-adv-x="774" 
d="M741 334q-5 -33 3 -52q15 -35 -3 -75q-34 -75 -100 -119q-49 -32 -117 -38q-7 -1 -28 -3t-30 -2.5t-27.5 -1.5t-30.5 0t-27.5 2.5t-28.5 5.5q-175 45 -224 191q-22 68 -7 159q19 109 101 193q69 70 175 78q59 3 102 -7q9 -2 10 7q5 52 6 101q0 11 -18 34q-43 51 -95 70
q-17 7 -40 5q-21 -1 -44 -7t-39.5 -12t-42 -16t-39.5 -15q-8 -3 -22.5 -10.5t-22.5 -9.5q-43 -13 -79.5 6.5t-50.5 61.5l-6 18v28q3 7 6.5 23t7.5 24q39 85 145 127q161 64 333 -15q80 -37 113 -63q70 -57 97 -127q23 -59 26 -136q1 -31 5.5 -88.5t5.5 -79.5
q6 -134 -14 -257zM512 296q12 88 9 132v22q1 18 -16 21q-34 7 -43 8q-51 5 -75 -35q-27 -45 -20 -112q1 -14 17 -22q13 -7 29 -11.5t28 -6t31.5 -4t29.5 -3.5q5 -1 7 2t3 9z" />
    <glyph glyph-name="a" unicode="&#xe2;" horiz-adv-x="774" 
d="M741 334q-5 -33 3 -52q15 -35 -3 -75q-34 -75 -100 -119q-49 -32 -117 -38q-7 -1 -28 -3t-30 -2.5t-27.5 -1.5t-30.5 0t-27.5 2.5t-28.5 5.5q-175 45 -224 191q-22 68 -7 159q19 109 101 193q69 70 175 78q59 3 102 -7q9 -2 10 7q5 52 6 101q0 11 -18 34q-43 51 -95 70
q-17 7 -40 5q-21 -1 -44 -7t-39.5 -12t-42 -16t-39.5 -15q-8 -3 -22.5 -10.5t-22.5 -9.5q-43 -13 -79.5 6.5t-50.5 61.5l-6 18v28q3 7 6.5 23t7.5 24q39 85 145 127q161 64 333 -15q80 -37 113 -63q70 -57 97 -127q23 -59 26 -136q1 -31 5.5 -88.5t5.5 -79.5
q6 -134 -14 -257zM512 296q12 88 9 132v22q1 18 -16 21q-34 7 -43 8q-51 5 -75 -35q-27 -45 -20 -112q1 -14 17 -22q13 -7 29 -11.5t28 -6t31.5 -4t29.5 -3.5q5 -1 7 2t3 9z" />
    <glyph glyph-name="a" unicode="&#xe1;" horiz-adv-x="774" 
d="M741 334q-5 -33 3 -52q15 -35 -3 -75q-34 -75 -100 -119q-49 -32 -117 -38q-7 -1 -28 -3t-30 -2.5t-27.5 -1.5t-30.5 0t-27.5 2.5t-28.5 5.5q-175 45 -224 191q-22 68 -7 159q19 109 101 193q69 70 175 78q59 3 102 -7q9 -2 10 7q5 52 6 101q0 11 -18 34q-43 51 -95 70
q-17 7 -40 5q-21 -1 -44 -7t-39.5 -12t-42 -16t-39.5 -15q-8 -3 -22.5 -10.5t-22.5 -9.5q-43 -13 -79.5 6.5t-50.5 61.5l-6 18v28q3 7 6.5 23t7.5 24q39 85 145 127q161 64 333 -15q80 -37 113 -63q70 -57 97 -127q23 -59 26 -136q1 -31 5.5 -88.5t5.5 -79.5
q6 -134 -14 -257zM512 296q12 88 9 132v22q1 18 -16 21q-34 7 -43 8q-51 5 -75 -35q-27 -45 -20 -112q1 -14 17 -22q13 -7 29 -11.5t28 -6t31.5 -4t29.5 -3.5q5 -1 7 2t3 9z" />
    <glyph glyph-name="a" unicode="&#xe0;" horiz-adv-x="774" 
d="M741 334q-5 -33 3 -52q15 -35 -3 -75q-34 -75 -100 -119q-49 -32 -117 -38q-7 -1 -28 -3t-30 -2.5t-27.5 -1.5t-30.5 0t-27.5 2.5t-28.5 5.5q-175 45 -224 191q-22 68 -7 159q19 109 101 193q69 70 175 78q59 3 102 -7q9 -2 10 7q5 52 6 101q0 11 -18 34q-43 51 -95 70
q-17 7 -40 5q-21 -1 -44 -7t-39.5 -12t-42 -16t-39.5 -15q-8 -3 -22.5 -10.5t-22.5 -9.5q-43 -13 -79.5 6.5t-50.5 61.5l-6 18v28q3 7 6.5 23t7.5 24q39 85 145 127q161 64 333 -15q80 -37 113 -63q70 -57 97 -127q23 -59 26 -136q1 -31 5.5 -88.5t5.5 -79.5
q6 -134 -14 -257zM512 296q12 88 9 132v22q1 18 -16 21q-34 7 -43 8q-51 5 -75 -35q-27 -45 -20 -112q1 -14 17 -22q13 -7 29 -11.5t28 -6t31.5 -4t29.5 -3.5q5 -1 7 2t3 9z" />
    <glyph glyph-name="b" unicode="b" horiz-adv-x="960" 
d="M937 379q30 -174 -83 -321q-39 -52 -67 -80q-56 -56 -144 -90q-73 -29 -155 -23q-109 -5 -198 44q-41 22 -59 52q-8 13 -19 20q-54 33 -64 112q-4 33 -14.5 98t-14.5 98q-27 221 -30 269q-1 22 -2.5 100.5t-6.5 120.5l-21 204q-2 18 -23 79q-24 72 -18 154
q3 38 24.5 62.5t56.5 28.5q58 8 95 -49q8 -13 15.5 -29t11.5 -27t11 -32t10 -29q27 -80 31 -208q2 -57 35 -181q5 -18 10 -44q3 -12 13 -5q119 81 295 42q75 -17 144 -74q136 -113 167 -292zM665 252q22 54 -17 121q-59 103 -176 93q-17 -2 -29 -7q-61 -28 -71 -100
q-3 -54 -3 -69t5.5 -69t6.5 -69q1 -10 11 -13q52 -19 76 -15q94 -4 161 76q28 32 36 52z" />
    <glyph glyph-name="c" unicode="c" horiz-adv-x="886" 
d="M746 468q53 8 90.5 -28t32.5 -89q-5 -54 -47 -100q-82 -95 -196 -133q-107 -36 -233 -4q-92 24 -184 82q-61 38 -104 115q-64 111 -83 234q-18 115 22 242q25 81 71 146q52 72 147 107q85 31 199 33q66 0 101 -10q66 -20 90 -62q28 -47 6 -93.5t-77 -57.5
q-22 -5 -63 -8.5t-52 -4.5q-77 -10 -113 -26q-21 -9 -28 -25q-42 -93 -43 -159q-1 -71 51 -161q22 -38 57 -56.5t87 -30.5q88 -19 186 48q54 36 83 41z" />
    <glyph glyph-name="c" unicode="&#xe7;" horiz-adv-x="886" 
d="M746 468q53 8 90.5 -28t32.5 -89q-5 -54 -47 -100q-82 -95 -196 -133q-107 -36 -233 -4q-92 24 -184 82q-61 38 -104 115q-64 111 -83 234q-18 115 22 242q25 81 71 146q52 72 147 107q85 31 199 33q66 0 101 -10q66 -20 90 -62q28 -47 6 -93.5t-77 -57.5
q-22 -5 -63 -8.5t-52 -4.5q-77 -10 -113 -26q-21 -9 -28 -25q-42 -93 -43 -159q-1 -71 51 -161q22 -38 57 -56.5t87 -30.5q88 -19 186 48q54 36 83 41z" />
    <glyph glyph-name="d" unicode="d" horiz-adv-x="804" 
d="M770 319q11 -59 17 -179q3 -61 -46 -111q-57 -60 -82 -75q-116 -73 -256 -55q-133 17 -248 103q-84 62 -120 177q-21 67 -18 149q8 134 42 211q65 149 196 217q94 49 167 49q48 0 85 -8q13 -3 16 -1t1 16q-4 33 -12.5 100.5t-12.5 101.5q0 4 -5.5 32.5t-4.5 43.5
q1 12 -2.5 58t2.5 58q11 46 58.5 63.5t85.5 -10.5q45 -33 52 -100q2 -25 10 -79t10 -83q21 -273 21 -280q18 -259 44 -398zM523 172q22 3 34.5 7.5t21.5 19t6 39.5v10q0 26 -5 63q-23 140 -24 168q-1 15 -2.5 44.5t-2.5 43.5q0 16 -10 17q-35 2 -42 2q-52 -3 -111 -39
q-79 -49 -94 -111q-18 -74 -2 -141q10 -40 35 -61q92 -76 196 -62z" />
    <glyph glyph-name="e" unicode="e" horiz-adv-x="907" 
d="M887 429q10 -96 -24 -165q-46 -94 -123 -156q-72 -57 -188 -69q-99 -9 -135 -4q-125 17 -209 100q-90 87 -130 173q-86 186 -52 371q2 13 7.5 56.5t12.5 66.5q5 15 14 48t18 57.5t22 45.5q20 33 45 59q23 25 36 38.5t35.5 31t44.5 27.5q66 28 119 29h61t62 1
q100 1 178 -67q71 -63 118 -147t45 -217q-2 -52 -32 -87q-35 -39 -72 -39q-53 1 -153 -29q-57 -17 -176 -13h-104q-9 0 -11 -2t0 -11q21 -75 66 -127q50 -58 80 -77q93 -55 178 -18q73 31 90 102q9 36 23 56q15 23 40 33t50 4q25 -5 43 -24.5t21 -46.5zM277 755q-3 -6 -1 -8
t9 -1q48 11 146 11q75 0 132 13q19 5 22.5 9.5t1.5 22.5q-3 14 -4 17q-12 30 -26 51q-1 1 -5.5 8t-5.5 8t-6 7.5t-6 7.5t-6.5 6t-7 4.5t-7.5 3.5t-8.5 2t-8.5 0q-47 -2 -103 -15q-18 -4 -34 -23q-5 -6 -14.5 -17t-13.5 -17q-38 -45 -54 -90z" />
    <glyph glyph-name="e" unicode="&#xeb;" horiz-adv-x="907" 
d="M887 429q10 -96 -24 -165q-46 -94 -123 -156q-72 -57 -188 -69q-99 -9 -135 -4q-125 17 -209 100q-90 87 -130 173q-86 186 -52 371q2 13 7.5 56.5t12.5 66.5q5 15 14 48t18 57.5t22 45.5q20 33 45 59q23 25 36 38.5t35.5 31t44.5 27.5q66 28 119 29h61t62 1
q100 1 178 -67q71 -63 118 -147t45 -217q-2 -52 -32 -87q-35 -39 -72 -39q-53 1 -153 -29q-57 -17 -176 -13h-104q-9 0 -11 -2t0 -11q21 -75 66 -127q50 -58 80 -77q93 -55 178 -18q73 31 90 102q9 36 23 56q15 23 40 33t50 4q25 -5 43 -24.5t21 -46.5zM277 755q-3 -6 -1 -8
t9 -1q48 11 146 11q75 0 132 13q19 5 22.5 9.5t1.5 22.5q-3 14 -4 17q-12 30 -26 51q-1 1 -5.5 8t-5.5 8t-6 7.5t-6 7.5t-6.5 6t-7 4.5t-7.5 3.5t-8.5 2t-8.5 0q-47 -2 -103 -15q-18 -4 -34 -23q-5 -6 -14.5 -17t-13.5 -17q-38 -45 -54 -90z" />
    <glyph glyph-name="e" unicode="&#xea;" horiz-adv-x="907" 
d="M887 429q10 -96 -24 -165q-46 -94 -123 -156q-72 -57 -188 -69q-99 -9 -135 -4q-125 17 -209 100q-90 87 -130 173q-86 186 -52 371q2 13 7.5 56.5t12.5 66.5q5 15 14 48t18 57.5t22 45.5q20 33 45 59q23 25 36 38.5t35.5 31t44.5 27.5q66 28 119 29h61t62 1
q100 1 178 -67q71 -63 118 -147t45 -217q-2 -52 -32 -87q-35 -39 -72 -39q-53 1 -153 -29q-57 -17 -176 -13h-104q-9 0 -11 -2t0 -11q21 -75 66 -127q50 -58 80 -77q93 -55 178 -18q73 31 90 102q9 36 23 56q15 23 40 33t50 4q25 -5 43 -24.5t21 -46.5zM277 755q-3 -6 -1 -8
t9 -1q48 11 146 11q75 0 132 13q19 5 22.5 9.5t1.5 22.5q-3 14 -4 17q-12 30 -26 51q-1 1 -5.5 8t-5.5 8t-6 7.5t-6 7.5t-6.5 6t-7 4.5t-7.5 3.5t-8.5 2t-8.5 0q-47 -2 -103 -15q-18 -4 -34 -23q-5 -6 -14.5 -17t-13.5 -17q-38 -45 -54 -90z" />
    <glyph glyph-name="e" unicode="&#xe9;" horiz-adv-x="907" 
d="M887 429q10 -96 -24 -165q-46 -94 -123 -156q-72 -57 -188 -69q-99 -9 -135 -4q-125 17 -209 100q-90 87 -130 173q-86 186 -52 371q2 13 7.5 56.5t12.5 66.5q5 15 14 48t18 57.5t22 45.5q20 33 45 59q23 25 36 38.5t35.5 31t44.5 27.5q66 28 119 29h61t62 1
q100 1 178 -67q71 -63 118 -147t45 -217q-2 -52 -32 -87q-35 -39 -72 -39q-53 1 -153 -29q-57 -17 -176 -13h-104q-9 0 -11 -2t0 -11q21 -75 66 -127q50 -58 80 -77q93 -55 178 -18q73 31 90 102q9 36 23 56q15 23 40 33t50 4q25 -5 43 -24.5t21 -46.5zM277 755q-3 -6 -1 -8
t9 -1q48 11 146 11q75 0 132 13q19 5 22.5 9.5t1.5 22.5q-3 14 -4 17q-12 30 -26 51q-1 1 -5.5 8t-5.5 8t-6 7.5t-6 7.5t-6.5 6t-7 4.5t-7.5 3.5t-8.5 2t-8.5 0q-47 -2 -103 -15q-18 -4 -34 -23q-5 -6 -14.5 -17t-13.5 -17q-38 -45 -54 -90z" />
    <glyph glyph-name="e" unicode="&#xe8;" horiz-adv-x="907" 
d="M887 429q10 -96 -24 -165q-46 -94 -123 -156q-72 -57 -188 -69q-99 -9 -135 -4q-125 17 -209 100q-90 87 -130 173q-86 186 -52 371q2 13 7.5 56.5t12.5 66.5q5 15 14 48t18 57.5t22 45.5q20 33 45 59q23 25 36 38.5t35.5 31t44.5 27.5q66 28 119 29h61t62 1
q100 1 178 -67q71 -63 118 -147t45 -217q-2 -52 -32 -87q-35 -39 -72 -39q-53 1 -153 -29q-57 -17 -176 -13h-104q-9 0 -11 -2t0 -11q21 -75 66 -127q50 -58 80 -77q93 -55 178 -18q73 31 90 102q9 36 23 56q15 23 40 33t50 4q25 -5 43 -24.5t21 -46.5zM277 755q-3 -6 -1 -8
t9 -1q48 11 146 11q75 0 132 13q19 5 22.5 9.5t1.5 22.5q-3 14 -4 17q-12 30 -26 51q-1 1 -5.5 8t-5.5 8t-6 7.5t-6 7.5t-6.5 6t-7 4.5t-7.5 3.5t-8.5 2t-8.5 0q-47 -2 -103 -15q-18 -4 -34 -23q-5 -6 -14.5 -17t-13.5 -17q-38 -45 -54 -90z" />
    <glyph glyph-name="f" unicode="f" horiz-adv-x="847" 
d="M829 959q6 -118 -16 -182q-23 -69 -102 -75q-29 -2 -58.5 15.5t-44.5 44.5q-15 28 -21 90q-4 42 -4 62q0 29 -13 49q-4 6 -14.5 28t-19.5 33q-12 14 -27 18q-92 26 -174 -48q-24 -22 -64 -74q-8 -10 -12 -35q-8 -53 4 -145q3 -24 10 -72t10 -72q1 -15 17 -14q9 1 92 4
t126 10q37 6 72.5 -12.5t52.5 -51.5q19 -36 14.5 -75t-30.5 -67q-24 -27 -75 -43q-60 -21 -206 -31q-39 -3 -42.5 -6.5t-1.5 -40.5q2 -43 7 -122t6 -105q5 -74 -14 -128q-17 -44 -59.5 -59.5t-78.5 9.5q-30 20 -48 74q-65 192 -73 437q-1 33 4 193q1 28 -6 111
q-10 124 -22 221q-12 102 57 197q52 71 80 96q127 117 259 127q1 0 7 3h58q47 -7 135 -49q65 -31 111 -96q40 -58 85 -144q17 -33 19 -75z" />
    <glyph glyph-name="g" unicode="g" horiz-adv-x="905" 
d="M886 384q13 -156 -83 -291q-12 -17 -41 -48q-66 -70 -101 -95q-95 -68 -188 -65h-45q-107 -4 -221 39q-20 7 -70 46q-84 67 -115 177q-17 62 21 102q27 29 64.5 29t65.5 -26q24 -22 32 -41q30 -61 111 -78q62 -14 152 -3q34 4 52 36q5 9 25 41t30.5 54t16.5 45l6.5 26
t7.5 26q3 9 0.5 11.5t-11.5 0.5q-42 -10 -106 -15q-87 -9 -193 30q-82 31 -148 90q-47 42 -75 122q-25 71 -26 142q-2 140 14 198q40 141 123 227q141 145 347 119q74 -9 122 -31q16 -8 24 -13q38 -24 57 -35q35 -21 56 -80q41 -115 55 -275q4 -48 10 -151t11 -158
q2 -24 10 -76t10 -80zM601 648q17 11 14 29q-3 19 -8.5 57.5t-8.5 57.5q-25 164 -19 240q1 10 -2.5 13t-12.5 2q-78 -5 -144 -37q-30 -15 -48 -48q-44 -83 -38 -169l3 -65q6 -44 45 -64q48 -25 142 -37q37 -4 77 21z" />
    <glyph glyph-name="h" unicode="h" horiz-adv-x="899" 
d="M876 182q6 -51 5 -105q-1 -8 -1.5 -27t-1.5 -35.5t-4 -31.5q-9 -51 -47 -83.5t-87 -31.5q-52 1 -88 35t-42 87q-5 39 -8.5 113t-4.5 94q-9 134 -21 184q-2 7 -3 15.5t-1.5 18.5t-1.5 15q-2 16 -5 24q-19 55 -90 25q-81 -35 -108 -128q-3 -11 -1 -40q1 -21 3 -44.5t5 -52
t4 -44.5q6 -64 -1 -139q-6 -65 -57 -98t-112 -9q-70 28 -84 108q-13 69 -19 232q-1 25 -3 77.5t-4 93t-6 77.5q-20 190 -34 284q-33 216 -41 358q-4 59 8 91q16 46 61 56.5t80 -24.5q31 -29 50 -86q37 -106 63 -280q9 -62 25 -188q0 -2 1 -5t1 -5q1 -13 13 -7q6 3 23.5 12.5
t27.5 13.5q117 48 245 -21q72 -38 117 -85q73 -76 101 -188q21 -84 43 -256z" />
    <glyph glyph-name="i" unicode="i" horiz-adv-x="468" 
d="M439 289q12 -106 12 -132q0 -80 -33 -126q-26 -36 -66 -43.5t-77 22.5q-23 19 -38 67q-40 133 -62 342q-4 39 -13 109t-12 94q-1 8 -5 33t-5 39q-8 75 55 112t124 -5q46 -32 49 -84q2 -41 29 -157q26 -111 42 -271zM274 1012q-12 -39 -48 -61.5t-77 -16.5q-52 9 -82 28
q-51 32 -51 102q3 70 68 105q68 38 131 -7q36 -26 53 -69.5t6 -80.5z" />
    <glyph glyph-name="i" unicode="&#xef;" horiz-adv-x="468" 
d="M439 289q12 -106 12 -132q0 -80 -33 -126q-26 -36 -66 -43.5t-77 22.5q-23 19 -38 67q-40 133 -62 342q-4 39 -13 109t-12 94q-1 8 -5 33t-5 39q-8 75 55 112t124 -5q46 -32 49 -84q2 -41 29 -157q26 -111 42 -271zM274 1012q-12 -39 -48 -61.5t-77 -16.5q-52 9 -82 28
q-51 32 -51 102q3 70 68 105q68 38 131 -7q36 -26 53 -69.5t6 -80.5z" />
    <glyph glyph-name="i" unicode="&#xee;" horiz-adv-x="468" 
d="M439 289q12 -106 12 -132q0 -80 -33 -126q-26 -36 -66 -43.5t-77 22.5q-23 19 -38 67q-40 133 -62 342q-4 39 -13 109t-12 94q-1 8 -5 33t-5 39q-8 75 55 112t124 -5q46 -32 49 -84q2 -41 29 -157q26 -111 42 -271zM274 1012q-12 -39 -48 -61.5t-77 -16.5q-52 9 -82 28
q-51 32 -51 102q3 70 68 105q68 38 131 -7q36 -26 53 -69.5t6 -80.5z" />
    <glyph glyph-name="i" unicode="&#xed;" horiz-adv-x="468" 
d="M439 289q12 -106 12 -132q0 -80 -33 -126q-26 -36 -66 -43.5t-77 22.5q-23 19 -38 67q-40 133 -62 342q-4 39 -13 109t-12 94q-1 8 -5 33t-5 39q-8 75 55 112t124 -5q46 -32 49 -84q2 -41 29 -157q26 -111 42 -271zM274 1012q-12 -39 -48 -61.5t-77 -16.5q-52 9 -82 28
q-51 32 -51 102q3 70 68 105q68 38 131 -7q36 -26 53 -69.5t6 -80.5z" />
    <glyph glyph-name="i" unicode="&#xec;" horiz-adv-x="468" 
d="M439 289q12 -106 12 -132q0 -80 -33 -126q-26 -36 -66 -43.5t-77 22.5q-23 19 -38 67q-40 133 -62 342q-4 39 -13 109t-12 94q-1 8 -5 33t-5 39q-8 75 55 112t124 -5q46 -32 49 -84q2 -41 29 -157q26 -111 42 -271zM274 1012q-12 -39 -48 -61.5t-77 -16.5q-52 9 -82 28
q-51 32 -51 102q3 70 68 105q68 38 131 -7q36 -26 53 -69.5t6 -80.5z" />
    <glyph glyph-name="j" unicode="j" horiz-adv-x="702" 
d="M663 561q28 -101 20 -267q-3 -99 -6 -127q-9 -79 -69 -173q-36 -56 -106 -117q-12 -10 -28.5 -19t-25 -12.5t-34 -12l-28.5 -9.5q-52 -18 -151 -2q-85 14 -128 36q-78 42 -89 112q-10 63 35 99t105 14q9 -3 25 -11q41 -20 98.5 -7.5t80.5 40.5q45 56 45 106
q-2 169 -15 230q-6 29 -24 80t-23 70q-7 23 -22.5 74.5t-26.5 90t-18 75.5q-13 71 17 121q27 43 79 54.5t96 -16.5q50 -32 85 -105q48 -104 108 -324zM311 1082q-57 1 -97 37.5t-39 94.5t38.5 101t96.5 44q56 1 92.5 -38t35.5 -99q0 -60 -36.5 -100.5t-90.5 -39.5z" />
    <glyph glyph-name="k" unicode="k" horiz-adv-x="1011" 
d="M690 645q-13 -18 -93 -97q-12 -12 -12.5 -16.5t10.5 -18.5q72 -92 115 -132q37 -34 102 -107t100 -106q32 -29 39 -70.5t-11 -76.5q-22 -45 -67.5 -62.5t-91.5 0.5q-37 14 -84 65q-44 48 -65 74q-6 7 -12 15.5t-13 19l-11 16.5q-12 18 -38.5 47.5t-36.5 44.5
q-31 43 -95 129q-8 10 -15 7q-11 -4 -9 -17q6 -40 10.5 -84.5t8.5 -101.5t6 -85q1 -8 4 -33t3 -33.5t-1 -33.5q-8 -50 -44 -84.5t-86 -35.5q-72 -1 -119 61q-32 43 -46 139q-5 36 -9 103t-6 88q-21 219 -25 246q-9 70 -25 135q-7 31 -7 55q2 75 -27 238q-20 116 -22 174
q-4 88 28 135q40 60 111 60q48 0 85 -31t51 -81q7 -25 27 -170q18 -128 30 -302q0 -10 4 -11q2 0 3 1t2.5 3.5t2.5 3.5q21 24 45 48.5t56.5 56t47.5 46.5q82 84 125 125q74 70 124 111q10 8 28 26q56 53 125 30q71 -24 80 -100q6 -48 -32 -102q-43 -59 -123 -141
q-73 -74 -147 -171z" />
    <glyph glyph-name="l" unicode="l" horiz-adv-x="397" 
d="M378 34q1 -7 1 -17q-4 -64 -28 -94q-27 -34 -73 -40t-81 19q-34 26 -50 82q-10 34 -21 137q-3 28 -11.5 91.5t-11.5 97.5q-6 86 -10 124q-3 33 -15 93t-15 80q-21 125 -24 203q-1 25 -7.5 71t-8.5 64q-12 135 2 227q9 61 56 96q42 31 94 18t78 -60q19 -35 27 -106
q4 -47 17.5 -132.5t17.5 -121.5q5 -42 14 -127t14 -128q8 -69 11 -196t7 -175q3 -34 9 -102.5t8 -103.5z" />
    <glyph glyph-name="m" unicode="m" horiz-adv-x="1032" 
d="M1014 163q5 -85 -54 -124q-69 -45 -136 0q-46 31 -52 86q-5 55 -22.5 175.5t-22.5 185.5q-11 127 -22 177q-2 11 -7 17q-25 -61 -45 -96q-28 -49 -43 -66q-29 -32 -70 -40t-81 11q-85 39 -132 86q-13 13 -41 45q-3 -4 -3 -22q6 -162 -7 -252q-11 -78 -31 -125
q-32 -75 -101 -69q-51 4 -78 52q-19 33 -25 94q-19 234 -19 446q0 64 -5 146q-1 14 1 48.5t0 48.5q-5 44 14 81q28 56 88.5 66.5t106.5 -33.5q13 -13 25.5 -26.5t25.5 -31t21.5 -29t23 -33t20.5 -30.5q2 -2 16.5 -23.5t18 -26.5t16.5 -22.5t20 -25.5t18 -20.5t22 -22.5
q5 -4 14 -11.5t13 -11.5q6 -5 9.5 -6t6.5 1t7 9q48 84 94 180q30 62 89 137q43 53 104.5 45.5t91.5 -66.5q16 -31 35 -116q34 -150 53 -417q2 -29 9.5 -93.5t9.5 -99.5q2 -33 12 -98.5t12 -99.5z" />
    <glyph glyph-name="n" unicode="n" horiz-adv-x="763" 
d="M745 382q5 -66 -16 -114q-24 -56 -78.5 -71t-108.5 16q-38 21 -98 91q-24 28 -70 91.5t-72 93.5q-1 1 -2.5 4.5t-3.5 5.5t-4 1q-4 -1 -7 -17q-15 -96 -36 -155q-19 -51 -54 -76q-50 -36 -109 -10.5t-68 87.5q-2 28 -1.5 40.5t3 39.5t3.5 40q3 45 8.5 96t13 113t11.5 95
q5 56 22 122q11 43 47 67.5t79 21.5t74 -35q43 -44 66 -69t55.5 -66t54.5 -79q6 -10 24 -35q-2 65 -15 128q-13 56 0 92q25 71 96 78q32 3 61 -13.5t46 -47.5q18 -33 35 -126q27 -143 44 -409z" />
    <glyph glyph-name="n" unicode="&#xf1;" horiz-adv-x="763" 
d="M745 382q5 -66 -16 -114q-24 -56 -78.5 -71t-108.5 16q-38 21 -98 91q-24 28 -70 91.5t-72 93.5q-1 1 -2.5 4.5t-3.5 5.5t-4 1q-4 -1 -7 -17q-15 -96 -36 -155q-19 -51 -54 -76q-50 -36 -109 -10.5t-68 87.5q-2 28 -1.5 40.5t3 39.5t3.5 40q3 45 8.5 96t13 113t11.5 95
q5 56 22 122q11 43 47 67.5t79 21.5t74 -35q43 -44 66 -69t55.5 -66t54.5 -79q6 -10 24 -35q-2 65 -15 128q-13 56 0 92q25 71 96 78q32 3 61 -13.5t46 -47.5q18 -33 35 -126q27 -143 44 -409z" />
    <glyph glyph-name="o" unicode="o" horiz-adv-x="862" 
d="M842 681q0 -9 3 -63q0 -164 -64 -278q-100 -181 -295 -201q-98 -9 -160 -1q-27 3 -55.5 15.5t-44 22.5t-47.5 32q-43 30 -71.5 73t-54.5 105q-52 122 -30 283q13 88 36 139q22 49 58 89q32 37 66 60q48 33 133 38q46 2 71 2q13 0 20 6q51 49 133 28q126 -33 208 -123
q91 -100 94 -227zM620 678q3 45 -24 79l-9 12q-31 36 -61.5 51t-70.5 3q-2 -1 -8 -1q-92 -15 -128 -27q-25 -8 -31 -18q-26 -41 -29 -75q-6 -96 -3 -145q3 -50 39 -89q70 -74 156 -71q44 -1 64 8t34 35q62 112 71 238z" />
    <glyph glyph-name="o" unicode="&#xf8;" horiz-adv-x="862" 
d="M842 681q0 -9 3 -63q0 -164 -64 -278q-100 -181 -295 -201q-98 -9 -160 -1q-27 3 -55.5 15.5t-44 22.5t-47.5 32q-43 30 -71.5 73t-54.5 105q-52 122 -30 283q13 88 36 139q22 49 58 89q32 37 66 60q48 33 133 38q46 2 71 2q13 0 20 6q51 49 133 28q126 -33 208 -123
q91 -100 94 -227zM620 678q3 45 -24 79l-9 12q-31 36 -61.5 51t-70.5 3q-2 -1 -8 -1q-92 -15 -128 -27q-25 -8 -31 -18q-26 -41 -29 -75q-6 -96 -3 -145q3 -50 39 -89q70 -74 156 -71q44 -1 64 8t34 35q62 112 71 238z" />
    <glyph glyph-name="o" unicode="&#xf6;" horiz-adv-x="862" 
d="M842 681q0 -9 3 -63q0 -164 -64 -278q-100 -181 -295 -201q-98 -9 -160 -1q-27 3 -55.5 15.5t-44 22.5t-47.5 32q-43 30 -71.5 73t-54.5 105q-52 122 -30 283q13 88 36 139q22 49 58 89q32 37 66 60q48 33 133 38q46 2 71 2q13 0 20 6q51 49 133 28q126 -33 208 -123
q91 -100 94 -227zM620 678q3 45 -24 79l-9 12q-31 36 -61.5 51t-70.5 3q-2 -1 -8 -1q-92 -15 -128 -27q-25 -8 -31 -18q-26 -41 -29 -75q-6 -96 -3 -145q3 -50 39 -89q70 -74 156 -71q44 -1 64 8t34 35q62 112 71 238z" />
    <glyph glyph-name="o" unicode="&#xf5;" horiz-adv-x="862" 
d="M842 681q0 -9 3 -63q0 -164 -64 -278q-100 -181 -295 -201q-98 -9 -160 -1q-27 3 -55.5 15.5t-44 22.5t-47.5 32q-43 30 -71.5 73t-54.5 105q-52 122 -30 283q13 88 36 139q22 49 58 89q32 37 66 60q48 33 133 38q46 2 71 2q13 0 20 6q51 49 133 28q126 -33 208 -123
q91 -100 94 -227zM620 678q3 45 -24 79l-9 12q-31 36 -61.5 51t-70.5 3q-2 -1 -8 -1q-92 -15 -128 -27q-25 -8 -31 -18q-26 -41 -29 -75q-6 -96 -3 -145q3 -50 39 -89q70 -74 156 -71q44 -1 64 8t34 35q62 112 71 238z" />
    <glyph glyph-name="o" unicode="&#xf4;" horiz-adv-x="862" 
d="M842 681q0 -9 3 -63q0 -164 -64 -278q-100 -181 -295 -201q-98 -9 -160 -1q-27 3 -55.5 15.5t-44 22.5t-47.5 32q-43 30 -71.5 73t-54.5 105q-52 122 -30 283q13 88 36 139q22 49 58 89q32 37 66 60q48 33 133 38q46 2 71 2q13 0 20 6q51 49 133 28q126 -33 208 -123
q91 -100 94 -227zM620 678q3 45 -24 79l-9 12q-31 36 -61.5 51t-70.5 3q-2 -1 -8 -1q-92 -15 -128 -27q-25 -8 -31 -18q-26 -41 -29 -75q-6 -96 -3 -145q3 -50 39 -89q70 -74 156 -71q44 -1 64 8t34 35q62 112 71 238z" />
    <glyph glyph-name="o" unicode="&#xf3;" horiz-adv-x="862" 
d="M842 681q0 -9 3 -63q0 -164 -64 -278q-100 -181 -295 -201q-98 -9 -160 -1q-27 3 -55.5 15.5t-44 22.5t-47.5 32q-43 30 -71.5 73t-54.5 105q-52 122 -30 283q13 88 36 139q22 49 58 89q32 37 66 60q48 33 133 38q46 2 71 2q13 0 20 6q51 49 133 28q126 -33 208 -123
q91 -100 94 -227zM620 678q3 45 -24 79l-9 12q-31 36 -61.5 51t-70.5 3q-2 -1 -8 -1q-92 -15 -128 -27q-25 -8 -31 -18q-26 -41 -29 -75q-6 -96 -3 -145q3 -50 39 -89q70 -74 156 -71q44 -1 64 8t34 35q62 112 71 238z" />
    <glyph glyph-name="o" unicode="&#xf2;" horiz-adv-x="862" 
d="M842 681q0 -9 3 -63q0 -164 -64 -278q-100 -181 -295 -201q-98 -9 -160 -1q-27 3 -55.5 15.5t-44 22.5t-47.5 32q-43 30 -71.5 73t-54.5 105q-52 122 -30 283q13 88 36 139q22 49 58 89q32 37 66 60q48 33 133 38q46 2 71 2q13 0 20 6q51 49 133 28q126 -33 208 -123
q91 -100 94 -227zM620 678q3 45 -24 79l-9 12q-31 36 -61.5 51t-70.5 3q-2 -1 -8 -1q-92 -15 -128 -27q-25 -8 -31 -18q-26 -41 -29 -75q-6 -96 -3 -145q3 -50 39 -89q70 -74 156 -71q44 -1 64 8t34 35q62 112 71 238z" />
    <glyph glyph-name="p" unicode="p" horiz-adv-x="681" 
d="M623 912q44 -92 42 -177q-3 -102 -56 -199q-41 -73 -76 -110q-74 -79 -182 -106q-2 0 -19.5 -5.5t-27.5 -6.5q-18 -2 -20 -24q-4 -70 -7 -105q-6 -74 -30 -112q-22 -34 -52 -43q-52 -16 -88 29q-42 51 -53 141q-11 99 -8 193q4 115 -9 315q-2 23 -6 65.5t-6.5 77.5
t-2.5 66l-3 24q-16 85 55 140q77 59 172 74q97 15 196 -44q125 -75 181 -193zM382 628q30 52 28 85q-8 94 -59 134q-43 32 -84 35q-11 1 -16 -3t-2 -14q2 -16 5.5 -45t4.5 -43l18 -192q2 -15 15 -14q23 2 36.5 5.5t28 15t21.5 30.5q0 1 2 3t2 3z" />
    <glyph glyph-name="q" unicode="q" horiz-adv-x="774" 
d="M755 89q7 -77 -34 -118q-26 -25 -62.5 -22t-58.5 31q-32 40 -40 101q-6 44 -25 121.5t-24 101.5q-7 34 -11 56q-3 18 -21 11q-85 -31 -169 -10q-139 34 -203 109q-29 34 -60 108q-68 166 16 359q38 88 66 128q43 60 79 89q42 34 106 44q16 3 31 9q36 16 73 16
q96 0 149 -50q24 -23 35 -75q26 -113 54 -277q9 -56 24.5 -159.5t21.5 -144.5q26 -162 28 -204q2 -43 12.5 -121t12.5 -103zM427 615q23 6 21 25q-3 21 -6 61.5t-5 57.5q-25 231 -29 272q-1 17 -18 11q-75 -28 -102 -100q-22 -62 -21 -121q0 -80 32 -148q36 -77 128 -58z
" />
    <glyph glyph-name="r" unicode="r" horiz-adv-x="602" 
d="M575 1016q26 -64 -16 -118q-32 -42 -83 -46q-5 0 -14 -1t-16 -1.5t-14 -0.5q-53 0 -106 -41q-11 -9 -32 -27.5t-27 -23.5q-8 -7 -7 -19q6 -62 25 -175.5t23 -140.5q12 -81 22 -187q5 -54 -5 -92q-14 -56 -59 -68q-28 -7 -53 6t-40 42q-27 51 -47 140q-47 203 -71 353
q-13 79 -37 237q-5 37 14 70t53 46q6 2 11.5 6t8 7t8.5 10t7 9q70 83 187 96q6 1 17.5 1.5t17.5 0.5q3 0 28.5 -2t39.5 -4q11 -2 31 -1.5t31 -0.5q75 -8 103 -75z" />
    <glyph glyph-name="s" unicode="s" horiz-adv-x="866" 
d="M843 431q2 -13 5 -53q-1 -178 -158 -278q-96 -60 -203 -59h-41.5t-46.5 0.5t-40 4t-43 10.5q-127 45 -192 109q-68 66 -91 120q-32 72 -2 131q27 53 87 57t93 -46q34 -52 95 -93q107 -71 222 -4l15 9q21 16 25.5 34t-4.5 51q-28 92 -118 111q-41 8 -134 58q-58 30 -78 46
q-79 63 -77 167q2 81 31 144q41 90 97 131q49 36 123 46q116 16 231 -36q68 -31 96 -99q9 -21 5 -43.5t-18 -36.5q-12 -12 -33 -14q-51 -4 -81 4q-33 8 -63 5q-18 -2 -60 -1.5t-59 -2.5q-25 -4 -39.5 -23t-12.5 -45q1 -12 12 -18q48 -26 104 -59q26 -15 85 -23
q81 -13 145 -74q100 -94 123 -230z" />
    <glyph glyph-name="s" unicode="&#xdf;" horiz-adv-x="866" 
d="M843 431q2 -13 5 -53q-1 -178 -158 -278q-96 -60 -203 -59h-41.5t-46.5 0.5t-40 4t-43 10.5q-127 45 -192 109q-68 66 -91 120q-32 72 -2 131q27 53 87 57t93 -46q34 -52 95 -93q107 -71 222 -4l15 9q21 16 25.5 34t-4.5 51q-28 92 -118 111q-41 8 -134 58q-58 30 -78 46
q-79 63 -77 167q2 81 31 144q41 90 97 131q49 36 123 46q116 16 231 -36q68 -31 96 -99q9 -21 5 -43.5t-18 -36.5q-12 -12 -33 -14q-51 -4 -81 4q-33 8 -63 5q-18 -2 -60 -1.5t-59 -2.5q-25 -4 -39.5 -23t-12.5 -45q1 -12 12 -18q48 -26 104 -59q26 -15 85 -23
q81 -13 145 -74q100 -94 123 -230z" />
    <glyph glyph-name="t" unicode="t" horiz-adv-x="993" 
d="M973 427l3 -20v-15q-9 -62 -9 -65q-21 -109 -84 -180q-87 -98 -210 -92q-69 3 -128 13q-57 10 -106 51q-76 61 -109 119q-42 73 -72 187q-21 82 -31 191q-2 16 -4.5 18.5t-18.5 1.5q-51 -5 -97 4q-36 7 -60 28t-29 51q-6 30 9.5 60t45.5 48q38 22 135 52q19 6 22 28
q10 92 30 140q27 63 95 69q28 3 57.5 -17t40.5 -50q8 -20 12 -63q0 -6 1 -16.5t1.5 -19.5t0.5 -17q0 -17 18 -14q11 2 30 5.5t35 6t31 3.5q43 2 77.5 -17.5t51.5 -61.5q15 -37 3 -77t-43 -64q-33 -25 -112 -41q-34 -6 -51 -8q-15 -2 -12 -16q13 -62 20 -91.5t25 -78
t43 -83.5q28 -41 73 -38q14 1 21 12q5 11 14 43q16 63 46 101q32 38 80.5 45t88.5 -21q59 -40 66 -111z" />
    <glyph glyph-name="u" unicode="u" horiz-adv-x="763" 
d="M735 533q10 -86 11 -110q-2 -78 -18 -112q-18 -39 -64 -82q-61 -56 -127 -81q-71 -28 -165 -11q-77 14 -132 40q-47 22 -102 82q-82 91 -114 235q-7 32 -7 55q-3 181 20 332q9 60 30 100q17 32 46.5 47.5t64.5 10.5q32 -5 56 -29t29 -58q4 -25 6 -103q6 -178 16 -267
q10 -88 69 -133q46 -35 102 -26q13 2 17 7.5t2 19.5q-4 38 -7.5 107t-5.5 91q-6 86 -6 217q0 7 -4 39t0 40q16 70 78 90q68 22 119 -26q49 -47 51 -129q1 -53 6 -108t15.5 -132t13.5 -106z" />
    <glyph glyph-name="u" unicode="&#xfc;" horiz-adv-x="763" 
d="M735 533q10 -86 11 -110q-2 -78 -18 -112q-18 -39 -64 -82q-61 -56 -127 -81q-71 -28 -165 -11q-77 14 -132 40q-47 22 -102 82q-82 91 -114 235q-7 32 -7 55q-3 181 20 332q9 60 30 100q17 32 46.5 47.5t64.5 10.5q32 -5 56 -29t29 -58q4 -25 6 -103q6 -178 16 -267
q10 -88 69 -133q46 -35 102 -26q13 2 17 7.5t2 19.5q-4 38 -7.5 107t-5.5 91q-6 86 -6 217q0 7 -4 39t0 40q16 70 78 90q68 22 119 -26q49 -47 51 -129q1 -53 6 -108t15.5 -132t13.5 -106z" />
    <glyph glyph-name="u" unicode="&#xfb;" horiz-adv-x="763" 
d="M735 533q10 -86 11 -110q-2 -78 -18 -112q-18 -39 -64 -82q-61 -56 -127 -81q-71 -28 -165 -11q-77 14 -132 40q-47 22 -102 82q-82 91 -114 235q-7 32 -7 55q-3 181 20 332q9 60 30 100q17 32 46.5 47.5t64.5 10.5q32 -5 56 -29t29 -58q4 -25 6 -103q6 -178 16 -267
q10 -88 69 -133q46 -35 102 -26q13 2 17 7.5t2 19.5q-4 38 -7.5 107t-5.5 91q-6 86 -6 217q0 7 -4 39t0 40q16 70 78 90q68 22 119 -26q49 -47 51 -129q1 -53 6 -108t15.5 -132t13.5 -106z" />
    <glyph glyph-name="u" unicode="&#xfa;" horiz-adv-x="763" 
d="M735 533q10 -86 11 -110q-2 -78 -18 -112q-18 -39 -64 -82q-61 -56 -127 -81q-71 -28 -165 -11q-77 14 -132 40q-47 22 -102 82q-82 91 -114 235q-7 32 -7 55q-3 181 20 332q9 60 30 100q17 32 46.5 47.5t64.5 10.5q32 -5 56 -29t29 -58q4 -25 6 -103q6 -178 16 -267
q10 -88 69 -133q46 -35 102 -26q13 2 17 7.5t2 19.5q-4 38 -7.5 107t-5.5 91q-6 86 -6 217q0 7 -4 39t0 40q16 70 78 90q68 22 119 -26q49 -47 51 -129q1 -53 6 -108t15.5 -132t13.5 -106z" />
    <glyph glyph-name="u" unicode="&#xf9;" horiz-adv-x="763" 
d="M735 533q10 -86 11 -110q-2 -78 -18 -112q-18 -39 -64 -82q-61 -56 -127 -81q-71 -28 -165 -11q-77 14 -132 40q-47 22 -102 82q-82 91 -114 235q-7 32 -7 55q-3 181 20 332q9 60 30 100q17 32 46.5 47.5t64.5 10.5q32 -5 56 -29t29 -58q4 -25 6 -103q6 -178 16 -267
q10 -88 69 -133q46 -35 102 -26q13 2 17 7.5t2 19.5q-4 38 -7.5 107t-5.5 91q-6 86 -6 217q0 7 -4 39t0 40q16 70 78 90q68 22 119 -26q49 -47 51 -129q1 -53 6 -108t15.5 -132t13.5 -106z" />
    <glyph glyph-name="v" unicode="v" horiz-adv-x="718" 
d="M701 1005q3 -34 -7 -165q-1 -20 -4.5 -83t-6.5 -97q-21 -251 -54 -419q-16 -79 -40 -114q-37 -53 -99.5 -61t-109.5 34q-80 72 -128 161q-12 21 -36.5 60.5t-27.5 45.5q-50 84 -80 189q-45 156 -87 356q-10 50 6 89q17 40 58.5 45t67.5 -23q23 -23 56 -83
q136 -250 179 -338q20 -42 24 -48q1 2 16 79q13 64 35 244q16 121 17 134q3 41 36 69t76 27t74.5 -30.5t34.5 -71.5z" />
    <glyph glyph-name="w" unicode="w" horiz-adv-x="1177" 
d="M1149 1017q0 -60 6.5 -214.5t4.5 -239.5q-4 -175 -31 -288q-15 -64 -33 -101q-28 -58 -82.5 -76t-113.5 9q-51 23 -122 85q-67 60 -137 153q-1 1 -3.5 4t-3.5 5q-7 -6 -9 -17q-25 -97 -54 -157q-48 -101 -105 -138q-86 -54 -179 0q-57 32 -103 112q-79 134 -119 360
q-34 201 -42 283q-12 122 2 179q15 58 52 76q27 13 55 5.5t46 -31.5q26 -36 51 -107q12 -34 24 -76t18.5 -68.5t18.5 -80t16 -71.5q26 -114 57 -198q0 -1 1 -3t1.5 -3.5t2 -2t3.5 -0.5q4 0 6 9q13 33 57 187q20 73 48 148q21 58 83.5 74t112.5 -22q28 -22 57 -78
q81 -149 119 -207q3 -5 11 -15t11 -15q4 -7 8 -6t4 10q9 99 10 124q1 31 6 145t5 176q0 28 -8 58q-19 74 37 122q62 55 139 15q60 -32 71 -105q1 -6 1 -19z" />
    <glyph glyph-name="x" unicode="x" horiz-adv-x="858" 
d="M813 411q31 -41 27.5 -95.5t-38.5 -90.5q-37 -39 -90.5 -45t-98.5 23q-45 30 -89 79q-38 43 -97 92q-10 8 -16 -3q-48 -82 -85 -125q-27 -31 -43.5 -48.5t-44 -39.5t-55.5 -35q-54 -25 -102.5 3t-53.5 87q-5 66 46 129q25 30 49 66.5t53 83.5t44 70q8 12 -3 23
q-118 120 -168 195q-39 59 -30 125q8 61 59 92t110 13q50 -16 101 -60q18 -16 37.5 -35t43 -42.5l36.5 -36.5q7 -7 10.5 -6.5t9.5 8.5q13 17 92 138q37 55 76 74q53 26 101 -5.5t48 -92.5q1 -26 -19 -62q-11 -19 -38 -75q-26 -54 -86 -146q-12 -17 4 -31q83 -79 111 -109
q49 -52 99 -118z" />
    <glyph glyph-name="y" unicode="y" horiz-adv-x="915" 
d="M898 448q1 0 0 -22v-22q-2 -92 -5 -110q-9 -64 -54 -137q-50 -79 -141 -149q-39 -30 -104 -42q-86 -16 -114 -18q-87 -8 -146 50q-52 51 -42.5 120t73.5 103q33 18 113 26q40 3 41 3q8 1 16.5 5.5t12.5 7.5t13 13t10 11q32 32 29 89q-5 96 -19 182q-2 18 -15 10
q-53 -29 -119.5 -33.5t-123.5 7.5q-87 12 -143 57q-50 39 -82 98q-63 111 -78 221q-17 125 48 240q24 40 54 52q42 17 77 -5.5t42 -70.5q2 -17 4.5 -51.5t5.5 -51.5q13 -98 80 -186q14 -18 27 -22q61 -18 105 -13q19 3 57 24q7 4 3 18q-21 79 -35 136q-19 73 -11 130
q6 45 33 74t72 32q38 3 77 -29q31 -26 68 -90q54 -91 86 -195.5t56 -235.5q26 -150 29 -226z" />
    <glyph glyph-name="y" unicode="&#xff;" horiz-adv-x="915" 
d="M898 448q1 0 0 -22v-22q-2 -92 -5 -110q-9 -64 -54 -137q-50 -79 -141 -149q-39 -30 -104 -42q-86 -16 -114 -18q-87 -8 -146 50q-52 51 -42.5 120t73.5 103q33 18 113 26q40 3 41 3q8 1 16.5 5.5t12.5 7.5t13 13t10 11q32 32 29 89q-5 96 -19 182q-2 18 -15 10
q-53 -29 -119.5 -33.5t-123.5 7.5q-87 12 -143 57q-50 39 -82 98q-63 111 -78 221q-17 125 48 240q24 40 54 52q42 17 77 -5.5t42 -70.5q2 -17 4.5 -51.5t5.5 -51.5q13 -98 80 -186q14 -18 27 -22q61 -18 105 -13q19 3 57 24q7 4 3 18q-21 79 -35 136q-19 73 -11 130
q6 45 33 74t72 32q38 3 77 -29q31 -26 68 -90q54 -91 86 -195.5t56 -235.5q26 -150 29 -226z" />
    <glyph glyph-name="y" unicode="&#xfd;" horiz-adv-x="915" 
d="M898 448q1 0 0 -22v-22q-2 -92 -5 -110q-9 -64 -54 -137q-50 -79 -141 -149q-39 -30 -104 -42q-86 -16 -114 -18q-87 -8 -146 50q-52 51 -42.5 120t73.5 103q33 18 113 26q40 3 41 3q8 1 16.5 5.5t12.5 7.5t13 13t10 11q32 32 29 89q-5 96 -19 182q-2 18 -15 10
q-53 -29 -119.5 -33.5t-123.5 7.5q-87 12 -143 57q-50 39 -82 98q-63 111 -78 221q-17 125 48 240q24 40 54 52q42 17 77 -5.5t42 -70.5q2 -17 4.5 -51.5t5.5 -51.5q13 -98 80 -186q14 -18 27 -22q61 -18 105 -13q19 3 57 24q7 4 3 18q-21 79 -35 136q-19 73 -11 130
q6 45 33 74t72 32q38 3 77 -29q31 -26 68 -90q54 -91 86 -195.5t56 -235.5q26 -150 29 -226z" />
    <glyph glyph-name="z" unicode="z" horiz-adv-x="989" 
d="M897 441q58 -31 71.5 -95.5t-26.5 -116.5q-38 -50 -127 -59q-52 -5 -175.5 -18t-190.5 -18q-38 -3 -192 -27q-2 0 -6 -2h-64q-4 1 -11 3t-11 3q-50 15 -80 54t-29 90q1 76 47 149q34 55 170 267q12 18 62 85q9 11 8 15q-61 0 -91 -1q-54 -2 -108 0q-53 2 -89.5 36.5
t-38.5 86.5q-3 62 48 105q45 39 144 52q124 16 304 16h40q41 1 41 0q84 -5 127 -72t12 -149q-8 -22 -21 -47.5t-20 -38t-27.5 -47t-23.5 -39.5q-23 -40 -74 -108.5t-71 -100.5l-3 -3t-2 -3q-8 -14 8 -14q135 1 281 14q76 6 118 -17z" />
    <glyph glyph-name="braceleft" unicode="{" horiz-adv-x="626" 
d="M131 308h-1v76q0 10 -4 14.5t-13 3.5h-9q-58 3 -80 52q-22 52 18 97q16 18 54 50q17 14 14 37q-6 38 -9 77.5t-3 85t1 75t3.5 85t3.5 77.5q3 84 53 147q35 46 92 62q7 2 98 35q21 8 41 8q60 -2 83 -52q12 -25 7.5 -52t-24.5 -47q-31 -32 -84 -39q-46 -6 -56.5 -18
t-9.5 -57q3 -102 11 -306q6 -116 -22 -177q-5 -12 1 -20q29 -38 35 -118q1 -21 4 -59.5t5 -70t3 -59.5q3 -55 19 -158q10 -65 76 -56q42 5 75 -3q37 -10 61 -34q33 -32 34 -75.5t-30 -77.5q-43 -47 -119 -44q-66 3 -110 33q-52 33 -59 39q-82 61 -113 155q-30 90 -41 244
q-1 11 -2.5 35t-2.5 35z" />
    <glyph glyph-name="braceright" unicode="}" horiz-adv-x="583" 
d="M410 1005q9 -60 9 -136q-1 -37 4.5 -110.5t3.5 -110.5q-1 -17 17 -25q23 -10 69 -32q45 -21 52 -65t-30 -78q-14 -13 -34 -26q-17 -12 -14 -31q0 -2 3.5 -33t5.5 -46q18 -126 4 -269q-8 -84 -62.5 -149.5t-131.5 -85.5q-58 -15 -118 -12q-42 2 -73 28q-35 30 -33.5 73.5
t38.5 71.5q24 19 73 28q4 1 18 3.5t21 4.5q27 8 42 28.5t14 48.5q-7 187 -16 253q-11 73 13 136q6 14 -4 25q-17 22 -25 68q-18 111 -24 335q0 8 5 70q2 30 -14.5 46.5t-45.5 14.5q-53 -4 -79 2q-66 16 -79 76q-13 61 40 102q2 1 5 3.5t5 3.5q67 41 155.5 17t125.5 -93
q20 -38 31 -56q23 -39 29 -80z" />
    <glyph glyph-name="asciitilde" unicode="~" horiz-adv-x="743" 
d="M676 558q-109 -64 -172 -60q-67 -1 -133 24q-41 16 -52 24t-22.5 13.5t-28 8t-22.5 3t-28.5 1.5t-24.5 1q-14 1 -31 -12q-33 -26 -44 -34q-37 -27 -71 -7q-35 22 -30 69q1 15 10 32q36 65 93 103q22 15 41 19q133 21 209 -1q68 -20 102 -32q51 -18 86 10q27 21 68 23
q56 2 85 -42t6 -95q-15 -33 -41 -48z" />
    <glyph glyph-name="nonbreakingspace" unicode="&#xa0;" horiz-adv-x="612" 
 />
    <glyph glyph-name="softhyphen" unicode="&#xad;" 
 />
  </font>
</defs>
</svg>
