<svg width="20" height="20" viewBox="0 0 20 20" fill="none" xmlns="http://www.w3.org/2000/svg">
	<circle cx="10" cy="10" r="10" fill="#272727"/>
	<rect x="3.33203" y="3.3335" width="13.3333" height="13.3333" fill="white" fill-opacity="0.01"/>
	<path fill-rule="evenodd" clip-rule="evenodd" d="M14.3682 7.04765C14.5695 6.87841 14.5955 6.57802 14.4263 6.37672C13.3122 5.05156 11.705 4.29248 9.99715 4.29248C6.93122 4.29248 4.29297 6.75953 4.29297 10.0095C4.29297 13.2442 6.95827 15.7266 9.99715 15.7266C11.6353 15.7266 13.1129 15.0767 14.4134 13.6524C14.5908 13.4582 14.5771 13.157 14.3829 12.9796C14.1887 12.8023 13.8875 12.816 13.7101 13.0102C12.5903 14.2366 11.368 14.7742 9.99715 14.7742C7.46972 14.7742 5.24535 12.7025 5.24535 10.0095C5.24535 7.30033 7.44346 5.24486 9.99715 5.24486C11.4219 5.24486 12.763 5.87826 13.6973 6.98959C13.8665 7.19089 14.1669 7.21689 14.3682 7.04765ZM11.2583 9.18866C11.4227 8.9834 11.3896 8.68371 11.1843 8.5193C10.8371 8.24122 10.4875 8.09673 9.99755 8.09673C8.90366 8.09673 8.08962 8.97572 8.08962 10.0002C8.08962 11.0247 8.90365 11.9035 9.99755 11.9035C10.3254 11.9035 10.6164 11.8189 10.8782 11.6764C10.9893 11.616 11.0815 11.5528 11.1551 11.4979C11.3723 11.3496 11.4282 11.0533 11.2798 10.8361C11.1315 10.6189 10.8352 10.5631 10.618 10.7114C10.5294 10.7756 10.4841 10.8066 10.4228 10.84C10.2926 10.9108 10.1541 10.9511 9.99755 10.9511C9.44662 10.9511 9.042 10.5143 9.042 10.0002C9.042 9.48607 9.44667 9.04911 9.99755 9.04911C10.2503 9.04911 10.399 9.11056 10.5889 9.26264C10.7942 9.42705 11.0939 9.39393 11.2583 9.18866ZM6.66998 10.2523C6.4146 10.3151 6.2585 10.573 6.32132 10.8284C6.6696 12.2443 7.69235 13.2457 8.91447 13.6019C9.87036 13.8806 10.7955 13.7952 11.6384 13.3801C11.8743 13.2639 11.9714 12.9784 11.8552 12.7425C11.739 12.5065 11.4536 12.4095 11.2176 12.5257C10.5868 12.8364 9.90667 12.8991 9.18101 12.6876C8.27472 12.4234 7.51034 11.675 7.24613 10.6009C7.18331 10.3455 6.92536 10.1894 6.66998 10.2523ZM12.155 11.7949C12.328 11.5967 12.6288 11.5763 12.8269 11.7493C13.025 11.9222 13.0455 12.223 12.8725 12.4212L12.7847 12.5218C12.6117 12.72 12.3109 12.7404 12.1128 12.5675C11.9146 12.3945 11.8942 12.0937 12.0671 11.8956L12.155 11.7949ZM6.32132 9.17375C6.2585 9.42913 6.4146 9.68708 6.66998 9.7499C6.92536 9.81272 7.18331 9.65662 7.24613 9.40124C7.51034 8.32717 8.27472 7.57876 9.18101 7.31457C9.90667 7.10303 10.5868 7.16581 11.2176 7.4765C11.4536 7.5927 11.739 7.49563 11.8552 7.2597C11.9714 7.02377 11.8743 6.73831 11.6384 6.62212C10.7955 6.207 9.87036 6.1216 8.91447 6.40025C7.69235 6.75651 6.6696 7.75789 6.32132 9.17375ZM12.8269 8.35185C12.6288 8.52479 12.328 8.50437 12.155 8.30623L12.0671 8.20555C11.8942 8.00742 11.9146 7.7066 12.1128 7.53367C12.3109 7.36073 12.6117 7.38115 12.7847 7.57929L12.8725 7.67997C13.0455 7.8781 13.025 8.17892 12.8269 8.35185Z" fill="#282F40"/>
	<mask id="mask0_8509_71186" style="mask-type:alpha" maskUnits="userSpaceOnUse" x="4" y="4" width="11" height="12">
		<path fill-rule="evenodd" clip-rule="evenodd" d="M14.3682 7.04765C14.5695 6.87841 14.5955 6.57802 14.4263 6.37672C13.3122 5.05156 11.705 4.29248 9.99715 4.29248C6.93122 4.29248 4.29297 6.75953 4.29297 10.0095C4.29297 13.2442 6.95827 15.7266 9.99715 15.7266C11.6353 15.7266 13.1129 15.0767 14.4134 13.6524C14.5908 13.4582 14.5771 13.157 14.3829 12.9796C14.1887 12.8023 13.8875 12.816 13.7101 13.0102C12.5903 14.2366 11.368 14.7742 9.99715 14.7742C7.46972 14.7742 5.24535 12.7025 5.24535 10.0095C5.24535 7.30033 7.44346 5.24486 9.99715 5.24486C11.4219 5.24486 12.763 5.87826 13.6973 6.98959C13.8665 7.19089 14.1669 7.21689 14.3682 7.04765ZM11.2583 9.18866C11.4227 8.9834 11.3896 8.68371 11.1843 8.5193C10.8371 8.24122 10.4875 8.09673 9.99755 8.09673C8.90366 8.09673 8.08962 8.97572 8.08962 10.0002C8.08962 11.0247 8.90365 11.9035 9.99755 11.9035C10.3254 11.9035 10.6164 11.8189 10.8782 11.6764C10.9893 11.616 11.0815 11.5528 11.1551 11.4979C11.3723 11.3496 11.4282 11.0533 11.2798 10.8361C11.1315 10.6189 10.8352 10.5631 10.618 10.7114C10.5294 10.7756 10.4841 10.8066 10.4228 10.84C10.2926 10.9108 10.1541 10.9511 9.99755 10.9511C9.44662 10.9511 9.042 10.5143 9.042 10.0002C9.042 9.48607 9.44667 9.04911 9.99755 9.04911C10.2503 9.04911 10.399 9.11056 10.5889 9.26264C10.7942 9.42705 11.0939 9.39393 11.2583 9.18866ZM6.66998 10.2523C6.4146 10.3151 6.2585 10.573 6.32132 10.8284C6.6696 12.2443 7.69235 13.2457 8.91447 13.6019C9.87036 13.8806 10.7955 13.7952 11.6384 13.3801C11.8743 13.2639 11.9714 12.9784 11.8552 12.7425C11.739 12.5065 11.4536 12.4095 11.2176 12.5257C10.5868 12.8364 9.90667 12.8991 9.18101 12.6876C8.27472 12.4234 7.51034 11.675 7.24613 10.6009C7.18331 10.3455 6.92536 10.1894 6.66998 10.2523ZM12.155 11.7949C12.328 11.5967 12.6288 11.5763 12.8269 11.7493C13.025 11.9222 13.0455 12.223 12.8725 12.4212L12.7847 12.5218C12.6117 12.72 12.3109 12.7404 12.1128 12.5675C11.9146 12.3945 11.8942 12.0937 12.0671 11.8956L12.155 11.7949ZM6.32132 9.17375C6.2585 9.42913 6.4146 9.68708 6.66998 9.7499C6.92536 9.81272 7.18331 9.65662 7.24613 9.40124C7.51034 8.32717 8.27472 7.57876 9.18101 7.31457C9.90667 7.10303 10.5868 7.16581 11.2176 7.4765C11.4536 7.5927 11.739 7.49563 11.8552 7.2597C11.9714 7.02377 11.8743 6.73831 11.6384 6.62212C10.7955 6.207 9.87036 6.1216 8.91447 6.40025C7.69235 6.75651 6.6696 7.75789 6.32132 9.17375ZM12.8269 8.35185C12.6288 8.52479 12.328 8.50437 12.155 8.30623L12.0671 8.20555C11.8942 8.00742 11.9146 7.7066 12.1128 7.53367C12.3109 7.36073 12.6117 7.38115 12.7847 7.57929L12.8725 7.67997C13.0455 7.8781 13.025 8.17892 12.8269 8.35185Z" fill="white"/>
	</mask>
	<g mask="url(#mask0_8509_71186)">
		<rect x="3.33203" y="3.3335" width="13.3333" height="13.3333" fill="white"/>
	</g>
</svg>
