<svg width="20" height="20" viewBox="0 0 20 20" fill="none" xmlns="http://www.w3.org/2000/svg">
	<circle cx="10" cy="10" r="10" fill="#272727"/>
	<path d="M8.125 16.9529C8.125 17.1873 7.9375 17.3201 7.71875 17.2498C4.6875 16.281 2.5 13.4529 2.5 10.1013C2.5 6.75759 4.6875 3.92165 7.71875 2.9529C7.94531 2.88259 8.125 3.0154 8.125 3.24978V3.83571C8.125 3.99196 8.00781 4.17165 7.85938 4.22634C5.46094 5.10915 3.75 7.41384 3.75 10.1013C3.75 12.7966 5.46094 15.0935 7.85938 15.9685C8.00781 16.0232 8.125 16.2029 8.125 16.3591V16.9529Z" fill="white"/>
	<path d="M10.6255 14.7891C10.6255 14.9609 10.4848 15.1016 10.313 15.1016H9.68796C9.51609 15.1016 9.37546 14.9609 9.37546 14.7891V13.8047C8.00827 13.6172 7.34421 12.8594 7.16452 11.8125C7.13327 11.6328 7.2739 11.4766 7.45359 11.4766H8.16452C8.31296 11.4766 8.43796 11.5859 8.46921 11.7266C8.60202 12.3438 8.9614 12.8203 10.0551 12.8203C10.8598 12.8203 11.438 12.3672 11.438 11.6953C11.438 11.0234 11.102 10.7656 9.91452 10.5703C8.16452 10.3359 7.3364 9.80469 7.3364 8.4375C7.3364 7.38281 8.14109 6.55469 9.37546 6.38281V5.41406C9.37546 5.24219 9.51609 5.10156 9.68796 5.10156H10.313C10.4848 5.10156 10.6255 5.24219 10.6255 5.41406V6.40625C11.6333 6.58594 12.2739 7.15625 12.4848 8.10938C12.5239 8.28906 12.3833 8.45313 12.1958 8.45313H11.5395C11.3989 8.45313 11.2817 8.35938 11.2426 8.22656C11.063 7.625 10.6333 7.35938 9.88327 7.35938C9.05515 7.35938 8.62546 7.75781 8.62546 8.32031C8.62546 8.91406 8.86765 9.21094 10.1411 9.39063C11.8598 9.625 12.7505 10.1172 12.7505 11.5781C12.7505 12.6875 11.9223 13.5859 10.6333 13.7891V14.7891H10.6255Z" fill="white"/>
	<path d="M12.2813 17.2498C12.0547 17.3201 11.875 17.1873 11.875 16.9529V16.367C11.875 16.1951 11.9766 16.031 12.1406 15.9763C14.5313 15.1013 16.25 12.7966 16.25 10.1092C16.25 7.41384 14.5391 5.11696 12.1406 4.24196C11.9922 4.18728 11.875 4.00759 11.875 3.85134V3.2654C11.875 3.03103 12.0625 2.89821 12.2813 2.96853C15.3125 3.92165 17.5 6.75759 17.5 10.1013C17.5 13.4529 15.3125 16.281 12.2813 17.2498Z" fill="white"/>
</svg>
