<svg width="20" height="20" viewBox="0 0 20 20" fill="none" xmlns="http://www.w3.org/2000/svg">
	<circle cx="10" cy="10" r="10" fill="black"/>
	<path d="M13.4279 5.21973H6.5V7.11525H9.12767V9.90132H10.8002V7.11525H13.4279V5.21973Z" fill="white"/>
	<path fill-rule="evenodd" clip-rule="evenodd" d="M9.97811 8.34961C12.4189 8.34961 14.3976 8.85235 14.3976 9.47258C14.3976 10.0216 12.8472 10.4785 10.7984 10.5762V14.5742H9.12605V10.5747C7.09291 10.4738 5.55859 10.0188 5.55859 9.47258C5.55859 8.85235 7.53738 8.34961 9.97811 8.34961ZM6.04213 9.32739C6.04213 9.8084 7.80442 10.1983 9.97811 10.1983C12.1518 10.1983 13.914 9.8084 13.914 9.32739C13.914 8.84646 12.1518 8.45649 9.97811 8.45649C7.80435 8.45649 6.04213 8.84646 6.04213 9.32739Z" fill="white"/>
</svg>
