<svg width="18" height="16" viewBox="0 0 18 16" fill="none" xmlns="http://www.w3.org/2000/svg">
	<path fill-rule="evenodd" clip-rule="evenodd" d="M11.0574 0.928942L17.4214 7.2929C17.8119 7.68343 17.8119 8.31659 17.4214 8.70712L11.0574 15.0711C10.6669 15.4616 10.0337 15.4616 9.64322 15.0711C9.25269 14.6806 9.25269 14.0474 9.64322 13.6569L14.3001 9.00001L0.999999 9.00001C0.447715 9.00001 -4.94329e-07 8.55229 -4.59842e-07 8.00001C-4.25354e-07 7.44772 0.447715 7.00001 1 7.00001L14.3001 7.00001L9.64322 2.34316C9.25269 1.95263 9.25269 1.31947 9.64322 0.928942C10.0337 0.538417 10.6669 0.538418 11.0574 0.928942Z" fill="#191B20"/>
</svg>
