<svg width="20" height="14" viewBox="0 0 20 14" fill="none" xmlns="http://www.w3.org/2000/svg">
	<path fill-rule="evenodd" clip-rule="evenodd" d="M12.755 0.900024H7.2448C3.74442 0.900024 0.899902 3.62735 0.899902 7.00002C0.899902 10.3727 3.74442 13.1 7.2448 13.1H12.755C16.2554 13.1 19.0999 10.3727 19.0999 7.00002C19.0999 3.62735 16.2554 0.900024 12.755 0.900024ZM2.75296 7.00002C2.75296 4.62244 4.76022 2.68826 7.2448 2.68826H12.755C15.2396 2.68826 17.2468 4.62244 17.2468 7.00002C17.2468 9.37761 15.2396 11.3118 12.755 11.3118H7.2448C4.76022 11.3118 2.75296 9.37761 2.75296 7.00002ZM14.3578 12.8006C13.8463 12.9307 13.3091 13 12.7551 13H7.2449C3.79594 13 1 10.3137 1 7C1 4.28176 2.88137 1.9857 5.46128 1.24828C2.88132 1.98567 0.999902 4.28175 0.999902 7.00002C0.999902 10.3137 3.79584 13 7.2448 13H12.755C13.3091 13 13.8463 12.9307 14.3578 12.8006ZM6.0904 2.72885C6.45925 2.63708 6.84609 2.58826 7.2448 2.58826H12.755C15.291 2.58826 17.3468 4.56347 17.3468 7.00002C17.3468 9.04395 15.9002 10.7632 13.937 11.2643C15.9002 10.7633 17.3469 9.04396 17.3469 7C17.3469 4.56345 15.2911 2.58824 12.7551 2.58824H7.2449C6.84615 2.58824 6.45928 2.63707 6.0904 2.72885Z" fill="black"/>
</svg>
