<svg width="18" height="18" viewBox="0 0 18 18" fill="none" xmlns="http://www.w3.org/2000/svg">
	<path d="M15.9502 6.76661L4.28354 0.933277C3.82312 0.704118 3.30322 0.622536 2.79473 0.699654C2.28625 0.776772 1.81392 1.00884 1.44215 1.36421C1.07038 1.71958 0.81725 2.18096 0.717283 2.68545C0.617317 3.18994 0.675374 3.71299 0.883539 4.18328L2.88354 8.65828C2.92892 8.76647 2.95229 8.88262 2.95229 8.99994C2.95229 9.11727 2.92892 9.23342 2.88354 9.34161L0.883539 13.8166C0.714123 14.1972 0.642503 14.6141 0.675187 15.0294C0.707872 15.4447 0.843825 15.8453 1.07069 16.1947C1.29756 16.5441 1.60814 16.8313 1.97423 17.0301C2.34031 17.229 2.75027 17.3332 3.16687 17.3333C3.55707 17.3294 3.94145 17.2383 4.29187 17.0666L15.9585 11.2333C16.3724 11.0251 16.7202 10.706 16.9633 10.3117C17.2063 9.91732 17.3351 9.46319 17.3351 8.99994C17.3351 8.5367 17.2063 8.08257 16.9633 7.68821C16.7202 7.29386 16.3724 6.97479 15.9585 6.76661H15.9502ZM15.2085 9.74161L3.54187 15.5749C3.38867 15.6485 3.21665 15.6735 3.04886 15.6465C2.88107 15.6195 2.72555 15.5419 2.60313 15.424C2.48072 15.3061 2.39727 15.1536 2.36398 14.987C2.33069 14.8203 2.34915 14.6475 2.41687 14.4916L4.40854 10.0166C4.43432 9.95685 4.45658 9.89564 4.47521 9.83328H10.2169C10.4379 9.83328 10.6498 9.74548 10.8061 9.5892C10.9624 9.43292 11.0502 9.22096 11.0502 8.99994C11.0502 8.77893 10.9624 8.56697 10.8061 8.41069C10.6498 8.25441 10.4379 8.16661 10.2169 8.16661H4.47521C4.45658 8.10425 4.43432 8.04303 4.40854 7.98328L2.41687 3.50828C2.34915 3.35241 2.33069 3.17957 2.36398 3.01292C2.39727 2.84627 2.48072 2.69378 2.60313 2.5759C2.72555 2.45802 2.88107 2.38039 3.04886 2.3534C3.21665 2.32642 3.38867 2.35139 3.54187 2.42494L15.2085 8.25828C15.345 8.32821 15.4596 8.43446 15.5396 8.56532C15.6196 8.69618 15.6619 8.84657 15.6619 8.99994C15.6619 9.15332 15.6196 9.30371 15.5396 9.43457C15.4596 9.56543 15.345 9.67168 15.2085 9.74161V9.74161Z" fill="black"/>
</svg>
