<svg width="18" height="13" viewBox="0 0 18 13" fill="none" xmlns="http://www.w3.org/2000/svg">
	<path d="M4.83317 8.49996H7.33317C7.55418 8.49996 7.76615 8.41216 7.92243 8.25588C8.07871 8.0996 8.1665 7.88764 8.1665 7.66663C8.1665 7.44561 8.07871 7.23365 7.92243 7.07737C7.76615 6.92109 7.55418 6.83329 7.33317 6.83329H4.83317C4.61216 6.83329 4.4002 6.92109 4.24392 7.07737C4.08763 7.23365 3.99984 7.44561 3.99984 7.66663C3.99984 7.88764 4.08763 8.0996 4.24392 8.25588C4.4002 8.41216 4.61216 8.49996 4.83317 8.49996ZM14.8332 0.166626H3.1665C2.50346 0.166626 1.86758 0.430018 1.39874 0.898859C0.929896 1.3677 0.666504 2.00358 0.666504 2.66663V10.1666C0.666504 10.8297 0.929896 11.4656 1.39874 11.9344C1.86758 12.4032 2.50346 12.6666 3.1665 12.6666H14.8332C15.4962 12.6666 16.1321 12.4032 16.6009 11.9344C17.0698 11.4656 17.3332 10.8297 17.3332 10.1666V2.66663C17.3332 2.00358 17.0698 1.3677 16.6009 0.898859C16.1321 0.430018 15.4962 0.166626 14.8332 0.166626ZM15.6665 10.1666C15.6665 10.3876 15.5787 10.5996 15.4224 10.7559C15.2661 10.9122 15.0542 11 14.8332 11H3.1665C2.94549 11 2.73353 10.9122 2.57725 10.7559C2.42097 10.5996 2.33317 10.3876 2.33317 10.1666V5.16663H15.6665V10.1666ZM15.6665 3.49996H2.33317V2.66663C2.33317 2.44561 2.42097 2.23365 2.57725 2.07737C2.73353 1.92109 2.94549 1.83329 3.1665 1.83329H14.8332C15.0542 1.83329 15.2661 1.92109 15.4224 2.07737C15.5787 2.23365 15.6665 2.44561 15.6665 2.66663V3.49996Z" fill="black"/>
</svg>
