<svg width="71" height="13" viewBox="0 0 71 13" fill="none" xmlns="http://www.w3.org/2000/svg">
	<mask id="mask0_4059_2101" style="mask-type:alpha" maskUnits="userSpaceOnUse" x="0" y="0" width="71" height="13">
		<path d="M0.814453 0.231572H70.8998V12.1233H0.814453V0.231572Z" fill="white"/>
	</mask>
	<g mask="url(#mask0_4059_2101)">
		<mask id="mask1_4059_2101" style="mask-type:alpha" maskUnits="userSpaceOnUse" x="0" y="0" width="71" height="13">
			<path d="M0.8125 12.1232H70.8979V0.23145H0.8125V12.1232Z" fill="white"/>
		</mask>
		<g mask="url(#mask1_4059_2101)">
			<path d="M28.2974 1.53319C28.2974 0.942915 28.7738 0.465519 29.3603 0.465519C29.9488 0.465519 30.4271 0.942915 30.4271 1.53319C30.4271 2.12279 29.9488 2.60071 29.3603 2.60071C28.7738 2.60071 28.2974 2.12272 28.2974 1.53319Z" fill="#499FDD"/>
			<path d="M45.1011 8.63512C45.1011 8.04462 45.5773 7.56663 46.1637 7.56663C46.752 7.56663 47.2302 8.04462 47.2302 8.63512C47.2302 9.22413 46.752 9.70264 46.1637 9.70264C45.5773 9.70264 45.1011 9.2242 45.1011 8.63512Z" fill="#499FDD"/>
			<path d="M10.8189 8.17362C9.90169 8.17362 9.2643 7.44526 9.2643 6.40436C9.2643 5.36369 9.90169 4.63577 10.8189 4.63577C11.7413 4.63577 12.3857 5.36369 12.3857 6.40436C12.3857 7.46172 11.7548 8.1737 10.8189 8.1737V8.17362ZM10.8189 3.08077C8.87844 3.08077 7.47021 4.47891 7.47021 6.40436C7.47021 8.32981 8.87844 9.72766 10.8189 9.72766C12.7666 9.72766 14.1807 8.32981 14.1807 6.40436C14.1807 4.47891 12.7666 3.08077 10.8189 3.08077ZM26.2346 6.57056C26.1592 6.42861 26.0727 6.30847 25.9805 6.21309L25.9219 6.15079L25.9836 6.09161C26.0727 5.99772 26.1637 5.8864 26.2516 5.75735L27.9639 3.21181H25.8852L24.5986 5.20305C24.5257 5.30985 24.3787 5.36369 24.1586 5.36369H23.8653V1.59911C23.8653 0.846122 23.3963 0.743627 22.8895 0.743627H22.0219L22.0234 9.62976H23.8653V6.9643H24.0379C24.2479 6.9643 24.3909 6.98855 24.4564 7.10269L25.4725 9.02058C25.7563 9.54099 26.0392 9.62976 26.5714 9.62976H27.9829L26.9316 7.89084L26.2346 6.57056M35.1766 3.06653C34.2397 3.06653 33.6419 3.48274 33.3069 3.83472L33.195 3.94782L33.1556 3.794C33.0571 3.41695 32.7254 3.20951 32.2262 3.20951H31.4007L31.4059 9.62754H33.2353V6.6695C33.2353 6.38026 33.2729 6.12929 33.3494 5.90034C33.553 5.20735 34.1211 4.77646 34.831 4.77646C35.4021 4.77646 35.6252 5.07779 35.6252 5.85658V8.65183C35.6252 9.31657 35.9327 9.62754 36.5978 9.62754H37.4684L37.4655 5.54554C37.4655 3.92379 36.6745 3.06653 35.1772 3.06653M29.3844 3.21233H28.5173L28.5232 8.17466H28.5226V9.62902H29.4482C29.4598 9.62902 29.4692 9.63028 29.4808 9.63028L29.9119 9.62902H30.341V9.6265H30.344L30.3477 4.18663C30.3477 3.53027 30.034 3.21233 29.385 3.21233M18.0047 8.17362C17.0876 8.17362 16.449 7.44526 16.449 6.40436C16.449 5.36369 17.0876 4.63577 18.0047 4.63577C18.9252 4.63577 19.5714 5.36369 19.5714 6.40436C19.5714 7.46172 18.9407 8.1737 18.0047 8.1737V8.17362ZM18.0047 3.08077C16.0624 3.08077 14.6538 4.47891 14.6538 6.40436C14.6538 8.32981 16.0624 9.72766 18.0047 9.72766C19.9504 9.72766 21.3668 8.32981 21.3668 6.40436C21.3668 4.47891 19.9504 3.08077 18.0047 3.08077" fill="#499FDD"/>
		</g>
	</g>
	<mask id="mask2_4059_2101" style="mask-type:alpha" maskUnits="userSpaceOnUse" x="0" y="0" width="71" height="13">
		<path d="M0.814453 0.231572H70.8998V12.1233H0.814453V0.231572Z" fill="white"/>
	</mask>
	<g mask="url(#mask2_4059_2101)">
		<mask id="mask3_4059_2101" style="mask-type:alpha" maskUnits="userSpaceOnUse" x="0" y="0" width="71" height="13">
			<path d="M0.812012 0.465458H70.8825V12.1079H0.812012V0.465458Z" fill="white"/>
		</mask>
		<g mask="url(#mask3_4059_2101)">
			<mask id="mask4_4059_2101" style="mask-type:alpha" maskUnits="userSpaceOnUse" x="0" y="0" width="71" height="13">
				<path d="M0.821045 12.1226H70.9064V0.23084H0.821045V12.1226Z" fill="white"/>
			</mask>
			<g mask="url(#mask4_4059_2101)">
				<path d="M57.2316 8.17252C56.3148 8.17252 55.6757 7.44416 55.6757 6.40326C55.6757 5.36259 56.3148 4.63467 57.2316 4.63467C58.1523 4.63467 58.7987 5.36259 58.7987 6.40326C58.7987 7.46062 58.1677 8.1726 57.2316 8.1726V8.17252ZM57.2316 3.07967C55.2897 3.07967 53.8811 4.47781 53.8811 6.40326C53.8811 8.32872 55.2897 9.72656 57.2316 9.72656C59.1775 9.72656 60.5936 8.32872 60.5936 6.40326C60.5936 4.47781 59.1775 3.07967 57.2316 3.07967Z" fill="#499FDD"/>
				<path d="M41.3337 7.89058C40.3335 7.89058 39.9775 7.01796 39.9775 6.20023C39.9775 5.83994 40.0686 4.66569 41.2376 4.66569C41.8185 4.66569 42.5927 4.83219 42.5927 6.26067C42.5927 7.60801 41.9075 7.89058 41.3337 7.89058V7.89058ZM43.5425 3.19435C43.1954 3.19435 42.9282 3.33281 42.7943 3.58556L42.7438 3.68368L42.659 3.61011C42.3636 3.35454 41.8342 3.05143 40.9744 3.05143C39.2638 3.05143 38.1121 4.33625 38.1121 6.24828C38.1121 8.15801 39.3037 9.49267 41.0088 9.49267C41.5912 9.49267 42.0515 9.3568 42.4163 9.08054L42.5575 8.97449V9.15293C42.5575 10.0101 42.0032 10.483 40.9982 10.483C40.5099 10.483 40.0653 10.3641 39.7681 10.2563C39.3799 10.1392 39.1524 10.2361 38.9951 10.6255L38.8499 10.9847L38.6444 11.5095L38.7717 11.5773C39.4148 11.9186 40.2521 12.1223 41.0088 12.1223C42.5669 12.1223 44.3861 11.3248 44.3861 9.08054L44.3927 3.19435H43.5428" fill="#499FDD"/>
			</g>
		</g>
	</g>
	<mask id="mask5_4059_2101" style="mask-type:alpha" maskUnits="userSpaceOnUse" x="0" y="0" width="71" height="13">
		<path d="M0.814453 0.231572H70.8998V12.1233H0.814453V0.231572Z" fill="white"/>
	</mask>
	<g mask="url(#mask5_4059_2101)">
		<mask id="mask6_4059_2101" style="mask-type:alpha" maskUnits="userSpaceOnUse" x="0" y="0" width="71" height="13">
			<path d="M0.8125 12.1232H70.8979V0.23145H0.8125V12.1232Z" fill="white"/>
		</mask>
		<g mask="url(#mask6_4059_2101)">
			<path d="M4.0038 8.09996L2.51459 8.09847V6.31801C2.51459 5.93748 2.66211 5.73961 2.98821 5.69407H4.0038C4.72868 5.69407 5.19704 6.15129 5.19756 6.89086C5.19704 7.64985 4.74033 8.09951 4.0038 8.09996ZM2.51459 3.29693V2.82836C2.51459 2.41823 2.68813 2.22318 3.06896 2.19811H3.83097C4.48451 2.19811 4.87595 2.58926 4.87595 3.24353C4.87595 3.74251 4.608 4.3247 3.85501 4.3247H2.51459V3.29693ZM5.90575 5.07391L5.63651 4.92261L5.87153 4.72163C6.14483 4.4866 6.60304 3.95833 6.60304 3.04551C6.60304 1.64878 5.51966 0.747313 3.84288 0.747313H1.92934V0.746794H1.71147C1.21435 0.765038 0.816597 1.16931 0.811035 1.66955V9.59733H1.6892C1.69143 9.59778 1.69217 9.59733 1.69291 9.59778L3.88068 9.59733C5.74465 9.59733 6.94774 8.58277 6.94774 7.01123C6.94774 6.16516 6.55888 5.44176 5.90535 5.07391" fill="#499FDD"/>
			<path d="M68.7522 3.08714C67.9931 3.08714 67.2593 3.44261 66.7882 4.03874L66.6556 4.20672L66.5517 4.01879C66.2129 3.40093 65.6296 3.08714 64.8187 3.08714C63.9684 3.08714 63.398 3.56157 63.1331 3.84362L62.9598 4.0314L62.8931 3.78443C62.7963 3.42896 62.4799 3.23317 62.0004 3.23317H61.2315L61.224 9.62635H62.9711V6.80418C62.9711 6.55699 63.0018 6.31232 63.0637 6.0566C63.2307 5.37466 63.689 4.64118 64.4594 4.71453C64.9346 4.76006 65.1666 5.12725 65.1666 5.83641V9.62635H66.926V6.80418C66.926 6.49528 66.9549 6.26404 67.0245 6.03198C67.1662 5.38097 67.6446 4.71356 68.3879 4.71356C68.9258 4.71356 69.1248 5.01816 69.1248 5.83641V8.69173C69.1248 9.3377 69.4129 9.62635 70.0583 9.62635H70.8807L70.8821 5.54494C70.8821 3.91452 70.1643 3.08714 68.7518 3.08714M52.8559 7.40661C52.8507 7.41292 52.0989 8.20566 51.1091 8.20566C50.2073 8.20566 49.2962 7.65232 49.2962 6.41711C49.2962 5.35063 50.0026 4.60528 51.0137 4.60528C51.3421 4.60528 51.7155 4.72291 51.774 4.92078L51.7826 4.95415C51.9172 5.40277 52.3249 5.4268 52.405 5.4268L53.3622 5.42784V4.59112C53.3622 3.48748 51.9584 3.08722 51.0137 3.08722C48.9936 3.08722 47.5278 4.49367 47.5278 6.43054C47.5278 8.3666 48.9777 9.77112 50.9768 9.77112C52.7112 9.77112 53.6544 8.63099 53.6632 8.61964L53.7136 8.55787L52.9556 7.30041L52.8559 7.40669" fill="#499FDD"/>
		</g>
	</g>
</svg>
