<svg width="56" height="18" viewBox="0 0 56 18" fill="none" xmlns="http://www.w3.org/2000/svg">
	<path d="M8.57712 0.873657C3.99109 0.873657 0.273193 4.59145 0.273193 9.17748C0.273193 13.7637 3.99109 17.4812 8.57712 17.4812C13.1637 17.4812 16.8811 13.7637 16.8811 9.17748C16.8811 4.59175 13.1637 0.874054 8.57702 0.874054L8.57712 0.873657ZM12.3853 12.8502C12.3498 12.9082 12.3033 12.9587 12.2483 12.9988C12.1933 13.0388 12.131 13.0677 12.0648 13.0836C11.9987 13.0995 11.9301 13.1023 11.8629 13.0916C11.7957 13.081 11.7313 13.0573 11.6733 13.0217C9.72361 11.8308 7.26921 11.5611 4.3787 12.2215C4.24486 12.2519 4.10441 12.228 3.98821 12.1549C3.87202 12.0818 3.7896 11.9656 3.75905 11.8318C3.74384 11.7655 3.74185 11.6969 3.75319 11.6299C3.76453 11.5629 3.78898 11.4987 3.82514 11.4412C3.8613 11.3836 3.90846 11.3337 3.96393 11.2944C4.01939 11.2551 4.08206 11.2271 4.14835 11.212C7.31155 10.4894 10.0249 10.8005 12.2137 12.1382C12.4576 12.2879 12.535 12.6062 12.3853 12.8502V12.8502ZM13.4016 10.5891C13.2142 10.8937 12.8156 10.9899 12.5112 10.8025C10.2791 9.43054 6.87663 9.03321 4.23651 9.83462C3.89411 9.93804 3.53247 9.74507 3.42855 9.40327C3.37897 9.23894 3.39657 9.06166 3.47751 8.91029C3.55844 8.75893 3.6961 8.64583 3.86029 8.59581C6.87604 7.68077 10.6252 8.12401 13.1884 9.69916C13.4929 9.88658 13.589 10.2852 13.4016 10.5892V10.5891ZM13.4889 8.23468C10.8126 6.64505 6.397 6.49889 3.84175 7.27441C3.43143 7.39886 2.99751 7.16722 2.87316 6.7569C2.81337 6.55976 2.83432 6.34695 2.9314 6.16526C3.02849 5.98357 3.19376 5.84787 3.39087 5.78801C6.32411 4.89756 11.2003 5.0696 14.2816 6.8988C14.3694 6.95075 14.4461 7.01951 14.5073 7.10115C14.5685 7.18279 14.613 7.2757 14.6382 7.37457C14.6635 7.47343 14.669 7.5763 14.6544 7.67729C14.6398 7.77827 14.6054 7.87539 14.5533 7.96308C14.3351 8.33215 13.8572 8.45382 13.4893 8.23468H13.4889ZM22.8654 8.53929C21.4316 8.19739 21.1767 7.95742 21.1767 7.4532C21.1767 6.97683 21.6249 6.65625 22.2923 6.65625C22.9388 6.65625 23.5794 6.89969 24.2517 7.40084C24.2715 7.41601 24.2973 7.42206 24.3221 7.4181C24.3346 7.41631 24.3465 7.41199 24.3573 7.4054C24.368 7.39882 24.3773 7.39012 24.3846 7.37982L25.0846 6.39298C25.0985 6.37342 25.1043 6.34932 25.101 6.32559C25.0977 6.30186 25.0854 6.28029 25.0668 6.26527C24.2666 5.6234 23.3662 5.31135 22.3131 5.31135C20.7652 5.31135 19.6834 6.24038 19.6834 7.56961C19.6834 8.99503 20.6165 9.49975 22.2288 9.88935C23.6002 10.2054 23.8322 10.4701 23.8322 10.9433C23.8322 11.4679 23.3642 11.7941 22.6106 11.7941C21.7737 11.7941 21.0905 11.5115 20.3269 10.8511C20.3079 10.835 20.2834 10.8268 20.2585 10.8283C20.2327 10.8303 20.2099 10.8422 20.1941 10.861L19.4087 11.7951C19.376 11.8348 19.38 11.8923 19.4177 11.926C20.3061 12.7193 21.3989 13.1377 22.5789 13.1377C24.2467 13.1377 25.3246 12.2264 25.3246 10.8154C25.3276 9.62479 24.6146 8.96538 22.8684 8.54058L22.8654 8.53929ZM29.0986 7.12528C28.3757 7.12528 27.7828 7.41006 27.2929 7.99362V7.33678C27.293 7.31195 27.2833 7.28809 27.2658 7.27044C27.2483 7.2528 27.2245 7.24281 27.1997 7.24268H25.9156C25.864 7.24268 25.8224 7.28492 25.8224 7.33678V14.635C25.8224 14.6866 25.864 14.7292 25.9156 14.7292H27.1997C27.2513 14.7292 27.2929 14.6866 27.2929 14.635V12.3316C27.7828 12.8799 28.3757 13.1486 29.0986 13.1486C30.4422 13.1486 31.8027 12.1144 31.8027 10.1373C31.8047 8.15971 30.4442 7.12518 29.0996 7.12518L29.0986 7.12528ZM30.3094 10.1373C30.3094 11.1436 29.6896 11.8467 28.8011 11.8467C27.9236 11.8467 27.2612 11.1119 27.2612 10.1373C27.2612 9.16251 27.9236 8.42794 28.8011 8.42794C29.6747 8.42784 30.3094 9.14655 30.3094 10.1372V10.1373ZM35.2882 7.12528C33.5578 7.12528 32.2023 8.45759 32.2023 10.1588C32.2023 11.8417 33.5489 13.1595 35.2673 13.1595C37.0036 13.1595 38.3631 11.8318 38.3631 10.1373C38.3631 8.44846 37.0125 7.12548 35.2882 7.12548V7.12528ZM35.2882 11.8566C34.368 11.8566 33.6738 11.1168 33.6738 10.1368C33.6738 9.1522 34.3442 8.43775 35.2673 8.43775C36.1935 8.43775 36.8916 9.17719 36.8916 10.1583C36.8916 11.1426 36.2173 11.8566 35.2882 11.8566ZM42.0578 7.24268H40.6448V5.79832C40.6448 5.78603 40.6424 5.77385 40.6378 5.76247C40.6331 5.75109 40.6263 5.74074 40.6176 5.73202C40.609 5.72329 40.5987 5.71635 40.5873 5.7116C40.576 5.70684 40.5638 5.70437 40.5516 5.70432H39.2674C39.2159 5.70432 39.1732 5.74656 39.1732 5.79832V7.24268H38.5565C38.5049 7.24268 38.4633 7.28492 38.4633 7.33678V8.44013C38.4633 8.4919 38.5049 8.53424 38.5565 8.53424H39.1732V11.3895C39.1732 12.5428 39.7474 13.1278 40.8808 13.1278C41.3409 13.1278 41.7226 13.0326 42.0826 12.8283C42.1123 12.8125 42.1302 12.7807 42.1302 12.747V11.6959C42.1302 11.6642 42.1133 11.6335 42.0856 11.6166C42.072 11.608 42.0565 11.6031 42.0405 11.6024C42.0245 11.6017 42.0085 11.6052 41.9943 11.6126C41.7474 11.7366 41.5084 11.7941 41.2407 11.7941C40.8292 11.7941 40.6448 11.6067 40.6448 11.1882V8.53473H42.0578C42.1094 8.53473 42.151 8.49249 42.151 8.44063V7.33738C42.1514 7.32507 42.1493 7.3128 42.1449 7.30132C42.1404 7.28984 42.1337 7.27938 42.125 7.27058C42.1164 7.26179 42.1061 7.25483 42.0947 7.25014C42.0833 7.24544 42.0711 7.24311 42.0588 7.24328L42.0578 7.24268ZM46.9801 7.24833V7.07094C46.9801 6.54906 47.1804 6.31633 47.6286 6.31633C47.8963 6.31633 48.1115 6.36948 48.3524 6.4498C48.3822 6.45912 48.4129 6.45446 48.4367 6.43671C48.4488 6.428 48.4586 6.41652 48.4654 6.40324C48.4721 6.38995 48.4755 6.37525 48.4754 6.36036V5.27853C48.4756 5.25832 48.4693 5.23859 48.4573 5.22233C48.4453 5.20606 48.4283 5.19415 48.409 5.18839C48.1551 5.11273 47.8299 5.03509 47.342 5.03509C46.1571 5.03509 45.5294 5.70283 45.5294 6.96543V7.23713H44.9126C44.861 7.23713 44.8184 7.27937 44.8184 7.33113V8.44013C44.8184 8.4919 44.861 8.53424 44.9126 8.53424H45.5294V12.9374C45.5294 12.99 45.572 13.0316 45.6236 13.0316H46.9067C46.9593 13.0316 47.0009 12.99 47.0009 12.9374V8.53453H48.1997L50.0362 12.9374C49.8279 13.3995 49.6227 13.4917 49.3431 13.4917C49.117 13.4917 48.878 13.4243 48.6351 13.2904C48.612 13.2788 48.5855 13.2763 48.5607 13.2835C48.5359 13.2924 48.5151 13.3103 48.5052 13.3341L48.0698 14.289C48.049 14.3346 48.0669 14.3871 48.1105 14.4109C48.5646 14.6569 48.9742 14.762 49.4809 14.762C50.4289 14.762 50.9534 14.3197 51.4145 13.1318L53.6416 7.37685C53.6474 7.36262 53.6495 7.34716 53.6478 7.3319C53.6461 7.31664 53.6405 7.30205 53.6317 7.28949C53.6233 7.27691 53.612 7.2666 53.5987 7.25947C53.5853 7.25234 53.5705 7.24862 53.5554 7.24863H52.2187C52.178 7.24863 52.1423 7.27412 52.1294 7.3117L50.76 11.222L49.2607 7.30912C49.254 7.29139 49.2421 7.27611 49.2265 7.26531C49.2109 7.25451 49.1924 7.24869 49.1735 7.24863H46.9801V7.24833ZM44.1263 7.24268H42.8421C42.7906 7.24268 42.7479 7.28492 42.7479 7.33678V12.9374C42.7479 12.99 42.7906 13.0316 42.8421 13.0316H44.1263C44.1778 13.0316 44.2205 12.99 44.2205 12.9374V7.33718C44.2205 7.32481 44.2181 7.31255 44.2133 7.30112C44.2086 7.28968 44.2017 7.27929 44.1929 7.27055C44.1842 7.2618 44.1738 7.25487 44.1623 7.25016C44.1509 7.24545 44.1386 7.24304 44.1263 7.24308V7.24268ZM43.4916 4.69239C42.9829 4.69239 42.5704 5.10411 42.5704 5.6127C42.5704 5.73366 42.5943 5.85345 42.6406 5.96521C42.6869 6.07696 42.7547 6.17851 42.8403 6.26404C42.9258 6.34958 43.0274 6.41742 43.1391 6.4637C43.2509 6.50999 43.3707 6.5338 43.4916 6.53379C44.0003 6.53379 44.4118 6.12158 44.4118 5.6127C44.4118 5.1042 43.9993 4.69239 43.4916 4.69239ZM54.7383 9.04352C54.2306 9.04352 53.835 8.63548 53.835 8.13998C53.835 7.64448 54.2356 7.23177 54.7433 7.23177C55.251 7.23177 55.6466 7.63972 55.6466 8.13482C55.6466 8.63032 55.246 9.04352 54.7383 9.04352ZM54.7433 7.32161C54.2802 7.32161 53.9302 7.6895 53.9302 8.13998C53.9302 8.59026 54.2782 8.95319 54.7383 8.95319C55.2014 8.95319 55.5514 8.5856 55.5514 8.13482C55.5514 7.68454 55.2034 7.32161 54.7433 7.32161V7.32161ZM54.9436 8.22773L55.1994 8.5855H54.9833L54.7532 8.25728H54.5559V8.5855H54.3754V7.63714H54.7978C55.019 7.63714 55.1637 7.74988 55.1637 7.93968C55.1647 8.09516 55.0745 8.19015 54.9446 8.22773H54.9436ZM54.7909 7.79986H54.5559V8.09982H54.7909C54.9079 8.09982 54.9783 8.0424 54.9783 7.94969C54.9783 7.85212 54.9079 7.79986 54.7909 7.79986V7.79986Z" fill="#1ED760"/>
</svg>
