<svg width="57" height="16" viewBox="0 0 57 16" fill="none" xmlns="http://www.w3.org/2000/svg">
	<path d="M8.51391 14.6953C7.68093 14.8416 6.8333 14.8855 5.95646 15.0023L3.28199 7.1691V15.3385C2.44901 15.4261 1.68908 15.543 0.899902 15.6599V0.694946H3.12133L6.16103 9.18595V0.694946H8.51391V14.6953ZM13.1174 6.17529C14.0236 6.17529 15.4119 6.13144 16.2449 6.13144V8.46967C15.2072 8.46967 13.9943 8.46967 13.1174 8.51352V11.9918C14.4912 11.9041 15.865 11.7871 17.2532 11.7432V13.9937L10.7791 14.5053V0.694946H17.2532V3.03323H13.1174V6.17529ZM25.9487 3.03328H23.5228V13.7894C22.7336 13.7894 21.9444 13.7894 21.1846 13.8185V3.03328H18.7586V0.694946H25.9488L25.9487 3.03328ZM29.7484 6.01458H32.949V8.35281H29.7484V13.6578H27.4538V0.694946H33.9866V3.03323H29.7484V6.01458ZM37.7862 11.6118C39.1162 11.6409 40.4606 11.7434 41.7613 11.8164V14.1254C39.6715 13.9938 37.5817 13.8625 35.448 13.8185V0.694946H37.7862V11.6118ZM43.7342 14.2862C44.4796 14.3301 45.2687 14.374 46.0287 14.4615V0.694946H43.7342V14.2862ZM56.2733 0.694946L53.3066 7.81211L56.2733 15.6599C55.3964 15.543 54.5196 15.3823 53.6427 15.2361L51.9621 10.9104L50.2524 14.8855C49.4046 14.7392 48.5862 14.6953 47.7387 14.5784L50.7492 7.72435L48.0309 0.694946H50.5445L52.079 4.62619L53.7158 0.694946H56.2733Z" fill="#D81F26"/>
</svg>
