<svg width="59" height="19" viewBox="0 0 59 19" fill="none" xmlns="http://www.w3.org/2000/svg">
	<path d="M30.9973 4.6117C30.9973 5.27314 30.4645 5.80596 29.803 5.80596C29.1416 5.80596 28.6088 5.27314 28.6088 4.6117C28.6088 3.95026 29.1232 3.41743 29.803 3.41743C30.4828 3.43581 30.9973 3.96863 30.9973 4.6117ZM26.0732 7.0186V7.31257C26.0732 7.31257 25.5037 6.57764 24.291 6.57764C22.2883 6.57764 20.7266 8.10263 20.7266 10.2156C20.7266 12.3101 22.27 13.8535 24.291 13.8535C25.522 13.8535 26.0732 13.1002 26.0732 13.1002V13.4125C26.0732 13.5595 26.1835 13.6697 26.3305 13.6697H27.8187V6.76137H26.3305C26.1835 6.76137 26.0732 6.88999 26.0732 7.0186V7.0186ZM26.0732 11.4466C25.7976 11.8508 25.2464 12.1999 24.585 12.1999C23.4091 12.1999 22.5088 11.4649 22.5088 10.2156C22.5088 8.96617 23.4091 8.23124 24.585 8.23124C25.2281 8.23124 25.816 8.5987 26.0732 8.98454V11.4466ZM28.9211 6.76137H30.6849V13.6697H28.9211V6.76137ZM55.2684 6.57764C54.0558 6.57764 53.4862 7.31257 53.4862 7.31257V3.43581H51.7224V13.6697H53.2106C53.3576 13.6697 53.4678 13.5411 53.4678 13.4125V13.1002C53.4678 13.1002 54.0374 13.8535 55.2501 13.8535C57.2527 13.8535 58.8145 12.3101 58.8145 10.2156C58.8145 8.121 57.2527 6.57764 55.2684 6.57764V6.57764ZM54.9745 12.1815C54.2946 12.1815 53.7618 11.8324 53.4862 11.4282V8.96617C53.7618 8.5987 54.3498 8.21287 54.9745 8.21287C56.1503 8.21287 57.0506 8.9478 57.0506 10.1972C57.0506 11.4466 56.1503 12.1815 54.9745 12.1815V12.1815ZM50.8037 9.57249V13.6881H49.0399V9.7746C49.0399 8.63545 48.6724 8.17612 47.6802 8.17612C47.1474 8.17612 46.5962 8.45172 46.2471 8.85593V13.6697H44.4833V6.76137H45.8797C46.0267 6.76137 46.1369 6.88999 46.1369 7.0186V7.31257C46.6513 6.77975 47.3312 6.57764 48.011 6.57764C48.7826 6.57764 49.4257 6.79812 49.9402 7.23908C50.5649 7.75353 50.8037 8.41497 50.8037 9.57249V9.57249ZM40.2023 6.57764C38.9897 6.57764 38.4201 7.31257 38.4201 7.31257V3.43581H36.6563V13.6697H38.1445C38.2915 13.6697 38.4017 13.5411 38.4017 13.4125V13.1002C38.4017 13.1002 38.9713 13.8535 40.1839 13.8535C42.1866 13.8535 43.7484 12.3101 43.7484 10.2156C43.7667 8.121 42.205 6.57764 40.2023 6.57764V6.57764ZM39.9083 12.1815C39.2285 12.1815 38.6957 11.8324 38.4201 11.4282V8.96617C38.6957 8.5987 39.2836 8.21287 39.9083 8.21287C41.0842 8.21287 41.9845 8.9478 41.9845 10.1972C41.9845 11.4466 41.0842 12.1815 39.9083 12.1815V12.1815ZM35.1313 6.57764C35.6641 6.57764 35.9397 6.66951 35.9397 6.66951V8.30473C35.9397 8.30473 34.4698 7.80865 33.5512 8.85593V13.6881H31.7873V6.76137H33.2756C33.4226 6.76137 33.5328 6.88999 33.5328 7.0186V7.31257C33.8635 6.92673 34.5801 6.57764 35.1313 6.57764V6.57764ZM16.8131 13.045C16.7212 12.8246 16.6294 12.5857 16.5375 12.3836C16.3905 12.0529 16.2435 11.7405 16.1149 11.4466L16.0965 11.4282C14.8288 8.6722 13.4692 5.87946 12.036 3.12346L11.9809 3.01322C11.8339 2.73762 11.687 2.44365 11.54 2.14968C11.3562 1.81896 11.1725 1.46986 10.8785 1.13914C10.2906 0.404213 9.44541 0 8.54512 0C7.62645 0 6.79965 0.404213 6.19333 1.1024C5.91773 1.43312 5.71563 1.78221 5.53189 2.11293C5.38491 2.4069 5.23792 2.70088 5.09094 2.97647L5.03582 3.08671C3.62107 5.84271 2.24307 8.63545 0.975316 11.3914L0.956943 11.4282C0.82833 11.7222 0.681343 12.0345 0.534357 12.3652C0.44249 12.5673 0.350624 12.7878 0.258757 13.0267C0.0199044 13.7065 -0.0535888 14.3495 0.0382777 15.011C0.240384 16.389 1.15905 17.5465 2.42681 18.061C2.90451 18.2631 3.40059 18.3549 3.91504 18.3549C4.06203 18.3549 4.24576 18.3366 4.39275 18.3182C4.99907 18.2447 5.62376 18.0426 6.23008 17.6935C6.98339 17.2709 7.69994 16.6646 8.50837 15.7827C9.3168 16.6646 10.0517 17.2709 10.7867 17.6935C11.393 18.0426 12.0177 18.2447 12.624 18.3182C12.771 18.3366 12.9547 18.3549 13.1017 18.3549C13.6161 18.3549 14.1306 18.2631 14.5899 18.061C15.8761 17.5465 16.7764 16.3706 16.9785 15.011C17.1254 14.3679 17.052 13.7249 16.8131 13.045ZM8.52674 14.0005C7.53458 12.7511 6.89152 11.5752 6.67104 10.583C6.57917 10.1604 6.5608 9.79297 6.61592 9.46225C6.65267 9.16828 6.76291 8.91105 6.90989 8.69057C7.25899 8.19449 7.84693 7.88215 8.52674 7.88215C9.20656 7.88215 9.81287 8.17612 10.1436 8.69057C10.2906 8.91105 10.4008 9.16828 10.4376 9.46225C10.4927 9.79297 10.4743 10.1788 10.3824 10.583C10.162 11.5568 9.5189 12.7327 8.52674 14.0005V14.0005ZM15.8577 14.864C15.7291 15.8194 15.086 16.6462 14.1857 17.0137C13.7448 17.1974 13.2671 17.2525 12.7893 17.1974C12.33 17.1423 11.8707 16.9953 11.393 16.7197C10.7315 16.3522 10.0701 15.7827 9.29842 14.9375C10.5111 13.4493 11.246 12.0896 11.5216 10.877C11.6502 10.3074 11.6686 9.79297 11.6135 9.31526C11.54 8.85593 11.3746 8.43335 11.1174 8.06588C10.5478 7.23908 9.59239 6.76137 8.52674 6.76137C7.46109 6.76137 6.50568 7.25745 5.93611 8.06588C5.67888 8.43335 5.51352 8.85593 5.44003 9.31526C5.36653 9.79297 5.38491 10.3258 5.53189 10.877C5.80749 12.0896 6.5608 13.4676 7.75506 14.9559C7.00176 15.801 6.32195 16.3706 5.66051 16.7381C5.1828 17.0137 4.72347 17.1607 4.26414 17.2158C3.76806 17.2709 3.29035 17.1974 2.86777 17.032C1.96747 16.6646 1.32441 15.8378 1.1958 14.8824C1.14068 14.423 1.17742 13.9637 1.36116 13.4493C1.41628 13.2655 1.50814 13.0818 1.60001 12.8613C1.72862 12.5673 1.87561 12.255 2.02259 11.9426L2.04097 11.9059C3.30873 9.16828 4.66835 6.37554 6.08309 3.65629L6.13821 3.54605C6.2852 3.27045 6.43219 2.97647 6.57917 2.70088C6.72616 2.4069 6.89152 2.1313 7.09363 1.89245C7.47946 1.45149 7.99392 1.21264 8.56349 1.21264C9.13306 1.21264 9.64751 1.45149 10.0334 1.89245C10.2355 2.1313 10.4008 2.4069 10.5478 2.70088C10.6948 2.97647 10.8418 3.27045 10.9888 3.54605L11.0439 3.65629C12.4403 6.39391 13.7999 9.18665 15.0676 11.9243V11.9426C15.2146 12.2366 15.3432 12.5673 15.4902 12.8613C15.5821 13.0818 15.674 13.2655 15.7291 13.4493C15.8761 13.927 15.9312 14.3863 15.8577 14.864V14.864Z" fill="#FF5A5F"/>
</svg>
