<svg width="16" height="16" viewBox="0 0 16 16" fill="none" xmlns="http://www.w3.org/2000/svg">
	<path d="M9.46598 8.01314L15.6961 1.78287C16.1015 1.37762 16.1015 0.722377 15.6961 0.317124C15.2908 -0.0881298 14.6356 -0.0881298 14.2303 0.317124L8.00004 6.5474L1.76995 0.317124C1.36451 -0.0881298 0.709459 -0.0881298 0.304205 0.317124C-0.101239 0.722377 -0.101239 1.37762 0.304205 1.78287L6.5343 8.01314L0.304205 14.2434C-0.101239 14.6487 -0.101239 15.3039 0.304205 15.7092C0.506168 15.9113 0.771718 16.0129 1.03708 16.0129C1.30244 16.0129 1.5678 15.9113 1.76995 15.7092L8.00004 9.47889L14.2303 15.7092C14.4325 15.9113 14.6978 16.0129 14.9632 16.0129C15.2286 16.0129 15.4939 15.9113 15.6961 15.7092C16.1015 15.3039 16.1015 14.6487 15.6961 14.2434L9.46598 8.01314Z" fill="#FF6464"/>
</svg>
