<svg width="66" height="22" viewBox="0 0 66 22" fill="none" xmlns="http://www.w3.org/2000/svg">
	<path d="M42.835 0C38.1654 0 33.9925 2.42032 33.9925 6.89204C33.9925 12.0203 41.3933 12.3745 41.3933 14.9507C41.3933 16.0355 40.1502 17.0065 38.027 17.0065C35.0137 17.0065 32.7616 15.6497 32.7616 15.6497L31.7979 20.1622C31.7979 20.1622 34.3923 21.3083 37.8368 21.3083C42.9421 21.3083 46.9594 18.7691 46.9594 14.2209C46.9594 8.80204 39.5277 8.45836 39.5277 6.06715C39.5277 5.2174 40.5482 4.28632 42.6654 4.28632C45.0541 4.28632 47.0031 5.2731 47.0031 5.2731L47.9462 0.914827C47.9462 0.914827 45.8256 0 42.835 0V0ZM0.113068 0.328927L0 0.986779C0 0.986779 1.96449 1.34631 3.73383 2.0635C6.012 2.8859 6.17429 3.36466 6.55797 4.85166L10.7389 20.9691H16.3435L24.9779 0.328927H19.3861L13.838 14.3623L11.5741 2.46695C11.3665 1.10554 10.3148 0.328927 9.02749 0.328927H0.113068V0.328927ZM27.2264 0.328927L22.8398 20.9691H28.172L32.5432 0.328927H27.2264V0.328927ZM56.9659 0.328927C55.6802 0.328927 54.9989 1.01731 54.499 2.22025L46.687 20.9691H52.2787L53.3606 17.8443H60.173L60.8308 20.9691H65.7647L61.4604 0.328927H56.9659V0.328927ZM57.6932 5.90526L59.3507 13.6504H54.9102L57.6932 5.90526V5.90526Z" fill="#A2A8B7"/>
</svg>
