<svg width="69" height="30" viewBox="0 0 69 30" fill="none" xmlns="http://www.w3.org/2000/svg">
	<path d="M44.9339 0.000145164C44.841 0.000145164 44.7488 0.0231098 44.656 0.0675931L42.2973 0.965335C42.0439 1.05814 41.8595 1.13253 41.7442 1.18994C41.6294 1.24779 41.5723 1.33411 41.5723 1.44893C41.5723 1.61037 41.6579 1.71479 41.8306 1.76055C42.0028 1.80631 42.1996 1.86935 42.418 1.95007C42.6369 2.0308 42.8328 2.16933 43.0055 2.36488C43.1786 2.56086 43.2645 2.889 43.2645 3.34959V20.694C43.2645 21.0622 43.2238 21.3386 43.1431 21.5229C43.0628 21.7068 42.9419 21.846 42.7809 21.9384C42.6194 22.0299 42.4346 22.099 42.2278 22.1448C42.0206 22.1905 41.8023 22.2482 41.5722 22.3181C41.3883 22.3634 41.2387 22.4156 41.123 22.4725C41.0078 22.5304 40.9504 22.6398 40.9504 22.8017C40.9504 22.9623 41.0597 23.0599 41.2782 23.0944C41.497 23.1281 41.664 23.1464 41.7793 23.1464C42.0789 23.1464 42.4655 23.1243 42.9374 23.0803C43.4105 23.0362 43.8556 23.0135 44.2735 23.0135C44.6672 23.0135 45.0486 23.0362 45.4181 23.0803C45.7885 23.1243 46.1809 23.1464 46.5957 23.1464C46.7801 23.1464 46.9582 23.1229 47.1313 23.0776C47.3035 23.0314 47.3903 22.9401 47.3903 22.8024C47.3903 22.6409 47.292 22.5438 47.0969 22.5097C46.9013 22.4751 46.6645 22.4116 46.3887 22.3188C46.2268 22.2739 46.06 22.1763 45.8869 22.0274C45.7146 21.8776 45.6292 21.608 45.6292 21.2173V16.3253C45.6292 16.2109 45.7097 16.1526 45.8707 16.1526C45.9397 16.1526 46.0437 16.222 46.1823 16.3597L51.3968 21.2858C51.6498 21.5388 51.7759 21.7229 51.7759 21.8369C51.7759 21.9522 51.7128 22.0557 51.5863 22.1472C51.459 22.2391 51.3048 22.2965 51.1196 22.3185C50.8205 22.3651 50.5789 22.4173 50.3946 22.4743C50.2107 22.5321 50.1194 22.6406 50.1194 22.8021C50.1194 22.9631 50.199 23.0596 50.3608 23.0941C50.5218 23.1278 50.7865 23.1461 51.1547 23.1461C51.5687 23.1461 51.983 23.124 52.3978 23.08C52.8118 23.0359 53.2497 23.0132 53.7103 23.0132C54.24 23.0132 54.7234 23.0359 55.1611 23.08C55.5984 23.124 56.0015 23.1461 56.3698 23.1461C56.9685 23.1461 57.2675 23.0315 57.2675 22.8014C57.2675 22.6866 57.1934 22.5939 57.0436 22.5249C56.8934 22.4562 56.6922 22.3706 56.4392 22.2665C56.1858 22.1629 55.8918 22.0303 55.5577 21.8693C55.2236 21.7074 54.8845 21.4669 54.5392 21.1449L48.5645 15.7249C48.5179 15.6796 48.4601 15.6161 48.3919 15.5354C48.3224 15.4546 48.288 15.3572 48.288 15.242C48.288 15.15 48.5874 14.9028 49.1857 14.5C49.784 14.0973 50.4695 13.6663 51.2408 13.2057C52.0122 12.7456 52.7599 12.3141 53.4855 11.9114C54.2107 11.5086 54.7 11.2501 54.9539 11.1344C55.0683 11.0886 55.2235 11.0367 55.4199 10.9793C55.6155 10.9223 55.8053 10.8588 55.9905 10.7897C56.174 10.7211 56.3286 10.6459 56.4559 10.5651C56.5824 10.4844 56.6455 10.3981 56.6455 10.3061C56.6455 10.1222 56.5772 10.0066 56.4391 9.9608C56.3005 9.91505 56.1511 9.89133 55.9905 9.89133C55.6443 9.89133 55.2354 9.90302 54.7636 9.92504C54.2914 9.94705 53.8356 9.95875 53.3992 9.95875C52.9377 9.95875 52.4717 9.94705 52.0003 9.92504C51.5285 9.90302 51.1084 9.89133 50.7397 9.89133C50.6245 9.89133 50.5155 9.92655 50.4119 9.9952C50.3083 10.0647 50.2568 10.145 50.2568 10.2373C50.2568 10.3759 50.3249 10.4853 50.4639 10.5665C50.6016 10.6468 50.7516 10.727 50.9131 10.8073C51.0745 10.888 51.2233 10.992 51.3622 11.1189C51.4995 11.2458 51.5686 11.4248 51.5686 11.6544C51.5686 11.7701 51.436 11.9367 51.1714 12.1555C50.9068 12.3739 50.5793 12.6223 50.1873 12.8981C49.7967 13.1753 49.3646 13.4628 48.8923 13.7628C48.4201 14.0624 47.9773 14.3327 47.5629 14.5748C47.1485 14.817 46.7858 15.0125 46.475 15.1623C46.1642 15.3121 45.9856 15.3869 45.9394 15.3869C45.7327 15.3869 45.6292 15.2025 45.6292 14.8338V0.622523C45.6292 0.369135 45.5891 0.202351 45.5071 0.122052C45.4268 0.0408987 45.3396 -2.60905e-05 45.2468 -2.60905e-05H44.9338L44.9339 0.000145164ZM10.0241 1.66612C8.91689 1.66612 7.93139 1.69881 7.0672 1.76528C6.20214 1.83219 5.34365 1.86576 4.49067 1.86576H1.34693C1.23124 1.86576 1.09921 1.871 0.948987 1.88265C0.799198 1.89388 0.656125 1.91757 0.517992 1.95212C0.379859 1.98708 0.25897 2.04518 0.155802 2.12547C0.051343 2.20619 0 2.31513 0 2.45326C0 2.63758 0.0741335 2.74786 0.223922 2.7824C0.37371 2.8165 0.644471 2.8567 1.03597 2.90246C1.26562 2.92577 1.51288 2.94343 1.77792 2.95507C2.04297 2.9663 2.29631 2.98977 2.53804 3.02387C2.77934 3.0584 2.98068 3.11605 3.14169 3.1972C3.30313 3.27749 3.38383 3.39796 3.38383 3.55941V19.8069C3.38383 20.3137 3.33794 20.7049 3.24556 20.9812C3.15362 21.2583 3.03314 21.4703 2.88336 21.6205C2.73357 21.7703 2.56679 21.8747 2.38289 21.9322C2.19857 21.99 2.01414 22.0307 1.82984 22.0536C1.30019 22.1455 0.955287 22.2608 0.793843 22.3989C0.6324 22.5366 0.552375 22.6756 0.552375 22.8137C0.552375 22.9915 0.6324 23.0912 0.793843 23.1132C0.955287 23.1352 1.08119 23.1462 1.17357 23.1462C1.58797 23.1462 2.08271 23.1242 2.65812 23.0801C3.23396 23.0357 3.77575 23.0134 4.28295 23.0134H12.4449C13.9203 23.0134 15.3093 22.7655 16.6125 22.2708C17.9157 21.7756 19.0511 21.1026 20.0193 20.25C20.9871 19.3979 21.7536 18.3963 22.3186 17.2446C22.8837 16.0937 23.1665 14.8729 23.1665 13.5835C23.1665 11.5107 22.8206 9.71997 22.1291 8.21143C21.4372 6.70362 20.4973 5.46577 19.3098 4.49841C18.1223 3.53147 16.7332 2.81754 15.1429 2.35695C13.5514 1.89636 11.8459 1.66628 10.0242 1.66628L10.0241 1.66612ZM9.25924 2.69806C9.97537 2.69806 10.7381 2.7844 11.5471 2.95706C12.3556 3.12973 13.1531 3.4009 13.9388 3.76911C14.7244 4.13776 15.4813 4.59792 16.2091 5.15045C16.9364 5.70298 17.5787 6.3602 18.1334 7.11993C18.6885 7.88009 19.1266 8.74368 19.4499 9.71061C19.7737 10.6775 19.9356 11.7488 19.9356 12.9225C19.9356 14.0975 19.7737 15.1399 19.4499 16.0494C19.1266 16.9585 18.6998 17.7536 18.1684 18.433C17.6366 19.1125 17.0359 19.6933 16.3655 20.1772C15.6951 20.6611 15.0253 21.0467 14.3549 21.3346C13.685 21.6225 13.0375 21.8352 12.4137 21.9733C11.7895 22.1123 11.2468 22.1811 10.7849 22.1811C10.2298 22.1811 9.68742 22.1123 9.15604 21.9733C8.62379 21.8352 8.15039 21.6225 7.73426 21.3346C7.31813 21.0467 6.98312 20.6844 6.7293 20.2466C6.47548 19.8094 6.34822 19.2905 6.34822 18.6913V3.80356C6.34822 3.68874 6.36518 3.56197 6.40015 3.42384C6.43468 3.28614 6.54411 3.16499 6.7293 3.06096C6.91405 2.95736 7.20317 2.87079 7.59599 2.80129C7.98838 2.73265 8.54267 2.69809 9.25924 2.69809V2.69806ZM63.3255 9.32545C62.2446 9.32545 61.3124 9.55644 60.5311 10.0174C59.7494 10.4785 59.0995 11.0607 58.5819 11.7644C58.0643 12.468 57.6802 13.2519 57.4272 14.1169C57.1742 14.9816 57.0475 15.8168 57.0475 16.624C57.0475 18.7922 57.5674 20.5038 58.6082 21.7608C59.6485 23.0174 61.1247 23.646 63.0362 23.646C63.9341 23.646 64.6996 23.5128 65.3328 23.2474C65.9657 22.9819 66.4889 22.6805 66.9037 22.3456C67.3181 22.0106 67.6176 21.6982 67.8014 21.4108C67.9866 21.1228 68.0786 20.9447 68.0786 20.8752C68.0786 20.6913 67.9738 20.5994 67.767 20.5994C67.6289 20.5994 67.5017 20.6744 67.3873 20.8246C67.2716 20.974 67.1105 21.1345 66.9037 21.3076C66.6965 21.4807 66.409 21.6351 66.0404 21.7737C65.6713 21.9122 65.1542 21.9807 64.4864 21.9807C63.4271 21.9807 62.5687 21.8143 61.9126 21.4789C61.2564 21.1444 60.7506 20.7108 60.3936 20.1799C60.0366 19.6498 59.795 19.0381 59.6685 18.3453C59.5416 17.6533 59.479 16.9385 59.479 16.1991V15.472C59.479 15.2648 59.5006 15.1027 59.5451 14.987H67.9479C68.2471 14.987 68.4362 14.9355 68.5165 14.8319C68.5964 14.7283 68.6373 14.5156 68.6373 14.1932C68.6373 13.8254 68.545 13.3646 68.3607 12.8125C68.1768 12.26 67.8783 11.7248 67.4643 11.2072C67.0504 10.6892 66.5039 10.2461 65.8253 9.87785C65.1467 9.50921 64.3142 9.32545 63.3257 9.32545H63.3255ZM24.9404 9.89131C24.687 9.89131 24.4802 9.90349 24.3192 9.92641C24.1577 9.94972 24.077 10.0411 24.077 10.2029C24.077 10.3182 24.1456 10.405 24.2841 10.4619C24.4222 10.5198 24.6991 10.6057 25.113 10.7209C25.3202 10.7671 25.5397 10.825 25.7693 10.8936C25.9994 10.9627 26.1146 11.1245 26.1146 11.3779C26.1146 11.8851 26.109 12.4551 26.0978 13.0884C26.0865 13.7216 26.0816 14.3728 26.0816 15.041C26.0816 15.6868 26.0755 16.3311 26.0647 16.9761C26.0535 17.6218 26.0485 18.2088 26.0485 18.7385C26.0485 19.4762 26.1111 20.145 26.238 20.7437C26.3649 21.3424 26.5831 21.8605 26.8943 22.299C27.2055 22.7367 27.6315 23.0695 28.1724 23.3C28.7137 23.53 29.3879 23.646 30.1938 23.646C30.8854 23.646 31.5013 23.5379 32.0426 23.3229C32.5839 23.1079 33.0558 22.8685 33.459 22.6039C33.8617 22.3393 34.1903 22.1029 34.4437 21.8957C34.6971 21.689 34.8926 21.5848 35.0312 21.5848C35.1926 21.5848 35.2726 21.7231 35.2726 21.9989V22.7935C35.2726 22.9549 35.2835 23.0867 35.3063 23.1907C35.3284 23.2948 35.4066 23.3459 35.5404 23.3459C35.7031 23.3459 36.1331 23.2781 36.8307 23.1422C37.5282 23.0057 38.4866 22.8464 39.7073 22.6647C39.9603 22.6185 40.1393 22.5739 40.2429 22.5277C40.3456 22.4828 40.3987 22.3916 40.3987 22.2552C40.3987 22.0735 40.2653 21.9715 40.0007 21.949C39.7357 21.9257 39.2697 21.914 38.6019 21.914C38.4409 21.914 38.2504 21.8692 38.0319 21.7764C37.8127 21.6844 37.7042 21.4541 37.7042 21.085C37.7042 19.3346 37.726 17.5905 37.7709 15.8519C37.8149 14.1127 37.8377 12.3677 37.8377 10.6171C37.8377 10.2951 37.7452 10.0939 37.5591 10.0128C37.3748 9.93205 37.2245 9.89137 37.1093 9.89137C36.7618 9.89137 36.4212 9.90306 36.0854 9.92508C35.7504 9.94709 35.4093 9.95814 35.0635 9.95814C34.764 9.95814 34.4702 9.94709 34.1827 9.92508C33.8943 9.90306 33.6012 9.89137 33.3025 9.89137C33.1181 9.89137 32.9452 9.90946 32.7838 9.94398C32.6228 9.97852 32.5423 10.0526 32.5423 10.1679C32.5423 10.306 32.6745 10.4209 32.9396 10.5132C33.2042 10.6052 33.4058 10.6748 33.5439 10.721C33.9583 10.8362 34.2808 10.9226 34.5105 10.98C34.7405 11.0378 34.9191 11.0894 35.046 11.1351C35.1725 11.1809 35.2536 11.2385 35.2881 11.3084C35.3222 11.3771 35.3401 11.458 35.3401 11.5499C35.3401 12.7931 35.3284 14.0248 35.3064 15.2447C35.2835 16.4655 35.2726 17.6971 35.2726 18.9416C35.2726 19.2865 35.2322 19.6444 35.1519 20.0126C35.0721 20.3813 34.8936 20.7088 34.6177 20.9967C34.3423 21.2842 33.9336 21.5199 33.3936 21.7042C32.8535 21.889 32.1008 21.9814 31.1361 21.9814C30.2857 21.9814 29.6189 21.7907 29.1363 21.4108C28.6532 21.0309 28.4125 20.4845 28.4125 19.7705C28.4125 18.2277 28.4234 16.6909 28.4462 15.1599C28.4678 13.6283 28.4786 12.0914 28.4786 10.5479C28.4786 10.2954 28.4501 10.123 28.3923 10.0306C28.334 9.93823 28.189 9.89167 27.9572 9.89167C27.7025 9.89167 27.4475 9.90337 27.1924 9.92538C26.9377 9.9474 26.6826 9.95845 26.4275 9.95845C26.1728 9.95845 25.9242 9.9474 25.6829 9.92538C25.4416 9.90337 25.1932 9.89167 24.9403 9.89167L24.9404 9.89131ZM63.8167 10.1577C64.5536 10.1577 65.1633 10.3593 65.6472 10.7621C66.1303 11.1648 66.3723 11.6647 66.3723 12.2635C66.3723 12.5859 66.3325 12.8501 66.2509 13.0573C66.1706 13.2645 66.0041 13.4365 65.7511 13.5746C65.4977 13.7128 65.1402 13.8113 64.68 13.8687C64.2194 13.9266 63.6092 13.955 62.8495 13.955C62.1127 13.955 61.5425 13.9487 61.1397 13.9375C60.737 13.9263 60.4375 13.9089 60.242 13.8856C60.0464 13.8631 59.9305 13.8338 59.896 13.7992C59.8623 13.7651 59.8447 13.7132 59.8447 13.6441C59.8447 13.3683 59.9369 13.0347 60.1213 12.6432C60.3051 12.2521 60.5637 11.8722 60.8982 11.504C61.2324 11.1362 61.6468 10.82 62.142 10.555C62.6367 10.2908 63.1951 10.1577 63.8167 10.1577L63.8167 10.1577ZM46.1149 25.7232C45.4225 25.7232 44.8752 26.1206 44.8752 26.7707C44.8752 27.4424 45.2557 27.6407 46.0508 27.8768C46.6789 28.065 46.8993 28.21 46.8993 28.5001C46.8993 28.8657 46.6472 29.0478 46.121 29.0478C45.7666 29.0478 45.3955 28.876 45.143 28.6019L44.741 28.9938C45.057 29.3646 45.5301 29.6008 46.0778 29.6008C47.0392 29.6008 47.4679 29.1387 47.4679 28.4623C47.4679 27.7911 47.0067 27.5545 46.2647 27.3292C45.6154 27.1362 45.4438 27.007 45.4438 26.7438C45.4438 26.4917 45.6317 26.2763 46.0724 26.2763C46.4428 26.2763 46.7111 26.3948 46.9472 26.6365L47.3452 26.2332C47.0123 25.9112 46.6247 25.7233 46.1149 25.7233L46.1149 25.7232ZM2.43028 25.7819V27.9631C2.43028 28.9991 2.9137 29.6008 3.84265 29.6008C4.7772 29.6008 5.2874 29.0268 5.2874 27.9739V25.7819H4.72287V27.9847C4.72287 28.6719 4.44399 29.0362 3.85345 29.0362C3.28926 29.0362 2.99417 28.6555 2.99417 27.9463V25.7818H2.43032L2.43028 25.7819ZM17.6176 25.7819V29.5414H18.1815V25.7819H17.6176ZM52.0961 25.7819V29.5414H52.6599V25.7819H52.0961ZM64.1733 25.7819L65.5215 28.0542V29.5414H66.0861V28.0542L67.433 25.7819H66.7835L66.1926 26.824C66.0588 27.0661 65.8705 27.4262 65.8061 27.5652C65.7414 27.4262 65.5487 27.0502 65.4197 26.8193L64.8342 25.7819H64.1733L64.1733 25.7819ZM9.99912 25.7828V29.5416H10.5461V27.5924C10.5461 27.383 10.5414 26.8617 10.5414 26.7223C10.6001 26.819 10.7296 27.0449 10.8207 27.1843L12.3187 29.5416H12.8562V25.7828H12.3079V27.7212C12.3079 27.931 12.314 28.4676 12.314 28.6074C12.26 28.5108 12.0991 28.2318 12.0024 28.076L10.5738 25.7828H9.99916H9.99912ZM22.7108 25.7828L24.0153 29.5416H24.6115L25.9004 25.7828H25.2995L24.5258 28.1724C24.4559 28.3926 24.348 28.7306 24.3161 28.8658C24.2837 28.7306 24.1765 28.3979 24.107 28.1778L23.3225 25.7827H22.7108L22.7108 25.7828ZM30.4005 25.7828V29.5416H32.9035V28.9939H30.9651V27.8075H32.0442V27.2598H30.9651V26.3304H32.8226V25.7827H30.4005V25.7828ZM37.463 25.7828V29.5416H38.0161V28.0544H38.8646L39.6106 29.5416H40.2615L39.4932 28.0058C40.0034 27.8768 40.3201 27.5064 40.3201 26.9051C40.3201 26.1311 39.7674 25.7828 39.1121 25.7828H37.463V25.7828ZM57.1889 25.7828V26.3358H58.2843V29.5416H58.8481V26.3358H59.9435V25.7828H57.189H57.1889ZM38.016 26.3142H39.112C39.4932 26.3142 39.7508 26.5293 39.7508 26.9212C39.7508 27.3296 39.488 27.5229 39.112 27.5229H38.016V26.3142Z" fill="#A2A8B7"/>
</svg>
