<svg width="129" height="22" viewBox="0 0 129 22" fill="none" xmlns="http://www.w3.org/2000/svg">
	<path fill-rule="evenodd" clip-rule="evenodd" d="M8.63831 3.59204C5.77583 3.59204 3.45532 5.91255 3.45532 8.77503C3.45532 11.6375 5.77583 13.958 8.63831 13.958C11.5008 13.958 13.8213 11.6375 13.8213 8.77503C13.8213 5.91255 11.5008 3.59204 8.63831 3.59204ZM3.45532 15.6863C4.89906 16.7708 6.69364 17.4133 8.63831 17.4133C13.4091 17.4133 17.2766 13.5458 17.2766 8.77503C17.2766 4.00422 13.4091 0.136719 8.63831 0.136719C4.04183 0.136719 0.283855 3.72674 0.0153531 8.2558C0.00522904 8.33146 0 8.40866 0 8.48708V8.77503V19.7169C0 20.671 0.773497 21.4445 1.72766 21.4445C2.68183 21.4445 3.45532 20.671 3.45532 19.7169V15.6863ZM53.94 1.57865C54.7338 2.10792 54.9484 3.18058 54.4192 3.97449L47.7987 13.9053V19.7169C47.7987 20.671 47.0251 21.4445 46.071 21.4445C45.1169 21.4445 44.3433 20.671 44.3433 19.7169V13.9053L37.7228 3.97449C37.1936 3.18058 37.4081 2.10792 38.202 1.57865C38.9959 1.04938 40.0685 1.26391 40.5979 2.05782L46.071 10.2675L51.5441 2.05782C52.0735 1.26391 53.1461 1.04938 53.94 1.57865ZM107.115 3.01616C107.115 2.06199 106.342 1.28849 105.387 1.28849C104.433 1.28849 103.66 2.06199 103.66 3.01616V14.581L94.0942 1.97198C93.6459 1.38092 92.8702 1.14211 92.1671 1.37865C91.4638 1.61519 90.9902 2.27426 90.9902 3.01616V19.7169C90.9902 20.671 91.7637 21.4445 92.7179 21.4445C93.672 21.4445 94.4455 20.671 94.4455 19.7169V8.15207L104.011 20.7611C104.459 21.3522 105.235 21.5909 105.938 21.3544C106.641 21.1178 107.115 20.4587 107.115 19.7169V3.01616ZM114.314 1.28849C113.201 1.28849 112.298 2.19091 112.298 3.3041V19.4289C112.298 20.5421 113.201 21.4445 114.314 21.4445H118.345C123.91 21.4445 128.423 16.9325 128.423 11.3665C128.423 5.80058 123.91 1.28849 118.345 1.28849H114.314ZM115.753 17.9892V4.74382H118.345C122.003 4.74382 124.968 7.7089 124.968 11.3665C124.968 15.0241 122.003 17.9892 118.345 17.9892H115.753ZM85.8072 3.01616C85.8072 3.97032 85.0337 4.74382 84.0796 4.74382H77.7448V9.35092H84.0796C85.0337 9.35092 85.8072 10.1244 85.8072 11.0786C85.8072 12.0327 85.0337 12.8062 84.0796 12.8062H77.7448V17.9892H84.0796C85.0337 17.9892 85.8072 18.7628 85.8072 19.7169C85.8072 20.671 85.0337 21.4445 84.0796 21.4445H76.593C75.3208 21.4445 74.2895 20.4133 74.2895 19.141V11.0786V3.59204C74.2895 2.31983 75.3208 1.28849 76.593 1.28849H84.0796C85.0337 1.28849 85.8072 2.06199 85.8072 3.01616ZM60.6399 6.27324C60.8997 5.36773 61.7279 4.74382 62.6699 4.74382H62.9649C63.7725 4.74382 64.5734 4.88907 65.3296 5.17262L66.1963 5.49764C67.0897 5.83267 68.0856 5.38001 68.4206 4.4866C68.7557 3.59319 68.303 2.59736 67.4096 2.26233L66.5429 1.9373C65.3987 1.50826 64.1868 1.28849 62.9649 1.28849H62.6699C60.1866 1.28849 58.0035 2.93319 57.3185 5.32018C56.4463 8.36002 58.2782 11.5151 61.3507 12.2644L64.791 13.1036C66.1832 13.4432 66.9719 14.9168 66.4822 16.2635L66.4288 16.4099C66.1968 17.0483 65.6706 17.5352 65.0163 17.7174C63.4024 18.1667 61.6739 17.913 60.2572 17.0187L59.6627 16.6435C58.8558 16.1342 57.7889 16.3754 57.2796 17.1822C56.7703 17.9891 57.0115 19.056 57.8183 19.5653L58.4128 19.9406C60.6543 21.3555 63.3894 21.757 65.943 21.0462C67.6723 20.5647 69.0627 19.2778 69.6762 17.5908L69.7295 17.4443C70.9224 14.1636 69.0012 10.5739 65.6098 9.74667L62.1695 8.90756C61.0039 8.62329 60.309 7.4264 60.6399 6.27324ZM34.1387 20.446C34.5414 21.3111 35.5691 21.6858 36.4341 21.2832C37.2992 20.8805 37.674 19.8528 37.2713 18.9878L29.4968 2.28704C29.2133 1.67797 28.6024 1.28849 27.9305 1.28849C27.2587 1.28849 26.6478 1.67797 26.3642 2.28704L18.5898 18.9878C18.1871 19.8528 18.5619 20.8805 19.427 21.2832C20.292 21.6858 21.3197 21.3111 21.7224 20.446L27.9305 7.10985L34.1387 20.446Z" fill="#A2A8B7"/>
</svg>
