<svg width="135" height="38" viewBox="0 0 135 38" fill="none" xmlns="http://www.w3.org/2000/svg">
	<path fill-rule="evenodd" clip-rule="evenodd" d="M27.1743 2.57638H27.5838L28.3061 3.80936H28.8214L27.9978 2.57638C28.2049 2.57638 28.3061 2.57638 28.4073 2.47516C28.4457 2.4368 28.4847 2.41297 28.5184 2.39242C28.5735 2.35874 28.6143 2.33384 28.6143 2.26813C28.7155 2.16692 28.7155 1.95989 28.7155 1.85867C28.7155 1.55043 28.7155 1.3434 28.5085 1.24218L28.483 1.22968C28.2847 1.13245 28.0862 1.03515 27.7862 1.03515H26.7557V3.81396H27.1651V2.57638H27.1743ZM27.1743 2.26353V1.3434H27.6896C27.7908 1.3434 27.8966 1.3434 27.8966 1.44461H28.1037C28.1537 1.44461 28.179 1.46936 28.2046 1.49438C28.2307 1.51996 28.2572 1.54583 28.3107 1.54583V1.75286V2.0611C28.2606 2.0611 28.2353 2.08585 28.2098 2.11087C28.1836 2.13645 28.1572 2.16232 28.1037 2.16232C28.1037 2.16232 28.0024 2.26353 27.8966 2.26353H27.6896H27.1743ZM27.6896 4.83991C27.8966 4.83991 28.2049 4.83991 28.4119 4.73869C28.5154 4.68809 28.6178 4.63633 28.7201 4.58457C28.8225 4.53281 28.9249 4.48106 29.0284 4.43045C29.1319 4.32693 29.2343 4.24987 29.3366 4.17281L29.3367 4.1728C29.439 4.09574 29.5414 4.01868 29.6449 3.91517C29.6955 3.81166 29.7472 3.68285 29.799 3.55403C29.8508 3.42521 29.9025 3.29639 29.9531 3.19287C30.0543 2.98584 30.0543 2.6776 30.0543 2.36936V2.36935C30.0543 2.16232 30.0543 1.85407 29.9531 1.64704C29.8598 1.3629 29.7626 1.16476 29.6687 0.973348L29.6687 0.973332L29.6449 0.924736C29.5414 0.821226 29.439 0.744168 29.3367 0.667111L29.3366 0.6671C29.2343 0.590038 29.1319 0.512976 29.0284 0.40946C28.9249 0.358853 28.8225 0.307095 28.7201 0.255338C28.6178 0.20358 28.5154 0.151823 28.4119 0.101215C28.2049 0 27.8966 0 27.6896 0C27.3814 0 27.1743 0 26.8661 0.101215C26.7626 0.151826 26.6602 0.203587 26.5578 0.255349C26.4555 0.307103 26.3531 0.358856 26.2496 0.40946C26.1461 0.51297 26.0437 0.590029 25.9414 0.667086L25.9413 0.667096C25.839 0.744158 25.7366 0.82122 25.6331 0.924736L25.6013 0.989479C25.5099 1.17518 25.4155 1.36682 25.3249 1.64704C25.2236 1.85407 25.2236 2.16232 25.2236 2.36935C25.2236 2.67759 25.2236 2.98584 25.3249 3.19287C25.3755 3.29638 25.4272 3.4252 25.479 3.55402L25.479 3.5541C25.5308 3.68289 25.5825 3.81168 25.6331 3.91517C25.7366 4.01869 25.839 4.09575 25.9413 4.17281L25.9414 4.17282C26.0437 4.24988 26.1461 4.32694 26.2496 4.43045C26.3531 4.48105 26.4555 4.53281 26.5578 4.58456C26.6602 4.63632 26.7626 4.68808 26.8661 4.73869C27.1743 4.83991 27.3814 4.83991 27.6896 4.83991ZM25.5319 2.36935C25.5319 2.11934 25.5985 1.93592 25.6801 1.71108C25.6991 1.6587 25.7189 1.60407 25.7389 1.54583C25.8401 1.3388 25.9459 1.13637 26.1484 0.929337L26.1484 0.929324C26.3554 0.722298 26.5578 0.519874 26.8707 0.414061C27.0777 0.312846 27.386 0.312846 27.6942 0.312846C27.9012 0.312846 28.2095 0.312846 28.4165 0.414061C28.7247 0.515275 28.9318 0.722306 29.1388 0.929337C29.3458 1.13637 29.4471 1.3388 29.5483 1.54583C29.5709 1.61465 29.5937 1.67842 29.6155 1.73941C29.6915 1.95156 29.7553 2.12992 29.7553 2.36935C29.7553 2.67759 29.6541 2.98584 29.5483 3.29408C29.4471 3.50111 29.3412 3.70354 29.1388 3.91057C28.9318 4.1176 28.7293 4.32003 28.4165 4.42585C28.2095 4.52706 27.9012 4.52706 27.6942 4.52706C27.386 4.52706 27.0777 4.52706 26.8707 4.42585C26.5624 4.32464 26.3554 4.11761 26.1484 3.91058L26.1484 3.91057C25.9413 3.70354 25.8401 3.50111 25.7389 3.29408C25.6331 2.98584 25.5319 2.67759 25.5319 2.36935ZM0.946289 19.2816V4.15918C2.17927 4.57324 3.10401 4.77567 4.76025 4.9781C6.71554 5.28634 8.77204 5.49337 10.8285 5.49337C14.3251 5.49337 16.8968 4.9827 20.2921 3.95215L19.3755 7.11945L19.454 7.15782L19.661 7.25903H19.7622L19.9692 7.36025L20.0705 7.56728L20.2775 7.66849L20.3787 7.76971L20.5857 7.87092L20.6869 7.97214L20.849 8.13415L21.0144 8.18849L21.2215 8.28971L21.4285 8.49674L21.6355 8.59795L21.8426 8.80498L22.0496 9.01201L22.2566 9.11323L22.4637 9.32026L22.6707 9.52729L22.8777 9.73432L23.0847 9.83553L23.2918 10.0426L23.4988 10.2496L23.6 10.4566L23.8071 10.6637L24.0141 10.8707L24.1153 11.0777L24.3223 11.386L24.4235 11.593L24.6306 11.8L24.7318 12.0071L24.833 12.2141L24.9252 12.4949L25.2144 12.6147L25.1205 12.7086L25.1412 12.7294L25.2425 12.9364L25.2334 12.9418L25.3299 13.2354L25.4311 13.4425L25.5323 13.6495L25.6335 13.9577L25.7347 14.1648V14.473L25.8359 14.68L25.9372 14.9883V15.1953L26.0384 15.5036V15.8118L26.1396 16.0188V16.3271V16.5341L26.2408 16.8424V17.1506V17.3576V17.4462C27.2116 17.3714 28.1488 17.2295 29.0334 17.0181V32.1405C28.6996 32.038 28.4105 31.9419 28.1404 31.8522C27.3309 31.5831 26.6926 31.371 25.5369 31.2157C23.5816 30.8017 21.5251 30.7005 19.3628 30.7005C15.8663 30.7005 12.9817 31.4182 9.69217 32.5499L11.1322 28.4369C12.3282 28.8349 13.9809 28.9662 15.7956 28.7489H15.6547H15.4476H15.1394H14.8311H14.6241H14.3159H14.0076L13.8006 28.6477H13.4923H13.1841L12.9771 28.5465L12.6688 28.4453H12.3606L12.1535 28.344L11.8453 28.2428L11.5371 28.1416H11.3423L11.3392 28.1508L11.031 28.0496L10.8239 27.9484L10.5157 27.7414L10.3087 27.6401L10.0004 27.5389L9.7934 27.4377L9.48515 27.2307L9.27812 27.1295L9.07109 27.0283L8.86406 26.8212L8.55582 26.72L8.34879 26.513L8.14176 26.3059L7.93473 26.2047L7.7277 25.9977L7.52067 25.7907L7.31364 25.5836L7.10661 25.4824L7.00539 25.2754L6.79836 25.0684L6.59133 24.8613L6.49012 24.6543L6.28308 24.4473L6.07605 24.2402L5.97484 23.932L5.76781 23.725L5.66659 23.5179L5.56538 23.3109L5.35835 23.1039L5.25713 22.7956L5.15592 22.5886L5.0547 22.3816L5.05987 22.3785L4.96269 22.0825L4.86148 21.8755L4.76026 21.6685L4.65904 21.3602L4.55783 21.1532L4.45661 20.8449V20.6379L4.3554 20.3297L4.25419 20.1226V19.8144L4.15297 19.5062V19.2991V18.9909L4.07598 18.8334C2.97111 18.9011 1.91779 19.0494 0.946289 19.2816ZM4.66825 18.805V18.9955V19.2025L4.76946 19.5107V19.7178L4.87067 19.9248V20.2331L4.97189 20.4401L5.07311 20.7483V20.9554L5.17432 21.1624L5.27554 21.4706L5.37675 21.6777L5.42413 21.7746H5.46052V21.6734H5.56174H5.66295H5.76417H5.86538L5.96659 21.5721H6.06781H6.16902H6.27024H6.37146H6.47267H6.57389H6.6751H6.77632H6.87753H7.08456L7.18577 21.6734H7.21157V21.4567L7.11035 21.2497V21.0427V20.7344V20.532V20.3249V20.0167V19.8097V19.5014V19.2944V18.9862V18.8411C6.28033 18.7897 5.46272 18.7773 4.66825 18.805ZM7.72684 18.8863V19.1012V19.3082V19.5152L7.62563 19.8235V20.0305V20.2375L7.72684 20.5458V20.7528V20.9598V21.1669V21.4751V21.6821L7.72943 21.6874L7.73325 21.6642H7.83447L8.0415 21.7654H8.14271H8.24393H8.45096L8.55218 21.8666H8.65339H8.86042L8.96164 21.9678H9.16867H9.26988L9.47691 22.069H9.57812H9.78515L9.88637 22.1702H9.88949L9.98856 21.9676V21.7606V21.5535L10.0898 21.2453V21.0382V20.8312L10.191 20.6242V20.3159L10.2922 20.1089V19.9019L10.3934 19.5936V19.3866L10.4394 19.2465C9.53285 19.0827 8.62422 18.9621 7.72684 18.8863ZM12.1496 14.2188C11.2649 13.6964 10.4395 13.1154 9.69383 12.4783L9.87996 12.2922L9.98117 12.0851L10.0824 11.8781L10.2894 11.6711L10.3906 11.464L10.4918 11.257L10.6989 11.05L10.8001 10.843L11.0071 10.6359L11.1083 10.5347L11.3154 10.3277L11.4166 10.1207L11.6236 9.91362L11.7248 9.81241L11.9319 9.60538L12.0331 9.50416L12.2401 9.29713L12.2987 9.26847L12.3509 9.32062H12.5579L12.7649 8.89735V8.883L12.9624 8.78646L13.0636 8.57943L12.8732 8.32645L13.0866 8.59783L13.2937 8.49661L13.5007 8.3954L13.6019 8.29418L13.8089 8.19297L14.016 8.09175L14.1172 7.99054L14.3242 7.88933L14.5312 7.78811L14.7383 7.6869H14.8395L15.0465 7.58568L15.2535 7.48447H15.4606L15.5618 7.38325H15.7688L15.8857 7.32613C16.2166 7.3381 16.5398 7.36104 16.8519 7.39347L16.7654 7.48006L16.6641 7.58128L16.4571 7.68249L16.3559 7.78371L16.2547 7.88492L16.1535 7.98613L15.9464 8.08735L15.8452 8.18857L15.744 8.3956L15.6428 8.49681L15.5416 8.59803L15.3345 8.80506L15.2333 8.90627L15.1321 9.1133L15.5508 9.41694L15.652 9.31573L15.7532 9.21451L15.8544 9.00748L16.0614 8.90627L16.1627 8.80506L16.2639 8.70384L16.3651 8.60263L16.4663 8.50141L16.5675 8.4002L16.6687 8.29898L16.77 8.19777L16.8712 8.09655L16.9724 7.99534L17.0736 7.89412H17.1748L17.276 7.79291L17.3772 7.69169H17.4785L17.5797 7.59048H17.6809L17.7534 7.51797C17.9581 7.55363 18.1554 7.59335 18.3442 7.63661L18.352 7.64043L17.1515 10.9553L16.9792 10.871L16.8779 10.7698H16.6709L16.4639 10.6686L16.3627 10.5674H16.1556L15.9486 10.4662L15.8474 10.365H15.6404L15.5391 10.2638L15.3321 10.1625H15.2309L15.0438 10.0711L15.0953 10.0196L15.1965 9.91842L15.2977 9.71139L15.399 9.61017L15.5002 9.40314L15.0907 9.0949L14.9895 9.19611L14.7825 9.40314L14.6812 9.61017L14.58 9.71139L14.5285 9.81687L14.4074 9.75768H14.3062L14.205 9.65647L13.9979 9.55525H13.8967L13.7955 9.45404L13.6943 9.35282H13.4873L13.386 9.25161L13.2848 9.15039H13.1836L13.0824 9.04918L12.9812 8.94796H12.7741L12.5671 9.35742L12.6683 9.45864L12.7695 9.55985H12.8708L12.972 9.66107L13.0732 9.76228H13.2802L13.3814 9.8635L13.4826 9.96471H13.5839L13.7909 10.0659L13.8921 10.1671L14.0991 10.2684H14.1502L14.0694 10.4337L13.9681 10.6407L13.8669 10.8478L13.7657 11.0548L13.6645 11.2618L13.4575 11.4688L13.3563 11.6759L13.255 11.8829L13.1538 12.0899L13.0526 12.297L12.9514 12.504L12.8502 12.8122L12.749 13.0193L12.5419 13.2263L12.4407 13.4333L12.3395 13.7416L12.2383 13.9486L12.1496 14.2188ZM11.0099 19.3554V19.4924L10.9087 19.6995V20.0077L10.8075 20.2147V20.4218L10.7063 20.73V20.937L10.605 21.1441V21.3511V21.5581L10.5038 21.8664V22.0734V22.2804V22.3214L10.6087 22.3727H10.7099L10.9169 22.4739H11.124L11.2252 22.5751H11.4322L11.6392 22.6763H11.8463L11.9475 22.7775H12.1545L12.3615 22.8787L12.4627 22.98H12.6698L12.7775 23.0326L13.8486 20.0751C12.9183 19.7882 11.9668 19.5478 11.0099 19.3554ZM15.403 15.7832C14.441 15.4114 13.5125 14.9818 12.6362 14.4969L12.6523 14.4639L12.7536 14.1556L12.8548 13.9486L12.956 13.7416L13.0572 13.5345L13.2642 13.2263L13.3655 13.0193L13.4667 12.8122L13.5679 12.6052L13.6691 12.3982L13.7703 12.1912L13.8715 11.9841L13.9727 11.7771L14.074 11.5701L14.1752 11.363L14.3822 11.156L14.4834 10.949L14.5846 10.7419L14.6859 10.6407L14.7382 10.5336L14.8168 10.572L14.9181 10.6732H15.1251L15.2263 10.7744L15.4333 10.8756H15.6404L15.7416 10.9769L15.9486 11.0781H16.1556L16.2569 11.1793L16.4639 11.2805H16.6709L16.7721 11.3817L16.9632 11.4751L15.403 15.7832ZM14.3772 20.2438L13.3011 23.2156L13.3921 23.3066L13.5991 23.4078H13.8061L13.9074 23.509L14.1144 23.6102H14.3214L14.4226 23.7115L14.6297 23.8127H14.8367L14.9379 23.9139L15.1449 24.0151H15.2462L15.4532 24.1163L15.4835 24.1466L15.5784 24.0517L15.6796 23.9505L15.7808 23.7434L15.882 23.5364L15.9832 23.3294L16.0845 23.1224L16.1857 22.9153L16.3927 22.7083L16.4939 22.5013L16.5951 22.2942L16.6963 22.0872L16.7976 21.8802L16.8988 21.6731L17 21.4661L17.0562 21.2948C16.1979 20.8994 15.2996 20.5485 14.3772 20.2438ZM18.8107 16.8299C17.8307 16.6013 16.8623 16.3163 15.922 15.9771L17.4748 11.6887L17.4944 11.7084H17.7015L17.9085 11.8096L18.1155 11.9108H18.2167L18.4238 12.012H18.6308L18.8378 12.1132H18.939L19.1461 12.2144H19.3531L19.4543 12.3157H19.6614L19.7626 12.4169H19.765V12.6098L19.6638 12.8168V13.1251V13.3321L19.5626 13.5391V13.7508L19.4613 13.9578V14.2661L19.3601 14.4731V14.6801L19.2589 14.9884V15.1954L19.1577 15.4024V15.7107L19.0565 15.9177L18.9553 16.2259V16.433L18.8541 16.7412L18.8107 16.8299ZM17.5786 21.5435L17.5153 21.6731L17.414 21.8802L17.3128 22.1884L17.2116 22.3954L17.1104 22.6025L16.9034 22.8095L16.8022 23.0165L16.7009 23.2236L16.5997 23.4306L16.4985 23.6376L16.3973 23.8447L16.2961 24.0517L16.0891 24.2587L16.0217 24.3965L16.0697 24.42H16.1709L16.2721 24.5212L16.4791 24.6224L16.5804 24.7236H16.6816L16.8886 24.8248L16.9898 24.926H17.091L17.1922 25.0273L17.3993 25.1285H17.5005L17.6017 25.2297L17.7029 25.3309L17.3947 25.7404H17.2935L17.1922 25.6391L17.091 25.5379H16.9898L16.8886 25.4367L16.6816 25.3355H16.5804L16.4791 25.2343L16.3779 25.1331H16.1709L16.0697 25.0319L15.9685 24.9306H15.7614L15.7261 24.8953L15.6842 24.981L15.4772 25.1881L15.376 25.2893L15.2747 25.4963L15.1735 25.5975L14.6582 25.2893L14.8653 25.0822L14.9665 24.981L15.0677 24.774L15.1689 24.6728L15.1824 24.6453L15.1449 24.627L15.0437 24.5258H14.8367L14.7355 24.4246L14.5285 24.3233H14.4272L14.2202 24.2221L14.119 24.1209H13.912L13.7049 24.0197L13.6037 23.9185H13.3967L13.1897 23.8173L13.1116 23.7392L11.8223 27.2998H11.8748H11.9761H12.0773H12.1785L12.2797 27.1985H12.3809H12.4821L12.5833 27.0973H12.6846L12.7858 26.9961H12.887L12.9882 26.8949L13.0894 26.7937H13.1906L13.2918 26.6925L13.3931 26.5913L13.4943 26.49L13.5955 26.3888L13.6967 26.2876L13.7979 26.1864L13.8991 26.0852L14.0003 25.984L14.1016 25.8828L14.2028 25.7815L14.304 25.6803L14.4052 25.4733L14.5064 25.3721L14.6076 25.2709L15.1321 25.5745L15.0309 25.7815L14.8239 25.8828L14.7227 26.0898L14.6214 26.191L14.5202 26.2922L14.3132 26.4992L14.212 26.6005L14.1108 26.7017L14.0095 26.8029L13.8025 26.9041L13.7013 27.0053L13.6001 27.1065L13.4989 27.2077L13.3977 27.309L13.1906 27.4102L13.0942 27.5066H13.2569H13.3581H13.5651H13.7721L13.8733 27.4054H14.0804H14.2874L14.4944 27.3042H14.5957L14.8027 27.203H15.0097L15.2167 27.1017L15.318 27.0005H15.525L15.732 26.8993L15.8332 26.7981L16.0403 26.6969L16.2473 26.5957L16.4543 26.4944L16.5555 26.3932L16.7626 26.292L16.9696 26.1908L17.0708 26.0896L17.3918 26.3968L17.103 26.108L17.31 25.901L17.4593 25.828L17.3993 25.768L17.7075 25.3677H17.8087L17.8973 25.4563L18.0324 25.3903L18.1336 25.1833L18.3406 25.082L18.4418 24.875L18.6488 24.7738L18.8559 24.5668L18.9571 24.3597L19.1641 24.1527L19.2653 24.0515L19.4724 23.8445L19.5736 23.6374L19.6748 23.4304L19.8818 23.2234L19.983 23.0163L20.0137 22.9536C19.2588 22.4383 18.4414 21.9676 17.5786 21.5435ZM22.246 17.3952C21.2894 17.303 20.3254 17.1552 19.3693 16.9539V16.847L19.4706 16.64L19.5718 16.3318V16.1247L19.673 15.8165L19.7742 15.6095V15.3012L19.8754 15.0942V14.7859L19.9766 14.5789V14.3719L20.0778 14.0636V13.8566L20.1791 13.6496V13.4425V13.1343L20.2803 12.9273V12.7202V12.5193L20.4849 12.6193H20.5861H20.7931L20.8943 12.7205H21.1014H21.2026L21.4096 12.8217H21.5108H21.7178L21.8191 12.9229H21.9203H22.1273H22.2285L22.3297 13.0242H22.4306V13.2307L22.5318 13.539V13.7368V13.9438V14.1508V14.4591V14.6661V14.8731V15.1814V15.3884V15.5955V15.9037L22.4306 16.1107V16.419V16.626L22.3294 16.9342V17.1413L22.246 17.3952ZM20.5066 23.303L20.4983 23.32L20.2913 23.527L20.1901 23.734L19.983 23.9411L19.8818 24.1481L19.6748 24.3551L19.5736 24.5622L19.3665 24.7692L19.2653 24.9762L19.0583 25.1833L18.8513 25.2845L18.7501 25.4915L18.543 25.6985L18.3431 25.7963L18.4206 25.8738H18.5218L18.6231 25.975L18.7243 26.0762H18.8255L18.9267 26.1774V26.2786H19.0279L19.1291 26.3798V26.4811H19.2303V26.5823H19.3316V26.6835L19.4328 26.7847V26.8859L19.534 26.9871V27.0884V27.1896V27.2435L19.579 27.2215L19.5798 27.2235L19.7723 27.1295L20.0805 27.0283L20.2875 26.927L20.4946 26.72L20.7016 26.6188L20.9086 26.5176L21.1157 26.3105L21.3227 26.2093L21.5297 26.0023L21.7367 25.9011L21.9438 25.6941L22.1508 25.5928L22.3578 25.3858L22.4591 25.1788L22.5553 25.1317C21.9584 24.4747 21.2689 23.8645 20.5066 23.303ZM25.6243 17.4845C24.718 17.5274 23.7865 17.5139 22.8447 17.4458V17.2563L22.9459 16.9481V16.741L23.0471 16.4328V16.2257V15.9175V15.7105L23.1483 15.4022V15.1952V14.8869V14.6799V14.3717V14.1646V13.9576L23.0471 13.6494V13.4423V13.2353V13.0196H23.0843L23.1855 13.1208H23.2867H23.3879H23.5949H23.6961H23.7974H23.8986H23.9998H24.101H24.2022H24.3034V13.0196H24.4046H24.5059H24.6071H24.6533L24.7212 13.2263L24.7134 13.2308L24.8146 13.4379L24.9158 13.6449L25.017 13.8519V14.151L25.1182 14.358L25.2195 14.565L25.3207 14.8733V15.0803L25.4219 15.3885V15.5956L25.5231 15.8026V16.1109L25.6243 16.3179V16.6261V16.8332V17.1414V17.3484V17.4845ZM22.9259 25.5602L22.8685 25.5882L22.6615 25.7953L22.5603 26.0023L22.3532 26.2093L22.1462 26.3105L21.838 26.5176L21.6309 26.6188L21.4239 26.8258L21.2169 26.927L21.0098 27.1341L20.8028 27.2353L20.4946 27.3365L20.3179 27.5131C21.3021 27.0806 22.2659 26.5352 23.1675 25.8652C23.0892 25.7625 23.0086 25.6608 22.9259 25.5602ZM19.7705 27.7415L19.7699 27.7401L19.7538 27.7481L19.7705 27.7415ZM17.5153 28.4453H17.5087L17.5027 28.4482L17.5153 28.4453ZM16.5026 28.6477H16.4782L16.4657 28.6538L16.5026 28.6477ZM11.4612 7.89729C12.321 7.61582 13.2245 7.44855 14.1155 7.37038L14.108 7.37405L13.901 7.47527L13.6939 7.57648L13.4869 7.67769L13.2799 7.77891L13.1786 7.88012L12.9716 8.08715L12.768 8.18671L12.7554 8.16997L12.5484 8.27118L12.3413 8.47821L12.293 8.52658L12.2589 8.49249H12.1577V8.39128H12.0564L11.9552 8.29006L11.854 8.18885H11.7528V8.08764H11.6516V7.98642H11.5504L11.4612 7.89729ZM10.9201 8.09225L10.9339 8.10604L11.0351 8.20725L11.1363 8.30847L11.2375 8.40968L11.3387 8.5109L11.4399 8.61211H11.5412V8.71333L11.6424 8.81454H11.7436L11.823 8.89393L11.7248 9.0947L11.5178 9.19592L11.3108 9.40295L11.2096 9.50416L11.0025 9.71119L10.7955 9.91822L10.6943 10.1253L10.4872 10.3323L10.386 10.5393L10.179 10.7463L10.0778 10.9534L9.87076 11.1604L9.76954 11.3674L9.66833 11.5745L9.4613 11.7815L9.36008 11.9885L9.31054 12.1394C8.72917 11.6072 8.20252 11.0384 7.74148 10.4345C8.55619 9.33654 9.6769 8.58306 10.9201 8.09225ZM5.67216 22.2899H5.64108L5.67119 22.3816L5.77241 22.5886L5.87362 22.7956L5.97484 23.0027L6.18187 23.2097L6.28308 23.4167L6.3843 23.6238L6.59133 23.8308L6.69255 24.0378L6.89958 24.2448L7.00079 24.4519L7.20782 24.6589L7.41485 24.8659L7.51606 25.073L7.72309 25.1742L7.93012 25.3812L8.13715 25.5882L8.34418 25.6895L8.55121 25.8965L8.75824 26.1035L8.96527 26.2047L9.05154 26.291L8.95983 26.1034L8.85861 26.0022L8.75739 25.7951L8.65618 25.6939L8.44915 25.4869L8.34793 25.2799L8.24672 25.0728L8.1455 24.9716L8.04429 24.7646V24.5576L7.94308 24.3505L7.84186 24.1435L7.74065 23.9365L7.63943 23.7294V23.5224L7.53822 23.3154V23.1084L7.437 22.9013L7.62104 22.8274L7.414 22.9013V22.6943L7.31278 22.386V22.1886H7.29159H7.19038H7.08916H6.98795H6.88673H6.78552H6.6843H6.58309H6.48187H6.38065H6.27944H6.17823H6.07701H5.9758H5.87458H5.77337H5.67216V22.2899ZM9.1723 26.4118L9.08046 26.3199L9.26807 26.4116L9.35992 26.5035L9.1723 26.4118ZM13.5697 28.0219L13.5506 28.0312H13.5982L13.8052 28.1324H14.1134H14.3205H14.6287L14.8357 28.2336H15.144H15.4522L15.6593 28.1324H15.8663H16.1745H16.3816L16.6898 28.0312H16.8968H17.2051L17.4121 27.93L17.7204 27.8288H17.9274L18.1344 27.7276L18.4427 27.6263H18.6497L18.8567 27.5251L19.165 27.4239L19.3539 27.3315L18.9175 27.185V27.0838V26.9825V26.8813H18.8163V26.7801H18.7151V26.6789H18.6138L18.5126 26.5777L18.4114 26.4765L18.3102 26.3752H18.209V26.274H18.1078L18.0066 26.1728H17.9053V26.1678L17.8207 26.2092L17.6137 26.4162L17.5125 26.5175L17.4956 26.5006L17.2916 26.6003L17.0846 26.8073L16.8776 26.9085L16.6706 27.0097L16.4635 27.1109L16.3623 27.2122L16.1553 27.3134L15.9483 27.4146L15.7412 27.5158L15.5342 27.617H15.3272L15.1201 27.7182L14.9131 27.8194H14.8119L14.6049 27.9207H14.3978L14.1908 28.0219H13.9838H13.7767H13.5697ZM24.2165 12.3153L24.3089 12.5043H24.2988H24.1976H24.0964H23.9952H23.894H23.7928H23.6915H23.5903H23.4891H23.3879H23.2867H23.1855H23.0843H22.983H22.9459V12.306L22.8447 12.0989V11.7907L22.3271 11.9568L22.8217 11.7907L22.7204 11.5837L22.6192 11.3766V11.1696L22.518 10.9626L22.4168 10.7555V10.5485L22.3156 10.3415L22.2144 10.1345L22.1132 9.92742L22.0119 9.72039L21.9107 9.61918L21.8792 9.55475L21.953 9.6285L22.16 9.72972L22.367 9.93675L22.4683 10.1438L22.6753 10.245L22.8823 10.452L23.0893 10.6591L23.1906 10.8661L23.3976 11.0731L23.4988 11.2801L23.7058 11.4872L23.8071 11.6942L24.0141 11.9012L24.1153 12.1083L24.2165 12.3153ZM20.1955 8.39552L20.1541 8.37529L20.156 8.37719V8.58422V8.68544L20.2573 8.89247V8.99368V9.20071L20.3585 9.30193V9.50896V9.71599V9.8172V10.0242V10.2313V10.4383V10.6453V10.8524V11.0594L19.8432 10.9582V10.857V10.6499V10.4429V10.3417V10.1347V9.92762V9.8264L19.742 9.61937V9.51816V9.41694V9.20991V9.1087L19.6408 9.00748V8.80045V8.69924L19.5396 8.59803V8.49681V8.3956L19.4383 8.29438V8.19316L19.3371 8.09195V8.02535L19.2662 7.99066L18.9579 7.88945L18.8666 7.84479L17.6909 11.0919H17.7015L17.9085 11.1931L18.1155 11.2943H18.2167L18.4238 11.3955H18.6308L18.732 11.4967H18.939L19.1461 11.5979L19.2473 11.6992H19.4543L19.6614 11.8004H19.7626H19.765V11.7909L19.8662 11.5839V11.3768V11.1698V10.9628L20.3815 11.0686V11.2756V11.3768V11.5839V11.8921V11.9523L20.4849 12.0028H20.5861L20.7931 12.104H20.8943H21.1014L21.2026 12.2052H21.3038H21.5108L21.612 12.3065H21.8191H21.9203H22.0215L22.2285 12.4077H22.3297H22.3319L22.3294 12.4026V12.1956L22.2288 11.9898L22.2052 11.9977V11.7907L22.1039 11.5837V11.3766L22.0027 11.1696L21.9015 10.9626V10.7555L21.8003 10.5485L21.6991 10.4473L21.5979 10.2403L21.4967 10.0332V9.93202L21.3954 9.72499L21.2942 9.51796L21.193 9.41675L21.0918 9.20972L20.9906 9.1085L20.7836 9.00729L20.6823 8.80026L20.5811 8.69904L20.4799 8.59783L20.3787 8.49661L20.3561 8.47403L20.1955 8.39552ZM7.92927 22.3032L7.91823 22.2806H7.94028H8.0415L8.14271 22.3819H8.34975H8.45096H8.55218L8.75921 22.4831H8.86042H9.06745L9.16867 22.5843H9.3757L9.47691 22.6855H9.68394H9.78515L9.88735 22.7355V22.7957V23.104L9.78613 23.311V23.4122V23.6192L9.80914 23.6233V23.8217V24.0287V24.2357V24.4427V24.6682V24.8752L9.91035 24.9764V25.1835V25.3905V25.4917L10.0116 25.6987V25.7999V26.007L10.1128 26.1082V26.3152V26.4164L10.214 26.5176V26.568L10.0824 26.5037L9.98117 26.4024L9.87996 26.1954L9.77874 26.0942L9.57171 25.993L9.4705 25.8918L9.36929 25.6847L9.26807 25.5835L9.16686 25.4823L9.06564 25.2753L8.96443 25.1741L8.86321 24.967L8.76199 24.76L8.66078 24.6588L8.55956 24.4518V24.2447L8.45835 24.1435L8.35714 23.9365L8.25592 23.7294V23.5224L8.15471 23.3154L8.05349 23.1084V22.9013L7.95228 22.6943L7.92927 22.7035V22.5103V22.3032ZM10.4026 22.9015V22.8884L10.6087 22.9892H10.8157H10.9169L11.124 23.0904L11.331 23.1916H11.4322L11.6392 23.2928H11.8463L11.9475 23.394H12.1545L12.3615 23.4952L12.4627 23.5964H12.5733L11.3087 27.0881H11.2353L11.1341 26.9869L11.0329 26.8857V26.7845H10.9317V26.6833L10.8305 26.5821V26.4808L10.7293 26.3796V26.2784V26.1772L10.6281 26.076V25.9748V25.8736L10.5268 25.6665V25.5653V25.4641V25.2571L10.4256 25.1558V25.0546V24.8476V24.7464V24.5394V24.3323V24.2311V24.0241V23.8171V23.7158L10.4026 23.7121V23.5226V23.3156V23.1085V22.9015ZM0.731094 34.2144V36.6849L0.422852 36.4779V33.9061L0.731094 34.2144ZM1.55497 34.2154V36.6859L1.14551 36.4789V33.9071L1.55497 34.2154ZM3.00027 33.8691H4.33907L5.76988 33.8737H7.10868V34.182H6.5934V36.5467L6.18394 36.1373V35.415C6.08273 35.5162 5.97691 35.5162 5.87569 35.5162C5.67326 35.4104 5.46624 35.0009 5.46624 35.0009C5.46624 35.0009 5.66866 35.1021 5.87569 35.1021C5.9263 35.1021 5.97806 35.0768 6.02982 35.0515C6.08158 35.0262 6.13334 35.0009 6.18394 35.0009V34.1774H5.87569H5.15339L5.46163 34.4856V35.1021C5.46163 35.1021 5.35582 35.3091 5.2546 35.4104C5.05217 35.5116 4.84515 35.5116 4.84515 35.5116L5.87569 36.3351L5.66866 36.5421L4.43569 35.3091C4.43569 35.3091 4.23325 35.0009 4.33447 34.8997C4.4681 34.8344 4.60174 34.9396 4.70691 35.0225C4.76468 35.068 4.81386 35.1067 4.84975 35.1067C5.05218 35.1067 4.95096 34.8997 4.95096 34.8997V34.1774H4.22866H3.8192V36.5421L3.30392 36.1327V35.8244C3.30392 35.9256 3.09689 35.9256 2.99567 35.9256C2.37918 35.8198 2.17215 35.2033 2.17215 34.8951C2.17215 34.4856 2.78864 34.4856 2.99567 34.5868L3.2027 34.8951C3.2027 34.8951 2.89446 34.8951 2.58621 34.9963C2.38378 34.9963 2.38378 35.5116 2.79324 35.5116C3.00027 35.5116 3.20731 35.5116 3.30852 35.4104V34.1774H3.00027H1.96973V33.8691H3.00027ZM6.39097 36.5467C6.70382 36.5467 7.11328 36.7538 7.11328 37.1632C7.11328 37.4715 6.91085 37.7797 6.28515 37.6785C5.76988 37.6785 5.2546 37.062 5.2546 37.062L5.35582 36.855C5.35582 36.855 5.66866 37.269 6.07812 37.3702C6.39097 37.4715 6.80043 37.269 6.80043 37.062C6.80043 36.9562 6.80043 36.855 6.5934 36.855C6.28516 36.855 6.28515 36.9562 6.28515 36.9562L5.87569 36.6479C5.91136 36.6479 5.935 36.6364 5.96635 36.6212C6.02802 36.5912 6.11951 36.5467 6.39097 36.5467ZM9.27559 33.8691H9.89208V33.8737H10.8076H12.1464V34.182H11.6311V36.5467L11.1159 36.1373V35.829C11.0146 35.9302 10.9088 35.9302 10.8076 35.9302C10.1911 35.8244 9.9841 35.2079 9.9841 34.8997C9.9841 34.4902 10.6006 34.4902 10.8076 34.5914L11.0146 34.8997C11.0146 34.8997 10.7064 34.8997 10.3982 35.0009C10.1957 35.0009 10.1957 35.5162 10.6052 35.5162C10.8122 35.5162 11.0192 35.5162 11.1205 35.415V34.182H10.8122H9.78167H9.37221V36.5467L8.96275 36.1373V35.9302C8.75572 36.0315 8.6545 36.0315 8.44747 36.0315C7.9322 36.0315 7.52274 35.5162 7.52274 35.2079C7.52274 35.0009 7.72977 34.8997 7.72977 34.8997C7.72977 34.8997 7.11328 34.6927 7.21449 34.1774C7.31571 33.5609 8.24504 33.4551 8.34626 34.1774C8.34626 34.3322 8.22508 34.4306 8.12282 34.5135L8.12277 34.5136L8.12275 34.5136L8.12272 34.5136C8.09135 34.5391 8.06177 34.5631 8.03801 34.5868L7.72977 34.2786C7.83098 34.2786 8.13923 34.1774 8.13923 33.9703C8.03341 33.7679 7.72516 33.8691 7.62395 34.1774C7.52274 34.6927 7.83098 34.7939 7.83098 34.7939H8.03801H8.24504L8.45207 35.2033H8.14383C7.62855 35.2033 7.72977 35.7186 8.24504 35.7186C8.45207 35.7186 8.76032 35.6174 8.96735 35.4104V34.1774H8.55789V33.8691C8.53337 33.8457 8.50365 33.8111 8.46989 33.7718C8.358 33.6416 8.20166 33.4597 8.04262 33.4597C7.73437 33.4597 7.73437 33.4597 7.73437 33.5609L7.52734 33.2526C7.52734 33.2526 7.73437 33.0456 8.14383 33.2526C8.29653 33.2526 8.5043 33.533 8.64345 33.7207C8.69295 33.7875 8.73376 33.8426 8.76032 33.8691H9.16978C9.06857 33.6621 8.76032 33.0456 8.55329 33.0456C8.35086 32.9444 8.14383 33.0456 8.14383 33.0456L7.9368 32.7374C7.9368 32.7374 8.14383 32.6362 8.55329 32.7374C8.73818 32.7374 9.0882 33.4749 9.23303 33.7801L9.23321 33.7805L9.23389 33.7819C9.25085 33.8177 9.26495 33.8474 9.27559 33.8691ZM21.6192 35.5116L21.8262 35.4104V34.1728H21.518H20.285H19.9768V34.9963H20.492V34.8951C20.492 34.5306 21.1446 34.5708 21.3593 34.584C21.3858 34.5856 21.4057 34.5868 21.4168 34.5868L21.6238 34.9963C21.6238 34.9963 21.518 34.8951 21.4168 34.8951H21.2097L21.6192 35.5116ZM22.751 33.8691H25.838H27.071H28.4098V34.1774H27.8945V36.5421L27.4851 36.1327V35.4104H26.7628V35.6174C26.7628 35.6174 26.7628 35.8244 26.5557 35.8244C26.3487 35.8244 25.8334 35.3091 25.8334 35.2079C25.8334 35.0009 26.0404 35.0009 26.0404 35.0009H26.2475V34.182H25.631H24.4992V34.6973C24.4992 34.6973 24.6004 34.596 24.8075 34.596C25.3227 34.596 25.631 35.1113 25.631 35.5208C25.631 36.0361 25.1157 36.0361 25.1157 36.0361L24.8075 35.7278C24.8075 35.7278 25.1157 35.622 25.2169 35.5208C25.5252 35.3137 25.3181 35.0055 25.0099 35.0055C24.8029 35.0055 24.4946 35.1067 24.4946 35.1067V36.5467L24.0852 36.1373V35.7278C24.0852 35.7278 23.8827 35.829 23.6757 35.829C23.1604 35.829 22.751 35.2125 22.751 34.9043C22.8522 34.596 23.4687 34.596 23.6757 34.596L23.8827 35.0055C23.8827 35.0055 23.4687 34.9043 23.1604 35.0055C23.0592 35.1067 23.0592 35.5162 23.4687 35.415C23.8781 35.415 24.0852 35.2079 24.0852 35.2079V34.1774H22.7464H22.6451H22.2357V36.5421L21.8262 36.1327V35.9256C21.7957 35.9256 21.7556 35.9348 21.7116 35.9449L21.7116 35.9449C21.6098 35.9683 21.4875 35.9963 21.4168 35.9256C21.1039 35.9256 20.7957 35.7186 20.6945 35.4104H19.9722V35.6174C19.9722 35.6174 19.9722 35.8244 19.7651 35.8244C19.6593 35.8244 19.0428 35.3091 19.0428 35.2079C19.0428 35.0009 19.2499 35.0009 19.2499 35.0009H19.5581V34.1866H18.9416H18.8404H18.5322V35.1113H17.6074C17.6074 35.1113 17.198 35.1113 17.198 35.6266C17.198 35.829 17.5062 36.0361 17.7132 36.0361C18.1273 36.0361 18.4355 35.6266 18.4355 35.6266L18.7438 36.0361C18.7146 36.0361 18.6766 36.0701 18.6225 36.1186C18.4891 36.2381 18.2578 36.4455 17.819 36.4455C17.405 36.4455 16.8897 35.622 16.7885 35.3137C16.7885 34.7985 17.3038 34.7985 17.3038 34.7985H18.0261V34.182H16.8943H16.6873H15.5555V34.6973C15.5555 34.6973 15.6567 34.596 15.8638 34.596C16.379 34.596 16.6873 35.1113 16.6873 35.5208C16.6873 36.0361 16.172 36.0361 16.0708 36.0361L15.8638 35.7278C15.8638 35.7278 16.172 35.622 16.2732 35.5208C16.5815 35.3137 16.3744 35.0055 16.0662 35.0055C15.8592 35.0055 15.5509 35.1067 15.5509 35.1067V36.5467L15.1415 36.1373V35.7278C15.1415 35.7278 14.8332 35.829 14.732 35.829C14.2167 35.829 13.8073 35.2125 13.8073 34.9043C13.8073 34.596 14.525 34.596 14.732 34.596L14.939 35.0055C14.939 35.0055 14.525 34.9043 14.2167 35.0055C14.1155 35.1067 14.1155 35.5162 14.525 35.415C14.9344 35.415 15.1415 35.2079 15.1415 35.2079V34.1774H13.7014V33.8691H16.6827H16.8897H18.845H18.9462H20.3862H21.4168H22.6498H22.751ZM26.7628 35.0009H27.4851L27.4805 34.1774H27.1722H26.7628V35.0009ZM27.8945 36.7492C28.304 36.9562 28.511 37.4715 28.511 37.4715L28.4052 37.5681C28.4052 37.5681 28.304 37.3656 28.0969 37.1586C27.9957 37.0574 27.7887 37.0574 27.7887 37.0574H27.4805L27.1722 36.6479H27.6875C27.6875 36.6479 27.7933 36.7492 27.8945 36.7492ZM15.3439 36.5467C15.5509 36.5467 15.9604 36.7538 15.9604 37.1632C15.9604 37.4715 15.7579 37.7797 15.2381 37.6785C14.617 37.6785 14.2075 37.062 14.2075 37.062L14.3087 36.855C14.3087 36.855 14.6216 37.269 15.031 37.3702C15.2381 37.4715 15.7533 37.269 15.7533 37.062C15.7533 36.9562 15.7533 36.855 15.4451 36.855C15.2381 36.855 15.1369 36.9562 15.1369 36.9562L14.8286 36.6479C14.8286 36.6479 14.9344 36.5467 15.3439 36.5467ZM18.2239 36.5467C18.5367 36.5467 18.9462 36.7538 18.9462 37.1632C18.9462 37.4715 18.7392 37.7797 18.1227 37.6785C17.6074 37.6785 17.0921 37.062 17.0921 37.062L17.2992 36.855C17.2992 36.855 17.5062 37.269 17.9157 37.3702C18.2285 37.4715 18.638 37.269 18.638 37.062C18.638 36.9562 18.638 36.855 18.4309 36.855C18.1227 36.855 18.1227 36.9562 18.1227 36.9562L17.8144 36.6479C17.8144 36.6479 17.8144 36.5467 18.2239 36.5467ZM21.1039 35.6174H21.4122L20.9981 35.0009L20.8969 35.1021C20.6945 35.2079 20.6945 35.6174 21.1039 35.6174ZM29.235 36.7778V34.3073L28.9268 33.999V36.5708L29.235 36.7778ZM30.0596 34.3073V36.7778L29.6455 36.5708V33.999L30.0596 34.3073ZM61.5974 12.2416L61.4831 12.246C61.3416 13.2212 61.1994 14.1986 61.0569 15.1774L61.0568 15.178C60.5879 18.4002 60.1167 21.6385 59.661 24.8689H61.4171C61.4735 24.2431 61.5225 23.6165 61.5715 22.9899V22.9899C61.7408 20.8272 61.9101 18.6637 62.381 16.5241C62.7814 17.4569 63.1819 18.3883 63.5823 19.3197C64.3834 21.1832 65.1845 23.0466 65.9857 24.9218C66.0292 24.9218 66.0742 24.9189 66.1196 24.916C66.2121 24.9101 66.3065 24.9041 66.395 24.9218C66.9496 25.0406 67.2136 24.7765 67.4249 24.2616C68.4548 21.8188 69.5111 19.3893 70.5674 16.9598C70.6197 16.8344 70.6802 16.7255 70.7425 16.6135L70.7625 16.5775L70.7919 16.5241C70.8117 16.5241 70.8348 16.5274 70.8579 16.5307C70.881 16.534 70.9041 16.5373 70.924 16.5373C71.0618 17.9915 71.2033 19.4422 71.3446 20.8912V20.8913V20.8914V20.8915L71.3446 20.8918L71.3446 20.8923L71.3447 20.8928L71.3447 20.8933L71.3455 20.9016L71.3458 20.9044L71.346 20.9065L71.3462 20.9086L71.3464 20.9107L71.3466 20.9121L71.3467 20.9135L71.3468 20.9149L71.347 20.9162C71.4755 22.2347 71.604 23.5518 71.7294 24.8689H74.8719C74.615 22.7606 74.3547 20.6556 74.0945 18.5506L74.0929 18.5377C73.8321 16.4283 73.5713 14.319 73.3139 12.2064H71.1484C69.894 15.0584 68.6661 17.8841 67.3985 20.8021C67.351 20.7335 67.3161 20.6859 67.2905 20.6511C67.2522 20.5988 67.2348 20.575 67.2268 20.5513C66.6924 19.2052 66.1579 17.8624 65.6234 16.5196L65.6225 16.5173C65.0878 15.1739 64.553 13.8304 64.0183 12.4836C64.0072 12.456 63.9975 12.4289 63.9881 12.4028C63.93 12.2416 63.8853 12.1176 63.6354 12.1403C62.9368 12.1902 62.2501 12.2166 61.5974 12.2416ZM100.872 25.2521C100.696 25.2252 100.505 25.2017 100.304 25.1771C99.8144 25.1167 99.267 25.0493 98.7329 24.9088C95.9469 24.1826 94.27 22.0567 94.1643 19.1783C94.1247 17.9899 94.2436 16.828 94.6925 15.7056C95.3395 14.1212 96.4486 12.9724 98.0595 12.3782C100.225 11.5728 102.417 11.586 104.569 12.4707C106.721 13.3553 107.857 15.0586 108.108 17.3429C108.24 18.4785 108.174 19.614 107.804 20.7099C106.959 23.2319 105.15 24.5919 102.588 25.0672C102.25 25.1496 101.892 25.1749 101.472 25.2046C101.285 25.2178 101.087 25.2318 100.872 25.2521ZM104.952 18.4388C104.952 17.3033 104.807 16.2206 104.331 15.2171C103.684 13.8439 102.641 13.0648 101.07 13.1045C99.5648 13.1441 98.5613 13.9627 98.0199 15.3095C97.2012 17.3297 97.1484 19.4159 97.8482 21.4757C98.3236 22.8622 99.2743 23.8128 100.832 23.9185C102.417 24.0241 103.579 23.2847 104.292 21.7662C104.78 20.6967 104.939 19.5612 104.952 18.4388ZM78.5031 12.1331C78.0262 12.1367 77.548 12.1402 77.0674 12.1402C77.3067 15.856 77.2411 19.5128 77.1762 23.1274C77.1659 23.7001 77.1556 24.2718 77.1466 24.8424C77.467 24.8424 77.7829 24.8409 78.0953 24.8394C78.7099 24.8365 79.311 24.8337 79.9062 24.8424C80.2075 24.8424 80.5064 24.8571 80.8039 24.8717C81.1973 24.8911 81.5883 24.9103 81.9792 24.8952C82.9563 24.8688 83.907 24.6444 84.7125 24.0634C85.914 23.1919 86.2837 21.9772 86.0064 20.5776C85.7556 19.2704 84.8181 18.597 83.5769 18.3065C83.4845 18.2867 83.3954 18.2636 83.3062 18.2405L83.3061 18.2404C83.217 18.2173 83.1279 18.1942 83.0356 18.1744C83.2732 17.9764 83.4977 17.8972 83.7222 17.8179C84.62 17.4878 85.3727 16.9861 85.6631 16.009C86.1121 14.5434 85.3991 13.0909 83.8806 12.5364C83.2336 12.2987 82.5074 12.1798 81.8208 12.1534C80.713 12.1165 79.6116 12.1248 78.5031 12.1331ZM80.1769 22.1488C80.1571 21.7362 80.1373 21.3236 80.1175 20.9076H80.1439C80.1439 20.3003 80.1439 19.7061 80.1307 19.1119C80.1307 18.8214 80.2363 18.7422 80.5136 18.7554C82.0849 18.795 82.8375 19.5212 82.8507 21.0925C82.8507 21.4754 82.8243 21.8583 82.7319 22.228C82.4678 23.2844 81.6227 23.8389 80.5268 23.7465C80.2759 23.7201 80.2495 23.6013 80.2363 23.39C80.2165 22.9741 80.1967 22.5614 80.1769 22.1488ZM80.6192 13.3022C82.0321 13.2758 82.7583 13.9756 82.7583 15.3884C82.7583 16.7748 81.9 17.6991 80.6324 17.6727C80.2891 17.6727 80.1307 17.5671 80.1439 17.1973C80.1967 16.009 80.2231 14.8338 80.2363 13.6587C80.2363 13.3814 80.3552 13.3022 80.6192 13.3022ZM126.721 22.1244L126.721 22.1237L126.752 21.8463C127.056 21.7143 127.175 21.8463 127.281 22.1368C127.809 23.6949 129.75 24.4211 131.215 23.6817C132.192 23.1799 132.655 21.437 131.361 20.7504C130.849 20.4754 130.324 20.218 129.798 19.9605L129.798 19.9604L129.797 19.9602L129.797 19.9598C129.414 19.7724 129.032 19.5849 128.654 19.3904C127.716 18.9151 126.977 18.2681 126.673 17.2118C125.894 14.5314 127.479 12.2735 130.317 12.0622C131.677 11.9566 132.971 12.1943 134.186 12.8413C134.14 13.022 134.095 13.2018 134.05 13.3809L134.048 13.3888C133.926 13.8743 133.806 14.3547 133.671 14.8351C133.645 14.9143 133.539 15.0331 133.473 15.0331C133.381 15.0199 133.236 14.9275 133.222 14.8483C132.905 13.5543 131.479 12.9469 130.067 13.3034C129.446 13.4618 128.984 13.8184 128.852 14.4785C128.72 15.1652 128.878 15.7989 129.525 16.1422C130.37 16.5912 131.255 17.0005 132.14 17.3834C133.777 18.0832 134.662 19.3508 134.648 21.0277C134.635 22.797 133.671 24.1966 132.034 24.8304C130.344 25.5038 127.743 25.253 126.462 24.3023C126.555 23.5663 126.638 22.8407 126.72 22.1254V22.1253V22.1252L126.72 22.1249L126.721 22.1244ZM110.428 23.0853L110.425 23.1023L110.424 23.1062C110.356 23.5181 110.29 23.9217 110.22 24.3406C112.28 25.3837 114.405 25.6478 116.544 24.5387C117.997 23.7464 118.472 22.36 118.459 20.7624C118.433 19.2835 117.667 18.2932 116.426 17.6066C116.296 17.5337 116.157 17.4758 116.016 17.4175L116.016 17.4174L116.016 17.4174C115.928 17.3806 115.839 17.3438 115.752 17.3029C115.572 17.2172 115.392 17.1328 115.212 17.0486C114.588 16.7565 113.967 16.466 113.362 16.1278C112.728 15.7713 112.61 15.1507 112.742 14.4773C112.874 13.8567 113.283 13.487 113.877 13.3417C115.25 12.9984 116.544 13.421 117.086 14.8206C117.115 14.9083 117.223 14.9745 117.331 15.0403C117.37 15.0636 117.408 15.0869 117.442 15.1111C117.627 14.2792 117.786 13.5662 117.957 12.8532C116.531 12.1006 115.026 11.8761 113.455 12.1798C112.214 12.4175 111.197 13.0248 110.721 14.2528C110.035 16.0089 110.141 18.4253 112.715 19.508C113.382 19.7813 114.022 20.127 114.657 20.4701L114.877 20.5892C114.936 20.6207 114.994 20.652 115.052 20.6831C115.752 21.0528 116.043 21.6734 115.884 22.4525C115.739 23.2051 115.264 23.6672 114.524 23.8521C113.164 24.1954 111.474 23.6408 110.999 22.0563C110.982 21.9804 110.906 21.9206 110.815 21.8495C110.764 21.8093 110.708 21.7655 110.655 21.713C110.574 22.199 110.5 22.647 110.428 23.0853ZM46.6561 12.8413C46.5609 13.2028 46.4658 13.5521 46.3692 13.9068L46.3692 13.9068L46.3692 13.907L46.3692 13.907C46.2647 14.2907 46.1585 14.6807 46.0487 15.0992C46.0124 15.071 45.9713 15.0453 45.9304 15.0197C45.8374 14.9616 45.7461 14.9045 45.7186 14.8219C45.2168 13.4487 43.9229 12.9866 42.5628 13.3035C41.9423 13.4487 41.5065 13.8052 41.3745 14.439C41.2425 15.1256 41.3613 15.7594 42.0083 16.1159C42.5424 16.4056 43.0952 16.6643 43.6453 16.9217L43.6458 16.922C43.8979 17.0399 44.1493 17.1576 44.3982 17.2779C44.4951 17.3238 44.5941 17.3658 44.6927 17.4076C44.8492 17.474 45.005 17.5401 45.1508 17.6212C46.5504 18.4134 47.1842 19.6017 47.0654 21.1994C46.9466 22.7839 46.2732 24.0515 44.7679 24.6853C42.7477 25.5435 40.7671 25.3058 38.8525 24.3155C38.8948 24.0388 38.9353 23.7671 38.9754 23.4985L38.9756 23.4973L38.9757 23.4965L38.9757 23.496L38.9759 23.4951C39.0484 23.0089 39.1194 22.5333 39.1958 22.0577C39.2055 21.9805 39.2574 21.9175 39.3104 21.8531C39.33 21.8293 39.3497 21.8053 39.3675 21.7804C39.3969 21.8056 39.4317 21.8282 39.4663 21.8506C39.5404 21.8986 39.6136 21.9461 39.6316 22.0181C40.0937 23.6157 41.8234 24.1835 43.2362 23.8006C43.5003 23.7346 43.7512 23.6025 43.9757 23.4309C44.9263 22.7179 44.9131 21.3843 43.9096 20.7637C43.291 20.3887 42.6323 20.067 41.9763 19.7465L41.9762 19.7465C41.7082 19.6156 41.4407 19.4849 41.1764 19.3509C40.1333 18.8227 39.3411 18.0701 39.1166 16.8685C38.6149 14.1749 40.0541 12.2868 42.7873 12.0227C44.1077 11.9303 45.5733 12.2207 46.6561 12.8413ZM48.9087 12.1647L48.9081 12.1647C48.6105 12.1655 48.3087 12.1664 48.001 12.1664C48.0262 12.2168 48.0475 12.2576 48.0658 12.2924C48.0953 12.3488 48.1167 12.3897 48.133 12.4305C48.6059 13.3086 49.0808 14.1868 49.5561 15.0658C50.2887 16.4203 51.0222 17.7768 51.7509 19.1381C51.8829 19.3889 51.949 19.6926 51.949 19.9699C51.9357 21.4091 51.9093 22.8484 51.8829 24.2876V24.8554H55.0387C55.0321 23.9839 55.0222 23.1124 55.0123 22.241C55.0024 21.3695 54.9925 20.4981 54.9859 19.6266C54.9859 19.4153 55.0255 19.1777 55.1179 19.006C55.9467 17.4752 56.7827 15.9516 57.6205 14.4246L57.6215 14.4229L57.6243 14.4177C57.9198 13.8791 58.2155 13.3401 58.5113 12.8002C58.5728 12.6926 58.6387 12.594 58.7143 12.4809C58.7686 12.3997 58.828 12.3109 58.8942 12.206H56.8212C56.0158 13.9357 55.1971 15.6786 54.3257 17.5272C54.2613 17.4049 54.2095 17.3108 54.1656 17.2313L54.1651 17.2303L54.165 17.2302C54.1192 17.147 54.0821 17.0796 54.0484 17.0122C53.7507 16.4009 53.4551 15.7895 53.16 15.179C52.722 14.2732 52.285 13.3693 51.8433 12.4701C51.7773 12.338 51.6057 12.1796 51.4736 12.1796C50.6259 12.1599 49.7856 12.1622 48.9087 12.1647ZM88.4854 12.1943H91.6411V24.8701H88.4854V12.1943ZM120.876 24.8569H124.058C123.741 20.6317 123.9 16.4064 124.085 12.1943H120.876V24.8569Z" fill="#A2A8B7"/>
</svg>
