<svg width="97" height="24" viewBox="0 0 97 24" fill="none" xmlns="http://www.w3.org/2000/svg">
	<path fill-rule="evenodd" clip-rule="evenodd" d="M23.671 0.960708C23.7636 0.34319 24.0724 0.0653077 24.6899 0.0653077C25.2399 0.069181 25.7131 0.0638224 26.1188 0.0592282C27.3706 0.0450537 27.9798 0.0381555 28.2186 0.332117C28.4449 0.610807 28.3382 1.15991 28.1304 2.22958C28.0621 2.58109 27.9829 2.98882 27.901 3.46165C27.1831 7.62993 26.4131 11.7982 25.6432 15.9665C25.3865 17.3559 25.1299 18.7452 24.8751 20.1346C24.4737 22.265 23.4548 23.3148 21.6332 23.3766C19.4719 23.4383 18.3912 22.6047 17.8354 20.4125C16.8166 16.3988 15.7668 12.4159 14.7171 8.43303L14.717 8.43266C14.6942 8.29584 14.6208 8.17586 14.497 7.97321L14.497 7.97318C14.4531 7.90146 14.403 7.81937 14.3465 7.72252C13.1114 12.1378 11.9381 16.3369 10.7957 20.536C10.2091 22.6356 9.1902 23.4383 7.05976 23.3457C5.14546 23.2531 4.37356 22.4503 3.97218 20.2272C3.58132 18.129 3.19389 16.0307 2.80646 13.9324L2.80631 13.9316L2.8061 13.9304L2.80582 13.9289L2.80576 13.9286L2.80574 13.9285C2.03042 9.72939 1.2551 5.53031 0.452331 1.33122C0.2362 0.34319 0.452331 0.0653077 1.44036 0.0344319L1.44972 0.0341223C3.30854 -0.0273275 4.21724 -0.0573677 4.71861 0.37977C5.19813 0.797849 5.30507 1.64326 5.51428 3.29721L5.54685 3.55428C5.91428 6.47336 6.3627 9.37895 6.81178 12.2889L6.81178 12.2889L6.81179 12.2889L6.81179 12.289L6.8118 12.289L6.81181 12.2891L6.81182 12.2891C7.04198 13.7805 7.27232 15.2731 7.49203 16.7691C7.58465 16.8 7.70816 16.8 7.80079 16.8C8.07867 15.7657 8.36427 14.7236 8.64987 13.6816C8.93547 12.6395 9.22107 11.5974 9.49896 10.5631C10.2091 7.78427 10.9192 5.03632 11.6911 2.28837C12.0925 0.929832 12.9879 0.0653077 14.47 0.0961836C15.9829 0.127059 16.8165 1.02246 17.187 2.381C17.7582 4.5423 18.3217 6.71133 18.8852 8.88036C19.4487 11.0494 20.0122 13.2184 20.5834 15.3797C20.7069 15.8429 20.8613 16.306 21.3244 16.7383L22.4359 9.42069C22.6366 8.01584 22.845 6.60327 23.0535 5.19071C23.2619 3.77813 23.4703 2.36556 23.671 0.960708ZM68.9356 11.397C68.1946 12.138 68.3181 12.7246 68.7195 13.5583C69.3651 14.8936 69.9829 16.2358 70.5992 17.5751L70.5994 17.5756L70.5997 17.5761L70.5999 17.5767L70.6002 17.5772C71.2804 19.0553 71.959 20.5299 72.6716 21.9874C73.1656 23.0372 72.9495 23.2224 71.838 23.3768C69.4297 23.6856 68.0711 22.9754 67.114 20.5671C66.7816 19.7547 66.4382 19.0195 66.0969 18.289L66.0969 18.289L66.0968 18.2888L66.0967 18.2886L66.0966 18.2883C65.8673 17.7975 65.6391 17.3089 65.4158 16.8003C65.107 16.0592 64.7983 15.9357 64.119 16.5533C64.0543 16.6105 63.9918 16.6655 63.9314 16.7187C62.4914 17.9869 62.2318 18.2154 62.143 21.7713C62.1121 23.0681 61.7724 23.3459 60.5065 23.3768H59.4259C58.3143 23.3459 58.0673 22.9754 58.0673 21.9565C58.1136 17.9509 58.1079 13.9278 58.1021 9.90047C58.1001 8.55737 58.0982 7.21379 58.0982 5.87021C58.0982 5.35446 58.1051 4.84216 58.112 4.331C58.1257 3.3121 58.1393 2.29775 58.0982 1.2697C58.0673 0.343427 58.4379 0.0346683 59.3641 0.0655442C59.7568 0.0726833 60.0954 0.0736323 60.3872 0.0744502C61.3625 0.0771836 61.8155 0.0784533 62.0187 0.304402C62.195 0.500405 62.1833 0.86548 62.1615 1.54725C62.1509 1.87859 62.1379 2.28473 62.143 2.78262C62.1632 5.07577 62.1569 7.38226 62.1501 9.82481V9.82542V9.82604V9.82666V9.82728C62.1466 11.1002 62.143 12.4102 62.143 13.7744C62.773 13.016 63.3546 12.3105 63.9076 11.6396L63.9083 11.6388C64.8185 10.5347 65.6515 9.52412 66.4964 8.52553C67.9608 6.78493 69.3015 6.79965 71.3371 6.822C71.5763 6.82463 71.8252 6.82736 72.085 6.82736C72.826 6.82736 72.4555 7.414 72.1776 7.72276C71.843 8.1052 71.5143 8.49356 71.186 8.88143L71.1858 8.88166C70.454 9.74627 69.7242 10.6084 68.9356 11.397ZM79.2956 1.63782C79.3144 0.886955 79.324 0.502465 79.1366 0.303741C78.94 0.0951921 78.5264 0.0912319 77.6787 0.0831157C77.3907 0.0803585 77.0527 0.0771218 76.656 0.0652218C75.421 0.034346 75.0813 0.404856 75.1122 1.60901C75.1585 4.08739 75.1527 6.58314 75.1469 9.07019V9.07057V9.07095V9.07133C75.145 9.89918 75.1431 10.7261 75.1431 11.551C75.1431 12.5699 75.1396 13.5888 75.1362 14.6077C75.1293 16.6456 75.1225 18.6834 75.1431 20.7212C75.147 21.1058 75.1434 21.4334 75.1402 21.7125V21.7129V21.7134C75.1311 22.5214 75.1266 22.923 75.3252 23.1264C75.5215 23.3273 75.9161 23.3346 76.7009 23.349C76.9826 23.3541 77.3146 23.3602 77.7058 23.3765C79.0026 23.4382 79.3422 23.006 79.3113 21.7401C79.276 18.0878 79.2811 14.4457 79.2861 10.8078V10.8074V10.807V10.8065C79.2899 8.0787 79.2937 5.35331 79.2804 2.62792C79.2804 2.24202 79.2886 1.91507 79.2956 1.63801V1.63791V1.63782ZM49.2035 7.29028C51.1487 6.76539 53.1248 6.76539 55.1317 6.79627C55.811 6.79627 55.9962 7.1359 56.0271 7.69167V9.08108C56.0271 10.2235 55.6257 10.4705 54.6068 10.4396C53.8349 10.4087 53.1248 10.4396 52.322 10.594C51.334 10.8101 50.9634 11.1806 50.9943 12.1995C51.0252 13.8051 51.0175 15.4106 51.0098 17.0162C51.002 18.6217 50.9943 20.2273 51.0252 21.8328C51.0561 22.9752 50.6547 23.3457 49.5123 23.3457C49.3658 23.3457 49.2265 23.3493 49.0894 23.3528C48.8219 23.3596 48.5631 23.3661 48.2772 23.3457C47.0113 23.284 46.7026 22.9135 46.7335 21.7402C46.7996 20.3949 46.787 19.0496 46.7744 17.7043C46.7694 17.1661 46.7643 16.628 46.7643 16.0899C46.7643 15.4621 46.7609 14.8343 46.7575 14.2065C46.7506 12.9509 46.7437 11.6952 46.7643 10.4396C46.7952 8.49444 47.3201 7.78429 49.2035 7.29028ZM86.3486 16.0283C87.2966 16.0695 88.2584 16.0557 89.2155 16.0419C89.6924 16.0351 90.1681 16.0283 90.6404 16.0283H95.2409C96.2289 16.0283 96.692 15.5034 96.7847 14.5153C97.1861 10.3471 94.8086 7.01251 90.8874 6.27149C86.4104 5.46872 82.6744 7.66091 81.5938 11.7674C81.0689 13.7743 81.038 15.8121 81.5938 17.8191C82.3965 20.7214 84.28 22.4504 87.2132 23.068C90.0044 23.6444 92.7658 23.1476 95.468 22.6615L95.6114 22.6357C96.8201 22.4108 96.4934 21.1368 96.262 20.2346L96.262 20.2344C96.2392 20.1457 96.2174 20.0606 96.198 19.9804C96.0271 19.2967 95.6722 19.3226 95.2303 19.355C95.1932 19.3577 95.1556 19.3605 95.1174 19.3629C94.7474 19.3981 94.3786 19.4367 94.0102 19.4752L94.0096 19.4753C92.4414 19.6393 90.8819 19.8025 89.2818 19.7025C87.3675 19.6099 85.9164 18.591 85.4841 17.1089C85.3297 16.3679 85.4532 15.9974 86.3486 16.0283ZM85.4841 11.8291C85.8546 10.1927 87.244 9.23558 89.1892 9.29733C91.1653 9.3282 92.4312 10.3471 92.7399 12.0144C92.8634 12.6628 92.7399 12.9716 91.9989 12.9407C91.3597 12.9201 90.7067 12.927 90.0583 12.9339L90.0581 12.9339C89.7357 12.9373 89.4144 12.9407 89.0966 12.9407C88.7867 12.9407 88.4768 12.9372 88.168 12.9338C87.5539 12.9269 86.9445 12.9201 86.3486 12.9407C85.3915 13.0333 85.3297 12.5702 85.4841 11.8291ZM40.3102 6.85826C43.3978 8.18592 44.5711 10.7795 44.602 13.9906C44.602 14.2993 44.602 14.6081 44.6328 14.9169C44.9725 22.8211 37.0065 24.8898 32.3751 22.3579C30.9857 21.586 29.9977 20.4745 29.3184 19.0233C27.7746 15.7196 28.3921 10.8412 30.6461 8.52555C33.0235 6.08636 36.8521 5.37622 40.3102 6.85826ZM35.7406 20.1658C37.13 20.4745 38.8591 19.8879 39.4766 18.375C40.4955 15.9358 40.372 13.3422 39.4766 11.1809C38.5194 8.95782 35.7097 8.67993 33.9498 10.1929C32.5604 11.397 32.3134 13.0026 32.3751 14.6698C32.406 15.3182 32.4986 16.0284 32.5913 16.6768C32.8383 18.5911 33.9189 19.7644 35.7406 20.1658Z" fill="#A2A8B7"/>
</svg>
