<svg width="142" height="27" viewBox="0 0 142 27" fill="none" xmlns="http://www.w3.org/2000/svg">
	<path fill-rule="evenodd" clip-rule="evenodd" d="M0 13.5C0 6.01364 5.94701 0 13.3504 0C20.6325 0 26.5795 6.01364 26.7009 13.5C26.7009 20.9864 20.7538 27 13.3504 27C5.94701 27 0 20.9864 0 13.5ZM15.1709 17.0591C15.1709 16.4455 14.9282 16.0773 14.5641 15.7091C13.9573 15.0955 13.7145 14.3591 13.7145 13.5C13.7145 12.5182 14.0786 11.7818 14.5641 11.1682C14.9282 10.8 15.1709 10.3091 15.1709 9.81818C15.1709 8.83636 14.3214 7.97727 13.3504 7.97727C12.3795 7.97727 11.5299 8.83636 11.5299 9.81818C11.5299 10.4318 11.7726 10.9227 12.1368 11.2909C12.7436 11.9045 12.9863 12.6409 12.9863 13.5C12.9863 14.3591 12.6222 15.0955 12.1368 15.7091C12.0904 15.756 12.044 15.7849 12.0044 15.8097C11.9404 15.8497 11.894 15.8787 11.894 15.9545C11.2872 16.5682 10.559 16.8136 9.7094 16.8136C8.85983 16.8136 8.13162 16.4455 7.52479 15.9545L7.40342 15.8318C6.91795 15.2182 6.55385 14.3591 6.55385 13.5C6.55385 12.6409 6.91795 11.7818 7.40342 11.1682C7.76752 10.8 8.01026 10.3091 8.01026 9.81818C8.01026 8.83636 7.28205 7.97727 6.31111 7.97727C5.34017 7.97727 4.4906 8.83636 4.4906 9.81818C4.4906 10.4318 4.73333 10.9227 4.97607 11.2909C5.58291 11.9045 5.82564 12.6409 5.82564 13.5C5.82564 14.3591 5.46154 15.0955 4.97607 15.7091L4.8547 15.8318C4.8547 15.9545 4.8547 15.9545 4.61197 15.9545V16.0773C4.4906 16.0773 4.4906 16.2 4.4906 16.2C4.4906 16.2614 4.46026 16.3227 4.42991 16.3841C4.39957 16.4455 4.36923 16.5068 4.36923 16.5682C4.24786 16.6909 4.24786 16.8136 4.24786 17.0591C4.24786 17.1205 4.2782 17.2125 4.30855 17.3045C4.33889 17.3966 4.36923 17.4886 4.36923 17.55C4.36923 17.6114 4.39957 17.6727 4.42991 17.7341C4.46026 17.7955 4.4906 17.8568 4.4906 17.9182L4.61197 18.0409V18.1636L4.8547 18.4091C5.2188 18.7773 5.58291 18.9 6.06838 18.9C6.55385 18.9 6.91795 18.6545 7.28205 18.4091L7.40342 18.2864C8.01026 17.7955 8.73846 17.4273 9.7094 17.4273C10.6803 17.4273 11.4085 17.7955 12.0154 18.2864C12.3795 18.6545 12.865 18.9 13.3504 18.9C14.3214 18.9 15.1709 18.0409 15.1709 17.0591ZM15.0496 13.3773C15.0496 14.3591 15.8991 15.2182 16.8701 15.2182C17.841 15.2182 18.6906 14.4818 18.6906 13.3773C18.6906 12.3955 17.841 11.5364 16.8701 11.5364C15.8991 11.5364 15.0496 12.3955 15.0496 13.3773ZM21.8462 15.9545C21.8462 15.9545 21.7248 15.9545 21.6034 15.7091C21.1179 15.0955 20.7538 14.3591 20.7538 13.6227C20.7538 12.6409 21.1179 11.9045 21.6034 11.2909C21.9675 10.9227 22.2103 10.4318 22.2103 9.94091C22.2103 8.95909 21.3607 8.1 20.3897 8.1C19.4188 8.1 18.5692 8.95909 18.5692 9.94091C18.5692 10.4318 18.812 10.9227 19.1761 11.2909C19.7829 11.9045 20.0256 12.6409 20.0256 13.5C20.0256 14.3591 19.6615 15.0955 19.1761 15.7091L19.0547 15.8318L18.9333 15.9545V16.0773C18.812 16.0773 18.812 16.2 18.812 16.2C18.812 16.2614 18.7816 16.3227 18.7513 16.3841C18.7209 16.4455 18.6906 16.5068 18.6906 16.5682C18.5692 16.6909 18.5692 16.8136 18.5692 17.0591C18.5692 17.1205 18.5996 17.2125 18.6299 17.3045C18.6603 17.3966 18.6906 17.4886 18.6906 17.55C18.6906 17.6114 18.7209 17.6727 18.7513 17.7341C18.7816 17.7955 18.812 17.8568 18.812 17.9182L18.9333 18.0409V18.1636L19.1761 18.4091C19.5402 18.7773 19.9043 18.9 20.3897 18.9C20.8752 18.9 21.2393 18.6545 21.6034 18.4091L21.8462 18.1636V18.0409C21.9675 18.0409 21.9675 17.9182 21.9675 17.9182C21.9675 17.8568 21.9979 17.7955 22.0282 17.7341C22.0585 17.6727 22.0889 17.6114 22.0889 17.55C22.2103 17.4273 22.2103 17.3045 22.2103 17.0591C22.2103 16.9977 22.1799 16.9057 22.1496 16.8136C22.1192 16.7216 22.0889 16.6295 22.0889 16.5682C22.0889 16.5068 22.0585 16.4455 22.0282 16.3841C21.9979 16.3227 21.9675 16.2614 21.9675 16.2L21.8462 16.0773V15.9545ZM38.2308 3.31364V23.5636H52.3094V19.5136H43.3282V3.31364H38.2308ZM141.272 23.5636L131.32 13.5L141.272 3.43636H133.99L127.679 9.81818V3.31364H122.581V23.5636H127.679V17.1818L133.99 23.5636H141.272ZM81.9231 23.5636L83.1367 19.6364L84.2291 15.8318L86.8991 7.36364L89.4479 15.8318L90.6615 19.6364L91.8752 23.5636H97.2154L90.2974 3.31364H83.5009L76.5829 23.5636H81.9231ZM105.468 10.3091V23.5636H100.614V3.31364H106.925L114.45 17.1818V3.31364H119.304V23.5636H112.993L105.468 10.3091ZM71.8496 14.1136C72.2137 14.6045 72.5778 15.0955 72.8205 15.7091C73.0632 16.4455 73.1846 17.1818 73.0632 18.0409C73.0632 19.7591 72.5778 21.1091 71.4855 22.0909C70.3932 23.0727 68.9368 23.5636 66.8735 23.5636H60.6838H57.8923H55.5863V3.31364H57.8923H60.6838H66.1453C67.359 3.31364 68.3299 3.43636 69.1795 3.68182C70.0291 3.92727 70.6359 4.29545 71.1214 4.78636C71.7282 5.27727 71.9709 5.76818 72.2137 6.38182C72.335 6.99545 72.4564 7.60909 72.4564 8.22273C72.4564 8.83636 72.4564 9.45 72.2137 9.94091C72.0923 10.5545 71.8496 10.9227 71.4855 11.2909C71.1214 11.6591 70.7573 11.9045 70.2718 12.15C69.7863 12.3955 69.3009 12.5182 68.8154 12.6409C68.8942 12.6608 68.9761 12.6807 69.0603 12.7012C69.4946 12.8067 69.9865 12.9262 70.3932 13.1318C71 13.3773 71.4855 13.7455 71.8496 14.1136ZM66.1453 6.62727H60.8051V11.1682H66.1453C67.1162 11.1682 67.8444 11.0455 68.2085 10.5545C68.5726 10.1864 68.8154 9.57273 68.8154 8.95909C68.8154 8.59091 68.8154 8.34545 68.694 8.1C68.5726 7.85455 68.4513 7.60909 68.2085 7.36364C67.9658 7.11818 67.7231 6.99545 67.359 6.87273C66.9949 6.75 66.6308 6.62727 66.1453 6.62727ZM66.7521 19.8818C67.7231 19.8818 68.4513 19.7591 68.8154 19.2682C69.3009 18.9 69.4222 18.2864 69.4222 17.6727C69.4222 17.3045 69.4222 17.0591 69.3008 16.8136C69.1795 16.5682 69.0581 16.3227 68.8154 16.0773C68.5726 15.8318 68.3299 15.7091 67.9658 15.5864C67.6017 15.4636 67.2376 15.3409 66.7521 15.3409H60.8051V19.8818H66.7521Z" fill="#A2A8B7"/>
</svg>
