<svg width="162" height="38" viewBox="0 0 162 38" fill="none" xmlns="http://www.w3.org/2000/svg">
	<path fill-rule="evenodd" clip-rule="evenodd" d="M145.297 30.2977V36.1254L131.858 28.3551L145.297 30.2977ZM145.297 18.6447V30.2977L161.422 27.9671L145.297 37.2894L129.172 27.9671H129.174L145.297 18.6447ZM137.234 13.9835L129.172 27.9671V9.32236L145.297 0L133.203 11.6529L130.18 9.90438V23.8879L133.203 11.6529L137.234 13.9835ZM137.234 13.9835L145.297 18.6447L161.422 27.9671L161.422 9.32236L145.297 0L137.234 13.9835ZM153.36 13.9835L145.297 0V18.6447L153.36 13.9835ZM153.36 13.9835L160.414 26.2185V9.90438L153.36 13.9835ZM0.167969 13.8631H7.43941V14.8205H1.45546V17.7885H6.37364V18.7182H1.45546V22.2154H7.93576V23.1728H0.167969V13.8631ZM23.5822 18.4613L19.0117 13.8631H20.4907C20.4907 13.8631 23.7107 17.1133 24.4187 17.7734C25.1317 17.1133 28.3366 13.8631 28.3366 13.8631H29.8257L25.23 18.4613L29.9819 23.1728H28.4475L24.4212 19.1768L20.3975 23.1728H18.8631L23.5822 18.4613ZM45.5174 13.8631L45.525 13.8933L45.5376 13.8631H47.072L51.7433 23.1728H50.4255L49.2086 20.7515H43.2776L42.1009 23.1728H40.8034L45.5174 13.8631ZM46.2506 14.7928L48.8017 19.9176H43.7059L46.2506 14.7928ZM63.3458 13.8631L64.3814 13.8505L71.9703 21.6409C71.9629 21.6217 71.9641 21.5991 71.9665 21.5577C71.9681 21.5286 71.9703 21.49 71.9703 21.4368V13.8605H73.0965V23.1703H72.0005L64.4544 15.4957C64.4544 15.5039 64.4557 15.5171 64.4576 15.5357C64.462 15.5803 64.4696 15.6559 64.4696 15.7678V23.1703H63.3458V13.8631ZM84.5504 13.8631H93.845V14.8104H89.8339V23.1728H88.5489V14.8104H84.5479V13.8631H84.5504ZM105.279 13.8631H112.555V14.8205H106.566V17.7885H111.482V18.7182H106.566V22.2154H113.044V23.1728H105.279V13.8631Z" fill="#A2A8B7"/>
</svg>
