<svg width="157" height="32" viewBox="0 0 157 32" fill="none" xmlns="http://www.w3.org/2000/svg">
	<path fill-rule="evenodd" clip-rule="evenodd" d="M25.4037 3.0908C19.8711 -1.03027 12.3694 -1.03027 6.83691 3.0908L16.1203 12.5788L25.4037 3.0908ZM3.45478 6.54102C-0.577374 12.1955 -0.577374 19.8626 3.45478 25.5171L12.7382 16.029L3.45478 6.54102ZM130.821 19.2465C130.164 19.9992 129.15 20.3756 127.779 20.3756H126.452V11.6033H127.762C128.476 11.6033 129.087 11.7018 129.597 11.8987C130.107 12.0956 130.526 12.3793 130.855 12.7498C131.183 13.1204 131.422 13.572 131.569 14.1047C131.728 14.6259 131.806 15.2222 131.806 15.8939V16.0329C131.806 17.411 131.478 18.4821 130.821 19.2465ZM127.881 9.77942H124.192V22.1995H127.847C128.911 22.1995 129.841 22.049 130.634 21.7478C131.427 21.4352 132.084 21.0067 132.606 20.4624C133.127 19.9182 133.518 19.2697 133.779 18.5169C134.039 17.7526 134.169 16.9188 134.169 16.0155V15.8592C134.169 14.9559 134.039 14.1337 133.779 13.3926C133.518 12.6397 133.127 11.9971 132.606 11.4644C132.084 10.9317 131.427 10.5206 130.634 10.231C129.852 9.92996 128.935 9.77942 127.881 9.77942ZM136.392 9.77942H143.99V11.6033H138.653V15.0081H142.936V16.7451H138.653V20.3756H144.278V22.1995H136.392V9.77942ZM145.87 9.77942L149.507 15.8245L145.599 22.1995H147.91L150.765 17.353L153.62 22.1995H156.204L152.312 15.7723L155.898 9.77942H153.569L151.003 14.1916L148.419 9.77942H145.87ZM25.4037 28.8708C19.8711 32.9919 12.3694 32.9919 6.83691 28.8708L16.1203 19.3828L25.4037 28.8708ZM43.5224 22.3728C42.5705 22.3728 41.7264 22.2222 40.99 21.9211C40.2536 21.6201 39.6303 21.1973 39.1205 20.6531C38.6219 20.1088 38.2422 19.4486 37.9817 18.6728C37.7209 17.8969 37.5908 17.0284 37.5908 16.0671V15.9282C37.5908 14.9902 37.7382 14.1332 38.0325 13.3573C38.3272 12.5815 38.7351 11.9156 39.2564 11.3597C39.7889 10.8038 40.4121 10.3696 41.1258 10.0569C41.8511 9.74422 42.6386 9.58789 43.4882 9.58789C44.1795 9.58789 44.8255 9.68052 45.4257 9.8658C46.0378 10.0395 46.576 10.3059 47.0404 10.6649C47.5052 11.0238 47.8791 11.4755 48.1623 12.0198C48.457 12.5641 48.6382 13.201 48.706 13.9306H46.4118C46.2871 13.0968 45.9924 12.4714 45.528 12.0545C45.0633 11.6376 44.3892 11.4292 43.5054 11.4292C42.9729 11.4292 42.4855 11.5334 42.0438 11.7418C41.6129 11.9503 41.2451 12.2456 40.9389 12.6278C40.633 13.01 40.3952 13.479 40.2251 14.0348C40.0551 14.5907 39.9701 15.216 39.9701 15.9108V16.0498C39.9701 17.451 40.276 18.5454 40.888 19.3328C41.5113 20.1088 42.3893 20.4967 43.5224 20.4967C44.3722 20.4967 45.069 20.2824 45.6127 19.854C46.1679 19.4139 46.508 18.7539 46.6326 17.8738H48.8422C48.7514 18.6265 48.5587 19.2866 48.2643 19.854C47.9696 20.4098 47.5902 20.8731 47.1255 21.2436C46.6722 21.6142 46.1398 21.8979 45.528 22.0948C44.9159 22.2801 44.2476 22.3728 43.5224 22.3728ZM54.9433 9.78027H50.8643V22.2004H53.1249V17.1802H54.5693L57.7476 22.2004H60.1953L56.7789 16.8328C57.1528 16.7286 57.5041 16.5897 57.8327 16.4159C58.1612 16.2422 58.4444 16.0221 58.6825 15.7558C58.9318 15.4779 59.1246 15.1536 59.2604 14.783C59.4078 14.4125 59.4813 13.984 59.4813 13.4976V13.4282C59.4813 12.7911 59.3681 12.247 59.1415 11.7953C58.9261 11.3321 58.6145 10.9557 58.2066 10.6662C57.81 10.3651 57.334 10.1451 56.7789 10.0061C56.2237 9.85554 55.6119 9.78027 54.9433 9.78027ZM57.2548 13.5497C57.2548 14.8699 56.4842 15.53 54.9433 15.53H53.1249V11.5695H54.9433C55.6685 11.5695 56.2352 11.7084 56.643 11.9863C57.0509 12.2643 57.2548 12.7623 57.2548 13.4803V13.5497ZM64.5604 16.8154L60.5322 9.78027H63.0307L65.767 14.922L68.4355 9.78027H70.6451L66.8377 16.8328V22.2004H64.5604V16.8154ZM76.3006 9.78027H72.3916V22.2004H74.652V17.4755H76.3514C76.9974 17.4755 77.5922 17.4002 78.1362 17.2497C78.6914 17.0991 79.1615 16.8734 79.5467 16.5722C79.9433 16.2596 80.2492 15.8658 80.4646 15.3911C80.6912 14.9162 80.8044 14.3488 80.8044 13.6886V13.6192C80.8044 12.9707 80.6967 12.409 80.4816 11.9342C80.2664 11.4479 79.9603 11.0484 79.5636 10.7357C79.1785 10.4114 78.7083 10.174 78.1531 10.0234C77.5979 9.86133 76.9804 9.78027 76.3006 9.78027ZM78.0003 15.2694C77.6149 15.6284 77.0485 15.808 76.3006 15.808H74.652V11.5695H76.3006C77.0258 11.5695 77.5867 11.7257 77.9831 12.0384C78.3912 12.3512 78.5951 12.8781 78.5951 13.6192V13.6886C78.5951 14.3835 78.3967 14.9105 78.0003 15.2694ZM85.2465 11.6042H81.8643V9.78027H90.906V11.6042H87.5238V22.2004H85.2465V11.6042ZM99.3982 20.2017C98.945 20.4101 98.4298 20.5143 97.8516 20.5143C97.2964 20.5143 96.7866 20.4101 96.3222 20.2017C95.8574 19.9932 95.4554 19.6921 95.1153 19.2983C94.7755 18.9047 94.5093 18.4356 94.3166 17.8913C94.1238 17.347 94.0276 16.7333 94.0276 16.05V15.9111C94.0276 15.2394 94.1126 14.6314 94.2827 14.0871C94.4524 13.5429 94.7017 13.0738 95.0303 12.6801C95.3588 12.2864 95.7555 11.9853 96.2202 11.7768C96.6846 11.5568 97.2171 11.4468 97.8177 11.4468C98.4068 11.4468 98.9338 11.5626 99.3982 11.7942C99.8741 12.0143 100.271 12.3211 100.588 12.7149C100.917 13.1085 101.166 13.5776 101.336 14.1219C101.506 14.6662 101.591 15.2568 101.591 15.8937V16.0327C101.591 16.7043 101.5 17.3181 101.319 17.874C101.149 18.4182 100.9 18.8873 100.571 19.281C100.254 19.6747 99.8629 19.9816 99.3982 20.2017ZM95.2853 21.904C96.0444 22.2167 96.8886 22.373 97.8177 22.373C98.7353 22.373 99.5683 22.2108 100.316 21.8866C101.075 21.5623 101.721 21.1166 102.254 20.549C102.797 19.9816 103.211 19.31 103.494 18.534C103.789 17.7582 103.936 16.9185 103.936 16.0153V15.8764C103.936 14.9615 103.783 14.1219 103.477 13.3575C103.183 12.5933 102.764 11.9332 102.22 11.3773C101.687 10.8214 101.047 10.3872 100.299 10.0745C99.5513 9.76183 98.7241 9.60547 97.8177 9.60547C96.9112 9.60547 96.0786 9.76761 95.3192 10.0919C94.5716 10.4045 93.9257 10.8445 93.3817 11.4121C92.838 11.9679 92.4132 12.6338 92.107 13.4097C91.8126 14.1856 91.6653 15.0252 91.6653 15.9285V16.0674C91.6653 16.9591 91.8126 17.7929 92.107 18.5688C92.4017 19.3331 92.8153 19.9989 93.3478 20.5664C93.8803 21.1339 94.5262 21.5797 95.2853 21.904ZM106.255 9.78027H108.532V22.2004H106.255V9.78027ZM114.168 9.78027H111.466V22.2004H113.522V12.6812L118.995 22.2004H121.34V9.78027H119.284V18.761L114.168 9.78027Z" fill="#A2A8B7"/>
</svg>
