<svg width="118" height="27" viewBox="0 0 118 27" fill="none" xmlns="http://www.w3.org/2000/svg">
	<path opacity="0.5" d="M21.4515 22.083L19.3333 0L17.125 22.4436C18.5672 22.2633 20.0093 22.1732 21.4515 22.083Z" fill="#A2A8B7"/>
	<path opacity="0.8" d="M26.678 21.9027V0H19.332L21.4953 22.083C23.1628 21.9478 24.9204 21.9027 26.678 21.9027Z" fill="#A2A8B7"/>
	<path d="M17.1256 22.4445L19.3339 0.000976562H0V26.6358C4.55181 24.6528 10.4556 23.1656 17.1256 22.4445Z" fill="#A2A8B7"/>
	<path d="M72.1953 6.48889C72.5559 6.53396 73.8177 6.93958 73.8177 7.79586V22.0372H78.0541V5.99316H72.1953V6.48889Z" fill="#A2A8B7"/>
	<path d="M39.9281 15.6376L42.7674 9.32814L45.2461 15.6376H39.9281ZM38.8916 5.99316V6.48889C39.3873 6.57903 40.514 6.89451 40.0633 7.93106L33.7539 22.0822H37.0889L39.0719 17.6656H46.0573L47.7699 22.0822H52.1414L45.877 5.99316H38.8916Z" fill="#A2A8B7"/>
	<path d="M104.915 15.6376L107.754 9.32814L110.233 15.6376H104.915ZM103.833 5.99316V6.48889C104.329 6.57903 105.455 6.89451 105.005 7.93106L98.6953 22.0822H102.03L104.013 17.6656H110.999L112.711 22.0822H117.128L110.864 5.99316H103.833Z" fill="#A2A8B7"/>
	<path d="M92.57 22.0383L99.285 5.94922H96.1303L91.2179 17.7569L86.5309 5.9943H80.582V6.49003C81.258 6.62524 82.0242 6.94072 82.3847 7.797L88.0182 22.0383H92.57" fill="#A2A8B7"/>
	<path d="M63.1832 22.0383L69.8983 5.94922H66.7436L61.8312 17.7569L57.1442 5.94922H51.1953V6.44498C51.8713 6.58018 52.6375 6.89563 52.998 7.75192L58.6314 21.9932L63.1832 22.0383Z" fill="#A2A8B7"/>
</svg>
