<svg width="125" height="27" viewBox="0 0 125 27" fill="none" xmlns="http://www.w3.org/2000/svg">
	<path fill-rule="evenodd" clip-rule="evenodd" d="M13.9844 0H26.6363V12.6519H13.9844V0ZM12.6519 0.00012207H0V12.652H12.6519V0.00012207ZM51.9363 5.32748V21.3089H49.1618V8.76792H49.1248L44.1676 21.3089H42.3179L37.2497 8.76792H37.2127V21.3089H34.6602V5.32748H38.6555L43.2427 17.1655H43.3167L48.1629 5.32748H51.9363ZM54.2299 6.54828C54.2299 6.10436 54.3779 5.73442 54.7109 5.43846C55.0438 5.14251 55.4137 4.99454 55.8577 4.99454C56.3386 4.99454 56.7455 5.14251 57.0415 5.43846C57.3374 5.73442 57.5224 6.10436 57.5224 6.54828C57.5224 6.99221 57.3744 7.36215 57.0415 7.6581C56.7085 7.95405 56.3386 8.10203 55.8577 8.10203C55.3768 8.10203 55.0068 7.95405 54.7109 7.6581C54.4149 7.32515 54.2299 6.95522 54.2299 6.54828ZM57.2265 9.84074V21.3089H54.5259V9.84074H57.2265ZM65.4021 19.3482C65.809 19.3482 66.253 19.2742 66.7339 19.0522C67.2148 18.8673 67.6587 18.6083 68.0657 18.3124V20.8279C67.6217 21.0869 67.1408 21.2719 66.5859 21.3828C66.031 21.4938 65.4391 21.5678 64.7732 21.5678C63.0715 21.5678 61.7027 21.0499 60.6669 19.9771C59.5941 18.9043 59.0761 17.5355 59.0761 15.9077C59.0761 14.058 59.6311 12.5413 60.7039 11.3575C61.7767 10.1737 63.2935 9.58178 65.2911 9.58178C65.809 9.58178 66.327 9.65577 66.8079 9.76675C67.3258 9.87774 67.7327 10.0627 68.0287 10.2107V12.8003C67.6217 12.5043 67.1778 12.2453 66.7709 12.0974C66.327 11.9494 65.883 11.8384 65.4391 11.8384C64.3663 11.8384 63.5154 12.1714 62.8495 12.8742C62.1836 13.5771 61.8877 14.502 61.8877 15.6858C61.8877 16.8326 62.2206 17.7574 62.8495 18.3863C63.4784 19.0152 64.3293 19.3482 65.4021 19.3482ZM75.7234 9.65577C75.9454 9.65577 76.1303 9.65577 76.3153 9.69277C76.5003 9.72976 76.6483 9.76675 76.7592 9.80375V12.5413C76.6113 12.4303 76.4263 12.3193 76.1303 12.2453C75.8344 12.1714 75.5385 12.0974 75.1315 12.0974C74.4656 12.0974 73.9107 12.3933 73.4668 12.9482C73.0229 13.5031 72.7639 14.354 72.7639 15.5378V21.3089H70.0633V9.84074H72.7639V11.6534H72.8009C73.0599 11.0245 73.4298 10.5436 73.9107 10.1737C74.4286 9.84074 75.0205 9.65577 75.7234 9.65577ZM76.9072 15.7598C76.9072 13.8731 77.4621 12.3563 78.498 11.2465C79.5708 10.1367 81.0505 9.58178 82.9372 9.58178C84.7129 9.58178 86.1187 10.0997 87.1175 11.1725C88.1164 12.2453 88.6343 13.6881 88.6343 15.5008C88.6343 17.3505 88.0794 18.8303 87.0436 19.9401C85.9707 21.0499 84.528 21.6048 82.6783 21.6048C80.9026 21.6048 79.4968 21.0869 78.461 20.0511C77.4251 18.9782 76.9072 17.5355 76.9072 15.7598ZM79.7188 15.6488C79.7188 16.8326 79.9777 17.7574 80.5326 18.3863C81.0875 19.0152 81.8644 19.3482 82.8632 19.3482C83.8251 19.3482 84.602 19.0522 85.1199 18.3863C85.6378 17.7574 85.8967 16.8326 85.8967 15.5748C85.8967 14.354 85.6378 13.4292 85.1199 12.7633C84.602 12.1344 83.8251 11.8014 82.9002 11.8014C81.9014 11.8014 81.1615 12.1344 80.6066 12.8003C79.9777 13.5031 79.7188 14.428 79.7188 15.6488ZM92.6666 12.8742C92.6666 13.2442 92.7776 13.5771 93.0366 13.7991C93.2955 14.0211 93.8134 14.28 94.6643 14.613C95.7371 15.0569 96.514 15.5378 96.9209 16.0557C97.3649 16.6106 97.5868 17.2395 97.5868 18.0164C97.5868 19.0892 97.1799 19.9401 96.329 20.606C95.5152 21.2719 94.3684 21.5678 92.9626 21.5678C92.4817 21.5678 91.9638 21.4938 91.3718 21.3828C90.7799 21.2719 90.299 21.1239 89.8921 20.9389V18.2754C90.373 18.6083 90.9279 18.9043 91.4828 19.0892C92.0377 19.2742 92.5557 19.3852 93.0366 19.3852C93.6285 19.3852 94.1094 19.3112 94.3684 19.1262C94.6643 18.9412 94.8123 18.6823 94.8123 18.2754C94.8123 17.9054 94.6643 17.6095 94.3684 17.3135C94.0724 17.0546 93.4805 16.7586 92.6666 16.4257C91.6678 16.0187 90.9649 15.5378 90.558 15.0199C90.151 14.502 89.9291 13.8361 89.9291 13.0222C89.9291 11.9864 90.336 11.1355 91.1499 10.4696C91.9637 9.80375 93.0366 9.4708 94.3314 9.4708C94.7383 9.4708 95.1822 9.5078 95.6631 9.61878C96.1441 9.72976 96.588 9.84074 96.9209 9.95172V12.5783C96.551 12.3563 96.1441 12.1344 95.6631 11.9494C95.1822 11.7644 94.7013 11.6904 94.2574 11.6904C93.7395 11.6904 93.3325 11.8014 93.0736 11.9864C92.8146 12.2453 92.6666 12.5043 92.6666 12.8742ZM98.7336 15.7598C98.7336 13.8731 99.2886 12.3563 100.324 11.2465C101.397 10.1367 102.877 9.58178 104.764 9.58178C106.539 9.58178 107.945 10.0997 108.944 11.1725C109.943 12.2453 110.461 13.6881 110.461 15.5008C110.461 17.3505 109.906 18.8303 108.87 19.9401C107.797 21.0499 106.354 21.6048 104.505 21.6048C102.729 21.6048 101.323 21.0869 100.287 20.0511C99.2886 18.9782 98.7336 17.5355 98.7336 15.7598ZM101.545 15.6488C101.545 16.8326 101.804 17.7574 102.359 18.3863C102.914 19.0152 103.691 19.3482 104.69 19.3482C105.652 19.3482 106.428 19.0522 106.946 18.3863C107.464 17.7574 107.723 16.8326 107.723 15.5748C107.723 14.354 107.464 13.4292 106.946 12.7633C106.428 12.1344 105.652 11.8014 104.727 11.8014C103.728 11.8014 102.988 12.1344 102.433 12.8003C101.841 13.5031 101.545 14.428 101.545 15.6488ZM119.45 12.0604H115.418V21.3089H112.68V12.0604H110.757V9.84074H112.68V8.25C112.68 7.0662 113.087 6.06736 113.864 5.29049C114.641 4.51362 115.64 4.14368 116.861 4.14368C117.038 4.14368 117.204 4.15412 117.36 4.16391C117.498 4.17255 117.627 4.18067 117.749 4.18067C118.007 4.18067 118.229 4.25466 118.414 4.32865V6.65926C118.34 6.62227 118.155 6.54828 117.933 6.47429C117.712 6.40031 117.453 6.36331 117.157 6.36331C116.602 6.36331 116.158 6.54828 115.862 6.88123C115.566 7.21417 115.418 7.76908 115.418 8.43497V9.80375H119.45V7.21417L122.151 6.40031V9.80375H124.888V12.0234H122.151V17.3875C122.151 18.0904 122.299 18.5713 122.521 18.8673C122.78 19.1632 123.187 19.3112 123.742 19.3112C123.89 19.3112 124.074 19.2742 124.296 19.2002C124.518 19.1262 124.703 19.0522 124.851 18.9412V21.1609C124.666 21.2719 124.407 21.3459 124 21.4198C123.594 21.4938 123.224 21.5308 122.817 21.5308C121.67 21.5308 120.819 21.2349 120.264 20.643C119.709 20.0511 119.413 19.1262 119.413 17.9054L119.45 12.0604ZM12.6519 13.9836H0V26.6356H12.6519V13.9836ZM13.9844 13.9834H26.6363V26.6353H13.9844V13.9834Z" fill="#A2A8B7"/>
</svg>
