<svg width="73" height="22" viewBox="0 0 73 22" fill="none" xmlns="http://www.w3.org/2000/svg">
	<path d="M19.4427 10.2817H16.0507C15.3296 10.2817 14.661 9.85384 14.4478 9.21355C13.8337 7.42368 12.0708 6.78193 12.0708 6.78193C11.4297 6.54182 10.9488 5.92846 10.9488 5.18051V1.78774C10.9488 0.855695 11.7237 0.107743 12.6579 0.107743C13.5929 0.107743 14.3408 0.801865 14.3408 1.78774L14.3146 4.51185L18.2407 0.588647C18.9087 -0.0800046 19.9768 -0.0800046 20.6447 0.588647C21.3126 1.25295 21.3126 2.34799 20.6447 3.01664L16.771 6.86271H19.4427C20.3784 6.86271 21.1518 7.63758 21.1518 8.57107C21.1518 9.50675 20.3784 10.2817 19.4427 10.2817ZM19.4158 14.3911L16.6917 14.3649L20.6178 18.291C21.2857 18.9589 21.2857 20.027 20.6178 20.6957C19.9506 21.3629 18.8817 21.3629 18.2145 20.6957L14.3408 16.822V19.4922C14.3408 20.508 13.5667 21.2028 12.631 21.2028C11.6968 21.2028 10.9219 20.4279 10.9219 19.4922V16.1009C10.9219 15.3792 11.3759 14.7105 12.0176 14.498C13.8068 13.8832 14.4209 12.1232 14.4209 12.1232C14.661 11.4829 15.3027 11.002 16.0238 11.002H19.4158C20.3508 11.002 21.1256 11.7776 21.1256 12.7104C21.1256 13.6431 20.4315 14.3911 19.4158 14.3911V14.3911ZM8.49392 21.1759C7.55896 21.1759 6.81099 20.5611 6.83719 19.4922L6.8641 16.7681L2.93801 20.6957C2.27081 21.3629 1.17506 21.3629 0.534782 20.6957C-0.133875 20.027 -0.133875 18.9313 0.534782 18.291L4.3801 14.4173H1.73604C0.774159 14.4173 0.0269232 13.6431 0.0269232 12.7104C0.0269232 11.7776 0.774159 11.002 1.73604 11.002H5.1288C5.84912 11.002 6.49085 11.4298 6.73096 12.0701C7.34505 13.8832 9.08107 14.498 9.08107 14.498C9.74827 14.7381 10.2038 15.353 10.2038 16.1009V19.4922C10.2038 20.4279 9.45505 21.1759 8.4939 21.1759H8.49392ZM9.10799 6.80956C7.31811 7.45057 6.70404 9.18591 6.70404 9.18591C6.4632 9.82691 5.82291 10.3086 5.10114 10.3086H1.70911C0.774157 10.3086 0 9.53367 0 8.59873C0 7.6645 0.641009 6.91653 1.70911 6.91653L4.43467 6.94271L0.507135 3.01664C-0.160794 2.34799 -0.160794 1.28063 0.507135 0.614862C1.17506 -0.0530677 2.24316 -0.0530677 2.91109 0.614862L6.78407 4.48564V1.81468C6.78407 0.882634 7.53203 0.107743 8.4939 0.107743C9.42813 0.107743 10.1761 0.882634 10.1761 1.81468V5.20597C10.1761 5.92847 9.74827 6.59494 9.10799 6.80956" fill="#A2A8B7"/>
	<path d="M64.2753 21.3083C62.4592 21.3083 60.1629 21.0158 59.0155 20.668L59.9243 16.9274C60.7494 17.3022 62.5931 17.8893 64.2753 17.8893C66.306 17.8893 67.8281 17.0082 67.8281 15.2176C67.8281 13.6962 66.8924 12.8966 64.2753 11.8838C61.605 10.8418 59.3895 9.55911 59.3895 5.76692C59.3895 2.054 62.3253 0 66.7862 0C68.6823 0 70.6053 0.374009 71.7542 0.747996L70.8731 4.37792C70.0982 3.95083 68.6023 3.41605 66.7862 3.41605C64.6223 3.41605 63.6612 4.24478 63.6612 5.65922C63.6612 7.10276 64.7293 7.63683 67.0525 8.65181C70.259 10.0146 72.2628 11.3759 72.2628 14.9506C72.2628 18.9043 69.1101 21.3083 64.2753 21.3083V21.3083ZM49.9344 11.9631H47.4788V17.9424H50.0676C52.0983 17.9424 53.6735 17.1413 53.6735 14.9258C53.6735 12.8966 52.2053 11.9631 49.9344 11.9631V11.9631ZM49.9606 3.44372H47.4788V8.86571H49.7736C51.5104 8.86571 53.0063 7.93077 53.0063 6.06085C53.0063 4.29718 51.9375 3.44372 49.9606 3.44372V3.44372ZM50.1746 21.1227H43.4458V0.267029H50.5216C54.5823 0.267029 57.2533 2.24174 57.2533 5.71379C57.2533 8.17161 55.6235 9.5591 54.0745 10.1739C56.2114 10.7349 57.9474 12.2032 57.9474 14.9506C57.9474 18.5842 55.1433 21.1227 50.1746 21.1227V21.1227ZM33.138 3.4699H31.0811V9.42595H32.684C34.8478 9.42595 36.4209 8.49102 36.4209 6.46103C36.4209 4.67114 35.272 3.4699 33.138 3.4699V3.4699ZM37.0088 21.1227C35.7529 18.5842 33.4858 14.5773 32.1492 12.4964H31.0811V21.1227H27.0742V0.267029H33.6728C38.0238 0.267029 40.6147 2.34792 40.6147 6.51413C40.6147 9.3721 38.5578 11.1351 36.3954 11.8568C37.7837 13.7493 40.4546 18.3972 41.7898 21.1227H37.0088Z" fill="#A2A8B7"/>
</svg>
