<svg width="65" height="22" viewBox="0 0 65 22" fill="none" xmlns="http://www.w3.org/2000/svg">
	<path d="M34.4256 11.6188C34.2047 9.5712 32.5039 8.05855 30.2999 8.05855C28.1578 8.05855 26.3946 9.85416 26.1742 11.6188H34.4256ZM36.7267 17.7746C36.8176 17.8359 36.8787 17.9324 36.8951 18.0407C36.9116 18.1491 36.8819 18.2594 36.8134 18.3449C35.4085 20.1182 33.4223 21.255 30.5518 21.255C25.8592 21.255 22.5214 17.9158 22.5214 13.1581C22.5214 8.52665 25.8908 5.06113 30.3624 5.06113C34.8663 5.06113 38.0469 8.55823 38.0469 13.1581C38.0469 13.3135 38.0401 13.6156 38.0339 13.8639C38.0285 14.0847 37.848 14.2609 37.6273 14.2608H26.1427C26.3005 16.4979 28.2841 18.1678 30.5834 18.1678C32.2842 18.1678 33.22 17.5486 34.0221 16.5171C34.1521 16.3472 34.3913 16.3069 34.5698 16.4248C35.0978 16.784 36.166 17.4031 36.7267 17.7746V17.7746ZM47.1221 17.6582C45.4169 17.6582 44.6297 16.8706 44.6297 15.0992V8.62076H46.4097C46.6346 8.62076 46.8169 8.43836 46.8169 8.21335V5.81343C46.8166 5.58856 46.6345 5.40635 46.4097 5.40601H44.6328V1.55227C44.6329 1.44417 44.5901 1.34044 44.5137 1.264C44.4373 1.18756 44.3336 1.14485 44.2255 1.14485H41.5023C41.2774 1.14485 41.0951 1.32726 41.0951 1.55227V5.40911H39.3967C39.1721 5.40945 38.9901 5.59175 38.9901 5.81652V8.21644C38.99 8.32444 39.0327 8.42807 39.109 8.50449C39.1853 8.58091 39.2888 8.62386 39.3967 8.62386H41.0932V15.7883C41.0932 19.1319 43.0279 21.1355 46.2413 21.1355C46.7984 21.1355 47.192 21.0736 47.6302 20.9132C47.9092 20.8089 48.0929 20.5407 48.0895 20.2427L48.0808 18.0136C48.0788 17.8973 48.0272 17.7874 47.939 17.7117C47.8507 17.6359 47.7343 17.6016 47.6191 17.6174C47.4543 17.6408 47.2884 17.6545 47.1221 17.6582V17.6582ZM56.8038 17.6582C55.0987 17.6582 54.312 16.8706 54.312 15.0992V8.62076H56.092C56.2 8.62076 56.3035 8.57782 56.3798 8.5014C56.456 8.42497 56.4988 8.32134 56.4986 8.21335V5.81343C56.4986 5.58866 56.3167 5.40635 56.092 5.40601H54.312V1.55227C54.312 1.32726 54.1297 1.14485 53.9048 1.14485H51.1815C51.0736 1.14485 50.9701 1.1878 50.8938 1.26422C50.8175 1.34064 50.7747 1.44427 50.7749 1.55227V5.40911H49.0791C48.8543 5.40945 48.6722 5.59165 48.6718 5.81652V8.21644C48.6718 8.3245 48.7147 8.42812 48.7911 8.50453C48.8675 8.58093 48.9711 8.62386 49.0791 8.62386H50.7755V15.7883C50.7755 19.1319 52.7103 21.1355 55.9237 21.1355C56.4807 21.1355 56.8743 21.0736 57.3125 20.9132C57.5912 20.8084 57.7747 20.5405 57.7718 20.2427L57.7631 18.0136C57.761 17.8973 57.7092 17.7874 57.6209 17.7116C57.5325 17.6359 57.416 17.6016 57.3008 17.6174C57.1361 17.6409 56.9701 17.6545 56.8038 17.6582V17.6582ZM10.2749 10.1811V12.4956C10.2749 12.6034 10.3177 12.7069 10.394 12.7832C10.4702 12.8595 10.5737 12.9024 10.6815 12.9024H16.9728C16.503 15.8744 14.0639 17.987 10.8034 17.987C6.83741 17.987 3.75273 14.6955 3.75273 10.669C3.75273 6.61278 6.8665 3.35035 10.7737 3.35035C12.9634 3.35035 14.8233 4.23763 16.0426 5.83757C16.1683 6.00207 16.3978 6.04532 16.5748 5.93788L18.9354 4.50945C19.023 4.45624 19.0842 4.36867 19.1041 4.2681C19.124 4.16754 19.1007 4.06324 19.04 3.98067C17.307 1.59004 14.33 0 10.8034 0C4.96024 0 0.167969 4.79055 0.167969 10.669C0.167969 16.5474 4.87173 21.3083 10.7737 21.3083C16.6206 21.3083 20.6071 16.8706 20.6071 11.1389V10.2238C20.6071 10.1158 20.5642 10.0121 20.4878 9.93572C20.4114 9.85931 20.3078 9.81639 20.1998 9.81639H10.6394C10.4381 9.81639 10.2749 9.97967 10.2749 10.1811Z" fill="#A2A8B7"/>
	<path opacity="0.5" d="M62.6775 16.7314C61.7689 16.7314 61.2119 16.8689 60.8919 17.259C60.6165 17.5933 60.5156 18.1141 60.5156 18.8942C60.5156 19.7171 60.6283 20.2521 60.9396 20.5833C61.2664 20.9319 61.8123 21.0564 62.6775 21.0564C63.6678 21.0564 64.2372 20.8942 64.5417 20.4211C64.7577 20.0855 64.8394 19.5945 64.8394 18.8942C64.8394 18.059 64.723 17.5209 64.4018 17.1903C64.0806 16.8596 63.5304 16.7314 62.6775 16.7314V16.7314Z" fill="#A2A8B7"/>
</svg>
