<svg width="122" height="27" viewBox="0 0 122 27" fill="none" xmlns="http://www.w3.org/2000/svg">
	<path fill-rule="evenodd" clip-rule="evenodd" d="M48.5201 8.34384L41.8816 19.3878H41.8613V19.7735H52.7428V17.317H46.4697L52.9864 6.27311V5.90768H42.6125V8.34384H48.5201ZM65.6951 5.88738H56.6204H56.6001V19.7532H65.9996V17.317H59.7468V13.8658H64.4973V11.5718H59.7468V8.32354H65.6951V5.88738ZM74.851 5.88738H69.8568H69.8162V19.7735H72.9629V14.4139H74.3231L77.6525 19.7735H81.0023L77.3277 13.8861C77.7337 13.7643 78.0992 13.6019 78.4646 13.3989C78.8097 13.1959 79.1142 12.9522 79.3782 12.6477C79.6421 12.3432 79.8451 11.9778 79.9872 11.5921C80.1293 11.186 80.2105 10.7191 80.2105 10.1913V10.1101C80.2105 9.39951 80.0887 8.77017 79.8248 8.24234C79.5812 7.7145 79.2157 7.26787 78.7488 6.92275C78.2819 6.57763 77.7337 6.31371 77.0638 6.1513C76.4142 5.96859 75.663 5.88738 74.851 5.88738ZM76.536 11.7748C76.1502 12.1199 75.5615 12.2823 74.7697 12.2823V12.262H73.0035V8.28294H74.7697C75.5209 8.28294 76.1096 8.42505 76.5157 8.70926C76.942 8.99348 77.145 9.48072 77.145 10.1913V10.2725C77.145 10.9424 76.942 11.4296 76.536 11.7748ZM87.8032 5.88738H84.6362V19.7532H87.8032V5.88738ZM100.593 17.1546C100.126 17.3779 99.5983 17.4794 99.0095 17.4794C98.4614 17.4794 97.9132 17.3779 97.426 17.1749C96.9388 16.9516 96.5328 16.6471 96.1876 16.2411C95.8425 15.8553 95.5786 15.3681 95.3756 14.82C95.1929 14.2312 95.0914 13.6019 95.0914 12.8913V12.7289C95.0914 12.0184 95.1726 11.389 95.335 10.8409C95.5177 10.2725 95.7816 9.78524 96.1267 9.37921C96.4516 8.99349 96.8576 8.68897 97.3245 8.48595C97.8117 8.26264 98.3599 8.16113 98.9689 8.16113C99.5983 8.16113 100.126 8.26264 100.613 8.48595C101.101 8.70927 101.507 9.03408 101.852 9.41981C102.177 9.84614 102.44 10.3334 102.583 10.8612C102.765 11.4296 102.846 12.0387 102.846 12.7086V12.871C102.867 13.5207 102.765 14.1703 102.583 14.7794C102.4 15.3478 102.156 15.835 101.831 16.2208C101.486 16.6268 101.06 16.9313 100.593 17.1546ZM95.9846 19.4487C96.8576 19.7938 97.8523 19.9765 98.9486 19.9765C100.045 19.9765 101.019 19.8141 101.892 19.469C102.745 19.1238 103.516 18.6163 104.166 17.9667C104.795 17.317 105.283 16.5456 105.607 15.7132C105.953 14.8403 106.135 13.8861 106.135 12.8507V12.6883C106.135 11.6327 105.953 10.6785 105.587 9.82584C105.242 8.99348 104.755 8.24233 104.125 7.61299C103.496 7.00395 102.725 6.53702 101.852 6.1919C100.979 5.84678 100.025 5.68437 98.9689 5.68437C97.9335 5.68437 96.9794 5.86708 96.1064 6.2122C95.2741 6.55733 94.5026 7.04456 93.853 7.6739C93.2033 8.30324 92.6755 9.07469 92.3304 9.90705C91.9853 10.7597 91.8026 11.7139 91.8026 12.7492V12.9116C91.8026 13.8658 91.965 14.82 92.3101 15.7132C92.6349 16.5456 93.1221 17.317 93.7515 17.9464C94.3605 18.596 95.0914 19.0832 95.9846 19.4487ZM113.687 5.88738H110.033V19.7532H112.835V9.88674L118.641 19.7532H121.808V5.88738H118.986V15.023L113.687 5.88738ZM22.3518 0H4.28358C1.90832 0 0 1.90833 0 4.28358V22.3518C0 24.727 1.90832 26.6353 4.28358 26.6353H22.3518C24.727 26.6353 26.6353 24.727 26.6353 22.3518V4.28358C26.6353 1.90833 24.727 0 22.3518 0ZM13.3209 15.8343L11.5344 18.4126C11.4938 18.4735 11.5344 18.4735 11.5344 18.4735H17.3609C17.4015 18.4735 17.4421 18.4938 17.4624 18.5141L20.1219 20.8285C20.1422 20.8488 20.1625 20.8894 20.1625 20.93C20.1625 21.0315 20.0813 21.0924 20 21.0924H6.96661C6.74329 21.0924 6.51998 20.8894 6.51998 20.6661C6.51998 20.6661 6.43877 20.3006 6.64178 19.9758L9.56517 15.8546L13.3209 15.8343ZM13.3006 10.7387L15.1277 8.20105C15.1808 8.1126 15.1414 8.11664 15.1169 8.11914C15.1133 8.11951 15.11 8.11985 15.1074 8.11985L11.5344 8.09954H9.09824C9.03734 8.09954 8.99674 8.07924 8.97644 8.05894L6.54028 5.7446C6.45907 5.66339 6.51998 5.50098 6.66209 5.50098H19.7158C19.9391 5.50098 20.1625 5.70399 20.1625 5.92731C20.1625 5.92731 20.2031 6.17092 20.061 6.37393C20.0212 6.42368 19.6692 6.92209 19.1271 7.6899C18.5631 8.48866 17.7933 9.57898 16.9549 10.759L13.3006 10.7387Z" fill="#A2A8B7"/>
</svg>
