<svg width="107" height="36" viewBox="0 0 107 36" fill="none" xmlns="http://www.w3.org/2000/svg">
	<path fill-rule="evenodd" clip-rule="evenodd" d="M27.0252 0.768243C30.2404 1.53648 32.602 3.27214 33.6548 6.48736C34.0247 7.65395 34.3092 8.87745 34.5369 10.0725C35.049 13.6007 35.049 17.1858 34.8783 20.7425C34.7929 22.9049 34.5653 25.0674 34.167 27.2014C33.4272 30.9572 31.1509 33.3758 27.3951 34.2294C25.9155 34.5708 24.4075 34.77 22.8994 34.9407C22.219 35.0087 21.5284 35.0463 20.8398 35.0837H20.8397L20.839 35.0837H20.8389C20.376 35.1089 19.914 35.134 19.4566 35.1683C18.4482 35.1683 16.5176 35.1198 15.568 35.0959C15.2582 35.0881 15.0529 35.083 15.0179 35.083C14.4219 35.038 13.8259 35.0019 13.2316 34.9659C12.3223 34.9108 11.4171 34.856 10.5223 34.77C8.87196 34.5992 7.25012 34.2294 5.71364 33.5749C2.83985 32.3514 1.38873 29.9898 0.734306 27.0591C0.165239 24.5268 0.0514259 21.966 0.0229726 19.3767C-0.0339341 15.8201 -0.033934 12.2918 0.620493 8.79208C1.531 3.95502 3.75036 1.6503 8.50206 0.625977C10.9284 0.11375 13.4058 0.0613072 15.8859 0.00880726L16.2983 0H18.603C21.4199 0.0569067 24.2368 0.113817 27.0252 0.768243ZM25.2326 14.7673C25.5741 14.2551 25.8586 13.6861 25.5741 13.0601C24.8058 11.296 23.497 10.0156 21.7613 9.16197C21.7044 9.13352 21.619 9.16197 21.6475 9.16197C21.6856 9.50444 21.718 9.8356 21.7497 10.1605C21.7893 10.5644 21.8278 10.9587 21.8751 11.3529L21.8835 11.4131C21.9099 11.6057 21.9431 11.8476 22.0458 11.9504C23.184 12.9463 23.8384 14.1982 24.0376 15.7062C24.0945 15.7631 24.1514 15.7916 24.2083 15.82L24.2083 15.8201C24.3102 15.7181 24.4172 15.6187 24.5248 15.5189C24.7774 15.2841 25.033 15.0467 25.2326 14.7673ZM16.0422 5.51995C15.3309 6.06057 14.6195 6.45891 13.6806 6.20283C13.6061 6.18156 13.5356 6.16426 13.4632 6.14648L13.4632 6.14647L13.4632 6.14647C13.3418 6.11669 13.2149 6.08555 13.0546 6.03211C13.1923 6.49098 13.3135 6.92519 13.4315 7.34799L13.4315 7.34802C13.533 7.7117 13.6322 8.06695 13.7375 8.42219C16.2698 6.68653 18.6884 6.68653 21.1638 8.42219C21.3034 7.88352 21.4571 7.34485 21.6247 6.75714L21.6247 6.75713L21.6251 6.75579C21.6964 6.50574 21.7703 6.2468 21.8467 5.9752C20.6232 6.54426 19.6842 6.20283 18.8022 5.4915C17.7209 4.6379 17.1519 4.66635 16.0422 5.51995ZM14.1358 11.1253C16.3267 10.2432 18.5176 10.2432 20.7085 11.1253C20.9362 9.95867 20.3386 8.93435 19.2005 8.50755C18.0339 8.10921 16.8673 8.10921 15.7008 8.50755C14.5342 8.93435 13.9366 9.93021 14.1358 11.1253ZM13.2253 9.13352C11.5181 9.93021 10.1808 11.1822 9.35566 12.9178C8.90041 13.8852 9.72556 15.4786 10.8637 15.7062C11.0913 14.2267 11.6888 12.9747 12.827 12.0073C12.9123 11.9219 12.9692 11.7512 12.9977 11.609C13.0425 11.1758 13.0795 10.7504 13.1168 10.3206L13.1168 10.3205C13.1506 9.93156 13.1848 9.53896 13.2253 9.13352ZM9.28453 15.9728C9.07424 15.8305 8.86084 15.6861 8.64433 15.5355C8.65467 16.435 8.64998 17.342 8.64528 18.2511V18.2511V18.2511V18.2511V18.2512V18.2512C8.63705 19.8439 8.62878 21.4428 8.70124 23.0187C8.87607 22.9022 9.04345 22.7912 9.20528 22.6839L9.20684 22.6829L9.20916 22.6814L9.20954 22.6811L9.20958 22.6811C9.6781 22.3705 10.1002 22.0907 10.5223 21.7952C10.6645 21.7099 10.7783 21.4823 10.7783 21.34C10.8068 20.0311 10.8068 18.6938 10.7783 17.3565C10.7783 17.1858 10.6645 16.9582 10.5223 16.8444C10.1224 16.5397 9.70984 16.2606 9.28453 15.9728ZM16.8892 29.2238C16.883 29.0659 16.8771 28.9161 16.8958 28.7663C16.9242 28.368 16.782 28.1973 16.3836 28.1403C13.9082 27.6566 12.2579 26.2055 11.3189 23.9008C11.236 23.7184 11.1725 23.5264 11.1057 23.3246L11.1057 23.3246L11.1057 23.3246C11.0579 23.1802 11.0084 23.0308 10.949 22.8765C10.1808 23.1895 9.6971 23.6732 9.41257 24.3845C9.32721 24.5837 9.32721 24.8967 9.41257 25.0958C10.693 27.9127 12.827 29.7053 15.8715 30.3312C16.8958 30.5304 16.8958 30.502 16.8958 29.4776C16.8958 29.3901 16.8925 29.3059 16.8892 29.2238L16.8892 29.2238ZM16.8958 23.0756H16.9242C16.9242 22.4781 16.9242 21.9091 16.8958 21.34V21.3399C16.8958 20.7424 16.8958 20.1165 16.8673 19.519C16.782 17.9825 15.8999 17.1574 14.3919 17.1289C14.1749 17.1289 13.9548 17.132 13.7336 17.1352L13.7333 17.1352C13.2875 17.1415 12.8375 17.1479 12.4002 17.1289C11.9734 17.1005 11.8311 17.2712 11.8311 17.698C11.8453 18.3097 11.8453 18.9143 11.8453 19.519C11.8453 20.1236 11.8453 20.7282 11.8596 21.34C11.9449 24.1 13.6521 26.3762 16.1276 27.0022C16.8104 27.1729 16.8958 27.116 16.8958 26.4331V23.0756ZM13.309 16.024C14.8294 16.0135 16.343 16.003 17.4364 17.5557C18.4038 16.1899 19.7696 15.9623 21.2776 16.0192C21.634 16.038 21.9905 16.032 22.3632 16.0258L22.3634 16.0258C22.556 16.0225 22.7529 16.0192 22.9564 16.0192C22.871 14.7104 22.3873 13.7145 21.4768 12.9178C19.3428 11.0399 15.5016 11.0684 13.396 12.9178C12.514 13.7145 12.0018 14.7104 11.9449 15.9908C12.3927 16.0303 12.8511 16.0271 13.309 16.024ZM17.977 19.2914C17.9486 19.519 17.9486 19.7751 17.9486 20.0027C17.9486 21.0875 17.9557 22.1723 17.9629 23.2535V23.2537V23.254V23.2542V23.2544C17.97 24.3282 17.977 25.3984 17.977 26.4616C17.977 26.5787 17.9904 26.6958 18.008 26.8496L18.008 26.8498L18.008 26.8498C18.0161 26.9202 18.025 26.9983 18.0339 27.0876C18.154 27.0609 18.2678 27.0467 18.3754 27.0333H18.3754C18.4972 27.0182 18.611 27.004 18.7168 26.9738C20.9077 26.4331 22.7003 24.4414 22.8994 22.1367C22.999 21.061 23.001 19.9993 23.003 18.9321V18.932C23.0039 18.4748 23.0047 18.0165 23.0133 17.5557C23.0133 17.1858 22.8425 17.1005 22.5011 17.1005C22.2547 17.1005 22.0082 17.0973 21.7618 17.0941L21.7613 17.0941C21.2681 17.0878 20.7749 17.0815 20.2817 17.1005C18.9444 17.1574 18.1193 17.9541 17.977 19.2914ZM18.0055 30.3882C21.05 30.3882 24.5782 27.7989 25.5172 24.9536C25.5741 24.8113 25.5741 24.6121 25.5456 24.4414C25.2895 23.7016 24.7774 23.161 24.0091 22.848C23.9807 22.8907 23.9522 22.9192 23.9309 22.9405C23.9095 22.9618 23.8953 22.9761 23.8953 22.9903C23.0417 25.8072 21.2776 27.5997 18.3469 28.1403C18.2331 28.1688 18.0339 28.3395 18.0339 28.4249C18.0055 29.0793 18.0055 29.7337 18.0055 30.3882ZM25.7356 22.7832C25.8691 22.8694 26.0048 22.957 26.1431 23.0472V15.564L26.0527 15.6344C25.5673 16.0122 25.0553 16.4108 24.4928 16.759C24.2083 16.9297 24.066 17.1005 24.066 17.4419C24.066 17.8782 24.0629 18.3145 24.0597 18.7507C24.0534 19.6233 24.0471 20.4959 24.066 21.3685C24.066 21.5392 24.1798 21.7383 24.3221 21.8237C24.7709 22.1603 25.2375 22.4615 25.7356 22.7832ZM51.4688 10.6139C52.0663 10.8415 52.5216 11.1261 52.9484 11.5244C53.3467 11.9228 53.6597 12.378 53.8873 12.8902C54.115 13.4308 54.2003 13.9999 54.2003 14.6258C54.2003 15.2518 54.115 15.8493 53.8873 16.3899C53.6882 16.9305 53.3752 17.4142 52.9484 17.7841C52.5216 18.154 52.0379 18.4386 51.4688 18.6662C50.8997 18.8938 50.2738 19.0076 49.5909 19.0076H47.087V23.3325C47.087 23.8731 46.6602 24.3 46.1196 24.3H45.3229C44.7823 24.3 44.3555 23.8731 44.3555 23.3325V11.2399C44.3555 10.6993 44.7823 10.2725 45.3229 10.2725H49.5909C50.2738 10.2725 50.8997 10.3863 51.4688 10.6139ZM49.2494 16.6745C49.9323 16.6745 50.4729 16.5037 50.8713 16.1338C51.2412 15.764 51.4403 15.3087 51.4403 14.6827C51.4403 14.0568 51.2412 13.5731 50.8713 13.2032C50.4729 12.8333 49.9323 12.6625 49.2494 12.6625H47.087V16.6745H49.2494ZM62.5889 10.9258C62.4466 10.5559 62.0767 10.2998 61.6784 10.2998H59.8574C59.459 10.2998 59.0891 10.5559 58.9469 10.9258L54.2805 23.0184C54.0245 23.6444 54.5082 24.3557 55.191 24.3557H55.9877C56.3861 24.3557 56.756 24.0997 56.8982 23.7013L57.8372 21.1405H63.5563L64.4953 23.7013C64.6375 24.0997 65.0074 24.3557 65.4058 24.3557H66.2878C66.9707 24.3557 67.4544 23.6729 67.1983 23.0469L62.5889 10.9258ZM58.7477 18.6366L60.6825 13.3159L62.6174 18.6366H58.7477ZM76.6764 10.2998H77.4446C78.2128 10.2998 78.6965 11.125 78.2982 11.7509L74.2578 18.409V24.3273H72.4937C71.9531 24.3273 71.5263 23.9005 71.5263 23.3599V18.4375L67.5144 11.7794C67.116 11.125 67.5713 10.2998 68.3395 10.2998H69.25C69.6199 10.2998 69.9329 10.4705 70.1036 10.7835L72.9774 15.8482L75.8228 10.7835C75.9935 10.499 76.3349 10.2998 76.6764 10.2998ZM91.4403 11.9506C90.7859 11.3246 90.0176 10.8125 89.1356 10.471C88.2535 10.1296 87.343 9.9873 86.3756 9.9873C85.4366 9.9873 84.5261 10.158 83.6441 10.471C82.762 10.8125 81.9938 11.2962 81.3394 11.9506C80.6849 12.5766 80.1443 13.3448 79.746 14.2553C79.3476 15.1658 79.1484 16.1901 79.1484 17.3283C79.1484 18.4664 79.3476 19.4907 79.746 20.3728C80.1443 21.2548 80.6849 22.0231 81.3394 22.6775C81.9938 23.3035 82.762 23.7872 83.6441 24.1286C84.5261 24.4701 85.4366 24.6408 86.3756 24.6408C87.03 24.6408 87.6844 24.5554 88.3104 24.3847C88.9364 24.214 89.5055 23.9863 90.0461 23.7018L91.1273 24.8968C91.4687 25.2952 92.0947 25.3237 92.493 24.9822L92.806 24.6977C93.2328 24.3278 93.2613 23.7018 92.8914 23.3035L91.8671 22.1938C92.4077 21.5678 92.8345 20.8565 93.1475 20.0313C93.4605 19.2062 93.6027 18.3241 93.6027 17.3283C93.6027 16.1901 93.4036 15.1658 93.0052 14.2553C92.6353 13.3733 92.0947 12.5766 91.4403 11.9506ZM90.5867 18.8647C90.4444 19.32 90.2737 19.7468 90.0461 20.0882L88.4811 18.3526C88.1397 17.9542 87.5137 17.9258 87.1154 18.2672L86.7739 18.5518C86.3471 18.9217 86.3187 19.5476 86.6886 19.946L88.2251 21.6247C87.6844 21.8523 87.0869 21.9946 86.4325 21.9946C85.8919 21.9946 85.3513 21.9093 84.8391 21.7101C84.2985 21.5394 83.8432 21.2264 83.4449 20.8565C83.0181 20.4866 82.7051 19.9744 82.4206 19.3769C82.1645 18.8078 82.0507 18.0965 82.0507 17.3283C82.0507 16.56 82.1645 15.8487 82.4206 15.2512C82.6767 14.6821 83.0181 14.1699 83.4449 13.8C83.8717 13.4302 84.327 13.1172 84.8391 12.918C85.3513 12.7473 85.8919 12.6335 86.4325 12.6335C86.9731 12.6335 87.5137 12.7188 88.0259 12.918C88.5665 13.1172 89.0218 13.4017 89.4201 13.8C89.8469 14.1699 90.1599 14.6821 90.4444 15.2512C90.7005 15.8487 90.8143 16.5316 90.8143 17.3283C90.7859 17.8689 90.729 18.4095 90.5867 18.8647ZM105.244 17.1297C104.703 17.841 103.992 18.3248 103.053 18.5808L105.301 22.8773C105.642 23.5317 105.187 24.3 104.447 24.3H103.594C103.224 24.3 102.882 24.0723 102.712 23.7593L100.236 18.8938H98.8136V23.3325C98.8136 23.8731 98.3868 24.3 97.8461 24.3H97.0495C96.5088 24.3 96.082 23.8731 96.082 23.3325V11.2399C96.082 10.6993 96.5088 10.2725 97.0495 10.2725H101.574C102.285 10.2725 102.882 10.3863 103.423 10.6139C103.964 10.8415 104.447 11.1545 104.817 11.5244C105.216 11.8943 105.5 12.3496 105.728 12.8902C105.955 13.4308 106.041 13.9714 106.041 14.5974C106.041 15.5932 105.785 16.4468 105.244 17.1297ZM101.061 16.5891C101.744 16.5891 102.313 16.4184 102.683 16.0485C103.053 15.6786 103.252 15.1949 103.252 14.6543C103.252 14.0568 103.053 13.6015 102.683 13.2316C102.313 12.8617 101.744 12.691 101.061 12.691H98.842V16.5891H101.061Z" fill="#A2A8B7"/>
</svg>
