<svg width="25" height="21" viewBox="0 0 25 21" fill="none" xmlns="http://www.w3.org/2000/svg">
	<path fill-rule="evenodd" clip-rule="evenodd" d="M10.7932 2.60987C12.1112 2.31164 13.4834 2.35216 14.7815 2.72766C16.0797 3.10315 17.2616 3.80138 18.2169 4.75719C18.2243 4.76458 18.2318 4.77186 18.2394 4.77902L21.0397 7.41026H17.5642C17.0119 7.41026 16.5642 7.85798 16.5642 8.41026C16.5642 8.96255 17.0119 9.41026 17.5642 9.41026H23.5618H23.5642C23.7049 9.41026 23.8389 9.38119 23.9604 9.32873C24.0814 9.27659 24.1941 9.19953 24.2904 9.0978C24.2989 9.08876 24.3073 9.07956 24.3155 9.07021C24.4819 8.88109 24.5643 8.64544 24.5642 8.41028C24.5642 8.40911 24.5642 8.40795 24.5642 8.40679V2.41026C24.5642 1.85798 24.1165 1.41026 23.5642 1.41026C23.0119 1.41026 22.5642 1.85798 22.5642 2.41026V6.0984L19.6201 3.33195C18.4279 2.14303 16.9548 1.27429 15.3373 0.806415C13.7146 0.337045 11.9994 0.28639 10.3518 0.659175C8.70424 1.03196 7.17794 1.81604 5.91535 2.93824C4.65275 4.06045 3.69502 5.48421 3.1315 7.07667C2.94726 7.59731 3.21997 8.16874 3.74062 8.35298C4.26126 8.53722 4.83269 8.26451 5.01693 7.74386C5.46774 6.46989 6.23393 5.33088 7.24401 4.43312C8.25408 3.53536 9.47512 2.90809 10.7932 2.60987ZM1.16711 11.4922C1.04997 11.5428 0.940726 11.6168 0.846578 11.7138C0.831423 11.7295 0.816774 11.7456 0.802656 11.7621C0.730784 11.8464 0.675252 11.9396 0.635935 12.0377C0.592972 12.1446 0.56795 12.2607 0.564597 12.3821C0.564336 12.3915 0.564207 12.4009 0.564209 12.4103V18.4103C0.564209 18.9625 1.01192 19.4103 1.56421 19.4103C2.11649 19.4103 2.56421 18.9625 2.56421 18.4103V14.7221L5.50832 17.4886C6.70048 18.6775 8.17361 19.5462 9.79116 20.0141C11.4139 20.4835 13.129 20.5341 14.7766 20.1614C16.4242 19.7886 17.9505 19.0045 19.2131 17.8823C20.4757 16.7601 21.4334 15.3363 21.9969 13.7439C22.1812 13.2232 21.9085 12.6518 21.3878 12.4675C20.8672 12.2833 20.2957 12.556 20.1115 13.0767C19.6607 14.3506 18.8945 15.4896 17.8844 16.3874C16.8743 17.2852 15.6533 17.9124 14.3352 18.2107C13.0172 18.5089 11.645 18.4684 10.3469 18.0929C9.04872 17.7174 7.86683 17.0191 6.9115 16.0633C6.90411 16.0559 6.8966 16.0487 6.88899 16.0415L4.08876 13.4103H7.56421C8.11649 13.4103 8.56421 12.9625 8.56421 12.4103C8.56421 11.858 8.11649 11.4103 7.56421 11.4103H1.56723H1.56421C1.42311 11.4103 1.28883 11.4395 1.16711 11.4922Z" fill="#191B20"/>
</svg>
