<svg width="32" height="32" viewBox="0 0 32 32" fill="none" xmlns="http://www.w3.org/2000/svg">
	<path d="M16 32C24.8366 32 32 24.8366 32 16C32 7.16344 24.8366 0 16 0C7.16344 0 0 7.16344 0 16C0 24.8366 7.16344 32 16 32Z" fill="#FFFB1F"/>
	<path d="M22.358 10.0416C22.2612 9.96328 22.1481 9.90766 22.0269 9.87882C21.9058 9.84997 21.7797 9.84865 21.658 9.87493C20.7675 10.0616 19.8483 10.0639 18.9569 9.88192C18.0655 9.69991 17.2207 9.33736 16.4747 8.8166C16.3352 8.71983 16.1695 8.66797 15.9997 8.66797C15.8299 8.66797 15.6642 8.71983 15.5247 8.8166C14.7786 9.33736 13.9339 9.69991 13.0425 9.88192C12.1511 10.0639 11.2318 10.0616 10.3413 9.87493C10.2196 9.84865 10.0936 9.84997 9.97243 9.87882C9.85129 9.90766 9.73816 9.96328 9.64135 10.0416C9.54466 10.12 9.46678 10.2191 9.41342 10.3316C9.36007 10.4441 9.33259 10.5671 9.33301 10.6916V16.8999C9.33227 18.0947 9.61699 19.2724 10.1635 20.3349C10.7099 21.3974 11.5023 22.314 12.4747 23.0083L15.5163 25.1749C15.6575 25.2754 15.8264 25.3294 15.9997 25.3294C16.1729 25.3294 16.3419 25.2754 16.483 25.1749L19.5247 23.0083C20.497 22.314 21.2894 21.3974 21.8359 20.3349C22.3824 19.2724 22.6671 18.0947 22.6663 16.8999V10.6916C22.6668 10.5671 22.6393 10.4441 22.5859 10.3316C22.5326 10.2191 22.4547 10.12 22.358 10.0416ZM20.9997 16.8999C21.0003 17.8289 20.7791 18.7446 20.3544 19.5708C19.9297 20.397 19.3138 21.1098 18.558 21.6499L15.9997 23.4749L13.4413 21.6499C12.6855 21.1098 12.0697 20.397 11.645 19.5708C11.2203 18.7446 10.999 17.8289 10.9997 16.8999V11.6499C12.7467 11.7995 14.4964 11.3941 15.9997 10.4916C17.503 11.3941 19.2527 11.7995 20.9997 11.6499V16.8999Z" fill="#191B20"/>
</svg>
