<svg width="25" height="18" viewBox="0 0 25 18" fill="none" xmlns="http://www.w3.org/2000/svg">
	<path fill-rule="evenodd" clip-rule="evenodd" d="M23.567 1.10614C23.8763 1.41557 24.0501 1.83517 24.0501 2.27269C24.0501 2.71022 23.8763 3.12982 23.567 3.43924L10.367 16.6392C10.0576 16.9486 9.63795 17.1223 9.20043 17.1223C8.76291 17.1223 8.3433 16.9486 8.03388 16.6392L1.43388 10.0392C1.13332 9.72805 0.967006 9.31126 0.970765 8.87863C0.974525 8.44601 1.14805 8.03217 1.45398 7.72624C1.7599 7.42032 2.17374 7.24679 2.60637 7.24303C3.03899 7.23927 3.45578 7.40558 3.76698 7.70614L9.20043 13.1396L21.2339 1.10614C21.5433 0.796818 21.9629 0.623047 22.4004 0.623047C22.8379 0.623047 23.2576 0.796818 23.567 1.10614Z" fill="#191B20"/>
</svg>
