<svg width="32" height="32" viewBox="0 0 32 32" fill="none" xmlns="http://www.w3.org/2000/svg">
	<path d="M16 32C24.8366 32 32 24.8366 32 16C32 7.16344 24.8366 0 16 0C7.16344 0 0 7.16344 0 16C0 24.8366 7.16344 32 16 32Z" fill="#FFFB1F"/>
	<path d="M16 6.26074L16.5181 7.85506H18.1943L16.8382 8.84037L17.3562 10.4347L16 9.44931L14.6438 10.4347L15.1618 8.84037L13.8057 7.85506H15.482L16 6.26074Z" fill="#191B20"/>
	<path d="M9.11364 9.11273L10.6074 9.87373L11.7927 8.68848L11.5304 10.3441L13.0241 11.1052L11.3684 11.3674L11.1061 13.0232L10.3451 11.5295L8.68945 11.7918L9.87477 10.6065L9.11364 9.11273Z" fill="#191B20"/>
	<path d="M6.26074 15.9991L7.85505 15.481V13.8047L8.8403 15.1609L10.4347 14.6429L9.44924 15.9991L10.4347 17.3553L8.8403 16.8373L7.85505 18.1934V16.5171L6.26074 15.9991Z" fill="#191B20"/>
	<path d="M9.11364 22.8869L9.8747 21.3932L8.68945 20.2079L10.3451 20.4703L11.1061 18.9766L11.3684 20.6322L13.024 20.8945L11.5305 21.6556L11.7927 23.3112L10.6074 22.1259L9.11364 22.8869Z" fill="#191B20"/>
	<path d="M16 25.7383L15.4819 24.144H13.8057L15.1619 23.1586L14.6438 21.5645L16 22.5497L17.3562 21.5645L16.8382 23.1586L18.1943 24.144H16.518L16 25.7383Z" fill="#191B20"/>
	<path d="M22.8869 22.8869L21.3932 22.1259L20.2078 23.3113L20.4701 21.6555L18.9766 20.8945L20.6322 20.6322L20.8944 18.9766L21.6554 20.4703L23.3111 20.2079L22.1258 21.3933L22.8869 22.8869Z" fill="#191B20"/>
	<path d="M25.7383 15.9991L24.144 16.5171V18.1934L23.1586 16.8372L21.5645 17.3553L22.5498 15.9991L21.5645 14.6429L23.1587 15.1609L24.144 13.8047V15.4811L25.7383 15.9991Z" fill="#191B20"/>
	<path d="M22.8869 9.11266L22.1258 10.6064L23.3111 11.7917L21.6554 11.5294L20.8944 13.023L20.6322 11.3674L18.9766 11.105L20.4701 10.344L20.2078 8.68848L21.3932 9.87373L22.8869 9.11266Z" fill="#191B20"/>
</svg>
