<svg width="252" height="162" viewBox="0 0 252 162" fill="none" xmlns="http://www.w3.org/2000/svg">
	<path d="M3.38795 53.9266C1.51684 44.7261 7.45848 35.7507 16.659 33.8796L166.59 3.38809C175.79 1.51698 184.766 7.45863 186.637 16.6591V16.6591C188.508 25.8596 182.566 34.835 173.366 36.7061L23.4349 67.1976C14.2344 69.0687 5.25906 63.1271 3.38795 53.9266V53.9266Z" fill="#191B20"/>
	<path d="M23.023 43.4593C23.5352 43.3552 24.0256 43.3316 24.4944 43.3887C24.9067 43.4354 25.3046 43.5722 25.6881 43.799C26.0339 44.0008 26.3225 44.2687 26.5536 44.6026C26.7765 44.9492 26.9315 45.3367 27.0187 45.7653C27.1377 46.3506 27.0893 46.8884 26.8733 47.3786C26.6343 47.8626 26.2966 48.2361 25.8602 48.499C26.4984 48.5325 27.043 48.7483 27.494 49.1464C27.9598 49.5632 28.2586 50.0957 28.3904 50.7438C28.4839 51.2037 28.4842 51.6336 28.3914 52.0334C28.284 52.4689 28.12 52.8397 27.8992 53.1458C27.643 53.4918 27.3197 53.7753 26.9292 53.9962C26.5326 54.2401 26.0781 54.4142 25.566 54.5184L21.458 55.3538L19.1973 44.2373L23.023 43.4593ZM23.7287 48.214C24.2827 48.1014 24.6826 47.8731 24.9283 47.5292C25.1845 47.1832 25.2647 46.7751 25.1691 46.3047C25.0734 45.8343 24.8401 45.4899 24.4691 45.2715C24.0981 45.053 23.6252 45.0022 23.0503 45.1192L21.3883 45.4572L22.0197 48.5616L23.7287 48.214ZM24.9115 52.9861C25.4759 52.8713 25.8967 52.6388 26.1738 52.2885C26.4613 51.9361 26.5541 51.5091 26.452 51.0073C26.3542 50.5265 26.1177 50.1664 25.7425 49.9271C25.3777 49.6856 24.9027 49.6244 24.3173 49.7434L22.3417 50.1452L22.9986 53.3751L24.9115 52.9861ZM35.2267 51.672C35.1087 52.0552 34.8692 52.376 34.5081 52.6345C34.1387 52.9055 33.7293 53.0868 33.2799 53.1782C32.8304 53.2696 32.4068 53.2741 32.0091 53.1917C31.6113 53.1093 31.2688 52.9504 30.9814 52.7149C30.6879 52.5025 30.4349 52.222 30.2225 51.8733C30.0164 51.556 29.8677 51.1726 29.7763 50.7231L28.7974 45.9097L30.6162 45.5398L31.5281 50.024C31.577 50.2644 31.6541 50.4828 31.7593 50.6791C31.8415 50.8692 31.9676 51.034 32.1375 51.1736C32.2948 51.3049 32.4823 51.3974 32.7 51.4511C32.9073 51.5069 33.1468 51.5072 33.4186 51.4519C33.9621 51.3413 34.3316 51.0975 34.527 50.7203C34.7267 50.364 34.7745 49.9298 34.6703 49.4176L33.752 44.9021L35.5707 44.5322L36.8398 50.7724C36.8866 51.0024 36.9523 51.272 37.037 51.5814C37.111 51.8384 37.166 52.0286 37.202 52.1519L35.4616 52.5059C35.4342 52.4244 35.393 52.3021 35.3381 52.1391C35.3064 52.0367 35.2692 51.881 35.2267 51.672ZM40.0768 54.7838L41.0982 50.4126L36.469 44.3495L38.5229 43.9318L41.7001 48.3145L42.772 43.0677L44.7005 42.6755L42.021 54.3884L40.0768 54.7838ZM52.1839 42.6557C51.8912 42.7152 51.6353 42.8217 51.4162 42.9751C51.1678 43.1453 50.9791 43.3415 50.8501 43.5637C50.6836 43.8153 50.5767 44.0928 50.5296 44.3963C50.4784 44.7332 50.49 45.0847 50.5644 45.4505C50.6388 45.8163 50.7654 46.1444 50.9441 46.4346C51.1103 46.7164 51.3181 46.9354 51.5676 47.0915C51.7982 47.2623 52.0548 47.3734 52.3374 47.4248C52.6095 47.4783 52.8919 47.4753 53.1846 47.4157C53.4668 47.3583 53.7186 47.2582 53.9399 47.1152C54.1298 46.9786 54.2935 46.8201 54.431 46.6398C54.5642 46.4385 54.6536 46.2625 54.6991 46.1117C54.7572 45.9693 54.7943 45.8039 54.8105 45.6156L56.5277 45.8705C56.4932 46.1823 56.4126 46.5089 56.2861 46.8503C56.1596 47.1917 55.9787 47.5061 55.7432 47.7934C55.4702 48.1102 55.1646 48.3737 54.8264 48.584C54.4485 48.8132 54.0139 48.9778 53.5226 49.0777C52.9791 49.1883 52.4352 49.19 51.8909 49.083C51.3697 48.9822 50.8994 48.7839 50.4801 48.4882C50.0776 48.2218 49.7134 47.8495 49.3876 47.3716C49.0765 46.9123 48.8625 46.3953 48.7456 45.8204C48.6223 45.2141 48.6122 44.6556 48.7151 44.1449C48.82 43.5902 49.0098 43.1053 49.2846 42.6902C49.5761 42.2499 49.9315 41.8837 50.3511 41.5916C50.7706 41.2995 51.2626 41.096 51.827 40.9812C52.3288 40.8792 52.7983 40.8599 53.2358 40.9233C53.6292 40.9848 54.0135 41.108 54.3885 41.293C54.7406 41.4717 55.03 41.6905 55.2567 41.9491C55.5108 42.2349 55.7031 42.5114 55.8336 42.7788L54.3242 43.7062C54.2379 43.5496 54.1401 43.3899 54.0308 43.2271C53.93 43.1061 53.779 42.9789 53.5777 42.8457C53.3933 42.7417 53.1881 42.6692 52.962 42.6281C52.7255 42.5891 52.4661 42.5983 52.1839 42.6557ZM61.4268 41.1515C61.2114 41.1626 61.0096 41.1874 60.8214 41.2256C60.1106 41.3702 59.6325 41.6688 59.3872 42.1214C59.1335 42.5866 59.0789 43.1747 59.2234 43.8854L59.9632 47.523L58.1444 47.8929L56.5916 40.2572L58.3633 39.8968L58.612 41.1198C58.6985 40.6886 58.92 40.3061 59.2767 39.9723C59.6166 39.6637 60.0427 39.4573 60.5549 39.3532C60.7012 39.3234 60.8016 39.3084 60.856 39.3083C60.8769 39.304 60.9093 39.3029 60.9533 39.3048C60.9951 39.2963 61.0275 39.2952 61.0505 39.3014L61.4268 41.1515ZM64.7456 49.7669L65.7669 45.3957L61.1377 39.3326L63.1917 38.9149L66.3689 43.2976L67.4407 38.0508L69.3692 37.6586L66.6898 49.3715L64.7456 49.7669ZM72.3555 48.105L70.1968 37.4903L71.9529 37.1331L72.1633 38.1679C72.2918 37.7826 72.5364 37.4335 72.8973 37.1207C73.2687 36.8057 73.7522 36.5876 74.348 36.4664C74.9229 36.3495 75.4449 36.3468 75.9138 36.4582C76.3828 36.5696 76.806 36.7775 77.1835 37.0817C77.5736 37.3942 77.8886 37.7655 78.1285 38.1957C78.3852 38.6551 78.571 39.167 78.6857 39.7314C78.8048 40.3168 78.8285 40.8617 78.7569 41.366C78.6791 41.8935 78.5248 42.3657 78.294 42.7827C78.0548 43.2123 77.7307 43.5722 77.3216 43.8622C76.946 44.1563 76.476 44.3607 75.9115 44.4755C75.3366 44.5924 74.8398 44.5846 74.421 44.4521C73.9708 44.3259 73.6229 44.1409 73.3774 43.8969L74.1586 47.7383L72.3555 48.105ZM76.867 40.1013C76.7182 39.3696 76.4131 38.833 75.9518 38.4914C75.4883 38.1394 74.9482 38.0261 74.3315 38.1515C74.0389 38.211 73.7736 38.3248 73.5356 38.493C73.2977 38.6611 73.1153 38.8615 72.9884 39.0941C72.8533 39.3393 72.7632 39.6188 72.7182 39.9328C72.671 40.2362 72.6847 40.5709 72.7591 40.9368C72.91 41.6789 73.2224 42.2249 73.6963 42.5748C74.1807 42.9226 74.7155 43.037 75.3009 42.9179C75.9071 42.7946 76.3548 42.4804 76.644 41.9754C76.9436 41.4681 77.0179 40.8435 76.867 40.1013ZM81.5113 35.1892L83.0949 34.8672L83.4233 36.4821L81.8398 36.8042L82.5604 40.3476C82.6284 40.6821 82.7557 40.9066 82.9423 41.021C83.1309 41.1459 83.3925 41.1744 83.727 41.1063C83.8106 41.0893 83.9339 41.0534 84.0969 40.9985C84.1283 40.9921 84.1544 40.9868 84.1753 40.9825C84.2045 40.9657 84.2296 40.9551 84.2505 40.9509C84.2714 40.9466 84.2871 40.9435 84.2976 40.9413C84.3163 40.9266 84.331 40.9182 84.3414 40.9161L84.6475 42.4213C84.6371 42.4234 84.612 42.4339 84.5723 42.4529C84.5431 42.4697 84.5045 42.4939 84.4564 42.5254C84.4168 42.5444 84.3729 42.5696 84.3249 42.6012C84.1766 42.6749 83.9248 42.7479 83.5694 42.8201C82.8691 42.9626 82.2694 42.8777 81.7706 42.5655C81.2821 42.2512 80.9646 41.7335 80.8179 41.0122L80.0367 37.1709L78.6255 37.4578L78.2971 35.8429L78.6891 35.7632C79.0967 35.6803 79.3713 35.5047 79.5126 35.2365C79.6519 34.9578 79.6886 34.6564 79.6227 34.3324L79.3899 33.1878L81.0362 32.853L81.5113 35.1892ZM88.21 40.162C88.4716 40.2176 88.7488 40.2157 89.0415 40.1562C89.3342 40.0966 89.5953 39.9891 89.8249 39.8336C90.0441 39.6801 90.2369 39.4776 90.4035 39.2261C90.5721 38.985 90.6779 38.7022 90.7208 38.3778C90.772 38.0409 90.7583 37.679 90.6796 37.2922C90.6031 36.9159 90.4754 36.5827 90.2967 36.2925C90.1326 36.0211 89.9248 35.8021 89.6733 35.6356C89.4091 35.4607 89.1535 35.3548 88.9066 35.318C88.6345 35.2645 88.3521 35.2675 88.0594 35.327C87.7667 35.3865 87.5108 35.493 87.2916 35.6464C87.0578 35.7811 86.8639 35.9783 86.7099 36.2382C86.5538 36.4877 86.4481 36.7704 86.3926 37.0865C86.3267 37.4047 86.3341 37.7624 86.4149 38.1596C86.4957 38.5568 86.6296 38.8942 86.8167 39.1718C86.9933 39.4515 87.2011 39.6705 87.4401 39.8287C87.6708 39.9995 87.9274 40.1106 88.21 40.162ZM87.7246 33.6807C88.3099 33.5617 88.858 33.5536 89.3687 33.6566C89.8795 33.7595 90.355 33.9567 90.7953 34.2481C91.1978 34.5146 91.5619 34.8868 91.8877 35.3648C92.182 35.7948 92.3908 36.3129 92.514 36.9192C92.6373 37.5254 92.6475 38.0839 92.5446 38.5947C92.4397 39.1494 92.2498 39.6343 91.9751 40.0494C91.6836 40.4896 91.3229 40.8569 90.8929 41.1511C90.4337 41.4622 89.9271 41.6741 89.3731 41.7868C88.8296 41.8973 88.2857 41.8991 87.7414 41.7921C87.2076 41.6829 86.7321 41.4857 86.3149 41.2005C85.8998 40.9257 85.5357 40.5535 85.2225 40.0838C84.9282 39.6538 84.7194 39.1357 84.5961 38.5294C84.4728 37.9232 84.4627 37.3647 84.5656 36.8539C84.6788 36.2866 84.8687 35.8017 85.1351 35.3992C85.4078 34.9737 85.7685 34.6064 86.2173 34.2975C86.6472 34.0032 87.1497 33.7976 87.7246 33.6807ZM102.364 30.9485L105.241 35.8656L105.688 30.2725L107.538 29.8962L106.645 38.0293L104.826 38.3992L101.813 33.2974L101.079 39.1613L99.2128 39.5408L95.1826 32.4089L97.1268 32.0135L99.7536 36.9816L100.482 31.3311L102.364 30.9485ZM110.05 37.3368L108.497 29.7011L110.3 29.3344L111.853 36.9701L110.05 37.3368ZM108.184 27.8382C107.909 27.6655 107.738 27.4119 107.67 27.0774C107.602 26.7429 107.659 26.4373 107.842 26.1605C108.026 25.8838 108.279 25.7125 108.603 25.6466C108.938 25.5786 109.243 25.6362 109.52 25.8194C109.797 26.0026 109.969 26.2614 110.037 26.5959C110.105 26.9304 110.047 27.2307 109.861 27.497C109.678 27.7737 109.419 27.9461 109.085 28.0141C108.761 28.08 108.46 28.0214 108.184 27.8382ZM114.483 28.4837L116.067 28.1616L116.395 29.7766L114.812 30.0986L115.532 33.6421C115.6 33.9766 115.728 34.2011 115.914 34.3155C116.103 34.4404 116.364 34.4688 116.699 34.4008C116.783 34.3838 116.906 34.3479 117.069 34.2929C117.1 34.2866 117.126 34.2812 117.147 34.277C117.176 34.2602 117.202 34.2496 117.222 34.2454C117.243 34.2411 117.259 34.2379 117.269 34.2358C117.288 34.2211 117.303 34.2127 117.313 34.2106L117.619 35.7157C117.609 35.7179 117.584 35.7284 117.544 35.7474C117.515 35.7642 117.476 35.7884 117.428 35.8199C117.389 35.8389 117.345 35.8641 117.297 35.8957C117.149 35.9693 116.897 36.0423 116.541 36.1146C115.841 36.257 115.241 36.1722 114.742 35.86C114.254 35.5457 113.936 35.0279 113.79 34.3067L113.009 30.4653L111.597 30.7523L111.269 29.1374L111.661 29.0576C112.069 28.9747 112.343 28.7992 112.485 28.531C112.624 28.2523 112.661 27.9509 112.595 27.6269L112.362 26.4823L114.008 26.1475L114.483 28.4837ZM120.712 35.1684L118.893 35.5383L116.585 24.1867L118.404 23.8168L119.309 28.2696C119.513 27.8799 119.792 27.5673 120.147 27.3318C120.525 27.1026 120.907 26.9486 121.294 26.87C121.764 26.7743 122.193 26.7688 122.581 26.8533C122.934 26.9337 123.265 27.0895 123.574 27.3207C123.861 27.5562 124.099 27.8452 124.289 28.1876C124.48 28.5405 124.617 28.9208 124.7 29.3285L125.682 34.1576L123.864 34.5275L122.945 30.0119C122.848 29.5311 122.651 29.1521 122.355 28.8748C122.059 28.5975 121.618 28.5184 121.033 28.6375C120.531 28.7395 120.183 28.9791 119.987 29.3563C119.775 29.7586 119.713 30.2013 119.8 30.6842L120.712 35.1684ZM129.816 31.1618C129.748 30.8273 129.749 30.5115 129.819 30.2142C129.866 29.9651 129.981 29.7022 130.164 29.4255C130.344 29.1822 130.553 28.9818 130.793 28.8241C131.092 28.6327 131.378 28.4875 131.652 28.3883L133.551 27.6918C133.775 27.6137 133.912 27.5149 133.964 27.3955C134.02 27.297 134.034 27.1746 134.004 27.0282C133.938 26.7042 133.767 26.4506 133.49 26.2674C133.215 26.0947 132.827 26.0593 132.325 26.1613C131.845 26.2591 131.5 26.4652 131.292 26.7797C131.092 27.0816 131.007 27.4417 131.038 27.86L129.3 27.8217C129.261 27.4703 129.296 27.1366 129.406 26.8203C129.512 26.4832 129.677 26.172 129.902 25.8868C130.1 25.6288 130.387 25.38 130.763 25.1403C131.111 24.9279 131.526 24.7728 132.007 24.675C132.592 24.556 133.105 24.5334 133.544 24.6073C133.994 24.679 134.371 24.8201 134.675 25.0304C135.002 25.2469 135.252 25.5117 135.424 25.825C135.62 26.1444 135.756 26.4923 135.833 26.8686L136.604 30.6629C136.662 30.9451 136.728 31.22 136.805 31.4875C136.885 31.7215 136.932 31.8479 136.947 31.8667L135.254 32.2111C135.239 32.1923 135.204 32.1014 135.149 31.9384C135.086 31.7336 135.029 31.5058 134.978 31.2549C134.868 31.5712 134.642 31.9056 134.3 32.2581C133.954 32.5898 133.478 32.8172 132.871 32.9405C132.474 33.0213 132.101 33.0319 131.751 32.9724C131.423 32.9086 131.122 32.7956 130.85 32.6333C130.575 32.4605 130.351 32.2447 130.179 31.9859C130 31.7501 129.879 31.4754 129.816 31.1618ZM132.926 31.4436C133.187 31.3904 133.42 31.305 133.625 31.1871C133.842 31.0777 134.024 30.9265 134.17 30.7335C134.301 30.5762 134.396 30.35 134.456 30.0548C134.512 29.7931 134.5 29.4689 134.421 29.0822L134.351 28.7372L132.421 29.4401C132.157 29.5372 131.938 29.6906 131.763 29.9004C131.599 30.108 131.548 30.3686 131.612 30.6822C131.665 30.9435 131.806 31.1543 132.035 31.3147C132.263 31.475 132.56 31.518 132.926 31.4436ZM144.083 23.9662C143.79 24.0257 143.534 24.1322 143.315 24.2856C143.067 24.4558 142.878 24.652 142.749 24.8742C142.582 25.1258 142.476 25.4033 142.428 25.7068C142.377 26.0437 142.389 26.3951 142.463 26.761C142.538 27.1268 142.664 27.4548 142.843 27.745C143.009 28.0269 143.217 28.2459 143.466 28.402C143.697 28.5728 143.954 28.6839 144.236 28.7352C144.508 28.7887 144.791 28.7857 145.083 28.7262C145.366 28.6688 145.617 28.5686 145.839 28.4257C146.029 28.2891 146.192 28.1306 146.33 27.9503C146.463 27.749 146.552 27.573 146.598 27.4222C146.656 27.2798 146.693 27.1144 146.709 26.9261L148.427 27.181C148.392 27.4928 148.311 27.8194 148.185 28.1608C148.058 28.5022 147.877 28.8165 147.642 29.1039C147.369 29.4207 147.063 29.6842 146.725 29.8945C146.347 30.1237 145.913 30.2883 145.421 30.3882C144.878 30.4987 144.334 30.5005 143.79 30.3935C143.269 30.2927 142.798 30.0944 142.379 29.7987C141.976 29.5323 141.612 29.16 141.286 28.682C140.975 28.2228 140.761 27.7058 140.644 27.1309C140.521 26.5246 140.511 25.9661 140.614 25.4553C140.719 24.9006 140.909 24.4157 141.183 24.0007C141.475 23.5604 141.83 23.1942 142.25 22.9021C142.669 22.61 143.161 22.4065 143.726 22.2917C144.228 22.1897 144.697 22.1704 145.135 22.2338C145.528 22.2953 145.912 22.4185 146.287 22.6035C146.639 22.7822 146.929 23.0009 147.156 23.2596C147.41 23.5454 147.602 23.8219 147.732 24.0893L146.223 25.0167C146.137 24.8601 146.039 24.7004 145.93 24.5376C145.829 24.4165 145.678 24.2894 145.477 24.1562C145.292 24.0522 145.087 23.9796 144.861 23.9385C144.624 23.8996 144.365 23.9088 144.083 23.9662ZM149.136 27.2326C149.068 26.8981 149.069 26.5822 149.14 26.2849C149.187 26.0358 149.302 25.7729 149.485 25.4962C149.664 25.2529 149.874 25.0525 150.114 24.8948C150.413 24.7035 150.699 24.5582 150.972 24.459L152.872 23.7625C153.095 23.6844 153.233 23.5856 153.285 23.4662C153.341 23.3677 153.354 23.2453 153.325 23.099C153.259 22.7749 153.087 22.5213 152.811 22.3381C152.536 22.1654 152.148 22.13 151.646 22.2321C151.165 22.3299 150.821 22.536 150.613 22.8504C150.413 23.1523 150.328 23.5124 150.359 23.9307L148.62 23.8924C148.581 23.5411 148.617 23.2073 148.727 22.8911C148.832 22.5539 148.998 22.2427 149.223 21.9575C149.421 21.6996 149.707 21.4507 150.083 21.211C150.432 20.9986 150.847 20.8435 151.327 20.7457C151.913 20.6267 152.425 20.6041 152.865 20.678C153.315 20.7498 153.692 20.8908 153.996 21.1011C154.323 21.3176 154.573 21.5825 154.745 21.8957C154.941 22.2151 155.077 22.563 155.153 22.9393L155.925 26.7336C155.982 27.0158 156.049 27.2907 156.125 27.5582C156.206 27.7923 156.253 27.9187 156.268 27.9374L154.574 28.2818C154.56 28.263 154.525 28.1722 154.47 28.0092C154.407 27.8044 154.349 27.5765 154.298 27.3257C154.189 27.6419 153.963 27.9763 153.621 28.3288C153.275 28.6605 152.798 28.8879 152.192 29.0112C151.795 29.092 151.421 29.1026 151.072 29.0431C150.743 28.9793 150.443 28.8663 150.17 28.704C149.896 28.5313 149.672 28.3155 149.5 28.0566C149.321 27.8208 149.2 27.5461 149.136 27.2326ZM152.247 27.5143C152.508 27.4612 152.741 27.3757 152.946 27.2579C153.163 27.1484 153.344 26.9972 153.49 26.8043C153.622 26.6469 153.717 26.4207 153.777 26.1255C153.832 25.8639 153.821 25.5397 153.742 25.1529L153.672 24.808L151.741 25.5108C151.478 25.6079 151.259 25.7613 151.084 25.9711C150.919 26.1787 150.869 26.4393 150.933 26.7529C150.986 27.0142 151.127 27.2251 151.355 27.3854C151.584 27.5457 151.881 27.5887 152.247 27.5143ZM161.185 20.8637C160.969 20.8748 160.767 20.8995 160.579 20.9378C159.869 21.0823 159.39 21.3809 159.145 21.8336C158.891 22.2988 158.837 22.8868 158.981 23.5976L159.721 27.2351L157.902 27.605L156.349 19.9693L158.121 19.609L158.37 20.832C158.456 20.4008 158.678 20.0183 159.035 19.6845C159.375 19.3759 159.801 19.1695 160.313 19.0653C160.459 19.0356 160.56 19.0206 160.614 19.0204C160.635 19.0162 160.667 19.015 160.711 19.017C160.753 19.0085 160.785 19.0073 160.808 19.0135L161.185 20.8637ZM163.787 22.4081C163.933 23.1293 164.242 23.6817 164.711 24.065C165.166 24.4297 165.708 24.5482 166.335 24.4206C166.617 24.3632 166.877 24.2505 167.115 24.0824C167.351 23.9038 167.53 23.6877 167.653 23.4342C167.779 23.2016 167.869 22.9168 167.92 22.5799C167.952 22.2576 167.932 21.9188 167.86 21.5634C167.711 20.8317 167.41 20.2888 166.957 19.9346C166.496 19.593 165.967 19.4828 165.372 19.604C164.786 19.723 164.338 20.0372 164.028 20.5466C163.718 21.0559 163.638 21.6764 163.787 22.4081ZM170.117 23.6679C170.168 23.9187 170.24 24.2197 170.333 24.5709C170.397 24.8301 170.445 24.9889 170.479 25.0473L168.738 25.4013C168.713 25.3302 168.668 25.1871 168.602 24.9718C168.526 24.7043 168.478 24.5235 168.459 24.4295C168.356 24.777 168.13 25.1114 167.781 25.4326C167.441 25.7412 167 25.9508 166.456 26.0614C165.881 26.1783 165.358 26.1758 164.887 26.0539C164.397 25.9467 163.958 25.7421 163.57 25.44C163.164 25.1526 162.827 24.7803 162.56 24.323C162.28 23.8575 162.083 23.3424 161.968 22.778C161.859 22.2449 161.843 21.7094 161.919 21.1716C161.988 20.6567 162.153 20.1824 162.413 19.7485C162.669 19.2937 162.992 18.9287 163.382 18.6534C163.81 18.3487 164.28 18.1442 164.792 18.0401C165.148 17.9678 165.448 17.9449 165.693 17.9713C165.946 17.9851 166.183 18.0293 166.405 18.1039C166.642 18.1972 166.812 18.2825 166.914 18.3595C167.068 18.4699 167.182 18.5773 167.258 18.6816L166.32 14.072L168.092 13.7117L170.117 23.6679Z" fill="white"/>
	<path d="M57.6492 67.0899C57.0215 57.7221 64.1068 49.6191 73.4747 48.9915L231.121 38.429C240.489 37.8013 248.592 44.8866 249.22 54.2545V54.2545C249.847 63.6223 242.762 71.7252 233.394 72.3529L75.7476 82.9154C66.3798 83.5431 58.2768 76.4577 57.6492 67.0899V67.0899Z" fill="#FFFB1F"/>
	<path d="M80.3808 70.8189C79.6038 70.8709 78.8712 70.7864 78.1829 70.5653C77.4832 70.3342 76.8509 69.9917 76.286 69.5378C75.7082 69.0526 75.2465 68.4635 74.9007 67.7704C74.5422 67.0461 74.3322 66.2263 74.2709 65.311C74.2081 64.3745 74.3125 63.5389 74.584 62.8045C74.8541 62.0487 75.2385 61.4029 75.7371 60.8671C76.2251 60.3319 76.8057 59.9028 77.4789 59.5797C78.1628 59.256 78.8613 59.0702 79.5743 59.0224C80.2981 58.9739 80.9487 59.0319 81.5263 59.1963C82.0919 59.3402 82.6099 59.5727 83.0805 59.894C83.5396 60.2053 83.9169 60.5702 84.2122 60.9888C84.5309 61.4378 84.7645 61.8925 84.9129 62.353L83.1496 63.0805C83.0523 62.7449 82.9032 62.4342 82.7023 62.1483C82.5007 61.8518 82.2594 61.6007 81.9783 61.395C81.6973 61.1893 81.3662 61.0351 80.9852 60.9324C80.6148 60.8289 80.1848 60.7936 79.6952 60.8264C79.2163 60.8585 78.7644 60.9743 78.3394 61.1738C77.9045 61.3847 77.5225 61.6668 77.1934 62.0203C76.8544 62.3851 76.6012 62.835 76.434 63.3701C76.2561 63.9058 76.1896 64.509 76.2345 65.1795C76.278 65.8287 76.4236 66.4069 76.6714 66.9141C76.9299 67.4207 77.2347 67.8225 77.5861 68.1197C77.9821 68.4459 78.404 68.6796 78.8518 68.8206C79.2995 68.9617 79.7682 69.0158 80.2578 68.983C80.758 68.9495 81.179 68.8518 81.521 68.6899C81.9147 68.5032 82.2268 68.2952 82.4574 68.0659C82.7375 67.7799 82.9539 67.4981 83.1063 67.2206C83.2758 66.8779 83.3935 66.56 83.4593 66.2669L85.2539 66.724C85.1576 67.2008 84.9864 67.6773 84.7403 68.1535C84.5049 68.629 84.1804 69.0516 83.7669 69.4214C83.3548 69.8125 82.8682 70.1284 82.307 70.3691C81.7359 70.6212 81.0938 70.7711 80.3808 70.8189ZM85.9703 68.0871C85.9474 67.7465 85.9906 67.4336 86.0998 67.1484C86.1799 66.9078 86.3292 66.6626 86.5476 66.4128C86.7576 66.1956 86.992 66.0249 87.251 65.9006C87.5723 65.7508 87.8753 65.645 88.1598 65.5831L90.135 65.1461C90.367 65.0985 90.5167 65.019 90.584 64.9076C90.6528 64.8174 90.6822 64.6979 90.6722 64.5489C90.6501 64.2189 90.5142 63.9447 90.2643 63.7263C90.0152 63.5185 89.6352 63.4317 89.1244 63.4659C88.6348 63.4987 88.2659 63.6571 88.0177 63.941C87.7794 64.2135 87.6475 64.5591 87.6221 64.9777L85.9042 64.708C85.9126 64.3546 85.9923 64.0286 86.1434 63.7298C86.293 63.4097 86.4983 63.1234 86.7593 62.8707C86.9898 62.6414 87.3073 62.4331 87.7117 62.2456C88.0855 62.0816 88.5172 61.9832 89.0068 61.9504C89.6028 61.9105 90.1137 61.9564 90.5395 62.0882C90.9759 62.2194 91.3307 62.4094 91.604 62.6583C91.8992 62.9165 92.1115 63.2123 92.2407 63.5458C92.3919 63.8884 92.4804 64.2513 92.5061 64.6345L92.7649 68.4978C92.7842 68.7852 92.8137 69.0665 92.8535 69.3418C92.9019 69.5844 92.9321 69.716 92.9441 69.7366L91.22 69.8521C91.2079 69.8315 91.1856 69.7368 91.1529 69.568C91.1173 69.3565 91.091 69.1231 91.0739 68.8677C90.9228 69.1664 90.6544 69.4677 90.2685 69.7715C89.8812 70.0541 89.3789 70.216 88.7616 70.2574C88.3572 70.2845 87.9857 70.2452 87.6472 70.1396C87.33 70.0326 87.0472 69.8805 86.7988 69.6833C86.5497 69.4755 86.357 69.2318 86.2207 68.9523C86.0751 68.6948 85.9917 68.4064 85.9703 68.0871ZM89.0155 68.7811C89.2815 68.7633 89.5238 68.7096 89.7423 68.6201C89.9722 68.5406 90.1723 68.4149 90.3425 68.2432C90.4936 68.1048 90.6184 67.8933 90.7169 67.6087C90.8069 67.3568 90.8388 67.034 90.8124 66.6402L90.7888 66.289L88.7817 66.7281C88.5078 66.7892 88.2702 66.9121 88.0687 67.0966C87.8779 67.2804 87.7932 67.532 87.8146 67.8513C87.8325 68.1174 87.9439 68.3451 88.149 68.5345C88.3542 68.7238 88.643 68.806 89.0155 68.7811ZM95.5069 66.9991C95.5616 67.3376 95.726 67.6366 95.9999 67.8962C96.2838 68.1444 96.6759 68.2518 97.1761 68.2183C97.5486 68.1933 97.8299 68.0836 98.02 67.8891C98.2108 67.7053 98.298 67.491 98.2816 67.2462C98.2673 67.0333 98.1807 66.8574 98.0217 66.7184C97.8627 66.5794 97.6268 66.4883 97.3139 66.4451L96.1473 66.2667C95.4456 66.164 94.9052 65.9169 94.5262 65.5254C94.1486 65.1552 93.9412 64.6933 93.9041 64.1399C93.882 63.81 93.9348 63.4804 94.0624 63.1511C94.1716 62.8658 94.356 62.5862 94.6156 62.3122C94.856 62.0716 95.1422 61.8761 95.4742 61.7255C95.8055 61.5644 96.1787 61.4699 96.5938 61.442C97.1259 61.4064 97.5836 61.4559 97.9668 61.5906C98.3379 61.7047 98.6537 61.8706 98.9142 62.0884C99.1512 62.2756 99.3376 62.5037 99.4732 62.7725C99.6074 63.0201 99.6965 63.2333 99.7405 63.4121L98.206 63.9639C98.2031 63.9213 98.1577 63.8014 98.0696 63.6042C98.0072 63.4694 97.9188 63.3471 97.8045 63.2371C97.6682 63.118 97.5178 63.0265 97.3532 62.9627C97.1885 62.8989 96.9679 62.8763 96.6911 62.8948C96.3612 62.9169 96.1008 63.0199 95.91 63.2037C95.7093 63.3989 95.6171 63.6189 95.6335 63.8637C95.6478 64.0765 95.7287 64.2475 95.8764 64.3766C96.0247 64.5163 96.2227 64.5993 96.4703 64.6254L97.6677 64.7857C98.4128 64.8962 98.9908 65.1461 99.4017 65.5355C99.8035 65.9469 100.023 66.4346 100.061 66.9987C100.08 67.286 100.041 67.5826 99.9443 67.8885C99.8365 68.195 99.6734 68.4732 99.4549 68.7231C99.2166 68.9956 98.9212 69.2132 98.5686 69.3758C98.1954 69.5505 97.7694 69.6538 97.2905 69.6859C96.7264 69.7237 96.2421 69.676 95.8377 69.5427C95.4445 69.4194 95.1064 69.2389 94.8232 69.0013C94.5521 68.7843 94.3434 68.5417 94.1971 68.2736C94.0395 67.9955 93.9486 67.7557 93.9244 67.5542L95.5069 66.9991ZM103.402 69.0359L101.55 69.16L100.776 57.6019L102.628 57.4778L102.932 62.0116C103.185 61.6525 103.504 61.38 103.887 61.1939C104.292 61.0171 104.692 60.9155 105.085 60.8891C105.564 60.8571 105.99 60.9087 106.363 61.0441C106.702 61.171 107.01 61.3696 107.284 61.6398C107.538 61.9115 107.736 62.2296 107.878 62.5943C108.02 62.9696 108.106 63.3648 108.133 63.7798L108.463 68.6968L106.611 68.8209L106.303 64.2232C106.27 63.7336 106.126 63.3317 105.869 63.0175C105.613 62.7033 105.187 62.5661 104.591 62.606C104.08 62.6403 103.703 62.8312 103.459 63.179C103.195 63.5495 103.074 63.9798 103.096 64.4701L103.402 69.0359ZM112.815 66.8177C113.067 66.9077 113.342 66.9427 113.64 66.9227C113.938 66.9028 114.211 66.831 114.46 66.7075C114.697 66.5847 114.915 66.4097 115.114 66.1826C115.313 65.9661 115.456 65.7 115.541 65.3842C115.637 65.0571 115.672 64.6966 115.645 64.3028C115.62 63.9197 115.538 63.5724 115.399 63.261C115.273 62.9701 115.096 62.7254 114.869 62.5268C114.63 62.3182 114.391 62.1792 114.151 62.1098C113.889 62.0205 113.609 61.9858 113.311 62.0058C113.013 62.0257 112.745 62.0971 112.507 62.22C112.257 62.3222 112.039 62.4919 111.852 62.7289C111.664 62.9553 111.521 63.2214 111.424 63.5273C111.316 63.8338 111.276 64.1893 111.303 64.5938C111.33 64.9982 111.418 65.3504 111.566 65.6505C111.704 65.9513 111.881 66.1961 112.097 66.3847C112.302 66.5847 112.542 66.7291 112.815 66.8177ZM113.198 60.3295C113.794 60.2896 114.339 60.3547 114.831 60.5248C115.324 60.6949 115.768 60.9538 116.166 61.3013C116.529 61.6191 116.841 62.0365 117.1 62.5537C117.334 63.0191 117.472 63.5604 117.513 64.1777C117.555 64.795 117.49 65.3498 117.32 65.8423C117.142 66.3781 116.889 66.8333 116.562 67.2081C116.214 67.6055 115.808 67.9214 115.342 68.1557C114.846 68.4028 114.315 68.5452 113.751 68.583C113.198 68.6201 112.659 68.5493 112.134 68.3707C111.619 68.1914 111.174 67.9325 110.799 67.5942C110.424 67.2665 110.113 66.8491 109.865 66.3418C109.63 65.8765 109.493 65.3351 109.451 64.7178C109.41 64.1006 109.474 63.5457 109.644 63.0532C109.832 62.5061 110.085 62.0508 110.403 61.6874C110.73 61.3021 111.136 60.9862 111.622 60.7398C112.088 60.5055 112.613 60.3687 113.198 60.3295ZM124.101 66.7831C123.933 67.1472 123.653 67.4332 123.26 67.6412C122.858 67.8606 122.428 67.9856 121.97 68.0163C121.513 68.047 121.092 67.9949 120.709 67.8603C120.326 67.7256 120.008 67.5224 119.754 67.2507C119.492 67.0011 119.278 66.6893 119.114 66.3154C118.952 65.9735 118.856 65.5737 118.826 65.1161L118.497 60.215L120.349 60.091L120.655 64.6567C120.671 64.9015 120.719 65.1282 120.797 65.3368C120.853 65.5361 120.956 65.7163 121.106 65.8773C121.244 66.0284 121.417 66.1451 121.626 66.2273C121.824 66.3103 122.061 66.3425 122.338 66.3239C122.892 66.2869 123.29 66.0944 123.534 65.7467C123.78 65.4202 123.885 64.9962 123.85 64.4747L123.542 59.877L125.394 59.753L125.819 66.1067C125.835 66.3409 125.864 66.6169 125.907 66.9347C125.946 67.1994 125.975 67.3952 125.994 67.5222L124.222 67.6409C124.206 67.5565 124.182 67.4298 124.149 67.261C124.131 67.1553 124.115 66.996 124.101 66.7831ZM129.661 59.4671L131.273 59.359L131.383 61.0033L129.771 61.1114L130.013 64.7193C130.035 65.0599 130.132 65.2993 130.301 65.4376C130.472 65.5865 130.727 65.6496 131.068 65.6268C131.153 65.6211 131.28 65.6019 131.449 65.5692C131.481 65.5671 131.507 65.5653 131.528 65.5638C131.56 65.5511 131.586 65.544 131.607 65.5425C131.629 65.5411 131.645 65.54 131.655 65.5393C131.676 65.5273 131.691 65.5209 131.702 65.5201L131.805 67.0527C131.794 67.0534 131.768 67.0605 131.726 67.074C131.695 67.0868 131.653 67.1056 131.601 67.1305C131.56 67.144 131.513 67.1631 131.461 67.188C131.304 67.2413 131.045 67.28 130.683 67.3043C129.97 67.352 129.387 67.188 128.934 66.8121C128.492 66.4355 128.246 65.88 128.197 65.1456L127.935 61.2344L126.498 61.3307L126.388 59.6863L126.787 59.6596C127.202 59.6318 127.498 59.4944 127.674 59.2474C127.849 58.9898 127.925 58.696 127.903 58.3661L127.825 57.2007L129.501 57.0884L129.661 59.4671ZM139.552 60.2796C139.254 60.2996 138.986 60.371 138.748 60.4938C138.48 60.6294 138.266 60.7987 138.109 61.0017C137.91 61.2288 137.768 61.4896 137.68 61.7841C137.585 62.1113 137.549 62.4611 137.574 62.8336C137.599 63.2061 137.681 63.548 137.819 63.8595C137.946 64.161 138.123 64.4057 138.35 64.5937C138.555 64.7937 138.795 64.938 139.068 65.0266C139.331 65.1159 139.611 65.1506 139.909 65.1306C140.196 65.1114 140.459 65.0457 140.698 64.9335C140.904 64.8234 141.087 64.6882 141.248 64.5278C141.407 64.3461 141.519 64.1836 141.584 64.0402C141.66 63.9068 141.719 63.7478 141.76 63.5634L143.428 64.0449C143.353 64.3493 143.229 64.6623 143.058 64.9838C142.887 65.3052 142.666 65.5927 142.394 65.8461C142.082 66.1236 141.744 66.344 141.38 66.5073C140.975 66.6842 140.523 66.7893 140.022 66.8228C139.469 66.8599 138.93 66.7891 138.405 66.6105C137.901 66.4411 137.462 66.1819 137.086 65.8329C136.722 65.5152 136.411 65.0977 136.152 64.5806C135.905 64.084 135.762 63.543 135.722 62.9576C135.681 62.3404 135.745 61.7855 135.916 61.293C136.093 60.7572 136.346 60.302 136.674 59.9273C137.021 59.5298 137.423 59.2143 137.877 58.9807C138.332 58.7471 138.847 58.611 139.422 58.5725C139.932 58.5383 140.4 58.5818 140.825 58.703C141.207 58.8164 141.572 58.9897 141.919 59.2231C142.244 59.4472 142.501 59.7025 142.692 59.9891C142.905 60.3062 143.059 60.6059 143.153 60.8883L141.533 61.6062C141.468 61.4395 141.393 61.2681 141.306 61.0922C141.222 60.9588 141.09 60.8127 140.908 60.6538C140.739 60.5262 140.545 60.4269 140.327 60.356C140.098 60.2858 139.839 60.2604 139.552 60.2796ZM148.913 60.0213C148.698 60.0036 148.495 60.0012 148.303 60.014C147.579 60.0625 147.066 60.2947 146.762 60.7106C146.449 61.1378 146.316 61.7133 146.365 62.437L146.613 66.1407L144.761 66.2648L144.24 58.4902L146.044 58.3694L146.127 59.6146C146.271 59.1987 146.541 58.8492 146.939 58.566C147.317 58.3054 147.767 58.1577 148.289 58.1228C148.438 58.1128 148.539 58.1113 148.593 58.1184C148.614 58.117 148.647 58.1202 148.69 58.128C148.732 58.1251 148.765 58.1283 148.787 58.1375L148.913 60.0213ZM151.053 69.0023L152.648 64.8063L148.869 58.1801L150.96 58.04L153.525 62.8072L155.287 57.7501L157.25 57.6185L153.033 68.8696L151.053 69.0023ZM158.817 68.3699L158.093 57.5621L159.881 57.4423L159.951 58.4959C160.13 58.1312 160.419 57.8178 160.818 57.5559C161.228 57.2932 161.737 57.1415 162.343 57.1009C162.929 57.0617 163.446 57.1286 163.896 57.3015C164.346 57.4745 164.738 57.7369 165.072 58.0887C165.417 58.4505 165.679 58.8605 165.86 59.3188C166.053 59.8083 166.169 60.3404 166.207 60.9151C166.247 61.5111 166.198 62.0543 166.06 62.5446C165.912 63.057 165.696 63.5044 165.412 63.8869C165.118 64.2808 164.748 64.5942 164.304 64.8271C163.893 65.0685 163.4 65.2084 162.825 65.2469C162.24 65.2861 161.748 65.2122 161.351 65.025C160.922 64.8399 160.602 64.6101 160.391 64.3356L160.653 68.2469L158.817 68.3699ZM164.355 61.0392C164.305 60.2942 164.075 59.7217 163.663 59.3217C163.25 58.911 162.73 58.7267 162.102 58.7687C161.804 58.7887 161.526 58.8661 161.268 59.001C161.01 59.1359 160.802 59.3102 160.646 59.5238C160.479 59.7488 160.352 60.0138 160.266 60.319C160.179 60.6135 160.148 60.947 160.173 61.3195C160.223 62.0751 160.46 62.6579 160.883 63.0679C161.317 63.4771 161.832 63.6618 162.428 63.6219C163.045 63.5805 163.53 63.3288 163.884 62.8668C164.249 62.404 164.406 61.7949 164.355 61.0392ZM169.613 56.7902L171.225 56.6822L171.336 58.3265L169.723 58.4345L169.965 62.0424C169.988 62.383 170.084 62.6224 170.254 62.7607C170.424 62.9097 170.679 62.9728 171.02 62.9499C171.105 62.9442 171.232 62.925 171.401 62.8923C171.433 62.8902 171.46 62.8884 171.481 62.887C171.512 62.8742 171.538 62.8671 171.56 62.8657C171.581 62.8643 171.597 62.8632 171.607 62.8625C171.628 62.8504 171.644 62.844 171.654 62.8433L171.757 64.3759C171.746 64.3766 171.72 64.3837 171.678 64.3972C171.647 64.41 171.605 64.4288 171.554 64.4536C171.512 64.4671 171.465 64.4863 171.413 64.5111C171.256 64.5644 170.997 64.6032 170.635 64.6274C169.922 64.6752 169.339 64.5111 168.886 64.1352C168.444 63.7586 168.199 63.2031 168.149 62.4688L167.887 58.5575L166.451 58.6538L166.34 57.0095L166.739 56.9827C167.155 56.9549 167.45 56.8175 167.626 56.5706C167.801 56.3129 167.878 56.0192 167.856 55.6892L167.777 54.5239L169.454 54.4115L169.613 56.7902ZM175.589 62.6117C175.841 62.7018 176.116 62.7368 176.414 62.7168C176.712 62.6969 176.985 62.6251 177.233 62.5016C177.471 62.3787 177.689 62.2038 177.888 61.9767C178.087 61.7602 178.229 61.4941 178.315 61.1783C178.411 60.8512 178.445 60.4907 178.419 60.0969C178.393 59.7138 178.311 59.3665 178.173 59.055C178.046 58.7642 177.87 58.5194 177.643 58.3209C177.404 58.1123 177.165 57.9733 176.925 57.9039C176.663 57.8146 176.382 57.7799 176.084 57.7999C175.786 57.8198 175.518 57.8912 175.281 58.0141C175.031 58.1163 174.813 58.286 174.625 58.523C174.437 58.7494 174.295 59.0155 174.198 59.3214C174.09 59.6279 174.05 59.9834 174.077 60.3879C174.104 60.7923 174.192 61.1445 174.34 61.4446C174.478 61.7454 174.655 61.9902 174.87 62.1788C175.076 62.3788 175.316 62.5231 175.589 62.6117ZM175.972 56.1236C176.568 56.0837 177.112 56.1488 177.605 56.3189C178.097 56.489 178.542 56.7479 178.94 57.0954C179.303 57.4132 179.614 57.8306 179.873 58.3478C180.108 58.8132 180.246 59.3545 180.287 59.9718C180.328 60.5891 180.264 61.1439 180.094 61.6364C179.916 62.1722 179.663 62.6274 179.335 63.0022C178.988 63.3996 178.581 63.7155 178.116 63.9498C177.619 64.1969 177.089 64.3393 176.525 64.3771C175.972 64.4142 175.432 64.3434 174.907 64.1648C174.393 63.9855 173.948 63.7266 173.572 63.3883C173.198 63.0606 172.886 62.6432 172.638 62.1359C172.404 61.6705 172.266 61.1292 172.225 60.5119C172.184 59.8946 172.248 59.3398 172.418 58.8473C172.606 58.3002 172.859 57.8449 173.176 57.4815C173.503 57.0962 173.91 56.7803 174.396 56.5339C174.861 56.2996 175.387 56.1628 175.972 56.1236ZM186.884 55.633L188.497 55.525L188.607 57.1693L186.994 57.2773L187.236 60.8852C187.259 61.2258 187.355 61.4652 187.525 61.6036C187.695 61.7525 187.951 61.8156 188.291 61.7927C188.376 61.787 188.503 61.7678 188.672 61.7351C188.704 61.733 188.731 61.7312 188.752 61.7298C188.783 61.717 188.81 61.7099 188.831 61.7085C188.852 61.7071 188.868 61.706 188.879 61.7053C188.899 61.6932 188.915 61.6868 188.926 61.6861L189.028 63.2187C189.018 63.2194 188.991 63.2265 188.949 63.24C188.918 63.2528 188.877 63.2716 188.825 63.2964C188.783 63.3099 188.736 63.3291 188.685 63.3539C188.528 63.4072 188.268 63.446 187.907 63.4702C187.193 63.518 186.611 63.3539 186.158 62.978C185.716 62.6014 185.47 62.0459 185.421 61.3116L185.159 57.4003L183.722 57.4966L183.612 55.8523L184.011 55.8256C184.426 55.7977 184.721 55.6603 184.897 55.4134C185.072 55.1558 185.149 54.862 185.127 54.532L185.049 53.3667L186.725 53.2544L186.884 55.633ZM192.86 61.4546C193.112 61.5446 193.387 61.5796 193.685 61.5596C193.983 61.5397 194.256 61.4679 194.504 61.3444C194.742 61.2216 194.96 61.0466 195.159 60.8195C195.358 60.603 195.501 60.3369 195.586 60.0211C195.682 59.694 195.717 59.3335 195.69 58.9397C195.665 58.5566 195.583 58.2093 195.444 57.8979C195.318 57.607 195.141 57.3623 194.914 57.1637C194.675 56.9551 194.436 56.8161 194.196 56.7467C193.934 56.6574 193.654 56.6227 193.356 56.6427C193.058 56.6626 192.79 56.734 192.552 56.8569C192.302 56.9591 192.084 57.1288 191.897 57.3658C191.709 57.5922 191.566 57.8583 191.469 58.1642C191.361 58.4707 191.321 58.8262 191.348 59.2307C191.375 59.6351 191.463 59.9873 191.611 60.2874C191.749 60.5882 191.926 60.833 192.142 61.0216C192.347 61.2216 192.587 61.366 192.86 61.4546ZM193.243 54.9664C193.839 54.9265 194.383 54.9916 194.876 55.1617C195.368 55.3318 195.813 55.5907 196.211 55.9382C196.574 56.256 196.885 56.6734 197.145 57.1906C197.379 57.656 197.517 58.1973 197.558 58.8146C197.6 59.4319 197.535 59.9867 197.365 60.4792C197.187 61.015 196.934 61.4702 196.607 61.845C196.259 62.2424 195.853 62.5583 195.387 62.7926C194.891 63.0397 194.36 63.1821 193.796 63.2199C193.243 63.257 192.704 63.1862 192.178 63.0076C191.664 62.8283 191.219 62.5694 190.844 62.2311C190.469 61.9034 190.158 61.486 189.91 60.9787C189.675 60.5133 189.538 59.972 189.496 59.3547C189.455 58.7375 189.519 58.1826 189.689 57.6901C189.877 57.143 190.13 56.6877 190.448 56.3243C190.775 55.939 191.181 55.6231 191.667 55.3767C192.133 55.1424 192.658 55.0056 193.243 54.9664ZM205.604 55.8541C205.306 55.8741 205.038 55.9455 204.8 56.0683C204.532 56.2039 204.318 56.3732 204.161 56.5762C203.962 56.8033 203.819 57.0641 203.732 57.3586C203.637 57.6857 203.601 58.0355 203.626 58.408C203.651 58.7805 203.733 59.1225 203.871 59.4339C203.998 59.7354 204.175 59.9802 204.402 60.1681C204.607 60.3681 204.847 60.5124 205.12 60.601C205.383 60.6904 205.663 60.725 205.961 60.7051C206.248 60.6858 206.511 60.6201 206.75 60.5079C206.956 60.3979 207.139 60.2626 207.3 60.1022C207.459 59.9205 207.571 59.758 207.636 59.6147C207.712 59.4812 207.771 59.3223 207.812 59.1378L209.48 59.6194C209.404 59.9238 209.281 60.2367 209.11 60.5582C208.939 60.8797 208.718 61.1671 208.446 61.4205C208.134 61.6981 207.796 61.9185 207.432 62.0818C207.027 62.2586 206.575 62.3638 206.074 62.3973C205.521 62.4344 204.982 62.3636 204.457 62.185C203.953 62.0155 203.514 61.7564 203.138 61.4074C202.774 61.0896 202.463 60.6722 202.204 60.155C201.957 59.6584 201.814 59.1174 201.774 58.5321C201.733 57.9148 201.797 57.3599 201.967 56.8675C202.145 56.3317 202.398 55.8764 202.726 55.5017C203.073 55.1042 203.475 54.7887 203.929 54.5551C204.384 54.3215 204.899 54.1855 205.473 54.147C205.984 54.1128 206.452 54.1562 206.877 54.2774C207.259 54.3908 207.623 54.5642 207.971 54.7975C208.296 55.0216 208.553 55.277 208.743 55.5636C208.957 55.8806 209.111 56.1804 209.205 56.4627L207.585 57.1806C207.52 57.0139 207.445 56.8426 207.358 56.6666C207.274 56.5333 207.142 56.3871 206.96 56.2283C206.791 56.1006 206.597 56.0013 206.379 55.9305C206.149 55.8603 205.891 55.8348 205.604 55.8541ZM210.177 59.7651C210.154 59.4246 210.197 59.1116 210.306 58.8264C210.386 58.5858 210.536 58.3406 210.754 58.0908C210.964 57.8736 211.199 57.7029 211.457 57.5786C211.779 57.4288 212.082 57.323 212.366 57.2612L214.342 56.8241C214.574 56.7765 214.723 56.697 214.791 56.5856C214.859 56.4954 214.889 56.3759 214.879 56.2269C214.857 55.897 214.721 55.6228 214.471 55.4043C214.222 55.1965 213.842 55.1097 213.331 55.1439C212.841 55.1767 212.472 55.3351 212.224 55.619C211.986 55.8915 211.854 56.2371 211.829 56.6557L210.111 56.386C210.119 56.0326 210.199 55.7066 210.35 55.4078C210.499 55.0878 210.705 54.8014 210.966 54.5487C211.196 54.3195 211.514 54.1111 211.918 53.9237C212.292 53.7596 212.724 53.6612 213.213 53.6284C213.809 53.5885 214.32 53.6344 214.746 53.7663C215.182 53.8974 215.537 54.0874 215.81 54.3364C216.106 54.5945 216.318 54.8903 216.447 55.2238C216.598 55.5664 216.687 55.9293 216.713 56.3125L216.971 60.1758C216.991 60.4632 217.02 60.7445 217.06 61.0198C217.108 61.2624 217.139 61.394 217.151 61.4146L215.427 61.5301C215.414 61.5096 215.392 61.4148 215.359 61.246C215.324 61.0346 215.298 60.8011 215.28 60.5457C215.129 60.8445 214.861 61.1457 214.475 61.4496C214.088 61.7321 213.585 61.894 212.968 61.9354C212.564 61.9625 212.192 61.9232 211.854 61.8176C211.537 61.7106 211.254 61.5585 211.005 61.3613C210.756 61.1535 210.564 60.9098 210.427 60.6303C210.282 60.3728 210.198 60.0844 210.177 59.7651ZM213.222 60.4591C213.488 60.4413 213.73 60.3876 213.949 60.2982C214.179 60.2186 214.379 60.093 214.549 59.9212C214.7 59.7828 214.825 59.5713 214.923 59.2867C215.013 59.0348 215.045 58.712 215.019 58.3182L214.995 57.967L212.988 58.4061C212.714 58.4673 212.477 58.5901 212.275 58.7746C212.084 58.9585 212 59.21 212.021 59.5293C212.039 59.7954 212.15 60.0231 212.356 60.2125C212.561 60.4019 212.85 60.4841 213.222 60.4591ZM222.967 55.0596C222.752 55.0419 222.549 55.0395 222.357 55.0523C221.633 55.1008 221.12 55.333 220.816 55.7489C220.503 56.1761 220.37 56.7516 220.419 57.4753L220.667 61.179L218.815 61.3031L218.294 53.5285L220.098 53.4077L220.181 54.6529C220.325 54.237 220.595 53.8875 220.993 53.6043C221.371 53.3437 221.821 53.196 222.343 53.1611C222.492 53.1511 222.593 53.1496 222.647 53.1567C222.668 53.1553 222.7 53.1585 222.744 53.1663C222.786 53.1634 222.819 53.1666 222.841 53.1758L222.967 55.0596ZM225.34 56.9372C225.389 57.6715 225.621 58.26 226.035 58.7026C226.438 59.1246 226.958 59.3143 227.597 59.2715C227.884 59.2522 228.157 59.1752 228.415 59.0403C228.673 58.8947 228.879 58.7045 229.034 58.4696C229.191 58.256 229.317 57.9856 229.413 57.6585C229.488 57.3434 229.513 57.0049 229.489 56.6431C229.439 55.8981 229.213 55.3199 228.812 54.9085C228.4 54.5085 227.891 54.3288 227.284 54.3694C226.688 54.4093 226.203 54.661 225.827 55.1245C225.452 55.5879 225.29 56.1922 225.34 56.9372ZM231.445 59.0297C231.462 59.2851 231.494 59.593 231.539 59.9535C231.568 60.2188 231.595 60.3827 231.62 60.4451L229.848 60.5639C229.832 60.4901 229.806 60.3422 229.77 60.1201C229.73 59.8448 229.707 59.6593 229.701 59.5635C229.552 59.8942 229.284 60.1955 228.895 60.4673C228.517 60.7279 228.052 60.8767 227.498 60.9137C226.913 60.953 226.395 60.8808 225.944 60.6971C225.473 60.5256 225.065 60.2643 224.721 59.9132C224.356 59.5741 224.072 59.1602 223.868 58.6714C223.653 58.1727 223.526 57.6359 223.488 57.0612C223.451 56.5185 223.506 55.9856 223.653 55.4626C223.791 54.9616 224.017 54.5135 224.333 54.1182C224.647 53.7015 225.016 53.3828 225.439 53.162C225.904 52.9171 226.397 52.7771 226.919 52.7422C227.28 52.718 227.581 52.7352 227.82 52.7941C228.069 52.8415 228.299 52.917 228.509 53.0205C228.731 53.1446 228.888 53.2517 228.979 53.3418C229.116 53.4716 229.215 53.5932 229.276 53.7067L228.962 49.0133L230.766 48.8924L231.445 59.0297Z" fill="#191B20"/>
	<path d="M25.727 98.912C26.6809 89.5718 35.0259 82.7732 44.3661 83.7271L187.621 98.3566C196.961 99.3105 203.76 107.655 202.806 116.996V116.996C201.852 126.336 193.507 133.135 184.167 132.181L40.9119 117.551C31.5717 116.597 24.7732 108.252 25.727 98.912V98.912Z" fill="#5CEE9C"/>
	<path d="M47.9467 96.6221L46.9779 106.109L45.0678 105.914L46.0366 96.4271L42.3756 96.0532L42.5593 94.2546L51.8072 95.199L51.6235 96.9976L47.9467 96.6221ZM52.6147 105.092C52.8479 105.223 53.1131 105.304 53.4102 105.334C53.7073 105.365 53.9886 105.34 54.2542 105.26C54.5091 105.178 54.7535 105.043 54.9874 104.852C55.2202 104.672 55.4054 104.434 55.5429 104.137C55.6921 103.83 55.7868 103.481 55.8269 103.088C55.8659 102.706 55.8433 102.35 55.7591 102.02C55.6833 101.712 55.5502 101.441 55.3596 101.207C55.1595 100.961 54.9471 100.784 54.7223 100.675C54.4785 100.543 54.208 100.462 53.9109 100.432C53.6137 100.401 53.3377 100.427 53.0828 100.508C52.8195 100.567 52.5756 100.697 52.3512 100.9C52.128 101.091 51.9428 101.33 51.7957 101.615C51.638 101.899 51.5386 102.243 51.4974 102.646C51.4562 103.049 51.4836 103.411 51.5795 103.732C51.6648 104.052 51.798 104.323 51.979 104.545C52.1483 104.777 52.3602 104.959 52.6147 105.092ZM54.0815 98.7605C54.6758 98.8211 55.2014 98.9767 55.6583 99.2271C56.1152 99.4774 56.5104 99.8073 56.8439 100.217C57.1488 100.591 57.3856 101.055 57.5542 101.608C57.7071 102.106 57.7521 102.663 57.6892 103.278C57.6264 103.894 57.4697 104.43 57.2194 104.887C56.954 105.385 56.6284 105.792 56.2425 106.106C55.8331 106.439 55.3794 106.683 54.8813 106.835C54.3503 106.996 53.8036 107.047 53.2412 106.99C52.6894 106.933 52.1696 106.773 51.6819 106.509C51.2049 106.246 50.8097 105.916 50.4963 105.519C50.1819 105.133 49.9452 104.669 49.786 104.128C49.6332 103.63 49.5882 103.073 49.651 102.457C49.7139 101.842 49.8705 101.306 50.1209 100.849C50.3979 100.341 50.7235 99.9347 51.0978 99.6298C51.4848 99.3048 51.9385 99.0616 52.4589 98.9003C52.957 98.7475 53.4979 98.7009 54.0815 98.7605ZM58.3035 110.321L59.404 99.5452L61.1867 99.7273L61.0794 100.778C61.3168 100.448 61.6543 100.188 62.092 99.9967C62.5403 99.8066 63.0669 99.7424 63.6718 99.8042C64.2554 99.8638 64.7544 100.017 65.1689 100.263C65.5834 100.509 65.9255 100.833 66.1953 101.236C66.4747 101.65 66.6648 102.099 66.7657 102.581C66.8739 103.096 66.8988 103.64 66.8402 104.213C66.7796 104.807 66.6399 105.334 66.4214 105.795C66.1901 106.275 65.9021 106.68 65.5575 107.009C65.2013 107.348 64.7847 107.595 64.3078 107.75C63.8617 107.919 63.3521 107.974 62.7791 107.915C62.1954 107.856 61.7235 107.7 61.3631 107.449C60.9709 107.195 60.694 106.914 60.5322 106.608L60.134 110.508L58.3035 110.321ZM64.9939 104.024C65.0697 103.282 64.9383 102.678 64.5996 102.215C64.2621 101.741 63.7802 101.472 63.1541 101.408C62.857 101.378 62.5699 101.407 62.2927 101.497C62.0154 101.586 61.7817 101.723 61.5913 101.908C61.3892 102.101 61.22 102.342 61.0835 102.628C60.9481 102.904 60.8615 103.227 60.8235 103.598C60.7466 104.352 60.8822 104.966 61.2304 105.441C61.5892 105.918 62.0658 106.186 62.66 106.247C63.2755 106.31 63.7964 106.143 64.2229 105.747C64.6599 105.352 64.9169 104.778 64.9939 104.024ZM76.2987 108.235C76.072 108.565 75.7477 108.8 75.3261 108.939C74.8927 109.088 74.4479 109.139 73.9916 109.093C73.5353 109.046 73.1296 108.924 72.7745 108.727C72.4193 108.53 72.1396 108.276 71.9354 107.966C71.7185 107.676 71.5605 107.333 71.4616 106.936C71.3594 106.572 71.3316 106.162 71.3782 105.706L71.8772 100.819L73.7236 101.008L73.2587 105.56C73.2338 105.804 73.2423 106.035 73.2843 106.254C73.3062 106.46 73.3774 106.655 73.498 106.839C73.6091 107.011 73.7606 107.155 73.9525 107.271C74.1337 107.386 74.3623 107.458 74.6382 107.486C75.19 107.542 75.6153 107.42 75.9142 107.118C76.2109 106.837 76.3858 106.437 76.4389 105.917L76.9071 101.333L78.7535 101.521L78.1065 107.856C78.0827 108.09 78.0651 108.367 78.0538 108.687C78.048 108.955 78.0438 109.153 78.0414 109.281L76.2746 109.101C76.2727 109.015 76.2698 108.886 76.2659 108.714C76.2661 108.607 76.2771 108.447 76.2987 108.235ZM79.4722 112.483L80.5726 101.707L82.3554 101.889L82.2481 102.94C82.4854 102.61 82.823 102.35 83.2607 102.158C83.709 101.968 84.2355 101.904 84.8404 101.966C85.424 102.026 85.9231 102.178 86.3376 102.424C86.752 102.67 87.0942 102.995 87.364 103.398C87.6433 103.812 87.8334 104.261 87.9343 104.743C88.0426 105.258 88.0674 105.802 88.0089 106.375C87.9482 106.969 87.8086 107.496 87.59 107.956C87.3587 108.437 87.0708 108.841 86.7262 109.171C86.3699 109.51 85.9533 109.757 85.4765 109.912C85.0303 110.081 84.5207 110.136 83.9477 110.077C83.3641 110.018 82.8921 109.862 82.5318 109.611C82.1396 109.356 81.8626 109.076 81.7009 108.77L81.3026 112.67L79.4722 112.483ZM86.1625 106.186C86.2384 105.443 86.107 104.84 85.7683 104.377C85.4307 103.903 84.9489 103.634 84.3228 103.57C84.0257 103.539 83.7385 103.569 83.4613 103.659C83.1841 103.748 82.9503 103.885 82.7599 104.069C82.5579 104.263 82.3886 104.503 82.2521 104.79C82.1168 105.065 82.0301 105.389 81.9922 105.76C81.9152 106.514 82.0509 107.128 82.3991 107.603C82.7579 108.079 83.2344 108.348 83.8286 108.409C84.4441 108.471 84.9651 108.305 85.3915 107.909C85.8286 107.514 86.0856 106.94 86.1625 106.186ZM92.3338 110.741L93.1255 102.989L94.8923 103.169L94.7915 104.156C95.0427 103.796 95.402 103.532 95.8694 103.366C96.3367 103.199 96.7827 103.137 97.2071 103.181C97.7271 103.234 98.1768 103.398 98.5561 103.672C98.9568 103.949 99.2351 104.321 99.3912 104.787C99.7393 104.318 100.147 104.001 100.614 103.834C101.049 103.675 101.526 103.622 102.046 103.675C102.375 103.708 102.709 103.801 103.047 103.954C103.344 104.091 103.617 104.302 103.867 104.584C104.098 104.844 104.274 105.168 104.395 105.555C104.505 105.952 104.534 106.4 104.483 106.899L103.969 111.929L102.187 111.747L102.669 107.019C102.716 106.563 102.638 106.175 102.435 105.854C102.222 105.521 101.856 105.328 101.336 105.275C100.848 105.225 100.443 105.355 100.122 105.666C99.791 105.964 99.6013 106.352 99.5525 106.83L99.0827 111.43L97.2682 111.245L97.751 106.517C97.7976 106.061 97.7193 105.672 97.5162 105.351C97.3035 105.019 96.9372 104.826 96.4173 104.773C95.9185 104.722 95.5091 104.846 95.189 105.146C94.87 105.435 94.685 105.829 94.6341 106.328L94.1643 110.928L92.3338 110.741ZM108.573 110.807C108.806 110.938 109.071 111.019 109.369 111.049C109.666 111.079 109.947 111.054 110.212 110.974C110.467 110.893 110.712 110.757 110.946 110.567C111.179 110.387 111.364 110.148 111.501 109.851C111.65 109.545 111.745 109.195 111.785 108.803C111.824 108.421 111.802 108.065 111.717 107.734C111.642 107.426 111.508 107.155 111.318 106.922C111.118 106.676 110.905 106.499 110.681 106.39C110.437 106.258 110.166 106.177 109.869 106.146C109.572 106.116 109.296 106.141 109.041 106.223C108.778 106.282 108.534 106.412 108.31 106.614C108.086 106.806 107.901 107.044 107.754 107.33C107.596 107.614 107.497 107.957 107.456 108.361C107.415 108.764 107.442 109.126 107.538 109.447C107.623 109.766 107.756 110.037 107.937 110.259C108.107 110.491 108.319 110.674 108.573 110.807ZM110.04 104.475C110.634 104.536 111.16 104.691 111.617 104.942C112.074 105.192 112.469 105.522 112.802 105.931C113.107 106.305 113.344 106.769 113.513 107.323C113.665 107.821 113.71 108.377 113.648 108.993C113.585 109.608 113.428 110.145 113.178 110.602C112.912 111.1 112.587 111.506 112.201 111.821C111.791 112.154 111.338 112.397 110.84 112.55C110.309 112.71 109.762 112.762 109.199 112.704C108.648 112.648 108.128 112.488 107.64 112.223C107.163 111.96 106.768 111.63 106.455 111.234C106.14 110.848 105.903 110.384 105.744 109.842C105.592 109.344 105.547 108.788 105.609 108.172C105.672 107.557 105.829 107.02 106.079 106.563C106.356 106.056 106.682 105.649 107.056 105.344C107.443 105.019 107.897 104.776 108.417 104.615C108.915 104.462 109.456 104.415 110.04 104.475ZM114.571 113.012L115.748 101.487L117.562 101.673L117.079 106.4C117.281 106.11 117.611 105.87 118.07 105.681C118.497 105.489 119.018 105.424 119.633 105.487C120.228 105.548 120.732 105.701 121.146 105.947C121.581 106.206 121.928 106.531 122.189 106.922C122.449 107.313 122.633 107.766 122.742 108.281C122.838 108.806 122.858 109.344 122.802 109.896C122.74 110.5 122.6 111.033 122.381 111.493C122.161 111.975 121.877 112.385 121.532 112.725C121.177 113.054 120.765 113.301 120.298 113.468C119.841 113.636 119.321 113.69 118.737 113.63C118.175 113.573 117.709 113.412 117.339 113.149C116.948 112.884 116.66 112.555 116.475 112.161L116.369 113.195L114.571 113.012ZM120.165 111.46C120.601 111.076 120.859 110.496 120.938 109.721C121.017 108.947 120.887 108.328 120.549 107.864C120.198 107.41 119.715 107.152 119.1 107.089C118.506 107.028 117.991 107.185 117.556 107.559C117.108 107.953 116.846 108.531 116.768 109.295C116.727 109.688 116.746 110.033 116.823 110.33C116.906 110.671 117.028 110.946 117.189 111.156C117.338 111.375 117.539 111.556 117.793 111.7C118.046 111.844 118.316 111.93 118.602 111.96C119.197 112.02 119.718 111.854 120.165 111.46ZM123.746 113.949L124.538 106.197L126.368 106.384L125.577 114.135L123.746 113.949ZM124.793 104.325C124.582 104.078 124.494 103.785 124.529 103.446C124.564 103.106 124.71 102.832 124.967 102.622C125.224 102.412 125.518 102.324 125.846 102.358C126.186 102.393 126.461 102.539 126.67 102.796C126.88 103.053 126.967 103.352 126.933 103.691C126.898 104.031 126.753 104.3 126.496 104.499C126.239 104.709 125.941 104.796 125.601 104.761C125.272 104.728 125.003 104.582 124.793 104.325ZM127.388 114.32L128.565 102.796L130.411 102.985L129.234 114.509L127.388 114.32ZM136.733 110.498C136.737 110.241 136.717 110.025 136.67 109.848C136.606 109.638 136.503 109.44 136.361 109.254C136.218 109.078 136.035 108.931 135.811 108.812C135.577 108.691 135.306 108.615 134.998 108.584C134.701 108.554 134.441 108.581 134.218 108.665C133.975 108.737 133.765 108.844 133.59 108.987C133.401 109.161 133.254 109.333 133.151 109.505C133.047 109.687 132.972 109.889 132.928 110.11L136.733 110.498ZM138.243 113.193C138.089 113.542 137.903 113.845 137.684 114.101C137.44 114.387 137.164 114.622 136.856 114.805C136.525 114.996 136.168 115.137 135.783 115.226C135.388 115.314 134.957 115.335 134.491 115.287C133.96 115.233 133.466 115.086 133.008 114.846C132.558 114.629 132.167 114.315 131.833 113.906C131.497 113.518 131.255 113.053 131.107 112.513C130.936 111.981 130.884 111.386 130.951 110.728C131.013 110.123 131.176 109.577 131.44 109.089C131.705 108.601 132.024 108.205 132.398 107.9C132.785 107.575 133.217 107.34 133.692 107.196C134.159 107.04 134.641 106.987 135.14 107.038C135.734 107.099 136.26 107.249 136.718 107.489C137.155 107.727 137.525 108.038 137.829 108.423C138.102 108.794 138.303 109.243 138.431 109.771C138.552 110.266 138.581 110.826 138.517 111.452C138.497 111.643 138.479 111.775 138.46 111.849L138.409 112.036L132.743 111.458C132.723 111.756 132.759 112.033 132.851 112.289C132.942 112.545 133.075 112.773 133.247 112.973C133.42 113.173 133.628 113.339 133.872 113.471C134.096 113.59 134.356 113.665 134.653 113.695C135.226 113.754 135.674 113.671 135.997 113.447C136.322 113.212 136.567 112.91 136.733 112.541L138.243 113.193ZM142.496 118.919L143.597 108.143L145.379 108.325L145.272 109.376C145.51 109.046 145.847 108.786 146.285 108.595C146.733 108.405 147.26 108.34 147.864 108.402C148.448 108.462 148.947 108.615 149.362 108.861C149.776 109.107 150.118 109.431 150.388 109.834C150.667 110.248 150.858 110.697 150.958 111.179C151.067 111.694 151.092 112.238 151.033 112.811C150.972 113.405 150.833 113.932 150.614 114.392C150.383 114.873 150.095 115.278 149.75 115.607C149.394 115.946 148.977 116.193 148.501 116.348C148.054 116.517 147.545 116.572 146.972 116.513C146.388 116.454 145.916 116.298 145.556 116.047C145.164 115.793 144.887 115.512 144.725 115.206L144.327 119.106L142.496 118.919ZM149.187 112.622C149.262 111.879 149.131 111.276 148.792 110.813C148.455 110.339 147.973 110.07 147.347 110.006C147.05 109.975 146.763 110.005 146.485 110.095C146.208 110.184 145.974 110.321 145.784 110.506C145.582 110.699 145.413 110.939 145.276 111.226C145.141 111.501 145.054 111.825 145.016 112.196C144.939 112.95 145.075 113.564 145.423 114.039C145.782 114.516 146.258 114.784 146.853 114.845C147.468 114.908 147.989 114.741 148.416 114.345C148.853 113.95 149.11 113.376 149.187 112.622ZM153.827 117.02L151.98 116.832L153.157 105.308L155.004 105.496L154.542 110.017C154.853 109.705 155.212 109.49 155.621 109.371C156.05 109.265 156.461 109.232 156.854 109.272C157.331 109.321 157.742 109.443 158.087 109.639C158.401 109.821 158.67 110.069 158.896 110.381C159.1 110.691 159.241 111.038 159.32 111.422C159.398 111.816 159.416 112.219 159.373 112.633L158.873 117.536L157.026 117.347L157.494 112.763C157.544 112.275 157.469 111.854 157.269 111.502C157.07 111.149 156.672 110.942 156.078 110.881C155.569 110.829 155.165 110.954 154.866 111.256C154.544 111.577 154.352 111.981 154.292 112.468L153.827 117.02ZM163.479 116.414C163.712 116.545 163.977 116.626 164.274 116.656C164.571 116.686 164.853 116.661 165.118 116.581C165.373 116.5 165.617 116.364 165.851 116.174C166.084 115.994 166.269 115.755 166.407 115.458C166.556 115.152 166.651 114.802 166.691 114.41C166.73 114.028 166.707 113.672 166.623 113.341C166.547 113.033 166.414 112.763 166.224 112.529C166.024 112.283 165.811 112.106 165.586 111.997C165.342 111.865 165.072 111.784 164.775 111.753C164.478 111.723 164.202 111.749 163.947 111.83C163.684 111.889 163.44 112.019 163.215 112.221C162.992 112.413 162.807 112.651 162.66 112.937C162.502 113.221 162.403 113.564 162.361 113.968C162.32 114.371 162.348 114.733 162.444 115.054C162.529 115.373 162.662 115.644 162.843 115.866C163.012 116.098 163.224 116.281 163.479 116.414ZM164.946 110.082C165.54 110.143 166.065 110.298 166.522 110.549C166.979 110.799 167.374 111.129 167.708 111.538C168.013 111.913 168.25 112.376 168.418 112.93C168.571 113.428 168.616 113.985 168.553 114.6C168.49 115.216 168.334 115.752 168.083 116.209C167.818 116.707 167.492 117.113 167.106 117.428C166.697 117.761 166.243 118.004 165.745 118.157C165.214 118.317 164.668 118.369 164.105 118.311C163.553 118.255 163.034 118.095 162.546 117.83C162.069 117.567 161.674 117.237 161.36 116.841C161.046 116.455 160.809 115.991 160.65 115.45C160.497 114.951 160.452 114.395 160.515 113.779C160.578 113.164 160.735 112.628 160.985 112.171C161.262 111.663 161.588 111.256 161.962 110.952C162.349 110.626 162.803 110.383 163.323 110.222C163.821 110.069 164.362 110.023 164.946 110.082ZM171.323 118.807L169.476 118.619L170.268 110.867L172.067 111.051L171.961 112.085C172.261 111.666 172.634 111.377 173.079 111.218C173.512 111.07 173.946 111.017 174.381 111.062C174.859 111.111 175.265 111.232 175.599 111.427C175.912 111.61 176.182 111.857 176.407 112.169C176.611 112.49 176.747 112.837 176.816 113.208C176.894 113.602 176.911 114.006 176.869 114.42L176.369 119.322L174.522 119.134L174.99 114.55C175.04 114.062 174.965 113.641 174.765 113.288C174.565 112.936 174.168 112.729 173.574 112.668C173.054 112.615 172.638 112.749 172.327 113.071C172.013 113.415 171.83 113.836 171.78 114.334L171.323 118.807ZM183.795 115.304C183.8 115.047 183.779 114.831 183.733 114.655C183.669 114.444 183.566 114.246 183.424 114.06C183.281 113.885 183.098 113.737 182.874 113.618C182.64 113.497 182.369 113.422 182.061 113.39C181.764 113.36 181.504 113.387 181.281 113.471C181.037 113.543 180.828 113.65 180.653 113.793C180.463 113.967 180.317 114.139 180.214 114.311C180.109 114.494 180.035 114.695 179.991 114.916L183.795 115.304ZM185.305 118C185.152 118.348 184.965 118.651 184.746 118.907C184.503 119.194 184.227 119.428 183.919 119.611C183.588 119.802 183.231 119.943 182.846 120.032C182.451 120.121 182.02 120.141 181.553 120.093C181.023 120.039 180.528 119.892 180.07 119.652C179.621 119.435 179.229 119.121 178.896 118.712C178.56 118.324 178.318 117.86 178.17 117.319C177.999 116.787 177.947 116.192 178.014 115.534C178.076 114.929 178.239 114.383 178.503 113.895C178.767 113.408 179.087 113.011 179.461 112.706C179.848 112.381 180.279 112.147 180.755 112.002C181.221 111.846 181.704 111.794 182.203 111.844C182.797 111.905 183.323 112.055 183.781 112.295C184.218 112.533 184.588 112.844 184.892 113.229C185.165 113.6 185.366 114.049 185.494 114.577C185.615 115.072 185.644 115.632 185.58 116.258C185.56 116.449 185.541 116.582 185.523 116.655L185.472 116.842L179.805 116.264C179.786 116.562 179.822 116.839 179.913 117.095C180.005 117.351 180.137 117.579 180.31 117.779C180.483 117.979 180.691 118.145 180.935 118.277C181.158 118.396 181.419 118.471 181.716 118.501C182.289 118.56 182.737 118.477 183.06 118.253C183.384 118.018 183.63 117.716 183.796 117.347L185.305 118Z" fill="#191B20"/>
	<path d="M50.9048 144.62C50.4051 135.245 57.6004 127.239 66.9759 126.74L232.741 117.905C242.116 117.405 250.122 124.6 250.621 133.976V133.976C251.121 143.351 243.926 151.357 234.55 151.857L68.7855 160.692C59.4099 161.191 51.4045 153.996 50.9048 144.62V144.62Z" fill="#0285FD"/>
	<path d="M72.5041 138.927L73.0116 148.449L71.0943 148.552L70.5868 139.029L66.912 139.225L66.8158 137.42L76.0986 136.925L76.1949 138.73L72.5041 138.927ZM78.4239 146.575C78.6746 146.668 78.949 146.707 79.2473 146.691C79.5455 146.675 79.8196 146.607 80.0696 146.487C80.3089 146.367 80.5294 146.195 80.731 145.971C80.9333 145.757 81.0794 145.493 81.1695 145.179C81.2696 144.853 81.3092 144.493 81.2882 144.099C81.2677 143.715 81.1904 143.367 81.0562 143.054C80.9338 142.761 80.7604 142.514 80.536 142.312C80.3004 142.1 80.0632 141.958 79.8243 141.886C79.563 141.793 79.2832 141.754 78.985 141.77C78.6867 141.786 78.418 141.854 78.1786 141.973C77.9275 142.072 77.7068 142.239 77.5163 142.473C77.3253 142.697 77.1791 142.961 77.0779 143.266C76.9659 143.571 76.9208 143.926 76.9423 144.33C76.9639 144.735 77.0468 145.089 77.1911 145.391C77.3248 145.693 77.4982 145.94 77.7113 146.132C77.9144 146.335 78.1519 146.482 78.4239 146.575ZM78.8956 140.092C79.492 140.061 80.0353 140.133 80.5254 140.31C81.0156 140.487 81.4569 140.752 81.8496 141.105C82.2086 141.427 82.5142 141.849 82.7662 142.37C82.9942 142.838 83.1246 143.381 83.1575 143.999C83.1905 144.617 83.1185 145.171 82.9417 145.661C82.7565 146.194 82.4975 146.646 82.1647 147.016C81.8118 147.409 81.401 147.719 80.9325 147.947C80.4326 148.187 79.9003 148.323 79.3358 148.353C78.7819 148.382 78.2437 148.304 77.7211 148.118C77.2091 147.932 76.7677 147.667 76.3969 147.324C76.0266 146.991 75.7211 146.569 75.4803 146.059C75.2523 145.59 75.1219 145.047 75.089 144.429C75.056 143.811 75.128 143.257 75.3048 142.767C75.5001 142.223 75.7591 141.771 76.0818 141.412C76.414 141.031 76.8247 140.721 77.314 140.481C77.7825 140.253 78.3097 140.124 78.8956 140.092ZM84.8518 150.863L84.2753 140.046L86.0648 139.951L86.121 141.005C86.3046 140.643 86.5979 140.333 87.0009 140.077C87.4144 139.82 87.9248 139.675 88.5319 139.643C89.1178 139.612 89.6344 139.686 90.0819 139.865C90.5294 140.044 90.9176 140.312 91.2463 140.668C91.5863 141.034 91.8433 141.448 92.0174 141.909C92.2039 142.401 92.3125 142.934 92.3431 143.51C92.3749 144.106 92.3184 144.648 92.1735 145.137C92.0191 145.647 91.7971 146.092 91.5075 146.47C91.2078 146.86 90.8344 147.168 90.3871 147.395C89.9724 147.631 89.4775 147.764 88.9023 147.795C88.3165 147.826 87.8261 147.745 87.4313 147.553C87.0046 147.362 86.6877 147.128 86.4806 146.85L86.6892 150.765L84.8518 150.863ZM90.4897 143.608C90.45 142.863 90.2271 142.287 89.8209 141.881C89.4142 141.465 88.8966 141.274 88.2681 141.307C87.9699 141.323 87.6907 141.397 87.4307 141.528C87.1707 141.66 86.9608 141.831 86.8012 142.042C86.6315 142.265 86.5013 142.528 86.4107 142.832C86.3195 143.126 86.2838 143.459 86.3037 143.831C86.344 144.588 86.5728 145.174 86.9902 145.589C87.4183 146.005 87.9305 146.196 88.527 146.164C89.1448 146.131 89.6338 145.886 89.994 145.429C90.3648 144.972 90.53 144.365 90.4897 143.608ZM102.309 146.023C102.136 146.384 101.852 146.667 101.457 146.869C101.052 147.083 100.62 147.202 100.162 147.227C99.7041 147.251 99.2845 147.193 98.9031 147.053C98.5218 146.914 98.2063 146.706 97.9567 146.431C97.6975 146.178 97.4885 145.863 97.3295 145.487C97.1723 145.143 97.0815 144.742 97.0571 144.284L96.7957 139.379L98.6491 139.28L98.8926 143.849C98.9057 144.094 98.9498 144.322 99.0251 144.531C99.0785 144.731 99.179 144.913 99.3265 145.076C99.4628 145.229 99.6348 145.348 99.8422 145.433C100.039 145.519 100.276 145.554 100.553 145.539C101.107 145.51 101.508 145.323 101.757 144.979C102.007 144.656 102.118 144.233 102.09 143.711L101.845 139.11L103.698 139.011L104.037 145.37C104.049 145.604 104.075 145.881 104.113 146.199C104.149 146.464 104.175 146.66 104.192 146.788L102.419 146.882C102.404 146.797 102.381 146.67 102.351 146.501C102.334 146.395 102.32 146.236 102.309 146.023ZM106.1 149.73L105.524 138.914L107.313 138.818L107.37 139.873C107.553 139.51 107.847 139.201 108.249 138.945C108.663 138.687 109.173 138.543 109.781 138.51C110.366 138.479 110.883 138.553 111.331 138.732C111.778 138.911 112.166 139.179 112.495 139.535C112.835 139.902 113.092 140.315 113.266 140.776C113.452 141.268 113.561 141.802 113.592 142.377C113.623 142.974 113.567 143.516 113.422 144.004C113.268 144.515 113.046 144.959 112.756 145.338C112.456 145.728 112.083 146.036 111.636 146.263C111.221 146.498 110.726 146.632 110.151 146.662C109.565 146.693 109.075 146.613 108.68 146.42C108.253 146.229 107.936 145.995 107.729 145.718L107.938 149.632L106.1 149.73ZM111.738 142.476C111.699 141.73 111.476 141.155 111.069 140.749C110.663 140.333 110.145 140.141 109.517 140.175C109.218 140.191 108.939 140.264 108.679 140.396C108.419 140.527 108.209 140.698 108.05 140.91C107.88 141.133 107.75 141.396 107.659 141.7C107.568 141.993 107.532 142.326 107.552 142.699C107.593 143.455 107.821 144.041 108.239 144.457C108.667 144.872 109.179 145.064 109.776 145.032C110.393 144.999 110.882 144.754 111.243 144.297C111.613 143.839 111.779 143.232 111.738 142.476ZM123.824 145.982C123.047 146.023 122.315 145.928 121.63 145.698C120.934 145.457 120.306 145.106 119.747 144.645C119.176 144.152 118.723 143.556 118.386 142.859C118.038 142.129 117.839 141.307 117.79 140.391C117.74 139.453 117.856 138.619 118.137 137.889C118.418 137.137 118.811 136.496 119.317 135.967C119.812 135.439 120.398 135.018 121.076 134.704C121.764 134.389 122.465 134.213 123.179 134.175C123.903 134.137 124.553 134.203 125.128 134.376C125.692 134.527 126.207 134.767 126.673 135.095C127.128 135.412 127.5 135.782 127.789 136.205C128.102 136.658 128.329 137.116 128.472 137.578L126.698 138.282C126.606 137.945 126.461 137.632 126.264 137.343C126.066 137.044 125.828 136.79 125.55 136.58C125.272 136.371 124.943 136.212 124.564 136.104C124.195 135.996 123.765 135.954 123.275 135.981C122.796 136.006 122.342 136.116 121.915 136.309C121.477 136.514 121.091 136.791 120.757 137.14C120.413 137.5 120.154 137.947 119.979 138.48C119.794 139.013 119.72 139.615 119.755 140.286C119.79 140.936 119.928 141.516 120.168 142.027C120.42 142.537 120.719 142.942 121.067 143.244C121.458 143.576 121.877 143.815 122.323 143.963C122.768 144.11 123.236 144.17 123.726 144.144C124.227 144.117 124.649 144.026 124.993 143.868C125.39 143.687 125.705 143.483 125.938 143.257C126.222 142.975 126.442 142.696 126.599 142.421C126.773 142.08 126.895 141.764 126.965 141.472L128.753 141.954C128.65 142.429 128.472 142.903 128.22 143.376C127.978 143.848 127.648 144.266 127.229 144.63C126.812 145.016 126.321 145.325 125.756 145.558C125.182 145.802 124.538 145.944 123.824 145.982ZM134.295 139.223C134.08 139.202 133.877 139.197 133.685 139.207C132.961 139.246 132.444 139.471 132.135 139.883C131.816 140.306 131.675 140.879 131.714 141.603L131.912 145.31L130.058 145.409L129.643 137.628L131.449 137.532L131.515 138.778C131.664 138.364 131.939 138.018 132.341 137.741C132.723 137.485 133.175 137.344 133.697 137.316C133.846 137.308 133.947 137.308 134.001 137.316C134.022 137.314 134.055 137.318 134.098 137.326C134.14 137.324 134.173 137.328 134.194 137.337L134.295 139.223ZM136.313 148.232L137.965 144.058L134.276 137.381L136.369 137.27L138.868 142.071L140.699 137.039L142.664 136.934L138.294 148.126L136.313 148.232ZM144.084 147.706L143.508 136.889L145.297 136.794L145.353 137.848C145.537 137.486 145.83 137.177 146.233 136.92C146.647 136.663 147.157 136.518 147.764 136.486C148.35 136.455 148.867 136.529 149.314 136.708C149.762 136.887 150.15 137.155 150.478 137.511C150.818 137.877 151.076 138.291 151.25 138.752C151.436 139.244 151.545 139.777 151.575 140.353C151.607 140.949 151.551 141.492 151.406 141.98C151.251 142.49 151.029 142.935 150.74 143.313C150.44 143.703 150.067 144.011 149.619 144.238C149.205 144.474 148.71 144.607 148.134 144.638C147.549 144.669 147.058 144.588 146.664 144.396C146.237 144.205 145.92 143.971 145.713 143.693L145.921 147.608L144.084 147.706ZM149.722 140.451C149.682 139.706 149.459 139.13 149.053 138.725C148.646 138.308 148.129 138.117 147.5 138.15C147.202 138.166 146.923 138.24 146.663 138.371C146.403 138.503 146.193 138.674 146.033 138.885C145.864 139.108 145.733 139.371 145.643 139.675C145.552 139.969 145.516 140.302 145.536 140.674C145.576 141.431 145.805 142.017 146.222 142.432C146.65 142.848 147.163 143.039 147.759 143.007C148.377 142.975 148.866 142.729 149.226 142.272C149.597 141.815 149.762 141.208 149.722 140.451ZM155.037 136.275L156.651 136.189L156.739 137.834L155.125 137.92L155.317 141.531C155.336 141.872 155.429 142.113 155.596 142.253C155.765 142.405 156.019 142.471 156.36 142.453C156.445 142.448 156.572 142.431 156.742 142.401C156.774 142.399 156.8 142.397 156.822 142.396C156.853 142.384 156.879 142.377 156.901 142.376C156.922 142.375 156.938 142.374 156.949 142.373C156.969 142.362 156.985 142.356 156.996 142.355L157.077 143.889C157.067 143.889 157.04 143.896 156.998 143.909C156.967 143.921 156.925 143.94 156.873 143.964C156.831 143.977 156.784 143.995 156.732 144.019C156.574 144.07 156.315 144.106 155.952 144.125C155.239 144.163 154.658 143.991 154.21 143.609C153.773 143.226 153.535 142.668 153.496 141.933L153.288 138.018L151.85 138.095L151.762 136.449L152.161 136.428C152.577 136.406 152.874 136.272 153.053 136.028C153.232 135.773 153.313 135.48 153.295 135.15L153.233 133.983L154.91 133.894L155.037 136.275ZM163.273 138.88C163.238 138.625 163.184 138.415 163.111 138.248C163.015 138.05 162.883 137.87 162.714 137.708C162.545 137.557 162.342 137.439 162.102 137.356C161.852 137.273 161.573 137.24 161.264 137.257C160.965 137.272 160.713 137.339 160.505 137.457C160.276 137.566 160.086 137.704 159.934 137.872C159.774 138.073 159.656 138.266 159.581 138.452C159.506 138.648 159.464 138.859 159.454 139.083L163.273 138.88ZM165.181 141.31C165.083 141.678 164.946 142.006 164.769 142.293C164.572 142.613 164.336 142.888 164.059 143.116C163.762 143.356 163.431 143.55 163.065 143.698C162.688 143.846 162.266 143.933 161.797 143.958C161.264 143.986 160.753 143.917 160.264 143.751C159.786 143.606 159.351 143.356 158.958 143.003C158.567 142.672 158.256 142.25 158.026 141.739C157.775 141.24 157.632 140.66 157.596 140C157.564 139.392 157.641 138.828 157.827 138.305C158.012 137.782 158.267 137.342 158.589 136.983C158.921 136.602 159.311 136.303 159.759 136.087C160.196 135.861 160.664 135.734 161.165 135.708C161.762 135.676 162.305 135.743 162.794 135.909C163.262 136.077 163.676 136.327 164.036 136.66C164.363 136.985 164.631 137.398 164.839 137.899C165.035 138.369 165.15 138.919 165.183 139.547C165.193 139.739 165.195 139.872 165.188 139.947L165.167 140.141L159.479 140.444C159.505 140.742 159.584 141.01 159.714 141.249C159.844 141.487 160.01 141.692 160.211 141.863C160.413 142.034 160.644 142.166 160.905 142.259C161.145 142.342 161.414 142.376 161.712 142.36C162.287 142.329 162.717 142.178 163.002 141.907C163.286 141.624 163.481 141.288 163.589 140.898L165.181 141.31ZM170.952 137.269C170.738 137.248 170.534 137.243 170.343 137.253C169.618 137.292 169.102 137.517 168.792 137.929C168.473 138.352 168.333 138.925 168.371 139.65L168.569 143.356L166.715 143.455L166.301 135.674L168.106 135.578L168.173 136.824C168.321 136.41 168.597 136.065 168.999 135.787C169.38 135.531 169.832 135.39 170.354 135.362C170.503 135.354 170.605 135.354 170.658 135.362C170.68 135.361 170.712 135.364 170.755 135.373C170.798 135.37 170.83 135.374 170.852 135.384L170.952 137.269ZM172.259 143.16L171.844 135.379L173.682 135.281L174.096 143.062L172.259 143.16ZM171.808 133.49C171.561 133.279 171.429 133.003 171.411 132.662C171.393 132.321 171.495 132.027 171.716 131.78C171.938 131.534 172.214 131.401 172.545 131.384C172.885 131.366 173.179 131.468 173.426 131.689C173.673 131.911 173.805 132.193 173.824 132.533C173.842 132.874 173.74 133.163 173.517 133.399C173.295 133.646 173.014 133.778 172.673 133.796C172.343 133.814 172.054 133.712 171.808 133.49ZM180.933 141.832C180.76 142.194 180.476 142.476 180.081 142.679C179.676 142.893 179.244 143.012 178.786 143.036C178.328 143.061 177.908 143.003 177.527 142.863C177.146 142.723 176.83 142.516 176.581 142.24C176.322 141.987 176.112 141.673 175.954 141.296C175.796 140.952 175.706 140.551 175.681 140.093L175.42 135.188L177.273 135.089L177.517 139.659C177.53 139.904 177.574 140.131 177.649 140.341C177.703 140.541 177.803 140.723 177.951 140.886C178.087 141.039 178.259 141.158 178.466 141.243C178.663 141.328 178.9 141.364 179.177 141.349C179.731 141.319 180.132 141.132 180.381 140.788C180.631 140.465 180.742 140.043 180.714 139.521L180.469 134.919L182.322 134.82L182.661 141.179C182.673 141.414 182.699 141.69 182.737 142.008C182.773 142.274 182.799 142.47 182.817 142.597L181.043 142.692C181.028 142.607 181.005 142.48 180.975 142.311C180.958 142.205 180.944 142.045 180.933 141.832ZM184.563 142.504L184.148 134.723L185.921 134.628L185.974 135.619C186.167 135.224 186.481 134.908 186.917 134.672C187.353 134.435 187.784 134.305 188.21 134.282C188.732 134.254 189.202 134.347 189.619 134.56C190.058 134.771 190.39 135.095 190.616 135.532C190.888 135.015 191.242 134.639 191.678 134.402C192.082 134.177 192.545 134.051 193.067 134.023C193.398 134.006 193.742 134.046 194.099 134.145C194.414 134.235 194.716 134.4 195.007 134.641C195.275 134.862 195.499 135.154 195.679 135.518C195.848 135.894 195.946 136.332 195.973 136.833L196.242 141.881L194.453 141.977L194.2 137.232C194.175 136.774 194.038 136.402 193.788 136.116C193.526 135.82 193.135 135.686 192.613 135.714C192.123 135.74 191.743 135.931 191.474 136.287C191.193 136.633 191.065 137.046 191.091 137.525L191.337 142.143L189.516 142.24L189.263 137.495C189.238 137.037 189.101 136.665 188.851 136.379C188.589 136.083 188.198 135.949 187.676 135.977C187.175 136.004 186.79 136.19 186.52 136.535C186.249 136.87 186.127 137.288 186.154 137.789L186.4 142.406L184.563 142.504ZM206.661 141.566C205.883 141.608 205.152 141.513 204.467 141.283C203.77 141.042 203.143 140.691 202.584 140.23C202.013 139.737 201.559 139.141 201.223 138.443C200.874 137.714 200.676 136.892 200.627 135.976C200.577 135.038 200.693 134.204 200.974 133.474C201.255 132.722 201.648 132.081 202.154 131.552C202.649 131.024 203.235 130.603 203.913 130.289C204.601 129.974 205.302 129.798 206.016 129.76C206.74 129.722 207.39 129.788 207.965 129.961C208.529 130.112 209.043 130.352 209.51 130.679C209.964 130.997 210.337 131.367 210.626 131.79C210.939 132.243 211.166 132.701 211.308 133.163L209.535 133.867C209.443 133.53 209.298 133.217 209.101 132.928C208.903 132.629 208.665 132.375 208.387 132.165C208.109 131.956 207.78 131.797 207.4 131.689C207.031 131.581 206.602 131.539 206.112 131.566C205.633 131.591 205.179 131.701 204.751 131.894C204.314 132.099 203.928 132.376 203.594 132.725C203.25 133.085 202.991 133.532 202.816 134.064C202.631 134.598 202.556 135.2 202.592 135.871C202.627 136.521 202.764 137.101 203.005 137.611C203.257 138.121 203.556 138.527 203.903 138.829C204.295 139.161 204.714 139.4 205.159 139.548C205.605 139.695 206.073 139.755 206.563 139.729C207.064 139.702 207.486 139.61 207.83 139.453C208.226 139.272 208.541 139.068 208.775 138.842C209.059 138.56 209.279 138.281 209.435 138.006C209.61 137.665 209.732 137.349 209.801 137.057L211.59 137.538C211.487 138.014 211.309 138.488 211.057 138.961C210.815 139.433 210.484 139.851 210.066 140.215C209.648 140.601 209.158 140.91 208.593 141.143C208.019 141.387 207.375 141.528 206.661 141.566ZM212.287 138.911C212.269 138.57 212.317 138.258 212.43 137.974C212.513 137.735 212.666 137.492 212.887 137.245C213.1 137.031 213.337 136.863 213.598 136.742C213.921 136.597 214.225 136.495 214.511 136.437L216.492 136.027C216.724 135.983 216.875 135.906 216.944 135.795C217.014 135.706 217.045 135.587 217.037 135.438C217.02 135.107 216.887 134.831 216.64 134.61C216.394 134.398 216.015 134.306 215.504 134.334C215.014 134.36 214.643 134.513 214.391 134.793C214.149 135.063 214.012 135.407 213.981 135.825L212.267 135.532C212.281 135.178 212.365 134.853 212.52 134.557C212.674 134.239 212.883 133.955 213.147 133.706C213.381 133.48 213.701 133.276 214.108 133.094C214.484 132.935 214.917 132.843 215.407 132.817C216.004 132.785 216.514 132.838 216.938 132.975C217.372 133.112 217.725 133.307 217.995 133.56C218.286 133.822 218.494 134.121 218.619 134.456C218.766 134.801 218.849 135.165 218.87 135.548L219.076 139.415C219.091 139.702 219.117 139.984 219.153 140.26C219.198 140.503 219.226 140.635 219.238 140.656L217.512 140.748C217.501 140.727 217.48 140.632 217.449 140.463C217.416 140.251 217.393 140.017 217.38 139.761C217.225 140.058 216.952 140.356 216.562 140.654C216.171 140.931 215.666 141.087 215.049 141.119C214.644 141.141 214.273 141.097 213.936 140.986C213.62 140.875 213.34 140.719 213.094 140.519C212.848 140.307 212.658 140.061 212.526 139.78C212.384 139.52 212.304 139.231 212.287 138.911ZM215.323 139.647C215.589 139.633 215.832 139.582 216.052 139.496C216.283 139.419 216.484 139.296 216.657 139.127C216.81 138.991 216.938 138.781 217.04 138.498C217.133 138.247 217.17 137.925 217.149 137.531L217.13 137.179L215.117 137.591C214.842 137.648 214.603 137.768 214.399 137.95C214.206 138.131 214.118 138.381 214.135 138.701C214.149 138.967 214.257 139.196 214.46 139.388C214.662 139.581 214.95 139.667 215.323 139.647ZM225.14 134.381C224.926 134.36 224.722 134.355 224.531 134.365C223.806 134.404 223.29 134.629 222.98 135.041C222.661 135.464 222.521 136.037 222.559 136.762L222.757 140.468L220.904 140.567L220.489 132.786L222.294 132.69L222.361 133.936C222.51 133.522 222.785 133.176 223.187 132.899C223.568 132.643 224.02 132.502 224.542 132.474C224.691 132.466 224.793 132.466 224.846 132.474C224.868 132.473 224.9 132.476 224.943 132.485C224.986 132.482 225.018 132.486 225.04 132.495L225.14 134.381ZM227.487 136.291C227.526 137.026 227.75 137.617 228.159 138.065C228.555 138.493 229.073 138.69 229.712 138.656C230 138.64 230.274 138.567 230.534 138.435C230.793 138.293 231.002 138.106 231.161 137.873C231.32 137.662 231.45 137.393 231.55 137.067C231.63 136.753 231.66 136.415 231.64 136.053C231.601 135.308 231.383 134.726 230.987 134.31C230.581 133.904 230.074 133.717 229.467 133.75C228.87 133.781 228.381 134.026 228 134.485C227.618 134.943 227.447 135.545 227.487 136.291ZM233.564 138.466C233.577 138.722 233.604 139.03 233.645 139.391C233.67 139.657 233.695 139.821 233.719 139.884L231.946 139.979C231.931 139.905 231.907 139.756 231.874 139.534C231.838 139.258 231.817 139.072 231.812 138.976C231.659 139.305 231.386 139.602 230.995 139.869C230.613 140.124 230.145 140.267 229.591 140.296C229.006 140.328 228.489 140.248 228.041 140.058C227.572 139.881 227.168 139.614 226.828 139.258C226.468 138.914 226.189 138.496 225.992 138.005C225.784 137.503 225.664 136.965 225.634 136.389C225.605 135.846 225.667 135.314 225.821 134.793C225.965 134.294 226.198 133.849 226.519 133.458C226.839 133.046 227.212 132.732 227.639 132.517C228.107 132.279 228.601 132.145 229.123 132.118C229.486 132.098 229.786 132.12 230.024 132.182C230.272 132.233 230.501 132.311 230.71 132.418C230.93 132.545 231.085 132.654 231.176 132.745C231.311 132.877 231.408 133 231.468 133.114L231.217 128.417L233.023 128.321L233.564 138.466Z" fill="white"/>
</svg>
