<svg width="104" height="16" viewBox="0 0 104 16" fill="none" xmlns="http://www.w3.org/2000/svg">
	<path fill-rule="evenodd" clip-rule="evenodd" d="M93.9909 0.00214342V9.23902C93.9909 9.84559 93.8659 10.32 93.6158 10.6622C93.4966 10.8199 93.3393 10.9488 93.1566 11.0385C92.974 11.1281 92.7713 11.1759 92.5651 11.1779C92.3589 11.1798 92.1552 11.136 91.9706 11.0499C91.786 10.9638 91.6259 10.8379 91.5033 10.6826C91.2593 10.3532 91.1377 9.87203 91.1384 9.23902V0.00214342H89.9569L86.8894 13.6683C87.4808 14.1441 88.1703 14.5008 88.915 14.7164C89.8773 15.0022 91.095 15.1469 92.5681 15.1504C95.1232 15.1504 97.007 14.6503 98.2194 13.6501C99.4317 12.6498 100.038 11.1005 100.039 9.00218V0L93.9909 0.00214342ZM4.60701 6.60676H1.50631L0 0.00195312H2.48994L3.13501 4.07436L3.78923 0.00195312H6.7035L7.35773 4.18153L8.01767 0.00195312H10.4035L8.91665 6.60676H5.86628L5.2315 2.3318L4.60701 6.60676ZM76.5066 14.7912H69.5755L66.2095 0.00195312H71.7761L73.2172 9.1113L74.6801 0.00195312H81.0633L82.5262 9.3535L84.0005 0.00195312H85.1165H89.465H89.4653L86.1541 14.7912H79.3225L77.9031 5.21893L76.5066 14.7912ZM12.0735 0.00195312V6.60783L17.52 6.60676V4.89206H14.775V4.11295H17.2352V2.41539H14.775V1.69951H17.4274V0.00195312H12.0735ZM35.5066 6.60783V0.00195312H40.8593V1.69951H38.207V2.41539H40.6706V4.11295H38.207V4.89206H40.952V6.60676L35.5066 6.60783ZM21.8616 4.68056H19.2229C19.2219 4.68899 19.2202 4.69826 19.2185 4.70812C19.2147 4.7296 19.2104 4.75384 19.2104 4.77808V4.92705C19.1991 5.22524 19.272 5.52094 19.4216 5.78434C19.5712 6.04775 19.7922 6.26956 20.0624 6.42741C20.6297 6.77964 21.4429 6.95575 22.5021 6.95575C23.5474 6.95575 24.3732 6.74463 24.9794 6.32239C25.2713 6.12974 25.5077 5.87226 25.6674 5.57302C25.8271 5.27378 25.9051 4.9421 25.8944 4.60769C25.8952 4.07256 25.7198 3.65317 25.3683 3.34952C25.0168 3.04588 24.3454 2.7726 23.3541 2.52968C23.2253 2.49539 23.0526 2.45574 22.836 2.41073C22.242 2.27927 21.945 2.09029 21.945 1.8438C21.9435 1.78238 21.957 1.72144 21.9846 1.6657C22.0121 1.60995 22.053 1.56088 22.104 1.5223C22.2253 1.43601 22.3751 1.39239 22.5272 1.39905C22.6101 1.39392 22.6931 1.40425 22.7717 1.42946C22.8502 1.45466 22.9226 1.49423 22.9847 1.54587C23.1021 1.67114 23.1682 1.83143 23.1711 1.99813H25.6062V1.85666C25.6185 1.58516 25.5544 1.31539 25.4203 1.07444C25.2862 0.833479 25.0868 0.6298 24.8422 0.483832C24.3336 0.165183 23.5959 0.00585938 22.629 0.00585938C21.5699 0.00585938 20.7475 0.190904 20.1619 0.560994C19.8828 0.726618 19.6548 0.957768 19.5005 1.23149C19.3462 1.50522 19.271 1.812 19.2824 2.12137C19.2664 2.52989 19.4179 2.92865 19.7056 3.23593C19.9877 3.52814 20.4376 3.76427 21.0552 3.94431C21.3085 4.01634 21.65 4.0999 22.0809 4.20531L22.096 4.20902C22.3933 4.27071 22.6848 4.35493 22.9676 4.46087C23.0519 4.49873 23.1209 4.56113 23.1643 4.63876C23.2115 4.72828 23.2347 4.82724 23.2318 4.92705C23.235 4.99566 23.2205 5.06398 23.1897 5.12627C23.1588 5.18856 23.1125 5.243 23.0545 5.28499C22.9113 5.37918 22.7384 5.42525 22.5638 5.41574C22.4685 5.42208 22.3727 5.41015 22.2825 5.38066C22.1922 5.35118 22.1093 5.30477 22.0388 5.24427C21.9108 5.10291 21.8472 4.92011 21.8616 4.73522V4.68056ZM33.6683 0.00195312V1.76595H31.9298V6.60462H29.1505V1.76595H27.4075V0.00195312H33.6683ZM42.9446 0.00195312V6.57676H45.6415V4.19333C45.6755 4.1871 45.7099 4.18316 45.7445 4.18154H45.8943C46.1619 4.18154 46.353 4.23834 46.4662 4.35515C46.5794 4.47196 46.6709 4.75168 46.7384 5.18035L46.807 5.66154C46.823 5.77728 46.8459 5.90267 46.8768 6.03984C46.9077 6.17702 46.9534 6.35492 47.0152 6.57569H49.7499C49.6755 6.26919 49.6206 6.02913 49.5852 5.85551C49.5497 5.6819 49.5246 5.53508 49.512 5.41612L49.4113 4.70023C49.337 4.17082 49.2055 3.80645 49.0202 3.6039C48.8349 3.40135 48.5226 3.26739 48.0857 3.20201C48.5547 3.08913 48.9077 2.90444 49.1448 2.64795C49.3873 2.37371 49.5136 2.0254 49.4994 1.6695C49.5002 1.0665 49.2863 0.637822 48.8578 0.383474C48.4292 0.129127 47.6782 0.00195312 46.6046 0.00195312H42.9446ZM45.7205 2.72511C45.6956 2.72428 45.6707 2.72214 45.6461 2.71868V1.47017L45.7719 1.46374H45.9515C46.2557 1.46445 46.4776 1.51125 46.6172 1.60413C46.6886 1.65599 46.7452 1.72371 46.7817 1.80116C46.8182 1.87862 46.8336 1.96338 46.8265 2.04781C46.8313 2.14462 46.8106 2.24107 46.7661 2.32857C46.7216 2.41607 46.6547 2.49191 46.5714 2.54936C46.3537 2.67867 46.0979 2.74019 45.8405 2.72511H45.7205ZM53.8993 2.52899V6.56282H51.6506V0.00195312H54.979L56.5162 3.92969V0.00195312H58.7659V6.56282H55.4365L53.8993 2.52899ZM53.8993 14.7086V10.6362L55.4365 14.7032H58.7659V8.08984H56.5162V12.0487L54.979 8.08984H51.6506V14.7086H53.8993ZM30.321 10.6351V14.6989H28.0713V8.08984H31.3996L32.9379 12.0465V8.08984H35.1923V14.6989H31.864L30.321 10.6351ZM21.8275 8.0957H19.126V12.121C19.1252 12.6489 19.174 13.0498 19.2724 13.3234C19.3733 13.602 19.5384 13.8563 19.7562 14.0682C20.0513 14.3559 20.4203 14.5677 20.8279 14.6834C21.3605 14.8259 21.9131 14.8917 22.4669 14.8784C23.6129 14.8791 24.4581 14.6551 25.0025 14.2065C25.547 13.7578 25.8192 13.0626 25.8192 12.121V8.0957H23.1074V12.2163C23.1217 12.4417 23.0631 12.6658 22.9392 12.8594C22.8855 12.9298 22.8148 12.9874 22.7328 13.0274C22.6508 13.0674 22.5599 13.0887 22.4675 13.0895C22.3751 13.0903 22.2837 13.0707 22.2009 13.0322C22.1181 12.9937 22.0462 12.9374 21.9911 12.8679C21.8694 12.6736 21.8124 12.4497 21.8275 12.2249V8.0957ZM40.2748 8.0957V14.6952H37.4932V8.0957H40.2748ZM43.2406 13.9692C43.8636 14.5744 44.7442 14.8769 45.8827 14.8769C47.0958 14.8777 48.0203 14.5808 48.6562 13.9864C49.2922 13.3919 49.6101 12.531 49.6101 11.4036C49.6109 10.294 49.2956 9.43669 48.6643 8.83155C48.0329 8.2264 47.1351 7.92383 45.9707 7.92383C44.7995 7.92383 43.896 8.22712 43.26 8.83369C42.6241 9.44027 42.3062 10.3012 42.3062 11.4165C42.3062 12.5132 42.6176 13.3641 43.2406 13.9692ZM45.59 9.76317C45.6999 9.69619 45.8295 9.66345 45.9604 9.66961C46.0884 9.66193 46.2157 9.69189 46.3245 9.75529C46.4334 9.8187 46.5185 9.91238 46.5678 10.0233C46.6852 10.259 46.7439 10.6877 46.7439 11.3093C46.7439 11.9959 46.6837 12.4721 46.5632 12.7378C46.5204 12.857 46.4378 12.96 46.3276 13.0317C46.2173 13.1033 46.0854 13.1397 45.9513 13.1354C45.8212 13.1403 45.6928 13.1064 45.5845 13.0386C45.4762 12.9708 45.3936 12.8727 45.3485 12.7582C45.2296 12.5067 45.1701 12.0638 45.1701 11.4293C45.1701 10.752 45.2296 10.2898 45.3485 10.0426C45.3956 9.92792 45.4801 9.83014 45.59 9.76317ZM65.4223 14.7023H64.4868L61.1951 0.00195312H62.1307L65.4223 14.7023ZM67.0258 14.7023H67.9614L64.6697 0.00195312H63.7341L67.0258 14.7023ZM101.262 1.16565L101.557 1.14743C101.56 1.18567 101.574 1.22254 101.596 1.2546C101.612 1.27451 101.633 1.29043 101.657 1.30091C101.68 1.31139 101.707 1.3161 101.733 1.31461C101.77 1.31714 101.807 1.30642 101.836 1.28461C101.847 1.2756 101.856 1.26444 101.863 1.25188C101.869 1.23931 101.872 1.22562 101.872 1.21173C101.872 1.19854 101.869 1.18555 101.863 1.17357C101.857 1.16159 101.849 1.15087 101.838 1.14207C101.79 1.1121 101.735 1.09235 101.678 1.0842C101.572 1.06718 101.472 1.02555 101.387 0.963102C101.358 0.938952 101.336 0.909158 101.32 0.875825C101.305 0.842492 101.298 0.806433 101.299 0.770199C101.299 0.71867 101.315 0.668189 101.344 0.62445C101.377 0.576738 101.424 0.539396 101.48 0.517281C101.558 0.487413 101.642 0.473882 101.726 0.477629C101.83 0.470906 101.934 0.49611 102.021 0.549432C102.057 0.577102 102.086 0.61154 102.106 0.650503C102.127 0.689465 102.139 0.732076 102.141 0.775557L101.848 0.792704C101.844 0.75593 101.827 0.721561 101.799 0.695181C101.77 0.672726 101.733 0.661603 101.695 0.664102C101.666 0.662214 101.638 0.670204 101.614 0.686607C101.605 0.693207 101.598 0.70167 101.593 0.711336C101.588 0.721002 101.586 0.731611 101.586 0.742335C101.586 0.750597 101.588 0.758697 101.592 0.766092C101.596 0.773486 101.602 0.780003 101.609 0.785203C101.64 0.80468 101.676 0.817141 101.714 0.82164C101.815 0.840314 101.913 0.870174 102.006 0.91059C102.058 0.933679 102.101 0.970402 102.131 1.01627C102.161 1.06214 102.176 1.11516 102.174 1.16887C102.174 1.23211 102.156 1.29419 102.12 1.34762C102.083 1.40105 102.032 1.44356 101.971 1.47001C101.894 1.50029 101.812 1.51456 101.729 1.5118C101.665 1.5184 101.601 1.51308 101.54 1.49615C101.48 1.47922 101.423 1.45102 101.374 1.41321C101.306 1.34559 101.267 1.25795 101.262 1.16565ZM102.741 0.494141H102.33V1.49402H102.591V0.730984L102.788 1.49402H103.017L103.213 0.730984V1.49402H103.468V0.494141H103.059L102.902 1.10286L102.741 0.494141Z" fill="#191B20"/>
</svg>
