<svg width="107" height="21" viewBox="0 0 107 21" fill="none" xmlns="http://www.w3.org/2000/svg">
	<g style="mix-blend-mode:multiply">
		<g style="mix-blend-mode:multiply">
			<path d="M6.29725 16.7139C8.59862 16.6924 10.3509 16.0275 12.6609 14.1208L12.8625 13.9535C13.2421 13.6296 13.4373 13.561 13.5295 13.6275C13.6668 13.7262 13.5746 14.1315 13.5295 14.4361C13.5295 14.4361 13.4974 14.5991 13.4545 14.8307C13.3858 15.1975 13.2872 15.7358 13.24 16.0661C13.1671 16.4822 13.3322 16.9241 13.6689 16.9241H13.7848C14.2459 16.9241 14.7349 16.568 14.7992 16.1948L15.5907 11.6907C15.6915 11.1524 15.2926 11.0023 14.6019 11.0087L10.07 10.9422C9.53161 10.9422 9.42652 11.1717 9.37718 11.4248C9.3708 11.4552 9.3665 11.486 9.36432 11.517C9.30855 11.8966 9.60882 12.1905 10.1236 12.1905H12.3971C12.5215 12.1905 12.4485 12.2999 12.3971 12.3385C10.6533 13.9857 8.24687 15.457 6.46454 15.457C4.68221 15.457 2.67682 13.8034 2.67682 11.2789C2.67682 9.52449 3.46825 7.96093 4.45057 6.6526C5.60305 5.11819 7.17801 3.95319 8.98254 3.30027C9.41262 3.15141 9.85789 3.0507 10.3102 3H10.2115C6.19858 3.06863 3.23232 5.46652 1.56366 8.87247C1.18175 9.86141 1.0108 10.9193 1.06178 11.9781C1.09824 16.272 4.70366 16.7289 6.29725 16.7139Z" fill="#191B20"/>
		</g>
	</g>
	<path d="M35.0396 6.9539H34.4627C33.8986 6.9539 33.6562 7.11905 33.2723 7.73461L30.186 12.7277L28.8991 7.79467C28.7468 7.20485 28.5795 6.96248 27.9403 6.96248H27.4535C26.825 6.96248 26.4154 7.33353 26.3017 7.99842L24.8668 16.0393C24.7639 16.6398 25.0341 16.9616 25.5575 16.9616H25.7719C26.321 16.9616 26.5655 16.6913 26.6685 16.0908L27.8202 9.58558L28.9334 13.9395C29.0235 14.3685 29.1136 14.6688 29.9457 14.6688C30.6492 14.6688 30.8165 14.4264 31.0589 14.0253L33.8042 9.52552L32.6525 16.0307C32.5517 16.6441 32.8198 16.953 33.3324 16.953H33.5619C34.1131 16.953 34.3555 16.6699 34.4584 16.0822L35.8911 8.01558C36.007 7.37214 35.7002 6.94318 35.0482 6.94318L35.0396 6.9539ZM39.9727 9.31319C37.4247 9.31319 35.8611 11.3872 35.9383 13.665C36.0155 15.739 37.4397 17.0709 39.5609 17.0709C42.1733 17.0709 43.6703 14.984 43.5931 12.7063C43.5309 10.7588 42.199 9.31319 39.9727 9.31319V9.31319ZM39.5738 15.6489C38.3705 15.6489 37.6156 14.791 37.5769 13.6028C37.5255 12.0778 38.525 10.7223 39.9598 10.7223C41.0601 10.7223 41.9309 11.5802 41.9674 12.7835C42.0188 14.3964 41.0086 15.6489 39.5738 15.6489V15.6489ZM49.2897 9.31319C48.7922 9.30942 48.3027 9.43791 47.8712 9.68551C47.4397 9.93311 47.0817 10.2909 46.8339 10.7223C46.8833 9.72285 46.3342 9.43544 45.7615 9.43544C45.5928 9.41892 45.423 9.45407 45.2747 9.53625L44.1229 16.08C44.0092 16.7578 44.3931 16.9508 44.8779 16.9508H45.0923C45.6307 16.9508 45.8473 16.7364 45.9631 16.08L46.6731 12.1508C47.1728 11.28 47.724 10.8639 48.5691 10.8639C49.4141 10.8639 49.9246 11.3765 49.9503 12.2215C49.9469 12.4969 49.9168 12.7713 49.8602 13.0409L49.3112 16.0822C49.1975 16.7599 49.5814 16.953 50.0683 16.953H50.272C50.8104 16.953 51.0292 16.7385 51.1428 16.0822L51.7305 12.7406C51.7991 12.4119 51.8336 12.0769 51.8335 11.7411C51.782 10.3212 50.849 9.32177 49.2983 9.32177L49.2897 9.31319ZM81.7835 9.31319C80.9127 9.31319 80.2714 9.81293 79.8253 10.7223C79.8875 9.72285 79.3384 9.43544 78.7765 9.43544C78.6069 9.41676 78.4358 9.45204 78.2875 9.53625L77.1293 16.0822C77.0135 16.7599 77.4639 16.953 77.9486 16.953H78.1631C78.6242 16.953 78.8537 16.7385 78.9695 16.0822L79.3534 13.8923C79.6473 12.1894 80.2736 10.999 81.2988 10.999C81.4905 10.992 81.6815 11.0268 81.8585 11.1008C82.0355 11.1749 82.1943 11.2865 82.324 11.428C82.5653 11.3459 82.7721 11.1853 82.9113 10.9718C83.0505 10.7583 83.1141 10.5043 83.0918 10.2505C83.0661 9.68638 82.502 9.31533 81.805 9.31533L81.7835 9.31319ZM90.6029 9.42901C89.8866 9.42901 89.4919 9.77432 89.2603 10.6837C88.7992 9.8258 87.864 9.31319 86.7766 9.31319C84.4602 9.31319 82.8473 11.3743 82.8473 13.7165C82.8473 15.6468 84.0377 17.0709 85.9058 17.0709C87.0447 17.0709 87.9284 16.5969 88.4925 15.6489C88.4152 16.6355 88.6061 16.9358 89.3118 16.9358C89.9552 16.9358 90.1568 16.7042 90.2212 16.0007C90.3091 14.7138 90.7445 12.5947 91.2571 9.63705C91.27 9.58558 90.9761 9.42257 90.6029 9.42257V9.42901ZM84.5331 13.6736C84.5331 12.1894 85.4018 10.7052 87.0147 10.7052C88.3209 10.7052 88.8721 11.6639 88.8721 12.7277C88.8721 14.0596 87.9756 15.6575 86.3112 15.6575C85.1852 15.6575 84.5331 14.9412 84.5331 13.6736V13.6736ZM101.713 9.32177C100.445 9.32177 99.6004 9.96521 99.0127 10.9218C98.7167 9.92446 97.8588 9.32177 96.7585 9.32177C96.2824 9.32172 95.8141 9.44277 95.3976 9.67351C94.9812 9.90426 94.6302 10.2371 94.3778 10.6408C94.4014 9.71855 93.8652 9.43759 93.3054 9.43759C93.1368 9.42341 92.9677 9.45842 92.8185 9.53839L91.6668 16.0822C91.5531 16.7599 91.937 16.953 92.4217 16.953H92.6362C93.0974 16.953 93.3912 16.7599 93.507 16.0822L94.2212 12.0221C94.7489 11.2156 95.2357 10.8703 96.0143 10.8703C96.7928 10.8703 97.2454 11.4344 97.2454 12.2923C97.2448 12.4425 97.2319 12.5925 97.2068 12.7406L96.6298 16.0822C96.5162 16.7599 96.9108 16.953 97.3848 16.953H97.5778C98.0519 16.953 98.3457 16.7385 98.4615 16.0822L99.1779 12.0221C99.7033 11.2156 100.203 10.8703 100.971 10.8703C101.7 10.8703 102.239 11.3186 102.239 12.228C102.228 12.5028 102.197 12.7766 102.148 13.0473L101.61 16.0822C101.494 16.7599 101.878 16.953 102.365 16.953H102.58C103.118 16.953 103.332 16.7385 103.448 16.0822L104.036 12.7406C104.098 12.4109 104.133 12.0766 104.139 11.7411C104.139 10.2569 103.144 9.32177 101.722 9.32177H101.713ZM57.0196 9.3089C53.7681 9.3089 52.6013 11.7025 52.6013 13.7894C52.6013 15.7733 54.0362 17.0924 56.2475 17.0924C58.4588 17.0924 59.6792 16.1079 59.6792 15.3251C59.6792 14.8017 59.3081 14.6216 58.8856 14.583C58.3108 15.3251 57.5043 15.6854 56.4148 15.6854C55.456 15.6854 54.3021 15.3122 54.2271 13.5985H59.233C59.7692 13.5985 60.1789 13.2918 60.1789 12.6119C60.1789 11.5995 59.9644 10.9218 59.514 10.332C59.0143 9.68853 58.092 9.3089 57.0175 9.3089H57.0196ZM58.5681 12.3695H54.4072C54.5885 11.8563 54.9278 11.4137 55.3763 11.1054C55.8249 10.7971 56.3597 10.639 56.9038 10.6537C57.4936 10.6537 57.9547 10.8188 58.2486 11.1513C58.3808 11.3225 58.4773 11.5186 58.5322 11.7279C58.5871 11.9372 58.5993 12.1554 58.5681 12.3695V12.3695ZM75.6601 11.5995H72.6874C72.5726 11.584 72.4558 11.5932 72.3448 11.6265C72.2338 11.6598 72.1313 11.7164 72.044 11.7926C71.8747 12.0329 71.7807 12.3181 71.7737 12.6119C71.7866 12.9186 72.0547 13.0988 72.5308 13.0988H74.6413C74.3475 14.5701 73.4123 15.5953 71.7994 15.5953C70.1093 15.5953 68.9704 14.5229 68.9061 12.6891C68.8289 10.3834 70.3538 8.48958 72.518 8.48958C73.7834 8.48958 74.77 9.16734 75.1797 10.0639C75.2311 10.1282 76.4086 10.1282 76.37 9.12873C76.3229 8.68626 76.108 8.27868 75.7695 7.98984C75.1411 7.37643 73.9764 6.83808 72.4279 6.83808C71.4352 6.82963 70.46 7.09994 69.6134 7.61825C68.7667 8.13657 68.0825 8.8821 67.6385 9.77003C67.6385 9.76662 67.6372 9.76334 67.6348 9.76093C67.6323 9.75852 67.6291 9.75716 67.6257 9.75716C67.5339 9.64646 67.4184 9.55791 67.2877 9.49812C67.157 9.43833 67.0144 9.40883 66.8707 9.41185C66.3838 9.41185 66.0771 9.56413 65.6031 10.3834L63.2867 14.4436L62.4159 10.3963C62.2486 9.64134 61.987 9.41185 61.4937 9.41185C60.9296 9.41185 60.4684 9.82151 60.4963 9.92446L62.1478 16.4661L60.417 19.2544C60.2389 19.5611 60.2261 19.9578 60.8781 19.9578H61.2384C61.9162 19.9578 62.135 19.5482 62.4674 18.9841L67.1345 11.1127C66.9895 11.682 66.9288 12.2695 66.9543 12.8564C67.0487 15.4988 68.8225 17.0924 71.4348 17.0924C72.6767 17.0924 73.6633 16.6184 74.2123 15.902C74.1737 16.6699 74.5834 16.9744 75.1346 16.9744C75.4435 16.9744 75.6601 16.8715 75.6601 16.82L76.4151 12.5819C76.5309 11.9341 76.2842 11.5995 75.6601 11.5995V11.5995Z" fill="#191B20"/>
	<path d="M106.084 16.0996C106.142 16.1961 106.174 16.2347 106.256 16.2368C106.256 16.2368 106.271 16.3526 106.138 16.3526C106.056 16.3526 106.005 16.3162 105.923 16.1617L105.765 15.8829H105.623L105.55 16.2626C105.537 16.3226 105.512 16.3483 105.458 16.3483H105.434C105.383 16.3483 105.355 16.3162 105.366 16.2561L105.557 15.2695C105.557 15.2548 105.561 15.2404 105.567 15.2272C105.573 15.2139 105.582 15.2021 105.593 15.1925C105.604 15.1828 105.617 15.1755 105.631 15.1711C105.645 15.1666 105.66 15.1651 105.675 15.1666H105.958C106.224 15.1666 106.365 15.2717 106.37 15.4711C106.373 15.5258 106.364 15.5805 106.344 15.6314C106.324 15.6824 106.293 15.7284 106.253 15.7663C106.214 15.8042 106.166 15.8331 106.115 15.851C106.063 15.8689 106.008 15.8754 105.953 15.8701L106.084 16.0996ZM105.906 15.7349C106.082 15.7349 106.177 15.6427 106.174 15.4926C106.174 15.3789 106.089 15.3188 105.938 15.3188H105.724L105.645 15.7349H105.906Z" fill="#191B20"/>
	<path d="M105.87 14.8564C106.062 14.8564 106.25 14.9133 106.41 15.0201C106.569 15.1269 106.694 15.2786 106.767 15.4561C106.841 15.6337 106.86 15.829 106.823 16.0175C106.785 16.206 106.693 16.3791 106.557 16.515C106.421 16.6509 106.248 16.7434 106.059 16.7809C105.871 16.8184 105.676 16.7991 105.498 16.7256C105.32 16.6521 105.169 16.5275 105.062 16.3678C104.955 16.208 104.898 16.0201 104.898 15.828C104.898 15.5703 105.001 15.3231 105.183 15.1409C105.365 14.9587 105.612 14.8564 105.87 14.8564V14.8564ZM105.87 14.6976C105.646 14.6976 105.428 14.7639 105.242 14.8881C105.056 15.0123 104.911 15.1889 104.826 15.3954C104.74 15.6019 104.718 15.8292 104.761 16.0485C104.805 16.2677 104.912 16.4691 105.071 16.6272C105.229 16.7853 105.43 16.8929 105.649 16.9366C105.869 16.9802 106.096 16.9578 106.302 16.8722C106.509 16.7867 106.685 16.6418 106.81 16.4559C106.934 16.27 107 16.0515 107 15.828C107.001 15.6792 106.972 15.5317 106.915 15.3941C106.859 15.2565 106.776 15.1313 106.671 15.0259C106.566 14.9205 106.441 14.8369 106.303 14.7798C106.166 14.7227 106.019 14.6934 105.87 14.6934V14.6976Z" fill="#191B20"/>
</svg>
