<svg width="100" height="18" viewBox="0 0 100 18" fill="none" xmlns="http://www.w3.org/2000/svg">
	<path fill-rule="evenodd" clip-rule="evenodd" d="M62.8354 0.132901C62.6136 0.225612 62.4129 0.363946 62.2458 0.539264C62.0707 0.712929 61.9323 0.921283 61.8392 1.1515C61.7461 1.38172 61.7001 1.62893 61.7043 1.87792C61.6994 2.11823 61.7427 2.35702 61.8314 2.57974C61.92 2.80246 62.0523 3.00445 62.22 3.17339C62.3861 3.35074 62.5864 3.49117 62.8083 3.58584C63.0302 3.68051 63.2689 3.72737 63.5094 3.72349C63.7494 3.73133 63.9884 3.68975 64.2122 3.60124C64.436 3.51273 64.64 3.37912 64.812 3.2084C64.9839 3.03768 65.1204 2.83335 65.2131 2.60764C65.3058 2.38194 65.3528 2.13949 65.3515 1.89482C65.3618 1.39731 65.1807 0.915447 64.8468 0.552407C64.6765 0.374345 64.4723 0.233556 64.2468 0.138648C64.0213 0.0437394 63.7792 -0.00329393 63.5352 0.000423093C63.2955 -0.00490797 63.0573 0.04019 62.8354 0.132901ZM64.6589 5.54654L62.3876 5.53528C62.2964 5.53577 62.2091 5.57292 62.1446 5.63865C62.0801 5.70439 62.0437 5.79341 62.0432 5.88637L61.9916 16.3515C61.9906 16.3979 61.9987 16.4441 62.0153 16.4873C62.032 16.5305 62.0569 16.57 62.0886 16.6033C62.1203 16.6367 62.1581 16.6633 62.2 16.6816C62.2418 16.6999 62.2868 16.7096 62.3324 16.7101H64.6018C64.6925 16.7111 64.78 16.6756 64.8451 16.6113C64.9103 16.547 64.948 16.459 64.9499 16.3665L65.0033 5.90139C65.0036 5.85504 64.9949 5.80909 64.9777 5.76617C64.9605 5.72325 64.9352 5.6842 64.9032 5.65125C64.8712 5.6183 64.8332 5.59209 64.7913 5.57413C64.7493 5.55616 64.7043 5.54679 64.6589 5.54654ZM38.7195 0.496186L38.6403 16.2296C38.64 16.2759 38.6488 16.3219 38.6659 16.3648C38.6831 16.4077 38.7084 16.4468 38.7404 16.4797C38.7724 16.5127 38.8104 16.5389 38.8524 16.5569C38.8943 16.5748 38.9393 16.5842 38.9847 16.5844L41.2578 16.5995C41.3495 16.5995 41.4375 16.5626 41.5027 16.4969C41.5679 16.4311 41.605 16.3418 41.6059 16.2484L41.6373 10.0376C41.647 9.46983 41.8547 8.92411 42.223 8.49807C42.4052 8.28545 42.6327 8.11821 42.8882 8.00918C43.1436 7.90015 43.4202 7.85223 43.6966 7.86911C44.4095 7.87286 44.9216 8.07939 45.2532 8.51309C45.5731 8.97833 45.7348 9.53749 45.7137 10.1052L45.6824 16.269C45.6821 16.3154 45.6908 16.3613 45.708 16.4042C45.7252 16.4472 45.7505 16.4862 45.7825 16.5192C45.8145 16.5521 45.8525 16.5783 45.8944 16.5963C45.9364 16.6142 45.9813 16.6236 46.0268 16.6239L48.298 16.6351C48.3434 16.6354 48.3884 16.6265 48.4304 16.6089C48.4724 16.5914 48.5106 16.5656 48.5428 16.533C48.575 16.5003 48.6005 16.4616 48.6179 16.4188C48.6354 16.3761 48.6443 16.3303 48.6443 16.284L48.6793 9.59828C48.6819 9.01387 48.6019 8.43214 48.4417 7.87099C48.3088 7.34974 48.0599 6.86671 47.7143 6.45938C47.3686 6.05205 46.9356 5.73137 46.4486 5.52224C45.8756 5.2609 45.2527 5.13264 44.625 5.14674C44.0774 5.14714 43.5339 5.24434 43.0188 5.434C42.7245 5.52622 42.4466 5.66566 42.1954 5.84705C42.1433 5.88307 42.0825 5.90387 42.0197 5.90717C41.9568 5.91047 41.8943 5.89615 41.8388 5.86577C41.7834 5.83539 41.7372 5.7901 41.7052 5.73484C41.6733 5.67957 41.6568 5.61643 41.6575 5.55228L41.6833 0.511206C41.6828 0.41789 41.6465 0.328477 41.5821 0.262142C41.5177 0.195807 41.4304 0.157831 41.3389 0.156359L39.0676 0.145094C39.0222 0.144847 38.9771 0.153732 38.935 0.171243C38.8929 0.188753 38.8545 0.214546 38.8222 0.247148C38.7899 0.279749 38.7642 0.318522 38.7466 0.361253C38.7289 0.403983 38.7197 0.449833 38.7195 0.496186ZM30.7915 8.61861C31.0399 8.36414 31.3371 8.16472 31.6646 8.03283C32.0102 7.89776 32.3776 7.83025 32.7477 7.83381C33.4827 7.83757 34.0464 8.04409 34.4148 8.43273C34.6911 8.71276 34.9103 9.04587 35.0595 9.41279C35.0918 9.49693 35.1544 9.56534 35.2345 9.60407C35.3146 9.64279 35.4061 9.64892 35.4905 9.62119L37.5167 8.94153C37.6033 8.91272 37.6752 8.85013 37.7166 8.76744C37.7581 8.68476 37.7657 8.58871 37.7378 8.50032C37.6168 8.13289 37.4561 7.78027 37.2589 7.44893C36.9869 6.98477 36.6342 6.57504 36.2181 6.23982C35.7606 5.87342 35.2514 5.57971 34.7076 5.36866C34.0615 5.14922 33.3846 5.03825 32.7035 5.0401C31.9403 5.02532 31.1821 5.16839 30.4747 5.46066C29.7911 5.7405 29.1704 6.15909 28.6505 6.69099C28.1305 7.22289 27.7221 7.857 27.4501 8.55477C27.147 9.31105 26.9918 10.1204 26.9932 10.9373C26.9824 11.7467 27.1296 12.5502 27.4261 13.3011C27.707 14.008 28.1235 14.6508 28.6511 15.1917C29.177 15.726 29.8036 16.1463 30.4931 16.4271C31.1983 16.745 31.962 16.9057 32.733 16.8984C33.4012 16.9095 34.0665 16.8048 34.7003 16.5886C35.251 16.3841 35.7645 16.0878 36.22 15.7118C36.6402 15.3749 37.0036 14.9703 37.2957 14.5139C37.4985 14.194 37.663 13.8505 37.7857 13.4907C37.8143 13.4021 37.8072 13.3055 37.7662 13.2221C37.7251 13.1387 37.6533 13.0753 37.5665 13.0457L35.5937 12.3642C35.5123 12.3354 35.4233 12.3386 35.3442 12.3734C35.2651 12.4082 35.2016 12.4719 35.1663 12.552C35.1123 12.6747 35.0508 12.7938 34.9821 12.9087C34.8561 13.1415 34.6887 13.3484 34.4884 13.5189C34.2612 13.7055 34.0037 13.8504 33.7277 13.9469C33.4147 14.0677 33.0823 14.1276 32.7477 14.1234C32.3745 14.1235 32.0046 14.0522 31.6572 13.9131C31.3227 13.7717 31.0205 13.5614 30.7694 13.2954C30.5138 12.9999 30.3117 12.6604 30.1726 12.2929C30.0153 11.8647 29.9421 11.4092 29.9571 10.9523C29.9468 10.4952 30.0244 10.0404 30.1855 9.61368C30.3295 9.24876 30.5345 8.91207 30.7915 8.61861ZM57.6077 5.6018C58.288 5.88895 58.9068 6.30858 59.4295 6.83719C59.9468 7.38016 60.3527 8.02293 60.6231 8.72783C60.9103 9.48867 61.0498 10.2991 61.0339 11.1141C61.0446 11.9225 60.8968 12.7248 60.5992 13.4741C60.3225 14.1768 59.9096 14.8153 59.3853 15.3516C58.5408 16.158 57.4863 16.6994 56.3479 16.9111C55.2095 17.1229 54.0354 16.996 52.9658 16.5457C52.2861 16.2577 51.6679 15.8374 51.1459 15.3084C50.6269 14.7668 50.2209 14.1237 49.9523 13.4178C49.6614 12.6658 49.5211 11.8621 49.5396 11.054C49.5318 10.2391 49.6801 9.43043 49.9762 8.67338C50.252 7.9707 50.6642 7.33208 51.1883 6.79589C51.7153 6.27218 52.338 5.85885 53.0211 5.57927C54.5016 5.01253 56.135 5.02122 57.6096 5.60368L57.6077 5.6018ZM56.3183 14.0637C56.6576 13.9328 56.9632 13.7248 57.2117 13.4554C57.4744 13.1745 57.6809 12.8442 57.8196 12.4828C57.9894 12.0422 58.0744 11.5725 58.0701 11.0991C58.08 10.6259 57.9993 10.1552 57.8325 9.71351C57.6978 9.35045 57.4951 9.01758 57.2356 8.73346C56.9891 8.46204 56.6856 8.25089 56.3478 8.11576C55.6773 7.83977 54.9286 7.83574 54.2552 8.1045C53.9171 8.23767 53.612 8.4454 53.3619 8.71281C53.0987 8.99363 52.8927 9.32482 52.7558 9.68723C52.4244 10.5785 52.4191 11.5617 52.7411 12.4565C52.8753 12.819 53.0767 13.1517 53.3342 13.4366C53.5817 13.7068 53.885 13.9178 54.2221 14.0543C54.8936 14.3288 55.6426 14.3322 56.3165 14.0637H56.3183ZM68.9494 14.2424C69.2828 14.5841 69.7709 14.7681 70.423 14.7718C70.8102 14.7987 71.1945 14.6872 71.5098 14.4564C71.624 14.3596 71.7161 14.2385 71.7797 14.1017C71.8433 13.9648 71.8769 13.8155 71.8782 13.6641C71.8802 13.5416 71.8579 13.4198 71.8126 13.3063C71.7673 13.1927 71.7001 13.0896 71.6148 13.0032C71.4306 12.7986 71.1266 12.6596 70.703 12.5677L69.2496 12.2222C68.1812 11.9669 67.4076 11.5557 66.9157 10.9624C66.4365 10.3753 66.1796 9.63259 66.1918 8.86899C66.1939 8.3819 66.3028 7.90144 66.5105 7.46274C66.7097 7.01406 67.0094 6.61923 67.3855 6.30996C67.7613 5.96469 68.1991 5.6969 68.6749 5.52142C69.1935 5.31855 69.746 5.22097 70.3014 5.23416C70.9709 5.21968 71.6368 5.33895 72.2613 5.58525C72.75 5.76293 73.1963 6.0438 73.571 6.40947C73.8841 6.7133 74.1346 7.07777 74.3078 7.48152C74.3988 7.69001 74.4739 7.9053 74.5325 8.1255C74.5434 8.17126 74.5452 8.21878 74.5378 8.26526C74.5304 8.31173 74.5139 8.35622 74.4893 8.39611C74.4648 8.436 74.4327 8.47048 74.3949 8.49752C74.357 8.52456 74.3143 8.54362 74.2691 8.55357L72.4547 8.96099C72.3694 8.9803 72.2801 8.96583 72.2048 8.92051C72.1296 8.87519 72.0741 8.80241 72.0495 8.71691C72.0316 8.6531 72.0101 8.59041 71.985 8.52916C71.9128 8.33884 71.7994 8.16752 71.6535 8.02787C71.4964 7.86774 71.3082 7.74301 71.1008 7.66176C70.8532 7.56151 70.5881 7.51361 70.3217 7.52095C69.9694 7.51235 69.6243 7.62257 69.3399 7.83449C69.2064 7.91889 69.0967 8.03711 69.0215 8.17762C68.9463 8.31814 68.9081 8.47613 68.9107 8.63618C68.9032 8.76146 68.9255 8.88672 68.9755 9.00141C69.0255 9.1161 69.1018 9.21685 69.198 9.29518C69.4056 9.46675 69.6508 9.58463 69.9127 9.63876L71.4693 9.9861C72.5597 10.2189 73.3592 10.6545 73.8915 11.2703C74.4278 11.8561 74.7186 12.6321 74.702 13.4332C74.6984 13.8929 74.6051 14.3473 74.4276 14.77C74.259 15.2195 73.9896 15.6226 73.641 15.9471C73.2548 16.312 72.8015 16.5953 72.3074 16.7807C71.0133 17.2127 69.6143 17.1875 68.336 16.7094C67.8338 16.4932 67.3706 16.1931 66.9655 15.8213C66.6279 15.5046 66.3636 15.1153 66.1918 14.6817C66.0854 14.4536 66.0015 14.2152 65.9413 13.9701C65.9305 13.9244 65.9288 13.8768 65.9363 13.8304C65.9439 13.7839 65.9605 13.7395 65.9853 13.6997C66.01 13.66 66.0424 13.6257 66.0804 13.5989C66.1184 13.5722 66.1613 13.5535 66.2066 13.5439L68.0707 13.1422C68.1578 13.1229 68.2489 13.139 68.3245 13.187C68.4002 13.235 68.4545 13.3112 68.476 13.3994C68.5573 13.7183 68.7207 14.0093 68.9494 14.2424ZM84.0004 16.1147C84.4178 15.8114 84.7811 15.4374 85.0743 15.0089C85.2937 14.6919 85.472 14.3473 85.6048 13.9838C85.6208 13.9387 85.6276 13.8908 85.6248 13.843C85.6219 13.7952 85.6095 13.7485 85.5883 13.7058C85.567 13.663 85.5375 13.6252 85.5014 13.5945C85.4652 13.5639 85.4234 13.5411 85.3783 13.5275L83.5362 12.9643C83.4573 12.9403 83.3726 12.946 83.2975 12.9805C83.2224 13.015 83.1619 13.0759 83.1273 13.152C82.9487 13.5209 82.6882 13.8423 82.3666 14.0908C81.9871 14.4081 81.429 14.5602 80.7382 14.5602C80.3878 14.5556 80.0405 14.4922 79.7104 14.3724L79.6754 14.3593C79.3605 14.2303 79.071 14.0446 78.8206 13.811C78.5792 13.5818 78.3774 13.3127 78.2238 13.015C78.1322 12.8216 78.0672 12.6163 78.0304 12.4048C78.0217 12.3539 78.0242 12.3017 78.0376 12.2519C78.0509 12.2021 78.0749 12.156 78.1078 12.1167C78.1407 12.0774 78.1817 12.046 78.2279 12.0248C78.274 12.0035 78.3242 11.9929 78.3749 11.9936L85.5035 12.0293C85.5883 12.0299 85.6703 11.9986 85.7338 11.9415C85.7974 11.8843 85.838 11.8053 85.848 11.7195C85.867 11.5161 85.875 11.3118 85.8719 11.1075C85.8812 9.31257 85.4206 7.88004 84.4683 6.85305C83.516 5.82606 82.2026 5.2891 80.4877 5.2891C79.7906 5.28112 79.0999 5.42448 78.4615 5.70966C77.809 5.97749 77.2159 6.37585 76.7171 6.88121C76.2039 7.40453 75.7992 8.0277 75.5271 8.71365C75.222 9.48506 75.0669 10.3095 75.0703 11.1412C75.0521 12.0051 75.2069 12.8637 75.5253 13.6646C75.7968 14.3743 76.2109 15.0183 76.741 15.5552C77.2508 16.0773 77.8636 16.4831 78.5388 16.7456C79.2306 17.0036 79.961 17.1376 80.6977 17.1417C81.3244 17.1527 81.949 17.064 82.5489 16.8789C83.067 16.6984 83.5561 16.4409 84.0004 16.1147ZM82.3463 8.44892C82.5467 8.64724 82.6982 8.89108 82.7884 9.16049C82.8355 9.27614 82.8713 9.39626 82.8952 9.51909C82.9072 9.57115 82.9074 9.62528 82.8959 9.67744C82.8844 9.7296 82.8616 9.77844 82.829 9.82033C82.7964 9.86221 82.7549 9.89604 82.7077 9.91931C82.6605 9.94257 82.6087 9.95466 82.5563 9.95467L78.4725 9.93214C78.4195 9.9323 78.3672 9.91998 78.3196 9.89614C78.272 9.8723 78.2305 9.83759 78.1982 9.79472C78.1659 9.75184 78.1438 9.70195 78.1336 9.64893C78.1233 9.59592 78.1252 9.5412 78.1391 9.48905C78.1708 9.37659 78.2108 9.26676 78.2588 9.16049C78.3745 8.90009 78.5341 8.66242 78.7304 8.45831C78.9531 8.24261 79.2104 8.06736 79.4911 7.94012C79.8166 7.79711 80.1684 7.72731 80.5227 7.73547C80.8896 7.72549 81.2542 7.79725 81.5911 7.94575C81.8765 8.05395 82.1345 8.22587 82.3463 8.44892ZM89.1966 6.22319C89.0971 6.26438 89.0068 6.32665 88.9313 6.40611C88.8533 6.49775 88.791 6.60289 88.7472 6.71684C88.6983 6.85011 88.6747 6.99212 88.6778 7.13486C88.6733 7.27754 88.6955 7.41977 88.7433 7.55347C88.7854 7.66887 88.8468 7.77548 88.9246 7.86831C89.0008 7.95155 89.0926 8.01725 89.1944 8.06119C89.2999 8.10486 89.4123 8.12715 89.5257 8.12686C89.6274 8.12846 89.7285 8.10975 89.8235 8.07175C89.9074 8.04172 89.9856 7.99648 90.0546 7.93807C90.1154 7.88484 90.1663 7.82023 90.2046 7.74753C90.2255 7.71167 90.2442 7.67446 90.2606 7.63614C90.2714 7.61122 90.2907 7.59141 90.3147 7.58057C90.3387 7.56973 90.3657 7.56864 90.3904 7.57751L90.9898 7.79033C91.0154 7.79993 91.0364 7.8195 91.0485 7.84496C91.0606 7.87042 91.0628 7.89979 91.0547 7.92693C91.0176 8.03933 90.9676 8.14662 90.9059 8.24646C90.8171 8.38897 90.7067 8.51532 90.579 8.62051C90.4405 8.73789 90.2845 8.83059 90.1173 8.89489C89.9251 8.9615 89.7236 8.9938 89.5212 8.99045C89.287 8.99339 89.0549 8.94361 88.8407 8.84447C88.6312 8.75677 88.4408 8.62554 88.281 8.45869C88.1206 8.28989 87.994 8.08915 87.9088 7.86831C87.8187 7.63382 87.774 7.38292 87.7773 7.13017C87.7769 6.87507 87.824 6.62234 87.9161 6.38618C87.9988 6.16829 88.1228 5.97027 88.2808 5.80418C88.4388 5.63808 88.6274 5.50737 88.8351 5.41998C89.05 5.32871 89.2804 5.28404 89.5123 5.28865C89.7192 5.28808 89.9249 5.32273 90.1212 5.39125C90.2863 5.45739 90.441 5.54909 90.5801 5.66329C90.7066 5.76797 90.8137 5.89592 90.8964 6.04086C90.9563 6.14443 91.0052 6.25452 91.0424 6.36918C91.0506 6.39686 91.048 6.42678 91.0354 6.45253C91.0227 6.47828 91.001 6.49782 90.9747 6.50695L90.3591 6.71919C90.3334 6.72785 90.3056 6.72593 90.2813 6.71384C90.2569 6.70175 90.2379 6.68039 90.2281 6.65411C90.1828 6.53953 90.1162 6.43551 90.0322 6.34807C89.9203 6.22671 89.749 6.16222 89.5257 6.16105C89.4133 6.15993 89.3016 6.18101 89.1966 6.22319ZM94.1262 5.83029C93.9674 5.66543 93.7796 5.53441 93.5732 5.44452L93.576 5.44335C93.1277 5.26164 92.6313 5.25893 92.1813 5.43572C91.9731 5.52342 91.7831 5.65242 91.6216 5.81564C91.4627 5.98333 91.3375 6.18268 91.2533 6.40192C91.1637 6.63899 91.1193 6.89213 91.1224 7.14709C91.1166 7.39939 91.159 7.65036 91.2472 7.88522C91.3283 8.10649 91.4513 8.30831 91.6087 8.47854C91.7675 8.6434 91.9553 8.77442 92.1617 8.86432C92.382 8.96198 92.6193 9.01012 92.8585 9.00561C93.0978 9.01128 93.3356 8.96414 93.5564 8.86725C93.7638 8.77966 93.9529 8.65062 94.1133 8.48733C94.2724 8.31981 94.3976 8.12041 94.4815 7.90105C94.572 7.66706 94.6169 7.41651 94.6136 7.16409C94.6185 6.91015 94.5761 6.65765 94.4888 6.42068C94.4069 6.20041 94.2836 5.99964 94.1262 5.83029ZM93.4534 7.89695C93.3775 7.98094 93.2845 8.04605 93.1814 8.08749H93.1809C93.0793 8.12878 92.9713 8.14985 92.8624 8.14963C92.7534 8.14893 92.6456 8.12665 92.5445 8.08397C92.4421 8.04142 92.3499 7.97554 92.2748 7.89108C92.1961 7.80222 92.1345 7.69831 92.0934 7.58504C92.0433 7.44695 92.0188 7.30009 92.0212 7.15237C92.0201 7.00451 92.0461 6.85782 92.0979 6.72027C92.1398 6.60729 92.2024 6.50394 92.282 6.41599C92.3581 6.33234 92.451 6.26746 92.554 6.22604C92.7589 6.14287 92.9865 6.14518 93.1898 6.23248C93.2925 6.27482 93.3849 6.34073 93.4601 6.42537C93.5388 6.51413 93.6002 6.61807 93.6409 6.73141C93.6915 6.86939 93.7162 7.0163 93.7137 7.16409C93.7146 7.31092 93.6888 7.45659 93.6376 7.59325C93.5955 7.70598 93.5329 7.80911 93.4534 7.89695ZM95.0255 5.42527L95.6748 5.42878C95.6887 5.42871 95.7025 5.43152 95.7153 5.43706C95.7282 5.4426 95.7399 5.45076 95.7497 5.46107C95.7596 5.47137 95.7674 5.48362 95.7726 5.4971C95.7779 5.51057 95.7806 5.52502 95.7805 5.53959V5.5478C95.7806 5.56875 95.7864 5.58924 95.7973 5.60684C95.8081 5.62444 95.8236 5.63842 95.8418 5.64712C95.86 5.65582 95.8801 5.65887 95.8999 5.65592C95.9197 5.65297 95.9383 5.64413 95.9535 5.63047C96.0285 5.56483 96.111 5.50929 96.1992 5.46513C96.2884 5.42087 96.3823 5.38799 96.479 5.36722C96.571 5.34606 96.6647 5.33466 96.7589 5.33322C96.9686 5.3289 97.1758 5.38141 97.3605 5.48565C97.483 5.55725 97.588 5.65759 97.6672 5.7788C97.6763 5.79304 97.6884 5.80485 97.7026 5.8133C97.7168 5.82175 97.7327 5.8266 97.749 5.82745C97.7654 5.82831 97.7817 5.82515 97.7966 5.81823C97.8115 5.8113 97.8247 5.80081 97.8351 5.78759C97.934 5.6546 98.0613 5.54777 98.2067 5.47569C98.3919 5.38527 98.5947 5.3415 98.7989 5.34788C98.9513 5.34892 99.1025 5.37605 99.2466 5.4282C99.3887 5.47819 99.5195 5.55798 99.6311 5.66271C99.7502 5.77923 99.8421 5.92285 99.8997 6.08249C99.9714 6.27203 100.005 6.47498 99.9988 6.67874L99.9882 8.83041C99.9879 8.85959 99.9766 8.88747 99.9568 8.908C99.937 8.92853 99.9103 8.94004 99.8824 8.94004L99.2197 8.93652C99.2059 8.93645 99.1923 8.93352 99.1795 8.92791C99.1668 8.9223 99.1552 8.91411 99.1455 8.90383C99.1358 8.89354 99.1281 8.88134 99.1229 8.86794C99.1177 8.85454 99.115 8.84019 99.1151 8.82572L99.1246 6.86518C99.1313 6.69766 99.0844 6.53259 98.9914 6.39615C98.8974 6.26776 98.7485 6.20327 98.5386 6.20209C98.4531 6.1973 98.3676 6.21315 98.2888 6.24842C98.21 6.28369 98.14 6.33744 98.0842 6.40553C97.9745 6.53921 97.9159 6.71065 97.9196 6.88687L97.9101 8.82161C97.91 8.83609 97.9072 8.8504 97.9019 8.86375C97.8965 8.87709 97.8887 8.8892 97.8789 8.89938C97.8691 8.90956 97.8574 8.91761 97.8446 8.92308C97.8318 8.92855 97.8181 8.93132 97.8043 8.93125L97.1199 8.92421C97.092 8.92406 97.0654 8.91238 97.0458 8.89172C97.0262 8.87107 97.0152 8.84312 97.0152 8.81399L97.0253 6.85345C97.0317 6.68271 96.9824 6.51476 96.8853 6.37739C96.7913 6.25662 96.6424 6.19213 96.4376 6.19095C96.2328 6.18978 96.0856 6.2531 95.9764 6.38677C95.8666 6.52311 95.8081 6.69679 95.8119 6.87515L95.8024 8.80989C95.8023 8.82436 95.7995 8.83868 95.7942 8.85202C95.7888 8.86536 95.781 8.87747 95.7712 8.88765C95.7613 8.89783 95.7497 8.90589 95.7369 8.91136C95.7241 8.91682 95.7104 8.9196 95.6966 8.91952L95.0065 8.916C94.9927 8.91593 94.979 8.913 94.9663 8.90739C94.9536 8.90178 94.942 8.8936 94.9323 8.88331C94.9226 8.87302 94.9149 8.86082 94.9097 8.84742C94.9044 8.83402 94.9018 8.81967 94.9019 8.8052L94.9181 5.53725C94.9178 5.5224 94.9203 5.50765 94.9257 5.49388C94.9309 5.48011 94.9389 5.46761 94.9489 5.45714C94.959 5.44666 94.9709 5.43844 94.9841 5.43296C94.9973 5.42748 95.0114 5.42487 95.0255 5.42527ZM6.27593 5.21484C2.80983 5.21484 0 7.94975 0 11.3234C0 14.6971 2.80983 17.432 6.27593 17.432H16.8195C20.2856 17.432 23.0954 14.6971 23.0954 11.3234C23.0954 7.94975 20.2856 5.21484 16.8195 5.21484H6.27593Z" fill="#191B20"/>
	<path d="M8.53564 11.324C8.53564 8.73595 10.6711 6.63794 13.3054 6.63794H16.3178C18.952 6.63794 21.0875 8.73595 21.0875 11.324V11.324C21.0875 13.912 18.952 16.01 16.3178 16.01H13.3054C10.6711 16.01 8.53564 13.912 8.53564 11.324V11.324Z" fill="url(#paint0_linear_309_6)"/>
	<defs>
		<linearGradient id="paint0_linear_309_6" x1="21.0875" y1="11.324" x2="9.3202" y2="14.3624" gradientUnits="userSpaceOnUse">
			<stop stop-color="#5CEE9C"/>
			<stop offset="1" stop-color="#FFEF21"/>
		</linearGradient>
	</defs>
</svg>
