<svg width="107" height="17" viewBox="0 0 107 17" fill="none" xmlns="http://www.w3.org/2000/svg">
	<path fill-rule="evenodd" clip-rule="evenodd" d="M4.12413 3.70335L1.77139 0H13.9679L7.59994 14.1272H5.64858L11.3436 1.48143H4.85629L6.24679 3.69352L3.86626 5.91887H7.8004L7.13021 7.40072H0L4.12413 3.70335ZM89.9288 8.66406H88.3027V16.7536H89.9288V8.66406ZM88.229 5.92773H90.0031V7.56854H88.229V5.92773ZM83.4956 14.336L85.5171 5.92773H87.1928L84.4077 16.7515H82.7817L80.5378 10.7587H80.4645L77.8762 16.7515H76.2492L74.0564 5.92773H75.8064L77.4083 14.336H77.4821L79.8731 8.66284H81.3274L83.4223 14.336H83.4956ZM62.8917 15.5679C61.3144 15.5679 60.2301 14.4053 60.2301 12.7192C60.2301 11.1471 61.1664 9.80202 62.6949 9.80202C64.4449 9.80202 64.9133 11.1698 64.9625 12.0133H61.9372L61.3709 13.2439H66.6136C66.6377 12.9243 66.6377 12.8337 66.6377 12.6739C66.6377 10.3494 65.3812 8.50391 62.6699 8.50391C60.3285 8.50391 58.5298 10.2806 58.5298 12.7192C58.5298 15.2261 60.2542 16.8891 62.7191 16.8891C64.1984 16.8891 65.5042 16.3883 66.2933 15.4995L65.3074 14.6104C64.6668 15.2261 63.8285 15.5679 62.8917 15.5679ZM57.9624 6.93019C56.9765 6.93019 56.4589 7.5002 56.4589 8.50263V8.75345H58.6772L58.11 10.0298H56.4589V16.7515H54.8324V10.0298H53.748V8.75345H54.8324V8.50263C54.8324 6.42898 56.2616 5.6543 57.9132 5.6543C58.5046 5.6543 59.2686 5.76838 59.9092 6.0645L59.3921 7.18144C58.9237 7.02164 58.3323 6.93019 57.9624 6.93019ZM41.7942 8.50391C40.7098 8.50391 39.7239 8.89189 39.2309 9.68922H39.1576V8.66371H37.5798V16.7528H39.2063V12.3786C39.2063 10.7831 40.0693 9.82552 41.4251 9.82552C42.7058 9.82552 43.4703 10.4635 43.4703 11.9445V16.7528H45.0969V11.6714C45.0969 9.62085 43.8157 8.50391 41.7942 8.50391ZM31.541 15.6136C33.0199 15.6136 34.0797 14.8385 34.0797 13.6314V13.2439C33.6856 12.9704 32.9707 12.7884 31.8864 12.7884C30.6786 12.7884 29.8899 13.381 29.8899 14.2689C29.8899 15.2265 30.654 15.6136 31.541 15.6136ZM29.2248 8.89103C29.9145 8.64021 30.8267 8.50391 31.7875 8.50391C34.1293 8.50391 35.6574 9.48454 35.6574 11.6945V16.7537H34.0797V15.8187H34.0063C33.5375 16.4118 32.6258 16.9126 31.2946 16.9126C29.6927 16.9126 28.2634 16.1153 28.2634 14.3377C28.2634 12.6286 29.7173 11.5804 31.9356 11.5804C32.9461 11.5804 33.6364 11.7859 34.0797 11.9449V11.7172C34.0797 10.3955 32.9461 9.80288 31.5661 9.80288C30.9251 9.80288 30.2845 9.89432 29.4958 10.1225L29.2248 8.89103ZM13.9675 5.92773V7.38651H17.6151V16.7515H19.3409V7.38651H22.9885V5.92773H13.9675ZM26.9318 8.59375C27.2526 8.59375 27.8194 8.6164 28.3369 8.8215L27.9674 10.0747C27.5729 9.98374 27.2772 9.93801 26.8334 9.93801C25.5272 9.93801 24.6401 10.6217 24.6401 12.3309V16.7516H23.0132V8.66212H24.5905V9.55003H24.6643C25.1331 8.93559 26.0197 8.59375 26.9318 8.59375ZM73.6131 8.84457C73.0955 8.6399 72.5287 8.59375 72.208 8.59375C71.2963 8.59375 70.3104 8.93559 69.8429 9.55131H69.7678V8.66212H68.1909V16.7516H69.8179V12.3313C69.8179 10.6221 70.8034 9.93887 72.1096 9.93887C72.5533 9.93887 72.849 9.98374 73.2436 10.0752L73.6131 8.84457ZM100.592 12.7192C100.592 14.4053 101.676 15.5679 103.254 15.5679C104.191 15.5679 105.029 15.2261 105.669 14.6104L106.656 15.4995C105.867 16.3883 104.561 16.8891 103.081 16.8891C100.617 16.8891 98.8916 15.2261 98.8916 12.7192C98.8916 10.2806 100.691 8.50391 103.032 8.50391C105.743 8.50391 107 10.3494 107 12.6739C107 12.8337 107 12.9243 106.976 13.2439H101.732L102.299 12.0133H105.325C105.275 11.1698 104.807 9.80202 103.057 9.80202C101.529 9.80202 100.592 11.1471 100.592 12.7192ZM50.0765 12.0816C48.8195 11.9218 48.08 11.6936 48.08 10.919C48.08 10.2127 48.8194 9.7798 49.7316 9.7798C50.4706 9.7798 51.4073 10.0537 51.9982 10.4639L52.7873 9.3696C52.0483 8.79959 50.8651 8.50391 49.7557 8.50391C47.8581 8.50391 46.453 9.57513 46.453 10.9873C46.453 12.6059 47.5624 13.1298 49.4359 13.4032L49.5182 13.4156C50.5424 13.5691 51.4073 13.6986 51.4073 14.5198C51.4073 15.2261 50.6674 15.6136 49.6824 15.6136C48.721 15.6136 47.8581 15.3628 47.0198 14.7475L46.3054 15.955C46.9214 16.4793 48.2035 16.8895 49.6327 16.8895C51.6046 16.8895 53.0338 15.8187 53.0338 14.383C53.0338 12.6512 51.5554 12.2641 50.0765 12.0816ZM93.0879 10.9229C93.0879 11.6976 93.8273 11.9257 95.0843 12.0855C96.5632 12.2676 98.0417 12.6551 98.0417 14.3869C98.0417 15.8222 96.6124 16.8934 94.641 16.8934C93.2109 16.8934 91.9297 16.4832 91.3142 15.9594L92.0281 14.751C92.8665 15.3667 93.7289 15.6175 94.6902 15.6175C95.6762 15.6175 96.4156 15.2296 96.4156 14.5232C96.4156 13.7028 95.5518 13.5732 94.5284 13.4195C94.5002 13.4153 94.4718 13.411 94.4433 13.4067C92.5708 13.1333 91.4618 12.6094 91.4618 10.9912C91.4618 9.57861 92.8665 8.50781 94.7641 8.50781C95.8735 8.50781 97.0562 8.8035 97.7956 9.37308L97.0065 10.4678C96.4156 10.0576 95.4784 9.78371 94.7399 9.78371C93.8273 9.78371 93.0879 10.2166 93.0879 10.9229Z" fill="#191B20"/>
</svg>
