<svg width="46" height="47" viewBox="0 0 46 47" fill="none" xmlns="http://www.w3.org/2000/svg">
	<path d="M0 14.373C0 6.64106 6.26801 0.373047 14 0.373047H32C39.732 0.373047 46 6.64106 46 14.373V32.373C46 40.105 39.732 46.373 32 46.373H14C6.26801 46.373 0 40.105 0 32.373V14.373Z" fill="#FFFB1F"/>
	<path d="M28.4943 23.8163C28.0761 23.2756 27.4451 22.9041 26.6012 22.7023C27.6758 22.1541 28.1481 21.2238 28.0184 19.9111C27.9751 19.4351 27.8435 19.0226 27.6235 18.6729C27.4032 18.3232 27.1061 18.042 26.7308 17.8293C26.3559 17.6163 25.9481 17.4542 25.5084 17.3424C25.0686 17.2307 24.5636 17.1495 23.9939 17.0991V14.373H22.3282V17.0233C22.0397 17.0233 21.5998 17.0305 21.0085 17.045V14.373H19.3426V17.0991C19.1045 17.1063 18.7548 17.11 18.2933 17.11L16 17.0991V18.8732H17.2007C17.7488 18.8732 18.0697 19.1184 18.1634 19.6088V22.7134C18.2356 22.7134 18.2933 22.7172 18.3366 22.7244H18.1634V27.0728C18.1058 27.4405 17.8967 27.6246 17.5361 27.6246H16.3355L16.0001 29.6042H18.1636C18.3006 29.6042 18.4988 29.606 18.7586 29.6093C19.0181 29.6129 19.2128 29.6147 19.3426 29.6147V32.3732H21.0089V29.6472C21.3117 29.6546 21.7516 29.6581 22.3285 29.6581V32.3732H23.9943V29.6147C24.5858 29.5859 25.1104 29.5321 25.5681 29.4525C26.0261 29.3729 26.4643 29.2487 26.8825 29.0791C27.3006 28.9098 27.6503 28.6987 27.9315 28.4463C28.2129 28.1941 28.4453 27.873 28.6295 27.4835C28.8131 27.094 28.9304 26.6433 28.9807 26.1312C29.0749 25.129 28.9126 24.3573 28.4943 23.8163ZM21.0409 18.9918C21.0914 18.9918 21.2338 18.99 21.4682 18.9864C21.7027 18.9827 21.8974 18.9791 22.0524 18.9755C22.2075 18.9719 22.4166 18.9809 22.68 19.0026C22.9432 19.0242 23.1649 19.0531 23.3451 19.0891C23.5254 19.1251 23.7239 19.1846 23.94 19.2676C24.1566 19.3504 24.3295 19.4514 24.4592 19.5704C24.5891 19.6894 24.699 19.8409 24.789 20.0248C24.8793 20.2087 24.9244 20.4196 24.9244 20.6576C24.9244 20.8595 24.892 21.0435 24.8272 21.2094C24.7624 21.3752 24.6648 21.5141 24.5352 21.6259C24.4055 21.7377 24.2718 21.8351 24.1348 21.918C23.9979 22.0009 23.8228 22.0676 23.6102 22.1181C23.3975 22.1686 23.2118 22.2082 23.0533 22.237C22.8946 22.2659 22.6963 22.2858 22.4583 22.2965C22.2202 22.3073 22.0399 22.3147 21.9174 22.3182C21.7947 22.3218 21.6271 22.3218 21.4143 22.3182C21.2014 22.3147 21.0772 22.3128 21.041 22.3128V18.9918H21.0409V18.9918ZM25.5899 26.3585C25.5212 26.5244 25.433 26.6687 25.3249 26.7914C25.2166 26.9138 25.0741 27.0221 24.8975 27.1157C24.7209 27.2096 24.5495 27.2852 24.3837 27.3429C24.2178 27.4008 24.0176 27.451 23.7834 27.4944C23.5487 27.5377 23.3433 27.5682 23.1665 27.5864C22.9899 27.6044 22.779 27.6188 22.5337 27.6297C22.2886 27.6403 22.0974 27.6458 21.9604 27.6458C21.8234 27.6458 21.6503 27.6438 21.4411 27.6403C21.2319 27.6369 21.0986 27.6351 21.0408 27.6351V23.9787C21.0985 23.9787 21.2698 23.9751 21.5547 23.9678C21.8397 23.9605 22.0721 23.9571 22.2524 23.9571C22.4327 23.9571 22.6816 23.9678 22.999 23.9896C23.3161 24.0111 23.583 24.0434 23.7995 24.0866C24.0158 24.13 24.2518 24.1966 24.508 24.2869C24.764 24.3769 24.9714 24.4869 25.1301 24.6167C25.2888 24.7467 25.4221 24.9124 25.5303 25.1143C25.6387 25.3162 25.6927 25.547 25.6927 25.8067C25.6927 26.0089 25.6585 26.1925 25.5899 26.3585Z" fill="#191B20"/>
</svg>
