<svg width="46" height="47" viewBox="0 0 46 47" fill="none" xmlns="http://www.w3.org/2000/svg">
	<path d="M0 14.373C0 6.64106 6.26801 0.373047 14 0.373047H32C39.732 0.373047 46 6.64106 46 14.373V32.373C46 40.105 39.732 46.373 32 46.373H14C6.26801 46.373 0 40.105 0 32.373V14.373Z" fill="#0285FD"/>
	<path fill-rule="evenodd" clip-rule="evenodd" d="M23.2803 12.373V20.7046L30.5603 23.8513L23.2803 12.373ZM23.2803 29.2699V35.3293L30.5603 24.8945L23.2803 29.2699ZM23.28 28.0251L16 23.8963L23.28 20.7207V28.0251Z" fill="white"/>
	<path fill-rule="evenodd" clip-rule="evenodd" d="M16 23.8513L23.28 12.373V20.7046L16 23.8513ZM23.28 29.2689V35.3293L16 24.8945L23.28 29.2689Z" fill="white"/>
	<path d="M23.2803 28.0251L30.5603 23.8963L23.2803 20.7207V28.0251Z" fill="white"/>
</svg>
