<svg width="46" height="47" viewBox="0 0 46 47" fill="none" xmlns="http://www.w3.org/2000/svg">
	<path d="M0 14.373C0 6.64106 6.26801 0.373047 14 0.373047H32C39.732 0.373047 46 6.64106 46 14.373V32.373C46 40.105 39.732 46.373 32 46.373H14C6.26801 46.373 0 40.105 0 32.373V14.373Z" fill="#28D180"/>
	<path fill-rule="evenodd" clip-rule="evenodd" d="M25.4329 24.049C25.3249 24.0574 24.7672 24.0916 23.5229 24.0916C22.5333 24.0916 21.8306 24.061 21.5842 24.049C17.7597 23.876 14.9051 23.1912 14.9051 22.3714C14.9051 21.5516 17.7597 20.8678 21.5842 20.692V23.367C21.8342 23.3855 22.5504 23.4291 23.54 23.4291C24.7276 23.4291 25.3223 23.3781 25.4293 23.368V20.6938C29.2457 20.8687 32.094 21.5535 32.094 22.3714C32.094 23.1893 29.2466 23.8741 25.4293 24.048L25.4329 24.049ZM25.4329 20.4171V18.0233H30.759V14.373H16.2582V18.0233H21.5832V20.4162C17.255 20.6207 14 21.5025 14 22.5592C14 23.6159 17.255 24.4969 21.5832 24.7023V32.373H25.432V24.6994C29.7504 24.495 33 23.6141 33 22.5583C33 21.5025 29.7531 20.6217 25.432 20.4162L25.4329 20.4171Z" fill="white"/>
</svg>
