<svg width="35" height="35" viewBox="0 0 35 35" fill="none" xmlns="http://www.w3.org/2000/svg">
	<circle cx="17.5" cy="17.5" r="17.5" fill="#FFFB1F"/>
	<path d="M12 16.5C11.4477 16.5 11 16.9477 11 17.5C11 18.0523 11.4477 18.5 12 18.5L12 16.5ZM23.7071 18.2071C24.0976 17.8166 24.0976 17.1834 23.7071 16.7929L17.3431 10.4289C16.9526 10.0384 16.3195 10.0384 15.9289 10.4289C15.5384 10.8195 15.5384 11.4526 15.9289 11.8431L21.5858 17.5L15.9289 23.1569C15.5384 23.5474 15.5384 24.1805 15.9289 24.5711C16.3195 24.9616 16.9526 24.9616 17.3431 24.5711L23.7071 18.2071ZM12 18.5L23 18.5L23 16.5L12 16.5L12 18.5Z" fill="#191B20"/>
</svg>
