<svg width="24" height="24" viewBox="0 0 24 24" fill="none" xmlns="http://www.w3.org/2000/svg">
	<path d="M12.0008 14C11.8031 14 11.6097 14.0586 11.4453 14.1685C11.2808 14.2784 11.1527 14.4346 11.077 14.6173C11.0013 14.8 10.9815 15.0011 11.0201 15.1951C11.0586 15.3891 11.1539 15.5673 11.2937 15.7071C11.4336 15.847 11.6118 15.9422 11.8058 15.9808C11.9997 16.0194 12.2008 15.9996 12.3835 15.9239C12.5663 15.8482 12.7224 15.72 12.8323 15.5556C12.9422 15.3911 13.0008 15.1978 13.0008 15C13.0008 14.7348 12.8955 14.4804 12.7079 14.2929C12.5204 14.1054 12.2661 14 12.0008 14ZM12.0008 2C10.6876 2 9.38726 2.25866 8.17401 2.7612C6.96075 3.26375 5.85836 4.00035 4.92977 4.92893C3.05441 6.8043 2.00084 9.34784 2.00084 12C1.9921 14.3091 2.79164 16.5485 4.26084 18.33L2.26084 20.33C2.12208 20.4706 2.02809 20.6492 1.99071 20.8432C1.95334 21.0372 1.97426 21.2379 2.05084 21.42C2.1339 21.5999 2.26855 21.7511 2.43769 21.8544C2.60683 21.9577 2.80284 22.0083 3.00084 22H12.0008C14.653 22 17.1965 20.9464 19.0719 19.0711C20.9473 17.1957 22.0008 14.6522 22.0008 12C22.0008 9.34784 20.9473 6.8043 19.0719 4.92893C17.1965 3.05357 14.653 2 12.0008 2ZM12.0008 20H5.41084L6.34084 19.07C6.43533 18.9774 6.5105 18.8669 6.562 18.7451C6.61349 18.6232 6.64029 18.4923 6.64084 18.36C6.63709 18.0962 6.52926 17.8446 6.34084 17.66C5.03143 16.352 4.21602 14.6305 4.03353 12.7888C3.85105 10.947 4.31279 9.09901 5.34007 7.55952C6.36735 6.02004 7.89663 4.88436 9.66736 4.34597C11.4381 3.80759 13.3407 3.8998 15.0511 4.60691C16.7614 5.31402 18.1737 6.59227 19.0473 8.22389C19.9209 9.85551 20.2017 11.7395 19.842 13.555C19.4822 15.3705 18.5042 17.005 17.0744 18.1802C15.6446 19.3554 13.8516 19.9985 12.0008 20ZM12.0008 8C11.7356 8 11.4813 8.10536 11.2937 8.29289C11.1062 8.48043 11.0008 8.73478 11.0008 9V12C11.0008 12.2652 11.1062 12.5196 11.2937 12.7071C11.4813 12.8946 11.7356 13 12.0008 13C12.2661 13 12.5204 12.8946 12.7079 12.7071C12.8955 12.5196 13.0008 12.2652 13.0008 12V9C13.0008 8.73478 12.8955 8.48043 12.7079 8.29289C12.5204 8.10536 12.2661 8 12.0008 8Z" fill="white"/>
</svg>
