<svg width="111" height="30" viewBox="0 0 111 30" fill="none" xmlns="http://www.w3.org/2000/svg">
	<g clip-path="url(#clip0_11755_81008)">
		<path fill-rule="evenodd" clip-rule="evenodd" d="M24.4327 9.60938C24.4327 25.636 12.2164 29.9997 12.2164 29.9997C12.2164 29.9997 0 25.636 0 9.60938V3.84044C0 3.20813 0.46843 2.70071 1.05583 2.65388C3.27158 2.54458 8.53584 2.0762 12.2164 -0.000305176C15.9043 2.0762 21.1611 2.54458 23.3769 2.66168C23.9643 2.70071 24.4327 3.20813 24.4327 3.84044V9.60938ZM13.7629 9.18783C15.5771 9.36738 17.0048 9.96846 17.1535 11.7171C17.265 12.9973 16.752 13.7624 15.9341 14.1995C17.2798 14.543 18.1127 15.3861 17.9342 17.2675C17.7111 19.5937 16.0457 20.2105 13.6811 20.3354L13.6886 22.7788H12.2685L12.2758 20.3587C11.9115 20.351 11.5397 20.3432 11.1531 20.3354L11.1382 22.7788L9.74038 22.771L9.73294 20.312C9.40579 20.312 7.17517 20.3197 7.17517 20.3197L7.19004 18.5399L8.76634 18.5321L8.77378 10.7257H6.97442V9.17222C6.97442 9.17222 9.50989 9.17222 9.81473 9.16441L9.8073 6.73662L11.2275 6.72881V9.12537C11.6066 9.11757 12.0006 9.11757 12.3724 9.11757L12.3651 6.75223L13.7704 6.74442L13.7629 9.18783ZM11.4861 18.5526C12.6338 18.5786 15.1396 18.6351 15.1534 16.9474C15.1668 15.2278 12.7458 15.2689 11.5599 15.289C11.4268 15.2913 11.3094 15.2932 11.2125 15.2924L11.22 18.5477C11.2967 18.5483 11.3863 18.5503 11.4861 18.5526ZM11.4779 13.814C12.4267 13.8388 14.5151 13.8934 14.5288 12.3573C14.5355 10.781 12.488 10.8304 11.5156 10.8538C11.4141 10.8562 11.3243 10.8584 11.2498 10.8584L11.2572 13.8093C11.3207 13.8098 11.395 13.8118 11.4779 13.814Z" fill="#00AEEF"/>
		<path d="M48.7253 19.8827C48.7253 21.1631 48.4874 22.2326 48.0042 23.0991C47.5208 23.9655 46.8814 24.6681 46.0857 25.1911C45.2902 25.722 44.383 26.0967 43.3645 26.3309C42.3458 26.5651 41.3048 26.6744 40.2342 26.6744H31.3711V3.31763H40.2342C41.0967 3.31763 41.974 3.41131 42.8737 3.59866C43.7734 3.78601 44.5913 4.10607 45.3274 4.55884C46.0634 5.01161 46.6583 5.62051 47.1194 6.39334C47.5803 7.16618 47.8109 8.14198 47.8109 9.32855C47.8109 10.6244 47.4762 11.7017 46.807 12.5447C46.1378 13.3957 45.253 14.0046 44.1674 14.3792V14.4418C44.7995 14.5511 45.3869 14.754 45.9445 15.0507C46.5021 15.3473 46.9855 15.7298 47.387 16.1903C47.7959 16.6509 48.1231 17.1896 48.361 17.8063C48.6064 18.423 48.7253 19.1177 48.7253 19.8827ZM42.6284 10.0858C42.6284 9.29733 42.3383 8.71966 41.7659 8.35276C41.1858 7.98586 40.3382 7.80631 39.2005 7.80631H36.5611V12.6229H39.4534C40.4572 12.6229 41.2379 12.4121 41.7955 11.9827C42.3532 11.5534 42.6284 10.9211 42.6284 10.0858ZM43.3495 19.3598C43.3495 18.3917 43.0075 17.7204 42.3085 17.3457C41.6171 16.971 40.6951 16.7836 39.5427 16.7836H36.5536V22.131H39.5723C39.9888 22.131 40.4275 22.092 40.8736 22.0139C41.3271 21.9359 41.7361 21.8032 42.1004 21.6002C42.4647 21.405 42.7621 21.1241 42.9927 20.7571C43.238 20.3981 43.3495 19.9296 43.3495 19.3598Z" fill="white"/>
		<path d="M55.8701 5.00409C55.8701 5.42564 55.7884 5.81596 55.6322 6.17505C55.476 6.54195 55.2679 6.85421 55.0001 7.11182C54.7399 7.37724 54.4202 7.58802 54.0559 7.73633C53.6916 7.89246 53.3049 7.97053 52.9108 7.97053C52.0706 7.97053 51.3717 7.68169 50.8065 7.09621C50.2415 6.51073 49.959 5.81596 49.959 5.00409C49.959 4.60597 50.0333 4.23126 50.182 3.86436C50.3307 3.49746 50.5389 3.1852 50.814 2.92759C51.0891 2.66217 51.4014 2.45139 51.7583 2.28747C52.1152 2.12353 52.5019 2.03766 52.9183 2.03766C53.3198 2.03766 53.6989 2.11573 54.0633 2.27185C54.4277 2.42798 54.7474 2.63094 55.0076 2.89636C55.2679 3.16178 55.476 3.47404 55.6397 3.83314C55.7957 4.19222 55.8701 4.58255 55.8701 5.00409ZM50.3381 26.6824V10.25H55.4909V26.6824H50.3381Z" fill="white"/>
		<path d="M64.836 14.2779V20.5698C64.836 21.3427 64.9772 21.9204 65.2597 22.3106C65.5423 22.701 66.048 22.8884 66.7841 22.8884C67.0368 22.8884 67.3046 22.865 67.5871 22.826C67.8696 22.7791 68.1075 22.7166 68.2935 22.6307L68.3529 26.5886C67.9961 26.7213 67.5499 26.8383 66.9997 26.932C66.4569 27.0336 65.9066 27.0804 65.3639 27.0804C64.3155 27.0804 63.4381 26.9399 62.7243 26.6666C62.0105 26.3934 61.4379 25.9953 61.0142 25.4723C60.5829 24.9571 60.278 24.3325 60.0847 23.6221C59.8989 22.904 59.8022 22.1077 59.8022 21.2256V14.2779H57.2891V10.2498H59.7725V5.92505H64.836V10.2498H68.5164V14.2779H64.836Z" fill="white"/>
		<path d="M87.1732 26.7135C85.7158 27.0882 84.1321 27.2756 82.4071 27.2756C80.6225 27.2756 78.9868 26.9789 77.4849 26.3856C75.9828 25.7924 74.6966 24.9571 73.6184 23.8798C72.5403 22.8026 71.6926 21.5067 71.0904 20C70.4806 18.4934 70.1758 16.815 70.1758 14.9649C70.1758 13.0913 70.4881 11.3974 71.1052 9.88292C71.7224 8.36847 72.5774 7.07261 73.6705 6.00314C74.756 4.93366 76.0349 4.11399 77.5072 3.54413C78.9719 2.97426 80.5556 2.68542 82.2509 2.68542C84.0131 2.68542 85.6489 2.96646 87.1583 3.52852C88.6677 4.09058 89.8946 4.83999 90.8388 5.79236L87.4408 9.8517C86.9129 9.21157 86.2214 8.68854 85.3664 8.28261C84.5039 7.87668 83.5299 7.67371 82.4443 7.67371C81.5 7.67371 80.63 7.85326 79.8344 8.22016C79.0389 8.57925 78.3474 9.08667 77.7599 9.7346C77.1725 10.3825 76.719 11.1554 76.3918 12.0453C76.0647 12.9352 75.9011 13.911 75.9011 14.9649C75.9011 16.0422 76.0498 17.0336 76.3398 17.9391C76.6297 18.8446 77.0684 19.6175 77.641 20.2655C78.2135 20.9134 78.9273 21.4208 79.775 21.7799C80.6225 22.1468 81.5892 22.3264 82.6822 22.3264C83.3142 22.3264 83.909 22.2795 84.4741 22.178C85.0392 22.0766 85.5671 21.9204 86.043 21.7018V17.4473H81.7974V12.8962H90.98V25.2694C89.9019 25.8548 88.6305 26.3389 87.1732 26.7135Z" fill="white"/>
		<path d="M110.372 18.3997C110.372 19.7424 110.142 20.9602 109.681 22.0453C109.22 23.1382 108.588 24.0593 107.792 24.8166C106.997 25.5738 106.075 26.1671 105.026 26.5808C103.978 27.0023 102.855 27.2053 101.665 27.2053C100.491 27.2053 99.3753 26.9946 98.3195 26.5808C97.2636 26.1593 96.3416 25.5738 95.5535 24.8166C94.7653 24.0593 94.1407 23.1304 93.6798 22.0453C93.2187 20.9524 92.9883 19.7424 92.9883 18.3997C92.9883 17.057 93.2187 15.8471 93.6798 14.7697C94.1407 13.6925 94.7653 12.7791 95.5535 12.0297C96.3416 11.2803 97.2636 10.7104 98.3195 10.3123C99.3753 9.91416 100.491 9.71899 101.665 9.71899C102.862 9.71899 103.978 9.91416 105.026 10.3123C106.075 10.7104 106.997 11.2803 107.792 12.0297C108.588 12.7791 109.22 13.6925 109.681 14.7697C110.142 15.8471 110.372 17.057 110.372 18.3997ZM105.405 18.3997C105.405 17.8688 105.324 17.3536 105.153 16.8463C104.982 16.3388 104.744 15.8939 104.431 15.5113C104.119 15.1288 103.732 14.8166 103.271 14.5746C102.81 14.3325 102.275 14.2155 101.665 14.2155C101.056 14.2155 100.52 14.3404 100.059 14.5746C99.5984 14.8166 99.2191 15.1288 98.9143 15.5113C98.6094 15.8939 98.3789 16.3388 98.2228 16.8463C98.0667 17.3536 97.9848 17.8688 97.9848 18.3997C97.9848 18.9306 98.0667 19.4458 98.2228 19.9531C98.3789 20.4606 98.6169 20.9134 98.9292 21.3193C99.2414 21.7252 99.6281 22.0531 100.089 22.2951C100.55 22.5371 101.085 22.662 101.695 22.662C102.305 22.662 102.84 22.5449 103.301 22.2951C103.762 22.0531 104.149 21.7252 104.461 21.3193C104.773 20.9134 105.011 20.4528 105.167 19.9531C105.331 19.4458 105.405 18.9306 105.405 18.3997Z" fill="white"/>
	</g>
	<defs>
		<clipPath id="clip0_11755_81008">
			<rect width="111" height="30" fill="white"/>
		</clipPath>
	</defs>
</svg>
