<svg width="120" height="29" viewBox="0 0 120 29" fill="none" xmlns="http://www.w3.org/2000/svg">
	<circle cx="14.5" cy="14.5" r="13.8" fill="#1BA27A" stroke="#272A32" stroke-width="0.599955"/>
	<path d="M19.1221 8.04674H9.76953V10.6057H13.3169V14.3669H15.5748V10.6057H19.1221V8.04674Z" fill="white"/>
	<path fill-rule="evenodd" clip-rule="evenodd" d="M14.4683 12.2718C17.7634 12.2718 20.4346 12.9505 20.4346 13.7878C20.4346 14.529 18.3416 15.1459 15.5757 15.2778V20.675H13.318V15.2756C10.5733 15.1395 8.50195 14.5252 8.50195 13.7878C8.50195 12.9505 11.1733 12.2718 14.4683 12.2718ZM9.15447 13.5918C9.15447 14.2412 11.5336 14.7675 14.468 14.7675C17.4025 14.7675 19.7815 14.2412 19.7815 13.5918C19.7815 12.9426 17.4025 12.4161 14.468 12.4161C11.5335 12.4161 9.15447 12.9426 9.15447 13.5918Z" fill="white"/>
	<circle cx="37.5" cy="14.5" r="13.8" fill="#005FBB" stroke="#272A32" stroke-width="0.599955"/>
	<path d="M34.9688 23.8867C34.9688 24.2031 34.7156 24.3824 34.4203 24.2875C30.3281 22.9797 27.375 19.1617 27.375 14.6371C27.375 10.1231 30.3281 6.29454 34.4203 4.98672C34.7262 4.8918 34.9688 5.0711 34.9688 5.3875V6.17852C34.9688 6.38946 34.8105 6.63204 34.6102 6.70586C31.3723 7.89766 29.0625 11.009 29.0625 14.6371C29.0625 18.2758 31.3723 21.3766 34.6102 22.5578C34.8105 22.6316 34.9688 22.8742 34.9688 23.0852V23.8867Z" fill="white"/>
	<path d="M38.3442 20.9652C38.3442 21.1973 38.1543 21.3871 37.9223 21.3871H37.0786C36.8465 21.3871 36.6567 21.1973 36.6567 20.9652V19.6363C34.811 19.3832 33.9145 18.3602 33.6719 16.9469C33.6297 16.7043 33.8196 16.4934 34.0621 16.4934H35.0219C35.2223 16.4934 35.3911 16.641 35.4332 16.8309C35.6125 17.6641 36.0977 18.3074 37.5743 18.3074C38.6606 18.3074 39.4411 17.6957 39.4411 16.7887C39.4411 15.8816 38.9875 15.5336 37.3844 15.2699C35.0219 14.9535 33.9039 14.2363 33.9039 12.3906C33.9039 10.9668 34.9903 9.84883 36.6567 9.6168V8.30899C36.6567 8.07696 36.8465 7.88712 37.0786 7.88712H37.9223C38.1543 7.88712 38.3442 8.07696 38.3442 8.30899V9.64844C39.7047 9.89102 40.5696 10.6609 40.8543 11.9477C40.9071 12.1902 40.7172 12.4117 40.4641 12.4117H39.5782C39.3883 12.4117 39.2301 12.2852 39.1774 12.1059C38.9348 11.2938 38.3547 10.9352 37.3422 10.9352C36.2243 10.9352 35.6442 11.4731 35.6442 12.2324C35.6442 13.034 35.9711 13.4348 37.6903 13.6774C40.0106 13.9938 41.2129 14.6582 41.2129 16.6305C41.2129 18.1281 40.095 19.341 38.3547 19.6152V20.9652H38.3442Z" fill="white"/>
	<path d="M40.5797 24.2875C40.2738 24.3824 40.0312 24.2031 40.0312 23.8867V23.0957C40.0312 22.8637 40.1684 22.6422 40.3898 22.5684C43.6172 21.3871 45.9375 18.2758 45.9375 14.6477C45.9375 11.009 43.6277 7.9082 40.3898 6.72695C40.1895 6.65312 40.0312 6.41055 40.0312 6.19961V5.40859C40.0312 5.09219 40.2844 4.91289 40.5797 5.00781C44.6719 6.29453 47.625 10.123 47.625 14.6371C47.625 19.1617 44.6719 22.9797 40.5797 24.2875Z" fill="white"/>
	<circle cx="60.0957" cy="14.5" r="13.8" fill="#F0B90B" stroke="#272A32" stroke-width="0.599955"/>
	<path d="M60.4413 7L62.3842 8.9838L57.4918 13.8616L55.5488 11.9245L60.4413 7Z" fill="white" stroke="white" stroke-width="0.299977"/>
	<path d="M63.3908 9.94063L65.3338 11.9244L57.4918 19.743L55.5488 17.8058L63.3908 9.94063Z" fill="white" stroke="white" stroke-width="0.299977"/>
	<path d="M54.5406 12.8814L56.4835 14.8652L54.5406 16.8023L52.5977 14.8652L54.5406 12.8814Z" fill="white" stroke="white" stroke-width="0.299977"/>
	<path d="M66.3361 12.8814L68.2791 14.8652L60.4371 22.6837L58.4941 20.7466L66.3361 12.8814Z" fill="white" stroke="white" stroke-width="0.299977"/>
	<circle cx="83.5" cy="14.5" r="13.5" fill="#FF8724" stroke="#272A32" stroke-width="0.599955"/>
	<path fill-rule="evenodd" clip-rule="evenodd" d="M87.9706 13.1772C88.1735 11.7587 87.141 10.9961 85.7291 10.4874L86.1871 8.56584L85.0689 8.27434L84.6231 10.1453C84.3291 10.0687 84.0272 9.99636 83.7272 9.92473L84.1762 8.04147L83.0587 7.74997L82.6004 9.67088C82.3571 9.61291 82.1182 9.55561 81.8863 9.49531L81.8876 9.48932L80.3455 9.08654L80.0481 10.3358C80.0481 10.3358 80.8777 10.5347 80.8602 10.547C81.3131 10.6653 81.3949 10.9788 81.3812 11.2273L80.8596 13.4164C80.8908 13.4247 80.9312 13.4367 80.9758 13.4554L80.9379 13.4455C80.912 13.4387 80.8851 13.4316 80.8576 13.4247L80.1264 16.4913C80.071 16.6353 79.9305 16.8511 79.614 16.7692C79.6251 16.7862 78.8012 16.557 78.8012 16.557L78.2461 17.8959L79.7012 18.2753C79.8637 18.3179 80.0242 18.3617 80.183 18.405L80.1832 18.4051L80.1835 18.4051C80.2892 18.434 80.3941 18.4626 80.4984 18.4905L80.0356 20.4341L81.1526 20.7256L81.6109 18.8027C81.916 18.8893 82.2121 18.9693 82.502 19.0446L82.0453 20.9585L83.1635 21.25L83.6262 19.3101C85.533 19.6875 86.9668 19.5353 87.5703 17.7313C88.0566 16.2788 87.5461 15.4409 86.5429 14.8946C87.2735 14.7183 87.8238 14.2156 87.9706 13.1772ZM85.7058 16.6303C85.364 17.9793 83.2139 17.4216 82.2301 17.1664C82.1416 17.1435 82.0625 17.123 81.995 17.1065L82.6571 14.5C82.7392 14.5201 82.8396 14.5422 82.9533 14.5673L82.9533 14.5673C83.9708 14.7915 86.0561 15.251 85.7058 16.6303ZM82.9352 14.1987C83.7145 14.4389 85.4146 14.9629 85.7107 13.5927C86.0131 12.1913 84.3608 11.7688 83.5538 11.5625C83.4631 11.5393 83.383 11.5188 83.3176 11.5L82.7472 14.1418C82.8011 14.1573 82.8643 14.1768 82.9352 14.1987Z" fill="white"/>
	<circle cx="105.5" cy="14.5" r="13.5" fill="#2992FA" stroke="#272A32" stroke-width="0.599955"/>
	<path fill-rule="evenodd" clip-rule="evenodd" d="M105.558 5.49998V11.7487L111.018 14.1087L105.558 5.49998ZM105.558 18.1728V22.7174L111.018 14.8913L105.558 18.1728ZM105.558 17.2391L100.098 14.1425L105.558 11.7609V17.2391Z" fill="white" fill-opacity="0.602"/>
	<path fill-rule="evenodd" clip-rule="evenodd" d="M100.098 14.1087L105.558 5.49998V11.7487L100.098 14.1087ZM105.558 18.1721V22.7174L100.098 14.8913L105.558 18.1721Z" fill="white"/>
	<path d="M105.557 17.2391L111.017 14.1425L105.557 11.7609V17.2391Z" fill="white" fill-opacity="0.2"/>
</svg>
