<svg width="60" height="39" viewBox="0 0 60 39" fill="none" xmlns="http://www.w3.org/2000/svg">
	<rect width="60" height="39" rx="5" fill="#0285FD"/>
	<path d="M29.5039 7L30.1688 9.04625H32.3202L30.5796 10.3109L31.2445 12.3571L29.5039 11.0924L27.7632 12.3571L28.4281 10.3109L26.6875 9.04625H28.839L29.5039 7Z" fill="#191B20"/>
	<path d="M20.6616 10.6617L22.5788 11.6384L24.1001 10.1172L23.7634 12.2421L25.6805 13.2189L23.5555 13.5555L23.2189 15.6806L22.2421 13.7635L20.1172 14.1002L21.6385 12.5789L20.6616 10.6617Z" fill="#191B20"/>
	<path d="M17 19.4988L19.0462 18.8339V16.6824L20.3108 18.4231L22.3571 17.7582L21.0923 19.4988L22.3571 21.2394L20.3108 20.5746L19.0462 22.3152V20.1637L17 19.4988Z" fill="#191B20"/>
	<path d="M20.6616 28.3391L21.6384 26.422L20.1172 24.9007L22.2422 25.2374L23.2188 23.3203L23.5555 25.4453L25.6805 25.7819L23.7636 26.7587L24.1001 28.8837L22.5788 27.3623L20.6616 28.3391Z" fill="#191B20"/>
	<path d="M29.5039 31.9988L28.8389 29.9525H26.6875L28.4282 28.6879L27.7632 26.6418L29.5039 27.9064L31.2445 26.6418L30.5796 28.6879L32.3202 29.9525H30.1687L29.5039 31.9988Z" fill="#191B20"/>
	<path d="M38.3391 28.3391L36.422 27.3624L34.9006 28.8837L35.2373 26.7586L33.3203 25.7819L35.4453 25.4453L35.7818 23.3203L36.7586 25.2374L38.8835 24.9007L37.3622 26.4221L38.3391 28.3391Z" fill="#191B20"/>
	<path d="M41.9995 19.4988L39.9533 20.1637V22.3152L38.6887 20.5745L36.6426 21.2394L37.9072 19.4988L36.6426 17.7582L38.6887 18.4231L39.9533 16.6824V18.8339L41.9995 19.4988Z" fill="#191B20"/>
	<path d="M38.3391 10.6616L37.3623 12.5788L38.8836 14.1001L36.7585 13.7634L35.7818 15.6805L35.4453 13.5554L33.3203 13.2188L35.2373 12.242L34.9006 10.1172L36.422 11.6384L38.3391 10.6616Z" fill="#191B20"/>
</svg>
