<svg width="21" height="20" viewBox="0 0 21 20" fill="none" xmlns="http://www.w3.org/2000/svg">
	<path d="M19.9995 7.67002C19.9363 7.48711 19.8215 7.32645 19.6688 7.20753C19.5162 7.0886 19.3323 7.01652 19.1395 7.00002L13.4495 6.17002L10.8995 1.00002C10.8176 0.830952 10.6898 0.688365 10.5306 0.588597C10.3714 0.488828 10.1873 0.435913 9.99949 0.435913C9.81163 0.435913 9.62757 0.488828 9.4684 0.588597C9.30923 0.688365 9.18137 0.830952 9.09949 1.00002L6.54949 6.16002L0.859489 7.00002C0.674412 7.02633 0.500413 7.10399 0.357239 7.22418C0.214065 7.34438 0.107449 7.5023 0.0494892 7.68002C-0.00356587 7.8537 -0.00832693 8.03854 0.0357169 8.21472C0.0797607 8.39089 0.170947 8.55175 0.299489 8.68002L4.42949 12.68L3.42949 18.36C3.39379 18.5475 3.41248 18.7413 3.48336 18.9185C3.55424 19.0957 3.67434 19.2489 3.82949 19.36C3.98071 19.4681 4.15906 19.5319 4.34454 19.5443C4.53001 19.5567 4.71526 19.5171 4.87949 19.43L9.99949 16.76L15.0995 19.44C15.2398 19.5192 15.3983 19.5606 15.5595 19.56C15.7713 19.5608 15.9779 19.4942 16.1495 19.37C16.3046 19.2589 16.4247 19.1057 16.4956 18.9285C16.5665 18.7513 16.5852 18.5575 16.5495 18.37L15.5495 12.69L19.6795 8.69002C19.8239 8.5677 19.9306 8.40693 19.9872 8.22637C20.0439 8.04582 20.0481 7.8529 19.9995 7.67002ZM13.8495 11.67C13.7322 11.7835 13.6445 11.9239 13.5939 12.079C13.5434 12.2341 13.5316 12.3993 13.5595 12.56L14.2795 16.75L10.5195 14.75C10.3748 14.673 10.2134 14.6327 10.0495 14.6327C9.88557 14.6327 9.72417 14.673 9.57949 14.75L5.81949 16.75L6.53949 12.56C6.56742 12.3993 6.5556 12.2341 6.50505 12.079C6.45451 11.9239 6.36677 11.7835 6.24949 11.67L3.24949 8.67002L7.45949 8.06002C7.62149 8.03749 7.77549 7.97556 7.90799 7.87967C8.04049 7.78379 8.14745 7.65686 8.21949 7.51002L9.99949 3.70002L11.8795 7.52002C11.9515 7.66686 12.0585 7.79379 12.191 7.88968C12.3235 7.98556 12.4775 8.04749 12.6395 8.07002L16.8495 8.68002L13.8495 11.67Z" fill="white"/>
</svg>
