<svg width="12" height="13" viewBox="0 0 12 13" fill="none" xmlns="http://www.w3.org/2000/svg">
	<path d="M5.98119 5.2L10.2242 0.957001C10.6147 0.566536 11.2477 0.566535 11.6382 0.957C12.0287 1.34747 12.0287 1.98053 11.6382 2.371L7.39519 6.614L11.6382 10.857C12.0287 11.2475 12.0287 11.8805 11.6382 12.271C11.2477 12.6615 10.6147 12.6615 10.2242 12.271L5.98119 8.028L1.73819 12.271C1.34772 12.6615 0.714653 12.6615 0.324188 12.271C-0.0662779 11.8805 -0.0662777 11.2475 0.324188 10.857L4.56719 6.614L0.324188 2.371C-0.066277 1.98054 -0.0662779 1.34747 0.324188 0.957C0.714653 0.566535 1.34772 0.566535 1.73819 0.957L5.98119 5.2Z" fill="white"/>
</svg>
