<svg width="254" height="32" viewBox="0 0 254 32" fill="none" xmlns="http://www.w3.org/2000/svg">
<path d="M0 10.0355V8.79613L2.7463 8.41743L3.42479 2.90909C3.4571 2.73696 3.53249 2.59351 3.65096 2.47875C3.76942 2.36399 3.9202 2.30662 4.10329 2.30662H5.58952V8.45186H10.4359V10.724H5.58952V21.4481C5.58952 22.2055 5.76184 22.7678 6.10647 23.135C6.4511 23.4908 6.89266 23.6686 7.43115 23.6686C7.74348 23.6686 8.00734 23.6285 8.22273 23.5481C8.4489 23.4563 8.64275 23.3588 8.8043 23.2555C8.97662 23.1408 9.12201 23.0432 9.24048 22.9629C9.35894 22.8711 9.46126 22.8252 9.54741 22.8252C9.69819 22.8252 9.83281 22.9227 9.95128 23.1178L10.8236 24.6154C10.3175 25.1203 9.70358 25.5162 8.982 25.8031C8.2712 26.09 7.53346 26.2335 6.76881 26.2335C5.44413 26.2335 4.42638 25.8433 3.71558 25.0629C3.00477 24.2711 2.64937 23.135 2.64937 21.6547V10.724H0.630032C0.457716 10.724 0.306939 10.6724 0.177701 10.5691C0.0592338 10.4544 0 10.2765 0 10.0355Z" fill="#80889C"/>
<path d="M13.473 25.958V8.10758H15.1692C15.4923 8.10758 15.7131 8.1707 15.8316 8.29693C15.9501 8.42317 16.0308 8.64694 16.0739 8.96826L16.2516 11.688C16.7793 10.4716 17.4309 9.5191 18.2063 8.83055C18.9925 8.13054 19.9403 7.78053 21.0495 7.78053C21.4049 7.78053 21.7442 7.82643 22.0673 7.91824C22.4012 7.99857 22.6919 8.1248 22.9396 8.29693L22.7296 10.638C22.665 10.9363 22.4981 11.0855 22.2288 11.0855C22.0781 11.0855 21.8519 11.0511 21.5503 10.9822C21.2488 10.9019 20.9149 10.8618 20.5487 10.8618C20.021 10.8618 19.5472 10.9478 19.1271 11.12C18.7071 11.2921 18.3302 11.5388 17.9963 11.8601C17.6732 12.1815 17.3824 12.5774 17.124 13.0479C16.8763 13.5184 16.6501 14.0635 16.4455 14.6832V25.958H13.473Z" fill="#80889C"/>
<path d="M25.3628 19.4857V8.10758H28.303V19.4857C28.303 20.8399 28.5938 21.8899 29.1753 22.6358C29.7569 23.3703 30.6454 23.7375 31.8409 23.7375C32.7025 23.7375 33.5102 23.5195 34.2641 23.0834C35.0287 22.6473 35.7288 22.0448 36.3642 21.276V8.10758H39.3043V25.958H37.5596C37.1396 25.958 36.8757 25.74 36.768 25.3039L36.5257 23.376C35.7934 24.2367 34.9749 24.931 34.0702 25.4588C33.1763 25.9753 32.1424 26.2335 30.9685 26.2335C30.0531 26.2335 29.2454 26.0728 28.5453 25.7515C27.8453 25.4302 27.2583 24.9769 26.7845 24.3916C26.3106 23.8063 25.9552 23.0949 25.7182 22.2571C25.4813 21.4194 25.3628 20.4956 25.3628 19.4857Z" fill="#80889C"/>
<path d="M43.0199 16.6627C43.0199 15.4119 43.1976 14.2471 43.553 13.1684C43.9192 12.0897 44.4361 11.1544 45.1039 10.3626C45.7716 9.57074 46.5901 8.95105 47.5594 8.5035C48.5287 8.04447 49.6218 7.81495 50.8388 7.81495C51.8404 7.81495 52.7666 7.99857 53.6174 8.36579C54.479 8.72153 55.2221 9.23794 55.8467 9.91501C56.4714 10.5921 56.956 11.4298 57.3006 12.4282C57.656 13.4151 57.8337 14.5397 57.8337 15.802C57.8337 16.2955 57.7853 16.6283 57.6884 16.8004C57.5914 16.9611 57.403 17.0414 57.1229 17.0414H45.9277C45.9493 18.166 46.0893 19.1472 46.3478 19.9849C46.617 20.8227 46.9832 21.5227 47.4463 22.085C47.9094 22.6358 48.4586 23.049 49.0941 23.3244C49.7403 23.5998 50.4618 23.7375 51.2588 23.7375C52.0019 23.7375 52.6373 23.6457 53.165 23.4621C53.7035 23.2785 54.1666 23.0834 54.5543 22.8768C54.9421 22.6588 55.2652 22.4637 55.5236 22.2916C55.7821 22.1079 56.0029 22.0161 56.186 22.0161C56.4337 22.0161 56.6221 22.1137 56.7514 22.3088L57.5753 23.4621C57.2091 23.9326 56.7729 24.34 56.2667 24.6842C55.7606 25.0285 55.2167 25.3154 54.6351 25.5449C54.0643 25.763 53.4666 25.9236 52.8419 26.0269C52.2281 26.1417 51.6196 26.199 51.0165 26.199C49.8533 26.199 48.7817 25.9925 47.8017 25.5793C46.8324 25.1662 45.9924 24.558 45.2816 23.7547C44.5708 22.9399 44.0161 21.9415 43.6176 20.7595C43.2191 19.5661 43.0199 18.2005 43.0199 16.6627ZM46.0247 15.0791H55.2005C55.2005 14.3561 55.1036 13.6905 54.9097 13.0823C54.7159 12.4741 54.4305 11.9519 54.0536 11.5159C53.6874 11.0683 53.235 10.724 52.6966 10.4831C52.1688 10.2421 51.5711 10.1216 50.9034 10.1216C49.4818 10.1216 48.3617 10.5634 47.5432 11.447C46.7355 12.3192 46.2293 13.5299 46.0247 15.0791Z" fill="#80889C"/>
<path d="M69.9174 25.958V0H72.8899V10.6896C73.5899 9.80599 74.3815 9.10597 75.2646 8.58956C76.1585 8.07316 77.187 7.81495 78.3502 7.81495C79.3302 7.81495 80.2134 8.01578 80.9996 8.41743C81.7858 8.81908 82.4535 9.3986 83.0027 10.156C83.5628 10.9134 83.9882 11.8315 84.279 12.9102C84.5697 13.9889 84.7151 15.2053 84.7151 16.5594C84.7151 18.0054 84.5482 19.3251 84.2143 20.5186C83.8805 21.7006 83.4012 22.7104 82.7766 23.5481C82.1627 24.3859 81.4088 25.04 80.5149 25.5105C79.621 25.9695 78.614 26.199 77.494 26.199C76.3955 26.199 75.4693 25.981 74.7154 25.5449C73.9615 25.1088 73.2992 24.4834 72.7284 23.6686L72.583 25.2867C72.4968 25.7343 72.2437 25.958 71.8237 25.958H69.9174ZM72.8899 21.6547C73.4284 22.435 74.0207 22.9858 74.6669 23.3072C75.3131 23.617 76.0185 23.7719 76.7832 23.7719C78.3556 23.7719 79.5618 23.1809 80.4018 21.9989C81.2419 20.8055 81.6619 19.0325 81.6619 16.6799C81.6619 14.4996 81.2903 12.8987 80.5472 11.8774C79.8041 10.8445 78.7433 10.3281 77.3648 10.3281C76.4062 10.3281 75.5662 10.5634 74.8446 11.0339C74.1338 11.5044 73.4822 12.1642 72.8899 13.0134V21.6547Z" fill="#80889C"/>
<path d="M88.5438 25.958V0H91.4839V25.958H88.5438Z" fill="#80889C"/>
<path d="M95.3126 17.0242C95.3126 15.6242 95.4957 14.3561 95.8619 13.22C96.2388 12.0839 96.7719 11.12 97.4612 10.3281C98.1612 9.52483 99.0013 8.90515 99.9813 8.46907C100.972 8.03299 102.087 7.81495 103.325 7.81495C104.553 7.81495 105.657 8.03299 106.637 8.46907C107.617 8.90515 108.452 9.52483 109.141 10.3281C109.841 11.12 110.374 12.0839 110.74 13.22C111.106 14.3561 111.29 15.6242 111.29 17.0242C111.29 18.4357 111.106 19.7038 110.74 20.8284C110.374 21.953 109.841 22.917 109.141 23.7203C108.452 24.5236 107.612 25.1375 106.621 25.5621C105.641 25.9867 104.542 26.199 103.325 26.199C102.087 26.199 100.972 25.9867 99.9813 25.5621C99.0013 25.1375 98.1612 24.5236 97.4612 23.7203C96.7719 22.917 96.2388 21.953 95.8619 20.8284C95.4957 19.7038 95.3126 18.4357 95.3126 17.0242ZM98.3335 17.0414C98.3335 19.1529 98.7428 20.7997 99.5613 21.9817C100.391 23.1637 101.645 23.7547 103.325 23.7547C104.984 23.7547 106.217 23.1637 107.025 21.9817C107.843 20.7997 108.252 19.1529 108.252 17.0414C108.252 14.9184 107.843 13.2659 107.025 12.0839C106.206 10.8904 104.973 10.2937 103.325 10.2937C102.485 10.2937 101.753 10.4486 101.128 10.7585C100.504 11.0568 99.9813 11.4929 99.5613 12.0667C99.152 12.6405 98.8451 13.352 98.6405 14.2012C98.4358 15.0389 98.3335 15.9857 98.3335 17.0414Z" fill="#80889C"/>
<path d="M114.084 17.0242C114.084 15.693 114.257 14.4651 114.601 13.3405C114.957 12.2159 115.463 11.2462 116.12 10.4314C116.788 9.60516 117.611 8.96252 118.591 8.5035C119.572 8.04447 120.692 7.81495 121.952 7.81495C123.136 7.81495 124.176 8.02152 125.07 8.43464C125.974 8.83629 126.771 9.40434 127.46 10.1388L126.685 11.2749C126.599 11.4011 126.513 11.5044 126.427 11.5847C126.34 11.6536 126.216 11.688 126.055 11.688C125.893 11.688 125.71 11.6134 125.506 11.4642C125.312 11.315 125.07 11.1544 124.779 10.9822C124.488 10.7986 124.127 10.638 123.696 10.5003C123.276 10.3511 122.759 10.2765 122.146 10.2765C121.316 10.2765 120.584 10.4314 119.948 10.7413C119.324 11.0511 118.796 11.4987 118.365 12.0839C117.945 12.6692 117.628 13.3807 117.412 14.2184C117.197 15.0561 117.089 15.9914 117.089 17.0242C117.089 18.1029 117.202 19.0611 117.428 19.8989C117.665 20.7366 117.994 21.4424 118.414 22.0161C118.845 22.5899 119.362 23.026 119.965 23.3244C120.568 23.6227 121.241 23.7719 121.984 23.7719C122.706 23.7719 123.298 23.6801 123.761 23.4965C124.224 23.3129 124.606 23.1121 124.908 22.894C125.21 22.6645 125.463 22.4637 125.667 22.2916C125.872 22.1079 126.076 22.0161 126.281 22.0161C126.529 22.0161 126.717 22.1137 126.847 22.3088L127.67 23.4621C127.304 23.9441 126.89 24.3572 126.427 24.7015C125.963 25.0342 125.463 25.3154 124.924 25.5449C124.396 25.7744 123.836 25.9408 123.244 26.0441C122.662 26.1474 122.07 26.199 121.467 26.199C120.422 26.199 119.448 25.9982 118.543 25.5966C117.649 25.1834 116.868 24.5867 116.201 23.8063C115.544 23.0145 115.027 22.0506 114.65 20.9145C114.273 19.7784 114.084 18.4816 114.084 17.0242Z" fill="#80889C"/>
<path d="M130.821 25.958V0H133.793V15.2684H134.552C134.768 15.2684 134.951 15.2397 135.102 15.1824C135.252 15.1135 135.409 14.9815 135.57 14.7864L140.869 8.74449C141.02 8.5494 141.181 8.39448 141.353 8.27972C141.526 8.16496 141.757 8.10758 142.048 8.10758H144.714L138.543 15.0963C138.241 15.4979 137.918 15.8078 137.573 16.0258C137.767 16.1635 137.945 16.3299 138.106 16.525C138.268 16.7086 138.424 16.9152 138.575 17.1447L145.117 25.958H142.484C142.226 25.958 142.005 25.9179 141.822 25.8375C141.65 25.7457 141.499 25.5793 141.37 25.3384L135.861 18.0226C135.699 17.7701 135.538 17.6095 135.376 17.5406C135.215 17.4603 134.967 17.4201 134.633 17.4201H133.793V25.958H130.821Z" fill="#80889C"/>
<path d="M155.602 24.0129C155.602 23.7031 155.65 23.4162 155.747 23.1522C155.855 22.8883 156 22.6588 156.183 22.4637C156.367 22.2571 156.582 22.0965 156.83 21.9817C157.088 21.8555 157.363 21.7924 157.654 21.7924C157.944 21.7924 158.214 21.8555 158.461 21.9817C158.709 22.0965 158.924 22.2571 159.107 22.4637C159.301 22.6588 159.452 22.894 159.56 23.1694C159.678 23.4334 159.737 23.7145 159.737 24.0129C159.737 24.3342 159.678 24.6269 159.56 24.8908C159.452 25.1547 159.301 25.39 159.107 25.5966C158.924 25.7916 158.704 25.9408 158.445 26.0441C158.197 26.1589 157.934 26.2162 157.654 26.2162C157.363 26.2162 157.088 26.1589 156.83 26.0441C156.582 25.9408 156.367 25.7916 156.183 25.5966C156 25.39 155.855 25.1547 155.747 24.8908C155.65 24.6269 155.602 24.3342 155.602 24.0129Z" fill="#80889C"/>
<path d="M162.968 17.0242C162.968 15.693 163.141 14.4651 163.485 13.3405C163.841 12.2159 164.347 11.2462 165.004 10.4314C165.672 9.60516 166.495 8.96252 167.476 8.5035C168.456 8.04447 169.576 7.81495 170.836 7.81495C172.02 7.81495 173.06 8.02152 173.954 8.43464C174.858 8.83629 175.655 9.40434 176.344 10.1388L175.569 11.2749C175.483 11.4011 175.397 11.5044 175.311 11.5847C175.224 11.6536 175.101 11.688 174.939 11.688C174.777 11.688 174.594 11.6134 174.39 11.4642C174.196 11.315 173.954 11.1544 173.663 10.9822C173.372 10.7986 173.011 10.638 172.58 10.5003C172.16 10.3511 171.643 10.2765 171.03 10.2765C170.2 10.2765 169.468 10.4314 168.833 10.7413C168.208 11.0511 167.68 11.4987 167.249 12.0839C166.829 12.6692 166.512 13.3807 166.296 14.2184C166.081 15.0561 165.973 15.9914 165.973 17.0242C165.973 18.1029 166.086 19.0611 166.312 19.8989C166.549 20.7366 166.878 21.4424 167.298 22.0161C167.729 22.5899 168.246 23.026 168.849 23.3244C169.452 23.6227 170.125 23.7719 170.868 23.7719C171.59 23.7719 172.182 23.6801 172.645 23.4965C173.108 23.3129 173.49 23.1121 173.792 22.894C174.094 22.6645 174.347 22.4637 174.551 22.2916C174.756 22.1079 174.961 22.0161 175.165 22.0161C175.413 22.0161 175.601 22.1137 175.731 22.3088L176.554 23.4621C176.188 23.9441 175.774 24.3572 175.311 24.7015C174.847 25.0342 174.347 25.3154 173.808 25.5449C173.28 25.7744 172.72 25.9408 172.128 26.0441C171.547 26.1474 170.954 26.199 170.351 26.199C169.306 26.199 168.332 25.9982 167.427 25.5966C166.533 25.1834 165.752 24.5867 165.085 23.8063C164.428 23.0145 163.911 22.0506 163.534 20.9145C163.157 19.7784 162.968 18.4816 162.968 17.0242Z" fill="#80889C"/>
<path d="M178.461 21.4997C178.461 20.7997 178.638 20.1226 178.994 19.4685C179.36 18.8144 179.952 18.2349 180.771 17.73C181.589 17.225 182.65 16.8119 183.953 16.4906C185.267 16.1578 186.883 15.9684 188.8 15.9225V14.5282C188.8 13.1397 188.514 12.0954 187.944 11.3954C187.383 10.6839 186.565 10.3281 185.488 10.3281C184.756 10.3281 184.142 10.4257 183.646 10.6208C183.162 10.8159 182.736 11.0339 182.37 11.2749C182.015 11.5044 181.708 11.7167 181.449 11.9118C181.191 12.1069 180.938 12.2044 180.69 12.2044C180.496 12.2044 180.324 12.1528 180.173 12.0495C180.033 11.9347 179.915 11.7913 179.818 11.6192L179.285 10.6208C180.211 9.66828 181.207 8.95679 182.273 8.48628C183.339 8.01578 184.524 7.78053 185.827 7.78053C186.764 7.78053 187.594 7.94692 188.315 8.27972C189.047 8.61252 189.661 9.07154 190.157 9.6568C190.663 10.2421 191.04 10.9536 191.288 11.7913C191.546 12.6175 191.675 13.5299 191.675 14.5282V25.958H190.367C190.076 25.958 189.855 25.9121 189.704 25.8203C189.554 25.7171 189.43 25.5162 189.333 25.2179L189.01 23.5481C188.568 23.9727 188.132 24.3514 187.701 24.6842C187.281 25.017 186.84 25.2982 186.377 25.5277C185.924 25.7572 185.434 25.9294 184.906 26.0441C184.389 26.1703 183.808 26.2335 183.162 26.2335C182.516 26.2335 181.902 26.1417 181.32 25.958C180.749 25.763 180.254 25.4703 179.834 25.0802C179.414 24.69 179.08 24.2023 178.832 23.617C178.585 23.0203 178.461 22.3145 178.461 21.4997ZM181.288 21.362C181.288 21.8325 181.358 22.2399 181.498 22.5842C181.638 22.917 181.832 23.1924 182.079 23.4104C182.327 23.6285 182.618 23.7891 182.952 23.8924C183.296 23.9842 183.663 24.0301 184.05 24.0301C184.567 24.0301 185.041 23.9785 185.472 23.8752C185.903 23.7604 186.307 23.5998 186.683 23.3932C187.06 23.1867 187.421 22.9342 187.766 22.6358C188.121 22.3375 188.466 21.9989 188.8 21.6202V17.9193C187.443 17.9652 186.285 18.08 185.326 18.2636C184.368 18.4472 183.587 18.6882 182.984 18.9866C182.392 19.2734 181.961 19.6177 181.692 20.0194C181.422 20.421 181.288 20.8686 181.288 21.362Z" fill="#80889C"/>
<path d="M196.15 32V8.10758H197.927C198.347 8.10758 198.606 8.32562 198.703 8.7617L198.945 10.8618C199.666 9.93222 200.49 9.1863 201.417 8.62399C202.343 8.06168 203.404 7.78053 204.599 7.78053C205.568 7.78053 206.441 7.98135 207.216 8.383C208.002 8.77318 208.67 9.3527 209.219 10.1216C209.779 10.8904 210.205 11.8487 210.495 12.9962C210.797 14.1323 210.948 15.4406 210.948 16.9209C210.948 18.2406 210.781 19.4685 210.447 20.6046C210.113 21.7292 209.634 22.7047 209.009 23.5309C208.395 24.3572 207.636 25.0113 206.731 25.4933C205.838 25.9638 204.825 26.199 203.694 26.199C202.671 26.199 201.793 26.0212 201.061 25.6654C200.329 25.2982 199.683 24.776 199.123 24.099V32H196.15ZM199.123 21.6547C199.65 22.435 200.237 22.9858 200.883 23.3072C201.53 23.617 202.246 23.7719 203.032 23.7719C204.594 23.7719 205.794 23.1809 206.634 21.9989C207.475 20.8055 207.895 19.1128 207.895 16.9209C207.895 15.7619 207.798 14.7635 207.604 13.9258C207.421 13.088 207.146 12.4052 206.78 11.8774C206.414 11.338 205.961 10.9478 205.423 10.7068C204.895 10.4544 204.297 10.3281 203.63 10.3281C202.671 10.3281 201.831 10.5634 201.11 11.0339C200.388 11.5044 199.726 12.1642 199.123 13.0134V21.6547Z" fill="#80889C"/>
<path d="M214.243 2.49597C214.243 2.18612 214.297 1.89349 214.405 1.61807C214.513 1.34266 214.658 1.10167 214.841 0.895105C215.035 0.688542 215.256 0.527882 215.503 0.413125C215.751 0.298368 216.02 0.24099 216.311 0.24099C216.602 0.24099 216.871 0.298368 217.119 0.413125C217.377 0.527882 217.604 0.688542 217.797 0.895105C217.991 1.10167 218.147 1.34266 218.266 1.61807C218.384 1.89349 218.444 2.18612 218.444 2.49597C218.444 2.80581 218.384 3.0927 218.266 3.35664C218.147 3.62058 217.991 3.85584 217.797 4.0624C217.604 4.26896 217.377 4.42962 217.119 4.54438C216.86 4.65914 216.591 4.71651 216.311 4.71651C216.02 4.71651 215.751 4.65914 215.503 4.54438C215.256 4.42962 215.035 4.26896 214.841 4.0624C214.658 3.85584 214.513 3.62058 214.405 3.35664C214.297 3.0927 214.243 2.80581 214.243 2.49597ZM214.873 25.958V8.10758H217.814V25.958H214.873Z" fill="#80889C"/>
<path d="M221.028 10.0355V8.79613L223.775 8.41743L224.453 2.90909C224.485 2.73696 224.561 2.59351 224.679 2.47875C224.798 2.36399 224.949 2.30662 225.132 2.30662H226.618V8.45186H231.464V10.724H226.618V21.4481C226.618 22.2055 226.79 22.7678 227.135 23.135C227.479 23.4908 227.921 23.6686 228.459 23.6686C228.772 23.6686 229.036 23.6285 229.251 23.5481C229.477 23.4563 229.671 23.3588 229.833 23.2555C230.005 23.1408 230.15 23.0432 230.269 22.9629C230.387 22.8711 230.49 22.8252 230.576 22.8252C230.726 22.8252 230.861 22.9227 230.98 23.1178L231.852 24.6154C231.346 25.1203 230.732 25.5162 230.01 25.8031C229.299 26.09 228.562 26.2335 227.797 26.2335C226.472 26.2335 225.455 25.8433 224.744 25.0629C224.033 24.2711 223.678 23.135 223.678 21.6547V10.724H221.658C221.486 10.724 221.335 10.6724 221.206 10.5691C221.088 10.4544 221.028 10.2765 221.028 10.0355Z" fill="#80889C"/>
<path d="M233.257 21.4997C233.257 20.7997 233.435 20.1226 233.79 19.4685C234.157 18.8144 234.749 18.2349 235.568 17.73C236.386 17.225 237.447 16.8119 238.75 16.4906C240.064 16.1578 241.679 15.9684 243.596 15.9225V14.5282C243.596 13.1397 243.311 12.0954 242.74 11.3954C242.18 10.6839 241.362 10.3281 240.285 10.3281C239.552 10.3281 238.938 10.4257 238.443 10.6208C237.958 10.8159 237.533 11.0339 237.167 11.2749C236.811 11.5044 236.504 11.7167 236.246 11.9118C235.988 12.1069 235.734 12.2044 235.487 12.2044C235.293 12.2044 235.121 12.1528 234.97 12.0495C234.83 11.9347 234.711 11.7913 234.614 11.6192L234.081 10.6208C235.007 9.66828 236.004 8.95679 237.07 8.48628C238.136 8.01578 239.321 7.78053 240.624 7.78053C241.561 7.78053 242.39 7.94692 243.112 8.27972C243.844 8.61252 244.458 9.07154 244.953 9.6568C245.46 10.2421 245.837 10.9536 246.084 11.7913C246.343 12.6175 246.472 13.5299 246.472 14.5282V25.958H245.163C244.873 25.958 244.652 25.9121 244.501 25.8203C244.35 25.7171 244.226 25.5162 244.129 25.2179L243.806 23.5481C243.365 23.9727 242.929 24.3514 242.498 24.6842C242.078 25.017 241.636 25.2982 241.173 25.5277C240.721 25.7572 240.231 25.9294 239.703 26.0441C239.186 26.1703 238.605 26.2335 237.958 26.2335C237.312 26.2335 236.698 26.1417 236.117 25.958C235.546 25.763 235.051 25.4703 234.631 25.0802C234.211 24.69 233.877 24.2023 233.629 23.617C233.381 23.0203 233.257 22.3145 233.257 21.4997ZM236.084 21.362C236.084 21.8325 236.154 22.2399 236.294 22.5842C236.434 22.917 236.628 23.1924 236.876 23.4104C237.124 23.6285 237.415 23.7891 237.748 23.8924C238.093 23.9842 238.459 24.0301 238.847 24.0301C239.364 24.0301 239.838 23.9785 240.269 23.8752C240.699 23.7604 241.103 23.5998 241.48 23.3932C241.857 23.1867 242.218 22.9342 242.562 22.6358C242.918 22.3375 243.263 21.9989 243.596 21.6202V17.9193C242.239 17.9652 241.082 18.08 240.123 18.2636C239.165 18.4472 238.384 18.6882 237.781 18.9866C237.188 19.2734 236.758 19.6177 236.488 20.0194C236.219 20.421 236.084 20.8686 236.084 21.362Z" fill="#80889C"/>
<path d="M251.06 25.958V0H254V25.958H251.06Z" fill="#80889C"/>
</svg>
