<svg width="201" height="43" viewBox="0 0 201 43" fill="none" xmlns="http://www.w3.org/2000/svg">
<path d="M8.84664 9.27576L0 18.6203V42.9438H23.2878L31.3537 34.4236H8.58641L8.84664 9.27576Z" fill="#80889C"/>
<path d="M9.30078 8.79476L17.627 0H40.3293L32.2631 8.52019L9.30078 8.79476Z" fill="#80889C"/>
<path d="M20.3594 22.8117L28.3278 14.3948H41.6953V24.2544L32.9464 33.4959V22.7431L20.3594 22.8117Z" fill="#80889C"/>
<path d="M56.6513 23.4035C56.6477 22.3019 56.8493 21.2103 57.2447 20.1909C57.6216 19.2016 58.171 18.2957 58.8643 17.5205C59.5753 16.7407 60.4304 16.1237 61.3766 15.7079C62.3804 15.2572 63.461 15.0285 64.5517 15.036C65.6687 15.008 66.7817 15.1889 67.8391 15.5702C68.7915 15.9538 69.6726 16.5113 70.4421 17.2173L68.7317 19.3762C68.1485 18.8362 67.4905 18.3935 66.7807 18.0634C66.0368 17.7578 65.2427 17.6116 64.4448 17.6334C63.5479 17.6265 62.6687 17.8979 61.9165 18.4139C61.1509 18.9337 60.5307 19.6604 60.1204 20.5185C59.687 21.4107 59.4651 22.4007 59.4737 23.4035C59.4569 24.4336 59.677 25.4526 60.1151 26.3731C60.5283 27.2304 61.1643 27.9453 61.9485 28.4342C62.7767 28.9442 63.7216 29.2039 64.6801 29.1849C66.0103 29.2237 67.3151 28.7948 68.3897 27.9656V24.928H64.4662V22.4548H70.9874V29.2528C69.225 30.9005 66.9479 31.8014 64.5944 31.7823C63.1352 31.8114 61.6948 31.4315 60.4199 30.6813C59.2363 29.9815 58.2665 28.9395 57.6243 27.6775C56.9647 26.362 56.6301 24.8919 56.6513 23.4035Z" fill="#80889C"/>
<path d="M73.584 31.5003V15.3075H84.9481V17.8254H76.2781V22.0939H83.9646V24.6119H76.2781V28.982H85.055V31.5003L73.584 31.5003Z" fill="#80889C"/>
<path d="M87.3535 31.5001V15.3074H98.7176V17.8253H90.0476V22.0938H97.7341V24.6118H90.0476V28.9819H98.8245V31.5002L87.3535 31.5001Z" fill="#80889C"/>
<path d="M101.123 31.5003V15.3075H103.817V23.4488L111.108 15.3075H114.412L108.04 22.2745L114.7 31.5003H111.44L106.201 24.2166L103.817 26.8028V31.5003H101.123Z" fill="#80889C"/>
<path d="M115.415 23.4094C115.409 22.2947 115.609 21.1894 116.003 20.1551C116.374 19.1651 116.922 18.2596 117.617 17.4883C118.329 16.7151 119.184 16.1055 120.129 15.6975C121.138 15.2528 122.222 15.0279 123.315 15.0362C124.473 15.0045 125.624 15.2245 126.698 15.6827C127.667 16.1357 128.551 16.7657 129.312 17.5436L127.591 19.6494C126.987 19.0485 126.303 18.5448 125.56 18.1544C124.852 17.8016 124.077 17.6235 123.293 17.6336C122.376 17.6225 121.474 17.8897 120.696 18.4035C119.923 18.9126 119.296 19.6353 118.884 20.4933C118.447 21.3955 118.225 22.3963 118.237 23.4094C118.202 24.9193 118.719 26.3854 119.68 27.5035C120.13 28.0454 120.686 28.4767 121.31 28.7672C121.935 29.0577 122.612 29.2003 123.293 29.1851C124.096 29.2036 124.892 29.0253 125.619 28.6642C126.381 28.2449 127.081 27.7108 127.698 27.0787L129.43 28.936C128.917 29.505 128.349 30.0158 127.735 30.4602C127.122 30.8825 126.451 31.2054 125.747 31.4183C124.922 31.6697 124.067 31.7924 123.208 31.7824C121.81 31.8001 120.434 31.418 119.226 30.6764C118.048 29.9571 117.08 28.9113 116.425 27.6524C115.747 26.354 115.399 24.8922 115.415 23.4094Z" fill="#80889C"/>
<path d="M130.035 31.5L136.781 15.1943H139.282L146.018 31.5H143.174L141.624 27.5928H134.376L132.793 31.5H130.035ZM135.359 25.0749H140.64L137.989 18.5931L135.359 25.0749Z" fill="#80889C"/>
<path d="M147.738 31.5001V15.3074H154.581C156.359 15.3074 157.755 15.7741 158.768 16.7075C159.782 17.6411 160.289 18.8945 160.289 20.4677C160.332 21.6116 159.981 22.7333 159.3 23.6238C158.592 24.48 157.654 25.0885 156.611 25.3685L160.749 31.5001H157.574L153.768 25.854H150.432V31.5001H147.738ZM150.432 23.3357H154.377C155.203 23.3818 156.017 23.1178 156.676 22.5905C156.956 22.3483 157.179 22.0406 157.327 21.6919C157.476 21.3431 157.545 20.9627 157.531 20.5806C157.551 20.2041 157.485 19.828 157.34 19.4834C157.195 19.1388 156.975 18.8356 156.697 18.5989C156.141 18.136 155.361 17.9045 154.356 17.9044H150.432V23.3357Z" fill="#80889C"/>
<path d="M161.551 17.9499V15.3075H174.005V17.9499H169.13V31.5003H166.436V17.9499H161.551Z" fill="#80889C"/>
<path d="M175.947 31.5001V15.3074H187.311V17.8253H178.641V22.0938H186.328V24.6118H178.641V28.9819H187.418V31.5002L175.947 31.5001Z" fill="#80889C"/>
<path d="M189.719 31.5001V15.3074H192.413V28.9031H200.473V31.5001H189.719Z" fill="#80889C"/>
</svg>
