<svg width="238" height="50" viewBox="0 0 238 50" fill="none" xmlns="http://www.w3.org/2000/svg">
<path d="M25.4496 49.6212C24.9112 49.2176 24.4259 48.8556 23.9423 48.4911C22.4924 47.3983 21.0467 46.2992 19.5897 45.2169C19.4928 45.1543 19.4143 45.0648 19.3629 44.9584C19.3115 44.8519 19.2891 44.7326 19.2982 44.6136C19.3045 32.8027 19.3053 20.9919 19.3008 9.18097C19.3094 8.8729 19.285 8.56478 19.2279 8.26244C19.0481 7.44764 18.4734 7.10228 17.6963 7.30893C17.0094 7.51724 16.3886 7.91549 15.8989 8.46197C15.0886 9.25454 14.5171 10.2785 14.2549 11.4077C14.1898 11.708 14.1569 12.0149 14.157 12.3229C14.152 21.797 14.1506 31.2712 14.1529 40.7453V41.1088C14.0723 41.0608 14.0138 41.0334 13.9631 40.9947C12.2529 39.6898 10.5422 38.3856 8.83092 37.0821C8.74227 37.0212 8.67101 36.9362 8.62472 36.8361C8.57843 36.7361 8.55884 36.6248 8.56802 36.514C8.57425 29.3674 8.57318 22.2209 8.56483 15.0744C8.56168 14.622 8.49688 14.1724 8.37238 13.7392C8.06024 12.6466 7.09484 12.2985 6.14916 12.7119C5.44363 13.0424 4.88553 13.6438 4.58949 14.3925C4.30128 15.0358 4.15422 15.7388 4.15915 16.4496C4.16178 22.005 4.1629 27.5604 4.16252 33.1158C4.16254 33.2312 4.16252 33.3467 4.16252 33.5031C4.09044 33.4684 4.02037 33.4292 3.95266 33.3858C2.82001 32.5308 1.6903 31.6714 0.554375 30.8212C0.488895 30.7795 0.435617 30.7197 0.400366 30.6483C0.365115 30.5769 0.349247 30.4967 0.354498 30.4165C0.362288 29.471 0.354994 28.5254 0.359324 27.5798C0.375096 24.1351 0.416717 20.6903 0.403422 17.2457C0.36863 15.9201 0.600826 14.6017 1.08484 13.3766C1.56886 12.1515 2.29381 11.0474 3.21233 10.1362C4.16631 9.11622 5.38785 8.41679 6.72168 8.12685C7.38567 7.98228 8.07158 7.98969 8.73258 8.14858C9.39359 8.30748 10.0141 8.61411 10.5519 9.04754C10.6558 9.12758 10.7598 9.20753 10.8834 9.30255C10.9192 9.25073 10.9501 9.19533 10.9755 9.13716C11.7967 6.51666 13.3716 4.46933 15.4032 2.77925C16.8204 1.55502 18.4793 0.67655 20.2598 0.207411C21.1827 -0.0615786 22.1571 -0.0690611 23.0837 0.185726C24.3871 0.589112 25.0763 1.57076 25.3362 2.91766C25.4107 3.31811 25.4471 3.72532 25.4451 4.13331C25.4504 19.1719 25.452 34.2104 25.4496 49.249V49.6212Z" fill="#80889C"/>
<path d="M31.1186 5.24548C31.9932 5.93837 32.8073 6.58548 33.6236 7.2295C34.5657 7.97271 35.5068 8.71738 36.4552 9.45154C36.5514 9.51623 36.6293 9.60667 36.6809 9.71352C36.7325 9.82037 36.756 9.93975 36.7489 10.0593C36.7408 19.3596 36.7416 28.6598 36.7514 37.9601C36.7581 38.4381 36.6476 38.9099 36.4306 39.3303C36.2136 39.7507 35.8973 40.1056 35.512 40.361C34.7495 40.9429 33.8361 41.2676 32.8934 41.2916C32.5224 41.2871 32.1561 41.2047 31.816 41.0493C31.3206 40.8399 31.1522 40.3672 31.1194 39.8365C31.1149 39.7641 31.1186 39.6911 31.1186 39.6184C31.1186 28.2817 31.1186 16.945 31.1186 5.60836L31.1186 5.24548Z" fill="#80889C"/>
<path d="M41.1166 13.8275C41.5882 14.2271 42.0175 14.5896 42.4454 14.9539C43.4212 15.7844 44.3932 16.6199 45.3745 17.4431C45.4502 17.5006 45.5108 17.5773 45.5505 17.666C45.5902 17.7547 45.6079 17.8526 45.6017 17.9504C45.5962 22.041 45.5884 26.1316 45.605 30.2222C45.6159 30.6408 45.538 31.0568 45.3769 31.44C45.2157 31.8233 44.9754 32.1641 44.6732 32.4378C44.0718 33.0562 43.2638 33.4036 42.4217 33.4059C42.2475 33.4173 42.073 33.3896 41.9098 33.3248C41.7465 33.26 41.5983 33.1595 41.475 33.03C41.3517 32.9005 41.256 32.7449 41.1944 32.5736C41.1328 32.4024 41.1067 32.2193 41.1177 32.0366C41.1137 30.7276 41.1166 29.4186 41.1166 28.1096C41.1166 23.4644 41.1166 18.8193 41.1166 14.1742V13.8275Z" fill="#80889C"/>
<path d="M77.7944 32.3089H75.2306V20.9393C75.1878 21.0135 75.1497 21.0905 75.1165 21.1699C73.8911 24.763 72.6685 28.3572 71.4487 31.9524C71.4241 32.0756 71.356 32.1845 71.2581 32.2573C71.1602 32.3301 71.0397 32.3615 70.9207 32.3451C69.6077 32.3514 69.6017 32.3644 69.1602 31.0717C68.0333 27.7722 66.9091 24.4716 65.7876 21.1701C65.755 21.0916 65.7176 21.0155 65.6755 20.9422V32.3081H63.1289V17.3112H66.8014C68.0179 20.9055 69.2437 24.5274 70.4788 28.1766C70.6664 27.5539 70.839 26.9155 71.05 26.2913C72.0293 23.3945 73.0169 20.5009 74.0128 17.6104C74.0579 17.4795 74.2115 17.2981 74.3174 17.296C75.4677 17.2733 76.6186 17.2818 77.7944 17.2818L77.7944 32.3089Z" fill="#80889C"/>
<path d="M97.1746 23.4932H102.838V25.7793H97.1778V30.0141H104.17V32.3044H94.5469V17.3087H103.789V19.6012H97.1746V23.4932Z" fill="#80889C"/>
<path d="M143.414 32.3372C145.332 27.2748 147.22 22.2908 149.118 17.2815C149.853 17.2815 150.578 17.2662 151.301 17.2963C151.378 17.318 151.45 17.3578 151.511 17.4129C151.572 17.468 151.62 17.5368 151.651 17.6141C153.242 21.7793 154.826 25.9478 156.402 30.1195C156.674 30.8365 156.941 31.5554 157.233 32.3358C156.326 32.3358 155.488 32.3527 154.651 32.3173C154.527 32.3121 154.361 32.0806 154.302 31.9186C153.314 29.1926 152.34 26.461 151.362 23.7308C151.039 22.8294 150.715 21.9287 150.351 20.9153C150.231 21.2135 150.148 21.4038 150.078 21.5994C148.852 25.0245 147.63 28.4511 146.411 31.879C146.384 32.028 146.303 32.16 146.184 32.2472C146.066 32.3345 145.92 32.37 145.778 32.3463C145.021 32.3163 144.262 32.3372 143.414 32.3372Z" fill="#80889C"/>
<path d="M126.145 32.3182H123.48V19.6067H118.877V17.3087H130.732V19.5849H126.145V32.3182Z" fill="#80889C"/>
<path d="M180.126 18.7107C180.037 19.1191 179.958 19.5305 179.856 19.9357C178.851 23.9429 177.836 27.9476 176.843 31.9582C176.759 32.2975 176.603 32.376 176.327 32.3346C176.039 32.2913 175.685 32.5101 175.538 31.9844C174.202 27.1963 172.854 22.4117 171.495 17.6306C171.471 17.5225 171.452 17.4132 171.439 17.303H172.436C173.658 21.9251 174.883 26.5555 176.11 31.194L176.266 31.2098C177.402 26.5758 178.538 21.9386 179.676 17.2982H180.722C181.854 21.9452 182.985 26.5886 184.115 31.2287L184.228 31.2319C184.496 30.2999 184.779 29.3724 185.028 28.4352C185.941 25.0098 186.847 21.5826 187.748 18.1538C187.993 17.2258 187.995 17.2264 188.99 17.3141C188.855 17.796 188.725 18.2688 188.59 18.7403C187.344 23.1065 186.083 27.4678 184.87 31.8441C184.71 32.4195 184.387 32.296 184.03 32.3462C183.61 32.4052 183.544 32.1378 183.465 31.8199C182.426 27.6431 181.385 23.467 180.342 19.2915C180.294 19.1003 180.259 18.9058 180.218 18.7127L180.126 18.7107Z" fill="#80889C"/>
<path d="M234.351 24.4974C235.129 24.6713 235.866 24.8753 236.457 25.4597C237.838 26.8258 237.728 29.5077 236.236 31.0121C235.599 31.6499 234.785 32.059 233.913 32.1805C233.474 32.2573 233.03 32.3024 232.585 32.3155C231.203 32.3327 229.821 32.3218 228.4 32.3218V17.2777C230.348 17.345 232.302 17.0625 234.204 17.6357C236.257 18.2543 237.173 19.9238 236.701 22.1062C236.594 22.616 236.363 23.0882 236.032 23.4774C235.7 23.8667 235.279 24.1598 234.808 24.3287C234.732 24.3608 234.654 24.3906 234.577 24.4193C234.502 24.4468 234.426 24.4715 234.351 24.4974ZM229.329 31.4159C230.988 31.3685 232.622 31.5882 234.225 31.1445C235.326 30.8395 236.056 30.1009 236.255 28.9176C236.685 26.3564 235.542 25.3538 233.643 25.165C233.413 25.1422 233.182 25.1232 232.952 25.1224C231.753 25.1182 230.555 25.1204 229.329 25.1204V31.4159ZM229.331 18.2023V24.1514C230.393 24.1514 231.427 24.1584 232.462 24.1471C232.774 24.1385 233.086 24.1073 233.394 24.0538C233.606 24.02 233.814 23.9638 234.015 23.886C235.195 23.4307 235.77 22.4571 235.734 20.9917C235.703 19.7421 235.099 18.9018 233.919 18.5147C232.422 18.0238 230.884 18.2602 229.331 18.2023V18.2023Z" fill="#80889C"/>
<path d="M204.076 32.296V17.3077H212.216V18.1835H205.056V24.1286H211.571V25.0642H205.044V31.3939H212.62V32.296H204.076Z" fill="#80889C"/>
</svg>
