<svg width="146" height="44" viewBox="0 0 146 44" fill="none" xmlns="http://www.w3.org/2000/svg">
<path d="M107.775 4.16489C107.231 4.27241 106.003 4.70212 105.944 4.8216C105.897 4.88128 105.802 4.929 105.707 4.929C105.14 4.929 103.498 6.5884 102.978 7.67482C102.269 9.16714 102.081 10.4326 102.4 11.7697C102.824 13.5963 103.711 14.8976 105.117 15.793C105.849 16.2706 106.062 16.366 106.829 16.6406C107.467 16.8555 107.763 16.8795 109.37 16.8436C110.622 16.8197 111.236 16.76 111.343 16.6526C111.414 16.5809 111.59 16.5093 111.72 16.5093C112.016 16.5093 113.74 15.4109 114.141 14.9812C116.232 12.701 116.481 9.31042 114.733 6.8392C113.977 5.75278 112.806 4.91704 111.319 4.37981C110.786 4.20077 108.389 4.04554 107.775 4.16489ZM110.61 7.4599C111.224 7.83005 111.519 8.14041 111.874 8.73743C112.169 9.23878 112.192 9.39402 112.192 10.5401C112.192 11.6982 112.169 11.8413 111.862 12.3667C111.094 13.6918 109.499 14.3007 108.094 13.8112C106.876 13.3815 106.262 12.6413 105.991 11.2803C105.802 10.3849 105.979 9.33434 106.428 8.54632C106.783 7.93745 107.597 7.34054 108.282 7.19727C109.003 7.04215 110.125 7.17347 110.61 7.4599Z" fill="#80889C"/>
<path d="M67.7637 4.5152C67.6448 4.73584 67.5476 4.95635 67.5476 5.00546C67.5476 5.06673 67.3748 5.53243 67.1587 6.04724C66.9427 6.57421 66.6943 7.187 66.6186 7.39536C66.5323 7.61599 66.4027 7.98372 66.3162 8.19207C66.2407 8.41258 66.0246 8.96411 65.8301 9.41765C65.6465 9.87108 65.4953 10.2755 65.4953 10.3123C65.4953 10.3613 65.3765 10.6801 65.236 11.0232C64.6095 12.543 64.307 13.3641 64.307 13.5112C64.307 13.6092 64.2638 13.6828 64.199 13.6828C64.145 13.6828 64.0694 13.8298 64.0262 14.0136C63.9937 14.2097 63.7669 14.8104 63.5293 15.3742C63.3025 15.9378 63.1189 16.4894 63.1404 16.5997C63.1729 16.7835 63.3673 16.8081 64.6203 16.8448C65.8518 16.8694 66.1002 16.8448 66.2622 16.6733C66.381 16.5508 66.4675 16.4159 66.4675 16.3546C66.4675 16.2933 66.5538 16.0114 66.6619 15.7295C66.7699 15.4477 66.9427 14.9696 67.0507 14.6633C67.1587 14.3568 67.31 13.9401 67.3857 13.744C67.4613 13.5357 67.7096 12.8493 67.9366 12.212C68.1526 11.5748 68.4226 10.8149 68.5306 10.533C68.6495 10.2511 68.7359 9.93234 68.7359 9.83437C68.7359 9.73627 68.7791 9.62601 68.8331 9.5769C68.8871 9.54019 68.9736 9.34411 69.0059 9.12348C69.1247 8.51068 69.4272 8.02043 69.5785 8.19207C69.6541 8.27777 69.7081 8.40043 69.7081 8.48613C69.7081 8.60866 69.9457 9.30727 70.2482 10.0672C70.3022 10.202 70.4534 10.6432 70.583 11.0477C70.7883 11.7096 71.0583 12.4572 71.3284 13.1312C71.3824 13.266 71.62 13.9279 71.8469 14.602C72.0845 15.2761 72.3654 16.0482 72.4733 16.3178L72.6786 16.8081L74.2773 16.8448C76.1461 16.8816 76.1029 16.9306 75.5087 15.4844C75.3035 14.9942 75.0119 14.2466 74.839 13.8053C74.4285 12.7145 74.0721 11.8198 73.64 10.778C73.4347 10.3001 73.2727 9.83437 73.2727 9.76082C73.2727 9.675 73.1971 9.46664 73.1107 9.29512C72.8731 8.80486 72.5166 7.83663 72.5166 7.68954C72.5166 7.61599 72.4733 7.55473 72.4085 7.55473C72.3545 7.55473 72.3005 7.49346 72.3005 7.41991C72.3005 7.33409 72.2034 7.01548 72.0737 6.70902C71.9441 6.40257 71.7821 5.9737 71.7065 5.7775C71.3392 4.77255 71.0907 4.25774 70.9394 4.19647C70.8423 4.15976 70.1402 4.12292 69.3732 4.12292H67.9797L67.7637 4.5152Z" fill="#80889C"/>
<path d="M78.7458 4.19868C78.6348 4.24778 78.6016 5.59568 78.6016 10.3626C78.6016 13.7203 78.6348 16.551 78.6681 16.6612C78.7235 16.8206 78.9675 16.8573 80.1985 16.8573C81.1856 16.8573 81.7068 16.8083 81.7956 16.7102C81.8842 16.6122 81.9287 15.975 81.9287 14.6392C81.9287 13.4507 81.973 12.6787 82.0395 12.6296C82.1061 12.5806 83.1707 12.556 84.4239 12.5683C86.5644 12.5806 86.6864 12.5683 86.7973 12.3355C86.9636 11.9924 86.9525 9.95818 86.7861 9.77441C86.6864 9.66405 85.9766 9.62735 84.2909 9.62735H81.9287V8.34058V7.05394H84.6236C87.884 7.05394 87.6955 7.15203 87.6955 5.50987C87.6955 4.81149 87.6512 4.35802 87.5625 4.26006C87.4626 4.1497 86.3425 4.11299 83.1596 4.12515C80.7974 4.12515 78.8123 4.16197 78.7458 4.19868Z" fill="#80889C"/>
<path d="M90.5497 4.44124C90.4765 4.62486 90.4277 7.08611 90.4277 10.588C90.44 15.2532 90.4643 16.4777 90.5985 16.6368C90.7327 16.8329 90.9768 16.8573 92.3555 16.8573H93.9417L94.088 16.4165C94.1857 16.147 94.2223 15.4001 94.1979 14.4328C94.1734 13.5758 94.1979 12.8043 94.2467 12.7186C94.3199 12.6084 94.9666 12.5716 96.7847 12.5716C98.2368 12.5716 99.3222 12.5227 99.4689 12.4492C99.6767 12.3268 99.7011 12.1799 99.7011 11.1268C99.7011 10.3553 99.6522 9.87782 99.5545 9.77993C99.4445 9.66966 98.6756 9.63298 96.8214 9.63298H94.2344L94.1857 8.43296C94.1491 7.78407 94.1491 7.20853 94.1734 7.14732C94.1979 7.09838 95.5522 7.06158 97.1869 7.06158C99.3222 7.06158 100.177 7.0249 100.287 6.91463C100.384 6.81674 100.433 6.32695 100.433 5.51872C100.433 4.49018 100.397 4.25761 100.238 4.1964C100.128 4.1596 97.9313 4.12292 95.357 4.12292H90.6717L90.5497 4.44124Z" fill="#80889C"/>
<path d="M119.637 4.3555C119.574 4.51471 119.531 6.65753 119.531 10.5146C119.542 15.29 119.563 16.4655 119.68 16.6491C119.807 16.845 119.987 16.8573 121.233 16.8329L122.651 16.7961L122.672 15.4492C122.714 13.4655 122.683 13.5512 123.529 13.5512C123.92 13.5512 124.289 13.6002 124.342 13.6492C124.459 13.7349 125.009 14.5675 125.189 14.9226C125.558 15.6328 126.129 16.5144 126.331 16.6736C126.511 16.8206 126.87 16.8573 127.969 16.8573C129.514 16.8573 129.629 16.7961 129.323 16.1593C129.101 15.7063 128.9 15.3389 128.837 15.2655C128.72 15.1308 127.684 13.4411 127.578 13.2084C127.419 12.8655 127.525 12.6207 127.895 12.437C128.508 12.1553 129.132 10.9921 129.429 9.64525C129.576 8.92276 129.576 8.78808 129.408 7.99223C129.185 6.90236 128.964 6.41257 128.372 5.71473C127.916 5.17587 127.653 4.97998 126.827 4.57592C126.108 4.22081 125.178 4.12292 122.481 4.12292C119.891 4.12292 119.743 4.13507 119.637 4.3555ZM125.39 7.24521C126.045 7.61259 126.373 8.43296 126.193 9.31455C126.066 9.95129 125.654 10.3921 125.051 10.5023C124.268 10.6493 122.979 10.637 122.831 10.4656C122.693 10.3064 122.64 7.29427 122.778 7.14732C122.926 6.97584 125.04 7.06158 125.39 7.24521Z" fill="#80889C"/>
<path d="M133.331 4.19724C133.132 4.28286 133.12 16.4796 133.32 16.7001C133.531 16.9327 138.948 16.896 140.166 16.6633C140.676 16.5531 141.153 16.4184 141.207 16.3571C141.274 16.2837 141.396 16.2347 141.496 16.2347C141.729 16.2347 142.427 15.806 143.091 15.255C143.612 14.8142 144.598 13.3936 144.598 13.0876C144.598 13.0141 144.664 12.8059 144.753 12.6223C144.974 12.1691 145.074 10.222 144.941 9.2302C144.731 7.63825 143.833 6.18101 142.427 5.15238C142.105 4.91967 141.762 4.72376 141.662 4.72376C141.562 4.72376 141.374 4.66254 141.241 4.57679C140.642 4.23392 139.424 4.11149 136.455 4.12375C134.816 4.12375 133.398 4.16043 133.331 4.19724ZM139.967 7.40554C140.576 7.73615 141.142 8.29947 141.418 8.87506C141.562 9.16899 141.607 9.56081 141.607 10.4302C141.607 11.667 141.44 12.2181 140.864 12.8549C140.222 13.5651 139.933 13.6753 138.472 13.7488C137.718 13.7856 136.965 13.7856 136.799 13.7365L136.511 13.6632V10.4302C136.511 7.9566 136.544 7.17295 136.655 7.12388C136.722 7.0872 137.386 7.07493 138.117 7.0872C139.236 7.12388 139.524 7.17295 139.967 7.40554Z" fill="#80889C"/>
<path d="M67.3426 23.2812C66.6821 23.3879 65.6914 23.7909 65.0074 24.2058C64.4413 24.5613 63.3681 25.6281 63.1204 26.0903C62.3302 27.5483 62.1651 28.3187 62.2477 30.0968C62.3066 31.282 62.3538 31.4717 62.743 32.2777C62.9906 32.7637 63.2737 33.2496 63.3799 33.3563C63.486 33.4748 63.6747 33.6882 63.8162 33.8541C65.6443 35.9876 69.4418 36.604 72.1661 35.2172C73.1686 34.7076 74.0061 33.9963 74.0061 33.6526C74.0061 33.4037 72.3785 31.8035 72.0364 31.7324C71.9421 31.7087 71.6354 31.8747 71.3525 32.1117C71.0694 32.3488 70.7628 32.5384 70.6684 32.5384C70.574 32.5384 70.4326 32.6214 70.35 32.7162C70.2438 32.8466 69.9372 32.8941 69.1352 32.8941C67.944 32.8941 67.3189 32.6807 66.6939 32.0406C66.057 31.4005 65.8212 30.713 65.8212 29.5159C65.8212 28.3187 66.0098 27.821 66.7057 27.1097C67.4015 26.3986 67.9204 26.1971 69.0526 26.1971C70.1495 26.1971 70.6684 26.3867 71.4586 27.0861C71.6709 27.2876 71.9185 27.4416 71.9893 27.4416C72.1072 27.4416 72.9918 26.6593 73.7937 25.8652C74.065 25.5925 74.1003 25.4977 74.0061 25.308C73.7701 24.8577 72.5318 23.9805 71.6472 23.6368C70.8807 23.3286 70.574 23.2812 69.3475 23.2338C68.5692 23.2101 67.6728 23.2338 67.3426 23.2812Z" fill="#80889C"/>
<path d="M79.9145 23.2791C79.7532 23.3399 79.6456 23.5585 79.0542 25.0888C78.8714 25.5503 78.6241 26.1576 78.5166 26.4248C78.4091 26.6919 78.0435 27.615 77.7101 28.4895C77.366 29.3518 76.9574 30.4084 76.7854 30.8335C76.6132 31.2465 76.4735 31.6109 76.4735 31.6472C76.4735 31.6837 76.3229 32.0845 76.1401 32.5338C75.9573 32.9833 75.7423 33.5055 75.667 33.712C75.5917 33.9063 75.3981 34.3921 75.2476 34.7929C74.7637 36.0073 74.7208 35.971 76.5488 35.9345L78.1402 35.8981L78.4521 34.9872C78.6133 34.4893 78.8284 33.8819 78.9252 33.6512C79.0112 33.4204 79.1617 33.0318 79.2478 32.801C79.3339 32.5703 79.4736 32.2181 79.5489 32.0359C79.635 31.8415 79.6995 31.6109 79.6995 31.5258C79.6995 31.4408 79.7639 31.21 79.85 31.0157C80.0436 30.6027 80.2264 30.0927 80.6028 28.9753C81.0651 27.615 81.1942 27.3357 81.3662 27.3357C81.4629 27.3357 81.5274 27.4449 81.5274 27.5907C81.5274 27.7243 81.592 27.9915 81.6673 28.1616C81.7533 28.3437 81.8931 28.6717 81.9899 28.8902C82.0866 29.121 82.1727 29.3761 82.1727 29.4611C82.1727 29.5583 82.3447 30.044 82.5491 30.5663C82.7533 31.0764 82.9254 31.55 82.9254 31.6109C82.9254 31.7445 83.291 32.716 83.5169 33.1898C83.6028 33.3597 83.6781 33.6147 83.6781 33.7483C83.6781 33.8819 83.7534 34.0763 83.8394 34.1856C83.9255 34.2828 84.0008 34.465 84.0008 34.5864C84.0008 34.72 84.076 34.9264 84.162 35.06C84.2481 35.1815 84.3233 35.4123 84.3233 35.5459C84.3233 35.6916 84.3986 35.8495 84.4953 35.8859C84.7104 35.9831 87.603 35.9831 87.6783 35.8859C87.7644 35.8009 87.5385 34.9629 87.3665 34.7321C87.2912 34.6349 87.2266 34.4771 87.2266 34.3921C87.2266 34.307 87.1621 34.0884 87.0762 33.9184C86.9471 33.6147 86.6998 33.0075 86.3126 32.0116C86.076 31.3801 85.7535 30.5785 85.4094 29.7526C85.2265 29.3153 85.0761 28.9024 85.0761 28.8539C85.0761 28.7931 84.9362 28.4166 84.7642 28.0158C84.5922 27.6029 84.3448 26.9956 84.2158 26.6677C84.0867 26.3277 83.9147 25.8661 83.818 25.6354C83.7211 25.4046 83.5814 25.0403 83.5061 24.8459C83.0544 23.6314 82.9039 23.352 82.678 23.2791C82.42 23.2063 80.1726 23.2063 79.9145 23.2791Z" fill="#80889C"/>
<path d="M90.6087 23.4024C90.4491 23.5844 90.4277 24.1424 90.4277 29.5895C90.4277 32.8772 90.4597 35.6552 90.4916 35.7645C90.5449 35.9343 90.7896 35.9586 92.0351 35.9586C93.8234 35.9586 93.7595 36.0192 93.7276 34.2117C93.7063 33.5444 93.7063 32.9136 93.717 32.8287C93.7276 32.7194 94.0682 32.6831 95.0369 32.6831C96.442 32.6831 97.294 32.5011 98.1449 32.0522C98.9543 31.6155 99.2305 31.3728 99.657 30.7056C100.2 29.8564 100.433 29.0557 100.433 28.0124C100.433 26.1927 99.625 24.7126 98.2089 23.9241C97.2727 23.4024 96.6766 23.3175 93.6637 23.2569C91.0665 23.1962 90.7684 23.2082 90.6087 23.4024ZM96.3567 26.4353C96.7075 26.6052 97.0807 27.1632 97.2087 27.6848C97.2727 28.0124 97.0701 28.8858 96.8355 29.1892C96.5699 29.5532 95.7713 29.7714 94.7282 29.7714C93.9298 29.7714 93.7382 29.7351 93.685 29.5773C93.6531 29.4682 93.6211 28.7404 93.6211 27.9517C93.6211 26.0714 93.6211 26.0714 94.9942 26.1927C95.5478 26.229 96.1647 26.3503 96.3567 26.4353Z" fill="#80889C"/>
<path d="M104.203 23.3217C104.081 23.4067 104.056 24.7547 104.081 29.673L104.117 35.9151L105.75 35.9515C106.846 35.9758 107.43 35.9395 107.54 35.8423C107.686 35.733 107.711 34.6764 107.711 29.6974C107.711 25.7869 107.662 23.6132 107.589 23.4553C107.467 23.2488 107.32 23.2245 105.907 23.2245C105.056 23.2245 104.288 23.2732 104.203 23.3217Z" fill="#80889C"/>
<path d="M109.798 23.3439C109.539 23.4536 109.527 23.5267 109.527 24.7212C109.527 25.623 109.574 26.0374 109.68 26.1228C109.774 26.2081 110.525 26.2813 111.534 26.2935L113.224 26.33L113.282 31.1444L113.341 35.9588H115.042H116.742L116.801 31.1444L116.86 26.33L118.385 26.3057C120.627 26.2569 120.439 26.4031 120.439 24.7577C120.439 23.5998 120.403 23.356 120.251 23.2951C119.958 23.1732 110.08 23.2219 109.798 23.3439Z" fill="#80889C"/>
<path d="M125.775 23.3269C125.557 23.4239 125.42 23.703 124.801 25.2198C124.686 25.4868 124.411 26.1663 124.169 26.7366C123.941 27.307 123.688 27.9259 123.608 28.132C123.527 28.3263 123.299 28.8723 123.092 29.3456C122.68 30.2799 122.634 30.4012 121.934 32.0758C121.67 32.7068 121.384 33.4106 121.292 33.6168C121.2 33.8353 121.039 34.2235 120.948 34.4663C120.845 34.7211 120.685 35.0852 120.604 35.2671C120.284 35.971 120.284 35.971 122.129 35.9345L123.826 35.8982L124.044 35.4128C124.353 34.7454 124.514 34.345 124.857 33.3499C125.018 32.8767 125.202 32.3913 125.259 32.2578C125.591 31.4691 125.832 30.8381 126.062 30.1586C126.21 29.746 126.371 29.3698 126.417 29.3334C126.475 29.2969 126.52 29.1393 126.52 28.9815C126.52 28.8237 126.566 28.6539 126.635 28.6174C126.693 28.5811 126.795 28.3383 126.864 28.0957C126.921 27.8409 127.048 27.5375 127.14 27.404C127.289 27.1856 127.312 27.2099 127.54 27.7316C127.667 28.0472 127.782 28.3869 127.782 28.484C127.782 28.5811 127.828 28.6902 127.885 28.7267C127.942 28.7631 128.023 28.9452 128.056 29.1271C128.102 29.3213 128.205 29.6247 128.286 29.831C128.756 30.9231 129.846 33.7868 129.983 34.26C130.051 34.4906 130.178 34.7939 130.258 34.9274C130.35 35.0609 130.419 35.2915 130.419 35.4371C130.419 35.8739 130.762 35.9588 132.471 35.9588C134.076 35.9588 134.087 35.9588 134.087 35.6797C134.087 35.5219 134.041 35.3521 133.984 35.2915C133.938 35.2186 133.595 34.4298 133.238 33.532C132.872 32.634 132.517 31.7846 132.437 31.6511C132.345 31.5176 132.242 31.2264 132.207 31.0079C132.161 30.8016 132.081 30.6196 132.023 30.6196C131.977 30.6196 131.898 30.474 131.864 30.3042C131.818 30.1221 131.622 29.6247 131.427 29.1756C130.889 27.9379 130.693 27.489 130.246 26.3726C130.017 25.8023 129.685 25.0135 129.501 24.6131C129.33 24.2127 129.158 23.7636 129.112 23.6302C129.066 23.4845 128.916 23.3269 128.779 23.2904C128.401 23.1812 126.039 23.2176 125.775 23.3269Z" fill="#80889C"/>
<path d="M136.09 23.4337C135.929 23.6036 135.906 24.3313 135.906 29.6441C135.906 32.9556 135.952 35.7454 135.998 35.8304C136.078 35.9395 137.062 35.9759 140.552 35.9516L145.002 35.9153V34.5203V33.1255L142.233 33.089L139.454 33.0647V28.3463C139.454 24.2101 139.431 23.5915 139.27 23.4337C139.007 23.1547 136.353 23.1547 136.09 23.4337Z" fill="#80889C"/>
<path d="M0.906109 0.0673518C0.815151 0.162767 0.815151 17.1242 0.906109 17.2196C1.00242 17.3206 22.0242 17.315 22.1473 17.214C22.2276 17.1467 22.4416 16.8997 22.9392 16.2823C23.0729 16.1196 23.2067 15.9567 23.2334 15.9175C23.2656 15.8838 23.41 15.7042 23.5544 15.519C23.7043 15.3337 23.8862 15.1149 23.9718 15.0307C24.052 14.9465 24.1163 14.8623 24.1163 14.8455C24.1163 14.8286 24.1858 14.7445 24.2661 14.6546C24.3517 14.5704 24.4426 14.4638 24.4694 14.4133C24.4961 14.3627 24.6299 14.1888 24.7744 14.026C24.9135 13.8576 25.0472 13.6949 25.0686 13.6668C25.09 13.6331 25.2024 13.4928 25.3201 13.3525C25.6412 12.9709 25.8872 12.679 26.1334 12.3703C26.2564 12.2187 26.4009 12.0391 26.4544 11.9774C26.5079 11.9101 26.6363 11.7473 26.738 11.6182C26.8396 11.4835 26.9734 11.3207 27.0323 11.2534C27.4228 10.7932 27.7385 10.4059 27.8027 10.3048C27.8455 10.2375 27.9044 10.1589 27.9365 10.1308C27.974 10.0971 28.2254 9.79411 28.4983 9.4573C28.7712 9.11493 29.0708 8.75016 29.1671 8.63786C29.258 8.52565 29.3704 8.3853 29.4132 8.32919C29.6165 8.07099 30.189 7.37502 30.2639 7.29083C30.312 7.24593 30.4352 7.09439 30.5368 6.95968C30.6384 6.82499 30.8471 6.57241 30.9915 6.39843C31.1414 6.22443 31.3554 5.96063 31.4731 5.81471C31.5908 5.66316 31.8691 5.32079 32.0884 5.057C32.3078 4.78759 32.6127 4.42277 32.7572 4.23755C32.907 4.05794 33.0515 3.88395 33.0783 3.85028C33.1103 3.8166 33.228 3.65945 33.3458 3.5079C33.4635 3.35075 33.5759 3.21605 33.5919 3.19921C33.6347 3.15993 34.0467 2.66601 34.3356 2.30118C34.4694 2.13842 34.6031 1.97565 34.6299 1.94198C34.6619 1.9083 34.8011 1.7287 34.9509 1.54348C35.0954 1.35826 35.2398 1.17866 35.2719 1.14498C35.5715 0.796996 35.9782 0.308696 36.0102 0.241344C36.0371 0.196442 36.0424 0.123479 36.0263 0.0785771C35.9996 0.0112253 33.6721 0 18.4823 0C4.93498 0 0.954263 0.016838 0.906109 0.0673518Z" fill="#80889C"/>
<path d="M40.0438 6.66224C39.91 6.81378 39.7442 7.00461 39.6746 7.10002C39.605 7.18983 39.482 7.34697 39.3911 7.44239C39.3055 7.53781 39.1128 7.76231 38.963 7.94753C38.6152 8.37407 37.9571 9.1711 37.9197 9.2048C37.9036 9.22156 37.7485 9.40682 37.5719 9.62568C37.4007 9.83899 37.2187 10.0579 37.1706 10.1084C37.0583 10.2375 36.8335 10.5013 36.4858 10.9335C36.2075 11.2871 35.9721 11.5677 35.7795 11.781C35.7314 11.8314 35.5495 12.0447 35.3782 12.2637C35.2016 12.4769 35.0358 12.6846 35.0037 12.7183C34.9769 12.752 34.795 12.9652 34.6024 13.1897C34.4098 13.4142 34.2012 13.6724 34.1423 13.7622C34.0781 13.852 33.8855 14.0822 33.7143 14.273C33.5377 14.4638 33.2808 14.7725 33.1364 14.9577C32.9973 15.1429 32.7404 15.446 32.5746 15.6368C32.4088 15.8221 32.168 16.1139 32.0342 16.2767C31.772 16.6023 31.3547 17.1074 31.2637 17.2084C31.2316 17.2421 31.0979 17.4049 30.9641 17.5676C30.6324 17.9829 30.3435 18.3253 30.0278 18.6957C29.7549 19.0157 29.7228 19.0549 29.1717 19.7285C28.9952 19.9418 28.8132 20.155 28.7704 20.2055C28.7276 20.2561 28.642 20.3571 28.5832 20.4357C28.3745 20.6883 27.4275 21.822 27.2723 21.996C27.2295 22.0465 27.0851 22.2261 26.9513 22.3945C26.8229 22.5629 26.6785 22.7425 26.6303 22.793C26.5553 22.8772 26.0684 23.4497 25.8331 23.7359C25.7689 23.8089 25.7207 23.8931 25.7207 23.9211C25.7207 23.9717 26.3306 24.8304 26.5179 25.0437C26.566 25.0941 26.6303 25.1727 26.657 25.212C26.6891 25.2513 26.9781 25.6386 27.2991 26.0708C27.6201 26.503 27.909 26.8846 27.9411 26.9183C27.9679 26.9575 28.0481 27.0586 28.1124 27.1428C28.6956 27.923 29.1022 28.4562 29.1878 28.546C29.2199 28.5852 29.252 28.6358 29.252 28.6526C29.252 28.675 29.3001 28.748 29.359 28.8154C29.4179 28.8771 29.7388 29.2981 30.076 29.747C30.4184 30.196 30.718 30.589 30.7501 30.6282C30.8143 30.7125 31.6169 31.7845 31.8095 32.0482C31.8897 32.1549 32.0824 32.4074 32.2375 32.6096C32.3927 32.8116 32.5372 33.0024 32.5585 33.0304C32.58 33.0641 32.703 33.2269 32.8367 33.3953C32.9705 33.5637 33.1471 33.7994 33.2274 33.9116C33.3076 34.0295 33.4468 34.2035 33.5324 34.3045C33.6233 34.4055 33.6928 34.5066 33.6928 34.5291C33.6928 34.5571 33.7356 34.6189 33.7892 34.675C33.8373 34.7255 33.9657 34.8883 34.0674 35.023C34.169 35.1632 34.2653 35.2867 34.2814 35.3036C34.2975 35.3204 34.3777 35.4327 34.4687 35.5562C34.5543 35.6797 34.6773 35.8424 34.7416 35.921C34.8432 36.0389 35.3354 36.6899 36.2343 37.8798C36.3252 37.9976 36.5981 38.3681 36.8443 38.7049C37.0903 39.0416 37.3204 39.339 37.3525 39.3727C37.39 39.4008 37.5238 39.5804 37.6522 39.7657C37.7859 39.9508 37.9036 40.1136 37.9197 40.1304C37.9357 40.1473 38.1658 40.4504 38.4279 40.804C38.6955 41.1575 38.9363 41.4719 38.9683 41.5056C39.0005 41.5336 39.2733 41.904 39.5783 42.3194C40.1829 43.1501 40.2471 43.223 40.3594 43.1781C40.4719 43.1332 40.4719 6.39844 40.3594 6.39844C40.3166 6.39844 40.1775 6.5163 40.0438 6.66224Z" fill="#80889C"/>
<path d="M0.932754 23.8984C0.847147 23.9938 0.841797 24.7403 0.841797 33.5803C0.841797 42.9197 0.841797 43.161 0.943455 43.161C0.99696 43.161 1.10397 43.0768 1.17887 42.9758C1.25378 42.8804 1.37149 42.7288 1.44105 42.6503C1.5106 42.5661 1.66042 42.3809 1.77812 42.2293C1.89583 42.0834 2.04029 41.9094 2.09915 41.8364C2.158 41.7691 2.44692 41.4155 2.74119 41.0563C3.03548 40.6915 3.59192 40.0124 3.9718 39.5465C4.35703 39.0806 4.76366 38.5699 4.88137 38.4183C4.99908 38.2612 5.12214 38.1096 5.15424 38.0816C5.18635 38.0479 5.35221 37.8514 5.52877 37.6326C5.69999 37.4193 5.8712 37.2116 5.89795 37.178C5.93005 37.1443 6.05847 36.9815 6.19223 36.8188C6.4865 36.4595 6.84497 36.0217 7.06969 35.7467C7.16065 35.6345 7.34257 35.41 7.47632 35.2472C7.61009 35.0788 7.8134 34.8319 7.93112 34.686C8.04882 34.5456 8.24144 34.3043 8.35915 34.1583C8.47686 34.0068 8.59992 33.8552 8.62667 33.8216C8.65877 33.7879 8.83536 33.569 9.02264 33.3389C9.21522 33.1087 9.39712 32.8899 9.42386 32.8618C9.45598 32.8281 9.57902 32.6766 9.69137 32.525C9.8091 32.3679 9.92683 32.2163 9.95895 32.1883C9.991 32.1546 10.1515 31.9694 10.3121 31.7673C10.4726 31.5653 10.6545 31.3408 10.7187 31.2622C11.1682 30.7234 11.3875 30.454 11.5962 30.1958C11.7299 30.0331 11.8637 29.8702 11.8904 29.8366C11.9226 29.8029 12.0402 29.6457 12.158 29.4943C12.2703 29.3371 12.4094 29.1743 12.4576 29.1294C12.5058 29.0845 12.6823 28.8656 12.8535 28.6523C13.0301 28.4335 13.1959 28.2314 13.2227 28.1977C13.2548 28.164 13.3778 28.0125 13.4956 27.8609C13.6133 27.715 13.747 27.5523 13.7952 27.5017C13.838 27.4513 13.9129 27.3614 13.9557 27.2941C14.0199 27.1987 14.4479 26.6711 14.6994 26.3848C14.7422 26.3343 14.9027 26.1435 15.0472 25.9583C15.197 25.773 15.3308 25.6103 15.3468 25.5934C15.3629 25.5766 15.5127 25.3858 15.6893 25.1725C15.8605 24.9536 16.144 24.6112 16.3153 24.4036C16.8557 23.7581 17.7385 23.8255 8.80862 23.8086C1.31798 23.7974 1.01836 23.803 0.932754 23.8984Z" fill="#80889C"/>
</svg>
