<svg width="73" height="16" viewBox="0 0 73 16" fill="none" xmlns="http://www.w3.org/2000/svg">
	<path d="M28.072 10.864L28.876 13H30.448L27.136 4.492H25.468L22.156 13H23.68L24.472 10.864H28.072ZM24.976 9.532L26.272 6.052L27.568 9.532H24.976ZM31.2256 15.28H32.6056V12.34C32.7616 12.568 32.9896 12.748 33.2896 12.904C33.5896 13.072 33.9616 13.144 34.3816 13.144C34.8016 13.144 35.1736 13.072 35.5096 12.904C35.8576 12.748 36.1456 12.532 36.3856 12.256C36.6256 11.98 36.8056 11.656 36.9376 11.284C37.0696 10.912 37.1296 10.516 37.1296 10.072C37.1296 9.64 37.0696 9.232 36.9496 8.86C36.8296 8.488 36.6496 8.176 36.4216 7.9C36.1936 7.624 35.9176 7.408 35.5816 7.252C35.2456 7.096 34.8616 7.024 34.4296 7.024C33.9736 7.024 33.5896 7.108 33.2656 7.288C32.9416 7.468 32.7136 7.696 32.5696 7.948V7.156H31.2256V15.28ZM35.7376 10.072C35.7376 10.636 35.5936 11.08 35.2936 11.416C35.0056 11.74 34.6336 11.908 34.1656 11.908C33.7096 11.908 33.3376 11.74 33.0376 11.416C32.7376 11.08 32.5936 10.636 32.5936 10.072C32.5936 9.796 32.6296 9.556 32.7136 9.328C32.7976 9.1 32.9056 8.908 33.0376 8.752C33.1696 8.596 33.3376 8.476 33.5296 8.392C33.7216 8.308 33.9376 8.26 34.1656 8.26C34.6336 8.26 35.0176 8.428 35.3056 8.752C35.5936 9.076 35.7376 9.52 35.7376 10.072ZM38.2629 15.28H39.6429V12.34C39.7989 12.568 40.0269 12.748 40.3269 12.904C40.6269 13.072 40.9989 13.144 41.4189 13.144C41.8389 13.144 42.2109 13.072 42.5469 12.904C42.8949 12.748 43.1829 12.532 43.4229 12.256C43.6629 11.98 43.8429 11.656 43.9749 11.284C44.1069 10.912 44.1669 10.516 44.1669 10.072C44.1669 9.64 44.1069 9.232 43.9869 8.86C43.8669 8.488 43.6869 8.176 43.4589 7.9C43.2309 7.624 42.9549 7.408 42.6189 7.252C42.2829 7.096 41.8989 7.024 41.4669 7.024C41.0109 7.024 40.6269 7.108 40.3029 7.288C39.9789 7.468 39.7509 7.696 39.6069 7.948V7.156H38.2629V15.28ZM42.7749 10.072C42.7749 10.636 42.6309 11.08 42.3309 11.416C42.0429 11.74 41.6709 11.908 41.2029 11.908C40.7469 11.908 40.3749 11.74 40.0749 11.416C39.7749 11.08 39.6309 10.636 39.6309 10.072C39.6309 9.796 39.6669 9.556 39.7509 9.328C39.8349 9.1 39.9429 8.908 40.0749 8.752C40.2069 8.596 40.3749 8.476 40.5669 8.392C40.7589 8.308 40.9749 8.26 41.2029 8.26C41.6709 8.26 42.0549 8.428 42.3429 8.752C42.6309 9.076 42.7749 9.52 42.7749 10.072ZM45.3003 13H46.6923V4.312H45.3003V13ZM52.1014 9.436H49.2334C49.2454 9.28 49.2814 9.124 49.3534 8.968C49.4254 8.812 49.5214 8.68 49.6414 8.548C49.7614 8.428 49.9054 8.332 50.0854 8.26C50.2534 8.176 50.4454 8.14 50.6614 8.14C50.9014 8.14 51.1054 8.176 51.2854 8.248C51.4654 8.32 51.6094 8.416 51.7294 8.536C51.8494 8.656 51.9454 8.8 52.0054 8.956C52.0654 9.112 52.0894 9.268 52.1014 9.436ZM53.4334 11.332L52.2574 10.96C52.1614 11.248 52.0054 11.488 51.7774 11.692C51.5494 11.884 51.2134 11.98 50.7934 11.98C50.5774 11.98 50.3734 11.944 50.1934 11.872C50.0014 11.788 49.8334 11.68 49.6894 11.548C49.5454 11.416 49.4254 11.248 49.3414 11.068C49.2574 10.888 49.2094 10.684 49.1974 10.456H53.4694C53.4814 10.444 53.4814 10.396 53.4934 10.312C53.5054 10.228 53.5054 10.12 53.5054 10.012C53.5054 9.544 53.4454 9.136 53.3134 8.764C53.1814 8.392 53.0014 8.068 52.7614 7.804C52.5094 7.54 52.2094 7.336 51.8614 7.192C51.5014 7.048 51.0934 6.976 50.6494 6.976C50.2774 6.976 49.9294 7.048 49.5814 7.204C49.2334 7.348 48.9334 7.552 48.6694 7.828C48.4054 8.092 48.2014 8.416 48.0454 8.788C47.8894 9.16 47.8054 9.58 47.8054 10.048C47.8054 10.54 47.8894 10.984 48.0574 11.368C48.2134 11.764 48.4294 12.088 48.7054 12.352C48.9814 12.628 49.2934 12.832 49.6534 12.964C50.0134 13.108 50.3974 13.18 50.7934 13.18C51.1414 13.18 51.4654 13.132 51.7534 13.036C52.0414 12.94 52.2934 12.808 52.5214 12.64C52.7494 12.472 52.9294 12.28 53.0854 12.052C53.2414 11.824 53.3494 11.584 53.4334 11.332ZM57.6674 8.404H56.1674V5.764H57.6674C58.1234 5.764 58.4834 5.884 58.7474 6.124C58.9994 6.364 59.1314 6.688 59.1314 7.096C59.1314 7.504 58.9994 7.828 58.7474 8.056C58.4834 8.284 58.1234 8.404 57.6674 8.404ZM56.1674 9.676H57.8834C58.2914 9.676 58.6634 9.616 58.9994 9.484C59.3234 9.352 59.6114 9.172 59.8514 8.944C60.0914 8.716 60.2714 8.44 60.4034 8.128C60.5354 7.804 60.5954 7.456 60.5954 7.084C60.5954 6.712 60.5354 6.376 60.4034 6.052C60.2714 5.728 60.0914 5.464 59.8514 5.236C59.6114 5.008 59.3234 4.828 58.9994 4.696C58.6634 4.564 58.2914 4.492 57.8834 4.492H54.7274V13H56.1674V9.676ZM60.9661 11.416C60.9661 11.644 61.0141 11.872 61.1101 12.076C61.1941 12.292 61.3261 12.484 61.5061 12.652C61.6741 12.808 61.8781 12.94 62.1181 13.036C62.3701 13.132 62.6461 13.18 62.9461 13.18C63.4141 13.18 63.7981 13.084 64.0981 12.892C64.3981 12.688 64.6141 12.484 64.7461 12.256C64.7461 12.484 64.7581 12.664 64.7701 12.784C64.7821 12.916 64.7941 12.988 64.8061 13H66.1021C66.0901 12.964 66.0781 12.868 66.0541 12.7C66.0421 12.544 66.0301 12.328 66.0301 12.064V9.16C66.0301 8.872 65.9821 8.596 65.8861 8.332C65.8021 8.068 65.6581 7.84 65.4541 7.636C65.2621 7.432 65.0101 7.276 64.6861 7.156C64.3741 7.036 63.9901 6.976 63.5461 6.976C63.1861 6.976 62.8621 7.024 62.5621 7.132C62.2741 7.24 62.0221 7.372 61.8181 7.552C61.6141 7.732 61.4461 7.936 61.3141 8.164C61.1821 8.392 61.1101 8.632 61.0861 8.884L62.3581 9.172C62.3941 8.872 62.5021 8.62 62.7061 8.416C62.9101 8.212 63.1861 8.116 63.5581 8.116C63.9421 8.116 64.2181 8.2 64.3981 8.368C64.5781 8.548 64.6621 8.752 64.6621 9.004C64.6621 9.112 64.6381 9.196 64.5781 9.268C64.5181 9.352 64.3981 9.4 64.2301 9.424L62.7301 9.652C62.4781 9.688 62.2501 9.76 62.0341 9.844C61.8181 9.928 61.6381 10.048 61.4821 10.192C61.3261 10.348 61.1941 10.516 61.1101 10.72C61.0141 10.924 60.9661 11.152 60.9661 11.416ZM63.2101 12.088C62.9341 12.088 62.7181 12.016 62.5741 11.86C62.4301 11.704 62.3581 11.536 62.3581 11.332C62.3581 11.092 62.4301 10.912 62.5861 10.78C62.7421 10.66 62.9221 10.576 63.1381 10.54L64.6621 10.312V10.576C64.6621 10.864 64.6261 11.104 64.5421 11.296C64.4581 11.488 64.3621 11.644 64.2301 11.752C64.0981 11.872 63.9421 11.956 63.7621 12.004C63.5821 12.064 63.4021 12.088 63.2101 12.088ZM67.6936 15.364H69.1816L72.9016 7.156H71.4256L69.8536 10.852L68.1736 7.156H66.6016L69.0976 12.304L67.6936 15.364Z" fill="black"/>
	<path d="M9.20341 2.8925C9.48694 2.56571 9.70313 2.18613 9.83956 1.77555C9.97599 1.36498 10.03 0.931496 9.99841 0.5C9.12794 0.570265 8.31991 0.979667 7.74841 1.64C7.47473 1.95648 7.26734 2.32466 7.13852 2.72273C7.00969 3.12081 6.96205 3.54068 6.99841 3.9575C7.42302 3.96104 7.84275 3.86682 8.22511 3.68214C8.60747 3.49747 8.9422 3.22728 9.20341 2.8925V2.8925ZM11.0934 8.4725C11.0984 7.8978 11.2498 7.33386 11.5333 6.8339C11.8167 6.33394 12.2229 5.91444 12.7134 5.615C12.4038 5.16893 11.9946 4.80112 11.5181 4.54076C11.0416 4.28039 10.511 4.13461 9.96841 4.115C8.79841 3.995 7.71841 4.7975 7.09591 4.7975C6.47341 4.7975 5.59591 4.13 4.62091 4.145C3.9835 4.166 3.36242 4.35184 2.81824 4.68439C2.27406 5.01694 1.82536 5.48486 1.51591 6.0425C0.195908 8.3375 1.17841 11.75 2.49841 13.6025C3.09841 14.51 3.84841 15.5375 4.83841 15.5C5.82841 15.4625 6.15091 14.885 7.29841 14.885C8.44591 14.885 8.79841 15.5 9.77341 15.4775C10.7484 15.455 11.4384 14.5475 12.0684 13.64C12.5147 12.9811 12.8633 12.2612 13.1034 11.5025C12.509 11.249 12.0019 10.827 11.6447 10.2885C11.2875 9.75 11.0958 9.11868 11.0934 8.4725V8.4725Z" fill="black"/>
</svg>
