<svg width="137" height="54" viewBox="0 0 137 54" fill="none" xmlns="http://www.w3.org/2000/svg">
	<rect y="0.0332031" width="136.798" height="53.5186" rx="26.7593" fill="#0285FD"/>
	<path d="M27.7734 15.7627C27.8881 15.733 27.9546 15.7004 28.0211 15.7004C31.4839 15.7344 34.9482 15.7047 38.4067 15.8321C40.2521 15.9001 41.9814 16.5076 43.2889 17.9236C45.573 20.3988 44.8456 24.5307 41.871 26.0869C41.5865 26.2356 41.2908 26.3659 40.8776 26.5655C41.3417 26.7114 41.6955 26.7978 42.0295 26.9309C44.0376 27.7309 45.2786 29.1639 45.4852 31.3531C45.7046 33.6782 44.9885 35.6366 43.013 37.0129C41.6814 37.9418 40.1544 38.436 38.5681 38.4728C34.992 38.5578 31.4132 38.4997 27.7734 38.4997C27.7734 30.9637 27.7734 23.3866 27.7734 15.7627ZM33.0207 34.1058C34.3934 34.1058 35.7293 34.1441 37.061 34.0874C37.586 34.0648 38.128 33.8906 38.6176 33.6796C39.6025 33.2548 40.0823 32.3741 40.0356 31.2908C39.9889 30.2104 39.4186 29.5406 38.4209 29.2149C36.6491 28.6372 34.8378 29.0181 33.0207 28.8751C33.0207 30.6932 33.0207 32.3797 33.0207 34.1058ZM32.984 22.4435C32.984 23.0807 32.9599 23.7194 33.0009 24.3537C33.0123 24.5208 33.2231 24.8153 33.3406 24.8139C34.6581 24.8054 35.9855 24.8408 37.2874 24.6794C38.4577 24.5336 39.1667 23.6868 39.2615 22.6715C39.3917 21.2541 38.7308 20.3931 37.1614 20.2048C35.9274 20.0561 34.6708 20.0844 33.4226 20.0802C33.2769 20.0802 33.0179 20.3662 33.0038 20.5347C32.9528 21.1677 32.9825 21.8077 32.984 22.4435Z" fill="white"/>
	<path d="M89.0227 25.1682C89.0227 26.8235 89.0227 28.4024 89.0227 29.9812C89.0227 32.2001 89.0354 34.4176 89.0043 36.6365C89 36.9027 88.8217 37.319 88.6137 37.4068C83.9565 39.3963 79.1903 40.042 74.4171 37.9661C70.1745 36.1211 68.0476 32.6589 67.698 28.1022C67.4575 24.9614 68.1509 22.0388 70.1533 19.5352C72.4854 16.6197 75.6313 15.2971 79.2837 15.1244C82.6489 14.9643 85.8047 15.6355 88.5132 17.795C88.6222 17.8813 88.7184 17.9833 88.8741 18.1263C87.7321 19.429 86.6042 20.7148 85.5896 21.8717C84.4334 21.2869 83.3947 20.5335 82.2371 20.2164C77.6846 18.9703 73.6614 22.0303 73.5539 26.7584C73.5312 27.7354 73.6275 28.7521 73.8808 29.6923C74.5246 32.084 76.1351 33.568 78.5394 34.1386C80.1767 34.528 81.8126 34.4318 83.4301 33.9574C83.8206 33.8427 84.023 33.6699 84.0117 33.2239C83.9848 32.186 83.9848 31.1466 84.0145 30.1087C84.0287 29.6215 83.8263 29.5139 83.3862 29.5224C82.1862 29.5451 80.9847 29.5295 79.7139 29.5295C79.7139 28.0696 79.7139 26.6493 79.7139 25.1682C82.7819 25.1682 85.8542 25.1682 89.0227 25.1682Z" fill="white"/>
	<path d="M100.268 21.9797C103.482 22.1072 106.331 23.2641 108.015 26.3949C110.396 30.8214 108.744 37.9085 101.531 38.9946C98.3395 39.4746 95.4371 38.6887 93.2493 36.2065C90.8917 33.5302 90.5323 30.3725 91.7931 27.1312C93.0455 23.9098 95.6918 22.4215 99.0273 22.042C99.3782 22.0024 99.7335 22.0052 100.268 21.9797ZM100.116 26.3651C97.9023 26.3297 96.272 28.0445 96.2423 30.439C96.2126 32.8236 97.8174 34.6404 99.9769 34.6687C102.224 34.6984 103.884 33.0119 103.919 30.6642C103.958 28.1876 102.375 26.4005 100.116 26.3651Z" fill="white"/>
	<path d="M65.7462 34.7282C65.7462 35.9034 65.766 37.0292 65.7249 38.1549C65.7193 38.3277 65.4561 38.5911 65.2678 38.6406C63.5753 39.0852 61.8616 39.1688 60.1734 38.6505C58.1964 38.0431 57.2129 36.5548 57.0898 34.5894C56.9483 32.3082 57.0021 30.0156 56.9723 27.7288C56.9667 27.3309 56.9709 26.933 56.9709 26.4444C56.0992 26.4444 55.2897 26.4444 54.4336 26.4444C54.4336 25.0936 54.4336 23.8347 54.4336 22.498C55.2473 22.498 56.0369 22.498 56.9129 22.498C56.9129 21.0678 56.9129 19.7127 56.9129 18.3052C58.679 18.3052 60.3588 18.3052 62.1192 18.3052C62.1192 19.4847 62.1461 20.6359 62.1079 21.7843C62.0895 22.3422 62.2579 22.5277 62.8253 22.5023C63.8117 22.4584 64.8023 22.4895 65.8537 22.4895C65.8537 23.7823 65.8537 25.0398 65.8537 26.4175C64.8843 26.4175 63.9022 26.4586 62.9272 26.4034C62.2607 26.3666 62.0923 26.5988 62.1079 27.2417C62.1503 28.9862 62.122 30.7336 62.1234 32.4795C62.1248 34.4988 62.9683 35.194 64.9792 34.84C65.1844 34.8018 65.391 34.7777 65.7462 34.7282Z" fill="white"/>
	<path d="M52.4537 38.5727C50.7131 38.5727 49.0432 38.5727 47.3125 38.5727C47.3125 33.2202 47.3125 27.8889 47.3125 22.5208C49.0347 22.5208 50.7201 22.5208 52.4537 22.5208C52.4537 27.8719 52.4537 33.1876 52.4537 38.5727Z" fill="white"/>
	<path d="M49.8937 20.2277C48.1856 20.2418 46.8681 19.0099 46.8441 17.3758C46.82 15.7672 48.1531 14.4588 49.8314 14.4418C51.5239 14.4248 52.8513 15.6709 52.8839 17.3064C52.9164 18.9108 51.5833 20.2135 49.8937 20.2277Z" fill="white"/>
</svg>
