<svg width="232" height="54" viewBox="0 0 232 54" fill="none" xmlns="http://www.w3.org/2000/svg">
	<rect x="0.75" y="0.481445" width="230.397" height="53.5186" rx="26.7593" fill="#5CEE9C"/>
	<path d="M130.618 25.0913C130.618 24.5145 130.618 23.9383 130.618 23.3615C130.618 22.5 130.618 22.5 131.464 22.5C132.423 22.5 133.383 22.5103 134.342 22.4939C134.629 22.489 134.716 22.5664 134.716 22.864C134.706 26.9576 134.709 31.0513 134.71 35.145C134.71 35.6218 134.71 35.6224 135.193 35.623C135.648 35.6237 136.103 35.631 136.557 35.6206C136.783 35.6157 136.886 35.6834 136.884 35.931C136.874 36.8858 136.874 37.8406 136.884 38.7954C136.885 39.0168 136.794 39.0668 136.595 39.0662C134.949 39.0607 133.303 39.0656 131.656 39.0607C131.192 39.0595 130.97 38.829 130.968 38.3644C130.965 37.5925 130.967 36.8205 130.967 36.0486C130.967 35.9407 130.967 35.8322 130.967 35.7243C130.942 35.7182 130.916 35.7121 130.891 35.706C130.805 35.9017 130.721 36.098 130.635 36.2937C129.872 38.0296 128.554 39.0918 126.693 39.3259C123.67 39.707 120.825 38.493 119.338 35.4615C118.865 34.4957 118.595 33.4707 118.458 32.408C118.237 30.6837 118.331 28.9789 118.892 27.3271C119.72 24.8828 121.312 23.1828 123.821 22.4695C125.225 22.0707 126.647 22.0055 128.04 22.5603C129.165 23.0085 129.949 23.8206 130.443 24.9236C130.47 24.9852 130.504 25.0437 130.535 25.1035C130.563 25.0998 130.591 25.0956 130.618 25.0913ZM122.529 30.8251C122.645 31.5123 122.714 32.2116 122.886 32.8848C123.31 34.5487 124.333 35.6066 126.077 35.8139C127.915 36.0322 129.685 35.292 130.379 33.2909C130.911 31.7574 130.922 30.1965 130.475 28.6502C130.023 27.0887 129.068 26.0004 127.385 25.7717C125.888 25.5687 124.606 26.0138 123.652 27.2326C122.831 28.2808 122.622 29.5215 122.529 30.8251Z" fill="#191B20"/>
	<path d="M52.8659 25.0602C52.9162 24.9828 52.972 24.9084 53.015 24.8273C53.8649 23.225 55.2167 22.3988 56.9905 22.2214C58.1119 22.1092 59.214 22.2031 60.2634 22.6262C61.7982 23.2457 62.7457 24.4036 63.127 26.0071C63.264 26.5839 63.3416 27.1894 63.3447 27.7827C63.3641 31.4099 63.3544 35.0378 63.3544 38.665C63.3544 39.0613 63.3532 39.0619 62.9555 39.0626C61.8443 39.0632 60.7325 39.054 59.622 39.0686C59.3431 39.0723 59.2649 38.9876 59.2655 38.7077C59.2746 35.517 59.2698 32.3263 59.2728 29.1356C59.2734 28.5296 59.1867 27.943 58.9376 27.3869C58.512 26.4376 57.7537 25.937 56.7516 25.8285C56.0794 25.7559 55.4028 25.7773 54.756 26.0498C53.7594 26.4693 53.1781 27.2412 52.958 28.2692C52.832 28.8588 52.7883 29.4759 52.7847 30.0807C52.7677 32.936 52.7774 35.7914 52.7768 38.6467C52.7768 39.0619 52.7756 39.0626 52.3652 39.0626C51.254 39.0632 50.1428 39.0558 49.0317 39.0674C48.7831 39.0699 48.7037 38.9979 48.7037 38.7418C48.7098 30.9075 48.7098 23.0731 48.7031 15.2388C48.7031 14.9736 48.7753 14.8876 49.0438 14.8906C50.1653 14.9041 51.2867 14.9053 52.4076 14.89C52.7004 14.8858 52.7835 14.9754 52.7822 15.2681C52.7725 18.3978 52.7762 21.5275 52.7762 24.6572C52.7762 24.7834 52.7762 24.9096 52.7762 25.0358C52.8071 25.0444 52.8362 25.0523 52.8659 25.0602Z" fill="#191B20"/>
	<path d="M79.3926 25.1061C79.4041 24.9915 79.4247 24.8774 79.4247 24.7628C79.4277 24.1122 79.4338 23.4623 79.4223 22.8117C79.418 22.5745 79.4956 22.4934 79.7357 22.4959C80.8668 22.5062 81.9986 22.5099 83.1298 22.494C83.4214 22.4898 83.5056 22.5751 83.505 22.8696C83.4959 26.9542 83.499 31.0393 83.499 35.1239C83.499 35.622 83.4996 35.6226 83.9979 35.6232C84.4628 35.6238 84.9272 35.6287 85.3921 35.622C85.594 35.619 85.6843 35.6909 85.6825 35.9055C85.6758 36.8707 85.6764 37.8359 85.6825 38.8011C85.6837 38.998 85.6122 39.0663 85.4164 39.0657C83.7493 39.0602 82.0829 39.0657 80.4158 39.0602C79.9727 39.0584 79.752 38.82 79.7508 38.3731C79.7484 37.5908 79.7508 36.8085 79.7496 36.0256C79.7496 35.9208 79.7393 35.8153 79.6678 35.6994C79.5841 35.8982 79.5053 36.0994 79.4168 36.2957C78.5651 38.1877 77.1108 39.2139 75.0497 39.3651C73.4997 39.4791 72.0369 39.1944 70.7027 38.3688C69.2193 37.4512 68.2524 36.1134 67.7226 34.4684C66.8964 31.9027 66.8867 29.3266 67.8742 26.8048C68.7441 24.5829 70.3444 23.0922 72.6468 22.4538C74.0398 22.0678 75.4583 22.0093 76.8386 22.5672C77.9395 23.0123 78.7142 23.8055 79.2095 24.8835C79.2459 24.9622 79.2871 25.0378 79.3265 25.1152C79.3483 25.1122 79.3701 25.1091 79.3926 25.1061ZM79.5793 30.5296C79.5205 30.1522 79.4514 29.4644 79.3016 28.7949C78.8003 26.5493 76.7835 25.2914 74.5757 25.8402C73.1305 26.1993 72.217 27.1554 71.7381 28.5413C71.2713 29.8924 71.2652 31.282 71.5902 32.6557C71.9951 34.3666 72.9584 35.5641 74.8018 35.8067C76.6034 36.0439 78.4045 35.336 79.1361 33.3788C79.4429 32.5581 79.5447 31.7082 79.5793 30.5296Z" fill="#191B20"/>
	<path d="M43.6582 21.6952C42.8962 21.3495 42.1972 20.9788 41.4619 20.7099C39.4378 19.9709 37.3519 19.6794 35.252 20.2831C32.3616 21.1135 30.6133 23.0701 30.0071 26.0334C29.6531 27.7656 29.8332 29.4545 30.5818 31.0557C31.562 33.1507 33.1988 34.4964 35.4278 35.0317C37.992 35.6481 40.4308 35.1457 42.7622 33.9909C43.0483 33.8494 43.3302 33.6994 43.6533 33.5324C43.6618 33.6787 43.6721 33.7769 43.6721 33.8744C43.6733 35.114 43.6667 36.3536 43.6782 37.5938C43.6806 37.8437 43.5945 37.9754 43.3708 38.0828C42.0839 38.7004 40.7235 39.0516 39.3184 39.2559C37.8265 39.4729 36.3347 39.4546 34.864 39.1473C32.4313 38.6388 30.3175 37.5114 28.5965 35.6859C27.2508 34.2592 26.3281 32.594 25.8322 30.6886C25.3315 28.7643 25.3012 26.8248 25.7486 24.8993C26.3796 22.1836 27.8188 19.9678 30.0441 18.2874C31.7336 17.0113 33.634 16.2498 35.7309 15.99C38.3685 15.6632 40.8957 16.0693 43.3205 17.1564C43.5733 17.2698 43.6854 17.4107 43.6812 17.7058C43.6642 18.9246 43.6745 20.1447 43.6733 21.3635C43.6727 21.472 43.6636 21.58 43.6582 21.6952Z" fill="#191B20"/>
	<path d="M148.633 43.2625C149.41 43.2625 150.156 43.2686 150.902 43.26C151.325 43.2551 151.75 43.2484 152.17 43.2058C152.76 43.1454 153.205 42.8192 153.432 42.282C153.901 41.1723 154.333 40.0462 154.761 38.9194C154.808 38.7974 154.761 38.6182 154.709 38.484C154.142 36.9981 153.566 35.5159 152.99 34.0337C152.198 31.9941 151.403 29.9558 150.611 27.9163C149.954 26.2261 149.3 24.5354 148.644 22.8446C148.609 22.7519 148.576 22.658 148.527 22.5239C148.653 22.5135 148.749 22.4995 148.844 22.4995C150.146 22.4983 151.45 22.5032 152.753 22.494C152.967 22.4928 153.073 22.5526 153.144 22.7666C154.121 25.7518 155.107 28.7345 156.09 31.7179C156.347 32.4959 156.599 33.2752 156.878 34.1288C156.958 34.0044 157.021 33.9373 157.048 33.8575C157.466 32.6404 157.88 31.4222 158.294 30.2046C158.947 28.2864 159.601 26.3688 160.253 24.4506C160.435 23.9135 160.622 23.3769 160.792 22.8355C160.869 22.5934 160.985 22.4873 161.262 22.4916C162.534 22.5093 163.807 22.4989 165.08 22.5001C165.186 22.5001 165.293 22.5111 165.443 22.5196C165.186 23.1946 164.948 23.8269 164.705 24.4567C163.516 27.5383 162.325 30.6186 161.137 33.7001C159.884 36.9518 158.635 40.2047 157.379 43.4551C157.04 44.3337 156.599 45.1508 155.847 45.752C155.013 46.4196 154.039 46.6739 152.994 46.6812C151.641 46.6909 150.287 46.6781 148.934 46.6885C148.68 46.6903 148.607 46.6074 148.61 46.3568C148.623 45.4325 148.615 44.5081 148.616 43.5832C148.616 43.4935 148.626 43.4033 148.633 43.2625Z" fill="#191B20"/>
	<path d="M114.54 39.062C114.41 39.062 114.302 39.062 114.195 39.062C113.083 39.062 111.972 39.0523 110.862 39.0687C110.571 39.073 110.486 38.9895 110.487 38.6944C110.497 35.5653 110.492 32.4362 110.494 29.3077C110.494 28.6425 110.426 27.9925 110.148 27.3773C109.718 26.4285 108.96 25.917 107.957 25.8341C107.403 25.7883 106.813 25.8115 106.281 25.9566C104.951 26.3194 104.307 27.3187 104.095 28.6321C104.035 29.0107 104.018 29.3997 104.018 29.7845C104.012 32.741 104.015 35.697 104.014 38.6535C104.014 39.062 104.013 39.0626 103.598 39.0626C102.487 39.0626 101.376 39.0547 100.265 39.0687C99.9967 39.0724 99.9258 38.9901 99.9258 38.7236C99.9331 33.4306 99.9331 28.1382 99.9264 22.8452C99.9258 22.5848 99.9882 22.4903 100.263 22.494C101.384 22.5086 102.505 22.508 103.626 22.4946C103.899 22.4915 103.971 22.5867 103.965 22.8476C103.949 23.5074 103.959 24.1683 103.961 24.8286C103.961 24.9353 103.972 25.042 103.982 25.2408C104.066 25.1189 104.1 25.0798 104.123 25.0341C104.971 23.2775 106.384 22.3745 108.3 22.2129C109.403 22.1196 110.48 22.219 111.508 22.6397C113.055 23.2726 113.978 24.4573 114.361 26.0682C114.479 26.5669 114.55 27.0901 114.552 27.6023C114.568 31.2899 114.561 34.9775 114.56 38.6651C114.559 38.7834 114.548 38.9035 114.54 39.062Z" fill="#191B20"/>
	<path d="M178.968 27.0613C178.52 26.8126 178.141 26.587 177.749 26.3864C176.5 25.748 175.176 25.4285 173.774 25.5407C173.348 25.5748 172.917 25.6797 172.51 25.8181C171.981 25.998 171.662 26.3937 171.622 26.9723C171.583 27.5271 171.871 27.9296 172.336 28.143C172.918 28.4112 173.531 28.6271 174.147 28.807C175.278 29.1368 176.437 29.3819 177.497 29.9246C179.009 30.6989 179.859 31.8946 179.963 33.6451C180.128 36.4175 178.434 38.268 176.1 38.9893C174.464 39.4954 172.803 39.4905 171.133 39.1942C170.035 38.9997 168.974 38.6857 167.995 38.1376C167.896 38.0815 167.792 37.926 167.791 37.815C167.777 36.6267 167.782 35.4383 167.783 34.2494C167.783 34.2018 167.798 34.1536 167.806 34.1085C168.433 34.4402 169.035 34.7865 169.66 35.0835C170.719 35.5865 171.84 35.9041 173.012 35.9145C173.619 35.9194 174.239 35.8157 174.831 35.67C175.455 35.5158 175.866 35.0798 175.931 34.4036C176.001 33.6701 175.666 33.1073 175.024 32.8287C174.279 32.5055 173.487 32.294 172.713 32.0397C171.824 31.7477 170.907 31.5227 170.047 31.1605C168.492 30.505 167.684 29.2789 167.547 27.5832C167.389 25.612 168.402 23.859 170.239 22.9859C171.219 22.5201 172.253 22.2908 173.331 22.2158C174.95 22.103 176.531 22.2665 178.077 22.778C178.965 23.0719 178.969 23.0603 178.969 23.9828C178.969 24.8767 178.969 25.7705 178.969 26.6644C178.968 26.7747 178.968 26.8857 178.968 27.0613Z" fill="#191B20"/>
	<path d="M194.271 34.1256C195.079 34.5262 195.822 34.9389 196.599 35.2694C197.833 35.7938 199.126 36.048 200.471 35.8651C200.816 35.8182 201.16 35.7206 201.49 35.6029C202.643 35.1914 202.75 33.6024 201.754 32.9903C201.197 32.6476 200.55 32.436 199.923 32.2312C198.898 31.8964 197.837 31.6684 196.827 31.2977C195.659 30.869 194.711 30.1227 194.307 28.8801C193.542 26.526 194.284 24.1663 196.764 22.9701C197.732 22.503 198.762 22.2878 199.831 22.2158C201.439 22.1079 203.011 22.2652 204.547 22.7749C205.457 23.0768 205.46 23.0652 205.46 24.0218C205.46 24.9059 205.46 25.79 205.46 26.6735C205.46 26.7839 205.46 26.8942 205.46 27.0711C205.226 26.9357 205.038 26.8302 204.853 26.7205C203.437 25.8803 201.921 25.4138 200.265 25.5419C199.819 25.5766 199.368 25.687 198.945 25.8364C198.48 26.0004 198.188 26.365 198.117 26.8753C198.043 27.4119 198.262 27.8509 198.717 28.0734C199.328 28.3728 199.976 28.6118 200.629 28.8057C201.739 29.1362 202.875 29.3819 203.927 29.8965C205.7 30.7654 206.526 32.2421 206.457 34.2231C206.37 36.7132 204.696 38.3315 202.584 38.9954C201.689 39.2771 200.768 39.4009 199.84 39.3985C198.034 39.3942 196.294 39.043 194.654 38.2522C194.384 38.1223 194.253 37.9552 194.261 37.6236C194.286 36.5876 194.27 35.5511 194.27 34.5146C194.271 34.3853 194.271 34.2561 194.271 34.1256Z" fill="#191B20"/>
	<path d="M145.274 27.2858C145.274 31.0747 145.274 34.8635 145.274 38.6523C145.274 39.062 145.273 39.0627 144.858 39.0627C143.798 39.0633 142.737 39.0645 141.677 39.062C141.141 39.0608 141.201 39.1157 141.201 38.5962C141.2 32.0142 141.2 25.4317 141.2 18.8497C141.2 18.2436 141.23 18.3217 140.685 18.3186C140.109 18.3156 139.534 18.3101 138.958 18.3217C138.745 18.3259 138.649 18.2778 138.652 18.0375C138.664 17.0827 138.662 16.1279 138.654 15.1731C138.652 14.9578 138.732 14.8932 138.938 14.8938C140.746 14.8993 142.553 14.8926 144.361 14.8999C144.93 14.9023 145.273 15.2974 145.273 15.9187C145.274 19.7082 145.274 23.497 145.274 27.2858Z" fill="#191B20"/>
	<path d="M189.813 30.9637C189.813 33.5349 189.808 36.1055 189.819 38.6767C189.821 38.9834 189.742 39.0743 189.432 39.0694C188.321 39.0505 187.209 39.0499 186.098 39.0694C185.78 39.0749 185.714 38.9712 185.715 38.6706C185.725 34.5855 185.721 30.5003 185.721 26.4152C185.721 25.9475 185.72 25.9475 185.258 25.9469C184.531 25.9463 183.804 25.9396 183.076 25.9506C182.839 25.9542 182.734 25.8993 182.738 25.6305C182.754 24.6957 182.752 23.7604 182.739 22.8257C182.735 22.5782 182.8 22.4922 183.058 22.4934C185.069 22.5032 187.079 22.4977 189.09 22.4995C189.599 22.5001 189.81 22.7099 189.811 23.2202C189.813 25.8018 189.813 28.3827 189.813 30.9637Z" fill="#191B20"/>
	<path d="M91.0209 39.0375C91.0209 38.8796 91.0209 38.7498 91.0209 38.6199C91.0209 34.5372 91.0209 30.4545 91.0209 26.3711C91.0209 25.9498 91.0203 25.9486 90.6062 25.948C89.8491 25.9468 89.0913 25.9407 88.3342 25.9516C88.0941 25.9553 88.0177 25.8669 88.0196 25.6322C88.0287 24.6877 88.0274 23.7432 88.0202 22.7988C88.0184 22.578 88.0899 22.4957 88.3166 22.4963C90.3462 22.503 92.3757 22.4982 94.4053 22.5018C94.8084 22.5024 94.9951 22.6604 95.0812 23.0585C95.1085 23.1859 95.1121 23.3201 95.1121 23.4512C95.1133 28.5192 95.1133 33.5872 95.1133 38.6553C95.1133 38.7748 95.1133 38.8943 95.1133 39.0388C93.7451 39.0375 92.4085 39.0375 91.0209 39.0375Z" fill="#191B20"/>
	<path d="M189.664 19.0103C189.572 19.0176 189.484 19.0298 189.395 19.0298C188.133 19.031 186.871 19.0255 185.61 19.0353C185.365 19.0371 185.275 18.9707 185.277 18.7115C185.29 17.5439 185.288 16.3763 185.278 15.2087C185.276 14.9703 185.349 14.8916 185.587 14.8928C186.859 14.902 188.131 14.8977 189.403 14.8965C189.564 14.8965 189.697 14.8934 189.695 15.1276C189.686 16.3763 189.69 17.6256 189.689 18.8743C189.689 18.9127 189.675 18.9512 189.664 19.0103Z" fill="#191B20"/>
	<path d="M92.794 14.8973C93.4099 14.8973 94.0258 14.904 94.6416 14.8936C94.8659 14.8899 94.9654 14.9466 94.9629 15.1985C94.9514 16.3764 94.9538 17.555 94.9617 18.733C94.9635 18.9531 94.9023 19.0367 94.6714 19.0348C93.3989 19.0257 92.1265 19.0257 90.8541 19.0348C90.6232 19.0367 90.5625 18.9513 90.5638 18.7324C90.5716 17.5544 90.5735 16.3758 90.5625 15.1978C90.5601 14.9466 90.6595 14.8893 90.8844 14.893C91.5209 14.904 92.1575 14.8973 92.794 14.8973Z" fill="#191B20"/>
</svg>
