<svg width="157" height="56" viewBox="0 0 157 56" fill="none" xmlns="http://www.w3.org/2000/svg">
	<rect width="157" height="55.0344" rx="27.5172" fill="#FFFB1F"/>
	<path fill-rule="evenodd" clip-rule="evenodd" d="M76.919 19.4144V24.8287L76.5254 24.2941C75.5431 22.9598 73.8355 22.2416 71.6472 22.2426C69.2672 22.2435 67.3837 23.223 65.8512 25.2568C65.1752 26.154 64.7534 26.9111 64.4187 27.8281C63.9639 29.0743 63.8634 29.6823 63.8633 31.1885C63.8632 32.3554 63.8977 32.7082 64.0923 33.5364C64.8306 36.6771 66.1126 38.5021 68.3566 39.6073C71.433 41.1225 75.0817 40.4069 76.6089 37.9887C76.7551 37.7573 76.9007 37.5679 76.9326 37.5679C76.9644 37.5678 77.0152 37.9962 77.0453 38.5201C77.0754 39.044 77.1301 39.5723 77.1667 39.6941L77.2331 39.9156L78.7152 39.9399L80.1972 39.9641V26.9821V14H78.5581H76.919V19.4144ZM105.52 19.161C105.488 20.8091 105.468 20.9933 105.277 21.4242C104.871 22.3392 104.068 22.7714 102.774 22.7714H102.081V24.3219V25.8724H103.676H105.271L105.273 31.0334C105.274 36.707 105.29 36.9057 105.803 37.9219C106.353 39.0129 107.271 39.7179 108.585 40.0592C109.372 40.2638 110.676 40.265 111.468 40.0619C111.993 39.9275 112.045 39.8922 112.113 39.6272C112.154 39.4686 112.176 38.8396 112.162 38.2295L112.138 37.1202L110.986 37.1003C109.942 37.0822 109.797 37.0596 109.44 36.8589C109.157 36.6995 108.983 36.5139 108.82 36.1969L108.594 35.7563L108.569 30.7701L108.544 25.7838H110.318H112.093V24.2795V22.7751L110.299 22.7511L108.505 22.7271L108.481 20.047L108.458 17.3668H107.007H105.555L105.52 19.161ZM89.8412 21.9291C87.0011 22.4694 85.1963 24.084 84.4624 26.7412C84.3316 27.2149 84.3119 27.3972 84.3889 27.4212C84.4469 27.4392 85.1123 27.5988 85.8676 27.7758C86.6229 27.9529 87.2866 28.1125 87.3424 28.1306C87.4032 28.1503 87.5038 27.9256 87.5926 27.5719C87.909 26.3122 88.661 25.3672 89.6595 24.9744C90.3892 24.6873 92.0177 24.6828 92.9233 24.9653C93.7191 25.2136 94.3455 25.7449 94.6425 26.4236C94.9267 27.0732 94.9435 28.1379 94.6753 28.5011C94.3913 28.8859 94.1293 28.971 92.394 29.2418C88.4157 29.8628 87.5743 30.0502 86.5842 30.5358C84.9834 31.321 84.0119 32.9823 84.0083 34.9412C84.0047 36.8825 85.1312 38.6812 86.8678 39.5065C87.9487 40.0203 88.6853 40.1684 89.8824 40.1131C91.0664 40.0583 91.684 39.9043 92.6898 39.4132C93.3055 39.1125 93.583 38.903 94.2108 38.2645L94.9787 37.4836L95.0333 38.1679C95.0633 38.5444 95.109 39.0219 95.1346 39.2289L95.1815 39.6055H96.7812H98.3809L98.3146 39.4061C98.2781 39.2964 98.2199 36.3959 98.1852 32.9605C98.1146 25.9661 98.1447 26.2922 97.4462 24.9421C96.4565 23.0289 94.3992 21.9314 91.6266 21.8377C90.8799 21.8124 90.2983 21.8422 89.8412 21.9291ZM32.6963 22.4203C29.5259 22.7906 26.7558 24.9855 25.6168 28.0296C25.2997 28.8772 25.0009 30.3923 25 31.1566C24.9979 33.0948 25.7932 35.3391 27.0281 36.8798C28.938 39.2627 32.2635 40.5629 35.011 40.0011C37.9915 39.3915 40.2851 37.6011 41.4903 34.943C42.1978 33.3826 42.4669 31.179 42.1437 29.5936C41.5381 26.6232 39.8261 24.3966 37.2129 23.1806C36.2232 22.72 35.5916 22.5415 34.5237 22.4203C33.6458 22.3207 33.5484 22.3207 32.6963 22.4203ZM123.423 22.416C121.469 22.6585 119.696 23.5452 118.295 24.9803C117.053 26.2524 116.296 27.7408 115.91 29.6697C115.678 30.8261 115.677 31.6362 115.907 32.7826C116.639 36.435 119.047 39.0146 122.529 39.8783C123.665 40.1599 124.847 40.2209 125.626 40.0379C127.873 39.5101 129.164 38.8273 130.49 37.4644C131.79 36.1288 132.578 34.5616 132.916 32.6406C133.088 31.6657 132.986 29.8297 132.706 28.8497C132.09 26.6909 130.824 24.9323 129.058 23.7812C127.394 22.6968 125.283 22.1852 123.423 22.416ZM52.4097 22.6749C51.1373 23.0207 50.1908 23.6553 49.3575 24.7215L48.877 25.3363L48.8523 24.1868L48.8275 23.0372H47.2353H45.6431V31.6315V40.2257H47.2822H48.9213L48.9228 34.8432C48.9245 28.9654 48.9353 28.8161 49.4376 27.7082C50.1114 26.2221 51.5943 25.3944 53.2872 25.5593C54.9221 25.7186 55.9745 26.5258 56.4779 28.0066C56.6674 28.5641 56.6716 28.6842 56.6987 34.4002L56.7264 40.2257H58.3667H60.007L59.9725 33.9572C59.9335 26.8937 59.9567 27.1575 59.2393 25.6275C58.5884 24.2389 57.4903 23.2643 56.0605 22.8058C55.0607 22.4852 53.3354 22.4233 52.4097 22.6749ZM73.6514 25.4348C75.1804 25.8778 76.1848 27.0615 76.7228 29.0542C76.9225 29.7939 76.9518 30.0756 76.9495 31.2328C76.9464 32.7841 76.7936 33.4932 76.1962 34.7277C75.287 36.6066 73.3477 37.694 71.4257 37.4024C68.8558 37.0127 67.2433 34.6657 67.2478 31.3214C67.2501 29.527 67.6142 28.246 68.4576 27.064C69.5985 25.4651 71.5946 24.8389 73.6514 25.4348ZM34.812 25.9171C37.2071 26.4818 38.9175 28.6695 38.9333 31.1885C38.9393 32.1456 38.8041 32.7268 38.3562 33.6693C37.4534 35.5692 35.3735 36.7999 33.3189 36.6499C30.107 36.4153 27.8244 33.3045 28.4988 30.081C28.6656 29.2839 29.2186 28.1714 29.7446 27.5746C30.1439 27.1218 30.842 26.5915 31.4514 26.2783C32.3209 25.8314 33.7824 25.6743 34.812 25.9171ZM126.004 26.0458C128.537 26.9109 130.071 29.514 129.601 32.1536C129.12 34.8577 126.67 36.8436 124.054 36.6498C121.68 36.4737 119.677 34.6712 119.224 32.303C118.984 31.0455 119.118 29.9682 119.655 28.8431C120.174 27.7564 121.057 26.8508 122.136 26.2999C123.195 25.7589 124.846 25.6505 126.004 26.0458ZM94.9547 32.0513C95.1976 34.3196 93.7299 36.5548 91.5929 37.1709C91.2089 37.2817 90.8361 37.3124 90.1743 37.2879C89.412 37.2597 89.2001 37.2173 88.7704 37.0071C87.8755 36.5691 87.3738 35.7582 87.3738 34.7491C87.3738 34.006 87.5385 33.5909 88.0364 33.0791C88.4094 32.6957 88.585 32.5905 89.1225 32.4284C89.6784 32.2608 94.1643 31.4832 94.6984 31.462C94.8715 31.4551 94.8971 31.5139 94.9547 32.0513Z" fill="#191B20"/>
</svg>
