<svg width="84" height="10" viewBox="0 0 84 10" fill="none" xmlns="http://www.w3.org/2000/svg">
	<path d="M14.9999 5.5C14.9999 7.98528 13.0079 10 10.5507 10C8.09352 10 6.10156 7.98528 6.10156 5.5C6.10156 3.01472 8.09352 1 10.5507 1C13.0079 1 14.9999 3.01472 14.9999 5.5Z" fill="#F79E1B"/>
	<path d="M8.89831 5.5C8.89831 7.98528 6.90635 10 4.44915 10C1.99195 10 0 7.98528 0 5.5C0 3.01472 1.99195 1 4.44915 1C6.90635 1 8.89831 3.01472 8.89831 5.5Z" fill="#FF5F00"/>
	<path fill-rule="evenodd" clip-rule="evenodd" d="M7.51976 2.24352C6.64616 3.06303 6.10183 4.21901 6.10183 5.5C6.10183 6.78099 6.64616 7.93697 7.51976 8.75648C6.72128 9.52693 5.63984 10 4.44915 10C1.99195 10 0 7.98528 0 5.5C0 3.01472 1.99195 1 4.44915 1C5.63984 1 6.72128 1.47307 7.51976 2.24352Z" fill="#EB221B"/>
	<path d="M31.9984 9.50001H33.4264V0.992012H31.4704L28.7464 7.48401L25.9864 0.992012H24.0664V9.50001H25.4704V3.26001L28.0984 9.50001H29.3464L31.9984 3.23601V9.50001Z" fill="black"/>
	<path d="M34.6528 7.91601C34.6528 8.14401 34.7008 8.37201 34.7968 8.57601C34.8808 8.79201 35.0127 8.98401 35.1927 9.15201C35.3607 9.30801 35.5648 9.44001 35.8048 9.53601C36.0568 9.63201 36.3328 9.68001 36.6328 9.68001C37.1008 9.68001 37.4848 9.58401 37.7848 9.39201C38.0848 9.18801 38.3008 8.98401 38.4328 8.75601C38.4328 8.98401 38.4448 9.16401 38.4568 9.28401C38.4688 9.41601 38.4808 9.48801 38.4928 9.50001H39.7888C39.7768 9.46401 39.7648 9.36801 39.7408 9.20001C39.7288 9.04401 39.7168 8.82801 39.7168 8.56401V5.66001C39.7168 5.37201 39.6688 5.09601 39.5728 4.83201C39.4888 4.56801 39.3447 4.34001 39.1407 4.13601C38.9487 3.93201 38.6968 3.77601 38.3728 3.65601C38.0608 3.53601 37.6768 3.47601 37.2328 3.47601C36.8728 3.47601 36.5488 3.52401 36.2488 3.63201C35.9608 3.74001 35.7088 3.87201 35.5048 4.05201C35.3008 4.23201 35.1328 4.43601 35.0008 4.66401C34.8688 4.89201 34.7968 5.13201 34.7728 5.38401L36.0448 5.67201C36.0808 5.37201 36.1888 5.12001 36.3928 4.91601C36.5968 4.71201 36.8728 4.61601 37.2448 4.61601C37.6288 4.61601 37.9047 4.70001 38.0848 4.86801C38.2648 5.04801 38.3488 5.25201 38.3488 5.50401C38.3488 5.61201 38.3248 5.69601 38.2648 5.76801C38.2048 5.85201 38.0848 5.90001 37.9168 5.92401L36.4168 6.15201C36.1648 6.18801 35.9368 6.26001 35.7208 6.34401C35.5048 6.42801 35.3248 6.54801 35.1688 6.69201C35.0128 6.84801 34.8808 7.01601 34.7968 7.22001C34.7008 7.42401 34.6528 7.65201 34.6528 7.91601ZM36.8968 8.58801C36.6208 8.58801 36.4048 8.51601 36.2608 8.36001C36.1168 8.20401 36.0448 8.03601 36.0448 7.83201C36.0448 7.59201 36.1168 7.41201 36.2728 7.28001C36.4288 7.16001 36.6088 7.07601 36.8248 7.04001L38.3488 6.81201V7.07601C38.3488 7.36401 38.3128 7.60401 38.2288 7.79601C38.1448 7.98801 38.0488 8.14401 37.9168 8.25201C37.7848 8.37201 37.6288 8.45601 37.4488 8.50401C37.2688 8.56401 37.0888 8.58801 36.8968 8.58801Z" fill="black"/>
	<path d="M41.9637 7.58001L40.7517 7.91601C40.7637 8.08401 40.8238 8.26401 40.9198 8.46801C41.0158 8.67201 41.1597 8.86401 41.3517 9.04401C41.5437 9.22401 41.7837 9.38001 42.0837 9.50001C42.3837 9.62001 42.7437 9.68001 43.1637 9.68001C43.5357 9.68001 43.8597 9.62001 44.1357 9.51201C44.4117 9.40401 44.6517 9.24801 44.8317 9.06801C45.0117 8.88801 45.1437 8.69601 45.2397 8.46801C45.3237 8.25201 45.3717 8.03601 45.3717 7.80801C45.3717 7.37601 45.2277 7.00401 44.9517 6.68001C44.6637 6.36801 44.2437 6.15201 43.6917 6.03201L42.8037 5.85201C42.6237 5.81601 42.4797 5.74401 42.3717 5.63601C42.2637 5.52801 42.2157 5.39601 42.2157 5.24001C42.2157 5.06001 42.2997 4.89201 42.4557 4.76001C42.6117 4.62801 42.8037 4.56801 43.0557 4.56801C43.2477 4.56801 43.4158 4.59201 43.5478 4.65201C43.6798 4.71201 43.7877 4.79601 43.8717 4.88001C43.9557 4.96401 44.0157 5.06001 44.0518 5.16801C44.0878 5.27601 44.1237 5.36001 44.1357 5.44401L45.3118 5.10801C45.2878 4.96401 45.2277 4.79601 45.1437 4.61601C45.0597 4.42401 44.9398 4.24401 44.7598 4.07601C44.5798 3.90801 44.3518 3.76401 44.0758 3.65601C43.7998 3.53601 43.4637 3.47601 43.0557 3.47601C42.7558 3.47601 42.4678 3.52401 42.2038 3.63201C41.9518 3.72801 41.7237 3.86001 41.5317 4.02801C41.3397 4.20801 41.1838 4.40001 41.0758 4.62801C40.9678 4.85601 40.9077 5.10801 40.9077 5.36001C40.9077 5.76801 41.0397 6.12801 41.3037 6.42801C41.5677 6.74001 41.9637 6.95601 42.4797 7.06401L43.3438 7.25601C43.5717 7.30401 43.7518 7.38801 43.8598 7.49601C43.9678 7.60401 44.0278 7.74801 44.0278 7.90401C44.0278 8.08401 43.9557 8.24001 43.7997 8.37201C43.6557 8.50401 43.4398 8.57601 43.1518 8.57601C42.7798 8.57601 42.4918 8.48001 42.2878 8.27601C42.0958 8.07201 41.9877 7.84401 41.9637 7.58001Z" fill="black"/>
	<path d="M48.3339 3.65601V1.86801H47.0739V2.74401C47.0739 2.99601 47.0019 3.21201 46.8579 3.39201C46.7139 3.57201 46.4859 3.65601 46.1739 3.65601H45.8739V4.89201H46.9539V7.83201C46.9539 8.38401 47.1099 8.81601 47.4219 9.11601C47.7339 9.41601 48.1659 9.57201 48.7059 9.57201C48.9579 9.57201 49.1619 9.56001 49.2939 9.52401C49.4259 9.47601 49.5219 9.45201 49.5579 9.44001V8.28801C49.5219 8.30001 49.4619 8.30001 49.3659 8.31201C49.2699 8.32401 49.1739 8.33601 49.0779 8.33601C48.8259 8.33601 48.6339 8.27601 48.5139 8.15601C48.3939 8.04801 48.3339 7.85601 48.3339 7.60401V4.89201H49.5459V3.65601H48.3339Z" fill="black"/>
	<path d="M54.5178 5.93601H51.6498C51.6618 5.78001 51.6978 5.62401 51.7698 5.46801C51.8418 5.31201 51.9378 5.18001 52.0578 5.04801C52.1778 4.92801 52.3218 4.83201 52.5018 4.76001C52.6698 4.67601 52.8618 4.64001 53.0778 4.64001C53.3178 4.64001 53.5218 4.67601 53.7018 4.74801C53.8818 4.82001 54.0258 4.91601 54.1458 5.03601C54.2658 5.15601 54.3618 5.30001 54.4218 5.45601C54.4818 5.61201 54.5058 5.76801 54.5178 5.93601ZM55.8498 7.83201L54.6738 7.46001C54.5778 7.74801 54.4218 7.98801 54.1938 8.19201C53.9658 8.38401 53.6298 8.48001 53.2098 8.48001C52.9938 8.48001 52.7898 8.44401 52.6098 8.37201C52.4178 8.28801 52.2498 8.18001 52.1058 8.04801C51.9618 7.91601 51.8418 7.74801 51.7578 7.56801C51.6738 7.38801 51.6258 7.18401 51.6138 6.95601H55.8858C55.8978 6.94401 55.8978 6.89601 55.9098 6.81201C55.9218 6.72801 55.9218 6.62001 55.9218 6.51201C55.9218 6.04401 55.8618 5.63601 55.7298 5.26401C55.5978 4.89201 55.4178 4.56801 55.1778 4.30401C54.9258 4.04001 54.6258 3.83601 54.2778 3.69201C53.9178 3.54801 53.5098 3.47601 53.0658 3.47601C52.6938 3.47601 52.3458 3.54801 51.9978 3.70401C51.6498 3.84801 51.3498 4.05201 51.0858 4.32801C50.8218 4.59201 50.6178 4.91601 50.4618 5.28801C50.3058 5.66001 50.2218 6.08001 50.2218 6.54801C50.2218 7.04001 50.3058 7.48401 50.4738 7.86801C50.6298 8.26401 50.8458 8.58801 51.1218 8.85201C51.3978 9.12801 51.7098 9.33201 52.0698 9.46401C52.4298 9.60801 52.8138 9.68001 53.2098 9.68001C53.5578 9.68001 53.8818 9.63201 54.1698 9.53601C54.4578 9.44001 54.7098 9.30801 54.9378 9.14001C55.1658 8.97201 55.3458 8.78001 55.5018 8.55201C55.6578 8.32401 55.7658 8.08401 55.8498 7.83201Z" fill="black"/>
	<path d="M60.4535 5.03601V3.62001C60.4175 3.60801 60.3695 3.60801 60.3095 3.59601C60.2495 3.58401 60.1655 3.58401 60.0815 3.58401C59.6975 3.58401 59.3495 3.66801 59.0495 3.84801C58.7495 4.02801 58.5215 4.26801 58.3895 4.59201V3.65601H57.0335V9.50001H58.4255V6.71601C58.4255 6.16401 58.5575 5.74401 58.8095 5.44401C59.0615 5.14401 59.4575 5.00001 59.9975 5.00001C60.1415 5.00001 60.2975 5.01201 60.4535 5.03601Z" fill="black"/>
	<path d="M63.8629 4.76001C64.0909 4.76001 64.2829 4.79601 64.4389 4.85601C64.5949 4.91601 64.7389 5.00001 64.8589 5.10801C64.9669 5.21601 65.0629 5.32401 65.1349 5.45601C65.1949 5.58801 65.2429 5.72001 65.2789 5.85201L66.5269 5.39601C66.4669 5.16801 66.3589 4.92801 66.2269 4.70001C66.0949 4.47201 65.9149 4.26801 65.6869 4.08801C65.4589 3.90801 65.1949 3.75201 64.8949 3.64401C64.5949 3.53601 64.2469 3.47601 63.8509 3.47601C63.4309 3.47601 63.0349 3.54801 62.6749 3.70401C62.3149 3.86001 62.0029 4.07601 61.7269 4.35201C61.4509 4.62801 61.2469 4.95201 61.0909 5.33601C60.9349 5.70801 60.8629 6.12801 60.8629 6.57201C60.8629 7.01601 60.9469 7.43601 61.1029 7.80801C61.2589 8.18001 61.4629 8.51601 61.7389 8.79201C62.0029 9.06801 62.3149 9.28401 62.6869 9.44001C63.0589 9.59601 63.4549 9.68001 63.8869 9.68001C64.2709 9.68001 64.6189 9.62001 64.9189 9.51201C65.2189 9.40401 65.4829 9.24801 65.7109 9.06801C65.9269 8.88801 66.1069 8.68401 66.2509 8.45601C66.3949 8.22801 66.5029 8.00001 66.5749 7.77201L65.3509 7.32801C65.3149 7.43601 65.2669 7.55601 65.1949 7.67601C65.1229 7.80801 65.0269 7.91601 64.9189 8.02401C64.7989 8.13201 64.6549 8.22801 64.4869 8.30001C64.3069 8.37201 64.1149 8.40801 63.8869 8.40801C63.6709 8.40801 63.4669 8.37201 63.2629 8.28801C63.0589 8.20401 62.8909 8.08401 62.7469 7.92801C62.5909 7.77201 62.4709 7.58001 62.3869 7.35201C62.3029 7.12401 62.2549 6.87201 62.2549 6.57201C62.2549 6.27201 62.3029 6.02001 62.3869 5.79201C62.4709 5.56401 62.5909 5.38401 62.7469 5.22801C62.8909 5.07201 63.0589 4.96401 63.2509 4.88001C63.4429 4.79601 63.6469 4.76001 63.8629 4.76001Z" fill="black"/>
	<path d="M67.2088 7.91601C67.2088 8.14401 67.2568 8.37201 67.3528 8.57601C67.4368 8.79201 67.5688 8.98401 67.7488 9.15201C67.9168 9.30801 68.1208 9.44001 68.3608 9.53601C68.6128 9.63201 68.8888 9.68001 69.1888 9.68001C69.6568 9.68001 70.0408 9.58401 70.3408 9.39201C70.6408 9.18801 70.8568 8.98401 70.9888 8.75601C70.9888 8.98401 71.0008 9.16401 71.0128 9.28401C71.0248 9.41601 71.0368 9.48801 71.0488 9.50001H72.3448C72.3328 9.46401 72.3208 9.36801 72.2968 9.20001C72.2848 9.04401 72.2728 8.82801 72.2728 8.56401V5.66001C72.2728 5.37201 72.2248 5.09601 72.1288 4.83201C72.0448 4.56801 71.9008 4.34001 71.6968 4.13601C71.5048 3.93201 71.2528 3.77601 70.9288 3.65601C70.6168 3.53601 70.2328 3.47601 69.7888 3.47601C69.4288 3.47601 69.1048 3.52401 68.8048 3.63201C68.5168 3.74001 68.2648 3.87201 68.0608 4.05201C67.8568 4.23201 67.6888 4.43601 67.5568 4.66401C67.4248 4.89201 67.3528 5.13201 67.3288 5.38401L68.6008 5.67201C68.6368 5.37201 68.7448 5.12001 68.9488 4.91601C69.1528 4.71201 69.4288 4.61601 69.8008 4.61601C70.1848 4.61601 70.4608 4.70001 70.6408 4.86801C70.8208 5.04801 70.9048 5.25201 70.9048 5.50401C70.9048 5.61201 70.8808 5.69601 70.8208 5.76801C70.7608 5.85201 70.6408 5.90001 70.4728 5.92401L68.9728 6.15201C68.7208 6.18801 68.4928 6.26001 68.2768 6.34401C68.0608 6.42801 67.8808 6.54801 67.7248 6.69201C67.5688 6.84801 67.4368 7.01601 67.3528 7.22001C67.2568 7.42401 67.2088 7.65201 67.2088 7.91601ZM69.4528 8.58801C69.1768 8.58801 68.9608 8.51601 68.8168 8.36001C68.6728 8.20401 68.6008 8.03601 68.6008 7.83201C68.6008 7.59201 68.6728 7.41201 68.8288 7.28001C68.9848 7.16001 69.1648 7.07601 69.3808 7.04001L70.9048 6.81201V7.07601C70.9048 7.36401 70.8688 7.60401 70.7848 7.79601C70.7008 7.98801 70.6048 8.14401 70.4728 8.25201C70.3408 8.37201 70.1848 8.45601 70.0048 8.50401C69.8248 8.56401 69.6448 8.58801 69.4528 8.58801Z" fill="black"/>
	<path d="M77.1358 5.03601V3.62001C77.0998 3.60801 77.0518 3.60801 76.9918 3.59601C76.9318 3.58401 76.8478 3.58401 76.7638 3.58401C76.3798 3.58401 76.0318 3.66801 75.7318 3.84801C75.4318 4.02801 75.2038 4.26801 75.0718 4.59201V3.65601H73.7158V9.50001H75.1078V6.71601C75.1078 6.16401 75.2398 5.74401 75.4918 5.44401C75.7438 5.14401 76.1398 5.00001 76.6798 5.00001C76.8238 5.00001 76.9798 5.01201 77.1358 5.03601Z" fill="black"/>
	<path d="M78.9372 6.56001C78.9372 5.99601 79.0932 5.55201 79.3932 5.22801C79.6932 4.90401 80.0652 4.73601 80.5212 4.73601C80.9772 4.73601 81.3492 4.89201 81.6372 5.21601C81.9132 5.54001 82.0573 5.98401 82.0573 6.54801C82.0573 6.82401 82.0212 7.07601 81.9492 7.30401C81.8652 7.53201 81.7572 7.73601 81.6252 7.89201C81.4932 8.06001 81.3253 8.19201 81.1333 8.28801C80.9413 8.37201 80.7373 8.42001 80.5093 8.42001C80.0293 8.42001 79.6453 8.25201 79.3693 7.91601C79.0813 7.56801 78.9372 7.12401 78.9372 6.56001ZM83.4012 8.43201V0.812012H82.0452V4.34001C81.9973 4.24401 81.9253 4.14801 81.8413 4.05201C81.7573 3.95601 81.6372 3.87201 81.5052 3.78801C81.3612 3.70401 81.1933 3.63201 81.0013 3.58401C80.8093 3.52401 80.5813 3.50001 80.3293 3.50001C79.9213 3.50001 79.5492 3.58401 79.2012 3.74001C78.8532 3.89601 78.5652 4.12401 78.3252 4.40001C78.0732 4.67601 77.8812 5.00001 77.7492 5.37201C77.6172 5.74401 77.5452 6.14001 77.5452 6.56001C77.5452 7.00401 77.6172 7.41201 77.7492 7.78401C77.8812 8.15601 78.0732 8.48001 78.3252 8.75601C78.5652 9.03201 78.8532 9.24801 79.2012 9.40401C79.5492 9.57201 79.9332 9.64401 80.3532 9.64401C80.7732 9.64401 81.1212 9.56001 81.4212 9.38001C81.7212 9.20001 81.9372 8.99601 82.0692 8.74401C82.0692 8.86401 82.0813 9.00801 82.0933 9.16401C82.1053 9.32001 82.1172 9.44001 82.1292 9.50001H83.4613C83.4493 9.45201 83.4373 9.33201 83.4253 9.12801C83.4133 8.92401 83.4012 8.69601 83.4012 8.43201Z" fill="black"/>
</svg>
