<svg width="30" height="11" viewBox="0 0 30 11" fill="none" xmlns="http://www.w3.org/2000/svg">
	<path fill-rule="evenodd" clip-rule="evenodd" d="M24.4898 6.90543H26.4564C26.2175 5.73998 25.9795 4.57872 25.7414 3.41745C25.7383 3.41719 25.7352 3.41694 25.7321 3.41668C25.3184 4.57849 24.9047 5.74031 24.4898 6.90543V6.90543ZM29.326 10.2082C29.1739 10.2086 29.0219 10.2092 28.8699 10.2092C28.3092 10.2094 27.7485 10.209 27.1879 10.2101C27.1495 10.2102 27.1328 10.202 27.1242 10.1596C27.0372 9.72574 26.9469 9.29258 26.8589 8.85896C26.8521 8.82515 26.8389 8.8156 26.8053 8.81564C25.8211 8.81669 24.8369 8.81675 23.8527 8.81594C23.819 8.81592 23.8036 8.82566 23.7918 8.85906C23.6385 9.2954 23.483 9.73096 23.3296 10.1673C23.3179 10.2006 23.3026 10.2104 23.2688 10.2104C22.4719 10.2095 21.675 10.2098 20.8781 10.2098C20.8635 10.2098 20.8488 10.2098 20.8281 10.2098C20.8614 10.1282 20.8923 10.052 20.9235 9.97597C22.0722 7.18441 23.2211 4.39299 24.3692 1.6012C24.5137 1.24967 24.7578 1.01323 25.1241 0.920731C25.2178 0.897084 25.3173 0.888801 25.4141 0.888395C26.0644 0.885708 26.7146 0.887392 27.3649 0.886231C27.4023 0.886156 27.4147 0.897573 27.4222 0.93476C27.5861 1.73972 27.7513 2.54436 27.9165 3.34903C28.0837 4.16316 28.2513 4.97719 28.4183 5.79135C28.5989 6.67169 28.7788 7.55217 28.9593 8.43251C29.0778 9.0104 29.1969 9.58818 29.3159 10.1659C29.3178 10.1748 29.3226 10.1831 29.326 10.1916V10.2082Z" fill="#005FBB"/>
	<path fill-rule="evenodd" clip-rule="evenodd" d="M0 1.13702C0.0160474 1.06751 0.0346934 0.998483 0.0470344 0.928297C0.0531846 0.893316 0.0665602 0.884179 0.100072 0.884278C0.489691 0.885439 0.879309 0.885082 1.26893 0.885099C2.1975 0.885124 3.12608 0.886028 4.05465 0.884651C4.36319 0.884204 4.63336 0.980118 4.85546 1.20151C5.04142 1.38687 5.14096 1.61713 5.18802 1.87476C5.28614 2.41191 5.3861 2.94871 5.48537 3.48565C5.58162 4.00632 5.678 4.52697 5.77422 5.04765C5.87596 5.59814 5.97752 6.14868 6.07929 6.69918C6.11012 6.86595 6.1414 7.03264 6.17252 7.19935C6.17365 7.20541 6.17528 7.21136 6.17903 7.2275C6.18868 7.20515 6.19488 7.19197 6.20015 7.17842C7.00952 5.09535 7.81891 3.01228 8.62736 0.928836C8.64053 0.894899 8.65693 0.884502 8.69229 0.88456C9.48782 0.885671 10.2833 0.885422 11.0789 0.885439H11.1306C11.123 0.906109 11.1182 0.920951 11.1123 0.93532C9.95657 3.74334 8.8008 6.55133 7.64506 9.35932C7.53404 9.62904 7.42263 9.89861 7.31289 10.1689C7.30004 10.2005 7.28373 10.2108 7.25029 10.2108C6.44662 10.2098 5.64293 10.2097 4.83927 10.211C4.80031 10.2111 4.78646 10.199 4.77698 10.1615C4.42654 8.77645 4.07502 7.39165 3.72352 6.00687C3.44388 4.90517 3.16476 3.80334 2.88328 2.70213C2.85576 2.59445 2.81874 2.4884 2.77653 2.38568C2.69926 2.19762 2.55518 2.07199 2.38413 1.97453C2.0956 1.81013 1.78957 1.68685 1.47842 1.57594C1.00206 1.40612 0.51601 1.27116 0.0233136 1.16048C0.0154283 1.15871 0.00777119 1.15591 0 1.1536V1.13702Z" fill="#005FBB"/>
	<path fill-rule="evenodd" clip-rule="evenodd" d="M19.378 0.714355C19.4427 0.719455 19.5074 0.725449 19.5721 0.729529C20.1802 0.76776 20.7676 0.904294 21.3403 1.1119C21.3771 1.12522 21.382 1.14011 21.3742 1.17681C21.2395 1.8119 21.1063 2.44733 20.9728 3.08266C20.9717 3.08782 20.9693 3.0927 20.966 3.1018C20.9204 3.08185 20.8763 3.06223 20.8319 3.04319C20.361 2.84093 19.8715 2.71618 19.3614 2.67646C19.0557 2.65264 18.7511 2.6541 18.4498 2.72009C18.2434 2.7653 18.0492 2.84092 17.8848 2.98039C17.8383 3.0199 17.7948 3.06511 17.7575 3.11374C17.5787 3.34707 17.583 3.61827 17.7667 3.84726C17.8745 3.98177 18.0075 4.08788 18.1534 4.17375C18.4139 4.32706 18.678 4.47427 18.9429 4.61951C19.2631 4.79506 19.582 4.97244 19.8762 5.19163C20.0951 5.35469 20.2963 5.53703 20.4674 5.75238C20.7808 6.14701 20.9384 6.59958 20.9461 7.10541C20.9531 7.56603 20.8707 8.00896 20.6751 8.42706C20.4456 8.91762 20.0974 9.30207 19.6565 9.60266C19.2075 9.90874 18.7112 10.0986 18.186 10.2147C17.6352 10.3365 17.0774 10.3764 16.515 10.3471C15.8708 10.3135 15.2359 10.2194 14.6183 10.0242C14.4827 9.98137 14.3512 9.92496 14.2178 9.87509C14.1978 9.86761 14.1874 9.85895 14.1929 9.83296C14.3338 9.16675 14.4739 8.50035 14.6142 7.834C14.6147 7.83136 14.616 7.82889 14.6189 7.82135C14.6344 7.82834 14.65 7.83495 14.6652 7.84226C14.9892 7.99768 15.3171 8.14256 15.6638 8.23883C16.175 8.38078 16.6956 8.43396 17.2235 8.39866C17.5182 8.37894 17.8027 8.30976 18.0603 8.15384C18.2395 8.04536 18.3815 7.90164 18.4401 7.69194C18.5149 7.42405 18.4483 7.19047 18.2597 6.99111C18.1102 6.83318 17.9335 6.71167 17.7462 6.60772C17.5034 6.47306 17.2556 6.34789 17.0107 6.21731C16.6284 6.01357 16.2639 5.78292 15.9446 5.48431C15.6486 5.20745 15.4118 4.88868 15.2763 4.49896C15.1745 4.20616 15.1504 3.90447 15.174 3.59656C15.2108 3.1151 15.3615 2.67467 15.6297 2.27654C15.8988 1.8771 16.2505 1.5699 16.6606 1.32951C17.1012 1.0713 17.5763 0.910115 18.0743 0.815178C18.3507 0.762479 18.6296 0.731278 18.9108 0.721411C18.9254 0.720897 18.9399 0.716785 18.9545 0.714355H19.378Z" fill="#005FBB"/>
	<path fill-rule="evenodd" clip-rule="evenodd" d="M14.517 0.885777C14.492 1.00612 14.4689 1.11805 14.4454 1.22989C14.2781 2.02587 14.1107 2.82182 13.9434 3.6178C13.7736 4.42593 13.6039 5.23407 13.4341 6.0422C13.27 6.82335 13.1058 7.60448 12.9418 8.38563C12.8165 8.98195 12.6912 9.57827 12.5668 10.1748C12.5612 10.2015 12.5509 10.2105 12.5239 10.2104C11.7582 10.2098 10.9925 10.21 10.2268 10.2099C10.2162 10.2099 10.2056 10.2082 10.1914 10.2069C10.217 10.0846 10.242 9.96483 10.2672 9.8451C10.4262 9.08825 10.5851 8.3314 10.7442 7.57455C10.8948 6.8582 11.0455 6.14186 11.1961 5.4255C11.3632 4.63088 11.5301 3.83624 11.697 3.04161C11.8447 2.33871 11.9927 1.63586 12.1392 0.932723C12.1469 0.895918 12.1603 0.884708 12.1976 0.884766C12.9538 0.88601 13.71 0.885744 14.4662 0.885777C14.4809 0.885777 14.4955 0.885777 14.517 0.885777" fill="#005FBB"/>
</svg>
