<svg width="36" height="36" viewBox="0 0 36 36" fill="none" xmlns="http://www.w3.org/2000/svg">
<path d="M18 36C27.9411 36 36 27.9411 36 18C36 8.05887 27.9411 0 18 0C8.05887 0 0 8.05887 0 18C0 27.9411 8.05887 36 18 36Z" fill="url(#paint0_linear_322_534)"/>
<path d="M25.8773 25.1721L19.7907 10.4567C19.4474 9.69584 18.9371 9.32471 18.2644 9.32471H17.7263C17.0536 9.32471 16.5433 9.69584 16.2 10.4567L13.551 16.868H11.5469C10.9485 16.8726 10.4614 17.3551 10.4567 17.9582V17.9721C10.4614 18.5706 10.9485 19.0577 11.5469 19.0623H12.6232L10.0949 25.1721C10.0485 25.3067 10.0206 25.4458 10.0206 25.5897C10.0206 25.933 10.1273 26.202 10.3175 26.4108C10.5077 26.6196 10.7815 26.7216 11.1248 26.7216C11.3521 26.717 11.5701 26.6474 11.751 26.5129C11.9459 26.3783 12.0804 26.1835 12.1871 25.9608L14.9706 19.0577H16.9005C17.499 19.0531 17.9861 18.5706 17.9907 17.9675V17.9397C17.9861 17.3412 17.499 16.8541 16.9005 16.8495H15.8706L17.9954 11.5562L23.7851 25.9562C23.8918 26.1788 24.0263 26.3737 24.2211 26.5082C24.4021 26.6428 24.6247 26.7123 24.8474 26.717C25.1907 26.717 25.4598 26.6149 25.6546 26.4062C25.8495 26.1974 25.9515 25.9283 25.9515 25.585C25.9562 25.4458 25.933 25.302 25.8773 25.1721Z" fill="white"/>
<defs>
<linearGradient id="paint0_linear_322_534" x1="31.4205" y1="6.70762" x2="4.63654" y2="29.2436" gradientUnits="userSpaceOnUse">
<stop stop-color="#B6509E"/>
<stop offset="1" stop-color="#2EBAC6"/>
</linearGradient>
</defs>
</svg>
