<svg width="36" height="36" viewBox="0 0 36 36" fill="none" xmlns="http://www.w3.org/2000/svg">
<path d="M18 36C27.9411 36 36 27.9411 36 18C36 8.05888 27.9411 0 18 0C8.05888 0 0 8.05888 0 18C0 27.9411 8.05888 36 18 36Z" fill="black"/>
<path d="M9.98938 28L13.3274 22.2399L16.6655 16.5L19.9832 10.7399L20.5327 9.82716L20.777 10.7399L21.7947 14.5326L20.6549 16.5L17.3168 22.2399L13.9991 28H17.9885L21.3265 22.2399L23.0566 19.2584L23.8708 22.2399L25.4177 28H29L27.4531 22.2399L25.9062 16.5L25.4991 15.0194L27.9823 10.7399H24.3593L24.2372 10.3139L22.9752 5.60847L22.8124 5H19.3319L19.2504 5.12169L15.9938 10.7399L12.6558 16.5L9.33805 22.2399L6 28H9.98938Z" fill="white"/>
</svg>
