<svg width="36" height="36" viewBox="0 0 36 36" fill="none" xmlns="http://www.w3.org/2000/svg">
<circle cx="18" cy="18" r="18" fill="#030406"/>
<path d="M18 4L30.1244 11V25L18 32L5.87564 25V11L18 4Z" fill="#030406"/>
<path d="M18.0001 18.2334L7.7334 12.0542V24.0667L18.0001 30.1334V18.2334Z" fill="#5FAC46"/>
<path d="M18.0001 5.8667L7.7334 12.0437L18.0001 18.2334L28.2667 11.7L18.0001 5.8667Z" fill="#B8DA9D"/>
<path d="M28.2667 11.7L18 18.2333V22.6666L28.2667 15.9943V11.7Z" fill="#5FAC46"/>
<path d="M28.2667 19.4L18 25.9334V30.1334L28.2667 24.3V19.4Z" fill="#5FAC46"/>
<path d="M18 10.0667L24.5333 14.0333L21.2667 16.1333L18 14.2667V10.0667Z" fill="#030406"/>
<path d="M25 21.4999L22.2 19.8666L25.4666 17.7666L28.2666 19.3999L25 21.4999Z" fill="#B8DA9D"/>
</svg>
