<svg width="36" height="36" viewBox="0 0 36 36" fill="none" xmlns="http://www.w3.org/2000/svg">
<path d="M18 36C27.9411 36 36 27.9411 36 18C36 8.05888 27.9411 0 18 0C8.05888 0 0 8.05888 0 18C0 27.9411 8.05888 36 18 36Z" fill="#E84142"/>
<path d="M23.4769 18.2722C24.0148 17.3233 24.8828 17.3233 25.4207 18.2722L28.7704 24.2772C29.3083 25.226 28.8682 26 27.7924 26H21.0441C19.9805 26 19.5404 25.226 20.0661 24.2772L23.4769 18.2722ZM16.9975 6.71161C17.5354 5.7628 18.3912 5.7628 18.9291 6.71161L19.6749 8.08489L21.4353 11.2434C21.8632 12.1423 21.8632 13.2035 21.4353 14.1024L15.5305 24.5518C14.9926 25.4008 14.1002 25.9376 13.1099 26H8.20759C7.13177 26 6.69167 25.2385 7.22958 24.2772L16.9975 6.71161Z" fill="white"/>
</svg>
