<svg width="36" height="36" viewBox="0 0 36 36" fill="none" xmlns="http://www.w3.org/2000/svg">
<circle cx="18" cy="18" r="18" fill="#2FB459"/>
<path fill-rule="evenodd" clip-rule="evenodd" d="M22.4753 13.2498C21.8058 11.4482 19.977 11.2327 17.8379 11.556L17.1684 9L15.5355 9.38494L16.1887 11.8794C15.9764 11.9333 15.7601 11.9871 15.5438 12.041L15.5437 12.0411L15.5435 12.0411C15.3272 12.095 15.1109 12.1489 14.8987 12.2027L14.2455 9.6929L12.6126 10.0778L13.2821 12.6339C12.9392 12.7263 12.58 12.8186 12.2534 12.8956V12.8802L10 13.4192L10.4409 15.0821C10.4409 15.0821 11.6329 14.7742 11.6166 14.805C12.2697 14.651 12.58 14.9589 12.7269 15.2669L13.4944 18.1925L13.5267 18.1846C13.577 18.1722 13.6199 18.1617 13.674 18.1617L13.4944 18.2079L14.5558 22.3037C14.5721 22.5038 14.5394 22.858 14.0822 22.9658C14.1149 22.9812 12.8902 23.2429 12.8902 23.2429L13.0535 25.1831L15.1763 24.6749L15.1763 24.6749L15.1764 24.6749C15.5682 24.5825 15.9601 24.4902 16.3356 24.4132L17.0051 27L18.638 26.6151L17.9685 24.0436C18.2423 23.9883 18.5043 23.9275 18.7617 23.8677L18.7617 23.8677L18.7618 23.8677C18.9342 23.8277 19.1045 23.7881 19.2748 23.7511L19.9443 26.3071L21.5772 25.9222L20.9077 23.3353C23.602 22.5346 25.3492 21.4106 24.9409 18.8854C24.6144 16.8529 23.406 16.2062 21.7568 16.2216C22.5896 15.5287 22.9651 14.574 22.4753 13.2498ZM21.6426 19.3319C22.1064 21.1093 19.1849 21.7624 17.8504 22.0607C17.7283 22.088 17.6195 22.1123 17.5277 22.1343L16.6296 18.7006C16.7543 18.6729 16.9077 18.6342 17.0824 18.59L17.0825 18.59C18.4634 18.2411 21.1788 17.5551 21.6426 19.3319ZM16.4864 17.0894C17.5906 16.8452 20.0555 16.3 19.6341 14.6818C19.1889 13.0028 16.8292 13.6504 15.7159 13.956C15.604 13.9867 15.5047 14.014 15.4212 14.0351L16.2376 17.1454C16.3091 17.1286 16.3929 17.1101 16.4864 17.0894Z" fill="white"/>
</svg>
