<svg width="36" height="36" viewBox="0 0 36 36" fill="none" xmlns="http://www.w3.org/2000/svg">
<circle cx="18" cy="18" r="18" fill="#FCD846"/>
<path d="M13.3445 16.0541L17.9548 11.4077L22.5675 16.0566L25.25 13.3529L17.9548 6L10.662 13.3504L13.3445 16.0541Z" fill="white"/>
<path d="M8.7782 15.2698L11.4607 17.9523L8.75694 20.6561L6.07443 17.9735L8.7782 15.2698Z" fill="white"/>
<path d="M13.3446 19.8724L17.9548 24.5187L22.5673 19.8701L25.2514 22.5723L25.2501 22.5738L17.9548 29.9265L10.6618 22.5763L10.6581 22.5725L13.3446 19.8724Z" fill="white"/>
<path d="M29.8354 17.9746L27.1528 20.6573L24.4492 17.9536L27.1318 15.271L29.8354 17.9746Z" fill="white"/>
<path d="M20.6759 17.9618H20.677L17.9549 15.2183L15.9432 17.2458H15.943L15.712 17.4788L15.2352 17.9594V17.9594L15.2314 17.9631L15.2352 17.9671L17.9549 20.7082L20.677 17.9647L20.6783 17.9631L20.6759 17.9618Z" fill="white"/>
</svg>
