<svg width="36" height="36" viewBox="0 0 36 36" fill="none" xmlns="http://www.w3.org/2000/svg">
<circle cx="18" cy="18" r="18" fill="#FF8724"/>
<mask id="mask0_322_514" style="mask-type:alpha" maskUnits="userSpaceOnUse" x="0" y="0" width="36" height="36">
<circle cx="18" cy="18" r="18" fill="white"/>
</mask>
<g mask="url(#mask0_322_514)">
<path d="M7.49735 10.54L9.42484 11.0737L3.323 33.113L1.39551 32.5793L7.49735 10.54Z" fill="white"/>
<path d="M31.4975 5.54004L33.425 6.07369L27.3231 28.113L25.3956 27.5793L31.4975 5.54004Z" fill="white"/>
</g>
<path fill-rule="evenodd" clip-rule="evenodd" d="M23.966 16.2363C24.2365 14.345 22.8598 13.3282 20.9774 12.6499L21.588 10.0878L20.0971 9.69916L19.5026 12.1937C19.1107 12.0916 18.7081 11.9952 18.3081 11.8997L18.9068 9.38867L17.4168 9L16.8057 11.5612C16.4813 11.4839 16.1628 11.4075 15.8537 11.3271L15.8554 11.3191L13.7992 10.7821L13.4026 12.4478C13.4026 12.4478 14.5088 12.713 14.4855 12.7294C15.0893 12.8871 15.1984 13.3051 15.1802 13.6365L14.4846 16.5553C14.5262 16.5664 14.5802 16.5824 14.6396 16.6072L14.5891 16.594C14.5545 16.585 14.5187 16.5756 14.4821 16.5664L13.5071 20.6552C13.4332 20.847 13.2459 21.1349 12.8238 21.0256C12.8387 21.0483 11.7402 20.7427 11.7402 20.7427L11 22.5279L12.9402 23.0338C13.1569 23.0906 13.371 23.149 13.5828 23.2068L13.5829 23.2068C13.7239 23.2453 13.8639 23.2835 14.0031 23.3208L13.3861 25.9122L14.8753 26.3008L15.4863 23.737C15.8932 23.8525 16.2881 23.9591 16.6745 24.0594L16.0656 26.6113L17.5565 27L18.1735 24.4135C20.7158 24.9167 22.6276 24.7137 23.4323 22.3084C24.0807 20.3718 23.4 19.2546 22.0624 18.5261C23.0365 18.2912 23.7703 17.6209 23.966 16.2363ZM20.9477 20.8405C20.492 22.6391 17.6251 21.8955 16.3134 21.5553L16.3132 21.5552C16.1953 21.5246 16.0899 21.4973 16 21.4754L16.8828 18C16.9923 18.0268 17.1261 18.0563 17.2777 18.0897C18.6344 18.3887 21.4148 19.0014 20.9477 20.8405ZM17.2506 17.5982C18.2898 17.9185 20.5565 18.6172 20.9514 16.7903C21.3546 14.9217 19.1515 14.3584 18.0755 14.0833C17.9545 14.0524 17.8477 14.0251 17.7605 14L17 17.5225C17.0719 17.5431 17.1562 17.5691 17.2506 17.5982Z" fill="white"/>
</svg>
