<svg width="36" height="36" viewBox="0 0 36 36" fill="none" xmlns="http://www.w3.org/2000/svg">
<circle cx="18" cy="18" r="18" fill="black"/>
<path fill-rule="evenodd" clip-rule="evenodd" d="M30.8714 12.6428C31.2285 13.4857 31.5 14.3571 31.6857 15.2571C31.8714 16.1714 31.9714 17.1143 31.9857 18.0714C31.9857 19.0143 31.8857 19.9571 31.7 20.8714C31.5143 21.7714 31.2428 22.6428 30.8857 23.4857C30.5285 24.3143 30.1 25.1143 29.6 25.8571C29.1 26.6 28.5285 27.2857 27.9 27.9143C27.2714 28.5428 26.5857 29.1143 25.8428 29.6143C25.0857 30.1143 24.3 30.5571 23.4714 30.9C22.6285 31.2571 21.7571 31.5285 20.8571 31.7143C19.9428 31.9 19 32 18.0571 32C17.1143 32 16.1714 31.9 15.2571 31.7143C14.3571 31.5285 13.4857 31.2571 12.6428 30.9C11.8143 30.5428 11.0143 30.1143 10.2714 29.6143C9.52854 29.1143 8.84283 28.5428 8.21425 27.9143C7.58568 27.2857 7.01425 26.6 6.51425 25.8571C6.01425 25.1 5.5714 24.3143 5.22854 23.4857C4.8714 22.6428 4.59997 21.7714 4.41425 20.8714C4.22854 19.9571 4.12854 19.0143 4.12854 18.0714C4.12854 17.1285 4.22854 16.1857 4.41425 15.2714C4.59997 14.3714 4.8714 13.5 5.22854 12.6571C5.58568 11.8285 6.01425 11.0285 6.51425 10.2857C7.01425 9.54283 7.58568 8.85711 8.21425 8.22854C8.84283 7.59997 9.52854 7.02854 10.2714 6.52854C11.0285 6.02854 11.8143 5.58568 12.6428 5.24283C13.4857 4.88568 14.3571 4.61425 15.2571 4.42854C16.1714 4.24283 17.1 4.12854 18.0428 4.12854C18.9857 4.12854 19.9285 4.22854 20.8428 4.41425C21.7428 4.59997 22.6143 4.8714 23.4571 5.22854C24.2857 5.58568 25.0857 6.01425 25.8285 6.51425C26.5714 7.01425 27.2571 7.58568 27.8857 8.21425C28.5143 8.84283 29.0857 9.52854 29.5857 10.2714C30.0857 11.0285 30.5285 11.8143 30.8714 12.6428ZM5.88568 18.0571C5.88568 24.7714 11.3285 30.2285 18.0571 30.2285C24.7857 30.2285 30.2285 24.7857 30.2285 18.0571C30.2285 11.3428 24.7714 5.88568 18.0571 5.88568C11.3428 5.88568 5.88568 11.3428 5.88568 18.0571Z" fill="white"/>
<path d="M18.2714 29.1857H18.5999C18.6571 29.1857 18.7142 29.1857 18.7714 29.1714H18.7857C18.8428 29.1714 18.8857 29.1714 18.9428 29.1571H18.9857C19.0285 29.1571 19.0714 29.1571 19.1142 29.1429H19.1571C19.1999 29.1429 19.2428 29.1286 19.2999 29.1286H19.3285C19.3857 29.1286 19.4428 29.1143 19.4999 29.1143C19.5571 29.1143 19.5999 29.1 19.6571 29.0857H19.6857C19.7285 29.0857 19.7714 29.0714 19.8142 29.0714H19.8428C19.8999 29.0571 19.9428 29.0571 19.9999 29.0429C20.1142 29.0286 20.2285 29 20.3285 28.9714H20.3571C20.3999 28.9571 20.4571 28.9571 20.4999 28.9429H20.5142C20.6285 28.9143 20.7285 28.8857 20.8428 28.8571C19.4714 28.9 18.3571 28.7143 17.6571 28.5571C16.0857 28.2143 14.5857 27.6 13.3142 26.5429C11.1999 24.7714 10.1142 22.2286 10.1428 19.7C10.1571 17.8143 10.7999 15.9286 12.0999 14.3857C13.7285 12.4571 16.0428 11.4429 18.4142 11.3857H18.7428V9.48572H18.3714C17.6428 9.5 16.9285 9.58572 16.2285 9.74286C15.5142 9.9 14.8285 10.1429 14.1714 10.4429C13.4999 10.7571 12.8714 11.1429 12.2857 11.5857C11.6857 12.0429 11.1285 12.5714 10.6428 13.1571C10.1857 13.7 9.78566 14.2857 9.45708 14.9143C9.12851 15.5143 8.87137 16.1571 8.67137 16.8143C8.48565 17.4571 8.3428 18.1286 8.28565 18.8C8.27137 19.0143 8.25708 19.2143 8.2428 19.4286V19.8C8.25708 20.5286 8.3428 21.2429 8.49994 21.9429C8.65708 22.6571 8.89994 23.3429 9.19994 24C9.55708 24.7857 10.1999 25.9429 11.1571 26.8143C13.0428 28.3 15.4285 29.1857 18.0142 29.1857H18.2714V29.1857Z" fill="white"/>
<path d="M21.3857 27.3429C20.7286 27.3286 19.9143 27.2286 19.2857 27.1143C16.3428 26.5857 13.8143 24.7857 12.8857 22.0714C11.7571 18.7714 13.4857 15.2 16.7714 14.1143C17.4143 13.9 18.0571 13.8 18.7143 13.8C19.5571 13.8 20.4 13.9714 21.1714 14.2857L21.9714 12.5857C21.7286 12.4857 21.4857 12.4 21.2428 12.3143C20.4286 12.0572 19.5714 11.9286 18.7143 11.9286C17.8571 11.9286 17 12.0714 16.1857 12.3429C15.1428 12.6857 14.1857 13.2429 13.3714 13.9714C12.9857 14.3143 12.6143 14.7143 12.3 15.1286C11.9857 15.5429 11.7143 15.9857 11.4857 16.4572C11.2571 16.9286 11.0714 17.4143 10.9428 17.9143C10.8143 18.4143 10.7143 18.9429 10.6857 19.4714C10.6143 20.5572 10.7571 21.6429 11.1143 22.6714C11.4714 23.7143 12.0428 24.6714 12.8286 25.5143C13.5286 26.2714 14.3428 26.8429 15.3286 27.3714C16.3571 27.9143 17.6286 28.2 18.9571 28.3857C19.8143 28.5 20.9571 28.5286 21.6286 28.5286C22.2143 28.3143 22.4571 28.2143 22.7714 28.0857C23.0428 27.9572 23.3143 27.8286 23.5857 27.6714C23.8571 27.5143 23.9 27.4857 24.3571 27.1857C24.4 27.1572 24.4428 27.1286 24.4714 27.1C22.9 27.3857 22.5 27.3714 21.3857 27.3429Z" fill="white"/>
<path d="M24.9 25.2285C24.4571 25.2571 23.8286 25.2999 23.1143 25.2999C21.8428 25.2999 20.2857 25.1856 18.9571 24.7428C16.9 24.0571 14.9571 22.2999 14.9571 20.1285C14.9571 17.9571 16.7143 16.2142 18.8714 16.2142C20.3428 16.2142 21.6143 17.0285 22.2857 18.2142L23.9857 17.3714C23.7143 16.8714 23.3857 16.4142 22.9714 16.0142C22.4428 15.4856 21.8143 15.0571 21.1286 14.7714C20.4143 14.4714 19.6571 14.3142 18.8714 14.3142C18.0857 14.3142 17.3286 14.4714 16.6143 14.7714C15.9286 15.0571 15.3 15.4856 14.7714 16.0142C14.2428 16.5428 13.8143 17.1714 13.5286 17.8571C13.2286 18.5714 13.0714 19.3285 13.0714 20.1142C13.0714 20.8999 13.2428 21.6856 13.5714 22.4285C13.8714 23.0856 14.2857 23.6999 14.8143 24.2714C15.7428 25.2714 17.0143 26.0714 18.3714 26.5285C19.6714 26.9571 21.5857 27.1142 23.4428 26.9856C23.9571 26.9571 24.3428 26.8999 25 26.7571C25.6286 26.2571 26.2143 25.6856 26.7143 25.0571C26.2857 25.0999 25.4714 25.1856 24.9 25.2285Z" fill="white"/>
</svg>
