<svg width="36" height="36" viewBox="0 0 36 36" fill="none" xmlns="http://www.w3.org/2000/svg">
<circle cx="18" cy="18" r="18" fill="#2992FA"/>
<rect x="6" y="6" width="24" height="24" fill="white" fill-opacity="0.01"/>
<path fill-rule="evenodd" clip-rule="evenodd" d="M25.8673 12.6854C26.2296 12.3807 26.2764 11.8401 25.9718 11.4777C23.9664 9.09242 21.0734 7.72607 17.9993 7.72607C12.4807 7.72607 7.73181 12.1668 7.73181 18.0167C7.73181 23.8393 12.5294 28.3074 17.9993 28.3074C20.948 28.3074 23.6077 27.1376 25.9487 24.5739C26.2679 24.2243 26.2432 23.6822 25.8937 23.3629C25.5441 23.0437 25.0019 23.0684 24.6827 23.4179C22.667 25.6255 20.4669 26.5931 17.9993 26.5931C13.45 26.5931 9.4461 22.8642 9.4461 18.0167C9.4461 13.1402 13.4027 9.44036 17.9993 9.44036C20.5638 9.44036 22.9778 10.5805 24.6596 12.5809C24.9642 12.9432 25.5049 12.99 25.8673 12.6854ZM20.2693 16.5392C20.5653 16.1697 20.5057 15.6303 20.1362 15.3344C19.5113 14.8338 18.8819 14.5737 18.0001 14.5737C16.0311 14.5737 14.5658 16.1559 14.5658 18C14.5658 19.844 16.031 21.4259 18.0001 21.4259C18.5902 21.4259 19.114 21.2737 19.5852 21.0172C19.7851 20.9083 19.9511 20.7947 20.0837 20.6958C20.4747 20.4288 20.5751 19.8955 20.3082 19.5046C20.0412 19.1136 19.5079 19.0131 19.117 19.2801C18.9573 19.3957 18.8759 19.4515 18.7656 19.5115C18.5312 19.6391 18.2818 19.7116 18.0001 19.7116C17.0084 19.7116 16.2801 18.9253 16.2801 18C16.2801 17.0745 17.0085 16.288 18.0001 16.288C18.4551 16.288 18.7227 16.3986 19.0645 16.6724C19.434 16.9683 19.9734 16.9087 20.2693 16.5392ZM12.0104 18.4537C11.5508 18.5668 11.2698 19.0311 11.3828 19.4908C12.0097 22.0393 13.8507 23.8418 16.0505 24.4831C17.7711 24.9846 19.4364 24.8309 20.9536 24.0837C21.3783 23.8745 21.553 23.3607 21.3439 22.9361C21.1347 22.5114 20.6209 22.3367 20.1962 22.5458C19.0607 23.1051 17.8365 23.218 16.5303 22.8373C14.899 22.3617 13.5231 21.0146 13.0475 19.0813C12.9344 18.6216 12.4701 18.3406 12.0104 18.4537ZM21.8835 21.2304C22.1948 20.8738 22.7363 20.837 23.0929 21.1483C23.4496 21.4596 23.4863 22.001 23.175 22.3577L23.0169 22.5389C22.7056 22.8955 22.1641 22.9323 21.8075 22.621C21.4508 22.3097 21.414 21.7683 21.7253 21.4116L21.8835 21.2304ZM11.3828 16.5124C11.2698 16.972 11.5508 17.4364 12.0104 17.5494C12.4701 17.6625 12.9344 17.3815 13.0475 16.9218C13.5231 14.9885 14.899 13.6414 16.5303 13.1658C17.8365 12.7851 19.0607 12.8981 20.1962 13.4573C20.6209 13.6665 21.1347 13.4917 21.3439 13.0671C21.553 12.6424 21.3783 12.1286 20.9536 11.9194C19.4364 11.1722 17.7711 11.0185 16.0505 11.5201C13.8507 12.1613 12.0097 13.9638 11.3828 16.5124ZM23.0929 15.0329C22.7363 15.3442 22.1948 15.3075 21.8835 14.9508L21.7253 14.7696C21.414 14.413 21.4508 13.8715 21.8075 13.5602C22.1641 13.2489 22.7056 13.2857 23.0169 13.6423L23.175 13.8235C23.4863 14.1802 23.4496 14.7217 23.0929 15.0329Z" fill="#282F40"/>
<mask id="mask0_322_482" style="mask-type:alpha" maskUnits="userSpaceOnUse" x="7" y="7" width="20" height="22">
<path fill-rule="evenodd" clip-rule="evenodd" d="M25.8673 12.6854C26.2296 12.3807 26.2764 11.8401 25.9718 11.4777C23.9664 9.09242 21.0734 7.72607 17.9993 7.72607C12.4807 7.72607 7.73181 12.1668 7.73181 18.0167C7.73181 23.8393 12.5294 28.3074 17.9993 28.3074C20.948 28.3074 23.6077 27.1376 25.9487 24.5739C26.2679 24.2243 26.2432 23.6822 25.8937 23.3629C25.5441 23.0437 25.0019 23.0684 24.6827 23.4179C22.667 25.6255 20.4669 26.5931 17.9993 26.5931C13.45 26.5931 9.4461 22.8642 9.4461 18.0167C9.4461 13.1402 13.4027 9.44036 17.9993 9.44036C20.5638 9.44036 22.9778 10.5805 24.6596 12.5809C24.9642 12.9432 25.5049 12.99 25.8673 12.6854ZM20.2693 16.5392C20.5653 16.1697 20.5057 15.6303 20.1362 15.3344C19.5113 14.8338 18.8819 14.5737 18.0001 14.5737C16.0311 14.5737 14.5658 16.1559 14.5658 18C14.5658 19.844 16.031 21.4259 18.0001 21.4259C18.5902 21.4259 19.114 21.2737 19.5852 21.0172C19.7851 20.9083 19.9511 20.7947 20.0837 20.6958C20.4747 20.4288 20.5751 19.8955 20.3082 19.5046C20.0412 19.1136 19.5079 19.0131 19.117 19.2801C18.9573 19.3957 18.8759 19.4515 18.7656 19.5115C18.5312 19.6391 18.2818 19.7116 18.0001 19.7116C17.0084 19.7116 16.2801 18.9253 16.2801 18C16.2801 17.0745 17.0085 16.288 18.0001 16.288C18.4551 16.288 18.7227 16.3986 19.0645 16.6724C19.434 16.9683 19.9734 16.9087 20.2693 16.5392ZM12.0104 18.4537C11.5508 18.5668 11.2698 19.0311 11.3828 19.4908C12.0097 22.0393 13.8507 23.8418 16.0505 24.4831C17.7711 24.9846 19.4364 24.8309 20.9536 24.0837C21.3783 23.8745 21.553 23.3607 21.3439 22.9361C21.1347 22.5114 20.6209 22.3367 20.1962 22.5458C19.0607 23.1051 17.8365 23.218 16.5303 22.8373C14.899 22.3617 13.5231 21.0146 13.0475 19.0813C12.9344 18.6216 12.4701 18.3406 12.0104 18.4537ZM21.8835 21.2304C22.1948 20.8738 22.7363 20.837 23.0929 21.1483C23.4496 21.4596 23.4863 22.001 23.175 22.3577L23.0169 22.5389C22.7056 22.8955 22.1641 22.9323 21.8075 22.621C21.4508 22.3097 21.414 21.7683 21.7253 21.4116L21.8835 21.2304ZM11.3828 16.5124C11.2698 16.972 11.5508 17.4364 12.0104 17.5494C12.4701 17.6625 12.9344 17.3815 13.0475 16.9218C13.5231 14.9885 14.899 13.6414 16.5303 13.1658C17.8365 12.7851 19.0607 12.8981 20.1962 13.4573C20.6209 13.6665 21.1347 13.4917 21.3439 13.0671C21.553 12.6424 21.3783 12.1286 20.9536 11.9194C19.4364 11.1722 17.7711 11.0185 16.0505 11.5201C13.8507 12.1613 12.0097 13.9638 11.3828 16.5124ZM23.0929 15.0329C22.7363 15.3442 22.1948 15.3075 21.8835 14.9508L21.7253 14.7696C21.414 14.413 21.4508 13.8715 21.8075 13.5602C22.1641 13.2489 22.7056 13.2857 23.0169 13.6423L23.175 13.8235C23.4863 14.1802 23.4496 14.7217 23.0929 15.0329Z" fill="white"/>
</mask>
<g mask="url(#mask0_322_482)">
<rect x="6" y="6" width="24" height="24" fill="white"/>
</g>
</svg>
