<svg width="36" height="36" viewBox="0 0 36 36" fill="none" xmlns="http://www.w3.org/2000/svg">
<path d="M17.9773 0C27.9069 0 35.9547 8.04944 35.9547 17.9773C35.9547 27.9069 27.9069 35.9547 17.9773 35.9547C8.04944 35.9547 0 27.9061 0 17.9773C0 8.04944 8.04944 0 17.9773 0Z" fill="#F5AC37"/>
<path fill-rule="evenodd" clip-rule="evenodd" d="M9.41586 27.8874V27.9546L9.41263 27.957V27.9683H17.2105C18.0931 27.9804 18.9724 27.9101 19.8397 27.7547C20.753 27.5759 21.6429 27.2944 22.4916 26.9126C22.8595 26.7421 23.2125 26.5362 23.5687 26.3284C23.6589 26.2758 23.7493 26.223 23.8401 26.1707C24.2592 25.8722 24.6604 25.5486 25.0423 25.2048C26.0875 24.2599 26.8965 23.0812 27.4021 21.7666C27.4361 21.6194 27.5801 21.5247 27.7281 21.553H29.8517C30.0208 21.553 30.0766 21.4964 30.0766 21.3055V19.9456C30.088 19.8153 30.088 19.6835 30.0766 19.5532C30.0766 19.5192 30.0854 19.4852 30.0941 19.4513C30.1115 19.3837 30.1289 19.3164 30.0766 19.249H28.3025C28.0881 19.249 28.0881 19.2264 28.0881 19.0355C28.1496 18.351 28.1496 17.6642 28.0881 16.9798C28.0768 16.7776 28.1221 16.7776 28.2791 16.7776H29.8299C30.0103 16.7776 30.0774 16.7323 30.0774 16.5527V14.7098C30.0719 14.5877 30.069 14.5258 30.0366 14.4945C30.0034 14.4622 29.9389 14.4622 29.808 14.4622H27.7969C27.64 14.4889 27.4895 14.383 27.4612 14.226C27.2306 13.6233 26.9369 13.0465 26.5834 12.5069C26.2275 11.9746 25.8262 11.4746 25.3813 11.0127C24.7899 10.4221 24.1257 9.90925 23.4041 9.48453C22.316 8.85271 21.126 8.41019 19.8874 8.18125C19.2863 8.07042 18.6788 8.00327 18.0672 7.979H9.64076C9.41586 7.979 9.41586 8.02431 9.41586 8.2039V14.26C9.41586 14.4736 9.37056 14.4736 9.20229 14.4736H6.78665C6.60706 14.4736 6.60706 14.5067 6.60706 14.6305V16.6077C6.60706 16.7873 6.66288 16.7873 6.79798 16.7873H9.23627C9.41586 16.7873 9.41586 16.8204 9.41586 16.9555V19.0678C9.41586 19.2587 9.35924 19.2587 9.21362 19.2587H6.60706V21.3937C6.60706 21.5733 6.66288 21.5733 6.79798 21.5733H9.23627C9.41586 21.5733 9.41586 21.5951 9.41586 21.7415V24.3821V25.2695V27.8874ZM24.9331 14.281C24.9525 14.3312 24.9525 14.387 24.9331 14.438H24.9873C24.9646 14.5051 24.8522 14.5278 24.8522 14.5278H11.8865C11.6729 14.5278 11.6729 14.4825 11.6729 14.3142V10.3259C11.6729 10.1795 11.6956 10.1123 11.8639 10.1123H17.8973C18.5396 10.1066 19.1804 10.1738 19.8073 10.3146C21.0499 10.609 22.206 11.1947 23.1784 12.0223C23.3725 12.1671 23.5457 12.3378 23.6953 12.5279C24.0124 12.8426 24.2907 13.1929 24.527 13.5732C24.6839 13.7956 24.819 14.0327 24.9331 14.281ZM25.4711 19.2466H18.64H11.9431C11.8065 19.2466 11.7392 19.2466 11.706 19.2129C11.6738 19.1802 11.6738 19.1157 11.6738 18.9885V16.9887C11.6738 16.831 11.7191 16.7751 11.8873 16.7751H25.4824C25.6288 16.7751 25.696 16.831 25.696 16.9661C25.7518 17.6618 25.7518 18.3608 25.696 19.0557C25.6854 19.2466 25.6167 19.2466 25.4711 19.2466ZM24.9331 21.5838C24.7422 21.5627 24.5496 21.5627 24.3587 21.5838H11.8987C11.7304 21.5838 11.6738 21.5838 11.6738 21.8087V25.708C11.6738 25.8876 11.6738 25.9329 11.8987 25.9329H17.6514C17.9264 25.9539 18.2015 25.9345 18.4709 25.8771C19.3058 25.8172 20.1269 25.636 20.91 25.3375C21.1947 25.2388 21.4698 25.1101 21.7295 24.9556H21.808C23.1565 24.2542 24.2519 23.1524 24.9428 21.7998C24.9428 21.7998 25.0213 21.6299 24.9331 21.5854V21.5838Z" fill="#FEFEFD"/>
</svg>
