<svg width="36" height="36" viewBox="0 0 36 36" fill="none" xmlns="http://www.w3.org/2000/svg">
<rect width="36" height="36" rx="18" fill="#2992FA"/>
<path d="M21.3281 8.05859H12.3438L11.6016 12.2188L19.707 12.2383C23.7109 12.2383 24.8828 13.6836 24.8438 16.0859C24.8242 17.3164 24.2969 19.4062 24.0625 20.0898C23.4375 21.8867 22.1875 23.9375 17.4414 23.9375H9.55078L8.80859 28.0977H17.7734C20.9375 28.0977 22.2852 27.7266 23.7109 27.0625C26.875 25.5977 28.75 22.4922 29.4922 18.4102C30.625 12.375 29.2188 8.05859 21.3281 8.05859" fill="white"/>
<path d="M8.45703 15.9883C6.09375 15.9883 5.76172 17.5312 5.54688 18.4492C5.25391 19.6602 5.15625 20.1484 5.15625 20.1484H14.3555C16.7188 20.1484 17.0508 18.6055 17.2656 17.6875C17.5586 16.4766 17.6562 15.9883 17.6562 15.9883H8.45703V15.9883Z" fill="white"/>
</svg>
