<svg width="36" height="36" viewBox="0 0 36 36" fill="none" xmlns="http://www.w3.org/2000/svg">
<circle cx="18" cy="18" r="18" fill="#C2A633"/>
<path fill-rule="evenodd" clip-rule="evenodd" d="M9 23.2737V27.9871C9.16941 27.9871 9.31276 27.9871 9.45611 28H20.6114C21.1978 28 21.7972 27.9227 22.3576 27.7939C25.6025 27.0856 27.5573 24.9865 28.4695 21.9343C29.1602 19.5905 29.1472 17.1951 28.5999 14.8255C28.2741 13.4604 27.6485 12.2112 26.7363 11.1294C25.7068 9.91887 24.4166 9.05602 22.944 8.50225C22.2143 8.21893 21.4845 8 20.6504 8C17.8364 8.01931 15.037 8.0169 12.2303 8.01449C11.2936 8.01368 10.3561 8.01288 9.41702 8.01288H9.01303V12.5332H11.7888V23.2737H9ZM18.044 23.2678C17.8548 23.2643 17.6639 23.2608 17.4707 23.2608V12.5332C17.7234 12.5332 17.9761 12.524 18.2271 12.5149C18.8174 12.4935 19.3981 12.4724 19.9467 12.5718C20.4159 12.6491 20.885 13.0869 21.2238 13.4733C21.7972 14.1558 22.2273 14.98 22.3967 15.8815C22.6964 17.3883 22.8659 18.9079 22.4358 20.4018C22.2403 21.0844 21.8363 21.6639 21.3802 22.2434C20.8459 22.926 20.1292 23.1706 19.3342 23.2479C18.9071 23.2838 18.4799 23.2759 18.044 23.2678Z" fill="white"/>
</svg>
