<svg width="36" height="36" viewBox="0 0 36 36" fill="none" xmlns="http://www.w3.org/2000/svg">
<rect width="36" height="36" rx="18" fill="url(#paint0_linear_322_505)"/>
<mask id="mask0_322_505" style="mask-type:alpha" maskUnits="userSpaceOnUse" x="0" y="0" width="36" height="36">
<rect width="36" height="36" rx="18" fill="white"/>
</mask>
<g mask="url(#mask0_322_505)">
<path d="M22.126 1.40836L21.7389 1.56105C16.6185 3.64015 13.1425 7.44642 11.3344 12.9473L11.3145 13.0105L6.70399 13.0106L5 17.0655L10.6295 17.0655L10.5851 17.3362L10.5718 17.6747C10.5641 18.0076 10.5734 18.324 10.5991 18.6283L10.6285 18.9075L7.07595 18.9079L5.17823 22.8831L11.3345 22.8825L11.6373 23.9066C12.0582 25.0812 12.6008 26.2094 13.2734 27.3179C15.4095 30.7985 18.4573 33.2793 22.4031 34.7525L24.0626 35.291C25.4843 35.6969 26.9355 35.9245 28.4323 35.9791C33.1453 36.1974 37.2781 34.7541 40.7989 31.6577L40.9687 31.5084V26.2711L40.114 27.1311C36.5401 30.7273 32.418 32.2745 27.7091 31.7943C26.2421 31.6396 24.7996 31.2953 23.3825 30.7612L21.6955 29.9785L21.3305 29.7713C19.407 28.6391 17.8575 27.0735 16.7008 25.0808L15.7265 22.8825L28.6683 22.8831L30.5296 18.9079L14.7625 18.9075L14.7467 18.8409C14.6909 18.5632 14.6701 18.1823 14.692 17.704L14.7715 17.0655L31.4033 17.0655L33.2523 13.0106L15.7435 13.0105L15.7809 12.9263C17.2276 9.77397 19.4322 7.41078 22.4039 5.82278C24.0268 4.94782 25.4952 4.44628 26.8079 4.31189C30.4664 3.75976 33.7509 4.40888 36.7074 6.25735C38.1895 7.1668 39.3071 8.1349 40.0671 9.15961L40.606 9.88628L42.3358 5.44783L42.1089 5.21715C41.2753 4.36951 40.15 3.52133 38.7325 2.66877C35.8907 0.959558 32.9098 0.075261 29.7977 0.0205609C27.5767 -0.0987972 25.1846 0.301649 22.6372 1.21826L22.126 1.40836Z" fill="white"/>
</g>
<defs>
<linearGradient id="paint0_linear_322_505" x1="20.8878" y1="42.5967" x2="47.0276" y2="16.1817" gradientUnits="userSpaceOnUse">
<stop stop-color="#00BEFF"/>
<stop offset="1" stop-color="#C100F5"/>
</linearGradient>
</defs>
</svg>
