<svg width="36" height="36" viewBox="0 0 36 36" fill="none" xmlns="http://www.w3.org/2000/svg">
<path d="M18 36C27.9411 36 36 27.9411 36 18C36 8.05888 27.9411 0 18 0C8.05888 0 0 8.05888 0 18C0 27.9411 8.05888 36 18 36Z" fill="black"/>
<path d="M18.3392 17.2816L18.3407 17.2789L21.8639 15.379L20.4265 14.5491L18.361 15.6629L12.134 12.0678L18.532 8.61772L25.9781 12.9168L27.4439 12.1317L18.5843 7.01664L18.574 7.03441L18.5555 7L10.6966 11.2379L10.6922 11.2354L10.6881 11.2425L9.251 12.0174L9.26441 12.0423L18.3392 17.2816Z" fill="white"/>
<path d="M10.4127 13.6761L9 12.7993V23.0294H9.02052L9 23.0627L16.5996 27.7497V27.7548H16.6078L17.9975 28.6119L18.0123 28.5878V18.1092H18.0091L14.6022 16.008V17.6678L16.5996 18.8997V26.0899L10.4127 22.2742V13.6761Z" fill="white"/>
<path d="M18.9622 28.5612L19.0153 26.8993L26.4614 22.6002L26.6725 15.3344L20.4456 18.9296L20.3774 21.2752L18.94 22.1051L19.0562 18.1041L19.0546 18.1013L19.0563 18.1004L28.1294 12.862L28.1576 12.8628L28.1102 14.4949L28.1143 14.502L28.1099 14.5045L27.8506 23.4294L27.8116 23.4283L27.8218 23.4461L18.9622 28.5612Z" fill="white"/>
</svg>
