<svg width="36" height="36" viewBox="0 0 36 36" fill="none" xmlns="http://www.w3.org/2000/svg">
<circle cx="18" cy="18" r="18" fill="#8C41FF"/>
<path fill-rule="evenodd" clip-rule="evenodd" d="M21.0463 16.5683H14.5384V19.2551H22.8375V19.8521C22.8375 20.8671 22.3001 21.8224 21.4344 22.3299C20.3 23.0165 19.1656 23.3151 17.9118 23.3151C16.6579 23.3151 15.5534 22.9867 14.3891 22.3299C13.5234 21.8224 12.986 20.8671 12.986 19.8521V15.9712C12.986 14.9563 13.5234 14.001 14.3891 13.4935C15.5235 12.8068 16.6579 12.5083 17.9118 12.5083C19.1656 12.5083 20.2701 12.8367 21.4344 13.4935C22.0912 13.8815 22.539 14.5085 22.7479 15.2249H25.4944C25.2556 13.5532 24.2704 12.0307 22.8076 11.1649C21.6732 10.5082 20.509 10.0902 19.285 9.9111V7.61243H16.5982V9.9111C15.3742 10.0902 14.21 10.5082 13.0756 11.1649C11.374 12.1501 10.3291 14.001 10.3291 15.9712V19.8223C10.3291 21.7926 11.374 23.6435 13.0756 24.6286C14.21 25.2854 15.3742 25.7033 16.5982 25.8824V28.1811H19.285V25.8824C20.509 25.7033 21.6732 25.2854 22.8076 24.6286C24.5093 23.6435 25.5541 21.7926 25.5541 19.8223V16.9265V16.5385H22.8673L21.0463 16.5683Z" fill="white"/>
</svg>
