<svg width="36" height="36" viewBox="0 0 36 36" fill="none" xmlns="http://www.w3.org/2000/svg">
<circle cx="18" cy="18" r="18" fill="#2992FA"/>
<path fill-rule="evenodd" clip-rule="evenodd" d="M10.8998 9.50806C10.1916 9.50708 9.53173 9.87198 9.16077 10.4731C8.78733 11.0783 8.76207 11.8334 9.09445 12.4618L17.3456 28.1799L17.3533 28.1799C17.4872 28.4345 17.7542 28.6081 18.0618 28.6081C18.4072 28.6081 18.7014 28.3892 18.8134 28.0827L27.0301 12.4601C27.3616 11.8334 27.3363 11.0783 26.9629 10.4731C26.5919 9.87198 25.932 9.50708 25.2227 9.50806L10.8998 9.50806ZM18.8618 24.5535L25.6148 11.7137C25.682 11.5868 25.6769 11.436 25.6013 11.3134C25.5231 11.1868 25.3804 11.1078 25.2238 11.1081L18.8618 11.1081V24.5535ZM17.2618 11.1081L10.8987 11.1081C10.7432 11.1078 10.6005 11.1868 10.5224 11.3134C10.4467 11.436 10.4417 11.5868 10.51 11.7159L17.2618 24.5779V11.1081Z" fill="white"/>
</svg>
