<svg width="36" height="36" viewBox="0 0 36 36" fill="none" xmlns="http://www.w3.org/2000/svg">
<path d="M18 36C27.9411 36 36 27.9411 36 18C36 8.05888 27.9411 0 18 0C8.05888 0 0 8.05888 0 18C0 27.9411 8.05888 36 18 36Z" fill="url(#paint0_linear_322_525)"/>
<path fill-rule="evenodd" clip-rule="evenodd" d="M12.7529 11.7V25.2H24.0029L12.7529 11.7Z" fill="url(#paint1_linear_322_525)"/>
<path fill-rule="evenodd" clip-rule="evenodd" d="M1.50293 25.2H12.7529V11.7L1.50293 25.2Z" fill="white"/>
<path fill-rule="evenodd" clip-rule="evenodd" d="M3.6001 28.8C4.6261 30.159 5.8411 31.374 7.2001 32.4H28.8001C30.1591 31.374 31.3741 30.159 32.4001 28.8H3.6001Z" fill="#FC9965"/>
<path fill-rule="evenodd" clip-rule="evenodd" d="M7.19995 32.4C10.206 34.659 13.95 36 18 36C22.05 36 25.794 34.659 28.8 32.4H7.19995Z" fill="#FF2D55"/>
<path fill-rule="evenodd" clip-rule="evenodd" d="M24.147 18.9V28.8H32.4L24.147 18.9Z" fill="url(#paint2_linear_322_525)"/>
<path fill-rule="evenodd" clip-rule="evenodd" d="M24.1469 25.2H1.50293C2.06093 26.487 2.77193 27.693 3.59993 28.8H24.1559V25.2H24.1469V25.2Z" fill="#FFBC5B"/>
<path fill-rule="evenodd" clip-rule="evenodd" d="M15.9031 28.8H24.1471V18.9L15.9031 28.8Z" fill="white"/>
<path d="M24.147 16.2C26.6323 16.2 28.647 14.1852 28.647 11.7C28.647 9.21467 26.6323 7.19995 24.147 7.19995C21.6617 7.19995 19.647 9.21467 19.647 11.7C19.647 14.1852 21.6617 16.2 24.147 16.2Z" fill="#FFC95B"/>
<path d="M12.7529 9C13.9956 9 15.0029 7.99264 15.0029 6.75C15.0029 5.50736 13.9956 4.5 12.7529 4.5C11.5103 4.5 10.5029 5.50736 10.5029 6.75C10.5029 7.99264 11.5103 9 12.7529 9Z" fill="#FFC95B"/>
<defs>
<linearGradient id="paint0_linear_322_525" x1="30.7278" y1="5.2722" x2="5.2722" y2="30.7278" gradientUnits="userSpaceOnUse">
<stop stop-color="#FF2D55"/>
<stop offset="1" stop-color="#FFBC5B"/>
</linearGradient>
<linearGradient id="paint1_linear_322_525" x1="18.3741" y1="11.7" x2="18.3741" y2="25.2" gradientUnits="userSpaceOnUse">
<stop stop-color="#A524B3"/>
<stop offset="1" stop-color="#FF2D55"/>
</linearGradient>
<linearGradient id="paint2_linear_322_525" x1="28.2707" y1="18.9" x2="28.2707" y2="28.8" gradientUnits="userSpaceOnUse">
<stop stop-color="#A524B3"/>
<stop offset="1" stop-color="#FF2D55"/>
</linearGradient>
</defs>
</svg>
