<svg width="36" height="36" viewBox="0 0 36 36" fill="none" xmlns="http://www.w3.org/2000/svg">
<g clip-path="url(#clip0_322_516)">
<path d="M0 18C0 8.05889 8.05889 0 18 0C27.9411 0 36 8.05889 36 18C36 27.9411 27.9411 36 18 36C8.05889 36 0 27.9411 0 18Z" fill="#6E7FFC"/>
<path d="M14.8772 7.32236C16.0747 6.65069 16.6734 6.31487 17.3082 6.18329C17.8701 6.06683 18.4499 6.06683 19.0118 6.18329C19.6466 6.31487 20.2453 6.65069 21.4428 7.32236L25.9068 9.82608C27.1494 10.523 27.7708 10.8715 28.223 11.3646C28.6231 11.8007 28.9257 12.3166 29.1108 12.8782C29.32 13.5129 29.32 14.2238 29.32 15.6454V20.3545C29.32 21.7761 29.32 22.487 29.1108 23.1217C28.9257 23.6833 28.6231 24.1992 28.223 24.6353C27.7708 25.1283 27.1494 25.4768 25.9068 26.1738L21.4428 28.6776C20.2453 29.3492 19.6466 29.685 19.0118 29.8166C18.4499 29.9331 17.8701 29.9331 17.3082 29.8166C16.6734 29.685 16.0747 29.3492 14.8772 28.6776L10.4132 26.1738C9.17058 25.4768 8.54922 25.1283 8.09699 24.6353C7.69689 24.1992 7.39428 23.6833 7.2092 23.1217C7 22.487 7 21.7761 7 20.3545V15.6454C7 14.2238 7 13.5129 7.2092 12.8782C7.39428 12.3166 7.69689 11.8007 8.09699 11.3646C8.54922 10.8716 9.17058 10.523 10.4132 9.82608L14.8772 7.32236Z" fill="white" fill-opacity="0.3"/>
<path d="M13.3739 22.0053C14.0064 22.0053 14.4477 21.6166 14.4477 20.8905V17.1064C14.4477 16.2263 14.9993 15.6103 15.8157 15.6103C16.61 15.6103 17.0881 16.1089 17.0881 16.9523V20.8905C17.0881 21.6166 17.4853 22.0053 18.1178 22.0053C18.7577 22.0053 19.1549 21.6166 19.1549 20.8905V17.077C19.1549 16.2043 19.6918 15.6103 20.5082 15.6103C21.3393 15.6103 21.7953 16.1089 21.7953 17.0183V20.8905C21.7953 21.6166 22.2292 22.0053 22.8617 22.0053C23.5017 22.0053 23.943 21.6166 23.943 20.8905V16.483C23.943 14.8988 22.9059 13.8428 21.3613 13.8428C20.2066 13.8428 19.2652 14.4662 18.9122 15.4563H18.868C18.6032 14.4295 17.8089 13.8428 16.6689 13.8428C15.5951 13.8428 14.7493 14.4662 14.4183 15.4122H14.3742V14.9209C14.3742 14.2022 13.9476 13.8281 13.3371 13.8281C12.7266 13.8281 12.3 14.2022 12.3 14.9209V20.8905C12.3 21.6166 12.734 22.0053 13.3739 22.0053Z" fill="white"/>
</g>
<defs>
<clipPath id="clip0_322_516">
<rect width="36" height="36" fill="white"/>
</clipPath>
</defs>
</svg>
