<svg width="36" height="36" viewBox="0 0 36 36" fill="none" xmlns="http://www.w3.org/2000/svg">
<path d="M18 36C27.9411 36 36 27.9411 36 18C36 8.05888 27.9411 0 18 0C8.05888 0 0 8.05888 0 18C0 27.9411 8.05888 36 18 36Z" fill="#8247E5"/>
<path d="M23.8293 14.0258C23.4198 13.7918 22.8933 13.7918 22.4252 14.0258L19.1491 15.9564L16.926 17.1849L13.7083 19.1155C13.2988 19.3495 12.7723 19.3495 12.3043 19.1155L9.78866 17.5944C9.37914 17.3604 9.08663 16.8924 9.08663 16.3659V13.4407C9.08663 12.9727 9.32064 12.5047 9.78866 12.2122L12.3043 10.7496C12.7138 10.5156 13.2403 10.5156 13.7083 10.7496L16.224 12.2707C16.6335 12.5047 16.926 12.9727 16.926 13.4993V15.4298L19.1491 14.1428V12.1537C19.1491 11.6857 18.9151 11.2176 18.4471 10.9251L13.7668 8.17551C13.3573 7.9415 12.8308 7.9415 12.3628 8.17551L7.56556 10.9836C7.09754 11.2176 6.86353 11.6857 6.86353 12.1537V17.6529C6.86353 18.121 7.09754 18.589 7.56556 18.8815L12.3043 21.6311C12.7138 21.8651 13.2403 21.8651 13.7083 21.6311L16.926 19.759L19.1491 18.472L22.3667 16.5999C22.7763 16.3659 23.3028 16.3659 23.7708 16.5999L26.2864 18.0625C26.6959 18.2965 26.9885 18.7645 26.9885 19.291V22.2162C26.9885 22.6842 26.7544 23.1522 26.2864 23.4447L23.8293 24.9073C23.4198 25.1413 22.8933 25.1413 22.4252 24.9073L19.9096 23.4447C19.5001 23.2107 19.2076 22.7427 19.2076 22.2162V20.3441L16.9845 21.6311V23.5617C16.9845 24.0297 17.2185 24.4978 17.6865 24.7903L22.4252 27.5399C22.8348 27.7739 23.3613 27.7739 23.8293 27.5399L28.568 24.7903C28.9775 24.5563 29.2701 24.0882 29.2701 23.5617V18.004C29.2701 17.5359 29.036 17.0679 28.568 16.7754L23.8293 14.0258Z" fill="white"/>
</svg>
