<svg width="36" height="36" viewBox="0 0 36 36" fill="none" xmlns="http://www.w3.org/2000/svg">
<rect width="36" height="36" rx="18" fill="#1EBD9E"/>
<path fill-rule="evenodd" clip-rule="evenodd" d="M8.94936 24.5253V12.3848L16.0506 17.7631V24.4628C16.0506 24.725 16.2632 24.9375 16.5253 24.9375C16.7879 24.9375 17.0007 24.7242 17 24.4616L16.9829 17.6373C17.0258 17.4591 16.9626 17.2644 16.8067 17.1473L8.82231 11.1522C8.77365 11.0999 8.71333 11.0585 8.64549 11.0324C8.46495 10.9497 8.24587 10.9939 8.11231 11.151C8.05268 11.2212 8.01828 11.304 8.00791 11.3886C8.00272 11.4168 8 11.4458 8 11.4754V24.5253C8 24.7874 8.21252 25 8.47468 25C8.73684 25 8.94936 24.7874 8.94936 24.5253ZM27.0506 24.5253V12.3849L19.9494 17.7633V24.4628C19.9494 24.725 19.7368 24.9375 19.4747 24.9375C19.2121 24.9375 18.9993 24.7242 19 24.4616L19.0171 17.6371C18.9743 17.459 19.0375 17.2644 19.1933 17.1474L27.1778 11.1522C27.2264 11.1001 27.2865 11.0589 27.3541 11.0327C27.5347 10.9498 27.754 10.9939 27.8876 11.1512C27.947 11.2211 27.9814 11.3035 27.9919 11.3878C27.9972 11.4163 28 11.4456 28 11.4756V24.5253C28 24.7874 27.7875 25 27.5253 25C27.2632 25 27.0506 24.7874 27.0506 24.5253Z" fill="white"/>
</svg>
