<svg width="36" height="36" viewBox="0 0 36 36" fill="none" xmlns="http://www.w3.org/2000/svg">
<circle cx="18" cy="18" r="18" fill="#262A3C"/>
<path fill-rule="evenodd" clip-rule="evenodd" d="M13.072 18.1274C13.072 20.5928 11.6702 22.1289 9.44116 22.1289C7.20679 22.1289 5.8103 20.5928 5.8103 18.1274C5.8103 15.6621 7.20679 14.1206 9.44116 14.1206C11.6702 14.1206 13.072 15.6621 13.072 18.1274ZM7.04028 18.1274C7.04028 19.9321 7.96948 21.0708 9.44116 21.0708C10.9128 21.0708 11.8367 19.9321 11.8367 18.1274C11.8367 16.3174 10.9128 15.1787 9.44116 15.1787C7.96948 15.1787 7.04028 16.3174 7.04028 18.1274ZM15.3118 22V16.2959H15.3494L17.6912 22H18.5828L20.9192 16.2959H20.9568V22H22.0579V14.2495H20.6614L18.1584 20.4263H18.1155L15.6072 14.2495H14.2161V22H15.3118ZM30.1628 18.7773C30.1628 20.8774 28.9221 22.1289 26.822 22.1289C24.6038 22.1289 23.2073 20.5767 23.2073 18.0898C23.2073 15.646 24.5984 14.1206 26.8059 14.1206C28.53 14.1206 29.8352 15.1411 30.1038 16.688H28.8684C28.5784 15.7266 27.821 15.1733 26.8113 15.1733C25.3289 15.1733 24.4373 16.2583 24.4373 18.0791C24.4373 19.9321 25.3557 21.0762 26.8328 21.0762C28.0896 21.0762 28.9597 20.2705 28.9758 19.0942V18.96H26.9724V17.9878H30.1628V18.7773Z" fill="white"/>
</svg>
