<svg width="36" height="36" viewBox="0 0 36 36" fill="none" xmlns="http://www.w3.org/2000/svg">
<rect width="36" height="36" rx="18" fill="#005FBB"/>
<path fill-rule="evenodd" clip-rule="evenodd" d="M18 7C11.9249 7 7 11.9249 7 18C7 24.0751 11.9249 29 18 29C24.0751 29 29 24.0752 29 18C29 11.9248 24.0752 7 18 7ZM28.4405 17.5503L27.5495 17.559L27.5459 17.1861L28.4369 17.1775L28.4405 17.5503ZM27.3291 15.7496L28.2116 15.6272L28.1603 15.2579L27.2778 15.3804L27.3291 15.7496ZM27.4517 13.2854L27.6057 13.6249L26.7948 13.9935L26.6408 13.6541L27.4517 13.2854ZM26.5869 11.8697L26.3409 11.5895L25.6716 12.1775L25.9177 12.4577L26.5869 11.8697ZM25.0357 10.1973L25.318 10.4406L24.7366 11.1153L24.4543 10.872L25.0357 10.1973ZM23.7934 9.14126L23.4805 8.93831L22.9958 9.68554L23.3084 9.88849L23.7934 9.14126ZM21.7118 8.06513L22.0723 8.15995L21.8456 9.02136L21.485 8.92643L21.7118 8.06513ZM20.1373 7.61776L19.7657 7.58674L19.6916 8.474L20.0631 8.50546L20.1373 7.61776ZM17.7515 7.352H18.1243V8.243H17.7515V7.352ZM16.172 8.47444L16.0979 7.58674L15.7259 7.61787L15.8 8.50557L16.172 8.47444ZM14.1518 8.06513L14.3785 8.92643L14.018 9.02147L13.7913 8.16006L14.1518 8.06513ZM12.8677 9.68554L12.383 8.93831L12.0701 9.14126L12.555 9.88849L12.8677 9.68554ZM10.828 10.1973L11.4095 10.872L11.1271 11.1153L10.5456 10.4406L10.828 10.1973ZM10.1921 12.1775L9.52296 11.5894L9.277 11.8697L9.94602 12.4576L10.1921 12.1775ZM8.41196 13.2853L9.22277 13.654L9.06877 13.9934L8.25785 13.6247L8.41196 13.2853ZM8.58543 15.3802L7.70312 15.2578L7.65186 15.6272L8.53417 15.7495L8.58543 15.3802ZM7.42658 17.1775L8.31758 17.1861L8.31406 17.559L7.42306 17.5503L7.42658 17.1775ZM8.3948 19.18L7.50864 19.2699L7.54626 19.6409L8.43242 19.5509L8.3948 19.18ZM7.91234 21.164L8.7798 20.9615L8.86461 21.3245L7.99715 21.5272L7.91234 21.164ZM8.69873 23.1028L8.88331 23.4267L9.65716 22.9854L9.47258 22.6613L8.69873 23.1028ZM10.1446 25.0138L9.87397 24.7576L10.4867 24.1107L10.7574 24.3672L10.1446 25.0138ZM11.268 26.0645L11.5713 26.281L12.0885 25.5561L11.785 25.3394L11.268 26.0645ZM13.2348 27.392L12.9048 27.2189L13.3194 26.4305L13.6494 26.6039L13.2348 27.392ZM14.7085 28.0385L15.0761 28.1L15.2232 27.2215L14.8554 27.16L14.7085 28.0385ZM16.6849 28.4016L16.6777 27.5106L17.0506 27.5074L17.0578 28.3984L16.6849 28.4016ZM18 8.7402C12.894 8.7402 8.7402 12.894 8.7402 18C8.7402 23.1059 12.8941 27.2598 18 27.2598C23.1059 27.2598 27.2598 23.106 27.2598 18C27.2598 12.894 23.106 8.7402 18 8.7402ZM18.726 28.4815L18.714 28.4825L18.6326 27.5955L19.004 27.5615L19.0161 27.5604L19.0975 28.4475L18.726 28.4815ZM20.5556 27.1862L20.7106 28.0635L21.0777 27.9986L20.9227 27.1213L20.5556 27.1862ZM22.6048 27.4093L22.3003 26.5721L22.6507 26.4446L22.9549 27.2818L22.6048 27.4093ZM23.7353 25.6783L24.2864 26.3782L24.5794 26.1472L24.0281 25.4473L23.7353 25.6783ZM25.7199 24.9823L25.0792 24.3636L25.3382 24.0954L25.9789 24.7142L25.7199 24.9823ZM26.1719 22.9523L26.8921 23.4767L27.1116 23.1754L26.3913 22.651L26.1719 22.9523ZM27.8436 21.6864L27.0023 21.3935L27.1249 21.0415L27.9662 21.3347L27.8436 21.6864ZM27.4792 19.6161L28.369 19.6575L28.3863 19.285L27.4964 19.2439L27.4792 19.6161Z" fill="white"/>
<path fill-rule="evenodd" clip-rule="evenodd" d="M21.2581 22.4513L21.5356 22.732L21.5346 22.7323C21.6839 22.8929 21.6881 23.1358 21.5409 23.2812C21.3937 23.4266 21.151 23.4197 20.992 23.2683V23.269L20.7145 22.9882L20.0819 22.348C19.6779 22.5442 19.2272 22.6321 18.7659 22.6153H17.0279C15.4539 22.6727 14.0001 21.8874 14.1172 19.3314C14.1207 19.2528 14.1157 18.49 14.1128 18.047C14.1117 17.8866 14.111 17.7682 14.111 17.7393C14.111 17.6848 14.1118 17.4518 14.1127 17.2197C14.1136 16.9894 14.1145 16.76 14.1145 16.7067C14.1108 14.157 14.7338 13.0006 16.4524 12.5915C16.6468 12.5452 17.7098 12.5211 17.9131 12.5211H18.0043C18.2078 12.5211 19.1463 12.5452 19.3408 12.5915C21.0593 13.001 21.6824 14.1574 21.6788 16.7073C21.6788 16.7636 21.6798 17.017 21.6807 17.2601C21.6816 17.4783 21.6824 17.6882 21.6824 17.7398C21.6824 17.7685 21.6816 17.8847 21.6805 18.0423C21.6775 18.4844 21.6724 19.2527 21.6761 19.332C21.74 20.7126 21.3443 21.312 20.7191 21.906L21.2581 22.4513ZM18.7959 21.8026C18.8231 21.8041 18.8502 21.8041 18.8773 21.8041C19.0756 21.8047 19.2729 21.7763 19.463 21.7198L19.1066 21.3592L18.8291 21.0783C18.6798 20.918 18.6756 20.6751 18.8228 20.5297C18.97 20.3842 19.213 20.3912 19.3717 20.5422L19.6493 20.8229L20.148 21.3276C20.1727 21.3045 20.1975 21.2805 20.2216 21.2554C20.6877 20.767 20.9102 20.3587 20.8648 19.3687L20.8648 19.368C20.8617 19.2998 20.8613 19.2933 20.8685 18.0562C20.8696 17.8879 20.8702 17.7665 20.8702 17.7394C20.8702 17.7055 20.8699 17.5417 20.8694 17.3293C20.8692 17.2398 20.8689 17.1418 20.8687 17.0411C20.8679 16.7319 20.8672 16.7262 20.8668 16.7236C20.8667 16.7226 20.8666 16.722 20.8666 16.7056C20.8683 15.5758 20.7404 14.5943 20.4654 14.1505C20.3023 13.8874 20.0203 13.591 19.1667 13.3853C18.9985 13.3599 18.2627 13.3337 18.0053 13.3337H17.9134C17.6559 13.3337 16.7961 13.3599 16.6278 13.3853C15.7742 13.591 15.4921 13.8874 15.329 14.1505C15.0538 14.5943 14.9262 15.5759 14.9278 16.7056C14.9278 16.722 14.9277 16.7226 14.9276 16.7236C14.9272 16.7262 14.9264 16.7317 14.9257 17.0411C14.9248 17.3806 14.9242 17.6912 14.9242 17.7394C14.9242 17.7664 14.9248 17.8879 14.9258 18.0562C14.9329 19.2954 14.9327 19.2999 14.9295 19.3684L14.9295 19.3687C14.884 20.3586 15.1066 20.7674 15.5729 21.2554C16.006 21.7089 16.5426 21.8041 16.9166 21.8041C16.9436 21.8041 16.971 21.8036 16.998 21.8026L17.0129 21.8019H18.781L18.7959 21.8026Z" fill="white"/>
</svg>
