<svg width="36" height="36" viewBox="0 0 36 36" fill="none" xmlns="http://www.w3.org/2000/svg">
<rect width="36" height="36" rx="18" fill="#5F2652"/>
<path fill-rule="evenodd" clip-rule="evenodd" d="M18.7096 7.4213L26.892 21.954C27.1141 22.3288 26.9796 22.8151 26.6168 23.0474L18.4374 27.8885C18.1737 28.0372 17.8504 28.0372 17.5867 27.8885L9.39482 23.0381C9.01322 22.8151 8.89123 22.3288 9.10392 21.954L17.2833 7.4213C17.4247 7.16177 17.6986 7 17.9964 7C18.2942 7 18.5681 7.16177 18.7096 7.4213ZM20.5081 15.9297L20.7083 16.097C21.2376 16.5557 21.6393 17.1411 21.8749 17.7974C21.9406 18.0049 21.9969 18.2155 21.9969 18.4262L22.097 18.8226C22.1971 19.1664 22.5412 20.1049 23.0667 20.3713C23.9706 20.8359 25.1404 21.412 25.8004 21.731L18.378 8.53634V14.2509C18.378 15.3691 16.7484 16.131 16.5576 16.2085L16.2104 16.3757C15.9591 16.538 15.7299 16.7316 15.5285 16.9518C15.5224 16.9639 15.515 16.9753 15.5066 16.9859L15.3847 17.1408C15.3813 17.1407 15.3781 17.142 15.3757 17.1443C15.3733 17.1466 15.3721 17.1498 15.3721 17.1532C15.3284 17.2067 15.2877 17.2625 15.2502 17.3204C15.244 17.3324 15.2367 17.3439 15.2283 17.3545C15.2111 17.3824 15.197 17.4071 15.1829 17.4319C15.1688 17.4567 15.1548 17.4815 15.1376 17.5093C15.1314 17.5214 15.1241 17.5328 15.1157 17.5434C15.0835 17.5844 15.0631 17.6254 15.0409 17.67C15.0329 17.6861 15.0247 17.7027 15.0156 17.72C15.0128 17.7264 15.0108 17.7318 15.0091 17.7365C15.0051 17.7475 15.0024 17.7546 14.9937 17.7633C14.9718 17.8067 14.9499 17.8624 14.928 17.9182C14.9236 17.9225 14.9213 17.9295 14.9188 17.937C14.9159 17.9456 14.9128 17.9549 14.9061 17.9616L14.8404 18.1598C14.8404 18.166 14.8373 18.1714 14.8342 18.1768C14.831 18.1822 14.8279 18.1877 14.8279 18.1939C14.8225 18.2257 14.8131 18.2576 14.8036 18.2894C14.7966 18.3133 14.7895 18.3372 14.7841 18.3611C14.7841 18.372 14.781 18.3805 14.7779 18.389C14.7747 18.3975 14.7716 18.406 14.7716 18.4169C14.7676 18.4416 14.7639 18.4654 14.7604 18.4884C14.7528 18.5375 14.7457 18.5832 14.7372 18.6275V18.6492C14.7347 18.6673 14.732 18.6846 14.7293 18.7014C14.722 18.7477 14.7153 18.7904 14.7153 18.8381V18.8939C14.7049 18.9667 14.7007 19.0403 14.7028 19.1138V19.1695C14.7122 19.4793 14.756 19.7766 14.8467 20.0647C14.5214 19.9098 14.2211 19.7859 13.9302 19.7209C13.8997 19.523 13.8851 19.3232 13.8864 19.1231V18.9558C13.8967 18.9164 13.901 18.8757 13.8989 18.835C13.8989 18.8133 13.9021 18.794 13.9052 18.7746C13.9083 18.7553 13.9114 18.7359 13.9114 18.7142C13.9114 18.6972 13.9146 18.6832 13.9177 18.6693C13.9208 18.6554 13.9239 18.6414 13.9239 18.6244C13.928 18.6057 13.9303 18.5864 13.9326 18.5671C13.9357 18.5416 13.9387 18.5159 13.9458 18.4912C13.9498 18.4767 13.9521 18.4628 13.9544 18.449C13.9575 18.4302 13.9605 18.4117 13.9677 18.3921C13.9718 18.3772 13.9741 18.3606 13.9765 18.3438C13.9795 18.322 13.9826 18.2998 13.9896 18.2806C13.9938 18.271 13.9961 18.259 13.9985 18.2468C14.0015 18.2312 14.0045 18.2153 14.0115 18.2032C14.016 18.1824 14.0234 18.1587 14.0312 18.1336C14.0398 18.1063 14.0488 18.0773 14.0553 18.0483C14.0593 18.039 14.0616 18.0297 14.0639 18.0204C14.067 18.008 14.0701 17.9956 14.0772 17.9832C14.0959 17.9446 14.1106 17.9041 14.121 17.8624C14.1269 17.8434 14.1342 17.8247 14.1429 17.8067L14.2086 17.6394C14.2145 17.6204 14.2218 17.6017 14.2305 17.5837C14.2414 17.5558 14.2524 17.531 14.2633 17.5063C14.2743 17.4815 14.2852 17.4567 14.2962 17.4288C14.3032 17.4236 14.3078 17.4158 14.3087 17.4071C14.3156 17.3935 14.3224 17.3786 14.3297 17.3629C14.3456 17.3287 14.3633 17.2905 14.3869 17.2523C14.3897 17.2458 14.3916 17.2404 14.3934 17.2357C14.3974 17.2248 14.4 17.2176 14.4088 17.2089L14.5089 17.0416C14.5089 17.0373 14.5115 17.035 14.5144 17.0325C14.5178 17.0297 14.5214 17.0266 14.5214 17.02C14.5386 16.9921 14.555 16.9673 14.5714 16.9425C14.5878 16.9178 14.6043 16.893 14.6215 16.8651C14.6215 16.8608 14.6242 16.8585 14.627 16.856C14.6304 16.8531 14.634 16.8501 14.634 16.8434C14.6559 16.8155 14.6754 16.7877 14.695 16.7598C14.7145 16.7319 14.7341 16.704 14.756 16.6762L14.7685 16.6638C14.8486 16.5527 14.9386 16.4491 15.0375 16.354L15.05 16.3416C15.1415 16.2372 15.2419 16.1408 15.3502 16.0536C15.5222 15.9105 15.7052 15.7811 15.8976 15.6664L15.9195 15.654C15.9427 15.6411 15.9654 15.6282 15.9878 15.6155C16.0621 15.5731 16.1335 15.5325 16.2104 15.4992L16.2761 15.4651C17.2926 15.0098 17.5929 14.4801 17.5929 14.2819V8.54563L10.2393 21.6288C10.9087 21.2416 12.016 20.6562 12.9856 20.3465C13.4548 20.2009 14.0678 20.3341 14.7935 20.743C15.103 20.921 15.3942 21.1285 15.663 21.3624L15.9539 21.6288C16.1416 21.7837 16.3449 21.9045 16.567 22.016C16.5783 22.0202 16.5909 22.0269 16.6045 22.0342C16.6209 22.043 16.6388 22.0526 16.6577 22.0593C16.662 22.0637 16.6691 22.066 16.6767 22.0684C16.6854 22.0713 16.6948 22.0744 16.7015 22.081C16.733 22.0993 16.7666 22.1139 16.8016 22.1244C16.8059 22.1287 16.813 22.131 16.8205 22.1335C16.8293 22.1364 16.8387 22.1394 16.8454 22.1461C17.1393 22.2564 17.4482 22.3232 17.7618 22.3443C17.5366 22.5518 17.3239 22.7965 17.18 23.0722C16.9892 23.0257 16.8016 22.97 16.6108 22.9049C16.5983 22.9049 16.5899 22.9009 16.5826 22.8974C16.5772 22.8948 16.5724 22.8925 16.567 22.8925C16.5477 22.8867 16.5289 22.8794 16.5107 22.8708C16.3762 22.8151 16.2542 22.7593 16.1322 22.6943C16.127 22.6873 16.119 22.6828 16.1103 22.6819L15.9758 22.6169C15.7756 22.5178 15.5973 22.3846 15.4284 22.2514L15.4065 22.2297C15.3277 22.1726 15.2534 22.1094 15.1845 22.0408L15.1501 22.0067C14.6152 21.5762 13.6675 20.9815 13.2202 21.1239C12.0816 21.477 10.696 22.2947 10.2174 22.5828L17.5835 26.9253V23.9425C17.5835 22.8275 19.2225 22.0872 19.4133 22.0098L19.479 21.9757C19.8481 21.7992 20.1703 21.5452 20.4393 21.2478C20.4449 21.2478 20.4471 21.2445 20.4508 21.2391C20.4532 21.2356 20.4562 21.2311 20.4612 21.2262C20.5075 21.1837 20.5485 21.1359 20.5831 21.0837C20.59 21.0786 20.596 21.0697 20.602 21.0607C20.6069 21.0534 20.6119 21.0459 20.6176 21.0403C20.658 20.9909 20.6956 20.9392 20.7302 20.8855C20.7358 20.8855 20.738 20.8821 20.7416 20.8768C20.744 20.8732 20.747 20.8687 20.7521 20.8638C20.7693 20.8313 20.7888 20.798 20.8083 20.7647C20.8279 20.7314 20.8474 20.6981 20.8647 20.6655C20.9492 20.5139 21.0204 20.3554 21.0773 20.1916C21.2118 20.458 21.3807 20.743 21.6028 21.0093C21.5707 21.0589 21.5385 21.1125 21.5063 21.1661C21.4822 21.2063 21.4581 21.2465 21.4339 21.285C21.4339 21.2893 21.4312 21.2916 21.4283 21.2941C21.425 21.297 21.4214 21.3001 21.4214 21.3067L21.2869 21.5049C21.28 21.51 21.2741 21.5189 21.2681 21.5279C21.2631 21.5352 21.2581 21.5427 21.2525 21.5483C21.2377 21.5671 21.224 21.5859 21.2106 21.6043C21.1844 21.6403 21.1595 21.6744 21.1305 21.7032C21.1255 21.7148 21.1168 21.7238 21.1079 21.733C21.1003 21.7409 21.0925 21.7489 21.0867 21.7589C21.0406 21.8227 20.9882 21.8818 20.9303 21.9355L20.9084 21.9571C20.8803 21.9788 20.8553 22.0036 20.8302 22.0284C20.8052 22.0532 20.7802 22.0779 20.7521 22.0996C20.7402 22.1046 20.7312 22.1132 20.7219 22.1221C20.7139 22.1296 20.7058 22.1373 20.6957 22.143C20.6893 22.1578 20.6771 22.1668 20.666 22.175C20.6608 22.1788 20.6559 22.1824 20.652 22.1863C20.4866 22.3321 20.3075 22.4618 20.1171 22.5735L20.0827 22.5952C19.992 22.6478 19.9044 22.6943 19.8137 22.7377L19.7918 22.7501C19.357 22.9359 18.4093 23.4903 18.4093 23.9642V26.947L25.7597 22.5921C25.203 22.3288 23.7861 21.6412 22.7132 21.0899C21.778 20.6129 21.3745 19.2005 21.3307 19.0332L21.2306 18.6461C21.1979 18.4035 21.1337 18.1662 21.0398 17.9399C21.0268 17.9214 21.0171 17.8975 21.0067 17.872C20.9997 17.8547 20.9924 17.8366 20.9835 17.8191C20.9782 17.7999 20.969 17.7817 20.9597 17.7634C20.9525 17.7492 20.9452 17.7349 20.9397 17.72C20.9288 17.7029 20.9202 17.6867 20.9116 17.6704C20.903 17.6541 20.8944 17.6379 20.8834 17.6209C20.8725 17.6038 20.8639 17.5876 20.8553 17.5713C20.8467 17.555 20.8381 17.5388 20.8271 17.5217C20.8134 17.5062 20.8034 17.4882 20.7924 17.4686C20.7859 17.4569 20.779 17.4446 20.7708 17.4319L20.7051 17.3328C20.6967 17.3099 20.6841 17.2927 20.6701 17.2735C20.6632 17.2641 20.656 17.2542 20.6488 17.243L20.5831 17.1439C20.57 17.1309 20.5569 17.1145 20.5437 17.0981C20.535 17.0872 20.5262 17.0763 20.5175 17.0664C20.4891 17.0385 20.463 17.0085 20.4393 16.9766L20.3736 16.9116L20.2829 16.8217L20.2172 16.7567C20.2 16.7397 20.1836 16.7257 20.1671 16.7118C20.1507 16.6978 20.1343 16.6839 20.1171 16.6669C20.1061 16.656 20.0952 16.6475 20.0843 16.639C20.0733 16.6305 20.0624 16.622 20.0514 16.6111C20.017 16.5775 19.9793 16.5474 19.9388 16.5213C19.9224 16.504 19.9034 16.4894 19.8825 16.4779C19.8703 16.4685 19.8589 16.459 19.8477 16.4498C19.8189 16.4259 19.7921 16.4038 19.7605 16.3881C19.7553 16.3811 19.7474 16.3766 19.7386 16.3757C19.5748 16.2741 19.4033 16.185 19.2257 16.1093C18.9254 15.9886 18.5907 15.8987 18.2435 15.877C18.4656 15.6695 18.6689 15.4248 18.8128 15.1492C19.0024 15.1851 19.1887 15.2369 19.3695 15.304C19.4024 15.3149 19.436 15.3288 19.4696 15.3428C19.5033 15.3567 19.5369 15.3706 19.5697 15.3815C19.5741 15.3815 19.5764 15.3841 19.5789 15.387C19.5818 15.3903 19.5849 15.3939 19.5916 15.3939C19.6127 15.403 19.6337 15.412 19.6545 15.4208C19.711 15.4448 19.7657 15.4681 19.8137 15.493C19.818 15.493 19.8204 15.4956 19.8229 15.4985C19.8258 15.5018 19.8289 15.5054 19.8356 15.5054C19.8512 15.5131 19.8674 15.5209 19.8838 15.5287C19.9393 15.5554 19.9975 15.5834 20.0483 15.6169C20.0526 15.6169 20.055 15.6195 20.0575 15.6224C20.0604 15.6257 20.0635 15.6293 20.0702 15.6293C20.1406 15.6683 20.2034 15.7099 20.2632 15.7494C20.2698 15.7538 20.2763 15.7581 20.2829 15.7624L20.2954 15.7748C20.365 15.8182 20.4319 15.8658 20.4956 15.9173L20.5081 15.9297Z" fill="white"/>
</svg>
