<svg width="36" height="36" viewBox="0 0 36 36" fill="none" xmlns="http://www.w3.org/2000/svg">
<path d="M26.3541 3.16916C25.4171 4.09542 24.5587 5.09933 23.7957 6.1698L23.5545 6.09214C22.1631 5.64288 20.7212 5.36556 19.2681 5.27127C18.8304 5.23799 17.1978 5.23799 16.6648 5.27127C15.0546 5.37665 13.8203 5.61515 12.4177 6.09769C12.3616 6.11988 12.3111 6.13652 12.2606 6.15316C11.4695 5.08823 10.5887 4.08987 9.61804 3.17471C14.2747 0.817461 19.7225 0.534591 24.598 2.39266C25.1198 2.58678 25.6303 2.81419 26.1297 3.05823L26.3541 3.16916Z" fill="#F00500"/>
<path d="M35.0391 24.2068C34.3322 26.198 33.2718 28.045 31.8973 29.6535C31.1511 30.5187 30.3263 31.3119 29.4399 32.0329C27.364 33.6857 24.9403 34.8671 22.3538 35.4883C19.4925 36.1706 16.5077 36.1706 13.6464 35.4883C11.0543 34.8671 8.63622 33.6857 6.56035 32.0329C5.67389 31.3119 4.84915 30.5187 4.10295 29.6535C0.147567 25.0333 -1.05308 18.6881 0.961086 12.9697C1.3426 11.9103 1.81949 10.8898 2.39176 9.91915C2.65545 9.47544 2.98086 8.97626 3.13795 8.77104C3.67656 11.0617 4.33859 13.0751 4.58545 13.8017C4.56862 13.8405 4.54618 13.8849 4.52374 13.9237C3.2165 16.5416 2.50958 19.0653 2.34127 21.7498C2.34127 21.783 2.33565 21.8219 2.33565 21.8551C2.29077 22.6594 2.31321 23.0421 2.44786 23.5468C2.86865 25.1276 4.16467 26.8691 6.19567 28.5775C9.52268 31.3729 14.0335 33.3918 17.4503 33.6247C21.0129 33.8632 26.27 31.8055 29.7709 28.7993C30.3207 28.3168 30.8369 27.8065 31.3194 27.2629C31.6672 26.8636 32.1834 26.1758 32.1441 26.1758C32.1329 26.1758 32.1441 26.1647 32.1666 26.1536C32.1834 26.1426 32.2002 26.1259 32.189 26.1148C32.1834 26.1093 32.1946 26.0926 32.2115 26.0871C32.2283 26.0815 32.2395 26.0705 32.2339 26.0594C32.2283 26.0483 32.2339 26.0372 32.2563 26.0316C32.2732 26.0261 32.2788 26.0094 32.2732 25.9983C32.2676 25.9873 32.2732 25.9762 32.2844 25.9762C32.2956 25.9762 32.3068 25.9595 32.3068 25.9484C32.3068 25.9373 32.318 25.9207 32.3293 25.9207C32.3405 25.9207 32.3517 25.9096 32.3517 25.8985C32.3685 25.8541 32.3966 25.8098 32.4247 25.7709C32.5088 25.6434 32.8454 25.0499 32.8903 24.9501C33.2101 24.2346 33.4121 23.5967 33.5075 22.9589C33.5524 22.6538 33.5804 22.0936 33.558 21.9605C33.5524 21.9383 33.5524 21.8995 33.5467 21.8385C33.5355 21.7276 33.5299 21.5612 33.5187 21.3948C33.5075 21.1452 33.485 20.7958 33.4682 20.6238C33.2269 18.1057 32.5761 16.048 31.3418 13.8682C31.2913 13.785 31.2465 13.7018 31.2184 13.6353C31.2072 13.6186 31.2016 13.602 31.196 13.5909C31.3699 13.0751 32.0824 10.9175 32.6491 8.44934L32.6603 8.46043L32.7444 8.57136C32.8903 8.76549 33.2774 9.34232 33.4514 9.61964C34.2424 10.8953 34.8596 12.2653 35.2972 13.6963C36.3127 17.1406 36.2286 20.8124 35.0391 24.2068Z" fill="#F00500"/>
<path d="M27.7566 17.5789C27.7398 17.6676 27.4761 17.9338 27.2124 18.128C26.4382 18.6882 25.0524 19.2095 23.6441 19.4591C22.8418 19.6033 22.0395 19.6255 21.7983 19.509C21.6412 19.4314 21.6188 19.3704 21.6749 19.1707C21.7927 18.7547 22.1742 18.2999 22.7689 17.8728C23.0719 17.6565 24.3006 16.9188 24.8728 16.6082C25.8154 16.098 26.5784 15.7929 27.0946 15.7208C27.2573 15.6986 27.4537 15.6931 27.5154 15.7208C27.6164 15.7596 27.7286 16.0536 27.7735 16.4086C27.7959 16.5971 27.7847 17.4291 27.7566 17.5789Z" fill="black"/>
<path d="M14.5385 19.4148C14.5048 19.4813 14.3365 19.5534 14.1458 19.5812C13.955 19.6089 13.3715 19.5923 13.0405 19.5534C11.8511 19.3981 10.5887 19.0376 9.6686 18.5939C9.15244 18.3443 8.78215 18.0947 8.50723 17.8229L8.35014 17.6621L8.33331 17.4513C8.30526 17.0852 8.31087 16.5084 8.35575 16.3032C8.3838 16.1313 8.44552 15.9649 8.52968 15.8151C8.57456 15.7596 8.57456 15.7596 8.77654 15.7596C9.0234 15.7596 9.23098 15.7985 9.56761 15.9039C10.2577 16.1146 11.2844 16.6249 12.5356 17.3681C13.5679 17.9782 13.955 18.2777 14.2524 18.6882C14.4543 18.9433 14.589 19.3038 14.5385 19.4148Z" fill="black"/>
<path d="M22.4828 27.1354C22.4828 27.152 22.4155 27.4182 22.3313 27.7344C22.2472 28.0505 22.1798 28.3057 22.1798 28.3168C22.1181 28.3223 22.062 28.3279 22.0003 28.3223H21.8208L21.5739 28.8991C21.4393 29.2153 21.3158 29.5093 21.299 29.5536L21.2653 29.6313L21.1475 29.4427L21.0297 29.2541V27.7178L20.9848 27.7288C20.8894 27.751 20.2106 27.8398 19.9132 27.8675C18.6845 27.9895 17.4502 27.9618 16.2271 27.7899C16.0308 27.7621 15.8624 27.7399 15.8568 27.7455C15.8512 27.751 15.8568 28.106 15.8681 28.5442L15.8849 29.3318L15.7895 29.476C15.739 29.5536 15.6885 29.6202 15.6885 29.6257C15.6717 29.6424 15.6156 29.5536 15.4865 29.2985C15.3463 29.0323 15.2453 28.7494 15.1724 28.4554L15.1331 28.2946L14.9592 28.3057L14.7852 28.3223L14.7403 28.1171C14.7179 28.0062 14.6898 27.8342 14.6786 27.7399L14.6618 27.5625L14.5159 27.4349C14.4318 27.3628 14.3476 27.2907 14.3308 27.2796C14.3027 27.2574 14.2915 27.2186 14.2915 27.1853V27.1187L14.9928 27.1243L15.6941 27.1298L15.7166 27.2019L15.739 27.274L15.9803 27.2851C16.1149 27.2907 16.5413 27.3018 16.9228 27.3129L17.6241 27.3295L17.8037 27.0522L17.9888 26.7749H18.2245L18.2188 26.198L18.2132 25.6212L17.9047 25.4881C16.9116 25.0555 16.3281 24.5618 16.1093 23.9628C16.0644 23.8408 16.0644 23.7964 16.0532 23.2418C16.0476 22.6927 16.0476 22.6427 16.0869 22.5207C16.1654 22.2434 16.3842 22.0271 16.6647 21.955C16.7601 21.9272 17.0126 21.9272 18.3367 21.9272L19.8964 21.9328L20.0703 22.016C20.2779 22.1158 20.3733 22.1879 20.4911 22.3432C20.6257 22.5207 20.665 22.6594 20.665 22.9977C20.665 23.4803 20.6313 23.8962 20.5809 24.0626C20.5079 24.29 20.3957 24.5064 20.2554 24.7005C19.9749 25.0555 19.4644 25.4104 18.9987 25.5713L18.864 25.6212L18.8697 26.2036L18.8753 26.7859L18.9987 26.797L19.1221 26.8081L19.2904 27.0577L19.4531 27.3073H20.2049C20.6201 27.3073 20.9848 27.3129 21.0185 27.3184C21.0746 27.3295 21.0858 27.324 21.1419 27.2297L21.2092 27.1298H21.8544C22.3369 27.1076 22.4828 27.1187 22.4828 27.1354Z" fill="black"/>
<path d="M19.5206 28.7273C19.414 28.7883 19.3411 28.8161 19.3242 28.805C19.3074 28.7994 19.2289 28.7329 19.1447 28.6718L18.9932 28.5498L18.8361 28.7162C18.4939 29.0823 18.4827 29.0989 18.3817 29.1045C18.2246 29.1211 18.1909 29.0934 18.0002 28.8105C17.8992 28.6663 17.8206 28.5443 17.8206 28.5443C17.8206 28.5443 17.7477 28.5332 17.6635 28.5276L17.5064 28.511L17.4335 28.6608L17.3606 28.8105L17.2315 28.7717C17.1305 28.7384 17.0296 28.6996 16.9342 28.6552L16.7659 28.572V28.2559L18.2583 28.2614L19.7506 28.2669L19.7563 28.4167C19.7619 28.5942 19.7675 28.5886 19.5206 28.7273Z" fill="black"/>
<path d="M33.5468 21.9605C33.5412 21.9383 33.5412 21.8995 33.5356 21.8384C32.1891 21.6942 28.3459 21.6055 24.7776 24.5174C24.7776 24.5174 23.6275 19.3037 18.2414 19.3037C12.8554 19.3037 10.858 24.5174 10.858 24.5174C7.83959 21.306 3.80004 21.5389 2.34132 21.7497C2.34132 21.783 2.3357 21.8218 2.3357 21.8551C2.29082 22.6593 2.31326 23.042 2.44791 23.5468C2.8687 25.1275 4.16472 26.8691 6.19572 28.5774C9.52273 31.3728 14.0336 33.3917 17.4503 33.6247C21.013 33.8632 26.27 31.8054 29.7709 28.7993C30.3208 28.3167 30.8369 27.8064 31.3194 27.2629C31.6673 26.8635 32.1835 26.1758 32.1442 26.1758C32.133 26.1758 32.1442 26.1647 32.1666 26.1536C32.1835 26.1425 32.2003 26.1259 32.1891 26.1148C32.1834 26.1092 32.1947 26.0926 32.2115 26.087C32.2283 26.0815 32.2396 26.0704 32.2339 26.0593C32.2283 26.0482 32.2339 26.0371 32.2564 26.0316C32.2732 26.026 32.2788 26.0094 32.2732 25.9983C32.2676 25.9872 32.2732 25.9761 32.2844 25.9761C32.2957 25.9761 32.3069 25.9595 32.3069 25.9484C32.3069 25.9373 32.3181 25.9206 32.3293 25.9206C32.3405 25.9206 32.3518 25.9095 32.3518 25.8985C32.3686 25.8541 32.3967 25.8097 32.4247 25.7709C32.5089 25.6433 32.8455 25.0498 32.8904 24.95C33.2102 24.2345 33.4121 23.5967 33.5075 22.9588C33.5412 22.6538 33.5692 22.0936 33.5468 21.9605ZM19.5206 28.7272C19.414 28.7882 19.3411 28.8159 19.3242 28.8048C19.3074 28.7993 19.2289 28.7327 19.1447 28.6717L18.9932 28.5497L18.8361 28.7161C18.4939 29.0821 18.4827 29.0988 18.3817 29.1043C18.2246 29.1209 18.1909 29.0932 18.0002 28.8103C17.8992 28.6661 17.8206 28.5441 17.8206 28.5441C17.8206 28.5441 17.7477 28.533 17.6635 28.5275L17.5064 28.5108L17.4335 28.6606L17.3606 28.8103L17.2315 28.7715C17.1305 28.7382 17.0296 28.6994 16.9342 28.655L16.7659 28.5718V28.2557L18.2582 28.2612L19.7506 28.2668L19.7562 28.4165C19.7618 28.594 19.7675 28.5885 19.5206 28.7272ZM22.3258 27.7288C22.2417 28.0449 22.1744 28.3001 22.1744 28.3112C22.1126 28.3167 22.0565 28.3223 21.9948 28.3167H21.8153L21.574 28.8991C21.4394 29.2152 21.316 29.5092 21.2991 29.5536L21.2655 29.6312L21.1476 29.4426L21.0298 29.2541V27.7177L20.9849 27.7288C20.8896 27.751 20.2107 27.8397 19.9133 27.8674C18.6846 27.9895 17.4503 27.9617 16.2272 27.7898C16.0309 27.7621 15.8626 27.7399 15.857 27.7454C15.8513 27.751 15.857 28.1059 15.8682 28.5441L15.885 29.3317L15.7896 29.4759C15.7391 29.5536 15.6886 29.6201 15.6886 29.6257C15.6718 29.6423 15.6157 29.5536 15.4867 29.2984C15.3464 29.0322 15.2454 28.7493 15.1725 28.4554L15.1332 28.2945L14.9593 28.3056L14.7854 28.3223L14.7405 28.117C14.718 28.0061 14.69 27.8342 14.6788 27.7399L14.6619 27.5624L14.5161 27.4348C14.4319 27.3627 14.3477 27.2906 14.3309 27.2795C14.3029 27.2573 14.2916 27.2185 14.2916 27.1852V27.1187L14.9929 27.1242L15.6943 27.1298L15.7167 27.2019L15.7391 27.274L15.9804 27.2851C16.115 27.2906 16.5414 27.3017 16.9229 27.3128L17.6243 27.3294L17.8038 27.0521L17.9889 26.7748H18.2246L18.219 26.198L18.2134 25.6211L17.9048 25.488C16.9117 25.0554 16.3282 24.5618 16.1094 23.9627C16.0645 23.8407 16.0645 23.7963 16.0533 23.2417C16.0477 22.6926 16.0477 22.6427 16.087 22.5207C16.1655 22.2433 16.3843 22.027 16.6649 21.9549C16.7602 21.9272 17.0127 21.9272 18.3368 21.9272L19.8965 21.9327L20.0704 22.0159C20.278 22.1158 20.3734 22.1879 20.4912 22.3432C20.6259 22.5207 20.6651 22.6593 20.6651 22.9977C20.6651 23.4802 20.6315 23.8962 20.581 24.0626C20.508 24.29 20.3958 24.5063 20.2556 24.7004C19.975 25.0554 19.4645 25.4104 18.9988 25.5712L18.8642 25.6211L18.8698 26.2035L18.8754 26.7859L18.9988 26.797L19.1223 26.8081L19.2906 27.0577L19.4533 27.3073H20.2051C20.6203 27.3073 20.9849 27.3128 21.0186 27.3183C21.0747 27.3294 21.0859 27.3239 21.142 27.2296L21.2094 27.1298H21.8546C22.3539 27.1298 22.4998 27.1353 22.4998 27.152C22.4829 27.1464 22.41 27.4182 22.3258 27.7288Z" fill="white"/>
<path d="M33.5019 21.3948C33.4907 21.1452 33.4682 20.7958 33.4514 20.6238C33.2101 18.1057 32.5593 16.048 31.325 13.8682C31.2745 13.785 31.2297 13.7018 31.2016 13.6353C31.1904 13.6186 31.1848 13.602 31.1792 13.5909C31.3531 13.0751 32.0656 10.9175 32.6323 8.44934C33.4009 5.09927 33.889 1.18347 32.3966 0.00762219C32.3966 0.00762219 29.8158 -0.180958 26.3598 3.16911C25.4228 4.09537 24.5644 5.09927 23.8014 6.16974L23.5601 6.09209C22.1687 5.64283 20.7268 5.3655 19.2737 5.27121C18.8361 5.23794 17.2035 5.23794 16.6705 5.27121C15.0603 5.3766 13.8259 5.61509 12.4233 6.09764C12.3672 6.11982 12.3167 6.13646 12.2662 6.1531C11.4752 5.08818 10.5943 4.08982 9.6237 3.17465C6.02738 -0.19205 3.35119 0.00207539 3.35119 0.00207539C1.76903 1.21675 2.30764 5.31004 3.12677 8.77103C3.66537 11.0617 4.32741 13.0751 4.57427 13.8017C4.55744 13.8405 4.535 13.8849 4.51256 13.9237C3.20531 16.5416 2.49839 19.0653 2.33008 21.7498C3.79441 21.539 7.82835 21.3005 10.8524 24.5174C10.8524 24.5174 12.8497 19.3038 18.2358 19.3038C23.6218 19.3038 24.772 24.5174 24.772 24.5174C28.3403 21.6055 32.1834 21.6998 33.5299 21.8385C33.5243 21.7276 33.5131 21.5612 33.5019 21.3948ZM5.63465 11.7107C5.63465 11.7107 3.53633 6.52472 4.07494 3.5629C4.1647 3.06372 4.33302 2.62555 4.59671 2.29276C4.59671 2.29276 6.97555 2.52572 10.8131 6.74103C10.8131 6.74103 10.0838 7.09046 9.10754 7.83368C9.10754 7.83368 9.10192 7.83923 9.09631 7.83923C8.03593 8.64346 6.6782 9.91915 5.63465 11.7107ZM14.5385 19.4147C14.5048 19.4813 14.3365 19.5534 14.1457 19.5811C13.955 19.6088 13.3715 19.5922 13.0405 19.5534C11.8511 19.3981 10.5887 19.0375 9.66859 18.5938C9.15242 18.3442 8.78213 18.0946 8.50721 17.8229L8.35012 17.662L8.33329 17.4512C8.30524 17.0852 8.31085 16.5083 8.35573 16.3031C8.38379 16.1312 8.4455 15.9648 8.52966 15.815C8.57454 15.7596 8.57454 15.7596 8.77652 15.7596C9.02338 15.7596 9.23097 15.7984 9.5676 15.9038C10.2577 16.1145 11.2844 16.6248 12.5355 17.368C13.5679 17.9782 13.955 18.2777 14.2523 18.6881C14.4543 18.9432 14.589 19.3038 14.5385 19.4147ZM27.7568 17.5788C27.7399 17.6676 27.4762 17.9338 27.2125 18.1279C26.4383 18.6881 25.0525 19.2095 23.6443 19.4591C22.842 19.6033 22.0397 19.6255 21.7984 19.509C21.6413 19.4313 21.6189 19.3703 21.675 19.1706C21.7928 18.7547 22.1743 18.2999 22.7691 17.8728C23.072 17.6565 24.3007 16.9188 24.873 16.6082C25.8155 16.0979 26.5786 15.7929 27.0947 15.7208C27.2574 15.6986 27.4538 15.693 27.5155 15.7208C27.6165 15.7596 27.7287 16.0535 27.7736 16.4085C27.796 16.5971 27.7848 17.4291 27.7568 17.5788ZM26.8254 7.83368L26.8142 7.82813C25.8716 7.08491 25.1647 6.73548 25.1647 6.73548C28.8733 2.52017 31.1679 2.28722 31.1679 2.28722C31.4204 2.62555 31.5831 3.05818 31.6729 3.55736C32.1947 6.51917 30.1693 11.7107 30.1693 11.7107C29.3221 10.2187 28.1832 8.8986 26.8254 7.83368Z" fill="#FFA409"/>
<path d="M31.6783 3.55737C31.2407 3.50191 29.1704 3.49081 26.8253 7.83369L26.814 7.82815C25.8715 7.08492 25.1646 6.73549 25.1646 6.73549C28.8731 2.52018 31.1678 2.28723 31.1678 2.28723C31.4258 2.62557 31.5885 3.05819 31.6783 3.55737Z" fill="#FF9300"/>
<path d="M30.1747 11.7107C29.3219 10.2132 28.1885 8.89865 26.8252 7.83373C29.1704 3.49085 31.235 3.50194 31.6783 3.5574C32.2 6.52476 30.1747 11.7107 30.1747 11.7107Z" fill="#FF8300"/>
<path d="M31.7624 3.57467C31.7343 3.5689 31.7063 3.56314 31.6782 3.55737L31.7624 3.57467Z" fill="#FF8300"/>
<path d="M10.8131 6.73549C10.8131 6.73549 10.0838 7.08492 9.10755 7.82815C9.10755 7.82815 9.10193 7.83369 9.09632 7.83369C6.66699 3.48527 4.5294 3.50191 4.06934 3.55737C4.1591 3.05819 4.32742 2.62002 4.59111 2.28723C4.59672 2.28723 6.97556 2.52018 10.8131 6.73549Z" fill="#FF9300"/>
<path d="M9.10197 7.83373C8.03598 8.64351 6.67825 9.91365 5.6347 11.7107C5.6347 11.7107 3.53638 6.52476 4.07498 3.5574C4.52943 3.50194 6.67263 3.49085 9.10197 7.83373Z" fill="#FF8300"/>
<path d="M4.07487 3.55737C4.04682 3.56314 4.01316 3.5689 3.98511 3.57467L4.07487 3.55737Z" fill="#FF8300"/>
<path d="M24.4971 14.5892C24.4971 14.5892 22.7017 14.7002 22.9262 13.3135C23.1506 11.9269 24.5532 11.7605 24.9459 11.816C25.3387 11.8715 26.9096 12.4261 26.6291 13.5909C26.3485 14.7556 25.9558 14.5338 25.7314 14.5892C25.507 14.6447 24.4971 14.5892 24.4971 14.5892Z" fill="white"/>
<path d="M11.2564 14.5892C11.2564 14.5892 9.46101 14.7002 9.68543 13.3135C9.90985 11.9269 11.3125 11.7605 11.7052 11.816C12.0979 11.8715 13.6689 12.4261 13.3883 13.5909C13.1078 14.7556 12.7151 14.5338 12.4907 14.5892C12.2662 14.6447 11.2564 14.5892 11.2564 14.5892Z" fill="white"/>
</svg>
