<svg width="36" height="36" viewBox="0 0 36 36" fill="none" xmlns="http://www.w3.org/2000/svg">
<path d="M18 36C27.9411 36 36 27.9411 36 18C36 8.05888 27.9411 0 18 0C8.05888 0 0 8.05888 0 18C0 27.9411 8.05888 36 18 36Z" fill="black"/>
<path fill-rule="evenodd" clip-rule="evenodd" d="M11.1078 22.9617C11.1756 22.8872 11.2581 22.8277 11.3502 22.787C11.4422 22.7462 11.5418 22.7251 11.6424 22.725L28.1376 22.7385C28.2079 22.7387 28.2766 22.7592 28.3354 22.7977C28.3942 22.8361 28.4406 22.8908 28.4688 22.9551C28.4972 23.0193 28.5062 23.0905 28.4949 23.1598C28.4835 23.2291 28.4523 23.2937 28.4049 23.3456L24.8922 27.2133C24.8245 27.2879 24.7419 27.3474 24.6498 27.3882C24.5576 27.429 24.458 27.45 24.3572 27.45L7.86245 27.4365C7.79221 27.4364 7.72351 27.4158 7.66471 27.3774C7.60592 27.339 7.55955 27.2843 7.53124 27.22C7.50294 27.1557 7.4939 27.0846 7.50525 27.0153C7.51659 26.946 7.54783 26.8814 7.59515 26.8295L11.1078 22.9617ZM28.4049 19.742C28.4523 19.7939 28.4835 19.8585 28.4949 19.9278C28.5062 19.9971 28.4972 20.0682 28.4688 20.1325C28.4406 20.1968 28.3942 20.2515 28.3354 20.2899C28.2766 20.3283 28.2079 20.3489 28.1376 20.349L11.6429 20.3625C11.5422 20.3625 11.4425 20.3415 11.3504 20.3007C11.2582 20.2599 11.1756 20.2004 11.1078 20.1258L7.59515 16.2558C7.54783 16.2039 7.51659 16.1394 7.50525 16.0701C7.4939 16.0008 7.50294 15.9296 7.53124 15.8653C7.55955 15.8011 7.60592 15.7464 7.66471 15.7079C7.72351 15.6695 7.79221 15.649 7.86245 15.6488L24.3576 15.6353C24.4584 15.6354 24.5579 15.6564 24.65 15.6972C24.742 15.738 24.8246 15.7975 24.8922 15.872L28.4049 19.742ZM11.1078 8.78675C11.1756 8.71226 11.2581 8.65272 11.3502 8.61196C11.4422 8.57121 11.5418 8.55011 11.6424 8.55005L28.1376 8.56355C28.2079 8.56369 28.2766 8.58423 28.3354 8.62267C28.3942 8.66111 28.4406 8.71579 28.4688 8.78008C28.4972 8.84438 28.5062 8.9155 28.4949 8.98482C28.4835 9.05414 28.4523 9.11867 28.4049 9.1706L24.8922 13.0383C24.8245 13.1129 24.7419 13.1724 24.6498 13.2132C24.5576 13.254 24.458 13.275 24.3572 13.275L7.86245 13.2615C7.79221 13.2614 7.72351 13.2408 7.66471 13.2024C7.60592 13.164 7.55955 13.1093 7.53124 13.045C7.50294 12.9807 7.4939 12.9096 7.50525 12.8403C7.51659 12.771 7.54783 12.7064 7.59515 12.6545L11.1078 8.78675Z" fill="url(#paint0_linear_322_521)"/>
<defs>
<linearGradient id="paint0_linear_322_521" x1="8.13785" y1="27.8622" x2="27.8622" y2="8.13783" gradientUnits="userSpaceOnUse">
<stop stop-color="#9945FF"/>
<stop offset="0.2" stop-color="#7962E7"/>
<stop offset="1" stop-color="#00D18C"/>
</linearGradient>
</defs>
</svg>
