<svg width="36" height="36" viewBox="0 0 36 36" fill="none" xmlns="http://www.w3.org/2000/svg">
<circle cx="18" cy="18" r="18" fill="#2992FA"/>
<path fill-rule="evenodd" clip-rule="evenodd" d="M23.1096 10C23.2822 9.99902 23.4493 10.0556 23.5857 10.1598L23.6637 10.2279L28.7759 15.3647C28.8785 15.4693 28.9488 15.5995 28.9812 15.7466L28.9988 15.8704L29 15.9419L28.9986 15.9691C28.9894 16.1096 28.9431 16.2446 28.8641 16.3607L28.7987 16.4441L18.5776 27.7415C18.4303 27.9056 18.2208 27.9995 17.9996 28C17.8163 27.9995 17.6403 27.9343 17.5018 27.818L17.4235 27.7423L7.20108 16.4434C7.08473 16.3139 7.0155 16.1501 7.00263 15.9795C6.98718 15.7904 7.04025 15.603 7.15192 15.4505L7.22587 15.3634L12.3375 10.2271C12.4601 10.105 12.6188 10.0279 12.7873 10.0062L12.8894 10L23.1096 10ZM20.4527 16.7015H15.5791L18.0074 24.5204L20.4527 16.7015ZM13.9504 16.7015H9.54008L16.2553 24.1222L13.9504 16.7015ZM26.4604 16.7015H22.0841L19.773 24.0908L26.4604 16.7015ZM12.5578 12.2206L9.65815 15.1351H13.4638L12.5578 12.2206ZM23.4749 12.2538L22.5733 15.1351H26.3432L23.4749 12.2538ZM17.9681 12.1756L15.9145 15.1351H20.0663L17.9681 12.1756ZM22.0591 11.5654H19.4483L21.2604 14.1213L22.0591 11.5654ZM16.4932 11.5654H13.9835L14.7589 14.0638L16.4932 11.5654Z" fill="white"/>
</svg>
