<svg width="36" height="36" viewBox="0 0 36 36" fill="none" xmlns="http://www.w3.org/2000/svg">
<circle cx="18" cy="18" r="18" fill="#EB322A"/>
<path fill-rule="evenodd" clip-rule="evenodd" d="M26.7304 13.529L26.2738 13.2079C25.5627 12.708 24.8214 12.1868 24.0933 11.669L24.0933 11.6689C24.0738 11.6542 24.0542 11.6394 24.0297 11.6247C23.9319 11.5509 23.8194 11.4721 23.6824 11.4278L23.6726 11.4229C21.5114 10.8975 19.3177 10.3597 17.1806 9.83587L16.5687 9.68588C15.5119 9.42754 14.4564 9.16919 13.4008 8.91085C12.3453 8.65251 11.2897 8.39417 10.2329 8.13582C10.1791 8.12106 10.1253 8.1063 10.0666 8.09154C9.87576 8.03741 9.65559 7.97836 9.42075 8.00788C9.35226 8.01773 9.29355 8.04233 9.23973 8.07678L9.18102 8.12598C9.08806 8.21456 9.03914 8.32774 9.01468 8.39171L9 8.43107V8.65743L9.00978 8.69187C10.0141 11.5223 11.0377 14.3833 12.0453 17.1997L12.0457 17.2007L12.0458 17.2012L12.0479 17.2069C12.3795 18.1338 12.7094 19.0558 13.0363 19.9703C13.3382 20.814 13.6434 21.6667 13.9505 22.5244C14.6787 24.5584 15.4169 26.6203 16.143 28.6555C16.2066 28.8524 16.3877 28.9803 16.6127 29H16.6616C16.872 29 17.0579 28.8967 17.1509 28.7294L21.0258 23.0458C21.4979 22.3545 21.97 21.6619 22.4421 20.9693C22.9143 20.2767 23.3864 19.5841 23.8585 18.8927C24.0518 18.6097 24.245 18.3256 24.4383 18.0414L24.4387 18.0407C24.6318 17.7568 24.8249 17.4728 25.018 17.1901L25.0974 17.0733C25.7086 16.175 26.3367 15.2516 26.9604 14.3508L26.9946 14.3016V14.2425C27.0093 14.0703 27.0142 13.716 26.7304 13.529ZM22.1901 15.6007C21.8505 15.7788 21.5082 15.9589 21.164 16.1401L21.1637 16.1403L21.1628 16.1407L21.1618 16.1413C20.5842 16.4453 20.0011 16.7522 19.416 17.0572L21.0501 15.2956C21.6423 14.6529 22.2567 13.9915 22.8643 13.3375L23.1343 13.0468L23.149 13.032C23.2077 12.9533 23.2811 12.8795 23.3594 12.8007L23.3594 12.8007C23.3726 12.7874 23.3862 12.774 23.4 12.7605L23.4 12.7604L23.4 12.7604C23.4419 12.7192 23.4852 12.6767 23.5257 12.6285C23.8878 12.8795 24.2547 13.1354 24.607 13.3863C24.8614 13.5684 25.1207 13.7505 25.3849 13.9325C24.3085 14.4836 23.2322 15.0495 22.1901 15.6007ZM17.7086 17.6822C18.4278 16.9096 19.1519 16.1272 19.8516 15.3645L20.4682 14.6978C21.1926 13.9145 21.9301 13.117 22.6647 12.3283C21.2461 11.9815 19.8263 11.6346 18.4065 11.2878L18.4048 11.2873C16.9851 10.9405 15.5654 10.5937 14.1469 10.2468C13.643 10.1189 13.1293 9.99589 12.6351 9.87779C12.0725 9.74492 11.5001 9.60714 10.9325 9.45952C10.9616 9.49495 10.9907 9.5299 11.0197 9.56468C11.0832 9.64097 11.146 9.71639 11.2065 9.79413C11.2504 9.84778 11.2944 9.90244 11.3385 9.9573C11.4319 10.0735 11.526 10.1907 11.6224 10.301L11.6273 10.3059C11.94 10.6844 12.254 11.0641 12.568 11.4438L12.5693 11.4454C12.8836 11.8254 13.1978 12.2054 13.5109 12.5842C14.8906 14.2524 16.3143 15.9796 17.7086 17.6822ZM17.3906 24.9551C17.4055 24.8126 17.4207 24.669 17.436 24.5249C17.4761 24.1461 17.5166 23.7632 17.5521 23.3854L17.5961 22.9648L17.5962 22.964C17.6255 22.6833 17.6549 22.4026 17.6842 22.1306L17.7151 21.8358L17.7151 21.8357C17.7743 21.2735 17.8348 20.6978 17.8848 20.1327L17.8994 20.0146C17.9484 19.5914 17.9973 19.1535 18.0267 18.7155C18.0805 18.686 18.1392 18.6565 18.2028 18.6319C18.2211 18.6233 18.2395 18.615 18.2578 18.6067C18.3129 18.5818 18.3679 18.5568 18.4229 18.5236C19.5531 17.9282 20.6833 17.3328 21.8183 16.7423C22.9485 16.1518 24.108 15.5416 25.2578 14.9364C24.2108 16.4618 23.1589 18.002 22.1412 19.5029L21.5676 20.3444C20.8748 21.3611 20.1709 22.394 19.4699 23.4149C19.2708 23.7098 19.0669 24.0079 18.8645 24.3038L18.8642 24.3043C18.7088 24.5315 18.5542 24.7575 18.4034 24.9797C18.012 25.5505 17.6108 26.1361 17.2194 26.7217C17.2683 26.1312 17.327 25.5358 17.3906 24.9551ZM10.5058 10.4426C10.5275 10.5022 10.5493 10.5618 10.5705 10.6208C11.6761 13.7173 12.7817 16.8094 13.8872 19.9015C14.4402 21.4481 14.9932 22.9946 15.5462 24.5418L16.0697 26.0032C16.1382 26.205 16.2115 26.4117 16.2849 26.6085C16.2943 26.635 16.3045 26.6622 16.3148 26.6899C16.3313 26.7342 16.3482 26.7796 16.3632 26.825C16.3832 26.6374 16.4022 26.4498 16.421 26.2631C16.4438 26.0385 16.4664 25.8152 16.4904 25.5948C16.4994 25.5097 16.5084 25.4243 16.5174 25.3387C16.6118 24.4451 16.7085 23.5298 16.7889 22.6226L16.7937 22.5882C16.7937 22.5882 16.872 21.9091 16.9063 21.609C16.9118 21.5598 16.9176 21.5103 16.9235 21.4607C16.9433 21.2919 16.9634 21.1207 16.9748 20.9496V20.9447C17.0139 20.5953 17.0482 20.2508 17.0824 19.9064C17.1041 19.7084 17.1249 19.5071 17.146 19.3044C17.1772 19.0032 17.2088 18.6986 17.2439 18.3957C17.1101 18.2466 16.9843 18.0921 16.8606 17.9402C16.817 17.8866 16.7736 17.8332 16.7301 17.7806C16.6029 17.6231 16.4708 17.4607 16.3387 17.3082C15.8919 16.7636 15.4451 16.2235 14.9982 15.6833C14.7748 15.4132 14.5514 15.1431 14.3279 14.8724C13.0314 13.3076 11.7007 11.6936 10.3797 10.0894C10.4188 10.2042 10.4623 10.3234 10.5058 10.4426Z" fill="white"/>
</svg>
