<svg width="36" height="36" viewBox="0 0 36 36" fill="none" xmlns="http://www.w3.org/2000/svg">
<circle cx="18" cy="18" r="18" fill="#FCD846"/>
<path d="M11.9217 26.6724C14.6564 25.5542 16.3538 24.6247 17.7279 23.5066C15.5859 23.3315 13.8886 21.5398 13.8886 19.344V12.7695C13.8886 11.8253 13.2929 10.9838 12.4024 10.6699L9.48878 9.64279C9.00599 9.47263 8.5 9.83083 8.5 10.3427V19.3574C8.5 22.2807 9.83361 24.9211 11.9217 26.6724Z" fill="#262A3C"/>
<path d="M23.7252 10.6685C22.8356 10.9829 22.2408 11.824 22.2408 12.7675V19.3433V19.4376C22.2408 20.2997 21.9578 21.1349 21.4324 21.8085C21.3921 21.8624 21.3516 21.9028 21.3112 21.9567C21.2978 21.9702 21.2978 21.9836 21.2843 21.9971C19.2366 24.5837 16.4345 26.5639 13.2014 27.5743C14.6294 28.423 16.2864 28.908 18.0511 28.908C23.3319 28.908 27.6158 24.6106 27.6158 19.3433V10.3429C27.6158 9.83082 27.1094 9.47262 26.6265 9.64323L23.7252 10.6685Z" fill="#262A3C"/>
</svg>
