<svg width="36" height="36" viewBox="0 0 36 36" fill="none" xmlns="http://www.w3.org/2000/svg">
<path d="M18 36C27.9411 36 36 27.9411 36 18C36 8.05888 27.9411 0 18 0C8.05888 0 0 8.05888 0 18C0 27.9411 8.05888 36 18 36Z" fill="#FDE7F3"/>
<path d="M13.8907 7.49372C13.5807 7.44943 13.5659 7.43467 13.7136 7.41991C13.9941 7.37562 14.6436 7.43467 15.1013 7.53801C16.1642 7.78899 17.1238 8.43856 18.1425 9.57532L18.4082 9.88535L18.7921 9.82629C20.4308 9.56056 22.1138 9.76724 23.5163 10.4168C23.9001 10.594 24.5054 10.9483 24.5792 11.0369C24.6087 11.0664 24.653 11.2583 24.6825 11.4502C24.7859 12.1441 24.7416 12.6608 24.5201 13.0594C24.402 13.2809 24.402 13.3399 24.4759 13.5318C24.5349 13.6795 24.7121 13.7828 24.8745 13.7828C25.2288 13.7828 25.5979 13.2218 25.775 12.4394L25.8488 12.1293L25.9817 12.277C26.7346 13.1185 27.3251 14.2848 27.4137 15.1115L27.4432 15.3329L27.3104 15.141C27.0889 14.8015 26.8822 14.58 26.6017 14.3881C26.0998 14.0485 25.5683 13.9452 24.1658 13.8714C22.8962 13.7976 22.1728 13.6942 21.4642 13.458C20.2536 13.0594 19.6336 12.5427 18.2015 10.6383C17.5667 9.79677 17.1681 9.33911 16.7695 8.95527C15.8985 8.11377 15.0275 7.67088 13.8907 7.49372Z" fill="#FF007A"/>
<path d="M24.8893 9.36862C24.9188 8.80762 24.9926 8.43855 25.155 8.099C25.2141 7.96613 25.2731 7.84802 25.2879 7.84802C25.3026 7.84802 25.2731 7.95136 25.2288 8.06947C25.1107 8.39426 25.0959 8.85191 25.1698 9.36862C25.2731 10.033 25.3174 10.1215 26.026 10.8449C26.3508 11.1845 26.7347 11.6126 26.8823 11.7898L27.1333 12.1146L26.8823 11.8784C26.5723 11.5831 25.8636 11.0221 25.7012 10.9483C25.5979 10.8892 25.5831 10.8892 25.5093 10.963C25.4503 11.0221 25.4355 11.1107 25.4355 11.5388C25.4207 12.2031 25.3322 12.6165 25.1107 13.0446C24.9926 13.2661 24.9778 13.2218 25.0812 12.9708C25.155 12.7789 25.1698 12.6903 25.1698 12.0555C25.1698 10.7711 25.0221 10.4611 24.1216 9.94438C23.9001 9.81152 23.5163 9.6196 23.2948 9.51625C23.0586 9.41291 22.8815 9.32433 22.8962 9.32433C22.9258 9.29481 23.7968 9.54578 24.1363 9.69341C24.6531 9.90009 24.7416 9.91486 24.8007 9.90009C24.845 9.85581 24.8745 9.7377 24.8893 9.36862Z" fill="#FF007A"/>
<path d="M14.4961 11.5683C13.876 10.7121 13.4774 9.38338 13.566 8.39425L13.5955 8.08423L13.7432 8.11375C14.0089 8.15804 14.4665 8.3352 14.688 8.46807C15.2785 8.82238 15.5443 9.30957 15.7952 10.5201C15.869 10.8745 15.9724 11.2878 16.0167 11.4207C16.0905 11.6421 16.371 12.1588 16.6072 12.4836C16.7696 12.7198 16.6663 12.8379 16.2972 12.8084C15.7362 12.7494 14.9833 12.2327 14.4961 11.5683Z" fill="#FF007A"/>
<path d="M24.1364 17.9904C21.2133 16.8093 20.1799 15.7907 20.1799 14.0634C20.1799 13.8124 20.1947 13.6057 20.1947 13.6057C20.2095 13.6057 20.3128 13.6943 20.4457 13.7976C21.0362 14.2701 21.7005 14.4767 23.5459 14.7425C24.6236 14.9049 25.2437 15.023 25.8047 15.2149C27.591 15.8054 28.6982 17.016 28.964 18.6547C29.0378 19.1271 28.9935 20.0277 28.8754 20.5001C28.7721 20.8692 28.4768 21.5483 28.403 21.563C28.3882 21.563 28.3587 21.4892 28.3587 21.3711C28.3292 20.7511 28.0191 20.1605 27.5024 19.7029C26.8824 19.1714 26.0852 18.7728 24.1364 17.9904Z" fill="#FF007A"/>
<path d="M22.0695 18.4775C22.04 18.256 21.9662 17.9755 21.9219 17.8574L21.8481 17.636L21.9809 17.7984C22.1728 18.0198 22.3205 18.2856 22.4533 18.6546C22.5567 18.9351 22.5567 19.0237 22.5567 19.4814C22.5567 19.9243 22.5419 20.0276 22.4533 20.2786C22.3057 20.6772 22.1286 20.9577 21.8333 21.2677C21.3018 21.8139 20.608 22.1092 19.6188 22.2421C19.4417 22.2568 18.9397 22.3011 18.4968 22.3307C17.3896 22.3897 16.6514 22.5078 15.9871 22.744C15.8985 22.7735 15.8099 22.8031 15.7952 22.7883C15.7657 22.7588 16.2233 22.493 16.5924 22.3159C17.1091 22.0649 17.6406 21.9321 18.8069 21.7254C19.3826 21.6368 19.9731 21.5187 20.1208 21.4596C21.5823 21.002 22.3057 19.8652 22.0695 18.4775Z" fill="#FF007A"/>
<path d="M23.4129 20.8543C23.0291 20.0128 22.9405 19.2156 23.1472 18.4627C23.1767 18.3889 23.2063 18.3151 23.2358 18.3151C23.2653 18.3151 23.3539 18.3594 23.4425 18.4184C23.6196 18.5365 23.9887 18.7432 24.9335 19.2599C26.1294 19.9095 26.8085 20.4114 27.2809 20.9872C27.6942 21.4891 27.9452 22.0649 28.0633 22.7735C28.1371 23.1721 28.0928 24.1317 27.9895 24.5303C27.6647 25.7852 26.9266 26.7891 25.8489 27.3648C25.6865 27.4534 25.5536 27.5125 25.5388 27.5125C25.5241 27.5125 25.5831 27.3649 25.6717 27.1877C26.026 26.4348 26.0703 25.7114 25.8046 24.8994C25.6422 24.3975 25.3026 23.7922 24.6235 22.7735C23.8115 21.5925 23.6196 21.2824 23.4129 20.8543Z" fill="#FF007A"/>
<path d="M12.4144 25.3719C13.5069 24.4566 14.8503 23.807 16.0904 23.6003C16.6219 23.5117 17.5077 23.5413 17.9949 23.6741C18.7773 23.8808 19.4859 24.3237 19.855 24.8699C20.2093 25.4014 20.3717 25.8591 20.5341 26.8777C20.5932 27.2763 20.667 27.6897 20.6817 27.7783C20.7998 28.3097 21.0361 28.7231 21.3313 28.9446C21.789 29.2841 22.5862 29.2989 23.3686 29.0036C23.5015 28.9593 23.6196 28.915 23.6196 28.9298C23.6491 28.9593 23.2505 29.2251 22.9848 29.3579C22.6157 29.5498 22.3204 29.6089 21.9218 29.6089C21.2132 29.6089 20.6079 29.2398 20.1207 28.5017C20.0174 28.354 19.8107 27.9259 19.6336 27.5273C19.1168 26.3315 18.8511 25.9772 18.2458 25.5786C17.7144 25.239 17.0352 25.1652 16.5185 25.4162C15.8394 25.741 15.6623 26.612 16.1347 27.1435C16.3266 27.3649 16.6809 27.5421 16.9762 27.5864C17.5224 27.6602 17.9949 27.232 17.9949 26.6858C17.9949 26.3315 17.862 26.1248 17.5077 25.9624C17.0352 25.7557 16.5185 25.9919 16.5333 26.4496C16.5333 26.6415 16.6219 26.7596 16.8138 26.8482C16.9319 26.9073 16.9319 26.9073 16.8433 26.8925C16.4152 26.8039 16.3119 26.2724 16.6514 25.9329C17.0648 25.5195 17.9358 25.6967 18.2311 26.2724C18.3492 26.5086 18.3639 26.9811 18.2606 27.2763C18.0096 27.9259 17.301 28.2655 16.5776 28.0735C16.0904 27.9407 15.8837 27.8078 15.2932 27.2025C14.2598 26.1396 13.8612 25.9329 12.3849 25.7114L12.1044 25.6672L12.4144 25.3719Z" fill="#FF007A"/>
<path fill-rule="evenodd" clip-rule="evenodd" d="M8.04465 6.40959C11.4845 10.5876 13.3888 12.2917 13.6545 12.6461C13.876 12.9413 13.7874 13.2218 13.4183 13.4285C13.2117 13.5466 12.7835 13.6647 12.5768 13.6647C12.3406 13.6647 12.0601 13.5466 11.8682 13.3547C11.7353 13.2218 11.1596 12.3803 9.86043 10.3578C8.8713 8.80765 8.0298 7.52326 8.01504 7.50849C7.95599 7.47897 7.95599 7.47897 9.75709 10.6973C10.8938 12.7199 11.2629 13.4433 11.2629 13.5318C11.2629 13.7238 11.2039 13.8271 10.9677 14.0928C10.5691 14.5357 10.3919 15.0377 10.259 16.0859C10.1114 17.2521 9.7128 18.0789 8.57604 19.4814C7.9117 20.3081 7.80836 20.4557 7.64596 20.7953C7.43928 21.2087 7.38022 21.4449 7.3507 21.9763C7.32117 22.5373 7.38022 22.8917 7.54262 23.4231C7.69025 23.8955 7.85264 24.2056 8.25125 24.8109C8.5908 25.3423 8.79748 25.7409 8.79748 25.8886C8.79748 26.0067 8.82701 26.0067 9.35848 25.8886C10.6281 25.5933 11.6763 25.0914 12.2521 24.4713C12.6064 24.0875 12.6949 23.8808 12.6949 23.3493C12.6949 23.0098 12.6802 22.9359 12.5916 22.7293C12.444 22.4045 12.1635 22.1387 11.5582 21.7254C10.761 21.1791 10.4214 20.7362 10.3328 20.1457C10.259 19.6438 10.3476 19.3042 10.7905 18.3741C11.2482 17.4145 11.3663 17.0159 11.4401 16.0416C11.4844 15.4215 11.5582 15.1705 11.7353 14.9786C11.9273 14.7719 12.0897 14.6981 12.5473 14.6391C13.3002 14.5357 13.7874 14.3438 14.1713 13.9747C14.5108 13.6647 14.6584 13.3547 14.6732 12.897L14.688 12.5575L14.496 12.3508C13.8022 11.5536 7.58699 5.77478 7.5427 5.77478C7.52794 5.77478 7.76415 6.05528 8.04465 6.40959ZM9.18132 22.6112C9.34372 22.3307 9.25514 21.9763 8.9894 21.7992C8.73843 21.6368 8.35459 21.7106 8.35459 21.9321C8.35459 21.9911 8.38412 22.0502 8.4727 22.0797C8.60556 22.1535 8.62033 22.2273 8.51698 22.3897C8.41364 22.5521 8.41364 22.6997 8.54651 22.8031C8.75319 22.9655 9.03369 22.8769 9.18132 22.6112Z" fill="#FF007A"/>
<path fill-rule="evenodd" clip-rule="evenodd" d="M15.1604 14.8458C14.8061 14.9491 14.4666 15.333 14.3632 15.7168C14.3042 15.953 14.3337 16.3811 14.437 16.514C14.5994 16.7207 14.7471 16.7797 15.1604 16.7797C15.9724 16.7797 16.6663 16.4254 16.7401 15.9973C16.8139 15.643 16.5039 15.1558 16.0757 14.9344C15.8543 14.8163 15.3966 14.772 15.1604 14.8458ZM16.1053 15.5839C16.2234 15.4068 16.1791 15.2149 15.9576 15.082C15.559 14.831 14.9538 15.0377 14.9538 15.4215C14.9538 15.6135 15.2638 15.8201 15.559 15.8201C15.751 15.8201 16.0167 15.702 16.1053 15.5839Z" fill="#FF007A"/>
</svg>
