<svg width="36" height="36" viewBox="0 0 36 36" fill="none" xmlns="http://www.w3.org/2000/svg">
<circle cx="18" cy="18" r="18" fill="#005FBB"/>
<path d="M14.625 30.5156C14.625 30.9375 14.2875 31.1765 13.8938 31.05C8.4375 29.3062 4.5 24.2156 4.5 18.1828C4.5 12.164 8.4375 7.05936 13.8938 5.31561C14.3016 5.18905 14.625 5.42811 14.625 5.84999V6.90467C14.625 7.18592 14.4141 7.50936 14.1469 7.6078C9.82969 9.19686 6.75 13.3453 6.75 18.1828C6.75 23.0344 9.82969 27.1687 14.1469 28.7437C14.4141 28.8422 14.625 29.1656 14.625 29.4469V30.5156Z" fill="white"/>
<path d="M19.125 26.6204C19.125 26.9297 18.8719 27.1829 18.5625 27.1829H17.4375C17.1281 27.1829 16.875 26.9297 16.875 26.6204V24.8485C14.4141 24.511 13.2187 23.1469 12.8953 21.2625C12.8391 20.9391 13.0922 20.6579 13.4156 20.6579H14.6953C14.9625 20.6579 15.1875 20.8547 15.2437 21.1079C15.4828 22.2188 16.1297 23.0766 18.0984 23.0766C19.5469 23.0766 20.5875 22.261 20.5875 21.0516C20.5875 19.8422 19.9828 19.3782 17.8453 19.0266C14.6953 18.6047 13.2047 17.6485 13.2047 15.1875C13.2047 13.2891 14.6531 11.7985 16.875 11.4891V9.74536C16.875 9.43599 17.1281 9.18286 17.4375 9.18286H18.5625C18.8719 9.18286 19.125 9.43599 19.125 9.74536V11.5313C20.9391 11.8547 22.0922 12.8813 22.4719 14.5969C22.5422 14.9204 22.2891 15.2157 21.9516 15.2157H20.7703C20.5172 15.2157 20.3062 15.0469 20.2359 14.8079C19.9125 13.725 19.1391 13.2469 17.7891 13.2469C16.2984 13.2469 15.525 13.9641 15.525 14.9766C15.525 16.0454 15.9609 16.5797 18.2531 16.9032C21.3469 17.325 22.95 18.211 22.95 20.8407C22.95 22.8375 21.4594 24.4547 19.1391 24.8204V26.6204H19.125Z" fill="white"/>
<path d="M22.1062 31.0501C21.6984 31.1766 21.375 30.9376 21.375 30.5157V29.461C21.375 29.1516 21.5578 28.8563 21.8531 28.7579C26.1562 27.1829 29.25 23.0344 29.25 18.1969C29.25 13.3454 26.1703 9.211 21.8531 7.636C21.5859 7.53756 21.375 7.21412 21.375 6.93287V5.87818C21.375 5.45631 21.7125 5.21725 22.1062 5.34381C27.5625 7.05943 31.5 12.1641 31.5 18.1829C31.5 24.2157 27.5625 29.3063 22.1062 31.0501Z" fill="white"/>
</svg>
