<svg width="36" height="36" viewBox="0 0 36 36" fill="none" xmlns="http://www.w3.org/2000/svg">
<rect width="36" height="36" rx="18" fill="#F3F3F5"/>
<path d="M11.2975 26.3201C12.6938 27.9107 14.669 28.8759 16.7819 28.9999C18.0316 28.9336 19.2107 28.3997 20.085 27.5042C21.8095 26.0272 23.6201 24.6536 25.5071 23.3909L26.5666 22.9546C27.0029 22.7676 27.7507 22.3314 28.4363 21.5212C29.1842 20.524 29.3088 19.4645 29.3088 19.0906C29.226 17.9112 28.8395 16.7734 28.187 15.7875C24.7266 21.9535 18.3571 25.9256 11.2975 26.3201Z" fill="#0293D6"/>
<path d="M13.6658 8.62037C14.606 7.62724 15.9129 7.06392 17.2805 7.0623C18.1466 7.00431 18.9997 7.29617 19.6488 7.8725C21.4365 9.13897 23.5658 9.83428 25.7564 9.86683C26.3173 9.92916 27.4391 10.1161 28.187 11.051C28.7479 11.7988 28.8102 12.609 28.8102 12.983C28.76 13.946 28.5494 14.8939 28.187 15.7875L13.6658 8.62037Z" fill="#EBE638"/>
<path d="M11.2975 26.3201C10.7365 26.2578 9.98867 26.0709 9.11615 25.6969C8.24363 25.323 7.18414 24.8867 6.49858 23.7026C6.06232 22.9547 6 22.2068 6 21.7083C6.01522 20.386 6.33512 19.0851 6.93484 17.9065C7.53152 16.4499 7.92979 14.9197 8.11898 13.357L8.43059 12.1105C8.61756 11.4873 8.74221 10.8641 9.17847 10.2408L9.86402 9.49295C10.9963 8.78105 12.3363 8.47351 13.6657 8.62043C10.0536 13.7875 9.17086 20.3852 11.2975 26.3201V26.3201Z" fill="#BAD147"/>
<path d="M13.6658 8.62036C13.6034 8.62036 17.0312 8.80733 19.1502 9.55521L20.8952 10.3031C20.2097 10.2408 15.8471 10.0538 12.5439 13.3569C8.36831 17.5949 9.73941 23.3909 9.80174 23.7025C8.83407 22.4851 8.34627 20.9551 8.43063 19.4022C8.5965 15.2357 10.4941 11.3275 13.6658 8.62036V8.62036Z" fill="#78B650"/>
<path d="M22.017 24.0141C24.4273 19.6326 23.9857 14.2346 20.8951 10.3031C22.7004 10.6049 24.3608 11.4789 25.6317 12.796C26.3796 13.4192 27.3144 14.3541 28.1869 15.7875C26.9546 19.0608 24.8142 21.9146 22.017 24.0141V24.0141Z" fill="#2F8260"/>
<path fill-rule="evenodd" clip-rule="evenodd" d="M20.9575 10.3031C21.5807 10.6147 23.0142 11.3626 24.0113 13.0453C25.1955 14.8527 25.1955 16.5977 25.1955 17.2833C25.0148 21.1976 22.4485 23.7154 22.0506 24.1057C22.0367 24.1194 22.0254 24.1304 22.017 24.1388C20.2279 25.6894 18.1535 26.0986 17.1589 26.2948C17.1141 26.3037 17.0715 26.3121 17.0312 26.3201C15.1785 26.6769 13.2748 26.6769 11.4221 26.3201C9.9804 24.4659 9.19166 22.1873 9.17847 19.8385C9.17847 19.153 9.36544 15.6006 12.2323 12.8584C15.7847 9.43061 20.4589 10.1785 20.9575 10.3031ZM17.2181 24.0765C18.9471 24.0785 20.5976 23.355 21.7677 22.0822C23.2011 20.4618 23.2011 18.5921 23.2011 17.9065C23.2011 17.6572 23.0765 13.9179 20.2096 12.3598C18.9008 11.6119 17.5921 11.6742 17.2181 11.7366C15.6601 11.7989 14.6006 12.4844 14.1643 12.796C14.1592 12.7998 14.154 12.8038 14.1485 12.8079C13.6179 13.2055 11.2962 14.9454 11.1728 17.9065C11.1119 20.0976 12.2993 21.5754 12.5871 21.9337C12.594 21.9423 12.6004 21.9502 12.6062 21.9575C14.3513 24.0142 16.8442 24.0765 17.2181 24.0765Z" fill="#085229"/>
</svg>
