<svg width="36" height="36" viewBox="0 0 36 36" fill="none" xmlns="http://www.w3.org/2000/svg">
<circle cx="18" cy="18" r="18" fill="#1BA27A"/>
<path d="M24.1641 9.39563H11.694V12.8076H16.4238V17.8225H19.4343V12.8076H24.1641V9.39563Z" fill="white"/>
<path fill-rule="evenodd" clip-rule="evenodd" d="M17.9576 15.0291C22.351 15.0291 25.9126 15.934 25.9126 17.0504C25.9126 18.0386 23.122 18.8611 19.4341 19.037V26.2332H16.4239V19.0341C12.7642 18.8526 10.0024 18.0335 10.0024 17.0504C10.0024 15.934 13.5642 15.0291 17.9576 15.0291ZM10.8728 16.7891C10.8728 17.6549 14.0449 18.3567 17.9576 18.3567C21.8702 18.3567 25.0422 17.6549 25.0422 16.7891C25.0422 15.9234 21.8702 15.2214 17.9576 15.2214C14.0448 15.2214 10.8728 15.9234 10.8728 16.7891Z" fill="white"/>
</svg>
