<svg width="36" height="36" viewBox="0 0 36 36" fill="none" xmlns="http://www.w3.org/2000/svg">
<path d="M36 16.2812C31.8638 -7.68411 0.571667 -3.04656 0.0131462 16.2812C1.81939 17.2185 2.95362 17.7879 2.95362 17.7879C2.95362 17.7879 1.99639 18.361 0 19.6365C3.60621 43.1313 34.359 39.7192 35.9939 19.6093C34.0386 18.4108 32.9725 17.778 32.9725 17.778C32.9725 17.778 33.8871 17.3425 36 16.2812Z" fill="#244B81"/>
<path d="M20.7755 24.6936L17.8407 19.6486L14.8535 24.6936L12.6 24.539L16.8446 17.3833L13.0193 11.2061L15.325 11L18.0501 15.5817L20.7755 11.2061L22.924 11.2575L19.3603 17.3319L23.2908 24.6418L20.7755 24.6936Z" fill="white"/>
</svg>
