<svg width="36" height="36" viewBox="0 0 36 36" fill="none" xmlns="http://www.w3.org/2000/svg">
<rect width="36" height="36" rx="18" fill="#262A3C"/>
<path fill-rule="evenodd" clip-rule="evenodd" d="M14.5776 23.4037C13.5848 24.1595 12.5924 24.915 11.6 25.6704C9.4 23.8389 8 21.0815 8 17.9976C8 16.1819 8.48517 14.4795 9.33346 13.0123L13.8879 18.9617L12.1983 20.7179C12.3945 21.1156 12.6897 21.6156 13.1293 22.1296C13.6417 22.7288 14.171 23.1375 14.5776 23.4037" fill="white"/>
<path fill-rule="evenodd" clip-rule="evenodd" d="M23.4137 21.415C24.1707 22.4064 24.9272 23.3974 25.6838 24.3884C23.8496 26.5853 21.0883 27.9833 18 27.9833C16.1817 27.9833 14.4769 27.4988 13.0076 26.6517L18.9655 22.1037L20.7241 23.791C21.1224 23.5951 21.6231 23.3003 22.1379 22.8613C22.7379 22.3496 23.1472 21.821 23.4137 21.415" fill="white"/>
<path fill-rule="evenodd" clip-rule="evenodd" d="M21.4224 12.5914C22.4151 11.8356 23.4076 11.0802 24.4 10.3247C26.6 12.1562 28 14.9136 28 17.9975C28 19.8132 27.5148 21.5156 26.6665 22.9828L22.112 17.0334L23.8017 15.2773C23.6055 14.8796 23.3103 14.3796 22.8706 13.8655C22.3582 13.2664 21.8289 12.8576 21.4224 12.5914" fill="white"/>
<path fill-rule="evenodd" clip-rule="evenodd" d="M12.5862 14.5801C11.8293 13.5887 11.0727 12.5977 10.3162 11.6067C12.1503 9.40984 14.9117 8.01184 18 8.01184C19.8182 8.01184 21.5231 8.49632 22.9924 9.3434L17.0344 13.8914L15.2758 12.2041C14.8775 12.4001 14.3768 12.6948 13.862 13.1338C13.262 13.6455 12.8527 14.1741 12.5862 14.5801" fill="white"/>
</svg>
