<?xml version="1.0" standalone="no"?>
<!DOCTYPE svg PUBLIC "-//W3C//DTD SVG 1.1//EN" "http://www.w3.org/Graphics/SVG/1.1/DTD/svg11.dtd" >
<svg xmlns="http://www.w3.org/2000/svg" xmlns:xlink="http://www.w3.org/1999/xlink" version="1.1">
<metadata>
Created by FontForge 20201107 at Mon Aug  9 17:42:54 2021
 By Jimmy Wärting
\(c\) 2020, Copyright by Lineto. All rights reserved.
</metadata>
<defs>
<font id="Circular-Medium" horiz-adv-x="578" >
  <font-face 
    font-family="Circular"
    font-weight="500"
    font-stretch="normal"
    units-per-em="1000"
    panose-1="2 11 6 4 1 1 1 1 1 4"
    ascent="800"
    descent="-200"
    x-height="487"
    cap-height="709"
    bbox="-199 -228 1105 907"
    underline-thickness="50"
    underline-position="-175"
    stemh="101"
    stemv="90"
    unicode-range="U+000D-FEFF"
  />
<missing-glyph horiz-adv-x="572" 
d="M72 709h428v-709h-428v709zM404 96v517h-236v-517h236z" />
    <glyph glyph-name="f_f" unicode="ff" horiz-adv-x="683" 
d="M622 625c-7 0 -15 -1 -24 -3s-16 -6 -23 -11c-7 -6 -13 -14 -18 -23c-5 -10 -7 -22 -7 -37v-64h113v-101h-113v-386h-117v386h-203v-386h-117v386h-85v101h85v67c0 27 4 52 13 74c8 21 20 40 35 55s32 26 53 34s44 12 69 12c15 0 28 -1 39 -3c11 -3 18 -5 22 -7v-99
c-3 1 -8 3 -15 4s-16 1 -27 1c-7 0 -15 -1 -24 -3s-16 -6 -23 -11c-7 -6 -13 -14 -18 -23c-5 -10 -7 -22 -7 -37v-64h203v67c0 27 4 52 13 74c8 21 20 40 35 55s32 26 53 34s44 12 69 12c15 0 28 -1 39 -3c11 -3 18 -5 22 -7v-99c-3 1 -8 3 -15 4s-16 1 -27 1z" />
    <glyph glyph-name="f_f_i" unicode="ffi" horiz-adv-x="948" 
d="M743 659c0 21 7 39 22 54s32 22 53 22s39 -7 54 -22s22 -33 22 -54s-7 -38 -22 -53s-33 -22 -54 -22s-38 7 -53 22s-22 32 -22 53zM622 625c-7 0 -15 -1 -24 -3s-16 -6 -23 -11c-7 -6 -13 -14 -18 -23c-5 -10 -7 -22 -7 -37v-64h326v-487h-115v386h-211v-386h-117v386
h-203v-386h-117v386h-85v101h85v67c0 27 4 52 13 74c8 21 20 40 35 55s32 26 53 34s44 12 69 12c15 0 28 -1 39 -3c11 -3 18 -5 22 -7v-99c-3 1 -8 3 -15 4s-16 1 -27 1c-8 0 -16 -1 -24 -3c-9 -2 -16 -6 -23 -11c-7 -6 -13 -14 -18 -23c-5 -10 -7 -22 -7 -37v-64h203v67
c0 27 4 52 13 74c8 21 20 40 35 55s32 26 53 34s44 12 69 12c15 0 28 -1 39 -3c11 -3 18 -5 22 -7v-99c-3 1 -8 3 -15 4s-16 1 -27 1z" />
    <glyph glyph-name="f_f_l" unicode="ffl" horiz-adv-x="948" 
d="M622 625c-7 0 -15 -1 -24 -3s-16 -6 -23 -11c-7 -6 -13 -14 -18 -23c-5 -10 -7 -22 -7 -37v-64h211v237h115v-724h-115v386h-211v-386h-117v386h-203v-386h-117v386h-85v101h85v67c0 27 4 52 13 74c8 21 20 40 35 55s32 26 53 34s44 12 69 12c15 0 28 -1 39 -3
c11 -3 18 -5 22 -7v-99c-3 1 -8 3 -15 4s-16 1 -27 1c-7 0 -15 -1 -24 -3s-16 -6 -23 -11c-7 -6 -13 -14 -18 -23c-5 -10 -7 -22 -7 -37v-64h203v67c0 27 4 52 13 74c8 21 20 40 35 55s32 26 53 34s44 12 69 12c15 0 28 -1 39 -3c11 -3 18 -5 22 -7v-99c-3 1 -8 3 -15 4
s-16 1 -27 1z" />
    <glyph glyph-name="f_i" unicode="fi" horiz-adv-x="626" 
d="M283 729c15 0 28 -1 39 -3c11 -3 18 -5 22 -7v-99c-3 1 -8 3 -15 4s-16 1 -27 1c-7 0 -15 -1 -24 -3s-16 -6 -23 -11c-7 -6 -13 -14 -18 -23c-5 -10 -7 -22 -7 -37v-64h324v-487h-114v386h-210v-386h-117v386h-85v101h85v67c0 27 4 52 13 74c8 21 20 40 35 55
s32 26 53 34s44 12 69 12zM422 659c0 21 7 39 22 54c14 15 32 22 53 22s39 -7 54 -22s22 -33 22 -54s-7 -38 -22 -53s-33 -22 -54 -22s-39 7 -53 22c-15 15 -22 32 -22 53z" />
    <glyph glyph-name="f_l" unicode="fl" horiz-adv-x="625" 
d="M302 625c-7 0 -15 -1 -24 -3s-16 -6 -23 -11c-7 -6 -13 -14 -18 -23c-5 -10 -7 -22 -7 -37v-64h208v237h115v-724h-115v386h-208v-386h-117v386h-85v101h85v67c0 27 4 52 13 74c8 21 20 40 35 55s32 26 53 34s44 12 69 12c15 0 28 -1 39 -3c11 -3 18 -5 22 -7v-99
c-3 1 -8 3 -15 4s-16 1 -27 1z" />
    <glyph glyph-name=".notdef" horiz-adv-x="572" 
d="M72 709h428v-709h-428v709zM404 96v517h-236v-517h236z" />
    <glyph glyph-name="NULL" horiz-adv-x="0" 
 />
    <glyph glyph-name="NULL" horiz-adv-x="0" 
 />
    <glyph glyph-name="CR" unicode="&#xd;" horiz-adv-x="242" 
 />
    <glyph glyph-name="space" unicode=" " horiz-adv-x="242" 
 />
    <glyph glyph-name="exclam" unicode="!" horiz-adv-x="264" 
d="M174 210h-84l-29 499h141zM59 66c0 20 7 37 21 52s31 22 51 22c21 0 38 -7 53 -22c14 -15 21 -32 21 -52s-7 -37 -21 -51c-15 -15 -32 -22 -53 -22c-20 0 -37 7 -51 22c-14 14 -21 31 -21 51z" />
    <glyph glyph-name="quotedbl" unicode="&#x22;" horiz-adv-x="401" 
d="M42 651c0 20 6 37 19 50s29 20 50 20c19 0 36 -7 49 -20s19 -30 19 -50c0 -3 0 -7 -1 -12c-1 -4 -1 -7 -2 -10l-45 -186h-42l-44 185c-1 3 -1 6 -2 11s-1 9 -1 12zM221 651c0 20 7 37 20 50s29 20 49 20s36 -7 49 -20s19 -30 19 -50c0 -8 -1 -15 -2 -22l-45 -186h-42
l-44 185c-1 3 -1 6 -2 11s-2 9 -2 12z" />
    <glyph glyph-name="numbersign" unicode="#" horiz-adv-x="730" 
d="M447 431h-138l-34 -169h137zM396 175h-138l-34 -175h-96l34 175h-127v87h143l35 169h-129v87h144l39 191h96l-39 -191h138l38 191h98l-38 -191h135v-87h-152l-33 -169h135v-87h-152l-34 -175h-98z" />
    <glyph glyph-name="dollar" unicode="$" 
d="M252 -115v118c-36 5 -67 14 -93 28c-27 13 -49 30 -67 50c-18 19 -32 41 -41 64c-10 23 -16 45 -19 68l106 28c2 -18 7 -35 14 -52s18 -31 31 -44s29 -24 48 -31c19 -8 42 -12 68 -12c40 0 71 9 92 28c21 18 32 41 32 68c0 23 -8 43 -24 59s-39 27 -68 33l-101 21
c-53 11 -94 33 -125 66s-47 74 -47 124c0 27 5 52 15 75s24 44 41 62s38 33 62 45c23 11 49 19 76 23v119h92v-120c29 -5 55 -13 76 -24c21 -12 40 -26 55 -42s26 -33 35 -52s15 -37 19 -55l-104 -31c-2 12 -6 24 -12 37c-6 12 -14 23 -25 33s-24 18 -40 25
c-16 6 -35 9 -58 9c-35 0 -63 -9 -85 -27c-22 -19 -33 -41 -33 -68c0 -47 27 -76 82 -88l99 -20c61 -12 107 -36 139 -71s48 -77 48 -125c0 -24 -4 -47 -13 -69c-9 -23 -21 -43 -38 -61c-17 -19 -37 -34 -62 -47c-24 -13 -52 -21 -83 -26v-118h-92z" />
    <glyph glyph-name="percent" unicode="%" horiz-adv-x="835" 
d="M133 0l461 709h106l-460 -709h-107zM359 559c0 -23 -4 -45 -13 -64s-20 -36 -35 -51s-33 -26 -53 -34s-41 -12 -63 -12s-43 4 -63 13c-20 8 -37 19 -52 33c-15 15 -26 32 -35 51c-9 20 -13 41 -13 64s4 44 13 63s21 36 36 50c15 15 32 26 52 34c19 9 40 13 62 13
s43 -4 63 -13c20 -8 38 -19 53 -34c15 -14 26 -31 35 -50s13 -40 13 -63zM124 559c0 -22 7 -40 21 -54c13 -13 30 -20 50 -20c21 0 38 7 51 20c13 14 20 32 20 54c0 21 -7 39 -20 52s-30 20 -51 20c-20 0 -37 -7 -50 -20c-14 -13 -21 -31 -21 -52zM475 151c0 23 4 44 13 63
s21 36 36 50c15 15 32 26 52 34c20 9 41 13 63 13s43 -4 63 -13c19 -8 37 -19 52 -34c15 -14 27 -31 36 -50s13 -40 13 -63s-4 -45 -13 -64s-21 -36 -36 -51s-33 -26 -53 -34s-41 -12 -63 -12s-43 4 -62 12c-20 9 -37 20 -52 34c-15 15 -27 32 -36 51c-9 20 -13 41 -13 64z
M709 151c0 21 -7 39 -20 52c-13 14 -30 21 -50 21s-37 -7 -50 -21c-14 -13 -21 -31 -21 -52c0 -22 7 -40 21 -54c13 -13 30 -20 50 -20s37 7 50 21s20 32 20 53z" />
    <glyph glyph-name="ampersand" unicode="&#x26;" horiz-adv-x="694" 
d="M450 84c-28 -30 -58 -54 -89 -71s-66 -26 -105 -26c-34 0 -64 5 -90 16c-27 11 -49 25 -67 42s-31 37 -40 59c-9 23 -14 46 -14 69s3 43 9 61s14 35 25 50c11 16 24 31 39 44s31 27 50 41l7 5l-12 13c-9 9 -18 19 -27 30s-18 23 -26 36s-15 27 -20 42s-8 31 -8 48
c0 29 6 55 17 77c11 23 25 42 43 57s38 27 61 35s46 12 69 12c28 0 54 -4 78 -13c23 -8 44 -20 61 -35s31 -34 41 -56c9 -21 14 -45 14 -72c0 -17 -3 -34 -8 -49c-6 -15 -14 -30 -23 -43s-20 -26 -32 -37s-24 -22 -37 -31l-31 -23l118 -123l169 182v-150l-97 -107l160 -167
h-155zM258 92c23 0 44 6 63 19s37 29 55 48l1 1l-131 139l-24 -18c-17 -13 -31 -27 -42 -42s-16 -35 -16 -58c0 -11 2 -22 6 -32c5 -11 11 -20 19 -29s18 -15 29 -20c12 -5 25 -8 40 -8zM196 550c0 -17 5 -33 14 -48c9 -14 20 -28 33 -41l20 -22l41 30c19 14 31 28 38 41
s10 27 10 40c0 21 -7 39 -22 54s-34 22 -57 22c-9 0 -19 -2 -28 -5s-17 -7 -24 -14c-7 -6 -13 -14 -18 -24c-5 -9 -7 -20 -7 -33z" />
    <glyph glyph-name="quotesingle" unicode="'" horiz-adv-x="221" 
d="M42 651c0 20 6 37 19 50s29 20 50 20c19 0 36 -7 49 -20s19 -30 19 -50c0 -3 0 -7 -1 -12c-1 -4 -1 -7 -2 -10l-45 -186h-42l-44 185c-1 3 -1 6 -2 11s-1 9 -1 12z" />
    <glyph glyph-name="parenleft" unicode="(" horiz-adv-x="325" 
d="M43 320c0 56 5 108 16 155c10 47 24 91 42 131c19 40 40 77 64 110c25 33 51 64 79 92l68 -62c-52 -57 -94 -120 -125 -189s-46 -148 -46 -237s15 -169 46 -238s73 -132 125 -189l-68 -61c-28 28 -54 59 -79 92c-24 33 -45 70 -64 110c-18 40 -32 84 -42 131
c-11 47 -16 99 -16 155z" />
    <glyph glyph-name="parenright" unicode=")" horiz-adv-x="325" 
d="M282 320c0 -56 -5 -108 -15 -155c-11 -47 -25 -91 -43 -131s-39 -77 -64 -110s-51 -64 -79 -92l-68 61c53 57 94 120 125 189s46 149 46 238s-15 168 -46 237s-72 132 -125 189l68 62c28 -28 54 -59 79 -92s46 -70 64 -110s32 -84 43 -131c10 -47 15 -99 15 -155z" />
    <glyph glyph-name="asterisk" unicode="*" horiz-adv-x="459" 
d="M276 579l119 40l29 -86l-121 -40l78 -102l-73 -54l-80 105l-75 -104l-74 54l76 101l-121 40l29 86l119 -41v131h94v-130z" />
    <glyph glyph-name="plus" unicode="+" horiz-adv-x="552" 
d="M325 397h189v-96h-189v-197h-99v197h-188v96h188v195h99v-195z" />
    <glyph glyph-name="comma" unicode="," horiz-adv-x="276" 
d="M51 73c0 21 8 39 24 54s36 22 59 22c27 0 49 -10 66 -29s25 -45 25 -77c0 -35 -5 -66 -16 -91s-24 -45 -40 -62s-34 -30 -53 -39s-37 -14 -54 -16v59c11 3 22 7 33 14s20 15 29 24c8 10 15 21 20 32c5 12 7 25 7 38c-2 -1 -5 -3 -8 -4c-4 -1 -9 -1 -16 -1
c-22 0 -40 7 -54 21c-15 13 -22 32 -22 55z" />
    <glyph glyph-name="hyphen" unicode="-" horiz-adv-x="410" 
d="M64 241v103h282v-103h-282z" />
    <glyph glyph-name="period" unicode="." horiz-adv-x="264" 
d="M51 75c0 23 8 42 24 58c15 16 34 24 57 24s42 -8 58 -24s24 -35 24 -58s-8 -42 -24 -58c-16 -15 -35 -23 -58 -23s-42 8 -57 23c-16 16 -24 35 -24 58z" />
    <glyph glyph-name="slash" unicode="/" horiz-adv-x="503" 
d="M133 0h-107l345 709h107z" />
    <glyph glyph-name="zero" unicode="0" horiz-adv-x="669" 
d="M50 354c0 48 4 94 13 137s26 83 50 118c23 35 53 62 89 83s80 32 132 32s96 -11 132 -32c37 -21 67 -48 90 -83s40 -75 49 -118s14 -89 14 -137s-5 -93 -14 -136s-26 -83 -49 -118s-53 -63 -90 -84c-36 -21 -80 -31 -132 -31s-96 10 -132 31s-66 49 -89 84
s-40 75 -49 118s-14 88 -14 136zM168 354c0 -49 4 -92 13 -128s23 -65 42 -86c13 -15 29 -27 46 -36c18 -9 40 -14 65 -14s47 5 64 14c18 9 34 21 47 36c19 22 33 51 42 87c9 35 13 78 13 127s-4 92 -13 128c-9 35 -23 64 -42 86c-13 15 -29 28 -47 37c-17 9 -39 13 -64 13
s-47 -4 -65 -13c-17 -9 -33 -22 -46 -37c-19 -21 -33 -50 -42 -86s-13 -79 -13 -128z" />
    <glyph glyph-name="one" unicode="1" horiz-adv-x="383" 
d="M194 0v493h-171v83c25 1 48 5 69 12s39 16 55 28c16 11 29 25 39 41s17 33 21 52h105v-709h-118z" />
    <glyph glyph-name="two" unicode="2" horiz-adv-x="598" 
d="M54 458c-2 10 -3 22 -3 35c0 31 6 60 17 88c11 27 27 52 48 73s48 38 79 51s66 19 105 19c38 0 72 -6 103 -17c30 -12 55 -28 76 -48s37 -43 48 -70s16 -55 16 -85c0 -47 -12 -88 -36 -125s-57 -69 -98 -94l-139 -88c-19 -11 -35 -24 -49 -38c-14 -15 -24 -32 -29 -51
h355v-108h-503c1 30 4 58 10 85c6 26 16 51 29 75c13 23 31 46 52 67s46 41 77 60l117 75c32 20 56 42 71 65s22 48 22 75c0 15 -2 30 -7 44s-13 27 -24 38s-24 19 -40 26c-15 6 -33 9 -54 9c-22 0 -41 -3 -58 -10c-16 -7 -29 -17 -40 -30c-10 -13 -18 -27 -23 -44
s-8 -34 -8 -53c0 -5 0 -11 1 -17l2 -18z" />
    <glyph glyph-name="three" unicode="3" horiz-adv-x="616" 
d="M190 419l202 183h-330v107h486v-103l-197 -177c26 -1 52 -6 78 -15c25 -9 48 -23 69 -41c20 -18 36 -40 49 -67s19 -58 19 -93c0 -30 -6 -59 -17 -86c-12 -28 -29 -52 -51 -73s-49 -38 -81 -50c-33 -13 -70 -19 -112 -19c-41 0 -77 6 -109 19c-32 12 -59 28 -82 49
c-23 20 -40 44 -53 71s-20 55 -22 84l117 25c1 -22 5 -42 13 -60s19 -33 32 -45c13 -13 29 -22 46 -29c18 -7 37 -11 57 -11c23 0 43 3 61 10c17 7 32 16 44 27s21 25 27 40s9 31 9 48c0 22 -4 41 -12 57c-8 15 -18 28 -31 39c-13 10 -28 17 -44 22s-32 7 -49 7
c-22 0 -43 -4 -62 -13z" />
    <glyph glyph-name="four" unicode="4" horiz-adv-x="637" 
d="M29 290l301 419h159v-445h119v-107h-119v-157h-117v157h-343v133zM372 591l-235 -327h235v327z" />
    <glyph glyph-name="five" unicode="5" horiz-adv-x="600" 
d="M145 226c3 -40 19 -73 46 -99s61 -39 104 -39c20 0 39 3 56 9c17 7 33 16 46 27c13 12 23 26 30 43s11 35 11 56c0 23 -4 43 -12 60s-18 32 -31 43c-13 12 -29 21 -46 27c-18 5 -36 8 -55 8c-25 0 -49 -4 -70 -13s-39 -22 -53 -37l-115 43l90 355h380v-107h-300l-48 -190
c15 17 36 29 62 38c25 8 51 12 77 12c35 0 67 -5 97 -16c29 -11 55 -26 76 -46s38 -45 50 -74s18 -62 18 -99c0 -33 -6 -65 -18 -94c-13 -29 -30 -55 -53 -77s-50 -39 -83 -52s-69 -19 -109 -19c-38 0 -73 6 -104 18c-31 11 -58 27 -81 46s-42 42 -55 67s-21 52 -24 80z" />
    <glyph glyph-name="six" unicode="6" horiz-adv-x="633" 
d="M537 589c-14 7 -32 14 -53 20c-22 6 -46 9 -71 9c-35 0 -67 -6 -96 -18c-29 -11 -54 -28 -75 -49s-38 -46 -51 -75s-20 -61 -23 -96c14 23 37 43 68 61c31 17 69 26 115 26c35 0 68 -5 97 -16s55 -27 76 -47c21 -21 38 -46 50 -75c12 -30 18 -64 18 -101s-7 -71 -21 -101
s-33 -55 -57 -76c-25 -21 -53 -38 -85 -49s-66 -17 -102 -17c-35 0 -70 6 -103 19c-34 13 -64 32 -90 59s-47 61 -62 102c-16 41 -24 89 -24 146c0 65 9 123 28 174s45 95 78 130s73 62 118 81s95 28 148 28c33 0 62 -3 89 -10c26 -7 47 -17 62 -28zM183 227
c0 -22 4 -42 12 -59s19 -32 32 -44s29 -21 46 -28c17 -6 35 -9 54 -9s38 3 56 9c17 7 33 16 46 28s24 27 32 44c7 17 11 37 11 59s-4 42 -11 59c-8 17 -19 32 -32 44s-29 21 -46 27c-18 7 -37 10 -56 10s-38 -3 -55 -10c-17 -6 -33 -15 -46 -27s-24 -27 -31 -44
c-8 -17 -12 -37 -12 -59z" />
    <glyph glyph-name="seven" unicode="7" horiz-adv-x="560" 
d="M546 600c-11 -9 -24 -21 -41 -36c-17 -16 -36 -36 -56 -60s-40 -52 -61 -84c-21 -33 -41 -70 -59 -111c-19 -42 -35 -89 -49 -140s-24 -108 -29 -169h-124c4 50 11 97 22 141c10 44 22 85 36 123c14 37 29 72 46 103s33 60 50 85c39 59 83 109 130 150h-388v107h523v-109
z" />
    <glyph glyph-name="eight" unicode="8" horiz-adv-x="617" 
d="M308 -15c-40 0 -76 5 -108 16c-32 10 -59 24 -82 42c-22 19 -39 40 -51 65s-18 51 -18 80c0 42 12 78 37 109s57 53 94 66c-33 12 -60 33 -81 63c-21 29 -32 62 -32 99c0 29 6 56 18 81c12 24 29 45 50 63c22 17 48 31 77 41c29 9 61 14 96 14s67 -5 96 -14
c30 -10 56 -24 77 -41c22 -18 39 -39 51 -63c13 -25 19 -52 19 -81c0 -36 -11 -69 -32 -99s-49 -51 -83 -63c19 -6 36 -15 52 -26s30 -24 42 -39s21 -32 28 -51s10 -38 10 -59c0 -29 -6 -55 -18 -80c-11 -25 -28 -46 -51 -65c-22 -18 -49 -32 -81 -42
c-33 -11 -69 -16 -110 -16zM308 409c37 1 66 12 89 32s34 46 34 78c0 15 -3 28 -9 41c-5 13 -13 24 -24 33c-11 10 -24 18 -39 24c-15 5 -32 8 -51 8c-38 0 -68 -10 -90 -31s-33 -46 -33 -75c0 -32 11 -58 34 -78s53 -31 89 -32zM308 86c45 0 80 11 104 33
c24 23 36 49 36 80c0 16 -3 31 -9 44c-6 14 -15 26 -27 37s-27 19 -44 25s-37 9 -60 9c-22 0 -42 -3 -59 -9s-32 -14 -44 -25s-21 -23 -27 -37c-6 -13 -9 -28 -9 -44c0 -31 12 -57 35 -80c24 -22 59 -33 104 -33z" />
    <glyph glyph-name="nine" unicode="9" horiz-adv-x="631" 
d="M447 482c0 21 -4 40 -12 57s-19 31 -32 43s-29 21 -46 28s-35 10 -54 10s-37 -3 -54 -9c-17 -7 -32 -16 -45 -28s-24 -26 -32 -43s-12 -37 -12 -58c0 -22 4 -42 12 -59c7 -18 18 -33 31 -45s28 -21 45 -27c17 -7 36 -10 55 -10s37 3 54 10s33 16 46 28s24 27 32 44
s12 37 12 59zM95 123c15 -9 35 -16 58 -22c23 -7 47 -10 70 -10c40 0 75 6 104 18c29 11 54 28 74 49c19 21 34 45 44 74s16 60 17 94c-13 -23 -35 -43 -64 -60c-30 -17 -68 -26 -113 -26c-31 0 -62 5 -91 16s-55 26 -78 47c-23 20 -41 45 -54 75c-14 29 -21 63 -21 101
c0 36 7 69 21 100c14 30 33 56 57 77s52 38 84 50c31 12 65 18 101 18s71 -6 104 -19s63 -33 89 -60s47 -62 62 -103s23 -90 23 -146c0 -65 -7 -122 -22 -173s-38 -94 -68 -129s-67 -62 -112 -81s-97 -28 -156 -28c-14 0 -29 1 -44 3c-16 2 -31 5 -46 8c-15 4 -28 8 -41 13
s-24 10 -33 16z" />
    <glyph glyph-name="colon" unicode=":" horiz-adv-x="289" 
d="M64 74c0 23 8 42 24 58c15 15 34 23 57 23c22 0 41 -8 57 -23c16 -16 24 -35 24 -58c0 -22 -8 -41 -24 -56c-16 -16 -35 -24 -57 -24c-23 0 -42 8 -57 24c-16 15 -24 34 -24 56zM63 412c0 23 8 42 24 58c15 15 34 23 57 23c22 0 41 -8 57 -23c16 -16 24 -35 24 -58
c0 -22 -8 -41 -24 -56c-16 -16 -35 -24 -57 -24c-23 0 -42 8 -57 24c-16 15 -24 34 -24 56z" />
    <glyph glyph-name="semicolon" unicode=";" horiz-adv-x="296" 
d="M66 69c0 21 8 38 23 52s34 21 56 21c25 0 46 -9 63 -28c16 -19 24 -43 24 -73c0 -33 -5 -62 -15 -86c-11 -24 -23 -44 -38 -59c-15 -16 -32 -28 -50 -37c-19 -9 -36 -14 -52 -16v56c11 3 21 7 31 14c10 6 19 14 27 23s14 19 19 30s7 23 7 36c-1 -1 -4 -3 -7 -4
c-4 -1 -9 -1 -15 -1c-21 0 -39 7 -52 20c-14 13 -21 30 -21 52zM65 412c0 23 8 42 24 58c15 15 34 23 57 23c22 0 41 -8 57 -23c16 -16 24 -35 24 -58c0 -22 -8 -41 -24 -56c-16 -16 -35 -24 -57 -24c-23 0 -42 8 -57 24c-16 15 -24 34 -24 56z" />
    <glyph glyph-name="less" unicode="&#x3c;" horiz-adv-x="526" 
d="M456 202v-112l-422 211v94l422 213v-112l-301 -146z" />
    <glyph glyph-name="equal" unicode="=" horiz-adv-x="605" 
d="M65 401v94h475v-94h-475zM65 203v96h475v-96h-475z" />
    <glyph glyph-name="greater" unicode="&#x3e;" horiz-adv-x="528" 
d="M373 348l-303 148v112l423 -213v-93l-423 -212v111z" />
    <glyph glyph-name="question" unicode="?" horiz-adv-x="520" 
d="M195 210c-1 7 -1 13 -1 19c-1 5 -1 12 -1 19c0 30 6 57 19 82c12 25 33 48 62 69l46 33c17 12 29 25 36 40c7 14 11 30 11 47c0 13 -2 25 -6 38c-5 12 -11 23 -20 32s-21 17 -34 23c-14 5 -30 8 -48 8c-19 0 -35 -3 -49 -10s-26 -15 -35 -26c-10 -11 -17 -23 -22 -36
c-5 -14 -7 -28 -7 -42c0 -7 0 -15 1 -24s3 -16 5 -21l-113 8c-4 14 -6 29 -6 46c0 25 5 50 14 75s23 47 42 67s43 36 71 49c28 12 61 18 99 18c37 0 69 -6 98 -17s53 -26 72 -45s33 -40 43 -64s15 -49 15 -74c0 -40 -9 -74 -28 -102c-19 -29 -43 -53 -72 -74l-43 -30
c-33 -23 -50 -55 -50 -95v-5c0 -2 0 -5 1 -8h-100zM173 66c0 20 7 37 21 52s31 22 52 22c20 0 37 -7 52 -22c14 -15 21 -32 21 -52s-7 -37 -21 -51c-15 -15 -32 -22 -52 -22c-21 0 -38 7 -52 22c-14 14 -21 31 -21 51z" />
    <glyph glyph-name="at" unicode="@" horiz-adv-x="830" 
d="M599 138c-25 0 -47 6 -64 17s-29 26 -34 45c-13 -21 -31 -37 -52 -48s-43 -16 -65 -16s-42 4 -61 13c-19 8 -35 20 -48 35s-24 33 -31 54c-8 21 -12 45 -12 70c0 33 5 63 16 91s25 52 43 73s39 37 63 48s49 17 76 17c20 0 40 -5 60 -15s34 -25 41 -46l9 48h88l-53 -248
c-1 -3 -1 -6 -2 -10s-1 -8 -1 -11c0 -10 3 -19 8 -27c5 -7 13 -11 26 -11s26 5 38 14c13 9 24 22 33 38c10 17 18 36 24 57c5 22 8 45 8 70c0 36 -6 69 -19 99s-32 56 -55 77c-24 22 -53 39 -86 51c-33 13 -70 19 -110 19c-43 0 -83 -8 -119 -23c-37 -15 -68 -36 -95 -63
s-48 -59 -63 -97s-23 -80 -23 -127c0 -43 7 -82 21 -119c14 -36 34 -67 61 -94c26 -27 58 -48 97 -63c38 -15 81 -22 130 -22c34 0 67 5 100 15c33 11 64 27 93 49l45 -61c-14 -13 -30 -25 -49 -35c-19 -11 -39 -20 -60 -27s-43 -12 -65 -16s-43 -6 -64 -6
c-59 0 -112 9 -161 27c-49 19 -92 45 -127 78c-36 33 -64 72 -84 119c-19 47 -29 98 -29 155c0 58 10 111 31 160c21 48 49 89 84 124c35 34 77 61 124 80c48 19 99 28 152 28c51 0 98 -8 142 -25c43 -17 81 -39 113 -68s57 -64 76 -104c18 -40 27 -83 27 -130
c0 -38 -5 -73 -16 -104s-25 -58 -43 -81c-19 -23 -40 -41 -63 -54c-24 -13 -49 -20 -75 -20zM509 368c0 27 -6 48 -19 63s-31 22 -56 22c-17 0 -33 -4 -46 -12c-13 -9 -25 -19 -34 -32s-17 -28 -22 -45s-7 -33 -7 -49c0 -27 6 -50 18 -68c12 -19 32 -28 59 -28
c15 0 29 4 42 11s24 18 33 31c10 13 18 29 23 47s8 38 9 60z" />
    <glyph glyph-name="A" unicode="A" horiz-adv-x="717" 
d="M506 178h-300l-66 -178h-127l276 709h139l276 -709h-131zM248 289h216l-108 290z" />
    <glyph glyph-name="B" unicode="B" horiz-adv-x="619" 
d="M333 709c34 0 64 -5 91 -14s49 -23 68 -40s33 -37 43 -60c9 -23 14 -49 14 -77c0 -38 -10 -70 -29 -97c-20 -26 -45 -45 -76 -56c38 -10 69 -30 92 -60c23 -31 35 -67 35 -109c0 -29 -5 -55 -16 -79s-25 -45 -44 -62s-43 -31 -70 -40c-27 -10 -57 -15 -90 -15h-262v709
h244zM317 409c35 0 63 9 82 27c20 18 30 42 30 72s-10 54 -30 72s-48 27 -85 27h-106v-198h109zM330 102c36 0 65 9 86 27c22 18 33 43 33 75c0 31 -10 56 -30 75c-19 19 -48 29 -85 29h-126v-206h122z" />
    <glyph glyph-name="C" unicode="C" horiz-adv-x="751" 
d="M402 -15c-48 0 -93 8 -136 25s-81 41 -114 72c-33 32 -60 71 -79 116c-19 46 -29 98 -29 156s10 110 30 155c20 46 47 85 80 116c33 32 71 56 114 73s87 26 133 26c45 0 85 -6 121 -19c36 -12 67 -29 94 -50s49 -45 66 -73s30 -57 38 -88l-113 -38c-5 21 -13 41 -24 60
s-25 36 -42 50s-37 25 -60 33s-50 12 -80 12c-29 0 -58 -5 -86 -16s-53 -27 -75 -48s-40 -48 -53 -81c-13 -32 -20 -69 -20 -112c0 -41 7 -78 20 -110c13 -31 30 -58 52 -79s47 -38 76 -49c28 -11 57 -16 87 -16s57 4 80 13s44 20 61 35s32 31 44 50c11 19 20 38 26 58
l110 -36c-8 -30 -21 -59 -38 -87c-17 -29 -39 -54 -66 -75c-27 -22 -59 -40 -95 -53s-77 -20 -122 -20z" />
    <glyph glyph-name="D" unicode="D" horiz-adv-x="731" 
d="M335 110c31 0 60 5 87 15s51 25 71 45c21 20 37 45 49 76c12 30 18 66 18 107s-6 78 -18 109c-11 31 -27 56 -48 77c-20 20 -44 35 -71 45s-56 15 -87 15h-127v-489h126zM89 0v709h251c48 0 93 -8 135 -23c42 -16 79 -39 110 -69c31 -31 55 -68 73 -112
c18 -45 27 -95 27 -152s-9 -107 -27 -151s-43 -81 -74 -111s-68 -53 -110 -68s-87 -23 -135 -23h-250z" />
    <glyph glyph-name="E" unicode="E" horiz-adv-x="580" 
d="M89 0v709h438v-112h-318v-188h288v-109h-288v-188h318v-112h-438z" />
    <glyph glyph-name="F" unicode="F" horiz-adv-x="571" 
d="M89 0v709h441v-113h-321v-199h288v-111h-288v-286h-120z" />
    <glyph glyph-name="G" unicode="G" horiz-adv-x="776" 
d="M619 0l-9 90c-8 -13 -18 -26 -31 -39c-13 -12 -29 -23 -47 -33s-39 -18 -62 -24s-49 -9 -77 -9c-46 0 -90 8 -132 25c-43 17 -80 41 -112 72c-32 32 -57 71 -76 116c-19 46 -29 98 -29 157c0 58 10 110 30 156s47 85 80 116s71 55 114 72s87 25 133 25
c43 0 82 -6 117 -18c35 -11 67 -27 94 -47c27 -19 49 -42 68 -68c18 -26 32 -54 41 -83l-113 -43c-6 20 -15 39 -26 57c-12 18 -27 34 -44 47s-37 24 -60 32s-49 12 -77 12c-29 0 -57 -5 -85 -16c-28 -10 -53 -26 -75 -47c-23 -21 -41 -48 -54 -80c-14 -33 -21 -71 -21 -115
c0 -43 7 -81 20 -113c13 -33 30 -60 52 -81c21 -22 46 -38 74 -49s57 -17 88 -17c36 0 67 6 92 17s45 24 61 40s28 33 36 52c8 18 13 35 14 50h-234v105h347v-359h-97z" />
    <glyph glyph-name="H" unicode="H" horiz-adv-x="752" 
d="M542 0v303h-333v-303h-120v709h120v-293h333v293h121v-709h-121z" />
    <glyph glyph-name="I" unicode="I" horiz-adv-x="300" 
d="M89 0v709h122v-709h-122z" />
    <glyph glyph-name="J" unicode="J" horiz-adv-x="556" 
d="M24 260l117 24v-66c0 -42 10 -72 31 -91s47 -29 78 -29c32 0 57 10 76 31c19 20 28 48 28 84v496h120v-493c0 -31 -5 -61 -16 -89s-26 -52 -45 -73s-43 -38 -70 -50c-27 -13 -58 -19 -92 -19c-35 0 -66 5 -94 17c-28 11 -52 26 -71 46c-20 20 -35 44 -46 72
s-16 59 -16 94v46z" />
    <glyph glyph-name="K" unicode="K" horiz-adv-x="677" 
d="M303 307l-94 -103v-204h-120v709h120v-340l305 340h158l-287 -313l290 -396h-151z" />
    <glyph glyph-name="L" unicode="L" horiz-adv-x="551" 
d="M89 0v709h120v-595h325v-114h-445z" />
    <glyph glyph-name="M" unicode="M" horiz-adv-x="958" 
d="M750 0v522l-221 -522h-104l-219 520v-520h-117v709h160l230 -541l227 541h163v-709h-119z" />
    <glyph glyph-name="N" unicode="N" horiz-adv-x="773" 
d="M559 0l-350 537v-537h-120v709h153l322 -503v503h120v-709h-125z" />
    <glyph glyph-name="O" unicode="O" horiz-adv-x="809" 
d="M167 355c0 -43 7 -80 21 -112c13 -32 31 -59 53 -80s47 -37 76 -48c28 -11 57 -16 87 -16s59 5 88 16s54 27 76 48s40 48 54 80c13 32 20 69 20 112s-7 80 -20 112c-14 32 -32 59 -54 80s-47 37 -76 48s-58 16 -88 16s-59 -5 -87 -16c-29 -11 -54 -27 -76 -48
s-40 -48 -53 -80c-14 -32 -21 -69 -21 -112zM44 355c0 58 10 110 30 156c20 45 47 84 80 116c33 31 72 55 115 72s88 25 135 25s92 -8 135 -25s82 -41 115 -72c33 -32 60 -71 80 -116c21 -46 31 -98 31 -156s-10 -110 -31 -156c-20 -46 -47 -85 -80 -116
c-33 -32 -72 -56 -115 -73s-88 -25 -135 -25s-92 8 -135 25s-82 41 -115 73c-33 31 -60 70 -80 116s-30 98 -30 156z" />
    <glyph glyph-name="P" unicode="P" horiz-adv-x="605" 
d="M334 383c38 0 68 10 90 29c21 19 32 46 32 80s-11 61 -32 81c-22 20 -52 30 -90 30h-125v-220h125zM209 277v-277h-120v709h263c34 0 65 -6 93 -17c27 -11 51 -26 71 -45s35 -41 46 -68s16 -55 16 -86s-5 -60 -16 -87c-11 -26 -26 -49 -46 -68s-44 -34 -71 -45
c-28 -11 -59 -16 -93 -16h-143z" />
    <glyph glyph-name="Q" unicode="Q" horiz-adv-x="809" 
d="M44 355c0 58 10 110 30 155c20 46 47 85 80 116c33 32 72 56 115 73s88 25 135 25s92 -8 135 -25s82 -41 115 -73c33 -31 60 -70 80 -116c21 -45 31 -97 31 -155c0 -53 -8 -100 -25 -143c-17 -42 -39 -79 -67 -110l84 -94l-81 -69l-87 95c-28 -16 -58 -28 -89 -37
c-31 -8 -63 -12 -96 -12c-47 0 -92 8 -135 25s-82 41 -115 73c-33 31 -60 70 -80 116s-30 98 -30 156zM167 355c0 -43 7 -80 21 -112c13 -32 31 -59 53 -80s47 -37 76 -48c28 -11 57 -16 87 -16c18 0 36 2 54 5c18 4 35 10 52 18l-117 130l82 70l118 -131c15 21 27 44 36 71
s13 58 13 93c0 43 -7 80 -20 112c-14 32 -32 59 -54 80s-47 37 -76 48s-58 16 -88 16s-59 -5 -87 -16c-29 -11 -54 -27 -76 -48s-40 -48 -53 -80c-14 -32 -21 -69 -21 -112z" />
    <glyph glyph-name="R" unicode="R" horiz-adv-x="630" 
d="M298 280h-88v-280h-121v709h272c34 0 65 -5 93 -16c27 -11 51 -27 70 -46c19 -20 33 -43 44 -69c10 -26 15 -54 15 -84c0 -51 -14 -94 -42 -130c-29 -36 -68 -60 -118 -72l160 -292h-136zM339 386c37 0 67 10 89 29c22 20 33 46 33 79s-11 60 -33 80
c-22 19 -52 29 -89 29h-129v-217h129z" />
    <glyph glyph-name="S" unicode="S" horiz-adv-x="602" 
d="M443 509c-2 11 -6 22 -12 35c-5 13 -14 25 -25 36s-24 20 -41 27s-37 11 -61 11c-18 0 -35 -3 -50 -9c-15 -5 -27 -13 -38 -22s-19 -20 -25 -32c-6 -13 -9 -26 -9 -39c0 -23 7 -42 20 -58c14 -16 35 -27 63 -33l102 -21c63 -13 110 -37 143 -74s49 -80 49 -130
c0 -27 -6 -54 -17 -80s-27 -49 -48 -69s-48 -36 -79 -48s-66 -18 -107 -18c-45 0 -85 6 -118 20c-33 13 -60 30 -83 51c-22 21 -39 44 -51 70s-19 52 -22 77l112 32c2 -19 7 -36 14 -53s18 -32 31 -45c14 -13 31 -24 50 -32s42 -12 67 -12c43 0 75 9 96 28
c22 19 33 42 33 70c0 23 -8 44 -25 61c-16 17 -39 28 -70 35l-100 21c-54 11 -98 34 -131 68s-49 78 -49 131c0 30 6 58 19 85c13 26 30 49 52 69c22 19 47 35 76 46s61 17 94 17c42 0 78 -6 107 -17s54 -26 73 -43c20 -18 35 -38 46 -59s18 -42 22 -62z" />
    <glyph glyph-name="T" unicode="T" horiz-adv-x="615" 
d="M367 596v-596h-120v596h-230v113h581v-113h-231z" />
    <glyph glyph-name="U" unicode="U" horiz-adv-x="693" 
d="M346 -15c-37 0 -72 6 -104 17s-60 28 -83 50c-24 22 -43 49 -56 82c-14 33 -21 70 -21 113v462h119v-455c0 -50 13 -88 39 -115c25 -27 61 -40 106 -40c46 0 82 13 107 40s38 65 38 115v455h120v-462c0 -43 -7 -80 -20 -113c-14 -33 -33 -60 -57 -82
c-23 -22 -51 -39 -84 -50c-32 -11 -67 -17 -104 -17z" />
    <glyph glyph-name="V" unicode="V" horiz-adv-x="682" 
d="M542 709h127l-268 -709h-122l-264 709h130l198 -552z" />
    <glyph glyph-name="W" unicode="W" horiz-adv-x="1032" 
d="M887 709h124l-199 -709h-124l-172 536l-172 -536h-123l-201 709h126l142 -518l166 518h125l169 -522z" />
    <glyph glyph-name="X" unicode="X" horiz-adv-x="639" 
d="M392 354l235 -354h-144l-165 259l-167 -259h-141l237 355l-235 354h144l165 -260l166 260h141z" />
    <glyph glyph-name="Y" unicode="Y" horiz-adv-x="651" 
d="M17 709h142l170 -297l171 297h135l-250 -409v-300h-120v300z" />
    <glyph glyph-name="Z" unicode="Z" horiz-adv-x="639" 
d="M42 0v118l393 478h-382v113h537v-114l-398 -481h403v-114h-553z" />
    <glyph glyph-name="bracketleft" unicode="[" horiz-adv-x="311" 
d="M70 -157v956h214v-90h-116v-775h116v-91h-214z" />
    <glyph glyph-name="backslash" unicode="\" horiz-adv-x="503" 
d="M25 709h107l345 -709h-107z" />
    <glyph glyph-name="bracketright" unicode="]" horiz-adv-x="311" 
d="M27 -157v91h116v775h-116v90h214v-956h-214z" />
    <glyph glyph-name="asciicircum" unicode="^" horiz-adv-x="558" 
d="M409 352l-129 244l-130 -244h-114l196 358h94l196 -358h-113z" />
    <glyph glyph-name="underscore" unicode="_" horiz-adv-x="521" 
d="M5 -96v96h511v-96h-511z" />
    <glyph glyph-name="grave" unicode="`" horiz-adv-x="285" 
d="M29 696h139l88 -148h-95z" />
    <glyph glyph-name="a" unicode="a" horiz-adv-x="531" 
d="M41 132c0 22 4 41 12 58c7 17 18 31 31 44c13 12 28 22 46 29s37 13 58 16l125 19c14 2 24 6 29 13c5 6 7 13 7 22c0 21 -7 38 -22 53c-15 14 -38 21 -70 21c-31 0 -54 -8 -71 -25s-26 -38 -29 -63l-106 24c2 21 8 41 19 60s25 36 42 51s38 26 62 35c25 9 52 13 82 13
c37 0 69 -5 95 -15c27 -10 48 -23 64 -40c17 -17 29 -36 36 -58c8 -22 12 -45 12 -69v-242c0 -22 1 -40 2 -53c2 -14 3 -22 4 -25h-108c-1 1 -2 7 -3 18c-1 10 -2 25 -2 44c-11 -19 -29 -36 -54 -53c-25 -16 -57 -24 -96 -24c-25 0 -48 4 -69 12c-20 8 -37 19 -51 32
c-15 14 -26 30 -33 48c-8 17 -12 36 -12 55zM228 76c16 0 31 2 46 7c15 4 28 11 39 21c11 9 19 22 26 38s10 36 10 60v22l-127 -19c-18 -3 -33 -10 -46 -20c-13 -11 -19 -26 -19 -46c0 -17 6 -31 18 -44s30 -19 53 -19z" />
    <glyph glyph-name="b" unicode="b" horiz-adv-x="606" 
d="M72 0v724h114v-297c11 19 30 36 57 51c26 15 58 22 96 22c37 0 69 -6 97 -19s52 -31 71 -54s33 -50 43 -81c9 -31 14 -64 14 -100c0 -37 -5 -71 -16 -102c-11 -32 -26 -59 -45 -82c-20 -23 -44 -41 -72 -54c-29 -14 -61 -20 -96 -20s-65 7 -90 21c-26 14 -46 33 -60 56
v-65h-113zM447 245c0 49 -12 86 -36 113c-25 26 -56 39 -95 39c-37 0 -68 -13 -93 -39c-25 -27 -38 -64 -38 -113c0 -24 3 -45 10 -64s16 -36 28 -49c11 -13 25 -23 41 -30s33 -11 52 -11c38 0 69 14 94 41s37 65 37 113z" />
    <glyph glyph-name="c" unicode="c" horiz-adv-x="549" 
d="M291 395c-18 0 -35 -3 -51 -10s-30 -16 -42 -29c-13 -13 -23 -28 -30 -47s-11 -40 -11 -65s4 -46 11 -65s17 -35 30 -48c12 -13 26 -23 43 -30s34 -10 52 -10c19 0 35 3 50 9c14 6 26 14 36 23c9 9 17 18 23 29c6 10 10 20 13 29l102 -37c-6 -19 -15 -38 -27 -57
s-27 -36 -45 -51c-19 -15 -41 -28 -66 -37s-54 -14 -86 -14c-36 0 -69 7 -100 20s-57 31 -79 54c-23 23 -40 51 -53 82s-20 66 -20 103s6 72 19 103c13 32 30 59 53 82s49 41 79 54s63 19 98 19c33 0 62 -5 87 -14s47 -22 66 -37s34 -32 45 -51s20 -39 25 -58l-104 -38
c-3 11 -7 22 -12 33c-6 11 -14 20 -23 29c-10 9 -22 16 -35 21s-29 8 -48 8z" />
    <glyph glyph-name="d" unicode="d" horiz-adv-x="601" 
d="M157 245c0 -47 12 -84 36 -113c23 -28 55 -42 95 -42c19 0 36 4 52 11c16 8 30 19 41 33c11 13 20 30 27 49c6 19 9 40 9 63c0 47 -12 84 -35 111c-24 27 -55 40 -93 40s-69 -14 -94 -41s-38 -64 -38 -111zM529 89c0 -22 1 -41 2 -58s2 -27 3 -31h-111c-1 5 -2 15 -3 28
s-2 25 -2 35c-11 -21 -29 -38 -54 -53s-54 -22 -89 -22s-67 6 -96 20c-29 13 -53 31 -73 54c-21 23 -37 50 -48 81s-17 65 -17 102c0 35 6 68 17 99s27 58 48 81c20 23 44 42 73 55s60 20 94 20c21 0 40 -2 56 -7c16 -4 30 -10 42 -17c11 -7 21 -14 28 -22s13 -16 17 -24
v294h113v-635z" />
    <glyph glyph-name="e" unicode="e" horiz-adv-x="557" 
d="M399 297c-1 14 -3 27 -8 40s-13 25 -23 35s-22 18 -37 24s-32 9 -52 9c-18 0 -34 -3 -48 -10c-15 -6 -27 -14 -37 -24c-10 -11 -18 -22 -24 -35s-9 -26 -10 -39h239zM510 139c-7 -21 -16 -41 -29 -60s-28 -35 -47 -49s-40 -25 -64 -33s-51 -12 -80 -12
c-33 0 -65 6 -95 18c-30 11 -56 28 -79 51c-23 22 -41 49 -54 82c-14 32 -21 69 -21 110c0 39 7 74 20 105s30 58 52 80c22 23 47 40 76 52c29 13 58 19 89 19c37 0 71 -6 101 -18c29 -12 54 -29 75 -51c20 -22 35 -49 46 -80s16 -65 16 -104c0 -9 0 -18 -1 -25
s-1 -11 -2 -12h-356c1 -19 5 -36 12 -51s17 -29 29 -40s26 -20 42 -27c15 -6 32 -9 50 -9c35 0 63 8 82 24c19 17 32 37 40 61z" />
    <glyph glyph-name="f" unicode="f" horiz-adv-x="363" 
d="M302 625c-8 0 -16 -1 -24 -3c-9 -2 -16 -6 -23 -11c-7 -6 -13 -14 -18 -23c-5 -10 -7 -22 -7 -37v-64h113v-101h-113v-386h-117v386h-85v101h85v67c0 27 4 52 13 74c8 21 20 40 35 55s32 26 53 34s44 12 69 12c15 0 28 -1 39 -3c11 -3 18 -5 22 -7v-99c-3 1 -8 3 -15 4
s-16 1 -27 1z" />
    <glyph glyph-name="g" unicode="g" horiz-adv-x="595" 
d="M148 1c4 -30 17 -55 38 -75c22 -20 50 -30 84 -30c92 0 138 49 138 146v51c-11 -19 -28 -36 -52 -50c-23 -14 -53 -21 -89 -21c-33 0 -63 6 -90 18s-51 28 -71 49s-36 46 -47 75s-17 61 -17 95c0 33 5 63 16 92s27 54 46 75c20 21 44 38 71 51c28 13 59 19 92 19
c38 0 69 -7 92 -21c24 -13 41 -30 52 -50v62h112v-441c0 -33 -5 -64 -14 -94s-23 -57 -43 -80c-19 -23 -45 -42 -77 -56c-31 -14 -70 -21 -116 -21c-32 0 -62 5 -89 14s-50 22 -71 38c-20 16 -36 35 -49 56c-12 22 -20 45 -23 70zM286 121c37 0 67 12 90 37s35 59 35 101
c0 21 -3 39 -10 56c-6 17 -15 32 -26 44s-24 21 -39 27c-15 7 -32 10 -50 10c-37 0 -68 -12 -92 -37c-23 -25 -35 -58 -35 -100c0 -43 12 -76 35 -101s54 -37 92 -37z" />
    <glyph glyph-name="h" unicode="h" horiz-adv-x="572" 
d="M188 0h-116v724h116v-284c17 21 38 37 63 47c25 9 51 14 76 14c30 0 56 -5 79 -15c22 -10 40 -24 55 -41c15 -18 26 -39 33 -62s11 -48 11 -75v-308h-116v288c0 30 -7 56 -22 77s-41 31 -78 31c-32 0 -56 -10 -73 -31s-27 -48 -28 -79v-286z" />
    <glyph glyph-name="i" unicode="i" horiz-adv-x="259" 
d="M72 0v487h115v-487h-115zM54 658c0 21 7 39 22 54s32 22 53 22s39 -7 54 -22s22 -33 22 -54s-7 -39 -22 -53c-15 -15 -33 -22 -54 -22s-38 7 -53 22c-15 14 -22 32 -22 53z" />
    <glyph glyph-name="j" unicode="j" horiz-adv-x="260" 
d="M72 487h116v-536c0 -23 -3 -43 -10 -62s-16 -36 -29 -50s-28 -25 -45 -32c-18 -8 -38 -12 -61 -12c-19 0 -34 1 -46 4c-11 2 -17 4 -20 5v96c3 -1 7 -1 14 -2s14 -1 21 -1c22 0 38 5 47 16s13 27 13 47v527zM54 659c0 21 7 39 22 54s32 22 53 22s39 -7 54 -22
s22 -33 22 -54s-7 -38 -22 -53s-33 -22 -54 -22s-38 7 -53 22s-22 32 -22 53z" />
    <glyph glyph-name="k" unicode="k" horiz-adv-x="544" 
d="M328 281l204 -281h-142l-143 199l-60 -63v-136h-115v724h115v-434l187 197h154z" />
    <glyph glyph-name="l" unicode="l" horiz-adv-x="260" 
d="M72 0v724h116v-724h-116z" />
    <glyph glyph-name="m" unicode="m" horiz-adv-x="870" 
d="M72 0v487h111v-62c14 25 35 43 62 56s55 20 82 20c32 0 61 -7 87 -22c26 -14 46 -35 59 -64c19 32 43 54 70 67s56 19 88 19c22 0 43 -4 64 -11s39 -19 55 -34s29 -34 39 -57c9 -23 14 -51 14 -83v-316h-112v297c0 29 -7 52 -22 71s-39 29 -72 29c-31 0 -55 -11 -73 -32
c-19 -21 -28 -46 -28 -76v-289h-114v297c0 28 -7 52 -22 71s-39 29 -72 29c-31 0 -56 -10 -74 -31c-18 -20 -27 -46 -27 -77v-289h-115z" />
    <glyph glyph-name="n" unicode="n" horiz-adv-x="572" 
d="M188 0h-116v487h113v-65c16 28 37 48 64 61c26 12 53 18 80 18c30 0 56 -5 78 -15s40 -24 55 -41c14 -18 25 -39 32 -62s11 -48 11 -75v-308h-116v288c0 30 -7 56 -22 77s-41 31 -78 31c-33 0 -58 -11 -75 -33c-17 -23 -26 -50 -26 -82v-281z" />
    <glyph glyph-name="o" unicode="o" horiz-adv-x="587" 
d="M293 89c18 0 35 3 52 10c16 7 30 17 43 30s23 29 30 48s11 42 11 67s-4 47 -11 66s-17 35 -30 48s-27 23 -43 29c-17 7 -34 10 -52 10s-35 -3 -51 -10c-17 -6 -31 -16 -43 -29c-13 -13 -23 -29 -30 -48c-8 -19 -12 -41 -12 -66s4 -48 12 -67c7 -19 17 -35 30 -48
c12 -13 26 -23 43 -30c16 -7 33 -10 51 -10zM293 502c37 0 70 -6 101 -19s57 -31 80 -54s40 -51 53 -82s19 -66 19 -103s-6 -72 -19 -103c-13 -32 -30 -59 -53 -82s-49 -41 -80 -54s-64 -20 -101 -20c-36 0 -69 7 -100 20s-58 31 -80 54c-23 23 -40 50 -53 82
c-13 31 -19 66 -19 103s6 72 19 103s30 59 53 82c22 23 49 41 80 54s64 19 100 19z" />
    <glyph glyph-name="p" unicode="p" horiz-adv-x="606" 
d="M72 -190v677h112v-66c12 21 31 40 58 55s59 22 97 22c36 0 68 -6 96 -19s51 -31 70 -54s34 -49 44 -80s15 -65 15 -101c0 -37 -5 -70 -16 -101s-26 -58 -46 -81s-44 -41 -73 -54c-28 -14 -59 -20 -94 -20s-66 6 -91 20c-25 13 -44 28 -57 47v-245h-115zM448 244
c0 46 -12 83 -36 110s-56 41 -95 41c-19 0 -37 -4 -53 -11s-30 -17 -41 -30s-20 -29 -27 -48s-10 -39 -10 -62c0 -47 12 -84 37 -112c25 -27 56 -41 94 -41c39 0 70 14 94 41c25 28 37 65 37 112z" />
    <glyph glyph-name="q" unicode="q" horiz-adv-x="605" 
d="M419 -190v248c-12 -21 -30 -38 -55 -51s-54 -19 -88 -19c-35 0 -66 7 -95 20s-53 32 -74 55s-37 50 -48 81s-17 65 -17 101c0 35 5 68 16 99s26 58 46 81s44 41 73 54s61 20 96 20c21 0 40 -2 57 -7s31 -11 43 -18c12 -8 22 -16 31 -25c8 -9 14 -18 18 -27v65h111v-677
h-114zM159 245c0 -23 3 -44 10 -63c6 -19 15 -36 27 -49c11 -14 25 -25 41 -32c15 -7 33 -11 52 -11s36 4 53 11c16 7 30 18 41 32c11 13 20 30 27 49s10 40 10 63c0 47 -12 84 -37 111s-56 40 -94 40c-39 0 -70 -13 -94 -40s-36 -64 -36 -111z" />
    <glyph glyph-name="r" unicode="r" horiz-adv-x="377" 
d="M357 372c-13 2 -26 3 -38 3c-45 0 -78 -12 -99 -37s-32 -60 -32 -106v-232h-116v487h113v-78c11 27 30 47 55 62s54 22 86 22c7 0 14 0 19 -1s9 -1 12 -2v-118z" />
    <glyph glyph-name="s" unicode="s" horiz-adv-x="465" 
d="M139 160c2 -22 11 -41 27 -58c17 -17 41 -25 72 -25c24 0 42 6 54 17c13 11 19 24 19 39c0 13 -5 25 -14 34s-24 16 -43 20l-72 16c-43 9 -76 27 -98 53c-22 25 -33 55 -33 89c0 21 5 42 14 61s22 35 38 50c16 14 35 25 56 33c22 9 46 13 71 13c34 0 62 -5 85 -15
c23 -9 42 -21 57 -35s25 -29 32 -45c7 -15 12 -29 14 -41l-98 -28c-1 7 -4 14 -7 23s-8 17 -15 24s-16 14 -27 19s-25 7 -41 7c-21 0 -37 -5 -50 -16s-20 -25 -20 -40c0 -13 4 -24 13 -33s21 -15 36 -18l74 -15c46 -10 81 -28 105 -54c23 -27 35 -58 35 -94
c0 -19 -4 -37 -11 -55c-8 -19 -19 -35 -34 -50s-35 -28 -58 -37s-50 -14 -81 -14c-35 0 -65 5 -90 15s-45 23 -61 38s-28 31 -36 48s-13 32 -14 46z" />
    <glyph glyph-name="t" unicode="t" horiz-adv-x="365" 
d="M225 487h101v-103h-101v-226c0 -21 5 -37 15 -46c10 -10 26 -15 47 -15c8 0 16 1 24 2s13 1 16 2v-96c-3 -1 -11 -3 -22 -7c-11 -3 -28 -4 -49 -4c-45 0 -81 13 -107 38s-39 61 -39 107v245h-90v103h25c26 0 45 7 57 22s18 33 18 54v73h105v-149z" />
    <glyph glyph-name="u" unicode="u" horiz-adv-x="571" 
d="M389 54c-12 -22 -31 -39 -56 -50c-26 -12 -53 -18 -82 -18s-55 5 -78 15s-42 24 -57 42c-16 17 -28 38 -36 61c-9 23 -13 49 -13 76v307h116v-286c0 -15 2 -30 6 -43c3 -13 9 -25 17 -35s18 -18 31 -24c12 -6 27 -9 44 -9c34 0 60 10 77 31c17 20 25 46 25 78v288h116
v-398c0 -20 1 -37 2 -52s2 -28 3 -37h-111c-1 5 -2 13 -3 24c-1 10 -1 20 -1 30z" />
    <glyph glyph-name="v" unicode="v" horiz-adv-x="541" 
d="M330 0h-116l-198 487h128l129 -348l126 348h122z" />
    <glyph glyph-name="w" unicode="w" horiz-adv-x="825" 
d="M476 487l115 -337l97 337h118l-156 -487h-116l-121 350l-118 -350h-119l-158 487h124l99 -337l115 337h120z" />
    <glyph glyph-name="x" unicode="x" horiz-adv-x="522" 
d="M193 246l-174 241h138c1 -3 5 -8 11 -16c5 -8 12 -17 19 -28s15 -22 24 -34c8 -13 16 -24 23 -35s14 -20 20 -28c5 -8 9 -13 10 -15l106 156h132l-171 -239l177 -248h-136l-113 163c-2 -3 -6 -8 -11 -16c-5 -9 -12 -18 -19 -29c-8 -11 -16 -23 -25 -36s-17 -25 -24 -36
c-8 -11 -15 -21 -20 -29c-6 -9 -10 -14 -11 -17h-133z" />
    <glyph glyph-name="y" unicode="y" horiz-adv-x="551" 
d="M106 -197l117 255l-208 429h131l140 -308l131 308h123l-310 -684h-124z" />
    <glyph glyph-name="z" unicode="z" horiz-adv-x="488" 
d="M45 0v101l247 284h-242v102h388v-98l-250 -287h255v-102h-398z" />
    <glyph glyph-name="braceleft" unicode="{" horiz-adv-x="356" 
d="M14 373c14 0 28 2 41 5s24 9 33 17c9 7 17 17 23 30c5 12 8 27 8 44v140c0 65 16 113 49 144s79 46 138 46h23v-89h-22c-30 0 -52 -7 -67 -22s-23 -40 -23 -75v-166c0 -33 -9 -60 -27 -81s-43 -36 -75 -43c32 -7 57 -22 75 -43c18 -22 27 -49 27 -82v-166
c0 -35 8 -59 23 -74s37 -22 67 -22h22v-89h-23c-59 0 -105 15 -138 46s-49 79 -49 144v139c0 35 -10 60 -31 75s-45 22 -74 22v100z" />
    <glyph glyph-name="bar" unicode="|" horiz-adv-x="238" 
d="M70 -153v952h98v-952h-98z" />
    <glyph glyph-name="braceright" unicode="}" horiz-adv-x="356" 
d="M342 273c-29 0 -53 -7 -74 -22s-31 -40 -31 -75v-139c0 -65 -16 -113 -49 -144s-79 -46 -138 -46h-23v89h22c30 0 53 7 68 22s22 39 22 74v166c0 33 9 60 27 82c18 21 43 36 75 43c-32 7 -57 22 -75 43s-27 48 -27 81v166c0 35 -7 59 -22 74s-38 23 -68 23h-22v89h23
c59 0 105 -16 138 -47s49 -78 49 -143v-140c0 -17 3 -32 9 -44c5 -13 13 -23 22 -30c9 -8 21 -14 34 -17s26 -5 40 -5v-100z" />
    <glyph glyph-name="asciitilde" unicode="~" horiz-adv-x="628" 
d="M266 261c-19 9 -36 14 -52 14c-17 0 -34 -5 -50 -14c-15 -9 -29 -23 -42 -40l-66 53c19 33 42 58 69 75c28 17 58 25 90 25c17 0 33 -2 50 -6c17 -5 34 -12 51 -21l46 -25c18 -10 36 -15 55 -15c17 0 34 5 50 14c15 9 29 22 40 39l66 -53c-19 -33 -42 -57 -69 -74
s-57 -25 -89 -25c-33 0 -67 9 -102 28z" />
    <glyph glyph-name="uni00A0" unicode="&#xa0;" horiz-adv-x="242" 
 />
    <glyph glyph-name="exclamdown" unicode="&#xa1;" horiz-adv-x="252" 
d="M197 -213h-142l30 498h83zM53 429c0 20 7 37 22 52c14 14 31 21 51 21s37 -7 52 -21c15 -15 22 -32 22 -52c0 -21 -7 -38 -22 -52s-32 -21 -52 -21s-37 7 -51 21c-15 14 -22 31 -22 52z" />
    <glyph glyph-name="cent" unicode="&#xa2;" horiz-adv-x="560" 
d="M298 201c18 0 34 3 48 8c15 5 27 12 37 21s18 18 25 29s12 22 15 33l101 -35c-5 -19 -12 -37 -23 -54c-10 -17 -23 -33 -38 -48s-32 -27 -52 -37c-20 -11 -42 -18 -67 -22v-96h-92v97c-30 5 -58 14 -83 29c-25 14 -47 32 -66 54s-33 48 -44 77c-10 29 -15 60 -15 94
s5 66 15 95c11 29 25 54 44 77c19 22 41 40 66 55c25 14 53 23 83 28v103h92v-104c49 -8 88 -27 118 -57s50 -64 59 -102l-103 -35c-3 11 -8 23 -14 34s-14 20 -24 29c-9 8 -21 15 -35 20s-30 8 -48 8c-19 0 -38 -4 -55 -11s-31 -17 -44 -30c-12 -13 -22 -28 -29 -47
s-10 -40 -10 -63s3 -44 10 -62c7 -19 17 -34 30 -47s27 -23 44 -30s35 -11 55 -11z" />
    <glyph glyph-name="sterling" unicode="&#xa3;" horiz-adv-x="610" 
d="M269 304c1 -7 2 -13 3 -18c1 -6 1 -13 1 -22c0 -33 -7 -64 -21 -93c-13 -29 -32 -51 -55 -68h174c31 0 56 10 73 29c18 19 28 45 29 76l103 -12c-1 -29 -5 -56 -14 -80s-21 -44 -38 -61c-16 -17 -36 -31 -59 -40c-23 -10 -49 -15 -78 -15h-334v96c31 14 56 35 77 62
s31 60 31 98c0 9 -1 17 -2 24s-2 15 -4 24h-96v91h68c-7 18 -13 37 -19 58s-9 43 -9 66c0 28 5 55 15 80s24 46 43 65c19 18 43 32 70 43s58 16 93 16c36 0 67 -6 92 -17c26 -11 47 -26 64 -44s30 -38 39 -61s13 -45 14 -68l-102 -21c-1 33 -12 60 -31 80s-44 30 -76 30
c-30 0 -55 -9 -75 -26c-20 -18 -30 -46 -30 -84c0 -21 3 -41 10 -60s13 -38 20 -57h191v-91h-167z" />
    <glyph glyph-name="currency" unicode="&#xa4;" horiz-adv-x="612" 
d="M416 171c-16 -9 -33 -17 -51 -22c-19 -5 -38 -8 -57 -8c-21 0 -40 3 -59 9c-19 5 -36 13 -52 23l-74 -75l-71 71l73 74c-10 15 -18 33 -23 52c-6 19 -9 39 -9 60c0 42 11 80 33 113l-74 75l72 71l74 -77c34 21 71 31 110 31s74 -9 106 -28l73 74l72 -71l-71 -72
c11 -16 20 -34 27 -54c6 -20 9 -41 9 -62s-3 -42 -9 -62c-7 -20 -15 -38 -26 -53l70 -71l-72 -71zM192 355c0 -35 11 -63 33 -85c22 -21 50 -32 83 -32s61 11 83 32c21 22 32 50 32 85c0 34 -11 62 -32 83c-22 21 -50 32 -83 32c-17 0 -32 -3 -46 -9c-14 -5 -26 -13 -36 -23
c-11 -10 -19 -22 -25 -37c-6 -14 -9 -29 -9 -46z" />
    <glyph glyph-name="yen" unicode="&#xa5;" horiz-adv-x="657" 
d="M270 0v144h-185v85h185v70h-185v85h138l-193 325h133l169 -294l167 294h128l-196 -325h140v-85h-185v-70h185v-85h-185v-144h-116z" />
    <glyph glyph-name="brokenbar" unicode="&#xa6;" horiz-adv-x="250" 
d="M174 799v-399h-98v399h98zM174 245v-399h-98v399h98z" />
    <glyph glyph-name="section" unicode="&#xa7;" horiz-adv-x="522" 
d="M464 249c0 -15 -2 -29 -7 -42s-11 -24 -19 -35c-7 -11 -16 -20 -25 -28s-19 -14 -28 -19c26 -19 46 -40 60 -65s21 -51 21 -78c0 -29 -6 -55 -17 -78s-27 -42 -46 -59c-19 -16 -41 -28 -66 -37s-51 -13 -78 -13c-32 0 -60 4 -85 13s-47 22 -64 38c-17 17 -31 36 -40 59
s-14 48 -15 75l108 20c0 -34 8 -61 25 -80c16 -19 40 -28 72 -28c26 0 47 7 64 21s25 34 25 59c0 15 -4 29 -13 42s-22 24 -37 32l-102 52c-19 9 -36 19 -53 30s-31 23 -44 36c-13 14 -23 29 -31 46c-7 17 -11 37 -11 60c0 15 2 28 7 41s11 25 18 36c8 11 17 20 26 27
c9 8 19 15 29 20c-27 19 -48 40 -62 64c-13 25 -20 51 -20 79c0 29 6 54 17 77c12 23 27 43 46 59s41 28 66 37s52 13 79 13c32 0 60 -5 85 -14s47 -22 64 -39c17 -16 30 -35 39 -58s14 -47 15 -73l-109 -20c0 34 -8 60 -25 79s-40 28 -70 28c-27 0 -49 -8 -66 -23
s-25 -34 -25 -57c0 -31 17 -56 51 -73l101 -52c19 -9 36 -20 53 -31s32 -23 45 -36s23 -29 31 -46c7 -17 11 -37 11 -59zM203 357c-11 -7 -20 -17 -27 -28s-11 -24 -11 -38c0 -16 4 -30 12 -43c7 -12 21 -23 40 -33l100 -53c11 7 21 16 28 27s11 24 11 39c0 16 -4 30 -12 42
c-7 12 -21 23 -40 34z" />
    <glyph glyph-name="dieresis" unicode="&#xa8;" horiz-adv-x="393" 
d="M32 625c0 18 6 33 19 46c12 13 27 19 45 19c19 0 34 -6 47 -19s19 -28 19 -46c0 -19 -6 -34 -19 -46c-13 -13 -28 -19 -47 -19c-18 0 -33 6 -45 19c-13 12 -19 27 -19 46zM232 625c0 18 6 33 19 46c12 13 27 19 45 19s33 -6 46 -19s19 -28 19 -46c0 -19 -6 -34 -19 -46
c-13 -13 -28 -19 -46 -19s-33 6 -45 19c-13 12 -19 27 -19 46z" />
    <glyph glyph-name="copyright" unicode="&#xa9;" horiz-adv-x="824" 
d="M127 355c0 -41 7 -80 22 -116s35 -67 60 -93c25 -27 55 -47 90 -62s72 -23 112 -23s77 8 112 23c34 15 64 35 90 62c25 26 45 57 60 93s22 75 22 116s-7 80 -22 116c-15 35 -35 66 -60 93c-26 26 -56 47 -90 62c-35 15 -72 22 -112 22s-77 -7 -112 -22s-65 -36 -90 -62
c-25 -27 -45 -58 -60 -93c-15 -36 -22 -75 -22 -116zM45 355c0 51 10 98 29 143s45 84 78 118c33 33 71 60 116 79s92 29 143 29s98 -10 143 -29s84 -46 117 -79c33 -34 60 -73 79 -118s29 -92 29 -143s-10 -99 -29 -144s-46 -84 -79 -118c-33 -33 -72 -60 -117 -79
s-92 -29 -143 -29s-98 10 -143 29s-83 46 -116 79c-33 34 -59 73 -78 118s-29 93 -29 144zM414 473c-28 0 -53 -10 -74 -30s-32 -49 -32 -88s11 -68 32 -89s46 -31 75 -31c15 0 28 2 39 7s21 11 29 18c7 7 13 14 18 22s8 16 10 23l80 -29c-5 -15 -12 -30 -21 -45
s-21 -28 -36 -40s-32 -22 -51 -29c-20 -7 -43 -11 -68 -11c-28 0 -54 5 -78 16c-24 10 -45 24 -63 42s-32 40 -42 65s-15 52 -15 81s5 57 15 82s24 46 42 64c17 18 38 32 62 42s50 15 77 15c26 0 49 -4 69 -11s37 -17 52 -29c14 -12 26 -25 35 -40s15 -31 19 -46l-82 -30
c-2 9 -5 17 -9 26c-5 8 -11 15 -18 22s-16 12 -27 17c-11 4 -23 6 -38 6z" />
    <glyph glyph-name="guillemotleft" unicode="&#xab;" horiz-adv-x="534" 
d="M171 100l-135 193l136 194h111l-134 -195l133 -192h-111zM378 100l-135 193l136 194h111l-134 -195l133 -192h-111z" />
    <glyph glyph-name="logicalnot" unicode="&#xac;" horiz-adv-x="591" 
d="M422 199v195h-377v98h478v-293h-101z" />
    <glyph glyph-name="uni00AD" unicode="&#xad;" horiz-adv-x="410" 
d="M64 241v103h282v-103h-282z" />
    <glyph glyph-name="registered" unicode="&#xae;" horiz-adv-x="824" 
d="M45 355c0 51 10 98 29 143s45 84 78 118c33 33 71 60 116 79s92 29 143 29s98 -10 143 -29s84 -46 117 -79c33 -34 60 -73 79 -118s29 -92 29 -143s-10 -99 -29 -144s-46 -84 -79 -118c-33 -33 -72 -60 -117 -79s-92 -29 -143 -29s-98 10 -143 29s-83 46 -116 79
c-33 34 -59 73 -78 118s-29 93 -29 144zM127 355c0 -41 7 -80 22 -116s35 -67 60 -93c25 -27 55 -47 90 -62s72 -23 112 -23s77 8 112 23c34 15 64 35 90 62c25 26 45 57 60 93s22 75 22 116s-7 80 -22 116c-15 35 -35 66 -60 93c-26 26 -56 47 -90 62
c-35 15 -72 22 -112 22s-77 -7 -112 -22s-65 -36 -90 -62c-25 -27 -45 -58 -60 -93c-15 -36 -22 -75 -22 -116zM398 301h-29v-144h-86v401h149c19 0 37 -3 54 -10s31 -16 44 -27c12 -12 22 -26 29 -41s10 -32 10 -50c0 -28 -7 -52 -22 -73s-35 -36 -60 -45l85 -155h-98z
M418 374c20 0 36 5 47 15c11 9 16 23 16 40s-5 31 -16 41s-27 15 -47 15h-49v-111h49z" />
    <glyph glyph-name="macron" unicode="&#xaf;" horiz-adv-x="338" 
d="M30 577v90h278v-90h-278z" />
    <glyph glyph-name="degree" unicode="&#xb0;" horiz-adv-x="402" 
d="M201 487c20 0 37 7 50 21s20 32 20 53s-7 39 -20 53c-13 13 -30 20 -50 20s-37 -7 -50 -20c-14 -14 -21 -32 -21 -53c0 -22 7 -40 21 -53c13 -14 30 -21 50 -21zM37 561c0 23 4 44 13 63s21 36 36 51s32 26 52 34c20 9 41 13 63 13s43 -4 63 -13c19 -8 37 -19 52 -34
s27 -32 36 -51s13 -40 13 -63s-4 -45 -13 -64s-21 -36 -36 -51s-33 -26 -53 -34s-41 -12 -63 -12s-43 4 -62 13c-20 8 -37 19 -52 33c-15 15 -27 32 -36 51c-9 20 -13 41 -13 64z" />
    <glyph glyph-name="plusminus" unicode="&#xb1;" horiz-adv-x="593" 
d="M346 368v-127h-100v127h-177v95h177v129h100v-129h178v-95h-178zM69 104v96h455v-96h-455z" />
    <glyph glyph-name="twosuperior" unicode="&#xb2;" horiz-adv-x="351" 
d="M40 566c-2 10 -3 20 -3 30c0 16 3 31 9 46s15 28 27 39c11 11 26 19 43 26s37 10 59 10s42 -3 59 -9c17 -7 31 -15 43 -26c11 -11 20 -24 26 -38c6 -15 9 -30 9 -46c0 -23 -7 -44 -20 -62c-13 -19 -32 -35 -55 -49l-71 -43c-11 -8 -18 -16 -20 -25h169v-76h-281v12
c0 32 7 61 20 86s35 47 67 66l60 36c27 16 41 35 41 56c0 11 -4 22 -12 31s-20 13 -37 13c-16 0 -29 -5 -38 -14c-9 -10 -14 -23 -14 -38c0 -3 0 -6 1 -11c0 -5 1 -9 2 -13z" />
    <glyph glyph-name="threesuperior" unicode="&#xb3;" horiz-adv-x="363" 
d="M107 468c3 -17 10 -30 23 -41c12 -11 27 -17 46 -17s34 5 45 15c11 9 16 21 16 34c0 19 -6 32 -19 40c-13 7 -27 11 -42 11c-11 0 -21 -2 -31 -6l-32 61l91 69h-164v75h279v-72l-94 -69c30 -3 55 -14 74 -33s29 -44 29 -77c0 -17 -3 -32 -10 -47s-17 -28 -30 -39
s-29 -20 -48 -27s-40 -10 -63 -10c-22 0 -42 3 -59 10c-18 6 -33 14 -45 24c-13 10 -23 22 -30 35c-8 13 -13 26 -16 40z" />
    <glyph glyph-name="acute" unicode="&#xb4;" horiz-adv-x="286" 
d="M125 548h-95l89 148h137z" />
    <glyph glyph-name="mu" unicode="&#xb5;" horiz-adv-x="562" 
d="M387 54c-12 -22 -31 -39 -56 -51c-26 -11 -53 -17 -82 -17c-25 0 -48 4 -68 12v-188h-116v677h116v-286c0 -15 2 -30 6 -43c3 -13 9 -25 17 -35s18 -18 31 -24c12 -6 27 -9 44 -9c34 0 60 10 77 30c17 21 25 47 25 79v288h116v-398c0 -15 1 -31 2 -46s2 -30 3 -43h-111
c-1 5 -2 13 -3 24c-1 10 -1 20 -1 30z" />
    <glyph glyph-name="paragraph" unicode="&#xb6;" horiz-adv-x="667" 
d="M341 -190h-95v500h-17c-27 0 -53 5 -77 15s-45 24 -63 41s-32 38 -43 62s-16 50 -16 77c0 33 6 62 19 88c12 25 29 47 50 64s45 30 74 39c28 9 58 13 89 13h366v-93h-97v-806h-95v806h-95v-806z" />
    <glyph glyph-name="periodcentered" unicode="&#xb7;" horiz-adv-x="271" 
d="M57 298c0 21 8 40 23 55s34 23 55 23c22 0 41 -8 56 -23s23 -34 23 -55c0 -22 -8 -40 -23 -55s-34 -22 -56 -22c-21 0 -40 7 -55 22s-23 33 -23 55z" />
    <glyph glyph-name="cedilla" unicode="&#xb8;" horiz-adv-x="296" 
d="M82 -62l48 75h78l-39 -60c29 -1 52 -9 70 -24s27 -35 27 -60c0 -12 -2 -24 -7 -35s-12 -20 -21 -29c-10 -8 -23 -15 -38 -20c-16 -5 -35 -8 -57 -8c-27 0 -50 5 -70 15c-21 10 -36 21 -45 33l41 50c7 -7 16 -14 29 -23c12 -8 27 -12 44 -12c12 0 22 2 31 7s13 12 13 23
c0 8 -3 15 -10 21s-18 9 -31 9c-10 0 -19 -2 -28 -5z" />
    <glyph glyph-name="onesuperior" unicode="&#xb9;" horiz-adv-x="249" 
d="M112 343v233h-89v60c29 1 51 9 68 24s27 31 30 49h82v-366h-91z" />
    <glyph glyph-name="guillemotright" unicode="&#xbb;" horiz-adv-x="534" 
d="M252 100l133 192l-134 195h111l136 -194l-135 -193h-111zM45 100l133 192l-134 195h111l136 -194l-135 -193h-111z" />
    <glyph glyph-name="onequarter" unicode="&#xbc;" horiz-adv-x="782" 
d="M92 0l461 709h101l-460 -709h-102zM33 636c29 0 51 8 68 23s27 32 30 50h82v-366h-91v232h-89v61zM416 159l172 208h99v-223h62v-72h-62v-72h-90v72h-181v87zM597 269l-104 -125h104v125z" />
    <glyph glyph-name="onehalf" unicode="&#xbd;" horiz-adv-x="805" 
d="M95 0l461 709h101l-460 -709h-102zM489 224c-1 5 -2 10 -2 15c-1 5 -1 10 -1 14c0 16 3 31 9 46s15 27 27 38c11 11 26 20 43 27s37 10 59 10s42 -3 59 -10c17 -6 31 -15 43 -26c11 -11 20 -23 27 -38c6 -14 9 -29 9 -45c0 -23 -7 -44 -20 -62c-14 -19 -33 -35 -56 -49
l-70 -43c-5 -3 -10 -7 -13 -11c-4 -4 -7 -9 -8 -14h169v-76h-281v13c0 31 7 60 20 85s36 47 67 66l60 36c27 17 41 35 41 56c0 11 -4 22 -12 31s-20 13 -37 13c-16 0 -29 -5 -38 -15s-14 -23 -14 -39c0 -3 0 -7 1 -11c0 -4 1 -8 2 -11h-84zM33 636c29 0 51 8 68 23
s27 32 30 50h82v-366h-91v232h-89v61z" />
    <glyph glyph-name="threequarters" unicode="&#xbe;" horiz-adv-x="857" 
d="M167 0l461 709h101l-460 -709h-102zM491 159l172 208h99v-223h62v-72h-62v-72h-90v72h-181v87zM672 269l-104 -125h104v125zM125 567l89 67h-166v75h278v-74l-94 -69c30 -3 55 -14 75 -33c19 -19 29 -44 29 -76c0 -17 -3 -32 -10 -47s-18 -28 -31 -39s-29 -20 -48 -27
s-39 -10 -62 -10s-43 3 -61 10c-17 6 -32 14 -45 25c-12 10 -22 22 -30 35c-7 13 -12 26 -14 40l80 24c2 -17 9 -31 22 -42s28 -16 47 -16c18 0 32 5 43 14s17 21 17 35c0 18 -6 31 -19 38c-12 7 -26 11 -41 11c-5 0 -10 0 -15 -1s-9 -2 -13 -3z" />
    <glyph glyph-name="questiondown" unicode="&#xbf;" horiz-adv-x="512" 
d="M320 286c2 -12 3 -25 3 -38c0 -30 -6 -57 -18 -82s-33 -47 -62 -68l-46 -33c-17 -12 -29 -25 -36 -40s-11 -31 -11 -48c0 -26 9 -49 26 -69c18 -21 45 -31 82 -31c19 0 36 3 50 10s26 16 35 27s16 23 20 37c5 13 7 27 7 42c0 7 -1 15 -2 24c-1 8 -2 15 -4 21l114 -12
c2 -7 3 -15 4 -22c1 -8 1 -16 1 -24c0 -25 -5 -50 -14 -75s-23 -47 -42 -67c-19 -19 -42 -35 -70 -48c-28 -12 -61 -18 -99 -18c-37 0 -70 6 -98 17c-29 11 -53 26 -72 45s-34 40 -43 64c-10 24 -15 49 -15 74c0 40 9 74 28 103c18 28 42 52 71 73l43 30c16 11 28 26 37 43
c8 17 12 35 12 55v10h99zM197 429c0 20 7 37 21 52c14 14 31 21 52 21c20 0 37 -7 51 -21c15 -15 22 -32 22 -52s-7 -37 -22 -51c-14 -15 -31 -22 -51 -22c-21 0 -38 7 -52 22c-14 14 -21 31 -21 51z" />
    <glyph glyph-name="Eacute" unicode="&#xc9;" horiz-adv-x="580" 
d="M336 759h-109l102 124h149zM89 0v709h438v-112h-318v-188h288v-109h-288v-188h318v-112h-438z" />
    <glyph glyph-name="Ntilde" unicode="&#xd1;" horiz-adv-x="773" 
d="M554 863c0 -37 -10 -64 -29 -83c-19 -18 -42 -27 -70 -27c-15 0 -28 2 -40 7s-23 10 -33 16l-10 7c-8 5 -16 9 -23 12s-15 5 -22 5s-14 -3 -20 -8c-7 -5 -10 -14 -10 -25v-10h-75v22c0 37 10 65 29 83s43 27 71 27c15 0 28 -2 41 -7c12 -5 23 -10 33 -16l10 -6
c8 -5 16 -9 23 -12s13 -5 20 -5c9 0 16 3 22 8s9 13 9 25v10h74v-23zM559 0l-350 537v-537h-120v709h153l322 -503v503h120v-709h-125z" />
    <glyph glyph-name="Odieresis" unicode="&#xd6;" horiz-adv-x="809" 
d="M177 821c0 19 6 35 19 48s28 19 47 19s35 -6 48 -19s19 -29 19 -48s-6 -34 -19 -47s-29 -19 -48 -19s-34 6 -47 19s-19 28 -19 47zM500 821c0 19 6 35 19 48s28 19 47 19s35 -6 48 -19s19 -29 19 -48s-6 -34 -19 -47s-29 -19 -48 -19s-34 6 -47 19s-19 28 -19 47z
M167 355c0 -43 7 -80 21 -112c13 -32 31 -59 53 -80s47 -37 76 -48c28 -11 57 -16 87 -16s59 5 88 16s54 27 76 48s40 48 54 80c13 32 20 69 20 112s-7 80 -20 112c-14 32 -32 59 -54 80s-47 37 -76 48s-58 16 -88 16s-59 -5 -87 -16c-29 -11 -54 -27 -76 -48
s-40 -48 -53 -80c-14 -32 -21 -69 -21 -112zM44 355c0 58 10 110 30 156c20 45 47 84 80 116c33 31 72 55 115 72s88 25 135 25s92 -8 135 -25s82 -41 115 -72c33 -32 60 -71 80 -116c21 -46 31 -98 31 -156s-10 -110 -31 -156c-20 -46 -47 -85 -80 -116
c-33 -32 -72 -56 -115 -73s-88 -25 -135 -25s-92 8 -135 25s-82 41 -115 73c-33 31 -60 70 -80 116s-30 98 -30 156z" />
    <glyph glyph-name="multiply" unicode="&#xd7;" horiz-adv-x="576" 
d="M288 419l166 170l70 -68l-167 -172l167 -171l-68 -70l-168 171l-167 -171l-69 70l167 171l-166 171l70 69z" />
    <glyph glyph-name="Udieresis" unicode="&#xdc;" horiz-adv-x="693" 
d="M163 821c0 19 6 35 19 48c12 13 28 19 47 19s34 -6 47 -19s19 -29 19 -48s-6 -34 -19 -47s-28 -19 -47 -19s-35 6 -47 19c-13 13 -19 28 -19 47zM399 821c0 19 6 35 19 48c12 13 28 19 47 19s34 -6 47 -19s19 -29 19 -48s-6 -34 -19 -47s-28 -19 -47 -19s-35 6 -47 19
c-13 13 -19 28 -19 47zM346 -15c-37 0 -72 6 -104 17s-60 28 -83 50c-24 22 -43 49 -56 82c-14 33 -21 70 -21 113v462h119v-455c0 -50 13 -88 39 -115c25 -27 61 -40 106 -40c46 0 82 13 107 40s38 65 38 115v455h120v-462c0 -43 -7 -80 -20 -113c-14 -33 -33 -60 -57 -82
c-23 -22 -51 -39 -84 -50c-32 -11 -67 -17 -104 -17z" />
    <glyph glyph-name="germandbls" unicode="&#xdf;" horiz-adv-x="591" 
d="M378 343c1 -11 4 -20 11 -25s17 -11 30 -16l33 -15c31 -13 56 -33 77 -59c21 -25 31 -56 31 -92c0 -17 -3 -34 -10 -52s-17 -34 -31 -49s-32 -27 -53 -36s-47 -14 -77 -14s-56 5 -77 14s-38 21 -51 35s-23 29 -29 46c-7 17 -10 32 -10 47l96 22c0 -7 1 -15 4 -24
c3 -8 7 -16 12 -23s13 -14 22 -19s20 -7 33 -7c21 0 36 6 46 17s15 23 15 35c0 27 -17 48 -50 63l-32 14c-12 5 -24 11 -37 18s-24 16 -34 26c-11 10 -19 22 -26 36s-10 31 -10 50c0 28 7 51 20 69s28 33 45 44l25 17c16 10 29 21 39 33c9 13 14 27 14 44c0 21 -8 40 -25 56
s-43 24 -77 24c-15 0 -30 -3 -44 -9c-14 -5 -26 -14 -37 -25s-19 -26 -25 -44c-7 -17 -10 -38 -10 -62v-482h-114v489c0 39 6 73 19 102c12 29 29 54 50 73c21 20 45 35 73 45c27 10 57 15 88 15c33 0 63 -5 90 -14s49 -22 68 -38s33 -35 44 -56c10 -21 15 -44 15 -69
c0 -19 -2 -37 -7 -52s-12 -29 -20 -41s-17 -22 -28 -31s-22 -18 -33 -25l-24 -15c-9 -5 -16 -11 -21 -17s-8 -14 -8 -23z" />
    <glyph glyph-name="agrave" unicode="&#xe0;" horiz-adv-x="531" 
d="M41 132c0 22 4 41 12 58c7 17 18 31 31 44c13 12 28 22 46 29s37 13 58 16l125 19c14 2 24 6 29 13c5 6 7 13 7 22c0 21 -7 38 -22 53c-15 14 -38 21 -70 21c-31 0 -54 -8 -71 -25s-26 -38 -29 -63l-106 24c2 21 8 41 19 60s25 36 42 51s38 26 62 35c25 9 52 13 82 13
c37 0 69 -5 95 -15c27 -10 48 -23 64 -40c17 -17 29 -36 36 -58c8 -22 12 -45 12 -69v-242c0 -22 1 -40 2 -53c2 -14 3 -22 4 -25h-108c-1 1 -2 7 -3 18c-1 10 -2 25 -2 44c-11 -19 -29 -36 -54 -53c-25 -16 -57 -24 -96 -24c-25 0 -48 4 -69 12c-20 8 -37 19 -51 32
c-15 14 -26 30 -33 48c-8 17 -12 36 -12 55zM228 76c16 0 31 2 46 7c15 4 28 11 39 21c11 9 19 22 26 38s10 36 10 60v22l-127 -19c-18 -3 -33 -10 -46 -20c-13 -11 -19 -26 -19 -46c0 -17 6 -31 18 -44s30 -19 53 -19zM94 696h139l88 -148h-95z" />
    <glyph glyph-name="aacute" unicode="&#xe1;" horiz-adv-x="531" 
d="M41 132c0 22 4 41 12 58c7 17 18 31 31 44c13 12 28 22 46 29s37 13 58 16l125 19c14 2 24 6 29 13c5 6 7 13 7 22c0 21 -7 38 -22 53c-15 14 -38 21 -70 21c-31 0 -54 -8 -71 -25s-26 -38 -29 -63l-106 24c2 21 8 41 19 60s25 36 42 51s38 26 62 35c25 9 52 13 82 13
c37 0 69 -5 95 -15c27 -10 48 -23 64 -40c17 -17 29 -36 36 -58c8 -22 12 -45 12 -69v-242c0 -22 1 -40 2 -53c2 -14 3 -22 4 -25h-108c-1 1 -2 7 -3 18c-1 10 -2 25 -2 44c-11 -19 -29 -36 -54 -53c-25 -16 -57 -24 -96 -24c-25 0 -48 4 -69 12c-20 8 -37 19 -51 32
c-15 14 -26 30 -33 48c-8 17 -12 36 -12 55zM228 76c16 0 31 2 46 7c15 4 28 11 39 21c11 9 19 22 26 38s10 36 10 60v22l-127 -19c-18 -3 -33 -10 -46 -20c-13 -11 -19 -26 -19 -46c0 -17 6 -31 18 -44s30 -19 53 -19zM287 548h-95l89 148h137z" />
    <glyph glyph-name="acircumflex" unicode="&#xe2;" horiz-adv-x="531" 
d="M41 132c0 22 4 41 12 58c7 17 18 31 31 44c13 12 28 22 46 29s37 13 58 16l125 19c14 2 24 6 29 13c5 6 7 13 7 22c0 21 -7 38 -22 53c-15 14 -38 21 -70 21c-31 0 -54 -8 -71 -25s-26 -38 -29 -63l-106 24c2 21 8 41 19 60s25 36 42 51s38 26 62 35c25 9 52 13 82 13
c37 0 69 -5 95 -15c27 -10 48 -23 64 -40c17 -17 29 -36 36 -58c8 -22 12 -45 12 -69v-242c0 -22 1 -40 2 -53c2 -14 3 -22 4 -25h-108c-1 1 -2 7 -3 18c-1 10 -2 25 -2 44c-11 -19 -29 -36 -54 -53c-25 -16 -57 -24 -96 -24c-25 0 -48 4 -69 12c-20 8 -37 19 -51 32
c-15 14 -26 30 -33 48c-8 17 -12 36 -12 55zM228 76c16 0 31 2 46 7c15 4 28 11 39 21c11 9 19 22 26 38s10 36 10 60v22l-127 -19c-18 -3 -33 -10 -46 -20c-13 -11 -19 -26 -19 -46c0 -17 6 -31 18 -44s30 -19 53 -19zM92 549l107 143h121l108 -143h-99l-70 77l-70 -77h-97
z" />
    <glyph glyph-name="atilde" unicode="&#xe3;" horiz-adv-x="531" 
d="M41 132c0 22 4 41 12 58c7 17 18 31 31 44c13 12 28 22 46 29s37 13 58 16l125 19c14 2 24 6 29 13c5 6 7 13 7 22c0 21 -7 38 -22 53c-15 14 -38 21 -70 21c-31 0 -54 -8 -71 -25s-26 -38 -29 -63l-106 24c2 21 8 41 19 60s25 36 42 51s38 26 62 35c25 9 52 13 82 13
c37 0 69 -5 95 -15c27 -10 48 -23 64 -40c17 -17 29 -36 36 -58c8 -22 12 -45 12 -69v-242c0 -22 1 -40 2 -53c2 -14 3 -22 4 -25h-108c-1 1 -2 7 -3 18c-1 10 -2 25 -2 44c-11 -19 -29 -36 -54 -53c-25 -16 -57 -24 -96 -24c-25 0 -48 4 -69 12c-20 8 -37 19 -51 32
c-15 14 -26 30 -33 48c-8 17 -12 36 -12 55zM228 76c16 0 31 2 46 7c15 4 28 11 39 21c11 9 19 22 26 38s10 36 10 60v22l-127 -19c-18 -3 -33 -10 -46 -20c-13 -11 -19 -26 -19 -46c0 -17 6 -31 18 -44s30 -19 53 -19zM97 574c0 39 10 68 30 87c19 19 44 28 73 28
c15 0 28 -2 39 -6c11 -5 21 -10 31 -16l10 -6c7 -5 15 -9 22 -12s14 -5 21 -5c21 0 31 15 31 44h76v-17c0 -39 -10 -69 -29 -88s-44 -29 -73 -29c-15 0 -28 2 -39 7s-22 10 -32 16l-10 6c-7 5 -14 9 -21 12s-15 4 -22 4c-10 0 -17 -3 -22 -10s-8 -18 -8 -33h-76z" />
    <glyph glyph-name="adieresis" unicode="&#xe4;" horiz-adv-x="531" 
d="M41 132c0 22 4 41 12 58c7 17 18 31 31 44c13 12 28 22 46 29s37 13 58 16l125 19c14 2 24 6 29 13c5 6 7 13 7 22c0 21 -7 38 -22 53c-15 14 -38 21 -70 21c-31 0 -54 -8 -71 -25s-26 -38 -29 -63l-106 24c2 21 8 41 19 60s25 36 42 51s38 26 62 35c25 9 52 13 82 13
c37 0 69 -5 95 -15c27 -10 48 -23 64 -40c17 -17 29 -36 36 -58c8 -22 12 -45 12 -69v-242c0 -22 1 -40 2 -53c2 -14 3 -22 4 -25h-108c-1 1 -2 7 -3 18c-1 10 -2 25 -2 44c-11 -19 -29 -36 -54 -53c-25 -16 -57 -24 -96 -24c-25 0 -48 4 -69 12c-20 8 -37 19 -51 32
c-15 14 -26 30 -33 48c-8 17 -12 36 -12 55zM228 76c16 0 31 2 46 7c15 4 28 11 39 21c11 9 19 22 26 38s10 36 10 60v22l-127 -19c-18 -3 -33 -10 -46 -20c-13 -11 -19 -26 -19 -46c0 -17 6 -31 18 -44s30 -19 53 -19zM95 625c0 18 6 33 19 46c12 13 27 19 45 19
c19 0 34 -6 47 -19s19 -28 19 -46c0 -19 -6 -34 -19 -46c-13 -13 -28 -19 -47 -19c-18 0 -33 6 -45 19c-13 12 -19 27 -19 46zM295 625c0 18 6 33 19 46c12 13 27 19 45 19s33 -6 46 -19s19 -28 19 -46c0 -19 -6 -34 -19 -46c-13 -13 -28 -19 -46 -19s-33 6 -45 19
c-13 12 -19 27 -19 46z" />
    <glyph glyph-name="aring" unicode="&#xe5;" horiz-adv-x="531" 
d="M41 132c0 22 4 41 12 58c7 17 18 31 31 44c13 12 28 22 46 29s37 13 58 16l125 19c14 2 24 6 29 13c5 6 7 13 7 22c0 21 -7 38 -22 53c-15 14 -38 21 -70 21c-31 0 -54 -8 -71 -25s-26 -38 -29 -63l-106 24c2 21 8 41 19 60s25 36 42 51s38 26 62 35c25 9 52 13 82 13
c37 0 69 -5 95 -15c27 -10 48 -23 64 -40c17 -17 29 -36 36 -58c8 -22 12 -45 12 -69v-242c0 -22 1 -40 2 -53c2 -14 3 -22 4 -25h-108c-1 1 -2 7 -3 18c-1 10 -2 25 -2 44c-11 -19 -29 -36 -54 -53c-25 -16 -57 -24 -96 -24c-25 0 -48 4 -69 12c-20 8 -37 19 -51 32
c-15 14 -26 30 -33 48c-8 17 -12 36 -12 55zM228 76c16 0 31 2 46 7c15 4 28 11 39 21c11 9 19 22 26 38s10 36 10 60v22l-127 -19c-18 -3 -33 -10 -46 -20c-13 -11 -19 -26 -19 -46c0 -17 6 -31 18 -44s30 -19 53 -19zM369 648c0 -16 -3 -31 -9 -44s-14 -25 -25 -34
c-11 -10 -23 -18 -36 -23c-14 -6 -29 -9 -44 -9s-30 3 -43 9c-13 5 -25 13 -36 23c-11 9 -19 21 -25 34s-9 28 -9 44s3 31 9 45c6 13 14 25 25 35c11 9 23 17 36 23c13 5 28 8 43 8s30 -3 44 -8c13 -6 25 -14 36 -23c11 -10 19 -22 25 -35c6 -14 9 -29 9 -45zM299 648
c0 13 -4 24 -12 33c-9 8 -20 12 -33 12c-12 0 -22 -4 -30 -12c-9 -9 -13 -20 -13 -33s4 -23 13 -31c8 -9 18 -13 30 -13c13 0 24 4 33 13c8 8 12 18 12 31z" />
    <glyph glyph-name="ccedilla" unicode="&#xe7;" horiz-adv-x="549" 
d="M224 -63l33 51c-31 4 -60 13 -86 28c-27 15 -49 33 -68 56c-19 22 -34 48 -45 77s-17 61 -17 95c0 37 6 72 19 104c13 31 30 59 53 82s49 40 79 53s63 19 98 19c33 0 62 -5 87 -14s47 -21 66 -36s34 -33 45 -52s20 -39 25 -58l-104 -38c-3 11 -7 22 -12 33
c-6 11 -14 20 -23 29c-10 9 -22 16 -35 21s-29 8 -48 8c-18 0 -35 -3 -51 -10s-30 -16 -42 -29c-13 -13 -23 -28 -30 -47s-11 -40 -11 -65s4 -47 11 -66s17 -35 30 -48c12 -13 26 -22 43 -29s34 -10 52 -10c19 0 35 3 50 9c14 6 26 13 36 22c9 9 17 19 23 29
c6 11 10 21 13 30l102 -37c-5 -17 -13 -34 -23 -51s-22 -32 -37 -47c-15 -14 -33 -26 -53 -37c-21 -10 -44 -17 -70 -21l-23 -36c29 -1 52 -9 70 -24s27 -35 27 -60c0 -12 -2 -24 -7 -35s-12 -20 -21 -29c-10 -8 -23 -15 -38 -20c-16 -5 -35 -8 -57 -8c-27 0 -50 5 -70 15
c-21 10 -36 21 -45 33l41 50c7 -7 16 -14 29 -23c12 -8 27 -12 44 -12c12 0 22 2 31 7s13 12 13 23c0 8 -3 15 -10 21s-18 9 -31 9c-10 0 -19 -2 -28 -5z" />
    <glyph glyph-name="egrave" unicode="&#xe8;" horiz-adv-x="557" 
d="M399 297c-1 14 -3 27 -8 40s-13 25 -23 35s-22 18 -37 24s-32 9 -52 9c-18 0 -34 -3 -48 -10c-15 -6 -27 -14 -37 -24c-10 -11 -18 -22 -24 -35s-9 -26 -10 -39h239zM510 139c-7 -21 -16 -41 -29 -60s-28 -35 -47 -49s-40 -25 -64 -33s-51 -12 -80 -12
c-33 0 -65 6 -95 18c-30 11 -56 28 -79 51c-23 22 -41 49 -54 82c-14 32 -21 69 -21 110c0 39 7 74 20 105s30 58 52 80c22 23 47 40 76 52c29 13 58 19 89 19c37 0 71 -6 101 -18c29 -12 54 -29 75 -51c20 -22 35 -49 46 -80s16 -65 16 -104c0 -9 0 -18 -1 -25
s-1 -11 -2 -12h-356c1 -19 5 -36 12 -51s17 -29 29 -40s26 -20 42 -27c15 -6 32 -9 50 -9c35 0 63 8 82 24c19 17 32 37 40 61zM116 696h139l88 -148h-95z" />
    <glyph glyph-name="eacute" unicode="&#xe9;" horiz-adv-x="557" 
d="M321 548h-95l89 148h137zM399 297c-1 14 -3 27 -8 40s-13 25 -23 35s-22 18 -37 24s-32 9 -52 9c-18 0 -34 -3 -48 -10c-15 -6 -27 -14 -37 -24c-10 -11 -18 -22 -24 -35s-9 -26 -10 -39h239zM510 139c-7 -21 -16 -41 -29 -60s-28 -35 -47 -49s-40 -25 -64 -33
s-51 -12 -80 -12c-33 0 -65 6 -95 18c-30 11 -56 28 -79 51c-23 22 -41 49 -54 82c-14 32 -21 69 -21 110c0 39 7 74 20 105s30 58 52 80c22 23 47 40 76 52c29 13 58 19 89 19c37 0 71 -6 101 -18c29 -12 54 -29 75 -51c20 -22 35 -49 46 -80s16 -65 16 -104
c0 -9 0 -18 -1 -25s-1 -11 -2 -12h-356c1 -19 5 -36 12 -51s17 -29 29 -40s26 -20 42 -27c15 -6 32 -9 50 -9c35 0 63 8 82 24c19 17 32 37 40 61z" />
    <glyph glyph-name="ecircumflex" unicode="&#xea;" horiz-adv-x="557" 
d="M117 549l107 143h121l108 -143h-99l-70 77l-70 -77h-97zM399 297c-1 14 -3 27 -8 40s-13 25 -23 35s-22 18 -37 24s-32 9 -52 9c-18 0 -34 -3 -48 -10c-15 -6 -27 -14 -37 -24c-10 -11 -18 -22 -24 -35s-9 -26 -10 -39h239zM510 139c-7 -21 -16 -41 -29 -60
s-28 -35 -47 -49s-40 -25 -64 -33s-51 -12 -80 -12c-33 0 -65 6 -95 18c-30 11 -56 28 -79 51c-23 22 -41 49 -54 82c-14 32 -21 69 -21 110c0 39 7 74 20 105s30 58 52 80c22 23 47 40 76 52c29 13 58 19 89 19c37 0 71 -6 101 -18c29 -12 54 -29 75 -51
c20 -22 35 -49 46 -80s16 -65 16 -104c0 -9 0 -18 -1 -25s-1 -11 -2 -12h-356c1 -19 5 -36 12 -51s17 -29 29 -40s26 -20 42 -27c15 -6 32 -9 50 -9c35 0 63 8 82 24c19 17 32 37 40 61z" />
    <glyph glyph-name="edieresis" unicode="&#xeb;" horiz-adv-x="557" 
d="M119 625c0 18 6 33 19 46c12 13 27 19 45 19c19 0 34 -6 47 -19s19 -28 19 -46c0 -19 -6 -34 -19 -46c-13 -13 -28 -19 -47 -19c-18 0 -33 6 -45 19c-13 12 -19 27 -19 46zM319 625c0 18 6 33 19 46c12 13 27 19 45 19s33 -6 46 -19s19 -28 19 -46c0 -19 -6 -34 -19 -46
c-13 -13 -28 -19 -46 -19s-33 6 -45 19c-13 12 -19 27 -19 46zM399 297c-1 14 -3 27 -8 40s-13 25 -23 35s-22 18 -37 24s-32 9 -52 9c-18 0 -34 -3 -48 -10c-15 -6 -27 -14 -37 -24c-10 -11 -18 -22 -24 -35s-9 -26 -10 -39h239zM510 139c-7 -21 -16 -41 -29 -60
s-28 -35 -47 -49s-40 -25 -64 -33s-51 -12 -80 -12c-33 0 -65 6 -95 18c-30 11 -56 28 -79 51c-23 22 -41 49 -54 82c-14 32 -21 69 -21 110c0 39 7 74 20 105s30 58 52 80c22 23 47 40 76 52c29 13 58 19 89 19c37 0 71 -6 101 -18c29 -12 54 -29 75 -51
c20 -22 35 -49 46 -80s16 -65 16 -104c0 -9 0 -18 -1 -25s-1 -11 -2 -12h-356c1 -19 5 -36 12 -51s17 -29 29 -40s26 -20 42 -27c15 -6 32 -9 50 -9c35 0 63 8 82 24c19 17 32 37 40 61z" />
    <glyph glyph-name="igrave" unicode="&#xec;" horiz-adv-x="259" 
d="M72 0v487h115v-487h-115zM-41 696h139l88 -148h-95z" />
    <glyph glyph-name="iacute" unicode="&#xed;" horiz-adv-x="259" 
d="M173 548h-95l89 148h137zM72 0v487h115v-487h-115z" />
    <glyph glyph-name="icircumflex" unicode="&#xee;" horiz-adv-x="259" 
d="M-37 549l107 143h121l108 -143h-99l-70 77l-70 -77h-97zM72 0v487h115v-487h-115z" />
    <glyph glyph-name="idieresis" unicode="&#xef;" horiz-adv-x="259" 
d="M-13 625c0 17 6 32 18 44c11 12 26 18 43 18s32 -6 44 -18s18 -27 18 -44s-6 -32 -18 -43c-12 -12 -27 -18 -44 -18s-32 6 -43 18c-12 11 -18 26 -18 43zM149 625c0 17 6 32 18 44c11 12 26 18 43 18s32 -6 44 -18s18 -27 18 -44s-6 -32 -18 -43c-12 -12 -27 -18 -44 -18
s-32 6 -43 18c-12 11 -18 26 -18 43zM72 0v487h115v-487h-115z" />
    <glyph glyph-name="ntilde" unicode="&#xf1;" horiz-adv-x="572" 
d="M188 0h-116v487h113v-65c16 28 37 48 64 61c26 12 53 18 80 18c30 0 56 -5 78 -15s40 -24 55 -41c14 -18 25 -39 32 -62s11 -48 11 -75v-308h-116v288c0 30 -7 56 -22 77s-41 31 -78 31c-33 0 -58 -11 -75 -33c-17 -23 -26 -50 -26 -82v-281zM129 574c0 39 10 68 30 87
c19 19 44 28 73 28c15 0 28 -2 39 -7c11 -4 21 -9 31 -15l10 -6c7 -5 15 -9 22 -12s14 -5 21 -5c21 0 31 15 31 44h76v-17c0 -39 -10 -69 -29 -88s-44 -29 -73 -29c-15 0 -28 2 -39 7s-22 10 -32 16l-10 6c-7 5 -14 9 -21 12s-15 4 -22 4c-10 0 -17 -3 -22 -10
s-8 -18 -8 -33h-76z" />
    <glyph glyph-name="ograve" unicode="&#xf2;" horiz-adv-x="587" 
d="M293 89c18 0 35 3 52 10c16 7 30 17 43 30s23 29 30 48s11 42 11 67s-4 47 -11 66s-17 35 -30 48s-27 23 -43 29c-17 7 -34 10 -52 10s-35 -3 -51 -10c-17 -6 -31 -16 -43 -29c-13 -13 -23 -29 -30 -48c-8 -19 -12 -41 -12 -66s4 -48 12 -67c7 -19 17 -35 30 -48
c12 -13 26 -23 43 -30c16 -7 33 -10 51 -10zM293 502c37 0 70 -6 101 -19s57 -31 80 -54s40 -51 53 -82s19 -66 19 -103s-6 -72 -19 -103c-13 -32 -30 -59 -53 -82s-49 -41 -80 -54s-64 -20 -101 -20c-36 0 -69 7 -100 20s-58 31 -80 54c-23 23 -40 50 -53 82
c-13 31 -19 66 -19 103s6 72 19 103s30 59 53 82c22 23 49 41 80 54s64 19 100 19zM119 696h139l88 -148h-95z" />
    <glyph glyph-name="oacute" unicode="&#xf3;" horiz-adv-x="587" 
d="M331 548h-95l89 148h137zM293 89c18 0 35 3 52 10c16 7 30 17 43 30s23 29 30 48s11 42 11 67s-4 47 -11 66s-17 35 -30 48s-27 23 -43 29c-17 7 -34 10 -52 10s-35 -3 -51 -10c-17 -6 -31 -16 -43 -29c-13 -13 -23 -29 -30 -48c-8 -19 -12 -41 -12 -66s4 -48 12 -67
c7 -19 17 -35 30 -48c12 -13 26 -23 43 -30c16 -7 33 -10 51 -10zM293 502c37 0 70 -6 101 -19s57 -31 80 -54s40 -51 53 -82s19 -66 19 -103s-6 -72 -19 -103c-13 -32 -30 -59 -53 -82s-49 -41 -80 -54s-64 -20 -101 -20c-36 0 -69 7 -100 20s-58 31 -80 54
c-23 23 -40 50 -53 82c-13 31 -19 66 -19 103s6 72 19 103s30 59 53 82c22 23 49 41 80 54s64 19 100 19z" />
    <glyph glyph-name="ocircumflex" unicode="&#xf4;" horiz-adv-x="587" 
d="M127 549l107 143h121l108 -143h-99l-70 77l-70 -77h-97zM293 89c18 0 35 3 52 10c16 7 30 17 43 30s23 29 30 48s11 42 11 67s-4 47 -11 66s-17 35 -30 48s-27 23 -43 29c-17 7 -34 10 -52 10s-35 -3 -51 -10c-17 -6 -31 -16 -43 -29c-13 -13 -23 -29 -30 -48
c-8 -19 -12 -41 -12 -66s4 -48 12 -67c7 -19 17 -35 30 -48c12 -13 26 -23 43 -30c16 -7 33 -10 51 -10zM293 502c37 0 70 -6 101 -19s57 -31 80 -54s40 -51 53 -82s19 -66 19 -103s-6 -72 -19 -103c-13 -32 -30 -59 -53 -82s-49 -41 -80 -54s-64 -20 -101 -20
c-36 0 -69 7 -100 20s-58 31 -80 54c-23 23 -40 50 -53 82c-13 31 -19 66 -19 103s6 72 19 103s30 59 53 82c22 23 49 41 80 54s64 19 100 19z" />
    <glyph glyph-name="otilde" unicode="&#xf5;" horiz-adv-x="587" 
d="M293 89c18 0 35 3 52 10c16 7 30 17 43 30s23 29 30 48s11 42 11 67s-4 47 -11 66s-17 35 -30 48s-27 23 -43 29c-17 7 -34 10 -52 10s-35 -3 -51 -10c-17 -6 -31 -16 -43 -29c-13 -13 -23 -29 -30 -48c-8 -19 -12 -41 -12 -66s4 -48 12 -67c7 -19 17 -35 30 -48
c12 -13 26 -23 43 -30c16 -7 33 -10 51 -10zM293 502c37 0 70 -6 101 -19s57 -31 80 -54s40 -51 53 -82s19 -66 19 -103s-6 -72 -19 -103c-13 -32 -30 -59 -53 -82s-49 -41 -80 -54s-64 -20 -101 -20c-36 0 -69 7 -100 20s-58 31 -80 54c-23 23 -40 50 -53 82
c-13 31 -19 66 -19 103s6 72 19 103s30 59 53 82c22 23 49 41 80 54s64 19 100 19zM129 574c0 39 10 68 29 87c20 19 45 28 74 28c15 0 27 -2 38 -7c11 -4 22 -9 32 -15l10 -6c7 -5 14 -9 21 -12s15 -5 22 -5c21 0 31 15 31 44h76v-17c0 -39 -10 -69 -29 -88
s-44 -29 -73 -29c-15 0 -28 2 -39 7s-22 10 -32 16l-10 6c-7 5 -14 9 -21 12s-15 4 -22 4c-10 0 -17 -3 -22 -10s-8 -18 -8 -33h-76z" />
    <glyph glyph-name="odieresis" unicode="&#xf6;" horiz-adv-x="587" 
d="M128 625c0 18 6 33 19 46c12 13 27 19 45 19c19 0 34 -6 47 -19s19 -28 19 -46c0 -19 -6 -34 -19 -46c-13 -13 -28 -19 -47 -19c-18 0 -33 6 -45 19c-13 12 -19 27 -19 46zM328 625c0 18 6 33 19 46c12 13 27 19 45 19s33 -6 46 -19s19 -28 19 -46c0 -19 -6 -34 -19 -46
c-13 -13 -28 -19 -46 -19s-33 6 -45 19c-13 12 -19 27 -19 46zM293 89c18 0 35 3 52 10c16 7 30 17 43 30s23 29 30 48s11 42 11 67s-4 47 -11 66s-17 35 -30 48s-27 23 -43 29c-17 7 -34 10 -52 10s-35 -3 -51 -10c-17 -6 -31 -16 -43 -29c-13 -13 -23 -29 -30 -48
c-8 -19 -12 -41 -12 -66s4 -48 12 -67c7 -19 17 -35 30 -48c12 -13 26 -23 43 -30c16 -7 33 -10 51 -10zM293 502c37 0 70 -6 101 -19s57 -31 80 -54s40 -51 53 -82s19 -66 19 -103s-6 -72 -19 -103c-13 -32 -30 -59 -53 -82s-49 -41 -80 -54s-64 -20 -101 -20
c-36 0 -69 7 -100 20s-58 31 -80 54c-23 23 -40 50 -53 82c-13 31 -19 66 -19 103s6 72 19 103s30 59 53 82c22 23 49 41 80 54s64 19 100 19z" />
    <glyph glyph-name="divide" unicode="&#xf7;" horiz-adv-x="571" 
d="M211 168c0 20 7 37 22 51c14 14 31 21 51 21c19 0 36 -7 50 -21s21 -31 21 -51c0 -19 -7 -36 -21 -50c-14 -15 -31 -22 -50 -22c-20 0 -37 7 -51 22c-15 14 -22 31 -22 50zM48 299v99h475v-99h-475zM211 530c0 19 7 36 22 50c14 14 31 21 51 21c19 0 36 -7 50 -21
s21 -31 21 -50s-7 -36 -21 -51s-31 -22 -50 -22c-20 0 -37 7 -51 22c-15 15 -22 32 -22 51z" />
    <glyph glyph-name="ugrave" unicode="&#xf9;" horiz-adv-x="571" 
d="M389 54c-12 -22 -31 -39 -56 -50c-26 -12 -53 -18 -82 -18s-55 5 -78 15s-42 24 -57 42c-16 17 -28 38 -36 61c-9 23 -13 49 -13 76v307h116v-286c0 -15 2 -30 6 -43c3 -13 9 -25 17 -35s18 -18 31 -24c12 -6 27 -9 44 -9c34 0 60 10 77 31c17 20 25 46 25 78v288h116
v-398c0 -20 1 -37 2 -52s2 -28 3 -37h-111c-1 5 -2 13 -3 24c-1 10 -1 20 -1 30zM122 696h139l88 -148h-95z" />
    <glyph glyph-name="uacute" unicode="&#xfa;" horiz-adv-x="571" 
d="M301 548h-95l89 148h137zM389 54c-12 -22 -31 -39 -56 -50c-26 -12 -53 -18 -82 -18s-55 5 -78 15s-42 24 -57 42c-16 17 -28 38 -36 61c-9 23 -13 49 -13 76v307h116v-286c0 -15 2 -30 6 -43c3 -13 9 -25 17 -35s18 -18 31 -24c12 -6 27 -9 44 -9c34 0 60 10 77 31
c17 20 25 46 25 78v288h116v-398c0 -20 1 -37 2 -52s2 -28 3 -37h-111c-1 5 -2 13 -3 24c-1 10 -1 20 -1 30z" />
    <glyph glyph-name="ucircumflex" unicode="&#xfb;" horiz-adv-x="571" 
d="M116 549l107 143h121l108 -143h-99l-70 77l-70 -77h-97zM389 54c-12 -22 -31 -39 -56 -50c-26 -12 -53 -18 -82 -18s-55 5 -78 15s-42 24 -57 42c-16 17 -28 38 -36 61c-9 23 -13 49 -13 76v307h116v-286c0 -15 2 -30 6 -43c3 -13 9 -25 17 -35s18 -18 31 -24
c12 -6 27 -9 44 -9c34 0 60 10 77 31c17 20 25 46 25 78v288h116v-398c0 -20 1 -37 2 -52s2 -28 3 -37h-111c-1 5 -2 13 -3 24c-1 10 -1 20 -1 30z" />
    <glyph glyph-name="udieresis" unicode="&#xfc;" horiz-adv-x="571" 
d="M119 625c0 18 6 33 19 46c12 13 27 19 45 19c19 0 34 -6 47 -19s19 -28 19 -46c0 -19 -6 -34 -19 -46c-13 -13 -28 -19 -47 -19c-18 0 -33 6 -45 19c-13 12 -19 27 -19 46zM319 625c0 18 6 33 19 46c12 13 27 19 45 19s33 -6 46 -19s19 -28 19 -46c0 -19 -6 -34 -19 -46
c-13 -13 -28 -19 -46 -19s-33 6 -45 19c-13 12 -19 27 -19 46zM389 54c-12 -22 -31 -39 -56 -50c-26 -12 -53 -18 -82 -18s-55 5 -78 15s-42 24 -57 42c-16 17 -28 38 -36 61c-9 23 -13 49 -13 76v307h116v-286c0 -15 2 -30 6 -43c3 -13 9 -25 17 -35s18 -18 31 -24
c12 -6 27 -9 44 -9c34 0 60 10 77 31c17 20 25 46 25 78v288h116v-398c0 -20 1 -37 2 -52s2 -28 3 -37h-111c-1 5 -2 13 -3 24c-1 10 -1 20 -1 30z" />
    <glyph glyph-name="OE" unicode="&#x152;" horiz-adv-x="1132" 
d="M642 0v81c-30 -31 -65 -55 -106 -72c-41 -16 -85 -24 -132 -24s-92 8 -135 25s-82 41 -115 72c-33 32 -60 71 -80 117s-30 98 -30 156s10 110 30 155c20 46 47 85 80 116c33 32 72 56 115 73s88 25 135 25s91 -8 132 -24c41 -17 76 -41 106 -73v82h437v-112h-317v-188
h288v-109h-288v-188h318v-112h-438zM167 355c0 -43 7 -80 21 -112c13 -32 31 -59 53 -80s47 -37 76 -48c28 -11 57 -16 87 -16s59 5 88 16s54 27 76 48s40 48 54 80c13 32 20 69 20 112s-7 80 -20 112c-14 32 -32 59 -54 80s-47 37 -76 48s-58 16 -88 16s-59 -5 -87 -16
c-29 -11 -54 -27 -76 -48s-40 -48 -53 -80c-14 -32 -21 -69 -21 -112z" />
    <glyph glyph-name="oe" unicode="&#x153;" horiz-adv-x="946" 
d="M293 502c40 0 77 -8 110 -23s61 -36 84 -64c21 27 48 48 80 63c31 16 65 24 100 24c37 0 71 -6 101 -18c29 -12 54 -29 75 -51c20 -22 35 -49 46 -80s16 -65 16 -104c0 -9 0 -18 -1 -25s-1 -11 -2 -12h-356c1 -19 5 -36 12 -51s17 -29 29 -40s26 -20 42 -26
c15 -7 32 -10 50 -10c35 0 63 8 82 25c19 16 32 36 40 60l98 -31c-7 -21 -16 -41 -29 -60s-28 -35 -47 -49s-40 -25 -64 -33s-51 -12 -80 -12c-38 0 -74 8 -107 23s-62 36 -85 65c-23 -28 -51 -50 -84 -65s-70 -23 -110 -23c-36 0 -69 7 -100 20s-58 31 -80 54
c-23 23 -40 50 -53 82c-13 31 -19 66 -19 103s6 72 19 103s30 59 53 82c22 23 49 41 80 54s64 19 100 19zM293 89c18 0 35 3 52 10c16 7 30 16 43 29s23 30 30 49s11 42 11 67s-4 47 -11 66s-17 35 -30 48s-27 23 -43 29c-17 7 -34 10 -52 10s-35 -3 -51 -10
c-17 -6 -31 -16 -43 -29c-13 -13 -23 -29 -30 -48c-8 -19 -12 -41 -12 -66s4 -48 12 -67c7 -19 17 -36 30 -49c12 -13 26 -22 43 -29c16 -7 33 -10 51 -10zM788 297c-1 14 -3 27 -8 40s-13 25 -23 35s-22 18 -37 24s-32 9 -52 9c-18 0 -34 -3 -48 -10
c-15 -6 -27 -14 -37 -25c-10 -10 -18 -22 -24 -35s-9 -25 -10 -38h239z" />
    <glyph glyph-name="florin" unicode="&#x192;" horiz-adv-x="420" 
d="M142 388h-103v99h123l21 101c5 27 14 50 26 69s26 35 42 47c16 13 33 22 52 27c19 6 38 9 57 9c21 0 38 -1 49 -4c11 -2 22 -5 33 -8v-101c-17 5 -36 8 -57 8c-8 0 -16 -1 -25 -2c-9 -2 -17 -6 -26 -12s-16 -14 -23 -25s-12 -26 -16 -45l-13 -64h122v-99h-142l-81 -401
c-5 -27 -14 -50 -26 -69s-26 -35 -42 -47c-16 -13 -33 -22 -52 -27c-19 -6 -38 -9 -57 -9c-22 0 -39 1 -50 4c-11 2 -23 5 -35 8v101c8 -2 17 -4 27 -5s21 -2 34 -2c8 0 16 1 25 2c9 2 17 6 26 12c8 6 16 14 23 25s12 26 15 44z" />
    <glyph glyph-name="uni02BB" unicode="&#x2bb;" horiz-adv-x="224" 
d="M181 596c0 -17 -6 -31 -19 -42s-29 -16 -48 -16c-18 0 -35 7 -50 20c-16 14 -24 34 -24 60c0 21 4 39 13 54c8 15 18 28 31 37c13 10 27 17 42 22s29 7 43 7v-44c-21 0 -38 -5 -51 -15s-21 -21 -22 -32c1 1 4 3 8 5c5 1 10 2 17 2c19 0 33 -5 44 -16s16 -25 16 -42z" />
    <glyph glyph-name="uni02BC" unicode="&#x2bc;" horiz-adv-x="226" 
d="M48 673c0 17 6 32 19 43s29 16 48 16s36 -7 51 -20c15 -14 23 -34 23 -60c0 -24 -4 -44 -13 -59c-8 -15 -18 -28 -31 -37s-27 -16 -42 -19c-15 -4 -29 -6 -43 -6v45c21 0 38 4 51 13s21 20 22 33c-1 -1 -4 -2 -8 -3c-5 -2 -10 -3 -17 -3c-18 0 -32 5 -43 16
c-11 10 -17 24 -17 41z" />
    <glyph glyph-name="circumflex" unicode="&#x2c6;" horiz-adv-x="396" 
d="M30 549l107 143h121l108 -143h-99l-70 77l-70 -77h-97z" />
    <glyph glyph-name="caron" unicode="&#x2c7;" horiz-adv-x="396" 
d="M128 694l70 -77l70 77h98l-106 -145h-124l-106 145h98z" />
    <glyph glyph-name="uni02C9" unicode="&#x2c9;" horiz-adv-x="338" 
d="M30 577v90h278v-90h-278z" />
    <glyph glyph-name="breve" unicode="&#x2d8;" horiz-adv-x="369" 
d="M184 547c-25 0 -47 4 -66 13c-19 8 -34 19 -47 33c-13 13 -23 29 -30 47c-7 17 -10 35 -11 54h82c1 -15 7 -28 18 -41s29 -20 54 -20c13 0 24 2 33 6c9 3 16 8 22 14s10 13 13 20s4 14 5 21h82c-1 -19 -4 -37 -11 -54c-7 -18 -16 -34 -29 -47c-13 -14 -29 -25 -48 -33
c-19 -9 -42 -13 -67 -13z" />
    <glyph glyph-name="dotaccent" unicode="&#x2d9;" horiz-adv-x="184" 
d="M20 622c0 20 7 37 21 51s31 21 51 21s37 -7 51 -21s21 -31 21 -51c0 -19 -7 -36 -21 -50s-31 -21 -51 -21s-37 7 -51 21s-21 31 -21 50z" />
    <glyph glyph-name="ring" unicode="&#x2da;" horiz-adv-x="287" 
d="M257 645c0 -16 -3 -31 -9 -44s-14 -25 -25 -34c-11 -10 -23 -18 -37 -24c-13 -5 -28 -8 -43 -8s-30 3 -43 8c-13 6 -25 14 -36 24c-11 9 -19 21 -25 34s-9 28 -9 44s3 31 9 45c6 13 14 25 25 35c11 9 23 17 36 23c13 5 28 8 43 8s30 -3 43 -8c14 -6 26 -14 37 -23
c11 -10 19 -22 25 -35c6 -14 9 -29 9 -45zM187 645c0 13 -4 24 -12 32c-9 9 -20 13 -33 13c-12 0 -22 -4 -30 -13c-9 -8 -13 -19 -13 -32s4 -23 13 -31c8 -9 18 -13 30 -13c13 0 24 4 33 13c8 8 12 18 12 31z" />
    <glyph glyph-name="ogonek" unicode="&#x2db;" horiz-adv-x="228" 
d="M147 -220c-17 0 -32 2 -47 7s-27 12 -38 21s-19 20 -25 33s-9 27 -9 43c0 19 3 35 10 50c6 14 14 26 24 37c10 10 21 19 33 26s24 14 35 19l68 -16c-9 -5 -19 -10 -28 -16c-10 -6 -19 -13 -27 -21s-14 -17 -19 -27c-5 -9 -8 -20 -8 -31c0 -16 5 -28 16 -35
c10 -7 22 -11 35 -11c11 0 21 1 31 3v-74c-7 -3 -14 -5 -21 -6c-8 -1 -18 -2 -30 -2z" />
    <glyph glyph-name="tilde" unicode="&#x2dc;" horiz-adv-x="385" 
d="M26 574c0 39 10 68 29 87c20 19 45 28 74 28c15 0 27 -2 38 -7c11 -4 22 -9 32 -15l10 -6c7 -5 14 -9 21 -12s15 -5 22 -5c21 0 31 15 31 44h76v-17c0 -39 -10 -69 -29 -88s-44 -29 -73 -29c-15 0 -28 2 -39 7s-22 10 -32 16l-10 6c-7 5 -14 9 -21 12s-15 4 -22 4
c-10 0 -17 -3 -22 -10s-8 -18 -8 -33h-76z" />
    <glyph glyph-name="hungarumlaut" unicode="&#x2dd;" horiz-adv-x="383" 
d="M105 548h-76l52 148h118zM247 548h-76l64 148h119z" />
    <glyph glyph-name="uni0394" unicode="&#x394;" horiz-adv-x="704" 
d="M288 709h129l275 -709h-678zM181 111h343l-172 465z" />
    <glyph glyph-name="uni03A9" unicode="&#x3a9;" horiz-adv-x="804" 
d="M403 614c-28 0 -55 -5 -82 -14c-27 -10 -52 -24 -73 -43s-38 -43 -51 -70c-13 -28 -20 -60 -20 -96c0 -32 6 -61 17 -86c11 -26 25 -49 42 -68s37 -35 60 -47c22 -13 45 -21 68 -26v-164h-304v109h189c-25 10 -50 24 -73 41s-44 38 -62 63c-18 24 -32 52 -43 83
s-17 64 -17 100c0 51 10 96 29 137s45 75 77 104c32 28 69 50 111 65s86 22 132 22s90 -7 132 -22s79 -37 111 -65c32 -29 58 -63 77 -104s29 -86 29 -137c0 -36 -5 -69 -16 -100s-26 -59 -44 -83c-18 -25 -39 -46 -62 -63c-24 -17 -48 -31 -73 -41h189v-109h-304v164
c23 5 45 13 68 26c23 12 43 28 60 47s32 42 43 68c11 25 16 54 16 86c0 36 -6 68 -19 96c-13 27 -31 51 -52 70s-45 33 -72 43c-27 9 -55 14 -83 14z" />
    <glyph glyph-name="uni03BC" unicode="&#x3bc;" horiz-adv-x="576" 
d="M394 54c-12 -22 -31 -39 -56 -50c-26 -12 -53 -18 -82 -18c-25 0 -48 4 -68 12v-188h-116v677h116v-286c0 -15 2 -30 6 -43c3 -13 9 -25 17 -35s18 -18 31 -24c12 -6 27 -9 44 -9c34 0 60 10 77 31c17 20 25 46 25 78v288h116v-398c0 -21 1 -40 2 -57s2 -27 3 -32h-111
c-1 5 -2 13 -3 24c-1 10 -1 20 -1 30z" />
    <glyph glyph-name="pi" unicode="&#x3c0;" horiz-adv-x="620" 
d="M573 5c-4 -1 -11 -4 -22 -8c-11 -3 -25 -5 -43 -5c-23 0 -42 3 -58 11c-17 7 -30 16 -41 28s-20 26 -25 42s-8 33 -8 52v262h-147v-387h-115v387h-83v100h540v-100h-80v-248c0 -18 5 -30 16 -37c10 -7 22 -11 35 -11s23 1 31 4v-90z" />
    <glyph glyph-name="uni0400" unicode="&#x400;" horiz-adv-x="583" 
d="M89 0v709h438v-113h-317v-187h287v-109h-287v-187h317v-113h-438zM291 759l-132 148h139l89 -148h-96z" />
    <glyph glyph-name="uni0401" unicode="&#x401;" horiz-adv-x="583" 
d="M89 0v709h438v-113h-317v-187h287v-109h-287v-187h317v-113h-438zM501 821c0 -19 -6 -34 -19 -47s-29 -19 -48 -19s-34 6 -47 19s-19 28 -19 47s6 35 19 48s28 19 47 19s35 -6 48 -19s19 -29 19 -48zM258 821c0 -19 -6 -34 -19 -47s-29 -19 -48 -19s-34 6 -47 19
s-19 28 -19 47s6 35 19 48s28 19 47 19s35 -6 48 -19s19 -29 19 -48z" />
    <glyph glyph-name="uni0402" unicode="&#x402;" horiz-adv-x="822" 
d="M786 227c0 -34 -6 -65 -17 -94c-11 -28 -26 -52 -47 -73c-20 -20 -45 -36 -74 -48c-29 -11 -61 -17 -96 -17c-24 0 -44 2 -61 7v104c9 -2 18 -3 25 -4c8 -1 16 -1 24 -1c17 0 32 3 47 8c15 6 29 14 40 24c11 11 20 23 26 38c7 15 10 31 10 50c0 38 -12 68 -37 91
c-24 22 -57 33 -99 33c-23 0 -44 -3 -63 -10s-36 -18 -51 -32c-14 -14 -25 -32 -33 -53s-12 -46 -12 -74v-176h-121v595h-230v114h581v-114h-230v-215c19 23 44 42 73 56c30 13 65 20 106 20c36 0 69 -5 98 -16c30 -11 55 -27 76 -47c21 -21 37 -45 48 -73s17 -59 17 -93z
" />
    <glyph glyph-name="uni0403" unicode="&#x403;" horiz-adv-x="534" 
d="M229 759l102 124h150l-142 -124h-110zM89 709h428v-113h-307v-596h-121v709z" />
    <glyph glyph-name="uni0404" unicode="&#x404;" horiz-adv-x="754" 
d="M403 -15c-48 0 -93 8 -136 25s-81 41 -114 72c-33 32 -60 71 -79 117c-19 45 -29 97 -29 155s10 110 30 156s47 85 80 117c33 31 71 55 114 72s87 25 133 25c45 0 86 -6 122 -18s67 -28 94 -48c27 -21 49 -44 66 -71s29 -56 37 -86l-113 -42c-5 20 -13 39 -24 58
c-11 18 -25 34 -42 48c-17 13 -37 24 -60 33c-23 8 -50 12 -80 12c-26 0 -52 -4 -77 -12c-25 -9 -48 -21 -69 -38s-38 -37 -52 -62c-15 -25 -24 -55 -29 -88h348v-110h-348c5 -32 14 -60 29 -85c14 -25 31 -46 52 -63s44 -29 69 -38s51 -13 78 -13c31 0 59 4 83 13
c23 9 44 20 61 35c17 14 31 30 42 48c11 19 19 38 25 57l111 -40c-8 -29 -21 -58 -38 -85s-39 -52 -66 -73s-58 -38 -94 -51c-37 -14 -78 -20 -124 -20z" />
    <glyph glyph-name="uni0405" unicode="&#x405;" horiz-adv-x="602" 
d="M559 200c0 -27 -6 -54 -17 -80s-28 -49 -49 -69c-22 -20 -48 -36 -79 -48s-67 -18 -106 -18c-45 0 -84 7 -117 20s-61 30 -83 51c-23 21 -40 44 -52 70c-13 25 -20 51 -23 76l114 32c1 -19 6 -36 13 -53s18 -32 31 -45s30 -24 49 -31c19 -8 42 -12 68 -12
c42 0 74 10 96 29s33 42 33 70c0 23 -8 43 -24 60s-40 28 -71 35l-99 20c-55 11 -98 34 -131 69c-33 34 -50 78 -50 131c0 30 6 58 19 85c13 26 30 49 52 69c22 19 48 35 77 46s61 17 94 17c41 0 77 -6 106 -17s54 -26 73 -43c20 -18 35 -38 46 -59s18 -42 22 -62l-109 -34
c-2 11 -6 23 -12 36c-5 13 -14 24 -25 35s-24 20 -41 27s-37 11 -60 11c-18 0 -35 -3 -50 -8s-27 -13 -38 -22c-10 -10 -18 -21 -24 -33c-6 -13 -9 -26 -9 -40c0 -22 7 -41 20 -57c14 -16 35 -27 63 -32l101 -21c63 -13 110 -38 143 -75s49 -80 49 -130z" />
    <glyph glyph-name="uni0406" unicode="&#x406;" horiz-adv-x="301" 
d="M89 0v709h123v-709h-123z" />
    <glyph glyph-name="uni0407" unicode="&#x407;" horiz-adv-x="301" 
d="M89 0v709h123v-709h-123zM300 821c0 -17 -6 -32 -18 -44s-27 -18 -45 -18c-17 0 -32 6 -44 18s-18 27 -18 44s6 32 18 44s27 18 44 18c18 0 33 -6 45 -18s18 -27 18 -44zM129 821c0 -17 -6 -32 -18 -44s-27 -18 -45 -18c-17 0 -32 6 -43 18c-12 12 -18 27 -18 44
s6 32 18 44c11 12 26 18 43 18c18 0 33 -6 45 -18s18 -27 18 -44z" />
    <glyph glyph-name="uni0408" unicode="&#x408;" horiz-adv-x="556" 
d="M474 216c0 -31 -5 -61 -16 -89s-26 -52 -45 -73s-43 -38 -70 -50c-27 -13 -58 -19 -92 -19c-35 0 -66 5 -94 17c-28 11 -52 26 -71 46c-20 20 -35 44 -46 72s-16 59 -16 94v46l118 24v-66c0 -42 10 -72 31 -91s46 -29 77 -29c32 0 57 10 76 31c19 20 28 48 28 84v496h120
v-493z" />
    <glyph glyph-name="uni0409" unicode="&#x409;" horiz-adv-x="999" 
d="M479 0v596h-211l-6 -224c-2 -60 -5 -113 -10 -160s-15 -87 -28 -119c-14 -33 -33 -57 -57 -74s-56 -26 -95 -26c-17 0 -29 1 -38 3c-5 1 -10 3 -13 4v102c2 -1 4 -1 7 -1c3 -1 8 -1 17 -1h7c17 1 31 6 42 17c11 10 20 26 27 48s13 51 17 86c3 35 6 78 7 129l9 329h446
v-253h132c35 0 67 -5 96 -16s55 -26 76 -45c21 -20 38 -44 50 -72c11 -29 17 -60 17 -95c0 -33 -6 -63 -17 -90c-12 -28 -28 -52 -49 -72c-21 -21 -45 -37 -74 -48c-29 -12 -61 -18 -96 -18h-256zM600 107h119c39 0 71 11 95 34c23 22 35 51 35 86s-11 64 -34 88
c-23 23 -56 35 -99 35h-116v-243z" />
    <glyph glyph-name="uni040A" unicode="&#x40a;" horiz-adv-x="1016" 
d="M89 0v709h121v-274h288v274h122v-274h135c35 0 67 -5 96 -15s53 -25 74 -44c20 -19 36 -41 47 -68s17 -57 17 -91c0 -31 -6 -60 -17 -87c-11 -26 -27 -49 -48 -68s-45 -34 -74 -45s-60 -17 -95 -17h-257v322h-288v-322h-121zM620 107h123c38 0 68 10 91 31
c22 21 33 47 33 79s-10 59 -31 80s-52 32 -93 32h-123v-222z" />
    <glyph glyph-name="uni040B" unicode="&#x40b;" horiz-adv-x="810" 
d="M247 0v595h-230v114h581v-114h-230v-218c17 27 42 47 74 60c31 13 64 19 99 19c33 0 64 -5 91 -15s51 -25 70 -45s34 -45 45 -74c11 -30 16 -64 16 -103v-219h-121v205c0 45 -11 80 -34 103s-54 34 -94 34c-42 0 -77 -13 -104 -39c-28 -26 -42 -63 -42 -112v-191h-121z
" />
    <glyph glyph-name="uni040C" unicode="&#x40c;" horiz-adv-x="663" 
d="M288 759l102 124h150l-142 -124h-110zM89 709h121v-299h61l239 299h149l-282 -343l282 -366h-154l-227 300h-68v-300h-121v709z" />
    <glyph glyph-name="uni040D" unicode="&#x40d;" horiz-adv-x="758" 
d="M89 709h121v-528l329 528h130v-709h-120v527l-330 -527h-130v709zM335 759l-132 148h139l89 -148h-96z" />
    <glyph glyph-name="uni040E" unicode="&#x40e;" horiz-adv-x="636" 
d="M401 206c-17 -35 -33 -66 -48 -93s-32 -50 -50 -68c-19 -18 -40 -31 -63 -40s-51 -14 -83 -14c-17 0 -30 1 -41 4c-11 2 -18 4 -21 5v104c3 -1 8 -2 15 -3c7 -2 18 -3 33 -3c33 0 58 9 76 26s33 39 44 65l-259 520h141l187 -387l173 387h135zM329 754c-29 0 -54 4 -75 12
s-38 19 -51 32s-23 27 -29 42c-7 15 -10 31 -11 46h100c1 -15 6 -28 17 -40c10 -12 26 -18 49 -18s39 6 49 19c9 13 14 26 15 39h99c-1 -15 -4 -30 -9 -45c-6 -16 -15 -30 -28 -43s-29 -23 -50 -31c-21 -9 -46 -13 -76 -13z" />
    <glyph glyph-name="uni040F" unicode="&#x40f;" horiz-adv-x="743" 
d="M312 0h-223v709h121v-596h323v596h121v-709h-224v-150h-118v150z" />
    <glyph glyph-name="uni0410" unicode="&#x410;" horiz-adv-x="716" 
d="M12 0l274 709h145l272 -709h-131l-66 178h-301l-65 -178h-128zM246 289h219l-110 297z" />
    <glyph glyph-name="uni0411" unicode="&#x411;" horiz-adv-x="615" 
d="M89 709h432v-113h-311v-162h134c35 0 68 -5 97 -15s54 -25 75 -44s37 -41 48 -68s17 -57 17 -90c0 -31 -6 -60 -17 -87c-11 -26 -27 -49 -48 -68s-45 -34 -74 -45s-62 -17 -97 -17h-256v709zM331 107c40 0 71 10 94 30c23 21 34 47 34 79s-10 59 -31 80s-54 32 -97 32
h-121v-221h121z" />
    <glyph glyph-name="uni0412" unicode="&#x412;" horiz-adv-x="619" 
d="M89 0v709h244c34 0 64 -5 91 -14s50 -22 69 -39s33 -38 42 -61c10 -23 15 -49 15 -77c0 -38 -10 -70 -31 -97c-20 -27 -45 -45 -75 -56c19 -5 36 -12 52 -22c15 -11 29 -23 40 -38s20 -31 26 -50c7 -19 10 -38 10 -59c0 -28 -5 -54 -16 -78s-26 -45 -45 -62
c-19 -18 -43 -32 -70 -41c-27 -10 -57 -15 -90 -15h-262zM208 102h122c36 0 65 9 87 28c22 18 33 43 33 74s-10 56 -30 75c-19 19 -48 28 -87 28h-125v-205zM208 409h109c35 0 63 9 82 27c20 18 30 42 30 72s-10 54 -30 72c-20 17 -49 26 -86 26h-105v-197z" />
    <glyph glyph-name="uni0413" unicode="&#x413;" horiz-adv-x="534" 
d="M89 709h428v-113h-307v-596h-121v709z" />
    <glyph glyph-name="uni0414" unicode="&#x414;" horiz-adv-x="771" 
d="M14 113h54c9 8 19 19 28 33s17 32 24 55c7 22 14 49 19 82s9 72 11 118l11 308h480v-596h98v-263h-117v150h-491v-150h-117v263zM520 113v483h-247l-6 -193c-1 -41 -4 -78 -7 -109c-4 -31 -9 -58 -14 -81c-6 -23 -12 -43 -19 -59c-7 -17 -15 -30 -22 -41h315z" />
    <glyph glyph-name="uni0415" unicode="&#x415;" horiz-adv-x="583" 
d="M89 0v709h438v-113h-317v-187h287v-109h-287v-187h317v-113h-438z" />
    <glyph glyph-name="uni0416" unicode="&#x416;" horiz-adv-x="991" 
d="M275 360l-266 349h149l221 -298h58v298h120v-298h58l221 298h146l-264 -346l270 -363h-150l-221 300h-60v-300h-120v300h-60l-226 -300h-148z" />
    <glyph glyph-name="uni0417" unicode="&#x417;" horiz-adv-x="604" 
d="M557 198c0 -28 -5 -55 -16 -81s-27 -49 -48 -68c-22 -19 -49 -35 -81 -46c-32 -12 -69 -18 -112 -18c-41 0 -78 6 -109 19c-32 12 -59 28 -81 48c-22 19 -39 41 -51 66c-13 24 -20 48 -23 73l117 28c1 -16 6 -31 13 -46s17 -29 29 -41c13 -12 28 -21 45 -28
c18 -7 38 -11 61 -11s42 3 59 9s32 14 43 24s20 22 25 35s8 26 8 41c0 14 -3 28 -8 41s-12 24 -23 33s-25 17 -43 23c-17 5 -38 8 -63 8h-85v106h84c39 0 69 10 89 29s30 44 30 75s-11 56 -33 75s-51 28 -87 28c-21 0 -40 -3 -57 -10c-16 -7 -30 -15 -42 -26
c-11 -11 -20 -24 -27 -37c-6 -14 -10 -28 -11 -42l-113 26c2 23 9 45 21 68c13 23 30 43 51 62c21 18 47 33 78 44s65 17 104 17c40 0 75 -5 104 -16c30 -11 55 -25 74 -43c20 -18 35 -39 45 -62c9 -23 14 -48 14 -73c0 -40 -10 -74 -31 -103s-49 -48 -82 -59
c17 -4 34 -10 50 -19s30 -21 42 -35s22 -30 29 -49s11 -41 11 -65z" />
    <glyph glyph-name="uni0418" unicode="&#x418;" horiz-adv-x="758" 
d="M89 709h121v-528l329 528h130v-709h-120v527l-330 -527h-130v709z" />
    <glyph glyph-name="uni0419" unicode="&#x419;" horiz-adv-x="758" 
d="M89 709h121v-528l329 528h130v-709h-120v527l-330 -527h-130v709zM386 754c-29 0 -54 4 -75 12s-38 19 -51 32s-23 27 -29 42c-7 15 -10 31 -11 46h100c1 -15 6 -28 17 -40c10 -12 26 -18 49 -18s39 6 49 19c9 13 14 26 15 39h99c-1 -15 -4 -30 -9 -45
c-6 -16 -15 -30 -28 -43s-29 -23 -50 -31c-21 -9 -46 -13 -76 -13z" />
    <glyph glyph-name="uni041A" unicode="&#x41a;" horiz-adv-x="663" 
d="M89 709h121v-299h61l239 299h149l-282 -343l282 -366h-154l-227 300h-68v-300h-121v709z" />
    <glyph glyph-name="uni041B" unicode="&#x41b;" horiz-adv-x="715" 
d="M505 596h-237l-6 -224c-2 -60 -6 -113 -11 -160s-14 -87 -28 -119c-13 -33 -32 -57 -56 -74s-56 -26 -95 -26c-17 0 -29 1 -38 3c-5 1 -10 3 -13 4v102c2 -1 4 -1 7 -1c3 -1 8 -1 17 -1h7c17 1 31 6 42 17c11 10 20 26 27 48s13 51 17 86c3 35 6 78 7 129l9 329h472v-709
h-121v596z" />
    <glyph glyph-name="uni041C" unicode="&#x41c;" horiz-adv-x="958" 
d="M89 0v709h161l229 -540l226 540h164v-709h-119v521l-220 -521h-105l-219 519v-519h-117z" />
    <glyph glyph-name="uni041D" unicode="&#x41d;" horiz-adv-x="752" 
d="M89 0v709h121v-294h332v294h121v-709h-121v302h-332v-302h-121z" />
    <glyph glyph-name="uni041E" unicode="&#x41e;" horiz-adv-x="809" 
d="M765 355c0 -58 -10 -110 -30 -155c-20 -46 -47 -85 -80 -117c-34 -32 -73 -56 -116 -73s-88 -25 -134 -25c-47 0 -92 8 -135 25s-82 41 -115 73c-34 32 -61 71 -81 117c-20 45 -30 97 -30 155s10 110 30 156c20 45 47 84 81 116c33 31 72 55 115 72s88 25 135 25
c46 0 91 -8 134 -25s82 -41 116 -72c33 -32 60 -71 80 -116c20 -46 30 -98 30 -156zM168 355c0 -43 7 -80 20 -112s31 -58 53 -79c23 -21 48 -37 76 -48c29 -11 58 -16 88 -16s59 5 87 16c29 11 54 27 76 48s40 47 53 79s20 69 20 112s-7 80 -20 112s-31 59 -53 80
s-47 36 -76 47c-28 11 -57 16 -87 16s-59 -5 -88 -16c-28 -11 -53 -26 -76 -47c-22 -21 -40 -48 -53 -80s-20 -69 -20 -112z" />
    <glyph glyph-name="uni041F" unicode="&#x41f;" horiz-adv-x="737" 
d="M89 709h559v-709h-121v596h-317v-596h-121v709z" />
    <glyph glyph-name="uni0420" unicode="&#x420;" horiz-adv-x="605" 
d="M89 0v709h261c34 0 65 -6 93 -17s52 -26 73 -45c20 -19 36 -42 47 -68c11 -27 16 -55 16 -86s-5 -60 -16 -87s-27 -49 -47 -68c-21 -19 -45 -34 -73 -45s-59 -16 -93 -16h-140v-277h-121zM210 383h123c38 0 68 10 91 29c22 19 33 46 33 80s-11 61 -33 80
c-23 20 -53 30 -91 30h-123v-219z" />
    <glyph glyph-name="uni0421" unicode="&#x421;" horiz-adv-x="752" 
d="M724 221c-8 -30 -21 -59 -38 -88c-17 -28 -39 -53 -66 -75s-58 -40 -94 -53c-37 -13 -78 -20 -124 -20c-48 0 -93 8 -136 25s-81 41 -114 72c-33 32 -60 71 -79 116c-19 46 -29 98 -29 156s10 110 30 155c20 46 47 85 80 116c33 32 71 56 114 73s87 26 133 26
c45 0 86 -6 122 -19c36 -12 67 -29 94 -50s49 -45 66 -73s29 -57 37 -88l-113 -38c-5 21 -13 41 -24 60s-25 35 -42 49s-37 25 -60 33s-50 12 -80 12c-29 0 -58 -5 -85 -16c-28 -11 -53 -27 -75 -48s-40 -47 -53 -80c-13 -32 -20 -69 -20 -112c0 -41 7 -78 20 -109
s30 -58 52 -79c21 -21 46 -38 75 -49c28 -11 57 -16 87 -16s57 4 81 13c23 9 44 20 61 35s32 31 43 50s19 38 25 58z" />
    <glyph glyph-name="uni0422" unicode="&#x422;" horiz-adv-x="615" 
d="M247 0v595h-230v114h581v-114h-230v-595h-121z" />
    <glyph glyph-name="uni0423" unicode="&#x423;" horiz-adv-x="636" 
d="M401 206c-17 -35 -33 -66 -48 -93s-32 -50 -50 -68c-19 -18 -40 -31 -63 -40s-51 -14 -83 -14c-17 0 -30 1 -41 4c-11 2 -18 4 -21 5v104c3 -1 8 -2 15 -3c7 -2 18 -3 33 -3c33 0 58 9 76 26s33 39 44 65l-259 520h141l187 -387l173 387h135z" />
    <glyph glyph-name="uni0424" unicode="&#x424;" horiz-adv-x="860" 
d="M369 -12v73c-47 1 -91 9 -131 24s-75 35 -104 61s-52 57 -69 93s-25 77 -25 122c0 44 8 84 25 120s40 67 69 92s64 45 104 60s84 23 131 24v64h122v-64c49 -1 93 -9 134 -24c40 -15 75 -35 104 -61s51 -57 67 -94c16 -36 24 -77 24 -122c0 -44 -8 -84 -25 -119
c-17 -36 -40 -67 -69 -93c-29 -25 -64 -45 -104 -60c-40 -14 -84 -22 -131 -23v-73h-122zM165 361c0 -31 5 -59 16 -82c10 -23 24 -43 42 -59c19 -15 40 -27 65 -35s52 -12 81 -13v373c-29 -1 -56 -5 -81 -13s-46 -20 -65 -35c-18 -15 -32 -34 -42 -57
c-11 -23 -16 -49 -16 -79zM491 172c29 1 56 5 81 13s46 20 65 35c18 15 32 34 43 57s16 49 16 79c0 31 -5 58 -16 81c-11 24 -25 44 -43 59c-19 16 -40 28 -65 36c-25 9 -52 13 -81 14v-374z" />
    <glyph glyph-name="uni0425" unicode="&#x425;" horiz-adv-x="640" 
d="M10 0l237 355l-235 354h145l164 -260l166 260h142l-236 -355l235 -354h-145l-164 259l-167 -259h-142z" />
    <glyph glyph-name="uni0426" unicode="&#x426;" horiz-adv-x="762" 
d="M613 0h-524v709h121v-596h300v596h121v-596h99v-263h-117v150z" />
    <glyph glyph-name="uni0427" unicode="&#x427;" horiz-adv-x="672" 
d="M462 291c-21 -15 -46 -27 -75 -35s-58 -12 -89 -12c-33 0 -65 5 -96 14c-30 9 -57 24 -80 44c-23 21 -42 47 -56 80c-13 33 -20 72 -20 119v208h121v-193c0 -31 4 -56 12 -76c8 -21 19 -37 32 -49c14 -12 30 -20 48 -25c19 -5 38 -8 59 -8c32 0 61 5 86 14
c26 9 45 21 58 35v302h121v-709h-121v291z" />
    <glyph glyph-name="uni0428" unicode="&#x428;" horiz-adv-x="981" 
d="M89 709h121v-596h220v596h121v-596h220v596h121v-709h-803v709z" />
    <glyph glyph-name="uni0429" unicode="&#x429;" horiz-adv-x="1023" 
d="M874 0h-785v709h121v-596h220v596h121v-596h220v596h121v-596h99v-263h-117v150z" />
    <glyph glyph-name="uni042A" unicode="&#x42a;" horiz-adv-x="710" 
d="M190 0v596h-170v113h291v-253h132c35 0 67 -5 96 -16s55 -26 76 -45c21 -20 38 -44 50 -72c11 -29 17 -60 17 -95c0 -33 -6 -63 -17 -90c-12 -28 -28 -52 -49 -72c-21 -21 -45 -37 -74 -48c-29 -12 -61 -18 -96 -18h-256zM311 107h119c39 0 71 11 95 34
c23 22 35 51 35 86s-11 64 -34 88c-23 23 -56 35 -99 35h-116v-243z" />
    <glyph glyph-name="uni042B" unicode="&#x42b;" horiz-adv-x="887" 
d="M675 0v709h123v-709h-123zM89 0v709h121v-253h132c35 0 67 -5 96 -16s55 -26 76 -45c21 -20 38 -44 50 -72c11 -29 17 -60 17 -95c0 -33 -6 -63 -17 -90c-12 -28 -28 -52 -49 -72c-21 -21 -45 -37 -74 -48c-29 -12 -61 -18 -96 -18h-256zM210 107h119c39 0 71 11 95 34
c23 22 35 51 35 86s-11 64 -34 88c-23 23 -56 35 -99 35h-116v-243z" />
    <glyph glyph-name="uni042C" unicode="&#x42c;" horiz-adv-x="609" 
d="M89 0v709h121v-253h132c35 0 67 -5 96 -16s55 -26 76 -45c21 -20 38 -44 50 -72c11 -29 17 -60 17 -95c0 -33 -6 -63 -17 -90c-12 -28 -28 -52 -49 -72c-21 -21 -45 -37 -74 -48c-29 -12 -61 -18 -96 -18h-256zM210 107h119c39 0 71 11 95 34c23 22 35 51 35 86
s-11 64 -34 88c-23 23 -56 35 -99 35h-116v-243z" />
    <glyph glyph-name="uni042D" unicode="&#x42d;" horiz-adv-x="756" 
d="M363 -15c-47 0 -90 6 -128 20c-38 13 -71 30 -99 51s-51 46 -69 74s-31 57 -39 86l110 38c6 -19 15 -38 27 -56c12 -19 27 -35 45 -49c19 -15 41 -26 66 -35s54 -13 87 -13c27 0 52 4 77 13c25 8 48 20 68 37s37 38 50 63c14 25 23 54 26 87h-350v109h350
c-4 34 -13 64 -27 89s-31 46 -52 63c-20 16 -43 28 -68 36s-50 12 -76 12c-31 0 -58 -4 -83 -12c-24 -9 -45 -20 -64 -33c-18 -14 -33 -30 -45 -47s-21 -35 -26 -52l-110 38c8 30 22 58 41 85c20 27 44 50 73 70s62 36 99 48c37 11 77 17 120 17c48 0 93 -8 135 -24
c42 -17 78 -41 109 -72c31 -32 56 -71 74 -117s27 -98 27 -157s-9 -111 -28 -156c-18 -46 -43 -85 -75 -116c-31 -32 -68 -56 -111 -72c-42 -17 -87 -25 -134 -25z" />
    <glyph glyph-name="uni042E" unicode="&#x42e;" horiz-adv-x="1050" 
d="M655 -15c-42 0 -82 7 -121 22c-39 14 -75 35 -106 62c-32 27 -58 60 -79 99s-35 84 -41 134h-98v-302h-121v709h121v-294h99c7 49 21 92 42 131c21 38 48 70 79 97s66 47 105 61c39 13 79 20 120 20c45 0 89 -8 131 -25s79 -41 112 -72s59 -70 78 -116s29 -98 29 -156
c0 -59 -10 -111 -29 -156c-19 -46 -45 -85 -78 -116c-33 -32 -70 -56 -112 -73s-86 -25 -131 -25zM655 100c29 0 57 5 84 16s51 27 72 48s38 47 51 79s19 69 19 112s-6 80 -19 112s-30 59 -51 80s-45 36 -72 47s-55 16 -84 16s-57 -5 -84 -16s-51 -26 -72 -47
s-38 -48 -51 -80s-20 -69 -20 -112s7 -80 20 -112s30 -58 51 -79s45 -37 72 -48s55 -16 84 -16z" />
    <glyph glyph-name="uni042F" unicode="&#x42f;" horiz-adv-x="637" 
d="M34 0l174 285c-25 7 -47 17 -66 30s-35 29 -48 46s-22 37 -29 58s-10 43 -10 66c0 33 6 63 17 90c12 27 28 51 49 71s46 36 75 47s60 16 95 16h257v-709h-121v266h-96l-159 -266h-138zM177 487c0 -35 12 -63 37 -84s56 -31 94 -31h119v230h-121c-41 0 -73 -11 -96 -32
c-22 -22 -33 -50 -33 -83z" />
    <glyph glyph-name="uni0430" unicode="&#x430;" horiz-adv-x="535" 
d="M360 62c-11 -19 -29 -36 -54 -52c-25 -17 -57 -25 -96 -25c-25 0 -48 4 -68 12c-21 8 -38 19 -52 33c-15 13 -26 29 -33 47c-8 17 -12 36 -12 55c0 22 4 41 12 58c7 17 18 31 31 44c13 12 28 22 46 30c17 7 36 13 57 16l126 18c14 2 24 6 29 13c5 6 7 13 7 22
c0 21 -7 38 -22 53c-15 14 -38 21 -70 21c-31 0 -54 -8 -71 -25s-26 -38 -29 -63l-106 24c2 21 8 41 19 60s25 36 42 51c17 14 38 25 63 34c24 9 51 13 81 13c37 0 69 -5 96 -14c26 -10 47 -23 64 -40s29 -36 37 -58c7 -22 11 -45 11 -69v-242c0 -21 1 -38 2 -51
s3 -22 4 -27h-109c-1 5 -2 12 -3 22c-1 9 -2 23 -2 40zM162 139c0 -16 6 -30 18 -43s29 -20 52 -20c16 0 31 2 46 7c15 4 28 11 39 21c11 9 19 22 26 38s10 36 10 60v22l-29 -5l-98 -15c-19 -3 -34 -9 -46 -19c-12 -11 -18 -26 -18 -46z" />
    <glyph glyph-name="uni0431" unicode="&#x431;" horiz-adv-x="603" 
d="M561 239c0 -36 -6 -69 -18 -100c-13 -31 -30 -58 -52 -81c-23 -23 -49 -40 -80 -53s-65 -20 -102 -20c-40 0 -76 7 -107 22s-58 35 -79 62c-25 29 -42 64 -53 105s-17 87 -17 137c0 57 5 107 16 152c10 44 27 82 50 115s54 59 92 79s85 34 141 41c27 4 50 8 69 11
s35 5 48 8c13 2 24 4 33 7c9 2 16 4 22 6v-101c-7 -3 -14 -5 -22 -7c-9 -3 -19 -5 -32 -7c-13 -3 -28 -5 -45 -8c-18 -3 -39 -6 -64 -9c-37 -5 -67 -14 -92 -25c-25 -12 -45 -27 -60 -45c-16 -19 -28 -41 -36 -66c-8 -26 -13 -55 -16 -87c7 17 16 31 28 44
c12 12 26 22 42 31c15 8 32 14 51 19c18 4 37 6 56 6c35 0 66 -6 94 -17c28 -12 52 -28 71 -49c20 -21 35 -46 46 -75s16 -60 16 -95zM176 233c0 -23 4 -43 11 -61s17 -33 29 -45c12 -13 26 -22 42 -28c16 -7 33 -10 51 -10s35 3 52 10c16 6 30 15 43 27s23 27 30 45
s11 39 11 62s-4 44 -11 62s-17 33 -30 45s-27 21 -43 27c-17 6 -34 9 -52 9s-35 -3 -51 -9s-30 -15 -42 -27s-22 -27 -29 -45s-11 -39 -11 -62z" />
    <glyph glyph-name="uni0432" unicode="&#x432;" horiz-adv-x="538" 
d="M72 0v487h252c51 0 90 -12 116 -37c25 -25 38 -56 38 -93c0 -25 -7 -47 -20 -65c-13 -19 -31 -32 -53 -40c25 -6 46 -19 63 -39s25 -45 25 -74c0 -42 -14 -76 -41 -101c-28 -25 -68 -38 -120 -38h-260zM185 91h120c22 0 40 5 53 14c13 10 19 25 19 44c0 18 -6 32 -19 42
s-30 15 -50 15h-123v-115zM185 289h112c22 0 39 5 50 15s17 23 17 39c0 19 -6 32 -18 40c-13 9 -30 13 -52 13h-109v-107z" />
    <glyph glyph-name="uni0433" unicode="&#x433;" horiz-adv-x="418" 
d="M72 487h327v-101h-211v-386h-116v487z" />
    <glyph glyph-name="uni0434" unicode="&#x434;" horiz-adv-x="615" 
d="M22 101h43c15 11 28 32 37 65s15 77 17 134l9 187h374v-386h86v-231h-106v130h-354v-130h-106v231zM387 101v285h-155l-4 -99c-3 -87 -17 -149 -41 -186h200z" />
    <glyph glyph-name="uni0435" unicode="&#x435;" horiz-adv-x="559" 
d="M511 139c-7 -21 -16 -41 -29 -60s-28 -35 -47 -49s-40 -25 -64 -33c-25 -8 -52 -12 -81 -12c-33 0 -65 6 -95 17c-30 12 -56 29 -79 51c-23 23 -41 50 -54 82c-14 32 -21 69 -21 110c0 39 7 74 20 105s30 58 52 81s47 40 76 52c28 13 58 19 89 19c37 0 71 -6 101 -18
c29 -12 54 -29 75 -51c20 -22 35 -49 46 -80s16 -65 16 -104c0 -7 0 -15 -1 -22s-1 -12 -2 -15h-355c1 -19 5 -36 12 -51s16 -29 28 -40s26 -20 42 -26c15 -7 32 -10 50 -10c35 0 63 8 82 25c19 16 32 36 40 60zM279 405c-18 0 -34 -3 -48 -10c-15 -6 -27 -14 -37 -25
c-10 -10 -18 -22 -23 -35c-6 -13 -9 -25 -10 -38h238c-1 14 -3 27 -8 40s-13 25 -23 35s-22 18 -37 24s-32 9 -52 9z" />
    <glyph glyph-name="uni0436" unicode="&#x436;" horiz-adv-x="791" 
d="M197 253l-182 234h139l143 -191h42v191h114v-191h44l142 191h137l-180 -230l178 -257h-139l-135 197h-47v-197h-114v197h-47l-137 -197h-137z" />
    <glyph glyph-name="uni0437" unicode="&#x437;" horiz-adv-x="499" 
d="M250 -15c-34 0 -64 5 -90 14s-48 21 -66 35s-32 29 -42 45s-16 31 -19 45l102 33c1 -8 5 -16 10 -25s13 -17 22 -24c10 -7 22 -14 35 -19c14 -5 30 -7 48 -7c9 0 19 1 30 3s21 5 30 10s17 11 23 18c6 8 9 18 9 30c0 21 -8 36 -25 45c-16 9 -36 13 -60 13h-75v92h74
c26 0 45 5 57 15c13 11 19 23 19 38c0 21 -9 36 -26 45c-17 10 -38 15 -61 15c-32 0 -57 -7 -75 -22s-29 -32 -32 -51l-102 26c4 20 12 39 24 56c11 18 26 33 45 46s40 23 65 30c24 7 51 11 80 11c60 0 108 -12 143 -37s52 -59 52 -102c0 -23 -7 -46 -22 -68
s-38 -37 -70 -44c31 -5 56 -18 75 -39s28 -47 28 -77c0 -20 -4 -39 -13 -57c-9 -19 -22 -35 -39 -48c-17 -14 -39 -25 -64 -33c-26 -8 -56 -12 -90 -12z" />
    <glyph glyph-name="uni0438" unicode="&#x438;" horiz-adv-x="583" 
d="M72 487h115v-312l212 312h112v-487h-115v312l-212 -312h-112v487z" />
    <glyph glyph-name="uni0439" unicode="&#x439;" horiz-adv-x="583" 
d="M72 487h115v-312l212 312h112v-487h-115v312l-212 -312h-112v487zM292 551c-25 0 -48 4 -68 12c-19 7 -36 18 -50 31c-13 13 -24 28 -31 46c-7 17 -11 36 -12 55h95c1 -21 7 -38 18 -50s27 -18 48 -18c20 0 35 6 46 18s16 29 17 50h94c-1 -19 -5 -38 -12 -55
c-7 -18 -17 -33 -30 -46s-30 -24 -49 -31c-19 -8 -41 -12 -66 -12z" />
    <glyph glyph-name="uni043A" unicode="&#x43a;" horiz-adv-x="539" 
d="M72 487h115v-197h43l153 197h141l-189 -231l190 -256h-147l-146 205h-45v-205h-115v487z" />
    <glyph glyph-name="uni043B" unicode="&#x43b;" horiz-adv-x="559" 
d="M487 0h-116v386h-140l-5 -106c-1 -45 -4 -85 -9 -120c-5 -36 -13 -66 -24 -91s-26 -43 -45 -56c-19 -14 -44 -20 -74 -20c-15 0 -26 1 -34 3c-9 3 -13 4 -12 4v93c1 -1 2 -1 4 -1c2 -1 7 -1 14 -1h8c23 1 39 17 48 50c8 32 13 79 16 142l7 204h362v-487z" />
    <glyph glyph-name="uni043C" unicode="&#x43c;" horiz-adv-x="753" 
d="M72 0v487h160l145 -348l146 348h158v-487h-114v348l-147 -348h-90l-148 348v-348h-110z" />
    <glyph glyph-name="uni043D" unicode="&#x43d;" horiz-adv-x="573" 
d="M72 487h116v-185h197v185h116v-487h-116v201h-197v-201h-116v487z" />
    <glyph glyph-name="uni043E" unicode="&#x43e;" horiz-adv-x="587" 
d="M546 244c0 -37 -6 -72 -19 -103c-13 -32 -30 -59 -53 -82s-49 -41 -80 -54c-31 -14 -64 -20 -101 -20c-36 0 -70 6 -101 20c-31 13 -57 31 -80 54c-22 23 -39 50 -52 82c-13 31 -19 66 -19 103s6 72 19 103s30 58 52 81c23 23 49 41 80 54s65 20 101 20
c37 0 70 -7 101 -20s57 -31 80 -54s40 -50 53 -81s19 -66 19 -103zM158 244c0 -25 4 -47 11 -66s17 -35 30 -48s27 -23 43 -30s33 -10 51 -10s35 3 52 10c16 7 30 17 43 30s23 29 30 48s11 41 11 66s-4 48 -11 67s-17 35 -30 48s-27 22 -43 29c-17 6 -34 9 -52 9
s-35 -3 -51 -9c-16 -7 -30 -16 -43 -29s-23 -29 -30 -48s-11 -42 -11 -67z" />
    <glyph glyph-name="uni043F" unicode="&#x43f;" horiz-adv-x="564" 
d="M72 487h420v-487h-117v386h-186v-386h-117v487z" />
    <glyph glyph-name="uni0440" unicode="&#x440;" horiz-adv-x="606" 
d="M72 -190v677h112v-66c12 21 31 40 58 55s60 22 98 22c36 0 68 -6 95 -19c28 -13 51 -31 70 -54s34 -49 44 -80s15 -65 15 -101c0 -37 -5 -70 -16 -101s-26 -58 -46 -81c-19 -23 -43 -41 -72 -54c-28 -14 -60 -20 -95 -20s-66 6 -91 20c-25 13 -44 28 -57 47v-245h-115z
M186 244c0 -23 3 -44 10 -63s16 -35 27 -48c12 -13 26 -24 42 -31s33 -11 52 -11c39 0 70 14 94 41c25 28 37 65 37 112c0 46 -12 83 -36 110s-56 41 -95 41c-38 0 -69 -14 -94 -41s-37 -64 -37 -110z" />
    <glyph glyph-name="uni0441" unicode="&#x441;" horiz-adv-x="550" 
d="M517 144c-5 -19 -14 -38 -26 -57s-27 -36 -46 -51s-41 -28 -66 -37s-54 -14 -86 -14c-36 0 -69 6 -100 19s-57 31 -80 54c-22 23 -40 51 -53 82c-13 32 -19 67 -19 104c0 38 6 73 19 104c13 32 30 59 53 82s49 40 79 53s63 19 98 19c33 0 62 -5 88 -14
c25 -9 47 -21 66 -36c18 -15 33 -33 45 -52c11 -19 20 -39 25 -59l-105 -37c-3 11 -7 22 -12 33c-6 11 -14 20 -24 29c-9 9 -21 16 -34 21s-29 8 -48 8c-18 0 -35 -3 -51 -9c-16 -7 -30 -16 -43 -29c-12 -13 -22 -28 -29 -47s-11 -41 -11 -66s4 -46 11 -65s17 -35 29 -48
c13 -13 27 -22 44 -29s34 -10 52 -10c19 0 36 3 50 9c15 5 27 13 36 22c10 9 18 18 23 29c6 11 10 21 13 30z" />
    <glyph glyph-name="uni0442" unicode="&#x442;" horiz-adv-x="486" 
d="M185 386h-165v101h446v-101h-165v-386h-116v386z" />
    <glyph glyph-name="uni0443" unicode="&#x443;" horiz-adv-x="553" 
d="M107 -197l117 255l-208 429h132l139 -307l131 307h124l-310 -684h-125z" />
    <glyph glyph-name="uni0444" unicode="&#x444;" horiz-adv-x="742" 
d="M313 -191v177c-39 1 -75 8 -108 21s-62 30 -86 53c-25 22 -44 49 -58 80s-21 65 -21 103c0 39 7 74 21 105s33 58 58 81c24 22 53 39 86 52c33 12 69 19 108 20v182h114v-182c40 -1 77 -8 111 -21c33 -13 62 -30 86 -52c24 -23 43 -50 57 -81c13 -31 20 -66 20 -105
c0 -38 -7 -72 -20 -103c-14 -31 -33 -58 -57 -80c-24 -23 -53 -40 -86 -53c-34 -13 -71 -19 -111 -20v-177h-114zM157 243c0 -26 4 -48 13 -67s20 -34 35 -47s31 -22 50 -28c19 -7 38 -10 58 -11v308c-20 -1 -39 -5 -58 -11s-36 -15 -50 -27c-15 -13 -26 -29 -35 -48
s-13 -42 -13 -69zM427 90c21 1 41 4 60 10s36 15 50 28c15 12 26 28 34 47c9 19 13 41 13 67c0 27 -4 50 -12 69s-19 35 -34 48c-14 13 -31 22 -50 29c-19 6 -39 9 -61 10v-308z" />
    <glyph glyph-name="uni0445" unicode="&#x445;" horiz-adv-x="522" 
d="M16 0l175 246l-173 241h139l107 -156l105 156h133l-171 -239l177 -248h-138l-111 163l-111 -163h-132z" />
    <glyph glyph-name="uni0446" unicode="&#x446;" horiz-adv-x="603" 
d="M470 0h-398v487h116v-386h186v386h116v-386h86v-231h-106v130z" />
    <glyph glyph-name="uni0447" unicode="&#x447;" horiz-adv-x="534" 
d="M346 190c-13 -9 -29 -17 -48 -24s-43 -10 -71 -10c-27 0 -52 4 -75 12c-23 9 -43 21 -60 37c-17 17 -31 37 -40 61s-14 52 -14 84v137h116v-121c0 -31 8 -56 23 -75s40 -28 74 -28c14 0 26 1 37 3c11 3 20 6 27 9c7 4 14 8 19 11c5 4 9 7 12 10v191h116v-487h-116v190z
" />
    <glyph glyph-name="uni0448" unicode="&#x448;" horiz-adv-x="802" 
d="M72 487h116v-386h155v386h116v-386h155v386h116v-487h-658v487z" />
    <glyph glyph-name="uni0449" unicode="&#x449;" horiz-adv-x="841" 
d="M704 0h-632v487h116v-386h155v386h116v-386h155v386h116v-386h80v-231h-106v130z" />
    <glyph glyph-name="uni044A" unicode="&#x44a;" horiz-adv-x="575" 
d="M148 388h-126v99h242v-150h96c57 0 103 -15 137 -45c33 -30 50 -71 50 -123c0 -25 -4 -48 -13 -69s-22 -39 -38 -54c-17 -15 -36 -26 -59 -34s-49 -12 -77 -12h-212v388zM344 98c29 0 51 6 65 19s21 30 21 51c0 23 -7 40 -21 53s-36 19 -65 19h-80v-142h80z" />
    <glyph glyph-name="uni044B" unicode="&#x44b;" horiz-adv-x="711" 
d="M523 487h116v-487h-116v487zM72 487h116v-150h96c57 0 103 -15 137 -45c33 -30 50 -71 50 -123c0 -25 -4 -48 -13 -69s-22 -39 -38 -54c-17 -15 -36 -26 -59 -34s-49 -12 -77 -12h-212v487zM268 98c29 0 51 6 65 19s21 30 21 51c0 23 -7 40 -21 53s-36 19 -65 19h-80
v-142h80z" />
    <glyph glyph-name="uni044C" unicode="&#x44c;" horiz-adv-x="499" 
d="M72 487h116v-150h96c57 0 103 -15 137 -45c33 -30 50 -71 50 -123c0 -25 -4 -48 -13 -69s-22 -39 -38 -54c-17 -15 -36 -26 -59 -34s-49 -12 -77 -12h-212v487zM268 98c29 0 51 6 65 19s21 30 21 51c0 23 -7 40 -21 53s-36 19 -65 19h-80v-142h80z" />
    <glyph glyph-name="uni044D" unicode="&#x44d;" horiz-adv-x="550" 
d="M261 -15c-32 0 -61 5 -87 14s-49 21 -68 36s-35 31 -48 49c-12 19 -21 37 -26 55l98 38c3 -8 7 -17 13 -28c7 -10 15 -19 26 -28s24 -16 39 -22s33 -9 54 -9c16 0 31 2 46 7s28 13 39 22c11 10 20 22 27 36s12 30 13 48h-188v91h186c-4 34 -18 60 -42 77
c-23 17 -50 26 -80 26c-19 0 -36 -3 -51 -9c-15 -5 -27 -12 -38 -21c-10 -8 -18 -17 -24 -27c-7 -11 -11 -21 -14 -30l-100 38c5 18 13 36 25 55c12 18 28 34 47 49s41 27 67 36s55 14 88 14c36 0 69 -6 99 -18s56 -29 78 -51c21 -23 38 -50 50 -81c12 -32 18 -68 18 -108
c0 -38 -6 -73 -18 -105c-13 -32 -30 -59 -51 -82c-22 -23 -48 -40 -78 -53c-31 -13 -64 -19 -100 -19z" />
    <glyph glyph-name="uni044E" unicode="&#x44e;" horiz-adv-x="783" 
d="M498 -15c-32 0 -62 5 -89 16s-51 25 -72 44s-39 42 -52 68c-14 27 -23 56 -28 88h-69v-201h-116v487h116v-185h71c6 29 16 56 31 81c14 25 31 46 52 63c21 18 44 32 71 41c26 10 54 15 85 15c35 0 68 -7 98 -20c29 -13 55 -31 77 -54c21 -23 38 -50 51 -81
c12 -31 18 -66 18 -103s-6 -72 -18 -103c-13 -32 -30 -59 -51 -82c-22 -23 -48 -41 -77 -54c-30 -14 -63 -20 -98 -20zM498 90c17 0 33 3 48 9c15 7 29 16 41 29c11 13 21 29 28 48s10 42 10 68c0 25 -3 48 -10 67s-17 35 -28 48c-12 13 -26 22 -41 28c-15 7 -31 10 -48 10
s-33 -3 -48 -10c-15 -6 -29 -15 -41 -28s-21 -29 -28 -48s-11 -42 -11 -67s4 -48 11 -67s16 -36 28 -49s26 -22 41 -29c15 -6 31 -9 48 -9z" />
    <glyph glyph-name="uni044F" unicode="&#x44f;" horiz-adv-x="530" 
d="M158 176c-29 9 -54 25 -75 49s-32 56 -32 95c0 27 5 51 15 72s24 38 42 52c17 14 38 25 61 32s48 11 75 11h214v-487h-116v159h-68l-106 -159h-135zM342 249v141h-94c-27 0 -47 -7 -60 -21c-13 -15 -20 -32 -20 -51c0 -21 7 -37 20 -50s34 -19 62 -19h92z" />
    <glyph glyph-name="uni0450" unicode="&#x450;" horiz-adv-x="559" 
d="M511 139c-7 -21 -16 -41 -29 -60s-28 -35 -47 -49s-40 -25 -64 -33c-25 -8 -52 -12 -81 -12c-33 0 -65 6 -95 17c-30 12 -56 29 -79 51c-23 23 -41 50 -54 82c-14 32 -21 69 -21 110c0 39 7 74 20 105s30 58 52 81s47 40 76 52c28 13 58 19 89 19c37 0 71 -6 101 -18
c29 -12 54 -29 75 -51c20 -22 35 -49 46 -80s16 -65 16 -104c0 -7 0 -15 -1 -22s-1 -12 -2 -15h-355c1 -19 5 -36 12 -51s16 -29 28 -40s26 -20 42 -26c15 -7 32 -10 50 -10c35 0 63 8 82 25c19 16 32 36 40 60zM279 405c-18 0 -34 -3 -48 -10c-15 -6 -27 -14 -37 -25
c-10 -10 -18 -22 -23 -35c-6 -13 -9 -25 -10 -38h238c-1 14 -3 27 -8 40s-13 25 -23 35s-22 18 -37 24s-32 9 -52 9zM253 548l-132 148h139l89 -148h-96z" />
    <glyph glyph-name="uni0451" unicode="&#x451;" horiz-adv-x="559" 
d="M511 139c-7 -21 -16 -41 -29 -60s-28 -35 -47 -49s-40 -25 -64 -33c-25 -8 -52 -12 -81 -12c-33 0 -65 6 -95 17c-30 12 -56 29 -79 51c-23 23 -41 50 -54 82c-14 32 -21 69 -21 110c0 39 7 74 20 105s30 58 52 81s47 40 76 52c28 13 58 19 89 19c37 0 71 -6 101 -18
c29 -12 54 -29 75 -51c20 -22 35 -49 46 -80s16 -65 16 -104c0 -7 0 -15 -1 -22s-1 -12 -2 -15h-355c1 -19 5 -36 12 -51s16 -29 28 -40s26 -20 42 -26c15 -7 32 -10 50 -10c35 0 63 8 82 25c19 16 32 36 40 60zM279 405c-18 0 -34 -3 -48 -10c-15 -6 -27 -14 -37 -25
c-10 -10 -18 -22 -23 -35c-6 -13 -9 -25 -10 -38h238c-1 14 -3 27 -8 40s-13 25 -23 35s-22 18 -37 24s-32 9 -52 9zM453 625c0 -19 -6 -34 -19 -47c-13 -12 -28 -18 -46 -18c-19 0 -34 6 -46 18c-13 13 -19 28 -19 47c0 18 6 33 19 46c12 13 27 19 46 19c18 0 33 -6 46 -19
s19 -28 19 -46zM253 625c0 -19 -6 -34 -19 -47c-13 -12 -28 -18 -47 -18c-18 0 -33 6 -45 18c-13 13 -19 28 -19 47c0 18 6 33 19 46c12 13 27 19 45 19c19 0 34 -6 47 -19s19 -28 19 -46z" />
    <glyph glyph-name="uni0452" unicode="&#x452;" horiz-adv-x="572" 
d="M72 0v554h-83v87h83v83h116v-83h116v-87h-116v-114c17 22 39 38 64 47s50 14 75 14c30 0 56 -5 79 -15c22 -10 40 -24 55 -41c15 -18 26 -39 33 -62s11 -48 11 -75v-356c0 -46 -13 -84 -38 -113c-26 -29 -62 -44 -107 -44c-21 0 -37 1 -46 4c-10 3 -17 5 -20 6v96
c3 -1 7 -1 13 -2s13 -2 22 -2c22 0 38 6 47 17s13 27 13 46v328c0 30 -7 56 -22 77s-41 31 -78 31c-32 0 -56 -10 -73 -31s-27 -48 -28 -79v-286h-116z" />
    <glyph glyph-name="uni0453" unicode="&#x453;" horiz-adv-x="418" 
d="M169 548l89 148h138l-132 -148h-95zM72 487h327v-101h-211v-386h-116v487z" />
    <glyph glyph-name="uni0454" unicode="&#x454;" horiz-adv-x="551" 
d="M293 -15c-36 0 -70 7 -101 20s-57 31 -80 54c-22 23 -39 50 -52 82c-13 31 -19 66 -19 103c0 38 6 73 19 105c13 31 30 58 53 81s49 40 79 53s63 19 98 19c33 0 62 -4 87 -13c26 -9 48 -21 67 -36s34 -31 46 -50c11 -19 20 -38 25 -57l-105 -38c-3 10 -7 20 -13 31
c-6 10 -14 19 -23 28c-10 8 -22 15 -36 20s-30 8 -49 8c-29 0 -56 -8 -80 -25c-25 -17 -40 -44 -47 -79h191v-89h-193c5 -35 21 -62 46 -81s53 -29 84 -29c20 0 37 3 52 9c15 5 27 12 37 21c10 8 18 17 24 27s10 20 13 29l103 -38c-6 -19 -15 -37 -27 -55
c-12 -19 -27 -35 -46 -50s-41 -27 -66 -36c-26 -9 -55 -14 -87 -14z" />
    <glyph glyph-name="uni0455" unicode="&#x455;" horiz-adv-x="465" 
d="M422 141c0 -19 -4 -37 -11 -55c-8 -19 -19 -35 -34 -50s-35 -28 -58 -37s-50 -14 -81 -14c-35 0 -65 5 -90 15s-45 23 -61 38s-28 30 -36 47s-13 32 -14 46l101 27c3 -22 12 -41 28 -57s40 -24 71 -24c24 0 42 6 55 17c12 11 18 24 18 39c0 13 -5 25 -14 34
s-24 16 -43 20l-72 16c-44 9 -77 27 -98 52c-22 25 -33 55 -33 90c0 21 5 42 14 61s22 35 38 50c16 14 35 25 57 33c21 9 45 13 70 13c34 0 63 -5 86 -15c23 -9 42 -21 57 -35c14 -14 25 -29 32 -45c7 -15 12 -29 14 -41l-100 -28c-1 7 -3 14 -6 23s-8 17 -15 24
s-16 14 -27 19s-25 7 -41 7c-20 0 -37 -5 -50 -16s-20 -25 -20 -40c0 -27 16 -44 49 -50l74 -16c47 -10 82 -28 105 -54c23 -27 35 -58 35 -94z" />
    <glyph glyph-name="uni0456" unicode="&#x456;" horiz-adv-x="259" 
d="M72 0v487h115v-487h-115zM205 658c0 -21 -7 -39 -22 -54s-33 -22 -54 -22s-38 7 -53 22s-22 33 -22 54s7 39 22 54s32 22 53 22s39 -7 54 -22s22 -33 22 -54z" />
    <glyph glyph-name="uni0457" unicode="&#x457;" horiz-adv-x="260" 
d="M49 585c-19 0 -35 7 -48 21s-19 31 -19 52s6 38 19 52s29 21 48 21s35 -7 48 -21s19 -31 19 -52s-6 -38 -19 -52s-29 -21 -48 -21zM72 487h116v-487h-116v487zM212 585c-19 0 -35 7 -48 21s-19 31 -19 52s6 38 19 52s29 21 48 21s35 -7 48 -21s19 -31 19 -52
s-6 -38 -19 -52s-29 -21 -48 -21z" />
    <glyph glyph-name="uni0458" unicode="&#x458;" horiz-adv-x="260" 
d="M188 -48c0 -46 -13 -84 -38 -113c-26 -29 -62 -44 -107 -44c-21 0 -37 1 -47 4c-9 3 -16 5 -19 6v96c3 -1 7 -1 13 -2s13 -2 22 -2c22 0 38 6 47 17s13 27 13 46v527h116v-535zM205 659c0 -21 -7 -39 -22 -53c-15 -15 -33 -22 -54 -22s-38 7 -53 22c-15 14 -22 32 -22 53
s7 39 22 54s32 22 53 22s39 -7 54 -22s22 -33 22 -54z" />
    <glyph glyph-name="uni0459" unicode="&#x459;" horiz-adv-x="783" 
d="M356 386h-125l-5 -106c-1 -45 -4 -85 -9 -120c-5 -36 -13 -66 -24 -91s-26 -43 -45 -56c-19 -14 -44 -20 -74 -20c-15 0 -26 1 -34 3c-9 3 -13 4 -12 4v93c1 -1 2 -1 4 -1c2 -1 7 -1 14 -1h8c23 1 39 17 48 50c8 32 13 79 16 142l7 204h347v-150h96c57 0 103 -15 137 -45
c33 -30 50 -71 50 -123c0 -25 -4 -48 -13 -69s-22 -39 -38 -54c-17 -15 -36 -26 -59 -34s-49 -12 -77 -12h-212v386zM552 98c29 0 51 6 65 19s21 30 21 51c0 23 -7 40 -21 53s-36 19 -65 19h-80v-142h80z" />
    <glyph glyph-name="uni045A" unicode="&#x45a;" horiz-adv-x="797" 
d="M72 487h116v-169h191v169h116v-169h91c57 0 102 -14 135 -43s49 -67 49 -116c0 -48 -17 -86 -50 -115s-78 -44 -134 -44h-207v216h-191v-216h-116v487zM574 96c28 0 48 6 61 17c12 11 18 26 18 45c0 20 -6 36 -18 47c-13 11 -33 17 -61 17h-79v-126h79z" />
    <glyph glyph-name="uni045B" unicode="&#x45b;" horiz-adv-x="572" 
d="M72 0v554h-83v87h83v83h116v-83h116v-87h-116v-114c17 22 39 38 64 47s50 14 75 14c30 0 56 -5 79 -15c22 -10 40 -24 55 -41c15 -18 26 -39 33 -62s11 -48 11 -75v-308h-116v288c0 30 -7 56 -22 77s-41 31 -78 31c-32 0 -56 -10 -73 -31s-27 -48 -28 -79v-286h-116z" />
    <glyph glyph-name="uni045C" unicode="&#x45c;" horiz-adv-x="539" 
d="M72 487h115v-197h43l153 197h141l-189 -231l190 -256h-147l-146 205h-45v-205h-115v487zM227 548l89 148h138l-132 -148h-95z" />
    <glyph glyph-name="uni045D" unicode="&#x45d;" horiz-adv-x="583" 
d="M72 487h115v-312l212 312h112v-487h-115v312l-212 -312h-112v487zM253 548l-132 148h139l89 -148h-96z" />
    <glyph glyph-name="uni045E" unicode="&#x45e;" horiz-adv-x="553" 
d="M107 -197l117 255l-208 429h132l139 -307l131 307h124l-310 -684h-125zM296 551c-25 0 -48 4 -68 12c-19 7 -36 18 -50 31c-13 13 -24 28 -31 46c-7 17 -11 36 -12 55h95c1 -21 7 -38 18 -50s27 -18 48 -18c20 0 35 6 46 18s16 29 17 50h94c-1 -19 -5 -38 -12 -55
c-7 -18 -17 -33 -30 -46s-30 -24 -49 -31c-19 -8 -41 -12 -66 -12z" />
    <glyph glyph-name="uni045F" unicode="&#x45f;" horiz-adv-x="563" 
d="M228 0h-156v487h116v-386h187v386h116v-487h-157v-130h-106v130z" />
    <glyph glyph-name="uni0462" unicode="&#x462;" horiz-adv-x="729" 
d="M560 516h-230v-88h137c34 0 65 -5 94 -15s53 -24 74 -42c21 -19 37 -41 48 -68c12 -27 18 -56 18 -89c0 -31 -6 -59 -17 -85s-27 -48 -48 -67c-20 -19 -44 -34 -72 -45c-29 -11 -60 -17 -94 -17h-261v516h-184v93h184v100h121v-100h230v-93zM330 107h124c38 0 68 9 91 28
c23 18 34 44 34 79c0 34 -11 61 -33 80s-54 28 -95 28h-121v-215z" />
    <glyph glyph-name="uni0463" unicode="&#x463;" horiz-adv-x="591" 
d="M156 400h-137v87h137v237h116v-237h171v-87h-171v-83h102c55 0 99 -14 132 -42c32 -29 48 -67 48 -116s-16 -87 -49 -116s-76 -43 -131 -43h-218v400zM361 98c25 0 45 5 58 16s19 25 19 44s-6 35 -19 46s-33 16 -58 16h-89v-122h89z" />
    <glyph glyph-name="uni0472" unicode="&#x472;" horiz-adv-x="809" 
d="M765 355c0 -58 -10 -110 -30 -155c-20 -46 -47 -85 -80 -117c-34 -32 -73 -56 -116 -73s-88 -25 -134 -25c-47 0 -92 8 -135 25s-82 41 -115 73c-34 32 -61 71 -81 117c-20 45 -30 97 -30 155s10 110 30 156c20 45 47 84 81 116c33 31 72 55 115 72s88 25 135 25
c46 0 91 -8 134 -25s82 -41 116 -72c33 -32 60 -71 80 -116c20 -46 30 -98 30 -156zM277 330c-23 0 -44 -3 -62 -9c-18 -7 -33 -18 -44 -35c7 -32 18 -60 33 -83c15 -24 34 -44 55 -60s44 -28 69 -35c25 -8 51 -12 77 -12c29 0 57 5 84 15c27 9 52 24 74 43s40 43 55 72
c14 29 23 63 26 102c-27 -34 -68 -51 -123 -51c-27 0 -50 3 -69 9c-20 5 -39 11 -56 18c-17 6 -35 12 -54 18c-19 5 -40 8 -65 8zM534 388c23 0 43 3 60 8s32 16 43 31c-7 31 -19 59 -34 82s-33 43 -54 59c-21 15 -43 27 -68 35c-25 7 -50 11 -76 11c-29 0 -56 -5 -83 -14
s-52 -23 -74 -42s-40 -42 -55 -70s-24 -61 -28 -99c13 15 30 28 51 37s44 14 71 14c25 0 47 -3 67 -8s39 -11 58 -18s38 -13 57 -18s41 -8 65 -8z" />
    <glyph glyph-name="uni0473" unicode="&#x473;" horiz-adv-x="587" 
d="M293 -15c-36 0 -69 6 -100 20c-31 13 -58 31 -80 54c-23 23 -40 50 -53 82c-13 31 -19 66 -19 103s6 72 19 103s30 58 53 81c22 23 49 41 80 54s64 20 100 20c37 0 70 -7 101 -20s57 -31 80 -54s40 -50 53 -81s19 -66 19 -103s-6 -72 -19 -103c-13 -32 -30 -59 -53 -82
s-49 -41 -80 -54c-31 -14 -64 -20 -101 -20zM293 86c17 0 33 3 48 8s29 14 42 25s23 24 32 40c8 16 13 35 16 56c-17 -18 -41 -27 -71 -27c-15 0 -27 1 -38 4s-21 6 -30 9s-19 6 -28 9s-20 4 -32 4c-33 0 -56 -8 -71 -24c9 -34 26 -60 51 -77c24 -18 51 -27 81 -27zM155 271
c17 23 43 34 77 34c13 0 24 -1 35 -4l30 -9c9 -3 19 -6 30 -9c10 -3 21 -4 33 -4c28 0 50 6 66 19c-9 34 -26 60 -51 77s-52 26 -82 26c-17 0 -33 -3 -48 -8s-29 -14 -41 -25c-13 -11 -23 -24 -32 -41c-9 -16 -14 -35 -17 -56z" />
    <glyph glyph-name="uni0474" unicode="&#x474;" horiz-adv-x="713" 
d="M503 602c14 39 33 68 57 88c24 19 57 29 99 29c8 0 15 0 21 -1s11 -2 16 -3s10 -2 14 -3v-102c-2 0 -4 0 -7 1c-2 0 -4 0 -7 1h-10h-7c-15 -1 -29 -6 -40 -15c-12 -9 -22 -24 -30 -45l-209 -552h-122l-264 709h131l197 -551z" />
    <glyph glyph-name="uni0475" unicode="&#x475;" horiz-adv-x="555" 
d="M367 394c12 34 28 60 47 77s45 26 78 26c17 0 29 -1 38 -3c8 -2 12 -3 11 -3v-94c-1 0 -2 0 -4 1c-1 0 -3 0 -5 1h-9h-7c-11 0 -19 -3 -26 -10s-13 -17 -18 -32l-140 -357h-117l-198 487h128l129 -347z" />
    <glyph glyph-name="uni0490" unicode="&#x490;" horiz-adv-x="534" 
d="M89 709h310v150h118v-263h-307v-596h-121v709z" />
    <glyph glyph-name="uni0491" unicode="&#x491;" horiz-adv-x="418" 
d="M72 487h218v130h109v-231h-211v-386h-116v487z" />
    <glyph glyph-name="uni0492" unicode="&#x492;" horiz-adv-x="555" 
d="M109 319h-91v93h91v297h428v-113h-307v-184h146v-93h-146v-319h-121v319z" />
    <glyph glyph-name="uni0493" unicode="&#x493;" horiz-adv-x="451" 
d="M104 192h-81v87h81v208h327v-101h-211v-107h115v-87h-115v-192h-116v192z" />
    <glyph glyph-name="uni049A" unicode="&#x49a;" horiz-adv-x="690" 
d="M89 709h121v-299h61l239 299h149l-282 -343l195 -253h98v-263h-117v150h-48l-227 300h-68v-300h-121v709z" />
    <glyph glyph-name="uni049B" unicode="&#x49b;" horiz-adv-x="566" 
d="M72 487h115v-197h43l153 197h141l-189 -231l115 -155h88v-231h-106v130h-54l-146 205h-45v-205h-115v487z" />
    <glyph glyph-name="uni04A2" unicode="&#x4a2;" horiz-adv-x="794" 
d="M89 0v709h121v-294h332v294h121v-596h99v-263h-118v150h-102v302h-332v-302h-121z" />
    <glyph glyph-name="uni04A3" unicode="&#x4a3;" horiz-adv-x="614" 
d="M481 0h-96v201h-197v-201h-116v487h116v-185h197v185h116v-386h86v-231h-106v130z" />
    <glyph glyph-name="uni04AE" unicode="&#x4ae;" horiz-adv-x="658" 
d="M268 0v300l-248 409h143l170 -296l170 296h136l-250 -409v-300h-121z" />
    <glyph glyph-name="uni04AF" unicode="&#x4af;" horiz-adv-x="542" 
d="M216 0l-199 487h129l128 -347l126 347h124l-191 -487v-191h-117v191z" />
    <glyph glyph-name="uni04B0" unicode="&#x4b0;" horiz-adv-x="656" 
d="M267 0v232h-140v93h125l-233 384h143l170 -296l170 296h136l-235 -384h126v-93h-141v-232h-121z" />
    <glyph glyph-name="uni04B1" unicode="&#x4b1;" horiz-adv-x="542" 
d="M216 -87h-133v87h133l-199 487h129l128 -347l126 347h124l-191 -487h133v-87h-133v-104h-117v104z" />
    <glyph glyph-name="uni04B2" unicode="&#x4b2;" horiz-adv-x="673" 
d="M10 0l237 355l-235 354h145l164 -260l166 260h142l-236 -355l160 -241h99v-263h-118v150h-52v1l-163 258l-167 -259h-142z" />
    <glyph glyph-name="uni04B3" unicode="&#x4b3;" horiz-adv-x="554" 
d="M16 0l175 246l-173 241h139l107 -156l105 156h133l-171 -239l105 -147h91v-231h-106v130h-51l-111 163l-111 -163h-132z" />
    <glyph glyph-name="uni04BA" unicode="&#x4ba;" horiz-adv-x="672" 
d="M210 418c21 15 46 27 75 35s58 12 89 12c33 0 65 -5 96 -14c30 -9 57 -24 80 -45s42 -47 56 -79c13 -33 20 -72 20 -119v-208h-121v193c0 31 -4 56 -12 77c-8 20 -19 36 -32 48c-14 12 -30 21 -48 26c-19 5 -38 7 -59 7c-32 0 -61 -5 -86 -14c-26 -9 -45 -21 -58 -35
v-302h-121v709h121v-291z" />
    <glyph glyph-name="uni04BB" unicode="&#x4bb;" horiz-adv-x="572" 
d="M72 0v724h116v-284c17 22 39 38 64 47s50 14 75 14c30 0 56 -5 79 -15c22 -10 40 -24 55 -41c15 -18 26 -39 33 -62s11 -48 11 -75v-308h-116v288c0 30 -7 56 -22 77s-41 31 -78 31c-32 0 -57 -11 -74 -32c-18 -22 -27 -48 -27 -79v-285h-116z" />
    <glyph glyph-name="uni04D8" unicode="&#x4d8;" horiz-adv-x="778" 
d="M732 360c0 -58 -9 -110 -27 -156c-17 -46 -42 -85 -73 -118s-68 -58 -110 -75c-43 -17 -89 -26 -138 -26c-45 0 -88 8 -129 24c-41 15 -78 39 -109 70s-56 70 -75 117s-28 101 -28 163c0 3 0 6 1 11v10h564c-1 39 -7 74 -20 103s-29 53 -49 72c-21 19 -44 34 -69 43
c-26 9 -52 14 -79 14c-31 0 -60 -4 -85 -12s-47 -18 -66 -31s-34 -29 -46 -46s-21 -35 -27 -54l-112 40c9 28 22 55 41 81c19 25 42 48 70 68s61 36 98 48s80 18 127 18c46 0 90 -7 131 -22s78 -38 109 -68c31 -31 55 -69 74 -114c18 -46 27 -99 27 -160zM179 277
c2 -27 9 -52 20 -74c11 -23 26 -42 45 -58c18 -16 39 -28 64 -37c24 -9 50 -13 78 -13c25 0 50 4 73 11s44 18 63 33s36 34 49 57c14 23 24 50 29 81h-421z" />
    <glyph glyph-name="uni04D9" unicode="&#x4d9;" horiz-adv-x="558" 
d="M516 242c0 -39 -6 -75 -19 -106s-31 -58 -52 -81c-22 -23 -47 -40 -75 -52c-29 -12 -58 -18 -89 -18c-37 0 -71 6 -100 18c-30 13 -55 30 -76 52c-21 23 -36 49 -47 80s-16 66 -16 103c0 8 0 15 1 22c0 7 0 12 1 15h358c0 38 -12 69 -36 92s-54 35 -91 35
c-35 0 -64 -8 -85 -25c-21 -16 -36 -36 -45 -59l-98 31c7 21 17 41 30 60s30 35 49 48c19 14 42 25 67 33s53 12 83 12c35 0 67 -6 96 -18c29 -11 55 -28 76 -50s38 -49 50 -82c12 -32 18 -69 18 -110zM157 192c1 -14 4 -28 9 -41s13 -24 24 -34s24 -18 39 -25
c15 -6 32 -9 51 -9s36 3 51 9c14 7 26 15 36 25c10 11 18 22 23 35s8 27 9 40h-242z" />
    <glyph glyph-name="uni04E8" unicode="&#x4e8;" horiz-adv-x="809" 
d="M765 355c0 -58 -10 -110 -30 -155c-20 -46 -47 -85 -80 -117c-34 -32 -73 -56 -116 -73s-88 -25 -134 -25c-47 0 -92 8 -135 25s-82 41 -115 73c-34 32 -61 71 -81 117c-20 45 -30 97 -30 155s10 110 30 156c20 45 47 84 81 116c33 31 72 55 115 72s88 25 135 25
c46 0 91 -8 134 -25s82 -41 116 -72c33 -32 60 -71 80 -116c20 -46 30 -98 30 -156zM172 306c5 -35 14 -65 29 -91c15 -25 33 -47 54 -64s45 -29 70 -38c26 -9 53 -13 80 -13s53 4 79 13s49 21 70 38s39 39 54 64c15 26 24 56 29 91h-465zM405 610c-27 0 -53 -4 -79 -12
c-25 -9 -49 -21 -70 -37c-21 -17 -39 -37 -54 -62s-24 -54 -29 -87h463c-5 33 -16 62 -31 87s-33 45 -54 62c-21 16 -44 28 -69 37c-25 8 -51 12 -77 12z" />
    <glyph glyph-name="uni04E9" unicode="&#x4e9;" horiz-adv-x="587" 
d="M293 -15c-36 0 -69 6 -100 20c-31 13 -58 31 -80 54c-23 23 -40 50 -53 82c-13 31 -19 66 -19 103s6 72 19 103s30 58 53 81c22 23 49 41 80 54s64 20 100 20c37 0 70 -7 101 -20s57 -31 80 -54s40 -50 53 -81s19 -66 19 -103s-6 -72 -19 -103c-13 -32 -30 -59 -53 -82
s-49 -41 -80 -54c-31 -14 -64 -20 -101 -20zM293 89c31 0 60 9 85 28s41 47 48 85h-265c7 -38 23 -66 48 -85s53 -28 84 -28zM426 287c-7 37 -23 64 -48 83s-54 28 -85 28s-59 -9 -84 -28s-41 -46 -48 -83h265z" />
    <glyph glyph-name="uni2007" unicode="&#x2007;" horiz-adv-x="623" 
 />
    <glyph glyph-name="uni2008" unicode="&#x2008;" horiz-adv-x="265" 
 />
    <glyph glyph-name="uni200B" unicode="&#x200b;" horiz-adv-x="0" 
 />
    <glyph glyph-name="endash" unicode="&#x2013;" horiz-adv-x="646" 
d="M66 242v101h514v-101h-514z" />
    <glyph glyph-name="emdash" unicode="&#x2014;" horiz-adv-x="1078" 
d="M66 242v101h946v-101h-946z" />
    <glyph glyph-name="quoteleft" unicode="&#x2018;" horiz-adv-x="245" 
d="M197 509c0 -18 -7 -33 -20 -46c-14 -13 -32 -20 -53 -20c-23 0 -42 8 -57 25c-15 16 -23 38 -23 66c0 31 5 58 14 80s21 40 35 55c15 15 30 26 47 33s33 12 48 13v-55c-21 -4 -39 -14 -54 -31s-24 -37 -25 -58c1 1 4 2 8 3c3 1 8 2 13 2c19 0 35 -6 48 -18
c13 -13 19 -29 19 -49z" />
    <glyph glyph-name="quoteright" unicode="&#x2019;" horiz-adv-x="250" 
d="M54 649c0 18 7 34 21 47c14 14 32 21 53 21c24 0 44 -9 59 -26c16 -17 24 -39 24 -67c0 -33 -5 -60 -15 -83c-9 -23 -21 -42 -36 -57s-31 -26 -48 -33s-34 -12 -49 -13v55c21 4 39 15 55 32c15 17 24 37 25 60c-1 -1 -4 -2 -7 -3c-4 -1 -9 -2 -14 -2c-20 0 -36 6 -49 19
s-19 29 -19 50z" />
    <glyph glyph-name="quotesinglbase" unicode="&#x201a;" horiz-adv-x="260" 
d="M52 65c0 19 7 35 21 48s32 20 53 20c24 0 44 -8 60 -25c15 -17 23 -40 23 -68c0 -32 -5 -59 -14 -82c-10 -23 -22 -42 -37 -57s-31 -26 -48 -33s-34 -12 -49 -14v56c10 2 20 6 30 11c9 5 18 12 25 21c7 8 13 17 18 28c4 10 6 21 7 32c-1 -1 -4 -3 -7 -4
c-4 -1 -9 -1 -14 -1c-20 0 -36 6 -49 19c-13 12 -19 28 -19 49z" />
    <glyph glyph-name="quotedblleft" unicode="&#x201c;" horiz-adv-x="430" 
d="M382 512c0 -18 -7 -33 -20 -46c-14 -13 -32 -20 -53 -20c-23 0 -42 8 -57 25c-15 16 -23 38 -23 66c0 31 5 58 14 80s21 40 36 55c14 15 30 26 47 33s32 12 47 13v-55c-10 -2 -20 -6 -29 -11s-17 -12 -24 -20s-13 -17 -17 -27c-5 -10 -7 -20 -8 -31c1 1 4 2 7 3s8 2 13 2
c20 0 36 -6 49 -18c12 -13 18 -29 18 -49zM197 512c0 -18 -7 -33 -20 -46c-14 -13 -32 -20 -53 -20c-23 0 -42 8 -57 25c-15 16 -23 38 -23 66c0 31 5 58 14 80s21 40 36 55c14 15 29 26 46 33s33 12 48 13v-55c-21 -3 -39 -14 -54 -31s-24 -37 -25 -58c1 1 4 2 8 3
c3 1 8 2 13 2c19 0 35 -6 48 -18c13 -13 19 -29 19 -49z" />
    <glyph glyph-name="quotedblright" unicode="&#x201d;" horiz-adv-x="430" 
d="M54 648c0 19 7 34 20 47s31 20 52 20c23 0 43 -8 58 -25c15 -16 23 -38 23 -66c0 -31 -5 -58 -14 -81c-9 -22 -21 -40 -36 -55c-15 -14 -30 -25 -47 -32s-33 -11 -48 -13v54c21 4 39 14 54 31s24 36 25 59c-1 -1 -4 -2 -8 -3c-3 -1 -8 -2 -13 -2c-19 0 -35 6 -47 18
c-13 12 -19 28 -19 48zM238 648c0 19 7 34 20 47c14 13 32 20 53 20c23 0 42 -8 57 -25c15 -16 23 -38 23 -66c0 -31 -5 -58 -14 -81c-9 -22 -21 -40 -35 -55c-15 -14 -30 -25 -47 -32s-33 -11 -48 -13v54c21 4 39 14 54 31s23 36 24 59c-1 -1 -4 -3 -7 -4s-8 -1 -13 -1
c-19 0 -35 6 -48 18s-19 28 -19 48z" />
    <glyph glyph-name="quotedblbase" unicode="&#x201e;" horiz-adv-x="441" 
d="M52 63c0 19 7 34 20 47s31 20 52 20c23 0 43 -8 58 -25c15 -16 23 -38 23 -66c0 -31 -5 -58 -14 -81c-9 -22 -21 -40 -36 -55c-15 -14 -30 -25 -47 -32s-33 -11 -48 -13v54c21 4 39 14 54 31s24 36 25 59c-1 -1 -4 -3 -8 -4c-3 -1 -8 -1 -13 -1c-19 0 -35 6 -47 18
c-13 12 -19 28 -19 48zM236 63c0 19 7 34 20 47c14 13 32 20 53 20c23 0 42 -8 57 -25c15 -16 23 -38 23 -66c0 -31 -5 -58 -14 -81c-9 -22 -21 -40 -35 -55c-15 -14 -30 -25 -47 -32s-33 -11 -48 -13v54c21 4 39 14 54 31s23 36 24 59c-1 -1 -4 -3 -7 -4s-8 -1 -13 -1
c-19 0 -35 6 -48 18s-19 28 -19 48z" />
    <glyph glyph-name="dagger" unicode="&#x2020;" horiz-adv-x="417" 
d="M159 162v308h-124v94h124v145h99v-145h124v-94h-124v-308h-99z" />
    <glyph glyph-name="daggerdbl" unicode="&#x2021;" horiz-adv-x="445" 
d="M173 239v231h-124v93h124v146h99v-146h124v-93h-124v-231h124v-93h-124v-146h-99v146h-124v93h124z" />
    <glyph glyph-name="bullet" unicode="&#x2022;" horiz-adv-x="550" 
d="M67 294c0 29 6 56 17 82c11 25 26 47 45 66s41 34 66 45s51 16 80 16s56 -5 81 -16s47 -26 66 -45s34 -41 45 -66c11 -26 16 -53 16 -82c0 -28 -5 -55 -16 -80s-26 -47 -45 -66s-41 -33 -66 -44s-52 -17 -81 -17s-55 6 -80 17s-47 25 -66 44s-34 41 -45 66s-17 52 -17 80
z" />
    <glyph glyph-name="ellipsis" unicode="&#x2026;" horiz-adv-x="864" 
d="M813 65c0 -20 -7 -37 -21 -51c-14 -15 -31 -22 -52 -22s-38 7 -52 22c-15 14 -22 31 -22 51c0 21 7 38 22 53c14 14 31 21 52 21s38 -7 52 -21c14 -15 21 -32 21 -53zM505 65c0 -20 -7 -37 -21 -51c-14 -15 -31 -22 -52 -22s-38 7 -52 22c-15 14 -22 31 -22 51
c0 21 7 38 22 53c14 14 31 21 52 21s38 -7 52 -21c14 -15 21 -32 21 -53zM198 65c0 -20 -7 -37 -21 -51c-15 -15 -32 -22 -53 -22c-20 0 -37 7 -51 22c-15 14 -22 31 -22 51c0 21 7 38 22 53c14 14 31 21 51 21c21 0 38 -7 53 -21c14 -15 21 -32 21 -53z" />
    <glyph glyph-name="perthousand" unicode="&#x2030;" horiz-adv-x="1075" 
d="M133 0l461 709h106l-460 -709h-107zM195 485c21 0 38 7 51 21c13 13 20 31 20 53c0 21 -7 39 -20 52s-30 20 -51 20c-20 0 -37 -7 -50 -20c-14 -13 -21 -31 -21 -52c0 -22 7 -40 21 -53c13 -14 30 -21 50 -21zM32 559c0 23 4 44 13 63s21 36 36 50c15 15 32 26 52 34
c19 9 40 13 62 13s43 -4 63 -13c20 -8 38 -19 53 -34c15 -14 26 -31 35 -50s13 -40 13 -63s-4 -45 -13 -64s-20 -36 -35 -51s-33 -26 -53 -34s-41 -12 -63 -12s-43 4 -63 13c-20 8 -37 19 -52 33c-15 15 -26 32 -35 51c-9 20 -13 41 -13 64zM475 151c0 23 4 44 13 63
s21 36 36 50c15 15 32 26 52 34c20 9 41 13 63 13c23 0 45 -5 66 -14s39 -22 54 -38c15 16 34 29 55 38s43 14 66 14c22 0 43 -4 63 -13c19 -8 37 -19 52 -34c15 -14 27 -31 36 -50s13 -40 13 -63s-4 -45 -13 -64s-21 -36 -36 -51s-33 -26 -52 -34c-20 -8 -41 -12 -63 -12
c-24 0 -46 5 -67 14s-39 22 -54 38c-15 -16 -33 -29 -54 -38s-44 -14 -67 -14c-22 0 -43 4 -62 12c-20 9 -37 20 -52 34c-15 15 -27 32 -36 51c-9 20 -13 41 -13 64zM568 151c0 -22 7 -40 21 -54c13 -13 30 -20 50 -20s37 7 50 21s20 32 20 53s-7 39 -20 52
c-13 14 -30 21 -50 21s-37 -7 -50 -21c-14 -13 -21 -31 -21 -52zM880 224c-20 0 -37 -7 -50 -21c-14 -13 -21 -31 -21 -52c0 -22 7 -40 21 -54c13 -13 30 -20 50 -20s37 7 50 21s20 32 20 53s-7 39 -20 52c-13 14 -30 21 -50 21z" />
    <glyph glyph-name="guilsinglleft" unicode="&#x2039;" horiz-adv-x="327" 
d="M171 100l-135 193l136 194h111l-134 -195l133 -192h-111z" />
    <glyph glyph-name="guilsinglright" unicode="&#x203a;" horiz-adv-x="327" 
d="M45 100l133 192l-134 195h112l135 -194l-135 -193h-111z" />
    <glyph glyph-name="uni2042" unicode="&#x2042;" horiz-adv-x="828" 
d="M453 595l105 35l26 -76l-107 -35l69 -91l-65 -47l-71 93l-66 -92l-65 47l67 90l-107 35l26 76l105 -36v115h83v-114zM244 203l105 35l26 -76l-107 -35l69 -91l-65 -47l-71 93l-66 -92l-65 47l67 90l-107 35l26 76l105 -36v115h83v-114zM667 203l105 35l26 -76l-107 -35
l69 -91l-65 -47l-71 93l-66 -92l-65 47l67 90l-107 35l26 76l105 -36v115h83v-114z" />
    <glyph glyph-name="fraction" unicode="&#x2044;" horiz-adv-x="161" 
d="M363 709l-460 -709h-102l461 709h101z" />
    <glyph glyph-name="uni2051" unicode="&#x2051;" horiz-adv-x="444" 
d="M263 595l105 35l26 -76l-107 -35l69 -91l-65 -47l-71 93l-66 -92l-65 47l67 90l-107 35l26 76l105 -36v115h83v-114zM263 205l105 35l26 -76l-107 -35l69 -91l-65 -47l-71 93l-66 -92l-65 47l67 90l-107 35l26 76l105 -36v115h83v-114z" />
    <glyph glyph-name="uni2070" unicode="&#x2070;" horiz-adv-x="389" 
d="M126 526c0 -13 1 -27 3 -40c1 -13 4 -25 9 -36s12 -20 21 -27s20 -11 35 -11s27 4 36 11s16 16 21 27s8 23 9 36s2 27 2 40s-1 26 -2 40c-1 13 -4 26 -9 37s-12 21 -21 28s-21 10 -36 10s-26 -3 -35 -10s-16 -16 -21 -27s-8 -24 -9 -37c-2 -14 -3 -28 -3 -41zM34 526
c0 23 2 45 7 68s14 43 26 62c13 18 29 33 50 44s46 17 77 17s57 -6 78 -18c21 -11 37 -26 50 -45c12 -18 21 -38 26 -61s7 -45 7 -67s-2 -44 -7 -67c-5 -22 -14 -42 -26 -60c-13 -19 -29 -34 -50 -45c-21 -12 -47 -18 -78 -18s-57 6 -78 17s-37 26 -49 44
c-12 19 -20 39 -25 62s-8 45 -8 67z" />
    <glyph glyph-name="uni2074" unicode="&#x2074;" horiz-adv-x="383" 
d="M25 502l172 207h99v-222h62v-73h-62v-71h-90v71h-181v88zM206 612l-103 -125h103v125z" />
    <glyph glyph-name="uni2075" unicode="&#x2075;" horiz-adv-x="349" 
d="M104 464c3 -16 11 -29 23 -38s26 -14 43 -14s31 5 42 14s17 22 17 39c0 19 -6 34 -17 43s-26 13 -43 13c-12 0 -23 -2 -33 -6c-9 -5 -18 -11 -25 -18l-74 24l47 188h214v-75h-158l-19 -73c9 9 19 15 32 19s27 6 40 6c38 0 68 -10 91 -31s35 -51 35 -88
c0 -18 -3 -35 -10 -51s-16 -30 -29 -41c-12 -12 -27 -21 -46 -28s-40 -11 -64 -11c-19 0 -37 3 -53 9c-17 5 -31 13 -44 22s-23 20 -31 33c-9 12 -14 25 -17 39z" />
    <glyph glyph-name="uni2076" unicode="&#x2076;" horiz-adv-x="371" 
d="M307 631c-19 8 -41 12 -64 12c-29 0 -54 -7 -76 -22s-36 -38 -43 -70c9 11 22 20 38 27c15 7 32 10 49 10c38 0 69 -10 94 -31c24 -21 36 -51 36 -91c0 -19 -4 -37 -11 -54c-8 -16 -19 -30 -32 -41s-29 -20 -48 -27c-19 -6 -39 -9 -61 -9c-20 0 -39 3 -58 10
s-36 18 -50 32c-15 14 -26 31 -35 52s-13 46 -13 74c0 33 5 62 16 89c10 27 24 49 43 67c18 19 40 33 65 43s51 15 80 15c16 0 32 -2 47 -5s29 -8 41 -13zM129 464c0 -17 6 -31 19 -41c13 -9 27 -14 42 -14s29 5 41 14c13 10 19 24 19 41s-6 31 -19 41c-12 10 -26 15 -41 15
s-29 -5 -42 -15s-19 -24 -19 -41z" />
    <glyph glyph-name="uni2077" unicode="&#x2077;" horiz-adv-x="343" 
d="M326 632c-9 -7 -20 -17 -35 -31s-31 -33 -46 -56s-29 -52 -42 -85s-21 -72 -25 -117h-96c4 47 13 89 28 125c14 36 29 66 44 91c18 29 38 53 60 74h-191v76h303v-77z" />
    <glyph glyph-name="uni2078" unicode="&#x2078;" horiz-adv-x="368" 
d="M184 562c16 0 28 4 37 13c9 8 13 18 13 30c0 11 -4 20 -12 28c-9 8 -21 12 -38 12s-29 -4 -38 -12s-13 -17 -13 -28c0 -12 5 -22 14 -30c9 -9 21 -13 37 -13zM184 408c21 0 36 4 46 13c9 9 14 20 14 33c0 12 -5 22 -15 31s-25 13 -45 13s-35 -4 -45 -13
c-11 -9 -16 -19 -16 -31c0 -13 5 -24 15 -33s25 -13 46 -13zM184 335c-48 0 -85 10 -112 30c-26 21 -39 47 -39 79c0 19 6 37 19 52c13 16 31 28 52 35c-19 7 -34 18 -44 33c-11 15 -16 31 -16 48c0 31 13 56 38 76c25 19 59 29 102 29s77 -10 102 -29c25 -20 37 -45 37 -76
c0 -17 -5 -33 -15 -48s-25 -26 -44 -33c21 -7 39 -19 52 -34s19 -32 19 -51c0 -32 -13 -58 -39 -79s-63 -32 -112 -32z" />
    <glyph glyph-name="uni2079" unicode="&#x2079;" horiz-adv-x="369" 
d="M65 422c9 -3 19 -6 30 -9c10 -3 21 -4 32 -4c30 0 56 7 79 21s37 38 42 71c-9 -11 -22 -20 -38 -27s-33 -10 -50 -10c-18 0 -35 3 -50 8c-16 5 -30 13 -42 24c-12 10 -21 23 -28 38s-11 33 -11 52s4 37 11 53s18 30 32 41c13 12 29 21 48 27c19 7 39 10 61 10
c20 0 39 -4 58 -11s35 -17 50 -30c14 -13 25 -30 34 -51s13 -44 13 -71c0 -35 -5 -67 -15 -94s-24 -50 -41 -68c-17 -19 -38 -33 -63 -42c-25 -10 -51 -15 -80 -15c-16 0 -32 2 -47 5c-16 3 -30 7 -42 12zM239 587c0 17 -6 31 -18 41s-26 15 -43 15c-16 0 -30 -5 -42 -15
s-18 -24 -18 -41s6 -31 18 -41s26 -15 42 -15c17 0 31 5 43 15s18 24 18 41z" />
    <glyph glyph-name="uni2080" unicode="&#x2080;" horiz-adv-x="389" 
d="M126 111c0 -13 1 -27 3 -40c1 -13 4 -25 9 -36s12 -20 21 -27s20 -11 35 -11s27 4 36 11s16 16 21 27s8 23 9 36s2 27 2 40s-1 26 -2 40c-1 13 -4 26 -9 37s-12 21 -21 28s-21 10 -36 10s-26 -3 -35 -10s-16 -16 -21 -27s-8 -24 -9 -37c-2 -14 -3 -28 -3 -41zM34 111
c0 23 2 45 7 68s14 43 26 62c13 18 29 33 50 44s46 17 77 17s57 -6 78 -18c21 -11 37 -26 50 -45c12 -18 21 -38 26 -61s7 -45 7 -67s-2 -44 -7 -67c-5 -22 -14 -42 -26 -61c-13 -18 -29 -33 -50 -45c-21 -11 -47 -17 -78 -17s-57 6 -78 17s-37 26 -49 44
c-12 19 -20 39 -25 62s-8 45 -8 67z" />
    <glyph glyph-name="uni2081" unicode="&#x2081;" horiz-adv-x="249" 
d="M111 -89v233h-89v60c29 1 51 9 68 24s27 31 30 49h82v-366h-91z" />
    <glyph glyph-name="uni2082" unicode="&#x2082;" horiz-adv-x="354" 
d="M42 134c-2 10 -3 20 -3 30c0 16 3 31 9 46s15 28 27 39c11 11 26 19 43 26s37 10 59 10s42 -3 59 -9c17 -7 31 -15 43 -26c11 -11 20 -24 26 -38c6 -15 9 -30 9 -46c0 -23 -7 -44 -20 -62c-13 -19 -32 -35 -55 -49l-71 -43c-11 -8 -18 -16 -20 -25h169v-76h-281v12
c0 32 7 61 20 86s35 47 67 66l60 36c27 16 41 35 41 56c0 11 -4 22 -12 31s-20 13 -37 13c-16 0 -29 -5 -38 -14c-9 -10 -14 -23 -14 -38c0 -3 0 -6 1 -11c0 -5 1 -9 2 -13z" />
    <glyph glyph-name="uni2083" unicode="&#x2083;" horiz-adv-x="365" 
d="M108 37c3 -17 10 -30 23 -42c12 -11 27 -16 46 -16s34 5 45 14c11 10 16 22 16 35c0 19 -6 32 -19 40c-13 7 -27 11 -42 11c-11 0 -21 -2 -31 -6l-32 61l91 69h-164v75h279v-72l-94 -69c30 -3 55 -14 74 -33s29 -44 29 -77c0 -17 -3 -33 -10 -48s-17 -28 -30 -39
s-29 -19 -48 -26s-40 -10 -63 -10c-22 0 -42 3 -59 9c-18 7 -33 15 -45 25c-13 10 -23 21 -30 34c-8 13 -13 27 -16 41z" />
    <glyph glyph-name="uni2084" unicode="&#x2084;" horiz-adv-x="385" 
d="M26 70l172 207h99v-222h62v-73h-62v-71h-90v71h-181v88zM207 180l-103 -125h103v125z" />
    <glyph glyph-name="uni2085" unicode="&#x2085;" horiz-adv-x="351" 
d="M105 32c3 -16 11 -29 23 -38s26 -14 43 -14s31 4 42 13c11 10 17 23 17 40c0 19 -6 34 -17 43s-26 13 -43 13c-12 0 -23 -2 -33 -6c-9 -5 -18 -11 -25 -18l-74 24l47 188h214v-75h-158l-19 -73c9 9 19 15 32 19s27 6 40 6c38 0 68 -10 91 -31s35 -51 35 -88
c0 -18 -3 -35 -10 -51s-16 -30 -29 -41c-12 -12 -27 -21 -46 -28s-40 -11 -64 -11c-19 0 -37 3 -53 9c-17 5 -31 13 -44 22s-23 20 -31 32c-9 13 -14 26 -17 40z" />
    <glyph glyph-name="uni2086" unicode="&#x2086;" horiz-adv-x="372" 
d="M307 200c-19 8 -41 12 -64 12c-29 0 -54 -7 -76 -22s-36 -38 -43 -70c9 11 22 20 38 27c15 7 32 10 49 10c38 0 69 -10 94 -31c24 -21 36 -51 36 -91c0 -19 -4 -37 -11 -54c-8 -16 -19 -30 -32 -41s-29 -20 -48 -27c-19 -6 -39 -9 -61 -9c-20 0 -39 3 -58 10
s-36 18 -50 32c-15 14 -26 31 -35 52s-13 46 -13 74c0 33 5 62 16 89c10 27 24 49 43 67c18 19 40 33 65 43s51 15 80 15c16 0 32 -2 47 -5s29 -8 41 -13zM129 33c0 -17 6 -31 19 -41c13 -9 27 -14 42 -14s29 5 41 14c13 10 19 24 19 41s-6 31 -19 41c-12 10 -26 15 -41 15
s-29 -5 -42 -15s-19 -24 -19 -41z" />
    <glyph glyph-name="uni2087" unicode="&#x2087;" horiz-adv-x="344" 
d="M326 200c-9 -7 -20 -17 -35 -31s-31 -33 -46 -56s-29 -52 -42 -85s-21 -72 -25 -117h-96c4 47 13 89 28 125c14 36 29 66 44 91c18 29 38 53 60 74h-191v76h303v-77z" />
    <glyph glyph-name="uni2088" unicode="&#x2088;" horiz-adv-x="369" 
d="M185 130c16 0 28 4 37 13c9 8 13 18 13 30c0 11 -4 20 -12 28c-9 8 -21 12 -38 12s-29 -4 -38 -12s-13 -17 -13 -28c0 -12 5 -22 14 -30c9 -9 21 -13 37 -13zM185 -24c21 0 36 4 46 13c9 9 14 20 14 33c0 12 -5 22 -15 31s-25 13 -45 13s-35 -4 -45 -13
c-11 -9 -16 -19 -16 -31c0 -13 5 -24 15 -33s25 -13 46 -13zM185 -97c-48 0 -85 10 -112 30c-26 21 -39 47 -39 79c0 19 6 37 19 52c13 16 31 28 52 35c-19 7 -34 18 -44 33c-11 15 -16 31 -16 48c0 31 13 56 38 76c25 19 59 29 102 29s77 -10 102 -29c25 -20 37 -45 37 -76
c0 -17 -5 -33 -15 -48s-25 -26 -44 -33c21 -7 39 -19 52 -34s19 -32 19 -51c0 -32 -13 -59 -39 -80s-63 -31 -112 -31z" />
    <glyph glyph-name="uni2089" unicode="&#x2089;" horiz-adv-x="370" 
d="M66 -9c9 -3 19 -6 30 -9c10 -3 21 -4 32 -4c30 0 56 7 79 21s37 38 42 71c-9 -11 -22 -20 -38 -27s-33 -10 -50 -10c-18 0 -35 3 -50 8c-16 5 -30 13 -42 24c-12 10 -21 23 -28 38s-11 33 -11 52s4 37 11 53s18 30 32 41c13 12 29 21 48 27c19 7 39 10 61 10
c20 0 39 -4 58 -11s35 -17 50 -30c14 -13 25 -30 34 -51s13 -44 13 -71c0 -35 -5 -67 -15 -94s-24 -50 -41 -69c-17 -18 -38 -32 -63 -42c-25 -9 -51 -14 -80 -14c-16 0 -32 1 -47 4c-16 3 -30 8 -42 13zM240 156c0 17 -6 31 -18 41s-26 15 -43 15c-16 0 -30 -5 -42 -15
s-18 -24 -18 -41s6 -31 18 -41s26 -15 42 -15c17 0 31 5 43 15s18 24 18 41z" />
    <glyph glyph-name="Euro" unicode="&#x20ac;" horiz-adv-x="730" 
d="M697 59c-23 -20 -53 -37 -90 -51c-37 -15 -77 -22 -122 -22c-41 0 -79 5 -116 16s-71 27 -101 48s-56 46 -78 77c-23 31 -39 66 -50 106h-97v85h80c-1 8 -2 14 -2 19v18v14c0 4 0 10 1 17h-79v85h96c11 40 29 76 52 107s50 58 81 80c31 21 66 38 103 49s76 16 116 16
s76 -5 107 -14c31 -10 56 -22 76 -36l-46 -93c-34 25 -80 37 -137 37c-23 0 -47 -3 -70 -8c-23 -6 -45 -15 -65 -27c-21 -12 -39 -27 -55 -45c-16 -19 -28 -41 -37 -66h307l-38 -85h-289c-1 -5 -1 -10 -1 -15c-1 -6 -1 -12 -1 -17c0 -6 0 -12 1 -19c0 -7 0 -12 1 -17h259
c-1 -3 -4 -9 -7 -17c-4 -8 -8 -16 -12 -25s-8 -18 -11 -26c-4 -8 -7 -14 -8 -17h-197c8 -24 20 -45 35 -62c15 -18 32 -33 52 -44c19 -11 40 -20 63 -25c22 -6 44 -9 67 -9c33 0 64 5 91 15s50 23 67 38z" />
    <glyph glyph-name="uni20B4" unicode="&#x20b4;" horiz-adv-x="643" 
d="M326 -15c-35 0 -68 5 -97 14s-55 23 -76 40s-38 37 -50 60s-18 48 -18 75c0 17 2 33 7 48c5 14 11 26 19 36h-62v81h540v-81h-358c-17 -17 -25 -39 -25 -66c0 -28 10 -51 31 -70s51 -29 90 -29c23 0 43 4 60 11s30 16 41 28c11 11 20 25 26 40c7 15 11 30 13 46l113 -29
c-3 -23 -11 -46 -22 -70s-26 -46 -47 -66c-20 -20 -45 -36 -75 -49c-31 -13 -67 -19 -110 -19zM49 477h370c9 13 13 29 13 48c0 26 -9 48 -27 66c-17 18 -42 27 -75 27c-22 0 -41 -3 -57 -10c-15 -7 -28 -15 -39 -24c-10 -10 -18 -21 -23 -32c-5 -12 -9 -23 -10 -33l-108 31
c4 19 12 39 23 60c11 20 27 39 46 56c20 17 44 31 73 42s62 16 101 16c33 0 62 -4 88 -13c27 -9 49 -22 68 -38c19 -17 34 -36 44 -59c11 -23 16 -48 16 -75c0 -13 -1 -24 -4 -35c-2 -11 -5 -20 -8 -27h49v-82h-540v82z" />
    <glyph glyph-name="uni20B8" unicode="&#x20b8;" horiz-adv-x="639" 
d="M259 462h-222v93h565v-93h-222v-462h-121v462zM37 709h565v-93h-565v93z" />
    <glyph glyph-name="uni20BD" unicode="&#x20bd;" horiz-adv-x="663" 
d="M146 137h-94v93h94v61h-94v92h94v326h259c34 0 65 -5 93 -16c27 -11 51 -25 71 -44c19 -19 35 -41 46 -67c11 -25 16 -53 16 -83s-5 -58 -16 -84c-11 -25 -27 -47 -46 -66c-20 -18 -44 -32 -71 -42c-28 -11 -59 -16 -93 -16h-139v-61h204v-93h-204v-137h-120v137z
M388 397c37 0 67 9 89 27c21 18 32 43 32 74c0 32 -11 57 -32 76c-22 19 -52 28 -89 28h-121v-205h121z" />
    <glyph glyph-name="uni2113" unicode="&#x2113;" horiz-adv-x="416" 
d="M373 22c-9 -7 -22 -14 -39 -19s-38 -8 -63 -8c-48 0 -87 13 -116 39c-30 26 -45 63 -45 111v104c-11 -4 -23 -8 -34 -11c-12 -4 -24 -7 -36 -10v101c11 3 22 6 34 11c11 4 23 9 36 14v205c0 26 4 49 11 70c7 20 18 37 31 51c13 13 28 24 45 31s35 11 55 11
c45 0 79 -13 104 -40c24 -27 36 -64 36 -111c0 -27 -4 -54 -13 -80c-9 -27 -21 -52 -36 -76c-16 -24 -35 -46 -56 -67c-22 -21 -46 -40 -73 -57v-115c0 -29 7 -49 22 -62s33 -19 55 -19c19 0 35 2 48 6s25 9 34 15v-94zM214 414c21 19 39 43 53 70s21 58 21 91
c0 15 -3 28 -8 37c-6 9 -15 14 -26 14s-21 -4 -28 -13c-8 -9 -12 -25 -12 -48v-151z" />
    <glyph glyph-name="uni2116" unicode="&#x2116;" horiz-adv-x="1147" 
d="M97 0v709h154l313 -501v501h120v-709h-127l-340 536v-536h-120zM931 374c-25 0 -49 4 -70 13c-21 8 -40 20 -55 35c-16 15 -28 34 -37 55s-13 45 -13 71s5 50 14 71s21 40 37 55c15 15 34 27 55 35c21 9 44 13 69 13c24 0 47 -4 68 -13c21 -8 40 -20 56 -35
c15 -15 28 -34 37 -55s13 -45 13 -71s-4 -50 -13 -71s-22 -40 -37 -55c-16 -15 -34 -27 -55 -35c-21 -9 -44 -13 -69 -13zM773 324h314v-88h-314v88zM931 457c23 0 43 8 59 24c17 16 25 38 25 67c0 28 -8 50 -25 66c-16 16 -36 24 -59 24s-43 -8 -60 -24s-25 -38 -25 -66
c0 -29 8 -51 25 -67s37 -24 60 -24z" />
    <glyph glyph-name="trademark" unicode="&#x2122;" horiz-adv-x="882" 
d="M228 632v-288h-86v288h-107v77h300v-77h-107zM729 344v227l-95 -227h-64l-93 224v-224h-84v365h115l97 -232l95 232h111v-365h-82z" />
    <glyph glyph-name="Omega" unicode="&#x2126;" horiz-adv-x="806" 
d="M403 614c-28 0 -55 -5 -82 -14c-27 -10 -52 -24 -73 -43s-38 -43 -51 -70c-13 -28 -20 -60 -20 -96c0 -32 6 -61 17 -86c11 -26 25 -49 42 -68s37 -35 60 -47c22 -13 45 -21 68 -26v-164h-304v109h189c-25 10 -50 24 -73 41s-44 38 -62 63c-18 24 -32 52 -43 83
s-17 64 -17 100c0 51 10 96 29 137s45 75 77 104c32 28 69 50 111 65s86 22 132 22s90 -7 132 -22s79 -37 111 -65c32 -29 58 -63 77 -104s29 -86 29 -137c0 -36 -5 -69 -16 -100s-26 -59 -44 -83c-18 -25 -39 -46 -62 -63c-24 -17 -48 -31 -73 -41h189v-109h-304v164
c23 5 45 13 68 26c23 12 43 28 60 47s32 42 43 68c11 25 16 54 16 86c0 36 -6 68 -19 96c-13 27 -31 51 -52 70s-45 33 -72 43c-27 9 -55 14 -83 14z" />
    <glyph glyph-name="arrowleft" unicode="&#x2190;" horiz-adv-x="1069" 
d="M31 292l274 225v-175h716v-100h-716v-174z" />
    <glyph glyph-name="arrowup" unicode="&#x2191;" horiz-adv-x="484" 
d="M458 543h-165v-690h-100v690h-167l217 257z" />
    <glyph glyph-name="arrowright" unicode="&#x2192;" horiz-adv-x="1069" 
d="M764 68v174h-716v100h716v175l274 -225z" />
    <glyph glyph-name="arrowdown" unicode="&#x2193;" horiz-adv-x="501" 
d="M251 -157l-225 262h174v686h101v-686h174z" />
    <glyph glyph-name="uni2196" unicode="&#x2196;" horiz-adv-x="800" 
d="M368 709l-121 -122l527 -526l-71 -71l-527 526l-122 -123v316h314z" />
    <glyph glyph-name="uni2197" unicode="&#x2197;" horiz-adv-x="800" 
d="M746 709v-316l-123 123l-526 -526l-71 71l527 526l-121 122h314z" />
    <glyph glyph-name="uni2198" unicode="&#x2198;" horiz-adv-x="801" 
d="M432 0l121 122l-527 526l71 71l526 -527l123 124v-316h-314z" />
    <glyph glyph-name="uni2199" unicode="&#x2199;" horiz-adv-x="801" 
d="M55 0v316l122 -124l527 527l71 -71l-527 -526l121 -122h-314z" />
    <glyph glyph-name="uni21A9" unicode="&#x21a9;" horiz-adv-x="912" 
d="M443 657h193c34 0 65 -6 94 -17s53 -26 74 -45s37 -41 48 -68c11 -26 17 -54 17 -84c0 -29 -6 -57 -17 -83s-27 -49 -47 -68s-44 -35 -73 -46c-28 -11 -59 -17 -93 -17h-366v-156l-244 207l244 208v-158h362c39 0 70 11 95 32s37 48 37 81c0 36 -13 64 -38 84
s-58 30 -97 30h-189v100z" />
    <glyph glyph-name="uni21B0" unicode="&#x21b0;" horiz-adv-x="765" 
d="M26 517l245 207v-157h418v-567h-100v467h-318v-157z" />
    <glyph glyph-name="uni21B1" unicode="&#x21b1;" horiz-adv-x="798" 
d="M76 0v567h452v157l244 -207l-244 -207v157h-352v-467h-100z" />
    <glyph glyph-name="uni21B2" unicode="&#x21b2;" horiz-adv-x="800" 
d="M723 709v-567h-453v-157l-244 207l244 207v-157h352v467h101z" />
    <glyph glyph-name="uni21B3" unicode="&#x21b3;" horiz-adv-x="800" 
d="M774 192l-244 -207v157h-453v567h101v-467h352v157z" />
    <glyph glyph-name="uni21B4" unicode="&#x21b4;" horiz-adv-x="789" 
d="M32 709h572v-484h157l-206 -241l-207 241h156v384h-472v100z" />
    <glyph glyph-name="uni21B5" unicode="&#x21b5;" horiz-adv-x="1077" 
d="M25 355h143c0 51 10 99 30 144c19 45 46 84 79 117s72 60 117 79s93 29 144 29c32 0 63 -4 93 -11c30 -8 58 -19 84 -33l-45 -90c-41 23 -85 34 -131 34c-37 0 -72 -7 -105 -21s-62 -33 -86 -57c-25 -25 -44 -53 -58 -86s-21 -68 -21 -105h153l-198 -233zM906 353
c0 -51 -10 -99 -29 -144c-20 -45 -47 -83 -80 -116s-72 -60 -117 -79s-93 -29 -144 -29c-32 0 -63 4 -92 12c-30 7 -58 18 -85 32l45 90c41 -23 85 -34 132 -34c37 0 72 7 105 21s61 33 85 58c24 24 43 52 57 85s21 68 21 105h-150l199 232l199 -233h-146z" />
    <glyph glyph-name="uni21C6" unicode="&#x21c6;" horiz-adv-x="1091" 
d="M34 549l244 208v-158h756v-101h-756v-156zM814 -41v157h-755v100h755v157l244 -207z" />
    <glyph glyph-name="partialdiff" unicode="&#x2202;" horiz-adv-x="621" 
d="M251 617c-15 0 -36 -2 -61 -6c-26 -4 -53 -13 -82 -27l-40 92c32 17 65 29 98 36c34 7 65 10 93 10c21 0 43 -2 67 -6c23 -4 47 -11 70 -21c23 -11 45 -25 67 -43c21 -18 40 -41 57 -68c16 -28 29 -61 39 -100c9 -39 14 -84 14 -136c0 -53 -6 -102 -17 -147
c-12 -45 -30 -83 -54 -115c-23 -32 -53 -57 -88 -75c-35 -17 -77 -26 -124 -26c-32 0 -63 5 -92 15c-30 10 -56 25 -79 45s-42 45 -56 75s-21 65 -21 105c0 37 7 69 21 98c13 29 31 53 54 73c23 19 49 34 78 45c29 10 60 15 91 15c43 0 78 -6 105 -17c27 -12 47 -25 60 -40
c-4 40 -12 74 -23 102c-11 27 -25 50 -42 67s-37 30 -60 38c-23 7 -48 11 -75 11zM309 356c-25 0 -47 -3 -66 -10s-34 -17 -47 -30c-12 -13 -21 -27 -27 -44c-7 -17 -10 -34 -10 -53c0 -21 4 -39 12 -55c7 -15 18 -29 31 -40s27 -19 43 -25c16 -5 33 -8 50 -8
c28 0 52 6 72 18s36 27 49 46s22 41 28 65c6 25 9 49 9 73c-16 21 -36 36 -61 47s-53 16 -83 16z" />
    <glyph glyph-name="Delta" unicode="&#x2206;" horiz-adv-x="732" 
d="M301 709h129l275 -709h-678zM194 111h343l-172 465z" />
    <glyph glyph-name="product" unicode="&#x220f;" horiz-adv-x="658" 
d="M469 0v600h-278v-600h-120v709h516v-709h-118z" />
    <glyph glyph-name="summation" unicode="&#x2211;" horiz-adv-x="606" 
d="M48 107l263 248l-263 247v107h507v-111h-344l260 -243l-269 -244h353v-111h-507v107z" />
    <glyph glyph-name="minus" unicode="&#x2212;" horiz-adv-x="582" 
d="M65 301v96h452v-96h-452z" />
    <glyph glyph-name="uni2215" unicode="&#x2215;" horiz-adv-x="408" 
d="M96 0h-108l314 648h108z" />
    <glyph glyph-name="uni2219" unicode="&#x2219;" horiz-adv-x="272" 
d="M57 298c0 22 8 41 23 56s34 22 56 22c21 0 40 -7 56 -22c15 -15 23 -34 23 -56s-8 -40 -23 -55c-16 -15 -35 -22 -56 -22c-22 0 -41 7 -56 22s-23 33 -23 55z" />
    <glyph glyph-name="radical" unicode="&#x221a;" horiz-adv-x="699" 
d="M567 773l-261 -773h-106l-190 534h120l124 -364l231 704h208v-101h-126z" />
    <glyph glyph-name="infinity" unicode="&#x221e;" horiz-adv-x="820" 
d="M148 346c0 -23 7 -41 22 -56s36 -23 61 -23c21 0 41 7 60 22s37 33 56 55c-19 23 -38 43 -56 59c-18 15 -38 23 -60 23c-25 0 -45 -7 -60 -22s-23 -35 -23 -58zM672 346c0 23 -7 43 -22 58s-35 22 -60 22c-23 0 -43 -7 -61 -22s-37 -34 -56 -57c19 -23 38 -42 56 -57
c19 -15 39 -23 61 -23c25 0 45 8 60 23s22 33 22 56zM409 270c-30 -33 -59 -58 -87 -75c-29 -17 -60 -26 -93 -26c-27 0 -51 4 -74 13s-42 22 -58 38c-17 16 -30 35 -39 56c-9 22 -14 46 -14 71s5 49 14 71s22 41 39 57c16 16 35 28 58 37s47 14 74 14c33 0 65 -9 96 -26
c30 -17 59 -43 87 -76c29 33 58 58 87 76c29 17 60 26 93 26c27 0 51 -4 74 -13c22 -9 41 -22 57 -38c17 -16 30 -35 39 -57s14 -46 14 -71s-5 -49 -14 -70c-9 -22 -22 -41 -39 -57c-16 -16 -35 -28 -57 -37c-23 -9 -47 -14 -74 -14c-66 0 -127 34 -183 101z" />
    <glyph glyph-name="integral" unicode="&#x222b;" horiz-adv-x="360" 
d="M123 536c0 54 15 96 46 127s73 46 127 46h45v-103h-38c-19 0 -35 -6 -47 -18s-18 -30 -18 -53v-551c0 -54 -15 -97 -44 -128c-30 -31 -72 -46 -126 -46h-49v103h39c19 0 35 6 47 19s18 31 18 54v550z" />
    <glyph glyph-name="approxequal" unicode="&#x2248;" horiz-adv-x="628" 
d="M573 453c-19 -30 -41 -53 -68 -69c-26 -16 -55 -24 -87 -24c-34 0 -69 10 -105 30l-47 26c-20 11 -39 16 -58 16c-33 0 -63 -16 -88 -47l-64 54c19 31 42 54 68 70s54 24 85 24c17 0 35 -2 52 -7c18 -5 36 -12 55 -23l46 -26c21 -11 42 -17 63 -17c16 0 31 4 46 11
s28 19 40 34zM573 254c-19 -30 -41 -53 -68 -68c-27 -16 -56 -24 -87 -24c-34 0 -69 10 -105 30l-47 26c-19 10 -38 15 -57 15c-16 0 -32 -4 -47 -11c-15 -8 -29 -20 -42 -35l-64 54c19 31 42 54 68 70s55 24 86 24c33 0 69 -10 106 -30l46 -26c11 -5 21 -10 31 -13
c11 -3 21 -5 32 -5c33 0 62 15 86 46z" />
    <glyph glyph-name="notequal" unicode="&#x2260;" horiz-adv-x="608" 
d="M83 105l69 98h-86v96h150l71 102h-221v94h285l66 94h109l-65 -94h80v-94h-144l-71 -102h215v-96h-280l-68 -98h-110z" />
    <glyph glyph-name="lessequal" unicode="&#x2264;" horiz-adv-x="566" 
d="M67 368v98l422 140v-99l-291 -89l291 -89v-100zM67 104v96h422v-96h-422z" />
    <glyph glyph-name="greaterequal" unicode="&#x2265;" horiz-adv-x="566" 
d="M77 328l291 89l-291 90v99l422 -140v-98l-422 -139v99zM77 104v96h422v-96h-422z" />
    <glyph glyph-name="dotmath" unicode="&#x22c5;" horiz-adv-x="272" 
d="M57 298c0 22 8 41 23 56s34 22 56 22c21 0 40 -7 56 -22c15 -15 23 -34 23 -56s-8 -40 -23 -55c-16 -15 -35 -22 -56 -22c-22 0 -41 7 -56 22s-23 33 -23 55z" />
    <glyph glyph-name="uni24C5" unicode="&#x24c5;" horiz-adv-x="818" 
d="M124 355c0 -41 7 -80 22 -116s35 -67 60 -93c25 -27 55 -47 90 -62s72 -23 112 -23s77 8 112 23c34 15 64 35 90 62c25 26 45 57 60 93s22 75 22 116s-7 80 -22 116c-15 35 -35 66 -60 93c-26 26 -56 47 -90 62c-35 15 -72 22 -112 22s-77 -7 -112 -22s-65 -36 -90 -62
c-25 -27 -45 -58 -60 -93c-15 -36 -22 -75 -22 -116zM42 355c0 51 10 98 29 143s45 84 78 118c33 33 71 60 116 79s92 29 143 29s98 -10 143 -29s84 -46 117 -79c33 -34 60 -73 79 -118s29 -92 29 -143s-10 -99 -29 -144s-46 -84 -79 -118c-33 -33 -72 -60 -117 -79
s-92 -29 -143 -29s-98 10 -143 29s-83 46 -116 79c-33 34 -59 73 -78 118s-29 93 -29 144zM432 369c20 0 36 5 47 16c11 10 17 24 17 41s-6 31 -17 42s-27 16 -47 16h-61v-115h61zM371 296v-140h-86v401h162c19 0 37 -3 54 -10s31 -17 44 -28c12 -12 22 -26 29 -42
s10 -33 10 -51s-3 -35 -10 -50c-7 -16 -17 -30 -29 -42c-13 -12 -27 -21 -44 -28s-35 -10 -54 -10h-76z" />
    <glyph glyph-name="filledbox" unicode="&#x25a0;" horiz-adv-x="838" 
d="M67 709h704v-709h-704v709z" />
    <glyph glyph-name="H22073" unicode="&#x25a1;" horiz-adv-x="838" 
d="M67 0v709h704v-709h-704zM167 95h503v518h-503v-518z" />
    <glyph glyph-name="uni25AF" unicode="&#x25af;" horiz-adv-x="569" 
d="M67 0v709h435v-709h-435zM164 93h241v524h-241v-524z" />
    <glyph glyph-name="triagup" unicode="&#x25b2;" horiz-adv-x="882" 
d="M860 0h-838l420 724z" />
    <glyph glyph-name="uni25B3" unicode="&#x25b3;" horiz-adv-x="881" 
d="M859 0h-837l420 724zM441 525l-247 -430h493z" />
    <glyph glyph-name="lozenge" unicode="&#x25ca;" horiz-adv-x="582" 
d="M291 123l134 231l-134 232l-135 -232zM233 709h116l205 -355l-205 -354h-116l-205 354z" />
    <glyph glyph-name="circle" unicode="&#x25cb;" horiz-adv-x="825" 
d="M42 354c0 51 10 100 29 145s46 84 79 117s72 60 117 79s94 29 145 29s99 -10 144 -29s85 -46 118 -79c34 -33 61 -72 80 -117s29 -94 29 -145s-10 -99 -29 -144s-46 -84 -80 -117c-33 -33 -73 -60 -118 -79s-93 -29 -144 -29s-100 10 -145 29s-84 46 -117 79
s-60 72 -79 117s-29 93 -29 144zM143 354c0 -38 7 -73 21 -106s33 -62 58 -86c24 -25 52 -44 85 -58c33 -15 68 -22 105 -22s72 7 105 22c33 14 61 33 86 58c24 24 43 53 57 86s21 68 21 106s-7 74 -21 107s-33 61 -57 86c-25 24 -53 43 -86 57c-33 15 -68 22 -105 22
s-72 -7 -105 -22c-33 -14 -61 -33 -85 -57c-25 -25 -44 -53 -58 -86s-21 -69 -21 -107z" />
    <glyph glyph-name="H18533" unicode="&#x25cf;" horiz-adv-x="825" 
d="M42 354c0 51 10 100 29 145s46 84 79 117s72 60 117 79s94 29 145 29s99 -10 144 -29s85 -46 118 -79c34 -33 61 -72 80 -117s29 -94 29 -145s-10 -99 -29 -144s-46 -84 -80 -117c-33 -33 -73 -60 -118 -79s-93 -29 -144 -29s-100 10 -145 29s-84 46 -117 79
s-60 72 -79 117s-29 93 -29 144z" />
    <glyph glyph-name="uni262E" unicode="&#x262e;" horiz-adv-x="818" 
d="M776 355c0 -51 -10 -99 -29 -144s-45 -84 -78 -118c-33 -33 -72 -60 -117 -79s-93 -29 -144 -29s-98 10 -143 29s-84 46 -117 79c-33 34 -59 73 -78 118s-28 93 -28 144s9 98 28 143s45 84 78 118c33 33 72 60 117 79s92 29 143 29s99 -10 144 -29s84 -46 117 -79
c33 -34 59 -73 78 -118s29 -92 29 -143zM677 355c0 35 -6 67 -17 98c-11 30 -27 57 -46 81c-20 24 -43 44 -70 60s-57 27 -88 33v-215l192 -179c9 18 17 37 22 58c5 20 7 41 7 64zM138 355c0 -44 9 -84 28 -120l191 177v214c-31 -6 -60 -17 -87 -33s-51 -36 -70 -60
s-34 -51 -45 -81c-11 -31 -17 -63 -17 -97zM456 82c26 5 51 13 74 25s43 27 62 45l-136 130v-200zM221 153c37 -38 83 -62 136 -71v200z" />
    <glyph glyph-name="uni2713" unicode="&#x2713;" horiz-adv-x="964" 
d="M315 -17l-288 321l73 68l219 -239l551 594l71 -71z" />
    <glyph glyph-name="uni2715" unicode="&#x2715;" horiz-adv-x="771" 
d="M385 284l-285 -289l-70 71l284 289l-284 287l72 71l283 -287l282 287l71 -71l-283 -287l287 -289l-71 -71z" />
    <glyph glyph-name="uni2780" unicode="&#x2780;" horiz-adv-x="819" 
d="M124 355c0 -41 7 -80 22 -116s35 -67 61 -93c25 -27 55 -47 90 -62s72 -23 112 -23s77 8 112 23c34 15 64 35 90 62c25 26 45 57 60 93s22 75 22 116s-7 80 -22 116c-15 35 -35 66 -60 93c-26 26 -56 47 -90 62c-35 15 -72 22 -112 22s-77 -7 -112 -22s-65 -36 -90 -62
c-26 -27 -46 -58 -61 -93c-15 -36 -22 -75 -22 -116zM42 355c0 51 10 98 29 143s46 84 79 118c33 33 71 60 116 79s92 29 143 29s98 -10 143 -29s84 -46 117 -79c33 -34 60 -73 79 -118s29 -92 29 -143s-10 -99 -29 -144s-46 -84 -79 -118c-33 -33 -72 -60 -117 -79
s-92 -29 -143 -29s-98 10 -143 29s-83 46 -116 79c-33 34 -60 73 -79 118s-29 93 -29 144zM379 172v233h-89v60c29 1 51 9 68 24s27 31 30 49h82v-366h-91z" />
    <glyph glyph-name="uni2781" unicode="&#x2781;" horiz-adv-x="819" 
d="M124 355c0 -41 7 -80 22 -116s35 -67 61 -93c25 -27 55 -47 90 -62s72 -23 112 -23s77 8 112 23c34 15 64 35 90 62c25 26 45 57 60 93s22 75 22 116s-7 80 -22 116c-15 35 -35 66 -60 93c-26 26 -56 47 -90 62c-35 15 -72 22 -112 22s-77 -7 -112 -22s-65 -36 -90 -62
c-26 -27 -46 -58 -61 -93c-15 -36 -22 -75 -22 -116zM42 355c0 51 10 98 29 143s46 84 79 118c33 33 71 60 116 79s92 29 143 29s98 -10 143 -29s84 -46 117 -79c33 -34 60 -73 79 -118s29 -92 29 -143s-10 -99 -29 -144s-46 -84 -79 -118c-33 -33 -72 -60 -117 -79
s-92 -29 -143 -29s-98 10 -143 29s-83 46 -116 79c-33 34 -60 73 -79 118s-29 93 -29 144zM270 403c-2 10 -3 20 -3 30c0 16 3 31 9 46s15 28 27 39c11 11 26 19 43 26s37 10 59 10s42 -3 59 -9c17 -7 31 -15 43 -26c11 -11 20 -24 26 -38c6 -15 9 -30 9 -46
c0 -23 -7 -44 -20 -62c-13 -19 -32 -35 -55 -49l-71 -43c-11 -8 -18 -16 -20 -25h169v-76h-281v12c0 32 7 61 20 86s35 47 67 66l60 36c27 16 41 35 41 56c0 11 -4 22 -12 31s-20 13 -37 13c-16 0 -29 -5 -38 -14c-9 -10 -14 -23 -14 -38c0 -3 0 -6 1 -11c0 -5 1 -9 2 -13z
" />
    <glyph glyph-name="uni2782" unicode="&#x2782;" horiz-adv-x="819" 
d="M124 355c0 -41 7 -80 22 -116s35 -67 61 -93c25 -27 55 -47 90 -62s72 -23 112 -23s77 8 112 23c34 15 64 35 90 62c25 26 45 57 60 93s22 75 22 116s-7 80 -22 116c-15 35 -35 66 -60 93c-26 26 -56 47 -90 62c-35 15 -72 22 -112 22s-77 -7 -112 -22s-65 -36 -90 -62
c-26 -27 -46 -58 -61 -93c-15 -36 -22 -75 -22 -116zM42 355c0 51 10 98 29 143s46 84 79 118c33 33 71 60 116 79s92 29 143 29s98 -10 143 -29s84 -46 117 -79c33 -34 60 -73 79 -118s29 -92 29 -143s-10 -99 -29 -144s-46 -84 -79 -118c-33 -33 -72 -60 -117 -79
s-92 -29 -143 -29s-98 10 -143 29s-83 46 -116 79c-33 34 -60 73 -79 118s-29 93 -29 144zM333 295c3 -17 10 -30 23 -41c12 -11 27 -17 46 -17s34 5 45 15c11 9 16 21 16 34c0 19 -6 32 -19 40c-13 7 -27 11 -42 11c-11 0 -21 -2 -31 -6l-32 61l91 69h-164v75h279v-72
l-94 -69c30 -3 55 -14 74 -33s29 -44 29 -77c0 -17 -3 -32 -10 -47s-17 -28 -30 -39s-29 -20 -48 -27s-40 -10 -63 -10c-22 0 -42 3 -59 10c-18 6 -33 14 -45 24c-13 10 -23 22 -30 35c-8 13 -13 26 -16 40z" />
    <glyph glyph-name="uni2783" unicode="&#x2783;" horiz-adv-x="819" 
d="M124 355c0 -41 7 -80 22 -116s35 -67 61 -93c25 -27 55 -47 90 -62s72 -23 112 -23s77 8 112 23c34 15 64 35 90 62c25 26 45 57 60 93s22 75 22 116s-7 80 -22 116c-15 35 -35 66 -60 93c-26 26 -56 47 -90 62c-35 15 -72 22 -112 22s-77 -7 -112 -22s-65 -36 -90 -62
c-26 -27 -46 -58 -61 -93c-15 -36 -22 -75 -22 -116zM42 355c0 51 10 98 29 143s46 84 79 118c33 33 71 60 116 79s92 29 143 29s98 -10 143 -29s84 -46 117 -79c33 -34 60 -73 79 -118s29 -92 29 -143s-10 -99 -29 -144s-46 -84 -79 -118c-33 -33 -72 -60 -117 -79
s-92 -29 -143 -29s-98 10 -143 29s-83 46 -116 79c-33 34 -60 73 -79 118s-29 93 -29 144zM232 337l172 207h99v-222h62v-73h-62v-71h-90v71h-181v88zM413 447l-103 -125h103v125z" />
    <glyph glyph-name="uni2784" unicode="&#x2784;" horiz-adv-x="819" 
d="M124 355c0 -41 7 -80 22 -116s35 -67 61 -93c25 -27 55 -47 90 -62s72 -23 112 -23s77 8 112 23c34 15 64 35 90 62c25 26 45 57 60 93s22 75 22 116s-7 80 -22 116c-15 35 -35 66 -60 93c-26 26 -56 47 -90 62c-35 15 -72 22 -112 22s-77 -7 -112 -22s-65 -36 -90 -62
c-26 -27 -46 -58 -61 -93c-15 -36 -22 -75 -22 -116zM42 355c0 51 10 98 29 143s46 84 79 118c33 33 71 60 116 79s92 29 143 29s98 -10 143 -29s84 -46 117 -79c33 -34 60 -73 79 -118s29 -92 29 -143s-10 -99 -29 -144s-46 -84 -79 -118c-33 -33 -72 -60 -117 -79
s-92 -29 -143 -29s-98 10 -143 29s-83 46 -116 79c-33 34 -60 73 -79 118s-29 93 -29 144zM332 288c3 -16 11 -29 23 -38s26 -14 43 -14s31 5 42 14s17 22 17 39c0 19 -6 34 -17 43s-26 13 -43 13c-12 0 -23 -2 -33 -6c-9 -5 -18 -11 -25 -18l-74 24l47 188h214v-75h-158
l-19 -73c9 9 19 15 32 19s27 6 40 6c38 0 68 -10 91 -31s35 -51 35 -88c0 -18 -3 -35 -10 -51s-16 -30 -29 -41c-12 -12 -27 -21 -46 -28s-40 -11 -64 -11c-19 0 -37 3 -53 9c-17 5 -31 13 -44 22s-23 20 -31 33c-9 12 -14 25 -17 39z" />
    <glyph glyph-name="uni2785" unicode="&#x2785;" horiz-adv-x="819" 
d="M124 355c0 -41 7 -80 22 -116s35 -67 61 -93c25 -27 55 -47 90 -62s72 -23 112 -23s77 8 112 23c34 15 64 35 90 62c25 26 45 57 60 93s22 75 22 116s-7 80 -22 116c-15 35 -35 66 -60 93c-26 26 -56 47 -90 62c-35 15 -72 22 -112 22s-77 -7 -112 -22s-65 -36 -90 -62
c-26 -27 -46 -58 -61 -93c-15 -36 -22 -75 -22 -116zM42 355c0 51 10 98 29 143s46 84 79 118c33 33 71 60 116 79s92 29 143 29s98 -10 143 -29s84 -46 117 -79c33 -34 60 -73 79 -118s29 -92 29 -143s-10 -99 -29 -144s-46 -84 -79 -118c-33 -33 -72 -60 -117 -79
s-92 -29 -143 -29s-98 10 -143 29s-83 46 -116 79c-33 34 -60 73 -79 118s-29 93 -29 144zM516 461c-19 8 -41 12 -64 12c-29 0 -54 -7 -76 -22s-36 -38 -43 -70c9 11 22 20 38 27c15 7 32 10 49 10c38 0 69 -10 94 -31c24 -21 36 -51 36 -91c0 -19 -4 -37 -11 -54
c-8 -16 -19 -30 -32 -41s-29 -20 -48 -27c-19 -6 -39 -9 -61 -9c-20 0 -39 3 -58 10s-36 18 -50 32c-15 14 -26 31 -35 52s-13 46 -13 74c0 33 5 62 16 89c10 27 24 49 43 67c18 19 40 33 65 43s51 15 80 15c16 0 32 -2 47 -5s29 -8 41 -13zM338 294c0 -17 6 -31 19 -41
c13 -9 27 -14 42 -14s29 5 41 14c13 10 19 24 19 41s-6 31 -19 41c-12 10 -26 15 -41 15s-29 -5 -42 -15s-19 -24 -19 -41z" />
    <glyph glyph-name="uni2786" unicode="&#x2786;" horiz-adv-x="819" 
d="M124 355c0 -41 7 -80 22 -116s35 -67 61 -93c25 -27 55 -47 90 -62s72 -23 112 -23s77 8 112 23c34 15 64 35 90 62c25 26 45 57 60 93s22 75 22 116s-7 80 -22 116c-15 35 -35 66 -60 93c-26 26 -56 47 -90 62c-35 15 -72 22 -112 22s-77 -7 -112 -22s-65 -36 -90 -62
c-26 -27 -46 -58 -61 -93c-15 -36 -22 -75 -22 -116zM42 355c0 51 10 98 29 143s46 84 79 118c33 33 71 60 116 79s92 29 143 29s98 -10 143 -29s84 -46 117 -79c33 -34 60 -73 79 -118s29 -92 29 -143s-10 -99 -29 -144s-46 -84 -79 -118c-33 -33 -72 -60 -117 -79
s-92 -29 -143 -29s-98 10 -143 29s-83 46 -116 79c-33 34 -60 73 -79 118s-29 93 -29 144zM560 454c-9 -7 -20 -17 -35 -31s-31 -33 -46 -56s-29 -52 -42 -85s-21 -72 -25 -117h-96c4 47 13 89 28 125c14 36 29 66 44 91c18 29 38 53 60 74h-191v76h303v-77z" />
    <glyph glyph-name="uni2787" unicode="&#x2787;" horiz-adv-x="819" 
d="M124 355c0 -41 7 -80 22 -116s35 -67 61 -93c25 -27 55 -47 90 -62s72 -23 112 -23s77 8 112 23c34 15 64 35 90 62c25 26 45 57 60 93s22 75 22 116s-7 80 -22 116c-15 35 -35 66 -60 93c-26 26 -56 47 -90 62c-35 15 -72 22 -112 22s-77 -7 -112 -22s-65 -36 -90 -62
c-26 -27 -46 -58 -61 -93c-15 -36 -22 -75 -22 -116zM42 355c0 51 10 98 29 143s46 84 79 118c33 33 71 60 116 79s92 29 143 29s98 -10 143 -29s84 -46 117 -79c33 -34 60 -73 79 -118s29 -92 29 -143s-10 -99 -29 -144s-46 -84 -79 -118c-33 -33 -72 -60 -117 -79
s-92 -29 -143 -29s-98 10 -143 29s-83 46 -116 79c-33 34 -60 73 -79 118s-29 93 -29 144zM409 392c16 0 28 4 37 13c9 8 13 18 13 30c0 11 -4 20 -12 28c-9 8 -21 12 -38 12s-29 -4 -38 -12s-13 -17 -13 -28c0 -12 5 -22 14 -30c9 -9 21 -13 37 -13zM409 238
c21 0 36 4 46 13c9 9 14 20 14 33c0 12 -5 22 -15 31s-25 13 -45 13s-35 -4 -45 -13c-11 -9 -16 -19 -16 -31c0 -13 5 -24 15 -33s25 -13 46 -13zM409 165c-48 0 -85 10 -112 30c-26 21 -39 47 -39 79c0 19 6 37 19 52c13 16 31 28 52 35c-19 7 -34 18 -44 33
c-11 15 -16 31 -16 48c0 31 13 56 38 76c25 19 59 29 102 29s77 -10 102 -29c25 -20 37 -45 37 -76c0 -17 -5 -33 -15 -48s-25 -26 -44 -33c21 -7 39 -19 52 -34s19 -32 19 -51c0 -32 -13 -58 -39 -79s-63 -32 -112 -32z" />
    <glyph glyph-name="uni2788" unicode="&#x2788;" horiz-adv-x="819" 
d="M124 355c0 -41 7 -80 22 -116s35 -67 61 -93c25 -27 55 -47 90 -62s72 -23 112 -23s77 8 112 23c34 15 64 35 90 62c25 26 45 57 60 93s22 75 22 116s-7 80 -22 116c-15 35 -35 66 -60 93c-26 26 -56 47 -90 62c-35 15 -72 22 -112 22s-77 -7 -112 -22s-65 -36 -90 -62
c-26 -27 -46 -58 -61 -93c-15 -36 -22 -75 -22 -116zM42 355c0 51 10 98 29 143s46 84 79 118c33 33 71 60 116 79s92 29 143 29s98 -10 143 -29s84 -46 117 -79c33 -34 60 -73 79 -118s29 -92 29 -143s-10 -99 -29 -144s-46 -84 -79 -118c-33 -33 -72 -60 -117 -79
s-92 -29 -143 -29s-98 10 -143 29s-83 46 -116 79c-33 34 -60 73 -79 118s-29 93 -29 144zM296 251c9 -3 19 -6 30 -9c10 -3 21 -4 32 -4c30 0 56 7 79 21s37 38 42 71c-9 -11 -22 -20 -38 -27s-33 -10 -50 -10c-18 0 -35 3 -50 8c-16 5 -30 13 -42 24c-12 10 -21 23 -28 38
s-11 33 -11 52s4 37 11 53s18 30 32 41c13 12 29 21 48 27c19 7 39 10 61 10c20 0 39 -4 58 -11s35 -17 50 -30c14 -13 25 -30 34 -51s13 -44 13 -71c0 -35 -5 -67 -15 -94s-24 -50 -41 -68c-17 -19 -38 -33 -63 -42c-25 -10 -51 -15 -80 -15c-16 0 -32 2 -47 5
c-16 3 -30 7 -42 12zM470 416c0 17 -6 31 -18 41s-26 15 -43 15c-16 0 -30 -5 -42 -15s-18 -24 -18 -41s6 -31 18 -41s26 -15 42 -15c17 0 31 5 43 15s18 24 18 41z" />
    <glyph glyph-name="uniE000" unicode="&#xe000;" horiz-adv-x="789" 
d="M28 225h157v484h572v-100h-471v-384h156l-207 -241z" />
    <glyph glyph-name="uniE002" unicode="&#xe002;" horiz-adv-x="962" 
d="M737 586l199 -232h-142c0 -51 -10 -99 -29 -144s-46 -84 -79 -117s-72 -60 -117 -79s-94 -29 -145 -29s-99 10 -144 29s-84 46 -117 79s-60 72 -79 117s-29 93 -29 144s10 100 29 145s46 84 79 117s72 60 117 79s93 29 144 29c61 0 117 -13 169 -40l-42 -91
c-39 21 -81 31 -126 31c-37 0 -72 -7 -105 -21s-61 -33 -85 -57c-25 -25 -44 -53 -58 -86s-21 -69 -21 -106s7 -72 21 -105s33 -62 58 -87c24 -25 52 -44 85 -58s68 -21 105 -21s72 7 105 21s61 33 85 58s43 54 57 87s21 68 21 105h-154z" />
    <glyph glyph-name="uniF4D2" unicode="&#xf4d2;" horiz-adv-x="805" 
d="M763 355c0 -58 -10 -110 -30 -155c-20 -46 -47 -85 -80 -117c-34 -32 -73 -56 -116 -73s-88 -25 -134 -25c-47 0 -92 8 -135 25s-82 41 -115 73c-34 32 -61 71 -81 117c-20 45 -30 97 -30 155s10 110 30 156c20 45 47 84 81 116c33 31 72 55 115 72s88 25 135 25
c46 0 91 -8 134 -25s82 -41 116 -72c33 -32 60 -71 80 -116c20 -46 30 -98 30 -156zM166 355c0 -43 7 -80 20 -112s31 -58 53 -79c23 -21 48 -37 76 -48c29 -11 58 -16 88 -16s59 5 87 16c29 11 54 27 76 48s40 47 53 79s20 69 20 112s-7 80 -20 112s-31 59 -53 80
s-47 36 -76 47c-28 11 -57 16 -87 16s-59 -5 -88 -16c-28 -11 -53 -26 -76 -47c-22 -21 -40 -48 -53 -80s-20 -69 -20 -112zM367 759l-132 148h139l89 -148h-96z" />
    <glyph glyph-name="uniF4D3" unicode="&#xf4d3;" horiz-adv-x="579" 
d="M542 244c0 -37 -6 -72 -19 -103c-13 -32 -30 -59 -53 -82s-49 -41 -80 -54c-31 -14 -64 -20 -101 -20c-36 0 -70 6 -101 20c-31 13 -57 31 -80 54c-22 23 -39 50 -52 82c-13 31 -19 66 -19 103s6 72 19 103s30 58 52 81c23 23 49 41 80 54s65 20 101 20
c37 0 70 -7 101 -20s57 -31 80 -54s40 -50 53 -81s19 -66 19 -103zM154 244c0 -25 4 -47 11 -66s17 -35 30 -48s27 -23 43 -30s33 -10 51 -10s35 3 52 10c16 7 30 17 43 30s23 29 30 48s11 41 11 66s-4 48 -11 67s-17 35 -30 48s-27 22 -43 29c-17 6 -34 9 -52 9
s-35 -3 -51 -9c-16 -7 -30 -16 -43 -29s-23 -29 -30 -48s-11 -42 -11 -67zM251 548l-132 148h139l89 -148h-96z" />
    <glyph glyph-name="uniFEFF" unicode="&#xfeff;" horiz-adv-x="0" 
 />
    <glyph glyph-name="Euro.ss08" horiz-adv-x="672" 
d="M120 287c-1 5 -1 10 -1 17c-1 6 -1 12 -1 19c0 8 0 15 1 20c0 5 0 11 1 16h-77v87h94c12 35 29 66 50 93s46 49 74 68c27 19 57 33 90 42c32 9 65 14 98 14c69 0 126 -15 171 -46l-46 -93c-17 12 -35 21 -56 27c-21 5 -44 8 -69 8c-39 0 -75 -9 -109 -27
c-33 -19 -59 -47 -78 -86h275l-42 -87h-256c-1 -4 -1 -9 -2 -14v-21v-23c1 -6 1 -11 2 -14h226l-41 -88h-161c19 -37 44 -64 77 -82c33 -17 69 -26 108 -26c28 0 54 4 77 12c24 8 45 20 62 36l56 -86c-23 -20 -52 -36 -85 -49s-70 -19 -110 -19c-34 0 -67 5 -99 14
s-62 23 -89 41s-51 40 -72 67s-38 57 -50 92h-95v88h77z" />
    <glyph glyph-name="Euro.tf" 
d="M554 9c-17 -7 -35 -12 -54 -17c-19 -4 -42 -6 -68 -6c-41 0 -78 6 -113 17c-35 12 -66 29 -93 50s-51 47 -70 77s-34 63 -44 100h-89v89h74c-1 5 -1 10 -1 15v15v19c0 6 0 12 1 17h-74v89h90c11 38 26 72 47 103s45 57 74 78c28 21 60 38 95 49c35 12 72 18 112 18
c27 0 51 -2 70 -7s36 -10 49 -15l-32 -100c-9 3 -20 7 -35 10c-15 4 -32 6 -53 6c-49 0 -91 -13 -126 -38s-60 -59 -77 -104h247l-26 -89h-241c-1 -5 -1 -11 -1 -16v-17v-16c0 -6 0 -12 1 -17h222l-26 -89h-177c15 -43 40 -76 75 -100c34 -24 77 -36 129 -36
c33 0 62 4 87 13z" />
    <glyph glyph-name="Euro.tf.ss08" 
d="M104 287c-1 5 -1 11 -1 17c-1 6 -1 13 -1 20s0 14 1 20c0 7 0 12 1 15h-70v87h87c12 35 29 65 50 92s46 50 74 69c27 19 57 33 90 42c32 9 65 14 98 14c28 0 50 -2 67 -5s33 -8 48 -14l-28 -99c-9 3 -21 6 -35 9s-31 5 -52 5c-39 0 -75 -9 -108 -28
c-33 -18 -59 -46 -78 -85h244l-26 -87h-241c-1 -3 -1 -8 -1 -13c-1 -5 -1 -13 -1 -22c0 -7 0 -14 1 -21c0 -6 0 -11 1 -16h225l-25 -88h-175c19 -36 45 -63 78 -81c33 -17 68 -26 107 -26c21 0 38 1 52 4s26 6 35 9l27 -98c-14 -6 -30 -11 -48 -15s-40 -6 -66 -6
c-34 0 -67 4 -99 13s-62 23 -89 41c-28 18 -53 40 -74 67s-38 57 -50 92h-88v88h70z" />
    <glyph glyph-name="G.ss01" horiz-adv-x="774" 
d="M405 -15c-47 0 -93 9 -136 26s-82 41 -115 73s-60 71 -80 117c-20 45 -30 97 -30 154s10 109 30 155c20 45 47 84 80 116c33 31 72 56 115 73s88 25 135 25c44 0 84 -6 120 -18c35 -12 67 -28 94 -49s50 -46 68 -73c18 -28 31 -57 39 -88l-115 -35c-6 21 -14 41 -25 60
c-11 18 -25 34 -42 48c-17 13 -37 24 -60 32s-50 12 -79 12c-30 0 -59 -5 -88 -15c-29 -11 -54 -26 -76 -47s-40 -48 -53 -81c-14 -33 -21 -71 -21 -115c0 -43 7 -81 20 -113c13 -33 31 -60 53 -81c22 -22 47 -38 76 -49s59 -17 90 -17c28 0 54 4 77 12c23 7 44 18 62 31
s33 30 44 49s19 39 23 61h-267v106h390c1 -7 2 -13 2 -20v-20c0 -45 -7 -88 -22 -127c-15 -40 -36 -75 -64 -105s-63 -54 -104 -71s-88 -26 -141 -26z" />
    <glyph glyph-name="Ldot.latn_CAT" horiz-adv-x="558" 
d="M301 390c0 19 7 36 21 50c14 13 31 20 50 20s36 -7 50 -20c14 -14 21 -31 21 -50s-7 -36 -21 -49c-14 -14 -31 -21 -50 -21s-36 7 -50 21c-14 13 -21 30 -21 49zM89 0v709h120v-595h325v-114h-445z" />
    <glyph glyph-name="a.ordn" horiz-adv-x="378" 
d="M33 459c0 31 10 54 30 71s44 28 73 32l86 13c9 1 16 4 20 9s6 10 6 15c0 13 -5 24 -15 33s-25 14 -46 14c-20 0 -36 -6 -47 -17s-18 -25 -19 -40l-81 17c1 14 6 28 13 41c7 14 16 26 29 36c13 11 28 19 45 26s37 10 60 10c27 0 50 -4 69 -11s34 -16 46 -28
c11 -12 20 -26 25 -42c5 -15 8 -32 8 -49v-169c0 -14 1 -26 2 -37c1 -10 1 -16 2 -18h-82c-1 1 -1 6 -2 13c-1 8 -2 18 -2 29c-9 -13 -21 -25 -38 -36s-38 -16 -64 -16c-18 0 -34 3 -49 8c-15 6 -27 14 -38 24c-10 9 -18 20 -23 33c-5 12 -8 25 -8 39zM170 423
c10 0 20 1 29 4s18 7 25 13c7 7 13 15 17 26c5 11 7 24 7 39v15l-82 -12c-12 -2 -22 -7 -31 -14c-8 -7 -12 -17 -12 -30c0 -11 4 -20 11 -29c8 -8 20 -12 36 -12z" />
    <glyph glyph-name="a.ordn.ss08" horiz-adv-x="384" 
d="M32 398c0 31 10 54 30 71s44 28 73 32l86 13c9 1 16 4 20 9s6 10 6 15c0 13 -5 24 -15 33s-25 14 -46 14c-20 0 -36 -6 -47 -17s-18 -25 -19 -40l-81 17c1 14 6 28 13 41c7 14 16 26 29 36c13 11 28 19 45 26s37 10 60 10c27 0 50 -4 69 -11s34 -16 46 -28
c11 -12 20 -26 25 -42c5 -15 8 -32 8 -49v-169c0 -14 1 -26 2 -37c1 -10 1 -16 2 -18h-82c-1 1 -1 6 -2 13c-1 8 -2 18 -2 29c-9 -13 -21 -25 -38 -36s-38 -16 -64 -16c-18 0 -34 3 -49 8c-15 6 -27 14 -38 24c-10 9 -18 20 -23 33c-5 12 -8 25 -8 39zM169 362
c10 0 20 1 29 4s18 7 25 13c7 7 13 15 17 26c5 11 7 24 7 39v15l-82 -12c-12 -2 -22 -7 -31 -14c-8 -7 -12 -17 -12 -30c0 -11 4 -20 11 -29c8 -8 20 -12 36 -12z" />
    <glyph glyph-name="a.ss02" horiz-adv-x="602" 
d="M157 246c0 -47 12 -85 36 -114c23 -30 55 -45 96 -45c19 0 36 4 52 12c16 7 30 18 41 32s20 31 27 51c6 19 9 41 9 64c0 47 -12 85 -35 113c-24 27 -55 41 -94 41s-71 -14 -95 -41c-25 -28 -37 -66 -37 -113zM419 70c-11 -23 -29 -43 -53 -59c-25 -16 -55 -24 -90 -24
c-36 0 -68 7 -97 20s-53 32 -74 55s-36 51 -47 82s-17 65 -17 102c0 35 6 69 17 100s26 58 47 81s45 41 74 54c28 13 60 20 95 20c21 0 40 -2 57 -7c16 -5 30 -12 42 -19c11 -8 21 -17 28 -26s13 -18 16 -26v64h113v-398c0 -20 1 -38 2 -55s2 -29 3 -34h-111
c-1 5 -2 14 -3 27c-1 12 -2 26 -2 43z" />
    <glyph glyph-name="aacute.ss02" horiz-adv-x="602" 
d="M310 548h-95l89 148h137zM157 246c0 -47 12 -85 36 -114c23 -30 55 -45 96 -45c19 0 36 4 52 12c16 7 30 18 41 32s20 31 27 51c6 19 9 41 9 64c0 47 -12 85 -35 113c-24 27 -55 41 -94 41s-71 -14 -95 -41c-25 -28 -37 -66 -37 -113zM419 70c-11 -23 -29 -43 -53 -59
c-25 -16 -55 -24 -90 -24c-36 0 -68 7 -97 20s-53 32 -74 55s-36 51 -47 82s-17 65 -17 102c0 35 6 69 17 100s26 58 47 81s45 41 74 54c28 13 60 20 95 20c21 0 40 -2 57 -7c16 -5 30 -12 42 -19c11 -8 21 -17 28 -26s13 -18 16 -26v64h113v-398c0 -20 1 -38 2 -55
s2 -29 3 -34h-111c-1 5 -2 14 -3 27c-1 12 -2 26 -2 43z" />
    <glyph glyph-name="acircumflex.ss02" horiz-adv-x="602" 
d="M129 549l107 143h121l108 -143h-99l-70 77l-70 -77h-97zM157 246c0 -47 12 -85 36 -114c23 -30 55 -45 96 -45c19 0 36 4 52 12c16 7 30 18 41 32s20 31 27 51c6 19 9 41 9 64c0 47 -12 85 -35 113c-24 27 -55 41 -94 41s-71 -14 -95 -41c-25 -28 -37 -66 -37 -113z
M419 70c-11 -23 -29 -43 -53 -59c-25 -16 -55 -24 -90 -24c-36 0 -68 7 -97 20s-53 32 -74 55s-36 51 -47 82s-17 65 -17 102c0 35 6 69 17 100s26 58 47 81s45 41 74 54c28 13 60 20 95 20c21 0 40 -2 57 -7c16 -5 30 -12 42 -19c11 -8 21 -17 28 -26s13 -18 16 -26v64h113
v-398c0 -20 1 -38 2 -55s2 -29 3 -34h-111c-1 5 -2 14 -3 27c-1 12 -2 26 -2 43z" />
    <glyph glyph-name="acute.uc" horiz-adv-x="283" 
d="M128 759h-109l102 124h149z" />
    <glyph glyph-name="adieresis.ss02" horiz-adv-x="602" 
d="M124 625c0 18 6 33 19 46c12 13 27 19 45 19c19 0 34 -6 47 -19s19 -28 19 -46c0 -19 -6 -34 -19 -46c-13 -13 -28 -19 -47 -19c-18 0 -33 6 -45 19c-13 12 -19 27 -19 46zM324 625c0 18 6 33 19 46c12 13 27 19 45 19s33 -6 46 -19s19 -28 19 -46c0 -19 -6 -34 -19 -46
c-13 -13 -28 -19 -46 -19s-33 6 -45 19c-13 12 -19 27 -19 46zM157 246c0 -47 12 -85 36 -114c23 -30 55 -45 96 -45c19 0 36 4 52 12c16 7 30 18 41 32s20 31 27 51c6 19 9 41 9 64c0 47 -12 85 -35 113c-24 27 -55 41 -94 41s-71 -14 -95 -41c-25 -28 -37 -66 -37 -113z
M419 70c-11 -23 -29 -43 -53 -59c-25 -16 -55 -24 -90 -24c-36 0 -68 7 -97 20s-53 32 -74 55s-36 51 -47 82s-17 65 -17 102c0 35 6 69 17 100s26 58 47 81s45 41 74 54c28 13 60 20 95 20c21 0 40 -2 57 -7c16 -5 30 -12 42 -19c11 -8 21 -17 28 -26s13 -18 16 -26v64h113
v-398c0 -20 1 -38 2 -55s2 -29 3 -34h-111c-1 5 -2 14 -3 27c-1 12 -2 26 -2 43z" />
    <glyph glyph-name="agrave.ss02" horiz-adv-x="602" 
d="M157 246c0 -47 12 -85 36 -114c23 -30 55 -45 96 -45c19 0 36 4 52 12c16 7 30 18 41 32s20 31 27 51c6 19 9 41 9 64c0 47 -12 85 -35 113c-24 27 -55 41 -94 41s-71 -14 -95 -41c-25 -28 -37 -66 -37 -113zM419 70c-11 -23 -29 -43 -53 -59c-25 -16 -55 -24 -90 -24
c-36 0 -68 7 -97 20s-53 32 -74 55s-36 51 -47 82s-17 65 -17 102c0 35 6 69 17 100s26 58 47 81s45 41 74 54c28 13 60 20 95 20c21 0 40 -2 57 -7c16 -5 30 -12 42 -19c11 -8 21 -17 28 -26s13 -18 16 -26v64h113v-398c0 -20 1 -38 2 -55s2 -29 3 -34h-111
c-1 5 -2 14 -3 27c-1 12 -2 26 -2 43zM119 696h139l88 -148h-95z" />
    <glyph glyph-name="ampersand.ss04" horiz-adv-x="680" 
d="M371 340h283v-103h-79v-6c-1 -33 -7 -65 -18 -95c-12 -30 -29 -56 -52 -79c-23 -22 -50 -40 -83 -53s-70 -19 -113 -19c-40 0 -76 5 -109 16s-60 25 -83 44s-41 42 -53 67c-13 26 -19 54 -19 85c0 25 4 48 13 69c8 21 19 40 32 56s29 29 47 40c17 11 35 19 53 24
c-31 11 -57 29 -78 55c-21 27 -32 59 -32 97c0 26 5 50 16 73s26 42 45 59s42 30 69 40c26 9 55 14 86 14c39 0 73 -5 101 -16s51 -26 70 -44c18 -19 32 -40 41 -63s14 -47 16 -72l-117 -16c-1 33 -11 60 -29 80c-18 19 -45 29 -81 29c-13 0 -25 -2 -37 -6
c-12 -5 -22 -11 -31 -18c-9 -8 -17 -17 -22 -28s-8 -24 -8 -37c0 -16 3 -30 10 -42s15 -22 25 -29c10 -8 21 -14 33 -17c11 -4 22 -6 32 -6h12v-103c-16 0 -32 -2 -49 -6c-17 -5 -33 -12 -47 -22s-25 -23 -34 -39c-9 -17 -14 -37 -14 -61c0 -15 3 -29 9 -43
c5 -15 14 -27 26 -38s27 -20 45 -27s39 -10 64 -10c44 0 79 13 104 38s38 59 39 103v6h-83v103z" />
    <glyph glyph-name="approxequal.ss08" horiz-adv-x="624" 
d="M570 395c-19 -30 -41 -53 -68 -69c-27 -15 -56 -23 -87 -23c-17 0 -35 2 -52 7s-34 12 -53 23l-47 26c-19 10 -39 15 -58 15c-16 0 -32 -4 -47 -12c-15 -7 -28 -19 -41 -34l-64 54c19 30 42 53 68 69s54 24 85 24c19 0 37 -3 53 -8s34 -12 53 -22l47 -25
c13 -7 25 -12 34 -14c10 -3 20 -4 31 -4c32 0 60 15 84 45zM570 197c-19 -30 -42 -53 -68 -69c-26 -15 -54 -23 -85 -23c-18 0 -36 2 -53 7s-35 12 -54 23l-47 26c-9 5 -19 9 -28 11s-18 3 -27 4c-17 0 -34 -4 -49 -11s-29 -19 -42 -35l-64 54c19 30 42 53 68 69
s55 24 86 24c33 0 68 -10 105 -30l47 -25c11 -5 21 -10 30 -13c10 -3 21 -5 33 -5c16 0 31 4 46 11s28 19 40 35z" />
    <glyph glyph-name="approxequal.tf" 
d="M548 254c-19 -30 -41 -53 -68 -69c-27 -15 -56 -23 -87 -23c-17 0 -35 2 -52 7s-34 12 -53 23l-47 26c-19 10 -39 15 -58 15c-33 0 -63 -15 -88 -46l-64 54c19 30 41 53 67 69s55 24 86 24c33 0 69 -10 106 -30l47 -25c21 -12 42 -18 63 -18c16 0 31 4 46 11s28 19 40 35
zM548 452c-19 -30 -41 -53 -67 -69c-27 -15 -56 -23 -88 -24c-33 0 -68 10 -105 31l-47 26c-19 10 -38 15 -57 15c-34 0 -64 -15 -89 -46l-64 54c19 30 42 53 68 69c26 17 55 25 86 25c17 0 35 -3 52 -8s34 -13 53 -23l47 -25c11 -5 21 -10 32 -13c10 -3 20 -5 31 -5
c16 0 31 4 46 11s28 19 40 35z" />
    <glyph glyph-name="approxequal.tf.ss08" 
d="M547 395c-19 -30 -41 -53 -68 -69c-27 -15 -56 -23 -87 -23c-17 0 -35 2 -52 7s-34 12 -53 23l-47 26c-19 10 -39 15 -58 15c-16 0 -31 -4 -46 -11c-15 -8 -29 -20 -42 -35l-64 54c19 30 42 53 68 69s55 24 86 24c33 0 68 -10 105 -30l47 -25c11 -5 21 -10 32 -13
c10 -3 20 -5 31 -5c16 0 31 4 46 11s28 19 40 34zM547 197c-19 -30 -41 -53 -68 -69c-27 -15 -56 -23 -87 -23c-34 0 -69 10 -105 30l-47 26c-10 5 -20 9 -30 11c-9 2 -19 3 -28 4c-16 0 -32 -4 -47 -12c-15 -7 -29 -19 -41 -34l-64 54c19 30 42 53 67 69c26 16 54 24 85 24
c18 0 36 -3 53 -8s35 -12 54 -22l47 -25c11 -5 21 -10 32 -13c10 -3 20 -5 31 -5c16 0 31 4 46 11s28 19 40 35z" />
    <glyph glyph-name="aring.ss02" horiz-adv-x="602" 
d="M157 246c0 -47 12 -85 36 -114c23 -30 55 -45 96 -45c19 0 36 4 52 12c16 7 30 18 41 32s20 31 27 51c6 19 9 41 9 64c0 47 -12 85 -35 113c-24 27 -55 41 -94 41s-71 -14 -95 -41c-25 -28 -37 -66 -37 -113zM419 70c-11 -23 -29 -43 -53 -59c-25 -16 -55 -24 -90 -24
c-36 0 -68 7 -97 20s-53 32 -74 55s-36 51 -47 82s-17 65 -17 102c0 35 6 69 17 100s26 58 47 81s45 41 74 54c28 13 60 20 95 20c21 0 40 -2 57 -7c16 -5 30 -12 42 -19c11 -8 21 -17 28 -26s13 -18 16 -26v64h113v-398c0 -20 1 -38 2 -55s2 -29 3 -34h-111
c-1 5 -2 14 -3 27c-1 12 -2 26 -2 43zM398 639c0 -16 -3 -31 -9 -44s-14 -25 -25 -34c-11 -10 -23 -18 -36 -23c-14 -6 -29 -9 -44 -9s-30 3 -43 9c-13 5 -25 13 -36 23c-11 9 -19 21 -25 34s-9 28 -9 44s3 31 9 45c6 13 14 25 25 35c11 9 23 17 36 23c13 5 28 8 43 8
s30 -3 44 -8c13 -6 25 -14 36 -23c11 -10 19 -22 25 -35c6 -14 9 -29 9 -45zM328 639c0 13 -4 24 -12 33c-9 8 -20 12 -33 12c-12 0 -22 -4 -30 -12c-9 -9 -13 -20 -13 -33s4 -23 13 -31c8 -9 18 -13 30 -13c13 0 24 4 33 13c8 8 12 18 12 31z" />
    <glyph glyph-name="atilde.ss02" horiz-adv-x="602" 
d="M157 246c0 -47 12 -85 36 -114c23 -30 55 -45 96 -45c19 0 36 4 52 12c16 7 30 18 41 32s20 31 27 51c6 19 9 41 9 64c0 47 -12 85 -35 113c-24 27 -55 41 -94 41s-71 -14 -95 -41c-25 -28 -37 -66 -37 -113zM419 70c-11 -23 -29 -43 -53 -59c-25 -16 -55 -24 -90 -24
c-36 0 -68 7 -97 20s-53 32 -74 55s-36 51 -47 82s-17 65 -17 102c0 35 6 69 17 100s26 58 47 81s45 41 74 54c28 13 60 20 95 20c21 0 40 -2 57 -7c16 -5 30 -12 42 -19c11 -8 21 -17 28 -26s13 -18 16 -26v64h113v-398c0 -20 1 -38 2 -55s2 -29 3 -34h-111
c-1 5 -2 14 -3 27c-1 12 -2 26 -2 43zM129 574c0 39 10 68 30 87c19 19 44 28 73 28c15 0 28 -2 39 -6c11 -5 21 -10 31 -16l10 -6c7 -5 15 -9 22 -12s14 -5 21 -5c21 0 31 15 31 44h76v-17c0 -39 -10 -69 -29 -88s-44 -29 -73 -29c-15 0 -28 2 -39 7s-22 10 -32 16l-10 6
c-7 5 -14 9 -21 12s-15 4 -22 4c-10 0 -17 -3 -22 -10s-8 -18 -8 -33h-76z" />
    <glyph glyph-name="b.ordn" horiz-adv-x="438" 
d="M53 365v507h89v-203c7 13 20 25 39 34c18 9 40 14 66 14c25 0 48 -4 68 -13c19 -9 36 -22 49 -38s24 -35 31 -57s10 -46 10 -71c0 -26 -4 -50 -11 -72c-8 -22 -19 -41 -33 -57c-14 -17 -31 -29 -50 -38c-20 -9 -42 -14 -67 -14s-46 5 -63 14s-31 22 -40 37v-43h-88z
M315 538c0 32 -8 57 -25 74s-37 25 -62 25c-24 0 -44 -8 -61 -25s-26 -42 -26 -74c0 -33 9 -58 26 -75s37 -26 61 -26c25 0 45 9 62 26s25 42 25 75z" />
    <glyph glyph-name="b.ordn.ss08" horiz-adv-x="437" 
d="M53 304v507h89v-203c7 13 20 25 39 34c18 9 40 14 66 14c25 0 48 -4 68 -13c19 -9 36 -22 49 -38s24 -35 31 -57s10 -46 10 -71c0 -26 -4 -50 -11 -72c-8 -22 -19 -41 -33 -57c-14 -17 -31 -29 -50 -38c-20 -9 -42 -14 -67 -14s-46 5 -63 14s-31 22 -40 37v-43h-88z
M315 477c0 32 -8 57 -25 74s-37 25 -62 25c-24 0 -44 -8 -61 -25s-26 -42 -26 -74c0 -33 9 -58 26 -75s37 -26 61 -26c25 0 45 9 62 26s25 42 25 75z" />
    <glyph glyph-name="braceleft.case" horiz-adv-x="375" 
d="M23 404c29 0 53 7 74 22s31 40 31 75v118c0 65 16 113 49 144s79 46 138 46h23v-89h-22c-30 0 -52 -7 -67 -22s-23 -40 -23 -75v-144c0 -33 -9 -60 -27 -82c-18 -21 -43 -36 -75 -43c32 -7 57 -22 75 -43s27 -48 27 -81v-144c0 -35 8 -59 23 -74s37 -22 67 -22h22v-89
h-23c-59 0 -105 15 -138 46s-49 79 -49 144v117c0 35 -10 59 -31 74s-45 22 -74 22v100z" />
    <glyph glyph-name="braceright.case" horiz-adv-x="375" 
d="M352 304c-29 0 -53 -7 -74 -22s-31 -39 -31 -74v-117c0 -65 -16 -113 -49 -144s-79 -46 -138 -46h-23v89h22c30 0 52 7 67 22s23 39 23 74v144c0 33 9 60 27 81s43 36 75 43c-32 7 -57 22 -75 43c-18 22 -27 49 -27 82v144c0 35 -8 60 -23 75s-37 22 -67 22h-22v89h23
c59 0 105 -15 138 -46s49 -79 49 -144v-118c0 -35 10 -60 31 -75s45 -22 74 -22v-100z" />
    <glyph glyph-name="bracketleft.case" horiz-adv-x="324" 
d="M72 -100v909h214v-90h-116v-729h116v-90h-214z" />
    <glyph glyph-name="bracketright.case" horiz-adv-x="324" 
d="M38 -100v90h116v729h-116v90h214v-909h-214z" />
    <glyph glyph-name="c.ordn" horiz-adv-x="397" 
d="M211 637c-24 0 -45 -8 -62 -25c-18 -17 -27 -42 -27 -75c0 -32 9 -56 27 -73c17 -17 38 -26 63 -26c12 0 23 2 32 6c9 3 17 8 24 14c7 5 12 12 16 19s7 13 9 20l80 -27c-4 -14 -10 -28 -19 -41c-9 -14 -20 -26 -33 -37c-14 -11 -30 -19 -48 -26s-38 -10 -61 -10
c-25 0 -49 5 -71 14s-41 21 -57 37s-29 35 -38 58c-9 22 -14 46 -14 72c0 27 5 51 14 74c9 22 21 41 37 58c16 16 35 29 57 38c21 9 45 13 70 13c23 0 44 -3 62 -10s34 -15 47 -26s24 -23 32 -37c9 -14 15 -28 19 -42l-81 -28c-3 15 -11 28 -23 41c-13 13 -31 19 -55 19z
" />
    <glyph glyph-name="c.ordn.ss08" horiz-adv-x="399" 
d="M211 575c-24 0 -45 -8 -62 -25c-18 -17 -27 -42 -27 -75c0 -32 9 -56 27 -73c17 -17 38 -26 63 -26c12 0 23 2 32 6c9 3 17 8 24 14c7 5 12 12 16 19s7 13 9 20l80 -27c-4 -14 -10 -28 -19 -41c-9 -14 -20 -26 -33 -37c-14 -11 -30 -19 -48 -26s-38 -10 -61 -10
c-25 0 -49 5 -71 14s-41 21 -57 37s-29 35 -38 58c-9 22 -14 46 -14 72c0 27 5 51 14 74c9 22 21 41 37 58c16 16 35 29 57 38c21 9 45 13 70 13c23 0 44 -3 62 -10s34 -15 47 -26s24 -23 32 -37c9 -14 15 -28 19 -42l-81 -28c-3 15 -11 28 -23 41c-13 13 -31 19 -55 19z
" />
    <glyph glyph-name="cent.ss08" horiz-adv-x="530" 
d="M231 0v90c-27 5 -53 15 -76 29s-43 31 -60 52s-30 44 -39 70s-14 54 -14 84s5 58 14 85c9 26 23 49 40 70c17 20 37 37 60 51c23 13 48 23 75 28v89h91v-87c25 -4 47 -11 66 -20c19 -10 36 -21 51 -34c14 -13 26 -28 35 -43c9 -16 16 -32 20 -48l-100 -35
c-4 15 -12 31 -23 46s-28 25 -49 32v-271c23 7 41 18 54 34c12 16 20 31 24 45l98 -35c-5 -16 -13 -32 -22 -47c-10 -16 -22 -31 -36 -44c-15 -13 -32 -25 -51 -34c-20 -10 -42 -17 -67 -20v-87h-91zM151 325c0 -34 8 -62 23 -84c15 -23 34 -39 57 -48v262
c-23 -9 -42 -25 -57 -46c-15 -22 -23 -50 -23 -84z" />
    <glyph glyph-name="cent.tf" 
d="M533 257c-5 -19 -13 -37 -23 -54s-23 -33 -38 -48c-15 -14 -33 -26 -53 -37c-20 -10 -42 -17 -67 -21v-97h-92v97c-30 5 -58 14 -83 29s-46 33 -65 55s-33 47 -44 76c-10 29 -15 60 -15 94s5 66 15 95c11 29 25 54 44 77c19 22 40 40 65 54c25 15 53 24 83 29v103h92
v-104c49 -8 89 -27 119 -57s50 -64 59 -102l-103 -35c-3 11 -8 22 -14 33s-14 21 -24 29c-10 9 -22 16 -36 21c-13 5 -29 8 -47 8c-20 0 -38 -4 -55 -11s-31 -17 -44 -30c-12 -13 -22 -28 -29 -47s-10 -40 -10 -63s3 -44 10 -63c7 -18 17 -34 30 -47s27 -23 44 -30
s35 -10 55 -10c18 0 34 3 48 8s26 12 37 21c10 9 18 18 25 29s12 22 15 33z" />
    <glyph glyph-name="cent.tf.ss08" 
d="M255 0v90c-27 5 -53 15 -76 29s-43 31 -60 52s-30 44 -39 70s-14 54 -14 84s5 58 14 85c9 26 23 49 40 70c17 20 37 37 60 51c23 13 48 23 75 28v89h91v-87c25 -4 47 -11 66 -20c19 -10 36 -21 51 -34c14 -13 26 -28 35 -43c9 -16 16 -32 20 -48l-100 -35
c-4 15 -12 31 -23 46s-28 25 -49 32v-271c23 7 41 18 54 34c12 16 20 31 24 45l98 -35c-5 -16 -13 -32 -22 -47c-10 -16 -22 -31 -36 -44c-15 -13 -32 -25 -51 -34c-20 -10 -42 -17 -67 -20v-87h-91zM175 325c0 -34 8 -62 23 -84c15 -23 34 -39 57 -48v262
c-23 -9 -42 -25 -57 -46c-15 -22 -23 -50 -23 -84z" />
    <glyph glyph-name="colon.tf" 
d="M201 412c0 25 9 46 26 63s37 26 62 26s46 -9 63 -26s26 -38 26 -63s-9 -45 -26 -62s-38 -26 -63 -26s-45 9 -62 26s-26 37 -26 62zM201 74c0 25 9 46 26 63s37 26 62 26s46 -9 63 -26s26 -38 26 -63s-9 -45 -26 -62c-17 -18 -38 -26 -63 -26s-45 8 -62 26
c-17 17 -26 37 -26 62z" />
    <glyph glyph-name="comma.tf" 
d="M190 83c0 24 9 44 27 61s40 25 67 25c30 0 55 -11 74 -33s29 -51 29 -87c0 -40 -6 -74 -18 -103c-12 -28 -27 -52 -46 -71c-18 -19 -38 -33 -60 -44c-21 -10 -42 -16 -61 -18v67c13 3 26 8 38 15c12 8 23 17 32 28s17 24 22 37c6 13 9 27 9 42c-2 -1 -5 -3 -10 -4
c-4 -1 -10 -1 -17 -1c-25 0 -45 8 -61 23c-17 15 -25 36 -25 63z" />
    <glyph glyph-name="currency.ss08" horiz-adv-x="591" 
d="M83 242c0 21 3 42 8 61c6 19 14 36 25 53l-74 75l72 71l74 -76c16 9 33 17 52 22s38 8 58 8c39 0 74 -9 106 -28l73 74l71 -71l-70 -72c11 -17 20 -35 26 -55s9 -41 9 -62s-3 -42 -9 -61c-6 -20 -14 -38 -25 -55l69 -70l-70 -70l-71 72c-33 -19 -69 -29 -109 -29
c-41 0 -78 10 -112 31l-73 -74l-71 70l73 74c-21 33 -32 70 -32 112zM182 242c0 -17 3 -33 9 -47s14 -26 24 -37c11 -11 23 -19 37 -24c14 -6 29 -9 46 -9s32 3 46 9c14 5 26 13 36 24c11 11 19 23 24 37c6 14 9 30 9 47s-3 32 -9 47c-5 14 -13 26 -24 37
c-10 11 -22 19 -36 25c-14 5 -29 8 -46 8s-32 -3 -46 -8c-14 -6 -26 -14 -37 -25c-10 -11 -18 -23 -24 -37c-6 -15 -9 -30 -9 -47z" />
    <glyph glyph-name="currency.tf" 
d="M400 171c-16 -9 -33 -17 -51 -22c-19 -5 -38 -8 -57 -8c-21 0 -40 3 -59 9c-19 5 -36 13 -53 23l-73 -75l-71 71l72 74c-9 15 -17 33 -22 52c-6 19 -9 39 -9 60s3 42 9 61c5 19 13 36 23 52l-73 75l72 71l74 -77c34 21 71 31 110 31s74 -9 106 -28l73 74l71 -71l-70 -72
c11 -16 20 -34 26 -54s9 -41 9 -62s-3 -42 -9 -62s-14 -38 -25 -53l69 -71l-71 -71zM176 355c0 -35 11 -63 33 -85c22 -21 50 -32 83 -32s60 11 82 32c22 22 33 50 33 85c0 34 -11 62 -33 83s-49 32 -82 32c-17 0 -32 -3 -46 -9c-14 -5 -26 -13 -36 -23
c-11 -10 -19 -22 -25 -37c-6 -14 -9 -29 -9 -46z" />
    <glyph glyph-name="currency.tf.ss08" 
d="M78 242c0 21 3 42 8 61c6 19 14 36 25 53l-74 75l72 71l74 -76c16 9 33 17 52 22s38 8 58 8c39 0 74 -9 106 -28l73 74l71 -71l-70 -72c11 -17 20 -35 26 -55s9 -41 9 -62s-3 -42 -9 -61c-6 -20 -14 -38 -25 -55l69 -70l-70 -70l-71 72c-33 -19 -69 -29 -109 -29
c-41 0 -78 10 -112 31l-73 -74l-71 70l73 74c-21 33 -32 70 -32 112zM177 242c0 -17 3 -33 9 -47s14 -26 24 -37c11 -11 23 -19 37 -24c14 -6 29 -9 46 -9s32 3 46 9c14 5 26 13 36 24c11 11 19 23 24 37c6 14 9 30 9 47s-3 32 -9 47c-5 14 -13 26 -24 37
c-10 11 -22 19 -36 25c-14 5 -29 8 -46 8s-32 -3 -46 -8c-14 -6 -26 -14 -37 -25c-10 -11 -18 -23 -24 -37c-6 -15 -9 -30 -9 -47z" />
    <glyph glyph-name="d.ordn" horiz-adv-x="436" 
d="M383 427c0 -15 1 -29 2 -40s1 -18 2 -22h-87c-1 3 -2 9 -2 16c-1 8 -1 16 -1 24c-9 -13 -21 -25 -38 -34s-37 -14 -60 -14c-25 0 -47 5 -67 14c-21 9 -38 21 -53 38c-15 16 -26 35 -34 57c-9 22 -13 46 -13 72c0 25 4 48 12 70s19 41 34 57s32 29 53 38c20 9 42 14 66 14
c30 0 53 -5 68 -15s25 -20 30 -29v199h88v-445zM123 537c0 -31 8 -56 25 -74c16 -18 37 -27 62 -27s45 9 62 28c16 18 24 43 24 74c0 32 -8 56 -24 73c-17 17 -37 26 -62 26s-45 -9 -62 -26s-25 -42 -25 -74z" />
    <glyph glyph-name="d.ordn.ss08" horiz-adv-x="436" 
d="M383 366c0 -15 1 -29 2 -40s1 -18 2 -22h-87c-1 3 -2 9 -2 16c-1 8 -1 16 -1 24c-9 -13 -21 -25 -38 -34s-37 -14 -60 -14c-25 0 -47 5 -67 14c-21 9 -38 21 -53 38c-15 16 -26 35 -34 57c-9 22 -13 46 -13 72c0 25 4 48 12 70s19 41 34 57s32 29 53 38c20 9 42 14 66 14
c30 0 53 -5 68 -15s25 -20 30 -29v199h88v-445zM123 476c0 -31 8 -56 25 -74c16 -18 37 -27 62 -27s45 9 62 28c16 18 24 43 24 74c0 32 -8 56 -24 73c-17 17 -37 26 -62 26s-45 -9 -62 -26s-25 -42 -25 -74z" />
    <glyph glyph-name="degree.ss08" horiz-adv-x="406" 
d="M132 500c0 -21 7 -39 21 -53c13 -14 30 -21 50 -21s37 7 50 21s20 32 20 53s-7 39 -20 53c-13 13 -30 20 -50 20s-37 -7 -50 -20c-14 -14 -21 -32 -21 -53zM39 500c0 23 4 44 13 63s21 36 36 51s32 26 52 35c20 8 41 12 63 12s43 -4 63 -12c19 -9 37 -20 52 -35
s27 -32 36 -51s13 -40 13 -63s-4 -44 -13 -63c-9 -20 -21 -37 -36 -51c-15 -15 -33 -26 -53 -34s-41 -12 -63 -12s-43 4 -62 13c-20 8 -37 19 -52 34c-15 14 -27 31 -36 50s-13 40 -13 63z" />
    <glyph glyph-name="dieresis.narrow" horiz-adv-x="315" 
d="M19 625c0 17 6 32 18 44c11 12 26 18 43 18s32 -6 44 -18c11 -12 17 -27 17 -44s-6 -32 -17 -43c-12 -12 -27 -18 -44 -18s-32 6 -43 18c-12 11 -18 26 -18 43zM174 625c0 17 6 32 18 44c11 12 25 18 42 18s32 -6 44 -18s18 -27 18 -44s-6 -32 -18 -43
c-12 -12 -27 -18 -44 -18s-31 6 -42 18c-12 11 -18 26 -18 43z" />
    <glyph glyph-name="divide.ss08" horiz-adv-x="556" 
d="M204 111c0 19 7 36 22 50c14 14 31 21 50 21c20 0 37 -7 51 -21s21 -31 21 -50s-7 -36 -21 -50c-14 -15 -31 -22 -51 -22c-19 0 -36 7 -50 22c-15 14 -22 31 -22 50zM204 472c0 19 7 36 22 50c14 15 31 22 50 22c20 0 37 -7 51 -22c14 -14 21 -31 21 -50s-7 -36 -21 -50
c-14 -15 -31 -22 -51 -22c-19 0 -36 7 -50 22c-15 14 -22 31 -22 50zM41 341h474v-99h-474v99z" />
    <glyph glyph-name="divide.tf" 
d="M215 168c0 19 7 36 22 50c14 15 31 22 50 22c20 0 37 -7 51 -22c14 -14 21 -31 21 -50s-7 -36 -21 -50c-14 -15 -31 -22 -51 -22c-19 0 -36 7 -50 22c-15 14 -22 31 -22 50zM215 530c0 19 7 36 22 50c14 14 31 21 50 21c20 0 37 -7 51 -21s21 -31 21 -50s-7 -36 -21 -51
s-31 -22 -51 -22c-19 0 -36 7 -50 22c-15 15 -22 32 -22 51zM51 299v99h475v-99h-475z" />
    <glyph glyph-name="divide.tf.ss08" 
d="M215 473c0 19 7 36 22 50c14 14 31 21 50 21s36 -7 50 -21c15 -14 22 -31 22 -50s-7 -36 -22 -51c-14 -15 -31 -22 -50 -22s-36 7 -50 22c-15 15 -22 32 -22 51zM51 341h475v-98h-475v98zM215 111c0 19 7 36 22 50c14 15 31 22 50 22s36 -7 50 -22c15 -14 22 -31 22 -50
s-7 -36 -22 -50c-14 -15 -31 -22 -50 -22s-36 7 -50 22c-15 14 -22 31 -22 50z" />
    <glyph glyph-name="dollar.ss08" horiz-adv-x="560" 
d="M244 -117v105c-35 4 -65 13 -91 26c-26 14 -48 30 -65 49c-18 19 -32 39 -41 61c-10 23 -16 45 -18 66l112 31c3 -29 12 -55 29 -80c16 -25 41 -41 74 -49v184l-18 4c-53 12 -95 33 -126 64s-46 71 -46 120c0 25 5 48 14 70s23 42 40 59c17 18 37 33 60 44s49 19 76 23
v106h92v-107c29 -5 55 -13 76 -25s39 -26 54 -41s26 -32 35 -50c8 -17 14 -34 17 -51l-108 -34c-1 7 -3 15 -6 24s-8 18 -14 27s-13 18 -22 25c-9 8 -19 14 -32 19v-179l9 -2c60 -13 105 -37 135 -72c30 -34 45 -73 45 -118c0 -23 -4 -45 -12 -66s-20 -41 -36 -58
s-36 -32 -59 -44c-24 -13 -51 -21 -82 -25v-106h-92zM171 471c0 -18 6 -34 18 -49c11 -14 30 -24 55 -29v164c-24 -6 -42 -17 -54 -33c-13 -16 -19 -34 -19 -53zM409 176c0 18 -6 34 -17 48c-12 14 -31 25 -56 32v-164c25 5 44 16 56 31c11 16 17 34 17 53z" />
    <glyph glyph-name="dollar.tf" 
d="M252 -115v118c-36 5 -67 14 -93 28c-27 13 -49 30 -67 50c-18 19 -32 41 -41 64c-10 23 -16 45 -19 68l106 28c2 -18 7 -35 14 -52s18 -31 31 -44s29 -24 48 -31c19 -8 42 -12 67 -12c40 0 71 9 93 28c21 18 32 41 32 68c0 23 -8 43 -24 59s-39 27 -68 33l-101 21
c-53 11 -94 33 -125 66s-47 74 -47 124c0 27 5 52 15 75s24 44 41 62s38 33 62 45c23 11 49 19 76 23v119h92v-120c29 -5 55 -13 76 -24c21 -12 40 -26 55 -42s26 -33 35 -52s15 -37 19 -55l-104 -31c-2 12 -6 24 -12 37c-6 12 -14 23 -25 33s-24 18 -40 25
c-16 6 -35 9 -58 9c-35 0 -63 -9 -85 -27c-22 -19 -33 -41 -33 -68c0 -47 27 -76 82 -88l99 -20c61 -12 107 -35 139 -70s48 -77 48 -126c0 -24 -4 -47 -13 -69c-9 -23 -21 -43 -38 -61c-17 -19 -37 -34 -62 -47c-24 -13 -52 -21 -83 -26v-118h-92z" />
    <glyph glyph-name="dollar.tf.ss08" 
d="M253 -109v103c-34 4 -64 13 -89 26s-47 29 -64 47c-17 19 -31 39 -40 61c-10 22 -16 43 -18 64l110 31c3 -29 12 -55 28 -79s40 -40 73 -48v180l-18 4c-52 12 -93 33 -123 63s-45 69 -45 118c0 24 5 47 14 68c9 22 21 42 38 59s37 31 60 42s47 19 74 23v104h90v-105
c29 -5 54 -13 75 -25c21 -11 38 -25 53 -40c14 -15 25 -31 34 -48c8 -17 14 -34 17 -51l-106 -33c-1 7 -3 15 -6 24s-8 17 -14 26s-13 17 -21 24c-9 8 -19 14 -32 19v-176l9 -1c59 -13 103 -37 132 -70c29 -34 44 -73 44 -117c0 -22 -4 -43 -11 -64c-8 -21 -20 -40 -35 -57
c-16 -17 -36 -32 -59 -44s-50 -20 -80 -24v-104h-90zM182 468c0 -18 6 -34 17 -48s29 -24 54 -29v161c-23 -6 -41 -17 -53 -32c-12 -16 -18 -33 -18 -52zM415 178c0 18 -6 34 -17 48c-12 13 -30 24 -55 31v-161c25 5 43 16 55 31c11 15 17 32 17 51z" />
    <glyph glyph-name="dotlessi" horiz-adv-x="259" 
d="M72 0v487h115v-487h-115z" />
    <glyph glyph-name="e.ordn" horiz-adv-x="402" 
d="M281 576c-1 17 -7 33 -20 48c-12 15 -32 22 -59 22c-25 0 -44 -7 -57 -22s-21 -31 -22 -48h158zM366 464c-9 -31 -27 -57 -54 -78s-61 -31 -103 -31c-23 0 -46 4 -67 12c-21 9 -40 21 -57 36c-16 16 -29 35 -39 58c-9 23 -14 49 -14 78c0 27 5 52 14 74s22 41 37 56
c16 16 34 28 54 37c21 9 42 13 64 13c53 0 95 -16 124 -48c30 -31 45 -75 45 -130c0 -7 0 -14 -1 -19s-1 -8 -1 -9h-247c1 -23 10 -43 27 -58c17 -16 38 -24 62 -24c23 0 40 5 53 16s22 24 27 39z" />
    <glyph glyph-name="e.ordn.ss08" horiz-adv-x="402" 
d="M281 515c-1 17 -7 33 -20 48c-12 15 -32 22 -59 22c-25 0 -44 -7 -57 -22s-21 -31 -22 -48h158zM366 403c-9 -31 -27 -57 -54 -78s-61 -31 -103 -31c-23 0 -46 4 -67 12c-21 9 -40 21 -57 36c-16 16 -29 35 -39 58c-9 23 -14 49 -14 78c0 27 5 52 14 74s22 41 37 56
c16 16 34 28 54 37c21 9 42 13 64 13c53 0 95 -16 124 -48c30 -31 45 -75 45 -130c0 -7 0 -14 -1 -19s-1 -8 -1 -9h-247c1 -23 10 -43 27 -58c17 -16 38 -24 62 -24c23 0 40 5 53 16s22 24 27 39z" />
    <glyph glyph-name="eight.dnom" horiz-adv-x="369" 
d="M185 220c16 0 28 4 37 13c9 8 13 18 13 30c0 11 -4 20 -12 28c-9 8 -21 12 -38 12s-29 -4 -38 -12s-13 -17 -13 -28c0 -12 5 -22 14 -30c9 -9 21 -13 37 -13zM185 66c21 0 36 4 46 13c9 9 14 20 14 33c0 12 -5 22 -15 31s-25 13 -45 13s-35 -4 -45 -13
c-11 -9 -16 -19 -16 -31c0 -13 5 -24 15 -33s25 -13 46 -13zM185 -7c-48 0 -85 10 -112 30c-26 21 -39 47 -39 79c0 19 6 37 19 52c13 16 31 28 52 35c-19 7 -34 18 -44 33c-11 15 -16 31 -16 48c0 31 13 56 38 76c25 19 59 29 102 29s77 -10 102 -29c25 -20 37 -45 37 -76
c0 -17 -5 -33 -15 -48s-25 -26 -44 -33c21 -7 39 -19 52 -34s19 -32 19 -51c0 -32 -13 -58 -39 -79s-63 -32 -112 -32z" />
    <glyph glyph-name="eight.numr" horiz-adv-x="368" 
d="M184 562c16 0 28 4 37 13c9 8 13 18 13 30c0 11 -4 20 -12 28c-9 8 -21 12 -38 12s-29 -4 -38 -12s-13 -17 -13 -28c0 -12 5 -22 14 -30c9 -9 21 -13 37 -13zM184 408c21 0 36 4 46 13c9 9 14 20 14 33c0 12 -5 22 -15 31s-25 13 -45 13s-35 -4 -45 -13
c-11 -9 -16 -19 -16 -31c0 -13 5 -24 15 -33s25 -13 46 -13zM184 335c-48 0 -85 10 -112 30c-26 21 -39 47 -39 79c0 19 6 37 19 52c13 16 31 28 52 35c-19 7 -34 18 -44 33c-11 15 -16 31 -16 48c0 31 13 56 38 76c25 19 59 29 102 29s77 -10 102 -29c25 -20 37 -45 37 -76
c0 -17 -5 -33 -15 -48s-25 -26 -44 -33c21 -7 39 -19 52 -34s19 -32 19 -51c0 -32 -13 -58 -39 -79s-63 -32 -112 -32z" />
    <glyph glyph-name="eight.numr.ss08" horiz-adv-x="368" 
d="M184 501c16 0 28 4 37 13c9 8 13 18 13 30c0 11 -4 20 -12 28c-9 8 -21 12 -38 12s-29 -4 -38 -12s-13 -17 -13 -28c0 -12 5 -22 14 -30c9 -9 21 -13 37 -13zM184 347c21 0 36 4 46 13c9 9 14 20 14 33c0 12 -5 22 -15 31s-25 13 -45 13s-35 -4 -45 -13
c-11 -9 -16 -19 -16 -31c0 -13 5 -24 15 -33s25 -13 46 -13zM184 274c-48 0 -85 10 -112 30c-26 21 -39 47 -39 79c0 19 6 37 19 52c13 16 31 28 52 35c-19 7 -34 18 -44 33c-11 15 -16 31 -16 48c0 31 13 56 38 76c25 19 59 29 102 29s77 -10 102 -29c25 -20 37 -45 37 -76
c0 -17 -5 -33 -15 -48s-25 -26 -44 -33c21 -7 39 -19 52 -34s19 -32 19 -51c0 -32 -13 -58 -39 -79s-63 -32 -112 -32z" />
    <glyph glyph-name="eight.ss08" horiz-adv-x="575" 
d="M287 378c33 0 59 9 78 27s29 41 29 68c0 25 -9 46 -28 65c-19 18 -46 27 -79 27s-59 -9 -78 -27c-19 -19 -28 -40 -28 -65c0 -27 10 -50 29 -68s45 -27 77 -27zM287 86c40 0 70 10 91 30c21 19 31 42 31 69s-10 50 -31 70s-51 30 -91 30c-39 0 -69 -10 -90 -30
s-31 -43 -31 -70s10 -50 31 -69c21 -20 51 -30 90 -30zM287 -15c-37 0 -71 5 -100 14s-55 23 -76 40s-37 36 -48 59s-16 48 -16 75c0 37 11 70 34 99c23 28 51 48 86 60c-31 11 -57 31 -76 59c-19 27 -29 57 -29 89c0 27 6 51 17 74s27 42 47 58s44 29 71 38s57 13 90 13
s63 -4 90 -13c28 -9 52 -22 72 -38s36 -35 47 -58s17 -47 17 -74c0 -16 -3 -31 -8 -46s-12 -30 -21 -43s-21 -25 -34 -35s-27 -18 -42 -24c17 -6 32 -14 47 -24c15 -11 28 -23 39 -36c11 -14 19 -29 25 -46s9 -34 9 -53c0 -27 -5 -52 -16 -75s-27 -42 -48 -59
s-47 -31 -76 -40c-30 -9 -64 -14 -101 -14z" />
    <glyph glyph-name="eight.tf" 
d="M289 317c-23 0 -43 -3 -60 -9c-17 -7 -32 -15 -43 -26c-12 -11 -21 -23 -27 -37s-9 -29 -9 -44s3 -30 9 -44s15 -26 27 -36c12 -11 27 -19 44 -25c17 -7 37 -10 59 -10c23 0 43 3 60 10c17 6 32 14 44 25c11 10 20 22 26 36s9 29 9 44s-3 30 -9 44s-15 26 -26 37
s-26 19 -43 26c-18 6 -38 9 -61 9zM289 -14c-39 0 -75 5 -106 15s-58 24 -81 42s-40 39 -52 64s-18 53 -18 82c0 40 12 76 37 107c25 32 57 54 97 67c-19 6 -35 15 -50 26s-28 24 -38 39c-11 15 -19 30 -24 47c-5 16 -8 33 -8 50c0 29 6 55 18 79c12 25 29 46 50 63
s47 31 77 41c29 10 62 15 98 15s69 -5 99 -15c29 -10 55 -24 77 -41c21 -17 38 -38 50 -63c11 -24 17 -50 17 -79c0 -17 -3 -34 -8 -50c-5 -17 -13 -32 -24 -47s-23 -28 -38 -39s-32 -20 -51 -26c20 -6 38 -15 55 -26c17 -12 31 -25 43 -40s21 -32 28 -50c6 -19 9 -38 9 -58
c0 -29 -6 -56 -18 -81s-29 -47 -52 -65s-50 -32 -81 -42c-32 -10 -67 -15 -106 -15zM289 408c39 1 70 11 91 32c22 21 33 46 33 77c0 29 -11 53 -32 74s-52 31 -92 31c-39 0 -70 -10 -92 -31c-21 -21 -32 -45 -32 -74c0 -31 11 -56 33 -77s52 -31 91 -32z" />
    <glyph glyph-name="eight.tf.ss08" 
d="M289 378c33 0 59 9 78 27s29 41 29 68c0 25 -9 46 -28 65c-19 18 -46 27 -79 27s-59 -9 -78 -27c-19 -19 -28 -40 -28 -65c0 -27 10 -50 29 -68s45 -27 77 -27zM289 86c40 0 70 10 91 30c21 19 31 42 31 69s-10 50 -31 70s-51 30 -91 30c-39 0 -69 -10 -90 -30
s-31 -43 -31 -70s10 -50 31 -69c21 -20 51 -30 90 -30zM289 -15c-37 0 -71 5 -100 14s-55 23 -76 40s-37 36 -48 59s-16 48 -16 75c0 37 11 70 34 99c23 28 51 48 86 60c-31 11 -57 31 -76 59c-19 27 -29 57 -29 89c0 27 6 51 17 74s27 42 47 58s44 29 71 38s57 13 90 13
s63 -4 90 -13c28 -9 52 -22 72 -38s36 -35 47 -58s17 -47 17 -74c0 -16 -3 -31 -8 -46s-12 -30 -21 -43s-21 -25 -34 -35s-27 -18 -42 -24c17 -6 32 -14 47 -24c15 -11 28 -23 39 -36c11 -14 19 -29 25 -46s9 -34 9 -53c0 -27 -5 -52 -16 -75s-27 -42 -48 -59
s-47 -31 -76 -40c-30 -9 -64 -14 -101 -14z" />
    <glyph glyph-name="emdash.case" horiz-adv-x="1076" 
d="M66 292v101h946v-101h-946z" />
    <glyph glyph-name="endash.case" horiz-adv-x="644" 
d="M66 292v101h514v-101h-514z" />
    <glyph glyph-name="equal.ss08" horiz-adv-x="599" 
d="M62 343v94h475v-94h-475zM62 146v95h475v-95h-475z" />
    <glyph glyph-name="equal.tf" 
d="M51 401v94h476v-94h-476zM51 203v96h476v-96h-476z" />
    <glyph glyph-name="equal.tf.ss08" 
d="M52 343v94h475v-94h-475zM52 146v95h475v-95h-475z" />
    <glyph glyph-name="exclamdown.case" horiz-adv-x="270" 
d="M206 0h-142l30 498h83zM62 642c0 20 7 37 22 52c14 14 31 21 51 21s37 -7 52 -21c15 -15 22 -32 22 -52c0 -21 -7 -38 -22 -52s-32 -21 -52 -21s-37 7 -51 21c-15 14 -22 31 -22 52z" />
    <glyph glyph-name="f.ordn" horiz-adv-x="270" 
d="M174 632v-267h-90v267h-58v77h58v41c0 39 11 70 34 93c22 23 52 34 89 34c11 0 20 -1 29 -2c8 -2 14 -4 17 -5v-76c-2 1 -5 2 -10 3s-11 1 -20 1c-11 0 -21 -3 -32 -10s-17 -20 -17 -39v-40h78v-77h-78z" />
    <glyph glyph-name="f.ordn.ss08" horiz-adv-x="270" 
d="M174 571v-267h-90v267h-58v77h58v41c0 39 11 70 34 93c22 23 52 34 89 34c11 0 20 -1 29 -2c8 -2 14 -4 17 -5v-76c-2 1 -5 2 -10 3s-11 1 -20 1c-11 0 -21 -3 -32 -10s-17 -20 -17 -39v-40h78v-77h-78z" />
    <glyph glyph-name="fi" horiz-adv-x="626" 
d="M283 729c15 0 28 -1 39 -3c11 -3 18 -5 22 -7v-99c-3 1 -8 3 -15 4s-16 1 -27 1c-7 0 -15 -1 -24 -3s-16 -6 -23 -11c-7 -6 -13 -14 -18 -23c-5 -10 -7 -22 -7 -37v-64h324v-487h-114v386h-210v-386h-117v386h-85v101h85v67c0 27 4 52 13 74c8 21 20 40 35 55
s32 26 53 34s44 12 69 12zM422 659c0 21 7 39 22 54c14 15 32 22 53 22s39 -7 54 -22s22 -33 22 -54s-7 -38 -22 -53s-33 -22 -54 -22s-39 7 -53 22c-15 15 -22 32 -22 53z" />
    <glyph glyph-name="five.dnom" horiz-adv-x="351" 
d="M105 122c3 -16 11 -29 23 -38s26 -14 43 -14s31 5 42 14s17 22 17 39c0 19 -6 34 -17 43s-26 13 -43 13c-12 0 -23 -2 -33 -6c-9 -5 -18 -11 -25 -18l-74 24l47 188h214v-75h-158l-19 -73c9 9 19 15 32 19s27 6 40 6c38 0 68 -10 91 -31s35 -51 35 -88
c0 -18 -3 -35 -10 -51s-16 -30 -29 -41c-12 -12 -27 -21 -46 -28s-40 -11 -64 -11c-19 0 -37 3 -53 9c-17 5 -31 13 -44 22s-23 20 -31 33c-9 12 -14 25 -17 39z" />
    <glyph glyph-name="five.numr" horiz-adv-x="349" 
d="M104 464c3 -16 11 -29 23 -38s26 -14 43 -14s31 5 42 14s17 22 17 39c0 19 -6 34 -17 43s-26 13 -43 13c-12 0 -23 -2 -33 -6c-9 -5 -18 -11 -25 -18l-74 24l47 188h214v-75h-158l-19 -73c9 9 19 15 32 19s27 6 40 6c38 0 68 -10 91 -31s35 -51 35 -88
c0 -18 -3 -35 -10 -51s-16 -30 -29 -41c-12 -12 -27 -21 -46 -28s-40 -11 -64 -11c-19 0 -37 3 -53 9c-17 5 -31 13 -44 22s-23 20 -31 33c-9 12 -14 25 -17 39z" />
    <glyph glyph-name="five.numr.ss08" horiz-adv-x="349" 
d="M104 403c3 -16 11 -29 23 -38s26 -14 43 -14s31 5 42 14s17 22 17 39c0 19 -6 34 -17 43s-26 13 -43 13c-12 0 -23 -2 -33 -6c-9 -5 -18 -11 -25 -18l-74 24l47 188h214v-75h-158l-19 -73c9 9 19 15 32 19s27 6 40 6c38 0 68 -10 91 -31s35 -51 35 -88
c0 -18 -3 -35 -10 -51s-16 -30 -29 -41c-12 -12 -27 -21 -46 -28s-40 -11 -64 -11c-19 0 -37 3 -53 9c-17 5 -31 13 -44 22s-23 20 -31 33c-9 12 -14 25 -17 39z" />
    <glyph glyph-name="five.ss08" horiz-adv-x="558" 
d="M143 208c3 -35 16 -63 39 -86s54 -35 92 -35c17 0 33 3 48 9c15 5 28 13 39 23s20 22 26 37c7 15 10 31 10 49c0 20 -4 38 -11 53s-16 27 -27 37s-25 18 -40 23s-30 7 -47 7c-23 0 -44 -4 -63 -12c-19 -9 -34 -20 -45 -33l-113 41l80 327h355v-105h-274l-40 -164
c14 15 32 26 55 34c23 7 46 11 69 11c32 0 62 -5 89 -14c27 -10 51 -24 70 -43c20 -19 35 -41 46 -68s17 -57 17 -91c0 -31 -6 -59 -17 -86s-28 -51 -49 -71c-21 -21 -46 -37 -77 -49c-30 -12 -64 -18 -101 -18c-35 0 -67 5 -96 16s-54 25 -75 43s-38 39 -51 63
c-13 23 -20 48 -22 73z" />
    <glyph glyph-name="five.tf" 
d="M139 222c2 -18 7 -35 14 -51s17 -30 29 -42c13 -11 27 -21 44 -28s36 -10 57 -10c20 0 38 3 55 10s32 16 44 28c13 12 22 26 29 43s11 35 11 55c0 23 -4 43 -11 60s-17 32 -29 44c-13 12 -27 21 -44 27s-36 9 -55 9c-28 0 -52 -6 -73 -17s-39 -26 -52 -43
c-1 1 -7 3 -18 7s-23 8 -36 12c-13 5 -24 9 -35 13s-18 6 -19 7l75 363h384v-106h-301l-40 -192c17 18 39 31 65 40c25 9 51 13 76 13c35 0 67 -5 96 -16s53 -26 74 -47c20 -20 36 -45 47 -74s16 -62 16 -99c0 -33 -6 -64 -18 -93s-29 -55 -51 -77c-23 -22 -50 -39 -82 -52
c-32 -14 -68 -20 -108 -20c-36 0 -69 6 -99 17c-31 11 -57 27 -79 47c-22 19 -39 42 -52 67s-21 52 -24 80z" />
    <glyph glyph-name="five.tf.ss08" 
d="M153 208c3 -35 16 -63 39 -86s54 -35 92 -35c17 0 33 3 48 9c15 5 28 13 39 23s20 22 26 37c7 15 10 31 10 49c0 20 -4 38 -11 53s-16 27 -27 37s-25 18 -40 23s-30 7 -47 7c-23 0 -44 -4 -63 -12c-19 -9 -34 -20 -45 -33l-113 41l80 327h355v-105h-274l-40 -164
c14 15 32 26 55 34c23 7 46 11 69 11c32 0 62 -5 89 -14c27 -10 51 -24 70 -43c20 -19 35 -41 46 -68s17 -57 17 -91c0 -31 -6 -59 -17 -86s-28 -51 -49 -71c-21 -21 -46 -37 -77 -49c-30 -12 -64 -18 -101 -18c-35 0 -67 5 -96 16s-54 25 -75 43s-38 39 -51 63
c-13 23 -20 48 -22 73z" />
    <glyph glyph-name="fl" horiz-adv-x="625" 
d="M302 625c-7 0 -15 -1 -24 -3s-16 -6 -23 -11c-7 -6 -13 -14 -18 -23c-5 -10 -7 -22 -7 -37v-64h208v237h115v-724h-115v386h-208v-386h-117v386h-85v101h85v67c0 27 4 52 13 74c8 21 20 40 35 55s32 26 53 34s44 12 69 12c15 0 28 -1 39 -3c11 -3 18 -5 22 -7v-99
c-3 1 -8 3 -15 4s-16 1 -27 1z" />
    <glyph glyph-name="florin.tf" 
d="M223 388h-103v99h123l21 101c5 27 14 50 26 69s26 35 42 47c16 13 33 22 52 27c19 6 38 9 57 9c21 0 38 -1 49 -4c11 -2 22 -5 33 -8v-101c-17 5 -36 8 -57 8c-8 0 -16 -1 -25 -2c-9 -2 -17 -6 -26 -12s-16 -14 -23 -25s-12 -26 -16 -45l-13 -64h122v-99h-142l-81 -401
c-5 -27 -14 -50 -26 -69s-26 -35 -42 -47c-16 -13 -33 -22 -52 -27c-19 -6 -38 -9 -57 -9c-22 0 -39 1 -50 4c-11 2 -23 5 -35 8v101c8 -2 17 -4 27 -5s21 -2 34 -2c8 0 16 1 25 2c9 2 17 6 26 12c8 6 16 14 23 25s12 26 15 44z" />
    <glyph glyph-name="four.dnom" horiz-adv-x="385" 
d="M26 160l172 207h99v-222h62v-73h-62v-71h-90v71h-181v88zM207 270l-103 -125h103v125z" />
    <glyph glyph-name="four.numr" horiz-adv-x="383" 
d="M25 502l172 207h99v-222h62v-73h-62v-71h-90v71h-181v88zM206 612l-103 -125h103v125z" />
    <glyph glyph-name="four.numr.ss08" horiz-adv-x="383" 
d="M25 441l172 207h99v-222h62v-73h-62v-71h-90v71h-181v88zM206 551l-103 -125h103v125z" />
    <glyph glyph-name="four.ss08" horiz-adv-x="599" 
d="M30 272l276 376h154v-400h109v-106h-109v-142h-118v142h-312v130zM342 527l-204 -279h204v279z" />
    <glyph glyph-name="four.tf" 
d="M5 285l301 424h150v-446h116v-107h-116v-156h-119v156h-332v129zM337 580l-223 -317h223v317z" />
    <glyph glyph-name="four.tf.ss08" 
d="M25 272l274 376h154v-400h97v-106h-97v-142h-118v142h-310v130zM335 527l-202 -279h202v279z" />
    <glyph glyph-name="fraction.ss08" horiz-adv-x="187" 
d="M-196 0l462 648h104l-461 -648h-105z" />
    </font>
</defs>
</svg>
